  0
SECTION
  2
HEADER
  9
$ACADVER
  1
AC1015
  9
$ACADMAINTVER
 70
     6
  9
$DWGCODEPAGE
  3
ANSI_1252
  9
$INSBASE
 10
0.0
 20
0.0
 30
0.0
  9
$EXTMIN
 10
0.0
 20
0.0
 30
0.0
  9
$EXTMAX
 10
24.0
 20
12.0
 30
0.0
  9
$LIMMIN
 10
0.0
 20
0.0
  9
$LIMMAX
 10
24.0
 20
12.0
  9
$ORTHOMODE
 70
     0
  9
$REGENMODE
 70
     1
  9
$FILLMODE
 70
     1
  9
$QTEXTMODE
 70
     0
  9
$MIRRTEXT
 70
     1
  9
$LTSCALE
 40
1.0
  9
$ATTMODE
 70
     1
  9
$TEXTSIZE
 40
0.125
  9
$TRACEWID
 40
0.05
  9
$TEXTSTYLE
  7
Standard
  9
$CLAYER
  8
0
  9
$CELTYPE
  6
ByLayer
  9
$CECOLOR
 62
   256
  9
$CELTSCALE
 40
1.0
  9
$DISPSILH
 70
     0
  9
$DIMSCALE
 40
1.0
  9
$DIMASZ
 40
0.13
  9
$DIMEXO
 40
0.05
  9
$DIMDLI
 40
0.38
  9
$DIMRND
 40
0.0
  9
$DIMDLE
 40
0.0
  9
$DIMEXE
 40
0.125
  9
$DIMTP
 40
0.0
  9
$DIMTM
 40
0.0
  9
$DIMTXT
 40
0.125
  9
$DIMCEN
 40
0.09
  9
$DIMTSZ
 40
0.0
  9
$DIMTOL
 70
     0
  9
$DIMLIM
 70
     0
  9
$DIMTIH
 70
     1
  9
$DIMTOH
 70
     1
  9
$DIMSE1
 70
     0
  9
$DIMSE2
 70
     0
  9
$DIMTAD
 70
     0
  9
$DIMZIN
 70
     1
  9
$DIMBLK
  1

  9
$DIMASO
 70
     1
  9
$DIMSHO
 70
     1
  9
$DIMPOST
  1

  9
$DIMAPOST
  1

  9
$DIMALT
 70
     0
  9
$DIMALTD
 70
     2
  9
$DIMALTF
 40
25.4
  9
$DIMLFAC
 40
1.0
  9
$DIMTOFL
 70
     0
  9
$DIMTVP
 40
0.0
  9
$DIMTIX
 70
     0
  9
$DIMSOXD
 70
     0
  9
$DIMSAH
 70
     0
  9
$DIMBLK1
  1

  9
$DIMBLK2
  1

  9
$DIMSTYLE
  2
Standard
  9
$DIMCLRD
 70
     0
  9
$DIMCLRE
 70
     0
  9
$DIMCLRT
 70
     0
  9
$DIMTFAC
 40
1.0
  9
$DIMGAP
 40
0.06
  9
$DIMJUST
 70
     0
  9
$DIMSD1
 70
     0
  9
$DIMSD2
 70
     0
  9
$DIMTOLJ
 70
     1
  9
$DIMTZIN
 70
     1
  9
$DIMALTZ
 70
     0
  9
$DIMALTTZ
 70
     0
  9
$DIMUPT
 70
     0
  9
$DIMDEC
 70
     2
  9
$DIMTDEC
 70
     2
  9
$DIMALTU
 70
     2
  9
$DIMALTTD
 70
     2
  9
$DIMTXSTY
  7
Standard
  9
$DIMAUNIT
 70
     0
  9
$DIMADEC
 70
     2
  9
$DIMALTRND
 40
0.0
  9
$DIMAZIN
 70
     0
  9
$DIMDSEP
 70
    46
  9
$DIMATFIT
 70
     3
  9
$DIMFRAC
 70
     0
  9
$DIMLDRBLK
  1

  9
$DIMLUNIT
 70
     2
  9
$DIMLWD
 70
    -2
  9
$DIMLWE
 70
    -2
  9
$DIMTMOVE
 70
     0
  9
$LUNITS
 70
     2
  9
$LUPREC
 70
     6
  9
$SKETCHINC
 40
0.1
  9
$FILLETRAD
 40
0.0
  9
$AUNITS
 70
     0
  9
$AUPREC
 70
     2
  9
$MENU
  1
.
  9
$ELEVATION
 40
0.0
  9
$PELEVATION
 40
0.0
  9
$THICKNESS
 40
0.0
  9
$LIMCHECK
 70
     0
  9
$CHAMFERA
 40
0.0
  9
$CHAMFERB
 40
0.0
  9
$CHAMFERC
 40
0.0
  9
$CHAMFERD
 40
0.0
  9
$SKPOLY
 70
     0
  9
$TDCREATE
 40
2460960.480396586
  9
$TDUCREATE
 40
2460960.772063253
  9
$TDUPDATE
 40
2460960.480397524
  9
$TDUUPDATE
 40
2460960.77206419
  9
$TDINDWG
 40
0.0000000116
  9
$TDUSRTIMER
 40
0.0000000116
  9
$USRTIMER
 70
     1
  9
$ANGBASE
 50
0.0
  9
$ANGDIR
 70
     0
  9
$PDMODE
 70
     0
  9
$PDSIZE
 40
-1.0
  9
$PLINEWID
 40
0.0
  9
$SPLFRAME
 70
     0
  9
$SPLINETYPE
 70
     6
  9
$SPLINESEGS
 70
     8
  9
$HANDSEED
  5
125
  9
$SURFTAB1
 70
     6
  9
$SURFTAB2
 70
     6
  9
$SURFTYPE
 70
     6
  9
$SURFU
 70
     6
  9
$SURFV
 70
     6
  9
$UCSBASE
  2

  9
$UCSNAME
  2

  9
$UCSORG
 10
0.0
 20
0.0
 30
0.0
  9
$UCSXDIR
 10
1.0
 20
0.0
 30
0.0
  9
$UCSYDIR
 10
0.0
 20
1.0
 30
0.0
  9
$UCSORTHOREF
  2

  9
$UCSORTHOVIEW
 70
     0
  9
$UCSORGTOP
 10
0.0
 20
0.0
 30
0.0
  9
$UCSORGBOTTOM
 10
0.0
 20
0.0
 30
0.0
  9
$UCSORGLEFT
 10
0.0
 20
0.0
 30
0.0
  9
$UCSORGRIGHT
 10
0.0
 20
0.0
 30
0.0
  9
$UCSORGFRONT
 10
0.0
 20
0.0
 30
0.0
  9
$UCSORGBACK
 10
0.0
 20
0.0
 30
0.0
  9
$PUCSBASE
  2

  9
$PUCSNAME
  2

  9
$PUCSORG
 10
0.0
 20
0.0
 30
0.0
  9
$PUCSXDIR
 10
1.0
 20
0.0
 30
0.0
  9
$PUCSYDIR
 10
0.0
 20
1.0
 30
0.0
  9
$PUCSORTHOREF
  2

  9
$PUCSORTHOVIEW
 70
     0
  9
$PUCSORGTOP
 10
0.0
 20
0.0
 30
0.0
  9
$PUCSORGBOTTOM
 10
0.0
 20
0.0
 30
0.0
  9
$PUCSORGLEFT
 10
0.0
 20
0.0
 30
0.0
  9
$PUCSORGRIGHT
 10
0.0
 20
0.0
 30
0.0
  9
$PUCSORGFRONT
 10
0.0
 20
0.0
 30
0.0
  9
$PUCSORGBACK
 10
0.0
 20
0.0
 30
0.0
  9
$USERI1
 70
     0
  9
$USERI2
 70
     0
  9
$USERI3
 70
     0
  9
$USERI4
 70
     0
  9
$USERI5
 70
     0
  9
$USERR1
 40
0.0
  9
$USERR2
 40
0.0
  9
$USERR3
 40
0.0
  9
$USERR4
 40
0.0
  9
$USERR5
 40
0.0
  9
$WORLDVIEW
 70
     1
  9
$SHADEDGE
 70
     3
  9
$SHADEDIF
 70
    70
  9
$TILEMODE
 70
     1
  9
$MAXACTVP
 70
    64
  9
$PINSBASE
 10
0.0
 20
0.0
 30
0.0
  9
$PLIMCHECK
 70
     0
  9
$PEXTMIN
 10
1.0000000000E+20
 20
1.0000000000E+20
 30
1.0000000000E+20
  9
$PEXTMAX
 10
-1.0000000000E+20
 20
-1.0000000000E+20
 30
-1.0000000000E+20
  9
$PLIMMIN
 10
0.0
 20
0.0
  9
$PLIMMAX
 10
12.0
 20
9.0
  9
$UNITMODE
 70
     0
  9
$VISRETAIN
 70
     1
  9
$PLINEGEN
 70
     0
  9
$PSLTSCALE
 70
     1
  9
$TREEDEPTH
 70
  3020
  9
$CMLSTYLE
  2
Standard
  9
$CMLJUST
 70
     0
  9
$CMLSCALE
 40
1.0
  9
$PROXYGRAPHICS
 70
     1
  9
$MEASUREMENT
 70
     0
  9
$CELWEIGHT
370
    -1
  9
$ENDCAPS
280
     0
  9
$JOINSTYLE
280
     0
  9
$LWDISPLAY
290
     1
  9
$INSUNITS
 70
     1
  9
$HYPERLINKBASE
  1

  9
$STYLESHEET
  1

  9
$XEDIT
290
     1
  9
$CEPSNTYPE
380
     0
  9
$PSTYLEMODE
290
     1
  9
$FINGERPRINTGUID
  2
{1c8b90fc-6e78-4f8b-9479-e824d1240a4a}
  9
$VERSIONGUID
  2
{FAEB1C32-E019-11D5-929B-00C0DF256EC4}
  9
$EXTNAMES
290
     1
  9
$PSVPSCALE
 40
0.0
  9
$OLESTARTUP
290
     0
  0
ENDSEC
  0
SECTION
  2
CLASSES
  0
CLASS
  1
ACDBDICTIONARYWDFLT
  2
AcDbDictionaryWithDefault
  3
ObjectDBX Classes
 90
        0
280
     0
281
     0
  0
CLASS
  1
VISUALSTYLE
  2
AcDbVisualStyle
  3
ObjectDBX Classes
 90
     4095
280
     0
281
     0
  0
CLASS
  1
MATERIAL
  2
AcDbMaterial
  3
ObjectDBX Classes
 90
     1153
280
     0
281
     0
  0
CLASS
  1
SCALE
  2
AcDbScale
  3
ObjectDBX Classes
 90
     1153
280
     0
281
     0
  0
CLASS
  1
TABLESTYLE
  2
AcDbTableStyle
  3
ObjectDBX Classes
 90
     4095
280
     0
281
     0
  0
CLASS
  1
MLEADERSTYLE
  2
AcDbMLeaderStyle
  3
ACDB_MLEADERSTYLE_CLASS
 90
     4095
280
     0
281
     0
  0
CLASS
  1
SUN
  2
AcDbSun
  3
SCENEOE
 90
     1153
280
     0
281
     0
  0
CLASS
  1
ACDBPLACEHOLDER
  2
AcDbPlaceHolder
  3
ObjectDBX Classes
 90
        0
280
     0
281
     0
  0
CLASS
  1
LAYOUT
  2
AcDbLayout
  3
ObjectDBX Classes
 90
        0
280
     0
281
     0
  0
ENDSEC
  0
SECTION
  2
TABLES
  0
TABLE
  2
VPORT
  5
8
330
0
100
AcDbSymbolTable
 70
     1
  0
VPORT
  5
29
330
8
100
AcDbSymbolTableRecord
100
AcDbViewportTableRecord
  2
*Active
 70
     0
 10
0.0
 20
0.0
 11
1.0
 21
1.0
 12
12.0
 22
6.0
 13
0.0
 23
0.0
 14
0.5
 24
0.5
 15
0.5
 25
0.5
 16
0.0
 26
0.0
 36
1.0
 17
0.0
 27
0.0
 37
0.0
 40
12.0
 41
2.0
 42
50.0
 43
0.0
 44
0.0
 50
0.0
 51
0.0
 71
     0
 72
  2000
 73
     1
 74
     3
 75
     0
 76
     0
 77
     0
 78
     0
281
     0
 65
     1
110
0.0
120
0.0
130
0.0
111
1.0
121
0.0
131
0.0
112
0.0
122
1.0
132
0.0
 79
     0
146
0.0
  0
ENDTAB
  0
TABLE
  2
LTYPE
  5
5
330
0
100
AcDbSymbolTable
 70
     6
  0
LTYPE
  5
14
330
5
100
AcDbSymbolTableRecord
100
AcDbLinetypeTableRecord
  2
ByBlock
 70
     0
  3

 72
    65
 73
     0
 40
0.0
  0
LTYPE
  5
15
330
5
100
AcDbSymbolTableRecord
100
AcDbLinetypeTableRecord
  2
ByLayer
 70
     0
  3

 72
    65
 73
     0
 40
0.0
  0
LTYPE
  5
16
330
5
100
AcDbSymbolTableRecord
100
AcDbLinetypeTableRecord
  2
Continuous
 70
     0
  3
Solid line
 72
    65
 73
     0
 40
0.0
  0
LTYPE
  5
5E
330
5
100
AcDbSymbolTableRecord
100
AcDbLinetypeTableRecord
  2
HIDDEN
 70
     0
  3
Hidden __ __ __ __ __ __ __ __ __ __ __ __ __ __
 72
    65
 73
     2
 40
0.075
 49
0.05
 74
     0
 49
-0.025
 74
     0
  0
LTYPE
  5
5F
330
5
100
AcDbSymbolTableRecord
100
AcDbLinetypeTableRecord
  2
PHANTOM
 70
     0
  3
Phantom ______  __  __  ______  __  __  ______
 72
    65
 73
     6
 40
0.5
 49
0.25
 74
     0
 49
-0.05
 74
     0
 49
0.05
 74
     0
 49
-0.05
 74
     0
 49
0.05
 74
     0
 49
-0.05
 74
     0
  0
LTYPE
  5
60
330
5
100
AcDbSymbolTableRecord
100
AcDbLinetypeTableRecord
  2
CENTER
 70
     0
  3
Center ____ _ ____ _ ____ _ ____ _ ____ _ ____
 72
    65
 73
     4
 40
0.4
 49
0.25
 74
     0
 49
-0.05
 74
     0
 49
0.05
 74
     0
 49
-0.05
 74
     0
  0
LTYPE
  5
61
330
5
100
AcDbSymbolTableRecord
100
AcDbLinetypeTableRecord
  2
CENTERX2
 70
     0
  3
Center (2x) ________  __  ________  __  _____
 72
    65
 73
     4
 40
0.8
 49
0.5
 74
     0
 49
-0.1
 74
     0
 49
0.1
 74
     0
 49
-0.1
 74
     0
  0
LTYPE
  5
62
330
5
100
AcDbSymbolTableRecord
100
AcDbLinetypeTableRecord
  2
DOT2
 70
     0
  3
Dot (.5x) ........................................
 72
    65
 73
     2
 40
0.025
 49
0.0
 74
     0
 49
-0.025
 74
     0
  0
ENDTAB
  0
TABLE
  2
LAYER
  5
2
330
0
100
AcDbSymbolTable
 70
     3
  0
LAYER
  5
10
330
2
100
AcDbSymbolTableRecord
100
AcDbLayerTableRecord
  2
0
 70
     0
 62
     7
  6
Continuous
370
    -3
390
F
  0
LAYER
  5
63
330
2
100
AcDbSymbolTableRecord
100
AcDbLayerTableRecord
  2
FORMAT
 70
     0
 62
     7
  6
Continuous
370
    -3
390
F
  0
LAYER
  5
64
330
2
100
AcDbSymbolTableRecord
100
AcDbLayerTableRecord
  2
PART_NAMES
 70
     0
 62
     1
  6
Continuous
370
    -3
390
F
  0
ENDTAB
  0
TABLE
  2
STYLE
  5
3
330
0
100
AcDbSymbolTable
 70
     3
  0
STYLE
  5
11
330
3
100
AcDbSymbolTableRecord
100
AcDbTextStyleTableRecord
  2
Standard
 70
     0
 40
0.0
 41
1.0
 50
0.0
 71
     0
 42
0.125
  3
txt
  4

  0
STYLE
  5
81
330
3
100
AcDbSymbolTableRecord
100
AcDbTextStyleTableRecord
  2
SLDTEXTSTYLE0
 70
     0
 40
0.0
 41
0.75
 50
0.0
 71
     0
 42
0.125
  3
TXT
  4

  0
STYLE
  5
121
330
3
100
AcDbSymbolTableRecord
100
AcDbTextStyleTableRecord
  2
SLDTEXTSTYLE1
 70
     0
 40
0.0
 41
0.7
 50
0.0
 71
     0
 42
0.125
  3
TXT
  4

  0
ENDTAB
  0
TABLE
  2
VIEW
  5
6
330
0
100
AcDbSymbolTable
 70
     0
  0
ENDTAB
  0
TABLE
  2
UCS
  5
7
330
0
100
AcDbSymbolTable
 70
     0
  0
ENDTAB
  0
TABLE
  2
APPID
  5
9
330
0
100
AcDbSymbolTable
 70
     1
  0
APPID
  5
12
330
9
100
AcDbSymbolTableRecord
100
AcDbRegAppTableRecord
  2
ACAD
 70
     0
  0
ENDTAB
  0
TABLE
  2
DIMSTYLE
  5
A
330
0
100
AcDbSymbolTable
 70
     1
100
AcDbDimStyleTable
  0
DIMSTYLE
105
27
330
A
100
AcDbSymbolTableRecord
100
AcDbDimStyleTableRecord
  2
Standard
 70
     0
178
     0
340
11
  0
ENDTAB
  0
TABLE
  2
BLOCK_RECORD
  5
1
330
0
100
AcDbSymbolTable
 70
     1
  0
BLOCK_RECORD
  5
1F
330
1
100
AcDbSymbolTableRecord
100
AcDbBlockTableRecord
  2
*Model_Space
340
22
  0
BLOCK_RECORD
  5
1B
330
1
100
AcDbSymbolTableRecord
100
AcDbBlockTableRecord
  2
*Paper_Space
340
1E
  0
BLOCK_RECORD
  5
23
330
1
100
AcDbSymbolTableRecord
100
AcDbBlockTableRecord
  2
*Paper_Space0
340
26
  0
ENDTAB
  0
ENDSEC
  0
SECTION
  2
BLOCKS
  0
BLOCK
  5
20
330
1F
100
AcDbEntity
  8
0
100
AcDbBlockBegin
  2
*Model_Space
 70
     0
 10
0.0
 20
0.0
 30
0.0
  3
*Model_Space
  1

  0
ENDBLK
  5
21
330
1F
100
AcDbEntity
  8
0
100
AcDbBlockEnd
  0
BLOCK
  5
1C
330
1B
100
AcDbEntity
 67
     1
  8
0
100
AcDbBlockBegin
  2
*Paper_Space
 70
     0
 10
0.0
 20
0.0
 30
0.0
  3
*Paper_Space
  1

  0
ENDBLK
  5
1D
330
1B
100
AcDbEntity
 67
     1
  8
0
100
AcDbBlockEnd
  0
BLOCK
  5
24
330
23
100
AcDbEntity
  8
0
100
AcDbBlockBegin
  2
*Paper_Space0
 70
     0
 10
0.0
 20
0.0
 30
0.0
  3
*Paper_Space0
  1

  0
ENDBLK
  5
25
330
23
100
AcDbEntity
  8
0
100
AcDbBlockEnd
  0
ENDSEC
  0
SECTION
  2
ENTITIES
  0
LINE
  5
65
330
1F
100
AcDbEntity
  8
0
  6
CENTERX2
 62
     7
370
    18
100
AcDbLine
 10
0.25
 20
0.25
 30
0.0
 11
0.25
 21
11.75
 31
0.0
  0
LINE
  5
66
330
1F
100
AcDbEntity
  8
0
  6
CENTERX2
 62
     7
370
    18
100
AcDbLine
 10
0.25
 20
0.25
 30
0.0
 11
23.75
 21
0.25
 31
0.0
  0
LINE
  5
67
330
1F
100
AcDbEntity
  8
0
  6
CENTERX2
 62
     7
370
    18
100
AcDbLine
 10
23.75
 20
0.25
 30
0.0
 11
23.75
 21
11.75
 31
0.0
  0
LINE
  5
68
330
1F
100
AcDbEntity
  8
0
  6
CENTERX2
 62
     7
370
    18
100
AcDbLine
 10
23.75
 20
11.75
 30
0.0
 11
0.25
 21
11.75
 31
0.0
  0
ARC
  5
69
330
1F
100
AcDbEntity
  8
0
  6
Continuous
 62
     7
370
    25
100
AcDbCircle
 10
0.7050613507
 20
8.0234299607
 30
0.0
 40
0.0500000000000235
100
AcDbArc
 50
90.1303093787
 51
185.0
  0
SPLINE
  5
6A
330
1F
100
AcDbEntity
  8
0
  6
Continuous
 62
     7
370
    25
100
AcDbSpline
210
0.0
220
0.0
230
1.0
 70
     8
 71
     3
 72
    22
 73
    18
 74
     0
 42
0.00000001
 43
0.00000001
 40
0.5966082018944215
 40
0.5966082018944215
 40
0.5966082018944215
 40
0.5966082018944215
 40
0.625
 40
0.625
 40
0.65625
 40
0.65625
 40
0.6875
 40
0.6875
 40
0.75
 40
0.75
 40
0.8125
 40
0.8125
 40
0.875
 40
0.875
 40
0.9375
 40
0.9375
 40
0.96712185638182
 40
0.96712185638182
 40
0.96712185638182
 40
0.96712185638182
 10
0.7049476343898965
 20
8.073429831360478
 30
0.0
 10
1.066001340240817
 20
8.074250987222415
 30
0.0
 10
1.42705547429009
 20
8.0743677356625
 30
0.0
 10
2.185512240297455
 20
8.072665927833219
 30
0.0
 10
2.582914998599907
 20
8.07063952878381
 30
0.0
 10
3.377722390636415
 20
8.063501553193726
 30
0.0
 10
3.775119138756733
 20
8.058362890388024
 30
0.0
 10
4.967177324366878
 20
8.037538955249168
 30
0.0
 10
5.761785763433765
 20
8.016402007641192
 30
0.0
 10
7.350384866827847
 20
7.958677472423477
 30
0.0
 10
8.144447661396315
 20
7.922150027937272
 30
0.0
 10
9.731609964512325
 20
7.834797362563099
 30
0.0
 10
10.5247513438441
 20
7.784026634364864
 30
0.0
 10
12.11023034520467
 20
7.669518983511569
 30
0.0
 10
12.90255430414655
 20
7.605854876919829
 30
0.0
 10
14.06951824234962
 20
7.502291585379691
 30
0.0
 10
14.44462798147018
 20
7.467491903474313
 30
0.0
 10
14.81956467773545
 20
7.431012330175871
 30
0.0
  0
ARC
  5
6B
330
1F
100
AcDbEntity
  8
0
  6
Continuous
 62
     7
370
    25
100
AcDbCircle
 10
14.814722777
 20
7.3812473224
 30
0.0
 40
0.0499999999999992
100
AcDbArc
 50
5.0
 51
84.4428819178
  0
LINE
  5
6C
330
1F
100
AcDbEntity
  8
0
  6
Continuous
 62
     7
370
    25
100
AcDbLine
 10
14.8866974137
 20
7.1322591233
 30
0.0
 11
14.8645325119
 21
7.3856051095
 31
0.0
  0
ARC
  5
6D
330
1F
100
AcDbEntity
  8
0
  6
Continuous
 62
     7
370
    25
100
AcDbCircle
 10
14.8368876788
 20
7.1279013361
 30
0.0
 40
0.0500000000000019
100
AcDbArc
 50
264.4220708236
 51
5.0
  0
SPLINE
  5
6E
330
1F
100
AcDbEntity
  8
0
  6
Continuous
 62
     7
370
    25
100
AcDbSpline
210
0.0
220
0.0
230
1.0
 70
     8
 71
     3
 72
    15
 73
    11
 74
     0
 42
0.00000001
 43
0.00000001
 40
0.5971670916603512
 40
0.5971670916603512
 40
0.5971670916603512
 40
0.5971670916603512
 40
0.6115870048719431
 40
0.6272120048719431
 40
0.6875
 40
0.75
 40
0.875
 40
0.9375
 40
0.962410670199827
 40
0.9683460874507078
 40
0.9683460874507078
 40
0.9683460874507078
 40
0.9683460874507078
 10
0.7270387007399772
 20
7.723478127967417
 30
0.0
 10
0.9101824322272883
 20
7.723878802740632
 30
0.0
 10
1.291745717009752
 20
7.724312105789572
 30
0.0
 10
2.438650839389062
 20
7.722830591892302
 30
0.0
 10
4.194719158839615
 20
7.708099812634991
 30
0.0
 10
7.335964827594714
 20
7.624301815592495
 30
0.0
 10
10.50204731180895
 20
7.447742672506224
 30
0.0
 10
13.18879958314001
 20
7.231660205669305
 30
0.0
 10
14.3677191038423
 20
7.1231235624042
 30
0.0
 10
14.75711165131839
 20
7.085454538756808
 30
0.0
 10
14.83202770267221
 20
7.078138090344049
 30
0.0
  0
ARC
  5
6F
330
1F
100
AcDbEntity
  8
0
  6
Continuous
 62
     7
370
    25
100
AcDbCircle
 10
0.7269293129
 20
7.7734780083
 30
0.0
 40
0.0500000000000405
100
AcDbArc
 50
185.0
 51
270.1253492907
  0
LINE
  5
70
330
1F
100
AcDbEntity
  8
0
  6
Continuous
 62
     7
370
    25
100
AcDbLine
 10
0.6552516158
 20
8.0190721735
 30
0.0
 11
0.677119578
 21
7.7691202212
 31
0.0
  0
LINE
  5
71
330
1F
100
AcDbEntity
  8
0
  6
Continuous
 62
     7
370
    25
100
AcDbLine
 10
7.8736746093
 20
6.741133121
 30
0.0
 11
7.9218344271
 21
6.9864505306
 31
0.0
  0
LINE
  5
72
330
1F
100
AcDbEntity
  8
0
  6
Continuous
 62
     7
370
    25
100
AcDbLine
 10
7.9218344271
 20
6.9864505306
 30
0.0
 11
7.7991757218
 21
7.0105304396
 31
0.0
  0
LINE
  5
73
330
1F
100
AcDbEntity
  8
0
  6
Continuous
 62
     7
370
    25
100
AcDbLine
 10
7.7991757218
 20
7.0105304396
 30
0.0
 11
7.7478518988
 21
6.7490961573
 31
0.0
  0
SPLINE
  5
74
330
1F
100
AcDbEntity
  8
0
  6
Continuous
 62
     7
370
    25
100
AcDbSpline
210
0.0
220
0.0
230
1.0
 70
     8
 71
     3
 72
    12
 73
     8
 74
     0
 42
0.00000001
 43
0.00000001
 40
0.6385725278227751
 40
0.6385725278227751
 40
0.6385725278227751
 40
0.6385725278227751
 40
0.75
 40
0.875
 40
0.9319535244772321
 40
0.9432946037310268
 40
0.9519184501053755
 40
0.9519184501053755
 40
0.9519184501053755
 40
0.9519184501053755
 10
7.747851898435857
 20
6.749096157321248
 30
0.0
 10
6.911311764982093
 20
6.801369400340461
 30
0.0
 10
5.133755360773465
 20
6.884191545438899
 30
0.0
 10
2.922916842005741
 20
6.925008444495685
 30
0.0
 10
1.465590955089442
 20
6.925143267141335
 30
0.0
 10
0.8860389814046509
 20
6.920997763106485
 30
0.0
 10
0.7356156975524789
 20
6.919595672334085
 30
0.0
 10
0.6706454751478875
 20
6.918927521841108
 30
0.0
  0
ARC
  5
75
330
1F
100
AcDbEntity
  8
0
  6
Continuous
 62
     7
370
    25
100
AcDbCircle
 10
0.6701313049
 20
6.9689248781
 30
0.0
 40
0.0499999999999986
100
AcDbArc
 50
168.8931506885
 51
270.5892061382
  0
LINE
  5
76
330
1F
100
AcDbEntity
  8
0
  6
Continuous
 62
     7
370
    25
100
AcDbLine
 10
0.7000544588
 20
7.3809004932
 30
0.0
 11
0.6210678227
 21
6.9785568417
 31
0.0
  0
ARC
  5
77
330
1F
100
AcDbEntity
  8
0
  6
Continuous
 62
     7
370
    25
100
AcDbCircle
 10
0.7491179409
 20
7.3712685296
 30
0.0
 40
0.0499999999999961
100
AcDbArc
 50
89.823543472
 51
168.8931506885
  0
ARC
  5
78
330
1F
100
AcDbEntity
  8
0
  6
Continuous
 62
     7
370
    25
100
AcDbCircle
 10
14.8563550596
 20
6.5562920355
 30
0.0
 40
0.0499999999999991
100
AcDbArc
 50
348.8931506885
 51
82.2323912498
  0
LINE
  5
79
330
1F
100
AcDbEntity
  8
0
  6
Continuous
 62
     7
370
    25
100
AcDbLine
 10
14.8576430193
 20
6.3033001937
 30
0.0
 11
14.9054185417
 21
6.5466600719
 31
0.0
  0
ARC
  5
7A
330
1F
100
AcDbEntity
  8
0
  6
Continuous
 62
     7
370
    25
100
AcDbCircle
 10
14.8085795372
 20
6.3129321573
 30
0.0
 40
0.0500000000000011
100
AcDbArc
 50
258.8931506885
 51
348.8931506885
  0
LINE
  5
7B
330
1F
100
AcDbEntity
  8
0
  6
Continuous
 62
     7
370
    25
100
AcDbLine
 10
14.7989475736
 20
6.2638686752
 30
0.0
 11
14.7253523505
 21
6.2783166206
 31
0.0
  0
LINE
  5
7C
330
1F
100
AcDbEntity
  8
0
  6
Continuous
 62
     7
370
    25
100
AcDbLine
 10
14.7253523505
 20
6.2783166206
 30
0.0
 11
14.6848659587
 21
6.0720862568
 31
0.0
  0
ARC
  5
7D
330
1F
100
AcDbEntity
  8
0
  6
Continuous
 62
     7
370
    25
100
AcDbCircle
 10
14.6358024766
 20
6.0817182204
 30
0.0
 40
0.0500000000000045
100
AcDbArc
 50
262.2661583404
 51
348.8931506885
  0
SPLINE
  5
7E
330
1F
100
AcDbEntity
  8
0
  6
Continuous
 62
     7
370
    25
100
AcDbSpline
210
0.0
220
0.0
230
1.0
 70
     8
 71
     3
 72
    12
 73
     8
 74
     0
 42
0.00000001
 43
0.00000001
 40
0.3322791068766711
 40
0.3322791068766711
 40
0.3322791068766711
 40
0.3322791068766711
 40
0.375
 40
0.4375
 40
0.5
 40
0.625
 40
0.632985574110545
 40
0.632985574110545
 40
0.632985574110545
 40
0.632985574110545
 10
14.62907390239613
 20
6.03217302600526
 30
0.0
 10
14.30901481344276
 20
6.075639226197259
 30
0.0
 10
13.52081255809433
 20
6.181056564121686
 30
0.0
 10
12.26614125716762
 20
6.339650732604083
 30
0.0
 10
10.39636313903917
 20
6.548179629506745
 30
0.0
 10
8.931752850240041
 20
6.672172147125844
 30
0.0
 10
7.933617395519933
 20
6.737291366226894
 30
0.0
 10
7.873674609299147
 20
6.741133121017047
 30
0.0
  0
LINE
  5
7F
330
1F
100
AcDbEntity
  8
0
  6
Continuous
 62
     7
370
    25
100
AcDbLine
 10
0.749271928
 20
7.4212682925
 30
0.0
 11
6.8188369012
 21
7.4025755064
 31
0.0
  0
SPLINE
  5
80
330
1F
100
AcDbEntity
  8
0
  6
Continuous
 62
     7
370
    25
100
AcDbSpline
210
0.0
220
0.0
230
1.0
 70
     8
 71
     3
 72
    21
 73
    17
 74
     0
 42
0.00000001
 43
0.00000001
 40
0.0
 40
0.0
 40
0.0
 40
0.0
 40
0.0294171245112884
 40
0.0579663303690479
 40
0.0856476473265893
 40
0.1729209294838783
 40
0.2524393244706286
 40
0.3358308175585916
 40
0.4192230513283622
 40
0.5860175434219558
 40
0.6694547737895022
 40
0.7527951306900648
 40
0.8358639051244947
 40
0.9195810640203751
 40
0.9596570003094477
 40
0.9999999999999999
 40
0.9999999999999999
 40
0.9999999999999999
 40
0.9999999999999999
 10
14.86311436840795
 20
6.605844521079218
 30
0.0
 10
14.78454596839801
 20
6.616539284304178
 30
0.0
 10
14.62972723926635
 20
6.637613273982513
 30
0.0
 10
14.40093782886808
 20
6.668468350745571
 30
0.0
 10
14.01754741578077
 20
6.719788824585585
 30
0.0
 10
13.49781837527877
 20
6.788088470971536
 30
0.0
 10
12.82881056306956
 20
6.872909710616645
 30
0.0
 10
12.16969803369114
 20
6.952539053934397
 30
0.0
 10
11.27628287216853
 20
7.053976879567938
 30
0.0
 10
10.38157027250921
 20
7.144913171529547
 30
0.0
 10
9.48593575845148
 20
7.224257469635162
 30
0.0
 10
8.814612520614252
 20
7.277885916845569
 30
0.0
 10
8.142100292652156
 20
7.325783976687307
 30
0.0
 10
7.585594533186903
 20
7.360641158964258
 30
0.0
 10
7.143880528603203
 20
7.385715719421962
 30
0.0
 10
6.927404411172084
 20
7.396942262931187
 30
0.0
 10
6.818806904476054
 20
7.402574175810926
 30
0.0
  0
MTEXT
  5
82
330
1F
100
AcDbEntity
  8
PART_NAMES
100
AcDbMText
 10
0.9889676423
 20
7.2539993568
 30
0.0
 40
0.1666666667
 41
0.0
 71
     1
 72
     1
  1
SS2.3
  7
SLDTEXTSTYLE0
 73
     1
 44
1.0
  0
LINE
  5
83
330
1F
100
AcDbEntity
  8
0
  6
Continuous
 62
     7
370
    25
100
AcDbLine
 10
22.8647499574
 20
2.4524049235
 30
0.0
 11
22.8647499574
 21
5.1024049235
 31
0.0
  0
LINE
  5
84
330
1F
100
AcDbEntity
  8
0
  6
Continuous
 62
     7
370
    25
100
AcDbLine
 10
20.8647499574
 20
2.4524049235
 30
0.0
 11
22.8647499574
 21
2.4524049235
 31
0.0
  0
LINE
  5
85
330
1F
100
AcDbEntity
  8
0
  6
Continuous
 62
     7
370
    25
100
AcDbLine
 10
20.8647499574
 20
5.1024049235
 30
0.0
 11
20.8647499574
 21
2.4524049235
 31
0.0
  0
LINE
  5
86
330
1F
100
AcDbEntity
  8
0
  6
Continuous
 62
     7
370
    25
100
AcDbLine
 10
18.2647499574
 20
5.1024049235
 30
0.0
 11
20.8647499574
 21
5.1024049235
 31
0.0
  0
LINE
  5
87
330
1F
100
AcDbEntity
  8
0
  6
Continuous
 62
     7
370
    25
100
AcDbLine
 10
18.2647499574
 20
6.8024049235
 30
0.0
 11
18.2647499574
 21
5.1024049235
 31
0.0
  0
LINE
  5
88
330
1F
100
AcDbEntity
  8
0
  6
Continuous
 62
     7
370
    25
100
AcDbLine
 10
23.3647499574
 20
5.9468633823
 30
0.0
 11
18.2647499574
 21
6.8024049235
 31
0.0
  0
LINE
  5
89
330
1F
100
AcDbEntity
  8
0
  6
Continuous
 62
     7
370
    25
100
AcDbLine
 10
23.3647499574
 20
5.1024049235
 30
0.0
 11
23.3647499574
 21
5.9468633823
 31
0.0
  0
LINE
  5
8A
330
1F
100
AcDbEntity
  8
0
  6
Continuous
 62
     7
370
    25
100
AcDbLine
 10
22.8647499574
 20
5.1024049235
 30
0.0
 11
23.3647499574
 21
5.1024049235
 31
0.0
  0
MTEXT
  5
8B
330
1F
100
AcDbEntity
  8
PART_NAMES
100
AcDbMText
 10
21.6373370047
 20
4.8706137853
 30
0.0
 40
0.1666666667
 41
0.0
 71
     1
 72
     1
  1
CSS4.7
  7
SLDTEXTSTYLE0
 73
     1
 44
1.0
  0
LINE
  5
8C
330
1F
100
AcDbEntity
  8
0
  6
Continuous
 62
     7
370
    25
100
AcDbLine
 10
18.6764021437
 20
4.87437148
 30
0.0
 11
18.6764021437
 21
2.22437148
 31
0.0
  0
LINE
  5
8D
330
1F
100
AcDbEntity
  8
0
  6
Continuous
 62
     7
370
    25
100
AcDbLine
 10
20.6764021437
 20
4.87437148
 30
0.0
 11
18.6764021437
 21
4.87437148
 31
0.0
  0
LINE
  5
8E
330
1F
100
AcDbEntity
  8
0
  6
Continuous
 62
     7
370
    25
100
AcDbLine
 10
20.6764021437
 20
2.22437148
 30
0.0
 11
20.6764021437
 21
4.87437148
 31
0.0
  0
LINE
  5
8F
330
1F
100
AcDbEntity
  8
0
  6
Continuous
 62
     7
370
    25
100
AcDbLine
 10
23.2764021437
 20
2.22437148
 30
0.0
 11
20.6764021437
 21
2.22437148
 31
0.0
  0
LINE
  5
90
330
1F
100
AcDbEntity
  8
0
  6
Continuous
 62
     7
370
    25
100
AcDbLine
 10
23.2764021437
 20
1.7096643234
 30
0.0
 11
23.2764021437
 21
2.22437148
 31
0.0
  0
LINE
  5
91
330
1F
100
AcDbEntity
  8
0
  6
Continuous
 62
     7
370
    25
100
AcDbLine
 10
19.6764021437
 20
0.39937148
 30
0.0
 11
23.2764021437
 21
1.7096643234
 31
0.0
  0
LINE
  5
92
330
1F
100
AcDbEntity
  8
0
  6
Continuous
 62
     7
370
    25
100
AcDbLine
 10
18.4764021437
 20
0.52437148
 30
0.0
 11
19.6764021437
 21
0.39937148
 31
0.0
  0
LINE
  5
93
330
1F
100
AcDbEntity
  8
0
  6
Continuous
 62
     7
370
    25
100
AcDbLine
 10
18.1764021437
 20
2.22437148
 30
0.0
 11
18.4764021437
 21
0.52437148
 31
0.0
  0
LINE
  5
94
330
1F
100
AcDbEntity
  8
0
  6
Continuous
 62
     7
370
    25
100
AcDbLine
 10
18.6764021437
 20
2.22437148
 30
0.0
 11
18.1764021437
 21
2.22437148
 31
0.0
  0
MTEXT
  5
95
330
1F
100
AcDbEntity
  8
PART_NAMES
100
AcDbMText
 10
19.3079178124
 20
2.4758927825
 30
0.0
 40
0.1666666667
 41
0.0
 71
     1
 72
     1
  1
CSS4.8
  7
SLDTEXTSTYLE0
 73
     1
 44
1.0
  0
LINE
  5
96
330
1F
100
AcDbEntity
  8
0
  6
Continuous
 62
     7
370
    25
100
AcDbLine
 10
20.7317219758
 20
7.8767755604
 30
0.0
 11
20.7317219758
 21
7.4392755604
 31
0.0
  0
LINE
  5
97
330
1F
100
AcDbEntity
  8
0
  6
Continuous
 62
     7
370
    25
100
AcDbLine
 10
21.2317219758
 20
7.8767755604
 30
0.0
 11
20.7317219758
 21
7.8767755604
 31
0.0
  0
LINE
  5
98
330
1F
100
AcDbEntity
  8
0
  6
Continuous
 62
     7
370
    25
100
AcDbLine
 10
21.2317219758
 20
7.4392755604
 30
0.0
 11
21.2317219758
 21
7.8767755604
 31
0.0
  0
LINE
  5
99
330
1F
100
AcDbEntity
  8
0
  6
Continuous
 62
     7
370
    25
100
AcDbLine
 10
21.3567219758
 20
7.4392755604
 30
0.0
 11
21.2317219758
 21
7.4392755604
 31
0.0
  0
LINE
  5
9A
330
1F
100
AcDbEntity
  8
0
  6
Continuous
 62
     7
370
    25
100
AcDbLine
 10
21.3567219758
 20
8.4392755604
 30
0.0
 11
21.3567219758
 21
7.4392755604
 31
0.0
  0
LINE
  5
9B
330
1F
100
AcDbEntity
  8
0
  6
Continuous
 62
     7
370
    25
100
AcDbLine
 10
21.2317219758
 20
8.4392755604
 30
0.0
 11
21.3567219758
 21
8.4392755604
 31
0.0
  0
LINE
  5
9C
330
1F
100
AcDbEntity
  8
0
  6
Continuous
 62
     7
370
    25
100
AcDbLine
 10
21.2317219758
 20
8.0017755604
 30
0.0
 11
21.2317219758
 21
8.4392755604
 31
0.0
  0
LINE
  5
9D
330
1F
100
AcDbEntity
  8
0
  6
Continuous
 62
     7
370
    25
100
AcDbLine
 10
20.7317219758
 20
8.0017755604
 30
0.0
 11
21.2317219758
 21
8.0017755604
 31
0.0
  0
LINE
  5
9E
330
1F
100
AcDbEntity
  8
0
  6
Continuous
 62
     7
370
    25
100
AcDbLine
 10
20.7317219758
 20
8.4392755604
 30
0.0
 11
20.7317219758
 21
8.0017755604
 31
0.0
  0
LINE
  5
9F
330
1F
100
AcDbEntity
  8
0
  6
Continuous
 62
     7
370
    25
100
AcDbLine
 10
20.6067219758
 20
8.4392755604
 30
0.0
 11
20.7317219758
 21
8.4392755604
 31
0.0
  0
LINE
  5
A0
330
1F
100
AcDbEntity
  8
0
  6
Continuous
 62
     7
370
    25
100
AcDbLine
 10
20.6067219758
 20
7.4392755604
 30
0.0
 11
20.6067219758
 21
8.4392755604
 31
0.0
  0
LINE
  5
A1
330
1F
100
AcDbEntity
  8
0
  6
Continuous
 62
     7
370
    25
100
AcDbLine
 10
20.7317219758
 20
7.4392755604
 30
0.0
 11
20.6067219758
 21
7.4392755604
 31
0.0
  0
LINE
  5
A2
330
1F
100
AcDbEntity
  8
0
  6
Continuous
 62
     7
370
    25
100
AcDbLine
 10
23.0867219758
 20
8.9892755604
 30
0.0
 11
15.3567219758
 21
8.9892755604
 31
0.0
  0
LINE
  5
A3
330
1F
100
AcDbEntity
  8
0
  6
Continuous
 62
     7
370
    25
100
AcDbLine
 10
23.0867219758
 20
6.9892755604
 30
0.0
 11
23.0867219758
 21
8.9892755604
 31
0.0
  0
LINE
  5
A4
330
1F
100
AcDbEntity
  8
0
  6
Continuous
 62
     7
370
    25
100
AcDbLine
 10
15.3567219758
 20
6.9892755604
 30
0.0
 11
23.0867219758
 21
6.9892755604
 31
0.0
  0
LINE
  5
A5
330
1F
100
AcDbEntity
  8
0
  6
Continuous
 62
     7
370
    25
100
AcDbLine
 10
15.3567219758
 20
8.9892755604
 30
0.0
 11
15.3567219758
 21
6.9892755604
 31
0.0
  0
MTEXT
  5
A6
330
1F
100
AcDbEntity
  8
PART_NAMES
100
AcDbMText
 10
18.7405229924
 20
8.0596393428
 30
0.0
 40
0.1666666667
 41
0.0
 71
     1
 72
     1
  1
IS2.3.<2>
  7
SLDTEXTSTYLE0
 73
     1
 44
1.0
  0
LINE
  5
A7
330
1F
100
AcDbEntity
  8
0
  6
Continuous
 62
     7
370
    25
100
AcDbLine
 10
5.7965885635
 20
10.3533227608
 30
0.0
 11
5.7965885635
 21
9.9158227608
 31
0.0
  0
LINE
  5
A8
330
1F
100
AcDbEntity
  8
0
  6
Continuous
 62
     7
370
    25
100
AcDbLine
 10
6.2965885635
 20
10.3533227608
 30
0.0
 11
5.7965885635
 21
10.3533227608
 31
0.0
  0
LINE
  5
A9
330
1F
100
AcDbEntity
  8
0
  6
Continuous
 62
     7
370
    25
100
AcDbLine
 10
6.2965885635
 20
9.9158227608
 30
0.0
 11
6.2965885635
 21
10.3533227608
 31
0.0
  0
LINE
  5
AA
330
1F
100
AcDbEntity
  8
0
  6
Continuous
 62
     7
370
    25
100
AcDbLine
 10
6.4215885635
 20
9.9158227608
 30
0.0
 11
6.2965885635
 21
9.9158227608
 31
0.0
  0
LINE
  5
AB
330
1F
100
AcDbEntity
  8
0
  6
Continuous
 62
     7
370
    25
100
AcDbLine
 10
6.4215885635
 20
10.9158227608
 30
0.0
 11
6.4215885635
 21
9.9158227608
 31
0.0
  0
LINE
  5
AC
330
1F
100
AcDbEntity
  8
0
  6
Continuous
 62
     7
370
    25
100
AcDbLine
 10
6.2965885635
 20
10.9158227608
 30
0.0
 11
6.4215885635
 21
10.9158227608
 31
0.0
  0
LINE
  5
AD
330
1F
100
AcDbEntity
  8
0
  6
Continuous
 62
     7
370
    25
100
AcDbLine
 10
6.2965885635
 20
10.4783227608
 30
0.0
 11
6.2965885635
 21
10.9158227608
 31
0.0
  0
LINE
  5
AE
330
1F
100
AcDbEntity
  8
0
  6
Continuous
 62
     7
370
    25
100
AcDbLine
 10
5.7965885635
 20
10.4783227608
 30
0.0
 11
6.2965885635
 21
10.4783227608
 31
0.0
  0
LINE
  5
AF
330
1F
100
AcDbEntity
  8
0
  6
Continuous
 62
     7
370
    25
100
AcDbLine
 10
5.7965885635
 20
10.9158227608
 30
0.0
 11
5.7965885635
 21
10.4783227608
 31
0.0
  0
LINE
  5
B0
330
1F
100
AcDbEntity
  8
0
  6
Continuous
 62
     7
370
    25
100
AcDbLine
 10
5.6715885635
 20
10.9158227608
 30
0.0
 11
5.7965885635
 21
10.9158227608
 31
0.0
  0
LINE
  5
B1
330
1F
100
AcDbEntity
  8
0
  6
Continuous
 62
     7
370
    25
100
AcDbLine
 10
5.6715885635
 20
9.9158227608
 30
0.0
 11
5.6715885635
 21
10.9158227608
 31
0.0
  0
LINE
  5
B2
330
1F
100
AcDbEntity
  8
0
  6
Continuous
 62
     7
370
    25
100
AcDbLine
 10
5.7965885635
 20
9.9158227608
 30
0.0
 11
5.6715885635
 21
9.9158227608
 31
0.0
  0
LINE
  5
B3
330
1F
100
AcDbEntity
  8
0
  6
Continuous
 62
     7
370
    25
100
AcDbLine
 10
8.1515885635
 20
11.4658227608
 30
0.0
 11
0.4215885635
 21
11.4658227608
 31
0.0
  0
LINE
  5
B4
330
1F
100
AcDbEntity
  8
0
  6
Continuous
 62
     7
370
    25
100
AcDbLine
 10
8.1515885635
 20
9.4658227608
 30
0.0
 11
8.1515885635
 21
11.4658227608
 31
0.0
  0
LINE
  5
B5
330
1F
100
AcDbEntity
  8
0
  6
Continuous
 62
     7
370
    25
100
AcDbLine
 10
0.4215885635
 20
9.4658227608
 30
0.0
 11
8.1515885635
 21
9.4658227608
 31
0.0
  0
LINE
  5
B6
330
1F
100
AcDbEntity
  8
0
  6
Continuous
 62
     7
370
    25
100
AcDbLine
 10
0.4215885635
 20
11.4658227608
 30
0.0
 11
0.4215885635
 21
9.4658227608
 31
0.0
  0
MTEXT
  5
B7
330
1F
100
AcDbEntity
  8
PART_NAMES
100
AcDbMText
 10
2.2745068401
 20
10.5979761352
 30
0.0
 40
0.1666666667
 41
0.0
 71
     1
 72
     1
  1
IS2.3.<1>
  7
SLDTEXTSTYLE0
 73
     1
 44
1.0
  0
MTEXT
  5
B8
330
1F
100
AcDbEntity
  8
PART_NAMES
100
AcDbMText
 10
1.219717942
 20
8.6773157536
 30
0.0
 40
0.1666666667
 41
0.0
 71
     1
 72
     1
  1
TE4.9.
  7
SLDTEXTSTYLE0
 73
     1
 44
1.0
  0
LINE
  5
B9
330
1F
100
AcDbEntity
  8
0
  6
Continuous
 62
     7
370
    25
100
AcDbLine
 10
13.5171115237
 20
8.9516870514
 30
0.0
 11
0.8171115237
 21
8.9516870514
 31
0.0
  0
LINE
  5
BA
330
1F
100
AcDbEntity
  8
0
  6
Continuous
 62
     7
370
    25
100
AcDbLine
 10
0.8171115237
 20
8.9516870514
 30
0.0
 11
0.8171115237
 21
8.1816870514
 31
0.0
  0
LINE
  5
BB
330
1F
100
AcDbEntity
  8
0
  6
Continuous
 62
     7
370
    25
100
AcDbLine
 10
13.5171115237
 20
8.9516870514
 30
0.0
 11
13.5171115237
 21
8.1816870514
 31
0.0
  0
LINE
  5
BC
330
1F
100
AcDbEntity
  8
0
  6
Continuous
 62
     7
370
    25
100
AcDbLine
 10
13.5171115237
 20
8.1816870514
 30
0.0
 11
0.8171115237
 21
8.1816870514
 31
0.0
  0
MTEXT
  5
BD
330
1F
100
AcDbEntity
  8
PART_NAMES
100
AcDbMText
 10
1.5438173331
 20
7.9846185668
 30
0.0
 40
0.1666666667
 41
0.0
 71
     1
 72
     1
  1
TSS2.2
  7
SLDTEXTSTYLE0
 73
     1
 44
1.0
  0
LINE
  5
BE
330
1F
100
AcDbEntity
  8
0
  6
Continuous
 62
     7
370
    25
100
AcDbLine
 10
18.032146562
 20
2.0682976031
 30
0.0
 11
0.652146562
 21
2.0682976031
 31
0.0
  0
LINE
  5
BF
330
1F
100
AcDbEntity
  8
0
  6
Continuous
 62
     7
370
    25
100
AcDbLine
 10
0.652146562
 20
2.0682976031
 30
0.0
 11
0.652146562
 21
0.4682976031
 31
0.0
  0
LINE
  5
C0
330
1F
100
AcDbEntity
  8
0
  6
Continuous
 62
     7
370
    25
100
AcDbLine
 10
18.032146562
 20
2.0682976031
 30
0.0
 11
18.032146562
 21
0.4682976031
 31
0.0
  0
LINE
  5
C1
330
1F
100
AcDbEntity
  8
0
  6
Continuous
 62
     7
370
    25
100
AcDbLine
 10
18.032146562
 20
0.4682976031
 30
0.0
 11
0.652146562
 21
0.4682976031
 31
0.0
  0
MTEXT
  5
C2
330
1F
100
AcDbEntity
  8
PART_NAMES
100
AcDbMText
 10
2.5828631133
 20
2.8523621372
 30
0.0
 40
0.1666666667
 41
0.0
 71
     1
 72
     1
  1
LES2.1.
  7
SLDTEXTSTYLE0
 73
     1
 44
1.0
  0
MTEXT
  5
C3
330
1F
100
AcDbEntity
  8
PART_NAMES
100
AcDbMText
 10
2.1105695769
 20
1.3252797026
 30
0.0
 40
0.1666666667
 41
0.0
 71
     1
 72
     1
  1
TE4.7
  7
SLDTEXTSTYLE0
 73
     1
 44
1.0
  0
LINE
  5
C4
330
1F
100
AcDbEntity
  8
0
  6
Continuous
 62
     7
370
    25
100
AcDbLine
 10
14.7966934898
 20
2.5198925957
 30
0.0
 11
14.6988427651
 21
3.0219921005
 31
0.0
  0
LINE
  5
C5
330
1F
100
AcDbEntity
  8
0
  6
Continuous
 62
     7
370
    25
100
AcDbLine
 10
14.6988427651
 20
3.0219921005
 30
0.0
 11
14.5773915407
 21
2.9983233053
 31
0.0
  0
LINE
  5
C6
330
1F
100
AcDbEntity
  8
0
  6
Continuous
 62
     7
370
    25
100
AcDbLine
 10
14.5773915407
 20
2.9983233053
 30
0.0
 11
14.6710032856
 21
2.5179751942
 31
0.0
  0
LINE
  5
C7
330
1F
100
AcDbEntity
  8
0
  6
Continuous
 62
     7
370
    25
100
AcDbLine
 10
11.6460125724
 20
2.4718290233
 30
0.0
 11
14.6710032856
 21
2.5179751942
 31
0.0
  0
LINE
  5
C8
330
1F
100
AcDbEntity
  8
0
  6
Continuous
 62
     7
370
    25
100
AcDbLine
 10
11.6460125724
 20
2.4718290233
 30
0.0
 11
11.5468127811
 21
2.9808509667
 31
0.0
  0
LINE
  5
C9
330
1F
100
AcDbEntity
  8
0
  6
Continuous
 62
     7
370
    25
100
AcDbLine
 10
11.5468127811
 20
2.9808509667
 30
0.0
 11
11.4241209528
 21
2.9569403987
 31
0.0
  0
LINE
  5
CA
330
1F
100
AcDbEntity
  8
0
  6
Continuous
 62
     7
370
    25
100
AcDbLine
 10
11.4241209528
 20
2.9569403987
 30
0.0
 11
11.5190384638
 21
2.4698920359
 31
0.0
  0
LINE
  5
CB
330
1F
100
AcDbEntity
  8
0
  6
Continuous
 62
     7
370
    25
100
AcDbLine
 10
8.4970546801
 20
2.4237917356
 30
0.0
 11
11.5190384638
 21
2.4698920359
 31
0.0
  0
LINE
  5
CC
330
1F
100
AcDbEntity
  8
0
  6
Continuous
 62
     7
370
    25
100
AcDbLine
 10
8.4970546801
 20
2.4237917356
 30
0.0
 11
8.3970379615
 21
2.9370055621
 31
0.0
  0
LINE
  5
CD
330
1F
100
AcDbEntity
  8
0
  6
Continuous
 62
     7
370
    25
100
AcDbLine
 10
8.3970379615
 20
2.9370055621
 30
0.0
 11
8.2743461332
 21
2.9130949941
 31
0.0
  0
LINE
  5
CE
330
1F
100
AcDbEntity
  8
0
  6
Continuous
 62
     7
370
    25
100
AcDbLine
 10
8.2743461332
 20
2.9130949941
 30
0.0
 11
8.3700805715
 21
2.4218547482
 31
0.0
  0
LINE
  5
CF
330
1F
100
AcDbEntity
  8
0
  6
Continuous
 62
     7
370
    25
100
AcDbLine
 10
5.3480967877
 20
2.375754448
 30
0.0
 11
8.3700805715
 21
2.4218547482
 31
0.0
  0
LINE
  5
D0
330
1F
100
AcDbEntity
  8
0
  6
Continuous
 62
     7
370
    25
100
AcDbLine
 10
5.3480967877
 20
2.375754448
 30
0.0
 11
5.2474250528
 21
2.8923293471
 31
0.0
  0
LINE
  5
D1
330
1F
100
AcDbEntity
  8
0
  6
Continuous
 62
     7
370
    25
100
AcDbLine
 10
5.2474250528
 20
2.8923293471
 30
0.0
 11
5.1247332245
 21
2.8684187791
 31
0.0
  0
LINE
  5
D2
330
1F
100
AcDbEntity
  8
0
  6
Continuous
 62
     7
370
    25
100
AcDbLine
 10
5.1247332245
 20
2.8684187791
 30
0.0
 11
5.2211226792
 21
2.3738174606
 31
0.0
  0
LINE
  5
D3
330
1F
100
AcDbEntity
  8
0
  6
Continuous
 62
     7
370
    25
100
AcDbLine
 10
0.7770288795
 20
2.3060229014
 30
0.0
 11
5.2211226792
 21
2.3738174606
 31
0.0
  0
LINE
  5
D4
330
1F
100
AcDbEntity
  8
0
  6
Continuous
 62
     7
370
    25
100
AcDbLine
 10
0.7770288795
 20
2.3060229014
 30
0.0
 11
0.6761472222
 21
2.8236749711
 31
0.0
  0
LINE
  5
D5
330
1F
100
AcDbEntity
  8
0
  6
Continuous
 62
     7
370
    25
100
AcDbLine
 10
0.6761472222
 20
2.8236749711
 30
0.0
 11
0.5534553939
 21
2.7997644032
 31
0.0
  0
LINE
  5
D6
330
1F
100
AcDbEntity
  8
0
  6
Continuous
 62
     7
370
    25
100
AcDbLine
 10
0.4587702275
 20
3.2856205407
 30
0.0
 11
0.5534553939
 21
2.7997644032
 31
0.0
  0
LINE
  5
D7
330
1F
100
AcDbEntity
  8
0
  6
Continuous
 62
     7
370
    25
100
AcDbLine
 10
0.4587702275
 20
3.2856205407
 30
0.0
 11
17.7577227779
 21
3.5495157048
 31
0.0
  0
LINE
  5
D8
330
1F
100
AcDbEntity
  8
0
  6
Continuous
 62
     7
370
    25
100
AcDbLine
 10
17.7577227779
 20
3.5495157048
 30
0.0
 11
17.8523010682
 21
3.0642079787
 31
0.0
  0
LINE
  5
D9
330
1F
100
AcDbEntity
  8
0
  6
Continuous
 62
     7
370
    25
100
AcDbLine
 10
17.8523010682
 20
3.0642079787
 30
0.0
 11
17.7247015667
 21
3.0393409881
 31
0.0
  0
LINE
  5
DA
330
1F
100
AcDbEntity
  8
0
  6
Continuous
 62
     7
370
    25
100
AcDbLine
 10
17.7247015667
 20
3.0393409881
 30
0.0
 11
17.8169542485
 21
2.5659666112
 31
0.0
  0
LINE
  5
DB
330
1F
100
AcDbEntity
  8
0
  6
Continuous
 62
     7
370
    25
100
AcDbLine
 10
14.7966934898
 20
2.5198925957
 30
0.0
 11
17.8169542485
 21
2.5659666112
 31
0.0
  0
CIRCLE
  5
DC
330
1F
100
AcDbEntity
  8
0
  6
Continuous
 62
     7
370
    25
100
AcDbCircle
 10
5.1242805682
 20
5.9309555704
 30
0.0
 40
0.2500000000000009
  0
LINE
  5
DD
330
1F
100
AcDbEntity
  8
0
  6
Continuous
 62
     7
370
    25
100
AcDbLine
 10
4.6279547505
 20
5.1962790043
 30
0.0
 11
4.6242805682
 21
5.4462520037
 31
0.0
  0
LINE
  5
DE
330
1F
100
AcDbEntity
  8
0
  6
Continuous
 62
     7
370
    25
100
AcDbLine
 10
4.6242805682
 20
5.4462520037
 30
0.0
 11
4.3743075689
 21
5.4425778214
 31
0.0
  0
LINE
  5
DF
330
1F
100
AcDbEntity
  8
0
  6
Continuous
 62
     7
370
    25
100
AcDbLine
 10
4.3743075689
 20
5.4425778214
 30
0.0
 11
4.3779817512
 21
5.1926048221
 31
0.0
  0
LINE
  5
E0
330
1F
100
AcDbEntity
  8
0
  6
Continuous
 62
     7
370
    25
100
AcDbLine
 10
0.3857852324
 20
5.8684555704
 30
0.0
 11
0.8742805682
 21
5.8684555704
 31
0.0
  0
LINE
  5
E1
330
1F
100
AcDbEntity
  8
0
  6
Continuous
 62
     7
370
    25
100
AcDbLine
 10
0.8742805682
 20
5.8684555704
 30
0.0
 11
0.8742805682
 21
5.9934555704
 31
0.0
  0
LINE
  5
E2
330
1F
100
AcDbEntity
  8
0
  6
Continuous
 62
     7
370
    25
100
AcDbLine
 10
0.8742805682
 20
5.9934555704
 30
0.0
 11
0.3857852328
 21
5.9934555704
 31
0.0
  0
LINE
  5
E3
330
1F
100
AcDbEntity
  8
0
  6
Continuous
 62
     7
370
    25
100
AcDbLine
 10
4.3779817512
 20
6.6693063188
 30
0.0
 11
4.3743075689
 21
6.4193333195
 31
0.0
  0
LINE
  5
E4
330
1F
100
AcDbEntity
  8
0
  6
Continuous
 62
     7
370
    25
100
AcDbLine
 10
4.3743075689
 20
6.4193333195
 30
0.0
 11
4.6242805682
 21
6.4156591372
 31
0.0
  0
LINE
  5
E5
330
1F
100
AcDbEntity
  8
0
  6
Continuous
 62
     7
370
    25
100
AcDbLine
 10
4.6242805682
 20
6.4156591372
 30
0.0
 11
4.6279547505
 21
6.6656321365
 31
0.0
  0
LINE
  5
E6
330
1F
100
AcDbEntity
  8
0
  6
Continuous
 62
     7
370
    25
100
AcDbLine
 10
8.7042805682
 20
6.4114770029
 30
0.0
 11
8.7042805682
 21
5.450434138
 31
0.0
  0
LINE
  5
E7
330
1F
100
AcDbEntity
  8
0
  6
Continuous
 62
     7
370
    25
100
AcDbLine
 10
1.9742805682
 20
5.8059555704
 30
0.0
 11
3.9742805682
 21
5.8059555704
 31
0.0
  0
LINE
  5
E8
330
1F
100
AcDbEntity
  8
0
  6
Continuous
 62
     7
370
    25
100
AcDbLine
 10
3.9742805682
 20
5.8059555704
 30
0.0
 11
3.9742805682
 21
6.0559555704
 31
0.0
  0
LINE
  5
E9
330
1F
100
AcDbEntity
  8
0
  6
Continuous
 62
     7
370
    25
100
AcDbLine
 10
3.9742805682
 20
6.0559555704
 30
0.0
 11
1.9742805682
 21
6.0559555704
 31
0.0
  0
LINE
  5
EA
330
1F
100
AcDbEntity
  8
0
  6
Continuous
 62
     7
370
    25
100
AcDbLine
 10
1.9742805682
 20
6.0559555704
 30
0.0
 11
1.9742805682
 21
5.8059555704
 31
0.0
  0
SPLINE
  5
EB
330
1F
100
AcDbEntity
  8
0
  6
Continuous
 62
     7
370
    25
100
AcDbSpline
210
0.0
220
0.0
230
1.0
 70
     8
 71
     3
 72
    23
 73
    19
 74
     0
 42
0.00000001
 43
0.00000001
 40
0.6654393853541464
 40
0.6654393853541464
 40
0.6654393853541464
 40
0.6654393853541464
 40
0.6811780022527834
 40
0.7161298432663049
 40
0.7497180695995274
 40
0.7817482951736161
 40
0.8120365363099894
 40
0.8404153269277361
 40
0.8667320558272357
 40
0.8908490653380708
 40
0.9126518453334536
 40
0.9320462728196868
 40
0.9489729195917836
 40
0.9634131988587862
 40
0.9754213252737876
 40
0.985175212219397
 40
0.9930911218090487
 40
0.9949792591534078
 40
0.9949792591534078
 40
0.9949792591534078
 40
0.9949792591534078
 10
4.377981751159203
 20
6.669306318794153
 30
0.0
 10
4.3120009504741
 20
6.670010217700343
 30
0.0
 10
4.099484630670791
 20
6.671580789323356
 30
0.0
 10
3.74613354935429
 20
6.670226561127843
 30
0.0
 10
3.32456675886577
 20
6.661144128954445
 30
0.0
 10
2.922796395758231
 20
6.644430626883023
 30
0.0
 10
2.543295366599255
 20
6.62004233499758
 30
0.0
 10
2.188396326628824
 20
6.588052636057121
 30
0.0
 10
1.860270240307013
 20
6.548711370980842
 30
0.0
 10
1.560919665045623
 20
6.502353275709816
 30
0.0
 10
1.292150423473058
 20
6.449462520927627
 30
0.0
 10
1.055563677556516
 20
6.390637156518886
 30
0.0
 10
0.85242399398922
 20
6.326450803143345
 30
0.0
 10
0.6840024575814646
 20
6.257501267537711
 30
0.0
 10
0.5501440109599712
 20
6.184255025724302
 30
0.0
 10
0.4529981539573563
 20
6.106567512212613
 30
0.0
 10
0.4006103049650201
 20
6.039719837019395
 30
0.0
 10
0.3878736264277156
 20
6.001043429932635
 30
0.0
 10
0.3857852326135394
 20
5.993455570472368
 30
0.0
  0
SPLINE
  5
EC
330
1F
100
AcDbEntity
  8
0
  6
Continuous
 62
     7
370
    25
100
AcDbSpline
210
0.0
220
0.0
230
1.0
 70
     8
 71
     3
 72
    17
 73
    13
 74
     0
 42
0.00000001
 43
0.00000001
 40
0.3544373069777111
 40
0.3544373069777111
 40
0.3544373069777111
 40
0.3544373069777111
 40
0.354933688380441
 40
0.391987367731552
 40
0.429762919657396
 40
0.4680285405296232
 40
0.5065527830725232
 40
0.5450977808625769
 40
0.5834246821246982
 40
0.6212988508376641
 40
0.6584831390407772
 40
0.6792361700729534
 40
0.6792361700729534
 40
0.6792361700729534
 40
0.6792361700729534
 10
4.627954750470374
 20
5.1962790043431
 30
0.0
 10
4.630035480200958
 20
5.196317745231029
 30
0.0
 10
4.787437398047115
 20
5.199263374882659
 30
0.0
 10
5.103142281663157
 20
5.207439780324425
 30
0.0
 10
5.576955908609787
 20
5.22554186592051
 30
0.0
 10
6.056699761893121
 20
5.249113121607765
 30
0.0
 10
6.539410958823273
 20
5.277524997936927
 30
0.0
 10
7.022117819520211
 20
5.310059704628647
 30
0.0
 10
7.501846194390716
 20
5.346036969191251
 30
0.0
 10
7.975634040416128
 20
5.384788844434419
 30
0.0
 10
8.375779851943005
 20
5.419984687181947
 30
0.0
 10
8.61765399379347
 20
5.442307537392399
 30
0.0
 10
8.704280568200502
 20
5.450434138000278
 30
0.0
  0
SPLINE
  5
ED
330
1F
100
AcDbEntity
  8
0
  6
Continuous
 62
     7
370
    25
100
AcDbSpline
210
0.0
220
0.0
230
1.0
 70
     8
 71
     3
 72
    17
 73
    13
 74
     0
 42
0.00000001
 43
0.00000001
 40
0.3207638299274438
 40
0.3207638299274438
 40
0.3207638299274438
 40
0.3207638299274438
 40
0.3415168609592228
 40
0.3787011491623359
 40
0.4165753178753017
 40
0.4549022191374231
 40
0.4934472169274768
 40
0.5319714594703768
 40
0.570237080342604
 40
0.608012632268448
 40
0.645066311619559
 40
0.6455626930222892
 40
0.6455626930222892
 40
0.6455626930222892
 40
0.6455626930222892
 10
8.704280568195514
 20
6.411477002864355
 30
0.0
 10
8.617653993790135
 20
6.419603603472073
 30
0.0
 10
8.375779851941333
 20
6.441926453682363
 30
0.0
 10
7.975634040416111
 20
6.477122296429746
 30
0.0
 10
7.501846194390705
 20
6.515874171672914
 30
0.0
 10
7.022117819520194
 20
6.551851436235516
 30
0.0
 10
6.539410958823259
 20
6.584386142927237
 30
0.0
 10
6.056699761893108
 20
6.6127980192564
 30
0.0
 10
5.576955908609774
 20
6.636369274943654
 30
0.0
 10
5.103142281663152
 20
6.654471360539741
 30
0.0
 10
4.78743739804711
 20
6.662647765981505
 30
0.0
 10
4.630035480200951
 20
6.665593395633135
 30
0.0
 10
4.627954750470367
 20
6.665632136521063
 30
0.0
  0
SPLINE
  5
EE
330
1F
100
AcDbEntity
  8
0
  6
Continuous
 62
     7
370
    25
100
AcDbSpline
210
0.0
220
0.0
230
1.0
 70
     8
 71
     3
 72
    23
 73
    19
 74
     0
 42
0.00000001
 43
0.00000001
 40
0.0050207408387805
 40
0.0050207408387805
 40
0.0050207408387805
 40
0.0050207408387805
 40
0.0069088781909513
 40
0.014824787780603
 40
0.0245786747262124
 40
0.0365868011412138
 40
0.0510270804082164
 40
0.0679537271803132
 40
0.0873481546665464
 40
0.1091509346619292
 40
0.1332679441727643
 40
0.1595846730722639
 40
0.1879634636900106
 40
0.2182517048263839
 40
0.2502819304004726
 40
0.2838701567336951
 40
0.3188219977472166
 40
0.3345606146458535
 40
0.3345606146458535
 40
0.3345606146458535
 40
0.3345606146458535
 10
0.3857852325876185
 20
5.868455570485977
 30
0.0
 10
0.387873626407419
 20
5.860867710993163
 30
0.0
 10
0.4006103049440958
 20
5.82219130387147
 30
0.0
 10
0.4529981539573563
 20
5.755343628651553
 30
0.0
 10
0.5501440109599718
 20
5.677656115139864
 30
0.0
 10
0.6840024575814657
 20
5.604409873326454
 30
0.0
 10
0.852423993989221
 20
5.535460337720821
 30
0.0
 10
1.055563677556519
 20
5.47127398434528
 30
0.0
 10
1.29215042347306
 20
5.412448619936537
 30
0.0
 10
1.560919665045626
 20
5.359557865154349
 30
0.0
 10
1.860270240307017
 20
5.313199769883322
 30
0.0
 10
2.188396326628825
 20
5.273858504807041
 30
0.0
 10
2.543295366599259
 20
5.241868805866585
 30
0.0
 10
2.922796395758237
 20
5.21748051398114
 30
0.0
 10
3.324566758865777
 20
5.20076701190972
 30
0.0
 10
3.746133549354296
 20
5.191684579736321
 30
0.0
 10
4.099484630670798
 20
5.190330351540809
 30
0.0
 10
4.312000950474105
 20
5.191900923163822
 30
0.0
 10
4.377981751159206
 20
5.19260482207001
 30
0.0
  0
MTEXT
  5
EF
330
1F
100
AcDbEntity
  8
PART_NAMES
100
AcDbMText
 10
6.0894772048
 20
6.0159029185
 30
0.0
 40
0.1666666667
 41
0.0
 71
     1
 72
     1
  1
VR<2>
  7
SLDTEXTSTYLE0
 73
     1
 44
1.0
  0
LINE
  5
F0
330
1F
100
AcDbEntity
  8
0
  6
Continuous
 62
     7
370
    25
100
AcDbLine
 10
12.4836832017
 20
5.9668407354
 30
0.0
 11
10.8911307229
 21
5.7510576752
 31
0.0
  0
LINE
  5
F1
330
1F
100
AcDbEntity
  8
0
  6
Continuous
 62
     7
370
    25
100
AcDbLine
 10
10.8911307229
 20
5.7510576752
 30
0.0
 11
10.9079142476
 21
5.6271895465
 31
0.0
  0
LINE
  5
F2
330
1F
100
AcDbEntity
  8
0
  6
Continuous
 62
     7
370
    25
100
AcDbLine
 10
9.1527592327
 20
5.4402746488
 30
0.0
 11
8.8898043062
 21
5.8957259417
 31
0.0
  0
LINE
  5
F3
330
1F
100
AcDbEntity
  8
0
  6
Continuous
 62
     7
370
    25
100
AcDbLine
 10
8.8898043062
 20
5.8957259417
 30
0.0
 11
9.1527592327
 21
6.3511772346
 31
0.0
  0
SPLINE
  5
F4
330
1F
100
AcDbEntity
  8
0
  6
Continuous
 62
     7
370
    25
100
AcDbSpline
210
0.0
220
0.0
230
1.0
 70
     8
 71
     3
 72
    18
 73
    14
 74
     0
 42
0.00000001
 43
0.00000001
 40
0.0331501239006784
 40
0.0331501239006784
 40
0.0331501239006784
 40
0.0331501239006784
 40
0.0382266457685912
 40
0.0544813480050881
 40
0.0734448093256102
 40
0.0949987757753401
 40
0.1190063904759743
 40
0.1453188976907598
 40
0.1737702883686622
 40
0.204183653893373
 40
0.236370678557395
 40
0.2701294730825404
 40
0.2997622070142257
 40
0.2997622070142257
 40
0.2997622070142257
 40
0.2997622070142257
 10
12.48368320173763
 20
5.966840735731193
 30
0.0
 10
12.46262622921085
 20
5.96975838035663
 30
0.0
 10
12.37421276538978
 20
5.982129417685767
 30
0.0
 10
12.20655002137577
 20
6.003932283870245
 30
0.0
 10
11.97059361678289
 20
6.034745203330135
 30
0.0
 10
11.70219374514611
 20
6.068703832130516
 30
0.0
 10
11.40313966215615
 20
6.105635315513456
 30
0.0
 10
11.07523148841462
 20
6.144904558866455
 30
0.0
 10
10.72050678878546
 20
6.186066684689722
 30
0.0
 10
10.34114325750845
 20
6.228548426425696
 30
0.0
 10
9.939483133578257
 20
6.271834963343488
 30
0.0
 10
9.540892221993547
 20
6.313022538005924
 30
0.0
 10
9.276415554405569
 20
6.339200255013483
 30
0.0
 10
9.152759232721351
 20
6.351177234576951
 30
0.0
  0
SPLINE
  5
F5
330
1F
100
AcDbEntity
  8
0
  6
Continuous
 62
     7
370
    25
100
AcDbSpline
210
0.0
220
0.0
230
1.0
 70
     8
 71
     3
 72
    12
 73
     8
 74
     0
 42
0.00000001
 43
0.00000001
 40
0.7002377929857727
 40
0.7002377929857727
 40
0.7002377929857727
 40
0.7002377929857727
 40
0.7298705269174596
 40
0.763629321442605
 40
0.795816346106627
 40
0.8262297116313377
 40
0.8405764734217691
 40
0.8405764734217691
 40
0.8405764734217691
 40
0.8405764734217691
 10
9.152759232721348
 20
5.440274648826621
 30
0.0
 10
9.276415554405574
 20
5.45225162839009
 30
0.0
 10
9.540892221993554
 20
5.478429345397648
 30
0.0
 10
9.939483133578277
 20
5.519616920060086
 30
0.0
 10
10.34114325750845
 20
5.562903456977876
 30
0.0
 10
10.66174042780741
 20
5.598804446575054
 30
0.0
 10
10.84816658336575
 20
5.62025593630289
 30
0.0
 10
10.90791424755946
 20
5.627189546497674
 30
0.0
  0
MTEXT
  5
F6
330
1F
100
AcDbEntity
  8
PART_NAMES
100
AcDbMText
 10
9.4853389715
 20
6.0147988179
 30
0.0
 40
0.1666666667
 41
0.0
 71
     1
 72
     1
  1
VRCS<2>
  7
SLDTEXTSTYLE0
 73
     1
 44
1.0
  0
CIRCLE
  5
F7
330
1F
100
AcDbEntity
  8
0
  6
Continuous
 62
     7
370
    25
100
AcDbCircle
 10
12.6739758257
 20
4.5143073689
 30
0.0
 40
0.25
  0
SPLINE
  5
F8
330
1F
100
AcDbEntity
  8
0
  6
Continuous
 62
     7
370
    25
100
AcDbSpline
210
0.0
220
0.0
230
1.0
 70
     8
 71
     3
 72
    17
 73
    13
 74
     0
 42
0.00000001
 43
0.00000001
 40
0.3774297316357515
 40
0.3774297316357515
 40
0.3774297316357515
 40
0.3774297316357515
 40
0.391987367731552
 40
0.429762919657396
 40
0.4680285405296232
 40
0.5065527830725232
 40
0.5450977808625769
 40
0.5834246821246982
 40
0.6212988508376641
 40
0.6584831390407772
 40
0.6947496491042666
 40
0.712231535840301
 40
0.712231535840301
 40
0.712231535840301
 40
0.712231535840301
 10
13.16801413102145
 20
5.326211382743189
 30
0.0
 10
13.09997690106316
 20
5.324370998294587
 30
0.0
 10
12.85540691274962
 20
5.317132342254155
 30
0.0
 10
12.43212781833443
 20
5.300960932310724
 30
0.0
 10
11.89713365915797
 20
5.274675063235319
 30
0.0
 10
11.35883041846133
 20
5.242991097337023
 30
0.0
 10
10.82053201338567
 20
5.206709490117951
 30
0.0
 10
10.28555511521296
 20
5.166588858509209
 30
0.0
 10
9.757202894381702
 20
5.123374074681669
 30
0.0
 10
9.238721845406248
 20
5.07776975510206
 30
0.0
 10
8.815424791949283
 20
5.038211737828434
 30
0.0
 10
8.56531521848651
 20
5.013868701418233
 30
0.0
 10
8.483975825684652
 20
5.005851856139577
 30
0.0
  0
LINE
  5
F9
330
1F
100
AcDbEntity
  8
0
  6
Continuous
 62
     7
370
    25
100
AcDbLine
 10
13.168014131
 20
5.3262113827
 30
0.0
 11
13.1739758257
 21
5.0762824765
 31
0.0
  0
LINE
  5
FA
330
1F
100
AcDbEntity
  8
0
  6
Continuous
 62
     7
370
    25
100
AcDbLine
 10
13.1739758257
 20
5.0762824765
 30
0.0
 11
13.423904732
 21
5.0822441711
 31
0.0
  0
LINE
  5
FB
330
1F
100
AcDbEntity
  8
0
  6
Continuous
 62
     7
370
    25
100
AcDbLine
 10
13.423904732
 20
5.0822441711
 30
0.0
 11
13.4179430373
 21
5.3321730774
 31
0.0
  0
SPLINE
  5
FC
330
1F
100
AcDbEntity
  8
0
  6
Continuous
 62
     7
370
    25
100
AcDbSpline
210
0.0
220
0.0
230
1.0
 70
     8
 71
     3
 72
    24
 73
    20
 74
     0
 42
0.00000001
 43
0.00000001
 40
0.0044880260482396
 40
0.0044880260482396
 40
0.0044880260482396
 40
0.0044880260482396
 40
0.0069088781909513
 40
0.014824787780603
 40
0.0245786747262124
 40
0.0365868011412138
 40
0.0510270804082164
 40
0.0679537271803132
 40
0.0873481546665464
 40
0.1091509346619292
 40
0.1332679441727643
 40
0.1595846730722639
 40
0.1879634636900106
 40
0.2182517048263839
 40
0.2502819304004726
 40
0.2838701567336951
 40
0.3188219977472166
 40
0.354933688380441
 40
0.3596057383227844
 40
0.3596057383227844
 40
0.3596057383227844
 40
0.3596057383227844
 10
18.22302378503577
 20
4.576807368887331
 30
0.0
 10
18.22031630774296
 20
4.587762863844602
 30
0.0
 10
18.20620505462228
 20
4.633567134071749
 30
0.0
 10
18.14619262988926
 20
4.710143881414387
 30
0.0
 10
18.03785884774927
 20
4.796778375395387
 30
0.0
 10
17.88858442430681
 20
4.878460113021857
 30
0.0
 10
17.70076640925356
 20
4.955350308851335
 30
0.0
 10
17.47423188783829
 20
5.026928764562096
 30
0.0
 10
17.2103983309565
 20
5.092528826250677
 30
0.0
 10
16.91067594071945
 20
5.151510811510621
 30
0.0
 10
16.57685027893161
 20
5.203207795288123
 30
0.0
 10
16.21093513806179
 20
5.247079846772216
 30
0.0
 10
15.81516370257164
 20
5.282753679735012
 30
0.0
 10
15.39195695878122
 20
5.309950680012778
 30
0.0
 10
14.94391620511304
 20
5.328589013628515
 30
0.0
 10
14.47379914353825
 20
5.338717435557489
 30
0.0
 10
13.9844995808431
 20
5.340592690223144
 30
0.0
 10
13.63042351381404
 20
5.33637872717376
 30
0.0
 10
13.43978190609254
 20
5.332622539936916
 30
0.0
 10
13.41794303730621
 20
5.332173077409971
 30
0.0
  0
LINE
  5
FD
330
1F
100
AcDbEntity
  8
0
  6
Continuous
 62
     7
370
    25
100
AcDbLine
 10
18.223023785
 20
4.5768073689
 30
0.0
 11
17.7339758257
 21
4.5768073689
 31
0.0
  0
LINE
  5
FE
330
1F
100
AcDbEntity
  8
0
  6
Continuous
 62
     7
370
    25
100
AcDbLine
 10
17.7339758257
 20
4.5768073689
 30
0.0
 11
17.7339758257
 21
4.4518073689
 31
0.0
  0
LINE
  5
FF
330
1F
100
AcDbEntity
  8
0
  6
Continuous
 62
     7
370
    25
100
AcDbLine
 10
17.7339758257
 20
4.4518073689
 30
0.0
 11
18.223023785
 21
4.4518073689
 31
0.0
  0
SPLINE
  5
100
330
1F
100
AcDbEntity
  8
0
  6
Continuous
 62
     7
370
    25
100
AcDbSpline
210
0.0
220
0.0
230
1.0
 70
     8
 71
     3
 72
    24
 73
    20
 74
     0
 42
0.00000001
 43
0.00000001
 40
0.6403942616772157
 40
0.6403942616772157
 40
0.6403942616772157
 40
0.6403942616772157
 40
0.645066311619559
 40
0.6811780022527834
 40
0.7161298432663049
 40
0.7497180695995274
 40
0.7817482951736161
 40
0.8120365363099894
 40
0.8404153269277361
 40
0.8667320558272357
 40
0.8908490653380708
 40
0.9126518453334536
 40
0.9320462728196868
 40
0.9489729195917836
 40
0.9634131988587862
 40
0.9754213252737876
 40
0.985175212219397
 40
0.9930911218090487
 40
0.9955119739517604
 40
0.9955119739517604
 40
0.9955119739517604
 40
0.9955119739517604
 10
13.41794303730622
 20
3.696441660360851
 30
0.0
 10
13.43978190609255
 20
3.695992197833905
 30
0.0
 10
13.63042351381405
 20
3.69223601059706
 30
0.0
 10
13.98449958084311
 20
3.688022047547677
 30
0.0
 10
14.47379914353826
 20
3.689897302213333
 30
0.0
 10
14.94391620511304
 20
3.700025724142305
 30
0.0
 10
15.39195695878122
 20
3.718664057758043
 30
0.0
 10
15.81516370257165
 20
3.745861058035808
 30
0.0
 10
16.21093513806179
 20
3.781534890998606
 30
0.0
 10
16.57685027893161
 20
3.825406942482698
 30
0.0
 10
16.91067594071945
 20
3.8771039262602
 30
0.0
 10
17.2103983309565
 20
3.936085911520143
 30
0.0
 10
17.47423188783829
 20
4.001685973208724
 30
0.0
 10
17.70076640925356
 20
4.073264428919485
 30
0.0
 10
17.88858442430681
 20
4.150154624748963
 30
0.0
 10
18.03785884774927
 20
4.231836362375432
 30
0.0
 10
18.14619262988926
 20
4.318470856356432
 30
0.0
 10
18.20620505462228
 20
4.39504760369907
 30
0.0
 10
18.22031630774296
 20
4.440851873926217
 30
0.0
 10
18.22302378503577
 20
4.451807368883488
 30
0.0
  0
LINE
  5
101
330
1F
100
AcDbEntity
  8
0
  6
Continuous
 62
     7
370
    25
100
AcDbLine
 10
13.4179430373
 20
3.6964416604
 30
0.0
 11
13.423904732
 21
3.9463705666
 31
0.0
  0
LINE
  5
102
330
1F
100
AcDbEntity
  8
0
  6
Continuous
 62
     7
370
    25
100
AcDbLine
 10
13.423904732
 20
3.9463705666
 30
0.0
 11
13.1739758257
 21
3.9523322613
 31
0.0
  0
LINE
  5
103
330
1F
100
AcDbEntity
  8
0
  6
Continuous
 62
     7
370
    25
100
AcDbLine
 10
13.1739758257
 20
3.9523322613
 30
0.0
 11
13.168014131
 21
3.702403355
 31
0.0
  0
SPLINE
  5
104
330
1F
100
AcDbEntity
  8
0
  6
Continuous
 62
     7
370
    25
100
AcDbSpline
210
0.0
220
0.0
230
1.0
 70
     8
 71
     3
 72
    17
 73
    13
 74
     0
 42
0.00000001
 43
0.00000001
 40
0.2877684641600403
 40
0.2877684641600403
 40
0.2877684641600403
 40
0.2877684641600403
 40
0.3052503508957334
 40
0.3415168609592228
 40
0.3787011491623359
 40
0.4165753178753017
 40
0.4549022191374231
 40
0.4934472169274768
 40
0.5319714594703768
 40
0.570237080342604
 40
0.608012632268448
 40
0.622570268364248
 40
0.622570268364248
 40
0.622570268364248
 40
0.622570268364248
 10
8.483975825689432
 20
4.022762881630774
 30
0.0
 10
8.565315218489703
 20
4.014746036352278
 30
0.0
 10
8.815424791950893
 20
3.990402999942237
 30
0.0
 10
9.238721845406262
 20
3.95084498266876
 30
0.0
 10
9.757202894381722
 20
3.905240663089151
 30
0.0
 10
10.28555511521297
 20
3.862025879261612
 30
0.0
 10
10.82053201338569
 20
3.82190524765287
 30
0.0
 10
11.35883041846134
 20
3.785623640433798
 30
0.0
 10
11.89713365915798
 20
3.753939674535502
 30
0.0
 10
12.43212781833445
 20
3.727653805460098
 30
0.0
 10
12.85540691274962
 20
3.711482395516667
 30
0.0
 10
13.09997690106316
 20
3.704243739476234
 30
0.0
 10
13.16801413102145
 20
3.702403355027632
 30
0.0
  0
LINE
  5
105
330
1F
100
AcDbEntity
  8
0
  6
Continuous
 62
     7
370
    25
100
AcDbLine
 10
8.4839758257
 20
4.0227628816
 30
0.0
 11
8.4839758257
 21
5.0058518561
 31
0.0
  0
LINE
  5
106
330
1F
100
AcDbEntity
  8
0
  6
Continuous
 62
     7
370
    25
100
AcDbLine
 10
15.8239758257
 20
4.6393073689
 30
0.0
 11
13.8239758257
 21
4.6393073689
 31
0.0
  0
LINE
  5
107
330
1F
100
AcDbEntity
  8
0
  6
Continuous
 62
     7
370
    25
100
AcDbLine
 10
13.8239758257
 20
4.6393073689
 30
0.0
 11
13.8239758257
 21
4.3893073689
 31
0.0
  0
LINE
  5
108
330
1F
100
AcDbEntity
  8
0
  6
Continuous
 62
     7
370
    25
100
AcDbLine
 10
13.8239758257
 20
4.3893073689
 30
0.0
 11
15.8239758257
 21
4.3893073689
 31
0.0
  0
LINE
  5
109
330
1F
100
AcDbEntity
  8
0
  6
Continuous
 62
     7
370
    25
100
AcDbLine
 10
15.8239758257
 20
4.3893073689
 30
0.0
 11
15.8239758257
 21
4.6393073689
 31
0.0
  0
MTEXT
  5
10A
330
1F
100
AcDbEntity
  8
PART_NAMES
100
AcDbMText
 10
10.9873717776
 20
4.5265804547
 30
0.0
 40
0.1666666667
 41
0.0
 71
     1
 72
     1
  1
VR<1>
  7
SLDTEXTSTYLE0
 73
     1
 44
1.0
  0
LINE
  5
10B
330
1F
100
AcDbEntity
  8
0
  6
Continuous
 62
     7
370
    25
100
AcDbLine
 10
4.6026802098
 20
4.4427013978
 30
0.0
 11
6.2044829977
 21
4.6631279089
 31
0.0
  0
LINE
  5
10C
330
1F
100
AcDbEntity
  8
0
  6
Continuous
 62
     7
370
    25
100
AcDbLine
 10
6.2044829977
 20
4.6631279089
 30
0.0
 11
6.187442152
 21
4.7869608996
 31
0.0
  0
LINE
  5
10D
330
1F
100
AcDbEntity
  8
0
  6
Continuous
 62
     7
370
    25
100
AcDbLine
 10
7.9377970869
 20
4.9790464166
 30
0.0
 11
8.2061143012
 21
4.5143073689
 31
0.0
  0
LINE
  5
10E
330
1F
100
AcDbEntity
  8
0
  6
Continuous
 62
     7
370
    25
100
AcDbLine
 10
8.2061143012
 20
4.5143073689
 30
0.0
 11
7.9377970869
 21
4.0495683212
 31
0.0
  0
SPLINE
  5
10F
330
1F
100
AcDbEntity
  8
0
  6
Continuous
 62
     7
370
    25
100
AcDbSpline
210
0.0
220
0.0
230
1.0
 70
     8
 71
     3
 72
    17
 73
    13
 74
     0
 42
0.00000001
 43
0.00000001
 40
0.0290949694009787
 40
0.0290949694009787
 40
0.0290949694009787
 40
0.0290949694009787
 40
0.0382266457685912
 40
0.0544813480050881
 40
0.0734448093256102
 40
0.0949987757753401
 40
0.1190063904759743
 40
0.1453188976907598
 40
0.1737702883686622
 40
0.204183653893373
 40
0.236370678557395
 40
0.2685432122641156
 40
0.2685432122641156
 40
0.2685432122641156
 40
0.2685432122641156
 10
4.602680209782007
 20
4.442701397768255
 30
0.0
 10
4.645015830889537
 20
4.437027566196703
 30
0.0
 10
4.762268222803975
 20
4.420400008609835
 30
0.0
 10
4.968056427424957
 20
4.393639306856556
 30
0.0
 10
5.231187048929579
 20
4.359277778667304
 30
0.0
 10
5.530497530276356
 20
4.321408261554147
 30
0.0
 10
5.863992553886402
 20
4.280223517311208
 30
0.0
 10
6.229664685998816
 20
4.23643178202299
 30
0.0
 10
6.62524170302242
 20
4.190529168067601
 30
0.0
 10
7.048295113813887
 20
4.143154962968686
 30
0.0
 10
7.488839328307216
 20
4.095677923879043
 30
0.0
 10
7.788144881848885
 20
4.06471787477274
 30
0.0
 10
7.937797086942011
 20
4.049568321199932
 30
0.0
  0
SPLINE
  5
110
330
1F
100
AcDbEntity
  8
0
  6
Continuous
 62
     7
370
    25
100
AcDbSpline
210
0.0
220
0.0
230
1.0
 70
     8
 71
     3
 72
    12
 73
     8
 74
     0
 42
0.00000001
 43
0.00000001
 40
0.731456787735884
 40
0.731456787735884
 40
0.731456787735884
 40
0.731456787735884
 40
0.763629321442605
 40
0.795816346106627
 40
0.8262297116313377
 40
0.8546811023092402
 40
0.8570013002320518
 40
0.8570013002320518
 40
0.8570013002320518
 40
0.8570013002320518
 10
7.937797086942002
 20
4.979046416570977
 30
0.0
 10
7.788144881848875
 20
4.963896862998168
 30
0.0
 10
7.488839328307193
 20
4.932936813891865
 30
0.0
 10
7.048295113813891
 20
4.885459774802223
 30
0.0
 10
6.62524170302242
 20
4.838085569703306
 30
0.0
 10
6.341088859075595
 20
4.80511257648404
 30
0.0
 10
6.198214755220225
 20
4.788235155436555
 30
0.0
 10
6.187442151987087
 20
4.786960899578093
 30
0.0
  0
MTEXT
  5
111
330
1F
100
AcDbEntity
  8
PART_NAMES
100
AcDbMText
 10
6.5256584664
 20
4.6129116246
 30
0.0
 40
0.1666666667
 41
0.0
 71
     1
 72
     1
  1
VRCS<1>
  7
SLDTEXTSTYLE0
 73
     1
 44
1.0
  0
LINE
  5
112
330
1F
100
AcDbEntity
  8
0
  6
Continuous
 62
     7
370
    25
100
AcDbLine
 10
16.6332344219
 20
10.8261908652
 30
0.0
 11
16.6332344219
 21
10.5761908652
 31
0.0
  0
LINE
  5
113
330
1F
100
AcDbEntity
  8
0
  6
Continuous
 62
     7
370
    25
100
AcDbLine
 10
16.6332344219
 20
10.5761908652
 30
0.0
 11
18.6332344219
 21
10.5761908652
 31
0.0
  0
LINE
  5
114
330
1F
100
AcDbEntity
  8
0
  6
Continuous
 62
     7
370
    25
100
AcDbLine
 10
18.6332344219
 20
10.8261908652
 30
0.0
 11
18.6332344219
 21
10.5761908652
 31
0.0
  0
LINE
  5
115
330
1F
100
AcDbEntity
  8
0
  6
Continuous
 62
     7
370
    25
100
AcDbLine
 10
16.6332344219
 20
10.8261908652
 30
0.0
 11
18.6332344219
 21
10.8261908652
 31
0.0
  0
CIRCLE
  5
116
330
1F
100
AcDbEntity
  8
0
  6
Continuous
 62
     7
370
    25
100
AcDbCircle
 10
20.2269844219
 20
10.4511908652
 30
0.0
 40
0.375
  0
ARC
  5
117
330
1F
100
AcDbEntity
  8
0
  6
Continuous
 62
     7
370
    25
100
AcDbCircle
 10
8.9269844219
 20
9.7761908652
 30
0.0
 40
0.2000000000000011
100
AcDbArc
 50
180.0
 51
270.0
  0
LINE
  5
118
330
1F
100
AcDbEntity
  8
0
  6
Continuous
 62
     7
370
    25
100
AcDbLine
 10
8.7269844219
 20
11.1261908652
 30
0.0
 11
8.7269844219
 21
9.7761908652
 31
0.0
  0
ARC
  5
119
330
1F
100
AcDbEntity
  8
0
  6
Continuous
 62
     7
370
    25
100
AcDbCircle
 10
8.9269844219
 20
11.1261908652
 30
0.0
 40
0.1999999999999993
100
AcDbArc
 50
90.0
 51
180.0
  0
LINE
  5
11A
330
1F
100
AcDbEntity
  8
0
  6
Continuous
 62
     7
370
    25
100
AcDbLine
 10
23.5269844219
 20
11.3261908652
 30
0.0
 11
8.9269844219
 21
11.3261908652
 31
0.0
  0
ARC
  5
11B
330
1F
100
AcDbEntity
  8
0
  6
Continuous
 62
     7
370
    25
100
AcDbCircle
 10
23.5269844219
 20
11.1261908652
 30
0.0
 40
0.1999999999999993
100
AcDbArc
 50
0.0
 51
90.0
  0
LINE
  5
11C
330
1F
100
AcDbEntity
  8
0
  6
Continuous
 62
     7
370
    25
100
AcDbLine
 10
23.7269844219
 20
9.7761908652
 30
0.0
 11
23.7269844219
 21
11.1261908652
 31
0.0
  0
ARC
  5
11D
330
1F
100
AcDbEntity
  8
0
  6
Continuous
 62
     7
370
    25
100
AcDbCircle
 10
23.5269844219
 20
9.7761908652
 30
0.0
 40
0.2000000000000011
100
AcDbArc
 50
270.0
 51
0.0
  0
LINE
  5
11E
330
1F
100
AcDbEntity
  8
0
  6
Continuous
 62
     7
370
    25
100
AcDbLine
 10
8.9269844219
 20
9.5761908652
 30
0.0
 11
23.5269844219
 21
9.5761908652
 31
0.0
  0
CIRCLE
  5
11F
330
1F
100
AcDbEntity
  8
0
  6
Continuous
 62
     7
370
    25
100
AcDbCircle
 10
13.2269844219
 20
10.4511908652
 30
0.0
 40
0.375
  0
MTEXT
  5
120
330
1F
100
AcDbEntity
  8
PART_NAMES
100
AcDbMText
 10
14.9980573627
 20
10.6245378273
 30
0.0
 40
0.1666666667
 41
0.0
 71
     1
 72
     1
  1
WSOS
  7
SLDTEXTSTYLE0
 73
     1
 44
1.0
  0
MTEXT
  5
122
330
1F
100
AcDbEntity
  8
0
  6
Continuous
 62
     7
100
AcDbMText
 10
0.0
 20
0.5790104628
 30
0.0
 40
0.2076
 41
0.0
 71
     1
 72
     1
  1
SOLIDWORKS Educational Product.
  7
SLDTEXTSTYLE1
 73
     1
 44
1.0
  0
MTEXT
  5
123
330
1F
100
AcDbEntity
  8
0
  6
Continuous
 62
     7
100
AcDbMText
 10
0.0
 20
0.2676104628
 30
0.0
 40
0.2076
 41
0.0
 71
     1
 72
     1
  1
For Instructional Use Only.
  7
SLDTEXTSTYLE1
 73
     1
 44
1.0
  0
ENDSEC
  0
SECTION
  2
OBJECTS
  0
DICTIONARY
  5
C
330
0
100
AcDbDictionary
281
     1
  3
ACAD_GROUP
350
D
  3
ACAD_LAYOUT
350
1A
  3
ACAD_MLINESTYLE
350
17
  3
ACAD_PLOTSETTINGS
350
19
  3
ACAD_PLOTSTYLENAME
350
E
  3
ACAD_SCALELIST
350
47
  3
DWGPROPS
350
124
  0
DICTIONARY
  5
D
102
{ACAD_REACTORS
330
C
102
}
330
C
100
AcDbDictionary
281
     1
  0
DICTIONARY
  5
1A
102
{ACAD_REACTORS
330
C
102
}
330
C
100
AcDbDictionary
281
     1
  3
Layout1
350
1E
  3
Layout2
350
26
  3
Model
350
22
  0
DICTIONARY
  5
17
102
{ACAD_REACTORS
330
C
102
}
330
C
100
AcDbDictionary
281
     1
  3
Standard
350
18
  0
DICTIONARY
  5
19
102
{ACAD_REACTORS
330
C
102
}
330
C
100
AcDbDictionary
281
     1
  0
ACDBDICTIONARYWDFLT
  5
E
102
{ACAD_REACTORS
330
C
102
}
330
C
100
AcDbDictionary
281
     1
  3
Normal
350
F
100
AcDbDictionaryWithDefault
340
F
  0
DICTIONARY
  5
47
102
{ACAD_REACTORS
330
C
102
}
330
C
100
AcDbDictionary
281
     1
  3
A0
350
48
  3
A1
350
49
  3
A2
350
4A
  3
A3
350
4B
  3
A4
350
4C
  3
A5
350
4D
  3
A6
350
4E
  3
A7
350
4F
  3
A8
350
50
  3
A9
350
51
  3
B1
350
52
  3
B2
350
53
  3
B3
350
54
  3
B4
350
55
  3
B5
350
56
  3
B6
350
57
  3
B7
350
58
  0
XRECORD
  5
124
102
{ACAD_REACTORS
330
C
102
}
330
C
100
AcDbXrecord
280
     1
  1
DWGPROPS COOKIE
  2

  3

  4

  6

  7

  8
ucmai
  9

300
=
301
=
302
=
303
=
304
=
305
=
306
=
307
=
308
=
309
=
 40
0.0
 41
2460960.772063253
 42
2460960.77206419
  1

 90
        0
  0
LAYOUT
  5
1E
102
{ACAD_REACTORS
330
1A
102
}
330
1A
100
AcDbPlotSettings
  1

  2
none_device
  4

  6

 40
0.0
 41
0.0
 42
0.0
 43
0.0
 44
0.0
 45
0.0
 46
0.0
 47
0.0
 48
0.0
 49
0.0
140
0.0
141
0.0
142
1.0
143
1.0
 70
   688
 72
     0
 73
     0
 74
     5
  7

 75
    16
147
1.0
148
0.0
149
0.0
100
AcDbLayout
  1
Layout1
 70
     1
 71
     1
 10
0.0
 20
0.0
 11
12.0
 21
9.0
 12
0.0
 22
0.0
 32
0.0
 14
1.0000000000E+20
 24
1.0000000000E+20
 34
1.0000000000E+20
 15
-1.0000000000E+20
 25
-1.0000000000E+20
 35
-1.0000000000E+20
146
0.0
 13
0.0
 23
0.0
 33
0.0
 16
1.0
 26
0.0
 36
0.0
 17
0.0
 27
1.0
 37
0.0
 76
     0
330
1B
  0
LAYOUT
  5
26
102
{ACAD_REACTORS
330
1A
102
}
330
1A
100
AcDbPlotSettings
  1

  2
none_device
  4

  6

 40
0.0
 41
0.0
 42
0.0
 43
0.0
 44
0.0
 45
0.0
 46
0.0
 47
0.0
 48
0.0
 49
0.0
140
0.0
141
0.0
142
1.0
143
1.0
 70
   688
 72
     0
 73
     0
 74
     5
  7

 75
    16
147
1.0
148
0.0
149
0.0
100
AcDbLayout
  1
Layout2
 70
     1
 71
     2
 10
0.0
 20
0.0
 11
0.0
 21
0.0
 12
0.0
 22
0.0
 32
0.0
 14
0.0
 24
0.0
 34
0.0
 15
0.0
 25
0.0
 35
0.0
146
0.0
 13
0.0
 23
0.0
 33
0.0
 16
1.0
 26
0.0
 36
0.0
 17
0.0
 27
1.0
 37
0.0
 76
     0
330
23
  0
LAYOUT
  5
22
102
{ACAD_REACTORS
330
1A
102
}
330
1A
100
AcDbPlotSettings
  1

  2
none_device
  4
Letter_(8.50_x_11.00_Inches)
  6

 40
6.35
 41
6.35
 42
6.35000508
 43
6.35000508
 44
215.9
 45
279.4
 46
0.0
 47
0.0
 48
0.0
 49
0.0
140
0.0
141
0.0
142
1.0
143
1.0
 70
  1712
 72
     0
 73
     0
 74
     0
  7

 75
     0
147
1.0
148
0.0
149
0.0
100
AcDbLayout
  1
Model
 70
     1
 71
     0
 10
0.0
 20
0.0
 11
24.0
 21
12.0
 12
0.0
 22
0.0
 32
0.0
 14
0.0
 24
0.0
 34
0.0
 15
24.0
 25
12.0
 35
0.0
146
0.0
 13
0.0
 23
0.0
 33
0.0
 16
1.0
 26
0.0
 36
0.0
 17
0.0
 27
1.0
 37
0.0
 76
     0
330
1F
331
29
  0
MLINESTYLE
  5
18
102
{ACAD_REACTORS
330
17
102
}
330
17
100
AcDbMlineStyle
  2
Standard
 70
     0
  3

 62
   256
 51
90.0
 52
90.0
 71
     2
 49
0.5
 62
   256
  6
BYLAYER
 49
-0.5
 62
   256
  6
BYLAYER
  0
ACDBPLACEHOLDER
  5
F
102
{ACAD_REACTORS
330
E
102
}
330
E
  0
SCALE
  5
48
102
{ACAD_REACTORS
330
47
102
}
330
47
100
AcDbScale
 70
     0
300
1:1
140
1.0
141
1.0
290
     1
  0
SCALE
  5
49
102
{ACAD_REACTORS
330
47
102
}
330
47
100
AcDbScale
 70
     0
300
1/128" = 1'-0"
140
0.0078125
141
12.0
290
     0
  0
SCALE
  5
4A
102
{ACAD_REACTORS
330
47
102
}
330
47
100
AcDbScale
 70
     0
300
1/64" = 1'-0"
140
0.015625
141
12.0
290
     0
  0
SCALE
  5
4B
102
{ACAD_REACTORS
330
47
102
}
330
47
100
AcDbScale
 70
     0
300
1/32" = 1'-0"
140
0.03125
141
12.0
290
     0
  0
SCALE
  5
4C
102
{ACAD_REACTORS
330
47
102
}
330
47
100
AcDbScale
 70
     0
300
1/16" = 1'-0"
140
0.0625
141
12.0
290
     0
  0
SCALE
  5
4D
102
{ACAD_REACTORS
330
47
102
}
330
47
100
AcDbScale
 70
     0
300
3/32" = 1'-0"
140
0.09375
141
12.0
290
     0
  0
SCALE
  5
4E
102
{ACAD_REACTORS
330
47
102
}
330
47
100
AcDbScale
 70
     0
300
1/8" = 1'-0"
140
0.125
141
12.0
290
     0
  0
SCALE
  5
4F
102
{ACAD_REACTORS
330
47
102
}
330
47
100
AcDbScale
 70
     0
300
3/16" = 1'-0"
140
0.1875
141
12.0
290
     0
  0
SCALE
  5
50
102
{ACAD_REACTORS
330
47
102
}
330
47
100
AcDbScale
 70
     0
300
1/4" = 1'-0"
140
0.25
141
12.0
290
     0
  0
SCALE
  5
51
102
{ACAD_REACTORS
330
47
102
}
330
47
100
AcDbScale
 70
     0
300
3/8" = 1'-0"
140
0.375
141
12.0
290
     0
  0
SCALE
  5
52
102
{ACAD_REACTORS
330
47
102
}
330
47
100
AcDbScale
 70
     0
300
1/2" = 1'-0"
140
0.5
141
12.0
290
     0
  0
SCALE
  5
53
102
{ACAD_REACTORS
330
47
102
}
330
47
100
AcDbScale
 70
     0
300
3/4" = 1'-0"
140
0.75
141
12.0
290
     0
  0
SCALE
  5
54
102
{ACAD_REACTORS
330
47
102
}
330
47
100
AcDbScale
 70
     0
300
1" = 1'-0"
140
1.0
141
12.0
290
     0
  0
SCALE
  5
55
102
{ACAD_REACTORS
330
47
102
}
330
47
100
AcDbScale
 70
     0
300
1-1/2" = 1'-0"
140
1.5
141
12.0
290
     0
  0
SCALE
  5
56
102
{ACAD_REACTORS
330
47
102
}
330
47
100
AcDbScale
 70
     0
300
3" = 1'-0"
140
3.0
141
12.0
290
     0
  0
SCALE
  5
57
102
{ACAD_REACTORS
330
47
102
}
330
47
100
AcDbScale
 70
     0
300
6" = 1'-0"
140
6.0
141
12.0
290
     0
  0
SCALE
  5
58
102
{ACAD_REACTORS
330
47
102
}
330
47
100
AcDbScale
 70
     0
300
1'-0" = 1'-0"
140
12.0
141
12.0
290
     0
  0
ENDSEC
  0
EOF
