  0
SECTION
  2
HEADER
  9
$ACADVER
  1
AC1015
  9
$ACADMAINTVER
 70
     6
  9
$DWGCODEPAGE
  3
ANSI_1252
  9
$INSBASE
 10
0.0
 20
0.0
 30
0.0
  9
$EXTMIN
 10
0.0
 20
0.0
 30
0.0
  9
$EXTMAX
 10
24.0
 20
12.0
 30
0.0
  9
$LIMMIN
 10
0.0
 20
0.0
  9
$LIMMAX
 10
24.0
 20
12.0
  9
$ORTHOMODE
 70
     0
  9
$REGENMODE
 70
     1
  9
$FILLMODE
 70
     1
  9
$QTEXTMODE
 70
     0
  9
$MIRRTEXT
 70
     1
  9
$LTSCALE
 40
1.0
  9
$ATTMODE
 70
     1
  9
$TEXTSIZE
 40
0.125
  9
$TRACEWID
 40
0.05
  9
$TEXTSTYLE
  7
Standard
  9
$CLAYER
  8
0
  9
$CELTYPE
  6
ByLayer
  9
$CECOLOR
 62
   256
  9
$CELTSCALE
 40
1.0
  9
$DISPSILH
 70
     0
  9
$DIMSCALE
 40
1.0
  9
$DIMASZ
 40
0.13
  9
$DIMEXO
 40
0.05
  9
$DIMDLI
 40
0.38
  9
$DIMRND
 40
0.0
  9
$DIMDLE
 40
0.0
  9
$DIMEXE
 40
0.125
  9
$DIMTP
 40
0.0
  9
$DIMTM
 40
0.0
  9
$DIMTXT
 40
0.125
  9
$DIMCEN
 40
0.09
  9
$DIMTSZ
 40
0.0
  9
$DIMTOL
 70
     0
  9
$DIMLIM
 70
     0
  9
$DIMTIH
 70
     1
  9
$DIMTOH
 70
     1
  9
$DIMSE1
 70
     0
  9
$DIMSE2
 70
     0
  9
$DIMTAD
 70
     0
  9
$DIMZIN
 70
     1
  9
$DIMBLK
  1

  9
$DIMASO
 70
     1
  9
$DIMSHO
 70
     1
  9
$DIMPOST
  1

  9
$DIMAPOST
  1

  9
$DIMALT
 70
     0
  9
$DIMALTD
 70
     2
  9
$DIMALTF
 40
25.4
  9
$DIMLFAC
 40
1.0
  9
$DIMTOFL
 70
     0
  9
$DIMTVP
 40
0.0
  9
$DIMTIX
 70
     0
  9
$DIMSOXD
 70
     0
  9
$DIMSAH
 70
     0
  9
$DIMBLK1
  1

  9
$DIMBLK2
  1

  9
$DIMSTYLE
  2
Standard
  9
$DIMCLRD
 70
     0
  9
$DIMCLRE
 70
     0
  9
$DIMCLRT
 70
     0
  9
$DIMTFAC
 40
1.0
  9
$DIMGAP
 40
0.06
  9
$DIMJUST
 70
     0
  9
$DIMSD1
 70
     0
  9
$DIMSD2
 70
     0
  9
$DIMTOLJ
 70
     1
  9
$DIMTZIN
 70
     1
  9
$DIMALTZ
 70
     0
  9
$DIMALTTZ
 70
     0
  9
$DIMUPT
 70
     0
  9
$DIMDEC
 70
     2
  9
$DIMTDEC
 70
     2
  9
$DIMALTU
 70
     2
  9
$DIMALTTD
 70
     2
  9
$DIMTXSTY
  7
Standard
  9
$DIMAUNIT
 70
     0
  9
$DIMADEC
 70
     2
  9
$DIMALTRND
 40
0.0
  9
$DIMAZIN
 70
     0
  9
$DIMDSEP
 70
    46
  9
$DIMATFIT
 70
     3
  9
$DIMFRAC
 70
     0
  9
$DIMLDRBLK
  1

  9
$DIMLUNIT
 70
     2
  9
$DIMLWD
 70
    -2
  9
$DIMLWE
 70
    -2
  9
$DIMTMOVE
 70
     0
  9
$LUNITS
 70
     2
  9
$LUPREC
 70
     6
  9
$SKETCHINC
 40
0.1
  9
$FILLETRAD
 40
0.0
  9
$AUNITS
 70
     0
  9
$AUPREC
 70
     2
  9
$MENU
  1
.
  9
$ELEVATION
 40
0.0
  9
$PELEVATION
 40
0.0
  9
$THICKNESS
 40
0.0
  9
$LIMCHECK
 70
     0
  9
$CHAMFERA
 40
0.0
  9
$CHAMFERB
 40
0.0
  9
$CHAMFERC
 40
0.0
  9
$CHAMFERD
 40
0.0
  9
$SKPOLY
 70
     0
  9
$TDCREATE
 40
2460960.436652165
  9
$TDUCREATE
 40
2460960.728318831
  9
$TDUPDATE
 40
2460960.436653519
  9
$TDUUPDATE
 40
2460960.728320185
  9
$TDINDWG
 40
0.0000000116
  9
$TDUSRTIMER
 40
0.0000000116
  9
$USRTIMER
 70
     1
  9
$ANGBASE
 50
0.0
  9
$ANGDIR
 70
     0
  9
$PDMODE
 70
     0
  9
$PDSIZE
 40
-1.0
  9
$PLINEWID
 40
0.0
  9
$SPLFRAME
 70
     0
  9
$SPLINETYPE
 70
     6
  9
$SPLINESEGS
 70
     8
  9
$HANDSEED
  5
1C2
  9
$SURFTAB1
 70
     6
  9
$SURFTAB2
 70
     6
  9
$SURFTYPE
 70
     6
  9
$SURFU
 70
     6
  9
$SURFV
 70
     6
  9
$UCSBASE
  2

  9
$UCSNAME
  2

  9
$UCSORG
 10
0.0
 20
0.0
 30
0.0
  9
$UCSXDIR
 10
1.0
 20
0.0
 30
0.0
  9
$UCSYDIR
 10
0.0
 20
1.0
 30
0.0
  9
$UCSORTHOREF
  2

  9
$UCSORTHOVIEW
 70
     0
  9
$UCSORGTOP
 10
0.0
 20
0.0
 30
0.0
  9
$UCSORGBOTTOM
 10
0.0
 20
0.0
 30
0.0
  9
$UCSORGLEFT
 10
0.0
 20
0.0
 30
0.0
  9
$UCSORGRIGHT
 10
0.0
 20
0.0
 30
0.0
  9
$UCSORGFRONT
 10
0.0
 20
0.0
 30
0.0
  9
$UCSORGBACK
 10
0.0
 20
0.0
 30
0.0
  9
$PUCSBASE
  2

  9
$PUCSNAME
  2

  9
$PUCSORG
 10
0.0
 20
0.0
 30
0.0
  9
$PUCSXDIR
 10
1.0
 20
0.0
 30
0.0
  9
$PUCSYDIR
 10
0.0
 20
1.0
 30
0.0
  9
$PUCSORTHOREF
  2

  9
$PUCSORTHOVIEW
 70
     0
  9
$PUCSORGTOP
 10
0.0
 20
0.0
 30
0.0
  9
$PUCSORGBOTTOM
 10
0.0
 20
0.0
 30
0.0
  9
$PUCSORGLEFT
 10
0.0
 20
0.0
 30
0.0
  9
$PUCSORGRIGHT
 10
0.0
 20
0.0
 30
0.0
  9
$PUCSORGFRONT
 10
0.0
 20
0.0
 30
0.0
  9
$PUCSORGBACK
 10
0.0
 20
0.0
 30
0.0
  9
$USERI1
 70
     0
  9
$USERI2
 70
     0
  9
$USERI3
 70
     0
  9
$USERI4
 70
     0
  9
$USERI5
 70
     0
  9
$USERR1
 40
0.0
  9
$USERR2
 40
0.0
  9
$USERR3
 40
0.0
  9
$USERR4
 40
0.0
  9
$USERR5
 40
0.0
  9
$WORLDVIEW
 70
     1
  9
$SHADEDGE
 70
     3
  9
$SHADEDIF
 70
    70
  9
$TILEMODE
 70
     1
  9
$MAXACTVP
 70
    64
  9
$PINSBASE
 10
0.0
 20
0.0
 30
0.0
  9
$PLIMCHECK
 70
     0
  9
$PEXTMIN
 10
1.0000000000E+20
 20
1.0000000000E+20
 30
1.0000000000E+20
  9
$PEXTMAX
 10
-1.0000000000E+20
 20
-1.0000000000E+20
 30
-1.0000000000E+20
  9
$PLIMMIN
 10
0.0
 20
0.0
  9
$PLIMMAX
 10
12.0
 20
9.0
  9
$UNITMODE
 70
     0
  9
$VISRETAIN
 70
     1
  9
$PLINEGEN
 70
     0
  9
$PSLTSCALE
 70
     1
  9
$TREEDEPTH
 70
  3020
  9
$CMLSTYLE
  2
Standard
  9
$CMLJUST
 70
     0
  9
$CMLSCALE
 40
1.0
  9
$PROXYGRAPHICS
 70
     1
  9
$MEASUREMENT
 70
     0
  9
$CELWEIGHT
370
    -1
  9
$ENDCAPS
280
     0
  9
$JOINSTYLE
280
     0
  9
$LWDISPLAY
290
     1
  9
$INSUNITS
 70
     1
  9
$HYPERLINKBASE
  1

  9
$STYLESHEET
  1

  9
$XEDIT
290
     1
  9
$CEPSNTYPE
380
     0
  9
$PSTYLEMODE
290
     1
  9
$FINGERPRINTGUID
  2
{42abe76f-3215-4531-be1a-63ca7c9b56fc}
  9
$VERSIONGUID
  2
{FAEB1C32-E019-11D5-929B-00C0DF256EC4}
  9
$EXTNAMES
290
     1
  9
$PSVPSCALE
 40
0.0
  9
$OLESTARTUP
290
     0
  0
ENDSEC
  0
SECTION
  2
CLASSES
  0
CLASS
  1
ACDBDICTIONARYWDFLT
  2
AcDbDictionaryWithDefault
  3
ObjectDBX Classes
 90
        0
280
     0
281
     0
  0
CLASS
  1
VISUALSTYLE
  2
AcDbVisualStyle
  3
ObjectDBX Classes
 90
     4095
280
     0
281
     0
  0
CLASS
  1
MATERIAL
  2
AcDbMaterial
  3
ObjectDBX Classes
 90
     1153
280
     0
281
     0
  0
CLASS
  1
SCALE
  2
AcDbScale
  3
ObjectDBX Classes
 90
     1153
280
     0
281
     0
  0
CLASS
  1
TABLESTYLE
  2
AcDbTableStyle
  3
ObjectDBX Classes
 90
     4095
280
     0
281
     0
  0
CLASS
  1
MLEADERSTYLE
  2
AcDbMLeaderStyle
  3
ACDB_MLEADERSTYLE_CLASS
 90
     4095
280
     0
281
     0
  0
CLASS
  1
SUN
  2
AcDbSun
  3
SCENEOE
 90
     1153
280
     0
281
     0
  0
CLASS
  1
ACDBPLACEHOLDER
  2
AcDbPlaceHolder
  3
ObjectDBX Classes
 90
        0
280
     0
281
     0
  0
CLASS
  1
LAYOUT
  2
AcDbLayout
  3
ObjectDBX Classes
 90
        0
280
     0
281
     0
  0
ENDSEC
  0
SECTION
  2
TABLES
  0
TABLE
  2
VPORT
  5
8
330
0
100
AcDbSymbolTable
 70
     1
  0
VPORT
  5
29
330
8
100
AcDbSymbolTableRecord
100
AcDbViewportTableRecord
  2
*Active
 70
     0
 10
0.0
 20
0.0
 11
1.0
 21
1.0
 12
12.0
 22
6.0
 13
0.0
 23
0.0
 14
0.5
 24
0.5
 15
0.5
 25
0.5
 16
0.0
 26
0.0
 36
1.0
 17
0.0
 27
0.0
 37
0.0
 40
12.0
 41
2.0
 42
50.0
 43
0.0
 44
0.0
 50
0.0
 51
0.0
 71
     0
 72
  2000
 73
     1
 74
     3
 75
     0
 76
     0
 77
     0
 78
     0
281
     0
 65
     1
110
0.0
120
0.0
130
0.0
111
1.0
121
0.0
131
0.0
112
0.0
122
1.0
132
0.0
 79
     0
146
0.0
  0
ENDTAB
  0
TABLE
  2
LTYPE
  5
5
330
0
100
AcDbSymbolTable
 70
     6
  0
LTYPE
  5
14
330
5
100
AcDbSymbolTableRecord
100
AcDbLinetypeTableRecord
  2
ByBlock
 70
     0
  3

 72
    65
 73
     0
 40
0.0
  0
LTYPE
  5
15
330
5
100
AcDbSymbolTableRecord
100
AcDbLinetypeTableRecord
  2
ByLayer
 70
     0
  3

 72
    65
 73
     0
 40
0.0
  0
LTYPE
  5
16
330
5
100
AcDbSymbolTableRecord
100
AcDbLinetypeTableRecord
  2
Continuous
 70
     0
  3
Solid line
 72
    65
 73
     0
 40
0.0
  0
LTYPE
  5
5E
330
5
100
AcDbSymbolTableRecord
100
AcDbLinetypeTableRecord
  2
HIDDEN
 70
     0
  3
Hidden __ __ __ __ __ __ __ __ __ __ __ __ __ __
 72
    65
 73
     2
 40
0.075
 49
0.05
 74
     0
 49
-0.025
 74
     0
  0
LTYPE
  5
5F
330
5
100
AcDbSymbolTableRecord
100
AcDbLinetypeTableRecord
  2
PHANTOM
 70
     0
  3
Phantom ______  __  __  ______  __  __  ______
 72
    65
 73
     6
 40
0.5
 49
0.25
 74
     0
 49
-0.05
 74
     0
 49
0.05
 74
     0
 49
-0.05
 74
     0
 49
0.05
 74
     0
 49
-0.05
 74
     0
  0
LTYPE
  5
60
330
5
100
AcDbSymbolTableRecord
100
AcDbLinetypeTableRecord
  2
CENTER
 70
     0
  3
Center ____ _ ____ _ ____ _ ____ _ ____ _ ____
 72
    65
 73
     4
 40
0.4
 49
0.25
 74
     0
 49
-0.05
 74
     0
 49
0.05
 74
     0
 49
-0.05
 74
     0
  0
LTYPE
  5
61
330
5
100
AcDbSymbolTableRecord
100
AcDbLinetypeTableRecord
  2
CENTERX2
 70
     0
  3
Center (2x) ________  __  ________  __  _____
 72
    65
 73
     4
 40
0.8
 49
0.5
 74
     0
 49
-0.1
 74
     0
 49
0.1
 74
     0
 49
-0.1
 74
     0
  0
LTYPE
  5
62
330
5
100
AcDbSymbolTableRecord
100
AcDbLinetypeTableRecord
  2
DOT2
 70
     0
  3
Dot (.5x) ........................................
 72
    65
 73
     2
 40
0.025
 49
0.0
 74
     0
 49
-0.025
 74
     0
  0
ENDTAB
  0
TABLE
  2
LAYER
  5
2
330
0
100
AcDbSymbolTable
 70
     3
  0
LAYER
  5
10
330
2
100
AcDbSymbolTableRecord
100
AcDbLayerTableRecord
  2
0
 70
     0
 62
     7
  6
Continuous
370
    -3
390
F
  0
LAYER
  5
63
330
2
100
AcDbSymbolTableRecord
100
AcDbLayerTableRecord
  2
FORMAT
 70
     0
 62
     7
  6
Continuous
370
    -3
390
F
  0
LAYER
  5
64
330
2
100
AcDbSymbolTableRecord
100
AcDbLayerTableRecord
  2
PART_NAMES
 70
     0
 62
     1
  6
Continuous
370
    -3
390
F
  0
ENDTAB
  0
TABLE
  2
STYLE
  5
3
330
0
100
AcDbSymbolTable
 70
     3
  0
STYLE
  5
11
330
3
100
AcDbSymbolTableRecord
100
AcDbTextStyleTableRecord
  2
Standard
 70
     0
 40
0.0
 41
1.0
 50
0.0
 71
     0
 42
0.125
  3
txt
  4

  0
STYLE
  5
7A
330
3
100
AcDbSymbolTableRecord
100
AcDbTextStyleTableRecord
  2
SLDTEXTSTYLE0
 70
     0
 40
0.0
 41
0.75
 50
0.0
 71
     0
 42
0.125
  3
TXT
  4

  0
STYLE
  5
1BE
330
3
100
AcDbSymbolTableRecord
100
AcDbTextStyleTableRecord
  2
SLDTEXTSTYLE1
 70
     0
 40
0.0
 41
0.7
 50
0.0
 71
     0
 42
0.125
  3
TXT
  4

  0
ENDTAB
  0
TABLE
  2
VIEW
  5
6
330
0
100
AcDbSymbolTable
 70
     0
  0
ENDTAB
  0
TABLE
  2
UCS
  5
7
330
0
100
AcDbSymbolTable
 70
     0
  0
ENDTAB
  0
TABLE
  2
APPID
  5
9
330
0
100
AcDbSymbolTable
 70
     1
  0
APPID
  5
12
330
9
100
AcDbSymbolTableRecord
100
AcDbRegAppTableRecord
  2
ACAD
 70
     0
  0
ENDTAB
  0
TABLE
  2
DIMSTYLE
  5
A
330
0
100
AcDbSymbolTable
 70
     1
100
AcDbDimStyleTable
  0
DIMSTYLE
105
27
330
A
100
AcDbSymbolTableRecord
100
AcDbDimStyleTableRecord
  2
Standard
 70
     0
178
     0
340
11
  0
ENDTAB
  0
TABLE
  2
BLOCK_RECORD
  5
1
330
0
100
AcDbSymbolTable
 70
     1
  0
BLOCK_RECORD
  5
1F
330
1
100
AcDbSymbolTableRecord
100
AcDbBlockTableRecord
  2
*Model_Space
340
22
  0
BLOCK_RECORD
  5
1B
330
1
100
AcDbSymbolTableRecord
100
AcDbBlockTableRecord
  2
*Paper_Space
340
1E
  0
BLOCK_RECORD
  5
23
330
1
100
AcDbSymbolTableRecord
100
AcDbBlockTableRecord
  2
*Paper_Space0
340
26
  0
ENDTAB
  0
ENDSEC
  0
SECTION
  2
BLOCKS
  0
BLOCK
  5
20
330
1F
100
AcDbEntity
  8
0
100
AcDbBlockBegin
  2
*Model_Space
 70
     0
 10
0.0
 20
0.0
 30
0.0
  3
*Model_Space
  1

  0
ENDBLK
  5
21
330
1F
100
AcDbEntity
  8
0
100
AcDbBlockEnd
  0
BLOCK
  5
1C
330
1B
100
AcDbEntity
 67
     1
  8
0
100
AcDbBlockBegin
  2
*Paper_Space
 70
     0
 10
0.0
 20
0.0
 30
0.0
  3
*Paper_Space
  1

  0
ENDBLK
  5
1D
330
1B
100
AcDbEntity
 67
     1
  8
0
100
AcDbBlockEnd
  0
BLOCK
  5
24
330
23
100
AcDbEntity
  8
0
100
AcDbBlockBegin
  2
*Paper_Space0
 70
     0
 10
0.0
 20
0.0
 30
0.0
  3
*Paper_Space0
  1

  0
ENDBLK
  5
25
330
23
100
AcDbEntity
  8
0
100
AcDbBlockEnd
  0
ENDSEC
  0
SECTION
  2
ENTITIES
  0
LINE
  5
65
330
1F
100
AcDbEntity
  8
0
  6
CENTERX2
 62
     7
370
    18
100
AcDbLine
 10
0.25
 20
0.25
 30
0.0
 11
0.25
 21
11.75
 31
0.0
  0
LINE
  5
66
330
1F
100
AcDbEntity
  8
0
  6
CENTERX2
 62
     7
370
    18
100
AcDbLine
 10
0.25
 20
0.25
 30
0.0
 11
23.75
 21
0.25
 31
0.0
  0
LINE
  5
67
330
1F
100
AcDbEntity
  8
0
  6
CENTERX2
 62
     7
370
    18
100
AcDbLine
 10
23.75
 20
0.25
 30
0.0
 11
23.75
 21
11.75
 31
0.0
  0
LINE
  5
68
330
1F
100
AcDbEntity
  8
0
  6
CENTERX2
 62
     7
370
    18
100
AcDbLine
 10
23.75
 20
11.75
 30
0.0
 11
0.25
 21
11.75
 31
0.0
  0
LINE
  5
69
330
1F
100
AcDbEntity
  8
0
  6
Continuous
 62
     7
370
    25
100
AcDbLine
 10
6.0159742889
 20
9.7409275358
 30
0.0
 11
6.003282012
 21
9.9909275358
 31
0.0
  0
LINE
  5
6A
330
1F
100
AcDbEntity
  8
0
  6
Continuous
 62
     7
370
    25
100
AcDbLine
 10
6.003282012
 20
9.9909275358
 30
0.0
 11
5.7536035783
 21
9.9782515846
 31
0.0
  0
LINE
  5
6B
330
1F
100
AcDbEntity
  8
0
  6
Continuous
 62
     7
370
    25
100
AcDbLine
 10
5.7536035783
 20
9.9782515846
 30
0.0
 11
5.7662958551
 21
9.7282515846
 31
0.0
  0
LINE
  5
6C
330
1F
100
AcDbEntity
  8
0
  6
Continuous
 62
     7
370
    25
100
AcDbLine
 10
0.7662958551
 20
10.1859717517
 30
0.0
 11
0.4409077263
 21
10.1859717517
 31
0.0
  0
LINE
  5
6D
330
1F
100
AcDbEntity
  8
0
  6
Continuous
 62
     7
370
    25
100
AcDbLine
 10
0.7662958551
 20
10.6859717517
 30
0.0
 11
0.7662958551
 21
10.1859717517
 31
0.0
  0
LINE
  5
6E
330
1F
100
AcDbEntity
  8
0
  6
Continuous
 62
     7
370
    25
100
AcDbLine
 10
0.7662958551
 20
10.6859717517
 30
0.0
 11
0.4409077263
 21
10.6859717517
 31
0.0
  0
SPLINE
  5
6F
330
1F
100
AcDbEntity
  8
0
  6
Continuous
 62
     7
370
    25
100
AcDbSpline
210
0.0
220
0.0
230
1.0
 70
     8
 71
     3
 72
    23
 73
    19
 74
     0
 42
0.00000001
 43
0.00000001
 40
0.2765718525091989
 40
0.2765718525091989
 40
0.2765718525091989
 40
0.2765718525091989
 40
0.2846449661104438
 40
0.3035201182686616
 40
0.3220345753743312
 40
0.3400783529141181
 40
0.3575425932417018
 40
0.3743254819208344
 40
0.3903298908718879
 40
0.4054638897390948
 40
0.4196438014456847
 40
0.4327933713913401
 40
0.444843816743186
 40
0.4557379207047339
 40
0.4654286532330845
 40
0.4738863200854159
 40
0.4811016340775686
 40
0.4870436823973892
 40
0.4870436823973892
 40
0.4870436823973892
 40
0.4870436823973892
 10
5.766295855147535
 20
11.14369191881367
 30
0.0
 10
5.69742861270275
 20
11.14700856865744
 30
0.0
 10
5.467523601207188
 20
11.15757377939697
 30
0.0
 10
5.079533041214129
 20
11.17239698820344
 30
0.0
 10
4.606260784278981
 20
11.18465421340735
 30
0.0
 10
4.14490871883983
 20
11.19014489955843
 30
0.0
 10
3.698311662455381
 20
11.18843330348179
 30
0.0
 10
3.269223002421124
 20
11.17918881655753
 30
0.0
 10
2.860283975310598
 20
11.16217710114825
 30
0.0
 10
2.47401167921236
 20
11.13735365725836
 30
0.0
 10
2.112780157723837
 20
11.1047931769905
 30
0.0
 10
1.77879989060996
 20
11.06474995909047
 30
0.0
 10
1.47410659462385
 20
11.01756471207901
 30
0.0
 10
1.200546637435941
 20
10.96373024553266
 30
0.0
 10
0.9597233915977529
 20
10.9038552801369
 30
0.0
 10
0.7530053192699926
 20
10.83852367146999
 30
0.0
 10
0.5819018249994474
 20
10.76853170997665
 30
0.0
 10
0.483058388014699
 20
10.71435527921751
 30
0.0
 10
0.4409077262745891
 20
10.68597175176527
 30
0.0
  0
LINE
  5
70
330
1F
100
AcDbEntity
  8
0
  6
Continuous
 62
     7
370
    25
100
AcDbLine
 10
5.7662958551
 20
11.1436919188
 30
0.0
 11
5.7536035783
 21
10.8936919188
 31
0.0
  0
LINE
  5
71
330
1F
100
AcDbEntity
  8
0
  6
Continuous
 62
     7
370
    25
100
AcDbLine
 10
5.7536035783
 20
10.8936919188
 30
0.0
 11
6.003282012
 21
10.8810159676
 31
0.0
  0
LINE
  5
72
330
1F
100
AcDbEntity
  8
0
  6
Continuous
 62
     7
370
    25
100
AcDbLine
 10
6.003282012
 20
10.8810159676
 30
0.0
 11
6.0159742889
 21
11.1310159676
 31
0.0
  0
SPLINE
  5
73
330
1F
100
AcDbEntity
  8
0
  6
Continuous
 62
     7
370
    25
100
AcDbSpline
210
0.0
220
0.0
230
1.0
 70
     8
 71
     3
 72
    12
 73
     8
 74
     0
 42
0.00000001
 43
0.00000001
 40
0.2035291191591187
 40
0.2035291191591187
 40
0.2035291191591187
 40
0.2035291191591187
 40
0.2078654354456393
 40
0.2270160780225014
 40
0.2462756959800007
 40
0.2655249432498956
 40
0.2668142186143249
 40
0.2668142186143249
 40
0.2668142186143249
 40
0.2668142186143249
 10
7.633672983115169
 20
11.02185869553097
 30
0.0
 10
7.596757288708067
 20
11.02480998496269
 30
0.0
 10
7.396797292042822
 20
11.0406441637908
 30
0.0
 10
7.03274820745651
 20
11.06794605144158
 30
0.0
 10
6.54142857229172
 20
11.10106126387525
 30
0.0
 10
6.202123334616708
 20
11.12103241538274
 30
0.0
 10
6.026969505161103
 20
11.13042968361692
 30
0.0
 10
6.01597428885919
 20
11.13101596759618
 30
0.0
  0
ARC
  5
74
330
1F
100
AcDbEntity
  8
0
  6
Continuous
 62
     7
370
    25
100
AcDbCircle
 10
8.0515096748
 20
10.5912631788
 30
0.0
 40
0.6000000000000006
100
AcDbArc
 50
134.1384441568
 51
195.0
  0
ARC
  5
75
330
1F
100
AcDbEntity
  8
0
  6
Continuous
 62
     7
370
    25
100
AcDbCircle
 10
8.0515096748
 20
10.2806803247
 30
0.0
 40
0.5999999999999998
100
AcDbArc
 50
165.0
 51
225.8615558432
  0
CIRCLE
  5
76
330
1F
100
AcDbEntity
  8
0
  6
Continuous
 62
     7
370
    25
100
AcDbCircle
 10
5.2662958551
 20
10.4359717517
 30
0.0
 40
0.25
  0
CIRCLE
  5
77
330
1F
100
AcDbEntity
  8
0
  6
Continuous
 62
     7
370
    25
100
AcDbCircle
 10
6.7662958551
 20
10.4359717517
 30
0.0
 40
0.375
  0
SPLINE
  5
78
330
1F
100
AcDbEntity
  8
0
  6
Continuous
 62
     7
370
    25
100
AcDbSpline
210
0.0
220
0.0
230
1.0
 70
     8
 71
     3
 72
    23
 73
    19
 74
     0
 42
0.00000001
 43
0.00000001
 40
0.5117219338011876
 40
0.5117219338011876
 40
0.5117219338011876
 40
0.5117219338011876
 40
0.5176639821210082
 40
0.5248792961131608
 40
0.5333369629654922
 40
0.5430276954938428
 40
0.5539217994553907
 40
0.5659722448072366
 40
0.5791218147528919
 40
0.5933017264594819
 40
0.6084357253266888
 40
0.6244401342777423
 40
0.6412230229568748
 40
0.6586872632844586
 40
0.6767310408242455
 40
0.6952454979299151
 40
0.714120650088133
 40
0.7221937636893794
 40
0.7221937636893794
 40
0.7221937636893794
 40
0.7221937636893794
 10
0.4409077262745902
 20
10.18597175167328
 30
0.0
 10
0.483058388014699
 20
10.15758822422103
 30
0.0
 10
0.5819018249994474
 20
10.10341179346189
 30
0.0
 10
0.7530053192699937
 20
10.03341983196855
 30
0.0
 10
0.9597233915977529
 20
9.968088223301638
 30
0.0
 10
1.200546637435941
 20
9.908213257905881
 30
0.0
 10
1.474106594623851
 20
9.854378791359533
 30
0.0
 10
1.778799890609958
 20
9.807193544348069
 30
0.0
 10
2.112780157723837
 20
9.767150326448041
 30
0.0
 10
2.474011679212362
 20
9.73458984618018
 30
0.0
 10
2.860283975310598
 20
9.70976640229029
 30
0.0
 10
3.269223002421123
 20
9.692754686881019
 30
0.0
 10
3.698311662455382
 20
9.683510199956755
 30
0.0
 10
4.144908718839828
 20
9.681798603880107
 30
0.0
 10
4.606260784278982
 20
9.687289290031195
 30
0.0
 10
5.07953304121413
 20
9.699546515235099
 30
0.0
 10
5.467523601207199
 20
9.714369724041575
 30
0.0
 10
5.697428612702772
 20
9.724934934781105
 30
0.0
 10
5.76629585514757
 20
9.728251584624875
 30
0.0
  0
SPLINE
  5
79
330
1F
100
AcDbEntity
  8
0
  6
Continuous
 62
     7
370
    25
100
AcDbSpline
210
0.0
220
0.0
230
1.0
 70
     8
 71
     3
 72
    12
 73
     8
 74
     0
 42
0.00000001
 43
0.00000001
 40
0.7319513975842445
 40
0.7319513975842445
 40
0.7319513975842445
 40
0.7319513975842445
 40
0.7332406729486812
 40
0.7524899202185761
 40
0.7717495381760754
 40
0.7909001807529373
 40
0.7952364970394581
 40
0.7952364970394581
 40
0.7952364970394581
 40
0.7952364970394581
 10
6.015974288859001
 20
9.740927535842351
 30
0.0
 10
6.026969505160976
 20
9.741513819821611
 30
0.0
 10
6.202123334616645
 20
9.750911088055794
 30
0.0
 10
6.541428572291722
 20
9.77088223956329
 30
0.0
 10
7.032748207456511
 20
9.803997451996958
 30
0.0
 10
7.396797292042822
 20
9.831299339647744
 30
0.0
 10
7.596757288708068
 20
9.847133518475855
 30
0.0
 10
7.63367298311517
 20
9.850084807907571
 30
0.0
  0
MTEXT
  5
7B
330
1F
100
AcDbEntity
  8
PART_NAMES
100
AcDbMText
 10
4.1049595751
 20
10.0155457073
 30
0.0
 40
0.1666666667
 41
0.0
 71
     1
 72
     1
  1
HR1.4<1>
  7
SLDTEXTSTYLE0
 73
     1
 44
1.0
  0
ARC
  5
7C
330
1F
100
AcDbEntity
  8
0
  6
Continuous
 62
     7
370
    25
100
AcDbCircle
 10
1.0494791855
 20
8.8996295168
 30
0.0
 40
0.6000000000000005
100
AcDbArc
 50
185.0348531868
 51
274.9379784937
  0
ARC
  5
7D
330
1F
100
AcDbEntity
  8
0
  6
Continuous
 62
     7
370
    25
100
AcDbCircle
 10
1.0494791855
 20
8.7943154592
 30
0.0
 40
0.6000000000000005
100
AcDbArc
 50
85.0620215063
 51
174.9651468132
  0
LINE
  5
7E
330
1F
100
AcDbEntity
  8
0
  6
Continuous
 62
     7
370
    25
100
AcDbLine
 10
5.5552566221
 20
8.8954221291
 30
0.0
 11
4.7984235679
 21
8.7988202408
 31
0.0
  0
LINE
  5
7F
330
1F
100
AcDbEntity
  8
0
  6
Continuous
 62
     7
370
    25
100
AcDbLine
 10
4.7984235679
 20
8.7988202408
 30
0.0
 11
4.8110848096
 21
8.6996250143
 31
0.0
  0
LINE
  5
80
330
1F
100
AcDbEntity
  8
0
  6
Continuous
 62
     7
370
    25
100
AcDbLine
 10
2.9568547558
 20
8.784472488
 30
0.0
 11
2.9568547558
 21
8.909472488
 31
0.0
  0
LINE
  5
81
330
1F
100
AcDbEntity
  8
0
  6
Continuous
 62
     7
370
    25
100
AcDbLine
 10
2.9568547558
 20
8.909472488
 30
0.0
 11
0.9568547558
 21
8.909472488
 31
0.0
  0
LINE
  5
82
330
1F
100
AcDbEntity
  8
0
  6
Continuous
 62
     7
370
    25
100
AcDbLine
 10
0.9568547558
 20
8.909472488
 30
0.0
 11
0.9568547558
 21
8.784472488
 31
0.0
  0
LINE
  5
83
330
1F
100
AcDbEntity
  8
0
  6
Continuous
 62
     7
370
    25
100
AcDbLine
 10
0.9568547558
 20
8.784472488
 30
0.0
 11
2.9568547558
 21
8.784472488
 31
0.0
  0
SPLINE
  5
84
330
1F
100
AcDbEntity
  8
0
  6
Continuous
 62
     7
370
    25
100
AcDbSpline
210
0.0
220
0.0
230
1.0
 70
     8
 71
     3
 72
    21
 73
    17
 74
     0
 42
0.00000001
 43
0.00000001
 40
0.0093907486233847
 40
0.0093907486233847
 40
0.0093907486233847
 40
0.0093907486233847
 40
0.0121011758037585
 40
0.0188175356586858
 40
0.026939454793122
 40
0.0364148482585568
 40
0.0471846285955964
 40
0.0591804130998147
 40
0.0723278736139124
 40
0.0865440610891483
 40
0.1017405803365527
 40
0.1178233364335744
 40
0.134691452208322
 40
0.1522401544471546
 40
0.1703612899646366
 40
0.1843408189773168
 40
0.1843408189773168
 40
0.1843408189773168
 40
0.1843408189773168
 10
5.555256622106532
 20
8.895422129413983
 30
0.0
 10
5.532362840071907
 20
8.89863076913251
 30
0.0
 10
5.453044770866798
 20
8.910274580036722
 30
0.0
 10
5.304174501118129
 20
8.929767752328402
 30
0.0
 10
5.098472156052293
 20
8.957294819652482
 30
0.0
 10
4.858177363105001
 20
8.988411554190591
 30
0.0
 10
4.585030204280033
 20
9.0230560037352
 30
0.0
 10
4.280627062635189
 20
9.060621254765538
 30
0.0
 10
3.946872177047839
 20
9.100598915582523
 30
0.0
 10
3.585817026307725
 20
9.142493146513003
 30
0.0
 10
3.199685001700106
 20
9.1857335680916
 30
0.0
 10
2.790858087200967
 20
9.22979224977355
 30
0.0
 10
2.361859727935983
 20
9.274121977088534
 30
0.0
 10
1.915333797777497
 20
9.31815056221088
 30
0.0
 10
1.493151200997024
 20
9.357604435595576
 30
0.0
 10
1.2200719097294
 20
9.38181180964712
 30
0.0
 10
1.101125584400664
 20
9.39208853441905
 30
0.0
  0
SPLINE
  5
85
330
1F
100
AcDbEntity
  8
0
  6
Continuous
 62
     7
370
    25
100
AcDbSpline
210
0.0
220
0.0
230
1.0
 70
     8
 71
     3
 72
    17
 73
    13
 74
     0
 42
0.00000001
 43
0.00000001
 40
0.8144247972212597
 40
0.8144247972212597
 40
0.8144247972212597
 40
0.8144247972212597
 40
0.82840432623394
 40
0.8465254617514221
 40
0.8640741639902545
 40
0.8809422797650022
 40
0.8970250358620238
 40
0.9122215551094282
 40
0.926437742584664
 40
0.9395852030987617
 40
0.95158098760298
 40
0.9600665823462549
 40
0.9600665823462549
 40
0.9600665823462549
 40
0.9600665823462549
 10
1.101125584400664
 20
8.301856441555927
 30
0.0
 10
1.220071909729401
 20
8.312133166327857
 30
0.0
 10
1.49315120099702
 20
8.3363405403794
 30
0.0
 10
1.915333797777494
 20
8.375794413764098
 30
0.0
 10
2.361859727935987
 20
8.419822998886444
 30
0.0
 10
2.790858087200967
 20
8.464152726201428
 30
0.0
 10
3.199685001700103
 20
8.508211407883376
 30
0.0
 10
3.585817026307729
 20
8.551451829461973
 30
0.0
 10
3.946872177047835
 20
8.593346060392454
 30
0.0
 10
4.280627062635194
 20
8.63332372120944
 30
0.0
 10
4.565669171229714
 20
8.66849969970201
 30
0.0
 10
4.739196890395609
 20
8.690449267172864
 30
0.0
 10
4.811084809573908
 20
8.699625014316936
 30
0.0
  0
MTEXT
  5
86
330
1F
100
AcDbEntity
  8
PART_NAMES
100
AcDbMText
 10
3.1454436596
 20
8.9211911016
 30
0.0
 40
0.1666666667
 41
0.0
 71
     1
 72
     1
  1
HRCS<1>
  7
SLDTEXTSTYLE0
 73
     1
 44
1.0
  0
LINE
  5
87
330
1F
100
AcDbEntity
  8
0
  6
Continuous
 62
     7
370
    25
100
AcDbLine
 10
13.9281062433
 20
9.724352872
 30
0.0
 11
13.9154139664
 21
9.974352872
 31
0.0
  0
LINE
  5
88
330
1F
100
AcDbEntity
  8
0
  6
Continuous
 62
     7
370
    25
100
AcDbLine
 10
13.9154139664
 20
9.974352872
 30
0.0
 11
13.6657355327
 21
9.9616769208
 31
0.0
  0
LINE
  5
89
330
1F
100
AcDbEntity
  8
0
  6
Continuous
 62
     7
370
    25
100
AcDbLine
 10
13.6657355327
 20
9.9616769208
 30
0.0
 11
13.6784278096
 21
9.7116769208
 31
0.0
  0
LINE
  5
8A
330
1F
100
AcDbEntity
  8
0
  6
Continuous
 62
     7
370
    25
100
AcDbLine
 10
8.6784278096
 20
10.1693970879
 30
0.0
 11
8.3530396807
 21
10.1693970879
 31
0.0
  0
LINE
  5
8B
330
1F
100
AcDbEntity
  8
0
  6
Continuous
 62
     7
370
    25
100
AcDbLine
 10
8.6784278096
 20
10.6693970879
 30
0.0
 11
8.6784278096
 21
10.1693970879
 31
0.0
  0
LINE
  5
8C
330
1F
100
AcDbEntity
  8
0
  6
Continuous
 62
     7
370
    25
100
AcDbLine
 10
8.6784278096
 20
10.6693970879
 30
0.0
 11
8.3530396807
 21
10.6693970879
 31
0.0
  0
SPLINE
  5
8D
330
1F
100
AcDbEntity
  8
0
  6
Continuous
 62
     7
370
    25
100
AcDbSpline
210
0.0
220
0.0
230
1.0
 70
     8
 71
     3
 72
    23
 73
    19
 74
     0
 42
0.00000001
 43
0.00000001
 40
0.2765718525091989
 40
0.2765718525091989
 40
0.2765718525091989
 40
0.2765718525091989
 40
0.2846449661104438
 40
0.3035201182686616
 40
0.3220345753743312
 40
0.3400783529141181
 40
0.3575425932417018
 40
0.3743254819208344
 40
0.3903298908718879
 40
0.4054638897390948
 40
0.4196438014456847
 40
0.4327933713913401
 40
0.444843816743186
 40
0.4557379207047339
 40
0.4654286532330845
 40
0.4738863200854159
 40
0.4811016340775686
 40
0.4870436823973892
 40
0.4870436823973892
 40
0.4870436823973892
 40
0.4870436823973892
 10
13.67842780955633
 20
11.12711725494622
 30
0.0
 10
13.60956056711155
 20
11.13043390478999
 30
0.0
 10
13.37965555561599
 20
11.14099911552952
 30
0.0
 10
12.99166499562293
 20
11.155822324336
 30
0.0
 10
12.51839273868778
 20
11.1680795495399
 30
0.0
 10
12.05704067324863
 20
11.17357023569098
 30
0.0
 10
11.61044361686418
 20
11.17185863961434
 30
0.0
 10
11.18135495682992
 20
11.16261415269008
 30
0.0
 10
10.7724159297194
 20
11.1456024372808
 30
0.0
 10
10.38614363362116
 20
11.12077899339091
 30
0.0
 10
10.02491211213264
 20
11.08821851312305
 30
0.0
 10
9.69093184501876
 20
11.04817529522303
 30
0.0
 10
9.38623854903265
 20
11.00099004821156
 30
0.0
 10
9.11267859184474
 20
10.94715558166521
 30
0.0
 10
8.871855346006551
 20
10.88728061626945
 30
0.0
 10
8.665137273678791
 20
10.82194900760254
 30
0.0
 10
8.494033779408246
 20
10.7519570461092
 30
0.0
 10
8.395190342423499
 20
10.69778061535006
 30
0.0
 10
8.353039680683388
 20
10.66939708789782
 30
0.0
  0
LINE
  5
8E
330
1F
100
AcDbEntity
  8
0
  6
Continuous
 62
     7
370
    25
100
AcDbLine
 10
13.6784278096
 20
11.1271172549
 30
0.0
 11
13.6657355327
 21
10.8771172549
 31
0.0
  0
LINE
  5
8F
330
1F
100
AcDbEntity
  8
0
  6
Continuous
 62
     7
370
    25
100
AcDbLine
 10
13.6657355327
 20
10.8771172549
 30
0.0
 11
13.9154139664
 21
10.8644413037
 31
0.0
  0
LINE
  5
90
330
1F
100
AcDbEntity
  8
0
  6
Continuous
 62
     7
370
    25
100
AcDbLine
 10
13.9154139664
 20
10.8644413037
 30
0.0
 11
13.9281062433
 21
11.1144413037
 31
0.0
  0
SPLINE
  5
91
330
1F
100
AcDbEntity
  8
0
  6
Continuous
 62
     7
370
    25
100
AcDbSpline
210
0.0
220
0.0
230
1.0
 70
     8
 71
     3
 72
    12
 73
     8
 74
     0
 42
0.00000001
 43
0.00000001
 40
0.2035291191591187
 40
0.2035291191591187
 40
0.2035291191591187
 40
0.2035291191591187
 40
0.2078654354456393
 40
0.2270160780225014
 40
0.2462756959800007
 40
0.2655249432498956
 40
0.2668142186143249
 40
0.2668142186143249
 40
0.2668142186143249
 40
0.2668142186143249
 10
15.54580493752397
 20
11.00528403166352
 30
0.0
 10
15.50888924311687
 20
11.00823532109524
 30
0.0
 10
15.30892924645162
 20
11.02406949992335
 30
0.0
 10
14.94488016186531
 20
11.05137138757413
 30
0.0
 10
14.45356052670052
 20
11.0844866000078
 30
0.0
 10
14.11425528902551
 20
11.1044577515153
 30
0.0
 10
13.9391014595699
 20
11.11385501974948
 30
0.0
 10
13.92810624326799
 20
11.11444130372873
 30
0.0
  0
ARC
  5
92
330
1F
100
AcDbEntity
  8
0
  6
Continuous
 62
     7
370
    25
100
AcDbCircle
 10
15.9636416293
 20
10.5746885149
 30
0.0
 40
0.600000000000002
100
AcDbArc
 50
134.1384441568
 51
195.0
  0
ARC
  5
93
330
1F
100
AcDbEntity
  8
0
  6
Continuous
 62
     7
370
    25
100
AcDbCircle
 10
15.9636416293
 20
10.2641056608
 30
0.0
 40
0.6000000000000003
100
AcDbArc
 50
165.0
 51
225.8615558432
  0
CIRCLE
  5
94
330
1F
100
AcDbEntity
  8
0
  6
Continuous
 62
     7
370
    25
100
AcDbCircle
 10
13.1784278096
 20
10.4193970879
 30
0.0
 40
0.25
  0
CIRCLE
  5
95
330
1F
100
AcDbEntity
  8
0
  6
Continuous
 62
     7
370
    25
100
AcDbCircle
 10
14.6784278096
 20
10.4193970879
 30
0.0
 40
0.375
  0
SPLINE
  5
96
330
1F
100
AcDbEntity
  8
0
  6
Continuous
 62
     7
370
    25
100
AcDbSpline
210
0.0
220
0.0
230
1.0
 70
     8
 71
     3
 72
    23
 73
    19
 74
     0
 42
0.00000001
 43
0.00000001
 40
0.5117219338011876
 40
0.5117219338011876
 40
0.5117219338011876
 40
0.5117219338011876
 40
0.5176639821210082
 40
0.5248792961131608
 40
0.5333369629654922
 40
0.5430276954938428
 40
0.5539217994553907
 40
0.5659722448072366
 40
0.5791218147528919
 40
0.5933017264594819
 40
0.6084357253266888
 40
0.6244401342777423
 40
0.6412230229568748
 40
0.6586872632844586
 40
0.6767310408242455
 40
0.6952454979299151
 40
0.714120650088133
 40
0.7221937636893794
 40
0.7221937636893794
 40
0.7221937636893794
 40
0.7221937636893794
 10
8.35303968068339
 20
10.16939708780582
 30
0.0
 10
8.395190342423499
 20
10.14101356035358
 30
0.0
 10
8.494033779408246
 20
10.08683712959444
 30
0.0
 10
8.665137273678793
 20
10.0168451681011
 30
0.0
 10
8.871855346006551
 20
9.95151355943419
 30
0.0
 10
9.11267859184474
 20
9.891638594038431
 30
0.0
 10
9.38623854903265
 20
9.837804127492083
 30
0.0
 10
9.690931845018758
 20
9.79061888048062
 30
0.0
 10
10.02491211213264
 20
9.75057566258059
 30
0.0
 10
10.38614363362116
 20
9.718015182312731
 30
0.0
 10
10.7724159297194
 20
9.693191738422842
 30
0.0
 10
11.18135495682992
 20
9.676180023013568
 30
0.0
 10
11.61044361686418
 20
9.666935536089305
 30
0.0
 10
12.05704067324863
 20
9.665223940012659
 30
0.0
 10
12.51839273868778
 20
9.670714626163747
 30
0.0
 10
12.99166499562293
 20
9.682971851367649
 30
0.0
 10
13.379655555616
 20
9.697795060174125
 30
0.0
 10
13.60956056711157
 20
9.708360270913657
 30
0.0
 10
13.67842780955637
 20
9.711676920757427
 30
0.0
  0
SPLINE
  5
97
330
1F
100
AcDbEntity
  8
0
  6
Continuous
 62
     7
370
    25
100
AcDbSpline
210
0.0
220
0.0
230
1.0
 70
     8
 71
     3
 72
    12
 73
     8
 74
     0
 42
0.00000001
 43
0.00000001
 40
0.7319513975842445
 40
0.7319513975842445
 40
0.7319513975842445
 40
0.7319513975842445
 40
0.7332406729486812
 40
0.7524899202185761
 40
0.7717495381760754
 40
0.7909001807529373
 40
0.7952364970394581
 40
0.7952364970394581
 40
0.7952364970394581
 40
0.7952364970394581
 10
13.9281062432678
 20
9.724352871974903
 30
0.0
 10
13.93910145956978
 20
9.72493915595416
 30
0.0
 10
14.11425528902544
 20
9.734336424188346
 30
0.0
 10
14.45356052670052
 20
9.754307575695842
 30
0.0
 10
14.94488016186531
 20
9.787422788129508
 30
0.0
 10
15.30892924645162
 20
9.814724675780294
 30
0.0
 10
15.50888924311687
 20
9.830558854608407
 30
0.0
 10
15.54580493752397
 20
9.83351014404012
 30
0.0
  0
MTEXT
  5
98
330
1F
100
AcDbEntity
  8
PART_NAMES
100
AcDbMText
 10
11.8177340438
 20
10.0175315223
 30
0.0
 40
0.1666666667
 41
0.0
 71
     1
 72
     1
  1
HR1.4<2>
  7
SLDTEXTSTYLE0
 73
     1
 44
1.0
  0
ARC
  5
99
330
1F
100
AcDbEntity
  8
0
  6
Continuous
 62
     7
370
    25
100
AcDbCircle
 10
9.4406332619
 20
8.9715056511
 30
0.0
 40
0.6000000000000011
100
AcDbArc
 50
185.0348531868
 51
274.9379784937
  0
ARC
  5
9A
330
1F
100
AcDbEntity
  8
0
  6
Continuous
 62
     7
370
    25
100
AcDbCircle
 10
9.4406332619
 20
8.8661915935
 30
0.0
 40
0.6000000000000005
100
AcDbArc
 50
85.0620215063
 51
174.9651468132
  0
LINE
  5
9B
330
1F
100
AcDbEntity
  8
0
  6
Continuous
 62
     7
370
    25
100
AcDbLine
 10
13.9464106985
 20
8.9672982634
 30
0.0
 11
13.1895776444
 21
8.8706963752
 31
0.0
  0
LINE
  5
9C
330
1F
100
AcDbEntity
  8
0
  6
Continuous
 62
     7
370
    25
100
AcDbLine
 10
13.1895776444
 20
8.8706963752
 30
0.0
 11
13.202238886
 21
8.7715011487
 31
0.0
  0
LINE
  5
9D
330
1F
100
AcDbEntity
  8
0
  6
Continuous
 62
     7
370
    25
100
AcDbLine
 10
11.3480088322
 20
8.8563486223
 30
0.0
 11
11.3480088322
 21
8.9813486223
 31
0.0
  0
LINE
  5
9E
330
1F
100
AcDbEntity
  8
0
  6
Continuous
 62
     7
370
    25
100
AcDbLine
 10
11.3480088322
 20
8.9813486223
 30
0.0
 11
9.3480088322
 21
8.9813486223
 31
0.0
  0
LINE
  5
9F
330
1F
100
AcDbEntity
  8
0
  6
Continuous
 62
     7
370
    25
100
AcDbLine
 10
9.3480088322
 20
8.9813486223
 30
0.0
 11
9.3480088322
 21
8.8563486223
 31
0.0
  0
LINE
  5
A0
330
1F
100
AcDbEntity
  8
0
  6
Continuous
 62
     7
370
    25
100
AcDbLine
 10
9.3480088322
 20
8.8563486223
 30
0.0
 11
11.3480088322
 21
8.8563486223
 31
0.0
  0
SPLINE
  5
A1
330
1F
100
AcDbEntity
  8
0
  6
Continuous
 62
     7
370
    25
100
AcDbSpline
210
0.0
220
0.0
230
1.0
 70
     8
 71
     3
 72
    21
 73
    17
 74
     0
 42
0.00000001
 43
0.00000001
 40
0.0093907486233847
 40
0.0093907486233847
 40
0.0093907486233847
 40
0.0093907486233847
 40
0.0121011758037585
 40
0.0188175356586858
 40
0.026939454793122
 40
0.0364148482585568
 40
0.0471846285955964
 40
0.0591804130998147
 40
0.0723278736139124
 40
0.0865440610891483
 40
0.1017405803365527
 40
0.1178233364335744
 40
0.134691452208322
 40
0.1522401544471546
 40
0.1703612899646366
 40
0.1843408189773168
 40
0.1843408189773168
 40
0.1843408189773168
 40
0.1843408189773168
 10
13.94641069853455
 20
8.967298263756671
 30
0.0
 10
13.92351691649993
 20
8.970506903475199
 30
0.0
 10
13.84419884729482
 20
8.982150714379411
 30
0.0
 10
13.69532857754615
 20
9.00164388667109
 30
0.0
 10
13.48962623248031
 20
9.029170953995171
 30
0.0
 10
13.24933143953302
 20
9.06028768853328
 30
0.0
 10
12.97618428070805
 20
9.094932138077889
 30
0.0
 10
12.67178113906321
 20
9.132497389108227
 30
0.0
 10
12.33802625347586
 20
9.172475049925213
 30
0.0
 10
11.97697110273575
 20
9.214369280855692
 30
0.0
 10
11.59083907812813
 20
9.257609702434289
 30
0.0
 10
11.18201216362899
 20
9.301668384116237
 30
0.0
 10
10.753013804364
 20
9.345998111431221
 30
0.0
 10
10.30648787420552
 20
9.390026696553567
 30
0.0
 10
9.884305277425044
 20
9.429480569938265
 30
0.0
 10
9.611225986157422
 20
9.453687943989808
 30
0.0
 10
9.492279660828684
 20
9.463964668761738
 30
0.0
  0
SPLINE
  5
A2
330
1F
100
AcDbEntity
  8
0
  6
Continuous
 62
     7
370
    25
100
AcDbSpline
210
0.0
220
0.0
230
1.0
 70
     8
 71
     3
 72
    17
 73
    13
 74
     0
 42
0.00000001
 43
0.00000001
 40
0.8144247972212597
 40
0.8144247972212597
 40
0.8144247972212597
 40
0.8144247972212597
 40
0.82840432623394
 40
0.8465254617514221
 40
0.8640741639902545
 40
0.8809422797650022
 40
0.8970250358620238
 40
0.9122215551094282
 40
0.926437742584664
 40
0.9395852030987617
 40
0.95158098760298
 40
0.9600665823462549
 40
0.9600665823462549
 40
0.9600665823462549
 40
0.9600665823462549
 10
9.492279660828684
 20
8.373732575898615
 30
0.0
 10
9.611225986157423
 20
8.384009300670545
 30
0.0
 10
9.88430527742504
 20
8.40821667472209
 30
0.0
 10
10.30648787420552
 20
8.447670548106785
 30
0.0
 10
10.75301380436401
 20
8.491699133229131
 30
0.0
 10
11.18201216362899
 20
8.536028860544116
 30
0.0
 10
11.59083907812813
 20
8.580087542226066
 30
0.0
 10
11.97697110273575
 20
8.623327963804662
 30
0.0
 10
12.33802625347586
 20
8.665222194735142
 30
0.0
 10
12.67178113906322
 20
8.705199855552127
 30
0.0
 10
12.95682324765773
 20
8.7403758340447
 30
0.0
 10
13.13035096682363
 20
8.762325401515552
 30
0.0
 10
13.20223888600193
 20
8.771501148659624
 30
0.0
  0
MTEXT
  5
A3
330
1F
100
AcDbEntity
  8
PART_NAMES
100
AcDbMText
 10
11.5296327026
 20
8.9809603968
 30
0.0
 40
0.1666666667
 41
0.0
 71
     1
 72
     1
  1
HRCS<2>
  7
SLDTEXTSTYLE0
 73
     1
 44
1.0
  0
LINE
  5
A4
330
1F
100
AcDbEntity
  8
0
  6
Continuous
 62
     7
370
    25
100
AcDbLine
 10
21.7324208426
 20
9.7602613423
 30
0.0
 11
21.7197285658
 21
10.0102613423
 31
0.0
  0
LINE
  5
A5
330
1F
100
AcDbEntity
  8
0
  6
Continuous
 62
     7
370
    25
100
AcDbLine
 10
21.7197285658
 20
10.0102613423
 30
0.0
 11
21.470050132
 21
9.9975853911
 31
0.0
  0
LINE
  5
A6
330
1F
100
AcDbEntity
  8
0
  6
Continuous
 62
     7
370
    25
100
AcDbLine
 10
21.470050132
 20
9.9975853911
 30
0.0
 11
21.4827424089
 21
9.7475853911
 31
0.0
  0
LINE
  5
A7
330
1F
100
AcDbEntity
  8
0
  6
Continuous
 62
     7
370
    25
100
AcDbLine
 10
16.4827424089
 20
10.2053055582
 30
0.0
 11
16.1573542801
 21
10.2053055582
 31
0.0
  0
LINE
  5
A8
330
1F
100
AcDbEntity
  8
0
  6
Continuous
 62
     7
370
    25
100
AcDbLine
 10
16.4827424089
 20
10.7053055582
 30
0.0
 11
16.4827424089
 21
10.2053055582
 31
0.0
  0
LINE
  5
A9
330
1F
100
AcDbEntity
  8
0
  6
Continuous
 62
     7
370
    25
100
AcDbLine
 10
16.4827424089
 20
10.7053055582
 30
0.0
 11
16.1573542801
 21
10.7053055582
 31
0.0
  0
SPLINE
  5
AA
330
1F
100
AcDbEntity
  8
0
  6
Continuous
 62
     7
370
    25
100
AcDbSpline
210
0.0
220
0.0
230
1.0
 70
     8
 71
     3
 72
    23
 73
    19
 74
     0
 42
0.00000001
 43
0.00000001
 40
0.2765718525091989
 40
0.2765718525091989
 40
0.2765718525091989
 40
0.2765718525091989
 40
0.2846449661104438
 40
0.3035201182686616
 40
0.3220345753743312
 40
0.3400783529141181
 40
0.3575425932417018
 40
0.3743254819208344
 40
0.3903298908718879
 40
0.4054638897390948
 40
0.4196438014456847
 40
0.4327933713913401
 40
0.444843816743186
 40
0.4557379207047339
 40
0.4654286532330845
 40
0.4738863200854159
 40
0.4811016340775686
 40
0.4870436823973892
 40
0.4870436823973892
 40
0.4870436823973892
 40
0.4870436823973892
 10
21.48274240889225
 20
11.16302572528414
 30
0.0
 10
21.41387516644746
 20
11.16634237512791
 30
0.0
 10
21.1839701549519
 20
11.17690758586744
 30
0.0
 10
20.79597959495884
 20
11.19173079467392
 30
0.0
 10
20.32270733802369
 20
11.20398801987782
 30
0.0
 10
19.86135527258454
 20
11.20947870602891
 30
0.0
 10
19.4147582162001
 20
11.20776710995226
 30
0.0
 10
18.98566955616584
 20
11.198522623028
 30
0.0
 10
18.57673052905531
 20
11.18151090761873
 30
0.0
 10
18.19045823295707
 20
11.15668746372884
 30
0.0
 10
17.82922671146855
 20
11.12412698346098
 30
0.0
 10
17.49524644435467
 20
11.08408376556095
 30
0.0
 10
17.19055314836856
 20
11.03689851854948
 30
0.0
 10
16.91699319118066
 20
10.98306405200313
 30
0.0
 10
16.67616994534247
 20
10.92318908660738
 30
0.0
 10
16.46945187301471
 20
10.85785747794046
 30
0.0
 10
16.29834837874416
 20
10.78786551644713
 30
0.0
 10
16.19950494175941
 20
10.73368908568799
 30
0.0
 10
16.1573542800193
 20
10.70530555823574
 30
0.0
  0
LINE
  5
AB
330
1F
100
AcDbEntity
  8
0
  6
Continuous
 62
     7
370
    25
100
AcDbLine
 10
21.4827424089
 20
11.1630257253
 30
0.0
 11
21.470050132
 21
10.9130257253
 31
0.0
  0
LINE
  5
AC
330
1F
100
AcDbEntity
  8
0
  6
Continuous
 62
     7
370
    25
100
AcDbLine
 10
21.470050132
 20
10.9130257253
 30
0.0
 11
21.7197285658
 21
10.9003497741
 31
0.0
  0
LINE
  5
AD
330
1F
100
AcDbEntity
  8
0
  6
Continuous
 62
     7
370
    25
100
AcDbLine
 10
21.7197285658
 20
10.9003497741
 30
0.0
 11
21.7324208426
 21
11.1503497741
 31
0.0
  0
SPLINE
  5
AE
330
1F
100
AcDbEntity
  8
0
  6
Continuous
 62
     7
370
    25
100
AcDbSpline
210
0.0
220
0.0
230
1.0
 70
     8
 71
     3
 72
    12
 73
     8
 74
     0
 42
0.00000001
 43
0.00000001
 40
0.2035291191591187
 40
0.2035291191591187
 40
0.2035291191591187
 40
0.2035291191591187
 40
0.2078654354456393
 40
0.2270160780225014
 40
0.2462756959800007
 40
0.2655249432498956
 40
0.2668142186143249
 40
0.2668142186143249
 40
0.2668142186143249
 40
0.2668142186143249
 10
23.35011953685988
 20
11.04119250200145
 30
0.0
 10
23.31320384245278
 20
11.04414379143316
 30
0.0
 10
23.11324384578754
 20
11.05997797026127
 30
0.0
 10
22.74919476120122
 20
11.08727985791206
 30
0.0
 10
22.25787512603643
 20
11.12039507034572
 30
0.0
 10
21.91856988836143
 20
11.14036622185322
 30
0.0
 10
21.74341605890582
 20
11.1497634900874
 30
0.0
 10
21.7324208426039
 20
11.15034977406665
 30
0.0
  0
ARC
  5
AF
330
1F
100
AcDbEntity
  8
0
  6
Continuous
 62
     7
370
    25
100
AcDbCircle
 10
23.7679562286
 20
10.6105969853
 30
0.0
 40
0.600000000000002
100
AcDbArc
 50
134.1384441568
 51
195.0
  0
ARC
  5
B0
330
1F
100
AcDbEntity
  8
0
  6
Continuous
 62
     7
370
    25
100
AcDbCircle
 10
23.7679562286
 20
10.3000141311
 30
0.0
 40
0.6000000000000003
100
AcDbArc
 50
165.0
 51
225.8615558432
  0
CIRCLE
  5
B1
330
1F
100
AcDbEntity
  8
0
  6
Continuous
 62
     7
370
    25
100
AcDbCircle
 10
20.9827424089
 20
10.4553055582
 30
0.0
 40
0.25
  0
CIRCLE
  5
B2
330
1F
100
AcDbEntity
  8
0
  6
Continuous
 62
     7
370
    25
100
AcDbCircle
 10
22.4827424089
 20
10.4553055582
 30
0.0
 40
0.375
  0
LINE
  5
B3
330
1F
100
AcDbEntity
  8
0
  6
Continuous
 62
     7
370
    25
100
AcDbLine
 10
18.8202424089
 20
10.7053055582
 30
0.0
 11
18.8202424089
 21
10.2053055582
 31
0.0
  0
LINE
  5
B4
330
1F
100
AcDbEntity
  8
0
  6
Continuous
 62
     7
370
    25
100
AcDbLine
 10
18.8202424089
 20
10.2053055582
 30
0.0
 11
18.3827424089
 21
10.2053055582
 31
0.0
  0
LINE
  5
B5
330
1F
100
AcDbEntity
  8
0
  6
Continuous
 62
     7
370
    25
100
AcDbLine
 10
18.3827424089
 20
10.2053055582
 30
0.0
 11
18.3827424089
 21
10.0803055582
 31
0.0
  0
LINE
  5
B6
330
1F
100
AcDbEntity
  8
0
  6
Continuous
 62
     7
370
    25
100
AcDbLine
 10
18.3827424089
 20
10.0803055582
 30
0.0
 11
19.3827424089
 21
10.0803055582
 31
0.0
  0
LINE
  5
B7
330
1F
100
AcDbEntity
  8
0
  6
Continuous
 62
     7
370
    25
100
AcDbLine
 10
19.3827424089
 20
10.0803055582
 30
0.0
 11
19.3827424089
 21
10.2053055582
 31
0.0
  0
LINE
  5
B8
330
1F
100
AcDbEntity
  8
0
  6
Continuous
 62
     7
370
    25
100
AcDbLine
 10
19.3827424089
 20
10.2053055582
 30
0.0
 11
18.9452424089
 21
10.2053055582
 31
0.0
  0
LINE
  5
B9
330
1F
100
AcDbEntity
  8
0
  6
Continuous
 62
     7
370
    25
100
AcDbLine
 10
18.9452424089
 20
10.2053055582
 30
0.0
 11
18.9452424089
 21
10.7053055582
 31
0.0
  0
LINE
  5
BA
330
1F
100
AcDbEntity
  8
0
  6
Continuous
 62
     7
370
    25
100
AcDbLine
 10
18.9452424089
 20
10.7053055582
 30
0.0
 11
19.3827424089
 21
10.7053055582
 31
0.0
  0
LINE
  5
BB
330
1F
100
AcDbEntity
  8
0
  6
Continuous
 62
     7
370
    25
100
AcDbLine
 10
19.3827424089
 20
10.7053055582
 30
0.0
 11
19.3827424089
 21
10.8303055582
 31
0.0
  0
LINE
  5
BC
330
1F
100
AcDbEntity
  8
0
  6
Continuous
 62
     7
370
    25
100
AcDbLine
 10
19.3827424089
 20
10.8303055582
 30
0.0
 11
18.3827424089
 21
10.8303055582
 31
0.0
  0
LINE
  5
BD
330
1F
100
AcDbEntity
  8
0
  6
Continuous
 62
     7
370
    25
100
AcDbLine
 10
18.3827424089
 20
10.8303055582
 30
0.0
 11
18.3827424089
 21
10.7053055582
 31
0.0
  0
LINE
  5
BE
330
1F
100
AcDbEntity
  8
0
  6
Continuous
 62
     7
370
    25
100
AcDbLine
 10
18.3827424089
 20
10.7053055582
 30
0.0
 11
18.8202424089
 21
10.7053055582
 31
0.0
  0
SPLINE
  5
BF
330
1F
100
AcDbEntity
  8
0
  6
Continuous
 62
     7
370
    25
100
AcDbSpline
210
0.0
220
0.0
230
1.0
 70
     8
 71
     3
 72
    23
 73
    19
 74
     0
 42
0.00000001
 43
0.00000001
 40
0.5117219338011876
 40
0.5117219338011876
 40
0.5117219338011876
 40
0.5117219338011876
 40
0.5176639821210082
 40
0.5248792961131608
 40
0.5333369629654922
 40
0.5430276954938428
 40
0.5539217994553907
 40
0.5659722448072366
 40
0.5791218147528919
 40
0.5933017264594819
 40
0.6084357253266888
 40
0.6244401342777423
 40
0.6412230229568748
 40
0.6586872632844586
 40
0.6767310408242455
 40
0.6952454979299151
 40
0.714120650088133
 40
0.7221937636893794
 40
0.7221937636893794
 40
0.7221937636893794
 40
0.7221937636893794
 10
16.15735428001931
 20
10.20530555814375
 30
0.0
 10
16.19950494175941
 20
10.1769220306915
 30
0.0
 10
16.29834837874416
 20
10.12274559993236
 30
0.0
 10
16.46945187301471
 20
10.05275363843903
 30
0.0
 10
16.67616994534247
 20
9.987422029772114
 30
0.0
 10
16.91699319118066
 20
9.927547064376355
 30
0.0
 10
17.19055314836856
 20
9.873712597830007
 30
0.0
 10
17.49524644435467
 20
9.826527350818543
 30
0.0
 10
17.82922671146855
 20
9.786484132918515
 30
0.0
 10
18.19045823295708
 20
9.753923652650656
 30
0.0
 10
18.57673052905531
 20
9.729100208760766
 30
0.0
 10
18.98566955616584
 20
9.712088493351493
 30
0.0
 10
19.4147582162001
 20
9.70284400642723
 30
0.0
 10
19.86135527258454
 20
9.701132410350581
 30
0.0
 10
20.3227073380237
 20
9.706623096501671
 30
0.0
 10
20.79597959495884
 20
9.718880321705573
 30
0.0
 10
21.18397015495191
 20
9.733703530512049
 30
0.0
 10
21.41387516644749
 20
9.744268741251581
 30
0.0
 10
21.48274240889229
 20
9.74758539109535
 30
0.0
  0
SPLINE
  5
C0
330
1F
100
AcDbEntity
  8
0
  6
Continuous
 62
     7
370
    25
100
AcDbSpline
210
0.0
220
0.0
230
1.0
 70
     8
 71
     3
 72
    12
 73
     8
 74
     0
 42
0.00000001
 43
0.00000001
 40
0.7319513975842445
 40
0.7319513975842445
 40
0.7319513975842445
 40
0.7319513975842445
 40
0.7332406729486812
 40
0.7524899202185761
 40
0.7717495381760754
 40
0.7909001807529373
 40
0.7952364970394581
 40
0.7952364970394581
 40
0.7952364970394581
 40
0.7952364970394581
 10
21.73242084260372
 20
9.760261342312827
 30
0.0
 10
21.74341605890569
 20
9.760847626292085
 30
0.0
 10
21.91856988836136
 20
9.770244894526268
 30
0.0
 10
22.25787512603644
 20
9.790216046033766
 30
0.0
 10
22.74919476120123
 20
9.823331258467432
 30
0.0
 10
23.11324384578754
 20
9.850633146118216
 30
0.0
 10
23.31320384245278
 20
9.86646732494633
 30
0.0
 10
23.35011953685989
 20
9.869418614378045
 30
0.0
  0
MTEXT
  5
C1
330
1F
100
AcDbEntity
  8
PART_NAMES
100
AcDbMText
 10
19.7734174667
 20
10.0267352655
 30
0.0
 40
0.1666666667
 41
0.0
 71
     1
 72
     1
  1
HR1.4<3>
  7
SLDTEXTSTYLE0
 73
     1
 44
1.0
  0
ARC
  5
C2
330
1F
100
AcDbEntity
  8
0
  6
Continuous
 62
     7
370
    25
100
AcDbCircle
 10
17.1229179412
 20
9.0263791131
 30
0.0
 40
0.6000000000000006
100
AcDbArc
 50
185.0348531868
 51
274.9379784937
  0
ARC
  5
C3
330
1F
100
AcDbEntity
  8
0
  6
Continuous
 62
     7
370
    25
100
AcDbCircle
 10
17.1229179412
 20
8.9210650555
 30
0.0
 40
0.6000000000000006
100
AcDbArc
 50
85.0620215063
 51
174.9651468132
  0
LINE
  5
C4
330
1F
100
AcDbEntity
  8
0
  6
Continuous
 62
     7
370
    25
100
AcDbLine
 10
21.6286953778
 20
9.0221717254
 30
0.0
 11
20.8718623237
 21
8.9255698372
 31
0.0
  0
LINE
  5
C5
330
1F
100
AcDbEntity
  8
0
  6
Continuous
 62
     7
370
    25
100
AcDbLine
 10
20.8718623237
 20
8.9255698372
 30
0.0
 11
20.8845235653
 21
8.8263746107
 31
0.0
  0
SPLINE
  5
C6
330
1F
100
AcDbEntity
  8
0
  6
Continuous
 62
     7
370
    25
100
AcDbSpline
210
0.0
220
0.0
230
1.0
 70
     8
 71
     3
 72
    21
 73
    17
 74
     0
 42
0.00000001
 43
0.00000001
 40
0.0093907486233847
 40
0.0093907486233847
 40
0.0093907486233847
 40
0.0093907486233847
 40
0.0121011758037585
 40
0.0188175356586858
 40
0.026939454793122
 40
0.0364148482585568
 40
0.0471846285955964
 40
0.0591804130998147
 40
0.0723278736139124
 40
0.0865440610891483
 40
0.1017405803365527
 40
0.1178233364335744
 40
0.134691452208322
 40
0.1522401544471546
 40
0.1703612899646366
 40
0.1843408189773168
 40
0.1843408189773168
 40
0.1843408189773168
 40
0.1843408189773168
 10
21.6286953778324
 20
9.022171725751656
 30
0.0
 10
21.60580159579777
 20
9.025380365470182
 30
0.0
 10
21.52648352659266
 20
9.037024176374395
 30
0.0
 10
21.37761325684399
 20
9.056517348666075
 30
0.0
 10
21.17191091177816
 20
9.084044415990155
 30
0.0
 10
20.93161611883086
 20
9.115161150528264
 30
0.0
 10
20.65846896000589
 20
9.149805600072872
 30
0.0
 10
20.35406581836105
 20
9.18737085110321
 30
0.0
 10
20.0203109327737
 20
9.227348511920196
 30
0.0
 10
19.65925578203359
 20
9.269242742850675
 30
0.0
 10
19.27312375742597
 20
9.312483164429272
 30
0.0
 10
18.86429684292683
 20
9.356541846111222
 30
0.0
 10
18.43529848366184
 20
9.400871573426206
 30
0.0
 10
17.98877255350336
 20
9.444900158548553
 30
0.0
 10
17.56658995672289
 20
9.484354031933249
 30
0.0
 10
17.29351066545526
 20
9.508561405984793
 30
0.0
 10
17.17456434012653
 20
9.518838130756723
 30
0.0
  0
SPLINE
  5
C7
330
1F
100
AcDbEntity
  8
0
  6
Continuous
 62
     7
370
    25
100
AcDbSpline
210
0.0
220
0.0
230
1.0
 70
     8
 71
     3
 72
    17
 73
    13
 74
     0
 42
0.00000001
 43
0.00000001
 40
0.8144247972212597
 40
0.8144247972212597
 40
0.8144247972212597
 40
0.8144247972212597
 40
0.82840432623394
 40
0.8465254617514221
 40
0.8640741639902545
 40
0.8809422797650022
 40
0.8970250358620238
 40
0.9122215551094282
 40
0.926437742584664
 40
0.9395852030987617
 40
0.95158098760298
 40
0.9600665823462549
 40
0.9600665823462549
 40
0.9600665823462549
 40
0.9600665823462549
 10
17.17456434012653
 20
8.4286060378936
 30
0.0
 10
17.29351066545526
 20
8.43888276266553
 30
0.0
 10
17.56658995672288
 20
8.463090136717073
 30
0.0
 10
17.98877255350336
 20
8.502544010101769
 30
0.0
 10
18.43529848366185
 20
8.546572595224116
 30
0.0
 10
18.86429684292683
 20
8.590902322539101
 30
0.0
 10
19.27312375742596
 20
8.634961004221049
 30
0.0
 10
19.65925578203359
 20
8.678201425799646
 30
0.0
 10
20.0203109327737
 20
8.720095656730125
 30
0.0
 10
20.35406581836105
 20
8.760073317547112
 30
0.0
 10
20.63910792695557
 20
8.795249296039684
 30
0.0
 10
20.81263564612147
 20
8.817198863510537
 30
0.0
 10
20.88452356529977
 20
8.826374610654609
 30
0.0
  0
MTEXT
  5
C8
330
1F
100
AcDbEntity
  8
PART_NAMES
100
AcDbMText
 10
17.9641149738
 20
9.024320794
 30
0.0
 40
0.1666666667
 41
0.0
 71
     1
 72
     1
  1
HRCS<3>
  7
SLDTEXTSTYLE0
 73
     1
 44
1.0
  0
LINE
  5
C9
330
1F
100
AcDbEntity
  8
0
  6
Continuous
 62
     7
370
    25
100
AcDbLine
 10
6.1194778627
 20
6.4620160698
 30
0.0
 11
6.1067855858
 21
6.7120160698
 31
0.0
  0
LINE
  5
CA
330
1F
100
AcDbEntity
  8
0
  6
Continuous
 62
     7
370
    25
100
AcDbLine
 10
6.1067855858
 20
6.7120160698
 30
0.0
 11
5.8571071521
 21
6.6993401186
 31
0.0
  0
LINE
  5
CB
330
1F
100
AcDbEntity
  8
0
  6
Continuous
 62
     7
370
    25
100
AcDbLine
 10
5.8571071521
 20
6.6993401186
 30
0.0
 11
5.869799429
 21
6.4493401186
 31
0.0
  0
LINE
  5
CC
330
1F
100
AcDbEntity
  8
0
  6
Continuous
 62
     7
370
    25
100
AcDbLine
 10
0.869799429
 20
6.9070602857
 30
0.0
 11
0.5444113001
 21
6.9070602857
 31
0.0
  0
LINE
  5
CD
330
1F
100
AcDbEntity
  8
0
  6
Continuous
 62
     7
370
    25
100
AcDbLine
 10
0.869799429
 20
7.4070602857
 30
0.0
 11
0.869799429
 21
6.9070602857
 31
0.0
  0
LINE
  5
CE
330
1F
100
AcDbEntity
  8
0
  6
Continuous
 62
     7
370
    25
100
AcDbLine
 10
0.869799429
 20
7.4070602857
 30
0.0
 11
0.5444113001
 21
7.4070602857
 31
0.0
  0
SPLINE
  5
CF
330
1F
100
AcDbEntity
  8
0
  6
Continuous
 62
     7
370
    25
100
AcDbSpline
210
0.0
220
0.0
230
1.0
 70
     8
 71
     3
 72
    23
 73
    19
 74
     0
 42
0.00000001
 43
0.00000001
 40
0.2765718525091989
 40
0.2765718525091989
 40
0.2765718525091989
 40
0.2765718525091989
 40
0.2846449661104438
 40
0.3035201182686616
 40
0.3220345753743312
 40
0.3400783529141181
 40
0.3575425932417018
 40
0.3743254819208344
 40
0.3903298908718879
 40
0.4054638897390948
 40
0.4196438014456847
 40
0.4327933713913401
 40
0.444843816743186
 40
0.4557379207047339
 40
0.4654286532330845
 40
0.4738863200854159
 40
0.4811016340775686
 40
0.4870436823973892
 40
0.4870436823973892
 40
0.4870436823973892
 40
0.4870436823973892
 10
5.86979942896749
 20
7.864780452812281
 30
0.0
 10
5.800932186522705
 20
7.86809710265605
 30
0.0
 10
5.571027175027144
 20
7.878662313395582
 30
0.0
 10
5.183036615034085
 20
7.893485522202056
 30
0.0
 10
4.709764358098937
 20
7.905742747405957
 30
0.0
 10
4.248412292659786
 20
7.911233433557046
 30
0.0
 10
3.801815236275336
 20
7.909521837480399
 30
0.0
 10
3.37272657624108
 20
7.900277350556136
 30
0.0
 10
2.963787549130554
 20
7.883265635146864
 30
0.0
 10
2.577515253032316
 20
7.858442191256974
 30
0.0
 10
2.216283731543792
 20
7.825881710989114
 30
0.0
 10
1.882303464429916
 20
7.785838493089087
 30
0.0
 10
1.577610168443805
 20
7.738653246077622
 30
0.0
 10
1.304050211255896
 20
7.684818779531273
 30
0.0
 10
1.063226965417708
 20
7.624943814135514
 30
0.0
 10
0.8565088930899483
 20
7.559612205468601
 30
0.0
 10
0.6854053988194031
 20
7.489620243975268
 30
0.0
 10
0.5865619618346547
 20
7.435443813216125
 30
0.0
 10
0.5444113000945449
 20
7.407060285763879
 30
0.0
  0
LINE
  5
D0
330
1F
100
AcDbEntity
  8
0
  6
Continuous
 62
     7
370
    25
100
AcDbLine
 10
5.869799429
 20
7.8647804528
 30
0.0
 11
5.8571071521
 21
7.6147804528
 31
0.0
  0
LINE
  5
D1
330
1F
100
AcDbEntity
  8
0
  6
Continuous
 62
     7
370
    25
100
AcDbLine
 10
5.8571071521
 20
7.6147804528
 30
0.0
 11
6.1067855858
 21
7.6021045016
 31
0.0
  0
LINE
  5
D2
330
1F
100
AcDbEntity
  8
0
  6
Continuous
 62
     7
370
    25
100
AcDbLine
 10
6.1067855858
 20
7.6021045016
 30
0.0
 11
6.1194778627
 21
7.8521045016
 31
0.0
  0
SPLINE
  5
D3
330
1F
100
AcDbEntity
  8
0
  6
Continuous
 62
     7
370
    25
100
AcDbSpline
210
0.0
220
0.0
230
1.0
 70
     8
 71
     3
 72
    12
 73
     8
 74
     0
 42
0.00000001
 43
0.00000001
 40
0.2035291191591187
 40
0.2035291191591187
 40
0.2035291191591187
 40
0.2035291191591187
 40
0.2078654354456393
 40
0.2270160780225014
 40
0.2462756959800007
 40
0.2655249432498956
 40
0.2668142186143249
 40
0.2668142186143249
 40
0.2668142186143249
 40
0.2668142186143249
 10
7.737176556935124
 20
7.742947229529586
 30
0.0
 10
7.700260862528022
 20
7.745898518961299
 30
0.0
 10
7.500300865862778
 20
7.761732697789411
 30
0.0
 10
7.136251781276465
 20
7.789034585440196
 30
0.0
 10
6.644932146111675
 20
7.822149797873863
 30
0.0
 10
6.305626908436664
 20
7.842120949381356
 30
0.0
 10
6.130473078981058
 20
7.851518217615537
 30
0.0
 10
6.119477862679146
 20
7.852104501594791
 30
0.0
  0
ARC
  5
D4
330
1F
100
AcDbEntity
  8
0
  6
Continuous
 62
     7
370
    25
100
AcDbCircle
 10
8.1550132487
 20
7.3123517128
 30
0.0
 40
0.600000000000002
100
AcDbArc
 50
134.1384441568
 51
195.0
  0
ARC
  5
D5
330
1F
100
AcDbEntity
  8
0
  6
Continuous
 62
     7
370
    25
100
AcDbCircle
 10
8.1550132487
 20
7.0017688587
 30
0.0
 40
0.6000000000000013
100
AcDbArc
 50
165.0
 51
225.8615558432
  0
CIRCLE
  5
D6
330
1F
100
AcDbEntity
  8
0
  6
Continuous
 62
     7
370
    25
100
AcDbCircle
 10
5.369799429
 20
7.1570602857
 30
0.0
 40
0.25
  0
CIRCLE
  5
D7
330
1F
100
AcDbEntity
  8
0
  6
Continuous
 62
     7
370
    25
100
AcDbCircle
 10
6.869799429
 20
7.1570602857
 30
0.0
 40
0.375
  0
LINE
  5
D8
330
1F
100
AcDbEntity
  8
0
  6
Continuous
 62
     7
370
    25
100
AcDbLine
 10
3.207299429
 20
7.4070602857
 30
0.0
 11
3.207299429
 21
6.9070602857
 31
0.0
  0
LINE
  5
D9
330
1F
100
AcDbEntity
  8
0
  6
Continuous
 62
     7
370
    25
100
AcDbLine
 10
3.207299429
 20
6.9070602857
 30
0.0
 11
2.769799429
 21
6.9070602857
 31
0.0
  0
LINE
  5
DA
330
1F
100
AcDbEntity
  8
0
  6
Continuous
 62
     7
370
    25
100
AcDbLine
 10
2.769799429
 20
6.9070602857
 30
0.0
 11
2.769799429
 21
6.7820602857
 31
0.0
  0
LINE
  5
DB
330
1F
100
AcDbEntity
  8
0
  6
Continuous
 62
     7
370
    25
100
AcDbLine
 10
2.769799429
 20
6.7820602857
 30
0.0
 11
3.769799429
 21
6.7820602857
 31
0.0
  0
LINE
  5
DC
330
1F
100
AcDbEntity
  8
0
  6
Continuous
 62
     7
370
    25
100
AcDbLine
 10
3.769799429
 20
6.7820602857
 30
0.0
 11
3.769799429
 21
6.9070602857
 31
0.0
  0
LINE
  5
DD
330
1F
100
AcDbEntity
  8
0
  6
Continuous
 62
     7
370
    25
100
AcDbLine
 10
3.769799429
 20
6.9070602857
 30
0.0
 11
3.332299429
 21
6.9070602857
 31
0.0
  0
LINE
  5
DE
330
1F
100
AcDbEntity
  8
0
  6
Continuous
 62
     7
370
    25
100
AcDbLine
 10
3.332299429
 20
6.9070602857
 30
0.0
 11
3.332299429
 21
7.4070602857
 31
0.0
  0
LINE
  5
DF
330
1F
100
AcDbEntity
  8
0
  6
Continuous
 62
     7
370
    25
100
AcDbLine
 10
3.332299429
 20
7.4070602857
 30
0.0
 11
3.769799429
 21
7.4070602857
 31
0.0
  0
LINE
  5
E0
330
1F
100
AcDbEntity
  8
0
  6
Continuous
 62
     7
370
    25
100
AcDbLine
 10
3.769799429
 20
7.4070602857
 30
0.0
 11
3.769799429
 21
7.5320602857
 31
0.0
  0
LINE
  5
E1
330
1F
100
AcDbEntity
  8
0
  6
Continuous
 62
     7
370
    25
100
AcDbLine
 10
3.769799429
 20
7.5320602857
 30
0.0
 11
2.769799429
 21
7.5320602857
 31
0.0
  0
LINE
  5
E2
330
1F
100
AcDbEntity
  8
0
  6
Continuous
 62
     7
370
    25
100
AcDbLine
 10
2.769799429
 20
7.5320602857
 30
0.0
 11
2.769799429
 21
7.4070602857
 31
0.0
  0
LINE
  5
E3
330
1F
100
AcDbEntity
  8
0
  6
Continuous
 62
     7
370
    25
100
AcDbLine
 10
2.769799429
 20
7.4070602857
 30
0.0
 11
3.207299429
 21
7.4070602857
 31
0.0
  0
SPLINE
  5
E4
330
1F
100
AcDbEntity
  8
0
  6
Continuous
 62
     7
370
    25
100
AcDbSpline
210
0.0
220
0.0
230
1.0
 70
     8
 71
     3
 72
    23
 73
    19
 74
     0
 42
0.00000001
 43
0.00000001
 40
0.5117219338011876
 40
0.5117219338011876
 40
0.5117219338011876
 40
0.5117219338011876
 40
0.5176639821210082
 40
0.5248792961131608
 40
0.5333369629654922
 40
0.5430276954938428
 40
0.5539217994553907
 40
0.5659722448072366
 40
0.5791218147528919
 40
0.5933017264594819
 40
0.6084357253266888
 40
0.6244401342777423
 40
0.6412230229568748
 40
0.6586872632844586
 40
0.6767310408242455
 40
0.6952454979299151
 40
0.714120650088133
 40
0.7221937636893794
 40
0.7221937636893794
 40
0.7221937636893794
 40
0.7221937636893794
 10
0.5444113000945459
 20
6.907060285671887
 30
0.0
 10
0.5865619618346547
 20
6.878676758219641
 30
0.0
 10
0.6854053988194031
 20
6.824500327460499
 30
0.0
 10
0.8565088930899494
 20
6.754508365967165
 30
0.0
 10
1.063226965417708
 20
6.689176757300253
 30
0.0
 10
1.304050211255896
 20
6.629301791904494
 30
0.0
 10
1.577610168443807
 20
6.575467325358145
 30
0.0
 10
1.882303464429914
 20
6.528282078346681
 30
0.0
 10
2.216283731543793
 20
6.488238860446653
 30
0.0
 10
2.577515253032318
 20
6.455678380178793
 30
0.0
 10
2.963787549130553
 20
6.430854936288903
 30
0.0
 10
3.372726576241079
 20
6.41384322087963
 30
0.0
 10
3.801815236275338
 20
6.404598733955368
 30
0.0
 10
4.248412292659784
 20
6.40288713787872
 30
0.0
 10
4.709764358098938
 20
6.408377824029809
 30
0.0
 10
5.183036615034086
 20
6.420635049233711
 30
0.0
 10
5.571027175027155
 20
6.435458258040186
 30
0.0
 10
5.800932186522728
 20
6.446023468779718
 30
0.0
 10
5.869799428967525
 20
6.449340118623488
 30
0.0
  0
SPLINE
  5
E5
330
1F
100
AcDbEntity
  8
0
  6
Continuous
 62
     7
370
    25
100
AcDbSpline
210
0.0
220
0.0
230
1.0
 70
     8
 71
     3
 72
    12
 73
     8
 74
     0
 42
0.00000001
 43
0.00000001
 40
0.7319513975842445
 40
0.7319513975842445
 40
0.7319513975842445
 40
0.7319513975842445
 40
0.7332406729486812
 40
0.7524899202185761
 40
0.7717495381760754
 40
0.7909001807529373
 40
0.7952364970394581
 40
0.7952364970394581
 40
0.7952364970394581
 40
0.7952364970394581
 10
6.119477862678957
 20
6.462016069840964
 30
0.0
 10
6.130473078980931
 20
6.462602353820222
 30
0.0
 10
6.305626908436601
 20
6.471999622054406
 30
0.0
 10
6.644932146111678
 20
6.491970773561904
 30
0.0
 10
7.136251781276467
 20
6.52508598599557
 30
0.0
 10
7.500300865862778
 20
6.552387873646356
 30
0.0
 10
7.700260862528023
 20
6.568222052474468
 30
0.0
 10
7.737176556935126
 20
6.571173341906182
 30
0.0
  0
MTEXT
  5
E6
330
1F
100
AcDbEntity
  8
PART_NAMES
100
AcDbMText
 10
4.1812954356
 20
6.8112405011
 30
0.0
 40
0.1666666667
 41
0.0
 71
     1
 72
     1
  1
HR1.4<4>
  7
SLDTEXTSTYLE0
 73
     1
 44
1.0
  0
ARC
  5
E7
330
1F
100
AcDbEntity
  8
0
  6
Continuous
 62
     7
370
    25
100
AcDbCircle
 10
1.2541391825
 20
5.6611909553
 30
0.0
 40
0.6000000000000005
100
AcDbArc
 50
185.0348531868
 51
274.9379784937
  0
ARC
  5
E8
330
1F
100
AcDbEntity
  8
0
  6
Continuous
 62
     7
370
    25
100
AcDbCircle
 10
1.2541391825
 20
5.5558768977
 30
0.0
 40
0.6000000000000005
100
AcDbArc
 50
85.0620215063
 51
174.9651468132
  0
LINE
  5
E9
330
1F
100
AcDbEntity
  8
0
  6
Continuous
 62
     7
370
    25
100
AcDbLine
 10
5.7599166191
 20
5.6569835676
 30
0.0
 11
5.0030835649
 21
5.5603816793
 31
0.0
  0
LINE
  5
EA
330
1F
100
AcDbEntity
  8
0
  6
Continuous
 62
     7
370
    25
100
AcDbLine
 10
5.0030835649
 20
5.5603816793
 30
0.0
 11
5.0157448066
 21
5.4611864528
 31
0.0
  0
SPLINE
  5
EB
330
1F
100
AcDbEntity
  8
0
  6
Continuous
 62
     7
370
    25
100
AcDbSpline
210
0.0
220
0.0
230
1.0
 70
     8
 71
     3
 72
    21
 73
    17
 74
     0
 42
0.00000001
 43
0.00000001
 40
0.0093907486233847
 40
0.0093907486233847
 40
0.0093907486233847
 40
0.0093907486233847
 40
0.0121011758037585
 40
0.0188175356586858
 40
0.026939454793122
 40
0.0364148482585568
 40
0.0471846285955964
 40
0.0591804130998147
 40
0.0723278736139124
 40
0.0865440610891483
 40
0.1017405803365527
 40
0.1178233364335744
 40
0.134691452208322
 40
0.1522401544471546
 40
0.1703612899646366
 40
0.1843408189773168
 40
0.1843408189773168
 40
0.1843408189773168
 40
0.1843408189773168
 10
5.759916619115665
 20
5.656983567925105
 30
0.0
 10
5.737022837081041
 20
5.660192207643632
 30
0.0
 10
5.657704767875932
 20
5.671836018547845
 30
0.0
 10
5.508834498127261
 20
5.691329190839524
 30
0.0
 10
5.303132153061425
 20
5.718856258163605
 30
0.0
 10
5.062837360114133
 20
5.749972992701714
 30
0.0
 10
4.789690201289165
 20
5.784617442246322
 30
0.0
 10
4.485287059644321
 20
5.822182693276661
 30
0.0
 10
4.151532174056971
 20
5.862160354093646
 30
0.0
 10
3.790477023316857
 20
5.904054585024126
 30
0.0
 10
3.404344998709238
 20
5.947295006602722
 30
0.0
 10
2.995518084210099
 20
5.991353688284671
 30
0.0
 10
2.566519724945115
 20
6.035683415599657
 30
0.0
 10
2.11999379478663
 20
6.079712000722002
 30
0.0
 10
1.697811198006156
 20
6.119165874106699
 30
0.0
 10
1.424731906738533
 20
6.143373248158243
 30
0.0
 10
1.305785581409796
 20
6.153649972930173
 30
0.0
  0
SPLINE
  5
EC
330
1F
100
AcDbEntity
  8
0
  6
Continuous
 62
     7
370
    25
100
AcDbSpline
210
0.0
220
0.0
230
1.0
 70
     8
 71
     3
 72
    17
 73
    13
 74
     0
 42
0.00000001
 43
0.00000001
 40
0.8144247972212597
 40
0.8144247972212597
 40
0.8144247972212597
 40
0.8144247972212597
 40
0.82840432623394
 40
0.8465254617514221
 40
0.8640741639902545
 40
0.8809422797650022
 40
0.8970250358620238
 40
0.9122215551094282
 40
0.926437742584664
 40
0.9395852030987617
 40
0.95158098760298
 40
0.9600665823462549
 40
0.9600665823462549
 40
0.9600665823462549
 40
0.9600665823462549
 10
1.305785581409796
 20
5.063417880067049
 30
0.0
 10
1.424731906738534
 20
5.073694604838979
 30
0.0
 10
1.697811198006153
 20
5.097901978890523
 30
0.0
 10
2.119993794786626
 20
5.13735585227522
 30
0.0
 10
2.566519724945119
 20
5.181384437397566
 30
0.0
 10
2.995518084210099
 20
5.22571416471255
 30
0.0
 10
3.404344998709236
 20
5.269772846394499
 30
0.0
 10
3.790477023316862
 20
5.313013267973096
 30
0.0
 10
4.151532174056968
 20
5.354907498903576
 30
0.0
 10
4.485287059644326
 20
5.394885159720562
 30
0.0
 10
4.770329168238846
 20
5.430061138213134
 30
0.0
 10
4.943856887404741
 20
5.452010705683986
 30
0.0
 10
5.01574480658304
 20
5.461186452828058
 30
0.0
  0
MTEXT
  5
ED
330
1F
100
AcDbEntity
  8
PART_NAMES
100
AcDbMText
 10
2.6038508854
 20
5.724586296
 30
0.0
 40
0.1666666667
 41
0.0
 71
     1
 72
     1
  1
HRCS<4>
  7
SLDTEXTSTYLE0
 73
     1
 44
1.0
  0
LINE
  5
EE
330
1F
100
AcDbEntity
  8
0
  6
Continuous
 62
     7
370
    25
100
AcDbLine
 10
13.7596681163
 20
6.4738108184
 30
0.0
 11
13.7469758394
 21
6.7238108184
 31
0.0
  0
LINE
  5
EF
330
1F
100
AcDbEntity
  8
0
  6
Continuous
 62
     7
370
    25
100
AcDbLine
 10
13.7469758394
 20
6.7238108184
 30
0.0
 11
13.4972974057
 21
6.7111348672
 31
0.0
  0
LINE
  5
F0
330
1F
100
AcDbEntity
  8
0
  6
Continuous
 62
     7
370
    25
100
AcDbLine
 10
13.4972974057
 20
6.7111348672
 30
0.0
 11
13.5099896826
 21
6.4611348672
 31
0.0
  0
LINE
  5
F1
330
1F
100
AcDbEntity
  8
0
  6
Continuous
 62
     7
370
    25
100
AcDbLine
 10
8.5099896826
 20
6.9188550343
 30
0.0
 11
8.1846015537
 21
6.9188550343
 31
0.0
  0
LINE
  5
F2
330
1F
100
AcDbEntity
  8
0
  6
Continuous
 62
     7
370
    25
100
AcDbLine
 10
8.5099896826
 20
7.4188550343
 30
0.0
 11
8.5099896826
 21
6.9188550343
 31
0.0
  0
LINE
  5
F3
330
1F
100
AcDbEntity
  8
0
  6
Continuous
 62
     7
370
    25
100
AcDbLine
 10
8.5099896826
 20
7.4188550343
 30
0.0
 11
8.1846015537
 21
7.4188550343
 31
0.0
  0
SPLINE
  5
F4
330
1F
100
AcDbEntity
  8
0
  6
Continuous
 62
     7
370
    25
100
AcDbSpline
210
0.0
220
0.0
230
1.0
 70
     8
 71
     3
 72
    23
 73
    19
 74
     0
 42
0.00000001
 43
0.00000001
 40
0.2765718525091989
 40
0.2765718525091989
 40
0.2765718525091989
 40
0.2765718525091989
 40
0.2846449661104438
 40
0.3035201182686616
 40
0.3220345753743312
 40
0.3400783529141181
 40
0.3575425932417018
 40
0.3743254819208344
 40
0.3903298908718879
 40
0.4054638897390948
 40
0.4196438014456847
 40
0.4327933713913401
 40
0.444843816743186
 40
0.4557379207047339
 40
0.4654286532330845
 40
0.4738863200854159
 40
0.4811016340775686
 40
0.4870436823973892
 40
0.4870436823973892
 40
0.4870436823973892
 40
0.4870436823973892
 10
13.50998968257334
 20
7.876575201415662
 30
0.0
 10
13.44112244012856
 20
7.879891851259432
 30
0.0
 10
13.211217428633
 20
7.890457061998963
 30
0.0
 10
12.82322686863994
 20
7.905280270805437
 30
0.0
 10
12.34995461170479
 20
7.917537496009339
 30
0.0
 10
11.88860254626564
 20
7.923028182160428
 30
0.0
 10
11.44200548988119
 20
7.921316586083781
 30
0.0
 10
11.01291682984693
 20
7.912072099159518
 30
0.0
 10
10.6039778027364
 20
7.895060383750245
 30
0.0
 10
10.21770550663816
 20
7.870236939860355
 30
0.0
 10
9.856473985149643
 20
7.837676459592496
 30
0.0
 10
9.522493718035767
 20
7.797633241692468
 30
0.0
 10
9.217800422049656
 20
7.750447994681004
 30
0.0
 10
8.944240464861746
 20
7.696613528134654
 30
0.0
 10
8.703417219023558
 20
7.636738562738896
 30
0.0
 10
8.496699146695798
 20
7.571406954071983
 30
0.0
 10
8.325595652425253
 20
7.501414992578649
 30
0.0
 10
8.226752215440506
 20
7.447238561819507
 30
0.0
 10
8.184601553700395
 20
7.418855034367261
 30
0.0
  0
LINE
  5
F5
330
1F
100
AcDbEntity
  8
0
  6
Continuous
 62
     7
370
    25
100
AcDbLine
 10
13.5099896826
 20
7.8765752014
 30
0.0
 11
13.4972974057
 21
7.6265752014
 31
0.0
  0
LINE
  5
F6
330
1F
100
AcDbEntity
  8
0
  6
Continuous
 62
     7
370
    25
100
AcDbLine
 10
13.4972974057
 20
7.6265752014
 30
0.0
 11
13.7469758394
 21
7.6138992502
 31
0.0
  0
LINE
  5
F7
330
1F
100
AcDbEntity
  8
0
  6
Continuous
 62
     7
370
    25
100
AcDbLine
 10
13.7469758394
 20
7.6138992502
 30
0.0
 11
13.7596681163
 21
7.8638992502
 31
0.0
  0
SPLINE
  5
F8
330
1F
100
AcDbEntity
  8
0
  6
Continuous
 62
     7
370
    25
100
AcDbSpline
210
0.0
220
0.0
230
1.0
 70
     8
 71
     3
 72
    12
 73
     8
 74
     0
 42
0.00000001
 43
0.00000001
 40
0.2035291191591187
 40
0.2035291191591187
 40
0.2035291191591187
 40
0.2035291191591187
 40
0.2078654354456393
 40
0.2270160780225014
 40
0.2462756959800007
 40
0.2655249432498956
 40
0.2668142186143249
 40
0.2668142186143249
 40
0.2668142186143249
 40
0.2668142186143249
 10
15.37736681054097
 20
7.754741978132967
 30
0.0
 10
15.34045111613387
 20
7.757693267564681
 30
0.0
 10
15.14049111946863
 20
7.773527446392793
 30
0.0
 10
14.77644203488232
 20
7.800829334043577
 30
0.0
 10
14.28512239971753
 20
7.833944546477245
 30
0.0
 10
13.94581716204251
 20
7.853915697984737
 30
0.0
 10
13.77066333258691
 20
7.863312966218918
 30
0.0
 10
13.759668116285
 20
7.863899250198173
 30
0.0
  0
ARC
  5
F9
330
1F
100
AcDbEntity
  8
0
  6
Continuous
 62
     7
370
    25
100
AcDbCircle
 10
15.7952035023
 20
7.3241464614
 30
0.0
 40
0.600000000000002
100
AcDbArc
 50
134.1384441568
 51
195.0
  0
ARC
  5
FA
330
1F
100
AcDbEntity
  8
0
  6
Continuous
 62
     7
370
    25
100
AcDbCircle
 10
15.7952035023
 20
7.0135636073
 30
0.0
 40
0.6000000000000001
100
AcDbArc
 50
165.0
 51
225.8615558432
  0
CIRCLE
  5
FB
330
1F
100
AcDbEntity
  8
0
  6
Continuous
 62
     7
370
    25
100
AcDbCircle
 10
13.0099896826
 20
7.1688550343
 30
0.0
 40
0.25
  0
CIRCLE
  5
FC
330
1F
100
AcDbEntity
  8
0
  6
Continuous
 62
     7
370
    25
100
AcDbCircle
 10
14.5099896826
 20
7.1688550343
 30
0.0
 40
0.375
  0
LINE
  5
FD
330
1F
100
AcDbEntity
  8
0
  6
Continuous
 62
     7
370
    25
100
AcDbLine
 10
10.8474896826
 20
7.4188550343
 30
0.0
 11
10.8474896826
 21
6.9188550343
 31
0.0
  0
LINE
  5
FE
330
1F
100
AcDbEntity
  8
0
  6
Continuous
 62
     7
370
    25
100
AcDbLine
 10
10.8474896826
 20
6.9188550343
 30
0.0
 11
10.4099896826
 21
6.9188550343
 31
0.0
  0
LINE
  5
FF
330
1F
100
AcDbEntity
  8
0
  6
Continuous
 62
     7
370
    25
100
AcDbLine
 10
10.4099896826
 20
6.9188550343
 30
0.0
 11
10.4099896826
 21
6.7938550343
 31
0.0
  0
LINE
  5
100
330
1F
100
AcDbEntity
  8
0
  6
Continuous
 62
     7
370
    25
100
AcDbLine
 10
10.4099896826
 20
6.7938550343
 30
0.0
 11
11.4099896826
 21
6.7938550343
 31
0.0
  0
LINE
  5
101
330
1F
100
AcDbEntity
  8
0
  6
Continuous
 62
     7
370
    25
100
AcDbLine
 10
11.4099896826
 20
6.7938550343
 30
0.0
 11
11.4099896826
 21
6.9188550343
 31
0.0
  0
LINE
  5
102
330
1F
100
AcDbEntity
  8
0
  6
Continuous
 62
     7
370
    25
100
AcDbLine
 10
11.4099896826
 20
6.9188550343
 30
0.0
 11
10.9724896826
 21
6.9188550343
 31
0.0
  0
LINE
  5
103
330
1F
100
AcDbEntity
  8
0
  6
Continuous
 62
     7
370
    25
100
AcDbLine
 10
10.9724896826
 20
6.9188550343
 30
0.0
 11
10.9724896826
 21
7.4188550343
 31
0.0
  0
LINE
  5
104
330
1F
100
AcDbEntity
  8
0
  6
Continuous
 62
     7
370
    25
100
AcDbLine
 10
10.9724896826
 20
7.4188550343
 30
0.0
 11
11.4099896826
 21
7.4188550343
 31
0.0
  0
LINE
  5
105
330
1F
100
AcDbEntity
  8
0
  6
Continuous
 62
     7
370
    25
100
AcDbLine
 10
11.4099896826
 20
7.4188550343
 30
0.0
 11
11.4099896826
 21
7.5438550343
 31
0.0
  0
LINE
  5
106
330
1F
100
AcDbEntity
  8
0
  6
Continuous
 62
     7
370
    25
100
AcDbLine
 10
11.4099896826
 20
7.5438550343
 30
0.0
 11
10.4099896826
 21
7.5438550343
 31
0.0
  0
LINE
  5
107
330
1F
100
AcDbEntity
  8
0
  6
Continuous
 62
     7
370
    25
100
AcDbLine
 10
10.4099896826
 20
7.5438550343
 30
0.0
 11
10.4099896826
 21
7.4188550343
 31
0.0
  0
LINE
  5
108
330
1F
100
AcDbEntity
  8
0
  6
Continuous
 62
     7
370
    25
100
AcDbLine
 10
10.4099896826
 20
7.4188550343
 30
0.0
 11
10.8474896826
 21
7.4188550343
 31
0.0
  0
SPLINE
  5
109
330
1F
100
AcDbEntity
  8
0
  6
Continuous
 62
     7
370
    25
100
AcDbSpline
210
0.0
220
0.0
230
1.0
 70
     8
 71
     3
 72
    23
 73
    19
 74
     0
 42
0.00000001
 43
0.00000001
 40
0.5117219338011876
 40
0.5117219338011876
 40
0.5117219338011876
 40
0.5117219338011876
 40
0.5176639821210082
 40
0.5248792961131608
 40
0.5333369629654922
 40
0.5430276954938428
 40
0.5539217994553907
 40
0.5659722448072366
 40
0.5791218147528919
 40
0.5933017264594819
 40
0.6084357253266888
 40
0.6244401342777423
 40
0.6412230229568748
 40
0.6586872632844586
 40
0.6767310408242455
 40
0.6952454979299151
 40
0.714120650088133
 40
0.7221937636893794
 40
0.7221937636893794
 40
0.7221937636893794
 40
0.7221937636893794
 10
8.184601553700396
 20
6.918855034275269
 30
0.0
 10
8.226752215440506
 20
6.890471506823023
 30
0.0
 10
8.325595652425253
 20
6.83629507606388
 30
0.0
 10
8.4966991466958
 20
6.766303114570547
 30
0.0
 10
8.703417219023558
 20
6.700971505903635
 30
0.0
 10
8.944240464861746
 20
6.641096540507875
 30
0.0
 10
9.217800422049658
 20
6.587262073961527
 30
0.0
 10
9.522493718035765
 20
6.540076826950063
 30
0.0
 10
9.856473985149643
 20
6.500033609050035
 30
0.0
 10
10.21770550663817
 20
6.467473128782174
 30
0.0
 10
10.6039778027364
 20
6.442649684892285
 30
0.0
 10
11.01291682984693
 20
6.425637969483012
 30
0.0
 10
11.44200548988119
 20
6.416393482558749
 30
0.0
 10
11.88860254626563
 20
6.414681886482102
 30
0.0
 10
12.34995461170479
 20
6.420172572633191
 30
0.0
 10
12.82322686863994
 20
6.432429797837092
 30
0.0
 10
13.21121742863301
 20
6.447253006643568
 30
0.0
 10
13.44112244012858
 20
6.4578182173831
 30
0.0
 10
13.50998968257338
 20
6.46113486722687
 30
0.0
  0
SPLINE
  5
10A
330
1F
100
AcDbEntity
  8
0
  6
Continuous
 62
     7
370
    25
100
AcDbSpline
210
0.0
220
0.0
230
1.0
 70
     8
 71
     3
 72
    12
 73
     8
 74
     0
 42
0.00000001
 43
0.00000001
 40
0.7319513975842445
 40
0.7319513975842445
 40
0.7319513975842445
 40
0.7319513975842445
 40
0.7332406729486812
 40
0.7524899202185761
 40
0.7717495381760754
 40
0.7909001807529373
 40
0.7952364970394581
 40
0.7952364970394581
 40
0.7952364970394581
 40
0.7952364970394581
 10
13.75966811628481
 20
6.473810818444346
 30
0.0
 10
13.77066333258678
 20
6.474397102423604
 30
0.0
 10
13.94581716204245
 20
6.483794370657789
 30
0.0
 10
14.28512239971753
 20
6.503765522165285
 30
0.0
 10
14.77644203488232
 20
6.536880734598951
 30
0.0
 10
15.14049111946863
 20
6.564182622249738
 30
0.0
 10
15.34045111613388
 20
6.58001680107785
 30
0.0
 10
15.37736681054098
 20
6.582968090509564
 30
0.0
  0
MTEXT
  5
10B
330
1F
100
AcDbEntity
  8
PART_NAMES
100
AcDbMText
 10
11.8541364657
 20
6.7579568828
 30
0.0
 40
0.1666666667
 41
0.0
 71
     1
 72
     1
  1
HR1.4<5>
  7
SLDTEXTSTYLE0
 73
     1
 44
1.0
  0
ARC
  5
10C
330
1F
100
AcDbEntity
  8
0
  6
Continuous
 62
     7
370
    25
100
AcDbCircle
 10
9.0557447216
 20
5.5715173284
 30
0.0
 40
0.6000000000000005
100
AcDbArc
 50
185.0348531868
 51
274.9379784937
  0
ARC
  5
10D
330
1F
100
AcDbEntity
  8
0
  6
Continuous
 62
     7
370
    25
100
AcDbCircle
 10
9.0557447216
 20
5.4662032708
 30
0.0
 40
0.6000000000000005
100
AcDbArc
 50
85.0620215063
 51
174.9651468132
  0
LINE
  5
10E
330
1F
100
AcDbEntity
  8
0
  6
Continuous
 62
     7
370
    25
100
AcDbLine
 10
13.5615221582
 20
5.5673099407
 30
0.0
 11
12.804689104
 21
5.4707080524
 31
0.0
  0
LINE
  5
10F
330
1F
100
AcDbEntity
  8
0
  6
Continuous
 62
     7
370
    25
100
AcDbLine
 10
12.804689104
 20
5.4707080524
 30
0.0
 11
12.8173503457
 21
5.3715128259
 31
0.0
  0
LINE
  5
110
330
1F
100
AcDbEntity
  8
0
  6
Continuous
 62
     7
370
    25
100
AcDbLine
 10
10.9631202919
 20
5.4563602996
 30
0.0
 11
10.9631202919
 21
5.5813602996
 31
0.0
  0
LINE
  5
111
330
1F
100
AcDbEntity
  8
0
  6
Continuous
 62
     7
370
    25
100
AcDbLine
 10
10.9631202919
 20
5.5813602996
 30
0.0
 11
8.9631202919
 21
5.5813602996
 31
0.0
  0
LINE
  5
112
330
1F
100
AcDbEntity
  8
0
  6
Continuous
 62
     7
370
    25
100
AcDbLine
 10
8.9631202919
 20
5.5813602996
 30
0.0
 11
8.9631202919
 21
5.4563602996
 31
0.0
  0
LINE
  5
113
330
1F
100
AcDbEntity
  8
0
  6
Continuous
 62
     7
370
    25
100
AcDbLine
 10
8.9631202919
 20
5.4563602996
 30
0.0
 11
10.9631202919
 21
5.4563602996
 31
0.0
  0
SPLINE
  5
114
330
1F
100
AcDbEntity
  8
0
  6
Continuous
 62
     7
370
    25
100
AcDbSpline
210
0.0
220
0.0
230
1.0
 70
     8
 71
     3
 72
    21
 73
    17
 74
     0
 42
0.00000001
 43
0.00000001
 40
0.0093907486233847
 40
0.0093907486233847
 40
0.0093907486233847
 40
0.0093907486233847
 40
0.0121011758037585
 40
0.0188175356586858
 40
0.026939454793122
 40
0.0364148482585568
 40
0.0471846285955964
 40
0.0591804130998147
 40
0.0723278736139124
 40
0.0865440610891483
 40
0.1017405803365527
 40
0.1178233364335744
 40
0.134691452208322
 40
0.1522401544471546
 40
0.1703612899646366
 40
0.1843408189773168
 40
0.1843408189773168
 40
0.1843408189773168
 40
0.1843408189773168
 10
13.56152215822894
 20
5.567309941038745
 30
0.0
 10
13.53862837619431
 20
5.570518580757271
 30
0.0
 10
13.4593103069892
 20
5.582162391661485
 30
0.0
 10
13.31044003724053
 20
5.601655563953163
 30
0.0
 10
13.1047376921747
 20
5.629182631277244
 30
0.0
 10
12.8644428992274
 20
5.660299365815354
 30
0.0
 10
12.59129574040244
 20
5.694943815359962
 30
0.0
 10
12.28689259875759
 20
5.732509066390301
 30
0.0
 10
11.95313771317024
 20
5.772486727207285
 30
0.0
 10
11.59208256243013
 20
5.814380958137765
 30
0.0
 10
11.20595053782251
 20
5.857621379716361
 30
0.0
 10
10.79712362332337
 20
5.90168006139831
 30
0.0
 10
10.36812526405839
 20
5.946009788713297
 30
0.0
 10
9.921599333899898
 20
5.990038373835642
 30
0.0
 10
9.499416737119427
 20
6.029492247220338
 30
0.0
 10
9.226337445851803
 20
6.053699621271883
 30
0.0
 10
9.107391120523067
 20
6.063976346043812
 30
0.0
  0
SPLINE
  5
115
330
1F
100
AcDbEntity
  8
0
  6
Continuous
 62
     7
370
    25
100
AcDbSpline
210
0.0
220
0.0
230
1.0
 70
     8
 71
     3
 72
    17
 73
    13
 74
     0
 42
0.00000001
 43
0.00000001
 40
0.8144247972212597
 40
0.8144247972212597
 40
0.8144247972212597
 40
0.8144247972212597
 40
0.82840432623394
 40
0.8465254617514221
 40
0.8640741639902545
 40
0.8809422797650022
 40
0.8970250358620238
 40
0.9122215551094282
 40
0.926437742584664
 40
0.9395852030987617
 40
0.95158098760298
 40
0.9600665823462549
 40
0.9600665823462549
 40
0.9600665823462549
 40
0.9600665823462549
 10
9.107391120523067
 20
4.973744253180689
 30
0.0
 10
9.226337445851804
 20
4.984020977952619
 30
0.0
 10
9.499416737119423
 20
5.008228352004163
 30
0.0
 10
9.921599333899897
 20
5.047682225388859
 30
0.0
 10
10.36812526405839
 20
5.091710810511206
 30
0.0
 10
10.79712362332337
 20
5.13604053782619
 30
0.0
 10
11.20595053782251
 20
5.180099219508139
 30
0.0
 10
11.59208256243013
 20
5.223339641086735
 30
0.0
 10
11.95313771317024
 20
5.265233872017216
 30
0.0
 10
12.2868925987576
 20
5.305211532834201
 30
0.0
 10
12.57193470735212
 20
5.340387511326773
 30
0.0
 10
12.74546242651801
 20
5.362337078797626
 30
0.0
 10
12.81735034569631
 20
5.371512825941698
 30
0.0
  0
MTEXT
  5
116
330
1F
100
AcDbEntity
  8
PART_NAMES
100
AcDbMText
 10
11.1006672179
 20
5.5760982436
 30
0.0
 40
0.1666666667
 41
0.0
 71
     1
 72
     1
  1
HRCS<5>
  7
SLDTEXTSTYLE0
 73
     1
 44
1.0
  0
LINE
  5
117
330
1F
100
AcDbEntity
  8
0
  6
Continuous
 62
     7
370
    25
100
AcDbLine
 10
21.7406209092
 20
6.4917455438
 30
0.0
 11
21.7279286323
 21
6.7417455438
 31
0.0
  0
LINE
  5
118
330
1F
100
AcDbEntity
  8
0
  6
Continuous
 62
     7
370
    25
100
AcDbLine
 10
21.7279286323
 20
6.7417455438
 30
0.0
 11
21.4782501986
 21
6.7290695926
 31
0.0
  0
LINE
  5
119
330
1F
100
AcDbEntity
  8
0
  6
Continuous
 62
     7
370
    25
100
AcDbLine
 10
21.4782501986
 20
6.7290695926
 30
0.0
 11
21.4909424755
 21
6.4790695926
 31
0.0
  0
LINE
  5
11A
330
1F
100
AcDbEntity
  8
0
  6
Continuous
 62
     7
370
    25
100
AcDbLine
 10
16.4909424755
 20
6.9367897597
 30
0.0
 11
16.1655543466
 21
6.9367897597
 31
0.0
  0
LINE
  5
11B
330
1F
100
AcDbEntity
  8
0
  6
Continuous
 62
     7
370
    25
100
AcDbLine
 10
16.4909424755
 20
7.4367897597
 30
0.0
 11
16.4909424755
 21
6.9367897597
 31
0.0
  0
LINE
  5
11C
330
1F
100
AcDbEntity
  8
0
  6
Continuous
 62
     7
370
    25
100
AcDbLine
 10
16.4909424755
 20
7.4367897597
 30
0.0
 11
16.1655543466
 21
7.4367897597
 31
0.0
  0
SPLINE
  5
11D
330
1F
100
AcDbEntity
  8
0
  6
Continuous
 62
     7
370
    25
100
AcDbSpline
210
0.0
220
0.0
230
1.0
 70
     8
 71
     3
 72
    23
 73
    19
 74
     0
 42
0.00000001
 43
0.00000001
 40
0.2765718525091989
 40
0.2765718525091989
 40
0.2765718525091989
 40
0.2765718525091989
 40
0.2846449661104438
 40
0.3035201182686616
 40
0.3220345753743312
 40
0.3400783529141181
 40
0.3575425932417018
 40
0.3743254819208344
 40
0.3903298908718879
 40
0.4054638897390948
 40
0.4196438014456847
 40
0.4327933713913401
 40
0.444843816743186
 40
0.4557379207047339
 40
0.4654286532330845
 40
0.4738863200854159
 40
0.4811016340775686
 40
0.4870436823973892
 40
0.4870436823973892
 40
0.4870436823973892
 40
0.4870436823973892
 10
21.49094247545933
 20
7.894509926792934
 30
0.0
 10
21.42207523301455
 20
7.897826576636703
 30
0.0
 10
21.19217022151899
 20
7.908391787376234
 30
0.0
 10
20.80417966152593
 20
7.923214996182709
 30
0.0
 10
20.33090740459077
 20
7.93547222138661
 30
0.0
 10
19.86955533915162
 20
7.9409629075377
 30
0.0
 10
19.42295828276718
 20
7.939251311461053
 30
0.0
 10
18.99386962273292
 20
7.93000682453679
 30
0.0
 10
18.5849305956224
 20
7.912995109127516
 30
0.0
 10
18.19865829952415
 20
7.888171665237627
 30
0.0
 10
17.83742677803563
 20
7.855611184969767
 30
0.0
 10
17.50344651092176
 20
7.81556796706974
 30
0.0
 10
17.19875321493565
 20
7.768382720058275
 30
0.0
 10
16.92519325774774
 20
7.714548253511927
 30
0.0
 10
16.68437001190955
 20
7.654673288116167
 30
0.0
 10
16.47765193958179
 20
7.589341679449254
 30
0.0
 10
16.30654844531124
 20
7.519349717955921
 30
0.0
 10
16.2077050083265
 20
7.465173287196778
 30
0.0
 10
16.16555434658639
 20
7.436789759744532
 30
0.0
  0
LINE
  5
11E
330
1F
100
AcDbEntity
  8
0
  6
Continuous
 62
     7
370
    25
100
AcDbLine
 10
21.4909424755
 20
7.8945099268
 30
0.0
 11
21.4782501986
 21
7.6445099268
 31
0.0
  0
LINE
  5
11F
330
1F
100
AcDbEntity
  8
0
  6
Continuous
 62
     7
370
    25
100
AcDbLine
 10
21.4782501986
 20
7.6445099268
 30
0.0
 11
21.7279286323
 21
7.6318339756
 31
0.0
  0
LINE
  5
120
330
1F
100
AcDbEntity
  8
0
  6
Continuous
 62
     7
370
    25
100
AcDbLine
 10
21.7279286323
 20
7.6318339756
 30
0.0
 11
21.7406209092
 21
7.8818339756
 31
0.0
  0
SPLINE
  5
121
330
1F
100
AcDbEntity
  8
0
  6
Continuous
 62
     7
370
    25
100
AcDbSpline
210
0.0
220
0.0
230
1.0
 70
     8
 71
     3
 72
    12
 73
     8
 74
     0
 42
0.00000001
 43
0.00000001
 40
0.2035291191591187
 40
0.2035291191591187
 40
0.2035291191591187
 40
0.2035291191591187
 40
0.2078654354456393
 40
0.2270160780225014
 40
0.2462756959800007
 40
0.2655249432498956
 40
0.2668142186143249
 40
0.2668142186143249
 40
0.2668142186143249
 40
0.2668142186143249
 10
23.35831960342696
 20
7.772676703510238
 30
0.0
 10
23.32140390901986
 20
7.775627992941953
 30
0.0
 10
23.12144391235462
 20
7.791462171770064
 30
0.0
 10
22.75739482776831
 20
7.818764059420849
 30
0.0
 10
22.26607519260352
 20
7.851879271854517
 30
0.0
 10
21.92676995492851
 20
7.871850423362009
 30
0.0
 10
21.7516161254729
 20
7.881247691596189
 30
0.0
 10
21.74062090917099
 20
7.881833975575445
 30
0.0
  0
ARC
  5
122
330
1F
100
AcDbEntity
  8
0
  6
Continuous
 62
     7
370
    25
100
AcDbCircle
 10
23.7761562952
 20
7.3420811868
 30
0.0
 40
0.600000000000002
100
AcDbArc
 50
134.1384441568
 51
195.0
  0
ARC
  5
123
330
1F
100
AcDbEntity
  8
0
  6
Continuous
 62
     7
370
    25
100
AcDbCircle
 10
23.7761562952
 20
7.0314983326
 30
0.0
 40
0.6000000000000003
100
AcDbArc
 50
165.0
 51
225.8615558432
  0
CIRCLE
  5
124
330
1F
100
AcDbEntity
  8
0
  6
Continuous
 62
     7
370
    25
100
AcDbCircle
 10
20.9909424755
 20
7.1867897597
 30
0.0
 40
0.25
  0
CIRCLE
  5
125
330
1F
100
AcDbEntity
  8
0
  6
Continuous
 62
     7
370
    25
100
AcDbCircle
 10
22.4909424755
 20
7.1867897597
 30
0.0
 40
0.375
  0
LINE
  5
126
330
1F
100
AcDbEntity
  8
0
  6
Continuous
 62
     7
370
    25
100
AcDbLine
 10
18.8284424755
 20
7.4367897597
 30
0.0
 11
18.8284424755
 21
6.9367897597
 31
0.0
  0
LINE
  5
127
330
1F
100
AcDbEntity
  8
0
  6
Continuous
 62
     7
370
    25
100
AcDbLine
 10
18.8284424755
 20
6.9367897597
 30
0.0
 11
18.3909424755
 21
6.9367897597
 31
0.0
  0
LINE
  5
128
330
1F
100
AcDbEntity
  8
0
  6
Continuous
 62
     7
370
    25
100
AcDbLine
 10
18.3909424755
 20
6.9367897597
 30
0.0
 11
18.3909424755
 21
6.8117897597
 31
0.0
  0
LINE
  5
129
330
1F
100
AcDbEntity
  8
0
  6
Continuous
 62
     7
370
    25
100
AcDbLine
 10
18.3909424755
 20
6.8117897597
 30
0.0
 11
19.3909424755
 21
6.8117897597
 31
0.0
  0
LINE
  5
12A
330
1F
100
AcDbEntity
  8
0
  6
Continuous
 62
     7
370
    25
100
AcDbLine
 10
19.3909424755
 20
6.8117897597
 30
0.0
 11
19.3909424755
 21
6.9367897597
 31
0.0
  0
LINE
  5
12B
330
1F
100
AcDbEntity
  8
0
  6
Continuous
 62
     7
370
    25
100
AcDbLine
 10
19.3909424755
 20
6.9367897597
 30
0.0
 11
18.9534424755
 21
6.9367897597
 31
0.0
  0
LINE
  5
12C
330
1F
100
AcDbEntity
  8
0
  6
Continuous
 62
     7
370
    25
100
AcDbLine
 10
18.9534424755
 20
6.9367897597
 30
0.0
 11
18.9534424755
 21
7.4367897597
 31
0.0
  0
LINE
  5
12D
330
1F
100
AcDbEntity
  8
0
  6
Continuous
 62
     7
370
    25
100
AcDbLine
 10
18.9534424755
 20
7.4367897597
 30
0.0
 11
19.3909424755
 21
7.4367897597
 31
0.0
  0
LINE
  5
12E
330
1F
100
AcDbEntity
  8
0
  6
Continuous
 62
     7
370
    25
100
AcDbLine
 10
19.3909424755
 20
7.4367897597
 30
0.0
 11
19.3909424755
 21
7.5617897597
 31
0.0
  0
LINE
  5
12F
330
1F
100
AcDbEntity
  8
0
  6
Continuous
 62
     7
370
    25
100
AcDbLine
 10
19.3909424755
 20
7.5617897597
 30
0.0
 11
18.3909424755
 21
7.5617897597
 31
0.0
  0
LINE
  5
130
330
1F
100
AcDbEntity
  8
0
  6
Continuous
 62
     7
370
    25
100
AcDbLine
 10
18.3909424755
 20
7.5617897597
 30
0.0
 11
18.3909424755
 21
7.4367897597
 31
0.0
  0
LINE
  5
131
330
1F
100
AcDbEntity
  8
0
  6
Continuous
 62
     7
370
    25
100
AcDbLine
 10
18.3909424755
 20
7.4367897597
 30
0.0
 11
18.8284424755
 21
7.4367897597
 31
0.0
  0
SPLINE
  5
132
330
1F
100
AcDbEntity
  8
0
  6
Continuous
 62
     7
370
    25
100
AcDbSpline
210
0.0
220
0.0
230
1.0
 70
     8
 71
     3
 72
    23
 73
    19
 74
     0
 42
0.00000001
 43
0.00000001
 40
0.5117219338011876
 40
0.5117219338011876
 40
0.5117219338011876
 40
0.5117219338011876
 40
0.5176639821210082
 40
0.5248792961131608
 40
0.5333369629654922
 40
0.5430276954938428
 40
0.5539217994553907
 40
0.5659722448072366
 40
0.5791218147528919
 40
0.5933017264594819
 40
0.6084357253266888
 40
0.6244401342777423
 40
0.6412230229568748
 40
0.6586872632844586
 40
0.6767310408242455
 40
0.6952454979299151
 40
0.714120650088133
 40
0.7221937636893794
 40
0.7221937636893794
 40
0.7221937636893794
 40
0.7221937636893794
 10
16.16555434658639
 20
6.93678975965254
 30
0.0
 10
16.2077050083265
 20
6.908406232200295
 30
0.0
 10
16.30654844531124
 20
6.854229801441152
 30
0.0
 10
16.47765193958179
 20
6.784237839947818
 30
0.0
 10
16.68437001190955
 20
6.718906231280906
 30
0.0
 10
16.92519325774774
 20
6.659031265885146
 30
0.0
 10
17.19875321493565
 20
6.605196799338798
 30
0.0
 10
17.50344651092175
 20
6.558011552327335
 30
0.0
 10
17.83742677803563
 20
6.517968334427306
 30
0.0
 10
18.19865829952416
 20
6.485407854159447
 30
0.0
 10
18.5849305956224
 20
6.460584410269557
 30
0.0
 10
18.99386962273292
 20
6.443572694860284
 30
0.0
 10
19.42295828276718
 20
6.43432820793602
 30
0.0
 10
19.86955533915162
 20
6.432616611859373
 30
0.0
 10
20.33090740459078
 20
6.438107298010462
 30
0.0
 10
20.80417966152593
 20
6.450364523214364
 30
0.0
 10
21.192170221519
 20
6.46518773202084
 30
0.0
 10
21.42207523301457
 20
6.475752942760371
 30
0.0
 10
21.49094247545937
 20
6.479069592604142
 30
0.0
  0
SPLINE
  5
133
330
1F
100
AcDbEntity
  8
0
  6
Continuous
 62
     7
370
    25
100
AcDbSpline
210
0.0
220
0.0
230
1.0
 70
     8
 71
     3
 72
    12
 73
     8
 74
     0
 42
0.00000001
 43
0.00000001
 40
0.7319513975842445
 40
0.7319513975842445
 40
0.7319513975842445
 40
0.7319513975842445
 40
0.7332406729486812
 40
0.7524899202185761
 40
0.7717495381760754
 40
0.7909001807529373
 40
0.7952364970394581
 40
0.7952364970394581
 40
0.7952364970394581
 40
0.7952364970394581
 10
21.7406209091708
 20
6.491745543821618
 30
0.0
 10
21.75161612547278
 20
6.492331827800876
 30
0.0
 10
21.92676995492844
 20
6.50172909603506
 30
0.0
 10
22.26607519260352
 20
6.521700247542557
 30
0.0
 10
22.75739482776831
 20
6.554815459976223
 30
0.0
 10
23.12144391235462
 20
6.582117347627009
 30
0.0
 10
23.32140390901986
 20
6.597951526455121
 30
0.0
 10
23.35831960342697
 20
6.600902815886836
 30
0.0
  0
MTEXT
  5
134
330
1F
100
AcDbEntity
  8
PART_NAMES
100
AcDbMText
 10
19.8999628237
 20
6.8290017071
 30
0.0
 40
0.1666666667
 41
0.0
 71
     1
 72
     1
  1
HR1.4<6>
  7
SLDTEXTSTYLE0
 73
     1
 44
1.0
  0
ARC
  5
135
330
1F
100
AcDbEntity
  8
0
  6
Continuous
 62
     7
370
    25
100
AcDbCircle
 10
16.9828933383
 20
5.6611909553
 30
0.0
 40
0.6000000000000011
100
AcDbArc
 50
185.0348531868
 51
274.9379784937
  0
ARC
  5
136
330
1F
100
AcDbEntity
  8
0
  6
Continuous
 62
     7
370
    25
100
AcDbCircle
 10
16.9828933383
 20
5.5558768977
 30
0.0
 40
0.6000000000000023
100
AcDbArc
 50
85.0620215063
 51
174.9651468132
  0
LINE
  5
137
330
1F
100
AcDbEntity
  8
0
  6
Continuous
 62
     7
370
    25
100
AcDbLine
 10
21.4886707749
 20
5.6569835676
 30
0.0
 11
20.7318377208
 21
5.5603816793
 31
0.0
  0
LINE
  5
138
330
1F
100
AcDbEntity
  8
0
  6
Continuous
 62
     7
370
    25
100
AcDbLine
 10
20.7318377208
 20
5.5603816793
 30
0.0
 11
20.7444989625
 21
5.4611864528
 31
0.0
  0
LINE
  5
139
330
1F
100
AcDbEntity
  8
0
  6
Continuous
 62
     7
370
    25
100
AcDbLine
 10
18.8902689086
 20
5.5460339265
 30
0.0
 11
18.8902689086
 21
5.6710339265
 31
0.0
  0
LINE
  5
13A
330
1F
100
AcDbEntity
  8
0
  6
Continuous
 62
     7
370
    25
100
AcDbLine
 10
18.8902689086
 20
5.6710339265
 30
0.0
 11
16.8902689086
 21
5.6710339265
 31
0.0
  0
LINE
  5
13B
330
1F
100
AcDbEntity
  8
0
  6
Continuous
 62
     7
370
    25
100
AcDbLine
 10
16.8902689086
 20
5.6710339265
 30
0.0
 11
16.8902689086
 21
5.5460339265
 31
0.0
  0
LINE
  5
13C
330
1F
100
AcDbEntity
  8
0
  6
Continuous
 62
     7
370
    25
100
AcDbLine
 10
16.8902689086
 20
5.5460339265
 30
0.0
 11
18.8902689086
 21
5.5460339265
 31
0.0
  0
SPLINE
  5
13D
330
1F
100
AcDbEntity
  8
0
  6
Continuous
 62
     7
370
    25
100
AcDbSpline
210
0.0
220
0.0
230
1.0
 70
     8
 71
     3
 72
    21
 73
    17
 74
     0
 42
0.00000001
 43
0.00000001
 40
0.0093907486233847
 40
0.0093907486233847
 40
0.0093907486233847
 40
0.0093907486233847
 40
0.0121011758037585
 40
0.0188175356586858
 40
0.026939454793122
 40
0.0364148482585568
 40
0.0471846285955964
 40
0.0591804130998147
 40
0.0723278736139124
 40
0.0865440610891483
 40
0.1017405803365527
 40
0.1178233364335744
 40
0.134691452208322
 40
0.1522401544471546
 40
0.1703612899646366
 40
0.1843408189773168
 40
0.1843408189773168
 40
0.1843408189773168
 40
0.1843408189773168
 10
21.48867077498312
 20
5.656983567925104
 30
0.0
 10
21.46577699294849
 20
5.66019220764363
 30
0.0
 10
21.38645892374338
 20
5.671836018547843
 30
0.0
 10
21.23758865399471
 20
5.691329190839522
 30
0.0
 10
21.03188630892888
 20
5.718856258163602
 30
0.0
 10
20.79159151598159
 20
5.749972992701712
 30
0.0
 10
20.51844435715662
 20
5.78461744224632
 30
0.0
 10
20.21404121551177
 20
5.822182693276659
 30
0.0
 10
19.88028632992443
 20
5.862160354093644
 30
0.0
 10
19.51923117918431
 20
5.904054585024124
 30
0.0
 10
19.13309915457669
 20
5.94729500660272
 30
0.0
 10
18.72427224007755
 20
5.991353688284669
 30
0.0
 10
18.29527388081257
 20
6.035683415599655
 30
0.0
 10
17.84874795065408
 20
6.079712000722
 30
0.0
 10
17.42656535387361
 20
6.119165874106696
 30
0.0
 10
17.15348606260599
 20
6.143373248158241
 30
0.0
 10
17.03453973727725
 20
6.15364997293017
 30
0.0
  0
SPLINE
  5
13E
330
1F
100
AcDbEntity
  8
0
  6
Continuous
 62
     7
370
    25
100
AcDbSpline
210
0.0
220
0.0
230
1.0
 70
     8
 71
     3
 72
    17
 73
    13
 74
     0
 42
0.00000001
 43
0.00000001
 40
0.8144247972212597
 40
0.8144247972212597
 40
0.8144247972212597
 40
0.8144247972212597
 40
0.82840432623394
 40
0.8465254617514221
 40
0.8640741639902545
 40
0.8809422797650022
 40
0.8970250358620238
 40
0.9122215551094282
 40
0.926437742584664
 40
0.9395852030987617
 40
0.95158098760298
 40
0.9600665823462549
 40
0.9600665823462549
 40
0.9600665823462549
 40
0.9600665823462549
 10
17.03453973727725
 20
5.063417880067047
 30
0.0
 10
17.15348606260599
 20
5.073694604838977
 30
0.0
 10
17.42656535387361
 20
5.097901978890521
 30
0.0
 10
17.84874795065408
 20
5.137355852275217
 30
0.0
 10
18.29527388081257
 20
5.181384437397564
 30
0.0
 10
18.72427224007755
 20
5.225714164712548
 30
0.0
 10
19.13309915457669
 20
5.269772846394497
 30
0.0
 10
19.51923117918432
 20
5.313013267973093
 30
0.0
 10
19.88028632992442
 20
5.354907498903574
 30
0.0
 10
20.21404121551178
 20
5.394885159720559
 30
0.0
 10
20.4990833241063
 20
5.430061138213131
 30
0.0
 10
20.6726110432722
 20
5.452010705683985
 30
0.0
 10
20.74449896245049
 20
5.461186452828056
 30
0.0
  0
MTEXT
  5
13F
330
1F
100
AcDbEntity
  8
PART_NAMES
100
AcDbMText
 10
19.0530273581
 20
5.7080876235
 30
0.0
 40
0.1666666667
 41
0.0
 71
     1
 72
     1
  1
HRCS<6>
  7
SLDTEXTSTYLE0
 73
     1
 44
1.0
  0
LINE
  5
140
330
1F
100
AcDbEntity
  8
0
  6
Continuous
 62
     7
370
    25
100
AcDbLine
 10
5.9949804773
 20
2.8516952585
 30
0.0
 11
5.9822882004
 21
3.1016952585
 31
0.0
  0
LINE
  5
141
330
1F
100
AcDbEntity
  8
0
  6
Continuous
 62
     7
370
    25
100
AcDbLine
 10
5.9822882004
 20
3.1016952585
 30
0.0
 11
5.7326097667
 21
3.0890193072
 31
0.0
  0
LINE
  5
142
330
1F
100
AcDbEntity
  8
0
  6
Continuous
 62
     7
370
    25
100
AcDbLine
 10
5.7326097667
 20
3.0890193072
 30
0.0
 11
5.7453020436
 21
2.8390193072
 31
0.0
  0
LINE
  5
143
330
1F
100
AcDbEntity
  8
0
  6
Continuous
 62
     7
370
    25
100
AcDbLine
 10
0.7453020436
 20
3.2967394743
 30
0.0
 11
0.4199139147
 21
3.2967394743
 31
0.0
  0
LINE
  5
144
330
1F
100
AcDbEntity
  8
0
  6
Continuous
 62
     7
370
    25
100
AcDbLine
 10
0.7453020436
 20
3.7967394743
 30
0.0
 11
0.7453020436
 21
3.2967394743
 31
0.0
  0
LINE
  5
145
330
1F
100
AcDbEntity
  8
0
  6
Continuous
 62
     7
370
    25
100
AcDbLine
 10
0.7453020436
 20
3.7967394743
 30
0.0
 11
0.4199139147
 21
3.7967394743
 31
0.0
  0
SPLINE
  5
146
330
1F
100
AcDbEntity
  8
0
  6
Continuous
 62
     7
370
    25
100
AcDbSpline
210
0.0
220
0.0
230
1.0
 70
     8
 71
     3
 72
    23
 73
    19
 74
     0
 42
0.00000001
 43
0.00000001
 40
0.2765718525091989
 40
0.2765718525091989
 40
0.2765718525091989
 40
0.2765718525091989
 40
0.2846449661104438
 40
0.3035201182686616
 40
0.3220345753743312
 40
0.3400783529141181
 40
0.3575425932417018
 40
0.3743254819208344
 40
0.3903298908718879
 40
0.4054638897390948
 40
0.4196438014456847
 40
0.4327933713913401
 40
0.444843816743186
 40
0.4557379207047339
 40
0.4654286532330845
 40
0.4738863200854159
 40
0.4811016340775686
 40
0.4870436823973892
 40
0.4870436823973892
 40
0.4870436823973892
 40
0.4870436823973892
 10
5.745302043552869
 20
4.254459641432251
 30
0.0
 10
5.676434801108084
 20
4.257776291276022
 30
0.0
 10
5.446529789612522
 20
4.268341502015552
 30
0.0
 10
5.058539229619463
 20
4.283164710822027
 30
0.0
 10
4.585266972684315
 20
4.295421936025929
 30
0.0
 10
4.123914907245164
 20
4.300912622177018
 30
0.0
 10
3.677317850860715
 20
4.299201026100371
 30
0.0
 10
3.248229190826458
 20
4.289956539176107
 30
0.0
 10
2.839290163715932
 20
4.272944823766834
 30
0.0
 10
2.453017867617695
 20
4.248121379876945
 30
0.0
 10
2.091786346129171
 20
4.215560899609085
 30
0.0
 10
1.757806079015295
 20
4.175517681709057
 30
0.0
 10
1.453112783029184
 20
4.128332434697593
 30
0.0
 10
1.179552825841275
 20
4.074497968151244
 30
0.0
 10
0.9387295800030871
 20
4.014623002755486
 30
0.0
 10
0.732011507675327
 20
3.949291394088573
 30
0.0
 10
0.5609080134047817
 20
3.879299432595239
 30
0.0
 10
0.4620645764200333
 20
3.825123001836097
 30
0.0
 10
0.4199139146799235
 20
3.796739474383851
 30
0.0
  0
LINE
  5
147
330
1F
100
AcDbEntity
  8
0
  6
Continuous
 62
     7
370
    25
100
AcDbLine
 10
5.7453020436
 20
4.2544596414
 30
0.0
 11
5.7326097667
 21
4.0044596414
 31
0.0
  0
LINE
  5
148
330
1F
100
AcDbEntity
  8
0
  6
Continuous
 62
     7
370
    25
100
AcDbLine
 10
5.7326097667
 20
4.0044596414
 30
0.0
 11
5.9822882004
 21
3.9917836902
 31
0.0
  0
LINE
  5
149
330
1F
100
AcDbEntity
  8
0
  6
Continuous
 62
     7
370
    25
100
AcDbLine
 10
5.9822882004
 20
3.9917836902
 30
0.0
 11
5.9949804773
 21
4.2417836902
 31
0.0
  0
SPLINE
  5
14A
330
1F
100
AcDbEntity
  8
0
  6
Continuous
 62
     7
370
    25
100
AcDbSpline
210
0.0
220
0.0
230
1.0
 70
     8
 71
     3
 72
    12
 73
     8
 74
     0
 42
0.00000001
 43
0.00000001
 40
0.2035291191591187
 40
0.2035291191591187
 40
0.2035291191591187
 40
0.2035291191591187
 40
0.2078654354456393
 40
0.2270160780225014
 40
0.2462756959800007
 40
0.2655249432498956
 40
0.2668142186143249
 40
0.2668142186143249
 40
0.2668142186143249
 40
0.2668142186143249
 10
7.612679171520503
 20
4.132626418149556
 30
0.0
 10
7.575763477113401
 20
4.135577707581271
 30
0.0
 10
7.375803480448157
 20
4.151411886409383
 30
0.0
 10
7.011754395861844
 20
4.178713774060168
 30
0.0
 10
6.520434760697055
 20
4.211828986493835
 30
0.0
 10
6.181129523022043
 20
4.231800138001327
 30
0.0
 10
6.005975693566437
 20
4.241197406235508
 30
0.0
 10
5.994980477264525
 20
4.241783690214763
 30
0.0
  0
ARC
  5
14B
330
1F
100
AcDbEntity
  8
0
  6
Continuous
 62
     7
370
    25
100
AcDbCircle
 10
8.0305158632
 20
3.7020309014
 30
0.0
 40
0.6000000000000001
100
AcDbArc
 50
134.1384441568
 51
195.0
  0
ARC
  5
14C
330
1F
100
AcDbEntity
  8
0
  6
Continuous
 62
     7
370
    25
100
AcDbCircle
 10
8.0305158632
 20
3.3914480473
 30
0.0
 40
0.6000000000000001
100
AcDbArc
 50
165.0
 51
225.8615558432
  0
CIRCLE
  5
14D
330
1F
100
AcDbEntity
  8
0
  6
Continuous
 62
     7
370
    25
100
AcDbCircle
 10
5.2453020436
 20
3.5467394743
 30
0.0
 40
0.2499999999999991
  0
CIRCLE
  5
14E
330
1F
100
AcDbEntity
  8
0
  6
Continuous
 62
     7
370
    25
100
AcDbCircle
 10
6.7453020436
 20
3.5467394743
 30
0.0
 40
0.3750000000000009
  0
LINE
  5
14F
330
1F
100
AcDbEntity
  8
0
  6
Continuous
 62
     7
370
    25
100
AcDbLine
 10
3.0828020436
 20
3.7967394743
 30
0.0
 11
3.0828020436
 21
3.2967394743
 31
0.0
  0
LINE
  5
150
330
1F
100
AcDbEntity
  8
0
  6
Continuous
 62
     7
370
    25
100
AcDbLine
 10
3.0828020436
 20
3.2967394743
 30
0.0
 11
2.6453020436
 21
3.2967394743
 31
0.0
  0
LINE
  5
151
330
1F
100
AcDbEntity
  8
0
  6
Continuous
 62
     7
370
    25
100
AcDbLine
 10
2.6453020436
 20
3.2967394743
 30
0.0
 11
2.6453020436
 21
3.1717394743
 31
0.0
  0
LINE
  5
152
330
1F
100
AcDbEntity
  8
0
  6
Continuous
 62
     7
370
    25
100
AcDbLine
 10
2.6453020436
 20
3.1717394743
 30
0.0
 11
3.6453020436
 21
3.1717394743
 31
0.0
  0
LINE
  5
153
330
1F
100
AcDbEntity
  8
0
  6
Continuous
 62
     7
370
    25
100
AcDbLine
 10
3.6453020436
 20
3.1717394743
 30
0.0
 11
3.6453020436
 21
3.2967394743
 31
0.0
  0
LINE
  5
154
330
1F
100
AcDbEntity
  8
0
  6
Continuous
 62
     7
370
    25
100
AcDbLine
 10
3.6453020436
 20
3.2967394743
 30
0.0
 11
3.2078020436
 21
3.2967394743
 31
0.0
  0
LINE
  5
155
330
1F
100
AcDbEntity
  8
0
  6
Continuous
 62
     7
370
    25
100
AcDbLine
 10
3.2078020436
 20
3.2967394743
 30
0.0
 11
3.2078020436
 21
3.7967394743
 31
0.0
  0
LINE
  5
156
330
1F
100
AcDbEntity
  8
0
  6
Continuous
 62
     7
370
    25
100
AcDbLine
 10
3.2078020436
 20
3.7967394743
 30
0.0
 11
3.6453020436
 21
3.7967394743
 31
0.0
  0
LINE
  5
157
330
1F
100
AcDbEntity
  8
0
  6
Continuous
 62
     7
370
    25
100
AcDbLine
 10
3.6453020436
 20
3.7967394743
 30
0.0
 11
3.6453020436
 21
3.9217394743
 31
0.0
  0
LINE
  5
158
330
1F
100
AcDbEntity
  8
0
  6
Continuous
 62
     7
370
    25
100
AcDbLine
 10
3.6453020436
 20
3.9217394743
 30
0.0
 11
2.6453020436
 21
3.9217394743
 31
0.0
  0
LINE
  5
159
330
1F
100
AcDbEntity
  8
0
  6
Continuous
 62
     7
370
    25
100
AcDbLine
 10
2.6453020436
 20
3.9217394743
 30
0.0
 11
2.6453020436
 21
3.7967394743
 31
0.0
  0
LINE
  5
15A
330
1F
100
AcDbEntity
  8
0
  6
Continuous
 62
     7
370
    25
100
AcDbLine
 10
2.6453020436
 20
3.7967394743
 30
0.0
 11
3.0828020436
 21
3.7967394743
 31
0.0
  0
SPLINE
  5
15B
330
1F
100
AcDbEntity
  8
0
  6
Continuous
 62
     7
370
    25
100
AcDbSpline
210
0.0
220
0.0
230
1.0
 70
     8
 71
     3
 72
    23
 73
    19
 74
     0
 42
0.00000001
 43
0.00000001
 40
0.5117219338011876
 40
0.5117219338011876
 40
0.5117219338011876
 40
0.5117219338011876
 40
0.5176639821210082
 40
0.5248792961131608
 40
0.5333369629654922
 40
0.5430276954938428
 40
0.5539217994553907
 40
0.5659722448072366
 40
0.5791218147528919
 40
0.5933017264594819
 40
0.6084357253266888
 40
0.6244401342777423
 40
0.6412230229568748
 40
0.6586872632844586
 40
0.6767310408242455
 40
0.6952454979299151
 40
0.714120650088133
 40
0.7221937636893794
 40
0.7221937636893794
 40
0.7221937636893794
 40
0.7221937636893794
 10
0.4199139146799246
 20
3.296739474291858
 30
0.0
 10
0.4620645764200333
 20
3.268355946839613
 30
0.0
 10
0.5609080134047817
 20
3.21417951608047
 30
0.0
 10
0.732011507675328
 20
3.144187554587137
 30
0.0
 10
0.9387295800030871
 20
3.078855945920224
 30
0.0
 10
1.179552825841275
 20
3.018980980524466
 30
0.0
 10
1.453112783029185
 20
2.965146513978116
 30
0.0
 10
1.757806079015293
 20
2.917961266966652
 30
0.0
 10
2.091786346129171
 20
2.877918049066624
 30
0.0
 10
2.453017867617696
 20
2.845357568798764
 30
0.0
 10
2.839290163715932
 20
2.820534124908876
 30
0.0
 10
3.248229190826457
 20
2.803522409499601
 30
0.0
 10
3.677317850860716
 20
2.794277922575339
 30
0.0
 10
4.123914907245162
 20
2.792566326498692
 30
0.0
 10
4.585266972684317
 20
2.798057012649781
 30
0.0
 10
5.058539229619465
 20
2.810314237853682
 30
0.0
 10
5.446529789612534
 20
2.825137446660158
 30
0.0
 10
5.676434801108107
 20
2.835702657399689
 30
0.0
 10
5.745302043552904
 20
2.83901930724346
 30
0.0
  0
SPLINE
  5
15C
330
1F
100
AcDbEntity
  8
0
  6
Continuous
 62
     7
370
    25
100
AcDbSpline
210
0.0
220
0.0
230
1.0
 70
     8
 71
     3
 72
    12
 73
     8
 74
     0
 42
0.00000001
 43
0.00000001
 40
0.7319513975842445
 40
0.7319513975842445
 40
0.7319513975842445
 40
0.7319513975842445
 40
0.7332406729486812
 40
0.7524899202185761
 40
0.7717495381760754
 40
0.7909001807529373
 40
0.7952364970394581
 40
0.7952364970394581
 40
0.7952364970394581
 40
0.7952364970394581
 10
5.994980477264336
 20
2.851695258460937
 30
0.0
 10
6.00597569356631
 20
2.852281542440194
 30
0.0
 10
6.181129523021979
 20
2.861678810674378
 30
0.0
 10
6.520434760697056
 20
2.881649962181875
 30
0.0
 10
7.011754395861846
 20
2.914765174615542
 30
0.0
 10
7.375803480448157
 20
2.942067062266327
 30
0.0
 10
7.575763477113402
 20
2.957901241094439
 30
0.0
 10
7.612679171520504
 20
2.960852530526154
 30
0.0
  0
MTEXT
  5
15D
330
1F
100
AcDbEntity
  8
PART_NAMES
100
AcDbMText
 10
4.082217665
 20
3.2159016697
 30
0.0
 40
0.1666666667
 41
0.0
 71
     1
 72
     1
  1
HR1.4<7>
  7
SLDTEXTSTYLE0
 73
     1
 44
1.0
  0
CIRCLE
  5
15E
330
1F
100
AcDbEntity
  8
0
  6
Continuous
 62
     7
370
    25
100
AcDbCircle
 10
3.08025603
 20
1.6270248927
 30
0.0
 40
0.2499999999999996
  0
SPLINE
  5
15F
330
1F
100
AcDbEntity
  8
0
  6
Continuous
 62
     7
370
    25
100
AcDbSpline
210
0.0
220
0.0
230
1.0
 70
     8
 71
     3
 72
    16
 73
    12
 74
     0
 42
0.00000001
 43
0.00000001
 40
0.2495903087313201
 40
0.2495903087313201
 40
0.2495903087313201
 40
0.2495903087313201
 40
0.2502819304004726
 40
0.2838701567336951
 40
0.3188219977472166
 40
0.354933688380441
 40
0.391987367731552
 40
0.429762919657396
 40
0.4680285405296232
 40
0.5065527830725232
 40
0.5299440766861687
 40
0.5299440766861687
 40
0.5299440766861687
 40
0.5299440766861687
 10
2.569841141472247
 20
1.130841748891517
 30
0.0
 10
2.571815557956129
 20
1.130778112094114
 30
0.0
 10
2.669677075677033
 20
1.127644738967071
 30
0.0
 10
2.86738214851329
 20
1.123385288377305
 30
0.0
 10
3.166299699541596
 20
1.122239678254286
 30
0.0
 10
3.475093114043962
 20
1.125914719184119
 30
0.0
 10
3.791864983176261
 20
1.134118758364334
 30
0.0
 10
4.114657721728709
 20
1.146451079451692
 30
0.0
 10
4.441490517152879
 20
1.162509355832303
 30
0.0
 10
4.727137096792679
 20
1.179322214838241
 30
0.0
 10
4.903600303742413
 20
1.190919435333778
 30
0.0
 10
4.970256029965205
 20
1.195461463345769
 30
0.0
  0
LINE
  5
160
330
1F
100
AcDbEntity
  8
0
  6
Continuous
 62
     7
370
    25
100
AcDbLine
 10
2.5698411415
 20
1.1308417489
 30
0.0
 11
2.58025603
 21
1.3806247149
 31
0.0
  0
LINE
  5
161
330
1F
100
AcDbEntity
  8
0
  6
Continuous
 62
     7
370
    25
100
AcDbLine
 10
2.58025603
 20
1.3806247149
 30
0.0
 11
2.330473064
 21
1.3910396034
 31
0.0
  0
LINE
  5
162
330
1F
100
AcDbEntity
  8
0
  6
Continuous
 62
     7
370
    25
100
AcDbLine
 10
2.330473064
 20
1.3910396034
 30
0.0
 11
2.3200581755
 21
1.1412566374
 31
0.0
  0
LINE
  5
163
330
1F
100
AcDbEntity
  8
0
  6
Continuous
 62
     7
370
    25
100
AcDbLine
 10
0.5852480551
 20
1.5645248927
 30
0.0
 11
1.07025603
 21
1.5645248927
 31
0.0
  0
LINE
  5
164
330
1F
100
AcDbEntity
  8
0
  6
Continuous
 62
     7
370
    25
100
AcDbLine
 10
1.07025603
 20
1.5645248927
 30
0.0
 11
1.07025603
 21
1.6895248927
 31
0.0
  0
LINE
  5
165
330
1F
100
AcDbEntity
  8
0
  6
Continuous
 62
     7
370
    25
100
AcDbLine
 10
1.07025603
 20
1.6895248927
 30
0.0
 11
0.5852480554
 21
1.6895248927
 31
0.0
  0
SPLINE
  5
166
330
1F
100
AcDbEntity
  8
0
  6
Continuous
 62
     7
370
    25
100
AcDbSpline
210
0.0
220
0.0
230
1.0
 70
     8
 71
     3
 72
    19
 73
    15
 74
     0
 42
0.00000001
 43
0.00000001
 40
0.7795859329037244
 40
0.7795859329037244
 40
0.7795859329037244
 40
0.7795859329037244
 40
0.7817482951736161
 40
0.8120365363099894
 40
0.8404153269277361
 40
0.8667320558272357
 40
0.8908490653380708
 40
0.9126518453334536
 40
0.9320462728196868
 40
0.9489729195917836
 40
0.9634131988587862
 40
0.9754213252737876
 40
0.985175212219397
 40
0.992483422923562
 40
0.992483422923562
 40
0.992483422923562
 40
0.992483422923562
 10
2.320058175483795
 20
2.112793148105681
 30
0.0
 10
2.31389014791386
 20
2.112474399129254
 30
0.0
 10
2.221330109665382
 20
2.107619109630371
 30
0.0
 10
2.047930345176523
 20
2.096475729917822
 30
0.0
 10
1.806149977313455
 20
2.074682261053276
 30
0.0
 10
1.582609091254801
 20
2.047880425964813
 30
0.0
 10
1.378671959689864
 20
2.016298268602557
 30
0.0
 10
1.195568826745051
 20
1.980265637607392
 30
0.0
 10
1.034390508359085
 20
1.940189963557641
 30
0.0
 10
0.8959985098217542
 20
1.896462034250703
 30
0.0
 10
0.7812587769892202
 20
1.849489114616695
 30
0.0
 10
0.6900656746680082
 20
1.799588998539433
 30
0.0
 10
0.6252387574588818
 20
1.747746931754541
 30
0.0
 10
0.5938654737900213
 20
1.708337445563398
 30
0.0
 10
0.5852480554194334
 20
1.689524892741468
 30
0.0
  0
LINE
  5
167
330
1F
100
AcDbEntity
  8
0
  6
Continuous
 62
     7
370
    25
100
AcDbLine
 10
2.3200581755
 20
2.1127931481
 30
0.0
 11
2.330473064
 21
1.8630101821
 31
0.0
  0
LINE
  5
168
330
1F
100
AcDbEntity
  8
0
  6
Continuous
 62
     7
370
    25
100
AcDbLine
 10
2.330473064
 20
1.8630101821
 30
0.0
 11
2.58025603
 21
1.8734250706
 31
0.0
  0
LINE
  5
169
330
1F
100
AcDbEntity
  8
0
  6
Continuous
 62
     7
370
    25
100
AcDbLine
 10
2.58025603
 20
1.8734250706
 30
0.0
 11
2.5698411415
 21
2.1232080366
 31
0.0
  0
SPLINE
  5
16A
330
1F
100
AcDbEntity
  8
0
  6
Continuous
 62
     7
370
    25
100
AcDbSpline
210
0.0
220
0.0
230
1.0
 70
     8
 71
     3
 72
    16
 73
    12
 74
     0
 42
0.00000001
 43
0.00000001
 40
0.4700559233141821
 40
0.4700559233141821
 40
0.4700559233141821
 40
0.4700559233141821
 40
0.4934472169274768
 40
0.5319714594703768
 40
0.570237080342604
 40
0.608012632268448
 40
0.645066311619559
 40
0.6811780022527834
 40
0.7161298432663049
 40
0.7497180695995274
 40
0.7504096912686871
 40
0.7504096912686871
 40
0.7504096912686871
 40
0.7504096912686871
 10
4.970256029962195
 20
2.058588322142929
 30
0.0
 10
4.903600303740403
 20
2.063130350154847
 30
0.0
 10
4.727137096791669
 20
2.074727570650311
 30
0.0
 10
4.441490517152869
 20
2.09154042965619
 30
0.0
 10
4.114657721728701
 20
2.107598706036802
 30
0.0
 10
3.791864983176257
 20
2.11993102712416
 30
0.0
 10
3.475093114043958
 20
2.128135066304375
 30
0.0
 10
3.16629969954159
 20
2.131810107234208
 30
0.0
 10
2.867382148513286
 20
2.130664497111189
 30
0.0
 10
2.669677075677008
 20
2.126405046521422
 30
0.0
 10
2.571815557956083
 20
2.123271673394378
 30
0.0
 10
2.569841141472182
 20
2.123208036596975
 30
0.0
  0
LINE
  5
16B
330
1F
100
AcDbEntity
  8
0
  6
Continuous
 62
     7
370
    25
100
AcDbLine
 10
4.97025603
 20
2.0585883222
 30
0.0
 11
4.97025603
 21
1.1954614634
 31
0.0
  0
SPLINE
  5
16C
330
1F
100
AcDbEntity
  8
0
  6
Continuous
 62
     7
370
    25
100
AcDbSpline
210
0.0
220
0.0
230
1.0
 70
     8
 71
     3
 72
    19
 73
    15
 74
     0
 42
0.00000001
 43
0.00000001
 40
0.0075165770622576
 40
0.0075165770622576
 40
0.0075165770622576
 40
0.0075165770622576
 40
0.014824787780603
 40
0.0245786747262124
 40
0.0365868011412138
 40
0.0510270804082164
 40
0.0679537271803132
 40
0.0873481546665464
 40
0.1091509346619292
 40
0.1332679441727643
 40
0.1595846730722639
 40
0.1879634636900106
 40
0.2182517048263839
 40
0.2204140670962836
 40
0.2204140670962836
 40
0.2204140670962836
 40
0.2204140670962836
 10
0.5852480553692712
 20
1.564524892856535
 30
0.0
 10
0.5938654737378722
 20
1.545712339990604
 30
0.0
 10
0.6252387574272593
 20
1.506302853759242
 30
0.0
 10
0.6900656746680084
 20
1.454460786949062
 30
0.0
 10
0.781258776989221
 20
1.404560670871799
 30
0.0
 10
0.8959985098217548
 20
1.357587751237791
 30
0.0
 10
1.034390508359087
 20
1.313859821930854
 30
0.0
 10
1.195568826745051
 20
1.273784147881102
 30
0.0
 10
1.378671959689865
 20
1.237751516885937
 30
0.0
 10
1.582609091254803
 20
1.20616935952368
 30
0.0
 10
1.806149977313456
 20
1.179367524435217
 30
0.0
 10
2.047930345176526
 20
1.157574055570673
 30
0.0
 10
2.221330109665408
 20
1.146430675858122
 30
0.0
 10
2.313890147913909
 20
1.141575386359237
 30
0.0
 10
2.320058175483867
 20
1.141256637382809
 30
0.0
  0
MTEXT
  5
16D
330
1F
100
AcDbEntity
  8
PART_NAMES
100
AcDbMText
 10
3.6927632698
 20
1.6659128634
 30
0.0
 40
0.1666666667
 41
0.0
 71
     1
 72
     1
  1
VR<6>
  7
SLDTEXTSTYLE0
 73
     1
 44
1.0
  0
LINE
  5
16E
330
1F
100
AcDbEntity
  8
0
  6
Continuous
 62
     7
370
    25
100
AcDbLine
 10
5.5142742667
 20
1.2124463787
 30
0.0
 11
5.27491725
 21
1.6270248927
 31
0.0
  0
LINE
  5
16F
330
1F
100
AcDbEntity
  8
0
  6
Continuous
 62
     7
370
    25
100
AcDbLine
 10
5.27491725
 20
1.6270248927
 30
0.0
 11
5.5142742667
 21
2.0416034068
 31
0.0
  0
LINE
  5
170
330
1F
100
AcDbEntity
  8
0
  6
Continuous
 62
     7
370
    25
100
AcDbLine
 10
8.8371172737
 20
1.6971491732
 30
0.0
 11
7.2751889476
 21
1.4977510884
 31
0.0
  0
LINE
  5
171
330
1F
100
AcDbEntity
  8
0
  6
Continuous
 62
     7
370
    25
100
AcDbLine
 10
7.2751889476
 20
1.4977510884
 30
0.0
 11
7.2910181661
 21
1.3737573956
 31
0.0
  0
SPLINE
  5
172
330
1F
100
AcDbEntity
  8
0
  6
Continuous
 62
     7
370
    25
100
AcDbSpline
210
0.0
220
0.0
230
1.0
 70
     8
 71
     3
 72
    21
 73
    17
 74
     0
 42
0.00000001
 43
0.00000001
 40
0.0521313825302892
 40
0.0521313825302892
 40
0.0521313825302892
 40
0.0521313825302892
 40
0.0544813480050881
 40
0.0734448093256102
 40
0.0949987757753401
 40
0.1190063904759743
 40
0.1453188976907598
 40
0.1737702883686622
 40
0.204183653893373
 40
0.236370678557395
 40
0.2701294730825404
 40
0.3052503508957334
 40
0.3415168609592228
 40
0.3787011491623359
 40
0.4165753178753017
 40
0.4420514707109149
 40
0.4420514707109149
 40
0.4420514707109149
 40
0.4420514707109149
 10
8.837117273689532
 20
1.697149173204755
 30
0.0
 10
8.830458818239062
 20
1.698017313272617
 30
0.0
 10
8.770068958436926
 20
1.705883452561442
 30
0.0
 10
8.648690989564711
 20
1.721733878768427
 30
0.0
 10
8.46583949550559
 20
1.744868711041192
 30
0.0
 10
8.262104353809269
 20
1.770028845705968
 30
0.0
 10
8.038711924009686
 20
1.796781614900226
 30
0.0
 10
7.797050328155267
 20
1.824823939062063
 30
0.0
 10
7.538603153562657
 20
1.853765271631582
 30
0.0
 10
7.26496608616496
 20
1.883254883157085
 30
0.0
 10
6.977827721779517
 20
1.912925737353322
 30
0.0
 10
6.678957782281183
 20
1.942395080322751
 30
0.0
 10
6.37019968157015
 20
1.971249186869328
 30
0.0
 10
6.053454895286961
 20
1.999109280285234
 30
0.0
 10
5.767262067850705
 20
2.022517455141
 30
0.0
 10
5.586842458392696
 20
2.036254740344138
 30
0.0
 10
5.514274266682275
 20
2.041603406822342
 30
0.0
  0
SPLINE
  5
173
330
1F
100
AcDbEntity
  8
0
  6
Continuous
 62
     7
370
    25
100
AcDbSpline
210
0.0
220
0.0
230
1.0
 70
     8
 71
     3
 72
    14
 73
    10
 74
     0
 42
0.00000001
 43
0.00000001
 40
0.5579485292890838
 40
0.5579485292890838
 40
0.5579485292890838
 40
0.5579485292890838
 40
0.5834246821246982
 40
0.6212988508376641
 40
0.6584831390407772
 40
0.6947496491042666
 40
0.7298705269174596
 40
0.763629321442605
 40
0.7661653108007729
 40
0.7661653108007729
 40
0.7661653108007729
 40
0.7661653108007729
 10
5.514274266682275
 20
1.212446378666151
 30
0.0
 10
5.586842458392699
 20
1.217795045144355
 30
0.0
 10
5.767262067850712
 20
1.231532330347494
 30
0.0
 10
6.053454895286974
 20
1.25494050520326
 30
0.0
 10
6.37019968157016
 20
1.282800598619166
 30
0.0
 10
6.678957782281197
 20
1.311654705165743
 30
0.0
 10
6.977827721779527
 20
1.341124048135172
 30
0.0
 10
7.180725183547376
 20
1.36209004136908
 30
0.0
 10
7.283815189423378
 20
1.372994279442107
 30
0.0
 10
7.29101816613093
 20
1.373757395612706
 30
0.0
  0
MTEXT
  5
174
330
1F
100
AcDbEntity
  8
PART_NAMES
100
AcDbMText
 10
5.7385986585
 20
1.7154088809
 30
0.0
 40
0.1666666667
 41
0.0
 71
     1
 72
     1
  1
VRCS<6>
  7
SLDTEXTSTYLE0
 73
     1
 44
1.0
  0
CIRCLE
  5
175
330
1F
100
AcDbEntity
  8
0
  6
Continuous
 62
     7
370
    25
100
AcDbCircle
 10
10.8121967051
 20
3.5643247166
 30
0.0
 40
0.25
  0
SPLINE
  5
176
330
1F
100
AcDbEntity
  8
0
  6
Continuous
 62
     7
370
    25
100
AcDbSpline
210
0.0
220
0.0
230
1.0
 70
     8
 71
     3
 72
    15
 73
    11
 74
     0
 42
0.00000001
 43
0.00000001
 40
0.284318802330754
 40
0.284318802330754
 40
0.284318802330754
 40
0.284318802330754
 40
0.3188219977472166
 40
0.354933688380441
 40
0.391987367731552
 40
0.429762919657396
 40
0.4680285405296232
 40
0.5065527830725232
 40
0.5450977808625769
 40
0.5788462054024464
 40
0.5788462054024464
 40
0.5788462054024464
 40
0.5788462054024464
 10
10.30727607036285
 20
3.002895756751232
 30
0.0
 10
10.41731390564984
 20
3.001505749050557
 30
0.0
 10
10.64254300605868
 20
3.000664922957692
 30
0.0
 10
10.98593144898629
 20
3.004751689460223
 30
0.0
 10
11.33966003618402
 20
3.013912866544796
 30
0.0
 10
11.70011192756759
 20
3.027683958425679
 30
0.0
 10
12.06507521579125
 20
3.045615700384029
 30
0.0
 10
12.43229589926285
 20
3.067229925847739
 30
0.0
 10
12.78494350524461
 20
3.090998567564553
 30
0.0
 10
13.01488117035553
 20
3.108138699347635
 30
0.0
 10
13.12219670509842
 20
3.116465381023839
 30
0.0
  0
LINE
  5
177
330
1F
100
AcDbEntity
  8
0
  6
Continuous
 62
     7
370
    25
100
AcDbLine
 10
10.3072760704
 20
3.0028957568
 30
0.0
 11
10.3121967051
 21
3.2528473268
 31
0.0
  0
LINE
  5
178
330
1F
100
AcDbEntity
  8
0
  6
Continuous
 62
     7
370
    25
100
AcDbLine
 10
10.3121967051
 20
3.2528473268
 30
0.0
 11
10.0622451351
 21
3.2577679615
 31
0.0
  0
LINE
  5
179
330
1F
100
AcDbEntity
  8
0
  6
Continuous
 62
     7
370
    25
100
AcDbLine
 10
10.0622451351
 20
3.2577679615
 30
0.0
 11
10.0573245003
 21
3.0078163915
 31
0.0
  0
SPLINE
  5
17A
330
1F
100
AcDbEntity
  8
0
  6
Continuous
 62
     7
370
    25
100
AcDbSpline
210
0.0
220
0.0
230
1.0
 70
     8
 71
     3
 72
    21
 73
    17
 74
     0
 42
0.00000001
 43
0.00000001
 40
0.0066808766550756
 40
0.0066808766550756
 40
0.0066808766550756
 40
0.0066808766550756
 40
0.0069088781909513
 40
0.014824787780603
 40
0.0245786747262124
 40
0.0365868011412138
 40
0.0510270804082164
 40
0.0679537271803132
 40
0.0873481546665464
 40
0.1091509346619292
 40
0.1332679441727643
 40
0.1595846730722639
 40
0.1879634636900106
 40
0.2182517048263839
 40
0.2502819304004726
 40
0.2581908994381035
 40
0.2581908994381035
 40
0.2581908994381035
 40
0.2581908994381035
 10
7.755853548210126
 20
3.501824716577102
 30
0.0
 10
7.756114018464077
 20
3.501153884184163
 30
0.0
 10
7.765609865027665
 20
3.477266071024375
 30
0.0
 10
7.802080805212376
 20
3.430728608418962
 30
0.0
 10
7.875984141683141
 20
3.371628131797742
 30
0.0
 10
7.977816439275161
 20
3.315906335511466
 30
0.0
 10
8.10594247427149
 20
3.263453241920157
 30
0.0
 10
8.260480205971511
 20
3.214623720860744
 30
0.0
 10
8.440462661502506
 20
3.169872551505188
 30
0.0
 10
8.644927826624214
 20
3.129636113560587
 30
0.0
 10
8.872657623538394
 20
3.094369371172733
 30
0.0
 10
9.122278279637225
 20
3.064440655323949
 30
0.0
 10
9.392266357084319
 20
3.040104615091875
 30
0.0
 10
9.680970303030078
 20
3.021551315993297
 30
0.0
 10
9.904778276104976
 20
3.012240985105135
 30
0.0
 10
10.0321083527015
 20
3.008498759924429
 30
0.0
 10
10.05732450034615
 20
3.007816391484805
 30
0.0
  0
LINE
  5
17B
330
1F
100
AcDbEntity
  8
0
  6
Continuous
 62
     7
370
    25
100
AcDbLine
 10
7.7558535483
 20
3.5018247166
 30
0.0
 11
8.2421967051
 21
3.5018247166
 31
0.0
  0
LINE
  5
17C
330
1F
100
AcDbEntity
  8
0
  6
Continuous
 62
     7
370
    25
100
AcDbLine
 10
8.2421967051
 20
3.5018247166
 30
0.0
 11
8.2421967051
 21
3.6268247166
 31
0.0
  0
LINE
  5
17D
330
1F
100
AcDbEntity
  8
0
  6
Continuous
 62
     7
370
    25
100
AcDbLine
 10
8.2421967051
 20
3.6268247166
 30
0.0
 11
7.7558535483
 21
3.6268247166
 31
0.0
  0
SPLINE
  5
17E
330
1F
100
AcDbEntity
  8
0
  6
Continuous
 62
     7
370
    25
100
AcDbSpline
210
0.0
220
0.0
230
1.0
 70
     8
 71
     3
 72
    21
 73
    17
 74
     0
 42
0.00000001
 43
0.00000001
 40
0.7418091005618992
 40
0.7418091005618992
 40
0.7418091005618992
 40
0.7418091005618992
 40
0.7497180695995274
 40
0.7817482951736161
 40
0.8120365363099894
 40
0.8404153269277361
 40
0.8667320558272357
 40
0.8908490653380708
 40
0.9126518453334536
 40
0.9320462728196868
 40
0.9489729195917836
 40
0.9634131988587862
 40
0.9754213252737876
 40
0.985175212219397
 40
0.9930911218090487
 40
0.9933191233449243
 40
0.9933191233449243
 40
0.9933191233449243
 40
0.9933191233449243
 10
10.05732450034612
 20
4.120833041719926
 30
0.0
 10
10.03210835270148
 20
4.120150673280302
 30
0.0
 10
9.904778276104963
 20
4.116408448099596
 30
0.0
 10
9.680970303030072
 20
4.107098117211435
 30
0.0
 10
9.392266357084315
 20
4.088544818112858
 30
0.0
 10
9.122278279637223
 20
4.064208777880782
 30
0.0
 10
8.872657623538393
 20
4.034280062031998
 30
0.0
 10
8.644927826624214
 20
3.999013319644146
 30
0.0
 10
8.440462661502504
 20
3.958776881699544
 30
0.0
 10
8.26048020597151
 20
3.914025712343989
 30
0.0
 10
8.10594247427149
 20
3.865196191284576
 30
0.0
 10
7.977816439275161
 20
3.812743097693266
 30
0.0
 10
7.875984141683141
 20
3.757021301406991
 30
0.0
 10
7.802080805212376
 20
3.69792082478577
 30
0.0
 10
7.765609865027665
 20
3.651383362180359
 30
0.0
 10
7.756114018464077
 20
3.62749554902057
 30
0.0
 10
7.755853548210126
 20
3.626824716627631
 30
0.0
  0
LINE
  5
17F
330
1F
100
AcDbEntity
  8
0
  6
Continuous
 62
     7
370
    25
100
AcDbLine
 10
10.0573245003
 20
4.1208330417
 30
0.0
 11
10.0622451351
 21
3.8708814717
 31
0.0
  0
LINE
  5
180
330
1F
100
AcDbEntity
  8
0
  6
Continuous
 62
     7
370
    25
100
AcDbLine
 10
10.0622451351
 20
3.8708814717
 30
0.0
 11
10.3121967051
 21
3.8758021064
 31
0.0
  0
LINE
  5
181
330
1F
100
AcDbEntity
  8
0
  6
Continuous
 62
     7
370
    25
100
AcDbLine
 10
10.3121967051
 20
3.8758021064
 30
0.0
 11
10.3072760704
 21
4.1257536765
 31
0.0
  0
SPLINE
  5
182
330
1F
100
AcDbEntity
  8
0
  6
Continuous
 62
     7
370
    25
100
AcDbSpline
210
0.0
220
0.0
230
1.0
 70
     8
 71
     3
 72
    15
 73
    11
 74
     0
 42
0.00000001
 43
0.00000001
 40
0.4211537945977975
 40
0.4211537945977975
 40
0.4211537945977975
 40
0.4211537945977975
 40
0.4549022191374231
 40
0.4934472169274768
 40
0.5319714594703768
 40
0.570237080342604
 40
0.608012632268448
 40
0.645066311619559
 40
0.6811780022527834
 40
0.7156811976692472
 40
0.7156811976692472
 40
0.7156811976692472
 40
0.7156811976692472
 10
13.12219670509608
 20
4.012184052181073
 30
0.0
 10
13.01488117035396
 20
4.020510733857213
 30
0.0
 10
12.78494350524382
 20
4.03765086564023
 30
0.0
 10
12.43229589926284
 20
4.061419507356994
 30
0.0
 10
12.06507521579123
 20
4.083033732820703
 30
0.0
 10
11.70011192756758
 20
4.100965474779053
 30
0.0
 10
11.33966003618402
 20
4.114736566659936
 30
0.0
 10
10.98593144898628
 20
4.123897743744509
 30
0.0
 10
10.64254300605867
 20
4.127984510247041
 30
0.0
 10
10.41731390564983
 20
4.127143684154175
 30
0.0
 10
10.30727607036283
 20
4.1257536764535
 30
0.0
  0
LINE
  5
183
330
1F
100
AcDbEntity
  8
0
  6
Continuous
 62
     7
370
    25
100
AcDbLine
 10
13.1221967051
 20
4.0121840522
 30
0.0
 11
13.1221967051
 21
3.1164653811
 31
0.0
  0
MTEXT
  5
184
330
1F
100
AcDbEntity
  8
PART_NAMES
100
AcDbMText
 10
11.64512341
 20
3.5962575448
 30
0.0
 40
0.1666666667
 41
0.0
 71
     1
 72
     1
  1
VR<5>
  7
SLDTEXTSTYLE0
 73
     1
 44
1.0
  0
LINE
  5
185
330
1F
100
AcDbEntity
  8
0
  6
Continuous
 62
     7
370
    25
100
AcDbLine
 10
14.1833000145
 20
5.8584577529
 30
0.0
 11
14.6114143571
 21
6.1056296839
 31
0.0
  0
LINE
  5
186
330
1F
100
AcDbEntity
  8
0
  6
Continuous
 62
     7
370
    25
100
AcDbLine
 10
14.6114143571
 20
6.1056296839
 30
0.0
 11
15.0395286997
 21
5.8584577529
 31
0.0
  0
LINE
  5
187
330
1F
100
AcDbEntity
  8
0
  6
Continuous
 62
     7
370
    25
100
AcDbLine
 10
14.6817799258
 20
2.5339526516
 30
0.0
 11
14.4775204808
 21
4.1050539585
 31
0.0
  0
LINE
  5
188
330
1F
100
AcDbEntity
  8
0
  6
Continuous
 62
     7
370
    25
100
AcDbLine
 10
14.4775204808
 20
4.1050539585
 30
0.0
 11
14.3535636928
 21
4.0889382919
 31
0.0
  0
SPLINE
  5
189
330
1F
100
AcDbEntity
  8
0
  6
Continuous
 62
     7
370
    25
100
AcDbSpline
210
0.0
220
0.0
230
1.0
 70
     8
 71
     3
 72
    20
 73
    16
 74
     0
 42
0.00000001
 43
0.00000001
 40
0.0457508377040911
 40
0.0457508377040911
 40
0.0457508377040911
 40
0.0457508377040911
 40
0.0544813480050881
 40
0.0734448093256102
 40
0.0949987757753401
 40
0.1190063904759743
 40
0.1453188976907598
 40
0.1737702883686622
 40
0.204183653893373
 40
0.236370678557395
 40
0.2701294730825404
 40
0.3052503508957334
 40
0.3415168609592228
 40
0.3787011491623359
 40
0.3952390330797355
 40
0.3952390330797355
 40
0.3952390330797355
 40
0.3952390330797355
 10
14.68177992547094
 20
2.533952651688002
 30
0.0
 10
14.68543148843272
 20
2.561561569763039
 30
0.0
 10
14.69683860051803
 20
2.649202845631054
 30
0.0
 10
14.71717272481517
 20
2.804915674658684
 30
0.0
 10
14.74300662085309
 20
3.009099843024703
 30
0.0
 10
14.77110210456209
 20
3.236604084585595
 30
0.0
 10
14.80097603016235
 20
3.486058964528463
 30
0.0
 10
14.83228995880973
 20
3.755914413232563
 30
0.0
 10
14.86460778017903
 20
4.04451375819431
 30
0.0
 10
14.89753784638251
 20
4.35007515012174
 30
0.0
 10
14.93067030023497
 20
4.67071299035215
 30
0.0
 10
14.96357773321751
 20
5.004451089458622
 30
0.0
 10
14.99579815219452
 20
5.349230968585943
 30
0.0
 10
15.02094603556737
 20
5.635140309430556
 30
0.0
 10
15.03521096728345
 20
5.805888442189646
 30
0.0
 10
15.03952869968083
 20
5.858457752922789
 30
0.0
  0
SPLINE
  5
18A
330
1F
100
AcDbEntity
  8
0
  6
Continuous
 62
     7
370
    25
100
AcDbSpline
210
0.0
220
0.0
230
1.0
 70
     8
 71
     3
 72
    13
 73
     9
 74
     0
 42
0.00000001
 43
0.00000001
 40
0.604760966920263
 40
0.604760966920263
 40
0.604760966920263
 40
0.604760966920263
 40
0.6212988508376641
 40
0.6584831390407772
 40
0.6947496491042666
 40
0.7298705269174596
 40
0.763629321442605
 40
0.79055683445879
 40
0.79055683445879
 40
0.79055683445879
 40
0.79055683445879
 10
14.18330001449552
 20
5.858457752922789
 30
0.0
 10
14.1876177468929
 20
5.805888442189642
 30
0.0
 10
14.20188267860897
 20
5.635140309430547
 30
0.0
 10
14.22703056198183
 20
5.349230968585933
 30
0.0
 10
14.25925098095884
 20
5.004451089458609
 30
0.0
 10
14.29215841394137
 20
4.670712990352139
 30
0.0
 10
14.32356665465413
 20
4.366761145661778
 30
0.0
 10
14.34423841824977
 20
4.174313705916718
 30
0.0
 10
14.35356369276697
 20
4.088938291948073
 30
0.0
  0
MTEXT
  5
18B
330
1F
100
AcDbEntity
  8
PART_NAMES
100
AcDbMText
 10
14.5727660462
 20
4.742043552
 30
0.0
 40
0.1666666667
 41
0.0
 71
     1
 72
     1
  1
VRCS<5>
  7
SLDTEXTSTYLE0
 11
-3.491481338843133E-15
 21
1.0
 31
0.0
 73
     1
 44
1.0
  0
CIRCLE
  5
18C
330
1F
100
AcDbEntity
  8
0
  6
Continuous
 62
     7
370
    25
100
AcDbCircle
 10
19.1468584212
 20
3.6174299265
 30
0.0
 40
0.25
  0
SPLINE
  5
18D
330
1F
100
AcDbEntity
  8
0
  6
Continuous
 62
     7
370
    25
100
AcDbSpline
210
0.0
220
0.0
230
1.0
 70
     8
 71
     3
 72
    16
 73
    12
 74
     0
 42
0.00000001
 43
0.00000001
 40
0.3123068310351889
 40
0.3123068310351889
 40
0.3123068310351889
 40
0.3123068310351889
 40
0.3188219977472166
 40
0.354933688380441
 40
0.391987367731552
 40
0.429762919657396
 40
0.4680285405296232
 40
0.5065527830725232
 40
0.5450977808625769
 40
0.5834246821246982
 40
0.618521115074216
 40
0.618521115074216
 40
0.618521115074216
 40
0.618521115074216
 10
18.64570295568823
 20
2.995661358053372
 30
0.0
 10
18.66865381454679
 20
2.995683755292716
 30
0.0
 10
18.81881441313373
 20
2.996053633544809
 30
0.0
 10
19.09949082485524
 20
2.999394045783772
 30
0.0
 10
19.49017613011842
 20
3.009512360772705
 30
0.0
 10
19.8882871743331
 20
3.024722223447113
 30
0.0
 10
20.29138095535625
 20
3.044527430983201
 30
0.0
 10
20.69696797889204
 20
3.068399859107298
 30
0.0
 10
21.10255135900723
 20
3.095736400982904
 30
0.0
 10
21.49587448536387
 20
3.125233697613196
 30
0.0
 10
21.75366452341969
 20
3.146254861492698
 30
0.0
 10
21.87685842115856
 20
3.156657884462372
 30
0.0
  0
LINE
  5
18E
330
1F
100
AcDbEntity
  8
0
  6
Continuous
 62
     7
370
    25
100
AcDbLine
 10
18.6457029557
 20
2.9956613581
 30
0.0
 11
18.6468584212
 21
3.2456586878
 31
0.0
  0
LINE
  5
18F
330
1F
100
AcDbEntity
  8
0
  6
Continuous
 62
     7
370
    25
100
AcDbLine
 10
18.6468584212
 20
3.2456586878
 30
0.0
 11
18.3968610914
 21
3.2468141533
 31
0.0
  0
LINE
  5
190
330
1F
100
AcDbEntity
  8
0
  6
Continuous
 62
     7
370
    25
100
AcDbLine
 10
18.3968610914
 20
3.2468141533
 30
0.0
 11
18.3957056259
 21
2.9968168235
 31
0.0
  0
SPLINE
  5
191
330
1F
100
AcDbEntity
  8
0
  6
Continuous
 62
     7
370
    25
100
AcDbSpline
210
0.0
220
0.0
230
1.0
 70
     8
 71
     3
 72
    22
 73
    18
 74
     0
 42
0.00000001
 43
0.00000001
 40
0.0060168016366298
 40
0.0060168016366298
 40
0.0060168016366298
 40
0.0060168016366298
 40
0.0069088781909513
 40
0.014824787780603
 40
0.0245786747262124
 40
0.0365868011412138
 40
0.0510270804082164
 40
0.0679537271803132
 40
0.0873481546665464
 40
0.1091509346619292
 40
0.1332679441727643
 40
0.1595846730722639
 40
0.1879634636900106
 40
0.2182517048263839
 40
0.2502819304004726
 40
0.2838701567336951
 40
0.2886504893097652
 40
0.2886504893097652
 40
0.2886504893097652
 40
0.2886504893097652
 10
15.52957462123324
 20
3.554929926491215
 30
0.0
 10
15.53057149065609
 20
3.551981837363551
 30
0.0
 10
15.54122314438548
 20
3.523182717745991
 30
0.0
 10
15.58299906904525
 20
3.469876015977007
 30
0.0
 10
15.66462364962491
 20
3.404600862693869
 30
0.0
 10
15.77709514248773
 20
3.343057386198579
 30
0.0
 10
15.91860747964786
 20
3.285124118649969
 30
0.0
 10
16.08929094451057
 20
3.231193005838079
 30
0.0
 10
16.28807753718659
 20
3.181766341176719
 30
0.0
 10
16.51390473448519
 20
3.137326096282682
 30
0.0
 10
16.76542719674862
 20
3.098374768869232
 30
0.0
 10
17.04112762288762
 20
3.065319172260127
 30
0.0
 10
17.33932340991874
 20
3.038440560660522
 30
0.0
 10
17.65819045469465
 20
3.017948857178511
 30
0.0
 10
17.99576879709483
 20
3.003905719996035
 30
0.0
 10
18.2437156017221
 20
2.998563838029885
 30
0.0
 10
18.37886693909164
 20
2.996992238283562
 30
0.0
 10
18.39570562590352
 20
2.996816823521003
 30
0.0
  0
LINE
  5
192
330
1F
100
AcDbEntity
  8
0
  6
Continuous
 62
     7
370
    25
100
AcDbLine
 10
15.5295746213
 20
3.5549299265
 30
0.0
 11
16.0168584212
 21
3.5549299265
 31
0.0
  0
LINE
  5
193
330
1F
100
AcDbEntity
  8
0
  6
Continuous
 62
     7
370
    25
100
AcDbLine
 10
16.0168584212
 20
3.5549299265
 30
0.0
 11
16.0168584212
 21
3.6799299265
 31
0.0
  0
LINE
  5
194
330
1F
100
AcDbEntity
  8
0
  6
Continuous
 62
     7
370
    25
100
AcDbLine
 10
16.0168584212
 20
3.6799299265
 30
0.0
 11
15.5295746213
 21
3.6799299265
 31
0.0
  0
SPLINE
  5
195
330
1F
100
AcDbEntity
  8
0
  6
Continuous
 62
     7
370
    25
100
AcDbSpline
210
0.0
220
0.0
230
1.0
 70
     8
 71
     3
 72
    22
 73
    18
 74
     0
 42
0.00000001
 43
0.00000001
 40
0.7113495106902367
 40
0.7113495106902367
 40
0.7113495106902367
 40
0.7113495106902367
 40
0.7161298432663049
 40
0.7497180695995274
 40
0.7817482951736161
 40
0.8120365363099894
 40
0.8404153269277361
 40
0.8667320558272357
 40
0.8908490653380708
 40
0.9126518453334536
 40
0.9320462728196868
 40
0.9489729195917836
 40
0.9634131988587862
 40
0.9754213252737876
 40
0.985175212219397
 40
0.9930911218090487
 40
0.9939831983633702
 40
0.9939831983633702
 40
0.9939831983633702
 40
0.9939831983633702
 10
18.3957056259035
 20
4.238043029494858
 30
0.0
 10
18.37886693909162
 20
4.2378676147323
 30
0.0
 10
18.24371560172209
 20
4.236296014985976
 30
0.0
 10
17.99576879709482
 20
4.230954133019826
 30
0.0
 10
17.65819045469465
 20
4.216910995837351
 30
0.0
 10
17.33932340991874
 20
4.196419292355341
 30
0.0
 10
17.04112762288762
 20
4.169540680755734
 30
0.0
 10
16.76542719674861
 20
4.13648508414663
 30
0.0
 10
16.51390473448519
 20
4.09753375673318
 30
0.0
 10
16.28807753718659
 20
4.053093511839143
 30
0.0
 10
16.08929094451057
 20
4.003666847177783
 30
0.0
 10
15.91860747964786
 20
3.949735734365893
 30
0.0
 10
15.77709514248773
 20
3.891802466817283
 30
0.0
 10
15.6646236496249
 20
3.830258990321994
 30
0.0
 10
15.58299906904525
 20
3.764983837038856
 30
0.0
 10
15.54122314438548
 20
3.711677135269872
 30
0.0
 10
15.53057149065609
 20
3.682878015652312
 30
0.0
 10
15.52957462123324
 20
3.679929926524648
 30
0.0
  0
LINE
  5
196
330
1F
100
AcDbEntity
  8
0
  6
Continuous
 62
     7
370
    25
100
AcDbLine
 10
18.3957056259
 20
4.2380430295
 30
0.0
 11
18.3968610914
 21
3.9880456997
 31
0.0
  0
LINE
  5
197
330
1F
100
AcDbEntity
  8
0
  6
Continuous
 62
     7
370
    25
100
AcDbLine
 10
18.3968610914
 20
3.9880456997
 30
0.0
 11
18.6468584212
 21
3.9892011652
 31
0.0
  0
LINE
  5
198
330
1F
100
AcDbEntity
  8
0
  6
Continuous
 62
     7
370
    25
100
AcDbLine
 10
18.6468584212
 20
3.9892011652
 30
0.0
 11
18.6457029557
 21
4.239198495
 31
0.0
  0
SPLINE
  5
199
330
1F
100
AcDbEntity
  8
0
  6
Continuous
 62
     7
370
    25
100
AcDbSpline
210
0.0
220
0.0
230
1.0
 70
     8
 71
     3
 72
    16
 73
    12
 74
     0
 42
0.00000001
 43
0.00000001
 40
0.3814788849261073
 40
0.3814788849261073
 40
0.3814788849261073
 40
0.3814788849261073
 40
0.4165753178753017
 40
0.4549022191374231
 40
0.4934472169274768
 40
0.5319714594703768
 40
0.570237080342604
 40
0.608012632268448
 40
0.645066311619559
 40
0.6811780022527834
 40
0.6876931689648111
 40
0.6876931689648111
 40
0.6876931689648111
 40
0.6876931689648111
 10
21.87685842115514
 20
4.078201968553778
 30
0.0
 10
21.75366452341741
 20
4.088604991523349
 30
0.0
 10
21.49587448536273
 20
4.109626155402752
 30
0.0
 10
21.10255135900722
 20
4.139123452032957
 30
0.0
 10
20.69696797889203
 20
4.166459993908564
 30
0.0
 10
20.29138095535624
 20
4.190332422032661
 30
0.0
 10
19.88828717433309
 20
4.210137629568749
 30
0.0
 10
19.49017613011841
 20
4.225347492243158
 30
0.0
 10
19.09949082485524
 20
4.235465807232089
 30
0.0
 10
18.81881441313373
 20
4.238806219471053
 30
0.0
 10
18.66865381454678
 20
4.239176097723146
 30
0.0
 10
18.64570295568822
 20
4.239198494962491
 30
0.0
  0
LINE
  5
19A
330
1F
100
AcDbEntity
  8
0
  6
Continuous
 62
     7
370
    25
100
AcDbLine
 10
21.8768584212
 20
4.0782019686
 30
0.0
 11
21.8768584212
 21
3.1566578845
 31
0.0
  0
MTEXT
  5
19B
330
1F
100
AcDbEntity
  8
PART_NAMES
100
AcDbMText
 10
20.3399238124
 20
3.7117482522
 30
0.0
 40
0.1666666667
 41
0.0
 71
     1
 72
     1
  1
VR<4>
  7
SLDTEXTSTYLE0
 73
     1
 44
1.0
  0
LINE
  5
19C
330
1F
100
AcDbEntity
  8
0
  6
Continuous
 62
     7
370
    25
100
AcDbLine
 10
23.2846023959
 20
1.0962805715
 30
0.0
 11
22.8457220929
 21
0.8428929104
 31
0.0
  0
LINE
  5
19D
330
1F
100
AcDbEntity
  8
0
  6
Continuous
 62
     7
370
    25
100
AcDbLine
 10
22.8457220929
 20
0.8428929104
 30
0.0
 11
22.4068417899
 21
1.0962805715
 31
0.0
  0
SPLINE
  5
19E
330
1F
100
AcDbEntity
  8
0
  6
Continuous
 62
     7
370
    25
100
AcDbSpline
210
0.0
220
0.0
230
1.0
 70
     8
 71
     3
 72
    19
 73
    15
 74
     0
 42
0.00000001
 43
0.00000001
 40
0.0406849849468445
 40
0.0406849849468445
 40
0.0406849849468445
 40
0.0406849849468445
 40
0.0544813480050881
 40
0.0734448093256102
 40
0.0949987757753401
 40
0.1190063904759743
 40
0.1453188976907598
 40
0.1737702883686622
 40
0.204183653893373
 40
0.236370678557395
 40
0.2701294730825404
 40
0.3052503508957334
 40
0.3415168609592228
 40
0.3574125350848321
 40
0.3574125350848321
 40
0.3574125350848321
 40
0.3574125350848321
 10
22.77509987792728
 20
4.422872718778346
 30
0.0
 10
22.76858005750228
 20
4.374742252247442
 30
0.0
 10
22.75368311427138
 20
4.260219255595009
 30
0.0
 10
22.72891434347224
 20
4.070547189254198
 30
0.0
 10
22.70038138366916
 20
3.845030346581281
 30
0.0
 10
22.66935055091594
 20
3.593757005155818
 30
0.0
 10
22.63635546890969
 20
3.318239675069665
 30
0.0
 10
22.60176993577675
 20
3.020190373515883
 30
0.0
 10
22.56607562560768
 20
2.701438858184999
 30
0.0
 10
22.52970510472623
 20
2.363953141727837
 30
0.0
 10
22.49311105121754
 20
2.009815825652457
 30
0.0
 10
22.4567655282219
 20
1.641209566937848
 30
0.0
 10
22.42815660372108
 20
1.335075076930288
 30
0.0
 10
22.41176754425067
 20
1.152058338911821
 30
0.0
 10
22.40684178993062
 20
1.096280571494633
 30
0.0
  0
LINE
  5
19F
330
1F
100
AcDbEntity
  8
0
  6
Continuous
 62
     7
370
    25
100
AcDbLine
 10
22.7750998776
 20
4.4228727188
 30
0.0
 11
22.9836212382
 21
2.8437408838
 31
0.0
  0
LINE
  5
1A0
330
1F
100
AcDbEntity
  8
0
  6
Continuous
 62
     7
370
    25
100
AcDbLine
 10
22.9836212382
 20
2.8437408838
 30
0.0
 11
23.1075454922
 21
2.8601048462
 31
0.0
  0
SPLINE
  5
1A1
330
1F
100
AcDbEntity
  8
0
  6
Continuous
 62
     7
370
    25
100
AcDbSpline
210
0.0
220
0.0
230
1.0
 70
     8
 71
     3
 72
    13
 73
     9
 74
     0
 42
0.00000001
 43
0.00000001
 40
0.6425874649151666
 40
0.6425874649151666
 40
0.6425874649151666
 40
0.6425874649151666
 40
0.6584831390407772
 40
0.6947496491042666
 40
0.7298705269174596
 40
0.763629321442605
 40
0.795816346106627
 40
0.8103334239254052
 40
0.8103334239254052
 40
0.8103334239254052
 40
0.8103334239254052
 10
23.2846023958735
 20
1.09628057149463
 30
0.0
 10
23.27967664155346
 20
1.152058338911825
 30
0.0
 10
23.26328758208304
 20
1.335075076930295
 30
0.0
 10
23.23467865758222
 20
1.641209566937863
 30
0.0
 10
23.19833313458659
 20
2.009815825652471
 30
0.0
 10
23.16173908107789
 20
2.363953141727854
 30
0.0
 10
23.13136857218973
 20
2.64576414423453
 30
0.0
 10
23.11323238384434
 20
2.809283531043253
 30
0.0
 10
23.10754549223168
 20
2.860104846225409
 30
0.0
  0
MTEXT
  5
1A2
330
1F
100
AcDbEntity
  8
PART_NAMES
100
AcDbMText
 10
22.7891049463
 20
1.3598156915
 30
0.0
 40
0.1666666667
 41
0.0
 71
     1
 72
     1
  1
VRCS<4>
  7
SLDTEXTSTYLE0
 11
-3.491481338843133E-15
 21
1.0
 31
0.0
 73
     1
 44
1.0
  0
CIRCLE
  5
1A3
330
1F
100
AcDbEntity
  8
0
  6
Continuous
 62
     7
370
    25
100
AcDbCircle
 10
13.3964607259
 20
1.6481092478
 30
0.0
 40
0.2499999999999982
  0
LINE
  5
1A4
330
1F
100
AcDbEntity
  8
0
  6
Continuous
 62
     7
370
    25
100
AcDbLine
 10
12.8979628965
 20
0.9690343159
 30
0.0
 11
12.8964607259
 21
1.2190298028
 31
0.0
  0
LINE
  5
1A5
330
1F
100
AcDbEntity
  8
0
  6
Continuous
 62
     7
370
    25
100
AcDbLine
 10
12.8964607259
 20
1.2190298028
 30
0.0
 11
12.6464652389
 21
1.2175276322
 31
0.0
  0
LINE
  5
1A6
330
1F
100
AcDbEntity
  8
0
  6
Continuous
 62
     7
370
    25
100
AcDbLine
 10
12.6464652389
 20
1.2175276322
 30
0.0
 11
12.6479674096
 21
0.9675321452
 31
0.0
  0
LINE
  5
1A7
330
1F
100
AcDbEntity
  8
0
  6
Continuous
 62
     7
370
    25
100
AcDbLine
 10
9.2284892161
 20
1.5856092478
 30
0.0
 11
9.7164607259
 21
1.5856092478
 31
0.0
  0
LINE
  5
1A8
330
1F
100
AcDbEntity
  8
0
  6
Continuous
 62
     7
370
    25
100
AcDbLine
 10
9.7164607259
 20
1.5856092478
 30
0.0
 11
9.7164607259
 21
1.7106092478
 31
0.0
  0
LINE
  5
1A9
330
1F
100
AcDbEntity
  8
0
  6
Continuous
 62
     7
370
    25
100
AcDbLine
 10
9.7164607259
 20
1.7106092478
 30
0.0
 11
9.2284892161
 21
1.7106092478
 31
0.0
  0
LINE
  5
1AA
330
1F
100
AcDbEntity
  8
0
  6
Continuous
 62
     7
370
    25
100
AcDbLine
 10
12.6479674096
 20
2.3286863504
 30
0.0
 11
12.6464652389
 21
2.0786908635
 31
0.0
  0
LINE
  5
1AB
330
1F
100
AcDbEntity
  8
0
  6
Continuous
 62
     7
370
    25
100
AcDbLine
 10
12.6464652389
 20
2.0786908635
 30
0.0
 11
12.8964607259
 21
2.0771886928
 31
0.0
  0
LINE
  5
1AC
330
1F
100
AcDbEntity
  8
0
  6
Continuous
 62
     7
370
    25
100
AcDbLine
 10
12.8964607259
 20
2.0771886928
 30
0.0
 11
12.8979628965
 21
2.3271841797
 31
0.0
  0
LINE
  5
1AD
330
1F
100
AcDbEntity
  8
0
  6
Continuous
 62
     7
370
    25
100
AcDbLine
 10
16.5564607259
 20
2.1195154737
 30
0.0
 11
16.5564607259
 21
1.176703022
 31
0.0
  0
LINE
  5
1AE
330
1F
100
AcDbEntity
  8
0
  6
Continuous
 62
     7
370
    25
100
AcDbLine
 10
10.2464607259
 20
1.5231092478
 30
0.0
 11
12.2464607259
 21
1.5231092478
 31
0.0
  0
LINE
  5
1AF
330
1F
100
AcDbEntity
  8
0
  6
Continuous
 62
     7
370
    25
100
AcDbLine
 10
12.2464607259
 20
1.5231092478
 30
0.0
 11
12.2464607259
 21
1.7731092478
 31
0.0
  0
LINE
  5
1B0
330
1F
100
AcDbEntity
  8
0
  6
Continuous
 62
     7
370
    25
100
AcDbLine
 10
12.2464607259
 20
1.7731092478
 30
0.0
 11
10.2464607259
 21
1.7731092478
 31
0.0
  0
LINE
  5
1B1
330
1F
100
AcDbEntity
  8
0
  6
Continuous
 62
     7
370
    25
100
AcDbLine
 10
10.2464607259
 20
1.7731092478
 30
0.0
 11
10.2464607259
 21
1.5231092478
 31
0.0
  0
SPLINE
  5
1B2
330
1F
100
AcDbEntity
  8
0
  6
Continuous
 62
     7
370
    25
100
AcDbSpline
210
0.0
220
0.0
230
1.0
 70
     8
 71
     3
 72
    22
 73
    18
 74
     0
 42
0.00000001
 43
0.00000001
 40
0.687114803740391
 40
0.687114803740391
 40
0.687114803740391
 40
0.687114803740391
 40
0.7161298432663049
 40
0.7497180695995274
 40
0.7817482951736161
 40
0.8120365363099894
 40
0.8404153269277361
 40
0.8667320558272357
 40
0.8908490653380708
 40
0.9126518453334536
 40
0.9320462728196868
 40
0.9489729195917836
 40
0.9634131988587862
 40
0.9754213252737876
 40
0.985175212219397
 40
0.9930911218090487
 40
0.9945246093710517
 40
0.9945246093710517
 40
0.9945246093710517
 40
0.9945246093710517
 10
12.64796740958004
 20
2.328686350384046
 30
0.0
 10
12.53608811293894
 20
2.328825035136814
 30
0.0
 10
12.29469344246158
 20
2.327529613768104
 30
0.0
 10
11.92986262385263
 20
2.319669527918026
 30
0.0
 10
11.5603511950092
 20
2.304297985866938
 30
0.0
 10
11.21132105140314
 20
2.281867878001494
 30
0.0
 10
10.88491755478799
 20
2.252446695034358
 30
0.0
 10
10.58313735860881
 20
2.216264217664933
 30
0.0
 10
10.30782223099614
 20
2.173628305225887
 30
0.0
 10
10.06063300152065
 20
2.124984253382414
 30
0.0
 10
9.843042271699595
 20
2.07088209341525
 30
0.0
 10
9.656213073674198
 20
2.011849388850884
 30
0.0
 10
9.501314434350277
 20
1.948435947344972
 30
0.0
 10
9.378203746216641
 20
1.881070790640669
 30
0.0
 10
9.288857921528104
 20
1.809620960695612
 30
0.0
 10
9.241796438823561
 20
1.749569808177311
 30
0.0
 10
9.230075564990033
 20
1.715858512585858
 30
0.0
 10
9.228489216133914
 20
1.710609247817902
 30
0.0
  0
SPLINE
  5
1B3
330
1F
100
AcDbEntity
  8
0
  6
Continuous
 62
     7
370
    25
100
AcDbSpline
210
0.0
220
0.0
230
1.0
 70
     8
 71
     3
 72
    16
 73
    12
 74
     0
 42
0.00000001
 43
0.00000001
 40
0.3344971624825079
 40
0.3344971624825079
 40
0.3344971624825079
 40
0.3344971624825079
 40
0.354933688380441
 40
0.391987367731552
 40
0.429762919657396
 40
0.4680285405296232
 40
0.5065527830725232
 40
0.5450977808625769
 40
0.5834246821246982
 40
0.6212988508376641
 40
0.6513551210955255
 40
0.6513551210955255
 40
0.6513551210955255
 40
0.6513551210955255
 10
12.8979628965062
 20
0.9690343158909555
 30
0.0
 10
12.9767596249659
 20
0.9698728552068203
 30
0.0
 10
13.19841357159007
 20
0.9731753963840686
 30
0.0
 10
13.56563281270278
 20
0.9826859664042853
 30
0.0
 10
14.00140300974859
 20
0.9993345998722181
 30
0.0
 10
14.44262728357122
 20
1.021013272986044
 30
0.0
 10
14.88658064717121
 20
1.047143903770529
 30
0.0
 10
15.3305300227027
 20
1.077066334742476
 30
0.0
 10
15.77174006090477
 20
1.11015491382925
 30
0.0
 10
16.18009316200612
 20
1.143554775311116
 30
0.0
 10
16.44103071213818
 20
1.166353336091217
 30
0.0
 10
16.5564607258685
 20
1.176703021981461
 30
0.0
  0
SPLINE
  5
1B4
330
1F
100
AcDbEntity
  8
0
  6
Continuous
 62
     7
370
    25
100
AcDbSpline
210
0.0
220
0.0
230
1.0
 70
     8
 71
     3
 72
    16
 73
    12
 74
     0
 42
0.00000001
 43
0.00000001
 40
0.3486448789049316
 40
0.3486448789049316
 40
0.3486448789049316
 40
0.3486448789049316
 40
0.3787011491623359
 40
0.4165753178753017
 40
0.4549022191374231
 40
0.4934472169274768
 40
0.5319714594703768
 40
0.570237080342604
 40
0.608012632268448
 40
0.645066311619559
 40
0.6655028375174921
 40
0.6655028375174921
 40
0.6655028375174921
 40
0.6655028375174921
 10
16.55646072586323
 20
2.119515473653347
 30
0.0
 10
16.44103071213465
 20
2.129865159543427
 30
0.0
 10
16.18009316200435
 20
2.152663720323364
 30
0.0
 10
15.77174006090476
 20
2.186063581805087
 30
0.0
 10
15.33053002270269
 20
2.219152160891859
 30
0.0
 10
14.8865806471712
 20
2.249074591863807
 30
0.0
 10
14.44262728357121
 20
2.275205222648292
 30
0.0
 10
14.00140300974858
 20
2.296883895762117
 30
0.0
 10
13.56563281270278
 20
2.313532529230051
 30
0.0
 10
13.19841357159007
 20
2.323043099250267
 30
0.0
 10
12.9767596249659
 20
2.326345640427515
 30
0.0
 10
12.8979628965062
 20
2.32718417974338
 30
0.0
  0
SPLINE
  5
1B5
330
1F
100
AcDbEntity
  8
0
  6
Continuous
 62
     7
370
    25
100
AcDbSpline
210
0.0
220
0.0
230
1.0
 70
     8
 71
     3
 72
    22
 73
    18
 74
     0
 42
0.00000001
 43
0.00000001
 40
0.0054753906289483
 40
0.0054753906289483
 40
0.0054753906289483
 40
0.0054753906289483
 40
0.0069088781909513
 40
0.014824787780603
 40
0.0245786747262124
 40
0.0365868011412138
 40
0.0510270804082164
 40
0.0679537271803132
 40
0.0873481546665464
 40
0.1091509346619292
 40
0.1332679441727643
 40
0.1595846730722639
 40
0.1879634636900106
 40
0.2182517048263839
 40
0.2502819304004726
 40
0.2838701567336951
 40
0.3128851962596087
 40
0.3128851962596087
 40
0.3128851962596087
 40
0.3128851962596087
 10
9.228489216133914
 20
1.585609247816435
 30
0.0
 10
9.230075564990033
 20
1.580359983048479
 30
0.0
 10
9.241796438823561
 20
1.546648687457026
 30
0.0
 10
9.288857921528104
 20
1.486597534938725
 30
0.0
 10
9.378203746216641
 20
1.415147704993668
 30
0.0
 10
9.501314434350277
 20
1.347782548289364
 30
0.0
 10
9.656213073674198
 20
1.284369106783452
 30
0.0
 10
9.843042271699597
 20
1.225336402219087
 30
0.0
 10
10.06063300152065
 20
1.171234242251922
 30
0.0
 10
10.30782223099615
 20
1.122590190408449
 30
0.0
 10
10.58313735860881
 20
1.079954277969403
 30
0.0
 10
10.884917554788
 20
1.043771800599977
 30
0.0
 10
11.21132105140314
 20
1.014350617632842
 30
0.0
 10
11.56035119500921
 20
0.991920509767397
 30
0.0
 10
11.92986262385264
 20
0.976548967716309
 30
0.0
 10
12.29469344246158
 20
0.9686888818662315
 30
0.0
 10
12.53608811293895
 20
0.9673934604975223
 30
0.0
 10
12.64796740958004
 20
0.9675321452502894
 30
0.0
  0
MTEXT
  5
1B6
330
1F
100
AcDbEntity
  8
PART_NAMES
100
AcDbMText
 10
14.8953618906
 20
1.7319075534
 30
0.0
 40
0.1666666667
 41
0.0
 71
     1
 72
     1
  1
VR<3>
  7
SLDTEXTSTYLE0
 73
     1
 44
1.0
  0
LINE
  5
1B7
330
1F
100
AcDbEntity
  8
0
  6
Continuous
 62
     7
370
    25
100
AcDbLine
 10
17.2395241867
 20
1.2179040825
 30
0.0
 11
16.9809922743
 21
1.6656944901
 31
0.0
  0
LINE
  5
1B8
330
1F
100
AcDbEntity
  8
0
  6
Continuous
 62
     7
370
    25
100
AcDbLine
 10
16.9809922743
 20
1.6656944901
 30
0.0
 11
17.2395241867
 21
2.1134848977
 31
0.0
  0
SPLINE
  5
1B9
330
1F
100
AcDbEntity
  8
0
  6
Continuous
 62
     7
370
    25
100
AcDbSpline
210
0.0
220
0.0
230
1.0
 70
     8
 71
     3
 72
    19
 73
    15
 74
     0
 42
0.00000001
 43
0.00000001
 40
0.0365831221154132
 40
0.0365831221154132
 40
0.0365831221154132
 40
0.0365831221154132
 40
0.0382266457685912
 40
0.0544813480050881
 40
0.0734448093256102
 40
0.0949987757753401
 40
0.1190063904759743
 40
0.1453188976907598
 40
0.1737702883686622
 40
0.204183653893373
 40
0.236370678557395
 40
0.2701294730825404
 40
0.3052503508957334
 40
0.326202176606454
 40
0.326202176606454
 40
0.326202176606454
 40
0.326202176606454
 10
20.56820006810323
 20
1.736555775519472
 30
0.0
 10
20.56193181289235
 20
1.737425185363008
 30
0.0
 10
20.49366110576381
 20
1.746868859956903
 30
0.0
 10
20.35259782259914
 20
1.765212731784061
 30
0.0
 10
20.1355868227546
 20
1.793551621214325
 30
0.0
 10
19.88873730577479
 20
1.824783644782558
 30
0.0
 10
19.61369486448475
 20
1.858749826580006
 30
0.0
 10
19.31211508425532
 20
1.894866064992254
 30
0.0
 10
18.98587192985185
 20
1.932723202610734
 30
0.0
 10
18.63696824415183
 20
1.971794001579585
 30
0.0
 10
18.26755820316494
 20
2.011604977139013
 30
0.0
 10
17.87992141124459
 20
2.051660630303934
 30
0.0
 10
17.53521359024266
 20
2.085649706014933
 30
0.0
 10
17.31996447390035
 20
2.106002938073682
 30
0.0
 10
17.23952418667552
 20
2.113484897669453
 30
0.0
  0
LINE
  5
1BA
330
1F
100
AcDbEntity
  8
0
  6
Continuous
 62
     7
370
    25
100
AcDbLine
 10
20.5682000681
 20
1.7365557755
 30
0.0
 11
18.9820879826
 21
1.5242496855
 31
0.0
  0
LINE
  5
1BB
330
1F
100
AcDbEntity
  8
0
  6
Continuous
 62
     7
370
    25
100
AcDbLine
 10
18.9820879826
 20
1.5242496855
 30
0.0
 11
18.9986717226
 21
1.400354651
 31
0.0
  0
SPLINE
  5
1BC
330
1F
100
AcDbEntity
  8
0
  6
Continuous
 62
     7
370
    25
100
AcDbSpline
210
0.0
220
0.0
230
1.0
 70
     8
 71
     3
 72
    13
 73
     9
 74
     0
 42
0.00000001
 43
0.00000001
 40
0.6737978233935447
 40
0.6737978233935447
 40
0.6737978233935447
 40
0.6737978233935447
 40
0.6947496491042666
 40
0.7298705269174596
 40
0.763629321442605
 40
0.795816346106627
 40
0.8262297116313377
 40
0.8266916696488973
 40
0.8266916696488973
 40
0.8266916696488973
 40
0.8266916696488973
 10
17.23952418667552
 20
1.217904082493911
 30
0.0
 10
17.31996447390036
 20
1.225386042089683
 30
0.0
 10
17.53521359024267
 20
1.245739274148433
 30
0.0
 10
17.8799214112446
 20
1.279728349859431
 30
0.0
 10
18.26755820316496
 20
1.319784003024352
 30
0.0
 10
18.63696824415183
 20
1.35959497858378
 30
0.0
 10
18.87861849534572
 20
1.386655364507266
 30
0.0
 10
18.99690196620486
 20
1.400152648418473
 30
0.0
 10
18.99867172258563
 20
1.400354651023581
 30
0.0
  0
MTEXT
  5
1BD
330
1F
100
AcDbEntity
  8
PART_NAMES
100
AcDbMText
 10
17.5186508166
 20
1.7154088809
 30
0.0
 40
0.1666666667
 41
0.0
 71
     1
 72
     1
  1
VRCS<3>
  7
SLDTEXTSTYLE0
 73
     1
 44
1.0
  0
MTEXT
  5
1BF
330
1F
100
AcDbEntity
  8
0
  6
Continuous
 62
     7
100
AcDbMText
 10
0.0
 20
0.5790104628
 30
0.0
 40
0.2076
 41
0.0
 71
     1
 72
     1
  1
SOLIDWORKS Educational Product.
  7
SLDTEXTSTYLE1
 73
     1
 44
1.0
  0
MTEXT
  5
1C0
330
1F
100
AcDbEntity
  8
0
  6
Continuous
 62
     7
100
AcDbMText
 10
0.0
 20
0.2676104628
 30
0.0
 40
0.2076
 41
0.0
 71
     1
 72
     1
  1
For Instructional Use Only.
  7
SLDTEXTSTYLE1
 73
     1
 44
1.0
  0
ENDSEC
  0
SECTION
  2
OBJECTS
  0
DICTIONARY
  5
C
330
0
100
AcDbDictionary
281
     1
  3
ACAD_GROUP
350
D
  3
ACAD_LAYOUT
350
1A
  3
ACAD_MLINESTYLE
350
17
  3
ACAD_PLOTSETTINGS
350
19
  3
ACAD_PLOTSTYLENAME
350
E
  3
ACAD_SCALELIST
350
47
  3
DWGPROPS
350
1C1
  0
DICTIONARY
  5
D
102
{ACAD_REACTORS
330
C
102
}
330
C
100
AcDbDictionary
281
     1
  0
DICTIONARY
  5
1A
102
{ACAD_REACTORS
330
C
102
}
330
C
100
AcDbDictionary
281
     1
  3
Layout1
350
1E
  3
Layout2
350
26
  3
Model
350
22
  0
DICTIONARY
  5
17
102
{ACAD_REACTORS
330
C
102
}
330
C
100
AcDbDictionary
281
     1
  3
Standard
350
18
  0
DICTIONARY
  5
19
102
{ACAD_REACTORS
330
C
102
}
330
C
100
AcDbDictionary
281
     1
  0
ACDBDICTIONARYWDFLT
  5
E
102
{ACAD_REACTORS
330
C
102
}
330
C
100
AcDbDictionary
281
     1
  3
Normal
350
F
100
AcDbDictionaryWithDefault
340
F
  0
DICTIONARY
  5
47
102
{ACAD_REACTORS
330
C
102
}
330
C
100
AcDbDictionary
281
     1
  3
A0
350
48
  3
A1
350
49
  3
A2
350
4A
  3
A3
350
4B
  3
A4
350
4C
  3
A5
350
4D
  3
A6
350
4E
  3
A7
350
4F
  3
A8
350
50
  3
A9
350
51
  3
B1
350
52
  3
B2
350
53
  3
B3
350
54
  3
B4
350
55
  3
B5
350
56
  3
B6
350
57
  3
B7
350
58
  0
XRECORD
  5
1C1
102
{ACAD_REACTORS
330
C
102
}
330
C
100
AcDbXrecord
280
     1
  1
DWGPROPS COOKIE
  2

  3

  4

  6

  7

  8
ucmai
  9

300
=
301
=
302
=
303
=
304
=
305
=
306
=
307
=
308
=
309
=
 40
0.0
 41
2460960.728318831
 42
2460960.728320185
  1

 90
        0
  0
LAYOUT
  5
1E
102
{ACAD_REACTORS
330
1A
102
}
330
1A
100
AcDbPlotSettings
  1

  2
none_device
  4

  6

 40
0.0
 41
0.0
 42
0.0
 43
0.0
 44
0.0
 45
0.0
 46
0.0
 47
0.0
 48
0.0
 49
0.0
140
0.0
141
0.0
142
1.0
143
1.0
 70
   688
 72
     0
 73
     0
 74
     5
  7

 75
    16
147
1.0
148
0.0
149
0.0
100
AcDbLayout
  1
Layout1
 70
     1
 71
     1
 10
0.0
 20
0.0
 11
12.0
 21
9.0
 12
0.0
 22
0.0
 32
0.0
 14
1.0000000000E+20
 24
1.0000000000E+20
 34
1.0000000000E+20
 15
-1.0000000000E+20
 25
-1.0000000000E+20
 35
-1.0000000000E+20
146
0.0
 13
0.0
 23
0.0
 33
0.0
 16
1.0
 26
0.0
 36
0.0
 17
0.0
 27
1.0
 37
0.0
 76
     0
330
1B
  0
LAYOUT
  5
26
102
{ACAD_REACTORS
330
1A
102
}
330
1A
100
AcDbPlotSettings
  1

  2
none_device
  4

  6

 40
0.0
 41
0.0
 42
0.0
 43
0.0
 44
0.0
 45
0.0
 46
0.0
 47
0.0
 48
0.0
 49
0.0
140
0.0
141
0.0
142
1.0
143
1.0
 70
   688
 72
     0
 73
     0
 74
     5
  7

 75
    16
147
1.0
148
0.0
149
0.0
100
AcDbLayout
  1
Layout2
 70
     1
 71
     2
 10
0.0
 20
0.0
 11
0.0
 21
0.0
 12
0.0
 22
0.0
 32
0.0
 14
0.0
 24
0.0
 34
0.0
 15
0.0
 25
0.0
 35
0.0
146
0.0
 13
0.0
 23
0.0
 33
0.0
 16
1.0
 26
0.0
 36
0.0
 17
0.0
 27
1.0
 37
0.0
 76
     0
330
23
  0
LAYOUT
  5
22
102
{ACAD_REACTORS
330
1A
102
}
330
1A
100
AcDbPlotSettings
  1

  2
none_device
  4
Letter_(8.50_x_11.00_Inches)
  6

 40
6.35
 41
6.35
 42
6.35000508
 43
6.35000508
 44
215.9
 45
279.4
 46
0.0
 47
0.0
 48
0.0
 49
0.0
140
0.0
141
0.0
142
1.0
143
1.0
 70
  1712
 72
     0
 73
     0
 74
     0
  7

 75
     0
147
1.0
148
0.0
149
0.0
100
AcDbLayout
  1
Model
 70
     1
 71
     0
 10
0.0
 20
0.0
 11
24.0
 21
12.0
 12
0.0
 22
0.0
 32
0.0
 14
0.0
 24
0.0
 34
0.0
 15
24.0
 25
12.0
 35
0.0
146
0.0
 13
0.0
 23
0.0
 33
0.0
 16
1.0
 26
0.0
 36
0.0
 17
0.0
 27
1.0
 37
0.0
 76
     0
330
1F
331
29
  0
MLINESTYLE
  5
18
102
{ACAD_REACTORS
330
17
102
}
330
17
100
AcDbMlineStyle
  2
Standard
 70
     0
  3

 62
   256
 51
90.0
 52
90.0
 71
     2
 49
0.5
 62
   256
  6
BYLAYER
 49
-0.5
 62
   256
  6
BYLAYER
  0
ACDBPLACEHOLDER
  5
F
102
{ACAD_REACTORS
330
E
102
}
330
E
  0
SCALE
  5
48
102
{ACAD_REACTORS
330
47
102
}
330
47
100
AcDbScale
 70
     0
300
1:1
140
1.0
141
1.0
290
     1
  0
SCALE
  5
49
102
{ACAD_REACTORS
330
47
102
}
330
47
100
AcDbScale
 70
     0
300
1/128" = 1'-0"
140
0.0078125
141
12.0
290
     0
  0
SCALE
  5
4A
102
{ACAD_REACTORS
330
47
102
}
330
47
100
AcDbScale
 70
     0
300
1/64" = 1'-0"
140
0.015625
141
12.0
290
     0
  0
SCALE
  5
4B
102
{ACAD_REACTORS
330
47
102
}
330
47
100
AcDbScale
 70
     0
300
1/32" = 1'-0"
140
0.03125
141
12.0
290
     0
  0
SCALE
  5
4C
102
{ACAD_REACTORS
330
47
102
}
330
47
100
AcDbScale
 70
     0
300
1/16" = 1'-0"
140
0.0625
141
12.0
290
     0
  0
SCALE
  5
4D
102
{ACAD_REACTORS
330
47
102
}
330
47
100
AcDbScale
 70
     0
300
3/32" = 1'-0"
140
0.09375
141
12.0
290
     0
  0
SCALE
  5
4E
102
{ACAD_REACTORS
330
47
102
}
330
47
100
AcDbScale
 70
     0
300
1/8" = 1'-0"
140
0.125
141
12.0
290
     0
  0
SCALE
  5
4F
102
{ACAD_REACTORS
330
47
102
}
330
47
100
AcDbScale
 70
     0
300
3/16" = 1'-0"
140
0.1875
141
12.0
290
     0
  0
SCALE
  5
50
102
{ACAD_REACTORS
330
47
102
}
330
47
100
AcDbScale
 70
     0
300
1/4" = 1'-0"
140
0.25
141
12.0
290
     0
  0
SCALE
  5
51
102
{ACAD_REACTORS
330
47
102
}
330
47
100
AcDbScale
 70
     0
300
3/8" = 1'-0"
140
0.375
141
12.0
290
     0
  0
SCALE
  5
52
102
{ACAD_REACTORS
330
47
102
}
330
47
100
AcDbScale
 70
     0
300
1/2" = 1'-0"
140
0.5
141
12.0
290
     0
  0
SCALE
  5
53
102
{ACAD_REACTORS
330
47
102
}
330
47
100
AcDbScale
 70
     0
300
3/4" = 1'-0"
140
0.75
141
12.0
290
     0
  0
SCALE
  5
54
102
{ACAD_REACTORS
330
47
102
}
330
47
100
AcDbScale
 70
     0
300
1" = 1'-0"
140
1.0
141
12.0
290
     0
  0
SCALE
  5
55
102
{ACAD_REACTORS
330
47
102
}
330
47
100
AcDbScale
 70
     0
300
1-1/2" = 1'-0"
140
1.5
141
12.0
290
     0
  0
SCALE
  5
56
102
{ACAD_REACTORS
330
47
102
}
330
47
100
AcDbScale
 70
     0
300
3" = 1'-0"
140
3.0
141
12.0
290
     0
  0
SCALE
  5
57
102
{ACAD_REACTORS
330
47
102
}
330
47
100
AcDbScale
 70
     0
300
6" = 1'-0"
140
6.0
141
12.0
290
     0
  0
SCALE
  5
58
102
{ACAD_REACTORS
330
47
102
}
330
47
100
AcDbScale
 70
     0
300
1'-0" = 1'-0"
140
12.0
141
12.0
290
     0
  0
ENDSEC
  0
EOF
