ISO-10303-21;
HEADER;
FILE_DESCRIPTION (( 'STEP AP214' ),
    '1' );
FILE_NAME ('sled.STEP',
    '2025-03-15T07:46:40',
    ( '' ),
    ( '' ),
    'SwSTEP 2.0',
    'SolidWorks 2024',
    '' );
FILE_SCHEMA (( 'AUTOMOTIVE_DESIGN' ));
ENDSEC;

DATA;
#1 = ORIENTED_EDGE ( 'NONE', *, *, #423, .F. ) ;
#2 = DIRECTION ( 'NONE',  ( 0.000000000000000000, -0.000000000000000000, -1.000000000000000000 ) ) ;
#3 = ORIENTED_EDGE ( 'NONE', *, *, #273, .T. ) ;
#4 = CARTESIAN_POINT ( 'NONE',  ( 0.5000000000000001110, 0.7500000000000001110, -0.08789802627656564948 ) ) ;
#5 = STYLED_ITEM ( 'NONE', ( #265 ), #311 ) ;
#6 = EDGE_LOOP ( 'NONE', ( #213, #100, #415, #430 ) ) ;
#7 = VERTEX_POINT ( 'NONE', #332 ) ;
#8 = ORIENTED_EDGE ( 'NONE', *, *, #75, .F. ) ;
#9 = VECTOR ( 'NONE', #384, 39.37007874015748143 ) ;
#10 = DIRECTION ( 'NONE',  ( 1.000000000000000000, 0.000000000000000000, 0.000000000000000000 ) ) ;
#11 = FACE_OUTER_BOUND ( 'NONE', #125, .T. ) ;
#12 = DIRECTION ( 'NONE',  ( 1.000000000000000000, 0.000000000000000000, -0.000000000000000000 ) ) ;
#13 = LINE ( 'NONE', #120, #463 ) ;
#14 = CARTESIAN_POINT ( 'NONE',  ( -0.7500000000000001110, 0.000000000000000000, 0.000000000000000000 ) ) ;
#15 = EDGE_CURVE ( 'NONE', #401, #443, #331, .T. ) ;
#16 = ORIENTED_EDGE ( 'NONE', *, *, #423, .T. ) ;
#17 = LINE ( 'NONE', #255, #437 ) ;
#18 = CARTESIAN_POINT ( 'NONE',  ( 1.346109842514903621, 0.1595640761958663500, -0.06125091013524465444 ) ) ;
#19 = PLANE ( 'NONE',  #180 ) ;
#20 = CARTESIAN_POINT ( 'NONE',  ( 1.479999999999999982, 0.000000000000000000, -0.7696039548136542896 ) ) ;
#21 = CARTESIAN_POINT ( 'NONE',  ( 1.312180073764541932, 0.2000000000000000111, 5.000000000000000000 ) ) ;
#22 = CARTESIAN_POINT ( 'NONE',  ( -0.5000000000000000000, 0.5000000000000001110, -0.2878980262765655773 ) ) ;
#23 = DIRECTION ( 'NONE',  ( 0.000000000000000000, 0.000000000000000000, 1.000000000000000000 ) ) ;
#24 = EDGE_CURVE ( 'NONE', #365, #187, #13, .T. ) ;
#25 = DIRECTION ( 'NONE',  ( 0.000000000000000000, 0.000000000000000000, -1.000000000000000000 ) ) ;
#26 = VECTOR ( 'NONE', #182, 39.37007874015748143 ) ;
#27 = CARTESIAN_POINT ( 'NONE',  ( 0.7500000000000001110, 0.4499999999999999001, -0.07677280700708416505 ) ) ;
#28 = EDGE_CURVE ( 'NONE', #280, #451, #258, .T. ) ;
#29 = VERTEX_POINT ( 'NONE', #373 ) ;
#30 = CARTESIAN_POINT ( 'NONE',  ( 1.479999999999999982, 0.000000000000000000, 0.000000000000000000 ) ) ;
#31 = AXIS2_PLACEMENT_3D ( 'NONE', #312, #25, #132 ) ;
#32 = ORIENTED_EDGE ( 'NONE', *, *, #248, .T. ) ;
#33 = CARTESIAN_POINT ( 'NONE',  ( 1.312180073764541932, 0.2000000000000000111, 5.000000000000000000 ) ) ;
#34 = VERTEX_POINT ( 'NONE', #148 ) ;
#35 = LINE ( 'NONE', #354, #402 ) ;
#36 = ORIENTED_EDGE ( 'NONE', *, *, #372, .T. ) ;
#37 = CARTESIAN_POINT ( 'NONE',  ( 0.7500000000000002220, 0.6464466094067263802, -0.04814760392183259352 ) ) ;
#38 = AXIS2_PLACEMENT_3D ( 'NONE', #20, #419, #231 ) ;
#39 = ORIENTED_EDGE ( 'NONE', *, *, #104, .T. ) ;
#40 = ORIENTED_EDGE ( 'NONE', *, *, #306, .T. ) ;
#41 = PRODUCT ( 'sled', 'sled', '', ( #319 ) ) ;
#42 = CARTESIAN_POINT ( 'NONE',  ( 1.000000000000000000, 0.4499999999999999001, 0.000000000000000000 ) ) ;
#43 = EDGE_CURVE ( 'NONE', #187, #7, #153, .T. ) ;
#44 = ORIENTED_EDGE ( 'NONE', *, *, #397, .F. ) ;
#45 = CARTESIAN_POINT ( 'NONE',  ( 1.312180073764541932, 0.2000000000000000111, -0.07677280700708419281 ) ) ;
#46 = ORIENTED_EDGE ( 'NONE', *, *, #193, .F. ) ;
#47 = VERTEX_POINT ( 'NONE', #184 ) ;
#48 = CARTESIAN_POINT ( 'NONE',  ( -0.8535533905932737309, 0.1999999999999997891, 0.1232271929929159571 ) ) ;
#49 = CARTESIAN_POINT ( 'NONE',  ( -0.7500000000000001110, 0.4499999999999997335, -0.1727388157659392465 ) ) ;
#50 = VECTOR ( 'NONE', #232, 39.37007874015748143 ) ;
#51 = DIRECTION ( 'NONE',  ( 1.000000000000000000, 0.000000000000000000, 0.000000000000000000 ) ) ;
#52 = LINE ( 'NONE', #21, #444 ) ;
#53 = LINE ( 'NONE', #168, #103 ) ;
#54 = ADVANCED_FACE ( 'NONE', ( #189 ), #118, .F. ) ;
#55 = CARTESIAN_POINT ( 'NONE',  ( -1.000000000000000000, 0.1999999999999997335, -0.07677280700708408179 ) ) ;
#56 = DIRECTION ( 'NONE',  ( 0.000000000000000000, 0.000000000000000000, -1.000000000000000000 ) ) ;
#57 =( BOUNDED_CURVE ( )  B_SPLINE_CURVE ( 3, ( #55, #200, #303, #49 ),
 .UNSPECIFIED., .F., .T. ) 
 B_SPLINE_CURVE_WITH_KNOTS ( ( 4, 4 ),
 ( 3.141592653589793116, 4.712388980384689674 ),
 .UNSPECIFIED. ) 
 CURVE ( )  GEOMETRIC_REPRESENTATION_ITEM ( )  RATIONAL_B_SPLINE_CURVE ( ( 1.000000000000000000, 0.8047378541243649375, 0.8047378541243649375, 1.000000000000000000 ) ) 
 REPRESENTATION_ITEM ( '' )  );
#58 = LINE ( 'NONE', #202, #240 ) ;
#59 = DIRECTION ( 'NONE',  ( -0.000000000000000000, 0.000000000000000000, 1.000000000000000000 ) ) ;
#60 = MECHANICAL_DESIGN_GEOMETRIC_PRESENTATION_REPRESENTATION (  '', ( #5 ), #325 ) ;
#61 = ADVANCED_FACE ( 'NONE', ( #154 ), #298, .T. ) ;
#62 = FACE_OUTER_BOUND ( 'NONE', #465, .T. ) ;
#63 = APPLICATION_PROTOCOL_DEFINITION ( 'draft international standard', 'automotive_design', 1998, #215 ) ;
#64 = ORIENTED_EDGE ( 'NONE', *, *, #313, .T. ) ;
#65 = DIRECTION ( 'NONE',  ( 0.000000000000000000, 0.000000000000000000, 1.000000000000000000 ) ) ;
#66 = AXIS2_PLACEMENT_3D ( 'NONE', #366, #146, #77 ) ;
#67 = ORIENTED_EDGE ( 'NONE', *, *, #248, .F. ) ;
#68 = FACE_OUTER_BOUND ( 'NONE', #115, .T. ) ;
#69 = EDGE_CURVE ( 'NONE', #136, #187, #385, .T. ) ;
#70 = ORIENTED_EDGE ( 'NONE', *, *, #151, .F. ) ;
#71 = ORIENTED_EDGE ( 'NONE', *, *, #104, .F. ) ;
#72 =( BOUNDED_CURVE ( )  B_SPLINE_CURVE ( 3, ( #374, #155, #85, #192 ),
 .UNSPECIFIED., .F., .T. ) 
 B_SPLINE_CURVE_WITH_KNOTS ( ( 4, 4 ),
 ( 0.000000000000000000, 1.570796326794897002 ),
 .UNSPECIFIED. ) 
 CURVE ( )  GEOMETRIC_REPRESENTATION_ITEM ( )  RATIONAL_B_SPLINE_CURVE ( ( 1.000000000000000000, 0.8047378541243649375, 0.8047378541243649375, 1.000000000000000000 ) ) 
 REPRESENTATION_ITEM ( '' )  );
#73 = AXIS2_PLACEMENT_3D ( 'NONE', #351, #461, #89 ) ;
#74 = ORIENTED_EDGE ( 'NONE', *, *, #234, .F. ) ;
#75 = EDGE_CURVE ( 'NONE', #261, #47, #127, .T. ) ;
#76 = ORIENTED_EDGE ( 'NONE', *, *, #24, .T. ) ;
#77 = DIRECTION ( 'NONE',  ( -1.000000000000000000, -1.171077451304055663E-16, 0.000000000000000000 ) ) ;
#78 = DIMENSIONAL_EXPONENTS ( 1.000000000000000000, 0.000000000000000000, 0.000000000000000000, 0.000000000000000000, 0.000000000000000000, 0.000000000000000000, 0.000000000000000000 ) ;
#79 = ORIENTED_EDGE ( 'NONE', *, *, #24, .F. ) ;
#80 = CARTESIAN_POINT ( 'NONE',  ( -1.312180073764542598, 0.1999999999999997058, -0.7696039548136542896 ) ) ;
#81 = ADVANCED_BREP_SHAPE_REPRESENTATION ( 'sled', ( #311, #135 ), #326 ) ;
#82 = EDGE_CURVE ( 'NONE', #443, #451, #58, .T. ) ;
#83 = AXIS2_PLACEMENT_3D ( 'NONE', #110, #399, #179 ) ;
#84 = VERTEX_POINT ( 'NONE', #95 ) ;
#85 = CARTESIAN_POINT ( 'NONE',  ( 0.7500000000000002220, 0.6464466094067263802, -0.2481476039218325491 ) ) ;
#86 = DIRECTION ( 'NONE',  ( -1.000000000000000000, -0.000000000000000000, -0.000000000000000000 ) ) ;
#87 = ORIENTED_EDGE ( 'NONE', *, *, #193, .T. ) ;
#88 = UNCERTAINTY_MEASURE_WITH_UNIT (LENGTH_MEASURE( 1.000000000000000082E-05 ), #376, 'distance_accuracy_value', 'NONE');
#89 = DIRECTION ( 'NONE',  ( 0.000000000000000000, 0.9335804264972000777, -0.3583679495453043207 ) ) ;
#90 = DIRECTION ( 'NONE',  ( -1.000000000000000000, -0.000000000000000000, -0.000000000000000000 ) ) ;
#91 = VECTOR ( 'NONE', #96, 39.37007874015748143 ) ;
#92 = LINE ( 'NONE', #27, #457 ) ;
#93 = CARTESIAN_POINT ( 'NONE',  ( 0.7500000000000001110, 0.7500000000000001110, -0.08789802627656564948 ) ) ;
#94 = CARTESIAN_POINT ( 'NONE',  ( 0.5000000000000001110, 0.7500000000000001110, -0.2878980262765655773 ) ) ;
#95 = CARTESIAN_POINT ( 'NONE',  ( 1.479999999999999982, 0.000000000000000000, 5.000000000000000000 ) ) ;
#96 = DIRECTION ( 'NONE',  ( 0.000000000000000000, 0.9335804264972000777, -0.3583679495453043207 ) ) ;
#97 = UNCERTAINTY_MEASURE_WITH_UNIT (LENGTH_MEASURE( 1.000000000000000082E-05 ), #175, 'distance_accuracy_value', 'NONE');
#98 = CARTESIAN_POINT ( 'NONE',  ( -1.479999999999999982, 0.000000000000000000, -0.7696039548136542896 ) ) ;
#99 = VECTOR ( 'NONE', #268, 39.37007874015748143 ) ;
#100 = ORIENTED_EDGE ( 'NONE', *, *, #306, .F. ) ;
#101 = CARTESIAN_POINT ( 'NONE',  ( 1.312180073764541932, 0.2000000000000000111, 0.1232271929929157350 ) ) ;
#102 = ORIENTED_EDGE ( 'NONE', *, *, #446, .T. ) ;
#103 = VECTOR ( 'NONE', #56, 39.37007874015748143 ) ;
#104 = EDGE_CURVE ( 'NONE', #267, #136, #57, .T. ) ;
#105 = ORIENTED_EDGE ( 'NONE', *, *, #111, .T. ) ;
#106 =( BOUNDED_CURVE ( )  B_SPLINE_CURVE ( 3, ( #217, #292, #439, #116 ),
 .UNSPECIFIED., .F., .T. ) 
 B_SPLINE_CURVE_WITH_KNOTS ( ( 4, 4 ),
 ( 3.141592653589790896, 4.712388980384689674 ),
 .UNSPECIFIED. ) 
 CURVE ( )  GEOMETRIC_REPRESENTATION_ITEM ( )  RATIONAL_B_SPLINE_CURVE ( ( 1.000000000000000000, 0.8047378541243644934, 0.8047378541243644934, 1.000000000000000000 ) ) 
 REPRESENTATION_ITEM ( '' )  );
#107 = CARTESIAN_POINT ( 'NONE',  ( 0.8535533905932737309, 0.1999999999999999556, 0.1232271929929157767 ) ) ;
#108 = ORIENTED_EDGE ( 'NONE', *, *, #178, .T. ) ;
#109 = LENGTH_MEASURE_WITH_UNIT ( LENGTH_MEASURE( 0.02539999999999999897 ), #126 );
#110 = CARTESIAN_POINT ( 'NONE',  ( 0.7500000000000001110, 0.000000000000000000, 0.000000000000000000 ) ) ;
#111 = EDGE_CURVE ( 'NONE', #438, #443, #130, .T. ) ;
#112 = ORIENTED_EDGE ( 'NONE', *, *, #254, .F. ) ;
#113 = LINE ( 'NONE', #317, #26 ) ;
#114 = VECTOR ( 'NONE', #410, 39.37007874015748854 ) ;
#115 = EDGE_LOOP ( 'NONE', ( #382, #271, #288, #358 ) ) ;
#116 = CARTESIAN_POINT ( 'NONE',  ( -0.7500000000000001110, 0.5000000000000001110, 0.008067982482289534282 ) ) ;
#117 = CARTESIAN_POINT ( 'NONE',  ( 0.7500000000000001110, 0.4499999999999999001, -0.1727388157659393297 ) ) ;
#118 = PLANE ( 'NONE',  #333 ) ;
#119 = CARTESIAN_POINT ( 'NONE',  ( -1.000000000000000000, 0.1999999999999997335, -0.07677280700708408179 ) ) ;
#120 = CARTESIAN_POINT ( 'NONE',  ( -0.7500000000000001110, 0.7500000000000001110, -0.08789802627656564948 ) ) ;
#121 = DIRECTION ( 'NONE',  ( 0.000000000000000000, 0.000000000000000000, 1.000000000000000000 ) ) ;
#122 = ORIENTED_EDGE ( 'NONE', *, *, #43, .F. ) ;
#123 = CARTESIAN_POINT ( 'NONE',  ( -0.6464466094067259361, 0.7500000000000006661, -0.2878980262765656883 ) ) ;
#124 = CARTESIAN_POINT ( 'NONE',  ( -1.000000000000000000, 0.4499999999999997335, -0.7696039548136542896 ) ) ;
#125 = EDGE_LOOP ( 'NONE', ( #316, #398, #221, #44 ) ) ;
#126 =( LENGTH_UNIT ( ) NAMED_UNIT ( * ) SI_UNIT ( $, .METRE. ) );
#127 = LINE ( 'NONE', #93, #50 ) ;
#128 = PRESENTATION_LAYER_ASSIGNMENT (  '', '', ( #5 ) ) ;
#129 = DIRECTION ( 'NONE',  ( 0.000000000000000000, 0.000000000000000000, -1.000000000000000000 ) ) ;
#130 = LINE ( 'NONE', #163, #412 ) ;
#131 = CARTESIAN_POINT ( 'NONE',  ( -0.4999999999999994449, 0.7500000000000001110, -0.2878980262765655773 ) ) ;
#132 = DIRECTION ( 'NONE',  ( -1.000000000000000000, 0.000000000000000000, 0.000000000000000000 ) ) ;
#133 = CARTESIAN_POINT ( 'NONE',  ( -1.312180073764542598, 0.1999999999999997058, 5.000000000000000000 ) ) ;
#134 = VECTOR ( 'NONE', #23, 39.37007874015748143 ) ;
#135 = AXIS2_PLACEMENT_3D ( 'NONE', #243, #65, #359 ) ;
#136 = VERTEX_POINT ( 'NONE', #305 ) ;
#137 = EDGE_LOOP ( 'NONE', ( #418, #108, #285, #46 ) ) ;
#138 = ADVANCED_FACE ( 'NONE', ( #309 ), #19, .F. ) ;
#139 = ORIENTED_EDGE ( 'NONE', *, *, #254, .T. ) ;
#140 = VECTOR ( 'NONE', #449, 39.37007874015748143 ) ;
#141 = ORIENTED_EDGE ( 'NONE', *, *, #28, .F. ) ;
#142 = EDGE_CURVE ( 'NONE', #253, #84, #417, .T. ) ;
#143 = PRODUCT_DEFINITION_SHAPE ( 'NONE', 'NONE',  #239 ) ;
#144 = VERTEX_POINT ( 'NONE', #424 ) ;
#145 = CARTESIAN_POINT ( 'NONE',  ( 1.000000000000000000, 0.1999999999999999833, 0.1232271929929157489 ) ) ;
#146 = DIRECTION ( 'NONE',  ( -1.171077451304055663E-16, 1.000000000000000000, 0.000000000000000000 ) ) ;
#147 = CARTESIAN_POINT ( 'NONE',  ( 0.7499999999999998890, 0.3035533905932737420, -0.1165232293618171516 ) ) ;
#148 = CARTESIAN_POINT ( 'NONE',  ( -1.479999999999999982, 0.000000000000000000, 1.707404996040164512E-17 ) ) ;
#149 = DIRECTION ( 'NONE',  ( 0.000000000000000000, -0.000000000000000000, -1.000000000000000000 ) ) ;
#150 = EDGE_LOOP ( 'NONE', ( #290, #435, #170, #302 ) ) ;
#151 = EDGE_CURVE ( 'NONE', #216, #249, #194, .T. ) ;
#152 = PLANE ( 'NONE',  #66 ) ;
#153 =( BOUNDED_CURVE ( )  B_SPLINE_CURVE ( 3, ( #256, #375, #48, #367 ),
 .UNSPECIFIED., .F., .F. ) 
 B_SPLINE_CURVE_WITH_KNOTS ( ( 4, 4 ),
 ( 1.570796326794896558, 3.141592653589793116 ),
 .UNSPECIFIED. ) 
 CURVE ( )  GEOMETRIC_REPRESENTATION_ITEM ( )  RATIONAL_B_SPLINE_CURVE ( ( 1.000000000000000000, 0.8047378541243649375, 0.8047378541243649375, 1.000000000000000000 ) ) 
 REPRESENTATION_ITEM ( '' )  );
#154 = FACE_OUTER_BOUND ( 'NONE', #432, .T. ) ;
#155 = CARTESIAN_POINT ( 'NONE',  ( 0.6464466094067263802, 0.7500000000000002220, -0.2878980262765655773 ) ) ;
#156 = AXIS2_PLACEMENT_3D ( 'NONE', #440, #407, #235 ) ;
#157 = ORIENTED_EDGE ( 'NONE', *, *, #220, .T. ) ;
#158 = CARTESIAN_POINT ( 'NONE',  ( -1.312180073764542598, 0.1999999999999997058, -0.07677280700708419281 ) ) ;
#159 = ADVANCED_FACE ( 'NONE', ( #450 ), #230, .F. ) ;
#160 = DIRECTION ( 'NONE',  ( 0.000000000000000000, 0.000000000000000000, 1.000000000000000000 ) ) ;
#161 = CARTESIAN_POINT ( 'NONE',  ( 0.7500000000000001110, 0.000000000000000000, 0.000000000000000000 ) ) ;
#162 = DIRECTION ( 'NONE',  ( -1.000000000000000000, -1.171077451304055663E-16, 0.000000000000000000 ) ) ;
#163 = CARTESIAN_POINT ( 'NONE',  ( 0.7500000000000001110, 0.7500000000000001110, -0.2878980262765655773 ) ) ;
#164 = AXIS2_PLACEMENT_3D ( 'NONE', #245, #320, #2 ) ;
#165 = ORIENTED_EDGE ( 'NONE', *, *, #82, .T. ) ;
#166 = EDGE_CURVE ( 'NONE', #249, #330, #52, .T. ) ;
#167 = DIRECTION ( 'NONE',  ( -0.6427876096865431377, -0.7660444431189747938, 0.000000000000000000 ) ) ;
#168 = CARTESIAN_POINT ( 'NONE',  ( -1.000000000000000000, 0.1999999999999997335, -0.7696039548136542896 ) ) ;
#169 = LINE ( 'NONE', #346, #370 ) ;
#170 = ORIENTED_EDGE ( 'NONE', *, *, #207, .F. ) ;
#171 = ADVANCED_FACE ( 'NONE', ( #454 ), #301, .T. ) ;
#172 = ORIENTED_EDGE ( 'NONE', *, *, #372, .F. ) ;
#173 = APPLICATION_PROTOCOL_DEFINITION ( 'draft international standard', 'automotive_design', 1998, #236 ) ;
#174 = ORIENTED_EDGE ( 'NONE', *, *, #166, .T. ) ;
#175 =( CONVERSION_BASED_UNIT ( 'INCH', #109 ) LENGTH_UNIT ( ) NAMED_UNIT ( #78 ) );
#176 = PLANE ( 'NONE',  #164 ) ;
#177 = EDGE_LOOP ( 'NONE', ( #139, #16, #244, #3, #356, #70, #157, #181 ) ) ;
#178 = EDGE_CURVE ( 'NONE', #253, #216, #341, .T. ) ;
#179 = DIRECTION ( 'NONE',  ( 0.000000000000000000, 0.000000000000000000, -1.000000000000000000 ) ) ;
#180 = AXIS2_PLACEMENT_3D ( 'NONE', #458, #274, #342 ) ;
#181 = ORIENTED_EDGE ( 'NONE', *, *, #336, .T. ) ;
#182 = DIRECTION ( 'NONE',  ( -1.000000000000000000, -1.171077451304055663E-16, 4.495345157965712370E-17 ) ) ;
#183 = ORIENTED_EDGE ( 'NONE', *, *, #460, .F. ) ;
#184 = CARTESIAN_POINT ( 'NONE',  ( 0.7500000000000001110, 0.4499999999999999001, 0.02726118423406065014 ) ) ;
#185 = CARTESIAN_POINT ( 'NONE',  ( 0.7500000000000001110, 0.5000000000000001110, 0.008067982482289534282 ) ) ;
#186 = EDGE_CURVE ( 'NONE', #223, #434, #380, .T. ) ;
#187 = VERTEX_POINT ( 'NONE', #196 ) ;
#188 =( NAMED_UNIT ( * ) SI_UNIT ( $, .STERADIAN. ) SOLID_ANGLE_UNIT ( ) );
#189 = FACE_OUTER_BOUND ( 'NONE', #328, .T. ) ;
#190 = CARTESIAN_POINT ( 'NONE',  ( -0.7500000000000001110, 0.5000000000000001110, 0.000000000000000000 ) ) ;
#191 = ORIENTED_EDGE ( 'NONE', *, *, #277, .T. ) ;
#192 = CARTESIAN_POINT ( 'NONE',  ( 0.7500000000000001110, 0.5000000000000001110, -0.1919320175177104404 ) ) ;
#193 = EDGE_CURVE ( 'NONE', #84, #249, #199, .T. ) ;
#194 = LINE ( 'NONE', #345, #349 ) ;
#195 = CARTESIAN_POINT ( 'NONE',  ( 1.000000000000000000, 0.1999999999999999833, -0.07677280700708416505 ) ) ;
#196 = CARTESIAN_POINT ( 'NONE',  ( -0.7500000000000001110, 0.4499999999999997335, 0.02726118423406073341 ) ) ;
#197 = CARTESIAN_POINT ( 'NONE',  ( 1.479999999999999982, 0.000000000000000000, -0.7696039548136542896 ) ) ;
#198 = FACE_OUTER_BOUND ( 'NONE', #150, .T. ) ;
#199 = LINE ( 'NONE', #238, #9 ) ;
#200 = CARTESIAN_POINT ( 'NONE',  ( -0.8535533905932737309, 0.1999999999999996780, -0.07677280700708401240 ) ) ;
#201 = CARTESIAN_POINT ( 'NONE',  ( 1.000000000000000000, 0.1999999999999999833, 0.1232271929929158599 ) ) ;
#202 = CARTESIAN_POINT ( 'NONE',  ( -0.5000000000000000000, 0.7500000000000001110, -0.2878980262765655773 ) ) ;
#203 = VECTOR ( 'NONE', #149, 39.37007874015748143 ) ;
#204 = CARTESIAN_POINT ( 'NONE',  ( 0.5000000000000001110, 0.7500000000000001110, -0.2878980262765655773 ) ) ;
#205 = CARTESIAN_POINT ( 'NONE',  ( -1.312180073764542598, 0.1999999999999997058, -0.7696039548136542896 ) ) ;
#206 = DIRECTION ( 'NONE',  ( 1.000000000000000000, 0.000000000000000000, 0.000000000000000000 ) ) ;
#207 = EDGE_CURVE ( 'NONE', #261, #280, #396, .T. ) ;
#208 = ORIENTED_EDGE ( 'NONE', *, *, #364, .T. ) ;
#209 = AXIS2_PLACEMENT_3D ( 'NONE', #263, #121, #12 ) ;
#210 = CARTESIAN_POINT ( 'NONE',  ( -1.479999999999999982, 0.000000000000000000, 5.000000000000000000 ) ) ;
#211 = ORIENTED_EDGE ( 'NONE', *, *, #464, .F. ) ;
#212 = EDGE_LOOP ( 'NONE', ( #105, #165, #141, #208 ) ) ;
#213 = ORIENTED_EDGE ( 'NONE', *, *, #15, .F. ) ;
#214 = VECTOR ( 'NONE', #86, 39.37007874015748143 ) ;
#215 = APPLICATION_CONTEXT ( 'automotive_design' ) ;
#216 = VERTEX_POINT ( 'NONE', #327 ) ;
#217 = CARTESIAN_POINT ( 'NONE',  ( -0.4999999999999994449, 0.7500000000000001110, -0.08789802627656564948 ) ) ;
#218 = ORIENTED_EDGE ( 'NONE', *, *, #446, .F. ) ;
#219 = LINE ( 'NONE', #45, #140 ) ;
#220 = EDGE_CURVE ( 'NONE', #216, #434, #113, .T. ) ;
#221 = ORIENTED_EDGE ( 'NONE', *, *, #186, .F. ) ;
#222 = SURFACE_STYLE_USAGE ( .BOTH. , #445 ) ;
#223 = VERTEX_POINT ( 'NONE', #403 ) ;
#224 = LINE ( 'NONE', #190, #203 ) ;
#225 = ORIENTED_EDGE ( 'NONE', *, *, #357, .T. ) ;
#226 = EDGE_CURVE ( 'NONE', #144, #47, #353, .T. ) ;
#227 = ORIENTED_EDGE ( 'NONE', *, *, #111, .F. ) ;
#228 = PLANE ( 'NONE',  #38 ) ;
#229 = VECTOR ( 'NONE', #304, 39.37007874015748143 ) ;
#230 = CYLINDRICAL_SURFACE ( 'NONE', #283, 0.2500000000000000555 ) ;
#231 = DIRECTION ( 'NONE',  ( -0.6427876096865438038, 0.7660444431189742387, 0.000000000000000000 ) ) ;
#232 = DIRECTION ( 'NONE',  ( 0.000000000000000000, -0.9335804264972000777, 0.3583679495453043762 ) ) ;
#233 = CARTESIAN_POINT ( 'NONE',  ( -0.7500000000000001110, 0.5000000000000001110, 0.008067982482289534282 ) ) ;
#234 = EDGE_CURVE ( 'NONE', #136, #401, #35, .T. ) ;
#235 = DIRECTION ( 'NONE',  ( 0.000000000000000000, -0.000000000000000000, -1.000000000000000000 ) ) ;
#236 = APPLICATION_CONTEXT ( 'automotive_design' ) ;
#237 = LINE ( 'NONE', #98, #355 ) ;
#238 = CARTESIAN_POINT ( 'NONE',  ( 1.479999999999999982, 0.000000000000000000, 5.000000000000000000 ) ) ;
#239 = PRODUCT_DEFINITION ( 'UNKNOWN', '', #388, #448 ) ;
#240 = VECTOR ( 'NONE', #347, 39.37007874015748143 ) ;
#241 = FACE_OUTER_BOUND ( 'NONE', #6, .T. ) ;
#242 = ADVANCED_FACE ( 'NONE', ( #68 ), #429, .T. ) ;
#243 = CARTESIAN_POINT ( 'NONE',  ( 0.000000000000000000, 0.000000000000000000, 0.000000000000000000 ) ) ;
#244 = ORIENTED_EDGE ( 'NONE', *, *, #297, .T. ) ;
#245 = CARTESIAN_POINT ( 'NONE',  ( 0.7500000000000001110, 0.7500000000000001110, -0.2878980262765655773 ) ) ;
#246 = ORIENTED_EDGE ( 'NONE', *, *, #28, .T. ) ;
#247 = CLOSED_SHELL ( 'NONE', ( #344, #61, #386, #284, #171, #138, #260, #392, #242, #54, #159, #409, #289, #441 ) ) ;
#248 = EDGE_CURVE ( 'NONE', #29, #84, #436, .T. ) ;
#249 = VERTEX_POINT ( 'NONE', #33 ) ;
#250 = DIRECTION ( 'NONE',  ( -1.000000000000000000, -1.171077451304055663E-16, 4.495345157965712370E-17 ) ) ;
#251 = ORIENTED_EDGE ( 'NONE', *, *, #220, .F. ) ;
#252 = CARTESIAN_POINT ( 'NONE',  ( 0.7499999999999998890, 0.3035533905932736864, 0.08347677063818277621 ) ) ;
#253 = VERTEX_POINT ( 'NONE', #30 ) ;
#254 = EDGE_CURVE ( 'NONE', #144, #7, #433, .T. ) ;
#255 = CARTESIAN_POINT ( 'NONE',  ( 0.7500000000000001110, 0.5000000000000001110, -0.08789802627656564948 ) ) ;
#256 = CARTESIAN_POINT ( 'NONE',  ( -0.7500000000000001110, 0.4499999999999997335, 0.02726118423406073341 ) ) ;
#257 = DIRECTION ( 'NONE',  ( 0.000000000000000000, -0.000000000000000000, 1.000000000000000000 ) ) ;
#258 = LINE ( 'NONE', #411, #214 ) ;
#259 = FACE_OUTER_BOUND ( 'NONE', #177, .T. ) ;
#260 = ADVANCED_FACE ( 'NONE', ( #360 ), #176, .F. ) ;
#261 = VERTEX_POINT ( 'NONE', #185 ) ;
#262 = CYLINDRICAL_SURFACE ( 'NONE', #278, 0.2500000000000000555 ) ;
#263 = CARTESIAN_POINT ( 'NONE',  ( 0.000000000000000000, 0.000000000000000000, 5.000000000000000000 ) ) ;
#264 = EDGE_LOOP ( 'NONE', ( #246, #64, #76, #318, #112, #324, #8, #393 ) ) ;
#265 = PRESENTATION_STYLE_ASSIGNMENT (( #222 ) ) ;
#266 = DIRECTION ( 'NONE',  ( 0.000000000000000000, 0.000000000000000000, -1.000000000000000000 ) ) ;
#267 = VERTEX_POINT ( 'NONE', #119 ) ;
#268 = DIRECTION ( 'NONE',  ( -0.000000000000000000, -0.000000000000000000, -1.000000000000000000 ) ) ;
#269 = VECTOR ( 'NONE', #250, 39.37007874015748143 ) ;
#270 = DIRECTION ( 'NONE',  ( -0.000000000000000000, -0.000000000000000000, 1.000000000000000000 ) ) ;
#271 = ORIENTED_EDGE ( 'NONE', *, *, #397, .T. ) ;
#272 = LINE ( 'NONE', #94, #99 ) ;
#273 = EDGE_CURVE ( 'NONE', #282, #330, #334, .T. ) ;
#274 = DIRECTION ( 'NONE',  ( -0.000000000000000000, 0.3583679495453043207, 0.9335804264972002997 ) ) ;
#275 = DIRECTION ( 'NONE',  ( -0.6166783956034117553, -0.7349286934355918621, 0.2821126937254960221 ) ) ;
#276 = CARTESIAN_POINT ( 'NONE',  ( -0.4999999999999994449, 0.7500000000000001110, -0.08789802627656564948 ) ) ;
#277 = EDGE_CURVE ( 'NONE', #438, #377, #72, .T. ) ;
#278 = AXIS2_PLACEMENT_3D ( 'NONE', #42, #257, #406 ) ;
#279 = SHAPE_DEFINITION_REPRESENTATION ( #143, #81 ) ;
#280 = VERTEX_POINT ( 'NONE', #368 ) ;
#281 = EDGE_LOOP ( 'NONE', ( #122, #296, #71, #1 ) ) ;
#282 = VERTEX_POINT ( 'NONE', #158 ) ;
#283 = AXIS2_PLACEMENT_3D ( 'NONE', #124, #266, #379 ) ;
#284 = ADVANCED_FACE ( 'NONE', ( #259 ), #152, .T. ) ;
#285 = ORIENTED_EDGE ( 'NONE', *, *, #151, .T. ) ;
#286 =( NAMED_UNIT ( * ) SI_UNIT ( $, .STERADIAN. ) SOLID_ANGLE_UNIT ( ) );
#287 = CARTESIAN_POINT ( 'NONE',  ( 0.7500000000000001110, 0.5000000000000001110, 0.008067982482289534282 ) ) ;
#288 = ORIENTED_EDGE ( 'NONE', *, *, #460, .T. ) ;
#289 = ADVANCED_FACE ( 'NONE', ( #11 ), #262, .F. ) ;
#290 = ORIENTED_EDGE ( 'NONE', *, *, #277, .F. ) ;
#291 = VECTOR ( 'NONE', #167, 39.37007874015748854 ) ;
#292 = CARTESIAN_POINT ( 'NONE',  ( -0.6464466094067257140, 0.7500000000000005551, -0.08789802627656580214 ) ) ;
#293 = CARTESIAN_POINT ( 'NONE',  ( 0.8535533905932737309, 0.1999999999999999556, -0.07677280700708409567 ) ) ;
#294 = DIRECTION ( 'NONE',  ( 0.000000000000000000, 0.000000000000000000, -1.000000000000000000 ) ) ;
#295 = FILL_AREA_STYLE_COLOUR ( '', #427 ) ;
#296 = ORIENTED_EDGE ( 'NONE', *, *, #69, .F. ) ;
#297 = EDGE_CURVE ( 'NONE', #267, #282, #219, .T. ) ;
#298 = PLANE ( 'NONE',  #156 ) ;
#299 = DIRECTION ( 'NONE',  ( 0.000000000000000000, 0.000000000000000000, 1.000000000000000000 ) ) ;
#300 = VECTOR ( 'NONE', #348, 39.37007874015748143 ) ;
#301 = PLANE ( 'NONE',  #209 ) ;
#302 = ORIENTED_EDGE ( 'NONE', *, *, #322, .F. ) ;
#303 = CARTESIAN_POINT ( 'NONE',  ( -0.7499999999999998890, 0.3035533905932734089, -0.1165232293618170545 ) ) ;
#304 = DIRECTION ( 'NONE',  ( -0.000000000000000000, -0.000000000000000000, 1.000000000000000000 ) ) ;
#305 = CARTESIAN_POINT ( 'NONE',  ( -0.7500000000000001110, 0.4499999999999997335, -0.1727388157659392465 ) ) ;
#306 = EDGE_CURVE ( 'NONE', #365, #401, #224, .T. ) ;
#307 = LINE ( 'NONE', #456, #291 ) ;
#308 = VECTOR ( 'NONE', #299, 39.37007874015748143 ) ;
#309 = FACE_OUTER_BOUND ( 'NONE', #428, .T. ) ;
#310 = DIRECTION ( 'NONE',  ( -0.7660444431189749048, 0.6427876096865432487, 0.000000000000000000 ) ) ;
#311 = MANIFOLD_SOLID_BREP ( 'Fillet1', #247 ) ;
#312 = CARTESIAN_POINT ( 'NONE',  ( 0.5000000000000001110, 0.5000000000000001110, 0.000000000000000000 ) ) ;
#313 = EDGE_CURVE ( 'NONE', #451, #365, #106, .T. ) ;
#314 = LINE ( 'NONE', #201, #229 ) ;
#315 = VECTOR ( 'NONE', #206, 39.37007874015748143 ) ;
#316 = ORIENTED_EDGE ( 'NONE', *, *, #226, .F. ) ;
#317 = CARTESIAN_POINT ( 'NONE',  ( 1.312180073764541932, 0.2000000000000000111, -0.07677280700708419281 ) ) ;
#318 = ORIENTED_EDGE ( 'NONE', *, *, #43, .T. ) ;
#319 = PRODUCT_CONTEXT ( 'NONE', #236, 'mechanical' ) ;
#320 = DIRECTION ( 'NONE',  ( 0.000000000000000000, -1.000000000000000000, 0.000000000000000000 ) ) ;
#321 = ORIENTED_EDGE ( 'NONE', *, *, #186, .T. ) ;
#322 = EDGE_CURVE ( 'NONE', #377, #261, #17, .T. ) ;
#323 = DIRECTION ( 'NONE',  ( 0.000000000000000000, 0.9335804264972000777, -0.3583679495453043207 ) ) ;
#324 = ORIENTED_EDGE ( 'NONE', *, *, #226, .T. ) ;
#325 =( GEOMETRIC_REPRESENTATION_CONTEXT ( 3 ) GLOBAL_UNCERTAINTY_ASSIGNED_CONTEXT ( ( #88 ) ) GLOBAL_UNIT_ASSIGNED_CONTEXT ( ( #376, #337, #188 ) ) REPRESENTATION_CONTEXT ( 'NONE', 'WORKASPACE' ) );
#326 =( GEOMETRIC_REPRESENTATION_CONTEXT ( 3 ) GLOBAL_UNCERTAINTY_ASSIGNED_CONTEXT ( ( #97 ) ) GLOBAL_UNIT_ASSIGNED_CONTEXT ( ( #175, #391, #286 ) ) REPRESENTATION_CONTEXT ( 'NONE', 'WORKASPACE' ) );
#327 = CARTESIAN_POINT ( 'NONE',  ( 1.312180073764541932, 0.2000000000000000111, -0.07677280700708422057 ) ) ;
#328 = EDGE_LOOP ( 'NONE', ( #74, #421, #79, #40 ) ) ;
#329 = CARTESIAN_POINT ( 'NONE',  ( 0.6464466094067263802, 0.7500000000000002220, -0.08789802627656566336 ) ) ;
#330 = VERTEX_POINT ( 'NONE', #133 ) ;
#331 =( BOUNDED_CURVE ( )  B_SPLINE_CURVE ( 3, ( #447, #404, #123, #442 ),
 .UNSPECIFIED., .F., .T. ) 
 B_SPLINE_CURVE_WITH_KNOTS ( ( 4, 4 ),
 ( 1.570796326794897002, 3.141592653589795336 ),
 .UNSPECIFIED. ) 
 CURVE ( )  GEOMETRIC_REPRESENTATION_ITEM ( )  RATIONAL_B_SPLINE_CURVE ( ( 1.000000000000000000, 0.8047378541243646044, 0.8047378541243646044, 1.000000000000000000 ) ) 
 REPRESENTATION_ITEM ( '' )  );
#332 = CARTESIAN_POINT ( 'NONE',  ( -1.000000000000000000, 0.1999999999999997335, 0.1232271929929158322 ) ) ;
#333 = AXIS2_PLACEMENT_3D ( 'NONE', #14, #10, #294 ) ;
#334 = LINE ( 'NONE', #80, #308 ) ;
#335 = ORIENTED_EDGE ( 'NONE', *, *, #297, .F. ) ;
#336 = EDGE_CURVE ( 'NONE', #434, #144, #314, .T. ) ;
#337 =( NAMED_UNIT ( * ) PLANE_ANGLE_UNIT ( ) SI_UNIT ( $, .RADIAN. ) );
#338 = ORIENTED_EDGE ( 'NONE', *, *, #234, .T. ) ;
#339 = SURFACE_STYLE_FILL_AREA ( #408 ) ;
#340 = EDGE_LOOP ( 'NONE', ( #87, #174, #36, #32 ) ) ;
#341 = LINE ( 'NONE', #18, #114 ) ;
#342 = DIRECTION ( 'NONE',  ( 0.000000000000000000, -0.9335804264972002997, 0.3583679495453043207 ) ) ;
#343 = LINE ( 'NONE', #161, #91 ) ;
#344 = ADVANCED_FACE ( 'NONE', ( #378 ), #228, .T. ) ;
#345 = CARTESIAN_POINT ( 'NONE',  ( 1.312180073764541932, 0.2000000000000000111, -0.7696039548136542896 ) ) ;
#346 = CARTESIAN_POINT ( 'NONE',  ( -1.191646296735209720, 0.3436465618036551595, -0.1319135558400001407 ) ) ;
#347 = DIRECTION ( 'NONE',  ( -0.000000000000000000, 0.000000000000000000, 1.000000000000000000 ) ) ;
#348 = DIRECTION ( 'NONE',  ( 1.000000000000000000, 0.000000000000000000, 0.000000000000000000 ) ) ;
#349 = VECTOR ( 'NONE', #160, 39.37007874015748143 ) ;
#350 = FACE_OUTER_BOUND ( 'NONE', #264, .T. ) ;
#351 = CARTESIAN_POINT ( 'NONE',  ( 0.7500000000000001110, 0.7500000000000001110, -0.08789802627656564948 ) ) ;
#352 = PRODUCT_RELATED_PRODUCT_CATEGORY ( 'part', '', ( #41 ) ) ;
#353 =( BOUNDED_CURVE ( )  B_SPLINE_CURVE ( 3, ( #145, #107, #252, #394 ),
 .UNSPECIFIED., .F., .T. ) 
 B_SPLINE_CURVE_WITH_KNOTS ( ( 4, 4 ),
 ( 0.000000000000000000, 1.570796326794896558 ),
 .UNSPECIFIED. ) 
 CURVE ( )  GEOMETRIC_REPRESENTATION_ITEM ( )  RATIONAL_B_SPLINE_CURVE ( ( 1.000000000000000000, 0.8047378541243649375, 0.8047378541243649375, 1.000000000000000000 ) ) 
 REPRESENTATION_ITEM ( '' )  );
#354 = CARTESIAN_POINT ( 'NONE',  ( -0.7500000000000001110, 0.000000000000000000, 0.000000000000000000 ) ) ;
#355 = VECTOR ( 'NONE', #452, 39.37007874015748143 ) ;
#356 = ORIENTED_EDGE ( 'NONE', *, *, #166, .F. ) ;
#357 = EDGE_CURVE ( 'NONE', #34, #253, #425, .T. ) ;
#358 = ORIENTED_EDGE ( 'NONE', *, *, #322, .T. ) ;
#359 = DIRECTION ( 'NONE',  ( 1.000000000000000000, 0.000000000000000000, 0.000000000000000000 ) ) ;
#360 = FACE_OUTER_BOUND ( 'NONE', #212, .T. ) ;
#361 = ORIENTED_EDGE ( 'NONE', *, *, #15, .T. ) ;
#362 = ORIENTED_EDGE ( 'NONE', *, *, #178, .F. ) ;
#363 = AXIS2_PLACEMENT_3D ( 'NONE', #205, #310, #387 ) ;
#364 = EDGE_CURVE ( 'NONE', #280, #438, #272, .T. ) ;
#365 = VERTEX_POINT ( 'NONE', #233 ) ;
#366 = CARTESIAN_POINT ( 'NONE',  ( 1.312180073764541932, 0.2000000000000000111, -0.7696039548136542896 ) ) ;
#367 = CARTESIAN_POINT ( 'NONE',  ( -1.000000000000000000, 0.1999999999999997335, 0.1232271929929158322 ) ) ;
#368 = CARTESIAN_POINT ( 'NONE',  ( 0.5000000000000001110, 0.7500000000000001110, -0.08789802627656564948 ) ) ;
#369 = ORIENTED_EDGE ( 'NONE', *, *, #273, .F. ) ;
#370 = VECTOR ( 'NONE', #275, 39.37007874015748854 ) ;
#371 = LENGTH_MEASURE_WITH_UNIT ( LENGTH_MEASURE( 0.02539999999999999897 ), #414 );
#372 = EDGE_CURVE ( 'NONE', #330, #29, #307, .T. ) ;
#373 = CARTESIAN_POINT ( 'NONE',  ( -1.479999999999999982, 0.000000000000000000, 5.000000000000000000 ) ) ;
#374 = CARTESIAN_POINT ( 'NONE',  ( 0.5000000000000001110, 0.7500000000000001110, -0.2878980262765655773 ) ) ;
#375 = CARTESIAN_POINT ( 'NONE',  ( -0.7499999999999998890, 0.3035533905932735199, 0.08347677063818288723 ) ) ;
#376 =( CONVERSION_BASED_UNIT ( 'INCH', #371 ) LENGTH_UNIT ( ) NAMED_UNIT ( #405 ) );
#377 = VERTEX_POINT ( 'NONE', #426 ) ;
#378 = FACE_OUTER_BOUND ( 'NONE', #137, .T. ) ;
#379 = DIRECTION ( 'NONE',  ( -1.000000000000000000, 0.000000000000000000, 0.000000000000000000 ) ) ;
#380 =( BOUNDED_CURVE ( )  B_SPLINE_CURVE ( 3, ( #117, #147, #293, #453 ),
 .UNSPECIFIED., .F., .F. ) 
 B_SPLINE_CURVE_WITH_KNOTS ( ( 4, 4 ),
 ( 4.712388980384689674, 6.283185307179586232 ),
 .UNSPECIFIED. ) 
 CURVE ( )  GEOMETRIC_REPRESENTATION_ITEM ( )  RATIONAL_B_SPLINE_CURVE ( ( 1.000000000000000000, 0.8047378541243649375, 0.8047378541243649375, 1.000000000000000000 ) ) 
 REPRESENTATION_ITEM ( '' )  );
#381 = CYLINDRICAL_SURFACE ( 'NONE', #400, 0.2500000000000000000 ) ;
#382 = ORIENTED_EDGE ( 'NONE', *, *, #75, .T. ) ;
#383 = DIRECTION ( 'NONE',  ( -0.000000000000000000, 0.000000000000000000, 1.000000000000000000 ) ) ;
#384 = DIRECTION ( 'NONE',  ( -0.6427876096865438038, 0.7660444431189742387, 0.000000000000000000 ) ) ;
#385 = LINE ( 'NONE', #420, #431 ) ;
#386 = ADVANCED_FACE ( 'NONE', ( #62 ), #389, .T. ) ;
#387 = DIRECTION ( 'NONE',  ( -0.6427876096865431377, -0.7660444431189747938, 0.000000000000000000 ) ) ;
#388 = PRODUCT_DEFINITION_FORMATION_WITH_SPECIFIED_SOURCE ( 'ANY', '', #41, .NOT_KNOWN. ) ;
#389 = PLANE ( 'NONE',  #363 ) ;
#390 = ORIENTED_EDGE ( 'NONE', *, *, #464, .T. ) ;
#391 =( NAMED_UNIT ( * ) PLANE_ANGLE_UNIT ( ) SI_UNIT ( $, .RADIAN. ) );
#392 = ADVANCED_FACE ( 'NONE', ( #350 ), #416, .F. ) ;
#393 = ORIENTED_EDGE ( 'NONE', *, *, #207, .T. ) ;
#394 = CARTESIAN_POINT ( 'NONE',  ( 0.7500000000000001110, 0.4499999999999999001, 0.02726118423406065014 ) ) ;
#395 = ORIENTED_EDGE ( 'NONE', *, *, #357, .F. ) ;
#396 =( BOUNDED_CURVE ( )  B_SPLINE_CURVE ( 3, ( #287, #37, #329, #4 ),
 .UNSPECIFIED., .F., .F. ) 
 B_SPLINE_CURVE_WITH_KNOTS ( ( 4, 4 ),
 ( 4.712388980384689674, 6.283185307179586232 ),
 .UNSPECIFIED. ) 
 CURVE ( )  GEOMETRIC_REPRESENTATION_ITEM ( )  RATIONAL_B_SPLINE_CURVE ( ( 1.000000000000000000, 0.8047378541243649375, 0.8047378541243649375, 1.000000000000000000 ) ) 
 REPRESENTATION_ITEM ( '' )  );
#397 = EDGE_CURVE ( 'NONE', #47, #223, #92, .T. ) ;
#398 = ORIENTED_EDGE ( 'NONE', *, *, #336, .F. ) ;
#399 = DIRECTION ( 'NONE',  ( 1.000000000000000000, 0.000000000000000000, 0.000000000000000000 ) ) ;
#400 = AXIS2_PLACEMENT_3D ( 'NONE', #22, #59, #51 ) ;
#401 = VERTEX_POINT ( 'NONE', #462 ) ;
#402 = VECTOR ( 'NONE', #323, 39.37007874015748143 ) ;
#403 = CARTESIAN_POINT ( 'NONE',  ( 0.7500000000000001110, 0.4499999999999999001, -0.1727388157659393297 ) ) ;
#404 = CARTESIAN_POINT ( 'NONE',  ( -0.7499999999999998890, 0.6464466094067266022, -0.2481476039218326601 ) ) ;
#405 = DIMENSIONAL_EXPONENTS ( 1.000000000000000000, 0.000000000000000000, 0.000000000000000000, 0.000000000000000000, 0.000000000000000000, 0.000000000000000000, 0.000000000000000000 ) ;
#406 = DIRECTION ( 'NONE',  ( 1.000000000000000000, 0.000000000000000000, 0.000000000000000000 ) ) ;
#407 = DIRECTION ( 'NONE',  ( 0.000000000000000000, -1.000000000000000000, 0.000000000000000000 ) ) ;
#408 = FILL_AREA_STYLE ('',( #295 ) ) ;
#409 = ADVANCED_FACE ( 'NONE', ( #241 ), #381, .T. ) ;
#410 = DIRECTION ( 'NONE',  ( -0.6166783956034124214, 0.7349286934355914180, -0.2821126937254959111 ) ) ;
#411 = CARTESIAN_POINT ( 'NONE',  ( 0.7500000000000001110, 0.7500000000000001110, -0.08789802627656564948 ) ) ;
#412 = VECTOR ( 'NONE', #90, 39.37007874015748143 ) ;
#413 = DIRECTION ( 'NONE',  ( 0.000000000000000000, -0.9335804264972000777, 0.3583679495453043762 ) ) ;
#414 =( LENGTH_UNIT ( ) NAMED_UNIT ( * ) SI_UNIT ( $, .METRE. ) );
#415 = ORIENTED_EDGE ( 'NONE', *, *, #313, .F. ) ;
#416 = PLANE ( 'NONE',  #73 ) ;
#417 = LINE ( 'NONE', #197, #134 ) ;
#418 = ORIENTED_EDGE ( 'NONE', *, *, #142, .F. ) ;
#419 = DIRECTION ( 'NONE',  ( 0.7660444431189742387, 0.6427876096865438038, -0.000000000000000000 ) ) ;
#420 = CARTESIAN_POINT ( 'NONE',  ( -0.7500000000000001110, 0.4499999999999997335, 0.000000000000000000 ) ) ;
#421 = ORIENTED_EDGE ( 'NONE', *, *, #69, .T. ) ;
#422 = CARTESIAN_POINT ( 'NONE',  ( -1.479999999999999982, 0.000000000000000000, 0.000000000000000000 ) ) ;
#423 = EDGE_CURVE ( 'NONE', #7, #267, #53, .T. ) ;
#424 = CARTESIAN_POINT ( 'NONE',  ( 1.000000000000000000, 0.1999999999999999833, 0.1232271929929157489 ) ) ;
#425 = LINE ( 'NONE', #422, #300 ) ;
#426 = CARTESIAN_POINT ( 'NONE',  ( 0.7500000000000001110, 0.5000000000000001110, -0.1919320175177104404 ) ) ;
#427 = COLOUR_RGB ( '',0.7921568627450980005, 0.8196078431372548767, 0.9333333333333333481 ) ;
#428 = EDGE_LOOP ( 'NONE', ( #338, #361, #227, #191, #183, #321, #251, #362, #395, #218, #335, #39 ) ) ;
#429 = PLANE ( 'NONE',  #83 ) ;
#430 = ORIENTED_EDGE ( 'NONE', *, *, #82, .F. ) ;
#431 = VECTOR ( 'NONE', #270, 39.37007874015748143 ) ;
#432 = EDGE_LOOP ( 'NONE', ( #211, #225, #455, #67 ) ) ;
#433 = LINE ( 'NONE', #101, #269 ) ;
#434 = VERTEX_POINT ( 'NONE', #195 ) ;
#435 = ORIENTED_EDGE ( 'NONE', *, *, #364, .F. ) ;
#436 = LINE ( 'NONE', #210, #315 ) ;
#437 = VECTOR ( 'NONE', #383, 39.37007874015748143 ) ;
#438 = VERTEX_POINT ( 'NONE', #204 ) ;
#439 = CARTESIAN_POINT ( 'NONE',  ( -0.7499999999999998890, 0.6464466094067266022, -0.04814760392183272536 ) ) ;
#440 = CARTESIAN_POINT ( 'NONE',  ( -1.479999999999999982, 0.000000000000000000, -0.7696039548136542896 ) ) ;
#441 = ADVANCED_FACE ( 'NONE', ( #198 ), #459, .T. ) ;
#442 = CARTESIAN_POINT ( 'NONE',  ( -0.4999999999999994449, 0.7500000000000001110, -0.2878980262765655773 ) ) ;
#443 = VERTEX_POINT ( 'NONE', #131 ) ;
#444 = VECTOR ( 'NONE', #162, 39.37007874015748143 ) ;
#445 = SURFACE_SIDE_STYLE ('',( #339 ) ) ;
#446 = EDGE_CURVE ( 'NONE', #282, #34, #169, .T. ) ;
#447 = CARTESIAN_POINT ( 'NONE',  ( -0.7500000000000001110, 0.5000000000000001110, -0.1919320175177104404 ) ) ;
#448 = PRODUCT_DEFINITION_CONTEXT ( 'detailed design', #215, 'design' ) ;
#449 = DIRECTION ( 'NONE',  ( -1.000000000000000000, -1.171077451304055663E-16, 4.495345157965712370E-17 ) ) ;
#450 = FACE_OUTER_BOUND ( 'NONE', #281, .T. ) ;
#451 = VERTEX_POINT ( 'NONE', #276 ) ;
#452 = DIRECTION ( 'NONE',  ( 0.000000000000000000, 0.000000000000000000, 1.000000000000000000 ) ) ;
#453 = CARTESIAN_POINT ( 'NONE',  ( 1.000000000000000000, 0.1999999999999999833, -0.07677280700708416505 ) ) ;
#454 = FACE_OUTER_BOUND ( 'NONE', #340, .T. ) ;
#455 = ORIENTED_EDGE ( 'NONE', *, *, #142, .T. ) ;
#456 = CARTESIAN_POINT ( 'NONE',  ( -1.312180073764542598, 0.1999999999999997058, 5.000000000000000000 ) ) ;
#457 = VECTOR ( 'NONE', #129, 39.37007874015748143 ) ;
#458 = CARTESIAN_POINT ( 'NONE',  ( 0.7500000000000001110, 0.000000000000000000, 0.000000000000000000 ) ) ;
#459 = CYLINDRICAL_SURFACE ( 'NONE', #31, 0.2500000000000000000 ) ;
#460 = EDGE_CURVE ( 'NONE', #223, #377, #343, .T. ) ;
#461 = DIRECTION ( 'NONE',  ( 0.000000000000000000, -0.3583679495453043762, -0.9335804264972001887 ) ) ;
#462 = CARTESIAN_POINT ( 'NONE',  ( -0.7500000000000001110, 0.5000000000000001110, -0.1919320175177104404 ) ) ;
#463 = VECTOR ( 'NONE', #413, 39.37007874015748143 ) ;
#464 = EDGE_CURVE ( 'NONE', #34, #29, #237, .T. ) ;
#465 = EDGE_LOOP ( 'NONE', ( #369, #102, #390, #172 ) ) ;
ENDSEC;
END-ISO-10303-21;
