  0
SECTION
  2
HEADER
  9
$ACADVER
  1
AC1015
  9
$ACADMAINTVER
 70
     6
  9
$DWGCODEPAGE
  3
ANSI_1252
  9
$INSBASE
 10
0.0
 20
0.0
 30
0.0
  9
$EXTMIN
 10
0.0
 20
0.0
 30
0.0
  9
$EXTMAX
 10
24.0
 20
12.0
 30
0.0
  9
$LIMMIN
 10
0.0
 20
0.0
  9
$LIMMAX
 10
24.0
 20
12.0
  9
$ORTHOMODE
 70
     0
  9
$REGENMODE
 70
     1
  9
$FILLMODE
 70
     1
  9
$QTEXTMODE
 70
     0
  9
$MIRRTEXT
 70
     1
  9
$LTSCALE
 40
1.0
  9
$ATTMODE
 70
     1
  9
$TEXTSIZE
 40
0.125
  9
$TRACEWID
 40
0.05
  9
$TEXTSTYLE
  7
Standard
  9
$CLAYER
  8
0
  9
$CELTYPE
  6
ByLayer
  9
$CECOLOR
 62
   256
  9
$CELTSCALE
 40
1.0
  9
$DISPSILH
 70
     0
  9
$DIMSCALE
 40
1.0
  9
$DIMASZ
 40
0.13
  9
$DIMEXO
 40
0.05
  9
$DIMDLI
 40
0.38
  9
$DIMRND
 40
0.0
  9
$DIMDLE
 40
0.0
  9
$DIMEXE
 40
0.125
  9
$DIMTP
 40
0.0
  9
$DIMTM
 40
0.0
  9
$DIMTXT
 40
0.125
  9
$DIMCEN
 40
0.09
  9
$DIMTSZ
 40
0.0
  9
$DIMTOL
 70
     0
  9
$DIMLIM
 70
     0
  9
$DIMTIH
 70
     1
  9
$DIMTOH
 70
     1
  9
$DIMSE1
 70
     0
  9
$DIMSE2
 70
     0
  9
$DIMTAD
 70
     0
  9
$DIMZIN
 70
     1
  9
$DIMBLK
  1

  9
$DIMASO
 70
     1
  9
$DIMSHO
 70
     1
  9
$DIMPOST
  1

  9
$DIMAPOST
  1

  9
$DIMALT
 70
     0
  9
$DIMALTD
 70
     2
  9
$DIMALTF
 40
25.4
  9
$DIMLFAC
 40
1.0
  9
$DIMTOFL
 70
     0
  9
$DIMTVP
 40
0.0
  9
$DIMTIX
 70
     0
  9
$DIMSOXD
 70
     0
  9
$DIMSAH
 70
     0
  9
$DIMBLK1
  1

  9
$DIMBLK2
  1

  9
$DIMSTYLE
  2
Standard
  9
$DIMCLRD
 70
     0
  9
$DIMCLRE
 70
     0
  9
$DIMCLRT
 70
     0
  9
$DIMTFAC
 40
1.0
  9
$DIMGAP
 40
0.06
  9
$DIMJUST
 70
     0
  9
$DIMSD1
 70
     0
  9
$DIMSD2
 70
     0
  9
$DIMTOLJ
 70
     1
  9
$DIMTZIN
 70
     1
  9
$DIMALTZ
 70
     0
  9
$DIMALTTZ
 70
     0
  9
$DIMUPT
 70
     0
  9
$DIMDEC
 70
     2
  9
$DIMTDEC
 70
     2
  9
$DIMALTU
 70
     2
  9
$DIMALTTD
 70
     2
  9
$DIMTXSTY
  7
Standard
  9
$DIMAUNIT
 70
     0
  9
$DIMADEC
 70
     2
  9
$DIMALTRND
 40
0.0
  9
$DIMAZIN
 70
     0
  9
$DIMDSEP
 70
    46
  9
$DIMATFIT
 70
     3
  9
$DIMFRAC
 70
     0
  9
$DIMLDRBLK
  1

  9
$DIMLUNIT
 70
     2
  9
$DIMLWD
 70
    -2
  9
$DIMLWE
 70
    -2
  9
$DIMTMOVE
 70
     0
  9
$LUNITS
 70
     2
  9
$LUPREC
 70
     6
  9
$SKETCHINC
 40
0.1
  9
$FILLETRAD
 40
0.0
  9
$AUNITS
 70
     0
  9
$AUPREC
 70
     2
  9
$MENU
  1
.
  9
$ELEVATION
 40
0.0
  9
$PELEVATION
 40
0.0
  9
$THICKNESS
 40
0.0
  9
$LIMCHECK
 70
     0
  9
$CHAMFERA
 40
0.0
  9
$CHAMFERB
 40
0.0
  9
$CHAMFERC
 40
0.0
  9
$CHAMFERD
 40
0.0
  9
$SKPOLY
 70
     0
  9
$TDCREATE
 40
2461142.54716176
  9
$TDUCREATE
 40
2461142.838828426
  9
$TDUPDATE
 40
2461142.547162512
  9
$TDUUPDATE
 40
2461142.838829179
  9
$TDINDWG
 40
0.0000000116
  9
$TDUSRTIMER
 40
0.0000000116
  9
$USRTIMER
 70
     1
  9
$ANGBASE
 50
0.0
  9
$ANGDIR
 70
     0
  9
$PDMODE
 70
     0
  9
$PDSIZE
 40
-1.0
  9
$PLINEWID
 40
0.0
  9
$SPLFRAME
 70
     0
  9
$SPLINETYPE
 70
     6
  9
$SPLINESEGS
 70
     8
  9
$HANDSEED
  5
368
  9
$SURFTAB1
 70
     6
  9
$SURFTAB2
 70
     6
  9
$SURFTYPE
 70
     6
  9
$SURFU
 70
     6
  9
$SURFV
 70
     6
  9
$UCSBASE
  2

  9
$UCSNAME
  2

  9
$UCSORG
 10
0.0
 20
0.0
 30
0.0
  9
$UCSXDIR
 10
1.0
 20
0.0
 30
0.0
  9
$UCSYDIR
 10
0.0
 20
1.0
 30
0.0
  9
$UCSORTHOREF
  2

  9
$UCSORTHOVIEW
 70
     0
  9
$UCSORGTOP
 10
0.0
 20
0.0
 30
0.0
  9
$UCSORGBOTTOM
 10
0.0
 20
0.0
 30
0.0
  9
$UCSORGLEFT
 10
0.0
 20
0.0
 30
0.0
  9
$UCSORGRIGHT
 10
0.0
 20
0.0
 30
0.0
  9
$UCSORGFRONT
 10
0.0
 20
0.0
 30
0.0
  9
$UCSORGBACK
 10
0.0
 20
0.0
 30
0.0
  9
$PUCSBASE
  2

  9
$PUCSNAME
  2

  9
$PUCSORG
 10
0.0
 20
0.0
 30
0.0
  9
$PUCSXDIR
 10
1.0
 20
0.0
 30
0.0
  9
$PUCSYDIR
 10
0.0
 20
1.0
 30
0.0
  9
$PUCSORTHOREF
  2

  9
$PUCSORTHOVIEW
 70
     0
  9
$PUCSORGTOP
 10
0.0
 20
0.0
 30
0.0
  9
$PUCSORGBOTTOM
 10
0.0
 20
0.0
 30
0.0
  9
$PUCSORGLEFT
 10
0.0
 20
0.0
 30
0.0
  9
$PUCSORGRIGHT
 10
0.0
 20
0.0
 30
0.0
  9
$PUCSORGFRONT
 10
0.0
 20
0.0
 30
0.0
  9
$PUCSORGBACK
 10
0.0
 20
0.0
 30
0.0
  9
$USERI1
 70
     0
  9
$USERI2
 70
     0
  9
$USERI3
 70
     0
  9
$USERI4
 70
     0
  9
$USERI5
 70
     0
  9
$USERR1
 40
0.0
  9
$USERR2
 40
0.0
  9
$USERR3
 40
0.0
  9
$USERR4
 40
0.0
  9
$USERR5
 40
0.0
  9
$WORLDVIEW
 70
     1
  9
$SHADEDGE
 70
     3
  9
$SHADEDIF
 70
    70
  9
$TILEMODE
 70
     1
  9
$MAXACTVP
 70
    64
  9
$PINSBASE
 10
0.0
 20
0.0
 30
0.0
  9
$PLIMCHECK
 70
     0
  9
$PEXTMIN
 10
1.0000000000E+20
 20
1.0000000000E+20
 30
1.0000000000E+20
  9
$PEXTMAX
 10
-1.0000000000E+20
 20
-1.0000000000E+20
 30
-1.0000000000E+20
  9
$PLIMMIN
 10
0.0
 20
0.0
  9
$PLIMMAX
 10
12.0
 20
9.0
  9
$UNITMODE
 70
     0
  9
$VISRETAIN
 70
     1
  9
$PLINEGEN
 70
     0
  9
$PSLTSCALE
 70
     1
  9
$TREEDEPTH
 70
  3020
  9
$CMLSTYLE
  2
Standard
  9
$CMLJUST
 70
     0
  9
$CMLSCALE
 40
1.0
  9
$PROXYGRAPHICS
 70
     1
  9
$MEASUREMENT
 70
     0
  9
$CELWEIGHT
370
    -1
  9
$ENDCAPS
280
     0
  9
$JOINSTYLE
280
     0
  9
$LWDISPLAY
290
     1
  9
$INSUNITS
 70
     1
  9
$HYPERLINKBASE
  1

  9
$STYLESHEET
  1

  9
$XEDIT
290
     1
  9
$CEPSNTYPE
380
     0
  9
$PSTYLEMODE
290
     1
  9
$FINGERPRINTGUID
  2
{dd27ffaf-170d-45a2-94c2-a2d49a845fca}
  9
$VERSIONGUID
  2
{FAEB1C32-E019-11D5-929B-00C0DF256EC4}
  9
$EXTNAMES
290
     1
  9
$PSVPSCALE
 40
0.0
  9
$OLESTARTUP
290
     0
  0
ENDSEC
  0
SECTION
  2
CLASSES
  0
CLASS
  1
ACDBDICTIONARYWDFLT
  2
AcDbDictionaryWithDefault
  3
ObjectDBX Classes
 90
        0
280
     0
281
     0
  0
CLASS
  1
VISUALSTYLE
  2
AcDbVisualStyle
  3
ObjectDBX Classes
 90
     4095
280
     0
281
     0
  0
CLASS
  1
MATERIAL
  2
AcDbMaterial
  3
ObjectDBX Classes
 90
     1153
280
     0
281
     0
  0
CLASS
  1
SCALE
  2
AcDbScale
  3
ObjectDBX Classes
 90
     1153
280
     0
281
     0
  0
CLASS
  1
TABLESTYLE
  2
AcDbTableStyle
  3
ObjectDBX Classes
 90
     4095
280
     0
281
     0
  0
CLASS
  1
MLEADERSTYLE
  2
AcDbMLeaderStyle
  3
ACDB_MLEADERSTYLE_CLASS
 90
     4095
280
     0
281
     0
  0
CLASS
  1
SUN
  2
AcDbSun
  3
SCENEOE
 90
     1153
280
     0
281
     0
  0
CLASS
  1
ACDBPLACEHOLDER
  2
AcDbPlaceHolder
  3
ObjectDBX Classes
 90
        0
280
     0
281
     0
  0
CLASS
  1
LAYOUT
  2
AcDbLayout
  3
ObjectDBX Classes
 90
        0
280
     0
281
     0
  0
ENDSEC
  0
SECTION
  2
TABLES
  0
TABLE
  2
VPORT
  5
8
330
0
100
AcDbSymbolTable
 70
     1
  0
VPORT
  5
29
330
8
100
AcDbSymbolTableRecord
100
AcDbViewportTableRecord
  2
*Active
 70
     0
 10
0.0
 20
0.0
 11
1.0
 21
1.0
 12
12.0
 22
6.0
 13
0.0
 23
0.0
 14
0.5
 24
0.5
 15
0.5
 25
0.5
 16
0.0
 26
0.0
 36
1.0
 17
0.0
 27
0.0
 37
0.0
 40
12.0
 41
2.0
 42
50.0
 43
0.0
 44
0.0
 50
0.0
 51
0.0
 71
     0
 72
  2000
 73
     1
 74
     3
 75
     0
 76
     0
 77
     0
 78
     0
281
     0
 65
     1
110
0.0
120
0.0
130
0.0
111
1.0
121
0.0
131
0.0
112
0.0
122
1.0
132
0.0
 79
     0
146
0.0
  0
ENDTAB
  0
TABLE
  2
LTYPE
  5
5
330
0
100
AcDbSymbolTable
 70
     6
  0
LTYPE
  5
14
330
5
100
AcDbSymbolTableRecord
100
AcDbLinetypeTableRecord
  2
ByBlock
 70
     0
  3

 72
    65
 73
     0
 40
0.0
  0
LTYPE
  5
15
330
5
100
AcDbSymbolTableRecord
100
AcDbLinetypeTableRecord
  2
ByLayer
 70
     0
  3

 72
    65
 73
     0
 40
0.0
  0
LTYPE
  5
16
330
5
100
AcDbSymbolTableRecord
100
AcDbLinetypeTableRecord
  2
Continuous
 70
     0
  3
Solid line
 72
    65
 73
     0
 40
0.0
  0
LTYPE
  5
5E
330
5
100
AcDbSymbolTableRecord
100
AcDbLinetypeTableRecord
  2
HIDDEN
 70
     0
  3
Hidden __ __ __ __ __ __ __ __ __ __ __ __ __ __
 72
    65
 73
     2
 40
0.075
 49
0.05
 74
     0
 49
-0.025
 74
     0
  0
LTYPE
  5
5F
330
5
100
AcDbSymbolTableRecord
100
AcDbLinetypeTableRecord
  2
PHANTOM
 70
     0
  3
Phantom ______  __  __  ______  __  __  ______
 72
    65
 73
     6
 40
0.5
 49
0.25
 74
     0
 49
-0.05
 74
     0
 49
0.05
 74
     0
 49
-0.05
 74
     0
 49
0.05
 74
     0
 49
-0.05
 74
     0
  0
LTYPE
  5
60
330
5
100
AcDbSymbolTableRecord
100
AcDbLinetypeTableRecord
  2
CENTER
 70
     0
  3
Center ____ _ ____ _ ____ _ ____ _ ____ _ ____
 72
    65
 73
     4
 40
0.4
 49
0.25
 74
     0
 49
-0.05
 74
     0
 49
0.05
 74
     0
 49
-0.05
 74
     0
  0
LTYPE
  5
61
330
5
100
AcDbSymbolTableRecord
100
AcDbLinetypeTableRecord
  2
CENTERX2
 70
     0
  3
Center (2x) ________  __  ________  __  _____
 72
    65
 73
     4
 40
0.8
 49
0.5
 74
     0
 49
-0.1
 74
     0
 49
0.1
 74
     0
 49
-0.1
 74
     0
  0
LTYPE
  5
62
330
5
100
AcDbSymbolTableRecord
100
AcDbLinetypeTableRecord
  2
DOT2
 70
     0
  3
Dot (.5x) ........................................
 72
    65
 73
     2
 40
0.025
 49
0.0
 74
     0
 49
-0.025
 74
     0
  0
ENDTAB
  0
TABLE
  2
LAYER
  5
2
330
0
100
AcDbSymbolTable
 70
     3
  0
LAYER
  5
10
330
2
100
AcDbSymbolTableRecord
100
AcDbLayerTableRecord
  2
0
 70
     0
 62
     7
  6
Continuous
370
    -3
390
F
  0
LAYER
  5
63
330
2
100
AcDbSymbolTableRecord
100
AcDbLayerTableRecord
  2
FORMAT
 70
     0
 62
     7
  6
Continuous
370
    -3
390
F
  0
LAYER
  5
64
330
2
100
AcDbSymbolTableRecord
100
AcDbLayerTableRecord
  2
PART_NAMES
 70
     0
 62
     1
  6
Continuous
370
    -3
390
F
  0
ENDTAB
  0
TABLE
  2
STYLE
  5
3
330
0
100
AcDbSymbolTable
 70
     2
  0
STYLE
  5
11
330
3
100
AcDbSymbolTableRecord
100
AcDbTextStyleTableRecord
  2
Standard
 70
     0
 40
0.0
 41
1.0
 50
0.0
 71
     0
 42
0.125
  3
txt
  4

  0
STYLE
  5
364
330
3
100
AcDbSymbolTableRecord
100
AcDbTextStyleTableRecord
  2
SLDTEXTSTYLE0
 70
     0
 40
0.0
 41
0.7
 50
0.0
 71
     0
 42
0.125
  3
TXT
  4

  0
ENDTAB
  0
TABLE
  2
VIEW
  5
6
330
0
100
AcDbSymbolTable
 70
     0
  0
ENDTAB
  0
TABLE
  2
UCS
  5
7
330
0
100
AcDbSymbolTable
 70
     0
  0
ENDTAB
  0
TABLE
  2
APPID
  5
9
330
0
100
AcDbSymbolTable
 70
     1
  0
APPID
  5
12
330
9
100
AcDbSymbolTableRecord
100
AcDbRegAppTableRecord
  2
ACAD
 70
     0
  0
ENDTAB
  0
TABLE
  2
DIMSTYLE
  5
A
330
0
100
AcDbSymbolTable
 70
     1
100
AcDbDimStyleTable
  0
DIMSTYLE
105
27
330
A
100
AcDbSymbolTableRecord
100
AcDbDimStyleTableRecord
  2
Standard
 70
     0
178
     0
340
11
  0
ENDTAB
  0
TABLE
  2
BLOCK_RECORD
  5
1
330
0
100
AcDbSymbolTable
 70
     1
  0
BLOCK_RECORD
  5
1F
330
1
100
AcDbSymbolTableRecord
100
AcDbBlockTableRecord
  2
*Model_Space
340
22
  0
BLOCK_RECORD
  5
1B
330
1
100
AcDbSymbolTableRecord
100
AcDbBlockTableRecord
  2
*Paper_Space
340
1E
  0
BLOCK_RECORD
  5
23
330
1
100
AcDbSymbolTableRecord
100
AcDbBlockTableRecord
  2
*Paper_Space0
340
26
  0
ENDTAB
  0
ENDSEC
  0
SECTION
  2
BLOCKS
  0
BLOCK
  5
20
330
1F
100
AcDbEntity
  8
0
100
AcDbBlockBegin
  2
*Model_Space
 70
     0
 10
0.0
 20
0.0
 30
0.0
  3
*Model_Space
  1

  0
ENDBLK
  5
21
330
1F
100
AcDbEntity
  8
0
100
AcDbBlockEnd
  0
BLOCK
  5
1C
330
1B
100
AcDbEntity
 67
     1
  8
0
100
AcDbBlockBegin
  2
*Paper_Space
 70
     0
 10
0.0
 20
0.0
 30
0.0
  3
*Paper_Space
  1

  0
ENDBLK
  5
1D
330
1B
100
AcDbEntity
 67
     1
  8
0
100
AcDbBlockEnd
  0
BLOCK
  5
24
330
23
100
AcDbEntity
  8
0
100
AcDbBlockBegin
  2
*Paper_Space0
 70
     0
 10
0.0
 20
0.0
 30
0.0
  3
*Paper_Space0
  1

  0
ENDBLK
  5
25
330
23
100
AcDbEntity
  8
0
100
AcDbBlockEnd
  0
ENDSEC
  0
SECTION
  2
ENTITIES
  0
LINE
  5
65
330
1F
100
AcDbEntity
  8
0
  6
CENTERX2
 62
     7
370
    18
100
AcDbLine
 10
0.25
 20
0.25
 30
0.0
 11
0.25
 21
11.75
 31
0.0
  0
LINE
  5
66
330
1F
100
AcDbEntity
  8
0
  6
CENTERX2
 62
     7
370
    18
100
AcDbLine
 10
0.25
 20
0.25
 30
0.0
 11
23.75
 21
0.25
 31
0.0
  0
LINE
  5
67
330
1F
100
AcDbEntity
  8
0
  6
CENTERX2
 62
     7
370
    18
100
AcDbLine
 10
23.75
 20
0.25
 30
0.0
 11
23.75
 21
11.75
 31
0.0
  0
LINE
  5
68
330
1F
100
AcDbEntity
  8
0
  6
CENTERX2
 62
     7
370
    18
100
AcDbLine
 10
23.75
 20
11.75
 30
0.0
 11
0.25
 21
11.75
 31
0.0
  0
ARC
  5
69
330
1F
100
AcDbEntity
  8
0
  6
Continuous
 62
     7
370
    25
100
AcDbCircle
 10
9.7221680588
 20
1.1594326369
 30
0.0
 40
0.1000000000000002
100
AcDbArc
 50
71.5650511771
 51
97.7863552889
  0
ARC
  5
6A
330
1F
100
AcDbEntity
  8
0
  6
Continuous
 62
     7
370
    25
100
AcDbCircle
 10
8.7571736849
 20
1.0274789639
 30
0.0
 40
0.100000000000001
100
AcDbArc
 50
97.7863552889
 51
136.1495564877
  0
ARC
  5
6B
330
1F
100
AcDbEntity
  8
0
  6
Continuous
 62
     7
370
    25
100
AcDbCircle
 10
7.7608724442
 20
0.8576816836
 30
0.0
 40
0.1000000000000003
100
AcDbArc
 50
63.1941595112
 51
91.6087731113
  0
ARC
  5
6C
330
1F
100
AcDbEntity
  8
0
  6
Continuous
 62
     7
370
    25
100
AcDbCircle
 10
3.6816956903
 20
0.7431148676
 30
0.0
 40
0.1000000000000002
100
AcDbArc
 50
91.6087731113
 51
180.0
  0
ARC
  5
6D
330
1F
100
AcDbEntity
  8
0
  6
Continuous
 62
     7
370
    25
100
AcDbCircle
 10
3.4816956903
 20
0.5576741166
 30
0.0
 40
0.1000000000000004
100
AcDbArc
 50
288.4349488229
 51
0.0
  0
ARC
  5
6E
330
1F
100
AcDbEntity
  8
0
  6
Continuous
 62
     7
370
    25
100
AcDbCircle
 10
2.8276556694
 20
0.5506874569
 30
0.0
 40
0.1
100
AcDbArc
 50
193.1980576335
 51
251.5650511771
  0
ARC
  5
6F
330
1F
100
AcDbEntity
  8
0
  6
Continuous
 62
     7
370
    25
100
AcDbCircle
 10
5.8342317535
 20
3.6635927314
 30
0.0
 40
0.1000000000000018
100
AcDbArc
 50
284.0206378871
 51
324.462322208
  0
ARC
  5
70
330
1F
100
AcDbEntity
  8
0
  6
Continuous
 62
     7
370
    25
100
AcDbCircle
 10
6.1691956903
 20
3.7884492322
 30
0.0
 40
0.1000000000000004
100
AcDbArc
 50
0.0
 51
144.462322208
  0
ARC
  5
71
330
1F
100
AcDbEntity
  8
0
  6
Continuous
 62
     7
370
    25
100
AcDbCircle
 10
6.6191956903
 20
3.7884492322
 30
0.0
 40
0.0999999999999996
100
AcDbArc
 50
35.537677792
 51
180.0
  0
ARC
  5
72
330
1F
100
AcDbEntity
  8
0
  6
Continuous
 62
     7
370
    25
100
AcDbCircle
 10
6.9606500829
 20
3.6545060932
 30
0.0
 40
0.0999999999999998
100
AcDbArc
 50
215.537677792
 51
244.3289737822
  0
ARC
  5
73
330
1F
100
AcDbEntity
  8
0
  6
Continuous
 62
     7
370
    25
100
AcDbCircle
 10
9.7544803234
 20
2.3116660151
 30
0.0
 40
0.1000000000000009
100
AcDbArc
 50
244.3289737822
 51
270.0
  0
ARC
  5
74
330
1F
100
AcDbEntity
  8
0
  6
Continuous
 62
     7
370
    25
100
AcDbCircle
 10
10.4816956903
 20
2.1116660151
 30
0.0
 40
0.1000000000000001
100
AcDbArc
 50
0.0
 51
90.0
  0
ARC
  5
75
330
1F
100
AcDbEntity
  8
0
  6
Continuous
 62
     7
370
    25
100
AcDbCircle
 10
10.4816956903
 20
1.3337419371
 30
0.0
 40
0.1000000000000004
100
AcDbArc
 50
288.4349488229
 51
0.0
  0
ARC
  5
76
330
1F
100
AcDbEntity
  8
0
  6
Continuous
 62
     7
370
    25
100
AcDbCircle
 10
9.6316956903
 20
1.6517142454
 30
0.0
 40
0.0999999999999998
100
AcDbArc
 50
277.7863552889
 51
0.0
  0
ARC
  5
77
330
1F
100
AcDbEntity
  8
0
  6
Continuous
 62
     7
370
    25
100
AcDbCircle
 10
9.6316956903
 20
1.8159252336
 30
0.0
 40
0.1000000000000003
100
AcDbArc
 50
0.0
 51
64.3289737822
  0
ARC
  5
78
330
1F
100
AcDbEntity
  8
0
  6
Continuous
 62
     7
370
    25
100
AcDbCircle
 10
8.7040660031
 20
2.2617856525
 30
0.0
 40
0.0999999999999999
100
AcDbArc
 50
64.3289737822
 51
154.3289737822
  0
LINE
  5
79
330
1F
100
AcDbEntity
  8
0
  6
Continuous
 62
     7
370
    25
100
AcDbLine
 10
8.6119457702
 20
2.300964443
 30
0.0
 11
8.6139363829
 21
2.305105989
 31
0.0
  0
ARC
  5
7A
330
1F
100
AcDbEntity
  8
0
  6
Continuous
 62
     7
370
    25
100
AcDbCircle
 10
8.7020753904
 20
2.2576441065
 30
0.0
 40
0.0999999999999999
100
AcDbArc
 50
154.3289737822
 51
228.9794967652
  0
ARC
  5
7B
330
1F
100
AcDbEntity
  8
0
  6
Continuous
 62
     7
370
    25
100
AcDbCircle
 10
8.9926026225
 20
1.5643244326
 30
0.0
 40
0.1000000000000005
100
AcDbArc
 50
176.4915673018
 51
277.7863552889
  0
ARC
  5
7C
330
1F
100
AcDbEntity
  8
0
  6
Continuous
 62
     7
370
    25
100
AcDbCircle
 10
1.9927198209
 20
1.5662726084
 30
0.0
 40
0.1000000000000003
100
AcDbArc
 50
48.533000646
 51
176.6231250323
  0
ARC
  5
7D
330
1F
100
AcDbEntity
  8
0
  6
Continuous
 62
     7
370
    25
100
AcDbCircle
 10
1.8318025695
 20
1.1166438713
 30
0.0
 40
0.1
100
AcDbArc
 50
143.9933988989
 51
258.3091380701
  0
ARC
  5
7E
330
1F
100
AcDbEntity
  8
0
  6
Continuous
 62
     7
370
    25
100
AcDbCircle
 10
2.6066956903
 20
0.9563001037
 30
0.0
 40
0.1
100
AcDbArc
 50
258.3091380701
 51
0.0
  0
ARC
  5
7F
330
1F
100
AcDbEntity
  8
0
  6
Continuous
 62
     7
370
    25
100
AcDbCircle
 10
2.6066956903
 20
1.0237027568
 30
0.0
 40
0.0999999999999996
100
AcDbArc
 50
0.0
 51
48.533000646
  0
LINE
  5
80
330
1F
100
AcDbEntity
  8
0
  6
Continuous
 62
     7
370
    25
100
AcDbLine
 10
2.6729145465
 20
1.0986364813
 30
0.0
 11
2.0589386772
 21
1.6412063329
 31
0.0
  0
ARC
  5
81
330
1F
100
AcDbEntity
  8
0
  6
Continuous
 62
     7
370
    25
100
AcDbCircle
 10
3.3299990059
 20
1.3355981946
 30
0.0
 40
0.1000000000000002
100
AcDbArc
 50
270.0
 51
304.509428012
  0
LINE
  5
82
330
1F
100
AcDbEntity
  8
0
  6
Continuous
 62
     7
370
    25
100
AcDbLine
 10
5.8508498742
 20
2.9473874392
 30
0.0
 11
3.3866531898
 21
1.253194897
 31
0.0
  0
ARC
  5
83
330
1F
100
AcDbEntity
  8
0
  6
Continuous
 62
     7
370
    25
100
AcDbCircle
 10
5.7941956903
 20
3.0297907368
 30
0.0
 40
0.1000000000000007
100
AcDbArc
 50
304.509428012
 51
0.0
  0
ARC
  5
84
330
1F
100
AcDbEntity
  8
0
  6
Continuous
 62
     7
370
    25
100
AcDbCircle
 10
5.7941956903
 20
3.1382421701
 30
0.0
 40
0.1000000000000005
100
AcDbArc
 50
0.0
 51
104.0206378871
  0
ARC
  5
85
330
1F
100
AcDbEntity
  8
0
  6
Continuous
 62
     7
370
    25
100
AcDbCircle
 10
1.9731594052
 20
2.1840888002
 30
0.0
 40
0.0999999999999998
100
AcDbArc
 50
104.0206378871
 51
228.533000646
  0
LINE
  5
86
330
1F
100
AcDbEntity
  8
0
  6
Continuous
 62
     7
370
    25
100
AcDbLine
 10
2.8670985004
 20
1.26066447
 30
0.0
 11
1.906940549
 21
2.1091550756
 31
0.0
  0
ARC
  5
87
330
1F
100
AcDbEntity
  8
0
  6
Continuous
 62
     7
370
    25
100
AcDbCircle
 10
2.9333173566
 20
1.3355981946
 30
0.0
 40
0.1
100
AcDbArc
 50
228.533000646
 51
270.0
  0
ARC
  5
88
330
1F
100
AcDbEntity
  8
0
  6
Continuous
 62
     7
370
    25
100
AcDbCircle
 10
6.6914574896
 20
2.7254957375
 30
0.0
 40
0.1000000000000005
100
AcDbArc
 50
20.7059627303
 51
90.0
  0
ARC
  5
89
330
1F
100
AcDbEntity
  8
0
  6
Continuous
 62
     7
370
    25
100
AcDbCircle
 10
6.1458923746
 20
2.7254957375
 30
0.0
 40
0.1000000000000005
100
AcDbArc
 50
90.0
 51
124.509428012
  0
LINE
  5
8A
330
1F
100
AcDbEntity
  8
0
  6
Continuous
 62
     7
370
    25
100
AcDbLine
 10
6.0892381907
 20
2.8078990351
 30
0.0
 11
3.9465410242
 21
1.3347448901
 31
0.0
  0
ARC
  5
8B
330
1F
100
AcDbEntity
  8
0
  6
Continuous
 62
     7
370
    25
100
AcDbCircle
 10
4.0031952081
 20
1.2523415925
 30
0.0
 40
0.1000000000000002
100
AcDbArc
 50
124.509428012
 51
271.6087731113
  0
ARC
  5
8C
330
1F
100
AcDbEntity
  8
0
  6
Continuous
 62
     7
370
    25
100
AcDbCircle
 10
7.2142029841
 20
1.3425252152
 30
0.0
 40
0.100000000000002
100
AcDbArc
 50
271.6087731113
 51
20.7059627303
  0
LINE
  5
8D
330
1F
100
AcDbEntity
  8
0
  6
Continuous
 62
     7
370
    25
100
AcDbLine
 10
7.3077437081
 20
1.3778824345
 30
0.0
 11
6.7849982136
 21
2.7608529568
 31
0.0
  0
LINE
  5
8E
330
1F
100
AcDbEntity
  8
0
  6
Continuous
 62
     7
370
    25
100
AcDbLine
 10
7.3286724942
 20
2.0295826152
 30
0.0
 11
6.9531611142
 21
3.0230319607
 31
0.0
  0
ARC
  5
8F
330
1F
100
AcDbEntity
  8
0
  6
Continuous
 62
     7
370
    25
100
AcDbCircle
 10
7.4222132182
 20
2.0649398345
 30
0.0
 40
0.0999999999999999
100
AcDbArc
 50
200.7059627303
 51
328.1455084374
  0
ARC
  5
90
330
1F
100
AcDbEntity
  8
0
  6
Continuous
 62
     7
370
    25
100
AcDbCircle
 10
8.2964920994
 20
2.4525856209
 30
0.0
 40
0.1
100
AcDbArc
 50
259.6784507992
 51
334.3289737822
  0
LINE
  5
91
330
1F
100
AcDbEntity
  8
0
  6
Continuous
 62
     7
370
    25
100
AcDbLine
 10
8.3866217196
 20
2.4092652844
 30
0.0
 11
8.3886123323
 21
2.4134068304
 31
0.0
  0
ARC
  5
92
330
1F
100
AcDbEntity
  8
0
  6
Continuous
 62
     7
370
    25
100
AcDbCircle
 10
8.2984827121
 20
2.4567271669
 30
0.0
 40
0.0999999999999998
100
AcDbArc
 50
334.3289737822
 51
64.3289737822
  0
ARC
  5
93
330
1F
100
AcDbEntity
  8
0
  6
Continuous
 62
     7
370
    25
100
AcDbCircle
 10
7.0467018382
 20
3.05838918
 30
0.0
 40
0.1000000000000005
100
AcDbArc
 50
64.3289737822
 51
200.7059627303
  0
CIRCLE
  5
94
330
1F
100
AcDbEntity
  8
0
  6
Continuous
 62
     7
370
    25
100
AcDbCircle
 10
8.1441956903
 20
1.6163405589
 30
0.0
 40
0.375
  0
LINE
  5
95
330
1F
100
AcDbEntity
  8
0
  6
Continuous
 62
     7
370
    25
100
AcDbLine
 10
9.7316956903
 20
1.8159252336
 30
0.0
 11
9.7316956903
 21
1.6517142454
 31
0.0
  0
LINE
  5
96
330
1F
100
AcDbEntity
  8
0
  6
Continuous
 62
     7
370
    25
100
AcDbLine
 10
6.8792767358
 20
3.5963822738
 30
0.0
 11
6.7005690374
 21
3.8465730516
 31
0.0
  0
CIRCLE
  5
97
330
1F
100
AcDbEntity
  8
0
  6
Continuous
 62
     7
370
    25
100
AcDbCircle
 10
1.1441956903
 20
1.6163405589
 30
0.0
 40
0.3750000000000002
  0
LINE
  5
98
330
1F
100
AcDbEntity
  8
0
  6
Continuous
 62
     7
370
    25
100
AcDbLine
 10
8.7473863397
 20
2.3519152727
 30
0.0
 11
9.6750160268
 21
1.9060548538
 31
0.0
  0
LINE
  5
99
330
1F
100
AcDbEntity
  8
0
  6
Continuous
 62
     7
370
    25
100
AcDbLine
 10
5.8941956903
 20
3.0297907368
 30
0.0
 11
5.8941956903
 21
3.1382421701
 31
0.0
  0
ARC
  5
9A
330
1F
100
AcDbEntity
  8
0
  6
Continuous
 62
     7
370
    25
100
AcDbCircle
 10
1.1441956903
 20
1.6163405589
 30
0.0
 40
0.7500000000000006
100
AcDbArc
 50
323.9933988989
 51
356.6231250323
  0
LINE
  5
9B
330
1F
100
AcDbEntity
  8
0
  6
Continuous
 62
     7
370
    25
100
AcDbLine
 10
2.5864325786
 20
0.8583745896
 30
0.0
 11
1.8115394578
 21
1.0187183572
 31
0.0
  0
LINE
  5
9C
330
1F
100
AcDbEntity
  8
0
  6
Continuous
 62
     7
370
    25
100
AcDbLine
 10
2.7066956903
 20
1.0237027568
 30
0.0
 11
2.7066956903
 21
0.9563001037
 31
0.0
  0
ARC
  5
9D
330
1F
100
AcDbEntity
  8
0
  6
Continuous
 62
     7
370
    25
100
AcDbCircle
 10
8.1441956903
 20
1.6163405589
 30
0.0
 40
0.7500000000000003
100
AcDbArc
 50
356.4915673018
 51
48.9794967652
  0
LINE
  5
9E
330
1F
100
AcDbEntity
  8
0
  6
Continuous
 62
     7
370
    25
100
AcDbLine
 10
9.6452436529
 20
1.5526362322
 30
0.0
 11
9.0061505851
 21
1.4652464194
 31
0.0
  0
LINE
  5
9F
330
1F
100
AcDbEntity
  8
0
  6
Continuous
 62
     7
370
    25
100
AcDbLine
 10
6.9173297464
 20
3.5643764729
 30
0.0
 11
9.7111599869
 21
2.2215363949
 31
0.0
  0
LINE
  5
A0
330
1F
100
AcDbEntity
  8
0
  6
Continuous
 62
     7
370
    25
100
AcDbLine
 10
9.7544803234
 20
2.2116660151
 30
0.0
 11
10.4816956903
 21
2.2116660151
 31
0.0
  0
LINE
  5
A1
330
1F
100
AcDbEntity
  8
0
  6
Continuous
 62
     7
370
    25
100
AcDbLine
 10
10.5816956903
 20
2.1116660151
 30
0.0
 11
10.5816956903
 21
1.3337419371
 31
0.0
  0
LINE
  5
A2
330
1F
100
AcDbEntity
  8
0
  6
Continuous
 62
     7
370
    25
100
AcDbLine
 10
10.2066956903
 20
1.1366660151
 30
0.0
 11
10.5133184669
 21
1.2388736073
 31
0.0
  0
LINE
  5
A3
330
1F
100
AcDbEntity
  8
0
  6
Continuous
 62
     7
370
    25
100
AcDbLine
 10
10.2066956903
 20
1.6366660151
 30
0.0
 11
10.2066956903
 21
1.1366660151
 31
0.0
  0
LINE
  5
A4
330
1F
100
AcDbEntity
  8
0
  6
Continuous
 62
     7
370
    25
100
AcDbLine
 10
10.1066956903
 20
1.6366660151
 30
0.0
 11
10.2066956903
 21
1.6366660151
 31
0.0
  0
LINE
  5
A5
330
1F
100
AcDbEntity
  8
0
  6
Continuous
 62
     7
370
    25
100
AcDbLine
 10
10.1066956903
 20
1.1366660151
 30
0.0
 11
10.1066956903
 21
1.6366660151
 31
0.0
  0
LINE
  5
A6
330
1F
100
AcDbEntity
  8
0
  6
Continuous
 62
     7
370
    25
100
AcDbLine
 10
10.1066956903
 20
1.1366660151
 30
0.0
 11
9.7537908354
 21
1.2543009667
 31
0.0
  0
LINE
  5
A7
330
1F
100
AcDbEntity
  8
0
  6
Continuous
 62
     7
370
    25
100
AcDbLine
 10
9.7086200961
 20
1.2585106501
 30
0.0
 11
8.7436257222
 21
1.1265569771
 31
0.0
  0
ARC
  5
A8
330
1F
100
AcDbEntity
  8
0
  6
Continuous
 62
     7
370
    25
100
AcDbCircle
 10
8.1441956903
 20
1.6163405589
 30
0.0
 40
0.75
100
AcDbArc
 50
243.1941595112
 51
316.1495564877
  0
LINE
  5
A9
330
1F
100
AcDbEntity
  8
0
  6
Continuous
 62
     7
370
    25
100
AcDbLine
 10
3.6788882204
 20
0.8430754504
 30
0.0
 11
7.7580649744
 21
0.9576422664
 31
0.0
  0
LINE
  5
AA
330
1F
100
AcDbEntity
  8
0
  6
Continuous
 62
     7
370
    25
100
AcDbLine
 10
3.5816956903
 20
0.7431148676
 30
0.0
 11
3.5816956903
 21
0.5576741166
 31
0.0
  0
LINE
  5
AB
330
1F
100
AcDbEntity
  8
0
  6
Continuous
 62
     7
370
    25
100
AcDbLine
 10
3.2066956903
 20
0.3605981946
 30
0.0
 11
3.5133184669
 21
0.4628057868
 31
0.0
  0
LINE
  5
AC
330
1F
100
AcDbEntity
  8
0
  6
Continuous
 62
     7
370
    25
100
AcDbLine
 10
3.2066956903
 20
0.8605981946
 30
0.0
 11
3.2066956903
 21
0.3605981946
 31
0.0
  0
LINE
  5
AD
330
1F
100
AcDbEntity
  8
0
  6
Continuous
 62
     7
370
    25
100
AcDbLine
 10
3.0816956903
 20
0.8605981946
 30
0.0
 11
3.2066956903
 21
0.8605981946
 31
0.0
  0
LINE
  5
AE
330
1F
100
AcDbEntity
  8
0
  6
Continuous
 62
     7
370
    25
100
AcDbLine
 10
3.0816956903
 20
0.3605981946
 30
0.0
 11
3.0816956903
 21
0.8605981946
 31
0.0
  0
LINE
  5
AF
330
1F
100
AcDbEntity
  8
0
  6
Continuous
 62
     7
370
    25
100
AcDbLine
 10
3.0816956903
 20
0.3605981946
 30
0.0
 11
2.7960328928
 21
0.4558191271
 31
0.0
  0
LINE
  5
B0
330
1F
100
AcDbEntity
  8
0
  6
Continuous
 62
     7
370
    25
100
AcDbLine
 10
2.7066956903
 20
0.5271340015
 30
0.0
 11
2.7302970051
 21
0.5278556704
 31
0.0
  0
LINE
  5
B1
330
1F
100
AcDbEntity
  8
0
  6
Continuous
 62
     7
370
    25
100
AcDbLine
 10
2.7066956903
 20
0.5271340015
 30
0.0
 11
0.9922223524
 21
0.8818992035
 31
0.0
  0
ARC
  5
B2
330
1F
100
AcDbEntity
  8
0
  6
Continuous
 62
     7
370
    25
100
AcDbCircle
 10
1.1441956903
 20
1.6163405589
 30
0.0
 40
0.7500000000000001
100
AcDbArc
 50
104.0206378871
 51
258.3091380701
  0
LINE
  5
B3
330
1F
100
AcDbEntity
  8
0
  6
Continuous
 62
     7
370
    25
100
AcDbLine
 10
5.8584588914
 20
3.5665718791
 30
0.0
 11
0.9624921556
 21
2.3439969514
 31
0.0
  0
LINE
  5
B4
330
1F
100
AcDbEntity
  8
0
  6
Continuous
 62
     7
370
    25
100
AcDbLine
 10
5.9156051006
 20
3.605468912
 30
0.0
 11
6.0878223431
 21
3.8465730516
 31
0.0
  0
LINE
  5
B5
330
1F
100
AcDbEntity
  8
0
  6
Continuous
 62
     7
370
    25
100
AcDbLine
 10
6.2691956903
 20
3.2004957375
 30
0.0
 11
6.2691956903
 21
3.7884492322
 31
0.0
  0
LINE
  5
B6
330
1F
100
AcDbEntity
  8
0
  6
Continuous
 62
     7
370
    25
100
AcDbLine
 10
6.2691956903
 20
3.2004957375
 30
0.0
 11
6.5191956903
 21
3.2004957375
 31
0.0
  0
LINE
  5
B7
330
1F
100
AcDbEntity
  8
0
  6
Continuous
 62
     7
370
    25
100
AcDbLine
 10
6.5191956903
 20
3.2004957375
 30
0.0
 11
6.5191956903
 21
3.7884492322
 31
0.0
  0
LINE
  5
B8
330
1F
100
AcDbEntity
  8
0
  6
Continuous
 62
     7
370
    25
100
AcDbLine
 10
7.0900221747
 20
3.1485188002
 30
0.0
 11
8.3418030486
 21
2.5468567872
 31
0.0
  0
ARC
  5
B9
330
1F
100
AcDbEntity
  8
0
  6
Continuous
 62
     7
370
    25
100
AcDbCircle
 10
8.1441956903
 20
1.6163405589
 30
0.0
 40
0.75
100
AcDbArc
 50
79.6784507992
 51
148.1455084374
  0
LINE
  5
BA
330
1F
100
AcDbEntity
  8
0
  6
Continuous
 62
     7
370
    25
100
AcDbLine
 10
5.7699685523
 20
3.2352630224
 30
0.0
 11
1.9489322672
 21
2.2811096525
 31
0.0
  0
LINE
  5
BB
330
1F
100
AcDbEntity
  8
0
  6
Continuous
 62
     7
370
    25
100
AcDbLine
 10
2.9333173566
 20
1.2355981946
 30
0.0
 11
3.3299990059
 21
1.2355981946
 31
0.0
  0
LINE
  5
BC
330
1F
100
AcDbEntity
  8
0
  6
Continuous
 62
     7
370
    25
100
AcDbLine
 10
6.1458923746
 20
2.8254957375
 30
0.0
 11
6.6914574896
 21
2.8254957375
 31
0.0
  0
LINE
  5
BD
330
1F
100
AcDbEntity
  8
0
  6
Continuous
 62
     7
370
    25
100
AcDbLine
 10
7.217010454
 20
1.2425646324
 30
0.0
 11
4.006002678
 21
1.1523810097
 31
0.0
  0
ARC
  5
BE
330
1F
100
AcDbEntity
  8
0
  6
Continuous
 62
     7
370
    25
100
AcDbCircle
 10
21.0871824926
 20
0.4383965663
 30
0.0
 40
0.1000000000000001
100
AcDbArc
 50
61.9934555233
 51
88.2147596351
  0
ARC
  5
BF
330
1F
100
AcDbEntity
  8
0
  6
Continuous
 62
     7
370
    25
100
AcDbCircle
 10
20.1136809535
 20
0.4687390609
 30
0.0
 40
0.1000000000000008
100
AcDbArc
 50
88.2147596351
 51
126.577960834
  0
ARC
  5
C0
330
1F
100
AcDbEntity
  8
0
  6
Continuous
 62
     7
370
    25
100
AcDbCircle
 10
19.1030157515
 20
0.4669704879
 30
0.0
 40
0.1000000000000017
100
AcDbArc
 50
53.6225638574
 51
82.0371774576
  0
ARC
  5
C1
330
1F
100
AcDbEntity
  8
0
  6
Continuous
 62
     7
370
    25
100
AcDbCircle
 10
15.0615767229
 20
1.032283785
 30
0.0
 40
0.1000000000000011
100
AcDbArc
 50
82.0371774576
 51
170.4284043462
  0
ARC
  5
C2
330
1F
100
AcDbEntity
  8
0
  6
Continuous
 62
     7
370
    25
100
AcDbCircle
 10
14.8335259315
 20
0.8826806143
 30
0.0
 40
0.0999999999999999
100
AcDbArc
 50
278.8633531691
 51
350.4284043462
  0
ARC
  5
C3
330
1F
100
AcDbEntity
  8
0
  6
Continuous
 62
     7
370
    25
100
AcDbCircle
 10
14.1874293278
 20
0.9845449406
 30
0.0
 40
0.1000000000000005
100
AcDbArc
 50
183.6264619797
 51
241.9934555233
  0
ARC
  5
C4
330
1F
100
AcDbEntity
  8
0
  6
Continuous
 62
     7
370
    25
100
AcDbCircle
 10
17.6697632757
 20
3.5541809601
 30
0.0
 40
0.0999999999999998
100
AcDbArc
 50
274.4490422334
 51
314.8907265543
  0
ARC
  5
C5
330
1F
100
AcDbEntity
  8
0
  6
Continuous
 62
     7
370
    25
100
AcDbCircle
 10
18.0208251715
 20
3.6216015062
 30
0.0
 40
0.1000000000000009
100
AcDbArc
 50
350.4284043462
 51
134.8907265543
  0
ARC
  5
C6
330
1F
100
AcDbEntity
  8
0
  6
Continuous
 62
     7
370
    25
100
AcDbCircle
 10
18.4645605377
 20
3.5467755425
 30
0.0
 40
0.100000000000001
100
AcDbArc
 50
25.9660821382
 51
170.4284043462
  0
ARC
  5
C7
330
1F
100
AcDbEntity
  8
0
  6
Continuous
 62
     7
370
    25
100
AcDbCircle
 10
18.7789893499
 20
3.3579200717
 30
0.0
 40
0.1000000000000002
100
AcDbArc
 50
205.9660821382
 51
234.7573781284
  0
ARC
  5
C8
330
1F
100
AcDbEntity
  8
0
  6
Continuous
 62
     7
370
    25
100
AcDbCircle
 10
21.3106381982
 20
1.5692163521
 30
0.0
 40
0.1
100
AcDbArc
 50
234.7573781284
 51
260.4284043462
  0
ARC
  5
C9
330
1F
100
AcDbEntity
  8
0
  6
Continuous
 62
     7
370
    25
100
AcDbCircle
 10
21.9944737189
 20
1.2510793212
 30
0.0
 40
0.100000000000001
100
AcDbArc
 50
350.4284043462
 51
80.4284043462
  0
ARC
  5
CA
330
1F
100
AcDbEntity
  8
0
  6
Continuous
 62
     7
370
    25
100
AcDbCircle
 10
21.8651205659
 20
0.4839850422
 30
0.0
 40
0.1000000000000011
100
AcDbArc
 50
278.8633531692
 51
350.4284043462
  0
ARC
  5
CB
330
1F
100
AcDbEntity
  8
0
  6
Continuous
 62
     7
370
    25
100
AcDbCircle
 10
21.079826173
 20
0.9388686596
 30
0.0
 40
0.0999999999999999
100
AcDbArc
 50
268.2147596351
 51
350.4284043462
  0
ARC
  5
CC
330
1F
100
AcDbEntity
  8
0
  6
Continuous
 62
     7
370
    25
100
AcDbCircle
 10
21.1071311629
 20
1.1007935994
 30
0.0
 40
0.0999999999999985
100
AcDbArc
 50
350.4284043462
 51
54.7573781284
  0
ARC
  5
CD
330
1F
100
AcDbEntity
  8
0
  6
Continuous
 62
     7
370
    25
100
AcDbCircle
 10
20.2665530221
 20
1.6946932028
 30
0.0
 40
0.1000000000000017
100
AcDbArc
 50
54.7573781284
 51
144.7573781284
  0
LINE
  5
CE
330
1F
100
AcDbEntity
  8
0
  6
Continuous
 62
     7
370
    25
100
AcDbLine
 10
20.1822298788
 20
1.7486443143
 30
0.0
 11
20.1848814353
 21
1.7523972053
 31
0.0
  0
ARC
  5
CF
330
1F
100
AcDbEntity
  8
0
  6
Continuous
 62
     7
370
    25
100
AcDbCircle
 10
20.2639014656
 20
1.6909403119
 30
0.0
 40
0.0999999999999988
100
AcDbArc
 50
144.7573781284
 51
219.4079011114
  0
ARC
  5
D0
330
1F
100
AcDbEntity
  8
0
  6
Continuous
 62
     7
370
    25
100
AcDbCircle
 10
20.4350990099
 20
0.9589637798
 30
0.0
 40
0.1000000000000029
100
AcDbArc
 50
166.9199716481
 51
268.2147596351
  0
ARC
  5
D1
330
1F
100
AcDbEntity
  8
0
  6
Continuous
 62
     7
370
    25
100
AcDbCircle
 10
13.5329883795
 20
2.1248247818
 30
0.0
 40
0.1000000000000005
100
AcDbArc
 50
38.9614049923
 51
167.0515293785
  0
ARC
  5
D2
330
1F
100
AcDbEntity
  8
0
  6
Continuous
 62
     7
370
    25
100
AcDbCircle
 10
13.2995470928
 20
1.7082128177
 30
0.0
 40
0.0999999999999998
100
AcDbArc
 50
134.4218032451
 51
248.7375424163
  0
ARC
  5
D3
330
1F
100
AcDbEntity
  8
0
  6
Continuous
 62
     7
370
    25
100
AcDbCircle
 10
14.036990661
 20
1.4212520955
 30
0.0
 40
0.0999999999999999
100
AcDbArc
 50
248.7375424163
 51
350.4284043462
  0
ARC
  5
D4
330
1F
100
AcDbEntity
  8
0
  6
Continuous
 62
     7
370
    25
100
AcDbCircle
 10
14.0481983687
 20
1.4877164087
 30
0.0
 40
0.100000000000001
100
AcDbArc
 50
350.4284043462
 51
38.9614049923
  0
LINE
  5
D5
330
1F
100
AcDbEntity
  8
0
  6
Continuous
 62
     7
370
    25
100
AcDbLine
 10
14.1259553389
 20
1.5505960842
 30
0.0
 11
13.6107453497
 21
2.1877044573
 31
0.0
  0
ARC
  5
D6
330
1F
100
AcDbEntity
  8
0
  6
Continuous
 62
     7
370
    25
100
AcDbCircle
 10
14.8132942316
 20
1.6749990058
 30
0.0
 40
0.1000000000000008
100
AcDbArc
 50
260.4284043462
 51
294.9378323582
  0
LINE
  5
D7
330
1F
100
AcDbEntity
  8
0
  6
Continuous
 62
     7
370
    25
100
AcDbLine
 10
17.5670594905
 20
2.8451829947
 30
0.0
 11
14.8554576958
 21
1.5843224251
 31
0.0
  0
ARC
  5
D8
330
1F
100
AcDbEntity
  8
0
  6
Continuous
 62
     7
370
    25
100
AcDbCircle
 10
17.5248960263
 20
2.9358595754
 30
0.0
 40
0.1000000000000008
100
AcDbArc
 50
294.9378323582
 51
350.4284043462
  0
ARC
  5
D9
330
1F
100
AcDbEntity
  8
0
  6
Continuous
 62
     7
370
    25
100
AcDbCircle
 10
17.5429293219
 20
3.042801212
 30
0.0
 40
0.1000000000000001
100
AcDbArc
 50
350.4284043462
 51
94.4490422334
  0
ARC
  5
DA
330
1F
100
AcDbEntity
  8
0
  6
Continuous
 62
     7
370
    25
100
AcDbCircle
 10
13.6164306989
 20
2.7372926063
 30
0.0
 40
0.1000000000000005
100
AcDbArc
 50
94.4490422334
 51
218.9614049923
  0
LINE
  5
DB
330
1F
100
AcDbEntity
  8
0
  6
Continuous
 62
     7
370
    25
100
AcDbLine
 10
14.3443779795
 20
1.6780795229
 30
0.0
 11
13.5386737287
 21
2.6744129308
 31
0.0
  0
ARC
  5
DC
330
1F
100
AcDbEntity
  8
0
  6
Continuous
 62
     7
370
    25
100
AcDbCircle
 10
14.4221349496
 20
1.7409591984
 30
0.0
 40
0.1000000000000003
100
AcDbArc
 50
218.9614049923
 51
260.4284043462
  0
ARC
  5
DD
330
1F
100
AcDbEntity
  8
0
  6
Continuous
 62
     7
370
    25
100
AcDbCircle
 10
18.3590685296
 20
2.4866041716
 30
0.0
 40
0.1000000000000007
100
AcDbArc
 50
11.1343670765
 51
80.4284043462
  0
ARC
  5
DE
330
1F
100
AcDbEntity
  8
0
  6
Continuous
 62
     7
370
    25
100
AcDbCircle
 10
17.8210984495
 20
2.5773206949
 30
0.0
 40
0.0999999999999999
100
AcDbArc
 50
80.4284043462
 51
114.9378323582
  0
LINE
  5
DF
330
1F
100
AcDbEntity
  8
0
  6
Continuous
 62
     7
370
    25
100
AcDbLine
 10
17.7789349853
 20
2.6679972756
 30
0.0
 11
15.4211112292
 21
1.5716390234
 31
0.0
  0
ARC
  5
E0
330
1F
100
AcDbEntity
  8
0
  6
Continuous
 62
     7
370
    25
100
AcDbCircle
 10
15.4632746934
 20
1.4809624427
 30
0.0
 40
0.1000000000000008
100
AcDbArc
 50
114.9378323582
 51
262.0371774576
  0
ARC
  5
E1
330
1F
100
AcDbEntity
  8
0
  6
Continuous
 62
     7
370
    25
100
AcDbCircle
 10
18.6445764436
 20
1.0359644683
 30
0.0
 40
0.1000000000000008
100
AcDbArc
 50
262.0371774576
 51
11.1343670765
  0
LINE
  5
E2
330
1F
100
AcDbEntity
  8
0
  6
Continuous
 62
     7
370
    25
100
AcDbLine
 10
18.7426941446
 20
1.0552755212
 30
0.0
 11
18.4571862305
 21
2.5059152245
 31
0.0
  0
LINE
  5
E3
330
1F
100
AcDbEntity
  8
0
  6
Continuous
 62
     7
370
    25
100
AcDbLine
 10
18.8716962259
 20
1.6944230806
 30
0.0
 11
18.6666031703
 21
2.7364822138
 31
0.0
  0
ARC
  5
E4
330
1F
100
AcDbEntity
  8
0
  6
Continuous
 62
     7
370
    25
100
AcDbCircle
 10
18.9698139269
 20
1.7137341336
 30
0.0
 40
0.1000000000000007
100
AcDbArc
 50
191.1343670765
 51
318.5739127836
  0
ARC
  5
E5
330
1F
100
AcDbEntity
  8
0
  6
Continuous
 62
     7
370
    25
100
AcDbCircle
 10
19.8963793246
 20
1.9506083228
 30
0.0
 40
0.1000000000000015
100
AcDbArc
 50
250.1068551454
 51
324.7573781284
  0
LINE
  5
E6
330
1F
100
AcDbEntity
  8
0
  6
Continuous
 62
     7
370
    25
100
AcDbLine
 10
19.9780509115
 20
1.8929043204
 30
0.0
 11
19.980702468
 21
1.8966572113
 31
0.0
  0
ARC
  5
E7
330
1F
100
AcDbEntity
  8
0
  6
Continuous
 62
     7
370
    25
100
AcDbCircle
 10
19.8990308811
 20
1.9543612137
 30
0.0
 40
0.0999999999999988
100
AcDbArc
 50
324.7573781284
 51
54.7573781284
  0
ARC
  5
E8
330
1F
100
AcDbEntity
  8
0
  6
Continuous
 62
     7
370
    25
100
AcDbCircle
 10
18.7647208712
 20
2.7557932667
 30
0.0
 40
0.100000000000003
100
AcDbArc
 50
54.7573781284
 51
191.1343670765
  0
CIRCLE
  5
E9
330
1F
100
AcDbEntity
  8
0
  6
Continuous
 62
     7
370
    25
100
AcDbCircle
 10
19.6071523346
 20
1.1513288046
 30
0.0
 40
0.3749999999999987
  0
LINE
  5
EA
330
1F
100
AcDbEntity
  8
0
  6
Continuous
 62
     7
370
    25
100
AcDbLine
 10
21.205739022
 20
1.0841656075
 30
0.0
 11
21.1784340322
 21
0.9222406676
 31
0.0
  0
LINE
  5
EB
330
1F
100
AcDbEntity
  8
0
  6
Continuous
 62
     7
370
    25
100
AcDbLine
 10
18.6890840104
 20
3.3141361714
 30
0.0
 11
18.5544658772
 21
3.5905594428
 31
0.0
  0
CIRCLE
  5
EC
330
1F
100
AcDbEntity
  8
0
  6
Continuous
 62
     7
370
    25
100
AcDbCircle
 10
12.7046021947
 20
2.3152882399
 30
0.0
 40
0.3749999999999987
  0
LINE
  5
ED
330
1F
100
AcDbEntity
  8
0
  6
Continuous
 62
     7
370
    25
100
AcDbLine
 10
20.3242570246
 20
1.7763647897
 30
0.0
 11
21.1648351653
 21
1.1824651863
 31
0.0
  0
LINE
  5
EE
330
1F
100
AcDbEntity
  8
0
  6
Continuous
 62
     7
370
    25
100
AcDbLine
 10
17.6235038855
 20
2.9192315835
 30
0.0
 11
17.6415371811
 21
3.0261732201
 31
0.0
  0
ARC
  5
EF
330
1F
100
AcDbEntity
  8
0
  6
Continuous
 62
     7
370
    25
100
AcDbCircle
 10
12.7046021947
 20
2.3152882399
 30
0.0
 40
0.7499999999999997
100
AcDbArc
 50
314.4218032451
 51
347.0515293785
  0
LINE
  5
F0
330
1F
100
AcDbEntity
  8
0
  6
Continuous
 62
     7
370
    25
100
AcDbLine
 10
14.0007265938
 20
1.3280591912
 30
0.0
 11
13.2632830255
 21
1.6150199133
 31
0.0
  0
LINE
  5
F1
330
1F
100
AcDbEntity
  8
0
  6
Continuous
 62
     7
370
    25
100
AcDbLine
 10
14.1468062279
 20
1.4710884168
 30
0.0
 11
14.1355985202
 21
1.4046241036
 31
0.0
  0
ARC
  5
F2
330
1F
100
AcDbEntity
  8
0
  6
Continuous
 62
     7
370
    25
100
AcDbCircle
 10
19.6071523346
 20
1.1513288046
 30
0.0
 40
0.7500000000000001
100
AcDbArc
 50
346.9199716481
 51
39.4079011114
  0
LINE
  5
F3
330
1F
100
AcDbEntity
  8
0
  6
Continuous
 62
     7
370
    25
100
AcDbLine
 10
21.0767108449
 20
0.8389171977
 30
0.0
 11
20.4319836818
 21
0.8590123179
 31
0.0
  0
LINE
  5
F4
330
1F
100
AcDbEntity
  8
0
  6
Continuous
 62
     7
370
    25
100
AcDbLine
 10
18.7212853474
 20
3.2762484849
 30
0.0
 11
21.2529341958
 21
1.4875447652
 31
0.0
  0
LINE
  5
F5
330
1F
100
AcDbEntity
  8
0
  6
Continuous
 62
     7
370
    25
100
AcDbLine
 10
21.2940102063
 20
1.4706084929
 30
0.0
 11
22.0111017108
 21
1.3496871804
 31
0.0
  0
LINE
  5
F6
330
1F
100
AcDbEntity
  8
0
  6
Continuous
 62
     7
370
    25
100
AcDbLine
 10
22.093081578
 20
1.2344513293
 30
0.0
 11
21.9637284251
 21
0.4673570503
 31
0.0
  0
LINE
  5
F7
330
1F
100
AcDbEntity
  8
0
  6
Continuous
 62
     7
370
    25
100
AcDbLine
 10
21.5611791849
 20
0.3353796724
 30
0.0
 11
21.8805284107
 21
0.3851791804
 31
0.0
  0
LINE
  5
F8
330
1F
100
AcDbEntity
  8
0
  6
Continuous
 62
     7
370
    25
100
AcDbLine
 10
21.6443191446
 20
0.8284189681
 30
0.0
 11
21.5611791849
 21
0.3353796724
 31
0.0
  0
LINE
  5
F9
330
1F
100
AcDbEntity
  8
0
  6
Continuous
 62
     7
370
    25
100
AcDbLine
 10
21.5457112854
 20
0.8450469601
 30
0.0
 11
21.6443191446
 21
0.8284189681
 31
0.0
  0
LINE
  5
FA
330
1F
100
AcDbEntity
  8
0
  6
Continuous
 62
     7
370
    25
100
AcDbLine
 10
21.4625713258
 20
0.3520076644
 30
0.0
 11
21.5457112854
 21
0.8450469601
 31
0.0
  0
LINE
  5
FB
330
1F
100
AcDbEntity
  8
0
  6
Continuous
 62
     7
370
    25
100
AcDbLine
 10
21.4625713258
 20
0.3520076644
 30
0.0
 11
21.1341397338
 21
0.5266859626
 31
0.0
  0
LINE
  5
FC
330
1F
100
AcDbEntity
  8
0
  6
Continuous
 62
     7
370
    25
100
AcDbLine
 10
21.0902978207
 20
0.5383480282
 30
0.0
 11
20.1167962816
 21
0.5686905228
 31
0.0
  0
ARC
  5
FD
330
1F
100
AcDbEntity
  8
0
  6
Continuous
 62
     7
370
    25
100
AcDbCircle
 10
19.6071523346
 20
1.1513288046
 30
0.0
 40
0.749999999999999
100
AcDbArc
 50
233.6225638574
 51
306.577960834
  0
LINE
  5
FE
330
1F
100
AcDbEntity
  8
0
  6
Continuous
 62
     7
370
    25
100
AcDbLine
 10
15.0754297747
 20
1.1313196015
 30
0.0
 11
19.1168688032
 21
0.5660063045
 31
0.0
  0
LINE
  5
FF
330
1F
100
AcDbEntity
  8
0
  6
Continuous
 62
     7
370
    25
100
AcDbLine
 10
14.9629688638
 20
1.0489117769
 30
0.0
 11
14.9321337907
 21
0.8660526223
 31
0.0
  0
LINE
  5
100
330
1F
100
AcDbEntity
  8
0
  6
Continuous
 62
     7
370
    25
100
AcDbLine
 10
14.5295845505
 20
0.7340752445
 30
0.0
 11
14.8489337763
 21
0.7838747525
 31
0.0
  0
LINE
  5
101
330
1F
100
AcDbEntity
  8
0
  6
Continuous
 62
     7
370
    25
100
AcDbLine
 10
14.6127245101
 20
1.2271145402
 30
0.0
 11
14.5295845505
 21
0.7340752445
 31
0.0
  0
LINE
  5
102
330
1F
100
AcDbEntity
  8
0
  6
Continuous
 62
     7
370
    25
100
AcDbLine
 10
14.4894646862
 20
1.2478995301
 30
0.0
 11
14.6127245101
 21
1.2271145402
 31
0.0
  0
LINE
  5
103
330
1F
100
AcDbEntity
  8
0
  6
Continuous
 62
     7
370
    25
100
AcDbLine
 10
14.4063247265
 20
0.7548602344
 30
0.0
 11
14.4894646862
 21
1.2478995301
 31
0.0
  0
LINE
  5
104
330
1F
100
AcDbEntity
  8
0
  6
Continuous
 62
     7
370
    25
100
AcDbLine
 10
14.4063247265
 20
0.7548602344
 30
0.0
 11
14.1404720866
 21
0.8962555443
 31
0.0
  0
LINE
  5
105
330
1F
100
AcDbEntity
  8
0
  6
Continuous
 62
     7
370
    25
100
AcDbLine
 10
14.0642368153
 20
0.9814325981
 30
0.0
 11
14.0876295656
 21
0.9782197956
 31
0.0
  0
LINE
  5
106
330
1F
100
AcDbEntity
  8
0
  6
Continuous
 62
     7
370
    25
100
AcDbLine
 10
14.0642368153
 20
0.9814325981
 30
0.0
 11
12.4326216905
 21
1.616341457
 31
0.0
  0
ARC
  5
107
330
1F
100
AcDbEntity
  8
0
  6
Continuous
 62
     7
370
    25
100
AcDbCircle
 10
12.7046021947
 20
2.3152882399
 30
0.0
 40
0.7500000000000003
100
AcDbArc
 50
94.4490422334
 51
248.7375424163
  0
LINE
  5
108
330
1F
100
AcDbEntity
  8
0
  6
Continuous
 62
     7
370
    25
100
AcDbLine
 10
17.6775205183
 20
3.4544822882
 30
0.0
 11
12.6464228755
 21
3.0630282795
 31
0.0
  0
LINE
  5
109
330
1F
100
AcDbEntity
  8
0
  6
Continuous
 62
     7
370
    25
100
AcDbLine
 10
17.7403389672
 20
3.4833355526
 30
0.0
 11
17.95024948
 21
3.6924469137
 31
0.0
  0
LINE
  5
10A
330
1F
100
AcDbEntity
  8
0
  6
Continuous
 62
     7
370
    25
100
AcDbLine
 10
18.021668171
 20
3.0252051604
 30
0.0
 11
18.1194330307
 21
3.6049735143
 31
0.0
  0
LINE
  5
10B
330
1F
100
AcDbEntity
  8
0
  6
Continuous
 62
     7
370
    25
100
AcDbLine
 10
18.021668171
 20
3.0252051604
 30
0.0
 11
18.2681878189
 21
2.9836351806
 31
0.0
  0
LINE
  5
10C
330
1F
100
AcDbEntity
  8
0
  6
Continuous
 62
     7
370
    25
100
AcDbLine
 10
18.2681878189
 20
2.9836351806
 30
0.0
 11
18.3659526785
 21
3.5634035344
 31
0.0
  0
LINE
  5
10D
330
1F
100
AcDbEntity
  8
0
  6
Continuous
 62
     7
370
    25
100
AcDbLine
 10
18.8224248736
 20
2.8374648536
 30
0.0
 11
19.9567348836
 21
2.0360328006
 31
0.0
  0
ARC
  5
10E
330
1F
100
AcDbEntity
  8
0
  6
Continuous
 62
     7
370
    25
100
AcDbCircle
 10
19.6071523346
 20
1.1513288046
 30
0.0
 40
0.7500000000000009
100
AcDbArc
 50
70.1068551454
 51
138.5739127836
  0
LINE
  5
10F
330
1F
100
AcDbEntity
  8
0
  6
Continuous
 62
     7
370
    25
100
AcDbLine
 10
17.5351720794
 20
3.142499884
 30
0.0
 11
13.6086734563
 21
2.8369912783
 31
0.0
  0
LINE
  5
110
330
1F
100
AcDbEntity
  8
0
  6
Continuous
 62
     7
370
    25
100
AcDbLine
 10
14.4055069577
 20
1.6423513393
 30
0.0
 11
14.7966662397
 21
1.5763911466
 31
0.0
  0
LINE
  5
111
330
1F
100
AcDbEntity
  8
0
  6
Continuous
 62
     7
370
    25
100
AcDbLine
 10
17.8377264415
 20
2.675928554
 30
0.0
 11
18.3756965215
 21
2.5852120307
 31
0.0
  0
LINE
  5
112
330
1F
100
AcDbEntity
  8
0
  6
Continuous
 62
     7
370
    25
100
AcDbLine
 10
18.6307233919
 20
0.9369286518
 30
0.0
 11
15.4494216417
 21
1.3819266261
 31
0.0
  0
ARC
  5
113
330
1F
100
AcDbEntity
  8
0
  6
Continuous
 62
     7
370
    25
100
AcDbCircle
 10
10.3936039872
 20
3.1134019809
 30
0.0
 40
0.1000000000000009
100
AcDbArc
 50
22.0678995624
 51
76.8325393401
  0
ARC
  5
114
330
1F
100
AcDbEntity
  8
0
  6
Continuous
 62
     7
370
    25
100
AcDbCircle
 10
7.6177762973
 20
3.7628035404
 30
0.0
 40
0.0999999999999994
100
AcDbArc
 50
76.8325393401
 51
90.0
  0
ARC
  5
115
330
1F
100
AcDbEntity
  8
0
  6
Continuous
 62
     7
370
    25
100
AcDbCircle
 10
6.8793179169
 20
3.9628035404
 30
0.0
 40
0.1000000000000005
100
AcDbArc
 50
180.0
 51
270.0
  0
ARC
  5
116
330
1F
100
AcDbEntity
  8
0
  6
Continuous
 62
     7
370
    25
100
AcDbCircle
 10
6.8793179169
 20
4.7749930864
 30
0.0
 40
0.0999999999999997
100
AcDbArc
 50
138.576334375
 51
180.0
  0
ARC
  5
117
330
1F
100
AcDbEntity
  8
0
  6
Continuous
 62
     7
370
    25
100
AcDbCircle
 10
7.0543179169
 20
4.9733264197
 30
0.0
 40
0.1000000000000005
100
AcDbArc
 50
0.0000000001
 51
138.576334375
  0
ARC
  5
118
330
1F
100
AcDbEntity
  8
0
  6
Continuous
 62
     7
370
    25
100
AcDbCircle
 10
7.3543179169
 20
4.9733264197
 30
0.0
 40
0.1
100
AcDbArc
 50
41.423665625
 51
180.0000000001
  0
ARC
  5
119
330
1F
100
AcDbEntity
  8
0
  6
Continuous
 62
     7
370
    25
100
AcDbCircle
 10
7.6537366004
 20
4.9362728198
 30
0.0
 40
0.1
100
AcDbArc
 50
221.423665625
 51
296.2021386672
  0
ARC
  5
11A
330
1F
100
AcDbEntity
  8
0
  6
Continuous
 62
     7
370
    25
100
AcDbCircle
 10
9.7358153978
 20
5.4312869385
 30
0.0
 40
0.1000000000000008
100
AcDbArc
 50
232.3681660452
 51
273.6478696134
  0
ARC
  5
11B
330
1F
100
AcDbEntity
  8
0
  6
Continuous
 62
     7
370
    25
100
AcDbCircle
 10
13.7316910205
 20
5.6860379988
 30
0.0
 40
0.1000000000000004
100
AcDbArc
 50
273.6478696134
 51
318.576334375
  0
ARC
  5
11C
330
1F
100
AcDbEntity
  8
0
  6
Continuous
 62
     7
370
    25
100
AcDbCircle
 10
14.0543179169
 20
5.7493942402
 30
0.0
 40
0.1000000000000003
100
AcDbArc
 50
0.0000000001
 51
138.576334375
  0
ARC
  5
11D
330
1F
100
AcDbEntity
  8
0
  6
Continuous
 62
     7
370
    25
100
AcDbCircle
 10
14.3793179169
 20
5.7493942402
 30
0.0
 40
0.0999999999999996
100
AcDbArc
 50
41.423665625
 51
180.0000000001
  0
ARC
  5
11E
330
1F
100
AcDbEntity
  8
0
  6
Continuous
 62
     7
370
    25
100
AcDbCircle
 10
14.7014530503
 20
5.6865953304
 30
0.0
 40
0.1000000000000009
100
AcDbArc
 50
221.423665625
 51
267.0775842978
  0
ARC
  5
11F
330
1F
100
AcDbEntity
  8
0
  6
Continuous
 62
     7
370
    25
100
AcDbCircle
 10
11.5384995178
 20
3.1096222364
 30
0.0
 40
0.1000000000000003
100
AcDbArc
 50
99.5440072211
 51
157.9321004376
  0
ARC
  5
120
330
1F
100
AcDbEntity
  8
0
  6
Continuous
 62
     7
370
    25
100
AcDbCircle
 10
11.1918179169
 20
2.7868066816
 30
0.0
 40
0.1000000000000008
100
AcDbArc
 50
180.0
 51
337.9321004376
  0
ARC
  5
121
330
1F
100
AcDbEntity
  8
0
  6
Continuous
 62
     7
370
    25
100
AcDbCircle
 10
10.7418179169
 20
2.7868066816
 30
0.0
 40
0.1000000000000008
100
AcDbArc
 50
202.0678995624
 51
0.0
  0
ARC
  5
122
330
1F
100
AcDbEntity
  8
0
  6
Continuous
 62
     7
370
    25
100
AcDbCircle
 10
14.4418179169
 20
4.7388713609
 30
0.0
 40
0.1000000000000014
100
AcDbArc
 50
90.0
 51
180.0
  0
LINE
  5
123
330
1F
100
AcDbEntity
  8
0
  6
Continuous
 62
     7
370
    25
100
AcDbLine
 10
14.3418179169
 20
4.7388713609
 30
0.0
 11
14.3418179169
 21
4.1047816748
 31
0.0
  0
ARC
  5
124
330
1F
100
AcDbEntity
  8
0
  6
Continuous
 62
     7
370
    25
100
AcDbCircle
 10
14.4418179169
 20
4.1047816748
 30
0.0
 40
0.1000000000000014
100
AcDbArc
 50
180.0
 51
279.5440072211
  0
ARC
  5
125
330
1F
100
AcDbEntity
  8
0
  6
Continuous
 62
     7
370
    25
100
AcDbCircle
 10
15.5109745777
 20
4.2845414329
 30
0.0
 40
0.1000000000000001
100
AcDbArc
 50
279.5440072211
 51
33.8597463923
  0
ARC
  5
126
330
1F
100
AcDbEntity
  8
0
  6
Continuous
 62
     7
370
    25
100
AcDbCircle
 10
15.4610729025
 20
5.1471655927
 30
0.0
 40
0.1000000000000012
100
AcDbArc
 50
332.7618451266
 51
87.0775842978
  0
ARC
  5
127
330
1F
100
AcDbEntity
  8
0
  6
Continuous
 62
     7
370
    25
100
AcDbCircle
 10
14.7543179169
 20
5.183245473
 30
0.0
 40
0.1000000000000014
100
AcDbArc
 50
87.0775842978
 51
180.0
  0
ARC
  5
128
330
1F
100
AcDbEntity
  8
0
  6
Continuous
 62
     7
370
    25
100
AcDbCircle
 10
14.5543179169
 20
4.9388713609
 30
0.0
 40
0.0999999999999996
100
AcDbArc
 50
270.0
 51
0.0
  0
ARC
  5
129
330
1F
100
AcDbEntity
  8
0
  6
Continuous
 62
     7
370
    25
100
AcDbCircle
 10
7.7293179169
 20
4.4162036157
 30
0.0
 40
0.1000000000000005
100
AcDbArc
 50
116.2021386672
 51
180.0
  0
ARC
  5
12A
330
1F
100
AcDbEntity
  8
0
  6
Continuous
 62
     7
370
    25
100
AcDbCircle
 10
7.7293179169
 20
4.2502092526
 30
0.0
 40
0.1000000000000007
100
AcDbArc
 50
180.0
 51
256.8325393401
  0
ARC
  5
12B
330
1F
100
AcDbEntity
  8
0
  6
Continuous
 62
     7
370
    25
100
AcDbCircle
 10
8.8078832844
 20
3.9978801782
 30
0.0
 40
0.1000000000000012
100
AcDbArc
 50
256.8325393401
 51
346.8325393401
  0
LINE
  5
12C
330
1F
100
AcDbEntity
  8
0
  6
Continuous
 62
     7
370
    25
100
AcDbLine
 10
8.9083830063
 20
3.9884745897
 30
0.0
 11
8.9052541274
 21
3.9751003862
 31
0.0
  0
ARC
  5
12D
330
1F
100
AcDbEntity
  8
0
  6
Continuous
 62
     7
370
    25
100
AcDbCircle
 10
8.8110121632
 20
4.0112543817
 30
0.0
 40
0.0999999999999999
100
AcDbArc
 50
346.8325393401
 51
61.4830623231
  0
ARC
  5
12E
330
1F
100
AcDbEntity
  8
0
  6
Continuous
 62
     7
370
    25
100
AcDbCircle
 10
8.3672785677
 20
4.7301487523
 30
0.0
 40
0.1000000000000016
100
AcDbArc
 50
1.886399496
 51
116.2021386672
  0
ARC
  5
12F
330
1F
100
AcDbEntity
  8
0
  6
Continuous
 62
     7
370
    25
100
AcDbCircle
 10
9.2460520781
 20
3.8953711143
 30
0.0
 40
0.0999999999999997
100
AcDbArc
 50
166.8325393401
 51
256.8325393401
  0
ARC
  5
130
330
1F
100
AcDbEntity
  8
0
  6
Continuous
 62
     7
370
    25
100
AcDbCircle
 10
10.3760949715
 20
3.6309989345
 30
0.0
 40
0.1000000000000005
100
AcDbArc
 50
256.8325393401
 51
335.1252472583
  0
LINE
  5
131
330
1F
100
AcDbEntity
  8
0
  6
Continuous
 62
     7
370
    25
100
AcDbLine
 10
10.075557509
 20
4.4426092037
 30
0.0
 11
10.4668179169
 21
3.6732078655
 31
0.0
  0
ARC
  5
132
330
1F
100
AcDbEntity
  8
0
  6
Continuous
 62
     7
370
    25
100
AcDbCircle
 10
9.9864208397
 20
4.3972809103
 30
0.0
 40
0.0999999999999996
100
AcDbArc
 50
26.9545094978
 51
154.8792621283
  0
ARC
  5
133
330
1F
100
AcDbEntity
  8
0
  6
Continuous
 62
     7
370
    25
100
AcDbCircle
 10
9.249180957
 20
3.9087453178
 30
0.0
 40
0.0999999999999999
100
AcDbArc
 50
92.1820163571
 51
166.8325393401
  0
LINE
  5
134
330
1F
100
AcDbEntity
  8
0
  6
Continuous
 62
     7
370
    25
100
AcDbLine
 10
9.1518101139
 20
3.9315251098
 30
0.0
 11
9.1486812351
 21
3.9181509063
 31
0.0
  0
ARC
  5
135
330
1F
100
AcDbEntity
  8
0
  6
Continuous
 62
     7
370
    25
100
AcDbCircle
 10
13.6793179169
 20
4.9703365973
 30
0.0
 40
0.0999999999999998
100
AcDbArc
 50
0.0
 51
120.0773537175
  0
LINE
  5
136
330
1F
100
AcDbEntity
  8
0
  6
Continuous
 62
     7
370
    25
100
AcDbLine
 10
11.5167010424
 20
3.8334134255
 30
0.0
 11
13.6292010424
 21
5.0568715549
 31
0.0
  0
ARC
  5
137
330
1F
100
AcDbEntity
  8
0
  6
Continuous
 62
     7
370
    25
100
AcDbCircle
 10
11.5668179169
 20
3.7468784679
 30
0.0
 40
0.0999999999999996
100
AcDbArc
 50
120.0773537175
 51
180.0
  0
ARC
  5
138
330
1F
100
AcDbEntity
  8
0
  6
Continuous
 62
     7
370
    25
100
AcDbCircle
 10
11.5668179169
 20
3.62140134
 30
0.0
 40
0.0999999999999998
100
AcDbArc
 50
180.0
 51
279.5440072211
  0
ARC
  5
139
330
1F
100
AcDbEntity
  8
0
  6
Continuous
 62
     7
370
    25
100
AcDbCircle
 10
13.9918179169
 20
4.0291221441
 30
0.0
 40
0.1000000000000014
100
AcDbArc
 50
279.5440072211
 51
0.0
  0
LINE
  5
13A
330
1F
100
AcDbEntity
  8
0
  6
Continuous
 62
     7
370
    25
100
AcDbLine
 10
14.0918179169
 20
4.7388713609
 30
0.0
 11
14.0918179169
 21
4.0291221441
 31
0.0
  0
ARC
  5
13B
330
1F
100
AcDbEntity
  8
0
  6
Continuous
 62
     7
370
    25
100
AcDbCircle
 10
13.9918179169
 20
4.7388713609
 30
0.0
 40
0.1000000000000014
100
AcDbArc
 50
0.0
 51
90.0
  0
ARC
  5
13C
330
1F
100
AcDbEntity
  8
0
  6
Continuous
 62
     7
370
    25
100
AcDbCircle
 10
13.8793179169
 20
4.9388713609
 30
0.0
 40
0.0999999999999996
100
AcDbArc
 50
180.0
 51
270.0
  0
ARC
  5
13D
330
1F
100
AcDbEntity
  8
0
  6
Continuous
 62
     7
370
    25
100
AcDbCircle
 10
13.0804146344
 20
5.1435017523
 30
0.0
 40
0.1000000000000004
100
AcDbArc
 50
300.0773537175
 51
93.6478696134
  0
ARC
  5
13E
330
1F
100
AcDbEntity
  8
0
  6
Continuous
 62
     7
370
    25
100
AcDbCircle
 10
10.2050124435
 20
4.960184796
 30
0.0
 40
0.1000000000000002
100
AcDbArc
 50
93.6478696134
 51
206.9545094978
  0
LINE
  5
13F
330
1F
100
AcDbEntity
  8
0
  6
Continuous
 62
     7
370
    25
100
AcDbLine
 10
10.1158757742
 20
4.9148565026
 30
0.0
 11
10.5792500385
 21
4.0036455245
 31
0.0
  0
ARC
  5
140
330
1F
100
AcDbEntity
  8
0
  6
Continuous
 62
     7
370
    25
100
AcDbCircle
 10
10.6683867078
 20
4.0489738179
 30
0.0
 40
0.1000000000000005
100
AcDbArc
 50
206.9545094978
 51
270.0
  0
ARC
  5
141
330
1F
100
AcDbEntity
  8
0
  6
Continuous
 62
     7
370
    25
100
AcDbCircle
 10
11.1905336439
 20
4.0489738179
 30
0.0
 40
0.1000000000000005
100
AcDbArc
 50
270.0
 51
300.0773537175
  0
LINE
  5
142
330
1F
100
AcDbEntity
  8
0
  6
Continuous
 62
     7
370
    25
100
AcDbLine
 10
11.2406505184
 20
3.9624388603
 30
0.0
 11
13.1305315089
 21
5.0569667947
 31
0.0
  0
CIRCLE
  5
143
330
1F
100
AcDbEntity
  8
0
  6
Continuous
 62
     7
370
    25
100
AcDbCircle
 10
9.2168179169
 20
4.7581289965
 30
0.0
 40
0.375
  0
LINE
  5
144
330
1F
100
AcDbEntity
  8
0
  6
Continuous
 62
     7
370
    25
100
AcDbLine
 10
7.6293179169
 20
4.2502092526
 30
0.0
 11
7.6293179169
 21
4.4162036157
 31
0.0
  0
LINE
  5
145
330
1F
100
AcDbEntity
  8
0
  6
Continuous
 62
     7
370
    25
100
AcDbLine
 10
10.486277914
 20
3.1509724918
 30
0.0
 11
10.6491439901
 21
2.7492361707
 31
0.0
  0
CIRCLE
  5
146
330
1F
100
AcDbEntity
  8
0
  6
Continuous
 62
     7
370
    25
100
AcDbCircle
 10
16.2168179169
 20
4.7581289965
 30
0.0
 40
0.3749999999999982
  0
LINE
  5
147
330
1F
100
AcDbEntity
  8
0
  6
Continuous
 62
     7
370
    25
100
AcDbLine
 10
8.7851034924
 20
3.9005093352
 30
0.0
 11
7.706538125
 21
4.1528384095
 31
0.0
  0
LINE
  5
148
330
1F
100
AcDbEntity
  8
0
  6
Continuous
 62
     7
370
    25
100
AcDbLine
 10
10.4668179169
 20
3.6732078655
 30
0.0
 11
10.4668179169
 21
3.588935326
 31
0.0
  0
LINE
  5
149
330
1F
100
AcDbEntity
  8
0
  6
Continuous
 62
     7
370
    25
100
AcDbLine
 10
14.0083984264
 20
3.9305062899
 30
0.0
 11
11.5833984264
 21
3.5227854858
 31
0.0
  0
ARC
  5
14A
330
1F
100
AcDbEntity
  8
0
  6
Continuous
 62
     7
370
    25
100
AcDbCircle
 10
16.2168179169
 20
4.7581289965
 30
0.0
 40
0.7500000000000002
100
AcDbArc
 50
152.7618451266
 51
213.8597463923
  0
LINE
  5
14B
330
1F
100
AcDbEntity
  8
0
  6
Continuous
 62
     7
370
    25
100
AcDbLine
 10
15.4661712688
 20
5.2470355414
 30
0.0
 11
14.7594162832
 21
5.2831154217
 31
0.0
  0
LINE
  5
14C
330
1F
100
AcDbEntity
  8
0
  6
Continuous
 62
     7
370
    25
100
AcDbLine
 10
14.6543179169
 20
4.9388713609
 30
0.0
 11
14.6543179169
 21
5.183245473
 31
0.0
  0
LINE
  5
14D
330
1F
100
AcDbEntity
  8
0
  6
Continuous
 62
     7
370
    25
100
AcDbLine
 10
13.8793179169
 20
4.8388713609
 30
0.0
 11
13.9918179169
 21
4.8388713609
 31
0.0
  0
ARC
  5
14E
330
1F
100
AcDbEntity
  8
0
  6
Continuous
 62
     7
370
    25
100
AcDbCircle
 10
9.2168179169
 20
4.7581289965
 30
0.0
 40
0.7499999999999999
100
AcDbArc
 50
181.886399496
 51
241.4830623231
  0
LINE
  5
14F
330
1F
100
AcDbEntity
  8
0
  6
Continuous
 62
     7
370
    25
100
AcDbLine
 10
7.6851639825
 20
4.5059278046
 30
0.0
 11
8.3231246333
 21
4.8198729412
 31
0.0
  0
LINE
  5
150
330
1F
100
AcDbEntity
  8
0
  6
Continuous
 62
     7
370
    25
100
AcDbLine
 10
10.4163837792
 20
3.210772824
 30
0.0
 11
7.6405560893
 21
3.8601743834
 31
0.0
  0
LINE
  5
151
330
1F
100
AcDbEntity
  8
0
  6
Continuous
 62
     7
370
    25
100
AcDbLine
 10
7.6177762973
 20
3.8628035404
 30
0.0
 11
6.8793179169
 21
3.8628035404
 31
0.0
  0
LINE
  5
152
330
1F
100
AcDbEntity
  8
0
  6
Continuous
 62
     7
370
    25
100
AcDbLine
 10
6.7793179169
 20
3.9628035404
 30
0.0
 11
6.7793179169
 21
4.7749930864
 31
0.0
  0
LINE
  5
153
330
1F
100
AcDbEntity
  8
0
  6
Continuous
 62
     7
370
    25
100
AcDbLine
 10
6.9793341314
 20
5.0394885834
 30
0.0
 11
6.8043341314
 21
4.8411552501
 31
0.0
  0
LINE
  5
154
330
1F
100
AcDbEntity
  8
0
  6
Continuous
 62
     7
370
    25
100
AcDbLine
 10
7.1543179169
 20
4.4378035404
 30
0.0
 11
7.1543179169
 21
4.9733264197
 31
0.0
  0
LINE
  5
155
330
1F
100
AcDbEntity
  8
0
  6
Continuous
 62
     7
370
    25
100
AcDbLine
 10
7.2543179169
 20
4.4378035404
 30
0.0
 11
7.1543179169
 21
4.4378035404
 31
0.0
  0
LINE
  5
156
330
1F
100
AcDbEntity
  8
0
  6
Continuous
 62
     7
370
    25
100
AcDbLine
 10
7.2543179169
 20
4.9733264197
 30
0.0
 11
7.2543179169
 21
4.4378035404
 31
0.0
  0
LINE
  5
157
330
1F
100
AcDbEntity
  8
0
  6
Continuous
 62
     7
370
    25
100
AcDbLine
 10
7.4293017025
 20
5.0394885834
 30
0.0
 11
7.5787528149
 21
4.8701106561
 31
0.0
  0
LINE
  5
158
330
1F
100
AcDbEntity
  8
0
  6
Continuous
 62
     7
370
    25
100
AcDbLine
 10
7.6978905348
 20
4.8465486309
 30
0.0
 11
8.8856634087
 21
5.4310604133
 31
0.0
  0
ARC
  5
159
330
1F
100
AcDbEntity
  8
0
  6
Continuous
 62
     7
370
    25
100
AcDbCircle
 10
9.2168179169
 20
4.7581289965
 30
0.0
 40
0.7500000000000004
100
AcDbArc
 50
52.3681660452
 51
116.2021386672
  0
LINE
  5
15A
330
1F
100
AcDbEntity
  8
0
  6
Continuous
 62
     7
370
    25
100
AcDbLine
 10
9.742177831
 20
5.3314895465
 30
0.0
 11
13.7380534536
 21
5.5862406069
 31
0.0
  0
LINE
  5
15B
330
1F
100
AcDbEntity
  8
0
  6
Continuous
 62
     7
370
    25
100
AcDbLine
 10
13.9793341314
 20
5.8155564039
 30
0.0
 11
13.806674806
 21
5.6198758351
 31
0.0
  0
LINE
  5
15C
330
1F
100
AcDbEntity
  8
0
  6
Continuous
 62
     7
370
    25
100
AcDbLine
 10
14.1543179169
 20
5.2138713609
 30
0.0
 11
14.1543179169
 21
5.7493942402
 31
0.0
  0
LINE
  5
15D
330
1F
100
AcDbEntity
  8
0
  6
Continuous
 62
     7
370
    25
100
AcDbLine
 10
14.2793179169
 20
5.2138713609
 30
0.0
 11
14.1543179169
 21
5.2138713609
 31
0.0
  0
LINE
  5
15E
330
1F
100
AcDbEntity
  8
0
  6
Continuous
 62
     7
370
    25
100
AcDbLine
 10
14.2793179169
 20
5.7493942402
 30
0.0
 11
14.2793179169
 21
5.2138713609
 31
0.0
  0
LINE
  5
15F
330
1F
100
AcDbEntity
  8
0
  6
Continuous
 62
     7
370
    25
100
AcDbLine
 10
14.6264692648
 20
5.6204331667
 30
0.0
 11
14.4543017025
 21
5.8155564039
 31
0.0
  0
LINE
  5
160
330
1F
100
AcDbEntity
  8
0
  6
Continuous
 62
     7
370
    25
100
AcDbLine
 10
16.2550556642
 20
5.5071536121
 30
0.0
 11
14.696354684
 21
5.5867253816
 31
0.0
  0
ARC
  5
161
330
1F
100
AcDbEntity
  8
0
  6
Continuous
 62
     7
370
    25
100
AcDbCircle
 10
16.2168179169
 20
4.7581289965
 30
0.0
 40
0.7500000000000019
100
AcDbArc
 50
279.5440072211
 51
87.0775842978
  0
LINE
  5
162
330
1F
100
AcDbEntity
  8
0
  6
Continuous
 62
     7
370
    25
100
AcDbLine
 10
16.3411717377
 20
4.0185100898
 30
0.0
 11
11.5219190084
 21
3.2082380906
 31
0.0
  0
LINE
  5
163
330
1F
100
AcDbEntity
  8
0
  6
Continuous
 62
     7
370
    25
100
AcDbLine
 10
11.445825591
 20
3.1471927473
 30
0.0
 11
11.2844918438
 21
2.7492361707
 31
0.0
  0
LINE
  5
164
330
1F
100
AcDbEntity
  8
0
  6
Continuous
 62
     7
370
    25
100
AcDbLine
 10
11.0918179169
 20
3.5739738179
 30
0.0
 11
11.0918179169
 21
2.7868066816
 31
0.0
  0
LINE
  5
165
330
1F
100
AcDbEntity
  8
0
  6
Continuous
 62
     7
370
    25
100
AcDbLine
 10
11.0918179169
 20
3.5739738179
 30
0.0
 11
10.8418179169
 21
3.5739738179
 31
0.0
  0
LINE
  5
166
330
1F
100
AcDbEntity
  8
0
  6
Continuous
 62
     7
370
    25
100
AcDbLine
 10
10.8418179169
 20
3.5739738179
 30
0.0
 11
10.8418179169
 21
2.7868066816
 31
0.0
  0
LINE
  5
167
330
1F
100
AcDbEntity
  8
0
  6
Continuous
 62
     7
370
    25
100
AcDbLine
 10
15.5275550871
 20
4.1859255786
 30
0.0
 11
14.4583984264
 21
4.0061658205
 31
0.0
  0
LINE
  5
168
330
1F
100
AcDbEntity
  8
0
  6
Continuous
 62
     7
370
    25
100
AcDbLine
 10
14.4418179169
 20
4.8388713609
 30
0.0
 11
14.5543179169
 21
4.8388713609
 31
0.0
  0
LINE
  5
169
330
1F
100
AcDbEntity
  8
0
  6
Continuous
 62
     7
370
    25
100
AcDbLine
 10
11.1905336439
 20
3.9489738179
 30
0.0
 11
10.6683867078
 21
3.9489738179
 31
0.0
  0
LINE
  5
16A
330
1F
100
AcDbEntity
  8
0
  6
Continuous
 62
     7
370
    25
100
AcDbLine
 10
10.1986500104
 20
5.059982188
 30
0.0
 11
13.0740522013
 21
5.2432991443
 31
0.0
  0
LINE
  5
16B
330
1F
100
AcDbEntity
  8
0
  6
Continuous
 62
     7
370
    25
100
AcDbLine
 10
10.3533151795
 20
3.5336280915
 30
0.0
 11
9.2232722862
 21
3.7980002713
 31
0.0
  0
ARC
  5
16C
330
1F
100
AcDbEntity
  8
0
  6
Continuous
 62
     7
370
    25
100
AcDbCircle
 10
9.2168179169
 20
4.7581289965
 30
0.0
 40
0.7500000000000024
100
AcDbArc
 50
272.1820163571
 51
334.8792621283
  0
LINE
  5
16D
330
1F
100
AcDbEntity
  8
0
  6
Continuous
 62
     7
370
    25
100
AcDbLine
 10
11.4668179169
 20
3.7468784679
 30
0.0
 11
11.4668179169
 21
3.62140134
 31
0.0
  0
LINE
  5
16E
330
1F
100
AcDbEntity
  8
0
  6
Continuous
 62
     7
370
    25
100
AcDbLine
 10
13.7793179169
 20
4.9388713609
 30
0.0
 11
13.7793179169
 21
4.9703365973
 31
0.0
  0
ARC
  5
16F
330
1F
100
AcDbEntity
  8
0
  6
Continuous
 62
     7
370
    25
100
AcDbCircle
 10
1.4145044216
 20
8.2142972007
 30
0.0
 40
0.5000000000000024
100
AcDbArc
 50
278.9159547412
 51
303.8921243571
  0
LINE
  5
170
330
1F
100
AcDbEntity
  8
0
  6
Continuous
 62
     7
370
    25
100
AcDbLine
 10
2.0801043177
 20
8.0590838872
 30
0.0
 11
1.6933199284
 21
7.7992527294
 31
0.0
  0
LINE
  5
171
330
1F
100
AcDbEntity
  8
0
  6
Continuous
 62
     7
370
    25
100
AcDbLine
 10
2.224062725
 20
7.9389496832
 30
0.0
 11
2.0801043177
 21
8.0590838872
 31
0.0
  0
LINE
  5
172
330
1F
100
AcDbEntity
  8
0
  6
Continuous
 62
     7
370
    25
100
AcDbLine
 10
2.224062725
 20
7.9389496832
 30
0.0
 11
2.1867767618
 21
8.0582591838
 31
0.0
  0
LINE
  5
173
330
1F
100
AcDbEntity
  8
0
  6
Continuous
 62
     7
370
    25
100
AcDbLine
 10
2.1867767618
 20
8.0582591838
 30
0.0
 11
3.141252767
 21
8.3565468896
 31
0.0
  0
LINE
  5
174
330
1F
100
AcDbEntity
  8
0
  6
Continuous
 62
     7
370
    25
100
AcDbLine
 10
3.141252767
 20
8.3565468896
 30
0.0
 11
3.1785387302
 21
8.237237389
 31
0.0
  0
SPLINE
  5
175
330
1F
100
AcDbEntity
  8
0
  6
Continuous
 62
     7
370
    25
100
AcDbSpline
210
0.0
220
0.0
230
1.0
 70
     8
 71
     3
 72
    10
 73
     6
 74
     0
 42
0.00000001
 43
0.00000001
 40
0.0
 40
0.0
 40
0.0
 40
0.0
 40
0.3333331330837783
 40
0.6666665894016165
 40
1.0
 40
1.0
 40
1.0
 40
1.0
 10
4.603741589317115
 20
9.074951266251873
 30
0.0
 10
4.449372170019587
 20
8.975238863519575
 30
0.0
 10
4.140633181732077
 20
8.775813961363593
 30
0.0
 10
3.665228014708991
 20
8.496252656719005
 30
0.0
 10
3.340768484314235
 20
8.32357580759546
 30
0.0
 10
3.178538730242445
 20
8.237237388954702
 30
0.0
  0
LINE
  5
176
330
1F
100
AcDbEntity
  8
0
  6
Continuous
 62
     7
370
    25
100
AcDbLine
 10
4.6037415893
 20
9.0749512663
 30
0.0
 11
4.4994496544
 21
9.2307698861
 31
0.0
  0
LINE
  5
177
330
1F
100
AcDbEntity
  8
0
  6
Continuous
 62
     7
370
    25
100
AcDbLine
 10
4.4994496544
 20
9.2307698861
 30
0.0
 11
4.6552682743
 21
9.3350618211
 31
0.0
  0
LINE
  5
178
330
1F
100
AcDbEntity
  8
0
  6
Continuous
 62
     7
370
    25
100
AcDbLine
 10
4.6552682743
 20
9.3350618211
 30
0.0
 11
4.7595602089
 21
9.179243201
 31
0.0
  0
SPLINE
  5
179
330
1F
100
AcDbEntity
  8
0
  6
Continuous
 62
     7
370
    25
100
AcDbSpline
210
0.0
220
0.0
230
1.0
 70
     8
 71
     3
 72
    10
 73
     6
 74
     0
 42
0.00000001
 43
0.00000001
 40
0.0
 40
0.0
 40
0.0
 40
0.0
 40
0.3333332563547966
 40
0.6666666315678492
 40
1.0
 40
1.0
 40
1.0
 40
1.0
 10
6.083183525050254
 20
10.17887137337714
 30
0.0
 10
5.940666766250551
 20
10.06188954904309
 30
0.0
 10
5.655633197833252
 20
9.82792585866219
 30
0.0
 10
5.21419721817181
 20
9.494316905734523
 30
0.0
 10
4.911105877650209
 20
9.284267768543728
 30
0.0
 10
4.759560208930834
 20
9.179243201016574
 30
0.0
  0
LINE
  5
17A
330
1F
100
AcDbEntity
  8
0
  6
Continuous
 62
     7
370
    25
100
AcDbLine
 10
5.9974729512
 20
10.2698587215
 30
0.0
 11
6.0831835251
 21
10.1788713734
 31
0.0
  0
LINE
  5
17B
330
1F
100
AcDbEntity
  8
0
  6
Continuous
 62
     7
370
    25
100
AcDbLine
 10
6.7403718705
 20
10.9300754979
 30
0.0
 11
5.9974729512
 21
10.2698587215
 31
0.0
  0
LINE
  5
17C
330
1F
100
AcDbEntity
  8
0
  6
Continuous
 62
     7
370
    25
100
AcDbLine
 10
7.4532705178
 20
11.6412279086
 30
0.0
 11
6.7403718705
 21
10.9300754979
 31
0.0
  0
SPLINE
  5
17D
330
1F
100
AcDbEntity
  8
0
  6
Continuous
 62
     7
370
    25
100
AcDbSpline
210
0.0
220
0.0
230
1.0
 70
     8
 71
     3
 72
    10
 73
     6
 74
     0
 42
0.00000001
 43
0.00000001
 40
0.0
 40
0.0
 40
0.0
 40
0.0
 40
0.3333329310187798
 40
0.6666662932599036
 40
0.9999999999999999
 40
0.9999999999999999
 40
0.9999999999999999
 40
0.9999999999999999
 10
5.917949572534543
 20
10.93697402879914
 30
0.0
 10
6.091035615005898
 20
11.00967537593495
 30
0.0
 10
6.437207923864595
 20
11.15507816425802
 30
0.0
 10
6.949061080944889
 20
11.39029889272201
 30
0.0
 10
7.285200647598632
 20
11.55758487450037
 30
0.0
 10
7.453270517775259
 20
11.64122790861191
 30
0.0
  0
LINE
  5
17E
330
1F
100
AcDbEntity
  8
0
  6
Continuous
 62
     7
370
    25
100
AcDbLine
 10
5.9882697351
 20
10.7631599766
 30
0.0
 11
5.9179495725
 21
10.9369740288
 31
0.0
  0
LINE
  5
17F
330
1F
100
AcDbEntity
  8
0
  6
Continuous
 62
     7
370
    25
100
AcDbLine
 10
5.814455683
 20
10.692839814
 30
0.0
 11
5.9882697351
 21
10.7631599766
 31
0.0
  0
LINE
  5
180
330
1F
100
AcDbEntity
  8
0
  6
Continuous
 62
     7
370
    25
100
AcDbLine
 10
5.7441355207
 20
10.8666538663
 30
0.0
 11
5.814455683
 21
10.692839814
 31
0.0
  0
SPLINE
  5
181
330
1F
100
AcDbEntity
  8
0
  6
Continuous
 62
     7
370
    25
100
AcDbSpline
210
0.0
220
0.0
230
1.0
 70
     8
 71
     3
 72
    10
 73
     6
 74
     0
 42
0.00000001
 43
0.00000001
 40
0.0
 40
0.0
 40
0.0
 40
0.0
 40
0.3333333670872037
 40
0.6666666843445938
 40
1.0
 40
1.0
 40
1.0
 40
1.0
 10
4.328943396903048
 20
10.36483990644227
 30
0.0
 10
4.487924680024551
 20
10.41557928320604
 30
0.0
 10
4.805887222501536
 20
10.51705802914859
 30
0.0
 10
5.277767049112965
 20
10.68460198234405
 30
0.0
 10
5.588679363752188
 20
10.80596990509166
 30
0.0
 10
5.744135520698242
 20
10.86665386631965
 30
0.0
  0
LINE
  5
182
330
1F
100
AcDbEntity
  8
0
  6
Continuous
 62
     7
370
    25
100
AcDbLine
 10
4.3835723967
 20
10.1854745743
 30
0.0
 11
4.3289433969
 21
10.3648399064
 31
0.0
  0
LINE
  5
183
330
1F
100
AcDbEntity
  8
0
  6
Continuous
 62
     7
370
    25
100
AcDbLine
 10
4.2042070645
 20
10.1308455745
 30
0.0
 11
4.3835723967
 21
10.1854745743
 31
0.0
  0
LINE
  5
184
330
1F
100
AcDbEntity
  8
0
  6
Continuous
 62
     7
370
    25
100
AcDbLine
 10
4.149578065
 20
10.3102109067
 30
0.0
 11
4.2042070645
 21
10.1308455745
 31
0.0
  0
SPLINE
  5
185
330
1F
100
AcDbEntity
  8
0
  6
Continuous
 62
     7
370
    25
100
AcDbSpline
210
0.0
220
0.0
230
1.0
 70
     8
 71
     3
 72
    10
 73
     6
 74
     0
 42
0.00000001
 43
0.00000001
 40
0.0
 40
0.0
 40
0.0
 40
0.0
 40
0.3333332893945407
 40
0.6666665405252984
 40
1.0
 40
1.0
 40
1.0
 40
1.0
 10
2.694156720881177
 20
9.94048297281149
 30
0.0
 10
2.85721324011169
 20
9.976098402997904
 30
0.0
 10
3.183326259855244
 20
10.04732925928239
 30
0.0
 10
3.668694413843402
 20
10.17073954735482
 30
0.0
 10
3.989283481209218
 20
10.26372044393097
 30
0.0
 10
4.149578064986715
 20
10.31021090674805
 30
0.0
  0
LINE
  5
186
330
1F
100
AcDbEntity
  8
0
  6
Continuous
 62
     7
370
    25
100
AcDbLine
 10
2.7297982967
 20
9.820671963
 30
0.0
 11
2.6941567209
 21
9.9404829728
 31
0.0
  0
LINE
  5
187
330
1F
100
AcDbEntity
  8
0
  6
Continuous
 62
     7
370
    25
100
AcDbLine
 10
1.7713102182
 20
9.5355393565
 30
0.0
 11
2.7297982967
 21
9.820671963
 31
0.0
  0
LINE
  5
188
330
1F
100
AcDbEntity
  8
0
  6
Continuous
 62
     7
370
    25
100
AcDbLine
 10
1.7356686423
 20
9.6553503663
 30
0.0
 11
1.7713102182
 21
9.5355393565
 31
0.0
  0
LINE
  5
189
330
1F
100
AcDbEntity
  8
0
  6
Continuous
 62
     7
370
    25
100
AcDbLine
 10
1.7356686423
 20
9.6553503663
 30
0.0
 11
1.6574393224
 21
9.4658637612
 31
0.0
  0
LINE
  5
18A
330
1F
100
AcDbEntity
  8
0
  6
Continuous
 62
     7
370
    25
100
AcDbLine
 10
1.6574393224
 20
9.4658637612
 30
0.0
 11
1.1850813411
 21
9.4655351434
 31
0.0
  0
ARC
  5
18B
330
1F
100
AcDbEntity
  8
0
  6
Continuous
 62
     7
370
    25
100
AcDbCircle
 10
1.1854291893
 20
8.9655352644
 30
0.0
 40
0.4999999999999967
100
AcDbArc
 50
90.0398604698
 51
115.0001474075
  0
ARC
  5
18C
330
1F
100
AcDbEntity
  8
0
  6
Continuous
 62
     7
370
    25
100
AcDbCircle
 10
1.3530380725
 20
8.6060992688
 30
0.0
 40
0.8965942166374871
100
AcDbArc
 50
115.0001474075
 51
278.9159547412
  0
CIRCLE
  5
18D
330
1F
100
AcDbEntity
  8
0
  6
Continuous
 62
     7
370
    25
100
AcDbCircle
 10
1.3530380725
 20
8.6060992688
 30
0.0
 40
0.2500000000000021
  0
ARC
  5
18E
330
1F
100
AcDbEntity
  8
0
  6
Continuous
 62
     7
370
    25
100
AcDbCircle
 10
4.3626418674
 20
9.695502387
 30
0.0
 40
0.150000000000011
100
AcDbArc
 50
303.983905897
 51
106.7314223097
  0
SPLINE
  5
18F
330
1F
100
AcDbEntity
  8
0
  6
Continuous
 62
     7
370
    25
100
AcDbSpline
210
0.0
220
0.0
230
1.0
 70
     8
 71
     3
 72
    11
 73
     7
 74
     0
 42
0.00000001
 43
0.00000001
 40
0.0
 40
0.0
 40
0.0
 40
0.0
 40
0.2800986475245198
 40
0.5601202546804661
 40
0.7800835980450018
 40
1.0
 40
1.0
 40
1.0
 40
1.0
 10
4.446485868700643
 20
9.57112319487229
 30
0.0
 10
4.341228562606555
 20
9.501235766826564
 30
0.0
 10
4.130742901153168
 20
9.36148013308146
 30
0.0
 10
3.831544550091072
 20
9.17622202751641
 30
0.0
 10
3.552236209390605
 20
9.010567499681313
 30
0.0
 10
3.379071261396462
 20
8.913701608372039
 30
0.0
 10
3.292498026977742
 20
8.865273831199836
 30
0.0
  0
ARC
  5
190
330
1F
100
AcDbEntity
  8
0
  6
Continuous
 62
     7
370
    25
100
AcDbCircle
 10
2.3259891988
 20
10.6162337637
 30
0.0
 40
2.000000000000014
100
AcDbArc
 50
287.3547877549
 51
298.898169542
  0
LINE
  5
191
330
1F
100
AcDbEntity
  8
0
  6
Continuous
 62
     7
370
    25
100
AcDbLine
 10
2.9225646103
 20
8.7072817532
 30
0.0
 11
2.1975834751
 21
8.4807145494
 31
0.0
  0
ARC
  5
192
330
1F
100
AcDbEntity
  8
0
  6
Continuous
 62
     7
370
    25
100
AcDbCircle
 10
2.1528403193
 20
8.6238859502
 30
0.0
 40
0.1500000000000124
100
AcDbArc
 50
181.2739821949
 51
287.3547877549
  0
ARC
  5
193
330
1F
100
AcDbEntity
  8
0
  6
Continuous
 62
     7
370
    25
100
AcDbCircle
 10
1.3530380725
 20
8.6060992688
 30
0.0
 40
0.6499999999999984
100
AcDbArc
 50
1.2739821949
 51
32.6475808356
  0
ARC
  5
194
330
1F
100
AcDbEntity
  8
0
  6
Continuous
 62
     7
370
    25
100
AcDbCircle
 10
2.0266418233
 20
9.0376754346
 30
0.0
 40
0.150000000000002
100
AcDbArc
 50
106.5667752756
 51
212.6475808356
  0
LINE
  5
195
330
1F
100
AcDbEntity
  8
0
  6
Continuous
 62
     7
370
    25
100
AcDbLine
 10
3.0166504882
 20
9.488681306
 30
0.0
 11
1.9838719323
 21
9.1814486463
 31
0.0
  0
ARC
  5
196
330
1F
100
AcDbEntity
  8
0
  6
Continuous
 62
     7
370
    25
100
AcDbCircle
 10
4.4423135208
 20
4.6962409133
 30
0.0
 40
5.000000000000034
100
AcDbArc
 50
103.404292815
 51
106.5667752756
  0
SPLINE
  5
197
330
1F
100
AcDbEntity
  8
0
  6
Continuous
 62
     7
370
    25
100
AcDbSpline
210
0.0
220
0.0
230
1.0
 70
     8
 71
     3
 72
     9
 73
     5
 74
     0
 42
0.00000001
 43
0.00000001
 40
0.0
 40
0.0
 40
0.0
 40
0.0
 40
0.5600785267085489
 40
1.0
 40
1.0
 40
1.0
 40
1.0
 10
3.283209586415921
 20
9.560033473534386
 30
0.0
 10
3.47776679580643
 20
9.608098859685576
 30
0.0
 10
3.825141672922106
 20
9.693917872304503
 30
0.0
 10
4.168436316680499
 20
9.794780475428286
 30
0.0
 10
4.319459002135762
 20
9.839152100394509
 30
0.0
  0
ARC
  5
198
330
1F
100
AcDbEntity
  8
0
  6
Continuous
 62
     7
370
    25
100
AcDbCircle
 10
1.7399602647
 20
5.7355089759
 30
0.0
 40
0.4999999999999995
100
AcDbArc
 50
284.9673079042
 51
309.9434775201
  0
LINE
  5
199
330
1F
100
AcDbEntity
  8
0
  6
Continuous
 62
     7
370
    25
100
AcDbLine
 10
2.4182138664
 20
5.6513279439
 30
0.0
 11
2.0609760605
 21
5.3521698847
 31
0.0
  0
LINE
  5
19A
330
1F
100
AcDbEntity
  8
0
  6
Continuous
 62
     7
370
    25
100
AcDbLine
 10
2.5740346329
 20
5.5470392162
 30
0.0
 11
2.4182138664
 21
5.6513279439
 31
0.0
  0
LINE
  5
19B
330
1F
100
AcDbEntity
  8
0
  6
Continuous
 62
     7
370
    25
100
AcDbLine
 10
2.5740346329
 20
5.5470392162
 30
0.0
 11
2.5243788513
 21
5.661753223
 31
0.0
  0
LINE
  5
19C
330
1F
100
AcDbEntity
  8
0
  6
Continuous
 62
     7
370
    25
100
AcDbLine
 10
2.5243788513
 20
5.661753223
 30
0.0
 11
3.4420909057
 21
6.0589994756
 31
0.0
  0
LINE
  5
19D
330
1F
100
AcDbEntity
  8
0
  6
Continuous
 62
     7
370
    25
100
AcDbLine
 10
3.4420909057
 20
6.0589994756
 30
0.0
 11
3.4917466873
 21
5.9442854688
 31
0.0
  0
SPLINE
  5
19E
330
1F
100
AcDbEntity
  8
0
  6
Continuous
 62
     7
370
    25
100
AcDbSpline
210
0.0
220
0.0
230
1.0
 70
     8
 71
     3
 72
    10
 73
     6
 74
     0
 42
0.00000001
 43
0.00000001
 40
0.0
 40
0.0
 40
0.0
 40
0.0
 40
0.3333331330837803
 40
0.6666665894016152
 40
1.0
 40
1.0
 40
1.0
 40
1.0
 10
4.820696420201953
 20
6.927576034706885
 30
0.0
 10
4.677698837655846
 20
6.812145656301227
 30
0.0
 10
4.391703533898486
 20
6.581284787556752
 30
0.0
 10
3.948418710155943
 20
6.253164137602533
 30
0.0
 10
3.643970687940946
 20
6.047245020334147
 30
0.0
 10
3.491746687272834
 20
5.944285468760835
 30
0.0
  0
LINE
  5
19F
330
1F
100
AcDbEntity
  8
0
  6
Continuous
 62
     7
370
    25
100
AcDbLine
 10
4.8206964202
 20
6.9275760347
 30
0.0
 11
4.7005592532
 21
7.0715319693
 31
0.0
  0
LINE
  5
1A0
330
1F
100
AcDbEntity
  8
0
  6
Continuous
 62
     7
370
    25
100
AcDbLine
 10
4.7005592532
 20
7.0715319693
 30
0.0
 11
4.8445151878
 21
7.1916691363
 31
0.0
  0
LINE
  5
1A1
330
1F
100
AcDbEntity
  8
0
  6
Continuous
 62
     7
370
    25
100
AcDbLine
 10
4.8445151878
 20
7.1916691363
 30
0.0
 11
4.9646523545
 21
7.0477132015
 31
0.0
  0
SPLINE
  5
1A2
330
1F
100
AcDbEntity
  8
0
  6
Continuous
 62
     7
370
    25
100
AcDbSpline
210
0.0
220
0.0
230
1.0
 70
     8
 71
     3
 72
    10
 73
     6
 74
     0
 42
0.00000001
 43
0.00000001
 40
0.0
 40
0.0
 40
0.0
 40
0.0
 40
0.3333332563547923
 40
0.6666666315678444
 40
1.0
 40
1.0
 40
1.0
 40
1.0
 10
6.175519593645238
 20
8.181307350748064
 30
0.0
 10
6.046129165159104
 20
8.049953284273238
 30
0.0
 10
5.787348262049479
 20
7.787245104486028
 30
0.0
 10
5.383541034762167
 20
7.408958994770527
 30
0.0
 10
5.104281913656758
 20
7.168128465116971
 30
0.0
 10
4.964652354524272
 20
7.047713201514978
 30
0.0
  0
LINE
  5
1A3
330
1F
100
AcDbEntity
  8
0
  6
Continuous
 62
     7
370
    25
100
AcDbLine
 10
6.080694748
 20
8.262752109
 30
0.0
 11
6.1755195936
 21
8.1813073507
 31
0.0
  0
LINE
  5
1A4
330
1F
100
AcDbEntity
  8
0
  6
Continuous
 62
     7
370
    25
100
AcDbLine
 10
6.7498541767
 20
8.9976062817
 30
0.0
 11
6.080694748
 21
8.262752109
 31
0.0
  0
LINE
  5
1A5
330
1F
100
AcDbEntity
  8
0
  6
Continuous
 62
     7
370
    25
100
AcDbLine
 10
7.3838108767
 20
9.7799496432
 30
0.0
 11
6.7498541767
 21
8.9976062817
 31
0.0
  0
SPLINE
  5
1A6
330
1F
100
AcDbEntity
  8
0
  6
Continuous
 62
     7
370
    25
100
AcDbSpline
210
0.0
220
0.0
230
1.0
 70
     8
 71
     3
 72
    10
 73
     6
 74
     0
 42
0.00000001
 43
0.00000001
 40
0.0
 40
0.0
 40
0.0
 40
0.0
 40
0.3333329310187757
 40
0.6666662932599013
 40
0.9999999999999999
 40
0.9999999999999999
 40
0.9999999999999999
 40
0.9999999999999999
 10
5.93128733126058
 20
8.917766784276017
 30
0.0
 10
6.095744744270717
 20
9.008309720387963
 30
0.0
 10
6.424659783044374
 20
9.18939570974441
 30
0.0
 10
6.908863876043713
 20
9.477265197246775
 30
0.0
 10
7.22549515524407
 20
9.679054793117492
 30
0.0
 10
7.38381087665357
 20
9.779949643190053
 30
0.0
  0
LINE
  5
1A7
330
1F
100
AcDbEntity
  8
0
  6
Continuous
 62
     7
370
    25
100
AcDbLine
 10
6.0195390979
 20
8.7523343942
 30
0.0
 11
5.9312873313
 21
8.9177667843
 31
0.0
  0
LINE
  5
1A8
330
1F
100
AcDbEntity
  8
0
  6
Continuous
 62
     7
370
    25
100
AcDbLine
 10
5.8541067078
 20
8.6640826276
 30
0.0
 11
6.0195390979
 21
8.7523343942
 31
0.0
  0
LINE
  5
1A9
330
1F
100
AcDbEntity
  8
0
  6
Continuous
 62
     7
370
    25
100
AcDbLine
 10
5.7658549415
 20
8.8295150178
 30
0.0
 11
5.8541067078
 21
8.6640826276
 31
0.0
  0
SPLINE
  5
1AA
330
1F
100
AcDbEntity
  8
0
  6
Continuous
 62
     7
370
    25
100
AcDbSpline
210
0.0
220
0.0
230
1.0
 70
     8
 71
     3
 72
    10
 73
     6
 74
     0
 42
0.00000001
 43
0.00000001
 40
0.0
 40
0.0
 40
0.0
 40
0.0
 40
0.3333333670871996
 40
0.6666666843445902
 40
1.0
 40
1.0
 40
1.0
 40
1.0
 10
4.411449662352299
 20
8.181308000413994
 30
0.0
 10
4.564196136796996
 20
8.248524421637173
 30
0.0
 10
4.869689062852397
 20
8.382957254035386
 30
0.0
 10
5.321277036057277
 20
8.599313093965593
 30
0.0
 10
5.617662306589264
 20
8.752781043316814
 30
0.0
 10
5.765854941499163
 20
8.829515017808031
 30
0.0
  0
LINE
  5
1AB
330
1F
100
AcDbEntity
  8
0
  6
Continuous
 62
     7
370
    25
100
AcDbLine
 10
4.4846829151
 20
8.008701104
 30
0.0
 11
4.4114496624
 21
8.1813080004
 31
0.0
  0
LINE
  5
1AC
330
1F
100
AcDbEntity
  8
0
  6
Continuous
 62
     7
370
    25
100
AcDbLine
 10
4.3120760187
 20
7.9354678513
 30
0.0
 11
4.4846829151
 21
8.008701104
 31
0.0
  0
LINE
  5
1AD
330
1F
100
AcDbEntity
  8
0
  6
Continuous
 62
     7
370
    25
100
AcDbLine
 10
4.2388427662
 20
8.1080747478
 30
0.0
 11
4.3120760187
 21
7.9354678513
 31
0.0
  0
SPLINE
  5
1AE
330
1F
100
AcDbEntity
  8
0
  6
Continuous
 62
     7
370
    25
100
AcDbSpline
210
0.0
220
0.0
230
1.0
 70
     8
 71
     3
 72
    10
 73
     6
 74
     0
 42
0.00000001
 43
0.00000001
 40
0.0
 40
0.0
 40
0.0
 40
0.0
 40
0.3333332893945412
 40
0.6666665405252973
 40
1.0
 40
1.0
 40
1.0
 40
1.0
 10
2.830507950099835
 20
7.58697679167648
 30
0.0
 10
2.988901315977162
 20
7.639583150388943
 30
0.0
 10
3.30568802954964
 20
7.744795861775112
 30
0.0
 10
3.775341732436566
 20
7.918685894475644
 30
0.0
 10
4.084342389403631
 20
8.04494511685765
 30
0.0
 10
4.238842766170973
 20
8.10807474777766
 30
0.0
  0
LINE
  5
1AF
330
1F
100
AcDbEntity
  8
0
  6
Continuous
 62
     7
370
    25
100
AcDbLine
 10
2.8785813761
 20
7.4715907192
 30
0.0
 11
2.8305079501
 21
7.5869767917
 31
0.0
  0
LINE
  5
1B0
330
1F
100
AcDbEntity
  8
0
  6
Continuous
 62
     7
370
    25
100
AcDbLine
 10
1.9554927966
 20
7.0870033112
 30
0.0
 11
2.8785813761
 21
7.4715907192
 31
0.0
  0
LINE
  5
1B1
330
1F
100
AcDbEntity
  8
0
  6
Continuous
 62
     7
370
    25
100
AcDbLine
 10
1.9074193706
 20
7.2023893837
 30
0.0
 11
1.9554927966
 21
7.0870033112
 31
0.0
  0
LINE
  5
1B2
330
1F
100
AcDbEntity
  8
0
  6
Continuous
 62
     7
370
    25
100
AcDbLine
 10
1.9074193706
 20
7.2023893837
 30
0.0
 11
1.849601598
 21
7.0057117155
 31
0.0
  0
LINE
  5
1B3
330
1F
100
AcDbEntity
  8
0
  6
Continuous
 62
     7
370
    25
100
AcDbLine
 10
1.849601598
 20
7.0057117155
 30
0.0
 11
1.3799103285
 21
6.9555890481
 31
0.0
  0
ARC
  5
1B4
330
1F
100
AcDbEntity
  8
0
  6
Continuous
 62
     7
370
    25
100
AcDbCircle
 10
1.4329661221
 20
6.4584119341
 30
0.0
 40
0.5000000000000004
100
AcDbArc
 50
96.0912136328
 51
121.0515005705
  0
ARC
  5
1B5
330
1F
100
AcDbEntity
  8
0
  6
Continuous
 62
     7
370
    25
100
AcDbCircle
 10
1.6375327249
 20
6.1186480783
 30
0.0
 40
0.8965942166374864
100
AcDbArc
 50
121.0515005705
 51
284.9673079042
  0
CIRCLE
  5
1B6
330
1F
100
AcDbEntity
  8
0
  6
Continuous
 62
     7
370
    25
100
AcDbCircle
 10
1.6375327249
 20
6.1186480783
 30
0.0
 40
0.2500000000000027
  0
ARC
  5
1B7
330
1F
100
AcDbEntity
  8
0
  6
Continuous
 62
     7
370
    25
100
AcDbCircle
 10
4.5155217813
 20
7.5192526433
 30
0.0
 40
0.1500000000000115
100
AcDbArc
 50
310.0352590601
 51
112.7827754727
  0
SPLINE
  5
1B8
330
1F
100
AcDbEntity
  8
0
  6
Continuous
 62
     7
370
    25
100
AcDbSpline
210
0.0
220
0.0
230
1.0
 70
     8
 71
     3
 72
    11
 73
     7
 74
     0
 42
0.00000001
 43
0.00000001
 40
0.0
 40
0.0
 40
0.0
 40
0.0
 40
0.280098647524521
 40
0.5601202546804669
 40
0.7800835980450057
 40
1.0
 40
1.0
 40
1.0
 40
1.0
 10
4.612010616487707
 20
7.404405333036647
 30
0.0
 10
4.514707342409984
 20
7.323811127669351
 30
0.0
 10
4.320127557254517
 20
7.162644884150991
 30
0.0
 10
4.042126267705048
 20
6.946877643902007
 30
0.0
 10
3.781837552473144
 20
6.752701547278242
 30
0.0
 10
3.619849094861932
 20
6.638120398245378
 30
0.0
 10
3.538863509289619
 20
6.58083593744605
 30
0.0
  0
ARC
  5
1B9
330
1F
100
AcDbEntity
  8
0
  6
Continuous
 62
     7
370
    25
100
AcDbCircle
 10
2.3931544193
 20
8.220150026
 30
0.0
 40
2.000000000000016
100
AcDbArc
 50
293.406140918
 51
304.949522705
  0
LINE
  5
1BA
330
1F
100
AcDbEntity
  8
0
  6
Continuous
 62
     7
370
    25
100
AcDbLine
 10
3.1876469245
 20
6.3847259172
 30
0.0
 11
2.4905901904
 21
6.082993828
 31
0.0
  0
ARC
  5
1BB
330
1F
100
AcDbEntity
  8
0
  6
Continuous
 62
     7
370
    25
100
AcDbCircle
 10
2.4310032525
 20
6.2206506362
 30
0.0
 40
0.1500000000000133
100
AcDbArc
 50
187.3253353579
 51
293.406140918
  0
ARC
  5
1BC
330
1F
100
AcDbEntity
  8
0
  6
Continuous
 62
     7
370
    25
100
AcDbCircle
 10
1.6375327249
 20
6.1186480783
 30
0.0
 40
0.6499999999999888
100
AcDbArc
 50
7.3253353579
 51
38.6989339986
  0
ARC
  5
1BD
330
1F
100
AcDbEntity
  8
0
  6
Continuous
 62
     7
370
    25
100
AcDbCircle
 10
2.2618863569
 20
6.6188305872
 30
0.0
 40
0.1500000000000055
100
AcDbArc
 50
112.6181284386
 51
218.6989339986
  0
LINE
  5
1BE
330
1F
100
AcDbEntity
  8
0
  6
Continuous
 62
     7
370
    25
100
AcDbLine
 10
3.1988335587
 20
7.1716898762
 30
0.0
 11
2.2041982457
 21
6.7572938741
 31
0.0
  0
ARC
  5
1BF
330
1F
100
AcDbEntity
  8
0
  6
Continuous
 62
     7
370
    25
100
AcDbCircle
 10
5.1217705988
 20
2.5562469787
 30
0.0
 40
5.000000000000031
100
AcDbArc
 50
109.4556459781
 51
112.6181284386
  0
SPLINE
  5
1C0
330
1F
100
AcDbEntity
  8
0
  6
Continuous
 62
     7
370
    25
100
AcDbSpline
210
0.0
220
0.0
230
1.0
 70
     8
 71
     3
 72
     9
 73
     5
 74
     0
 42
0.00000001
 43
0.00000001
 40
0.0
 40
0.0
 40
0.0
 40
0.0
 40
0.5600785267085486
 40
1.0
 40
1.0
 40
1.0
 40
1.0
 10
3.456385408003593
 20
7.270745060847935
 30
0.0
 10
3.644791464396739
 20
7.339052798228615
 30
0.0
 10
3.98118367978904
 20
7.461013798558535
 30
0.0
 10
4.311932505466599
 20
7.597504426277165
 30
0.0
 10
4.457436016148089
 20
7.657549584313619
 30
0.0
  0
ARC
  5
1C1
330
1F
100
AcDbEntity
  8
0
  6
Continuous
 62
     7
370
    25
100
AcDbCircle
 10
1.3806403382
 20
3.1356224069
 30
0.0
 40
0.4999999999999937
100
AcDbArc
 50
284.6270650493
 51
309.6032346652
  0
LINE
  5
1C2
330
1F
100
AcDbEntity
  8
0
  6
Continuous
 62
     7
370
    25
100
AcDbLine
 10
2.0583820867
 20
3.0474151701
 30
0.0
 11
1.6993740824
 21
2.7503837792
 31
0.0
  0
LINE
  5
1C3
330
1F
100
AcDbEntity
  8
0
  6
Continuous
 62
     7
370
    25
100
AcDbLine
 10
2.2135808056
 20
2.9422029671
 30
0.0
 11
2.0583820867
 21
3.0474151701
 31
0.0
  0
LINE
  5
1C4
330
1F
100
AcDbEntity
  8
0
  6
Continuous
 62
     7
370
    25
100
AcDbLine
 10
2.2135808056
 20
2.9422029671
 30
0.0
 11
2.1646071084
 21
3.0572098234
 31
0.0
  0
LINE
  5
1C5
330
1F
100
AcDbEntity
  8
0
  6
Continuous
 62
     7
370
    25
100
AcDbLine
 10
2.1646071084
 20
3.0572098234
 30
0.0
 11
3.0846619584
 21
3.448999401
 31
0.0
  0
LINE
  5
1C6
330
1F
100
AcDbEntity
  8
0
  6
Continuous
 62
     7
370
    25
100
AcDbLine
 10
3.0846619584
 20
3.448999401
 30
0.0
 11
3.1336356556
 21
3.3339925447
 31
0.0
  0
SPLINE
  5
1C7
330
1F
100
AcDbEntity
  8
0
  6
Continuous
 62
     7
370
    25
100
AcDbSpline
210
0.0
220
0.0
230
1.0
 70
     8
 71
     3
 72
    10
 73
     6
 74
     0
 42
0.00000001
 43
0.00000001
 40
0.0
 40
0.0
 40
0.0
 40
0.0
 40
0.3333331330837792
 40
0.6666665894016167
 40
1.0
 40
1.0
 40
1.0
 40
1.0
 10
4.468401053600745
 20
4.309374040287613
 30
0.0
 10
4.324720529496559
 20
4.194794863008101
 30
0.0
 10
4.037359341960781
 20
3.965636397341333
 30
0.0
 10
3.592133847755526
 20
3.640153901350345
 30
0.0
 10
3.286468379301151
 20
3.436046325592407
 30
0.0
 10
3.133635655555103
 20
3.333992544712202
 30
0.0
  0
LINE
  5
1C8
330
1F
100
AcDbEntity
  8
0
  6
Continuous
 62
     7
370
    25
100
AcDbLine
 10
4.4684010536
 20
4.3093740403
 30
0.0
 11
4.3491208617
 21
4.45404085
 31
0.0
  0
LINE
  5
1C9
330
1F
100
AcDbEntity
  8
0
  6
Continuous
 62
     7
370
    25
100
AcDbLine
 10
4.3491208617
 20
4.45404085
 30
0.0
 11
4.4937876714
 21
4.5733210419
 31
0.0
  0
LINE
  5
1CA
330
1F
100
AcDbEntity
  8
0
  6
Continuous
 62
     7
370
    25
100
AcDbLine
 10
4.4937876714
 20
4.5733210419
 30
0.0
 11
4.613067863
 21
4.428654232
 31
0.0
  0
SPLINE
  5
1CB
330
1F
100
AcDbEntity
  8
0
  6
Continuous
 62
     7
370
    25
100
AcDbSpline
210
0.0
220
0.0
230
1.0
 70
     8
 71
     3
 72
    10
 73
     6
 74
     0
 42
0.00000001
 43
0.00000001
 40
0.0
 40
0.0
 40
0.0
 40
0.0
 40
0.3333332563547883
 40
0.6666666315678473
 40
1.0
 40
1.0
 40
1.0
 40
1.0
 10
5.830645400533363
 20
5.55503787269642
 30
0.0
 10
5.700477230562005
 20
5.42445448443588
 30
0.0
 10
5.440140844204579
 20
5.163287661352042
 30
0.0
 10
5.034094351673522
 20
4.787406159391142
 30
0.0
 10
4.753410024948953
 20
4.54823820697077
 30
0.0
 10
4.613067863014137
 20
4.428654231976914
 30
0.0
  0
LINE
  5
1CC
330
1F
100
AcDbEntity
  8
0
  6
Continuous
 62
     7
370
    25
100
AcDbLine
 10
5.7363058722
 20
5.6370442955
 30
0.0
 11
5.8306454005
 21
5.5550378727
 31
0.0
  0
LINE
  5
1CD
330
1F
100
AcDbEntity
  8
0
  6
Continuous
 62
     7
370
    25
100
AcDbLine
 10
6.4098173038
 20
6.3679118264
 30
0.0
 11
5.7363058722
 21
5.6370442955
 31
0.0
  0
LINE
  5
1CE
330
1F
100
AcDbEntity
  8
0
  6
Continuous
 62
     7
370
    25
100
AcDbLine
 10
7.0484086335
 20
7.1464767538
 30
0.0
 11
6.4098173038
 21
6.3679118264
 31
0.0
  0
SPLINE
  5
1CF
330
1F
100
AcDbEntity
  8
0
  6
Continuous
 62
     7
370
    25
100
AcDbSpline
210
0.0
220
0.0
230
1.0
 70
     8
 71
     3
 72
    10
 73
     6
 74
     0
 42
0.00000001
 43
0.00000001
 40
0.0
 40
0.0
 40
0.0
 40
0.0
 40
0.3333329310187751
 40
0.6666662932599018
 40
1.0
 40
1.0
 40
1.0
 40
1.0
 10
5.590790778571208
 20
6.292934651077532
 30
0.0
 10
5.755782965084478
 20
6.382499389470093
 30
0.0
 10
6.085767551556235
 20
6.561628982122302
 30
0.0
 10
6.571672569119133
 20
6.846618033524955
 30
0.0
 10
6.889496557311118
 20
7.046523812579649
 30
0.0
 10
7.048408633524589
 20
7.146476753757464
 30
0.0
  0
LINE
  5
1D0
330
1F
100
AcDbEntity
  8
0
  6
Continuous
 62
     7
370
    25
100
AcDbLine
 10
5.6780585982
 20
6.1269811104
 30
0.0
 11
5.5907907786
 21
6.2929346511
 31
0.0
  0
LINE
  5
1D1
330
1F
100
AcDbEntity
  8
0
  6
Continuous
 62
     7
370
    25
100
AcDbLine
 10
5.5121050575
 20
6.0397132908
 30
0.0
 11
5.6780585982
 21
6.1269811104
 31
0.0
  0
LINE
  5
1D2
330
1F
100
AcDbEntity
  8
0
  6
Continuous
 62
     7
370
    25
100
AcDbLine
 10
5.4248372382
 20
6.2056668317
 30
0.0
 11
5.5121050575
 21
6.0397132908
 31
0.0
  0
SPLINE
  5
1D3
330
1F
100
AcDbEntity
  8
0
  6
Continuous
 62
     7
370
    25
100
AcDbSpline
210
0.0
220
0.0
230
1.0
 70
     8
 71
     3
 72
    10
 73
     6
 74
     0
 42
0.00000001
 43
0.00000001
 40
0.0
 40
0.0
 40
0.0
 40
0.0
 40
0.3333333670871998
 40
0.6666666843445931
 40
1.0
 40
1.0
 40
1.0
 40
1.0
 10
4.066606577173199
 20
5.565514139702708
 30
0.0
 10
4.219749511224349
 20
5.631822317837392
 30
0.0
 10
4.526035356433399
 20
5.764438664194391
 30
0.0
 10
4.978900158138591
 20
5.97810901401324
 30
0.0
 10
5.27619154508648
 20
6.12981422589798
 30
0.0
 10
5.424837238203232
 20
6.205666831658077
 30
0.0
  0
LINE
  5
1D4
330
1F
100
AcDbEntity
  8
0
  6
Continuous
 62
     7
370
    25
100
AcDbLine
 10
4.1388135431
 20
5.392475404
 30
0.0
 11
4.0666065772
 21
5.5655141397
 31
0.0
  0
LINE
  5
1D5
330
1F
100
AcDbEntity
  8
0
  6
Continuous
 62
     7
370
    25
100
AcDbLine
 10
3.9657748074
 20
5.320268438
 30
0.0
 11
4.1388135431
 21
5.392475404
 31
0.0
  0
LINE
  5
1D6
330
1F
100
AcDbEntity
  8
0
  6
Continuous
 62
     7
370
    25
100
AcDbLine
 10
3.8935678417
 20
5.4933071738
 30
0.0
 11
3.9657748074
 21
5.320268438
 31
0.0
  0
SPLINE
  5
1D7
330
1F
100
AcDbEntity
  8
0
  6
Continuous
 62
     7
370
    25
100
AcDbSpline
210
0.0
220
0.0
230
1.0
 70
     8
 71
     3
 72
    10
 73
     6
 74
     0
 42
0.00000001
 43
0.00000001
 40
0.0
 40
0.0
 40
0.0
 40
0.0
 40
0.3333332893945443
 40
0.6666665405253003
 40
1.0
 40
1.0
 40
1.0
 40
1.0
 10
2.482163409290183
 20
4.980581553016045
 30
0.0
 10
2.640866375935233
 20
5.032246393178336
 30
0.0
 10
2.958272291007598
 20
5.135576067572242
 30
0.0
 10
3.428950328172823
 20
5.306674078777175
 30
0.0
 10
3.738695304907467
 20
5.431096129195261
 30
0.0
 10
3.893567841674901
 20
5.493307173846238
 30
0.0
  0
LINE
  5
1D8
330
1F
100
AcDbEntity
  8
0
  6
Continuous
 62
     7
370
    25
100
AcDbLine
 10
2.5295507879
 20
4.8649120395
 30
0.0
 11
2.4821634093
 21
4.980581553
 31
0.0
  0
LINE
  5
1D9
330
1F
100
AcDbEntity
  8
0
  6
Continuous
 62
     7
370
    25
100
AcDbLine
 10
1.6041946799
 20
4.4858130109
 30
0.0
 11
2.5295507879
 21
4.8649120395
 31
0.0
  0
LINE
  5
1DA
330
1F
100
AcDbEntity
  8
0
  6
Continuous
 62
     7
370
    25
100
AcDbLine
 10
1.5568073014
 20
4.6014825244
 30
0.0
 11
1.6041946799
 21
4.4858130109
 31
0.0
  0
LINE
  5
1DB
330
1F
100
AcDbEntity
  8
0
  6
Continuous
 62
     7
370
    25
100
AcDbLine
 10
1.5568073014
 20
4.6014825244
 30
0.0
 11
1.4978226127
 21
4.4051516646
 31
0.0
  0
LINE
  5
1DC
330
1F
100
AcDbEntity
  8
0
  6
Continuous
 62
     7
370
    25
100
AcDbLine
 10
1.4978226127
 20
4.4051516646
 30
0.0
 11
1.0278419801
 21
4.3578190596
 31
0.0
  0
ARC
  5
1DD
330
1F
100
AcDbEntity
  8
0
  6
Continuous
 62
     7
370
    25
100
AcDbCircle
 10
1.0779444399
 20
3.8603356493
 30
0.0
 40
0.4999999999999982
100
AcDbArc
 50
95.7509707779
 51
120.7112577156
  0
ARC
  5
1DE
330
1F
100
AcDbEntity
  8
0
  6
Continuous
 62
     7
370
    25
100
AcDbCircle
 10
1.2804898082
 20
3.5193630016
 30
0.0
 40
0.8965942166374818
100
AcDbArc
 50
120.7112577156
 51
284.6270650493
  0
CIRCLE
  5
1DF
330
1F
100
AcDbEntity
  8
0
  6
Continuous
 62
     7
370
    25
100
AcDbCircle
 10
1.2804898082
 20
3.5193630016
 30
0.0
 40
0.2500000000000029
  0
ARC
  5
1E0
330
1F
100
AcDbEntity
  8
0
  6
Continuous
 62
     7
370
    25
100
AcDbCircle
 10
4.1667453624
 20
4.9028524421
 30
0.0
 40
0.1500000000000055
100
AcDbArc
 50
309.6950162051
 51
112.4425326178
  0
SPLINE
  5
1E1
330
1F
100
AcDbEntity
  8
0
  6
Continuous
 62
     7
370
    25
100
AcDbSpline
210
0.0
220
0.0
230
1.0
 70
     8
 71
     3
 72
    11
 73
     7
 74
     0
 42
0.00000001
 43
0.00000001
 40
0.0
 40
0.0
 40
0.0
 40
0.0
 40
0.2800986475245213
 40
0.5601202546804682
 40
0.7800835980450014
 40
1.0
 40
1.0
 40
1.0
 40
1.0
 10
4.26255049590571
 20
4.787434174908932
 30
0.0
 10
4.16477034304163
 20
4.707419208865646
 30
0.0
 10
3.969236931477663
 20
4.547411284677111
 30
0.0
 10
3.68995924804321
 20
4.333298710335211
 30
0.0
 10
3.428522041806785
 20
4.14067171593304
 30
0.0
 10
3.26585602048299
 20
4.02705452700619
 30
0.0
 10
3.184531689207226
 20
3.970251994825757
 30
0.0
  0
ARC
  5
1E2
330
1F
100
AcDbEntity
  8
0
  6
Continuous
 62
     7
370
    25
100
AcDbCircle
 10
2.0485775772
 20
5.6163407699
 30
0.0
 40
2.000000000000008
100
AcDbArc
 50
293.065898063
 51
304.6092798501
  0
LINE
  5
1E3
330
1F
100
AcDbEntity
  8
0
  6
Continuous
 62
     7
370
    25
100
AcDbLine
 10
2.8321567324
 20
3.77623107
 30
0.0
 11
2.1333205061
 21
3.4786436491
 31
0.0
  0
ARC
  5
1E4
330
1F
100
AcDbEntity
  8
0
  6
Continuous
 62
     7
370
    25
100
AcDbCircle
 10
2.0745520695
 20
3.6166518766
 30
0.0
 40
0.1500000000000122
100
AcDbArc
 50
186.985092503
 51
293.065898063
  0
ARC
  5
1E5
330
1F
100
AcDbEntity
  8
0
  6
Continuous
 62
     7
370
    25
100
AcDbCircle
 10
1.2804898082
 20
3.5193630016
 30
0.0
 40
0.6499999999999923
100
AcDbArc
 50
6.985092503
 51
38.3586911437
  0
ARC
  5
1E6
330
1F
100
AcDbEntity
  8
0
  6
Continuous
 62
     7
370
    25
100
AcDbCircle
 10
1.9078026769
 20
4.0158290776
 30
0.0
 40
0.150000000000004
100
AcDbArc
 50
112.2778855837
 51
218.3586911437
  0
LINE
  5
1E7
330
1F
100
AcDbEntity
  8
0
  6
Continuous
 62
     7
370
    25
100
AcDbLine
 10
2.8480164157
 20
4.5631147234
 30
0.0
 11
1.8509378226
 21
4.1546324938
 31
0.0
  0
ARC
  5
1E8
330
1F
100
AcDbEntity
  8
0
  6
Continuous
 62
     7
370
    25
100
AcDbCircle
 10
4.743511559
 20
-0.0636658162
 30
0.0
 40
5.000000000000028
100
AcDbArc
 50
109.1154031231
 51
112.2778855837
  0
SPLINE
  5
1E9
330
1F
100
AcDbEntity
  8
0
  6
Continuous
 62
     7
370
    25
100
AcDbSpline
210
0.0
220
0.0
230
1.0
 70
     8
 71
     3
 72
     9
 73
     5
 74
     0
 42
0.00000001
 43
0.00000001
 40
0.0
 40
0.0
 40
0.0
 40
0.0
 40
0.5600785267085485
 40
1.0
 40
1.0
 40
1.0
 40
1.0
 10
3.106151945509561
 20
4.660638735372528
 30
0.0
 10
3.294960313347568
 20
4.727826452300806
 30
0.0
 10
3.63207084130797
 20
4.847787696526905
 30
0.0
 10
3.963624360680874
 20
4.982311824227296
 30
0.0
 10
4.10948187339837
 20
5.041491876678498
 30
0.0
  0
ARC
  5
1EA
330
1F
100
AcDbEntity
  8
0
  6
Continuous
 62
     7
370
    25
100
AcDbCircle
 10
22.7834708715
 20
2.6667440077
 30
0.0
 40
0.1
100
AcDbArc
 50
270.0
 51
63.6741782449
  0
ARC
  5
1EB
330
1F
100
AcDbEntity
  8
0
  6
Continuous
 62
     7
370
    25
100
AcDbCircle
 10
21.9365596705
 20
3.0857886123
 30
0.0
 40
0.1000000000000014
100
AcDbArc
 50
63.6741782449
 51
180.0
  0
ARC
  5
1EC
330
1F
100
AcDbEntity
  8
0
  6
Continuous
 62
     7
370
    25
100
AcDbCircle
 10
21.9365596705
 20
2.6667440077
 30
0.0
 40
0.1000000000000014
100
AcDbArc
 50
180.0
 51
270.0
  0
ARC
  5
1ED
330
1F
100
AcDbEntity
  8
0
  6
Continuous
 62
     7
370
    25
100
AcDbCircle
 10
23.0569174184
 20
6.5584106743
 30
0.0
 40
0.100000000000002
100
AcDbArc
 50
301.7902897858
 51
58.2097102142
  0
ARC
  5
1EE
330
1F
100
AcDbEntity
  8
0
  6
Continuous
 62
     7
370
    25
100
AcDbCircle
 10
21.9365596705
 20
7.2527990702
 30
0.0
 40
0.1000000000000014
100
AcDbArc
 50
58.2097102142
 51
180.0
  0
ARC
  5
1EF
330
1F
100
AcDbEntity
  8
0
  6
Continuous
 62
     7
370
    25
100
AcDbCircle
 10
21.9365596705
 20
5.8640222784
 30
0.0
 40
0.1000000000000014
100
AcDbArc
 50
180.0
 51
301.7902897858
  0
ARC
  5
1F0
330
1F
100
AcDbEntity
  8
0
  6
Continuous
 62
     7
370
    25
100
AcDbCircle
 10
23.3365596705
 20
5.6667440077
 30
0.0
 40
0.1000000000000005
100
AcDbArc
 50
270.0
 51
0.0
  0
ARC
  5
1F1
330
1F
100
AcDbEntity
  8
0
  6
Continuous
 62
     7
370
    25
100
AcDbCircle
 10
23.3365596705
 20
6.2611324035
 30
0.0
 40
0.100000000000002
100
AcDbArc
 50
0.0
 51
121.7902897858
  0
ARC
  5
1F2
330
1F
100
AcDbEntity
  8
0
  6
Continuous
 62
     7
370
    25
100
AcDbCircle
 10
22.3775464603
 20
5.6667440077
 30
0.0
 40
0.1000000000000013
100
AcDbArc
 50
121.7902897858
 51
270.0
  0
ARC
  5
1F3
330
1F
100
AcDbEntity
  8
0
  6
Continuous
 62
     7
370
    25
100
AcDbCircle
 10
23.3365596705
 20
8.2444657369
 30
0.0
 40
0.100000000000002
100
AcDbArc
 50
0.0
 51
121.7902897858
  0
ARC
  5
1F4
330
1F
100
AcDbEntity
  8
0
  6
Continuous
 62
     7
370
    25
100
AcDbCircle
 10
22.2162019225
 20
7.550077341
 30
0.0
 40
0.0999999999999983
100
AcDbArc
 50
121.7902897858
 51
238.2097102142
  0
ARC
  5
1F5
330
1F
100
AcDbEntity
  8
0
  6
Continuous
 62
     7
370
    25
100
AcDbCircle
 10
23.3365596705
 20
6.8556889451
 30
0.0
 40
0.100000000000002
100
AcDbArc
 50
238.2097102142
 51
0.0
  0
ARC
  5
1F6
330
1F
100
AcDbEntity
  8
0
  6
Continuous
 62
     7
370
    25
100
AcDbCircle
 10
22.8955728806
 20
8.4417440077
 30
0.0
 40
0.1000000000000001
100
AcDbArc
 50
301.7902897858
 51
90.0
  0
ARC
  5
1F7
330
1F
100
AcDbEntity
  8
0
  6
Continuous
 62
     7
370
    25
100
AcDbCircle
 10
21.9365596705
 20
8.4417440077
 30
0.0
 40
0.1000000000000014
100
AcDbArc
 50
90.0
 51
180.0
  0
ARC
  5
1F8
330
1F
100
AcDbEntity
  8
0
  6
Continuous
 62
     7
370
    25
100
AcDbCircle
 10
21.9365596705
 20
7.8473556118
 30
0.0
 40
0.1000000000000014
100
AcDbArc
 50
180.0
 51
301.7902897858
  0
ARC
  5
1F9
330
1F
100
AcDbEntity
  8
0
  6
Continuous
 62
     7
370
    25
100
AcDbCircle
 10
23.3365596705
 20
4.8417440077
 30
0.0
 40
0.0999999999999996
100
AcDbArc
 50
0.0
 51
90.0
  0
ARC
  5
1FA
330
1F
100
AcDbEntity
  8
0
  6
Continuous
 62
     7
370
    25
100
AcDbCircle
 10
22.4896484695
 20
4.8417440077
 30
0.0
 40
0.1
100
AcDbArc
 50
90.0
 51
243.6741782449
  0
ARC
  5
1FB
330
1F
100
AcDbEntity
  8
0
  6
Continuous
 62
     7
370
    25
100
AcDbCircle
 10
23.3365596705
 20
4.422699403
 30
0.0
 40
0.1
100
AcDbArc
 50
243.6741782449
 51
0.0
  0
ARC
  5
1FC
330
1F
100
AcDbEntity
  8
0
  6
Continuous
 62
     7
370
    25
100
AcDbCircle
 10
22.9855761347
 20
4.150077341
 30
0.0
 40
0.1000000000000008
100
AcDbArc
 50
296.3258217551
 51
63.6741782449
  0
ARC
  5
1FD
330
1F
100
AcDbEntity
  8
0
  6
Continuous
 62
     7
370
    25
100
AcDbCircle
 10
21.9365596705
 20
4.6691219457
 30
0.0
 40
0.1000000000000014
100
AcDbArc
 50
63.6741782449
 51
180.0
  0
ARC
  5
1FE
330
1F
100
AcDbEntity
  8
0
  6
Continuous
 62
     7
370
    25
100
AcDbCircle
 10
21.9365596705
 20
3.6310327363
 30
0.0
 40
0.1000000000000014
100
AcDbArc
 50
180.0
 51
296.3258217551
  0
ARC
  5
1FF
330
1F
100
AcDbEntity
  8
0
  6
Continuous
 62
     7
370
    25
100
AcDbCircle
 10
22.2401130611
 20
11.3917440077
 30
0.0
 40
0.250000000000002
100
AcDbArc
 50
45.0
 51
90.0
  0
ARC
  5
200
330
1F
100
AcDbEntity
  8
0
  6
Continuous
 62
     7
370
    25
100
AcDbCircle
 10
23.3865596705
 20
10.2452973982
 30
0.0
 40
0.25
100
AcDbArc
 50
0.0
 51
45.0
  0
ARC
  5
201
330
1F
100
AcDbEntity
  8
0
  6
Continuous
 62
     7
370
    25
100
AcDbCircle
 10
23.5365596705
 20
2.0417440077
 30
0.0
 40
0.1000000000000014
100
AcDbArc
 50
270.0
 51
0.0
  0
ARC
  5
202
330
1F
100
AcDbEntity
  8
0
  6
Continuous
 62
     7
370
    25
100
AcDbCircle
 10
21.7365596705
 20
2.0417440077
 30
0.0
 40
0.1000000000000014
100
AcDbArc
 50
180.0
 51
270.0
  0
ARC
  5
203
330
1F
100
AcDbEntity
  8
0
  6
Continuous
 62
     7
370
    25
100
AcDbCircle
 10
21.8865596705
 20
11.3917440077
 30
0.0
 40
0.25
100
AcDbArc
 50
90.0
 51
180.0
  0
ARC
  5
204
330
1F
100
AcDbEntity
  8
0
  6
Continuous
 62
     7
370
    25
100
AcDbCircle
 10
23.3365596705
 20
3.877455279
 30
0.0
 40
0.0999999999999996
100
AcDbArc
 50
0.0
 51
116.3258217551
  0
ARC
  5
205
330
1F
100
AcDbEntity
  8
0
  6
Continuous
 62
     7
370
    25
100
AcDbCircle
 10
22.2875432063
 20
3.3584106743
 30
0.0
 40
0.1000000000000012
100
AcDbArc
 50
116.3258217551
 51
243.6741782449
  0
ARC
  5
206
330
1F
100
AcDbEntity
  8
0
  6
Continuous
 62
     7
370
    25
100
AcDbCircle
 10
23.3365596705
 20
2.8393660697
 30
0.0
 40
0.1000000000000004
100
AcDbArc
 50
243.6741782449
 51
0.0
  0
CIRCLE
  5
207
330
1F
100
AcDbEntity
  8
0
  6
Continuous
 62
     7
370
    25
100
AcDbCircle
 10
23.1365596705
 20
10.1417440077
 30
0.0
 40
0.1249999999999964
  0
LINE
  5
208
330
1F
100
AcDbEntity
  8
0
  6
Continuous
 62
     7
370
    25
100
AcDbLine
 10
22.2431956894
 20
3.4480393402
 30
0.0
 11
23.2922121535
 21
3.9670839448
 31
0.0
  0
LINE
  5
209
330
1F
100
AcDbEntity
  8
0
  6
Continuous
 62
     7
370
    25
100
AcDbLine
 10
22.2401130611
 20
11.6417440077
 30
0.0
 11
21.8865596705
 21
11.6417440077
 31
0.0
  0
LINE
  5
20A
330
1F
100
AcDbEntity
  8
0
  6
Continuous
 62
     7
370
    25
100
AcDbLine
 10
23.0299236516
 20
4.2397060068
 30
0.0
 11
21.9809071874
 21
4.7587506115
 31
0.0
  0
LINE
  5
20B
330
1F
100
AcDbEntity
  8
0
  6
Continuous
 62
     7
370
    25
100
AcDbLine
 10
22.4896484695
 20
4.9417440077
 30
0.0
 11
23.3365596705
 21
4.9417440077
 31
0.0
  0
LINE
  5
20C
330
1F
100
AcDbEntity
  8
0
  6
Continuous
 62
     7
370
    25
100
AcDbLine
 10
21.9365596705
 20
8.5417440077
 30
0.0
 11
22.8955728806
 21
8.5417440077
 31
0.0
  0
LINE
  5
20D
330
1F
100
AcDbEntity
  8
0
  6
Continuous
 62
     7
370
    25
100
AcDbLine
 10
22.1635207473
 20
7.6350755397
 30
0.0
 11
23.2838784953
 21
8.3294639355
 31
0.0
  0
LINE
  5
20E
330
1F
100
AcDbEntity
  8
0
  6
Continuous
 62
     7
370
    25
100
AcDbLine
 10
22.3775464603
 20
5.5667440077
 30
0.0
 11
23.3365596705
 21
5.5667440077
 31
0.0
  0
LINE
  5
20F
330
1F
100
AcDbEntity
  8
0
  6
Continuous
 62
     7
370
    25
100
AcDbLine
 10
21.9892408457
 20
5.7790240798
 30
0.0
 11
23.1095985937
 21
6.4734124756
 31
0.0
  0
LINE
  5
210
330
1F
100
AcDbEntity
  8
0
  6
Continuous
 62
     7
370
    25
100
AcDbLine
 10
21.9365596705
 20
2.5667440077
 30
0.0
 11
22.7834708715
 21
2.5667440077
 31
0.0
  0
CIRCLE
  5
211
330
1F
100
AcDbEntity
  8
0
  6
Continuous
 62
     7
370
    25
100
AcDbCircle
 10
22.1365596705
 20
11.1417440077
 30
0.0
 40
0.125
  0
LINE
  5
212
330
1F
100
AcDbEntity
  8
0
  6
Continuous
 62
     7
370
    25
100
AcDbLine
 10
23.2922121535
 20
2.7497374038
 30
0.0
 11
22.2431956894
 21
3.2687820085
 31
0.0
  0
LINE
  5
213
330
1F
100
AcDbEntity
  8
0
  6
Continuous
 62
     7
370
    25
100
AcDbLine
 10
23.4365596705
 20
2.8393660697
 30
0.0
 11
23.4365596705
 21
3.877455279
 31
0.0
  0
LINE
  5
214
330
1F
100
AcDbEntity
  8
0
  6
Continuous
 62
     7
370
    25
100
AcDbLine
 10
23.5633363658
 20
10.4220740935
 30
0.0
 11
22.4168897564
 21
11.568520703
 31
0.0
  0
LINE
  5
215
330
1F
100
AcDbEntity
  8
0
  6
Continuous
 62
     7
370
    25
100
AcDbLine
 10
23.6365596705
 20
2.0417440077
 30
0.0
 11
23.6365596705
 21
10.2452973982
 31
0.0
  0
LINE
  5
216
330
1F
100
AcDbEntity
  8
0
  6
Continuous
 62
     7
370
    25
100
AcDbLine
 10
21.7365596705
 20
1.9417440077
 30
0.0
 11
23.5365596705
 21
1.9417440077
 31
0.0
  0
LINE
  5
217
330
1F
100
AcDbEntity
  8
0
  6
Continuous
 62
     7
370
    25
100
AcDbLine
 10
21.6365596705
 20
2.0417440077
 30
0.0
 11
21.6365596705
 21
11.3917440077
 31
0.0
  0
LINE
  5
218
330
1F
100
AcDbEntity
  8
0
  6
Continuous
 62
     7
370
    25
100
AcDbLine
 10
21.8365596705
 20
3.6310327363
 30
0.0
 11
21.8365596705
 21
4.6691219457
 31
0.0
  0
LINE
  5
219
330
1F
100
AcDbEntity
  8
0
  6
Continuous
 62
     7
370
    25
100
AcDbLine
 10
21.9809071874
 20
3.5414040705
 30
0.0
 11
23.0299236516
 21
4.0604486751
 31
0.0
  0
LINE
  5
21A
330
1F
100
AcDbEntity
  8
0
  6
Continuous
 62
     7
370
    25
100
AcDbLine
 10
23.2922121535
 20
4.3330707371
 30
0.0
 11
22.4453009525
 21
4.7521153418
 31
0.0
  0
LINE
  5
21B
330
1F
100
AcDbEntity
  8
0
  6
Continuous
 62
     7
370
    25
100
AcDbLine
 10
23.4365596705
 20
4.422699403
 30
0.0
 11
23.4365596705
 21
4.8417440077
 31
0.0
  0
LINE
  5
21C
330
1F
100
AcDbEntity
  8
0
  6
Continuous
 62
     7
370
    25
100
AcDbLine
 10
21.8365596705
 20
7.8473556118
 30
0.0
 11
21.8365596705
 21
8.4417440077
 31
0.0
  0
LINE
  5
21D
330
1F
100
AcDbEntity
  8
0
  6
Continuous
 62
     7
370
    25
100
AcDbLine
 10
21.9892408457
 20
7.7623574131
 30
0.0
 11
22.9482540559
 21
8.356745809
 31
0.0
  0
LINE
  5
21E
330
1F
100
AcDbEntity
  8
0
  6
Continuous
 62
     7
370
    25
100
AcDbLine
 10
23.2838784953
 20
6.7706907464
 30
0.0
 11
22.1635207473
 21
7.4650791423
 31
0.0
  0
LINE
  5
21F
330
1F
100
AcDbEntity
  8
0
  6
Continuous
 62
     7
370
    25
100
AcDbLine
 10
23.4365596705
 20
6.8556889451
 30
0.0
 11
23.4365596705
 21
8.2444657369
 31
0.0
  0
LINE
  5
220
330
1F
100
AcDbEntity
  8
0
  6
Continuous
 62
     7
370
    25
100
AcDbLine
 10
23.4365596705
 20
5.6667440077
 30
0.0
 11
23.4365596705
 21
6.2611324035
 31
0.0
  0
LINE
  5
221
330
1F
100
AcDbEntity
  8
0
  6
Continuous
 62
     7
370
    25
100
AcDbLine
 10
22.3248652851
 20
5.7517422063
 30
0.0
 11
23.2838784953
 21
6.3461306022
 31
0.0
  0
LINE
  5
222
330
1F
100
AcDbEntity
  8
0
  6
Continuous
 62
     7
370
    25
100
AcDbLine
 10
23.1095985937
 20
6.643408873
 30
0.0
 11
21.9892408457
 21
7.3377972689
 31
0.0
  0
LINE
  5
223
330
1F
100
AcDbEntity
  8
0
  6
Continuous
 62
     7
370
    25
100
AcDbLine
 10
21.8365596705
 20
5.8640222784
 30
0.0
 11
21.8365596705
 21
7.2527990702
 31
0.0
  0
LINE
  5
224
330
1F
100
AcDbEntity
  8
0
  6
Continuous
 62
     7
370
    25
100
AcDbLine
 10
22.8278183885
 20
2.7563726735
 30
0.0
 11
21.9809071874
 21
3.1754172782
 31
0.0
  0
LINE
  5
225
330
1F
100
AcDbEntity
  8
0
  6
Continuous
 62
     7
370
    25
100
AcDbLine
 10
21.8365596705
 20
2.6667440077
 30
0.0
 11
21.8365596705
 21
3.0857886123
 31
0.0
  0
ARC
  5
226
330
1F
100
AcDbEntity
  8
0
  6
Continuous
 62
     7
370
    25
100
AcDbCircle
 10
20.3612743939
 20
10.9167440077
 30
0.0
 40
0.1000000000000014
100
AcDbArc
 50
90.0
 51
243.6741782449
  0
ARC
  5
227
330
1F
100
AcDbEntity
  8
0
  6
Continuous
 62
     7
370
    25
100
AcDbCircle
 10
21.2081855949
 20
10.497699403
 30
0.0
 40
0.0999999999999992
100
AcDbArc
 50
243.6741782449
 51
0.0
  0
ARC
  5
228
330
1F
100
AcDbEntity
  8
0
  6
Continuous
 62
     7
370
    25
100
AcDbCircle
 10
21.2081855949
 20
10.9167440077
 30
0.0
 40
0.1000000000000014
100
AcDbArc
 50
0.0
 51
90.0
  0
ARC
  5
229
330
1F
100
AcDbEntity
  8
0
  6
Continuous
 62
     7
370
    25
100
AcDbCircle
 10
20.087827847
 20
7.025077341
 30
0.0
 40
0.0999999999999983
100
AcDbArc
 50
121.7902897858
 51
238.2097102142
  0
ARC
  5
22A
330
1F
100
AcDbEntity
  8
0
  6
Continuous
 62
     7
370
    25
100
AcDbCircle
 10
21.2081855949
 20
6.3306889451
 30
0.0
 40
0.100000000000002
100
AcDbArc
 50
238.2097102142
 51
0.0
  0
ARC
  5
22B
330
1F
100
AcDbEntity
  8
0
  6
Continuous
 62
     7
370
    25
100
AcDbCircle
 10
21.2081855949
 20
7.7194657369
 30
0.0
 40
0.1000000000000013
100
AcDbArc
 50
0.0
 51
121.7902897858
  0
ARC
  5
22C
330
1F
100
AcDbEntity
  8
0
  6
Continuous
 62
     7
370
    25
100
AcDbCircle
 10
19.8081855949
 20
7.9167440077
 30
0.0
 40
0.1000000000000014
100
AcDbArc
 50
90.0
 51
180.0
  0
ARC
  5
22D
330
1F
100
AcDbEntity
  8
0
  6
Continuous
 62
     7
370
    25
100
AcDbCircle
 10
19.8081855949
 20
7.3223556118
 30
0.0
 40
0.1000000000000014
100
AcDbArc
 50
180.0
 51
301.7902897858
  0
ARC
  5
22E
330
1F
100
AcDbEntity
  8
0
  6
Continuous
 62
     7
370
    25
100
AcDbCircle
 10
20.7671988051
 20
7.9167440077
 30
0.0
 40
0.1000000000000005
100
AcDbArc
 50
301.7902897858
 51
90.0
  0
ARC
  5
22F
330
1F
100
AcDbEntity
  8
0
  6
Continuous
 62
     7
370
    25
100
AcDbCircle
 10
19.8081855949
 20
5.3390222784
 30
0.0
 40
0.1000000000000014
100
AcDbArc
 50
180.0
 51
301.7902897858
  0
ARC
  5
230
330
1F
100
AcDbEntity
  8
0
  6
Continuous
 62
     7
370
    25
100
AcDbCircle
 10
20.9285433429
 20
6.0334106743
 30
0.0
 40
0.1000000000000001
100
AcDbArc
 50
301.7902897858
 51
58.2097102142
  0
ARC
  5
231
330
1F
100
AcDbEntity
  8
0
  6
Continuous
 62
     7
370
    25
100
AcDbCircle
 10
19.8081855949
 20
6.7277990702
 30
0.0
 40
0.1000000000000014
100
AcDbArc
 50
58.2097102142
 51
180.0
  0
ARC
  5
232
330
1F
100
AcDbEntity
  8
0
  6
Continuous
 62
     7
370
    25
100
AcDbCircle
 10
20.2491723848
 20
5.1417440077
 30
0.0
 40
0.1000000000000005
100
AcDbArc
 50
121.7902897858
 51
270.0
  0
ARC
  5
233
330
1F
100
AcDbEntity
  8
0
  6
Continuous
 62
     7
370
    25
100
AcDbCircle
 10
21.2081855949
 20
5.1417440077
 30
0.0
 40
0.1000000000000005
100
AcDbArc
 50
270.0
 51
0.0
  0
ARC
  5
234
330
1F
100
AcDbEntity
  8
0
  6
Continuous
 62
     7
370
    25
100
AcDbCircle
 10
21.2081855949
 20
5.7361324035
 30
0.0
 40
0.100000000000002
100
AcDbArc
 50
0.0
 51
121.7902897858
  0
ARC
  5
235
330
1F
100
AcDbEntity
  8
0
  6
Continuous
 62
     7
370
    25
100
AcDbCircle
 10
19.8081855949
 20
8.7417440077
 30
0.0
 40
0.1000000000000014
100
AcDbArc
 50
180.0
 51
270.0
  0
ARC
  5
236
330
1F
100
AcDbEntity
  8
0
  6
Continuous
 62
     7
370
    25
100
AcDbCircle
 10
20.6550967959
 20
8.7417440077
 30
0.0
 40
0.1000000000000008
100
AcDbArc
 50
270.0
 51
63.6741782449
  0
ARC
  5
237
330
1F
100
AcDbEntity
  8
0
  6
Continuous
 62
     7
370
    25
100
AcDbCircle
 10
19.8081855949
 20
9.1607886123
 30
0.0
 40
0.1000000000000014
100
AcDbArc
 50
63.6741782449
 51
180.0
  0
ARC
  5
238
330
1F
100
AcDbEntity
  8
0
  6
Continuous
 62
     7
370
    25
100
AcDbCircle
 10
20.1591691307
 20
9.4334106743
 30
0.0
 40
0.1000000000000008
100
AcDbArc
 50
116.3258217551
 51
243.6741782449
  0
ARC
  5
239
330
1F
100
AcDbEntity
  8
0
  6
Continuous
 62
     7
370
    25
100
AcDbCircle
 10
21.2081855949
 20
8.9143660697
 30
0.0
 40
0.0999999999999992
100
AcDbArc
 50
243.6741782449
 51
0.0
  0
ARC
  5
23A
330
1F
100
AcDbEntity
  8
0
  6
Continuous
 62
     7
370
    25
100
AcDbCircle
 10
21.2081855949
 20
9.952455279
 30
0.0
 40
0.1000000000000008
100
AcDbArc
 50
0.0
 51
116.3258217551
  0
ARC
  5
23B
330
1F
100
AcDbEntity
  8
0
  6
Continuous
 62
     7
370
    25
100
AcDbCircle
 10
20.9046322043
 20
2.1917440077
 30
0.0
 40
0.2500000000000008
100
AcDbArc
 50
225.0
 51
270.0
  0
ARC
  5
23C
330
1F
100
AcDbEntity
  8
0
  6
Continuous
 62
     7
370
    25
100
AcDbCircle
 10
19.7581855949
 20
3.3381906171
 30
0.0
 40
0.25
100
AcDbArc
 50
180.0
 51
225.0
  0
ARC
  5
23D
330
1F
100
AcDbEntity
  8
0
  6
Continuous
 62
     7
370
    25
100
AcDbCircle
 10
19.6081855949
 20
11.5417440077
 30
0.0
 40
0.1000000000000014
100
AcDbArc
 50
90.0
 51
180.0
  0
ARC
  5
23E
330
1F
100
AcDbEntity
  8
0
  6
Continuous
 62
     7
370
    25
100
AcDbCircle
 10
21.4081855949
 20
11.5417440077
 30
0.0
 40
0.0999999999999996
100
AcDbArc
 50
0.0
 51
90.0
  0
ARC
  5
23F
330
1F
100
AcDbEntity
  8
0
  6
Continuous
 62
     7
370
    25
100
AcDbCircle
 10
21.2581855949
 20
2.1917440077
 30
0.0
 40
0.25
100
AcDbArc
 50
270.0
 51
0.0
  0
ARC
  5
240
330
1F
100
AcDbEntity
  8
0
  6
Continuous
 62
     7
370
    25
100
AcDbCircle
 10
19.8081855949
 20
9.7060327363
 30
0.0
 40
0.1000000000000014
100
AcDbArc
 50
180.0
 51
296.3258217551
  0
ARC
  5
241
330
1F
100
AcDbEntity
  8
0
  6
Continuous
 62
     7
370
    25
100
AcDbCircle
 10
20.8572020591
 20
10.225077341
 30
0.0
 40
0.1000000000000024
100
AcDbArc
 50
296.3258217551
 51
63.6741782449
  0
ARC
  5
242
330
1F
100
AcDbEntity
  8
0
  6
Continuous
 62
     7
370
    25
100
AcDbCircle
 10
19.8081855949
 20
10.7441219457
 30
0.0
 40
0.1000000000000014
100
AcDbArc
 50
63.6741782449
 51
180.0
  0
CIRCLE
  5
243
330
1F
100
AcDbEntity
  8
0
  6
Continuous
 62
     7
370
    25
100
AcDbCircle
 10
20.0081855949
 20
3.4417440077
 30
0.0
 40
0.1249999999999964
  0
LINE
  5
244
330
1F
100
AcDbEntity
  8
0
  6
Continuous
 62
     7
370
    25
100
AcDbLine
 10
20.9015495761
 20
10.1354486751
 30
0.0
 11
19.8525331119
 21
9.6164040705
 31
0.0
  0
LINE
  5
245
330
1F
100
AcDbEntity
  8
0
  6
Continuous
 62
     7
370
    25
100
AcDbLine
 10
20.9046322043
 20
1.9417440077
 30
0.0
 11
21.2581855949
 21
1.9417440077
 31
0.0
  0
LINE
  5
246
330
1F
100
AcDbEntity
  8
0
  6
Continuous
 62
     7
370
    25
100
AcDbLine
 10
20.1148216138
 20
9.3437820085
 30
0.0
 11
21.163838078
 21
8.8247374038
 31
0.0
  0
LINE
  5
247
330
1F
100
AcDbEntity
  8
0
  6
Continuous
 62
     7
370
    25
100
AcDbLine
 10
20.6550967959
 20
8.6417440077
 30
0.0
 11
19.8081855949
 21
8.6417440077
 31
0.0
  0
LINE
  5
248
330
1F
100
AcDbEntity
  8
0
  6
Continuous
 62
     7
370
    25
100
AcDbLine
 10
21.2081855949
 20
5.0417440077
 30
0.0
 11
20.2491723848
 21
5.0417440077
 31
0.0
  0
LINE
  5
249
330
1F
100
AcDbEntity
  8
0
  6
Continuous
 62
     7
370
    25
100
AcDbLine
 10
20.9812245181
 20
5.9484124756
 30
0.0
 11
19.8608667701
 21
5.2540240798
 31
0.0
  0
LINE
  5
24A
330
1F
100
AcDbEntity
  8
0
  6
Continuous
 62
     7
370
    25
100
AcDbLine
 10
20.7671988051
 20
8.0167440077
 30
0.0
 11
19.8081855949
 21
8.0167440077
 31
0.0
  0
LINE
  5
24B
330
1F
100
AcDbEntity
  8
0
  6
Continuous
 62
     7
370
    25
100
AcDbLine
 10
21.1555044197
 20
7.8044639355
 30
0.0
 11
20.0351466717
 21
7.1100755397
 31
0.0
  0
LINE
  5
24C
330
1F
100
AcDbEntity
  8
0
  6
Continuous
 62
     7
370
    25
100
AcDbLine
 10
21.2081855949
 20
11.0167440077
 30
0.0
 11
20.3612743939
 21
11.0167440077
 31
0.0
  0
CIRCLE
  5
24D
330
1F
100
AcDbEntity
  8
0
  6
Continuous
 62
     7
370
    25
100
AcDbCircle
 10
21.0081855949
 20
2.4417440077
 30
0.0
 40
0.1250000000000036
  0
LINE
  5
24E
330
1F
100
AcDbEntity
  8
0
  6
Continuous
 62
     7
370
    25
100
AcDbLine
 10
19.8525331119
 20
10.8337506115
 30
0.0
 11
20.9015495761
 21
10.3147060068
 31
0.0
  0
LINE
  5
24F
330
1F
100
AcDbEntity
  8
0
  6
Continuous
 62
     7
370
    25
100
AcDbLine
 10
19.7081855949
 20
10.7441219457
 30
0.0
 11
19.7081855949
 21
9.7060327363
 31
0.0
  0
LINE
  5
250
330
1F
100
AcDbEntity
  8
0
  6
Continuous
 62
     7
370
    25
100
AcDbLine
 10
19.5814088996
 20
3.1614139218
 30
0.0
 11
20.727855509
 21
2.0149673124
 31
0.0
  0
LINE
  5
251
330
1F
100
AcDbEntity
  8
0
  6
Continuous
 62
     7
370
    25
100
AcDbLine
 10
19.5081855949
 20
11.5417440077
 30
0.0
 11
19.5081855949
 21
3.3381906171
 31
0.0
  0
LINE
  5
252
330
1F
100
AcDbEntity
  8
0
  6
Continuous
 62
     7
370
    25
100
AcDbLine
 10
21.4081855949
 20
11.6417440077
 30
0.0
 11
19.6081855949
 21
11.6417440077
 31
0.0
  0
LINE
  5
253
330
1F
100
AcDbEntity
  8
0
  6
Continuous
 62
     7
370
    25
100
AcDbLine
 10
21.5081855949
 20
11.5417440077
 30
0.0
 11
21.5081855949
 21
2.1917440077
 31
0.0
  0
LINE
  5
254
330
1F
100
AcDbEntity
  8
0
  6
Continuous
 62
     7
370
    25
100
AcDbLine
 10
21.3081855949
 20
9.952455279
 30
0.0
 11
21.3081855949
 21
8.9143660697
 31
0.0
  0
LINE
  5
255
330
1F
100
AcDbEntity
  8
0
  6
Continuous
 62
     7
370
    25
100
AcDbLine
 10
21.163838078
 20
10.0420839448
 30
0.0
 11
20.1148216138
 21
9.5230393402
 31
0.0
  0
LINE
  5
256
330
1F
100
AcDbEntity
  8
0
  6
Continuous
 62
     7
370
    25
100
AcDbLine
 10
19.8525331119
 20
9.2504172782
 30
0.0
 11
20.6994443129
 21
8.8313726735
 31
0.0
  0
LINE
  5
257
330
1F
100
AcDbEntity
  8
0
  6
Continuous
 62
     7
370
    25
100
AcDbLine
 10
19.7081855949
 20
9.1607886123
 30
0.0
 11
19.7081855949
 21
8.7417440077
 31
0.0
  0
LINE
  5
258
330
1F
100
AcDbEntity
  8
0
  6
Continuous
 62
     7
370
    25
100
AcDbLine
 10
21.3081855949
 20
5.7361324035
 30
0.0
 11
21.3081855949
 21
5.1417440077
 31
0.0
  0
LINE
  5
259
330
1F
100
AcDbEntity
  8
0
  6
Continuous
 62
     7
370
    25
100
AcDbLine
 10
21.1555044197
 20
5.8211306022
 30
0.0
 11
20.1964912096
 21
5.2267422063
 31
0.0
  0
LINE
  5
25A
330
1F
100
AcDbEntity
  8
0
  6
Continuous
 62
     7
370
    25
100
AcDbLine
 10
19.8608667701
 20
6.8127972689
 30
0.0
 11
20.9812245181
 21
6.118408873
 31
0.0
  0
LINE
  5
25B
330
1F
100
AcDbEntity
  8
0
  6
Continuous
 62
     7
370
    25
100
AcDbLine
 10
19.7081855949
 20
6.7277990702
 30
0.0
 11
19.7081855949
 21
5.3390222784
 31
0.0
  0
LINE
  5
25C
330
1F
100
AcDbEntity
  8
0
  6
Continuous
 62
     7
370
    25
100
AcDbLine
 10
19.7081855949
 20
7.9167440077
 30
0.0
 11
19.7081855949
 21
7.3223556118
 31
0.0
  0
LINE
  5
25D
330
1F
100
AcDbEntity
  8
0
  6
Continuous
 62
     7
370
    25
100
AcDbLine
 10
20.8198799803
 20
7.831745809
 30
0.0
 11
19.8608667701
 21
7.2373574131
 31
0.0
  0
LINE
  5
25E
330
1F
100
AcDbEntity
  8
0
  6
Continuous
 62
     7
370
    25
100
AcDbLine
 10
20.0351466717
 20
6.9400791423
 30
0.0
 11
21.1555044197
 21
6.2456907464
 31
0.0
  0
LINE
  5
25F
330
1F
100
AcDbEntity
  8
0
  6
Continuous
 62
     7
370
    25
100
AcDbLine
 10
21.3081855949
 20
7.7194657369
 30
0.0
 11
21.3081855949
 21
6.3306889451
 31
0.0
  0
LINE
  5
260
330
1F
100
AcDbEntity
  8
0
  6
Continuous
 62
     7
370
    25
100
AcDbLine
 10
20.316926877
 20
10.8271153418
 30
0.0
 11
21.163838078
 21
10.4080707371
 31
0.0
  0
LINE
  5
261
330
1F
100
AcDbEntity
  8
0
  6
Continuous
 62
     7
370
    25
100
AcDbLine
 10
21.3081855949
 20
10.9167440077
 30
0.0
 11
21.3081855949
 21
10.497699403
 31
0.0
  0
ARC
  5
262
330
1F
100
AcDbEntity
  8
0
  6
Continuous
 62
     7
370
    25
100
AcDbCircle
 10
12.4633337476
 20
10.5910600952
 30
0.0
 40
0.1000000000000009
100
AcDbArc
 50
270.0
 51
59.6567511158
  0
LINE
  5
263
330
1F
100
AcDbEntity
  8
0
  6
Continuous
 62
     7
370
    25
100
AcDbLine
 10
11.7251030339
 20
11.1390680595
 30
0.0
 11
12.5138516678
 21
10.6773615421
 31
0.0
  0
ARC
  5
264
330
1F
100
AcDbEntity
  8
0
  6
Continuous
 62
     7
370
    25
100
AcDbCircle
 10
11.6745851138
 20
11.0527666125
 30
0.0
 40
0.1000000000000002
100
AcDbArc
 50
59.6567511158
 51
120.3432488842
  0
LINE
  5
265
330
1F
100
AcDbEntity
  8
0
  6
Continuous
 62
     7
370
    25
100
AcDbLine
 10
10.8353185598
 20
10.6773615421
 30
0.0
 11
11.6240671936
 21
11.1390680595
 31
0.0
  0
ARC
  5
266
330
1F
100
AcDbEntity
  8
0
  6
Continuous
 62
     7
370
    25
100
AcDbCircle
 10
10.8858364799
 20
10.5910600952
 30
0.0
 40
0.1000000000000009
100
AcDbArc
 50
120.3432488842
 51
270.0
  0
LINE
  5
267
330
1F
100
AcDbEntity
  8
0
  6
Continuous
 62
     7
370
    25
100
AcDbLine
 10
10.8858364799
 20
10.4910600952
 30
0.0
 11
12.4633337476
 21
10.4910600952
 31
0.0
  0
ARC
  5
268
330
1F
100
AcDbEntity
  8
0
  6
Continuous
 62
     7
370
    25
100
AcDbCircle
 10
8.5822052335
 20
11.1410600952
 30
0.0
 40
0.1000000000000014
100
AcDbArc
 50
90.0
 51
251.5650511771
  0
LINE
  5
269
330
1F
100
AcDbEntity
  8
0
  6
Continuous
 62
     7
370
    25
100
AcDbLine
 10
9.8867123372
 20
10.6008151386
 30
0.0
 11
8.5505824569
 21
11.0461917653
 31
0.0
  0
ARC
  5
26A
330
1F
100
AcDbEntity
  8
0
  6
Continuous
 62
     7
370
    25
100
AcDbCircle
 10
9.9183351138
 20
10.6956834684
 30
0.0
 40
0.100000000000002
100
AcDbArc
 50
251.5650511771
 51
0.0
  0
LINE
  5
26B
330
1F
100
AcDbEntity
  8
0
  6
Continuous
 62
     7
370
    25
100
AcDbLine
 10
10.0183351138
 20
11.1410600952
 30
0.0
 11
10.0183351138
 21
10.6956834684
 31
0.0
  0
ARC
  5
26C
330
1F
100
AcDbEntity
  8
0
  6
Continuous
 62
     7
370
    25
100
AcDbCircle
 10
9.9183351138
 20
11.1410600952
 30
0.0
 40
0.1000000000000014
100
AcDbArc
 50
0.0
 51
90.0
  0
LINE
  5
26D
330
1F
100
AcDbEntity
  8
0
  6
Continuous
 62
     7
370
    25
100
AcDbLine
 10
9.9183351138
 20
11.2410600952
 30
0.0
 11
8.5822052335
 21
11.2410600952
 31
0.0
  0
ARC
  5
26E
330
1F
100
AcDbEntity
  8
0
  6
Continuous
 62
     7
370
    25
100
AcDbCircle
 10
15.9008337476
 20
10.5910600952
 30
0.0
 40
0.1000000000000018
100
AcDbArc
 50
270.0
 51
59.6567511158
  0
LINE
  5
26F
330
1F
100
AcDbEntity
  8
0
  6
Continuous
 62
     7
370
    25
100
AcDbLine
 10
15.1626030339
 20
11.1390680595
 30
0.0
 11
15.9513516678
 21
10.6773615421
 31
0.0
  0
ARC
  5
270
330
1F
100
AcDbEntity
  8
0
  6
Continuous
 62
     7
370
    25
100
AcDbCircle
 10
15.1120851138
 20
11.0527666125
 30
0.0
 40
0.0999999999999993
100
AcDbArc
 50
59.6567511158
 51
120.3432488842
  0
LINE
  5
271
330
1F
100
AcDbEntity
  8
0
  6
Continuous
 62
     7
370
    25
100
AcDbLine
 10
14.2728185598
 20
10.6773615421
 30
0.0
 11
15.0615671936
 21
11.1390680595
 31
0.0
  0
ARC
  5
272
330
1F
100
AcDbEntity
  8
0
  6
Continuous
 62
     7
370
    25
100
AcDbCircle
 10
14.3233364799
 20
10.5910600952
 30
0.0
 40
0.1000000000000018
100
AcDbArc
 50
120.3432488842
 51
270.0
  0
LINE
  5
273
330
1F
100
AcDbEntity
  8
0
  6
Continuous
 62
     7
370
    25
100
AcDbLine
 10
14.3233364799
 20
10.4910600952
 30
0.0
 11
15.9008337476
 21
10.4910600952
 31
0.0
  0
ARC
  5
274
330
1F
100
AcDbEntity
  8
0
  6
Continuous
 62
     7
370
    25
100
AcDbCircle
 10
18.9183351138
 20
10.5910600952
 30
0.0
 40
0.0999999999999996
100
AcDbArc
 50
270.0
 51
0.0
  0
LINE
  5
275
330
1F
100
AcDbEntity
  8
0
  6
Continuous
 62
     7
370
    25
100
AcDbLine
 10
19.0183351138
 20
11.0364367219
 30
0.0
 11
19.0183351138
 21
10.5910600952
 31
0.0
  0
ARC
  5
276
330
1F
100
AcDbEntity
  8
0
  6
Continuous
 62
     7
370
    25
100
AcDbCircle
 10
18.9183351138
 20
11.0364367219
 30
0.0
 40
0.1000000000000025
100
AcDbArc
 50
0.0
 51
108.4349488229
  0
LINE
  5
277
330
1F
100
AcDbEntity
  8
0
  6
Continuous
 62
     7
370
    25
100
AcDbLine
 10
17.5505824569
 20
10.685928425
 30
0.0
 11
18.8867123372
 21
11.1313050517
 31
0.0
  0
ARC
  5
278
330
1F
100
AcDbEntity
  8
0
  6
Continuous
 62
     7
370
    25
100
AcDbCircle
 10
17.5822052335
 20
10.5910600952
 30
0.0
 40
0.0999999999999996
100
AcDbArc
 50
108.4349488229
 51
270.0
  0
LINE
  5
279
330
1F
100
AcDbEntity
  8
0
  6
Continuous
 62
     7
370
    25
100
AcDbLine
 10
17.5822052335
 20
10.4910600952
 30
0.0
 11
18.9183351138
 21
10.4910600952
 31
0.0
  0
LINE
  5
27A
330
1F
100
AcDbEntity
  8
0
  6
Continuous
 62
     7
370
    25
100
AcDbLine
 10
19.2683351138
 20
11.3660600952
 30
0.0
 11
7.5183351138
 21
11.3660600952
 31
0.0
  0
LINE
  5
27B
330
1F
100
AcDbEntity
  8
0
  6
Continuous
 62
     7
370
    25
100
AcDbLine
 10
19.2683351138
 20
10.3660600952
 30
0.0
 11
19.2683351138
 21
11.3660600952
 31
0.0
  0
LINE
  5
27C
330
1F
100
AcDbEntity
  8
0
  6
Continuous
 62
     7
370
    25
100
AcDbLine
 10
7.5183351138
 20
10.3660600952
 30
0.0
 11
19.2683351138
 21
10.3660600952
 31
0.0
  0
LINE
  5
27D
330
1F
100
AcDbEntity
  8
0
  6
Continuous
 62
     7
370
    25
100
AcDbLine
 10
7.5183351138
 20
11.3660600952
 30
0.0
 11
7.5183351138
 21
10.3660600952
 31
0.0
  0
ARC
  5
27E
330
1F
100
AcDbEntity
  8
0
  6
Continuous
 62
     7
370
    25
100
AcDbCircle
 10
9.204464994
 20
10.5910600952
 30
0.0
 40
0.0999999999999996
100
AcDbArc
 50
270.0
 51
71.5650511771
  0
LINE
  5
27F
330
1F
100
AcDbEntity
  8
0
  6
Continuous
 62
     7
370
    25
100
AcDbLine
 10
9.2360877706
 20
10.685928425
 30
0.0
 11
7.8999578904
 21
11.1313050517
 31
0.0
  0
ARC
  5
280
330
1F
100
AcDbEntity
  8
0
  6
Continuous
 62
     7
370
    25
100
AcDbCircle
 10
7.8683351138
 20
11.0364367219
 30
0.0
 40
0.1000000000000006
100
AcDbArc
 50
71.5650511771
 51
180.0
  0
LINE
  5
281
330
1F
100
AcDbEntity
  8
0
  6
Continuous
 62
     7
370
    25
100
AcDbLine
 10
7.7683351138
 20
11.0364367219
 30
0.0
 11
7.7683351138
 21
10.5910600952
 31
0.0
  0
ARC
  5
282
330
1F
100
AcDbEntity
  8
0
  6
Continuous
 62
     7
370
    25
100
AcDbCircle
 10
7.8683351138
 20
10.5910600952
 30
0.0
 40
0.0999999999999996
100
AcDbArc
 50
180.0
 51
270.0
  0
LINE
  5
283
330
1F
100
AcDbEntity
  8
0
  6
Continuous
 62
     7
370
    25
100
AcDbLine
 10
7.8683351138
 20
10.4910600952
 30
0.0
 11
9.204464994
 21
10.4910600952
 31
0.0
  0
ARC
  5
284
330
1F
100
AcDbEntity
  8
0
  6
Continuous
 62
     7
370
    25
100
AcDbCircle
 10
13.9308351138
 20
10.7378901632
 30
0.0
 40
0.0999999999999993
100
AcDbArc
 50
180.0
 51
300.3432488842
  0
LINE
  5
285
330
1F
100
AcDbEntity
  8
0
  6
Continuous
 62
     7
370
    25
100
AcDbLine
 10
13.9813530339
 20
10.6515887162
 30
0.0
 11
14.6701016678
 21
11.0547586482
 31
0.0
  0
ARC
  5
286
330
1F
100
AcDbEntity
  8
0
  6
Continuous
 62
     7
370
    25
100
AcDbCircle
 10
14.6195837476
 20
11.1410600952
 30
0.0
 40
0.1000000000000014
100
AcDbArc
 50
300.3432488842
 51
90.0
  0
LINE
  5
287
330
1F
100
AcDbEntity
  8
0
  6
Continuous
 62
     7
370
    25
100
AcDbLine
 10
14.6195837476
 20
11.2410600952
 30
0.0
 11
13.9308351138
 21
11.2410600952
 31
0.0
  0
ARC
  5
288
330
1F
100
AcDbEntity
  8
0
  6
Continuous
 62
     7
370
    25
100
AcDbCircle
 10
13.9308351138
 20
11.1410600952
 30
0.0
 40
0.1000000000000014
100
AcDbArc
 50
90.0
 51
180.0
  0
LINE
  5
289
330
1F
100
AcDbEntity
  8
0
  6
Continuous
 62
     7
370
    25
100
AcDbLine
 10
13.8308351138
 20
11.1410600952
 30
0.0
 11
13.8308351138
 21
10.7378901632
 31
0.0
  0
ARC
  5
28A
330
1F
100
AcDbEntity
  8
0
  6
Continuous
 62
     7
370
    25
100
AcDbCircle
 10
15.6045864799
 20
11.1410600952
 30
0.0
 40
0.1000000000000014
100
AcDbArc
 50
90.0
 51
239.6567511158
  0
LINE
  5
28B
330
1F
100
AcDbEntity
  8
0
  6
Continuous
 62
     7
370
    25
100
AcDbLine
 10
15.5540685598
 20
11.0547586482
 30
0.0
 11
16.2428171936
 21
10.6515887162
 31
0.0
  0
ARC
  5
28C
330
1F
100
AcDbEntity
  8
0
  6
Continuous
 62
     7
370
    25
100
AcDbCircle
 10
16.2933351138
 20
10.7378901632
 30
0.0
 40
0.1000000000000014
100
AcDbArc
 50
239.6567511158
 51
0.0
  0
LINE
  5
28D
330
1F
100
AcDbEntity
  8
0
  6
Continuous
 62
     7
370
    25
100
AcDbLine
 10
16.3933351138
 20
11.1410600952
 30
0.0
 11
16.3933351138
 21
10.7378901632
 31
0.0
  0
ARC
  5
28E
330
1F
100
AcDbEntity
  8
0
  6
Continuous
 62
     7
370
    25
100
AcDbCircle
 10
16.2933351138
 20
11.1410600952
 30
0.0
 40
0.1000000000000014
100
AcDbArc
 50
0.0
 51
90.0
  0
LINE
  5
28F
330
1F
100
AcDbEntity
  8
0
  6
Continuous
 62
     7
370
    25
100
AcDbLine
 10
16.2933351138
 20
11.2410600952
 30
0.0
 11
15.6045864799
 21
11.2410600952
 31
0.0
  0
ARC
  5
290
330
1F
100
AcDbEntity
  8
0
  6
Continuous
 62
     7
370
    25
100
AcDbCircle
 10
16.8683351138
 20
10.6956834684
 30
0.0
 40
0.1000000000000014
100
AcDbArc
 50
180.0
 51
288.4349488229
  0
LINE
  5
291
330
1F
100
AcDbEntity
  8
0
  6
Continuous
 62
     7
370
    25
100
AcDbLine
 10
16.8999578904
 20
10.6008151386
 30
0.0
 11
18.2360877706
 21
11.0461917653
 31
0.0
  0
ARC
  5
292
330
1F
100
AcDbEntity
  8
0
  6
Continuous
 62
     7
370
    25
100
AcDbCircle
 10
18.204464994
 20
11.1410600952
 30
0.0
 40
0.1000000000000014
100
AcDbArc
 50
288.4349488229
 51
90.0
  0
LINE
  5
293
330
1F
100
AcDbEntity
  8
0
  6
Continuous
 62
     7
370
    25
100
AcDbLine
 10
18.204464994
 20
11.2410600952
 30
0.0
 11
16.8683351138
 21
11.2410600952
 31
0.0
  0
ARC
  5
294
330
1F
100
AcDbEntity
  8
0
  6
Continuous
 62
     7
370
    25
100
AcDbCircle
 10
16.8683351138
 20
11.1410600952
 30
0.0
 40
0.1000000000000014
100
AcDbArc
 50
90.0
 51
180.0
  0
LINE
  5
295
330
1F
100
AcDbEntity
  8
0
  6
Continuous
 62
     7
370
    25
100
AcDbLine
 10
16.7683351138
 20
11.1410600952
 30
0.0
 11
16.7683351138
 21
10.6956834684
 31
0.0
  0
ARC
  5
296
330
1F
100
AcDbEntity
  8
0
  6
Continuous
 62
     7
370
    25
100
AcDbCircle
 10
10.4933351138
 20
10.7378901632
 30
0.0
 40
0.1000000000000014
100
AcDbArc
 50
180.0
 51
300.3432488842
  0
LINE
  5
297
330
1F
100
AcDbEntity
  8
0
  6
Continuous
 62
     7
370
    25
100
AcDbLine
 10
10.5438530339
 20
10.6515887162
 30
0.0
 11
11.2326016678
 21
11.0547586482
 31
0.0
  0
ARC
  5
298
330
1F
100
AcDbEntity
  8
0
  6
Continuous
 62
     7
370
    25
100
AcDbCircle
 10
11.1820837476
 20
11.1410600952
 30
0.0
 40
0.1000000000000014
100
AcDbArc
 50
300.3432488842
 51
90.0
  0
LINE
  5
299
330
1F
100
AcDbEntity
  8
0
  6
Continuous
 62
     7
370
    25
100
AcDbLine
 10
11.1820837476
 20
11.2410600952
 30
0.0
 11
10.4933351138
 21
11.2410600952
 31
0.0
  0
ARC
  5
29A
330
1F
100
AcDbEntity
  8
0
  6
Continuous
 62
     7
370
    25
100
AcDbCircle
 10
10.4933351138
 20
11.1410600952
 30
0.0
 40
0.1000000000000014
100
AcDbArc
 50
90.0
 51
180.0
  0
LINE
  5
29B
330
1F
100
AcDbEntity
  8
0
  6
Continuous
 62
     7
370
    25
100
AcDbLine
 10
10.3933351138
 20
11.1410600952
 30
0.0
 11
10.3933351138
 21
10.7378901632
 31
0.0
  0
ARC
  5
29C
330
1F
100
AcDbEntity
  8
0
  6
Continuous
 62
     7
370
    25
100
AcDbCircle
 10
12.1670864799
 20
11.1410600952
 30
0.0
 40
0.1000000000000014
100
AcDbArc
 50
90.0
 51
239.6567511158
  0
LINE
  5
29D
330
1F
100
AcDbEntity
  8
0
  6
Continuous
 62
     7
370
    25
100
AcDbLine
 10
12.1165685598
 20
11.0547586482
 30
0.0
 11
12.8053171936
 21
10.6515887162
 31
0.0
  0
ARC
  5
29E
330
1F
100
AcDbEntity
  8
0
  6
Continuous
 62
     7
370
    25
100
AcDbCircle
 10
12.8558351138
 20
10.7378901632
 30
0.0
 40
0.1000000000000014
100
AcDbArc
 50
239.6567511158
 51
0.0
  0
LINE
  5
29F
330
1F
100
AcDbEntity
  8
0
  6
Continuous
 62
     7
370
    25
100
AcDbLine
 10
12.9558351138
 20
11.1410600952
 30
0.0
 11
12.9558351138
 21
10.7378901632
 31
0.0
  0
ARC
  5
2A0
330
1F
100
AcDbEntity
  8
0
  6
Continuous
 62
     7
370
    25
100
AcDbCircle
 10
12.8558351138
 20
11.1410600952
 30
0.0
 40
0.1000000000000014
100
AcDbArc
 50
0.0
 51
90.0
  0
LINE
  5
2A1
330
1F
100
AcDbEntity
  8
0
  6
Continuous
 62
     7
370
    25
100
AcDbLine
 10
12.8558351138
 20
11.2410600952
 30
0.0
 11
12.1670864799
 21
11.2410600952
 31
0.0
  0
CIRCLE
  5
2A2
330
1F
100
AcDbEntity
  8
0
  6
Continuous
 62
     7
370
    25
100
AcDbCircle
 10
13.3933351138
 20
10.7410600952
 30
0.0
 40
0.0625
  0
CIRCLE
  5
2A3
330
1F
100
AcDbEntity
  8
0
  6
Continuous
 62
     7
370
    25
100
AcDbCircle
 10
13.3933351138
 20
11.1160600952
 30
0.0
 40
0.0625
  0
ARC
  5
2A4
330
1F
100
AcDbEntity
  8
0
  6
Continuous
 62
     7
370
    25
100
AcDbCircle
 10
12.3721177158
 20
7.7025524212
 30
0.0
 40
0.1000000000000005
100
AcDbArc
 50
270.0
 51
59.6567511158
  0
LINE
  5
2A5
330
1F
100
AcDbEntity
  8
0
  6
Continuous
 62
     7
370
    25
100
AcDbLine
 10
11.6338870021
 20
8.2505603855
 30
0.0
 11
12.4226356359
 21
7.7888538681
 31
0.0
  0
ARC
  5
2A6
330
1F
100
AcDbEntity
  8
0
  6
Continuous
 62
     7
370
    25
100
AcDbCircle
 10
11.583369082
 20
8.1642589385
 30
0.0
 40
0.1
100
AcDbArc
 50
59.6567511158
 51
120.3432488842
  0
LINE
  5
2A7
330
1F
100
AcDbEntity
  8
0
  6
Continuous
 62
     7
370
    25
100
AcDbLine
 10
10.744102528
 20
7.7888538681
 30
0.0
 11
11.5328511618
 21
8.2505603855
 31
0.0
  0
ARC
  5
2A8
330
1F
100
AcDbEntity
  8
0
  6
Continuous
 62
     7
370
    25
100
AcDbCircle
 10
10.7946204481
 20
7.7025524212
 30
0.0
 40
0.1000000000000005
100
AcDbArc
 50
120.3432488842
 51
270.0
  0
LINE
  5
2A9
330
1F
100
AcDbEntity
  8
0
  6
Continuous
 62
     7
370
    25
100
AcDbLine
 10
10.7946204481
 20
7.6025524212
 30
0.0
 11
12.3721177158
 21
7.6025524212
 31
0.0
  0
ARC
  5
2AA
330
1F
100
AcDbEntity
  8
0
  6
Continuous
 62
     7
370
    25
100
AcDbCircle
 10
8.4909892017
 20
8.2525524212
 30
0.0
 40
0.1000000000000014
100
AcDbArc
 50
90.0
 51
251.5650511771
  0
LINE
  5
2AB
330
1F
100
AcDbEntity
  8
0
  6
Continuous
 62
     7
370
    25
100
AcDbLine
 10
9.7954963054
 20
7.7123074646
 30
0.0
 11
8.4593664251
 21
8.1576840914
 31
0.0
  0
ARC
  5
2AC
330
1F
100
AcDbEntity
  8
0
  6
Continuous
 62
     7
370
    25
100
AcDbCircle
 10
9.827119082
 20
7.8071757944
 30
0.0
 40
0.1000000000000006
100
AcDbArc
 50
251.5650511771
 51
0.0
  0
LINE
  5
2AD
330
1F
100
AcDbEntity
  8
0
  6
Continuous
 62
     7
370
    25
100
AcDbLine
 10
9.927119082
 20
8.2525524212
 30
0.0
 11
9.927119082
 21
7.8071757944
 31
0.0
  0
ARC
  5
2AE
330
1F
100
AcDbEntity
  8
0
  6
Continuous
 62
     7
370
    25
100
AcDbCircle
 10
9.827119082
 20
8.2525524212
 30
0.0
 40
0.0999999999999996
100
AcDbArc
 50
0.0
 51
90.0
  0
LINE
  5
2AF
330
1F
100
AcDbEntity
  8
0
  6
Continuous
 62
     7
370
    25
100
AcDbLine
 10
9.827119082
 20
8.3525524212
 30
0.0
 11
8.4909892017
 21
8.3525524212
 31
0.0
  0
ARC
  5
2B0
330
1F
100
AcDbEntity
  8
0
  6
Continuous
 62
     7
370
    25
100
AcDbCircle
 10
15.8096177158
 20
7.7025524212
 30
0.0
 40
0.1000000000000005
100
AcDbArc
 50
270.0
 51
59.6567511158
  0
LINE
  5
2B1
330
1F
100
AcDbEntity
  8
0
  6
Continuous
 62
     7
370
    25
100
AcDbLine
 10
15.0713870021
 20
8.2505603855
 30
0.0
 11
15.8601356359
 21
7.7888538681
 31
0.0
  0
ARC
  5
2B2
330
1F
100
AcDbEntity
  8
0
  6
Continuous
 62
     7
370
    25
100
AcDbCircle
 10
15.020869082
 20
8.1642589385
 30
0.0
 40
0.1000000000000009
100
AcDbArc
 50
59.6567511158
 51
120.3432488842
  0
LINE
  5
2B3
330
1F
100
AcDbEntity
  8
0
  6
Continuous
 62
     7
370
    25
100
AcDbLine
 10
14.181602528
 20
7.7888538681
 30
0.0
 11
14.9703511618
 21
8.2505603855
 31
0.0
  0
ARC
  5
2B4
330
1F
100
AcDbEntity
  8
0
  6
Continuous
 62
     7
370
    25
100
AcDbCircle
 10
14.2321204481
 20
7.7025524212
 30
0.0
 40
0.1000000000000005
100
AcDbArc
 50
120.3432488842
 51
270.0
  0
LINE
  5
2B5
330
1F
100
AcDbEntity
  8
0
  6
Continuous
 62
     7
370
    25
100
AcDbLine
 10
14.2321204481
 20
7.6025524212
 30
0.0
 11
15.8096177158
 21
7.6025524212
 31
0.0
  0
ARC
  5
2B6
330
1F
100
AcDbEntity
  8
0
  6
Continuous
 62
     7
370
    25
100
AcDbCircle
 10
18.827119082
 20
7.7025524212
 30
0.0
 40
0.1000000000000005
100
AcDbArc
 50
270.0
 51
0.0
  0
LINE
  5
2B7
330
1F
100
AcDbEntity
  8
0
  6
Continuous
 62
     7
370
    25
100
AcDbLine
 10
18.927119082
 20
8.1479290479
 30
0.0
 11
18.927119082
 21
7.7025524212
 31
0.0
  0
ARC
  5
2B8
330
1F
100
AcDbEntity
  8
0
  6
Continuous
 62
     7
370
    25
100
AcDbCircle
 10
18.827119082
 20
8.1479290479
 30
0.0
 40
0.0999999999999992
100
AcDbArc
 50
0.0
 51
108.4349488229
  0
LINE
  5
2B9
330
1F
100
AcDbEntity
  8
0
  6
Continuous
 62
     7
370
    25
100
AcDbLine
 10
17.4593664251
 20
7.797420751
 30
0.0
 11
18.7954963054
 21
8.2427973777
 31
0.0
  0
ARC
  5
2BA
330
1F
100
AcDbEntity
  8
0
  6
Continuous
 62
     7
370
    25
100
AcDbCircle
 10
17.4909892017
 20
7.7025524212
 30
0.0
 40
0.1000000000000005
100
AcDbArc
 50
108.4349488229
 51
270.0
  0
LINE
  5
2BB
330
1F
100
AcDbEntity
  8
0
  6
Continuous
 62
     7
370
    25
100
AcDbLine
 10
17.4909892017
 20
7.6025524212
 30
0.0
 11
18.827119082
 21
7.6025524212
 31
0.0
  0
LINE
  5
2BC
330
1F
100
AcDbEntity
  8
0
  6
Continuous
 62
     7
370
    25
100
AcDbLine
 10
19.177119082
 20
8.4775524212
 30
0.0
 11
7.427119082
 21
8.4775524212
 31
0.0
  0
LINE
  5
2BD
330
1F
100
AcDbEntity
  8
0
  6
Continuous
 62
     7
370
    25
100
AcDbLine
 10
19.177119082
 20
7.4775524212
 30
0.0
 11
19.177119082
 21
8.4775524212
 31
0.0
  0
LINE
  5
2BE
330
1F
100
AcDbEntity
  8
0
  6
Continuous
 62
     7
370
    25
100
AcDbLine
 10
7.427119082
 20
7.4775524212
 30
0.0
 11
19.177119082
 21
7.4775524212
 31
0.0
  0
LINE
  5
2BF
330
1F
100
AcDbEntity
  8
0
  6
Continuous
 62
     7
370
    25
100
AcDbLine
 10
7.427119082
 20
8.4775524212
 30
0.0
 11
7.427119082
 21
7.4775524212
 31
0.0
  0
ARC
  5
2C0
330
1F
100
AcDbEntity
  8
0
  6
Continuous
 62
     7
370
    25
100
AcDbCircle
 10
9.1132489622
 20
7.7025524212
 30
0.0
 40
0.1000000000000005
100
AcDbArc
 50
270.0
 51
71.5650511771
  0
LINE
  5
2C1
330
1F
100
AcDbEntity
  8
0
  6
Continuous
 62
     7
370
    25
100
AcDbLine
 10
9.1448717388
 20
7.797420751
 30
0.0
 11
7.8087418586
 21
8.2427973777
 31
0.0
  0
ARC
  5
2C2
330
1F
100
AcDbEntity
  8
0
  6
Continuous
 62
     7
370
    25
100
AcDbCircle
 10
7.777119082
 20
8.1479290479
 30
0.0
 40
0.1000000000000006
100
AcDbArc
 50
71.5650511771
 51
180.0
  0
LINE
  5
2C3
330
1F
100
AcDbEntity
  8
0
  6
Continuous
 62
     7
370
    25
100
AcDbLine
 10
7.677119082
 20
8.1479290479
 30
0.0
 11
7.677119082
 21
7.7025524212
 31
0.0
  0
ARC
  5
2C4
330
1F
100
AcDbEntity
  8
0
  6
Continuous
 62
     7
370
    25
100
AcDbCircle
 10
7.777119082
 20
7.7025524212
 30
0.0
 40
0.1000000000000005
100
AcDbArc
 50
180.0
 51
270.0
  0
LINE
  5
2C5
330
1F
100
AcDbEntity
  8
0
  6
Continuous
 62
     7
370
    25
100
AcDbLine
 10
7.777119082
 20
7.6025524212
 30
0.0
 11
9.1132489622
 21
7.6025524212
 31
0.0
  0
ARC
  5
2C6
330
1F
100
AcDbEntity
  8
0
  6
Continuous
 62
     7
370
    25
100
AcDbCircle
 10
13.839619082
 20
7.8493824892
 30
0.0
 40
0.1
100
AcDbArc
 50
180.0
 51
300.3432488842
  0
LINE
  5
2C7
330
1F
100
AcDbEntity
  8
0
  6
Continuous
 62
     7
370
    25
100
AcDbLine
 10
13.8901370021
 20
7.7630810422
 30
0.0
 11
14.5788856359
 21
8.1662509742
 31
0.0
  0
ARC
  5
2C8
330
1F
100
AcDbEntity
  8
0
  6
Continuous
 62
     7
370
    25
100
AcDbCircle
 10
14.5283677158
 20
8.2525524212
 30
0.0
 40
0.1000000000000009
100
AcDbArc
 50
300.3432488842
 51
90.0
  0
LINE
  5
2C9
330
1F
100
AcDbEntity
  8
0
  6
Continuous
 62
     7
370
    25
100
AcDbLine
 10
14.5283677158
 20
8.3525524212
 30
0.0
 11
13.839619082
 21
8.3525524212
 31
0.0
  0
ARC
  5
2CA
330
1F
100
AcDbEntity
  8
0
  6
Continuous
 62
     7
370
    25
100
AcDbCircle
 10
13.839619082
 20
8.2525524212
 30
0.0
 40
0.0999999999999996
100
AcDbArc
 50
90.0
 51
180.0
  0
LINE
  5
2CB
330
1F
100
AcDbEntity
  8
0
  6
Continuous
 62
     7
370
    25
100
AcDbLine
 10
13.739619082
 20
8.2525524212
 30
0.0
 11
13.739619082
 21
7.8493824892
 31
0.0
  0
ARC
  5
2CC
330
1F
100
AcDbEntity
  8
0
  6
Continuous
 62
     7
370
    25
100
AcDbCircle
 10
15.5133704481
 20
8.2525524212
 30
0.0
 40
0.1
100
AcDbArc
 50
90.0
 51
239.6567511158
  0
LINE
  5
2CD
330
1F
100
AcDbEntity
  8
0
  6
Continuous
 62
     7
370
    25
100
AcDbLine
 10
15.462852528
 20
8.1662509742
 30
0.0
 11
16.1516011618
 21
7.7630810422
 31
0.0
  0
ARC
  5
2CE
330
1F
100
AcDbEntity
  8
0
  6
Continuous
 62
     7
370
    25
100
AcDbCircle
 10
16.202119082
 20
7.8493824892
 30
0.0
 40
0.1000000000000014
100
AcDbArc
 50
239.6567511158
 51
0.0
  0
LINE
  5
2CF
330
1F
100
AcDbEntity
  8
0
  6
Continuous
 62
     7
370
    25
100
AcDbLine
 10
16.302119082
 20
8.2525524212
 30
0.0
 11
16.302119082
 21
7.8493824892
 31
0.0
  0
ARC
  5
2D0
330
1F
100
AcDbEntity
  8
0
  6
Continuous
 62
     7
370
    25
100
AcDbCircle
 10
16.202119082
 20
8.2525524212
 30
0.0
 40
0.1000000000000014
100
AcDbArc
 50
0.0
 51
90.0
  0
LINE
  5
2D1
330
1F
100
AcDbEntity
  8
0
  6
Continuous
 62
     7
370
    25
100
AcDbLine
 10
16.202119082
 20
8.3525524212
 30
0.0
 11
15.5133704481
 21
8.3525524212
 31
0.0
  0
ARC
  5
2D2
330
1F
100
AcDbEntity
  8
0
  6
Continuous
 62
     7
370
    25
100
AcDbCircle
 10
16.777119082
 20
7.8071757944
 30
0.0
 40
0.1000000000000003
100
AcDbArc
 50
180.0
 51
288.4349488229
  0
LINE
  5
2D3
330
1F
100
AcDbEntity
  8
0
  6
Continuous
 62
     7
370
    25
100
AcDbLine
 10
16.8087418586
 20
7.7123074646
 30
0.0
 11
18.1448717388
 21
8.1576840914
 31
0.0
  0
ARC
  5
2D4
330
1F
100
AcDbEntity
  8
0
  6
Continuous
 62
     7
370
    25
100
AcDbCircle
 10
18.1132489622
 20
8.2525524212
 30
0.0
 40
0.100000000000002
100
AcDbArc
 50
288.4349488229
 51
90.0
  0
LINE
  5
2D5
330
1F
100
AcDbEntity
  8
0
  6
Continuous
 62
     7
370
    25
100
AcDbLine
 10
18.1132489622
 20
8.3525524212
 30
0.0
 11
16.777119082
 21
8.3525524212
 31
0.0
  0
ARC
  5
2D6
330
1F
100
AcDbEntity
  8
0
  6
Continuous
 62
     7
370
    25
100
AcDbCircle
 10
16.777119082
 20
8.2525524212
 30
0.0
 40
0.0999999999999996
100
AcDbArc
 50
90.0
 51
180.0
  0
LINE
  5
2D7
330
1F
100
AcDbEntity
  8
0
  6
Continuous
 62
     7
370
    25
100
AcDbLine
 10
16.677119082
 20
8.2525524212
 30
0.0
 11
16.677119082
 21
7.8071757944
 31
0.0
  0
ARC
  5
2D8
330
1F
100
AcDbEntity
  8
0
  6
Continuous
 62
     7
370
    25
100
AcDbCircle
 10
10.402119082
 20
7.8493824892
 30
0.0
 40
0.1000000000000018
100
AcDbArc
 50
180.0
 51
300.3432488842
  0
LINE
  5
2D9
330
1F
100
AcDbEntity
  8
0
  6
Continuous
 62
     7
370
    25
100
AcDbLine
 10
10.4526370021
 20
7.7630810422
 30
0.0
 11
11.1413856359
 21
8.1662509742
 31
0.0
  0
ARC
  5
2DA
330
1F
100
AcDbEntity
  8
0
  6
Continuous
 62
     7
370
    25
100
AcDbCircle
 10
11.0908677158
 20
8.2525524212
 30
0.0
 40
0.1
100
AcDbArc
 50
300.3432488842
 51
90.0
  0
LINE
  5
2DB
330
1F
100
AcDbEntity
  8
0
  6
Continuous
 62
     7
370
    25
100
AcDbLine
 10
11.0908677158
 20
8.3525524212
 30
0.0
 11
10.402119082
 21
8.3525524212
 31
0.0
  0
ARC
  5
2DC
330
1F
100
AcDbEntity
  8
0
  6
Continuous
 62
     7
370
    25
100
AcDbCircle
 10
10.402119082
 20
8.2525524212
 30
0.0
 40
0.0999999999999996
100
AcDbArc
 50
90.0
 51
180.0
  0
LINE
  5
2DD
330
1F
100
AcDbEntity
  8
0
  6
Continuous
 62
     7
370
    25
100
AcDbLine
 10
10.302119082
 20
8.2525524212
 30
0.0
 11
10.302119082
 21
7.8493824892
 31
0.0
  0
ARC
  5
2DE
330
1F
100
AcDbEntity
  8
0
  6
Continuous
 62
     7
370
    25
100
AcDbCircle
 10
12.0758704481
 20
8.2525524212
 30
0.0
 40
0.1000000000000009
100
AcDbArc
 50
90.0
 51
239.6567511158
  0
LINE
  5
2DF
330
1F
100
AcDbEntity
  8
0
  6
Continuous
 62
     7
370
    25
100
AcDbLine
 10
12.025352528
 20
8.1662509742
 30
0.0
 11
12.7141011618
 21
7.7630810422
 31
0.0
  0
ARC
  5
2E0
330
1F
100
AcDbEntity
  8
0
  6
Continuous
 62
     7
370
    25
100
AcDbCircle
 10
12.764619082
 20
7.8493824892
 30
0.0
 40
0.1000000000000001
100
AcDbArc
 50
239.6567511158
 51
0.0
  0
LINE
  5
2E1
330
1F
100
AcDbEntity
  8
0
  6
Continuous
 62
     7
370
    25
100
AcDbLine
 10
12.864619082
 20
8.2525524212
 30
0.0
 11
12.864619082
 21
7.8493824892
 31
0.0
  0
ARC
  5
2E2
330
1F
100
AcDbEntity
  8
0
  6
Continuous
 62
     7
370
    25
100
AcDbCircle
 10
12.764619082
 20
8.2525524212
 30
0.0
 40
0.0999999999999996
100
AcDbArc
 50
0.0
 51
90.0
  0
LINE
  5
2E3
330
1F
100
AcDbEntity
  8
0
  6
Continuous
 62
     7
370
    25
100
AcDbLine
 10
12.764619082
 20
8.3525524212
 30
0.0
 11
12.0758704481
 21
8.3525524212
 31
0.0
  0
ARC
  5
2E4
330
1F
100
AcDbEntity
  8
0
  6
Continuous
 62
     7
370
    25
100
AcDbCircle
 10
12.3569150438
 20
6.2887039281
 30
0.0
 40
0.1000000000000005
100
AcDbArc
 50
270.0
 51
59.6567511158
  0
LINE
  5
2E5
330
1F
100
AcDbEntity
  8
0
  6
Continuous
 62
     7
370
    25
100
AcDbLine
 10
11.6186843301
 20
6.8367118924
 30
0.0
 11
12.407432964
 21
6.3750053751
 31
0.0
  0
ARC
  5
2E6
330
1F
100
AcDbEntity
  8
0
  6
Continuous
 62
     7
370
    25
100
AcDbCircle
 10
11.56816641
 20
6.7504104455
 30
0.0
 40
0.1000000000000001
100
AcDbArc
 50
59.6567511158
 51
120.3432488842
  0
LINE
  5
2E7
330
1F
100
AcDbEntity
  8
0
  6
Continuous
 62
     7
370
    25
100
AcDbLine
 10
10.728899856
 20
6.3750053751
 30
0.0
 11
11.5176484898
 21
6.8367118924
 31
0.0
  0
ARC
  5
2E8
330
1F
100
AcDbEntity
  8
0
  6
Continuous
 62
     7
370
    25
100
AcDbCircle
 10
10.7794177762
 20
6.2887039281
 30
0.0
 40
0.1000000000000005
100
AcDbArc
 50
120.3432488842
 51
270.0
  0
LINE
  5
2E9
330
1F
100
AcDbEntity
  8
0
  6
Continuous
 62
     7
370
    25
100
AcDbLine
 10
10.7794177762
 20
6.1887039281
 30
0.0
 11
12.3569150438
 21
6.1887039281
 31
0.0
  0
ARC
  5
2EA
330
1F
100
AcDbEntity
  8
0
  6
Continuous
 62
     7
370
    25
100
AcDbCircle
 10
8.4757865298
 20
6.8387039281
 30
0.0
 40
0.1000000000000006
100
AcDbArc
 50
90.0
 51
251.5650511771
  0
LINE
  5
2EB
330
1F
100
AcDbEntity
  8
0
  6
Continuous
 62
     7
370
    25
100
AcDbLine
 10
9.7802936334
 20
6.2984589716
 30
0.0
 11
8.4441637532
 21
6.7438355983
 31
0.0
  0
ARC
  5
2EC
330
1F
100
AcDbEntity
  8
0
  6
Continuous
 62
     7
370
    25
100
AcDbCircle
 10
9.81191641
 20
6.3933273014
 30
0.0
 40
0.1000000000000006
100
AcDbArc
 50
251.5650511771
 51
0.0
  0
LINE
  5
2ED
330
1F
100
AcDbEntity
  8
0
  6
Continuous
 62
     7
370
    25
100
AcDbLine
 10
9.91191641
 20
6.8387039281
 30
0.0
 11
9.91191641
 21
6.3933273014
 31
0.0
  0
ARC
  5
2EE
330
1F
100
AcDbEntity
  8
0
  6
Continuous
 62
     7
370
    25
100
AcDbCircle
 10
9.81191641
 20
6.8387039281
 30
0.0
 40
0.0999999999999996
100
AcDbArc
 50
0.0
 51
90.0
  0
LINE
  5
2EF
330
1F
100
AcDbEntity
  8
0
  6
Continuous
 62
     7
370
    25
100
AcDbLine
 10
9.81191641
 20
6.9387039281
 30
0.0
 11
8.4757865298
 21
6.9387039281
 31
0.0
  0
ARC
  5
2F0
330
1F
100
AcDbEntity
  8
0
  6
Continuous
 62
     7
370
    25
100
AcDbCircle
 10
15.7944150438
 20
6.2887039281
 30
0.0
 40
0.1000000000000005
100
AcDbArc
 50
270.0
 51
59.6567511158
  0
LINE
  5
2F1
330
1F
100
AcDbEntity
  8
0
  6
Continuous
 62
     7
370
    25
100
AcDbLine
 10
15.0561843301
 20
6.8367118924
 30
0.0
 11
15.844932964
 21
6.3750053751
 31
0.0
  0
ARC
  5
2F2
330
1F
100
AcDbEntity
  8
0
  6
Continuous
 62
     7
370
    25
100
AcDbCircle
 10
15.00566641
 20
6.7504104455
 30
0.0
 40
0.0999999999999993
100
AcDbArc
 50
59.6567511158
 51
120.3432488842
  0
LINE
  5
2F3
330
1F
100
AcDbEntity
  8
0
  6
Continuous
 62
     7
370
    25
100
AcDbLine
 10
14.166399856
 20
6.3750053751
 30
0.0
 11
14.9551484898
 21
6.8367118924
 31
0.0
  0
ARC
  5
2F4
330
1F
100
AcDbEntity
  8
0
  6
Continuous
 62
     7
370
    25
100
AcDbCircle
 10
14.2169177762
 20
6.2887039281
 30
0.0
 40
0.100000000000001
100
AcDbArc
 50
120.3432488842
 51
270.0
  0
LINE
  5
2F5
330
1F
100
AcDbEntity
  8
0
  6
Continuous
 62
     7
370
    25
100
AcDbLine
 10
14.2169177762
 20
6.1887039281
 30
0.0
 11
15.7944150438
 21
6.1887039281
 31
0.0
  0
ARC
  5
2F6
330
1F
100
AcDbEntity
  8
0
  6
Continuous
 62
     7
370
    25
100
AcDbCircle
 10
18.81191641
 20
6.2887039281
 30
0.0
 40
0.1000000000000014
100
AcDbArc
 50
270.0
 51
0.0
  0
LINE
  5
2F7
330
1F
100
AcDbEntity
  8
0
  6
Continuous
 62
     7
370
    25
100
AcDbLine
 10
18.91191641
 20
6.7340805549
 30
0.0
 11
18.91191641
 21
6.2887039281
 31
0.0
  0
ARC
  5
2F8
330
1F
100
AcDbEntity
  8
0
  6
Continuous
 62
     7
370
    25
100
AcDbCircle
 10
18.81191641
 20
6.7340805549
 30
0.0
 40
0.1000000000000014
100
AcDbArc
 50
0.0
 51
108.4349488229
  0
LINE
  5
2F9
330
1F
100
AcDbEntity
  8
0
  6
Continuous
 62
     7
370
    25
100
AcDbLine
 10
17.4441637532
 20
6.3835722579
 30
0.0
 11
18.7802936334
 21
6.8289488847
 31
0.0
  0
ARC
  5
2FA
330
1F
100
AcDbEntity
  8
0
  6
Continuous
 62
     7
370
    25
100
AcDbCircle
 10
17.4757865298
 20
6.2887039281
 30
0.0
 40
0.1000000000000005
100
AcDbArc
 50
108.4349488229
 51
270.0
  0
LINE
  5
2FB
330
1F
100
AcDbEntity
  8
0
  6
Continuous
 62
     7
370
    25
100
AcDbLine
 10
17.4757865298
 20
6.1887039281
 30
0.0
 11
18.81191641
 21
6.1887039281
 31
0.0
  0
LINE
  5
2FC
330
1F
100
AcDbEntity
  8
0
  6
Continuous
 62
     7
370
    25
100
AcDbLine
 10
19.16191641
 20
7.0637039281
 30
0.0
 11
7.41191641
 21
7.0637039281
 31
0.0
  0
LINE
  5
2FD
330
1F
100
AcDbEntity
  8
0
  6
Continuous
 62
     7
370
    25
100
AcDbLine
 10
19.16191641
 20
6.0637039281
 30
0.0
 11
19.16191641
 21
7.0637039281
 31
0.0
  0
LINE
  5
2FE
330
1F
100
AcDbEntity
  8
0
  6
Continuous
 62
     7
370
    25
100
AcDbLine
 10
7.41191641
 20
6.0637039281
 30
0.0
 11
19.16191641
 21
6.0637039281
 31
0.0
  0
LINE
  5
2FF
330
1F
100
AcDbEntity
  8
0
  6
Continuous
 62
     7
370
    25
100
AcDbLine
 10
7.41191641
 20
7.0637039281
 30
0.0
 11
7.41191641
 21
6.0637039281
 31
0.0
  0
ARC
  5
300
330
1F
100
AcDbEntity
  8
0
  6
Continuous
 62
     7
370
    25
100
AcDbCircle
 10
9.0980462902
 20
6.2887039281
 30
0.0
 40
0.1000000000000005
100
AcDbArc
 50
270.0
 51
71.5650511771
  0
LINE
  5
301
330
1F
100
AcDbEntity
  8
0
  6
Continuous
 62
     7
370
    25
100
AcDbLine
 10
9.1296690668
 20
6.3835722579
 30
0.0
 11
7.7935391866
 21
6.8289488847
 31
0.0
  0
ARC
  5
302
330
1F
100
AcDbEntity
  8
0
  6
Continuous
 62
     7
370
    25
100
AcDbCircle
 10
7.76191641
 20
6.7340805549
 30
0.0
 40
0.1
100
AcDbArc
 50
71.5650511771
 51
180.0
  0
LINE
  5
303
330
1F
100
AcDbEntity
  8
0
  6
Continuous
 62
     7
370
    25
100
AcDbLine
 10
7.66191641
 20
6.7340805549
 30
0.0
 11
7.66191641
 21
6.2887039281
 31
0.0
  0
ARC
  5
304
330
1F
100
AcDbEntity
  8
0
  6
Continuous
 62
     7
370
    25
100
AcDbCircle
 10
7.76191641
 20
6.2887039281
 30
0.0
 40
0.1000000000000005
100
AcDbArc
 50
180.0
 51
270.0
  0
LINE
  5
305
330
1F
100
AcDbEntity
  8
0
  6
Continuous
 62
     7
370
    25
100
AcDbLine
 10
7.76191641
 20
6.1887039281
 30
0.0
 11
9.0980462902
 21
6.1887039281
 31
0.0
  0
ARC
  5
306
330
1F
100
AcDbEntity
  8
0
  6
Continuous
 62
     7
370
    25
100
AcDbCircle
 10
13.82441641
 20
6.4355339961
 30
0.0
 40
0.1000000000000009
100
AcDbArc
 50
180.0
 51
300.3432488842
  0
LINE
  5
307
330
1F
100
AcDbEntity
  8
0
  6
Continuous
 62
     7
370
    25
100
AcDbLine
 10
13.8749343301
 20
6.3492325492
 30
0.0
 11
14.563682964
 21
6.7524024812
 31
0.0
  0
ARC
  5
308
330
1F
100
AcDbEntity
  8
0
  6
Continuous
 62
     7
370
    25
100
AcDbCircle
 10
14.5131650438
 20
6.8387039281
 30
0.0
 40
0.1000000000000001
100
AcDbArc
 50
300.3432488842
 51
90.0
  0
LINE
  5
309
330
1F
100
AcDbEntity
  8
0
  6
Continuous
 62
     7
370
    25
100
AcDbLine
 10
14.5131650438
 20
6.9387039281
 30
0.0
 11
13.82441641
 21
6.9387039281
 31
0.0
  0
ARC
  5
30A
330
1F
100
AcDbEntity
  8
0
  6
Continuous
 62
     7
370
    25
100
AcDbCircle
 10
13.82441641
 20
6.8387039281
 30
0.0
 40
0.0999999999999996
100
AcDbArc
 50
90.0
 51
180.0
  0
LINE
  5
30B
330
1F
100
AcDbEntity
  8
0
  6
Continuous
 62
     7
370
    25
100
AcDbLine
 10
13.72441641
 20
6.8387039281
 30
0.0
 11
13.72441641
 21
6.4355339961
 31
0.0
  0
ARC
  5
30C
330
1F
100
AcDbEntity
  8
0
  6
Continuous
 62
     7
370
    25
100
AcDbCircle
 10
15.4981677762
 20
6.8387039281
 30
0.0
 40
0.0999999999999992
100
AcDbArc
 50
90.0
 51
239.6567511158
  0
LINE
  5
30D
330
1F
100
AcDbEntity
  8
0
  6
Continuous
 62
     7
370
    25
100
AcDbLine
 10
15.447649856
 20
6.7524024812
 30
0.0
 11
16.1363984898
 21
6.3492325492
 31
0.0
  0
ARC
  5
30E
330
1F
100
AcDbEntity
  8
0
  6
Continuous
 62
     7
370
    25
100
AcDbCircle
 10
16.18691641
 20
6.4355339961
 30
0.0
 40
0.100000000000001
100
AcDbArc
 50
239.6567511158
 51
0.0
  0
LINE
  5
30F
330
1F
100
AcDbEntity
  8
0
  6
Continuous
 62
     7
370
    25
100
AcDbLine
 10
16.28691641
 20
6.8387039281
 30
0.0
 11
16.28691641
 21
6.4355339961
 31
0.0
  0
ARC
  5
310
330
1F
100
AcDbEntity
  8
0
  6
Continuous
 62
     7
370
    25
100
AcDbCircle
 10
16.18691641
 20
6.8387039281
 30
0.0
 40
0.0999999999999988
100
AcDbArc
 50
0.0
 51
90.0
  0
LINE
  5
311
330
1F
100
AcDbEntity
  8
0
  6
Continuous
 62
     7
370
    25
100
AcDbLine
 10
16.18691641
 20
6.9387039281
 30
0.0
 11
15.4981677762
 21
6.9387039281
 31
0.0
  0
ARC
  5
312
330
1F
100
AcDbEntity
  8
0
  6
Continuous
 62
     7
370
    25
100
AcDbCircle
 10
16.76191641
 20
6.3933273014
 30
0.0
 40
0.1000000000000014
100
AcDbArc
 50
180.0
 51
288.4349488229
  0
LINE
  5
313
330
1F
100
AcDbEntity
  8
0
  6
Continuous
 62
     7
370
    25
100
AcDbLine
 10
16.7935391866
 20
6.2984589716
 30
0.0
 11
18.1296690668
 21
6.7438355983
 31
0.0
  0
ARC
  5
314
330
1F
100
AcDbEntity
  8
0
  6
Continuous
 62
     7
370
    25
100
AcDbCircle
 10
18.0980462902
 20
6.8387039281
 30
0.0
 40
0.1
100
AcDbArc
 50
288.4349488229
 51
90.0
  0
LINE
  5
315
330
1F
100
AcDbEntity
  8
0
  6
Continuous
 62
     7
370
    25
100
AcDbLine
 10
18.0980462902
 20
6.9387039281
 30
0.0
 11
16.76191641
 21
6.9387039281
 31
0.0
  0
ARC
  5
316
330
1F
100
AcDbEntity
  8
0
  6
Continuous
 62
     7
370
    25
100
AcDbCircle
 10
16.76191641
 20
6.8387039281
 30
0.0
 40
0.1000000000000014
100
AcDbArc
 50
90.0
 51
180.0
  0
LINE
  5
317
330
1F
100
AcDbEntity
  8
0
  6
Continuous
 62
     7
370
    25
100
AcDbLine
 10
16.66191641
 20
6.8387039281
 30
0.0
 11
16.66191641
 21
6.3933273014
 31
0.0
  0
ARC
  5
318
330
1F
100
AcDbEntity
  8
0
  6
Continuous
 62
     7
370
    25
100
AcDbCircle
 10
10.38691641
 20
6.4355339961
 30
0.0
 40
0.1000000000000001
100
AcDbArc
 50
180.0
 51
300.3432488842
  0
LINE
  5
319
330
1F
100
AcDbEntity
  8
0
  6
Continuous
 62
     7
370
    25
100
AcDbLine
 10
10.4374343301
 20
6.3492325492
 30
0.0
 11
11.126182964
 21
6.7524024812
 31
0.0
  0
ARC
  5
31A
330
1F
100
AcDbEntity
  8
0
  6
Continuous
 62
     7
370
    25
100
AcDbCircle
 10
11.0756650438
 20
6.8387039281
 30
0.0
 40
0.1
100
AcDbArc
 50
300.3432488842
 51
90.0
  0
LINE
  5
31B
330
1F
100
AcDbEntity
  8
0
  6
Continuous
 62
     7
370
    25
100
AcDbLine
 10
11.0756650438
 20
6.9387039281
 30
0.0
 11
10.38691641
 21
6.9387039281
 31
0.0
  0
ARC
  5
31C
330
1F
100
AcDbEntity
  8
0
  6
Continuous
 62
     7
370
    25
100
AcDbCircle
 10
10.38691641
 20
6.8387039281
 30
0.0
 40
0.0999999999999996
100
AcDbArc
 50
90.0
 51
180.0
  0
LINE
  5
31D
330
1F
100
AcDbEntity
  8
0
  6
Continuous
 62
     7
370
    25
100
AcDbLine
 10
10.28691641
 20
6.8387039281
 30
0.0
 11
10.28691641
 21
6.4355339961
 31
0.0
  0
ARC
  5
31E
330
1F
100
AcDbEntity
  8
0
  6
Continuous
 62
     7
370
    25
100
AcDbCircle
 10
12.0606677762
 20
6.8387039281
 30
0.0
 40
0.1000000000000001
100
AcDbArc
 50
90.0
 51
239.6567511158
  0
LINE
  5
31F
330
1F
100
AcDbEntity
  8
0
  6
Continuous
 62
     7
370
    25
100
AcDbLine
 10
12.010149856
 20
6.7524024812
 30
0.0
 11
12.6988984898
 21
6.3492325492
 31
0.0
  0
ARC
  5
320
330
1F
100
AcDbEntity
  8
0
  6
Continuous
 62
     7
370
    25
100
AcDbCircle
 10
12.74941641
 20
6.4355339961
 30
0.0
 40
0.0999999999999996
100
AcDbArc
 50
239.6567511158
 51
0.0
  0
LINE
  5
321
330
1F
100
AcDbEntity
  8
0
  6
Continuous
 62
     7
370
    25
100
AcDbLine
 10
12.84941641
 20
6.8387039281
 30
0.0
 11
12.84941641
 21
6.4355339961
 31
0.0
  0
ARC
  5
322
330
1F
100
AcDbEntity
  8
0
  6
Continuous
 62
     7
370
    25
100
AcDbCircle
 10
12.74941641
 20
6.8387039281
 30
0.0
 40
0.0999999999999996
100
AcDbArc
 50
0.0
 51
90.0
  0
LINE
  5
323
330
1F
100
AcDbEntity
  8
0
  6
Continuous
 62
     7
370
    25
100
AcDbLine
 10
12.74941641
 20
6.9387039281
 30
0.0
 11
12.0606677762
 21
6.9387039281
 31
0.0
  0
ARC
  5
324
330
1F
100
AcDbEntity
  8
0
  6
Continuous
 62
     7
370
    25
100
AcDbCircle
 10
12.5089417635
 20
9.0859955703
 30
0.0
 40
0.1000000000000014
100
AcDbArc
 50
270.0
 51
59.6567511158
  0
LINE
  5
325
330
1F
100
AcDbEntity
  8
0
  6
Continuous
 62
     7
370
    25
100
AcDbLine
 10
11.7707110498
 20
9.6340035346
 30
0.0
 11
12.5594596837
 21
9.1722970172
 31
0.0
  0
ARC
  5
326
330
1F
100
AcDbEntity
  8
0
  6
Continuous
 62
     7
370
    25
100
AcDbCircle
 10
11.7201931297
 20
9.5477020877
 30
0.0
 40
0.1000000000000018
100
AcDbArc
 50
59.6567511158
 51
120.3432488842
  0
LINE
  5
327
330
1F
100
AcDbEntity
  8
0
  6
Continuous
 62
     7
370
    25
100
AcDbLine
 10
10.8809265757
 20
9.1722970172
 30
0.0
 11
11.6696752095
 21
9.6340035346
 31
0.0
  0
ARC
  5
328
330
1F
100
AcDbEntity
  8
0
  6
Continuous
 62
     7
370
    25
100
AcDbCircle
 10
10.9314444958
 20
9.0859955703
 30
0.0
 40
0.1000000000000014
100
AcDbArc
 50
120.3432488842
 51
270.0
  0
LINE
  5
329
330
1F
100
AcDbEntity
  8
0
  6
Continuous
 62
     7
370
    25
100
AcDbLine
 10
10.9314444958
 20
8.9859955703
 30
0.0
 11
12.5089417635
 21
8.9859955703
 31
0.0
  0
ARC
  5
32A
330
1F
100
AcDbEntity
  8
0
  6
Continuous
 62
     7
370
    25
100
AcDbCircle
 10
8.6278132495
 20
9.6359955703
 30
0.0
 40
0.0999999999999997
100
AcDbArc
 50
90.0
 51
251.5650511771
  0
LINE
  5
32B
330
1F
100
AcDbEntity
  8
0
  6
Continuous
 62
     7
370
    25
100
AcDbLine
 10
9.9323203531
 20
9.0957506137
 30
0.0
 11
8.5961904728
 21
9.5411272405
 31
0.0
  0
ARC
  5
32C
330
1F
100
AcDbEntity
  8
0
  6
Continuous
 62
     7
370
    25
100
AcDbCircle
 10
9.9639431297
 20
9.1906189436
 30
0.0
 40
0.0999999999999997
100
AcDbArc
 50
251.5650511771
 51
0.0
  0
LINE
  5
32D
330
1F
100
AcDbEntity
  8
0
  6
Continuous
 62
     7
370
    25
100
AcDbLine
 10
10.0639431297
 20
9.6359955703
 30
0.0
 11
10.0639431297
 21
9.1906189436
 31
0.0
  0
ARC
  5
32E
330
1F
100
AcDbEntity
  8
0
  6
Continuous
 62
     7
370
    25
100
AcDbCircle
 10
9.9639431297
 20
9.6359955703
 30
0.0
 40
0.0999999999999996
100
AcDbArc
 50
0.0
 51
90.0
  0
LINE
  5
32F
330
1F
100
AcDbEntity
  8
0
  6
Continuous
 62
     7
370
    25
100
AcDbLine
 10
9.9639431297
 20
9.7359955703
 30
0.0
 11
8.6278132495
 21
9.7359955703
 31
0.0
  0
ARC
  5
330
330
1F
100
AcDbEntity
  8
0
  6
Continuous
 62
     7
370
    25
100
AcDbCircle
 10
15.9464417635
 20
9.0859955703
 30
0.0
 40
0.1000000000000014
100
AcDbArc
 50
270.0
 51
59.6567511158
  0
LINE
  5
331
330
1F
100
AcDbEntity
  8
0
  6
Continuous
 62
     7
370
    25
100
AcDbLine
 10
15.2082110498
 20
9.6340035346
 30
0.0
 11
15.9969596837
 21
9.1722970172
 31
0.0
  0
ARC
  5
332
330
1F
100
AcDbEntity
  8
0
  6
Continuous
 62
     7
370
    25
100
AcDbCircle
 10
15.1576931297
 20
9.5477020877
 30
0.0
 40
0.1000000000000002
100
AcDbArc
 50
59.6567511158
 51
120.3432488842
  0
LINE
  5
333
330
1F
100
AcDbEntity
  8
0
  6
Continuous
 62
     7
370
    25
100
AcDbLine
 10
14.3184265757
 20
9.1722970172
 30
0.0
 11
15.1071752095
 21
9.6340035346
 31
0.0
  0
ARC
  5
334
330
1F
100
AcDbEntity
  8
0
  6
Continuous
 62
     7
370
    25
100
AcDbCircle
 10
14.3689444958
 20
9.0859955703
 30
0.0
 40
0.1000000000000014
100
AcDbArc
 50
120.3432488842
 51
270.0
  0
LINE
  5
335
330
1F
100
AcDbEntity
  8
0
  6
Continuous
 62
     7
370
    25
100
AcDbLine
 10
14.3689444958
 20
8.9859955703
 30
0.0
 11
15.9464417635
 21
8.9859955703
 31
0.0
  0
ARC
  5
336
330
1F
100
AcDbEntity
  8
0
  6
Continuous
 62
     7
370
    25
100
AcDbCircle
 10
18.9639431297
 20
9.0859955703
 30
0.0
 40
0.1000000000000014
100
AcDbArc
 50
270.0
 51
0.0
  0
LINE
  5
337
330
1F
100
AcDbEntity
  8
0
  6
Continuous
 62
     7
370
    25
100
AcDbLine
 10
19.0639431297
 20
9.531372197
 30
0.0
 11
19.0639431297
 21
9.0859955703
 31
0.0
  0
ARC
  5
338
330
1F
100
AcDbEntity
  8
0
  6
Continuous
 62
     7
370
    25
100
AcDbCircle
 10
18.9639431297
 20
9.531372197
 30
0.0
 40
0.1000000000000009
100
AcDbArc
 50
0.0
 51
108.4349488229
  0
LINE
  5
339
330
1F
100
AcDbEntity
  8
0
  6
Continuous
 62
     7
370
    25
100
AcDbLine
 10
17.5961904728
 20
9.1808639001
 30
0.0
 11
18.9323203531
 21
9.6262405268
 31
0.0
  0
ARC
  5
33A
330
1F
100
AcDbEntity
  8
0
  6
Continuous
 62
     7
370
    25
100
AcDbCircle
 10
17.6278132495
 20
9.0859955703
 30
0.0
 40
0.1000000000000014
100
AcDbArc
 50
108.4349488229
 51
270.0
  0
LINE
  5
33B
330
1F
100
AcDbEntity
  8
0
  6
Continuous
 62
     7
370
    25
100
AcDbLine
 10
17.6278132495
 20
8.9859955703
 30
0.0
 11
18.9639431297
 21
8.9859955703
 31
0.0
  0
LINE
  5
33C
330
1F
100
AcDbEntity
  8
0
  6
Continuous
 62
     7
370
    25
100
AcDbLine
 10
19.3139431297
 20
9.8609955703
 30
0.0
 11
7.5639431297
 21
9.8609955703
 31
0.0
  0
LINE
  5
33D
330
1F
100
AcDbEntity
  8
0
  6
Continuous
 62
     7
370
    25
100
AcDbLine
 10
19.3139431297
 20
8.8609955703
 30
0.0
 11
19.3139431297
 21
9.8609955703
 31
0.0
  0
LINE
  5
33E
330
1F
100
AcDbEntity
  8
0
  6
Continuous
 62
     7
370
    25
100
AcDbLine
 10
7.5639431297
 20
8.8609955703
 30
0.0
 11
19.3139431297
 21
8.8609955703
 31
0.0
  0
LINE
  5
33F
330
1F
100
AcDbEntity
  8
0
  6
Continuous
 62
     7
370
    25
100
AcDbLine
 10
7.5639431297
 20
9.8609955703
 30
0.0
 11
7.5639431297
 21
8.8609955703
 31
0.0
  0
ARC
  5
340
330
1F
100
AcDbEntity
  8
0
  6
Continuous
 62
     7
370
    25
100
AcDbCircle
 10
9.2500730099
 20
9.0859955703
 30
0.0
 40
0.1000000000000014
100
AcDbArc
 50
270.0
 51
71.5650511771
  0
LINE
  5
341
330
1F
100
AcDbEntity
  8
0
  6
Continuous
 62
     7
370
    25
100
AcDbLine
 10
9.2816957865
 20
9.1808639001
 30
0.0
 11
7.9455659063
 21
9.6262405268
 31
0.0
  0
ARC
  5
342
330
1F
100
AcDbEntity
  8
0
  6
Continuous
 62
     7
370
    25
100
AcDbCircle
 10
7.9139431297
 20
9.531372197
 30
0.0
 40
0.0999999999999996
100
AcDbArc
 50
71.5650511771
 51
180.0
  0
LINE
  5
343
330
1F
100
AcDbEntity
  8
0
  6
Continuous
 62
     7
370
    25
100
AcDbLine
 10
7.8139431297
 20
9.531372197
 30
0.0
 11
7.8139431297
 21
9.0859955703
 31
0.0
  0
ARC
  5
344
330
1F
100
AcDbEntity
  8
0
  6
Continuous
 62
     7
370
    25
100
AcDbCircle
 10
7.9139431297
 20
9.0859955703
 30
0.0
 40
0.1000000000000014
100
AcDbArc
 50
180.0
 51
270.0
  0
LINE
  5
345
330
1F
100
AcDbEntity
  8
0
  6
Continuous
 62
     7
370
    25
100
AcDbLine
 10
7.9139431297
 20
8.9859955703
 30
0.0
 11
9.2500730099
 21
8.9859955703
 31
0.0
  0
ARC
  5
346
330
1F
100
AcDbEntity
  8
0
  6
Continuous
 62
     7
370
    25
100
AcDbCircle
 10
13.9764431297
 20
9.2328256383
 30
0.0
 40
0.1
100
AcDbArc
 50
180.0
 51
300.3432488842
  0
LINE
  5
347
330
1F
100
AcDbEntity
  8
0
  6
Continuous
 62
     7
370
    25
100
AcDbLine
 10
14.0269610498
 20
9.1465241914
 30
0.0
 11
14.7157096837
 21
9.5496941234
 31
0.0
  0
ARC
  5
348
330
1F
100
AcDbEntity
  8
0
  6
Continuous
 62
     7
370
    25
100
AcDbCircle
 10
14.6651917635
 20
9.6359955703
 30
0.0
 40
0.0999999999999996
100
AcDbArc
 50
300.3432488842
 51
90.0
  0
LINE
  5
349
330
1F
100
AcDbEntity
  8
0
  6
Continuous
 62
     7
370
    25
100
AcDbLine
 10
14.6651917635
 20
9.7359955703
 30
0.0
 11
13.9764431297
 21
9.7359955703
 31
0.0
  0
ARC
  5
34A
330
1F
100
AcDbEntity
  8
0
  6
Continuous
 62
     7
370
    25
100
AcDbCircle
 10
13.9764431297
 20
9.6359955703
 30
0.0
 40
0.0999999999999996
100
AcDbArc
 50
90.0
 51
180.0
  0
LINE
  5
34B
330
1F
100
AcDbEntity
  8
0
  6
Continuous
 62
     7
370
    25
100
AcDbLine
 10
13.8764431297
 20
9.6359955703
 30
0.0
 11
13.8764431297
 21
9.2328256383
 31
0.0
  0
ARC
  5
34C
330
1F
100
AcDbEntity
  8
0
  6
Continuous
 62
     7
370
    25
100
AcDbCircle
 10
15.6501944958
 20
9.6359955703
 30
0.0
 40
0.1000000000000002
100
AcDbArc
 50
90.0
 51
239.6567511158
  0
LINE
  5
34D
330
1F
100
AcDbEntity
  8
0
  6
Continuous
 62
     7
370
    25
100
AcDbLine
 10
15.5996765757
 20
9.5496941234
 30
0.0
 11
16.2884252095
 21
9.1465241914
 31
0.0
  0
ARC
  5
34E
330
1F
100
AcDbEntity
  8
0
  6
Continuous
 62
     7
370
    25
100
AcDbCircle
 10
16.3389431297
 20
9.2328256383
 30
0.0
 40
0.1000000000000014
100
AcDbArc
 50
239.6567511158
 51
0.0
  0
LINE
  5
34F
330
1F
100
AcDbEntity
  8
0
  6
Continuous
 62
     7
370
    25
100
AcDbLine
 10
16.4389431297
 20
9.6359955703
 30
0.0
 11
16.4389431297
 21
9.2328256383
 31
0.0
  0
ARC
  5
350
330
1F
100
AcDbEntity
  8
0
  6
Continuous
 62
     7
370
    25
100
AcDbCircle
 10
16.3389431297
 20
9.6359955703
 30
0.0
 40
0.1000000000000014
100
AcDbArc
 50
0.0
 51
90.0
  0
LINE
  5
351
330
1F
100
AcDbEntity
  8
0
  6
Continuous
 62
     7
370
    25
100
AcDbLine
 10
16.3389431297
 20
9.7359955703
 30
0.0
 11
15.6501944958
 21
9.7359955703
 31
0.0
  0
ARC
  5
352
330
1F
100
AcDbEntity
  8
0
  6
Continuous
 62
     7
370
    25
100
AcDbCircle
 10
16.9139431297
 20
9.1906189436
 30
0.0
 40
0.1000000000000014
100
AcDbArc
 50
180.0
 51
288.4349488229
  0
LINE
  5
353
330
1F
100
AcDbEntity
  8
0
  6
Continuous
 62
     7
370
    25
100
AcDbLine
 10
16.9455659063
 20
9.0957506137
 30
0.0
 11
18.2816957865
 21
9.5411272405
 31
0.0
  0
ARC
  5
354
330
1F
100
AcDbEntity
  8
0
  6
Continuous
 62
     7
370
    25
100
AcDbCircle
 10
18.2500730099
 20
9.6359955703
 30
0.0
 40
0.1000000000000003
100
AcDbArc
 50
288.4349488229
 51
90.0
  0
LINE
  5
355
330
1F
100
AcDbEntity
  8
0
  6
Continuous
 62
     7
370
    25
100
AcDbLine
 10
18.2500730099
 20
9.7359955703
 30
0.0
 11
16.9139431297
 21
9.7359955703
 31
0.0
  0
ARC
  5
356
330
1F
100
AcDbEntity
  8
0
  6
Continuous
 62
     7
370
    25
100
AcDbCircle
 10
16.9139431297
 20
9.6359955703
 30
0.0
 40
0.0999999999999996
100
AcDbArc
 50
90.0
 51
180.0
  0
LINE
  5
357
330
1F
100
AcDbEntity
  8
0
  6
Continuous
 62
     7
370
    25
100
AcDbLine
 10
16.8139431297
 20
9.6359955703
 30
0.0
 11
16.8139431297
 21
9.1906189436
 31
0.0
  0
ARC
  5
358
330
1F
100
AcDbEntity
  8
0
  6
Continuous
 62
     7
370
    25
100
AcDbCircle
 10
10.5389431297
 20
9.2328256383
 30
0.0
 40
0.1000000000000014
100
AcDbArc
 50
180.0
 51
300.3432488842
  0
LINE
  5
359
330
1F
100
AcDbEntity
  8
0
  6
Continuous
 62
     7
370
    25
100
AcDbLine
 10
10.5894610498
 20
9.1465241914
 30
0.0
 11
11.2782096837
 21
9.5496941234
 31
0.0
  0
ARC
  5
35A
330
1F
100
AcDbEntity
  8
0
  6
Continuous
 62
     7
370
    25
100
AcDbCircle
 10
11.2276917635
 20
9.6359955703
 30
0.0
 40
0.1000000000000009
100
AcDbArc
 50
300.3432488842
 51
90.0
  0
LINE
  5
35B
330
1F
100
AcDbEntity
  8
0
  6
Continuous
 62
     7
370
    25
100
AcDbLine
 10
11.2276917635
 20
9.7359955703
 30
0.0
 11
10.5389431297
 21
9.7359955703
 31
0.0
  0
ARC
  5
35C
330
1F
100
AcDbEntity
  8
0
  6
Continuous
 62
     7
370
    25
100
AcDbCircle
 10
10.5389431297
 20
9.6359955703
 30
0.0
 40
0.0999999999999996
100
AcDbArc
 50
90.0
 51
180.0
  0
LINE
  5
35D
330
1F
100
AcDbEntity
  8
0
  6
Continuous
 62
     7
370
    25
100
AcDbLine
 10
10.4389431297
 20
9.6359955703
 30
0.0
 11
10.4389431297
 21
9.2328256383
 31
0.0
  0
ARC
  5
35E
330
1F
100
AcDbEntity
  8
0
  6
Continuous
 62
     7
370
    25
100
AcDbCircle
 10
12.2126944958
 20
9.6359955703
 30
0.0
 40
0.0999999999999996
100
AcDbArc
 50
90.0
 51
239.6567511158
  0
LINE
  5
35F
330
1F
100
AcDbEntity
  8
0
  6
Continuous
 62
     7
370
    25
100
AcDbLine
 10
12.1621765757
 20
9.5496941234
 30
0.0
 11
12.8509252095
 21
9.1465241914
 31
0.0
  0
ARC
  5
360
330
1F
100
AcDbEntity
  8
0
  6
Continuous
 62
     7
370
    25
100
AcDbCircle
 10
12.9014431297
 20
9.2328256383
 30
0.0
 40
0.1000000000000014
100
AcDbArc
 50
239.6567511158
 51
0.0
  0
LINE
  5
361
330
1F
100
AcDbEntity
  8
0
  6
Continuous
 62
     7
370
    25
100
AcDbLine
 10
13.0014431297
 20
9.6359955703
 30
0.0
 11
13.0014431297
 21
9.2328256383
 31
0.0
  0
ARC
  5
362
330
1F
100
AcDbEntity
  8
0
  6
Continuous
 62
     7
370
    25
100
AcDbCircle
 10
12.9014431297
 20
9.6359955703
 30
0.0
 40
0.1000000000000014
100
AcDbArc
 50
0.0
 51
90.0
  0
LINE
  5
363
330
1F
100
AcDbEntity
  8
0
  6
Continuous
 62
     7
370
    25
100
AcDbLine
 10
12.9014431297
 20
9.7359955703
 30
0.0
 11
12.2126944958
 21
9.7359955703
 31
0.0
  0
MTEXT
  5
365
330
1F
100
AcDbEntity
  8
0
  6
Continuous
 62
     7
100
AcDbMText
 10
0.0
 20
0.5790104628
 30
0.0
 40
0.2076
 41
0.0
 71
     1
 72
     1
  1
SOLIDWORKS Educational Product.
  7
SLDTEXTSTYLE0
 73
     1
 44
1.0
  0
MTEXT
  5
366
330
1F
100
AcDbEntity
  8
0
  6
Continuous
 62
     7
100
AcDbMText
 10
0.0
 20
0.2676104628
 30
0.0
 40
0.2076
 41
0.0
 71
     1
 72
     1
  1
For Instructional Use Only.
  7
SLDTEXTSTYLE0
 73
     1
 44
1.0
  0
ENDSEC
  0
SECTION
  2
OBJECTS
  0
DICTIONARY
  5
C
330
0
100
AcDbDictionary
281
     1
  3
ACAD_GROUP
350
D
  3
ACAD_LAYOUT
350
1A
  3
ACAD_MLINESTYLE
350
17
  3
ACAD_PLOTSETTINGS
350
19
  3
ACAD_PLOTSTYLENAME
350
E
  3
ACAD_SCALELIST
350
47
  3
DWGPROPS
350
367
  0
DICTIONARY
  5
D
102
{ACAD_REACTORS
330
C
102
}
330
C
100
AcDbDictionary
281
     1
  0
DICTIONARY
  5
1A
102
{ACAD_REACTORS
330
C
102
}
330
C
100
AcDbDictionary
281
     1
  3
Layout1
350
1E
  3
Layout2
350
26
  3
Model
350
22
  0
DICTIONARY
  5
17
102
{ACAD_REACTORS
330
C
102
}
330
C
100
AcDbDictionary
281
     1
  3
Standard
350
18
  0
DICTIONARY
  5
19
102
{ACAD_REACTORS
330
C
102
}
330
C
100
AcDbDictionary
281
     1
  0
ACDBDICTIONARYWDFLT
  5
E
102
{ACAD_REACTORS
330
C
102
}
330
C
100
AcDbDictionary
281
     1
  3
Normal
350
F
100
AcDbDictionaryWithDefault
340
F
  0
DICTIONARY
  5
47
102
{ACAD_REACTORS
330
C
102
}
330
C
100
AcDbDictionary
281
     1
  3
A0
350
48
  3
A1
350
49
  3
A2
350
4A
  3
A3
350
4B
  3
A4
350
4C
  3
A5
350
4D
  3
A6
350
4E
  3
A7
350
4F
  3
A8
350
50
  3
A9
350
51
  3
B1
350
52
  3
B2
350
53
  3
B3
350
54
  3
B4
350
55
  3
B5
350
56
  3
B6
350
57
  3
B7
350
58
  0
XRECORD
  5
367
102
{ACAD_REACTORS
330
C
102
}
330
C
100
AcDbXrecord
280
     1
  1
DWGPROPS COOKIE
  2

  3

  4

  6

  7

  8
ucmai
  9

300
=
301
=
302
=
303
=
304
=
305
=
306
=
307
=
308
=
309
=
 40
0.0
 41
2461142.838828426
 42
2461142.838829179
  1

 90
        0
  0
LAYOUT
  5
1E
102
{ACAD_REACTORS
330
1A
102
}
330
1A
100
AcDbPlotSettings
  1

  2
none_device
  4

  6

 40
0.0
 41
0.0
 42
0.0
 43
0.0
 44
0.0
 45
0.0
 46
0.0
 47
0.0
 48
0.0
 49
0.0
140
0.0
141
0.0
142
1.0
143
1.0
 70
   688
 72
     0
 73
     0
 74
     5
  7

 75
    16
147
1.0
148
0.0
149
0.0
100
AcDbLayout
  1
Layout1
 70
     1
 71
     1
 10
0.0
 20
0.0
 11
12.0
 21
9.0
 12
0.0
 22
0.0
 32
0.0
 14
1.0000000000E+20
 24
1.0000000000E+20
 34
1.0000000000E+20
 15
-1.0000000000E+20
 25
-1.0000000000E+20
 35
-1.0000000000E+20
146
0.0
 13
0.0
 23
0.0
 33
0.0
 16
1.0
 26
0.0
 36
0.0
 17
0.0
 27
1.0
 37
0.0
 76
     0
330
1B
  0
LAYOUT
  5
26
102
{ACAD_REACTORS
330
1A
102
}
330
1A
100
AcDbPlotSettings
  1

  2
none_device
  4

  6

 40
0.0
 41
0.0
 42
0.0
 43
0.0
 44
0.0
 45
0.0
 46
0.0
 47
0.0
 48
0.0
 49
0.0
140
0.0
141
0.0
142
1.0
143
1.0
 70
   688
 72
     0
 73
     0
 74
     5
  7

 75
    16
147
1.0
148
0.0
149
0.0
100
AcDbLayout
  1
Layout2
 70
     1
 71
     2
 10
0.0
 20
0.0
 11
0.0
 21
0.0
 12
0.0
 22
0.0
 32
0.0
 14
0.0
 24
0.0
 34
0.0
 15
0.0
 25
0.0
 35
0.0
146
0.0
 13
0.0
 23
0.0
 33
0.0
 16
1.0
 26
0.0
 36
0.0
 17
0.0
 27
1.0
 37
0.0
 76
     0
330
23
  0
LAYOUT
  5
22
102
{ACAD_REACTORS
330
1A
102
}
330
1A
100
AcDbPlotSettings
  1

  2
none_device
  4
Letter_(8.50_x_11.00_Inches)
  6

 40
6.35
 41
6.35
 42
6.35000508
 43
6.35000508
 44
215.9
 45
279.4
 46
0.0
 47
0.0
 48
0.0
 49
0.0
140
0.0
141
0.0
142
1.0
143
1.0
 70
  1712
 72
     0
 73
     0
 74
     0
  7

 75
     0
147
1.0
148
0.0
149
0.0
100
AcDbLayout
  1
Model
 70
     1
 71
     0
 10
0.0
 20
0.0
 11
24.0
 21
12.0
 12
0.0
 22
0.0
 32
0.0
 14
0.0
 24
0.0
 34
0.0
 15
24.0
 25
12.0
 35
0.0
146
0.0
 13
0.0
 23
0.0
 33
0.0
 16
1.0
 26
0.0
 36
0.0
 17
0.0
 27
1.0
 37
0.0
 76
     0
330
1F
331
29
  0
MLINESTYLE
  5
18
102
{ACAD_REACTORS
330
17
102
}
330
17
100
AcDbMlineStyle
  2
Standard
 70
     0
  3

 62
   256
 51
90.0
 52
90.0
 71
     2
 49
0.5
 62
   256
  6
BYLAYER
 49
-0.5
 62
   256
  6
BYLAYER
  0
ACDBPLACEHOLDER
  5
F
102
{ACAD_REACTORS
330
E
102
}
330
E
  0
SCALE
  5
48
102
{ACAD_REACTORS
330
47
102
}
330
47
100
AcDbScale
 70
     0
300
1:1
140
1.0
141
1.0
290
     1
  0
SCALE
  5
49
102
{ACAD_REACTORS
330
47
102
}
330
47
100
AcDbScale
 70
     0
300
1/128" = 1'-0"
140
0.0078125
141
12.0
290
     0
  0
SCALE
  5
4A
102
{ACAD_REACTORS
330
47
102
}
330
47
100
AcDbScale
 70
     0
300
1/64" = 1'-0"
140
0.015625
141
12.0
290
     0
  0
SCALE
  5
4B
102
{ACAD_REACTORS
330
47
102
}
330
47
100
AcDbScale
 70
     0
300
1/32" = 1'-0"
140
0.03125
141
12.0
290
     0
  0
SCALE
  5
4C
102
{ACAD_REACTORS
330
47
102
}
330
47
100
AcDbScale
 70
     0
300
1/16" = 1'-0"
140
0.0625
141
12.0
290
     0
  0
SCALE
  5
4D
102
{ACAD_REACTORS
330
47
102
}
330
47
100
AcDbScale
 70
     0
300
3/32" = 1'-0"
140
0.09375
141
12.0
290
     0
  0
SCALE
  5
4E
102
{ACAD_REACTORS
330
47
102
}
330
47
100
AcDbScale
 70
     0
300
1/8" = 1'-0"
140
0.125
141
12.0
290
     0
  0
SCALE
  5
4F
102
{ACAD_REACTORS
330
47
102
}
330
47
100
AcDbScale
 70
     0
300
3/16" = 1'-0"
140
0.1875
141
12.0
290
     0
  0
SCALE
  5
50
102
{ACAD_REACTORS
330
47
102
}
330
47
100
AcDbScale
 70
     0
300
1/4" = 1'-0"
140
0.25
141
12.0
290
     0
  0
SCALE
  5
51
102
{ACAD_REACTORS
330
47
102
}
330
47
100
AcDbScale
 70
     0
300
3/8" = 1'-0"
140
0.375
141
12.0
290
     0
  0
SCALE
  5
52
102
{ACAD_REACTORS
330
47
102
}
330
47
100
AcDbScale
 70
     0
300
1/2" = 1'-0"
140
0.5
141
12.0
290
     0
  0
SCALE
  5
53
102
{ACAD_REACTORS
330
47
102
}
330
47
100
AcDbScale
 70
     0
300
3/4" = 1'-0"
140
0.75
141
12.0
290
     0
  0
SCALE
  5
54
102
{ACAD_REACTORS
330
47
102
}
330
47
100
AcDbScale
 70
     0
300
1" = 1'-0"
140
1.0
141
12.0
290
     0
  0
SCALE
  5
55
102
{ACAD_REACTORS
330
47
102
}
330
47
100
AcDbScale
 70
     0
300
1-1/2" = 1'-0"
140
1.5
141
12.0
290
     0
  0
SCALE
  5
56
102
{ACAD_REACTORS
330
47
102
}
330
47
100
AcDbScale
 70
     0
300
3" = 1'-0"
140
3.0
141
12.0
290
     0
  0
SCALE
  5
57
102
{ACAD_REACTORS
330
47
102
}
330
47
100
AcDbScale
 70
     0
300
6" = 1'-0"
140
6.0
141
12.0
290
     0
  0
SCALE
  5
58
102
{ACAD_REACTORS
330
47
102
}
330
47
100
AcDbScale
 70
     0
300
1'-0" = 1'-0"
140
12.0
141
12.0
290
     0
  0
ENDSEC
  0
EOF
