  0
SECTION
  2
HEADER
  9
$ACADVER
  1
AC1015
  9
$ACADMAINTVER
 70
     6
  9
$DWGCODEPAGE
  3
ANSI_1252
  9
$INSBASE
 10
0.0
 20
0.0
 30
0.0
  9
$EXTMIN
 10
0.0
 20
0.0
 30
0.0
  9
$EXTMAX
 10
24.0
 20
12.0
 30
0.0
  9
$LIMMIN
 10
0.0
 20
0.0
  9
$LIMMAX
 10
24.0
 20
12.0
  9
$ORTHOMODE
 70
     0
  9
$REGENMODE
 70
     1
  9
$FILLMODE
 70
     1
  9
$QTEXTMODE
 70
     0
  9
$MIRRTEXT
 70
     1
  9
$LTSCALE
 40
1.0
  9
$ATTMODE
 70
     1
  9
$TEXTSIZE
 40
0.125
  9
$TRACEWID
 40
0.05
  9
$TEXTSTYLE
  7
Standard
  9
$CLAYER
  8
0
  9
$CELTYPE
  6
ByLayer
  9
$CECOLOR
 62
   256
  9
$CELTSCALE
 40
1.0
  9
$DISPSILH
 70
     0
  9
$DIMSCALE
 40
1.0
  9
$DIMASZ
 40
0.13
  9
$DIMEXO
 40
0.05
  9
$DIMDLI
 40
0.38
  9
$DIMRND
 40
0.0
  9
$DIMDLE
 40
0.0
  9
$DIMEXE
 40
0.125
  9
$DIMTP
 40
0.0
  9
$DIMTM
 40
0.0
  9
$DIMTXT
 40
0.125
  9
$DIMCEN
 40
0.09
  9
$DIMTSZ
 40
0.0
  9
$DIMTOL
 70
     0
  9
$DIMLIM
 70
     0
  9
$DIMTIH
 70
     1
  9
$DIMTOH
 70
     1
  9
$DIMSE1
 70
     0
  9
$DIMSE2
 70
     0
  9
$DIMTAD
 70
     0
  9
$DIMZIN
 70
     1
  9
$DIMBLK
  1

  9
$DIMASO
 70
     1
  9
$DIMSHO
 70
     1
  9
$DIMPOST
  1

  9
$DIMAPOST
  1

  9
$DIMALT
 70
     0
  9
$DIMALTD
 70
     2
  9
$DIMALTF
 40
25.4
  9
$DIMLFAC
 40
1.0
  9
$DIMTOFL
 70
     0
  9
$DIMTVP
 40
0.0
  9
$DIMTIX
 70
     0
  9
$DIMSOXD
 70
     0
  9
$DIMSAH
 70
     0
  9
$DIMBLK1
  1

  9
$DIMBLK2
  1

  9
$DIMSTYLE
  2
Standard
  9
$DIMCLRD
 70
     0
  9
$DIMCLRE
 70
     0
  9
$DIMCLRT
 70
     0
  9
$DIMTFAC
 40
1.0
  9
$DIMGAP
 40
0.06
  9
$DIMJUST
 70
     0
  9
$DIMSD1
 70
     0
  9
$DIMSD2
 70
     0
  9
$DIMTOLJ
 70
     1
  9
$DIMTZIN
 70
     1
  9
$DIMALTZ
 70
     0
  9
$DIMALTTZ
 70
     0
  9
$DIMUPT
 70
     0
  9
$DIMDEC
 70
     2
  9
$DIMTDEC
 70
     2
  9
$DIMALTU
 70
     2
  9
$DIMALTTD
 70
     2
  9
$DIMTXSTY
  7
Standard
  9
$DIMAUNIT
 70
     0
  9
$DIMADEC
 70
     2
  9
$DIMALTRND
 40
0.0
  9
$DIMAZIN
 70
     0
  9
$DIMDSEP
 70
    46
  9
$DIMATFIT
 70
     3
  9
$DIMFRAC
 70
     0
  9
$DIMLDRBLK
  1

  9
$DIMLUNIT
 70
     2
  9
$DIMLWD
 70
    -2
  9
$DIMLWE
 70
    -2
  9
$DIMTMOVE
 70
     0
  9
$LUNITS
 70
     2
  9
$LUPREC
 70
     6
  9
$SKETCHINC
 40
0.1
  9
$FILLETRAD
 40
0.0
  9
$AUNITS
 70
     0
  9
$AUPREC
 70
     2
  9
$MENU
  1
.
  9
$ELEVATION
 40
0.0
  9
$PELEVATION
 40
0.0
  9
$THICKNESS
 40
0.0
  9
$LIMCHECK
 70
     0
  9
$CHAMFERA
 40
0.0
  9
$CHAMFERB
 40
0.0
  9
$CHAMFERC
 40
0.0
  9
$CHAMFERD
 40
0.0
  9
$SKPOLY
 70
     0
  9
$TDCREATE
 40
2461142.546441285
  9
$TDUCREATE
 40
2461142.838107952
  9
$TDUPDATE
 40
2461142.546442072
  9
$TDUUPDATE
 40
2461142.838108739
  9
$TDINDWG
 40
0.0000000116
  9
$TDUSRTIMER
 40
0.0000000116
  9
$USRTIMER
 70
     1
  9
$ANGBASE
 50
0.0
  9
$ANGDIR
 70
     0
  9
$PDMODE
 70
     0
  9
$PDSIZE
 40
-1.0
  9
$PLINEWID
 40
0.0
  9
$SPLFRAME
 70
     0
  9
$SPLINETYPE
 70
     6
  9
$SPLINESEGS
 70
     8
  9
$HANDSEED
  5
279
  9
$SURFTAB1
 70
     6
  9
$SURFTAB2
 70
     6
  9
$SURFTYPE
 70
     6
  9
$SURFU
 70
     6
  9
$SURFV
 70
     6
  9
$UCSBASE
  2

  9
$UCSNAME
  2

  9
$UCSORG
 10
0.0
 20
0.0
 30
0.0
  9
$UCSXDIR
 10
1.0
 20
0.0
 30
0.0
  9
$UCSYDIR
 10
0.0
 20
1.0
 30
0.0
  9
$UCSORTHOREF
  2

  9
$UCSORTHOVIEW
 70
     0
  9
$UCSORGTOP
 10
0.0
 20
0.0
 30
0.0
  9
$UCSORGBOTTOM
 10
0.0
 20
0.0
 30
0.0
  9
$UCSORGLEFT
 10
0.0
 20
0.0
 30
0.0
  9
$UCSORGRIGHT
 10
0.0
 20
0.0
 30
0.0
  9
$UCSORGFRONT
 10
0.0
 20
0.0
 30
0.0
  9
$UCSORGBACK
 10
0.0
 20
0.0
 30
0.0
  9
$PUCSBASE
  2

  9
$PUCSNAME
  2

  9
$PUCSORG
 10
0.0
 20
0.0
 30
0.0
  9
$PUCSXDIR
 10
1.0
 20
0.0
 30
0.0
  9
$PUCSYDIR
 10
0.0
 20
1.0
 30
0.0
  9
$PUCSORTHOREF
  2

  9
$PUCSORTHOVIEW
 70
     0
  9
$PUCSORGTOP
 10
0.0
 20
0.0
 30
0.0
  9
$PUCSORGBOTTOM
 10
0.0
 20
0.0
 30
0.0
  9
$PUCSORGLEFT
 10
0.0
 20
0.0
 30
0.0
  9
$PUCSORGRIGHT
 10
0.0
 20
0.0
 30
0.0
  9
$PUCSORGFRONT
 10
0.0
 20
0.0
 30
0.0
  9
$PUCSORGBACK
 10
0.0
 20
0.0
 30
0.0
  9
$USERI1
 70
     0
  9
$USERI2
 70
     0
  9
$USERI3
 70
     0
  9
$USERI4
 70
     0
  9
$USERI5
 70
     0
  9
$USERR1
 40
0.0
  9
$USERR2
 40
0.0
  9
$USERR3
 40
0.0
  9
$USERR4
 40
0.0
  9
$USERR5
 40
0.0
  9
$WORLDVIEW
 70
     1
  9
$SHADEDGE
 70
     3
  9
$SHADEDIF
 70
    70
  9
$TILEMODE
 70
     1
  9
$MAXACTVP
 70
    64
  9
$PINSBASE
 10
0.0
 20
0.0
 30
0.0
  9
$PLIMCHECK
 70
     0
  9
$PEXTMIN
 10
1.0000000000E+20
 20
1.0000000000E+20
 30
1.0000000000E+20
  9
$PEXTMAX
 10
-1.0000000000E+20
 20
-1.0000000000E+20
 30
-1.0000000000E+20
  9
$PLIMMIN
 10
0.0
 20
0.0
  9
$PLIMMAX
 10
12.0
 20
9.0
  9
$UNITMODE
 70
     0
  9
$VISRETAIN
 70
     1
  9
$PLINEGEN
 70
     0
  9
$PSLTSCALE
 70
     1
  9
$TREEDEPTH
 70
  3020
  9
$CMLSTYLE
  2
Standard
  9
$CMLJUST
 70
     0
  9
$CMLSCALE
 40
1.0
  9
$PROXYGRAPHICS
 70
     1
  9
$MEASUREMENT
 70
     0
  9
$CELWEIGHT
370
    -1
  9
$ENDCAPS
280
     0
  9
$JOINSTYLE
280
     0
  9
$LWDISPLAY
290
     1
  9
$INSUNITS
 70
     1
  9
$HYPERLINKBASE
  1

  9
$STYLESHEET
  1

  9
$XEDIT
290
     1
  9
$CEPSNTYPE
380
     0
  9
$PSTYLEMODE
290
     1
  9
$FINGERPRINTGUID
  2
{a04168f7-5b97-4259-a966-dbe6d93726e7}
  9
$VERSIONGUID
  2
{FAEB1C32-E019-11D5-929B-00C0DF256EC4}
  9
$EXTNAMES
290
     1
  9
$PSVPSCALE
 40
0.0
  9
$OLESTARTUP
290
     0
  0
ENDSEC
  0
SECTION
  2
CLASSES
  0
CLASS
  1
ACDBDICTIONARYWDFLT
  2
AcDbDictionaryWithDefault
  3
ObjectDBX Classes
 90
        0
280
     0
281
     0
  0
CLASS
  1
VISUALSTYLE
  2
AcDbVisualStyle
  3
ObjectDBX Classes
 90
     4095
280
     0
281
     0
  0
CLASS
  1
MATERIAL
  2
AcDbMaterial
  3
ObjectDBX Classes
 90
     1153
280
     0
281
     0
  0
CLASS
  1
SCALE
  2
AcDbScale
  3
ObjectDBX Classes
 90
     1153
280
     0
281
     0
  0
CLASS
  1
TABLESTYLE
  2
AcDbTableStyle
  3
ObjectDBX Classes
 90
     4095
280
     0
281
     0
  0
CLASS
  1
MLEADERSTYLE
  2
AcDbMLeaderStyle
  3
ACDB_MLEADERSTYLE_CLASS
 90
     4095
280
     0
281
     0
  0
CLASS
  1
SUN
  2
AcDbSun
  3
SCENEOE
 90
     1153
280
     0
281
     0
  0
CLASS
  1
ACDBPLACEHOLDER
  2
AcDbPlaceHolder
  3
ObjectDBX Classes
 90
        0
280
     0
281
     0
  0
CLASS
  1
LAYOUT
  2
AcDbLayout
  3
ObjectDBX Classes
 90
        0
280
     0
281
     0
  0
ENDSEC
  0
SECTION
  2
TABLES
  0
TABLE
  2
VPORT
  5
8
330
0
100
AcDbSymbolTable
 70
     1
  0
VPORT
  5
29
330
8
100
AcDbSymbolTableRecord
100
AcDbViewportTableRecord
  2
*Active
 70
     0
 10
0.0
 20
0.0
 11
1.0
 21
1.0
 12
12.0
 22
6.0
 13
0.0
 23
0.0
 14
0.5
 24
0.5
 15
0.5
 25
0.5
 16
0.0
 26
0.0
 36
1.0
 17
0.0
 27
0.0
 37
0.0
 40
12.0
 41
2.0
 42
50.0
 43
0.0
 44
0.0
 50
0.0
 51
0.0
 71
     0
 72
  2000
 73
     1
 74
     3
 75
     0
 76
     0
 77
     0
 78
     0
281
     0
 65
     1
110
0.0
120
0.0
130
0.0
111
1.0
121
0.0
131
0.0
112
0.0
122
1.0
132
0.0
 79
     0
146
0.0
  0
ENDTAB
  0
TABLE
  2
LTYPE
  5
5
330
0
100
AcDbSymbolTable
 70
     6
  0
LTYPE
  5
14
330
5
100
AcDbSymbolTableRecord
100
AcDbLinetypeTableRecord
  2
ByBlock
 70
     0
  3

 72
    65
 73
     0
 40
0.0
  0
LTYPE
  5
15
330
5
100
AcDbSymbolTableRecord
100
AcDbLinetypeTableRecord
  2
ByLayer
 70
     0
  3

 72
    65
 73
     0
 40
0.0
  0
LTYPE
  5
16
330
5
100
AcDbSymbolTableRecord
100
AcDbLinetypeTableRecord
  2
Continuous
 70
     0
  3
Solid line
 72
    65
 73
     0
 40
0.0
  0
LTYPE
  5
5E
330
5
100
AcDbSymbolTableRecord
100
AcDbLinetypeTableRecord
  2
HIDDEN
 70
     0
  3
Hidden __ __ __ __ __ __ __ __ __ __ __ __ __ __
 72
    65
 73
     2
 40
0.075
 49
0.05
 74
     0
 49
-0.025
 74
     0
  0
LTYPE
  5
5F
330
5
100
AcDbSymbolTableRecord
100
AcDbLinetypeTableRecord
  2
PHANTOM
 70
     0
  3
Phantom ______  __  __  ______  __  __  ______
 72
    65
 73
     6
 40
0.5
 49
0.25
 74
     0
 49
-0.05
 74
     0
 49
0.05
 74
     0
 49
-0.05
 74
     0
 49
0.05
 74
     0
 49
-0.05
 74
     0
  0
LTYPE
  5
60
330
5
100
AcDbSymbolTableRecord
100
AcDbLinetypeTableRecord
  2
CENTER
 70
     0
  3
Center ____ _ ____ _ ____ _ ____ _ ____ _ ____
 72
    65
 73
     4
 40
0.4
 49
0.25
 74
     0
 49
-0.05
 74
     0
 49
0.05
 74
     0
 49
-0.05
 74
     0
  0
LTYPE
  5
61
330
5
100
AcDbSymbolTableRecord
100
AcDbLinetypeTableRecord
  2
CENTERX2
 70
     0
  3
Center (2x) ________  __  ________  __  _____
 72
    65
 73
     4
 40
0.8
 49
0.5
 74
     0
 49
-0.1
 74
     0
 49
0.1
 74
     0
 49
-0.1
 74
     0
  0
LTYPE
  5
62
330
5
100
AcDbSymbolTableRecord
100
AcDbLinetypeTableRecord
  2
DOT2
 70
     0
  3
Dot (.5x) ........................................
 72
    65
 73
     2
 40
0.025
 49
0.0
 74
     0
 49
-0.025
 74
     0
  0
ENDTAB
  0
TABLE
  2
LAYER
  5
2
330
0
100
AcDbSymbolTable
 70
     3
  0
LAYER
  5
10
330
2
100
AcDbSymbolTableRecord
100
AcDbLayerTableRecord
  2
0
 70
     0
 62
     7
  6
Continuous
370
    -3
390
F
  0
LAYER
  5
63
330
2
100
AcDbSymbolTableRecord
100
AcDbLayerTableRecord
  2
FORMAT
 70
     0
 62
     7
  6
Continuous
370
    -3
390
F
  0
LAYER
  5
64
330
2
100
AcDbSymbolTableRecord
100
AcDbLayerTableRecord
  2
PART_NAMES
 70
     0
 62
     1
  6
Continuous
370
    -3
390
F
  0
ENDTAB
  0
TABLE
  2
STYLE
  5
3
330
0
100
AcDbSymbolTable
 70
     2
  0
STYLE
  5
11
330
3
100
AcDbSymbolTableRecord
100
AcDbTextStyleTableRecord
  2
Standard
 70
     0
 40
0.0
 41
1.0
 50
0.0
 71
     0
 42
0.125
  3
txt
  4

  0
STYLE
  5
275
330
3
100
AcDbSymbolTableRecord
100
AcDbTextStyleTableRecord
  2
SLDTEXTSTYLE0
 70
     0
 40
0.0
 41
0.7
 50
0.0
 71
     0
 42
0.125
  3
TXT
  4

  0
ENDTAB
  0
TABLE
  2
VIEW
  5
6
330
0
100
AcDbSymbolTable
 70
     0
  0
ENDTAB
  0
TABLE
  2
UCS
  5
7
330
0
100
AcDbSymbolTable
 70
     0
  0
ENDTAB
  0
TABLE
  2
APPID
  5
9
330
0
100
AcDbSymbolTable
 70
     1
  0
APPID
  5
12
330
9
100
AcDbSymbolTableRecord
100
AcDbRegAppTableRecord
  2
ACAD
 70
     0
  0
ENDTAB
  0
TABLE
  2
DIMSTYLE
  5
A
330
0
100
AcDbSymbolTable
 70
     1
100
AcDbDimStyleTable
  0
DIMSTYLE
105
27
330
A
100
AcDbSymbolTableRecord
100
AcDbDimStyleTableRecord
  2
Standard
 70
     0
178
     0
340
11
  0
ENDTAB
  0
TABLE
  2
BLOCK_RECORD
  5
1
330
0
100
AcDbSymbolTable
 70
     1
  0
BLOCK_RECORD
  5
1F
330
1
100
AcDbSymbolTableRecord
100
AcDbBlockTableRecord
  2
*Model_Space
340
22
  0
BLOCK_RECORD
  5
1B
330
1
100
AcDbSymbolTableRecord
100
AcDbBlockTableRecord
  2
*Paper_Space
340
1E
  0
BLOCK_RECORD
  5
23
330
1
100
AcDbSymbolTableRecord
100
AcDbBlockTableRecord
  2
*Paper_Space0
340
26
  0
ENDTAB
  0
ENDSEC
  0
SECTION
  2
BLOCKS
  0
BLOCK
  5
20
330
1F
100
AcDbEntity
  8
0
100
AcDbBlockBegin
  2
*Model_Space
 70
     0
 10
0.0
 20
0.0
 30
0.0
  3
*Model_Space
  1

  0
ENDBLK
  5
21
330
1F
100
AcDbEntity
  8
0
100
AcDbBlockEnd
  0
BLOCK
  5
1C
330
1B
100
AcDbEntity
 67
     1
  8
0
100
AcDbBlockBegin
  2
*Paper_Space
 70
     0
 10
0.0
 20
0.0
 30
0.0
  3
*Paper_Space
  1

  0
ENDBLK
  5
1D
330
1B
100
AcDbEntity
 67
     1
  8
0
100
AcDbBlockEnd
  0
BLOCK
  5
24
330
23
100
AcDbEntity
  8
0
100
AcDbBlockBegin
  2
*Paper_Space0
 70
     0
 10
0.0
 20
0.0
 30
0.0
  3
*Paper_Space0
  1

  0
ENDBLK
  5
25
330
23
100
AcDbEntity
  8
0
100
AcDbBlockEnd
  0
ENDSEC
  0
SECTION
  2
ENTITIES
  0
LINE
  5
65
330
1F
100
AcDbEntity
  8
0
  6
CENTERX2
 62
     7
370
    18
100
AcDbLine
 10
0.25
 20
0.25
 30
0.0
 11
0.25
 21
11.75
 31
0.0
  0
LINE
  5
66
330
1F
100
AcDbEntity
  8
0
  6
CENTERX2
 62
     7
370
    18
100
AcDbLine
 10
0.25
 20
0.25
 30
0.0
 11
23.75
 21
0.25
 31
0.0
  0
LINE
  5
67
330
1F
100
AcDbEntity
  8
0
  6
CENTERX2
 62
     7
370
    18
100
AcDbLine
 10
23.75
 20
0.25
 30
0.0
 11
23.75
 21
11.75
 31
0.0
  0
LINE
  5
68
330
1F
100
AcDbEntity
  8
0
  6
CENTERX2
 62
     7
370
    18
100
AcDbLine
 10
23.75
 20
11.75
 30
0.0
 11
0.25
 21
11.75
 31
0.0
  0
LINE
  5
69
330
1F
100
AcDbEntity
  8
0
  6
Continuous
 62
     7
370
    25
100
AcDbLine
 10
1.8571830265
 20
10.1519904191
 30
0.0
 11
1.7763739037
 21
10.3211830184
 31
0.0
  0
SPLINE
  5
6A
330
1F
100
AcDbEntity
  8
0
  6
Continuous
 62
     7
370
    25
100
AcDbSpline
210
0.0
220
0.0
230
1.0
 70
     8
 71
     3
 72
    14
 73
    10
 74
     0
 42
0.00000001
 43
0.00000001
 40
0.8513043678676254
 40
0.8513043678676254
 40
0.8513043678676254
 40
0.8513043678676254
 40
0.8560378532405389
 40
0.8660338344886196
 40
0.8756888427883988
 40
0.8849977189913464
 40
0.8939534257020234
 40
0.9025528972589622
 40
0.9054973013061784
 40
0.9054973013061784
 40
0.9054973013061784
 40
0.9054973013061784
 10
2.952465385591423
 20
10.76344210547478
 30
0.0
 10
2.917488154659435
 20
10.75263444816659
 30
0.0
 10
2.808797389485964
 20
10.718518720358
 30
0.0
 10
2.629689680011464
 20
10.65943917174404
 30
0.0
 10
2.41845132813589
 20
10.5849423368907
 30
0.0
 10
2.216436459213399
 20
10.50863636729781
 30
0.0
 10
2.023799822510704
 20
10.43075633958618
 30
0.0
 10
1.878322877739821
 20
10.36768962492837
 30
0.0
 10
1.797056125151286
 20
10.33071359567064
 30
0.0
 10
1.776373903661671
 20
10.32118301839704
 30
0.0
  0
LINE
  5
6B
330
1F
100
AcDbEntity
  8
0
  6
Continuous
 62
     7
370
    25
100
AcDbLine
 10
2.9524653856
 20
10.7634421055
 30
0.0
 11
3.0515291941
 21
10.4071882074
 31
0.0
  0
LINE
  5
6C
330
1F
100
AcDbEntity
  8
0
  6
Continuous
 62
     7
370
    25
100
AcDbLine
 10
3.0515291941
 20
10.4071882074
 30
0.0
 11
3.4128210956
 21
10.5076529372
 31
0.0
  0
LINE
  5
6D
330
1F
100
AcDbEntity
  8
0
  6
Continuous
 62
     7
370
    25
100
AcDbLine
 10
3.4128210956
 20
10.5076529372
 30
0.0
 11
3.3123563654
 21
10.8689448386
 31
0.0
  0
SPLINE
  5
6E
330
1F
100
AcDbEntity
  8
0
  6
Continuous
 62
     7
370
    25
100
AcDbSpline
210
0.0
220
0.0
230
1.0
 70
     8
 71
     3
 72
    16
 73
    12
 74
     0
 42
0.00000001
 43
0.00000001
 40
0.7462088576025568
 40
0.7462088576025568
 40
0.7462088576025568
 40
0.7462088576025568
 40
0.7521175864591397
 40
0.7647920417814054
 40
0.7772081519207622
 40
0.7893556849316484
 40
0.8012239599679336
 40
0.8128036855342794
 40
0.8240829093538227
 40
0.8350546022887522
 40
0.8351398981997684
 40
0.8351398981997684
 40
0.8351398981997684
 40
0.8351398981997684
 10
5.329942221526184
 20
11.29564879514842
 30
0.0
 10
5.284787913197278
 20
11.28862109360347
 30
0.0
 10
5.142845317187703
 20
11.26607223812595
 30
0.0
 10
4.906450753692938
 20
11.22607938416125
 30
0.0
 10
4.623201579723084
 20
11.17395033568868
 30
0.0
 10
4.346863090695164
 20
11.11888314666948
 30
0.0
 10
4.077736145891626
 20
11.06089218402368
 30
0.0
 10
3.816105630403477
 20
11.00015140332933
 30
0.0
 10
3.562243446477516
 20
10.93676663139233
 30
0.0
 10
3.395382441085772
 20
10.89202567871103
 30
0.0
 10
3.312991930439388
 20
10.86912157066802
 30
0.0
 10
3.312356365414231
 20
10.86894483859001
 30
0.0
  0
LINE
  5
6F
330
1F
100
AcDbEntity
  8
0
  6
Continuous
 62
     7
370
    25
100
AcDbLine
 10
5.3299422215
 20
11.2956487951
 30
0.0
 11
5.3579861758
 21
11.1102578929
 31
0.0
  0
LINE
  5
70
330
1F
100
AcDbEntity
  8
0
  6
Continuous
 62
     7
370
    25
100
AcDbLine
 10
5.3579861758
 20
11.1102578929
 30
0.0
 11
5.543377078
 21
11.1383018472
 31
0.0
  0
LINE
  5
71
330
1F
100
AcDbEntity
  8
0
  6
Continuous
 62
     7
370
    25
100
AcDbLine
 10
5.543377078
 20
11.1383018472
 30
0.0
 11
5.5153331236
 21
11.3236927494
 31
0.0
  0
SPLINE
  5
72
330
1F
100
AcDbEntity
  8
0
  6
Continuous
 62
     7
370
    25
100
AcDbSpline
210
0.0
220
0.0
230
1.0
 70
     8
 71
     3
 72
    14
 73
    10
 74
     0
 42
0.00000001
 43
0.00000001
 40
0.6471977191416923
 40
0.6471977191416923
 40
0.6471977191416923
 40
0.6471977191416923
 40
0.6571860540028671
 40
0.6713255457791549
 40
0.6852940138169578
 40
0.6990781474144603
 40
0.7126650949455656
 40
0.7260426447110092
 40
0.7381275985622745
 40
0.7381275985622745
 40
0.7381275985622745
 40
0.7381275985622745
 10
7.613172791193769
 20
11.54207401740922
 30
0.0
 10
7.536088511235243
 20
11.53702800740177
 30
0.0
 10
7.349930120217708
 20
11.52413052195832
 30
0.0
 10
7.056204047466643
 20
11.50094349117738
 30
0.0
 10
6.733532285405829
 20
11.47167022991849
 30
0.0
 10
6.415476139578543
 20
11.43905542826695
 30
0.0
 10
6.102389715319521
 20
11.40301037889356
 30
0.0
 10
5.802818034781435
 20
11.36468783456169
 30
0.0
 10
5.6078047342045
 20
11.33728059801293
 30
0.0
 10
5.515333123559911
 20
11.32369274939575
 30
0.0
  0
LINE
  5
73
330
1F
100
AcDbEntity
  8
0
  6
Continuous
 62
     7
370
    25
100
AcDbLine
 10
7.6131727912
 20
11.5420740174
 30
0.0
 11
7.6248509222
 21
11.3549380474
 31
0.0
  0
LINE
  5
74
330
1F
100
AcDbEntity
  8
0
  6
Continuous
 62
     7
370
    25
100
AcDbLine
 10
7.6248509222
 20
11.3549380474
 30
0.0
 11
7.8119868922
 21
11.3666161785
 31
0.0
  0
LINE
  5
75
330
1F
100
AcDbEntity
  8
0
  6
Continuous
 62
     7
370
    25
100
AcDbLine
 10
7.8119868922
 20
11.3666161785
 30
0.0
 11
7.8003087609
 21
11.5537521484
 31
0.0
  0
SPLINE
  5
76
330
1F
100
AcDbEntity
  8
0
  6
Continuous
 62
     7
370
    25
100
AcDbSpline
210
0.0
220
0.0
230
1.0
 70
     8
 71
     3
 72
    14
 73
    10
 74
     0
 42
0.00000001
 43
0.00000001
 40
0.5511452244250064
 40
0.5511452244250064
 40
0.5511452244250064
 40
0.5511452244250064
 40
0.5545829838309861
 40
0.5695295459998657
 40
0.5844034168402927
 40
0.5991909919021363
 40
0.6138768380252426
 40
0.628447474920468
 40
0.6391164527335579
 40
0.6391164527335579
 40
0.6391164527335579
 40
0.6391164527335579
 10
9.840276134903222
 20
11.61169912186822
 30
0.0
 10
9.81368872869069
 20
11.61170988904498
 30
0.0
 10
9.671505523914254
 20
11.61161784739762
 30
0.0
 10
9.414291107382017
 20
11.60999875045229
 30
0.0
 10
9.069334552989574
 20
11.6045483855783
 30
0.0
 10
8.726463732404037
 20
11.59575519835159
 30
0.0
 10
8.3860421543199
 20
11.58360277706329
 30
0.0
 10
8.077581768603292
 20
11.56943498861702
 30
0.0
 10
7.882677029276837
 20
11.55864236677659
 30
0.0
 10
7.800308760893936
 20
11.55375214844086
 30
0.0
  0
LINE
  5
77
330
1F
100
AcDbEntity
  8
0
  6
Continuous
 62
     7
370
    25
100
AcDbLine
 10
9.8402761349
 20
11.6116991219
 30
0.0
 11
9.8401235234
 21
11.234854414
 31
0.0
  0
LINE
  5
78
330
1F
100
AcDbEntity
  8
0
  6
Continuous
 62
     7
370
    25
100
AcDbLine
 10
9.8401235234
 20
11.234854414
 30
0.0
 11
10.2151234926
 21
11.2347025492
 31
0.0
  0
LINE
  5
79
330
1F
100
AcDbEntity
  8
0
  6
Continuous
 62
     7
370
    25
100
AcDbLine
 10
10.2151234926
 20
11.2347025492
 30
0.0
 11
10.2152753571
 21
11.6097025185
 31
0.0
  0
SPLINE
  5
7A
330
1F
100
AcDbEntity
  8
0
  6
Continuous
 62
     7
370
    25
100
AcDbSpline
210
0.0
220
0.0
230
1.0
 70
     8
 71
     3
 72
    15
 73
    11
 74
     0
 42
0.00000001
 43
0.00000001
 40
0.4314156119256059
 40
0.4314156119256059
 40
0.4314156119256059
 40
0.4314156119256059
 40
0.4341867493871219
 40
0.4491772650868069
 40
0.4642147821671246
 40
0.4792840087649619
 40
0.4943697397811477
 40
0.5094578326361675
 40
0.5245323463196893
 40
0.5349824261914533
 40
0.5349824261914533
 40
0.5349824261914533
 40
0.5349824261914533
 10
12.61604394265518
 20
11.51547829964709
 30
0.0
 10
12.59465983486457
 20
11.51690679709904
 30
0.0
 10
12.45759155317297
 20
11.52596579860585
 30
0.0
 10
12.20440147710485
 20
11.54153432614785
 30
0.0
 10
11.85612397297773
 20
11.56027799570674
 30
0.0
 10
11.50697292028613
 20
11.57629465844735
 30
0.0
 10
11.15731166773385
 20
11.58947395588547
 30
0.0
 10
10.80751150602201
 20
11.59973632746604
 30
0.0
 10
10.49348029689964
 20
11.60624657116115
 30
0.0
 10
10.29609136125994
 20
11.60887757350795
 30
0.0
 10
10.21527535706972
 20
11.60970251849091
 30
0.0
  0
LINE
  5
7B
330
1F
100
AcDbEntity
  8
0
  6
Continuous
 62
     7
370
    25
100
AcDbLine
 10
12.6160439427
 20
11.5154782996
 30
0.0
 11
12.6031635082
 21
11.3284222353
 31
0.0
  0
LINE
  5
7C
330
1F
100
AcDbEntity
  8
0
  6
Continuous
 62
     7
370
    25
100
AcDbLine
 10
12.6031635082
 20
11.3284222353
 30
0.0
 11
12.7902205654
 21
11.3155417325
 31
0.0
  0
LINE
  5
7D
330
1F
100
AcDbEntity
  8
0
  6
Continuous
 62
     7
370
    25
100
AcDbLine
 10
12.7902205654
 20
11.3155417325
 30
0.0
 11
12.8031010678
 21
11.5025987897
 31
0.0
  0
SPLINE
  5
7E
330
1F
100
AcDbEntity
  8
0
  6
Continuous
 62
     7
370
    25
100
AcDbSpline
210
0.0
220
0.0
230
1.0
 70
     8
 71
     3
 72
    16
 73
    12
 74
     0
 42
0.00000001
 43
0.00000001
 40
0.3164238124056183
 40
0.3164238124056183
 40
0.3164238124056183
 40
0.3164238124056183
 40
0.3176892265558903
 40
0.331784111124987
 40
0.346039676653823
 40
0.3604438694916348
 40
0.3749827204038077
 40
0.3896404543545233
 40
0.4044033165867775
 40
0.4192566006634758
 40
0.423334328713774
 40
0.423334328713774
 40
0.423334328713774
 40
0.423334328713774
 10
15.27184139149465
 20
11.26393417311197
 30
0.0
 10
15.26212709029783
 20
11.26512104561816
 30
0.0
 10
15.14420501473528
 20
11.27949156656826
 30
0.0
 10
14.91672879015125
 20
11.30628879058147
 30
0.0
 10
14.58810120712763
 20
11.34291428488113
 30
0.0
 10
14.25582176363219
 20
11.37771342104472
 30
0.0
 10
13.9202200541588
 20
11.41057738167359
 30
0.0
 10
13.58163582646248
 20
11.44136432998035
 30
0.0
 10
13.24042093187786
 20
11.4699839810754
 30
0.0
 10
12.98059316675901
 20
11.48986931827305
 30
0.0
 10
12.83455898616553
 20
11.50036892300534
 30
0.0
 10
12.80310106784224
 20
11.50259878970141
 30
0.0
  0
LINE
  5
7F
330
1F
100
AcDbEntity
  8
0
  6
Continuous
 62
     7
370
    25
100
AcDbLine
 10
15.2718413915
 20
11.2639341731
 30
0.0
 11
15.2491021343
 21
11.0778181443
 31
0.0
  0
LINE
  5
80
330
1F
100
AcDbEntity
  8
0
  6
Continuous
 62
     7
370
    25
100
AcDbLine
 10
15.2491021343
 20
11.0778181443
 30
0.0
 11
15.435218163
 21
11.0550788867
 31
0.0
  0
LINE
  5
81
330
1F
100
AcDbEntity
  8
0
  6
Continuous
 62
     7
370
    25
100
AcDbLine
 10
15.435218163
 20
11.0550788867
 30
0.0
 11
15.4579191484
 21
11.2408816647
 31
0.0
  0
SPLINE
  5
82
330
1F
100
AcDbEntity
  8
0
  6
Continuous
 62
     7
370
    25
100
AcDbSpline
210
0.0
220
0.0
230
1.0
 70
     8
 71
     3
 72
    45
 73
    41
 74
     0
 42
0.00000001
 43
0.00000001
 40
0.0
 40
0.0
 40
0.0
 40
0.0
 40
0.0002540897518312
 40
0.0010153730404189
 40
0.0022833589873498
 40
0.0040565770162251
 40
0.0063309815935676
 40
0.0091052744745057
 40
0.0123744894508916
 40
0.0161340231657128
 40
0.0203796604534971
 40
0.0251059762158006
 40
0.0303062367832748
 40
0.0359722056047472
 40
0.0420995223901982
 40
0.048678063692099
 40
0.0557016641246682
 40
0.0631601838890209
 40
0.0710458240741888
 40
0.079349826512255
 40
0.0880629100454657
 40
0.0971757563559511
 40
0.1066781116462642
 40
0.1165615729559075
 40
0.1268142755473613
 40
0.1374283005010189
 40
0.1483936177789397
 40
0.1596997598396382
 40
0.1713381255242434
 40
0.1832976990279093
 40
0.1955696040927178
 40
0.2081435554480289
 40
0.2210115933777215
 40
0.2341618307558447
 40
0.2475874504524841
 40
0.2612768224436114
 40
0.2752227101303402
 40
0.2894141440710628
 40
0.3037711996782109
 40
0.3083424724643554
 40
0.3083424724643554
 40
0.3083424724643554
 40
0.3083424724643554
 10
22.15123294799101
 20
8.883565349770569
 30
0.0
 10
22.14956112046795
 20
8.88459813206303
 30
0.0
 10
22.14288029771573
 20
8.888725253636526
 30
0.0
 10
22.1278271872226
 20
8.897958626960424
 30
0.0
 10
22.10276062752921
 20
8.913337274268358
 30
0.0
 10
22.06766963435836
 20
8.934754380820548
 30
0.0
 10
22.02258145250005
 20
8.962153066141124
 30
0.0
 10
21.9674734040403
 20
8.995341482047136
 30
0.0
 10
21.90237989091574
 20
9.034211804010242
 30
0.0
 10
21.82731666692044
 20
9.07858018914333
 30
0.0
 10
21.74229142139166
 20
9.128238894130385
 30
0.0
 10
21.64733653004982
 20
9.182986740896805
 30
0.0
 10
21.54246025731199
 20
9.24251377768332
 30
0.0
 10
21.42770323217004
 20
9.3065767778274
 30
0.0
 10
21.30310482116712
 20
9.374871055538694
 30
0.0
 10
21.16868859798965
 20
9.447088162343801
 30
0.0
 10
21.02450269347057
 20
9.522860753479629
 30
0.0
 10
20.87060245720817
 20
9.601862928165934
 30
0.0
 10
20.70701594705456
 20
9.68365841355278
 30
0.0
 10
20.53382029103818
 20
9.767906801294487
 30
0.0
 10
20.35107319165834
 20
9.854188023367657
 30
0.0
 10
20.15883702442768
 20
9.942041757564827
 30
0.0
 10
19.95722222517676
 20
10.03110986240166
 30
0.0
 10
19.74628453647323
 20
10.12083861131229
 30
0.0
 10
19.52614416795625
 20
10.21083924348937
 30
0.0
 10
19.29689483871643
 20
10.30059954749708
 30
0.0
 10
19.0586722849251
 20
10.38971072849144
 30
0.0
 10
18.81156841550878
 20
10.4775955068506
 30
0.0
 10
18.55576794584252
 20
10.56386981802826
 30
0.0
 10
18.29139496563578
 20
10.6479731958051
 30
0.0
 10
18.01863853647285
 20
10.72944888274881
 30
0.0
 10
17.73765713411637
 20
10.80776862894285
 30
0.0
 10
17.44868498754231
 20
10.88253076550001
 30
0.0
 10
17.15190536367703
 20
10.95319084409186
 30
0.0
 10
16.84756980424552
 20
11.01927589515045
 30
0.0
 10
16.53592022172751
 20
11.08038804499809
 30
0.0
 10
16.21721798712548
 20
11.13591717158401
 30
0.0
 10
15.8923462544269
 20
11.18581998262072
 30
0.0
 10
15.63824285493268
 20
11.21819429285217
 30
0.0
 10
15.49299875596071
 20
11.23648609408696
 30
0.0
 10
15.45791914835119
 20
11.24088166474981
 30
0.0
  0
LINE
  5
83
330
1F
100
AcDbEntity
  8
0
  6
Continuous
 62
     7
370
    25
100
AcDbLine
 10
22.3338364673
 20
8.7707608417
 30
0.0
 11
22.151232948
 21
8.8835653498
 31
0.0
  0
LINE
  5
84
330
1F
100
AcDbEntity
  8
0
  6
Continuous
 62
     7
370
    25
100
AcDbLine
 10
22.124014068
 20
8.8155181498
 30
0.0
 11
22.3338364673
 21
8.7707608417
 31
0.0
  0
SPLINE
  5
85
330
1F
100
AcDbEntity
  8
0
  6
Continuous
 62
     7
370
    25
100
AcDbSpline
210
0.0
220
0.0
230
1.0
 70
     8
 71
     3
 72
    45
 73
    41
 74
     0
 42
0.00000001
 43
0.00000001
 40
0.6954317067577289
 40
0.6954317067577289
 40
0.6954317067577289
 40
0.6954317067577289
 40
0.7035818246207629
 40
0.7169075633393495
 40
0.7300092743405843
 40
0.7429521279156549
 40
0.755725557694238
 40
0.7683199516741555
 40
0.7807243374027457
 40
0.7929265285864308
 40
0.8049160410865589
 40
0.8166790838088313
 40
0.8282035242084964
 40
0.8394749002660455
 40
0.8504813585168555
 40
0.8612076967744442
 40
0.8716393257296176
 40
0.8817634137109616
 40
0.8915636048210556
 40
0.9010273643172574
 40
0.9101389770085111
 40
0.9188839764012169
 40
0.9272492779043127
 40
0.9352211037112476
 40
0.9427847385100345
 40
0.9499281877133432
 40
0.9566384642920557
 40
0.9629042034427838
 40
0.9687122876061149
 40
0.9740544849024281
 40
0.9789184321677268
 40
0.9832972184116099
 40
0.9871802458290098
 40
0.9905606741393513
 40
0.9934333573190599
 40
0.9957906255195277
 40
0.9976295874610529
 40
0.9989458159268665
 40
0.9997365922159134
 40
1.0
 40
1.0
 40
1.0
 40
1.0
 10
15.38399697254372
 20
9.064889067585572
 30
0.0
 10
15.44396693591456
 20
9.072771133173365
 30
0.0
 10
15.60198614842346
 20
9.09357245032836
 30
0.0
 10
15.856287531815
 20
9.128018550135465
 30
0.0
 10
16.14660679347603
 20
9.161163912645854
 30
0.0
 10
16.43331121230138
 20
9.189454672486404
 30
0.0
 10
16.71669860150902
 20
9.212649191852984
 30
0.0
 10
16.99642867715302
 20
9.231081169000058
 30
0.0
 10
17.27218092893806
 20
9.244882309767766
 30
0.0
 10
17.54362671697262
 20
9.25424529409644
 30
0.0
 10
17.81042316634628
 20
9.259447887788921
 30
0.0
 10
18.07223704188643
 20
9.260622119507785
 30
0.0
 10
18.32871097859985
 20
9.258142460541551
 30
0.0
 10
18.57951140587522
 20
9.252208791281321
 30
0.0
 10
18.82428828960535
 20
9.243087445601306
 30
0.0
 10
19.06270014449809
 20
9.231086162200844
 30
0.0
 10
19.29440832895371
 20
9.216532104626001
 30
0.0
 10
19.51906497979351
 20
9.199639955960215
 30
0.0
 10
19.73635704531973
 20
9.18080407331647
 30
0.0
 10
19.94594927762714
 20
9.16030019104304
 30
0.0
 10
20.14751984343581
 20
9.138362571212545
 30
0.0
 10
20.34077462384733
 20
9.115450892441936
 30
0.0
 10
20.52540429178485
 20
9.091716006256378
 30
0.0
 10
20.70113113590731
 20
9.067547961437377
 30
0.0
 10
20.86767228409138
 20
9.043191676743152
 30
0.0
 10
21.02476398060684
 20
9.018958108592082
 30
0.0
 10
21.17215941097822
 20
8.99507844230454
 30
0.0
 10
21.30962048548808
 20
8.971869625193477
 30
0.0
 10
21.43693187579153
 20
8.949548498425454
 30
0.0
 10
21.55387266145435
 20
8.928333046507328
 30
0.0
 10
21.66028061254562
 20
8.908490948233709
 30
0.0
 10
21.75594557252875
 20
8.890120770326014
 30
0.0
 10
21.84073959638767
 20
8.873525256153451
 30
0.0
 10
21.91450501870007
 20
8.858777634285365
 30
0.0
 10
21.97713370448787
 20
8.846085681444315
 30
0.0
 10
22.02851628052509
 20
8.83549948769031
 30
0.0
 10
22.0685747062617
 20
8.82719283364779
 30
0.0
 10
22.09722985908767
 20
8.821152445524813
 30
0.0
 10
22.11445074499607
 20
8.817558106393523
 30
0.0
 10
22.12210220605532
 20
8.8159259698787
 30
0.0
 10
22.12401406799101
 20
8.815518149770568
 30
0.0
  0
LINE
  5
86
330
1F
100
AcDbEntity
  8
0
  6
Continuous
 62
     7
370
    25
100
AcDbLine
 10
15.3595234534
 20
9.2507849978
 30
0.0
 11
15.3839969725
 21
9.0648890676
 31
0.0
  0
LINE
  5
87
330
1F
100
AcDbEntity
  8
0
  6
Continuous
 62
     7
370
    25
100
AcDbLine
 10
15.1736275232
 20
9.226311479
 30
0.0
 11
15.3595234534
 21
9.2507849978
 31
0.0
  0
LINE
  5
88
330
1F
100
AcDbEntity
  8
0
  6
Continuous
 62
     7
370
    25
100
AcDbLine
 10
15.1981010419
 20
9.0404155488
 30
0.0
 11
15.1736275232
 21
9.226311479
 31
0.0
  0
SPLINE
  5
89
330
1F
100
AcDbEntity
  8
0
  6
Continuous
 62
     7
370
    25
100
AcDbSpline
210
0.0
220
0.0
230
1.0
 70
     8
 71
     3
 72
    12
 73
     8
 74
     0
 42
0.00000001
 43
0.00000001
 40
0.6279258258439321
 40
0.6279258258439321
 40
0.6279258258439321
 40
0.6279258258439321
 40
0.6312694223607523
 40
0.6460065237480678
 40
0.6606206841728729
 40
0.6750981874935538
 40
0.687010174038574
 40
0.687010174038574
 40
0.687010174038574
 40
0.687010174038574
 10
13.89428512465005
 20
8.865640493329929
 30
0.0
 10
13.91887502578006
 20
8.86897086487279
 30
0.0
 10
14.05184758634873
 20
8.886971173912706
 30
0.0
 10
14.2923114179207
 20
8.919424636883805
 30
0.0
 10
14.61469351334656
 20
8.962702109029557
 30
0.0
 10
14.91632216839674
 20
9.002989114079737
 30
0.0
 10
15.11045923486957
 20
9.02882919128156
 30
0.0
 10
15.1981010419216
 20
9.040415548793568
 30
0.0
  0
LINE
  5
8A
330
1F
100
AcDbEntity
  8
0
  6
Continuous
 62
     7
370
    25
100
AcDbLine
 10
13.8437587986
 20
9.2373055152
 30
0.0
 11
13.8942851247
 21
8.8656404933
 31
0.0
  0
LINE
  5
8B
330
1F
100
AcDbEntity
  8
0
  6
Continuous
 62
     7
370
    25
100
AcDbLine
 10
13.4721767351
 20
9.186790467
 30
0.0
 11
13.8437587986
 21
9.2373055152
 31
0.0
  0
LINE
  5
8C
330
1F
100
AcDbEntity
  8
0
  6
Continuous
 62
     7
370
    25
100
AcDbLine
 10
13.5226917833
 20
8.8152084035
 30
0.0
 11
13.4721767351
 21
9.186790467
 31
0.0
  0
SPLINE
  5
8D
330
1F
100
AcDbEntity
  8
0
  6
Continuous
 62
     7
370
    25
100
AcDbSpline
210
0.0
220
0.0
230
1.0
 70
     8
 71
     3
 72
    14
 73
    10
 74
     0
 42
0.00000001
 43
0.00000001
 40
0.520465470718606
 40
0.520465470718606
 40
0.520465470718606
 40
0.520465470718606
 40
0.5258873344064182
 40
0.5410783139096876
 40
0.5562472332602322
 40
0.571381784352882
 40
0.5864660404483751
 40
0.6014845156991583
 40
0.6110828024492754
 40
0.6110828024492754
 40
0.6110828024492754
 40
0.6110828024492754
 10
11.52362026888441
 20
8.542835672920443
 30
0.0
 10
11.56349432401957
 20
8.548236846933381
 30
0.0
 10
11.71508495461972
 20
8.568789965542862
 30
0.0
 10
11.97821287212063
 20
8.60459863549648
 30
0.0
 10
12.31275134984021
 20
8.650226338900504
 30
0.0
 10
12.6465026271997
 20
8.695764771197732
 30
0.0
 10
12.97913978845996
 20
8.741209771728064
 30
0.0
 10
13.2710827653393
 20
8.780984073526666
 30
0.0
 10
13.45210763692954
 20
8.80561278008306
 30
0.0
 10
13.52269178331632
 20
8.815208403512875
 30
0.0
  0
LINE
  5
8E
330
1F
100
AcDbEntity
  8
0
  6
Continuous
 62
     7
370
    25
100
AcDbLine
 10
11.4984875579
 20
8.7286436298
 30
0.0
 11
11.5236202689
 21
8.5428356729
 31
0.0
  0
LINE
  5
8F
330
1F
100
AcDbEntity
  8
0
  6
Continuous
 62
     7
370
    25
100
AcDbLine
 10
11.312679601
 20
8.7035109188
 30
0.0
 11
11.4984875579
 21
8.7286436298
 31
0.0
  0
LINE
  5
90
330
1F
100
AcDbEntity
  8
0
  6
Continuous
 62
     7
370
    25
100
AcDbLine
 10
11.312679601
 20
8.7035109188
 30
0.0
 11
11.3378123405
 21
8.5177027515
 31
0.0
  0
SPLINE
  5
91
330
1F
100
AcDbEntity
  8
0
  6
Continuous
 62
     7
370
    25
100
AcDbSpline
210
0.0
220
0.0
230
1.0
 70
     8
 71
     3
 72
    15
 73
    11
 74
     0
 42
0.00000001
 43
0.00000001
 40
0.4170001598971144
 40
0.4170001598971144
 40
0.4170001598971144
 40
0.4170001598971144
 40
0.420174823355266
 40
0.4351095326124219
 40
0.4501242755491032
 40
0.4652030675528332
 40
0.480333153810538
 40
0.4955005832026954
 40
0.5106897747322421
 40
0.5120439593728947
 40
0.5120439593728947
 40
0.5120439593728947
 40
0.5120439593728947
 10
9.239654212186036
 20
8.242837965613147
 30
0.0
 10
9.263033095492679
 20
8.245759164898061
 30
0.0
 10
9.396389711167872
 20
8.262459318825423
 30
0.0
 10
9.640267880956458
 20
8.293374477964436
 30
0.0
 10
9.971706823891285
 20
8.336057603774444
 30
0.0
 10
10.30449314059407
 20
8.379624076450792
 30
0.0
 10
10.63834693413923
 20
8.423763502638863
 30
0.0
 10
10.97294624676277
 20
8.468512234748397
 30
0.0
 10
11.20618102313253
 20
8.499926298313554
 30
0.0
 10
11.32785274516892
 20
8.516357463148479
 30
0.0
 10
11.33781234047597
 20
8.51770275147203
 30
0.0
  0
LINE
  5
92
330
1F
100
AcDbEntity
  8
0
  6
Continuous
 62
     7
370
    25
100
AcDbLine
 10
9.2165455297
 20
8.4289084866
 30
0.0
 11
9.2396542122
 21
8.2428379656
 31
0.0
  0
LINE
  5
93
330
1F
100
AcDbEntity
  8
0
  6
Continuous
 62
     7
370
    25
100
AcDbLine
 10
9.0304750087
 20
8.4057998042
 30
0.0
 11
9.2165455297
 21
8.4289084866
 31
0.0
  0
LINE
  5
94
330
1F
100
AcDbEntity
  8
0
  6
Continuous
 62
     7
370
    25
100
AcDbLine
 10
9.0304750087
 20
8.4057998042
 30
0.0
 11
9.0535835599
 21
8.2197303399
 31
0.0
  0
SPLINE
  5
95
330
1F
100
AcDbEntity
  8
0
  6
Continuous
 62
     7
370
    25
100
AcDbSpline
210
0.0
220
0.0
230
1.0
 70
     8
 71
     3
 72
    15
 73
    11
 74
     0
 42
0.00000001
 43
0.00000001
 40
0.3173008976357805
 40
0.3173008976357805
 40
0.3173008976357805
 40
0.3173008976357805
 40
0.3189806851177335
 40
0.3329854989238258
 40
0.3471627904008333
 40
0.3614986025989408
 40
0.3759807467343043
 40
0.390597192121319
 40
0.4053325934372969
 40
0.4085786502070837
 40
0.4085786502070837
 40
0.4085786502070837
 40
0.4085786502070837
 10
7.034055191069569
 20
7.993201170266897
 30
0.0
 10
7.046462355795877
 20
7.994416116282038
 30
0.0
 10
7.162307528449009
 20
8.005797794218307
 30
0.0
 10
7.382799997890698
 20
8.028125744085088
 30
0.0
 10
7.696585364468715
 20
8.061418347873424
 30
0.0
 10
8.013740970755288
 20
8.096490094487168
 30
0.0
 10
8.333997014889714
 20
8.133153876418362
 30
0.0
 10
8.657060944052377
 20
8.171343359739483
 30
0.0
 10
8.897225090114368
 20
8.20047676445126
 30
0.0
 10
9.029674393772835
 20
8.216779913127342
 30
0.0
 10
9.053583559916138
 20
8.219730339922483
 30
0.0
  0
LINE
  5
96
330
1F
100
AcDbEntity
  8
0
  6
Continuous
 62
     7
370
    25
100
AcDbLine
 10
7.000055108
 20
8.3666566487
 30
0.0
 11
7.0340551911
 21
7.9932011703
 31
0.0
  0
LINE
  5
97
330
1F
100
AcDbEntity
  8
0
  6
Continuous
 62
     7
370
    25
100
AcDbLine
 10
6.6265996296
 20
8.3326565656
 30
0.0
 11
7.000055108
 21
8.3666566487
 31
0.0
  0
LINE
  5
98
330
1F
100
AcDbEntity
  8
0
  6
Continuous
 62
     7
370
    25
100
AcDbLine
 10
6.6607176962
 20
7.9579051648
 30
0.0
 11
6.6265996296
 21
8.3326565656
 31
0.0
  0
SPLINE
  5
99
330
1F
100
AcDbEntity
  8
0
  6
Continuous
 62
     7
370
    25
100
AcDbSpline
210
0.0
220
0.0
230
1.0
 70
     8
 71
     3
 72
    15
 73
    11
 74
     0
 42
0.00000001
 43
0.00000001
 40
0.2085650349845574
 40
0.2085650349845574
 40
0.2085650349845574
 40
0.2085650349845574
 40
0.2145604781304418
 40
0.2267672493535257
 40
0.239236416912666
 40
0.2519590037406926
 40
0.2649238944848901
 40
0.2781197025559347
 40
0.2915360351420174
 40
0.3004577628980401
 40
0.3004577628980401
 40
0.3004577628980401
 40
0.3004577628980401
 10
4.619455548656536
 20
7.823640338467628
 30
0.0
 10
4.663924643744171
 20
7.825164375751689
 30
0.0
 10
4.798921290848281
 20
7.830139475532286
 30
0.0
 10
5.026328619026246
 20
7.840207070602847
 30
0.0
 10
5.303490851663557
 20
7.854978517030843
 30
0.0
 10
5.586132740373166
 20
7.87245462475927
 30
0.0
 10
5.874005550736038
 20
7.892557941425915
 30
0.0
 10
6.166859329808702
 20
7.915127248519581
 30
0.0
 10
6.42965052298827
 20
7.937186898781027
 30
0.0
 10
6.594777969059854
 20
7.951901889042265
 30
0.0
 10
6.660717696238786
 20
7.957905164759238
 30
0.0
  0
LINE
  5
9A
330
1F
100
AcDbEntity
  8
0
  6
Continuous
 62
     7
370
    25
100
AcDbLine
 10
4.6137248228
 20
8.0110568612
 30
0.0
 11
4.6194555487
 21
7.8236403385
 31
0.0
  0
LINE
  5
9B
330
1F
100
AcDbEntity
  8
0
  6
Continuous
 62
     7
370
    25
100
AcDbLine
 10
4.426312416
 20
8.0053262612
 30
0.0
 11
4.6137248228
 21
8.0110568612
 31
0.0
  0
LINE
  5
9C
330
1F
100
AcDbEntity
  8
0
  6
Continuous
 62
     7
370
    25
100
AcDbLine
 10
4.426312416
 20
8.0053262612
 30
0.0
 11
4.4320430163
 21
7.8179138544
 31
0.0
  0
SPLINE
  5
9D
330
1F
100
AcDbEntity
  8
0
  6
Continuous
 62
     7
370
    25
100
AcDbSpline
210
0.0
220
0.0
230
1.0
 70
     8
 71
     3
 72
    17
 73
    13
 74
     0
 42
0.00000001
 43
0.00000001
 40
0.1016614720720251
 40
0.1016614720720251
 40
0.1016614720720251
 40
0.1016614720720251
 40
0.1089998674022309
 40
0.118084529462581
 40
0.127514842657726
 40
0.1372852704325623
 40
0.1473879174712405
 40
0.1578164805284356
 40
0.1685634728403947
 40
0.1796191282126914
 40
0.1909773731687989
 40
0.2001435402415022
 40
0.2001435402415022
 40
0.2001435402415022
 40
0.2001435402415022
 10
2.242726993615665
 20
7.895398356270233
 30
0.0
 10
2.296775361970465
 20
7.888692589400306
 30
0.0
 10
2.417875518474271
 20
7.874832554991124
 30
0.0
 10
2.608898372445443
 20
7.856686755704887
 30
0.0
 10
2.818228872059754
 20
7.840819989660446
 30
0.0
 10
3.035346998848198
 20
7.828201236890927
 30
0.0
 10
3.260042000143815
 20
7.818790484592303
 30
0.0
 10
3.49209864180607
 20
7.812623507302241
 30
0.0
 10
3.731289650839129
 20
7.809604162085249
 30
0.0
 10
3.977398865527446
 20
7.809687120515602
 30
0.0
 10
4.211755868012477
 20
7.812660728794803
 30
0.0
 10
4.364040595812621
 20
7.816094380072511
 30
0.0
 10
4.432043016307512
 20
7.817913854425707
 30
0.0
  0
LINE
  5
9E
330
1F
100
AcDbEntity
  8
0
  6
Continuous
 62
     7
370
    25
100
AcDbLine
 10
2.2679008254
 20
8.0812007464
 30
0.0
 11
2.2427269936
 21
7.8953983563
 31
0.0
  0
LINE
  5
9F
330
1F
100
AcDbEntity
  8
0
  6
Continuous
 62
     7
370
    25
100
AcDbLine
 10
2.0820984352
 20
8.1063745782
 30
0.0
 11
2.2679008254
 21
8.0812007464
 31
0.0
  0
LINE
  5
A0
330
1F
100
AcDbEntity
  8
0
  6
Continuous
 62
     7
370
    25
100
AcDbLine
 10
2.0569280278
 20
7.9205974615
 30
0.0
 11
2.0820984352
 21
8.1063745782
 31
0.0
  0
SPLINE
  5
A1
330
1F
100
AcDbEntity
  8
0
  6
Continuous
 62
     7
370
    25
100
AcDbSpline
210
0.0
220
0.0
230
1.0
 70
     8
 71
     3
 72
    24
 73
    20
 74
     0
 42
0.00000001
 43
0.00000001
 40
0.0039351208712079
 40
0.0039351208712079
 40
0.0039351208712079
 40
0.0039351208712079
 40
0.0072932311171293
 40
0.011028136413859
 40
0.0149010810980465
 40
0.0189632717700928
 40
0.023258475402986
 40
0.0278206260323165
 40
0.0326790824435221
 40
0.0378531598360054
 40
0.0433618746912805
 40
0.0492146790039221
 40
0.0554223461563205
 40
0.06198878599669
 40
0.0689180360680075
 40
0.0762111572779437
 40
0.0838683921994994
 40
0.091887410882707
 40
0.0932399630189705
 40
0.0932399630189705
 40
0.0932399630189705
 40
0.0932399630189705
 10
0.348624806234364
 20
8.76449927717467
 30
0.0
 10
0.356184275702554
 20
8.740760809945186
 30
0.0
 10
0.3760477235459861
 20
8.691773221993468
 30
0.0
 10
0.4153475388120364
 20
8.620317522087245
 30
0.0
 10
0.4664002511990378
 20
8.550077705142177
 30
0.0
 10
0.5278025014619256
 20
8.483007385435858
 30
0.0
 10
0.5994186759196343
 20
8.419036802272345
 30
0.0
 10
0.6811785408616889
 20
8.358200350927255
 30
0.0
 10
0.7729750872556824
 20
8.300525718587147
 30
0.0
 10
0.874674966854964
 20
8.245951681487137
 30
0.0
 10
0.9861638690869469
 20
8.19451216964321
 30
0.0
 10
1.107340138493485
 20
8.14622325823217
 30
0.0
 10
1.238071750427304
 20
8.101149497293571
 30
0.0
 10
1.378198881872262
 20
8.05922224047643
 30
0.0
 10
1.527588307019148
 20
8.020543661608405
 30
0.0
 10
1.686070155255474
 20
7.985059700232108
 30
0.0
 10
1.853491997007945
 20
7.952860933181846
 30
0.0
 10
1.978212649617345
 20
7.932369322616515
 30
0.0
 10
2.046997698375233
 20
7.922064809162817
 30
0.0
 10
2.05692802782889
 20
7.920597461457751
 30
0.0
  0
LINE
  5
A2
330
1F
100
AcDbEntity
  8
0
  6
Continuous
 62
     7
370
    25
100
AcDbLine
 10
0.6938759509
 20
8.7644992772
 30
0.0
 11
0.3486248062
 21
8.7644992772
 31
0.0
  0
LINE
  5
A3
330
1F
100
AcDbEntity
  8
0
  6
Continuous
 62
     7
370
    25
100
AcDbLine
 10
0.6938759509
 20
9.1394992772
 30
0.0
 11
0.6938759509
 21
8.7644992772
 31
0.0
  0
LINE
  5
A4
330
1F
100
AcDbEntity
  8
0
  6
Continuous
 62
     7
370
    25
100
AcDbLine
 10
0.3481123288
 20
9.1394992772
 30
0.0
 11
0.6938759509
 21
9.1394992772
 31
0.0
  0
SPLINE
  5
A5
330
1F
100
AcDbEntity
  8
0
  6
Continuous
 62
     7
370
    25
100
AcDbSpline
210
0.0
220
0.0
230
1.0
 70
     8
 71
     3
 72
    21
 73
    17
 74
     0
 42
0.00000001
 43
0.00000001
 40
0.913578602285428
 40
0.913578602285428
 40
0.913578602285428
 40
0.913578602285428
 40
0.9186607344498127
 40
0.9261662532257968
 40
0.9333026258827831
 40
0.9400712202263494
 40
0.9464747799611675
 40
0.9525175260177909
 40
0.9582048188585928
 40
0.9635466521340151
 40
0.9685565999026111
 40
0.9732499128166676
 40
0.9776510407515667
 40
0.9817870430140477
 40
0.9856942262062861
 40
0.9873639224781731
 40
0.9873639224781731
 40
0.9873639224781731
 40
0.9873639224781731
 10
1.607181304094868
 20
10.24037389574101
 30
0.0
 10
1.571959749573598
 20
10.22292630634495
 30
0.0
 10
1.485127252006583
 20
10.17889225258749
 30
0.0
 10
1.350818352551353
 20
10.10651449698702
 30
0.0
 10
1.207723715529454
 20
10.02312314497543
 30
0.0
 10
1.074973996921957
 20
9.939108182219284
 30
0.0
 10
0.9526249900300815
 20
9.854682717544843
 30
0.0
 10
0.8408453808736625
 20
9.769899742070356
 30
0.0
 10
0.7396735673810911
 20
9.684973499083393
 30
0.0
 10
0.6491735741373997
 20
9.600033309110804
 30
0.0
 10
0.5694747620745328
 20
9.515137683699571
 30
0.0
 10
0.5005742625547767
 20
9.430436124449894
 30
0.0
 10
0.4425623723837129
 20
9.345995712238
 30
0.0
 10
0.3954491560708037
 20
9.261896347718984
 30
0.0
 10
0.3656369744370533
 20
9.192792595941018
 30
0.0
 10
0.3518941766968907
 20
9.151855775539664
 30
0.0
 10
0.3481123290532525
 20
9.13949927710909
 30
0.0
  0
LINE
  5
A6
330
1F
100
AcDbEntity
  8
0
  6
Continuous
 62
     7
370
    25
100
AcDbLine
 10
1.6071813041
 20
10.2403738957
 30
0.0
 11
1.687990427
 21
10.0711812965
 31
0.0
  0
LINE
  5
A7
330
1F
100
AcDbEntity
  8
0
  6
Continuous
 62
     7
370
    25
100
AcDbLine
 10
1.687990427
 20
10.0711812965
 30
0.0
 11
1.8571830265
 21
10.1519904191
 31
0.0
  0
ARC
  5
A8
330
1F
100
AcDbEntity
  8
0
  6
Continuous
 62
     7
370
    25
100
AcDbCircle
 10
13.0221961842
 20
9.4030750188
 30
0.0
 40
0.2000000000000726
100
AcDbArc
 50
277.7611357549
 51
61.1174148316
  0
LINE
  5
A9
330
1F
100
AcDbEntity
  8
0
  6
Continuous
 62
     7
370
    25
100
AcDbLine
 10
10.5492267614
 20
10.9956587758
 30
0.0
 11
13.1187994375
 21
9.5781972944
 31
0.0
  0
ARC
  5
AA
330
1F
100
AcDbEntity
  8
0
  6
Continuous
 62
     7
370
    25
100
AcDbCircle
 10
10.452623508
 20
10.8205365001
 30
0.0
 40
0.1999999999999998
100
AcDbArc
 50
61.1174148316
 51
180.0
  0
LINE
  5
AB
330
1F
100
AcDbEntity
  8
0
  6
Continuous
 62
     7
370
    25
100
AcDbLine
 10
10.252623508
 20
10.0322796551
 30
0.0
 11
10.252623508
 21
10.8205365001
 31
0.0
  0
ARC
  5
AC
330
1F
100
AcDbEntity
  8
0
  6
Continuous
 62
     7
370
    25
100
AcDbCircle
 10
10.452623508
 20
10.0322796551
 30
0.0
 40
0.1999999999999997
100
AcDbArc
 50
180.0
 51
245.5037209488
  0
ARC
  5
AD
330
1F
100
AcDbEntity
  8
0
  6
Continuous
 62
     7
370
    25
100
AcDbCircle
 10
10.027623508
 20
9.0995417498
 30
0.0
 40
0.825000000000001
100
AcDbArc
 50
1.9846926466
 51
65.5037209488
  0
ARC
  5
AE
330
1F
100
AcDbEntity
  8
0
  6
Continuous
 62
     7
370
    25
100
AcDbCircle
 10
11.0520086261
 20
9.1350400566
 30
0.0
 40
0.2000000000000016
100
AcDbArc
 50
181.9846926466
 51
277.6674048107
  0
SPLINE
  5
AF
330
1F
100
AcDbEntity
  8
0
  6
Continuous
 62
     7
370
    25
100
AcDbSpline
210
0.0
220
0.0
230
1.0
 70
     8
 71
     3
 72
    10
 73
     6
 74
     0
 42
0.00000001
 43
0.00000001
 40
0.503022154008895
 40
0.503022154008895
 40
0.503022154008895
 40
0.503022154008895
 40
0.5628889901029348
 40
0.5855934403744916
 40
0.5923747703660249
 40
0.5923747703660249
 40
0.5923747703660249
 40
0.5923747703660249
 10
11.07869310610195
 20
8.936828203985291
 30
0.0
 10
11.51850274830934
 20
8.996038041561814
 30
0.0
 10
12.12540035606831
 20
9.078798452716855
 30
0.0
 10
12.78240697201626
 20
9.168532479520834
 30
0.0
 10
12.99931733211475
 20
9.198107810985434
 30
0.0
 10
13.04920488577739
 20
9.204907084834728
 30
0.0
  0
ARC
  5
B0
330
1F
100
AcDbEntity
  8
0
  6
Continuous
 62
     7
370
    25
100
AcDbCircle
 10
12.0728643338
 20
10.8975082327
 30
0.0
 40
0.2000000000000033
100
AcDbArc
 50
86.8207190269
 51
241.1174148316
  0
LINE
  5
B1
330
1F
100
AcDbEntity
  8
0
  6
Continuous
 62
     7
370
    25
100
AcDbLine
 10
11.9762610804
 20
10.722385957
 30
0.0
 11
13.4569320908
 21
9.9055987367
 31
0.0
  0
ARC
  5
B2
330
1F
100
AcDbEntity
  8
0
  6
Continuous
 62
     7
370
    25
100
AcDbCircle
 10
13.5535353442
 20
10.0807210123
 30
0.0
 40
0.2000000000000009
100
AcDbArc
 50
241.1174148316
 51
312.4268885054
  0
LINE
  5
B3
330
1F
100
AcDbEntity
  8
0
  6
Continuous
 62
     7
370
    25
100
AcDbLine
 10
13.6884651172
 20
9.9330932495
 30
0.0
 11
14.3920838123
 21
10.5761911942
 31
0.0
  0
ARC
  5
B4
330
1F
100
AcDbEntity
  8
0
  6
Continuous
 62
     7
370
    25
100
AcDbCircle
 10
14.2571540392
 20
10.723818957
 30
0.0
 40
0.1999999999999992
100
AcDbArc
 50
312.4268885054
 51
84.1353931202
  0
SPLINE
  5
B5
330
1F
100
AcDbEntity
  8
0
  6
Continuous
 62
     7
370
    25
100
AcDbSpline
210
0.0
220
0.0
230
1.0
 70
     8
 71
     3
 72
    11
 73
     7
 74
     0
 42
0.00000001
 43
0.00000001
 40
0.3575496044846501
 40
0.3575496044846501
 40
0.3575496044846501
 40
0.3575496044846501
 40
0.3746798760817555
 40
0.4059031990885684
 40
0.4371265220953814
 40
0.4533143262211754
 40
0.4533143262211754
 40
0.4533143262211754
 40
0.4533143262211754
 10
14.27758965180329
 20
10.92277218200197
 30
0.0
 10
14.14700103406422
 20
10.93618567856947
 30
0.0
 10
13.77832139735292
 20
10.97257591705058
 30
0.0
 10
13.17083531679719
 20
11.02551305614101
 30
0.0
 10
12.57009139478819
 20
11.06866914292716
 30
0.0
 10
12.20770304958032
 20
11.09032678684282
 30
0.0
 10
12.08395642380333
 20
11.0972004096865
 30
0.0
  0
LINE
  5
B6
330
1F
100
AcDbEntity
  8
0
  6
Continuous
 62
     7
370
    25
100
AcDbLine
 10
9.802623508
 20
10.7079465435
 30
0.0
 11
9.802623508
 21
10.0745417498
 31
0.0
  0
ARC
  5
B7
330
1F
100
AcDbEntity
  8
0
  6
Continuous
 62
     7
370
    25
100
AcDbCircle
 10
9.602623508
 20
10.7079465435
 30
0.0
 40
0.2000000000000011
100
AcDbArc
 50
0.0
 51
132.4268885054
  0
LINE
  5
B8
330
1F
100
AcDbEntity
  8
0
  6
Continuous
 62
     7
370
    25
100
AcDbLine
 10
8.7746803953
 20
10.2221695126
 30
0.0
 11
9.467693735
 21
10.8555743063
 31
0.0
  0
ARC
  5
B9
330
1F
100
AcDbEntity
  8
0
  6
Continuous
 62
     7
370
    25
100
AcDbCircle
 10
8.9096101683
 20
10.0745417498
 30
0.0
 40
0.2000000000000003
100
AcDbArc
 50
132.4268885054
 51
270.0
  0
LINE
  5
BA
330
1F
100
AcDbEntity
  8
0
  6
Continuous
 62
     7
370
    25
100
AcDbLine
 10
8.9096101683
 20
9.8745417498
 30
0.0
 11
9.602623508
 21
9.8745417498
 31
0.0
  0
ARC
  5
BB
330
1F
100
AcDbEntity
  8
0
  6
Continuous
 62
     7
370
    25
100
AcDbCircle
 10
9.602623508
 20
10.0745417498
 30
0.0
 40
0.2000000000000064
100
AcDbArc
 50
270.0
 51
0.0
  0
LINE
  5
BC
330
1F
100
AcDbEntity
  8
0
  6
Continuous
 62
     7
370
    25
100
AcDbLine
 10
8.433873508
 20
9.4745417498
 30
0.0
 11
8.433873508
 21
9.2245417498
 31
0.0
  0
LINE
  5
BD
330
1F
100
AcDbEntity
  8
0
  6
Continuous
 62
     7
370
    25
100
AcDbLine
 10
6.433873508
 20
9.4745417498
 30
0.0
 11
8.433873508
 21
9.4745417498
 31
0.0
  0
LINE
  5
BE
330
1F
100
AcDbEntity
  8
0
  6
Continuous
 62
     7
370
    25
100
AcDbLine
 10
6.433873508
 20
9.4745417498
 30
0.0
 11
6.433873508
 21
9.2245417498
 31
0.0
  0
LINE
  5
BF
330
1F
100
AcDbEntity
  8
0
  6
Continuous
 62
     7
370
    25
100
AcDbLine
 10
6.433873508
 20
9.2245417498
 30
0.0
 11
8.433873508
 21
9.2245417498
 31
0.0
  0
CIRCLE
  5
C0
330
1F
100
AcDbEntity
  8
0
  6
Continuous
 62
     7
370
    25
100
AcDbCircle
 10
15.285035218
 20
10.1579108398
 30
0.0
 40
0.25
  0
ARC
  5
C1
330
1F
100
AcDbEntity
  8
0
  6
Continuous
 62
     7
370
    25
100
AcDbCircle
 10
2.1540853085
 20
8.5632992542
 30
0.0
 40
0.2000000000000003
100
AcDbArc
 50
261.6125656441
 51
31.5446870278
  0
ARC
  5
C2
330
1F
100
AcDbEntity
  8
0
  6
Continuous
 62
     7
370
    25
100
AcDbCircle
 10
3.027623508
 20
9.0995417498
 30
0.0
 40
0.8250000000000008
100
AcDbArc
 50
114.4962790512
 51
211.5446870278
  0
ARC
  5
C3
330
1F
100
AcDbEntity
  8
0
  6
Continuous
 62
     7
370
    25
100
AcDbCircle
 10
2.602623508
 20
10.0322796551
 30
0.0
 40
0.1999999999999998
100
AcDbArc
 50
294.4962790512
 51
349.0852697611
  0
ARC
  5
C4
330
1F
100
AcDbEntity
  8
0
  6
Continuous
 62
     7
370
    25
100
AcDbCircle
 10
2.602623508
 20
9.9565404992
 30
0.0
 40
0.2000000000000001
100
AcDbArc
 50
10.9147302389
 51
111.3381887662
  0
SPLINE
  5
C5
330
1F
100
AcDbEntity
  8
0
  6
Continuous
 62
     7
370
    25
100
AcDbSpline
210
0.0
220
0.0
230
1.0
 70
     8
 71
     3
 72
     8
 73
     4
 74
     0
 42
0.00000001
 43
0.00000001
 40
0.0587970678286711
 40
0.0587970678286711
 40
0.0587970678286711
 40
0.0587970678286711
 40
1.0
 40
1.0
 40
1.0
 40
1.0
 10
2.529849079930064
 20
10.14283028052902
 30
0.0
 10
1.107643473948042
 20
9.587243179439563
 30
0.0
 10
0.2626397910738715
 20
8.640017522685332
 30
0.0
 10
2.12491209532292
 20
8.365438384838816
 30
0.0
  0
ARC
  5
C6
330
1F
100
AcDbEntity
  8
0
  6
Continuous
 62
     7
370
    25
100
AcDbCircle
 10
7.6496955018
 20
10.0745417498
 30
0.0
 40
0.2000000000000004
100
AcDbArc
 50
270.0
 51
312.4268885054
  0
LINE
  5
C7
330
1F
100
AcDbEntity
  8
0
  6
Continuous
 62
     7
370
    25
100
AcDbLine
 10
7.7846252749
 20
9.926913987
 30
0.0
 11
8.7321767582
 21
10.7929631919
 31
0.0
  0
ARC
  5
C8
330
1F
100
AcDbEntity
  8
0
  6
Continuous
 62
     7
370
    25
100
AcDbCircle
 10
8.5972469852
 20
10.9405909547
 30
0.0
 40
0.2000000000000029
100
AcDbArc
 50
312.4268885054
 51
92.0132500137
  0
SPLINE
  5
C9
330
1F
100
AcDbEntity
  8
0
  6
Continuous
 62
     7
370
    25
100
AcDbSpline
210
0.0
220
0.0
230
1.0
 70
     8
 71
     3
 72
    12
 73
     8
 74
     0
 42
0.00000001
 43
0.00000001
 40
0.6057153505811109
 40
0.6057153505811109
 40
0.6057153505811109
 40
0.6057153505811109
 40
0.6244664601362591
 40
0.686913106149885
 40
0.7493597521635109
 40
0.7805830751703239
 40
0.7911832058650156
 40
0.7911832058650156
 40
0.7911832058650156
 40
0.7911832058650156
 10
8.590220862940173
 20
11.14046750063269
 30
0.0
 10
8.447235517411011
 20
11.13544123547859
 30
0.0
 10
7.828381368292788
 20
11.1096585604231
 30
0.0
 10
6.736726924943356
 20
11.03198101508518
 30
0.0
 10
5.560144875685655
 20
10.88472918720402
 30
0.0
 10
4.783314699786189
 20
10.74779476368863
 30
0.0
 10
4.474041742897855
 20
10.68508277422276
 30
0.0
 10
4.395823844412938
 20
10.66866313698408
 30
0.0
  0
ARC
  5
CA
330
1F
100
AcDbEntity
  8
0
  6
Continuous
 62
     7
370
    25
100
AcDbCircle
 10
4.4369126198
 20
10.4729293572
 30
0.0
 40
0.2000000000000018
100
AcDbArc
 50
101.855484399
 51
241.1174148316
  0
LINE
  5
CB
330
1F
100
AcDbEntity
  8
0
  6
Continuous
 62
     7
370
    25
100
AcDbLine
 10
4.3403093664
 20
10.2978070815
 30
0.0
 11
5.7372702546
 21
9.5271971399
 31
0.0
  0
ARC
  5
CC
330
1F
100
AcDbEntity
  8
0
  6
Continuous
 62
     7
370
    25
100
AcDbCircle
 10
5.833873508
 20
9.7023194156
 30
0.0
 40
0.2000000000000005
100
AcDbArc
 50
241.1174148316
 51
356.0179374983
  0
ARC
  5
CD
330
1F
100
AcDbEntity
  8
0
  6
Continuous
 62
     7
370
    25
100
AcDbCircle
 10
6.232907844
 20
9.6745417498
 30
0.0
 40
0.2000000000000011
100
AcDbArc
 50
90.0
 51
176.0179374983
  0
LINE
  5
CE
330
1F
100
AcDbEntity
  8
0
  6
Continuous
 62
     7
370
    25
100
AcDbLine
 10
6.232907844
 20
9.8745417498
 30
0.0
 11
7.6496955018
 21
9.8745417498
 31
0.0
  0
ARC
  5
CF
330
1F
100
AcDbEntity
  8
0
  6
Continuous
 62
     7
370
    25
100
AcDbCircle
 10
3.8284577391
 20
8.459784347
 30
0.0
 40
0.2000000000000013
100
AcDbArc
 50
141.3799117912
 51
204.997537098
  0
LINE
  5
D0
330
1F
100
AcDbEntity
  8
0
  6
Continuous
 62
     7
370
    25
100
AcDbLine
 10
5.8369190272
 20
8.4086166232
 30
0.0
 11
3.6471925485
 21
8.3752684864
 31
0.0
  0
ARC
  5
D1
330
1F
100
AcDbEntity
  8
0
  6
Continuous
 62
     7
370
    25
100
AcDbCircle
 10
5.833873508
 20
8.6085934339
 30
0.0
 40
0.2000000000000017
100
AcDbArc
 50
270.8725107055
 51
0.0
  0
LINE
  5
D2
330
1F
100
AcDbEntity
  8
0
  6
Continuous
 62
     7
370
    25
100
AcDbLine
 10
6.033873508
 20
8.6085934339
 30
0.0
 11
6.033873508
 21
8.731569125
 31
0.0
  0
ARC
  5
D3
330
1F
100
AcDbEntity
  8
0
  6
Continuous
 62
     7
370
    25
100
AcDbCircle
 10
5.833873508
 20
8.731569125
 30
0.0
 40
0.2000000000000002
100
AcDbArc
 50
0.0
 51
61.1174148316
  0
LINE
  5
D4
330
1F
100
AcDbEntity
  8
0
  6
Continuous
 62
     7
370
    25
100
AcDbLine
 10
3.5492267614
 20
10.2202678501
 30
0.0
 11
5.9304767614
 21
8.9066914007
 31
0.0
  0
ARC
  5
D5
330
1F
100
AcDbEntity
  8
0
  6
Continuous
 62
     7
370
    25
100
AcDbCircle
 10
3.452623508
 20
10.0451455744
 30
0.0
 40
0.2000000000000011
100
AcDbArc
 50
61.1174148316
 51
180.0
  0
LINE
  5
D6
330
1F
100
AcDbEntity
  8
0
  6
Continuous
 62
     7
370
    25
100
AcDbLine
 10
3.252623508
 20
10.0322796551
 30
0.0
 11
3.252623508
 21
10.0451455744
 31
0.0
  0
ARC
  5
D7
330
1F
100
AcDbEntity
  8
0
  6
Continuous
 62
     7
370
    25
100
AcDbCircle
 10
3.452623508
 20
10.0322796551
 30
0.0
 40
0.2000000000000002
100
AcDbArc
 50
180.0
 51
245.5037209488
  0
ARC
  5
D8
330
1F
100
AcDbEntity
  8
0
  6
Continuous
 62
     7
370
    25
100
AcDbCircle
 10
3.027623508
 20
9.0995417498
 30
0.0
 40
0.8250000000000015
100
AcDbArc
 50
321.3799117912
 51
65.5037209488
  0
ARC
  5
D9
330
1F
100
AcDbEntity
  8
0
  6
Continuous
 62
     7
370
    25
100
AcDbCircle
 10
14.8092699662
 20
9.6444447501
 30
0.0
 40
0.2000000000000093
100
AcDbArc
 50
277.5970414111
 51
47.182557196
  0
ARC
  5
DA
330
1F
100
AcDbEntity
  8
0
  6
Continuous
 62
     7
370
    25
100
AcDbCircle
 10
15.285035218
 20
10.1579108398
 30
0.0
 40
0.5000000000000128
100
AcDbArc
 50
200.5192866722
 51
227.182557196
  0
ARC
  5
DB
330
1F
100
AcDbEntity
  8
0
  6
Continuous
 62
     7
370
    25
100
AcDbCircle
 10
14.6294472424
 20
9.9125449776
 30
0.0
 40
0.2000000000000011
100
AcDbArc
 50
20.5192866722
 51
132.4268885053
  0
LINE
  5
DC
330
1F
100
AcDbEntity
  8
0
  6
Continuous
 62
     7
370
    25
100
AcDbLine
 10
14.1199644143
 20
9.7178363278
 30
0.0
 11
14.4945174694
 21
10.0601727404
 31
0.0
  0
ARC
  5
DD
330
1F
100
AcDbEntity
  8
0
  6
Continuous
 62
     7
370
    25
100
AcDbCircle
 10
14.2548941873
 20
9.570208565
 30
0.0
 40
0.2000000000041554
100
AcDbArc
 50
132.4268885053
 51
277.6599695512
  0
SPLINE
  5
DE
330
1F
100
AcDbEntity
  8
0
  6
Continuous
 62
     7
370
    25
100
AcDbSpline
210
0.0
220
0.0
230
1.0
 70
     8
 71
     3
 72
    11
 73
     7
 74
     0
 42
0.00000001
 43
0.00000001
 40
0.6481961029693138
 40
0.6481961029693138
 40
0.6481961029693138
 40
0.6481961029693138
 40
0.6520988798433948
 40
0.6565556350808772
 40
0.6713345446924556
 40
0.6732859331294959
 40
0.6732859331294959
 40
0.6732859331294959
 40
0.6732859331294959
 10
14.2815529451866
 20
9.371993251195654
 30
0.0
 10
14.31028655117945
 20
9.37585774698133
 30
0.0
 10
14.37183298870676
 20
9.384129357475315
 30
0.0
 10
14.54219090174506
 20
9.40698983922065
 30
0.0
 10
14.69819002764621
 20
9.427854006850822
 30
0.0
 10
14.82134554018686
 20
9.444284268868769
 30
0.0
 10
14.83571100755602
 20
9.446200276458764
 30
0.0
  0
ARC
  5
DF
330
1F
100
AcDbEntity
  8
0
  6
Continuous
 62
     7
370
    25
100
AcDbCircle
 10
18.4757427386
 20
9.9046880561
 30
0.0
 40
0.2000000000000003
100
AcDbArc
 50
268.6299458018
 51
71.377062554
  0
SPLINE
  5
E0
330
1F
100
AcDbEntity
  8
0
  6
Continuous
 62
     7
370
    25
100
AcDbSpline
210
0.0
220
0.0
230
1.0
 70
     8
 71
     3
 72
    14
 73
    10
 74
     0
 42
0.00000001
 43
0.00000001
 40
0.1656411662480757
 40
0.1656411662480757
 40
0.1656411662480757
 40
0.1656411662480757
 40
0.1873399380408777
 40
0.2185632610476907
 40
0.2497865840545037
 40
0.2653982455579101
 40
0.2810099070613166
 40
0.2840212018328168
 40
0.2859726595207425
 40
0.2859726595207425
 40
0.2859726595207425
 40
0.2859726595207425
 10
18.53961048013609
 20
10.09421618482685
 30
0.0
 10
18.38505952796706
 20
10.14629721538028
 30
0.0
 10
18.00618631340809
 20
10.26735839965762
 30
0.0
 10
17.39690342593418
 20
10.43620892425836
 30
0.0
 10
16.82496912502261
 20
10.56648204779479
 30
0.0
 10
16.36485066056097
 20
10.65436645358259
 30
0.0
 10
16.1105593319813
 20
10.69683558595065
 30
0.0
 10
15.95828307128717
 20
10.72008042219371
 30
0.0
 10
15.92156872665136
 20
10.72553045091825
 30
0.0
 10
15.90713121267908
 20
10.72764877472306
 30
0.0
  0
ARC
  5
E1
330
1F
100
AcDbEntity
  8
0
  6
Continuous
 62
     7
370
    25
100
AcDbCircle
 10
15.8780973494
 20
10.5297674093
 30
0.0
 40
0.2000000000000033
100
AcDbArc
 50
81.6529159505
 51
212.0881706695
  0
ARC
  5
E2
330
1F
100
AcDbEntity
  8
0
  6
Continuous
 62
     7
370
    25
100
AcDbCircle
 10
15.285035218
 20
10.1579108398
 30
0.0
 40
0.4999999999999983
100
AcDbArc
 50
327.7385999223
 51
32.0881706695
  0
ARC
  5
E3
330
1F
100
AcDbEntity
  8
0
  6
Continuous
 62
     7
370
    25
100
AcDbCircle
 10
15.8769703606
 20
9.7842628946
 30
0.0
 40
0.1999999999999998
100
AcDbArc
 50
147.7385999223
 51
276.7339681569
  0
SPLINE
  5
E4
330
1F
100
AcDbEntity
  8
0
  6
Continuous
 62
     7
370
    25
100
AcDbSpline
210
0.0
220
0.0
230
1.0
 70
     8
 71
     3
 72
    14
 73
    10
 74
     0
 42
0.00000001
 43
0.00000001
 40
0.7212113086263788
 40
0.7212113086263788
 40
0.7212113086263788
 40
0.7212113086263788
 40
0.7231626970634194
 40
0.7268056188143341
 40
0.7346111725624961
 40
0.7502222800588199
 40
0.7814444950514674
 40
0.812666710044115
 40
0.8340247800743906
 40
0.8340247800743906
 40
0.8340247800743906
 40
0.8340247800743906
 10
15.90042226536766
 20
9.58564263334858
 30
0.0
 10
15.91522657988278
 20
9.58739063917781
 30
0.0
 10
15.95765474070787
 20
9.592336962307597
 30
0.0
 10
16.0591509514704
 20
9.603770617575622
 30
0.0
 10
16.26348728975415
 20
9.625342628912536
 30
0.0
 10
16.67810411389253
 20
9.663059770878943
 30
0.0
 10
17.27092609796824
 20
9.699169432538861
 30
0.0
 10
17.90866902994929
 20
9.712994847122355
 30
0.0
 10
18.30859754996401
 20
9.708628394715234
 30
0.0
 10
18.47096080301172
 20
9.704745231505061
 30
0.0
  0
CIRCLE
  5
E5
330
1F
100
AcDbEntity
  8
0
  6
Continuous
 62
     7
370
    25
100
AcDbCircle
 10
3.027623508
 20
9.0995417498
 30
0.0
 40
0.3750000000000004
  0
CIRCLE
  5
E6
330
1F
100
AcDbEntity
  8
0
  6
Continuous
 62
     7
370
    25
100
AcDbCircle
 10
10.027623508
 20
9.0995417498
 30
0.0
 40
0.3750000000000018
  0
ARC
  5
E7
330
1F
100
AcDbEntity
  8
0
  6
Continuous
 62
     7
370
    25
100
AcDbCircle
 10
23.7257009839
 20
7.6608930883
 30
0.0
 40
0.2000000000000003
100
AcDbArc
 50
173.0342477766
 51
212.5172304208
  0
ARC
  5
E8
330
1F
100
AcDbEntity
  8
0
  6
Continuous
 62
     7
370
    25
100
AcDbCircle
 10
23.1354401051
 20
7.2846058378
 30
0.0
 40
0.5
100
AcDbArc
 50
318.0898278177
 51
32.5172304208
  0
ARC
  5
E9
330
1F
100
AcDbEntity
  8
0
  6
Continuous
 62
     7
370
    25
100
AcDbCircle
 10
23.6563751832
 20
6.8170305558
 30
0.0
 40
0.2000000000000005
100
AcDbArc
 50
138.0898278177
 51
187.4999561413
  0
LINE
  5
EA
330
1F
100
AcDbEntity
  8
0
  6
Continuous
 62
     7
370
    25
100
AcDbLine
 10
23.4943092856
 20
6.5157821219
 30
0.0
 11
23.458086191
 21
6.7909254691
 31
0.0
  0
ARC
  5
EB
330
1F
100
AcDbEntity
  8
0
  6
Continuous
 62
     7
370
    25
100
AcDbCircle
 10
23.2960202933
 20
6.4896770352
 30
0.0
 40
0.2000000000000004
100
AcDbArc
 50
277.4999561413
 51
7.4999561413
  0
LINE
  5
EC
330
1F
100
AcDbEntity
  8
0
  6
Continuous
 62
     7
370
    25
100
AcDbLine
 10
23.2229808838
 20
6.2783354996
 30
0.0
 11
23.32212538
 21
6.291388043
 31
0.0
  0
LINE
  5
ED
330
1F
100
AcDbEntity
  8
0
  6
Continuous
 62
     7
370
    25
100
AcDbLine
 10
23.2099283405
 20
6.3774799958
 30
0.0
 11
23.2229808838
 21
6.2783354996
 31
0.0
  0
LINE
  5
EE
330
1F
100
AcDbEntity
  8
0
  6
Continuous
 62
     7
370
    25
100
AcDbLine
 10
23.0240324103
 20
6.353006477
 30
0.0
 11
23.2099283405
 21
6.3774799958
 31
0.0
  0
LINE
  5
EF
330
1F
100
AcDbEntity
  8
0
  6
Continuous
 62
     7
370
    25
100
AcDbLine
 10
23.048505929
 20
6.1671105468
 30
0.0
 11
23.0240324103
 21
6.353006477
 31
0.0
  0
SPLINE
  5
F0
330
1F
100
AcDbEntity
  8
0
  6
Continuous
 62
     7
370
    25
100
AcDbSpline
210
0.0
220
0.0
230
1.0
 70
     8
 71
     3
 72
    12
 73
     8
 74
     0
 42
0.00000001
 43
0.00000001
 40
0.6279258258439321
 40
0.6279258258439321
 40
0.6279258258439321
 40
0.6279258258439321
 40
0.6312694223607523
 40
0.6460065237480678
 40
0.6606206841728729
 40
0.6750981874935538
 40
0.6870101740385741
 40
0.6870101740385741
 40
0.6870101740385741
 40
0.6870101740385741
 10
21.74469001173879
 20
5.992335491324163
 30
0.0
 10
21.76927991286881
 20
5.995665862867025
 30
0.0
 10
21.90225247343747
 20
6.013666171906941
 30
0.0
 10
22.14271630500945
 20
6.04611963487804
 30
0.0
 10
22.4650984004353
 20
6.089397107023792
 30
0.0
 10
22.76672705548548
 20
6.129684112073972
 30
0.0
 10
22.96086412195831
 20
6.155524189275795
 30
0.0
 10
23.04850592901034
 20
6.167110546787804
 30
0.0
  0
LINE
  5
F1
330
1F
100
AcDbEntity
  8
0
  6
Continuous
 62
     7
370
    25
100
AcDbLine
 10
21.6941636857
 20
6.3640005132
 30
0.0
 11
21.7446900117
 21
5.9923354913
 31
0.0
  0
LINE
  5
F2
330
1F
100
AcDbEntity
  8
0
  6
Continuous
 62
     7
370
    25
100
AcDbLine
 10
21.3225816222
 20
6.313485465
 30
0.0
 11
21.6941636857
 21
6.3640005132
 31
0.0
  0
LINE
  5
F3
330
1F
100
AcDbEntity
  8
0
  6
Continuous
 62
     7
370
    25
100
AcDbLine
 10
21.3730966704
 20
5.9419034015
 30
0.0
 11
21.3225816222
 21
6.313485465
 31
0.0
  0
SPLINE
  5
F4
330
1F
100
AcDbEntity
  8
0
  6
Continuous
 62
     7
370
    25
100
AcDbSpline
210
0.0
220
0.0
230
1.0
 70
     8
 71
     3
 72
    14
 73
    10
 74
     0
 42
0.00000001
 43
0.00000001
 40
0.520465470718606
 40
0.520465470718606
 40
0.520465470718606
 40
0.520465470718606
 40
0.5258873344064182
 40
0.5410783139096876
 40
0.5562472332602322
 40
0.571381784352882
 40
0.5864660404483751
 40
0.6014845156991583
 40
0.6110828024492754
 40
0.6110828024492754
 40
0.6110828024492754
 40
0.6110828024492754
 10
19.37402515597315
 20
5.669530670914678
 30
0.0
 10
19.41389921110832
 20
5.674931844927617
 30
0.0
 10
19.56548984170847
 20
5.695484963537097
 30
0.0
 10
19.82861775920938
 20
5.731293633490714
 30
0.0
 10
20.16315623692895
 20
5.776921336894739
 30
0.0
 10
20.49690751428844
 20
5.822459769191966
 30
0.0
 10
20.8295446755487
 20
5.867904769722299
 30
0.0
 10
21.12148765242804
 20
5.907679071520901
 30
0.0
 10
21.30251252401828
 20
5.932307778077294
 30
0.0
 10
21.37309667040507
 20
5.941903401507109
 30
0.0
  0
LINE
  5
F5
330
1F
100
AcDbEntity
  8
0
  6
Continuous
 62
     7
370
    25
100
AcDbLine
 10
19.348892445
 20
5.8553386278
 30
0.0
 11
19.374025156
 21
5.6695306709
 31
0.0
  0
LINE
  5
F6
330
1F
100
AcDbEntity
  8
0
  6
Continuous
 62
     7
370
    25
100
AcDbLine
 10
19.1630844881
 20
5.8302059168
 30
0.0
 11
19.348892445
 21
5.8553386278
 31
0.0
  0
LINE
  5
F7
330
1F
100
AcDbEntity
  8
0
  6
Continuous
 62
     7
370
    25
100
AcDbLine
 10
19.1630844881
 20
5.8302059168
 30
0.0
 11
19.1882172275
 21
5.6443977495
 31
0.0
  0
SPLINE
  5
F8
330
1F
100
AcDbEntity
  8
0
  6
Continuous
 62
     7
370
    25
100
AcDbSpline
210
0.0
220
0.0
230
1.0
 70
     8
 71
     3
 72
    15
 73
    11
 74
     0
 42
0.00000001
 43
0.00000001
 40
0.4170001598971144
 40
0.4170001598971144
 40
0.4170001598971144
 40
0.4170001598971144
 40
0.420174823355266
 40
0.4351095326124219
 40
0.4501242755491032
 40
0.4652030675528332
 40
0.480333153810538
 40
0.4955005832026954
 40
0.5106897747322421
 40
0.5120439593711981
 40
0.5120439593711981
 40
0.5120439593711981
 40
0.5120439593711981
 10
17.09005909927478
 20
5.369532963607381
 30
0.0
 10
17.11343798258142
 20
5.372454162892296
 30
0.0
 10
17.24679459825661
 20
5.389154316819656
 30
0.0
 10
17.4906727680452
 20
5.420069475958671
 30
0.0
 10
17.82211171098003
 20
5.462752601768679
 30
0.0
 10
18.1548980276828
 20
5.506319074445027
 30
0.0
 10
18.48875182122797
 20
5.550458500633098
 30
0.0
 10
18.82335113385152
 20
5.595207232742631
 30
0.0
 10
19.0565859102088
 20
5.626621296306108
 30
0.0
 10
19.17825763223271
 20
5.643052461139342
 30
0.0
 10
19.18821722752727
 20
5.644397749461207
 30
0.0
  0
LINE
  5
F9
330
1F
100
AcDbEntity
  8
0
  6
Continuous
 62
     7
370
    25
100
AcDbLine
 10
17.0669504168
 20
5.5556034846
 30
0.0
 11
17.0900590993
 21
5.3695329636
 31
0.0
  0
LINE
  5
FA
330
1F
100
AcDbEntity
  8
0
  6
Continuous
 62
     7
370
    25
100
AcDbLine
 10
16.8808798958
 20
5.5324948022
 30
0.0
 11
17.0669504168
 21
5.5556034846
 31
0.0
  0
LINE
  5
FB
330
1F
100
AcDbEntity
  8
0
  6
Continuous
 62
     7
370
    25
100
AcDbLine
 10
16.8808798958
 20
5.5324948022
 30
0.0
 11
16.903988447
 21
5.3464253379
 31
0.0
  0
SPLINE
  5
FC
330
1F
100
AcDbEntity
  8
0
  6
Continuous
 62
     7
370
    25
100
AcDbSpline
210
0.0
220
0.0
230
1.0
 70
     8
 71
     3
 72
    15
 73
    11
 74
     0
 42
0.00000001
 43
0.00000001
 40
0.3173008976357805
 40
0.3173008976357805
 40
0.3173008976357805
 40
0.3173008976357805
 40
0.3189806851177335
 40
0.3329854989238258
 40
0.3471627904008333
 40
0.3614986025989408
 40
0.3759807467343043
 40
0.390597192121319
 40
0.4053325934372969
 40
0.4085786502070922
 40
0.4085786502070922
 40
0.4085786502070922
 40
0.4085786502070922
 10
14.88446007815831
 20
5.119896168261133
 30
0.0
 10
14.89686724288462
 20
5.121111114276271
 30
0.0
 10
15.01271241553775
 20
5.132492792212542
 30
0.0
 10
15.23320488497944
 20
5.154820742079324
 30
0.0
 10
15.54699025155745
 20
5.188113345867658
 30
0.0
 10
15.86414585784403
 20
5.223185092481401
 30
0.0
 10
16.18440190197846
 20
5.259848874412596
 30
0.0
 10
16.50746583114112
 20
5.298038357733718
 30
0.0
 10
16.74762997720318
 20
5.327171762445503
 30
0.0
 10
16.8800792808617
 20
5.343474911121592
 30
0.0
 10
16.90398844700507
 20
5.34642533791674
 30
0.0
  0
LINE
  5
FD
330
1F
100
AcDbEntity
  8
0
  6
Continuous
 62
     7
370
    25
100
AcDbLine
 10
14.850459995
 20
5.4933516467
 30
0.0
 11
14.8844600782
 21
5.1198961683
 31
0.0
  0
LINE
  5
FE
330
1F
100
AcDbEntity
  8
0
  6
Continuous
 62
     7
370
    25
100
AcDbLine
 10
14.4770045166
 20
5.4593515635
 30
0.0
 11
14.850459995
 21
5.4933516467
 31
0.0
  0
LINE
  5
FF
330
1F
100
AcDbEntity
  8
0
  6
Continuous
 62
     7
370
    25
100
AcDbLine
 10
14.5111225833
 20
5.0846001628
 30
0.0
 11
14.4770045166
 21
5.4593515635
 31
0.0
  0
SPLINE
  5
100
330
1F
100
AcDbEntity
  8
0
  6
Continuous
 62
     7
370
    25
100
AcDbSpline
210
0.0
220
0.0
230
1.0
 70
     8
 71
     3
 72
    15
 73
    11
 74
     0
 42
0.00000001
 43
0.00000001
 40
0.2085650349845574
 40
0.2085650349845574
 40
0.2085650349845574
 40
0.2085650349845574
 40
0.2145604781304418
 40
0.2267672493535257
 40
0.239236416912666
 40
0.2519590037406926
 40
0.2649238944848901
 40
0.2781197025559347
 40
0.2915360351420174
 40
0.3004577628980384
 40
0.3004577628980384
 40
0.3004577628980384
 40
0.3004577628980384
 10
12.46986043574528
 20
4.950335336461863
 30
0.0
 10
12.51432953083292
 20
4.951859373745925
 30
0.0
 10
12.64932617793702
 20
4.95683447352652
 30
0.0
 10
12.87673350611499
 20
4.96690206859708
 30
0.0
 10
13.1538957387523
 20
4.981673515025078
 30
0.0
 10
13.43653762746191
 20
4.999149622753507
 30
0.0
 10
13.72441043782478
 20
5.019252939420149
 30
0.0
 10
14.01726421689744
 20
5.041822246513816
 30
0.0
 10
14.280055410077
 20
5.063881896775261
 30
0.0
 10
14.44518285614857
 20
5.078596887036498
 30
0.0
 10
14.51112258332749
 20
5.084600162753469
 30
0.0
  0
LINE
  5
101
330
1F
100
AcDbEntity
  8
0
  6
Continuous
 62
     7
370
    25
100
AcDbLine
 10
12.4641297099
 20
5.1377518592
 30
0.0
 11
12.4698604357
 21
4.9503353365
 31
0.0
  0
LINE
  5
102
330
1F
100
AcDbEntity
  8
0
  6
Continuous
 62
     7
370
    25
100
AcDbLine
 10
12.2767173031
 20
5.1320212592
 30
0.0
 11
12.4641297099
 21
5.1377518592
 31
0.0
  0
LINE
  5
103
330
1F
100
AcDbEntity
  8
0
  6
Continuous
 62
     7
370
    25
100
AcDbLine
 10
12.2767173031
 20
5.1320212592
 30
0.0
 11
12.2824479035
 21
4.9446088524
 31
0.0
  0
LINE
  5
104
330
1F
100
AcDbEntity
  8
0
  6
Continuous
 62
     7
370
    25
100
AcDbLine
 10
10.1183057125
 20
5.2078957444
 30
0.0
 11
10.0931318807
 21
5.0220933543
 31
0.0
  0
LINE
  5
105
330
1F
100
AcDbEntity
  8
0
  6
Continuous
 62
     7
370
    25
100
AcDbLine
 10
9.9325033223
 20
5.2330695762
 30
0.0
 11
10.1183057125
 21
5.2078957444
 31
0.0
  0
LINE
  5
106
330
1F
100
AcDbEntity
  8
0
  6
Continuous
 62
     7
370
    25
100
AcDbLine
 10
9.9073329148
 20
5.0472924595
 30
0.0
 11
9.9325033223
 21
5.2330695762
 31
0.0
  0
SPLINE
  5
107
330
1F
100
AcDbEntity
  8
0
  6
Continuous
 62
     7
370
    25
100
AcDbSpline
210
0.0
220
0.0
230
1.0
 70
     8
 71
     3
 72
    24
 73
    20
 74
     0
 42
0.00000001
 43
0.00000001
 40
0.0039351208712084
 40
0.0039351208712084
 40
0.0039351208712084
 40
0.0039351208712084
 40
0.0072932311171293
 40
0.011028136413859
 40
0.0149010810980465
 40
0.0189632717700928
 40
0.023258475402986
 40
0.0278206260323165
 40
0.0326790824435221
 40
0.0378531598360054
 40
0.0433618746912805
 40
0.0492146790039221
 40
0.0554223461563205
 40
0.06198878599669
 40
0.0689180360680075
 40
0.0762111572779437
 40
0.0838683921994994
 40
0.091887410882707
 40
0.0932399630117017
 40
0.0932399630117017
 40
0.0932399630117017
 40
0.0932399630117017
 10
8.199029693323109
 20
5.891194275168897
 30
0.0
 10
8.2065891627913
 20
5.867455807939415
 30
0.0
 10
8.22645261063473
 20
5.8184682199877
 30
0.0
 10
8.265752425900779
 20
5.747012520081481
 30
0.0
 10
8.31680513828778
 20
5.676772703136414
 30
0.0
 10
8.378207388550667
 20
5.609702383430093
 30
0.0
 10
8.449823563008374
 20
5.545731800266579
 30
0.0
 10
8.531583427950432
 20
5.48489534892149
 30
0.0
 10
8.623379974344424
 20
5.427220716581384
 30
0.0
 10
8.725079853943706
 20
5.372646679481371
 30
0.0
 10
8.83656875617569
 20
5.321207167637445
 30
0.0
 10
8.957745025582227
 20
5.272918256226405
 30
0.0
 10
9.088476637516045
 20
5.227844495287806
 30
0.0
 10
9.228603768961003
 20
5.185917238470663
 30
0.0
 10
9.37799319410789
 20
5.147238659602641
 30
0.0
 10
9.536475042344216
 20
5.111754698226342
 30
0.0
 10
9.703896884096688
 20
5.079555931176082
 30
0.0
 10
9.82861753665285
 20
5.059064320619497
 30
0.0
 10
9.897402585357272
 20
5.048759807173037
 30
0.0
 10
9.90733291475753
 20
5.047292459475643
 30
0.0
  0
LINE
  5
108
330
1F
100
AcDbEntity
  8
0
  6
Continuous
 62
     7
370
    25
100
AcDbLine
 10
8.1990296933
 20
5.8911942752
 30
0.0
 11
8.544280838
 21
5.8911942752
 31
0.0
  0
LINE
  5
109
330
1F
100
AcDbEntity
  8
0
  6
Continuous
 62
     7
370
    25
100
AcDbLine
 10
8.544280838
 20
6.2661942752
 30
0.0
 11
8.544280838
 21
5.8911942752
 31
0.0
  0
LINE
  5
10A
330
1F
100
AcDbEntity
  8
0
  6
Continuous
 62
     7
370
    25
100
AcDbLine
 10
8.1985172159
 20
6.2661942744
 30
0.0
 11
8.544280838
 21
6.2661942752
 31
0.0
  0
SPLINE
  5
10B
330
1F
100
AcDbEntity
  8
0
  6
Continuous
 62
     7
370
    25
100
AcDbSpline
210
0.0
220
0.0
230
1.0
 70
     8
 71
     3
 72
    21
 73
    17
 74
     0
 42
0.00000001
 43
0.00000001
 40
0.913578602285428
 40
0.913578602285428
 40
0.913578602285428
 40
0.913578602285428
 40
0.9186607344498127
 40
0.9261662532257968
 40
0.9333026258827831
 40
0.9400712202263494
 40
0.9464747799611675
 40
0.9525175260177909
 40
0.9582048188585928
 40
0.9635466521340151
 40
0.9685565999026111
 40
0.9732499128166676
 40
0.9776510407515667
 40
0.9817870430140477
 40
0.9856942262062861
 40
0.9873639225097877
 40
0.9873639225097877
 40
0.9873639225097877
 40
0.9873639225097877
 10
9.45758619118361
 20
7.367068893735246
 30
0.0
 10
9.42236463666234
 20
7.349621304339181
 30
0.0
 10
9.335532139095326
 20
7.305587250581722
 30
0.0
 10
9.201223239640095
 20
7.233209494981259
 30
0.0
 10
9.058128602618197
 20
7.14981814296967
 30
0.0
 10
8.9253788840107
 20
7.06580318021352
 30
0.0
 10
8.803029877118822
 20
6.981377715539079
 30
0.0
 10
8.691250267962404
 20
6.89659474006459
 30
0.0
 10
8.590078454469834
 20
6.811668497077627
 30
0.0
 10
8.499578461226141
 20
6.726728307105038
 30
0.0
 10
8.419879649163276
 20
6.641832681693806
 30
0.0
 10
8.35097914964352
 20
6.557131122444129
 30
0.0
 10
8.292967259472455
 20
6.472690710232235
 30
0.0
 10
8.245854043159547
 20
6.388591345713219
 30
0.0
 10
8.216041861428758
 20
6.319487593710326
 30
0.0
 10
8.20229906362982
 20
6.278550773069766
 30
0.0
 10
8.198517215927174
 20
6.266194274401438
 30
0.0
  0
LINE
  5
10C
330
1F
100
AcDbEntity
  8
0
  6
Continuous
 62
     7
370
    25
100
AcDbLine
 10
9.4575861912
 20
7.3670688937
 30
0.0
 11
9.5383953141
 21
7.1978762945
 31
0.0
  0
LINE
  5
10D
330
1F
100
AcDbEntity
  8
0
  6
Continuous
 62
     7
370
    25
100
AcDbLine
 10
9.5383953141
 20
7.1978762945
 30
0.0
 11
9.7075879136
 21
7.278685417
 31
0.0
  0
LINE
  5
10E
330
1F
100
AcDbEntity
  8
0
  6
Continuous
 62
     7
370
    25
100
AcDbLine
 10
9.7075879136
 20
7.278685417
 30
0.0
 11
9.6267787908
 21
7.4478780164
 31
0.0
  0
LINE
  5
10F
330
1F
100
AcDbEntity
  8
0
  6
Continuous
 62
     7
370
    25
100
AcDbLine
 10
10.8028702727
 20
7.8901371035
 30
0.0
 11
10.9019340812
 21
7.5338832054
 31
0.0
  0
LINE
  5
110
330
1F
100
AcDbEntity
  8
0
  6
Continuous
 62
     7
370
    25
100
AcDbLine
 10
10.9019340812
 20
7.5338832054
 30
0.0
 11
11.2632259827
 21
7.6343479352
 31
0.0
  0
LINE
  5
111
330
1F
100
AcDbEntity
  8
0
  6
Continuous
 62
     7
370
    25
100
AcDbLine
 10
11.2632259827
 20
7.6343479352
 30
0.0
 11
11.1627612525
 21
7.9956398366
 31
0.0
  0
SPLINE
  5
112
330
1F
100
AcDbEntity
  8
0
  6
Continuous
 62
     7
370
    25
100
AcDbSpline
210
0.0
220
0.0
230
1.0
 70
     8
 71
     3
 72
    16
 73
    12
 74
     0
 42
0.00000001
 43
0.00000001
 40
0.7462088576025568
 40
0.7462088576025568
 40
0.7462088576025568
 40
0.7462088576025568
 40
0.7521175864591397
 40
0.7647920417814054
 40
0.7772081519207622
 40
0.7893556849316484
 40
0.8012239599679336
 40
0.8128036855342794
 40
0.8240829093538227
 40
0.8350546022887522
 40
0.8351398981997684
 40
0.8351398981997684
 40
0.8351398981997684
 40
0.8351398981997684
 10
13.18034710861492
 20
8.422343793142655
 30
0.0
 10
13.13519280028602
 20
8.415316091597706
 30
0.0
 10
12.99325020427645
 20
8.392767236120184
 30
0.0
 10
12.75685564078168
 20
8.352774382155483
 30
0.0
 10
12.47360646681182
 20
8.300645333682919
 30
0.0
 10
12.19726797778391
 20
8.245578144663716
 30
0.0
 10
11.92814103298037
 20
8.18758718201791
 30
0.0
 10
11.66651051749222
 20
8.126846401323563
 30
0.0
 10
11.41264833356626
 20
8.06346162938656
 30
0.0
 10
11.24578732817452
 20
8.018720676705264
 30
0.0
 10
11.16339681752813
 20
7.995816568662261
 30
0.0
 10
11.16276125250297
 20
7.99563983658425
 30
0.0
  0
LINE
  5
113
330
1F
100
AcDbEntity
  8
0
  6
Continuous
 62
     7
370
    25
100
AcDbLine
 10
13.1803471086
 20
8.4223437931
 30
0.0
 11
13.2083910629
 21
8.2369528909
 31
0.0
  0
LINE
  5
114
330
1F
100
AcDbEntity
  8
0
  6
Continuous
 62
     7
370
    25
100
AcDbLine
 10
13.2083910629
 20
8.2369528909
 30
0.0
 11
13.3937819651
 21
8.2649968452
 31
0.0
  0
LINE
  5
115
330
1F
100
AcDbEntity
  8
0
  6
Continuous
 62
     7
370
    25
100
AcDbLine
 10
13.3937819651
 20
8.2649968452
 30
0.0
 11
13.3657380106
 21
8.4503877474
 31
0.0
  0
SPLINE
  5
116
330
1F
100
AcDbEntity
  8
0
  6
Continuous
 62
     7
370
    25
100
AcDbSpline
210
0.0
220
0.0
230
1.0
 70
     8
 71
     3
 72
    14
 73
    10
 74
     0
 42
0.00000001
 43
0.00000001
 40
0.6471977191416923
 40
0.6471977191416923
 40
0.6471977191416923
 40
0.6471977191416923
 40
0.6571860540028671
 40
0.6713255457791549
 40
0.6852940138169578
 40
0.6990781474144603
 40
0.7126650949455656
 40
0.7260426447110092
 40
0.7381275985622745
 40
0.7381275985622745
 40
0.7381275985622745
 40
0.7381275985622745
 10
15.46357767828251
 20
8.668769015403452
 30
0.0
 10
15.38649339832399
 20
8.663723005396005
 30
0.0
 10
15.20033500730645
 20
8.650825519952553
 30
0.0
 10
14.90660893455539
 20
8.62763848917161
 30
0.0
 10
14.58393717249457
 20
8.598365227912726
 30
0.0
 10
14.26588102666729
 20
8.565750426261179
 30
0.0
 10
13.95279460240826
 20
8.529705376887796
 30
0.0
 10
13.65322292187018
 20
8.491382832555928
 30
0.0
 10
13.45820962129324
 20
8.463975596007165
 30
0.0
 10
13.36573801064865
 20
8.450387747389987
 30
0.0
  0
LINE
  5
117
330
1F
100
AcDbEntity
  8
0
  6
Continuous
 62
     7
370
    25
100
AcDbLine
 10
15.4635776783
 20
8.6687690154
 30
0.0
 11
15.4752558093
 21
8.4816330454
 31
0.0
  0
LINE
  5
118
330
1F
100
AcDbEntity
  8
0
  6
Continuous
 62
     7
370
    25
100
AcDbLine
 10
15.4752558093
 20
8.4816330454
 30
0.0
 11
15.6623917793
 21
8.4933111765
 31
0.0
  0
LINE
  5
119
330
1F
100
AcDbEntity
  8
0
  6
Continuous
 62
     7
370
    25
100
AcDbLine
 10
15.6623917793
 20
8.4933111765
 30
0.0
 11
15.650713648
 21
8.6804471464
 31
0.0
  0
SPLINE
  5
11A
330
1F
100
AcDbEntity
  8
0
  6
Continuous
 62
     7
370
    25
100
AcDbSpline
210
0.0
220
0.0
230
1.0
 70
     8
 71
     3
 72
    14
 73
    10
 74
     0
 42
0.00000001
 43
0.00000001
 40
0.5511452244250064
 40
0.5511452244250064
 40
0.5511452244250064
 40
0.5511452244250064
 40
0.5545829838309861
 40
0.5695295459998657
 40
0.5844034168402927
 40
0.5991909919021363
 40
0.6138768380252426
 40
0.628447474920468
 40
0.6391164527335579
 40
0.6391164527335579
 40
0.6391164527335579
 40
0.6391164527335579
 10
17.69068102199196
 20
8.738394119862456
 30
0.0
 10
17.66409361577943
 20
8.738404887039213
 30
0.0
 10
17.521910411003
 20
8.738312845391853
 30
0.0
 10
17.26469599447076
 20
8.736693748446527
 30
0.0
 10
16.91973944007831
 20
8.731243383572536
 30
0.0
 10
16.57686861949278
 20
8.722450196345822
 30
0.0
 10
16.23644704140864
 20
8.710297775057523
 30
0.0
 10
15.92798665569203
 20
8.696129986611252
 30
0.0
 10
15.73308191636558
 20
8.685337364770826
 30
0.0
 10
15.65071364798268
 20
8.680447146435094
 30
0.0
  0
LINE
  5
11B
330
1F
100
AcDbEntity
  8
0
  6
Continuous
 62
     7
370
    25
100
AcDbLine
 10
17.690681022
 20
8.7383941199
 30
0.0
 11
17.6905284105
 21
8.361549412
 31
0.0
  0
LINE
  5
11C
330
1F
100
AcDbEntity
  8
0
  6
Continuous
 62
     7
370
    25
100
AcDbLine
 10
17.6905284105
 20
8.361549412
 30
0.0
 11
18.0655283797
 21
8.3613975472
 31
0.0
  0
LINE
  5
11D
330
1F
100
AcDbEntity
  8
0
  6
Continuous
 62
     7
370
    25
100
AcDbLine
 10
18.0655283797
 20
8.3613975472
 30
0.0
 11
18.0656802442
 21
8.7363975165
 31
0.0
  0
SPLINE
  5
11E
330
1F
100
AcDbEntity
  8
0
  6
Continuous
 62
     7
370
    25
100
AcDbSpline
210
0.0
220
0.0
230
1.0
 70
     8
 71
     3
 72
    15
 73
    11
 74
     0
 42
0.00000001
 43
0.00000001
 40
0.4314156119256059
 40
0.4314156119256059
 40
0.4314156119256059
 40
0.4314156119256059
 40
0.4341867493871219
 40
0.4491772650868069
 40
0.4642147821671246
 40
0.4792840087649619
 40
0.4943697397811477
 40
0.5094578326361675
 40
0.5245323463196893
 40
0.5349824261914548
 40
0.5349824261914548
 40
0.5349824261914548
 40
0.5349824261914548
 10
20.46644882974392
 20
8.642173297641321
 30
0.0
 10
20.44506472195332
 20
8.643601795093273
 30
0.0
 10
20.30799644026171
 20
8.65266079660008
 30
0.0
 10
20.05480636419359
 20
8.668229324142088
 30
0.0
 10
19.70652886006647
 20
8.686972993700973
 30
0.0
 10
19.35737780737487
 20
8.702989656441584
 30
0.0
 10
19.00771655482259
 20
8.716168953879706
 30
0.0
 10
18.65791639311076
 20
8.726431325460277
 30
0.0
 10
18.34388518398837
 20
8.73294156915538
 30
0.0
 10
18.14649624834866
 20
8.735572571502187
 30
0.0
 10
18.06568024415843
 20
8.73639751648515
 30
0.0
  0
LINE
  5
11F
330
1F
100
AcDbEntity
  8
0
  6
Continuous
 62
     7
370
    25
100
AcDbLine
 10
20.4664488297
 20
8.6421732976
 30
0.0
 11
20.4535683953
 21
8.4551172333
 31
0.0
  0
LINE
  5
120
330
1F
100
AcDbEntity
  8
0
  6
Continuous
 62
     7
370
    25
100
AcDbLine
 10
20.4535683953
 20
8.4551172333
 30
0.0
 11
20.6406254524
 21
8.4422367305
 31
0.0
  0
LINE
  5
121
330
1F
100
AcDbEntity
  8
0
  6
Continuous
 62
     7
370
    25
100
AcDbLine
 10
23.1222462786
 20
8.3906291711
 30
0.0
 11
23.0995070213
 21
8.2045131423
 31
0.0
  0
LINE
  5
122
330
1F
100
AcDbEntity
  8
0
  6
Continuous
 62
     7
370
    25
100
AcDbLine
 10
23.0995070213
 20
8.2045131423
 30
0.0
 11
23.2856230501
 21
8.1817738847
 31
0.0
  0
LINE
  5
123
330
1F
100
AcDbEntity
  8
0
  6
Continuous
 62
     7
370
    25
100
AcDbLine
 10
23.2856230501
 20
8.1817738847
 30
0.0
 11
23.3083240354
 21
8.3675766627
 31
0.0
  0
SPLINE
  5
124
330
1F
100
AcDbEntity
  8
0
  6
Continuous
 62
     7
370
    25
100
AcDbSpline
210
0.0
220
0.0
230
1.0
 70
     8
 71
     3
 72
     8
 73
     4
 74
     0
 42
0.00000001
 43
0.00000001
 40
0.3039978368786453
 40
0.3039978368786453
 40
0.3039978368786453
 40
0.3039978368786453
 40
0.3083424724649536
 40
0.3083424724649536
 40
0.3083424724649536
 40
0.3083424724649536
 10
23.4083395241192
 20
8.35499249939932
 30
0.0
 10
23.37500256899237
 20
8.359201520883177
 30
0.0
 10
23.34166444600853
 20
8.36339901822151
 30
0.0
 10
23.30832403542616
 20
8.367576662745767
 30
0.0
  0
ARC
  5
125
330
1F
100
AcDbEntity
  8
0
  6
Continuous
 62
     7
370
    25
100
AcDbCircle
 10
23.383287028
 20
8.156567772
 30
0.0
 40
0.2000000000000034
100
AcDbArc
 50
353.0342477766
 51
82.8040860347
  0
LINE
  5
126
330
1F
100
AcDbEntity
  8
0
  6
Continuous
 62
     7
370
    25
100
AcDbLine
 10
23.581810792
 20
8.1323125639
 30
0.0
 11
23.5271772199
 21
7.6851482965
 31
0.0
  0
ARC
  5
127
330
1F
100
AcDbEntity
  8
0
  6
Continuous
 62
     7
370
    25
100
AcDbCircle
 10
20.8726010713
 20
6.5297700168
 30
0.0
 40
0.2000000000000726
100
AcDbArc
 50
277.7611357549
 51
61.1174148316
  0
LINE
  5
128
330
1F
100
AcDbEntity
  8
0
  6
Continuous
 62
     7
370
    25
100
AcDbLine
 10
18.3996316485
 20
8.1223537738
 30
0.0
 11
20.9692043246
 21
6.7048922924
 31
0.0
  0
ARC
  5
129
330
1F
100
AcDbEntity
  8
0
  6
Continuous
 62
     7
370
    25
100
AcDbCircle
 10
18.3030283951
 20
7.9472314981
 30
0.0
 40
0.1999999999999998
100
AcDbArc
 50
61.1174148316
 51
180.0
  0
LINE
  5
12A
330
1F
100
AcDbEntity
  8
0
  6
Continuous
 62
     7
370
    25
100
AcDbLine
 10
18.1030283951
 20
7.1589746531
 30
0.0
 11
18.1030283951
 21
7.9472314981
 31
0.0
  0
ARC
  5
12B
330
1F
100
AcDbEntity
  8
0
  6
Continuous
 62
     7
370
    25
100
AcDbCircle
 10
18.3030283951
 20
7.1589746531
 30
0.0
 40
0.2000000000000012
100
AcDbArc
 50
180.0
 51
245.5037209488
  0
ARC
  5
12C
330
1F
100
AcDbEntity
  8
0
  6
Continuous
 62
     7
370
    25
100
AcDbCircle
 10
17.8780283951
 20
6.2262367478
 30
0.0
 40
0.8249999999999992
100
AcDbArc
 50
1.9846926466
 51
65.5037209488
  0
ARC
  5
12D
330
1F
100
AcDbEntity
  8
0
  6
Continuous
 62
     7
370
    25
100
AcDbCircle
 10
18.9024135132
 20
6.2617350546
 30
0.0
 40
0.2000000000000015
100
AcDbArc
 50
181.9846926466
 51
277.6674048107
  0
SPLINE
  5
12E
330
1F
100
AcDbEntity
  8
0
  6
Continuous
 62
     7
370
    25
100
AcDbSpline
210
0.0
220
0.0
230
1.0
 70
     8
 71
     3
 72
    10
 73
     6
 74
     0
 42
0.00000001
 43
0.00000001
 40
0.503022154008895
 40
0.503022154008895
 40
0.503022154008895
 40
0.503022154008895
 40
0.5628889901029348
 40
0.5855934403744916
 40
0.5923747703660249
 40
0.5923747703660249
 40
0.5923747703660249
 40
0.5923747703660249
 10
18.92909799319069
 20
6.063523201979526
 30
0.0
 10
19.36890763539808
 20
6.12273303955605
 30
0.0
 10
19.97580524315705
 20
6.20549345071109
 30
0.0
 10
20.632811859105
 20
6.295227477515069
 30
0.0
 10
20.84972221920349
 20
6.324802808979669
 30
0.0
 10
20.89960977286614
 20
6.331602082828963
 30
0.0
  0
ARC
  5
12F
330
1F
100
AcDbEntity
  8
0
  6
Continuous
 62
     7
370
    25
100
AcDbCircle
 10
22.6596748533
 20
6.7711397481
 30
0.0
 40
0.2000000000000099
100
AcDbArc
 50
277.5970414111
 51
47.182557196
  0
ARC
  5
130
330
1F
100
AcDbEntity
  8
0
  6
Continuous
 62
     7
370
    25
100
AcDbCircle
 10
23.1354401051
 20
7.2846058378
 30
0.0
 40
0.5000000000000097
100
AcDbArc
 50
200.5192866722
 51
227.182557196
  0
ARC
  5
131
330
1F
100
AcDbEntity
  8
0
  6
Continuous
 62
     7
370
    25
100
AcDbCircle
 10
22.4798521295
 20
7.0392399756
 30
0.0
 40
0.2000000000000011
100
AcDbArc
 50
20.5192866722
 51
132.4268885053
  0
LINE
  5
132
330
1F
100
AcDbEntity
  8
0
  6
Continuous
 62
     7
370
    25
100
AcDbLine
 10
21.9703693014
 20
6.8445313258
 30
0.0
 11
22.3449223565
 21
7.1868677384
 31
0.0
  0
ARC
  5
133
330
1F
100
AcDbEntity
  8
0
  6
Continuous
 62
     7
370
    25
100
AcDbCircle
 10
22.1052990744
 20
6.696903563
 30
0.0
 40
0.2000000000041584
100
AcDbArc
 50
132.4268885053
 51
277.6599695512
  0
SPLINE
  5
134
330
1F
100
AcDbEntity
  8
0
  6
Continuous
 62
     7
370
    25
100
AcDbSpline
210
0.0
220
0.0
230
1.0
 70
     8
 71
     3
 72
    11
 73
     7
 74
     0
 42
0.00000001
 43
0.00000001
 40
0.6481961029693138
 40
0.6481961029693138
 40
0.6481961029693138
 40
0.6481961029693138
 40
0.6520988798433948
 40
0.6565556350808772
 40
0.6713345446924556
 40
0.6732859331294959
 40
0.6732859331294959
 40
0.6732859331294959
 40
0.6732859331294959
 10
22.13195783227534
 20
6.49868824918989
 30
0.0
 10
22.16069143826819
 20
6.502552744975565
 30
0.0
 10
22.2222378757955
 20
6.510824355469549
 30
0.0
 10
22.3925957888338
 20
6.533684837214885
 30
0.0
 10
22.54859491473495
 20
6.554549004845057
 30
0.0
 10
22.6717504272756
 20
6.570979266863004
 30
0.0
 10
22.68611589464476
 20
6.572895274452999
 30
0.0
  0
ARC
  5
135
330
1F
100
AcDbEntity
  8
0
  6
Continuous
 62
     7
370
    25
100
AcDbCircle
 10
19.9232686354
 20
8.0242035537
 30
0.0
 40
0.2000000000000016
100
AcDbArc
 50
86.8207118578
 51
241.1174148316
  0
LINE
  5
136
330
1F
100
AcDbEntity
  8
0
  6
Continuous
 62
     7
370
    25
100
AcDbLine
 10
19.826665382
 20
7.849081278
 30
0.0
 11
21.3073369779
 21
7.0322937347
 31
0.0
  0
ARC
  5
137
330
1F
100
AcDbEntity
  8
0
  6
Continuous
 62
     7
370
    25
100
AcDbCircle
 10
21.4039402313
 20
7.2074160103
 30
0.0
 40
0.2000000000000018
100
AcDbArc
 50
241.1174148316
 51
312.4268885054
  0
LINE
  5
138
330
1F
100
AcDbEntity
  8
0
  6
Continuous
 62
     7
370
    25
100
AcDbLine
 10
21.5388700043
 20
7.0597882475
 30
0.0
 11
22.2424767413
 21
7.7028752627
 31
0.0
  0
ARC
  5
139
330
1F
100
AcDbEntity
  8
0
  6
Continuous
 62
     7
370
    25
100
AcDbCircle
 10
22.1075469683
 20
7.8505030255
 30
0.0
 40
0.2000000000000006
100
AcDbArc
 50
312.4268885054
 51
84.1345272799
  0
SPLINE
  5
13A
330
1F
100
AcDbEntity
  8
0
  6
Continuous
 62
     7
370
    25
100
AcDbSpline
210
0.0
220
0.0
230
1.0
 70
     8
 71
     3
 72
    11
 73
     7
 74
     0
 42
0.00000001
 43
0.00000001
 40
0.3575494110876469
 40
0.3575494110876469
 40
0.3575494110876469
 40
0.3575494110876469
 40
0.3746798760817555
 40
0.4059031990885684
 40
0.4371265220953814
 40
0.4533143653489231
 40
0.4533143653489231
 40
0.4533143653489231
 40
0.4533143653489231
 10
22.12798558741856
 20
8.04945594170065
 30
0.0
 10
21.99739768360774
 20
8.062871359173728
 30
0.0
 10
21.6287374358787
 20
8.099278592960351
 30
0.0
 10
21.02123707508936
 20
8.152205529584261
 30
0.0
 10
20.42049596142946
 20
8.195364145029005
 30
0.0
 10
20.05810765438844
 20
8.217022075450526
 30
0.0
 10
19.93436075036552
 20
8.223895729281223
 30
0.0
  0
LINE
  5
13B
330
1F
100
AcDbEntity
  8
0
  6
Continuous
 62
     7
370
    25
100
AcDbLine
 10
16.2842783951
 20
6.6012367478
 30
0.0
 11
16.2842783951
 21
6.3512367478
 31
0.0
  0
LINE
  5
13C
330
1F
100
AcDbEntity
  8
0
  6
Continuous
 62
     7
370
    25
100
AcDbLine
 10
14.2842783951
 20
6.6012367478
 30
0.0
 11
16.2842783951
 21
6.6012367478
 31
0.0
  0
LINE
  5
13D
330
1F
100
AcDbEntity
  8
0
  6
Continuous
 62
     7
370
    25
100
AcDbLine
 10
14.2842783951
 20
6.6012367478
 30
0.0
 11
14.2842783951
 21
6.3512367478
 31
0.0
  0
LINE
  5
13E
330
1F
100
AcDbEntity
  8
0
  6
Continuous
 62
     7
370
    25
100
AcDbLine
 10
14.2842783951
 20
6.3512367478
 30
0.0
 11
16.2842783951
 21
6.3512367478
 31
0.0
  0
ARC
  5
13F
330
1F
100
AcDbEntity
  8
0
  6
Continuous
 62
     7
370
    25
100
AcDbCircle
 10
10.0044901956
 20
5.6899942522
 30
0.0
 40
0.2000000000000007
100
AcDbArc
 50
261.6125656441
 51
31.5446870278
  0
ARC
  5
140
330
1F
100
AcDbEntity
  8
0
  6
Continuous
 62
     7
370
    25
100
AcDbCircle
 10
10.8780283951
 20
6.2262367478
 30
0.0
 40
0.8250000000000007
100
AcDbArc
 50
114.4962790512
 51
211.5446870278
  0
ARC
  5
141
330
1F
100
AcDbEntity
  8
0
  6
Continuous
 62
     7
370
    25
100
AcDbCircle
 10
10.4530283951
 20
7.1589746531
 30
0.0
 40
0.199999999999999
100
AcDbArc
 50
294.4962790512
 51
349.0852697611
  0
ARC
  5
142
330
1F
100
AcDbEntity
  8
0
  6
Continuous
 62
     7
370
    25
100
AcDbCircle
 10
10.4530283951
 20
7.0832354972
 30
0.0
 40
0.2000000000000008
100
AcDbArc
 50
10.9147302389
 51
111.3381887662
  0
SPLINE
  5
143
330
1F
100
AcDbEntity
  8
0
  6
Continuous
 62
     7
370
    25
100
AcDbSpline
210
0.0
220
0.0
230
1.0
 70
     8
 71
     3
 72
     8
 73
     4
 74
     0
 42
0.00000001
 43
0.00000001
 40
0.0587970678286712
 40
0.0587970678286712
 40
0.0587970678286712
 40
0.0587970678286712
 40
1.0
 40
1.0
 40
1.0
 40
1.0
 10
10.38025396701881
 20
7.269525278523255
 30
0.0
 10
8.958048361036793
 20
6.713938177433797
 30
0.0
 10
8.11304467816271
 20
5.766712520679555
 30
0.0
 10
9.975316982411663
 20
5.49213338283305
 30
0.0
  0
ARC
  5
144
330
1F
100
AcDbEntity
  8
0
  6
Continuous
 62
     7
370
    25
100
AcDbCircle
 10
13.6842783951
 20
5.6684086789
 30
0.0
 40
0.2000000000000005
100
AcDbArc
 50
274.2108291377
 51
0.0
  0
LINE
  5
145
330
1F
100
AcDbEntity
  8
0
  6
Continuous
 62
     7
370
    25
100
AcDbLine
 10
13.8842783951
 20
5.6684086789
 30
0.0
 11
13.8842783951
 21
5.858264123
 31
0.0
  0
ARC
  5
146
330
1F
100
AcDbEntity
  8
0
  6
Continuous
 62
     7
370
    25
100
AcDbCircle
 10
13.6842783951
 20
5.858264123
 30
0.0
 40
0.2000000000000001
100
AcDbArc
 50
0.0
 51
61.1174148316
  0
LINE
  5
147
330
1F
100
AcDbEntity
  8
0
  6
Continuous
 62
     7
370
    25
100
AcDbLine
 10
11.3996316485
 20
7.3469628481
 30
0.0
 11
13.7808816485
 21
6.0333863987
 31
0.0
  0
ARC
  5
148
330
1F
100
AcDbEntity
  8
0
  6
Continuous
 62
     7
370
    25
100
AcDbCircle
 10
11.3030283951
 20
7.1718405724
 30
0.0
 40
0.1999999999999993
100
AcDbArc
 50
61.1174148316
 51
180.0
  0
LINE
  5
149
330
1F
100
AcDbEntity
  8
0
  6
Continuous
 62
     7
370
    25
100
AcDbLine
 10
11.1030283951
 20
7.1589746531
 30
0.0
 11
11.1030283951
 21
7.1718405724
 31
0.0
  0
ARC
  5
14A
330
1F
100
AcDbEntity
  8
0
  6
Continuous
 62
     7
370
    25
100
AcDbCircle
 10
11.3030283951
 20
7.1589746531
 30
0.0
 40
0.2000000000000005
100
AcDbArc
 50
180.0
 51
245.5037209488
  0
ARC
  5
14B
330
1F
100
AcDbEntity
  8
0
  6
Continuous
 62
     7
370
    25
100
AcDbCircle
 10
10.8780283951
 20
6.2262367478
 30
0.0
 40
0.8250000000000007
100
AcDbArc
 50
321.3799117912
 51
65.5037209488
  0
ARC
  5
14C
330
1F
100
AcDbEntity
  8
0
  6
Continuous
 62
     7
370
    25
100
AcDbCircle
 10
11.6788626261
 20
5.586479345
 30
0.0
 40
0.2000000000000007
100
AcDbArc
 50
141.3799117912
 51
269.9405706167
  0
SPLINE
  5
14D
330
1F
100
AcDbEntity
  8
0
  6
Continuous
 62
     7
370
    25
100
AcDbSpline
210
0.0
220
0.0
230
1.0
 70
     8
 71
     3
 72
    12
 73
     8
 74
     0
 42
0.00000001
 43
0.00000001
 40
0.1730002194696571
 40
0.1730002194696571
 40
0.1730002194696571
 40
0.1730002194696571
 40
0.1808057732178189
 40
0.1886113269659808
 40
0.219444625183812
 40
0.2506668401764595
 40
0.2653438797721265
 40
0.2653438797721265
 40
0.2653438797721265
 40
0.2653438797721265
 10
11.67865517849896
 20
5.386479452614876
 30
0.0
 10
11.73523310451728
 20
5.386420767795758
 30
0.0
 10
11.84848106495311
 20
5.386813409778107
 30
0.0
 10
12.18589831934238
 20
5.390839714122075
 30
0.0
 10
12.69501237787555
 20
5.406678341983507
 30
0.0
 10
13.25574709644436
 20
5.437691650874755
 30
0.0
 10
13.59155519270976
 20
5.461040554866952
 30
0.0
 10
13.6989637335502
 20
5.468948555472668
 30
0.0
  0
LINE
  5
14E
330
1F
100
AcDbEntity
  8
0
  6
Continuous
 62
     7
370
    25
100
AcDbLine
 10
17.6530283951
 20
7.8346415415
 30
0.0
 11
17.6530283951
 21
7.2012367478
 31
0.0
  0
ARC
  5
14F
330
1F
100
AcDbEntity
  8
0
  6
Continuous
 62
     7
370
    25
100
AcDbCircle
 10
17.4530283951
 20
7.8346415415
 30
0.0
 40
0.2000000000000004
100
AcDbArc
 50
0.0
 51
132.4268885054
  0
LINE
  5
150
330
1F
100
AcDbEntity
  8
0
  6
Continuous
 62
     7
370
    25
100
AcDbLine
 10
16.6250852824
 20
7.3488645106
 30
0.0
 11
17.318098622
 21
7.9822693043
 31
0.0
  0
ARC
  5
151
330
1F
100
AcDbEntity
  8
0
  6
Continuous
 62
     7
370
    25
100
AcDbCircle
 10
16.7600150554
 20
7.2012367478
 30
0.0
 40
0.2000000000000002
100
AcDbArc
 50
132.4268885054
 51
270.0
  0
LINE
  5
152
330
1F
100
AcDbEntity
  8
0
  6
Continuous
 62
     7
370
    25
100
AcDbLine
 10
16.7600150554
 20
7.0012367478
 30
0.0
 11
17.4530283951
 21
7.0012367478
 31
0.0
  0
ARC
  5
153
330
1F
100
AcDbEntity
  8
0
  6
Continuous
 62
     7
370
    25
100
AcDbCircle
 10
17.4530283951
 20
7.2012367478
 30
0.0
 40
0.2000000000000002
100
AcDbArc
 50
270.0
 51
0.0
  0
ARC
  5
154
330
1F
100
AcDbEntity
  8
0
  6
Continuous
 62
     7
370
    25
100
AcDbCircle
 10
15.5001003889
 20
7.2012367478
 30
0.0
 40
0.2000000000000002
100
AcDbArc
 50
270.0
 51
312.4268885054
  0
LINE
  5
155
330
1F
100
AcDbEntity
  8
0
  6
Continuous
 62
     7
370
    25
100
AcDbLine
 10
15.635030162
 20
7.053608985
 30
0.0
 11
16.5825816379
 21
7.9196581831
 31
0.0
  0
ARC
  5
156
330
1F
100
AcDbEntity
  8
0
  6
Continuous
 62
     7
370
    25
100
AcDbCircle
 10
16.4476518648
 20
8.0672859459
 30
0.0
 40
0.2000000000000007
100
AcDbArc
 50
312.4268885054
 51
92.0132512402
  0
SPLINE
  5
157
330
1F
100
AcDbEntity
  8
0
  6
Continuous
 62
     7
370
    25
100
AcDbSpline
210
0.0
220
0.0
230
1.0
 70
     8
 71
     3
 72
    12
 73
     8
 74
     0
 42
0.00000001
 43
0.00000001
 40
0.6057153507230046
 40
0.6057153507230046
 40
0.6057153507230046
 40
0.6057153507230046
 40
0.6244664601362591
 40
0.686913106149885
 40
0.7493597521635109
 40
0.7805830751703239
 40
0.7911832058696918
 40
0.7911832058696918
 40
0.7911832058696918
 40
0.7911832058696918
 10
16.44062573831099
 20
8.267162491677036
 30
0.0
 10
16.29764038991217
 20
8.262136223357542
 30
0.0
 10
15.67878622327904
 20
8.236353533307971
 30
0.0
 10
14.58713182412136
 20
8.15867602283395
 30
0.0
 10
13.41054976127415
 20
8.01142418398774
 30
0.0
 10
12.63371958682829
 20
7.874489761667206
 30
0.0
 10
12.32444662997462
 20
7.811777772249112
 30
0.0
 10
12.24622873145626
 20
7.795358135003458
 30
0.0
  0
ARC
  5
158
330
1F
100
AcDbEntity
  8
0
  6
Continuous
 62
     7
370
    25
100
AcDbCircle
 10
12.2873175068
 20
7.5996243552
 30
0.0
 40
0.2000000000000005
100
AcDbArc
 50
101.855484399
 51
241.1174148316
  0
LINE
  5
159
330
1F
100
AcDbEntity
  8
0
  6
Continuous
 62
     7
370
    25
100
AcDbLine
 10
12.1907142534
 20
7.4245020796
 30
0.0
 11
13.5876751417
 21
6.6538921379
 31
0.0
  0
ARC
  5
15A
330
1F
100
AcDbEntity
  8
0
  6
Continuous
 62
     7
370
    25
100
AcDbCircle
 10
13.6842783951
 20
6.8290144136
 30
0.0
 40
0.2000000000000009
100
AcDbArc
 50
241.1174148316
 51
356.0179374983
  0
ARC
  5
15B
330
1F
100
AcDbEntity
  8
0
  6
Continuous
 62
     7
370
    25
100
AcDbCircle
 10
14.083312731
 20
6.8012367478
 30
0.0
 40
0.2000000000000005
100
AcDbArc
 50
90.0
 51
176.0179374983
  0
LINE
  5
15C
330
1F
100
AcDbEntity
  8
0
  6
Continuous
 62
     7
370
    25
100
AcDbLine
 10
14.083312731
 20
7.0012367478
 30
0.0
 11
15.5001003889
 21
7.0012367478
 31
0.0
  0
CIRCLE
  5
15D
330
1F
100
AcDbEntity
  8
0
  6
Continuous
 62
     7
370
    25
100
AcDbCircle
 10
10.8780283951
 20
6.2262367478
 30
0.0
 40
0.375
  0
CIRCLE
  5
15E
330
1F
100
AcDbEntity
  8
0
  6
Continuous
 62
     7
370
    25
100
AcDbCircle
 10
17.8780283951
 20
6.2262367478
 30
0.0
 40
0.375
  0
CIRCLE
  5
15F
330
1F
100
AcDbEntity
  8
0
  6
Continuous
 62
     7
370
    25
100
AcDbCircle
 10
23.1354401051
 20
7.2846058378
 30
0.0
 40
0.2500000000000036
  0
SPLINE
  5
160
330
1F
100
AcDbEntity
  8
0
  6
Continuous
 62
     7
370
    25
100
AcDbSpline
210
0.0
220
0.0
230
1.0
 70
     8
 71
     3
 72
    14
 73
    10
 74
     0
 42
0.00000001
 43
0.00000001
 40
0.8513043678676254
 40
0.8513043678676254
 40
0.8513043678676254
 40
0.8513043678676254
 40
0.8560378532405389
 40
0.8660338344886196
 40
0.8756888427883988
 40
0.8849977189913464
 40
0.8939534257020234
 40
0.9025528972589622
 40
0.9054973013061784
 40
0.9054973013061784
 40
0.9054973013061784
 40
0.9054973013061784
 10
10.80287027268016
 20
7.890137103469018
 30
0.0
 10
10.76789304174818
 20
7.87932944616083
 30
0.0
 10
10.65920227657471
 20
7.845213718352235
 30
0.0
 10
10.4800945671002
 20
7.786134169738274
 30
0.0
 10
10.26885621522463
 20
7.711637334884934
 30
0.0
 10
10.06684134630214
 20
7.635331365292044
 30
0.0
 10
9.874204709599448
 20
7.557451337580415
 30
0.0
 10
9.728727764828564
 20
7.49438462292261
 30
0.0
 10
9.647461012240028
 20
7.45740859366488
 30
0.0
 10
9.626778790750413
 20
7.447878016391274
 30
0.0
  0
SPLINE
  5
161
330
1F
100
AcDbEntity
  8
0
  6
Continuous
 62
     7
370
    25
100
AcDbSpline
210
0.0
220
0.0
230
1.0
 70
     8
 71
     3
 72
    17
 73
    13
 74
     0
 42
0.00000001
 43
0.00000001
 40
0.1016614720720251
 40
0.1016614720720251
 40
0.1016614720720251
 40
0.1016614720720251
 40
0.1089998674022309
 40
0.118084529462581
 40
0.127514842657726
 40
0.1372852704325623
 40
0.1473879174712405
 40
0.1578164805284356
 40
0.1685634728403947
 40
0.1796191282126914
 40
0.1909773731687989
 40
0.2001435402442482
 40
0.2001435402442482
 40
0.2001435402442482
 40
0.2001435402442482
 10
10.09313188070441
 20
5.022093354264467
 30
0.0
 10
10.14718024905921
 20
5.015387587394541
 30
0.0
 10
10.26828040556301
 20
5.001527552985359
 30
0.0
 10
10.45930325953418
 20
4.983381753699121
 30
0.0
 10
10.6686337591485
 20
4.96751498765468
 30
0.0
 10
10.88575188593694
 20
4.954896234885162
 30
0.0
 10
11.11044688723256
 20
4.945485482586538
 30
0.0
 10
11.34250352889481
 20
4.939318505296476
 30
0.0
 10
11.58169453792787
 20
4.936299160079485
 30
0.0
 10
11.82780375261619
 20
4.936382118509838
 30
0.0
 10
12.0621607551216
 20
4.939355726789296
 30
0.0
 10
12.21444548294211
 20
4.942789378067665
 30
0.0
 10
12.28244790345737
 20
4.944608852421577
 30
0.0
  0
SPLINE
  5
162
330
1F
100
AcDbEntity
  8
0
  6
Continuous
 62
     7
370
    25
100
AcDbSpline
210
0.0
220
0.0
230
1.0
 70
     8
 71
     3
 72
    16
 73
    12
 74
     0
 42
0.00000001
 43
0.00000001
 40
0.3164238124056181
 40
0.3164238124056181
 40
0.3164238124056181
 40
0.3164238124056181
 40
0.3176892265558903
 40
0.331784111124987
 40
0.346039676653823
 40
0.3604438694916348
 40
0.3749827204038077
 40
0.3896404543545233
 40
0.4044033165867775
 40
0.4192566006634758
 40
0.4233343287137741
 40
0.4233343287137741
 40
0.4233343287137741
 40
0.4233343287137741
 10
23.1222462785834
 20
8.3906291711062
 30
0.0
 10
23.11253197738657
 20
8.3918160436124
 30
0.0
 10
22.99460990182403
 20
8.4061865645625
 30
0.0
 10
22.76713367723999
 20
8.432983788575704
 30
0.0
 10
22.43850609421637
 20
8.469609282875359
 30
0.0
 10
22.10622665072093
 20
8.504408419038954
 30
0.0
 10
21.77062494124754
 20
8.537272379667824
 30
0.0
 10
21.43204071355122
 20
8.56805932797458
 30
0.0
 10
21.0908258189666
 20
8.596678979069637
 30
0.0
 10
20.83099805384775
 20
8.616564316267281
 30
0.0
 10
20.68496387325428
 20
8.62706392099958
 30
0.0
 10
20.65350595493098
 20
8.62929378769564
 30
0.0
  0
LINE
  5
163
330
1F
100
AcDbEntity
  8
0
  6
Continuous
 62
     7
370
    25
100
AcDbLine
 10
20.6406254524
 20
8.4422367305
 30
0.0
 11
20.6535059549
 21
8.6292937877
 31
0.0
  0
ARC
  5
164
330
1F
100
AcDbEntity
  8
0
  6
Continuous
 62
     7
370
    25
100
AcDbCircle
 10
23.5888769362
 20
3.4041449372
 30
0.0
 40
0.1999999999999967
100
AcDbArc
 50
173.0342477766
 51
212.5172304208
  0
ARC
  5
165
330
1F
100
AcDbEntity
  8
0
  6
Continuous
 62
     7
370
    25
100
AcDbCircle
 10
22.9986160574
 20
3.0278576866
 30
0.0
 40
0.5000000000000028
100
AcDbArc
 50
318.0898278177
 51
32.5172304208
  0
ARC
  5
166
330
1F
100
AcDbEntity
  8
0
  6
Continuous
 62
     7
370
    25
100
AcDbCircle
 10
23.5195511355
 20
2.5602824046
 30
0.0
 40
0.2000000000000005
100
AcDbArc
 50
138.0898278177
 51
187.4999561413
  0
LINE
  5
167
330
1F
100
AcDbEntity
  8
0
  6
Continuous
 62
     7
370
    25
100
AcDbLine
 10
23.3574852379
 20
2.2590339708
 30
0.0
 11
23.3212621433
 21
2.534177318
 31
0.0
  0
ARC
  5
168
330
1F
100
AcDbEntity
  8
0
  6
Continuous
 62
     7
370
    25
100
AcDbCircle
 10
23.1591962456
 20
2.2329288841
 30
0.0
 40
0.2000000000000003
100
AcDbArc
 50
277.4999561413
 51
7.4999561413
  0
LINE
  5
169
330
1F
100
AcDbEntity
  8
0
  6
Continuous
 62
     7
370
    25
100
AcDbLine
 10
23.0861568361
 20
2.0215873485
 30
0.0
 11
23.1853013323
 21
2.0346398919
 31
0.0
  0
LINE
  5
16A
330
1F
100
AcDbEntity
  8
0
  6
Continuous
 62
     7
370
    25
100
AcDbLine
 10
23.0731042928
 20
2.1207318447
 30
0.0
 11
23.0861568361
 21
2.0215873485
 31
0.0
  0
LINE
  5
16B
330
1F
100
AcDbEntity
  8
0
  6
Continuous
 62
     7
370
    25
100
AcDbLine
 10
22.8872083626
 20
2.0962583259
 30
0.0
 11
23.0731042928
 21
2.1207318447
 31
0.0
  0
LINE
  5
16C
330
1F
100
AcDbEntity
  8
0
  6
Continuous
 62
     7
370
    25
100
AcDbLine
 10
22.9116818813
 20
1.9103623957
 30
0.0
 11
22.8872083626
 21
2.0962583259
 31
0.0
  0
SPLINE
  5
16D
330
1F
100
AcDbEntity
  8
0
  6
Continuous
 62
     7
370
    25
100
AcDbSpline
210
0.0
220
0.0
230
1.0
 70
     8
 71
     3
 72
    12
 73
     8
 74
     0
 42
0.00000001
 43
0.00000001
 40
0.6279258258439321
 40
0.6279258258439321
 40
0.6279258258439321
 40
0.6279258258439321
 40
0.6312694223607523
 40
0.6460065237480678
 40
0.6606206841728729
 40
0.6750981874935538
 40
0.6870101740385741
 40
0.6870101740385741
 40
0.6870101740385741
 40
0.6870101740385741
 10
21.60786596402423
 20
1.735587340204513
 30
0.0
 10
21.63245586515425
 20
1.738917711747374
 30
0.0
 10
21.76542842572292
 20
1.75691802078729
 30
0.0
 10
22.00589225729489
 20
1.789371483758389
 30
0.0
 10
22.32827435272074
 20
1.832648955904142
 30
0.0
 10
22.62990300777092
 20
1.872935960954322
 30
0.0
 10
22.82404007424375
 20
1.898776038156145
 30
0.0
 10
22.91168188129578
 20
1.910362395668153
 30
0.0
  0
LINE
  5
16E
330
1F
100
AcDbEntity
  8
0
  6
Continuous
 62
     7
370
    25
100
AcDbLine
 10
21.557339638
 20
2.107252362
 30
0.0
 11
21.607865964
 21
1.7355873402
 31
0.0
  0
LINE
  5
16F
330
1F
100
AcDbEntity
  8
0
  6
Continuous
 62
     7
370
    25
100
AcDbLine
 10
21.1857575745
 20
2.0567373139
 30
0.0
 11
21.557339638
 21
2.107252362
 31
0.0
  0
LINE
  5
170
330
1F
100
AcDbEntity
  8
0
  6
Continuous
 62
     7
370
    25
100
AcDbLine
 10
21.2362726227
 20
1.6851552504
 30
0.0
 11
21.1857575745
 21
2.0567373139
 31
0.0
  0
SPLINE
  5
171
330
1F
100
AcDbEntity
  8
0
  6
Continuous
 62
     7
370
    25
100
AcDbSpline
210
0.0
220
0.0
230
1.0
 70
     8
 71
     3
 72
    14
 73
    10
 74
     0
 42
0.00000001
 43
0.00000001
 40
0.520465470718606
 40
0.520465470718606
 40
0.520465470718606
 40
0.520465470718606
 40
0.5258873344064182
 40
0.5410783139096876
 40
0.5562472332602322
 40
0.571381784352882
 40
0.5864660404483751
 40
0.6014845156991583
 40
0.6110828024492754
 40
0.6110828024492754
 40
0.6110828024492754
 40
0.6110828024492754
 10
19.23720110825859
 20
1.412782519795028
 30
0.0
 10
19.27707516339375
 20
1.418183693807967
 30
0.0
 10
19.4286657939939
 20
1.438736812417446
 30
0.0
 10
19.69179371149481
 20
1.474545482371063
 30
0.0
 10
20.02633218921439
 20
1.520173185775089
 30
0.0
 10
20.36008346657388
 20
1.565711618072316
 30
0.0
 10
20.69272062783414
 20
1.611156618602649
 30
0.0
 10
20.98466360471348
 20
1.650930920401251
 30
0.0
 10
21.16568847630372
 20
1.675559626957643
 30
0.0
 10
21.23627262269051
 20
1.685155250387459
 30
0.0
  0
LINE
  5
172
330
1F
100
AcDbEntity
  8
0
  6
Continuous
 62
     7
370
    25
100
AcDbLine
 10
19.2120683973
 20
1.5985904767
 30
0.0
 11
19.2372011083
 21
1.4127825198
 31
0.0
  0
LINE
  5
173
330
1F
100
AcDbEntity
  8
0
  6
Continuous
 62
     7
370
    25
100
AcDbLine
 10
19.0262604404
 20
1.5734577657
 30
0.0
 11
19.2120683973
 21
1.5985904767
 31
0.0
  0
LINE
  5
174
330
1F
100
AcDbEntity
  8
0
  6
Continuous
 62
     7
370
    25
100
AcDbLine
 10
19.0262604404
 20
1.5734577657
 30
0.0
 11
19.0513931798
 21
1.3876495983
 31
0.0
  0
SPLINE
  5
175
330
1F
100
AcDbEntity
  8
0
  6
Continuous
 62
     7
370
    25
100
AcDbSpline
210
0.0
220
0.0
230
1.0
 70
     8
 71
     3
 72
    15
 73
    11
 74
     0
 42
0.00000001
 43
0.00000001
 40
0.4170001598971144
 40
0.4170001598971144
 40
0.4170001598971144
 40
0.4170001598971144
 40
0.420174823355266
 40
0.4351095326124219
 40
0.4501242755491032
 40
0.4652030675528332
 40
0.480333153810538
 40
0.4955005832026954
 40
0.5106897747322421
 40
0.5120439593711981
 40
0.5120439593711981
 40
0.5120439593711981
 40
0.5120439593711981
 10
16.95323505156022
 20
1.112784812487731
 30
0.0
 10
16.97661393486686
 20
1.115706011772646
 30
0.0
 10
17.10997055054205
 20
1.132406165700006
 30
0.0
 10
17.35384872033064
 20
1.163321324839021
 30
0.0
 10
17.68528766326547
 20
1.206004450649029
 30
0.0
 10
18.01807397996825
 20
1.249570923325376
 30
0.0
 10
18.35192777351341
 20
1.293710349513447
 30
0.0
 10
18.68652708613696
 20
1.33845908162298
 30
0.0
 10
18.91976186249424
 20
1.369873145186458
 30
0.0
 10
19.04143358451815
 20
1.386304310019692
 30
0.0
 10
19.05139317981271
 20
1.387649598341556
 30
0.0
  0
LINE
  5
176
330
1F
100
AcDbEntity
  8
0
  6
Continuous
 62
     7
370
    25
100
AcDbLine
 10
16.9301263691
 20
1.2988553335
 30
0.0
 11
16.9532350516
 21
1.1127848125
 31
0.0
  0
LINE
  5
177
330
1F
100
AcDbEntity
  8
0
  6
Continuous
 62
     7
370
    25
100
AcDbLine
 10
16.7440558481
 20
1.2757466511
 30
0.0
 11
16.9301263691
 21
1.2988553335
 31
0.0
  0
LINE
  5
178
330
1F
100
AcDbEntity
  8
0
  6
Continuous
 62
     7
370
    25
100
AcDbLine
 10
16.7440558481
 20
1.2757466511
 30
0.0
 11
16.7671643993
 21
1.0896771868
 31
0.0
  0
SPLINE
  5
179
330
1F
100
AcDbEntity
  8
0
  6
Continuous
 62
     7
370
    25
100
AcDbSpline
210
0.0
220
0.0
230
1.0
 70
     8
 71
     3
 72
    15
 73
    11
 74
     0
 42
0.00000001
 43
0.00000001
 40
0.3173008976357805
 40
0.3173008976357805
 40
0.3173008976357805
 40
0.3173008976357805
 40
0.3189806851177335
 40
0.3329854989238258
 40
0.3471627904008333
 40
0.3614986025989408
 40
0.3759807467343043
 40
0.390597192121319
 40
0.4053325934372969
 40
0.4085786502070922
 40
0.4085786502070922
 40
0.4085786502070922
 40
0.4085786502070922
 10
14.74763603044375
 20
0.8631480171414821
 30
0.0
 10
14.76004319517006
 20
0.8643629631566213
 30
0.0
 10
14.87588836782319
 20
0.8757446410928907
 30
0.0
 10
15.09638083726488
 20
0.8980725909596733
 30
0.0
 10
15.41016620384289
 20
0.9313651947480084
 30
0.0
 10
15.72732181012947
 20
0.9664369413617515
 30
0.0
 10
16.0475778542639
 20
1.003100723292945
 30
0.0
 10
16.37064178342656
 20
1.041290206614068
 30
0.0
 10
16.61080592948861
 20
1.070423611325852
 30
0.0
 10
16.74325523314714
 20
1.086726760001941
 30
0.0
 10
16.76716439929051
 20
1.08967718679709
 30
0.0
  0
LINE
  5
17A
330
1F
100
AcDbEntity
  8
0
  6
Continuous
 62
     7
370
    25
100
AcDbLine
 10
14.7136359473
 20
1.2366034955
 30
0.0
 11
14.7476360304
 21
0.8631480171
 31
0.0
  0
LINE
  5
17B
330
1F
100
AcDbEntity
  8
0
  6
Continuous
 62
     7
370
    25
100
AcDbLine
 10
14.3401804689
 20
1.2026034124
 30
0.0
 11
14.7136359473
 21
1.2366034955
 31
0.0
  0
LINE
  5
17C
330
1F
100
AcDbEntity
  8
0
  6
Continuous
 62
     7
370
    25
100
AcDbLine
 10
14.3742985356
 20
0.8278520116
 30
0.0
 11
14.3401804689
 21
1.2026034124
 31
0.0
  0
SPLINE
  5
17D
330
1F
100
AcDbEntity
  8
0
  6
Continuous
 62
     7
370
    25
100
AcDbSpline
210
0.0
220
0.0
230
1.0
 70
     8
 71
     3
 72
    15
 73
    11
 74
     0
 42
0.00000001
 43
0.00000001
 40
0.2085650349845574
 40
0.2085650349845574
 40
0.2085650349845574
 40
0.2085650349845574
 40
0.2145604781304418
 40
0.2267672493535257
 40
0.239236416912666
 40
0.2519590037406926
 40
0.2649238944848901
 40
0.2781197025559347
 40
0.2915360351420174
 40
0.3004577628980384
 40
0.3004577628980384
 40
0.3004577628980384
 40
0.3004577628980384
 10
12.33303638803072
 20
0.6935871853422125
 30
0.0
 10
12.37750548311836
 20
0.6951112226262742
 30
0.0
 10
12.51250213022246
 20
0.7000863224068699
 30
0.0
 10
12.73990945840043
 20
0.7101539174774306
 30
0.0
 10
13.01707169103774
 20
0.7249253639054275
 30
0.0
 10
13.29971357974735
 20
0.7424014716338556
 30
0.0
 10
13.58758639011022
 20
0.7625047883004991
 30
0.0
 10
13.88044016918288
 20
0.7850740953941654
 30
0.0
 10
14.14323136236244
 20
0.8071337456556101
 30
0.0
 10
14.30835880843401
 20
0.8218487359168472
 30
0.0
 10
14.37429853561293
 20
0.8278520116338186
 30
0.0
  0
LINE
  5
17E
330
1F
100
AcDbEntity
  8
0
  6
Continuous
 62
     7
370
    25
100
AcDbLine
 10
12.3273056622
 20
0.8810037081
 30
0.0
 11
12.333036388
 21
0.6935871853
 31
0.0
  0
LINE
  5
17F
330
1F
100
AcDbEntity
  8
0
  6
Continuous
 62
     7
370
    25
100
AcDbLine
 10
12.1398932554
 20
0.8752731081
 30
0.0
 11
12.3273056622
 21
0.8810037081
 31
0.0
  0
LINE
  5
180
330
1F
100
AcDbEntity
  8
0
  6
Continuous
 62
     7
370
    25
100
AcDbLine
 10
12.1398932554
 20
0.8752731081
 30
0.0
 11
12.1456238557
 21
0.6878607013
 31
0.0
  0
LINE
  5
181
330
1F
100
AcDbEntity
  8
0
  6
Continuous
 62
     7
370
    25
100
AcDbLine
 10
9.9814816648
 20
0.9511475933
 30
0.0
 11
9.956307833
 21
0.7653452031
 31
0.0
  0
LINE
  5
182
330
1F
100
AcDbEntity
  8
0
  6
Continuous
 62
     7
370
    25
100
AcDbLine
 10
9.7956792746
 20
0.9763214251
 30
0.0
 11
9.9814816648
 21
0.9511475933
 31
0.0
  0
LINE
  5
183
330
1F
100
AcDbEntity
  8
0
  6
Continuous
 62
     7
370
    25
100
AcDbLine
 10
9.770508867
 20
0.7905443084
 30
0.0
 11
9.7956792746
 21
0.9763214251
 31
0.0
  0
SPLINE
  5
184
330
1F
100
AcDbEntity
  8
0
  6
Continuous
 62
     7
370
    25
100
AcDbSpline
210
0.0
220
0.0
230
1.0
 70
     8
 71
     3
 72
    24
 73
    20
 74
     0
 42
0.00000001
 43
0.00000001
 40
0.0039351208712084
 40
0.0039351208712084
 40
0.0039351208712084
 40
0.0039351208712084
 40
0.0072932311171293
 40
0.011028136413859
 40
0.0149010810980465
 40
0.0189632717700928
 40
0.023258475402986
 40
0.0278206260323165
 40
0.0326790824435221
 40
0.0378531598360054
 40
0.0433618746912805
 40
0.0492146790039221
 40
0.0554223461563205
 40
0.06198878599669
 40
0.0689180360680075
 40
0.0762111572779437
 40
0.0838683921994994
 40
0.091887410882707
 40
0.0932399630117017
 40
0.0932399630117017
 40
0.0932399630117017
 40
0.0932399630117017
 10
8.062205645608548
 20
1.634446124049246
 30
0.0
 10
8.06976511507674
 20
1.610707656819765
 30
0.0
 10
8.08962856292017
 20
1.56172006886805
 30
0.0
 10
8.128928378186218
 20
1.490264368961829
 30
0.0
 10
8.17998109057322
 20
1.420024552016763
 30
0.0
 10
8.241383340836107
 20
1.352954232310442
 30
0.0
 10
8.312999515293814
 20
1.288983649146929
 30
0.0
 10
8.39475938023587
 20
1.22814719780184
 30
0.0
 10
8.486555926629864
 20
1.170472565461733
 30
0.0
 10
8.588255806229146
 20
1.11589852836172
 30
0.0
 10
8.699744708461129
 20
1.064459016517795
 30
0.0
 10
8.820920977867665
 20
1.016170105106755
 30
0.0
 10
8.951652589801483
 20
0.9710963441681558
 30
0.0
 10
9.091779721246443
 20
0.9291690873510131
 30
0.0
 10
9.24116914639333
 20
0.8904905084829903
 30
0.0
 10
9.399650994629654
 20
0.8550065471066916
 30
0.0
 10
9.567072836382128
 20
0.822807780056431
 30
0.0
 10
9.69179348893829
 20
0.802316169499847
 30
0.0
 10
9.760578537642711
 20
0.7920116560533864
 30
0.0
 10
9.770508867042969
 20
0.7905443083559928
 30
0.0
  0
LINE
  5
185
330
1F
100
AcDbEntity
  8
0
  6
Continuous
 62
     7
370
    25
100
AcDbLine
 10
8.0622056456
 20
1.634446124
 30
0.0
 11
8.4074567903
 21
1.634446124
 31
0.0
  0
LINE
  5
186
330
1F
100
AcDbEntity
  8
0
  6
Continuous
 62
     7
370
    25
100
AcDbLine
 10
8.4074567903
 20
2.009446124
 30
0.0
 11
8.4074567903
 21
1.634446124
 31
0.0
  0
LINE
  5
187
330
1F
100
AcDbEntity
  8
0
  6
Continuous
 62
     7
370
    25
100
AcDbLine
 10
8.0616931682
 20
2.0094461233
 30
0.0
 11
8.4074567903
 21
2.009446124
 31
0.0
  0
LINE
  5
188
330
1F
100
AcDbEntity
  8
0
  6
Continuous
 62
     7
370
    25
100
AcDbLine
 10
9.4015712664
 20
2.9411281433
 30
0.0
 11
9.5707638658
 21
3.0219372659
 31
0.0
  0
LINE
  5
189
330
1F
100
AcDbEntity
  8
0
  6
Continuous
 62
     7
370
    25
100
AcDbLine
 10
10.666046225
 20
3.6333889523
 30
0.0
 11
10.7651100335
 21
3.2771350543
 31
0.0
  0
LINE
  5
18A
330
1F
100
AcDbEntity
  8
0
  6
Continuous
 62
     7
370
    25
100
AcDbLine
 10
10.7651100335
 20
3.2771350543
 30
0.0
 11
11.1264019349
 21
3.3775997841
 31
0.0
  0
LINE
  5
18B
330
1F
100
AcDbEntity
  8
0
  6
Continuous
 62
     7
370
    25
100
AcDbLine
 10
11.1264019349
 20
3.3775997841
 30
0.0
 11
11.0259372048
 21
3.7388916855
 31
0.0
  0
SPLINE
  5
18C
330
1F
100
AcDbEntity
  8
0
  6
Continuous
 62
     7
370
    25
100
AcDbSpline
210
0.0
220
0.0
230
1.0
 70
     8
 71
     3
 72
    16
 73
    12
 74
     0
 42
0.00000001
 43
0.00000001
 40
0.7462088576025568
 40
0.7462088576025568
 40
0.7462088576025568
 40
0.7462088576025568
 40
0.7521175864591397
 40
0.7647920417814054
 40
0.7772081519207622
 40
0.7893556849316484
 40
0.8012239599679336
 40
0.8128036855342794
 40
0.8240829093538227
 40
0.8350546022887522
 40
0.8351398981997684
 40
0.8351398981997684
 40
0.8351398981997684
 40
0.8351398981997684
 10
13.04352306090036
 20
4.165595642023006
 30
0.0
 10
12.99836875257146
 20
4.158567940478056
 30
0.0
 10
12.85642615656189
 20
4.136019085000533
 30
0.0
 10
12.62003159306712
 20
4.096026231035832
 30
0.0
 10
12.33678241909726
 20
4.043897182563268
 30
0.0
 10
12.06044393006935
 20
3.988829993544064
 30
0.0
 10
11.79131698526581
 20
3.93083903089826
 30
0.0
 10
11.52968646977766
 20
3.870098250203913
 30
0.0
 10
11.2758242858517
 20
3.80671347826691
 30
0.0
 10
11.10896328045995
 20
3.761972525585614
 30
0.0
 10
11.02657276981357
 20
3.73906841754261
 30
0.0
 10
11.02593720478841
 20
3.738891685464599
 30
0.0
  0
LINE
  5
18D
330
1F
100
AcDbEntity
  8
0
  6
Continuous
 62
     7
370
    25
100
AcDbLine
 10
13.0435230609
 20
4.165595642
 30
0.0
 11
13.0715670152
 21
3.9802047398
 31
0.0
  0
LINE
  5
18E
330
1F
100
AcDbEntity
  8
0
  6
Continuous
 62
     7
370
    25
100
AcDbLine
 10
13.0715670152
 20
3.9802047398
 30
0.0
 11
13.2569579174
 21
4.0082486941
 31
0.0
  0
LINE
  5
18F
330
1F
100
AcDbEntity
  8
0
  6
Continuous
 62
     7
370
    25
100
AcDbLine
 10
13.2569579174
 20
4.0082486941
 30
0.0
 11
13.2289139629
 21
4.1936395963
 31
0.0
  0
SPLINE
  5
190
330
1F
100
AcDbEntity
  8
0
  6
Continuous
 62
     7
370
    25
100
AcDbSpline
210
0.0
220
0.0
230
1.0
 70
     8
 71
     3
 72
    14
 73
    10
 74
     0
 42
0.00000001
 43
0.00000001
 40
0.6471977191416923
 40
0.6471977191416923
 40
0.6471977191416923
 40
0.6471977191416923
 40
0.6571860540028671
 40
0.6713255457791549
 40
0.6852940138169578
 40
0.6990781474144603
 40
0.7126650949455656
 40
0.7260426447110092
 40
0.7381275985622745
 40
0.7381275985622745
 40
0.7381275985622745
 40
0.7381275985622745
 10
15.32675363056795
 20
4.412020864283801
 30
0.0
 10
15.24966935060942
 20
4.406974854276354
 30
0.0
 10
15.06351095959189
 20
4.394077368832903
 30
0.0
 10
14.76978488684082
 20
4.37089033805196
 30
0.0
 10
14.44711312478001
 20
4.341617076793074
 30
0.0
 10
14.12905697895272
 20
4.30900227514153
 30
0.0
 10
13.8159705546937
 20
4.272957225768145
 30
0.0
 10
13.51639887415562
 20
4.234634681436277
 30
0.0
 10
13.32138557357868
 20
4.207227444887515
 30
0.0
 10
13.22891396293409
 20
4.193639596270336
 30
0.0
  0
LINE
  5
191
330
1F
100
AcDbEntity
  8
0
  6
Continuous
 62
     7
370
    25
100
AcDbLine
 10
15.3267536306
 20
4.4120208643
 30
0.0
 11
15.3384317616
 21
4.2248848943
 31
0.0
  0
LINE
  5
192
330
1F
100
AcDbEntity
  8
0
  6
Continuous
 62
     7
370
    25
100
AcDbLine
 10
15.3384317616
 20
4.2248848943
 30
0.0
 11
15.5255677316
 21
4.2365630254
 31
0.0
  0
LINE
  5
193
330
1F
100
AcDbEntity
  8
0
  6
Continuous
 62
     7
370
    25
100
AcDbLine
 10
15.5255677316
 20
4.2365630254
 30
0.0
 11
15.5138896003
 21
4.4236989953
 31
0.0
  0
SPLINE
  5
194
330
1F
100
AcDbEntity
  8
0
  6
Continuous
 62
     7
370
    25
100
AcDbSpline
210
0.0
220
0.0
230
1.0
 70
     8
 71
     3
 72
    14
 73
    10
 74
     0
 42
0.00000001
 43
0.00000001
 40
0.5511452244250064
 40
0.5511452244250064
 40
0.5511452244250064
 40
0.5511452244250064
 40
0.5545829838309861
 40
0.5695295459998657
 40
0.5844034168402927
 40
0.5991909919021363
 40
0.6138768380252426
 40
0.628447474920468
 40
0.6391164527335579
 40
0.6391164527335579
 40
0.6391164527335579
 40
0.6391164527335579
 10
17.5538569742774
 20
4.481645968742805
 30
0.0
 10
17.52726956806487
 20
4.481656735919564
 30
0.0
 10
17.38508636328843
 20
4.481564694272201
 30
0.0
 10
17.1278719467562
 20
4.479945597326877
 30
0.0
 10
16.78291539236375
 20
4.474495232452886
 30
0.0
 10
16.44004457177822
 20
4.465702045226172
 30
0.0
 10
16.09962299369408
 20
4.453549623937873
 30
0.0
 10
15.79116260797747
 20
4.439381835491603
 30
0.0
 10
15.59625786865102
 20
4.428589213651175
 30
0.0
 10
15.51388960026812
 20
4.423698995315444
 30
0.0
  0
LINE
  5
195
330
1F
100
AcDbEntity
  8
0
  6
Continuous
 62
     7
370
    25
100
AcDbLine
 10
17.5538569743
 20
4.4816459687
 30
0.0
 11
17.5537043627
 21
4.1048012609
 31
0.0
  0
LINE
  5
196
330
1F
100
AcDbEntity
  8
0
  6
Continuous
 62
     7
370
    25
100
AcDbLine
 10
17.5537043627
 20
4.1048012609
 30
0.0
 11
17.928704332
 21
4.1046493961
 31
0.0
  0
LINE
  5
197
330
1F
100
AcDbEntity
  8
0
  6
Continuous
 62
     7
370
    25
100
AcDbLine
 10
17.928704332
 20
4.1046493961
 30
0.0
 11
17.9288561964
 21
4.4796493654
 31
0.0
  0
SPLINE
  5
198
330
1F
100
AcDbEntity
  8
0
  6
Continuous
 62
     7
370
    25
100
AcDbSpline
210
0.0
220
0.0
230
1.0
 70
     8
 71
     3
 72
    15
 73
    11
 74
     0
 42
0.00000001
 43
0.00000001
 40
0.4314156119256059
 40
0.4314156119256059
 40
0.4314156119256059
 40
0.4314156119256059
 40
0.4341867493871219
 40
0.4491772650868069
 40
0.4642147821671246
 40
0.4792840087649619
 40
0.4943697397811477
 40
0.5094578326361675
 40
0.5245323463196893
 40
0.5349824261914548
 40
0.5349824261914548
 40
0.5349824261914548
 40
0.5349824261914548
 10
20.32962478202937
 20
4.385425146521671
 30
0.0
 10
20.30824067423876
 20
4.386853643973622
 30
0.0
 10
20.17117239254716
 20
4.39591264548043
 30
0.0
 10
19.91798231647903
 20
4.411481173022437
 30
0.0
 10
19.56970481235191
 20
4.430224842581323
 30
0.0
 10
19.22055375966031
 20
4.446241505321934
 30
0.0
 10
18.87089250710803
 20
4.459420802760055
 30
0.0
 10
18.52109234539619
 20
4.469683174340626
 30
0.0
 10
18.20706113627381
 20
4.476193418035729
 30
0.0
 10
18.0096722006341
 20
4.478824420382537
 30
0.0
 10
17.92885619644387
 20
4.479649365365499
 30
0.0
  0
LINE
  5
199
330
1F
100
AcDbEntity
  8
0
  6
Continuous
 62
     7
370
    25
100
AcDbLine
 10
20.329624782
 20
4.3854251465
 30
0.0
 11
20.3167443475
 21
4.1983690822
 31
0.0
  0
LINE
  5
19A
330
1F
100
AcDbEntity
  8
0
  6
Continuous
 62
     7
370
    25
100
AcDbLine
 10
20.3167443475
 20
4.1983690822
 30
0.0
 11
20.5038014047
 21
4.1854885794
 31
0.0
  0
LINE
  5
19B
330
1F
100
AcDbEntity
  8
0
  6
Continuous
 62
     7
370
    25
100
AcDbLine
 10
20.5038014047
 20
4.1854885794
 30
0.0
 11
20.5166819072
 21
4.3725456366
 31
0.0
  0
LINE
  5
19C
330
1F
100
AcDbEntity
  8
0
  6
Continuous
 62
     7
370
    25
100
AcDbLine
 10
20.980516759
 20
4.2120734486
 30
0.0
 11
20.9956762637
 21
4.3361508012
 31
0.0
  0
LINE
  5
19D
330
1F
100
AcDbEntity
  8
0
  6
Continuous
 62
     7
370
    25
100
AcDbLine
 10
22.9702596161
 20
4.0097782122
 30
0.0
 11
20.980516759
 21
4.2120734486
 31
0.0
  0
LINE
  5
19E
330
1F
100
AcDbEntity
  8
0
  6
Continuous
 62
     7
370
    25
100
AcDbLine
 10
22.9702596161
 20
4.0097782122
 30
0.0
 11
22.9626829736
 21
3.9477649912
 31
0.0
  0
LINE
  5
19F
330
1F
100
AcDbEntity
  8
0
  6
Continuous
 62
     7
370
    25
100
AcDbLine
 10
22.9626829736
 20
3.9477649912
 30
0.0
 11
23.1487990024
 21
3.9250257336
 31
0.0
  0
LINE
  5
1A0
330
1F
100
AcDbEntity
  8
0
  6
Continuous
 62
     7
370
    25
100
AcDbLine
 10
23.1487990024
 20
3.9250257336
 30
0.0
 11
23.1714999877
 21
4.1108285116
 31
0.0
  0
LINE
  5
1A1
330
1F
100
AcDbEntity
  8
0
  6
Continuous
 62
     7
370
    25
100
AcDbLine
 10
23.4449867443
 20
3.8755644128
 30
0.0
 11
23.3903531722
 21
3.4284001454
 31
0.0
  0
CIRCLE
  5
1A2
330
1F
100
AcDbEntity
  8
0
  6
Continuous
 62
     7
370
    25
100
AcDbCircle
 10
22.9986160574
 20
3.0278576866
 30
0.0
 40
0.2500000000000036
  0
ARC
  5
1A3
330
1F
100
AcDbEntity
  8
0
  6
Continuous
 62
     7
370
    25
100
AcDbCircle
 10
20.2232697507
 20
2.2030913619
 30
0.0
 40
0.2000000000000001
100
AcDbArc
 50
225.0
 51
277.7748439723
  0
LINE
  5
1A4
330
1F
100
AcDbEntity
  8
0
  6
Continuous
 62
     7
370
    25
100
AcDbLine
 10
20.250325864
 20
2.0049298956
 30
0.0
 11
20.7627857252
 21
2.0748539317
 31
0.0
  0
ARC
  5
1A5
330
1F
100
AcDbEntity
  8
0
  6
Continuous
 62
     7
370
    25
100
AcDbCircle
 10
20.7357770235
 20
2.2730218656
 30
0.0
 40
0.2000000000000726
100
AcDbArc
 50
277.7611357549
 51
61.1174148316
  0
LINE
  5
1A6
330
1F
100
AcDbEntity
  8
0
  6
Continuous
 62
     7
370
    25
100
AcDbLine
 10
18.2628076007
 20
3.8656056227
 30
0.0
 11
20.8323802769
 21
2.4481441413
 31
0.0
  0
ARC
  5
1A7
330
1F
100
AcDbEntity
  8
0
  6
Continuous
 62
     7
370
    25
100
AcDbCircle
 10
18.1662043474
 20
3.690483347
 30
0.0
 40
0.2000000000000001
100
AcDbArc
 50
61.1174148316
 51
180.0
  0
LINE
  5
1A8
330
1F
100
AcDbEntity
  8
0
  6
Continuous
 62
     7
370
    25
100
AcDbLine
 10
17.9662043474
 20
2.902226502
 30
0.0
 11
17.9662043474
 21
3.690483347
 31
0.0
  0
ARC
  5
1A9
330
1F
100
AcDbEntity
  8
0
  6
Continuous
 62
     7
370
    25
100
AcDbCircle
 10
18.1662043474
 20
2.902226502
 30
0.0
 40
0.2000000000000008
100
AcDbArc
 50
180.0
 51
245.5037209488
  0
ARC
  5
1AA
330
1F
100
AcDbEntity
  8
0
  6
Continuous
 62
     7
370
    25
100
AcDbCircle
 10
17.7412043474
 20
1.9694885966
 30
0.0
 40
0.8249999999999968
100
AcDbArc
 50
1.9846926466
 51
65.5037209488
  0
ARC
  5
1AB
330
1F
100
AcDbEntity
  8
0
  6
Continuous
 62
     7
370
    25
100
AcDbCircle
 10
18.7655894655
 20
2.0049869035
 30
0.0
 40
0.2000000000000015
100
AcDbArc
 50
181.9846926466
 51
277.6674048107
  0
SPLINE
  5
1AC
330
1F
100
AcDbEntity
  8
0
  6
Continuous
 62
     7
370
    25
100
AcDbSpline
210
0.0
220
0.0
230
1.0
 70
     8
 71
     3
 72
     8
 73
     4
 74
     0
 42
0.00000001
 43
0.00000001
 40
0.503022154008895
 40
0.503022154008895
 40
0.503022154008895
 40
0.503022154008895
 40
0.5198377706621561
 40
0.5198377706621561
 40
0.5198377706621561
 40
0.5198377706621561
 10
18.79227394547613
 20
1.806775050859876
 30
0.0
 10
18.91580929202677
 20
1.823406127358135
 30
0.0
 10
19.03936125608481
 20
1.840099856464385
 30
0.0
 10
19.16292803726166
 20
1.85684054284218
 30
0.0
  0
ARC
  5
1AD
330
1F
100
AcDbEntity
  8
0
  6
Continuous
 62
     7
370
    25
100
AcDbCircle
 10
19.1360775591
 20
2.055029977
 30
0.0
 40
0.2
100
AcDbArc
 50
277.7153915083
 51
315.0
  0
LINE
  5
1AE
330
1F
100
AcDbEntity
  8
0
  6
Continuous
 62
     7
370
    25
100
AcDbLine
 10
19.4951257036
 20
2.1312354091
 30
0.0
 11
19.2774989153
 21
1.9136086208
 31
0.0
  0
ARC
  5
1AF
330
1F
100
AcDbEntity
  8
0
  6
Continuous
 62
     7
370
    25
100
AcDbCircle
 10
19.6365470598
 20
1.9898140528
 30
0.0
 40
0.2
100
AcDbArc
 50
89.9999999999
 51
135.0
  0
LINE
  5
1B0
330
1F
100
AcDbEntity
  8
0
  6
Continuous
 62
     7
370
    25
100
AcDbLine
 10
19.8708616349
 20
2.1898140528
 30
0.0
 11
19.6365470598
 21
2.1898140528
 31
0.0
  0
ARC
  5
1B1
330
1F
100
AcDbEntity
  8
0
  6
Continuous
 62
     7
370
    25
100
AcDbCircle
 10
19.8708616349
 20
1.9898140528
 30
0.0
 40
0.2000000000000001
100
AcDbArc
 50
45.0
 51
89.9999999999
  0
LINE
  5
1B2
330
1F
100
AcDbEntity
  8
0
  6
Continuous
 62
     7
370
    25
100
AcDbLine
 10
20.0122829911
 20
2.1312354091
 30
0.0
 11
20.0818483945
 21
2.0616700057
 31
0.0
  0
ARC
  5
1B3
330
1F
100
AcDbEntity
  8
0
  6
Continuous
 62
     7
370
    25
100
AcDbCircle
 10
9.8676661479
 20
1.4332461011
 30
0.0
 40
0.2000000000000001
100
AcDbArc
 50
261.6125656441
 51
31.5446870278
  0
ARC
  5
1B4
330
1F
100
AcDbEntity
  8
0
  6
Continuous
 62
     7
370
    25
100
AcDbCircle
 10
10.7412043474
 20
1.9694885966
 30
0.0
 40
0.8250000000000008
100
AcDbArc
 50
114.4962790512
 51
211.5446870278
  0
ARC
  5
1B5
330
1F
100
AcDbEntity
  8
0
  6
Continuous
 62
     7
370
    25
100
AcDbCircle
 10
10.3162043474
 20
2.902226502
 30
0.0
 40
0.1999999999999994
100
AcDbArc
 50
294.4962790512
 51
349.0852697611
  0
ARC
  5
1B6
330
1F
100
AcDbEntity
  8
0
  6
Continuous
 62
     7
370
    25
100
AcDbCircle
 10
10.3162043474
 20
2.8264873461
 30
0.0
 40
0.2000000000000008
100
AcDbArc
 50
10.9147302389
 51
111.3381887662
  0
SPLINE
  5
1B7
330
1F
100
AcDbEntity
  8
0
  6
Continuous
 62
     7
370
    25
100
AcDbSpline
210
0.0
220
0.0
230
1.0
 70
     8
 71
     3
 72
     8
 73
     4
 74
     0
 42
0.00000001
 43
0.00000001
 40
0.0587970678286708
 40
0.0587970678286708
 40
0.0587970678286708
 40
0.0587970678286708
 40
1.0
 40
1.0
 40
1.0
 40
1.0
 10
10.24342991930425
 20
3.012777127403606
 30
0.0
 10
8.821224313322224
 20
2.457190026314148
 30
0.0
 10
7.976220630448073
 20
1.509964369559917
 30
0.0
 10
9.838492934697102
 20
1.2353852317134
 30
0.0
  0
CIRCLE
  5
1B8
330
1F
100
AcDbEntity
  8
0
  6
Continuous
 62
     7
370
    25
100
AcDbCircle
 10
17.7412043474
 20
1.9694885966
 30
0.0
 40
0.375
  0
ARC
  5
1B9
330
1F
100
AcDbEntity
  8
0
  6
Continuous
 62
     7
370
    25
100
AcDbCircle
 10
22.5228508056
 20
2.514391597
 30
0.0
 40
0.2000000000000096
100
AcDbArc
 50
277.5970414111
 51
47.182557196
  0
ARC
  5
1BA
330
1F
100
AcDbEntity
  8
0
  6
Continuous
 62
     7
370
    25
100
AcDbCircle
 10
22.9986160574
 20
3.0278576866
 30
0.0
 40
0.50000000000001
100
AcDbArc
 50
200.5192866722
 51
227.182557196
  0
ARC
  5
1BB
330
1F
100
AcDbEntity
  8
0
  6
Continuous
 62
     7
370
    25
100
AcDbCircle
 10
22.3430280818
 20
2.7824918245
 30
0.0
 40
0.2000000000000044
100
AcDbArc
 50
20.5192866722
 51
132.4268885053
  0
LINE
  5
1BC
330
1F
100
AcDbEntity
  8
0
  6
Continuous
 62
     7
370
    25
100
AcDbLine
 10
21.8335452536
 20
2.5877831747
 30
0.0
 11
22.2080983088
 21
2.9301195873
 31
0.0
  0
ARC
  5
1BD
330
1F
100
AcDbEntity
  8
0
  6
Continuous
 62
     7
370
    25
100
AcDbCircle
 10
21.9684750267
 20
2.4401554119
 30
0.0
 40
0.200000000004156
100
AcDbArc
 50
132.4268885053
 51
277.6599695512
  0
SPLINE
  5
1BE
330
1F
100
AcDbEntity
  8
0
  6
Continuous
 62
     7
370
    25
100
AcDbSpline
210
0.0
220
0.0
230
1.0
 70
     8
 71
     3
 72
    11
 73
     7
 74
     0
 42
0.00000001
 43
0.00000001
 40
0.6481961029693138
 40
0.6481961029693138
 40
0.6481961029693138
 40
0.6481961029693138
 40
0.6520988798433948
 40
0.6565556350808772
 40
0.6713345446924556
 40
0.6732859331294959
 40
0.6732859331294959
 40
0.6732859331294959
 40
0.6732859331294959
 10
21.99513378456078
 20
2.24194009807024
 30
0.0
 10
22.02386739055363
 20
2.245804593855915
 30
0.0
 10
22.08541382808094
 20
2.2540762043499
 30
0.0
 10
22.25577174111924
 20
2.276936686095235
 30
0.0
 10
22.41177086702039
 20
2.297800853725407
 30
0.0
 10
22.53492637956104
 20
2.314231115743353
 30
0.0
 10
22.5492918469302
 20
2.316147123333348
 30
0.0
  0
ARC
  5
1BF
330
1F
100
AcDbEntity
  8
0
  6
Continuous
 62
     7
370
    25
100
AcDbCircle
 10
19.7864445877
 20
3.7674554026
 30
0.0
 40
0.2000000000000007
100
AcDbArc
 50
86.8207118578
 51
241.1174148316
  0
LINE
  5
1C0
330
1F
100
AcDbEntity
  8
0
  6
Continuous
 62
     7
370
    25
100
AcDbLine
 10
19.6898413343
 20
3.5923331269
 30
0.0
 11
21.1705129302
 21
2.7755455835
 31
0.0
  0
ARC
  5
1C1
330
1F
100
AcDbEntity
  8
0
  6
Continuous
 62
     7
370
    25
100
AcDbCircle
 10
21.2671161836
 20
2.9506678592
 30
0.0
 40
0.2000000000000018
100
AcDbArc
 50
241.1174148316
 51
312.4268885054
  0
LINE
  5
1C2
330
1F
100
AcDbEntity
  8
0
  6
Continuous
 62
     7
370
    25
100
AcDbLine
 10
21.4020459566
 20
2.8030400964
 30
0.0
 11
22.1056526936
 21
3.4461271116
 31
0.0
  0
ARC
  5
1C3
330
1F
100
AcDbEntity
  8
0
  6
Continuous
 62
     7
370
    25
100
AcDbCircle
 10
21.9707229206
 20
3.5937548744
 30
0.0
 40
0.2000000000000006
100
AcDbArc
 50
312.4268885054
 51
84.1345272799
  0
SPLINE
  5
1C4
330
1F
100
AcDbEntity
  8
0
  6
Continuous
 62
     7
370
    25
100
AcDbSpline
210
0.0
220
0.0
230
1.0
 70
     8
 71
     3
 72
    11
 73
     7
 74
     0
 42
0.00000001
 43
0.00000001
 40
0.3575494110876469
 40
0.3575494110876469
 40
0.3575494110876469
 40
0.3575494110876469
 40
0.3746798760817555
 40
0.4059031990885684
 40
0.4371265220953814
 40
0.4533143653489231
 40
0.4533143653489231
 40
0.4533143653489231
 40
0.4533143653489231
 10
21.99116153970401
 20
3.792707790581
 30
0.0
 10
21.86057363589318
 20
3.806123208054078
 30
0.0
 10
21.49191338816414
 20
3.842530441840701
 30
0.0
 10
20.88441302737479
 20
3.895457378464612
 30
0.0
 10
20.28367191371489
 20
3.938615993909356
 30
0.0
 10
19.92128360667388
 20
3.960273924330875
 30
0.0
 10
19.79753670265096
 20
3.967147578161572
 30
0.0
  0
ARC
  5
1C5
330
1F
100
AcDbEntity
  8
0
  6
Continuous
 62
     7
370
    25
100
AcDbCircle
 10
13.2587884461
 20
1.391504846
 30
0.0
 40
0.1999999999999997
100
AcDbArc
 50
225.0
 51
273.7688746373
  0
SPLINE
  5
1C6
330
1F
100
AcDbEntity
  8
0
  6
Continuous
 62
     7
370
    25
100
AcDbSpline
210
0.0
220
0.0
230
1.0
 70
     8
 71
     3
 72
     9
 73
     5
 74
     0
 42
0.00000001
 43
0.00000001
 40
0.2521216159124601
 40
0.2521216159124601
 40
0.2521216159124601
 40
0.2521216159124601
 40
0.271707070552634
 40
0.2791557719663175
 40
0.2791557719663175
 40
0.2791557719663175
 40
0.2791557719663175
 10
13.27193481511211
 20
1.191937381294026
 30
0.0
 10
13.41518536668765
 20
1.201373912496956
 30
0.0
 10
13.61301362512404
 20
1.215592865125325
 30
0.0
 10
13.81090661920357
 20
1.231248576531624
 30
0.0
 10
13.86543933542645
 20
1.235666222222419
 30
0.0
  0
ARC
  5
1C7
330
1F
100
AcDbEntity
  8
0
  6
Continuous
 62
     7
370
    25
100
AcDbCircle
 10
13.8492904193
 20
1.4350131874
 30
0.0
 40
0.2000000000002404
100
AcDbArc
 50
274.6313655311
 51
61.1174148316
  0
LINE
  5
1C8
330
1F
100
AcDbEntity
  8
0
  6
Continuous
 62
     7
370
    25
100
AcDbLine
 10
11.2628076007
 20
3.090214697
 30
0.0
 11
13.9458936727
 21
1.610135463
 31
0.0
  0
ARC
  5
1C9
330
1F
100
AcDbEntity
  8
0
  6
Continuous
 62
     7
370
    25
100
AcDbCircle
 10
11.1662043474
 20
2.9150924213
 30
0.0
 40
0.2000000000000005
100
AcDbArc
 50
61.1174148316
 51
180.0
  0
LINE
  5
1CA
330
1F
100
AcDbEntity
  8
0
  6
Continuous
 62
     7
370
    25
100
AcDbLine
 10
10.9662043474
 20
2.902226502
 30
0.0
 11
10.9662043474
 21
2.9150924213
 31
0.0
  0
ARC
  5
1CB
330
1F
100
AcDbEntity
  8
0
  6
Continuous
 62
     7
370
    25
100
AcDbCircle
 10
11.1662043474
 20
2.902226502
 30
0.0
 40
0.2000000000000001
100
AcDbArc
 50
180.0
 51
245.5037209488
  0
ARC
  5
1CC
330
1F
100
AcDbEntity
  8
0
  6
Continuous
 62
     7
370
    25
100
AcDbCircle
 10
10.7412043474
 20
1.9694885966
 30
0.0
 40
0.8250000000000008
100
AcDbArc
 50
321.3799117912
 51
65.5037209488
  0
ARC
  5
1CD
330
1F
100
AcDbEntity
  8
0
  6
Continuous
 62
     7
370
    25
100
AcDbCircle
 10
11.5420385784
 20
1.3297311939
 30
0.0
 40
0.200000000000001
100
AcDbArc
 50
141.3799117912
 51
269.9405706167
  0
SPLINE
  5
1CE
330
1F
100
AcDbEntity
  8
0
  6
Continuous
 62
     7
370
    25
100
AcDbSpline
210
0.0
220
0.0
230
1.0
 70
     8
 71
     3
 72
    10
 73
     6
 74
     0
 42
0.00000001
 43
0.00000001
 40
0.1730002194696571
 40
0.1730002194696571
 40
0.1730002194696571
 40
0.1730002194696571
 40
0.1808057732178189
 40
0.1886113269659808
 40
0.2021168366661889
 40
0.2021168366661889
 40
0.2021168366661889
 40
0.2021168366661889
 10
11.5418311307844
 20
1.129731301495225
 30
0.0
 10
11.59840905680272
 20
1.129672616676107
 30
0.0
 10
11.71165701723855
 20
1.130065258658457
 30
0.0
 10
11.92318839287984
 20
1.132589402535365
 30
0.0
 10
12.07827771354047
 20
1.136082734562349
 30
0.0
 10
12.17664856975431
 20
1.138896514439601
 30
0.0
  0
ARC
  5
1CF
330
1F
100
AcDbEntity
  8
0
  6
Continuous
 62
     7
370
    25
100
AcDbCircle
 10
12.1709301495
 20
1.3388147469
 30
0.0
 40
0.1999999999999996
100
AcDbArc
 50
271.638430029
 51
315.0
  0
LINE
  5
1D0
330
1F
100
AcDbEntity
  8
0
  6
Continuous
 62
     7
370
    25
100
AcDbLine
 10
12.4701257036
 20
1.3551675886
 30
0.0
 11
12.3123515057
 21
1.1973933907
 31
0.0
  0
ARC
  5
1D1
330
1F
100
AcDbEntity
  8
0
  6
Continuous
 62
     7
370
    25
100
AcDbCircle
 10
12.6115470598
 20
1.2137462323
 30
0.0
 40
0.200000000000001
100
AcDbArc
 50
89.9999999999
 51
135.0
  0
LINE
  5
1D2
330
1F
100
AcDbEntity
  8
0
  6
Continuous
 62
     7
370
    25
100
AcDbLine
 10
12.8708616349
 20
1.4137462323
 30
0.0
 11
12.6115470598
 21
1.4137462323
 31
0.0
  0
ARC
  5
1D3
330
1F
100
AcDbEntity
  8
0
  6
Continuous
 62
     7
370
    25
100
AcDbCircle
 10
12.8708616349
 20
1.2137462323
 30
0.0
 40
0.2000000000000005
100
AcDbArc
 50
45.0
 51
89.9999999999
  0
LINE
  5
1D4
330
1F
100
AcDbEntity
  8
0
  6
Continuous
 62
     7
370
    25
100
AcDbLine
 10
13.0122829911
 20
1.3551675886
 30
0.0
 11
13.1173670899
 21
1.2500834898
 31
0.0
  0
CIRCLE
  5
1D5
330
1F
100
AcDbEntity
  8
0
  6
Continuous
 62
     7
370
    25
100
AcDbCircle
 10
10.7412043474
 20
1.9694885966
 30
0.0
 40
0.375
  0
SPLINE
  5
1D6
330
1F
100
AcDbEntity
  8
0
  6
Continuous
 62
     7
370
    25
100
AcDbSpline
210
0.0
220
0.0
230
1.0
 70
     8
 71
     3
 72
    10
 73
     6
 74
     0
 42
0.00000001
 43
0.00000001
 40
0.3362614121117422
 40
0.3362614121117422
 40
0.3362614121117422
 40
0.3362614121117422
 40
0.3430891207344148
 40
0.3755557001470496
 40
0.4110496531909501
 40
0.4110496531909501
 40
0.4110496531909501
 40
0.4110496531909501
 10
15.12073093147551
 20
1.353300184143541
 30
0.0
 10
15.17078765567761
 20
1.358545124585202
 30
0.0
 10
15.45888719418906
 20
1.389063425800692
 30
0.0
 10
16.00736586627415
 20
1.450615922459144
 30
0.0
 10
16.50599808238357
 20
1.510743308716425
 30
0.0
 10
16.7664699504881
 20
1.54300856210788
 30
0.0
  0
ARC
  5
1D7
330
1F
100
AcDbEntity
  8
0
  6
Continuous
 62
     7
370
    25
100
AcDbCircle
 10
16.7418834016
 20
1.7414915629
 30
0.0
 40
0.1999999999999995
100
AcDbArc
 50
277.0613899986
 51
12.8521590687
  0
ARC
  5
1D8
330
1F
100
AcDbEntity
  8
0
  6
Continuous
 62
     7
370
    25
100
AcDbCircle
 10
17.7412043474
 20
1.9694885966
 30
0.0
 40
0.8250000000000001
100
AcDbArc
 50
114.4962790512
 51
192.8521590687
  0
ARC
  5
1D9
330
1F
100
AcDbEntity
  8
0
  6
Continuous
 62
     7
370
    25
100
AcDbCircle
 10
17.3162043474
 20
2.902226502
 30
0.0
 40
0.1999999999999997
100
AcDbArc
 50
294.4962790512
 51
0.0
  0
LINE
  5
1DA
330
1F
100
AcDbEntity
  8
0
  6
Continuous
 62
     7
370
    25
100
AcDbLine
 10
17.5162043474
 20
3.5778933904
 30
0.0
 11
17.5162043474
 21
2.902226502
 31
0.0
  0
ARC
  5
1DB
330
1F
100
AcDbEntity
  8
0
  6
Continuous
 62
     7
370
    25
100
AcDbCircle
 10
17.3162043474
 20
3.5778933904
 30
0.0
 40
0.1999999999999993
100
AcDbArc
 50
0.0
 51
132.4268885054
  0
LINE
  5
1DC
330
1F
100
AcDbEntity
  8
0
  6
Continuous
 62
     7
370
    25
100
AcDbLine
 10
14.9649592684
 20
1.6998390216
 30
0.0
 11
17.1812745743
 21
3.7255211531
 31
0.0
  0
ARC
  5
1DD
330
1F
100
AcDbEntity
  8
0
  6
Continuous
 62
     7
370
    25
100
AcDbCircle
 10
15.0998890415
 20
1.5522112588
 30
0.0
 40
0.2000000000000007
100
AcDbArc
 50
132.4268885054
 51
275.9816215157
  0
ARC
  5
1DE
330
1F
100
AcDbEntity
  8
0
  6
Continuous
 62
     7
370
    25
100
AcDbCircle
 10
12.1504934591
 20
3.3428762041
 30
0.0
 40
0.200000000000001
100
AcDbArc
 50
101.855484399
 51
241.1174148316
  0
LINE
  5
1DF
330
1F
100
AcDbEntity
  8
0
  6
Continuous
 62
     7
370
    25
100
AcDbLine
 10
12.0538902057
 20
3.1677539284
 30
0.0
 11
14.3292607088
 21
1.9125841199
 31
0.0
  0
ARC
  5
1E0
330
1F
100
AcDbEntity
  8
0
  6
Continuous
 62
     7
370
    25
100
AcDbCircle
 10
14.4258639622
 20
2.0877063956
 30
0.0
 40
0.2000000000000019
100
AcDbArc
 50
241.1174148316
 51
312.4268885054
  0
LINE
  5
1E1
330
1F
100
AcDbEntity
  8
0
  6
Continuous
 62
     7
370
    25
100
AcDbLine
 10
14.5607937353
 20
1.9400786328
 30
0.0
 11
15.6011341204
 21
2.8909356356
 31
0.0
  0
ARC
  5
1E2
330
1F
100
AcDbEntity
  8
0
  6
Continuous
 62
     7
370
    25
100
AcDbCircle
 10
15.4662043474
 20
3.0385633983
 30
0.0
 40
0.2000000000000016
100
AcDbArc
 50
312.4268885054
 51
360.0
  0
LINE
  5
1E3
330
1F
100
AcDbEntity
  8
0
  6
Continuous
 62
     7
370
    25
100
AcDbLine
 10
15.6662043474
 20
3.7696140087
 30
0.0
 11
15.6662043474
 21
3.0385633983
 31
0.0
  0
ARC
  5
1E4
330
1F
100
AcDbEntity
  8
0
  6
Continuous
 62
     7
370
    25
100
AcDbCircle
 10
15.4662043474
 20
3.7696140087
 30
0.0
 40
0.1999999999999999
100
AcDbArc
 50
360.0
 51
93.5596944512
  0
SPLINE
  5
1E5
330
1F
100
AcDbEntity
  8
0
  6
Continuous
 62
     7
370
    25
100
AcDbSpline
210
0.0
220
0.0
230
1.0
 70
     8
 71
     3
 72
    11
 73
     7
 74
     0
 42
0.00000001
 43
0.00000001
 40
0.6429174774366185
 40
0.6429174774366185
 40
0.6429174774366185
 40
0.6429174774366185
 40
0.686913106149885
 40
0.7493597521635109
 40
0.7805830751703239
 40
0.7911832058696918
 40
0.7911832058696918
 40
0.7911832058696918
 40
0.7911832058696918
 10
15.45378666183135
 20
3.969228139199401
 30
0.0
 10
15.11918707472282
 20
3.948413217726374
 30
0.0
 10
14.31125059794986
 20
3.884524559290005
 30
0.0
 10
13.27372571355959
 20
3.75467603286809
 30
0.0
 10
12.49689553911373
 20
3.617741610547556
 30
0.0
 10
12.18762258226006
 20
3.555029621129462
 30
0.0
 10
12.1094046837417
 20
3.538609983883807
 30
0.0
  0
ARC
  5
1E6
330
1F
100
AcDbEntity
  8
0
  6
Continuous
 62
     7
370
    25
100
AcDbCircle
 10
23.2464629802
 20
3.8998196209
 30
0.0
 40
0.2000000000000142
100
AcDbArc
 50
353.0342477766
 51
82.8040860347
  0
SPLINE
  5
1E7
330
1F
100
AcDbEntity
  8
0
  6
Continuous
 62
     7
370
    25
100
AcDbSpline
210
0.0
220
0.0
230
1.0
 70
     8
 71
     3
 72
    14
 73
    10
 74
     0
 42
0.00000001
 43
0.00000001
 40
0.8513043678676254
 40
0.8513043678676254
 40
0.8513043678676254
 40
0.8513043678676254
 40
0.8560378532405389
 40
0.8660338344886196
 40
0.8756888427883988
 40
0.8849977189913464
 40
0.8939534257020234
 40
0.9025528972589622
 40
0.9054973013061784
 40
0.9054973013061784
 40
0.9054973013061784
 40
0.9054973013061784
 10
10.6660462249656
 20
3.633388952349368
 30
0.0
 10
10.63106899403362
 20
3.622581295041179
 30
0.0
 10
10.52237822886015
 20
3.588465567232584
 30
0.0
 10
10.34327051938564
 20
3.529386018618623
 30
0.0
 10
10.13203216751007
 20
3.454889183765283
 30
0.0
 10
9.93001729858758
 20
3.378583214172394
 30
0.0
 10
9.737380661884886
 20
3.300703186460764
 30
0.0
 10
9.591903717114002
 20
3.237636471802959
 30
0.0
 10
9.510636964525466
 20
3.200660442545229
 30
0.0
 10
9.489954743035852
 20
3.191129865271624
 30
0.0
  0
LINE
  5
1E8
330
1F
100
AcDbEntity
  8
0
  6
Continuous
 62
     7
370
    25
100
AcDbLine
 10
9.3207621435
 20
3.1103207426
 30
0.0
 11
9.4015712664
 21
2.9411281433
 31
0.0
  0
SPLINE
  5
1E9
330
1F
100
AcDbEntity
  8
0
  6
Continuous
 62
     7
370
    25
100
AcDbSpline
210
0.0
220
0.0
230
1.0
 70
     8
 71
     3
 72
    17
 73
    13
 74
     0
 42
0.00000001
 43
0.00000001
 40
0.1016614720720251
 40
0.1016614720720251
 40
0.1016614720720251
 40
0.1016614720720251
 40
0.1089998674022309
 40
0.118084529462581
 40
0.127514842657726
 40
0.1372852704325623
 40
0.1473879174712405
 40
0.1578164805284356
 40
0.1685634728403947
 40
0.1796191282126914
 40
0.1909773731687989
 40
0.2001435402442482
 40
0.2001435402442482
 40
0.2001435402442482
 40
0.2001435402442482
 10
9.956307832989847
 20
0.7653452031448167
 30
0.0
 10
10.01035620134465
 20
0.7586394362748908
 30
0.0
 10
10.13145635784845
 20
0.7447794018657087
 30
0.0
 10
10.32247921181962
 20
0.7266336025794712
 30
0.0
 10
10.53180971143394
 20
0.7107668365350301
 30
0.0
 10
10.74892783822238
 20
0.6981480837655113
 30
0.0
 10
10.973622839518
 20
0.6887373314668879
 30
0.0
 10
11.20567948118025
 20
0.682570354176825
 30
0.0
 10
11.44487049021331
 20
0.6795510089598334
 30
0.0
 10
11.69097970490163
 20
0.6796339673901867
 30
0.0
 10
11.92533670740704
 20
0.6826075756696454
 30
0.0
 10
12.07762143522755
 20
0.6860412269480133
 30
0.0
 10
12.14562385574281
 20
0.687860701301927
 30
0.0
  0
SPLINE
  5
1EA
330
1F
100
AcDbEntity
  8
0
  6
Continuous
 62
     7
370
    25
100
AcDbSpline
210
0.0
220
0.0
230
1.0
 70
     8
 71
     3
 72
    21
 73
    17
 74
     0
 42
0.00000001
 43
0.00000001
 40
0.913578602285428
 40
0.913578602285428
 40
0.913578602285428
 40
0.913578602285428
 40
0.9186607344498127
 40
0.9261662532257968
 40
0.9333026258827831
 40
0.9400712202263494
 40
0.9464747799611675
 40
0.9525175260177909
 40
0.9582048188585928
 40
0.9635466521340151
 40
0.9685565999026111
 40
0.9732499128166676
 40
0.9776510407515667
 40
0.9817870430140477
 40
0.9856942262062861
 40
0.9873639225097877
 40
0.9873639225097877
 40
0.9873639225097877
 40
0.9873639225097877
 10
9.32076214346905
 20
3.110320742615596
 30
0.0
 10
9.285540588947779
 20
3.092873153219531
 30
0.0
 10
9.198708091380766
 20
3.048839099462071
 30
0.0
 10
9.064399191925535
 20
2.976461343861609
 30
0.0
 10
8.921304554903635
 20
2.893069991850019
 30
0.0
 10
8.78855483629614
 20
2.80905502909387
 30
0.0
 10
8.666205829404262
 20
2.724629564419428
 30
0.0
 10
8.554426220247844
 20
2.639846588944941
 30
0.0
 10
8.453254406755274
 20
2.554920345957977
 30
0.0
 10
8.362754413511581
 20
2.469980155985388
 30
0.0
 10
8.283055601448716
 20
2.385084530574155
 30
0.0
 10
8.214155101928958
 20
2.300382971324478
 30
0.0
 10
8.156143211757895
 20
2.215942559112585
 30
0.0
 10
8.109029995444986
 20
2.131843194593568
 30
0.0
 10
8.079217813714198
 20
2.062739442590675
 30
0.0
 10
8.065475015915258
 20
2.021802621950116
 30
0.0
 10
8.061693168212614
 20
2.009446123281788
 30
0.0
  0
LINE
  5
1EB
330
1F
100
AcDbEntity
  8
0
  6
Continuous
 62
     7
370
    25
100
AcDbLine
 10
9.5707638658
 20
3.0219372659
 30
0.0
 11
9.489954743
 21
3.1911298653
 31
0.0
  0
SPLINE
  5
1EC
330
1F
100
AcDbEntity
  8
0
  6
Continuous
 62
     7
370
    25
100
AcDbSpline
210
0.0
220
0.0
230
1.0
 70
     8
 71
     3
 72
     8
 73
     4
 74
     0
 42
0.00000001
 43
0.00000001
 40
0.3039978368786456
 40
0.3039978368786456
 40
0.3039978368786456
 40
0.3039978368786456
 40
0.3083424724649536
 40
0.3083424724649536
 40
0.3083424724649536
 40
0.3083424724649536
 10
23.27151547640463
 20
4.098244348279671
 30
0.0
 10
23.2381785212778
 20
4.102453369763526
 30
0.0
 10
23.20484039829396
 20
4.106650867101861
 30
0.0
 10
23.1714999877116
 20
4.110828511626117
 30
0.0
  0
SPLINE
  5
1ED
330
1F
100
AcDbEntity
  8
0
  6
Continuous
 62
     7
370
    25
100
AcDbSpline
210
0.0
220
0.0
230
1.0
 70
     8
 71
     3
 72
    10
 73
     6
 74
     0
 42
0.00000001
 43
0.00000001
 40
0.4026300036255549
 40
0.4026300036255549
 40
0.4026300036255549
 40
0.4026300036255549
 40
0.4044033165867775
 40
0.4192566006634758
 40
0.4233343287137739
 40
0.4233343287137739
 40
0.4233343287137739
 40
0.4233343287137739
 10
20.99567626371591
 20
4.336150801184171
 30
0.0
 10
20.98200646940894
 20
4.337259311880465
 30
0.0
 10
20.85383384396034
 20
4.347596956354984
 30
0.0
 10
20.6941740061332
 20
4.359816165147631
 30
0.0
 10
20.54813982553972
 20
4.370315769879929
 30
0.0
 10
20.51668190721642
 20
4.37254563657599
 30
0.0
  0
ARC
  5
1EE
330
1F
100
AcDbEntity
  8
0
  6
Continuous
 62
     7
370
    25
100
AcDbCircle
 10
22.5091966804
 20
11.0532226876
 30
0.0
 40
0.1999999999999993
100
AcDbArc
 50
0.0
 51
90.0
  0
ARC
  5
1EF
330
1F
100
AcDbEntity
  8
0
  6
Continuous
 62
     7
370
    25
100
AcDbCircle
 10
22.5091966804
 20
10.2532226876
 30
0.0
 40
0.1999999999999993
100
AcDbArc
 50
270.0
 51
0.0
  0
ARC
  5
1F0
330
1F
100
AcDbEntity
  8
0
  6
Continuous
 62
     7
370
    25
100
AcDbCircle
 10
21.5035665478
 20
10.2532226876
 30
0.0
 40
0.1999999999999998
100
AcDbArc
 50
244.9831065219
 51
270.0
  0
ARC
  5
1F1
330
1F
100
AcDbEntity
  8
0
  6
Continuous
 62
     7
370
    25
100
AcDbCircle
 10
20.9091966804
 20
10.5305952924
 30
0.0
 40
0.2000000000000013
100
AcDbArc
 50
180.0
 51
244.9831065219
  0
ARC
  5
1F2
330
1F
100
AcDbEntity
  8
0
  6
Continuous
 62
     7
370
    25
100
AcDbCircle
 10
20.9091966804
 20
10.7758500828
 30
0.0
 40
0.1999999999999997
100
AcDbArc
 50
115.0168934781
 51
180.0
  0
ARC
  5
1F3
330
1F
100
AcDbEntity
  8
0
  6
Continuous
 62
     7
370
    25
100
AcDbCircle
 10
21.5035665478
 20
11.0532226876
 30
0.0
 40
0.1999999999999993
100
AcDbArc
 50
90.0
 51
115.0168934781
  0
LINE
  5
1F4
330
1F
100
AcDbEntity
  8
0
  6
Continuous
 62
     7
370
    25
100
AcDbLine
 10
20.8246195874
 20
10.9570867108
 30
0.0
 11
21.4189894547
 21
11.2344593156
 31
0.0
  0
LINE
  5
1F5
330
1F
100
AcDbEntity
  8
0
  6
Continuous
 62
     7
370
    25
100
AcDbLine
 10
21.5035665478
 20
11.2532226876
 30
0.0
 11
22.5091966804
 21
11.2532226876
 31
0.0
  0
LINE
  5
1F6
330
1F
100
AcDbEntity
  8
0
  6
Continuous
 62
     7
370
    25
100
AcDbLine
 10
22.7091966804
 20
11.0532226876
 30
0.0
 11
22.7091966804
 21
10.2532226876
 31
0.0
  0
LINE
  5
1F7
330
1F
100
AcDbEntity
  8
0
  6
Continuous
 62
     7
370
    25
100
AcDbLine
 10
21.5035665478
 20
10.0532226876
 30
0.0
 11
22.5091966804
 21
10.0532226876
 31
0.0
  0
LINE
  5
1F8
330
1F
100
AcDbEntity
  8
0
  6
Continuous
 62
     7
370
    25
100
AcDbLine
 10
20.8246195874
 20
10.3493586644
 30
0.0
 11
21.4189894547
 21
10.0719860596
 31
0.0
  0
LINE
  5
1F9
330
1F
100
AcDbEntity
  8
0
  6
Continuous
 62
     7
370
    25
100
AcDbLine
 10
20.7091966804
 20
10.7758500828
 30
0.0
 11
20.7091966804
 21
10.5305952924
 31
0.0
  0
ARC
  5
1FA
330
1F
100
AcDbEntity
  8
0
  6
Continuous
 62
     7
370
    25
100
AcDbCircle
 10
1.6363972213
 20
6.9836550601
 30
0.0
 40
0.5000000000000013
100
AcDbArc
 50
71.4694919548
 51
96.4456615707
  0
LINE
  5
1FB
330
1F
100
AcDbEntity
  8
0
  6
Continuous
 62
     7
370
    25
100
AcDbLine
 10
2.2370997013
 20
7.309647276
 30
0.0
 11
1.795302002
 21
7.4577323435
 31
0.0
  0
LINE
  5
1FC
330
1F
100
AcDbEntity
  8
0
  6
Continuous
 62
     7
370
    25
100
AcDbLine
 10
2.3440901448
 20
7.4636255051
 30
0.0
 11
2.2370997013
 21
7.309647276
 31
0.0
  0
LINE
  5
1FD
330
1F
100
AcDbEntity
  8
0
  6
Continuous
 62
     7
370
    25
100
AcDbLine
 10
2.3440901448
 20
7.4636255051
 30
0.0
 11
2.3397425962
 21
7.3387011327
 31
0.0
  0
LINE
  5
1FE
330
1F
100
AcDbEntity
  8
0
  6
Continuous
 62
     7
370
    25
100
AcDbLine
 10
2.3397425962
 20
7.3387011327
 30
0.0
 11
3.3391375755
 21
7.3039207444
 31
0.0
  0
LINE
  5
1FF
330
1F
100
AcDbEntity
  8
0
  6
Continuous
 62
     7
370
    25
100
AcDbLine
 10
3.3391375755
 20
7.3039207444
 30
0.0
 11
3.343485124
 21
7.4288451168
 31
0.0
  0
SPLINE
  5
200
330
1F
100
AcDbEntity
  8
0
  6
Continuous
 62
     7
370
    25
100
AcDbSpline
210
0.0
220
0.0
230
1.0
 70
     8
 71
     3
 72
    13
 73
     9
 74
     0
 42
0.00000001
 43
0.00000001
 40
0.1719765517609582
 40
0.1719765517609582
 40
0.1719765517609582
 40
0.1719765517609582
 40
0.1832976990279093
 40
0.1955696040927178
 40
0.2081435554480289
 40
0.2210115933777215
 40
0.2341618307558447
 40
0.2432605763489438
 40
0.2432605763489438
 40
0.2432605763489438
 40
0.2432605763489438
 10
4.939688830363854
 20
6.998610927503574
 30
0.0
 10
4.856461722243664
 20
7.025806661357278
 30
0.0
 10
4.682547755188944
 20
7.081043438757114
 30
0.0
 10
4.414522553482688
 20
7.161105850097016
 30
0.0
 10
4.133541151126215
 20
7.239425596291047
 30
0.0
 10
3.844569004552155
 20
7.314187732848206
 30
0.0
 10
3.580345193666706
 20
7.377096617898484
 30
0.0
 10
3.412305127861182
 20
7.414156573172866
 30
0.0
 10
3.343485124038562
 20
7.428845116805483
 30
0.0
  0
LINE
  5
201
330
1F
100
AcDbEntity
  8
0
  6
Continuous
 62
     7
370
    25
100
AcDbLine
 10
4.9396888304
 20
6.9986109275
 30
0.0
 11
4.8804008641
 21
6.8207312292
 31
0.0
  0
LINE
  5
202
330
1F
100
AcDbEntity
  8
0
  6
Continuous
 62
     7
370
    25
100
AcDbLine
 10
4.8804008641
 20
6.8207312292
 30
0.0
 11
5.0582805624
 21
6.761443263
 31
0.0
  0
LINE
  5
203
330
1F
100
AcDbEntity
  8
0
  6
Continuous
 62
     7
370
    25
100
AcDbLine
 10
5.0582805624
 20
6.761443263
 30
0.0
 11
5.1175685283
 21
6.9393229614
 31
0.0
  0
SPLINE
  5
204
330
1F
100
AcDbEntity
  8
0
  6
Continuous
 62
     7
370
    25
100
AcDbSpline
210
0.0
220
0.0
230
1.0
 70
     8
 71
     3
 72
    15
 73
    11
 74
     0
 42
0.00000001
 43
0.00000001
 40
0.0923754788611339
 40
0.0923754788611339
 40
0.0923754788611339
 40
0.0923754788611339
 40
0.0971757563559511
 40
0.1066781116462642
 40
0.1165615729559075
 40
0.1268142755473613
 40
0.1374283005010189
 40
0.1483936177789397
 40
0.1596997598396382
 40
0.1638953034054318
 40
0.1638953034054318
 40
0.1638953034054318
 40
0.1638953034054318
 10
6.658714561504527
 20
6.32604971854371
 30
0.0
 10
6.624954275832374
 20
6.341493789373319
 30
0.0
 10
6.524211620740865
 20
6.38717698291401
 30
0.0
 10
6.353106242186603
 20
6.462766829749857
 30
0.0
 10
6.142168553483068
 20
6.552495578660488
 30
0.0
 10
5.922028184966093
 20
6.642496210837568
 30
0.0
 10
5.692778855726269
 20
6.732256514845282
 30
0.0
 10
5.454556301934942
 20
6.821367695839641
 30
0.0
 10
5.261688930161302
 20
6.889962761797444
 30
0.0
 10
5.148291295004547
 20
6.92888236700814
 30
0.0
 10
5.117568528330309
 20
6.939322961383564
 30
0.0
  0
LINE
  5
205
330
1F
100
AcDbEntity
  8
0
  6
Continuous
 62
     7
370
    25
100
AcDbLine
 10
6.6001696372
 20
6.2156074629
 30
0.0
 11
6.6587145615
 21
6.3260497185
 31
0.0
  0
LINE
  5
206
330
1F
100
AcDbEntity
  8
0
  6
Continuous
 62
     7
370
    25
100
AcDbLine
 10
7.4914252248
 20
5.7757796855
 30
0.0
 11
6.6001696372
 21
6.2156074629
 31
0.0
  0
LINE
  5
207
330
1F
100
AcDbEntity
  8
0
  6
Continuous
 62
     7
370
    25
100
AcDbLine
 10
8.367245726
 20
5.2788886689
 30
0.0
 11
7.4914252248
 21
5.7757796855
 31
0.0
  0
SPLINE
  5
208
330
1F
100
AcDbEntity
  8
0
  6
Continuous
 62
     7
370
    25
100
AcDbSpline
210
0.0
220
0.0
230
1.0
 70
     8
 71
     3
 72
    21
 73
    17
 74
     0
 42
0.00000001
 43
0.00000001
 40
0.9171099585045259
 40
0.9171099585045259
 40
0.9171099585045259
 40
0.9171099585045259
 40
0.9188839764012169
 40
0.9272492779043127
 40
0.9352211037112476
 40
0.9427847385100345
 40
0.9499281877133432
 40
0.9566384642920557
 40
0.9629042034427838
 40
0.9687122876061149
 40
0.9740544849024281
 40
0.9789184321677268
 40
0.9832972184116099
 40
0.9871802458290098
 40
0.9905606741393513
 40
0.9929972486485057
 40
0.9929972486485057
 40
0.9929972486485057
 40
0.9929972486485057
 10
6.700213025680292
 20
5.551259571024477
 30
0.0
 10
6.713282610502084
 20
5.549670249367275
 30
0.0
 10
6.787972072690981
 20
5.54051131180318
 30
0.0
 10
6.921288308794693
 20
5.52337297360458
 30
0.0
 10
7.097015152917152
 20
5.499204928785576
 30
0.0
 10
7.263556301101215
 20
5.474848644091352
 30
0.0
 10
7.420647997616683
 20
5.450615075940283
 30
0.0
 10
7.568043427988057
 20
5.426735409652739
 30
0.0
 10
7.705504502497921
 20
5.403526592541677
 30
0.0
 10
7.832815892801369
 20
5.381205465773654
 30
0.0
 10
7.949756678464194
 20
5.359990013855527
 30
0.0
 10
8.05616462955546
 20
5.340147915581909
 30
0.0
 10
8.151829589538593
 20
5.321777737674213
 30
0.0
 10
8.236623613397512
 20
5.305182223501651
 30
0.0
 10
8.30721526899743
 20
5.291069119947241
 30
0.0
 10
8.34952753309186
 20
5.282502425272079
 30
0.0
 10
8.367245725963123
 20
5.278888668918702
 30
0.0
  0
LINE
  5
209
330
1F
100
AcDbEntity
  8
0
  6
Continuous
 62
     7
370
    25
100
AcDbLine
 10
6.7219757527
 20
5.7374923117
 30
0.0
 11
6.7002130257
 21
5.551259571
 31
0.0
  0
LINE
  5
20A
330
1F
100
AcDbEntity
  8
0
  6
Continuous
 62
     7
370
    25
100
AcDbLine
 10
6.5357430119
 20
5.7592550387
 30
0.0
 11
6.7219757527
 21
5.7374923117
 31
0.0
  0
LINE
  5
20B
330
1F
100
AcDbEntity
  8
0
  6
Continuous
 62
     7
370
    25
100
AcDbLine
 10
6.5139802853
 20
5.573022298
 30
0.0
 11
6.5357430119
 21
5.7592550387
 31
0.0
  0
SPLINE
  5
20C
330
1F
100
AcDbEntity
  8
0
  6
Continuous
 62
     7
370
    25
100
AcDbSpline
210
0.0
220
0.0
230
1.0
 70
     8
 71
     3
 72
    14
 73
    10
 74
     0
 42
0.00000001
 43
0.00000001
 40
0.8412305627393991
 40
0.8412305627393991
 40
0.8412305627393991
 40
0.8412305627393991
 40
0.8504813585168555
 40
0.8612076967744442
 40
0.8716393257296176
 40
0.8817634137109616
 40
0.8915636048210556
 40
0.9010273643172574
 40
0.9086884529623745
 40
0.9086884529623745
 40
0.9086884529623745
 40
0.9086884529623745
 10
5.016412972398807
 20
5.682009181843469
 30
0.0
 10
5.085031364783966
 20
5.679766548902669
 30
0.0
 10
5.233185775402687
 20
5.674089335092694
 30
0.0
 10
5.458584161507932
 20
5.662743129549044
 30
0.0
 10
5.690292345963556
 20
5.648189071974202
 30
0.0
 10
5.914948996803355
 20
5.631296923308414
 30
0.0
 10
6.132241062329575
 20
5.612461040664669
 30
0.0
 10
6.331119196394866
 20
5.593005291743339
 30
0.0
 10
6.4574780099006
 20
5.579361937089131
 30
0.0
 10
6.513980285317101
 20
5.573022297960769
 30
0.0
  0
LINE
  5
20D
330
1F
100
AcDbEntity
  8
0
  6
Continuous
 62
     7
370
    25
100
AcDbLine
 10
5.0215745427
 20
5.8694381236
 30
0.0
 11
5.0164129724
 21
5.6820091818
 31
0.0
  0
LINE
  5
20E
330
1F
100
AcDbEntity
  8
0
  6
Continuous
 62
     7
370
    25
100
AcDbLine
 10
4.8341456009
 20
5.8745996938
 30
0.0
 11
5.0215745427
 21
5.8694381236
 31
0.0
  0
LINE
  5
20F
330
1F
100
AcDbEntity
  8
0
  6
Continuous
 62
     7
370
    25
100
AcDbLine
 10
4.8289840309
 20
5.6871707521
 30
0.0
 11
4.8341456009
 21
5.8745996938
 31
0.0
  0
SPLINE
  5
210
330
1F
100
AcDbEntity
  8
0
  6
Continuous
 62
     7
370
    25
100
AcDbSpline
210
0.0
220
0.0
230
1.0
 70
     8
 71
     3
 72
    14
 73
    10
 74
     0
 42
0.00000001
 43
0.00000001
 40
0.7653436881772445
 40
0.7653436881772445
 40
0.7653436881772445
 40
0.7653436881772445
 40
0.7683199516741555
 40
0.7807243374027457
 40
0.7929265285864308
 40
0.8049160410865589
 40
0.8166790838088313
 40
0.8282035242084964
 40
0.8328090804054155
 40
0.8328090804054155
 40
0.8328090804054155
 40
0.8328090804054155
 10
3.327615697623856
 20
5.658133505270244
 30
0.0
 10
3.349662271923973
 20
5.659493240600987
 30
0.0
 10
3.463607100600197
 20
5.666306354315012
 30
0.0
 10
3.668064945947899
 20
5.676539277115968
 30
0.0
 10
3.939510733982458
 20
5.68590226144464
 30
0.0
 10
4.206307183356119
 20
5.691104855137121
 30
0.0
 10
4.468121058896273
 20
5.692279086855986
 30
0.0
 10
4.675125507852615
 20
5.690277712195923
 30
0.0
 10
4.794812320630681
 20
5.687935778257885
 30
0.0
 10
4.82898403094762
 20
5.687170752102066
 30
0.0
  0
LINE
  5
211
330
1F
100
AcDbEntity
  8
0
  6
Continuous
 62
     7
370
    25
100
AcDbLine
 10
3.3302447527
 20
5.7831058545
 30
0.0
 11
3.3276156976
 21
5.6581335053
 31
0.0
  0
LINE
  5
212
330
1F
100
AcDbEntity
  8
0
  6
Continuous
 62
     7
370
    25
100
AcDbLine
 10
2.330465959
 20
5.8041382954
 30
0.0
 11
3.3302447527
 21
5.7831058545
 31
0.0
  0
LINE
  5
213
330
1F
100
AcDbEntity
  8
0
  6
Continuous
 62
     7
370
    25
100
AcDbLine
 10
2.3278369039
 20
5.6791659462
 30
0.0
 11
2.330465959
 21
5.8041382954
 31
0.0
  0
LINE
  5
214
330
1F
100
AcDbEntity
  8
0
  6
Continuous
 62
     7
370
    25
100
AcDbLine
 10
2.3278369039
 20
5.6791659462
 30
0.0
 11
2.2022055434
 21
5.8411590364
 31
0.0
  0
LINE
  5
215
330
1F
100
AcDbEntity
  8
0
  6
Continuous
 62
     7
370
    25
100
AcDbLine
 10
2.2022055434
 20
5.8411590364
 30
0.0
 11
1.7466363991
 21
5.7163434714
 31
0.0
  0
ARC
  5
216
330
1F
100
AcDbEntity
  8
0
  6
Continuous
 62
     7
370
    25
100
AcDbCircle
 10
1.6145167571
 20
6.1985720481
 30
0.0
 40
0.5
100
AcDbArc
 50
260.3614689044
 51
285.3217558421
  0
ARC
  5
217
330
1F
100
AcDbEntity
  8
0
  6
Continuous
 62
     7
370
    25
100
AcDbCircle
 10
1.680919235
 20
6.5895678071
 30
0.0
 40
0.896594216637483
100
AcDbArc
 50
96.4456615707
 51
260.3614689044
  0
CIRCLE
  5
218
330
1F
100
AcDbEntity
  8
0
  6
Continuous
 62
     7
370
    25
100
AcDbCircle
 10
1.680919235
 20
6.5895678071
 30
0.0
 40
0.2500000000000009
  0
ARC
  5
219
330
1F
100
AcDbEntity
  8
0
  6
Continuous
 62
     7
370
    25
100
AcDbCircle
 10
4.8715931715
 20
6.3363604079
 30
0.0
 40
0.1499999999999992
100
AcDbArc
 50
268.6301940022
 51
71.3777104148
  0
SPLINE
  5
21A
330
1F
100
AcDbEntity
  8
0
  6
Continuous
 62
     7
370
    25
100
AcDbSpline
210
0.0
220
0.0
230
1.0
 70
     8
 71
     3
 72
     9
 73
     5
 74
     0
 42
0.00000001
 43
0.00000001
 40
0.1656443408080667
 40
0.1656443408080667
 40
0.1656443408080667
 40
0.1656443408080667
 40
0.1926123377322566
 40
0.2258772548504555
 40
0.2258772548504555
 40
0.2258772548504555
 40
0.2258772548504555
 10
4.919492370396615
 20
6.478507046127652
 30
0.0
 10
4.72801973533048
 20
6.543027642165859
 30
0.0
 10
4.297625612754436
 20
6.678725540121619
 30
0.0
 10
3.861817021542945
 20
6.79515604584009
 30
0.0
 10
3.619746260114576
 20
6.853435455091062
 30
0.0
  0
ARC
  5
21B
330
1F
100
AcDbEntity
  8
0
  6
Continuous
 62
     7
370
    25
100
AcDbCircle
 10
3.1516149336
 20
4.9089938743
 30
0.0
 40
1.999999999999998
100
AcDbArc
 50
76.4634467699
 51
88.0068285569
  0
LINE
  5
21C
330
1F
100
AcDbEntity
  8
0
  6
Continuous
 62
     7
370
    25
100
AcDbLine
 10
3.2211757101
 20
6.9077838328
 30
0.0
 11
2.46207595
 21
6.9342016005
 31
0.0
  0
ARC
  5
21D
330
1F
100
AcDbEntity
  8
0
  6
Continuous
 62
     7
370
    25
100
AcDbCircle
 10
2.4568588918
 20
6.7842923536
 30
0.0
 40
0.1500000000000014
100
AcDbArc
 50
88.0068285569
 51
194.087634117
  0
ARC
  5
21E
330
1F
100
AcDbEntity
  8
0
  6
Continuous
 62
     7
370
    25
100
AcDbCircle
 10
1.680919235
 20
6.5895678071
 30
0.0
 40
0.6499999999999991
100
AcDbArc
 50
342.7140354762
 51
14.087634117
  0
ARC
  5
21F
330
1F
100
AcDbEntity
  8
0
  6
Continuous
 62
     7
370
    25
100
AcDbCircle
 10
2.4447861289
 20
6.3518550216
 30
0.0
 40
0.1499999999999997
100
AcDbArc
 50
162.7140354762
 51
268.7948410363
  0
LINE
  5
220
330
1F
100
AcDbEntity
  8
0
  6
Continuous
 62
     7
370
    25
100
AcDbLine
 10
3.5189008939
 20
6.1792255795
 30
0.0
 11
2.4416312628
 21
6.2018882025
 31
0.0
  0
ARC
  5
221
330
1F
100
AcDbEntity
  8
0
  6
Continuous
 62
     7
370
    25
100
AcDbCircle
 10
3.6240630986
 20
11.1781195482
 30
0.0
 40
5.000000000000002
100
AcDbArc
 50
268.7948410363
 51
271.9573234968
  0
SPLINE
  5
222
330
1F
100
AcDbEntity
  8
0
  6
Continuous
 62
     7
370
    25
100
AcDbSpline
210
0.0
220
0.0
230
1.0
 70
     8
 71
     3
 72
     9
 73
     5
 74
     0
 42
0.00000001
 43
0.00000001
 40
0.7871205696218658
 40
0.7871205696218658
 40
0.7871205696218658
 40
0.7871205696218658
 40
0.8049182370231102
 40
0.8340249084127113
 40
0.8340249084127113
 40
0.8340249084127113
 40
0.8340249084127113
 10
3.794838575327103
 20
6.181036825632044
 30
0.0
 10
3.930569087781064
 20
6.1856754206386
 30
0.0
 10
4.288329543320365
 20
6.193920550294564
 30
0.0
 10
4.646137220345842
 20
6.191708673104014
 30
0.0
 10
4.868007369446881
 20
6.186403273981633
 30
0.0
  0
ARC
  5
223
330
1F
100
AcDbEntity
  8
0
  6
Continuous
 62
     7
370
    25
100
AcDbCircle
 10
1.6363972213
 20
4.9769023603
 30
0.0
 40
0.5000000000000013
100
AcDbArc
 50
71.4694919548
 51
96.4456615707
  0
LINE
  5
224
330
1F
100
AcDbEntity
  8
0
  6
Continuous
 62
     7
370
    25
100
AcDbLine
 10
2.2370997013
 20
5.3028945762
 30
0.0
 11
1.795302002
 21
5.4509796437
 31
0.0
  0
LINE
  5
225
330
1F
100
AcDbEntity
  8
0
  6
Continuous
 62
     7
370
    25
100
AcDbLine
 10
2.3440901448
 20
5.4568728052
 30
0.0
 11
2.2370997013
 21
5.3028945762
 31
0.0
  0
LINE
  5
226
330
1F
100
AcDbEntity
  8
0
  6
Continuous
 62
     7
370
    25
100
AcDbLine
 10
2.3440901448
 20
5.4568728052
 30
0.0
 11
2.3397425962
 21
5.3319484328
 31
0.0
  0
LINE
  5
227
330
1F
100
AcDbEntity
  8
0
  6
Continuous
 62
     7
370
    25
100
AcDbLine
 10
2.3397425962
 20
5.3319484328
 30
0.0
 11
3.3391375755
 21
5.2971680446
 31
0.0
  0
LINE
  5
228
330
1F
100
AcDbEntity
  8
0
  6
Continuous
 62
     7
370
    25
100
AcDbLine
 10
3.3391375755
 20
5.2971680446
 30
0.0
 11
3.343485124
 21
5.422092417
 31
0.0
  0
SPLINE
  5
229
330
1F
100
AcDbEntity
  8
0
  6
Continuous
 62
     7
370
    25
100
AcDbSpline
210
0.0
220
0.0
230
1.0
 70
     8
 71
     3
 72
    13
 73
     9
 74
     0
 42
0.00000001
 43
0.00000001
 40
0.1719765517609582
 40
0.1719765517609582
 40
0.1719765517609582
 40
0.1719765517609582
 40
0.1832976990279093
 40
0.1955696040927178
 40
0.2081435554480289
 40
0.2210115933777215
 40
0.2341618307558447
 40
0.2432605763489438
 40
0.2432605763489438
 40
0.2432605763489438
 40
0.2432605763489438
 10
4.939688830363854
 20
4.991858227690024
 30
0.0
 10
4.856461722243664
 20
5.019053961543728
 30
0.0
 10
4.682547755188944
 20
5.074290738943564
 30
0.0
 10
4.414522553482688
 20
5.154353150283466
 30
0.0
 10
4.133541151126215
 20
5.232672896477497
 30
0.0
 10
3.844569004552155
 20
5.307435033034656
 30
0.0
 10
3.580345193666706
 20
5.370343918084934
 30
0.0
 10
3.412305127861182
 20
5.407403873359316
 30
0.0
 10
3.343485124038562
 20
5.422092416991934
 30
0.0
  0
LINE
  5
22A
330
1F
100
AcDbEntity
  8
0
  6
Continuous
 62
     7
370
    25
100
AcDbLine
 10
4.9396888304
 20
4.9918582277
 30
0.0
 11
4.8804008641
 21
4.8139785294
 31
0.0
  0
LINE
  5
22B
330
1F
100
AcDbEntity
  8
0
  6
Continuous
 62
     7
370
    25
100
AcDbLine
 10
4.8804008641
 20
4.8139785294
 30
0.0
 11
5.0582805624
 21
4.7546905632
 31
0.0
  0
LINE
  5
22C
330
1F
100
AcDbEntity
  8
0
  6
Continuous
 62
     7
370
    25
100
AcDbLine
 10
5.0582805624
 20
4.7546905632
 30
0.0
 11
5.1175685283
 21
4.9325702616
 31
0.0
  0
SPLINE
  5
22D
330
1F
100
AcDbEntity
  8
0
  6
Continuous
 62
     7
370
    25
100
AcDbSpline
210
0.0
220
0.0
230
1.0
 70
     8
 71
     3
 72
    15
 73
    11
 74
     0
 42
0.00000001
 43
0.00000001
 40
0.0923754788611339
 40
0.0923754788611339
 40
0.0923754788611339
 40
0.0923754788611339
 40
0.0971757563559511
 40
0.1066781116462642
 40
0.1165615729559075
 40
0.1268142755473613
 40
0.1374283005010189
 40
0.1483936177789397
 40
0.1596997598396382
 40
0.1638953034054318
 40
0.1638953034054318
 40
0.1638953034054318
 40
0.1638953034054318
 10
6.658714561504527
 20
4.31929701873016
 30
0.0
 10
6.624954275832374
 20
4.334741089559769
 30
0.0
 10
6.524211620740865
 20
4.380424283100461
 30
0.0
 10
6.353106242186603
 20
4.456014129936307
 30
0.0
 10
6.142168553483068
 20
4.545742878846937
 30
0.0
 10
5.922028184966093
 20
4.635743511024018
 30
0.0
 10
5.692778855726269
 20
4.725503815031731
 30
0.0
 10
5.454556301934942
 20
4.814614996026091
 30
0.0
 10
5.261688930161302
 20
4.883210061983895
 30
0.0
 10
5.148291295004547
 20
4.92212966719459
 30
0.0
 10
5.117568528330309
 20
4.932570261570014
 30
0.0
  0
LINE
  5
22E
330
1F
100
AcDbEntity
  8
0
  6
Continuous
 62
     7
370
    25
100
AcDbLine
 10
6.6001696372
 20
4.2088547631
 30
0.0
 11
6.6587145615
 21
4.3192970187
 31
0.0
  0
LINE
  5
22F
330
1F
100
AcDbEntity
  8
0
  6
Continuous
 62
     7
370
    25
100
AcDbLine
 10
7.4914252248
 20
3.7690269857
 30
0.0
 11
6.6001696372
 21
4.2088547631
 31
0.0
  0
LINE
  5
230
330
1F
100
AcDbEntity
  8
0
  6
Continuous
 62
     7
370
    25
100
AcDbLine
 10
8.367245726
 20
3.2721359691
 30
0.0
 11
7.4914252248
 21
3.7690269857
 31
0.0
  0
SPLINE
  5
231
330
1F
100
AcDbEntity
  8
0
  6
Continuous
 62
     7
370
    25
100
AcDbSpline
210
0.0
220
0.0
230
1.0
 70
     8
 71
     3
 72
    21
 73
    17
 74
     0
 42
0.00000001
 43
0.00000001
 40
0.9171099585045259
 40
0.9171099585045259
 40
0.9171099585045259
 40
0.9171099585045259
 40
0.9188839764012169
 40
0.9272492779043127
 40
0.9352211037112476
 40
0.9427847385100345
 40
0.9499281877133432
 40
0.9566384642920557
 40
0.9629042034427838
 40
0.9687122876061149
 40
0.9740544849024281
 40
0.9789184321677268
 40
0.9832972184116099
 40
0.9871802458290098
 40
0.9905606741393513
 40
0.9929972486485057
 40
0.9929972486485057
 40
0.9929972486485057
 40
0.9929972486485057
 10
6.700213025680292
 20
3.544506871210926
 30
0.0
 10
6.713282610502084
 20
3.542917549553726
 30
0.0
 10
6.787972072690981
 20
3.533758611989631
 30
0.0
 10
6.921288308794693
 20
3.51662027379103
 30
0.0
 10
7.097015152917152
 20
3.492452228972027
 30
0.0
 10
7.263556301101215
 20
3.468095944277803
 30
0.0
 10
7.420647997616683
 20
3.443862376126734
 30
0.0
 10
7.568043427988057
 20
3.419982709839189
 30
0.0
 10
7.705504502497921
 20
3.396773892728127
 30
0.0
 10
7.832815892801369
 20
3.374452765960104
 30
0.0
 10
7.949756678464194
 20
3.353237314041977
 30
0.0
 10
8.05616462955546
 20
3.33339521576836
 30
0.0
 10
8.151829589538593
 20
3.315025037860664
 30
0.0
 10
8.236623613397512
 20
3.298429523688102
 30
0.0
 10
8.30721526899743
 20
3.284316420133691
 30
0.0
 10
8.34952753309186
 20
3.275749725458529
 30
0.0
 10
8.367245725963123
 20
3.272135969105152
 30
0.0
  0
LINE
  5
232
330
1F
100
AcDbEntity
  8
0
  6
Continuous
 62
     7
370
    25
100
AcDbLine
 10
6.7219757527
 20
3.7307396119
 30
0.0
 11
6.7002130257
 21
3.5445068712
 31
0.0
  0
LINE
  5
233
330
1F
100
AcDbEntity
  8
0
  6
Continuous
 62
     7
370
    25
100
AcDbLine
 10
6.5357430119
 20
3.7525023389
 30
0.0
 11
6.7219757527
 21
3.7307396119
 31
0.0
  0
LINE
  5
234
330
1F
100
AcDbEntity
  8
0
  6
Continuous
 62
     7
370
    25
100
AcDbLine
 10
6.5139802853
 20
3.5662695981
 30
0.0
 11
6.5357430119
 21
3.7525023389
 31
0.0
  0
SPLINE
  5
235
330
1F
100
AcDbEntity
  8
0
  6
Continuous
 62
     7
370
    25
100
AcDbSpline
210
0.0
220
0.0
230
1.0
 70
     8
 71
     3
 72
    14
 73
    10
 74
     0
 42
0.00000001
 43
0.00000001
 40
0.8412305627393991
 40
0.8412305627393991
 40
0.8412305627393991
 40
0.8412305627393991
 40
0.8504813585168555
 40
0.8612076967744442
 40
0.8716393257296176
 40
0.8817634137109616
 40
0.8915636048210556
 40
0.9010273643172574
 40
0.9086884529623745
 40
0.9086884529623745
 40
0.9086884529623745
 40
0.9086884529623745
 10
5.016412972398807
 20
3.67525648202992
 30
0.0
 10
5.085031364783966
 20
3.673013849089119
 30
0.0
 10
5.233185775402687
 20
3.667336635279144
 30
0.0
 10
5.458584161507932
 20
3.655990429735494
 30
0.0
 10
5.690292345963556
 20
3.641436372160652
 30
0.0
 10
5.914948996803355
 20
3.624544223494865
 30
0.0
 10
6.132241062329575
 20
3.60570834085112
 30
0.0
 10
6.331119196394866
 20
3.58625259192979
 30
0.0
 10
6.4574780099006
 20
3.572609237275581
 30
0.0
 10
6.513980285317101
 20
3.566269598147219
 30
0.0
  0
LINE
  5
236
330
1F
100
AcDbEntity
  8
0
  6
Continuous
 62
     7
370
    25
100
AcDbLine
 10
5.0215745427
 20
3.8626854237
 30
0.0
 11
5.0164129724
 21
3.675256482
 31
0.0
  0
LINE
  5
237
330
1F
100
AcDbEntity
  8
0
  6
Continuous
 62
     7
370
    25
100
AcDbLine
 10
4.8341456009
 20
3.867846994
 30
0.0
 11
5.0215745427
 21
3.8626854237
 31
0.0
  0
LINE
  5
238
330
1F
100
AcDbEntity
  8
0
  6
Continuous
 62
     7
370
    25
100
AcDbLine
 10
4.8289840309
 20
3.6804180523
 30
0.0
 11
4.8341456009
 21
3.867846994
 31
0.0
  0
SPLINE
  5
239
330
1F
100
AcDbEntity
  8
0
  6
Continuous
 62
     7
370
    25
100
AcDbSpline
210
0.0
220
0.0
230
1.0
 70
     8
 71
     3
 72
    14
 73
    10
 74
     0
 42
0.00000001
 43
0.00000001
 40
0.7653436881772445
 40
0.7653436881772445
 40
0.7653436881772445
 40
0.7653436881772445
 40
0.7683199516741555
 40
0.7807243374027457
 40
0.7929265285864308
 40
0.8049160410865589
 40
0.8166790838088313
 40
0.8282035242084964
 40
0.8328090804054155
 40
0.8328090804054155
 40
0.8328090804054155
 40
0.8328090804054155
 10
3.327615697623856
 20
3.651380805456694
 30
0.0
 10
3.349662271923973
 20
3.652740540787437
 30
0.0
 10
3.463607100600197
 20
3.659553654501461
 30
0.0
 10
3.668064945947899
 20
3.669786577302418
 30
0.0
 10
3.939510733982458
 20
3.67914956163109
 30
0.0
 10
4.206307183356119
 20
3.684352155323572
 30
0.0
 10
4.468121058896273
 20
3.685526387042436
 30
0.0
 10
4.675125507852615
 20
3.683525012382373
 30
0.0
 10
4.794812320630681
 20
3.681183078444335
 30
0.0
 10
4.82898403094762
 20
3.680418052288516
 30
0.0
  0
LINE
  5
23A
330
1F
100
AcDbEntity
  8
0
  6
Continuous
 62
     7
370
    25
100
AcDbLine
 10
3.3302447527
 20
3.7763531547
 30
0.0
 11
3.3276156976
 21
3.6513808055
 31
0.0
  0
LINE
  5
23B
330
1F
100
AcDbEntity
  8
0
  6
Continuous
 62
     7
370
    25
100
AcDbLine
 10
2.330465959
 20
3.7973855956
 30
0.0
 11
3.3302447527
 21
3.7763531547
 31
0.0
  0
LINE
  5
23C
330
1F
100
AcDbEntity
  8
0
  6
Continuous
 62
     7
370
    25
100
AcDbLine
 10
2.3278369039
 20
3.6724132464
 30
0.0
 11
2.330465959
 21
3.7973855956
 31
0.0
  0
LINE
  5
23D
330
1F
100
AcDbEntity
  8
0
  6
Continuous
 62
     7
370
    25
100
AcDbLine
 10
2.3278369039
 20
3.6724132464
 30
0.0
 11
2.2022055434
 21
3.8344063366
 31
0.0
  0
LINE
  5
23E
330
1F
100
AcDbEntity
  8
0
  6
Continuous
 62
     7
370
    25
100
AcDbLine
 10
2.2022055434
 20
3.8344063366
 30
0.0
 11
1.7466363991
 21
3.7095907716
 31
0.0
  0
ARC
  5
23F
330
1F
100
AcDbEntity
  8
0
  6
Continuous
 62
     7
370
    25
100
AcDbCircle
 10
1.6145167571
 20
4.1918193483
 30
0.0
 40
0.5000000000000004
100
AcDbArc
 50
260.3614689044
 51
285.3217558421
  0
ARC
  5
240
330
1F
100
AcDbEntity
  8
0
  6
Continuous
 62
     7
370
    25
100
AcDbCircle
 10
1.680919235
 20
4.5828151073
 30
0.0
 40
0.896594216637482
100
AcDbArc
 50
96.4456615707
 51
260.3614689044
  0
CIRCLE
  5
241
330
1F
100
AcDbEntity
  8
0
  6
Continuous
 62
     7
370
    25
100
AcDbCircle
 10
1.680919235
 20
4.5828151073
 30
0.0
 40
0.2500000000000009
  0
ARC
  5
242
330
1F
100
AcDbEntity
  8
0
  6
Continuous
 62
     7
370
    25
100
AcDbCircle
 10
4.8715931715
 20
4.3296077081
 30
0.0
 40
0.1499999999999993
100
AcDbArc
 50
268.6301940022
 51
71.3777104148
  0
SPLINE
  5
243
330
1F
100
AcDbEntity
  8
0
  6
Continuous
 62
     7
370
    25
100
AcDbSpline
210
0.0
220
0.0
230
1.0
 70
     8
 71
     3
 72
     9
 73
     5
 74
     0
 42
0.00000001
 43
0.00000001
 40
0.1656443408080667
 40
0.1656443408080667
 40
0.1656443408080667
 40
0.1656443408080667
 40
0.1926123377322566
 40
0.2258772548504555
 40
0.2258772548504555
 40
0.2258772548504555
 40
0.2258772548504555
 10
4.919492370396615
 20
4.471754346314103
 30
0.0
 10
4.72801973533048
 20
4.536274942352309
 30
0.0
 10
4.297625612754436
 20
4.67197284030807
 30
0.0
 10
3.861817021542945
 20
4.78840334602654
 30
0.0
 10
3.619746260114576
 20
4.846682755277512
 30
0.0
  0
ARC
  5
244
330
1F
100
AcDbEntity
  8
0
  6
Continuous
 62
     7
370
    25
100
AcDbCircle
 10
3.1516149336
 20
2.9022411745
 30
0.0
 40
1.999999999999998
100
AcDbArc
 50
76.4634467699
 51
88.0068285569
  0
LINE
  5
245
330
1F
100
AcDbEntity
  8
0
  6
Continuous
 62
     7
370
    25
100
AcDbLine
 10
3.2211757101
 20
4.901031133
 30
0.0
 11
2.46207595
 21
4.9274489007
 31
0.0
  0
ARC
  5
246
330
1F
100
AcDbEntity
  8
0
  6
Continuous
 62
     7
370
    25
100
AcDbCircle
 10
2.4568588918
 20
4.7775396538
 30
0.0
 40
0.1500000000000005
100
AcDbArc
 50
88.0068285569
 51
194.087634117
  0
ARC
  5
247
330
1F
100
AcDbEntity
  8
0
  6
Continuous
 62
     7
370
    25
100
AcDbCircle
 10
1.680919235
 20
4.5828151073
 30
0.0
 40
0.6499999999999989
100
AcDbArc
 50
342.7140354762
 51
14.087634117
  0
ARC
  5
248
330
1F
100
AcDbEntity
  8
0
  6
Continuous
 62
     7
370
    25
100
AcDbCircle
 10
2.4447861289
 20
4.3451023218
 30
0.0
 40
0.1499999999999997
100
AcDbArc
 50
162.7140354762
 51
268.7948410363
  0
LINE
  5
249
330
1F
100
AcDbEntity
  8
0
  6
Continuous
 62
     7
370
    25
100
AcDbLine
 10
3.5189008939
 20
4.1724728797
 30
0.0
 11
2.4416312628
 21
4.1951355027
 31
0.0
  0
ARC
  5
24A
330
1F
100
AcDbEntity
  8
0
  6
Continuous
 62
     7
370
    25
100
AcDbCircle
 10
3.6240630986
 20
9.1713668484
 30
0.0
 40
5.000000000000002
100
AcDbArc
 50
268.7948410363
 51
271.9573234968
  0
SPLINE
  5
24B
330
1F
100
AcDbEntity
  8
0
  6
Continuous
 62
     7
370
    25
100
AcDbSpline
210
0.0
220
0.0
230
1.0
 70
     8
 71
     3
 72
     9
 73
     5
 74
     0
 42
0.00000001
 43
0.00000001
 40
0.7871205696218658
 40
0.7871205696218658
 40
0.7871205696218658
 40
0.7871205696218658
 40
0.8049182370231102
 40
0.8340249084127113
 40
0.8340249084127113
 40
0.8340249084127113
 40
0.8340249084127113
 10
3.794838575327103
 20
4.174284125818494
 30
0.0
 10
3.930569087781064
 20
4.178922720825051
 30
0.0
 10
4.288329543320365
 20
4.187167850481014
 30
0.0
 10
4.646137220345842
 20
4.184955973290464
 30
0.0
 10
4.868007369446881
 20
4.179650574168083
 30
0.0
  0
ARC
  5
24C
330
1F
100
AcDbEntity
  8
0
  6
Continuous
 62
     7
370
    25
100
AcDbCircle
 10
1.5907892054
 20
2.5900828613
 30
0.0
 40
0.5
100
AcDbArc
 50
71.4694919548
 51
96.4456615707
  0
LINE
  5
24D
330
1F
100
AcDbEntity
  8
0
  6
Continuous
 62
     7
370
    25
100
AcDbLine
 10
2.1914916854
 20
2.9160750772
 30
0.0
 11
1.7496939861
 21
3.0641601447
 31
0.0
  0
LINE
  5
24E
330
1F
100
AcDbEntity
  8
0
  6
Continuous
 62
     7
370
    25
100
AcDbLine
 10
2.2984821289
 20
3.0700533062
 30
0.0
 11
2.1914916854
 21
2.9160750772
 31
0.0
  0
LINE
  5
24F
330
1F
100
AcDbEntity
  8
0
  6
Continuous
 62
     7
370
    25
100
AcDbLine
 10
2.2984821289
 20
3.0700533062
 30
0.0
 11
2.2941345803
 21
2.9451289338
 31
0.0
  0
LINE
  5
250
330
1F
100
AcDbEntity
  8
0
  6
Continuous
 62
     7
370
    25
100
AcDbLine
 10
2.2941345803
 20
2.9451289338
 30
0.0
 11
3.2935295596
 21
2.9103485456
 31
0.0
  0
LINE
  5
251
330
1F
100
AcDbEntity
  8
0
  6
Continuous
 62
     7
370
    25
100
AcDbLine
 10
3.2935295596
 20
2.9103485456
 30
0.0
 11
3.2978771081
 21
3.035272918
 31
0.0
  0
SPLINE
  5
252
330
1F
100
AcDbEntity
  8
0
  6
Continuous
 62
     7
370
    25
100
AcDbSpline
210
0.0
220
0.0
230
1.0
 70
     8
 71
     3
 72
    13
 73
     9
 74
     0
 42
0.00000001
 43
0.00000001
 40
0.1719765517609582
 40
0.1719765517609582
 40
0.1719765517609582
 40
0.1719765517609582
 40
0.1832976990279093
 40
0.1955696040927178
 40
0.2081435554480289
 40
0.2210115933777215
 40
0.2341618307558447
 40
0.2432605763489438
 40
0.2432605763489438
 40
0.2432605763489438
 40
0.2432605763489438
 10
4.894080814459
 20
2.605038728669362
 30
0.0
 10
4.81085370633881
 20
2.632234462523065
 30
0.0
 10
4.63693973928409
 20
2.687471239922901
 30
0.0
 10
4.368914537577834
 20
2.767533651262803
 30
0.0
 10
4.087933135221361
 20
2.845853397456835
 30
0.0
 10
3.798960988647301
 20
2.920615534013994
 30
0.0
 10
3.534737177761852
 20
2.983524419064272
 30
0.0
 10
3.366697111956328
 20
3.020584374338653
 30
0.0
 10
3.297877108133708
 20
3.035272917971271
 30
0.0
  0
LINE
  5
253
330
1F
100
AcDbEntity
  8
0
  6
Continuous
 62
     7
370
    25
100
AcDbLine
 10
4.8940808145
 20
2.6050387287
 30
0.0
 11
4.8347928482
 21
2.4271590304
 31
0.0
  0
LINE
  5
254
330
1F
100
AcDbEntity
  8
0
  6
Continuous
 62
     7
370
    25
100
AcDbLine
 10
4.8347928482
 20
2.4271590304
 30
0.0
 11
5.0126725465
 21
2.3678710642
 31
0.0
  0
LINE
  5
255
330
1F
100
AcDbEntity
  8
0
  6
Continuous
 62
     7
370
    25
100
AcDbLine
 10
5.0126725465
 20
2.3678710642
 30
0.0
 11
5.0719605124
 21
2.5457507625
 31
0.0
  0
SPLINE
  5
256
330
1F
100
AcDbEntity
  8
0
  6
Continuous
 62
     7
370
    25
100
AcDbSpline
210
0.0
220
0.0
230
1.0
 70
     8
 71
     3
 72
    15
 73
    11
 74
     0
 42
0.00000001
 43
0.00000001
 40
0.0923754788611339
 40
0.0923754788611339
 40
0.0923754788611339
 40
0.0923754788611339
 40
0.0971757563559511
 40
0.1066781116462642
 40
0.1165615729559075
 40
0.1268142755473613
 40
0.1374283005010189
 40
0.1483936177789397
 40
0.1596997598396382
 40
0.1638953034054318
 40
0.1638953034054318
 40
0.1638953034054318
 40
0.1638953034054318
 10
6.613106545599673
 20
1.932477519709498
 30
0.0
 10
6.57934625992752
 20
1.947921590539106
 30
0.0
 10
6.478603604836011
 20
1.993604784079798
 30
0.0
 10
6.30749822628175
 20
2.069194630915644
 30
0.0
 10
6.096560537578215
 20
2.158923379826275
 30
0.0
 10
5.876420169061239
 20
2.248924012003356
 30
0.0
 10
5.647170839821415
 20
2.338684316011069
 30
0.0
 10
5.408948286030088
 20
2.427795497005428
 30
0.0
 10
5.216080914256448
 20
2.496390562963232
 30
0.0
 10
5.102683279099693
 20
2.535310168173929
 30
0.0
 10
5.071960512425455
 20
2.545750762549351
 30
0.0
  0
LINE
  5
257
330
1F
100
AcDbEntity
  8
0
  6
Continuous
 62
     7
370
    25
100
AcDbLine
 10
6.5545616213
 20
1.822035264
 30
0.0
 11
6.6131065456
 21
1.9324775197
 31
0.0
  0
LINE
  5
258
330
1F
100
AcDbEntity
  8
0
  6
Continuous
 62
     7
370
    25
100
AcDbLine
 10
7.4458172089
 20
1.3822074866
 30
0.0
 11
6.5545616213
 21
1.822035264
 31
0.0
  0
LINE
  5
259
330
1F
100
AcDbEntity
  8
0
  6
Continuous
 62
     7
370
    25
100
AcDbLine
 10
8.3216377101
 20
0.8853164701
 30
0.0
 11
7.4458172089
 21
1.3822074866
 31
0.0
  0
SPLINE
  5
25A
330
1F
100
AcDbEntity
  8
0
  6
Continuous
 62
     7
370
    25
100
AcDbSpline
210
0.0
220
0.0
230
1.0
 70
     8
 71
     3
 72
    21
 73
    17
 74
     0
 42
0.00000001
 43
0.00000001
 40
0.9171099585045259
 40
0.9171099585045259
 40
0.9171099585045259
 40
0.9171099585045259
 40
0.9188839764012169
 40
0.9272492779043127
 40
0.9352211037112476
 40
0.9427847385100345
 40
0.9499281877133432
 40
0.9566384642920557
 40
0.9629042034427838
 40
0.9687122876061149
 40
0.9740544849024281
 40
0.9789184321677268
 40
0.9832972184116099
 40
0.9871802458290098
 40
0.9905606741393513
 40
0.9929972486485057
 40
0.9929972486485057
 40
0.9929972486485057
 40
0.9929972486485057
 10
6.654605009775438
 20
1.157687372190264
 30
0.0
 10
6.66767459459723
 20
1.156098050533063
 30
0.0
 10
6.742364056786127
 20
1.146939112968968
 30
0.0
 10
6.87568029288984
 20
1.129800774770367
 30
0.0
 10
7.051407137012298
 20
1.105632729951365
 30
0.0
 10
7.217948285196361
 20
1.081276445257141
 30
0.0
 10
7.375039981711829
 20
1.057042877106071
 30
0.0
 10
7.522435412083203
 20
1.033163210818527
 30
0.0
 10
7.659896486593067
 20
1.009954393707465
 30
0.0
 10
7.787207876896515
 20
0.9876332669394423
 30
0.0
 10
7.90414866255934
 20
0.9664178150213152
 30
0.0
 10
8.010556613650605
 20
0.9465757167476971
 30
0.0
 10
8.10622157363374
 20
0.9282055388400019
 30
0.0
 10
8.191015597492658
 20
0.9116100246674399
 30
0.0
 10
8.261607253092576
 20
0.8974969211130285
 30
0.0
 10
8.303919517187007
 20
0.8889302264378672
 30
0.0
 10
8.321637710058269
 20
0.88531647008449
 30
0.0
  0
LINE
  5
25B
330
1F
100
AcDbEntity
  8
0
  6
Continuous
 62
     7
370
    25
100
AcDbLine
 10
6.6763677368
 20
1.3439201129
 30
0.0
 11
6.6546050098
 21
1.1576873722
 31
0.0
  0
LINE
  5
25C
330
1F
100
AcDbEntity
  8
0
  6
Continuous
 62
     7
370
    25
100
AcDbLine
 10
6.490134996
 20
1.3656828399
 30
0.0
 11
6.6763677368
 21
1.3439201129
 31
0.0
  0
LINE
  5
25D
330
1F
100
AcDbEntity
  8
0
  6
Continuous
 62
     7
370
    25
100
AcDbLine
 10
6.4683722694
 20
1.1794500991
 30
0.0
 11
6.490134996
 21
1.3656828399
 31
0.0
  0
SPLINE
  5
25E
330
1F
100
AcDbEntity
  8
0
  6
Continuous
 62
     7
370
    25
100
AcDbSpline
210
0.0
220
0.0
230
1.0
 70
     8
 71
     3
 72
    14
 73
    10
 74
     0
 42
0.00000001
 43
0.00000001
 40
0.8412305627393991
 40
0.8412305627393991
 40
0.8412305627393991
 40
0.8412305627393991
 40
0.8504813585168555
 40
0.8612076967744442
 40
0.8716393257296176
 40
0.8817634137109616
 40
0.8915636048210556
 40
0.9010273643172574
 40
0.9086884529623745
 40
0.9086884529623745
 40
0.9086884529623745
 40
0.9086884529623745
 10
4.970804956493953
 20
1.288436983009257
 30
0.0
 10
5.039423348879112
 20
1.286194350068457
 30
0.0
 10
5.187577759497833
 20
1.280517136258482
 30
0.0
 10
5.412976145603078
 20
1.269170930714832
 30
0.0
 10
5.644684330058702
 20
1.25461687313999
 30
0.0
 10
5.869340980898501
 20
1.237724724474202
 30
0.0
 10
6.086633046424721
 20
1.218888841830457
 30
0.0
 10
6.285511180490012
 20
1.199433092909127
 30
0.0
 10
6.411869993995746
 20
1.185789738254919
 30
0.0
 10
6.468372269412247
 20
1.179450099126557
 30
0.0
  0
LINE
  5
25F
330
1F
100
AcDbEntity
  8
0
  6
Continuous
 62
     7
370
    25
100
AcDbLine
 10
4.9759665268
 20
1.4758659247
 30
0.0
 11
4.9708049565
 21
1.288436983
 31
0.0
  0
LINE
  5
260
330
1F
100
AcDbEntity
  8
0
  6
Continuous
 62
     7
370
    25
100
AcDbLine
 10
4.788537585
 20
1.481027495
 30
0.0
 11
4.9759665268
 21
1.4758659247
 31
0.0
  0
LINE
  5
261
330
1F
100
AcDbEntity
  8
0
  6
Continuous
 62
     7
370
    25
100
AcDbLine
 10
4.783376015
 20
1.2935985533
 30
0.0
 11
4.788537585
 21
1.481027495
 31
0.0
  0
SPLINE
  5
262
330
1F
100
AcDbEntity
  8
0
  6
Continuous
 62
     7
370
    25
100
AcDbSpline
210
0.0
220
0.0
230
1.0
 70
     8
 71
     3
 72
    14
 73
    10
 74
     0
 42
0.00000001
 43
0.00000001
 40
0.7653436881772445
 40
0.7653436881772445
 40
0.7653436881772445
 40
0.7653436881772445
 40
0.7683199516741555
 40
0.7807243374027457
 40
0.7929265285864308
 40
0.8049160410865589
 40
0.8166790838088313
 40
0.8282035242084964
 40
0.8328090804054155
 40
0.8328090804054155
 40
0.8328090804054155
 40
0.8328090804054155
 10
3.282007681719002
 20
1.264561306436032
 30
0.0
 10
3.304054256019119
 20
1.265921041766774
 30
0.0
 10
3.417999084695343
 20
1.272734155480799
 30
0.0
 10
3.622456930043045
 20
1.282967078281755
 30
0.0
 10
3.893902718077604
 20
1.292330062610428
 30
0.0
 10
4.160699167451265
 20
1.297532656302909
 30
0.0
 10
4.422513042991419
 20
1.298706888021773
 30
0.0
 10
4.629517491947762
 20
1.296705513361711
 30
0.0
 10
4.749204304725827
 20
1.294363579423673
 30
0.0
 10
4.783376015042766
 20
1.293598553267854
 30
0.0
  0
LINE
  5
263
330
1F
100
AcDbEntity
  8
0
  6
Continuous
 62
     7
370
    25
100
AcDbLine
 10
3.2846367368
 20
1.3895336557
 30
0.0
 11
3.2820076817
 21
1.2645613064
 31
0.0
  0
LINE
  5
264
330
1F
100
AcDbEntity
  8
0
  6
Continuous
 62
     7
370
    25
100
AcDbLine
 10
2.2848579431
 20
1.4105660966
 30
0.0
 11
3.2846367368
 21
1.3895336557
 31
0.0
  0
LINE
  5
265
330
1F
100
AcDbEntity
  8
0
  6
Continuous
 62
     7
370
    25
100
AcDbLine
 10
2.282228888
 20
1.2855937474
 30
0.0
 11
2.2848579431
 21
1.4105660966
 31
0.0
  0
LINE
  5
266
330
1F
100
AcDbEntity
  8
0
  6
Continuous
 62
     7
370
    25
100
AcDbLine
 10
2.282228888
 20
1.2855937474
 30
0.0
 11
2.1565975275
 21
1.4475868375
 31
0.0
  0
LINE
  5
267
330
1F
100
AcDbEntity
  8
0
  6
Continuous
 62
     7
370
    25
100
AcDbLine
 10
2.1565975275
 20
1.4475868375
 30
0.0
 11
1.7010283832
 21
1.3227712725
 31
0.0
  0
ARC
  5
268
330
1F
100
AcDbEntity
  8
0
  6
Continuous
 62
     7
370
    25
100
AcDbCircle
 10
1.5689087411
 20
1.8049998492
 30
0.0
 40
0.5000000000000007
100
AcDbArc
 50
260.3614689044
 51
285.3217558421
  0
ARC
  5
269
330
1F
100
AcDbEntity
  8
0
  6
Continuous
 62
     7
370
    25
100
AcDbCircle
 10
1.6353112191
 20
2.1959956083
 30
0.0
 40
0.8965942166374824
100
AcDbArc
 50
96.4456615707
 51
260.3614689044
  0
CIRCLE
  5
26A
330
1F
100
AcDbEntity
  8
0
  6
Continuous
 62
     7
370
    25
100
AcDbCircle
 10
1.6353112191
 20
2.1959956083
 30
0.0
 40
0.2500000000000009
  0
ARC
  5
26B
330
1F
100
AcDbEntity
  8
0
  6
Continuous
 62
     7
370
    25
100
AcDbCircle
 10
4.8259851556
 20
1.9427882091
 30
0.0
 40
0.1499999999999999
100
AcDbArc
 50
268.6301940022
 51
71.3777104148
  0
SPLINE
  5
26C
330
1F
100
AcDbEntity
  8
0
  6
Continuous
 62
     7
370
    25
100
AcDbSpline
210
0.0
220
0.0
230
1.0
 70
     8
 71
     3
 72
     9
 73
     5
 74
     0
 42
0.00000001
 43
0.00000001
 40
0.1656443408080667
 40
0.1656443408080667
 40
0.1656443408080667
 40
0.1656443408080667
 40
0.1926123377322566
 40
0.2258772548504555
 40
0.2258772548504555
 40
0.2258772548504555
 40
0.2258772548504555
 10
4.873884354491761
 20
2.08493484729344
 30
0.0
 10
4.682411719425626
 20
2.149455443331646
 30
0.0
 10
4.252017596849582
 20
2.285153341287407
 30
0.0
 10
3.816209005638091
 20
2.401583847005878
 30
0.0
 10
3.574138244209722
 20
2.45986325625685
 30
0.0
  0
ARC
  5
26D
330
1F
100
AcDbEntity
  8
0
  6
Continuous
 62
     7
370
    25
100
AcDbCircle
 10
3.1060069177
 20
0.5154216755
 30
0.0
 40
1.999999999999999
100
AcDbArc
 50
76.4634467699
 51
88.0068285569
  0
LINE
  5
26E
330
1F
100
AcDbEntity
  8
0
  6
Continuous
 62
     7
370
    25
100
AcDbLine
 10
3.1755676942
 20
2.514211634
 30
0.0
 11
2.4164679341
 21
2.5406294017
 31
0.0
  0
ARC
  5
26F
330
1F
100
AcDbEntity
  8
0
  6
Continuous
 62
     7
370
    25
100
AcDbCircle
 10
2.4112508759
 20
2.3907201548
 30
0.0
 40
0.15
100
AcDbArc
 50
88.0068285569
 51
194.087634117
  0
ARC
  5
270
330
1F
100
AcDbEntity
  8
0
  6
Continuous
 62
     7
370
    25
100
AcDbCircle
 10
1.6353112191
 20
2.1959956083
 30
0.0
 40
0.649999999999999
100
AcDbArc
 50
342.7140354762
 51
14.087634117
  0
ARC
  5
271
330
1F
100
AcDbEntity
  8
0
  6
Continuous
 62
     7
370
    25
100
AcDbCircle
 10
2.399178113
 20
1.9582828227
 30
0.0
 40
0.15
100
AcDbArc
 50
162.7140354762
 51
268.7948410363
  0
LINE
  5
272
330
1F
100
AcDbEntity
  8
0
  6
Continuous
 62
     7
370
    25
100
AcDbLine
 10
3.473292878
 20
1.7856533807
 30
0.0
 11
2.3960232469
 21
1.8083160037
 31
0.0
  0
ARC
  5
273
330
1F
100
AcDbEntity
  8
0
  6
Continuous
 62
     7
370
    25
100
AcDbCircle
 10
3.5784550827
 20
6.7845473494
 30
0.0
 40
5.000000000000001
100
AcDbArc
 50
268.7948410363
 51
271.9573234968
  0
SPLINE
  5
274
330
1F
100
AcDbEntity
  8
0
  6
Continuous
 62
     7
370
    25
100
AcDbSpline
210
0.0
220
0.0
230
1.0
 70
     8
 71
     3
 72
     9
 73
     5
 74
     0
 42
0.00000001
 43
0.00000001
 40
0.7871205696218658
 40
0.7871205696218658
 40
0.7871205696218658
 40
0.7871205696218658
 40
0.8049182370231102
 40
0.8340249084127113
 40
0.8340249084127113
 40
0.8340249084127113
 40
0.8340249084127113
 10
3.749230559422249
 20
1.787464626797832
 30
0.0
 10
3.88496107187621
 20
1.792103221804388
 30
0.0
 10
4.242721527415511
 20
1.800348351460352
 30
0.0
 10
4.600529204440988
 20
1.798136474269802
 30
0.0
 10
4.822399353542027
 20
1.792831075147421
 30
0.0
  0
MTEXT
  5
276
330
1F
100
AcDbEntity
  8
0
  6
Continuous
 62
     7
100
AcDbMText
 10
0.0
 20
0.5790104628
 30
0.0
 40
0.2076
 41
0.0
 71
     1
 72
     1
  1
SOLIDWORKS Educational Product.
  7
SLDTEXTSTYLE0
 73
     1
 44
1.0
  0
MTEXT
  5
277
330
1F
100
AcDbEntity
  8
0
  6
Continuous
 62
     7
100
AcDbMText
 10
0.0
 20
0.2676104628
 30
0.0
 40
0.2076
 41
0.0
 71
     1
 72
     1
  1
For Instructional Use Only.
  7
SLDTEXTSTYLE0
 73
     1
 44
1.0
  0
ENDSEC
  0
SECTION
  2
OBJECTS
  0
DICTIONARY
  5
C
330
0
100
AcDbDictionary
281
     1
  3
ACAD_GROUP
350
D
  3
ACAD_LAYOUT
350
1A
  3
ACAD_MLINESTYLE
350
17
  3
ACAD_PLOTSETTINGS
350
19
  3
ACAD_PLOTSTYLENAME
350
E
  3
ACAD_SCALELIST
350
47
  3
DWGPROPS
350
278
  0
DICTIONARY
  5
D
102
{ACAD_REACTORS
330
C
102
}
330
C
100
AcDbDictionary
281
     1
  0
DICTIONARY
  5
1A
102
{ACAD_REACTORS
330
C
102
}
330
C
100
AcDbDictionary
281
     1
  3
Layout1
350
1E
  3
Layout2
350
26
  3
Model
350
22
  0
DICTIONARY
  5
17
102
{ACAD_REACTORS
330
C
102
}
330
C
100
AcDbDictionary
281
     1
  3
Standard
350
18
  0
DICTIONARY
  5
19
102
{ACAD_REACTORS
330
C
102
}
330
C
100
AcDbDictionary
281
     1
  0
ACDBDICTIONARYWDFLT
  5
E
102
{ACAD_REACTORS
330
C
102
}
330
C
100
AcDbDictionary
281
     1
  3
Normal
350
F
100
AcDbDictionaryWithDefault
340
F
  0
DICTIONARY
  5
47
102
{ACAD_REACTORS
330
C
102
}
330
C
100
AcDbDictionary
281
     1
  3
A0
350
48
  3
A1
350
49
  3
A2
350
4A
  3
A3
350
4B
  3
A4
350
4C
  3
A5
350
4D
  3
A6
350
4E
  3
A7
350
4F
  3
A8
350
50
  3
A9
350
51
  3
B1
350
52
  3
B2
350
53
  3
B3
350
54
  3
B4
350
55
  3
B5
350
56
  3
B6
350
57
  3
B7
350
58
  0
XRECORD
  5
278
102
{ACAD_REACTORS
330
C
102
}
330
C
100
AcDbXrecord
280
     1
  1
DWGPROPS COOKIE
  2

  3

  4

  6

  7

  8
ucmai
  9

300
=
301
=
302
=
303
=
304
=
305
=
306
=
307
=
308
=
309
=
 40
0.0
 41
2461142.838107952
 42
2461142.838108739
  1

 90
        0
  0
LAYOUT
  5
1E
102
{ACAD_REACTORS
330
1A
102
}
330
1A
100
AcDbPlotSettings
  1

  2
none_device
  4

  6

 40
0.0
 41
0.0
 42
0.0
 43
0.0
 44
0.0
 45
0.0
 46
0.0
 47
0.0
 48
0.0
 49
0.0
140
0.0
141
0.0
142
1.0
143
1.0
 70
   688
 72
     0
 73
     0
 74
     5
  7

 75
    16
147
1.0
148
0.0
149
0.0
100
AcDbLayout
  1
Layout1
 70
     1
 71
     1
 10
0.0
 20
0.0
 11
12.0
 21
9.0
 12
0.0
 22
0.0
 32
0.0
 14
1.0000000000E+20
 24
1.0000000000E+20
 34
1.0000000000E+20
 15
-1.0000000000E+20
 25
-1.0000000000E+20
 35
-1.0000000000E+20
146
0.0
 13
0.0
 23
0.0
 33
0.0
 16
1.0
 26
0.0
 36
0.0
 17
0.0
 27
1.0
 37
0.0
 76
     0
330
1B
  0
LAYOUT
  5
26
102
{ACAD_REACTORS
330
1A
102
}
330
1A
100
AcDbPlotSettings
  1

  2
none_device
  4

  6

 40
0.0
 41
0.0
 42
0.0
 43
0.0
 44
0.0
 45
0.0
 46
0.0
 47
0.0
 48
0.0
 49
0.0
140
0.0
141
0.0
142
1.0
143
1.0
 70
   688
 72
     0
 73
     0
 74
     5
  7

 75
    16
147
1.0
148
0.0
149
0.0
100
AcDbLayout
  1
Layout2
 70
     1
 71
     2
 10
0.0
 20
0.0
 11
0.0
 21
0.0
 12
0.0
 22
0.0
 32
0.0
 14
0.0
 24
0.0
 34
0.0
 15
0.0
 25
0.0
 35
0.0
146
0.0
 13
0.0
 23
0.0
 33
0.0
 16
1.0
 26
0.0
 36
0.0
 17
0.0
 27
1.0
 37
0.0
 76
     0
330
23
  0
LAYOUT
  5
22
102
{ACAD_REACTORS
330
1A
102
}
330
1A
100
AcDbPlotSettings
  1

  2
none_device
  4
Letter_(8.50_x_11.00_Inches)
  6

 40
6.35
 41
6.35
 42
6.35000508
 43
6.35000508
 44
215.9
 45
279.4
 46
0.0
 47
0.0
 48
0.0
 49
0.0
140
0.0
141
0.0
142
1.0
143
1.0
 70
  1712
 72
     0
 73
     0
 74
     0
  7

 75
     0
147
1.0
148
0.0
149
0.0
100
AcDbLayout
  1
Model
 70
     1
 71
     0
 10
0.0
 20
0.0
 11
24.0
 21
12.0
 12
0.0
 22
0.0
 32
0.0
 14
0.0
 24
0.0
 34
0.0
 15
24.0
 25
12.0
 35
0.0
146
0.0
 13
0.0
 23
0.0
 33
0.0
 16
1.0
 26
0.0
 36
0.0
 17
0.0
 27
1.0
 37
0.0
 76
     0
330
1F
331
29
  0
MLINESTYLE
  5
18
102
{ACAD_REACTORS
330
17
102
}
330
17
100
AcDbMlineStyle
  2
Standard
 70
     0
  3

 62
   256
 51
90.0
 52
90.0
 71
     2
 49
0.5
 62
   256
  6
BYLAYER
 49
-0.5
 62
   256
  6
BYLAYER
  0
ACDBPLACEHOLDER
  5
F
102
{ACAD_REACTORS
330
E
102
}
330
E
  0
SCALE
  5
48
102
{ACAD_REACTORS
330
47
102
}
330
47
100
AcDbScale
 70
     0
300
1:1
140
1.0
141
1.0
290
     1
  0
SCALE
  5
49
102
{ACAD_REACTORS
330
47
102
}
330
47
100
AcDbScale
 70
     0
300
1/128" = 1'-0"
140
0.0078125
141
12.0
290
     0
  0
SCALE
  5
4A
102
{ACAD_REACTORS
330
47
102
}
330
47
100
AcDbScale
 70
     0
300
1/64" = 1'-0"
140
0.015625
141
12.0
290
     0
  0
SCALE
  5
4B
102
{ACAD_REACTORS
330
47
102
}
330
47
100
AcDbScale
 70
     0
300
1/32" = 1'-0"
140
0.03125
141
12.0
290
     0
  0
SCALE
  5
4C
102
{ACAD_REACTORS
330
47
102
}
330
47
100
AcDbScale
 70
     0
300
1/16" = 1'-0"
140
0.0625
141
12.0
290
     0
  0
SCALE
  5
4D
102
{ACAD_REACTORS
330
47
102
}
330
47
100
AcDbScale
 70
     0
300
3/32" = 1'-0"
140
0.09375
141
12.0
290
     0
  0
SCALE
  5
4E
102
{ACAD_REACTORS
330
47
102
}
330
47
100
AcDbScale
 70
     0
300
1/8" = 1'-0"
140
0.125
141
12.0
290
     0
  0
SCALE
  5
4F
102
{ACAD_REACTORS
330
47
102
}
330
47
100
AcDbScale
 70
     0
300
3/16" = 1'-0"
140
0.1875
141
12.0
290
     0
  0
SCALE
  5
50
102
{ACAD_REACTORS
330
47
102
}
330
47
100
AcDbScale
 70
     0
300
1/4" = 1'-0"
140
0.25
141
12.0
290
     0
  0
SCALE
  5
51
102
{ACAD_REACTORS
330
47
102
}
330
47
100
AcDbScale
 70
     0
300
3/8" = 1'-0"
140
0.375
141
12.0
290
     0
  0
SCALE
  5
52
102
{ACAD_REACTORS
330
47
102
}
330
47
100
AcDbScale
 70
     0
300
1/2" = 1'-0"
140
0.5
141
12.0
290
     0
  0
SCALE
  5
53
102
{ACAD_REACTORS
330
47
102
}
330
47
100
AcDbScale
 70
     0
300
3/4" = 1'-0"
140
0.75
141
12.0
290
     0
  0
SCALE
  5
54
102
{ACAD_REACTORS
330
47
102
}
330
47
100
AcDbScale
 70
     0
300
1" = 1'-0"
140
1.0
141
12.0
290
     0
  0
SCALE
  5
55
102
{ACAD_REACTORS
330
47
102
}
330
47
100
AcDbScale
 70
     0
300
1-1/2" = 1'-0"
140
1.5
141
12.0
290
     0
  0
SCALE
  5
56
102
{ACAD_REACTORS
330
47
102
}
330
47
100
AcDbScale
 70
     0
300
3" = 1'-0"
140
3.0
141
12.0
290
     0
  0
SCALE
  5
57
102
{ACAD_REACTORS
330
47
102
}
330
47
100
AcDbScale
 70
     0
300
6" = 1'-0"
140
6.0
141
12.0
290
     0
  0
SCALE
  5
58
102
{ACAD_REACTORS
330
47
102
}
330
47
100
AcDbScale
 70
     0
300
1'-0" = 1'-0"
140
12.0
141
12.0
290
     0
  0
ENDSEC
  0
EOF
