  0
SECTION
  2
HEADER
  9
$ACADVER
  1
AC1015
  9
$ACADMAINTVER
 70
     6
  9
$DWGCODEPAGE
  3
ANSI_1252
  9
$INSBASE
 10
0.0
 20
0.0
 30
0.0
  9
$EXTMIN
 10
0.0
 20
0.0
 30
0.0
  9
$EXTMAX
 10
24.0
 20
12.0
 30
0.0
  9
$LIMMIN
 10
0.0
 20
0.0
  9
$LIMMAX
 10
24.0
 20
12.0
  9
$ORTHOMODE
 70
     0
  9
$REGENMODE
 70
     1
  9
$FILLMODE
 70
     1
  9
$QTEXTMODE
 70
     0
  9
$MIRRTEXT
 70
     1
  9
$LTSCALE
 40
1.0
  9
$ATTMODE
 70
     1
  9
$TEXTSIZE
 40
0.125
  9
$TRACEWID
 40
0.05
  9
$TEXTSTYLE
  7
Standard
  9
$CLAYER
  8
0
  9
$CELTYPE
  6
ByLayer
  9
$CECOLOR
 62
   256
  9
$CELTSCALE
 40
1.0
  9
$DISPSILH
 70
     0
  9
$DIMSCALE
 40
1.0
  9
$DIMASZ
 40
0.13
  9
$DIMEXO
 40
0.05
  9
$DIMDLI
 40
0.38
  9
$DIMRND
 40
0.0
  9
$DIMDLE
 40
0.0
  9
$DIMEXE
 40
0.125
  9
$DIMTP
 40
0.0
  9
$DIMTM
 40
0.0
  9
$DIMTXT
 40
0.125
  9
$DIMCEN
 40
0.09
  9
$DIMTSZ
 40
0.0
  9
$DIMTOL
 70
     0
  9
$DIMLIM
 70
     0
  9
$DIMTIH
 70
     1
  9
$DIMTOH
 70
     1
  9
$DIMSE1
 70
     0
  9
$DIMSE2
 70
     0
  9
$DIMTAD
 70
     0
  9
$DIMZIN
 70
     1
  9
$DIMBLK
  1

  9
$DIMASO
 70
     1
  9
$DIMSHO
 70
     1
  9
$DIMPOST
  1

  9
$DIMAPOST
  1

  9
$DIMALT
 70
     0
  9
$DIMALTD
 70
     2
  9
$DIMALTF
 40
25.4
  9
$DIMLFAC
 40
1.0
  9
$DIMTOFL
 70
     0
  9
$DIMTVP
 40
0.0
  9
$DIMTIX
 70
     0
  9
$DIMSOXD
 70
     0
  9
$DIMSAH
 70
     0
  9
$DIMBLK1
  1

  9
$DIMBLK2
  1

  9
$DIMSTYLE
  2
Standard
  9
$DIMCLRD
 70
     0
  9
$DIMCLRE
 70
     0
  9
$DIMCLRT
 70
     0
  9
$DIMTFAC
 40
1.0
  9
$DIMGAP
 40
0.06
  9
$DIMJUST
 70
     0
  9
$DIMSD1
 70
     0
  9
$DIMSD2
 70
     0
  9
$DIMTOLJ
 70
     1
  9
$DIMTZIN
 70
     1
  9
$DIMALTZ
 70
     0
  9
$DIMALTTZ
 70
     0
  9
$DIMUPT
 70
     0
  9
$DIMDEC
 70
     2
  9
$DIMTDEC
 70
     2
  9
$DIMALTU
 70
     2
  9
$DIMALTTD
 70
     2
  9
$DIMTXSTY
  7
Standard
  9
$DIMAUNIT
 70
     0
  9
$DIMADEC
 70
     2
  9
$DIMALTRND
 40
0.0
  9
$DIMAZIN
 70
     0
  9
$DIMDSEP
 70
    46
  9
$DIMATFIT
 70
     3
  9
$DIMFRAC
 70
     0
  9
$DIMLDRBLK
  1

  9
$DIMLUNIT
 70
     2
  9
$DIMLWD
 70
    -2
  9
$DIMLWE
 70
    -2
  9
$DIMTMOVE
 70
     0
  9
$LUNITS
 70
     2
  9
$LUPREC
 70
     6
  9
$SKETCHINC
 40
0.1
  9
$FILLETRAD
 40
0.0
  9
$AUNITS
 70
     0
  9
$AUPREC
 70
     2
  9
$MENU
  1
.
  9
$ELEVATION
 40
0.0
  9
$PELEVATION
 40
0.0
  9
$THICKNESS
 40
0.0
  9
$LIMCHECK
 70
     0
  9
$CHAMFERA
 40
0.0
  9
$CHAMFERB
 40
0.0
  9
$CHAMFERC
 40
0.0
  9
$CHAMFERD
 40
0.0
  9
$SKPOLY
 70
     0
  9
$TDCREATE
 40
2461142.546910486
  9
$TDUCREATE
 40
2461142.838577153
  9
$TDUPDATE
 40
2461142.546911007
  9
$TDUUPDATE
 40
2461142.838577674
  9
$TDINDWG
 40
0.0000000116
  9
$TDUSRTIMER
 40
0.0000000116
  9
$USRTIMER
 70
     1
  9
$ANGBASE
 50
0.0
  9
$ANGDIR
 70
     0
  9
$PDMODE
 70
     0
  9
$PDSIZE
 40
-1.0
  9
$PLINEWID
 40
0.0
  9
$SPLFRAME
 70
     0
  9
$SPLINETYPE
 70
     6
  9
$SPLINESEGS
 70
     8
  9
$HANDSEED
  5
1CA
  9
$SURFTAB1
 70
     6
  9
$SURFTAB2
 70
     6
  9
$SURFTYPE
 70
     6
  9
$SURFU
 70
     6
  9
$SURFV
 70
     6
  9
$UCSBASE
  2

  9
$UCSNAME
  2

  9
$UCSORG
 10
0.0
 20
0.0
 30
0.0
  9
$UCSXDIR
 10
1.0
 20
0.0
 30
0.0
  9
$UCSYDIR
 10
0.0
 20
1.0
 30
0.0
  9
$UCSORTHOREF
  2

  9
$UCSORTHOVIEW
 70
     0
  9
$UCSORGTOP
 10
0.0
 20
0.0
 30
0.0
  9
$UCSORGBOTTOM
 10
0.0
 20
0.0
 30
0.0
  9
$UCSORGLEFT
 10
0.0
 20
0.0
 30
0.0
  9
$UCSORGRIGHT
 10
0.0
 20
0.0
 30
0.0
  9
$UCSORGFRONT
 10
0.0
 20
0.0
 30
0.0
  9
$UCSORGBACK
 10
0.0
 20
0.0
 30
0.0
  9
$PUCSBASE
  2

  9
$PUCSNAME
  2

  9
$PUCSORG
 10
0.0
 20
0.0
 30
0.0
  9
$PUCSXDIR
 10
1.0
 20
0.0
 30
0.0
  9
$PUCSYDIR
 10
0.0
 20
1.0
 30
0.0
  9
$PUCSORTHOREF
  2

  9
$PUCSORTHOVIEW
 70
     0
  9
$PUCSORGTOP
 10
0.0
 20
0.0
 30
0.0
  9
$PUCSORGBOTTOM
 10
0.0
 20
0.0
 30
0.0
  9
$PUCSORGLEFT
 10
0.0
 20
0.0
 30
0.0
  9
$PUCSORGRIGHT
 10
0.0
 20
0.0
 30
0.0
  9
$PUCSORGFRONT
 10
0.0
 20
0.0
 30
0.0
  9
$PUCSORGBACK
 10
0.0
 20
0.0
 30
0.0
  9
$USERI1
 70
     0
  9
$USERI2
 70
     0
  9
$USERI3
 70
     0
  9
$USERI4
 70
     0
  9
$USERI5
 70
     0
  9
$USERR1
 40
0.0
  9
$USERR2
 40
0.0
  9
$USERR3
 40
0.0
  9
$USERR4
 40
0.0
  9
$USERR5
 40
0.0
  9
$WORLDVIEW
 70
     1
  9
$SHADEDGE
 70
     3
  9
$SHADEDIF
 70
    70
  9
$TILEMODE
 70
     1
  9
$MAXACTVP
 70
    64
  9
$PINSBASE
 10
0.0
 20
0.0
 30
0.0
  9
$PLIMCHECK
 70
     0
  9
$PEXTMIN
 10
1.0000000000E+20
 20
1.0000000000E+20
 30
1.0000000000E+20
  9
$PEXTMAX
 10
-1.0000000000E+20
 20
-1.0000000000E+20
 30
-1.0000000000E+20
  9
$PLIMMIN
 10
0.0
 20
0.0
  9
$PLIMMAX
 10
12.0
 20
9.0
  9
$UNITMODE
 70
     0
  9
$VISRETAIN
 70
     1
  9
$PLINEGEN
 70
     0
  9
$PSLTSCALE
 70
     1
  9
$TREEDEPTH
 70
  3020
  9
$CMLSTYLE
  2
Standard
  9
$CMLJUST
 70
     0
  9
$CMLSCALE
 40
1.0
  9
$PROXYGRAPHICS
 70
     1
  9
$MEASUREMENT
 70
     0
  9
$CELWEIGHT
370
    -1
  9
$ENDCAPS
280
     0
  9
$JOINSTYLE
280
     0
  9
$LWDISPLAY
290
     1
  9
$INSUNITS
 70
     1
  9
$HYPERLINKBASE
  1

  9
$STYLESHEET
  1

  9
$XEDIT
290
     1
  9
$CEPSNTYPE
380
     0
  9
$PSTYLEMODE
290
     1
  9
$FINGERPRINTGUID
  2
{ac7bce6a-b673-4563-b815-c7d67b63da2e}
  9
$VERSIONGUID
  2
{FAEB1C32-E019-11D5-929B-00C0DF256EC4}
  9
$EXTNAMES
290
     1
  9
$PSVPSCALE
 40
0.0
  9
$OLESTARTUP
290
     0
  0
ENDSEC
  0
SECTION
  2
CLASSES
  0
CLASS
  1
ACDBDICTIONARYWDFLT
  2
AcDbDictionaryWithDefault
  3
ObjectDBX Classes
 90
        0
280
     0
281
     0
  0
CLASS
  1
VISUALSTYLE
  2
AcDbVisualStyle
  3
ObjectDBX Classes
 90
     4095
280
     0
281
     0
  0
CLASS
  1
MATERIAL
  2
AcDbMaterial
  3
ObjectDBX Classes
 90
     1153
280
     0
281
     0
  0
CLASS
  1
SCALE
  2
AcDbScale
  3
ObjectDBX Classes
 90
     1153
280
     0
281
     0
  0
CLASS
  1
TABLESTYLE
  2
AcDbTableStyle
  3
ObjectDBX Classes
 90
     4095
280
     0
281
     0
  0
CLASS
  1
MLEADERSTYLE
  2
AcDbMLeaderStyle
  3
ACDB_MLEADERSTYLE_CLASS
 90
     4095
280
     0
281
     0
  0
CLASS
  1
SUN
  2
AcDbSun
  3
SCENEOE
 90
     1153
280
     0
281
     0
  0
CLASS
  1
ACDBPLACEHOLDER
  2
AcDbPlaceHolder
  3
ObjectDBX Classes
 90
        0
280
     0
281
     0
  0
CLASS
  1
LAYOUT
  2
AcDbLayout
  3
ObjectDBX Classes
 90
        0
280
     0
281
     0
  0
ENDSEC
  0
SECTION
  2
TABLES
  0
TABLE
  2
VPORT
  5
8
330
0
100
AcDbSymbolTable
 70
     1
  0
VPORT
  5
29
330
8
100
AcDbSymbolTableRecord
100
AcDbViewportTableRecord
  2
*Active
 70
     0
 10
0.0
 20
0.0
 11
1.0
 21
1.0
 12
12.0
 22
6.0
 13
0.0
 23
0.0
 14
0.5
 24
0.5
 15
0.5
 25
0.5
 16
0.0
 26
0.0
 36
1.0
 17
0.0
 27
0.0
 37
0.0
 40
12.0
 41
2.0
 42
50.0
 43
0.0
 44
0.0
 50
0.0
 51
0.0
 71
     0
 72
  2000
 73
     1
 74
     3
 75
     0
 76
     0
 77
     0
 78
     0
281
     0
 65
     1
110
0.0
120
0.0
130
0.0
111
1.0
121
0.0
131
0.0
112
0.0
122
1.0
132
0.0
 79
     0
146
0.0
  0
ENDTAB
  0
TABLE
  2
LTYPE
  5
5
330
0
100
AcDbSymbolTable
 70
     6
  0
LTYPE
  5
14
330
5
100
AcDbSymbolTableRecord
100
AcDbLinetypeTableRecord
  2
ByBlock
 70
     0
  3

 72
    65
 73
     0
 40
0.0
  0
LTYPE
  5
15
330
5
100
AcDbSymbolTableRecord
100
AcDbLinetypeTableRecord
  2
ByLayer
 70
     0
  3

 72
    65
 73
     0
 40
0.0
  0
LTYPE
  5
16
330
5
100
AcDbSymbolTableRecord
100
AcDbLinetypeTableRecord
  2
Continuous
 70
     0
  3
Solid line
 72
    65
 73
     0
 40
0.0
  0
LTYPE
  5
5E
330
5
100
AcDbSymbolTableRecord
100
AcDbLinetypeTableRecord
  2
HIDDEN
 70
     0
  3
Hidden __ __ __ __ __ __ __ __ __ __ __ __ __ __
 72
    65
 73
     2
 40
0.075
 49
0.05
 74
     0
 49
-0.025
 74
     0
  0
LTYPE
  5
5F
330
5
100
AcDbSymbolTableRecord
100
AcDbLinetypeTableRecord
  2
PHANTOM
 70
     0
  3
Phantom ______  __  __  ______  __  __  ______
 72
    65
 73
     6
 40
0.5
 49
0.25
 74
     0
 49
-0.05
 74
     0
 49
0.05
 74
     0
 49
-0.05
 74
     0
 49
0.05
 74
     0
 49
-0.05
 74
     0
  0
LTYPE
  5
60
330
5
100
AcDbSymbolTableRecord
100
AcDbLinetypeTableRecord
  2
CENTER
 70
     0
  3
Center ____ _ ____ _ ____ _ ____ _ ____ _ ____
 72
    65
 73
     4
 40
0.4
 49
0.25
 74
     0
 49
-0.05
 74
     0
 49
0.05
 74
     0
 49
-0.05
 74
     0
  0
LTYPE
  5
61
330
5
100
AcDbSymbolTableRecord
100
AcDbLinetypeTableRecord
  2
CENTERX2
 70
     0
  3
Center (2x) ________  __  ________  __  _____
 72
    65
 73
     4
 40
0.8
 49
0.5
 74
     0
 49
-0.1
 74
     0
 49
0.1
 74
     0
 49
-0.1
 74
     0
  0
LTYPE
  5
62
330
5
100
AcDbSymbolTableRecord
100
AcDbLinetypeTableRecord
  2
DOT2
 70
     0
  3
Dot (.5x) ........................................
 72
    65
 73
     2
 40
0.025
 49
0.0
 74
     0
 49
-0.025
 74
     0
  0
ENDTAB
  0
TABLE
  2
LAYER
  5
2
330
0
100
AcDbSymbolTable
 70
     3
  0
LAYER
  5
10
330
2
100
AcDbSymbolTableRecord
100
AcDbLayerTableRecord
  2
0
 70
     0
 62
     7
  6
Continuous
370
    -3
390
F
  0
LAYER
  5
63
330
2
100
AcDbSymbolTableRecord
100
AcDbLayerTableRecord
  2
FORMAT
 70
     0
 62
     7
  6
Continuous
370
    -3
390
F
  0
LAYER
  5
64
330
2
100
AcDbSymbolTableRecord
100
AcDbLayerTableRecord
  2
PART_NAMES
 70
     0
 62
     1
  6
Continuous
370
    -3
390
F
  0
ENDTAB
  0
TABLE
  2
STYLE
  5
3
330
0
100
AcDbSymbolTable
 70
     2
  0
STYLE
  5
11
330
3
100
AcDbSymbolTableRecord
100
AcDbTextStyleTableRecord
  2
Standard
 70
     0
 40
0.0
 41
1.0
 50
0.0
 71
     0
 42
0.125
  3
txt
  4

  0
STYLE
  5
1C6
330
3
100
AcDbSymbolTableRecord
100
AcDbTextStyleTableRecord
  2
SLDTEXTSTYLE0
 70
     0
 40
0.0
 41
0.7
 50
0.0
 71
     0
 42
0.125
  3
TXT
  4

  0
ENDTAB
  0
TABLE
  2
VIEW
  5
6
330
0
100
AcDbSymbolTable
 70
     0
  0
ENDTAB
  0
TABLE
  2
UCS
  5
7
330
0
100
AcDbSymbolTable
 70
     0
  0
ENDTAB
  0
TABLE
  2
APPID
  5
9
330
0
100
AcDbSymbolTable
 70
     1
  0
APPID
  5
12
330
9
100
AcDbSymbolTableRecord
100
AcDbRegAppTableRecord
  2
ACAD
 70
     0
  0
ENDTAB
  0
TABLE
  2
DIMSTYLE
  5
A
330
0
100
AcDbSymbolTable
 70
     1
100
AcDbDimStyleTable
  0
DIMSTYLE
105
27
330
A
100
AcDbSymbolTableRecord
100
AcDbDimStyleTableRecord
  2
Standard
 70
     0
178
     0
340
11
  0
ENDTAB
  0
TABLE
  2
BLOCK_RECORD
  5
1
330
0
100
AcDbSymbolTable
 70
     1
  0
BLOCK_RECORD
  5
1F
330
1
100
AcDbSymbolTableRecord
100
AcDbBlockTableRecord
  2
*Model_Space
340
22
  0
BLOCK_RECORD
  5
1B
330
1
100
AcDbSymbolTableRecord
100
AcDbBlockTableRecord
  2
*Paper_Space
340
1E
  0
BLOCK_RECORD
  5
23
330
1
100
AcDbSymbolTableRecord
100
AcDbBlockTableRecord
  2
*Paper_Space0
340
26
  0
ENDTAB
  0
ENDSEC
  0
SECTION
  2
BLOCKS
  0
BLOCK
  5
20
330
1F
100
AcDbEntity
  8
0
100
AcDbBlockBegin
  2
*Model_Space
 70
     0
 10
0.0
 20
0.0
 30
0.0
  3
*Model_Space
  1

  0
ENDBLK
  5
21
330
1F
100
AcDbEntity
  8
0
100
AcDbBlockEnd
  0
BLOCK
  5
1C
330
1B
100
AcDbEntity
 67
     1
  8
0
100
AcDbBlockBegin
  2
*Paper_Space
 70
     0
 10
0.0
 20
0.0
 30
0.0
  3
*Paper_Space
  1

  0
ENDBLK
  5
1D
330
1B
100
AcDbEntity
 67
     1
  8
0
100
AcDbBlockEnd
  0
BLOCK
  5
24
330
23
100
AcDbEntity
  8
0
100
AcDbBlockBegin
  2
*Paper_Space0
 70
     0
 10
0.0
 20
0.0
 30
0.0
  3
*Paper_Space0
  1

  0
ENDBLK
  5
25
330
23
100
AcDbEntity
  8
0
100
AcDbBlockEnd
  0
ENDSEC
  0
SECTION
  2
ENTITIES
  0
LINE
  5
65
330
1F
100
AcDbEntity
  8
0
  6
CENTERX2
 62
     7
370
    18
100
AcDbLine
 10
0.25
 20
0.25
 30
0.0
 11
0.25
 21
11.75
 31
0.0
  0
LINE
  5
66
330
1F
100
AcDbEntity
  8
0
  6
CENTERX2
 62
     7
370
    18
100
AcDbLine
 10
0.25
 20
0.25
 30
0.0
 11
23.75
 21
0.25
 31
0.0
  0
LINE
  5
67
330
1F
100
AcDbEntity
  8
0
  6
CENTERX2
 62
     7
370
    18
100
AcDbLine
 10
23.75
 20
0.25
 30
0.0
 11
23.75
 21
11.75
 31
0.0
  0
LINE
  5
68
330
1F
100
AcDbEntity
  8
0
  6
CENTERX2
 62
     7
370
    18
100
AcDbLine
 10
23.75
 20
11.75
 30
0.0
 11
0.25
 21
11.75
 31
0.0
  0
LINE
  5
69
330
1F
100
AcDbEntity
  8
0
  6
Continuous
 62
     7
370
    25
100
AcDbLine
 10
1.9636017301
 20
10.1519904191
 30
0.0
 11
1.8827926075
 21
10.3211830185
 31
0.0
  0
SPLINE
  5
6A
330
1F
100
AcDbEntity
  8
0
  6
Continuous
 62
     7
370
    25
100
AcDbSpline
210
0.0
220
0.0
230
1.0
 70
     8
 71
     3
 72
    14
 73
    10
 74
     0
 42
0.00000001
 43
0.00000001
 40
0.8513043678676254
 40
0.8513043678676254
 40
0.8513043678676254
 40
0.8513043678676254
 40
0.8560378532405389
 40
0.8660338344886196
 40
0.8756888427883988
 40
0.8849977189913464
 40
0.8939534257020234
 40
0.9025528972589622
 40
0.9054973012984295
 40
0.9054973012984295
 40
0.9054973012984295
 40
0.9054973012984295
 10
3.058884089246905
 20
10.76344210547478
 30
0.0
 10
3.023906858314917
 20
10.75263444816659
 30
0.0
 10
2.915216093141446
 20
10.718518720358
 30
0.0
 10
2.736108383666946
 20
10.65943917174404
 30
0.0
 10
2.524870031791373
 20
10.5849423368907
 30
0.0
 10
2.322855162868881
 20
10.50863636729781
 30
0.0
 10
2.130218526166186
 20
10.43075633958618
 30
0.0
 10
1.984741581450293
 20
10.36768962495221
 30
0.0
 10
1.903474828915869
 20
10.33071359572029
 30
0.0
 10
1.882792607480443
 20
10.32118301847228
 30
0.0
  0
LINE
  5
6B
330
1F
100
AcDbEntity
  8
0
  6
Continuous
 62
     7
370
    25
100
AcDbLine
 10
3.0588840892
 20
10.7634421055
 30
0.0
 11
3.1579478977
 21
10.4071882074
 31
0.0
  0
LINE
  5
6C
330
1F
100
AcDbEntity
  8
0
  6
Continuous
 62
     7
370
    25
100
AcDbLine
 10
3.1579478977
 20
10.4071882074
 30
0.0
 11
3.5192397992
 21
10.5076529372
 31
0.0
  0
LINE
  5
6D
330
1F
100
AcDbEntity
  8
0
  6
Continuous
 62
     7
370
    25
100
AcDbLine
 10
3.5192397992
 20
10.5076529372
 30
0.0
 11
3.4187750694
 21
10.8689448387
 31
0.0
  0
SPLINE
  5
6E
330
1F
100
AcDbEntity
  8
0
  6
Continuous
 62
     7
370
    25
100
AcDbSpline
210
0.0
220
0.0
230
1.0
 70
     8
 71
     3
 72
    16
 73
    12
 74
     0
 42
0.00000001
 43
0.00000001
 40
0.7462088576025568
 40
0.7462088576025568
 40
0.7462088576025568
 40
0.7462088576025568
 40
0.7521175864591397
 40
0.7647920417814054
 40
0.7772081519207622
 40
0.7893556849316484
 40
0.8012239599679336
 40
0.8128036855342794
 40
0.8240829093538227
 40
0.8350546022887522
 40
0.835139898183205
 40
0.835139898183205
 40
0.835139898183205
 40
0.835139898183205
 10
5.436360925181666
 20
11.29564879514842
 30
0.0
 10
5.39120661685276
 20
11.28862109360347
 30
0.0
 10
5.249264020843185
 20
11.26607223812595
 30
0.0
 10
5.01286945734842
 20
11.22607938416125
 30
0.0
 10
4.729620283378566
 20
11.17395033568868
 30
0.0
 10
4.453281794350647
 20
11.11888314666948
 30
0.0
 10
4.184154849547108
 20
11.06089218402368
 30
0.0
 10
3.922524334058959
 20
11.00015140332933
 30
0.0
 10
3.668662150132999
 20
10.93676663139233
 30
0.0
 10
3.501801144864989
 20
10.89202567874421
 30
0.0
 10
3.419410634341711
 20
10.86912157073665
 30
0.0
 10
3.418775069439969
 20
10.86894483869297
 30
0.0
  0
LINE
  5
6F
330
1F
100
AcDbEntity
  8
0
  6
Continuous
 62
     7
370
    25
100
AcDbLine
 10
5.4363609252
 20
11.2956487951
 30
0.0
 11
5.4644048795
 21
11.1102578929
 31
0.0
  0
LINE
  5
70
330
1F
100
AcDbEntity
  8
0
  6
Continuous
 62
     7
370
    25
100
AcDbLine
 10
5.4644048795
 20
11.1102578929
 30
0.0
 11
5.6497957817
 21
11.1383018472
 31
0.0
  0
LINE
  5
71
330
1F
100
AcDbEntity
  8
0
  6
Continuous
 62
     7
370
    25
100
AcDbLine
 10
5.6497957817
 20
11.1383018472
 30
0.0
 11
5.6217518271
 21
11.3236927494
 31
0.0
  0
SPLINE
  5
72
330
1F
100
AcDbEntity
  8
0
  6
Continuous
 62
     7
370
    25
100
AcDbSpline
210
0.0
220
0.0
230
1.0
 70
     8
 71
     3
 72
    14
 73
    10
 74
     0
 42
0.00000001
 43
0.00000001
 40
0.6471977191416923
 40
0.6471977191416923
 40
0.6471977191416923
 40
0.6471977191416923
 40
0.6571860540028671
 40
0.6713255457791549
 40
0.6852940138169578
 40
0.6990781474144603
 40
0.7126650949455656
 40
0.7260426447110092
 40
0.7381275985692739
 40
0.7381275985692739
 40
0.7381275985692739
 40
0.7381275985692739
 10
7.719591494849251
 20
11.54207401740922
 30
0.0
 10
7.642507214890725
 20
11.53702800740177
 30
0.0
 10
7.45634882387319
 20
11.52413052195832
 30
0.0
 10
7.162622751122125
 20
11.50094349117738
 30
0.0
 10
6.839950989061311
 20
11.47167022991849
 30
0.0
 10
6.521894843234025
 20
11.43905542826695
 30
0.0
 10
6.208808418975003
 20
11.40301037889356
 30
0.0
 10
5.909236738383221
 20
11.36468783455482
 30
0.0
 10
5.714223437752765
 20
11.33728059799786
 30
0.0
 10
5.621751827054719
 20
11.32369274937214
 30
0.0
  0
LINE
  5
73
330
1F
100
AcDbEntity
  8
0
  6
Continuous
 62
     7
370
    25
100
AcDbLine
 10
7.7195914948
 20
11.5420740174
 30
0.0
 11
7.7312696259
 21
11.3549380474
 31
0.0
  0
LINE
  5
74
330
1F
100
AcDbEntity
  8
0
  6
Continuous
 62
     7
370
    25
100
AcDbLine
 10
7.7312696259
 20
11.3549380474
 30
0.0
 11
7.9184055959
 21
11.3666161785
 31
0.0
  0
LINE
  5
75
330
1F
100
AcDbEntity
  8
0
  6
Continuous
 62
     7
370
    25
100
AcDbLine
 10
7.9184055959
 20
11.3666161785
 30
0.0
 11
7.9067274644
 21
11.5537521484
 31
0.0
  0
SPLINE
  5
76
330
1F
100
AcDbEntity
  8
0
  6
Continuous
 62
     7
370
    25
100
AcDbSpline
210
0.0
220
0.0
230
1.0
 70
     8
 71
     3
 72
     9
 73
     5
 74
     0
 42
0.00000001
 43
0.00000001
 40
0.6239097273078288
 40
0.6239097273078288
 40
0.6239097273078288
 40
0.6239097273078288
 40
0.628447474920468
 40
0.6391164527381705
 40
0.6391164527381705
 40
0.6391164527381705
 40
0.6391164527381705
 10
8.259042211264154
 20
11.57266411887648
 30
0.0
 10
8.223987927390217
 20
11.57098081698512
 30
0.0
 10
8.106524738424822
 20
11.56514486052711
 30
0.0
 10
7.989095732861079
 20
11.55864236677265
 30
0.0
 10
7.906727464442585
 20
11.55375214843452
 30
0.0
  0
LINE
  5
77
330
1F
100
AcDbEntity
  8
0
  6
Continuous
 62
     7
370
    25
100
AcDbLine
 10
8.2590422116
 20
10.5836969284
 30
0.0
 11
8.2590422113
 21
11.5726641189
 31
0.0
  0
LINE
  5
78
330
1F
100
AcDbEntity
  8
0
  6
Continuous
 62
     7
370
    25
100
AcDbLine
 10
8.5090422116
 20
10.5836969284
 30
0.0
 11
8.2590422116
 21
10.5836969284
 31
0.0
  0
LINE
  5
79
330
1F
100
AcDbEntity
  8
0
  6
Continuous
 62
     7
370
    25
100
AcDbLine
 10
8.5090422113
 20
11.5836969284
 30
0.0
 11
8.5090422116
 21
10.5836969284
 31
0.0
  0
SPLINE
  5
7A
330
1F
100
AcDbEntity
  8
0
  6
Continuous
 62
     7
370
    25
100
AcDbSpline
210
0.0
220
0.0
230
1.0
 70
     8
 71
     3
 72
    12
 73
     8
 74
     0
 42
0.00000001
 43
0.00000001
 40
0.5511452244250064
 40
0.5511452244250064
 40
0.5511452244250064
 40
0.5511452244250064
 40
0.5545829838309861
 40
0.5695295459998657
 40
0.5844034168402927
 40
0.5991909919021363
 40
0.6131242024519998
 40
0.6131242024519998
 40
0.6131242024519998
 40
0.6131242024519998
 10
9.946694838558704
 20
11.61169912186822
 30
0.0
 10
9.920107432346173
 20
11.61170988904498
 30
0.0
 10
9.777924227569736
 20
11.61161784739762
 30
0.0
 10
9.5207098110375
 20
11.60999875045229
 30
0.0
 10
9.175753256645056
 20
11.6045483855783
 30
0.0
 10
8.838701433450655
 20
11.59590443103766
 30
0.0
 10
8.616713441348839
 20
11.58803687096217
 30
0.0
 10
8.509042211265744
 20
11.58369692839569
 30
0.0
  0
LINE
  5
7B
330
1F
100
AcDbEntity
  8
0
  6
Continuous
 62
     7
370
    25
100
AcDbLine
 10
9.9466948386
 20
11.6116991219
 30
0.0
 11
9.946542227
 21
11.234854414
 31
0.0
  0
LINE
  5
7C
330
1F
100
AcDbEntity
  8
0
  6
Continuous
 62
     7
370
    25
100
AcDbLine
 10
9.946542227
 20
11.234854414
 30
0.0
 11
10.3215421963
 21
11.2347025492
 31
0.0
  0
LINE
  5
7D
330
1F
100
AcDbEntity
  8
0
  6
Continuous
 62
     7
370
    25
100
AcDbLine
 10
10.3215421963
 20
11.2347025492
 30
0.0
 11
10.3216940607
 21
11.6097025185
 31
0.0
  0
SPLINE
  5
7E
330
1F
100
AcDbEntity
  8
0
  6
Continuous
 62
     7
370
    25
100
AcDbSpline
210
0.0
220
0.0
230
1.0
 70
     8
 71
     3
 72
    15
 73
    11
 74
     0
 42
0.00000001
 43
0.00000001
 40
0.4314156119256059
 40
0.4314156119256059
 40
0.4314156119256059
 40
0.4314156119256059
 40
0.4341867493871219
 40
0.4491772650868069
 40
0.4642147821671246
 40
0.4792840087649619
 40
0.4943697397811477
 40
0.5094578326361675
 40
0.5245323463196893
 40
0.5349824261914548
 40
0.5349824261914548
 40
0.5349824261914548
 40
0.5349824261914548
 10
12.72246264631067
 20
11.51547829964709
 30
0.0
 10
12.70107853852006
 20
11.51690679709904
 30
0.0
 10
12.56401025682846
 20
11.52596579860585
 30
0.0
 10
12.31082018076033
 20
11.54153432614785
 30
0.0
 10
11.96254267663321
 20
11.56027799570674
 30
0.0
 10
11.61339162394161
 20
11.57629465844735
 30
0.0
 10
11.26373037138933
 20
11.58947395588547
 30
0.0
 10
10.91393020967749
 20
11.59973632746604
 30
0.0
 10
10.59989900055511
 20
11.60624657116115
 30
0.0
 10
10.4025100649154
 20
11.60887757350795
 30
0.0
 10
10.32169406072517
 20
11.60970251849091
 30
0.0
  0
LINE
  5
7F
330
1F
100
AcDbEntity
  8
0
  6
Continuous
 62
     7
370
    25
100
AcDbLine
 10
12.7224626463
 20
11.5154782996
 30
0.0
 11
12.7095822118
 21
11.3284222353
 31
0.0
  0
LINE
  5
80
330
1F
100
AcDbEntity
  8
0
  6
Continuous
 62
     7
370
    25
100
AcDbLine
 10
12.7095822118
 20
11.3284222353
 30
0.0
 11
12.896639269
 21
11.3155417325
 31
0.0
  0
LINE
  5
81
330
1F
100
AcDbEntity
  8
0
  6
Continuous
 62
     7
370
    25
100
AcDbLine
 10
12.896639269
 20
11.3155417325
 30
0.0
 11
12.9095197719
 21
11.5025987897
 31
0.0
  0
SPLINE
  5
82
330
1F
100
AcDbEntity
  8
0
  6
Continuous
 62
     7
370
    25
100
AcDbSpline
210
0.0
220
0.0
230
1.0
 70
     8
 71
     3
 72
    16
 73
    12
 74
     0
 42
0.00000001
 43
0.00000001
 40
0.3164238124056183
 40
0.3164238124056183
 40
0.3164238124056183
 40
0.3164238124056183
 40
0.3176892265558903
 40
0.331784111124987
 40
0.346039676653823
 40
0.3604438694916348
 40
0.3749827204038077
 40
0.3896404543545233
 40
0.4044033165867775
 40
0.4192566006634758
 40
0.4233343286975332
 40
0.4233343286975332
 40
0.4233343286975332
 40
0.4233343286975332
 10
15.37826009515013
 20
11.26393417311197
 30
0.0
 10
15.36854579395331
 20
11.26512104561816
 30
0.0
 10
15.25062371839076
 20
11.27949156656826
 30
0.0
 10
15.02314749380673
 20
11.30628879058147
 30
0.0
 10
14.69451991078311
 20
11.34291428488113
 30
0.0
 10
14.36224046728767
 20
11.37771342104472
 30
0.0
 10
14.02663875781428
 20
11.41057738167359
 30
0.0
 10
13.68805453011796
 20
11.44136432998035
 30
0.0
 10
13.34683963553335
 20
11.4699839810754
 30
0.0
 10
13.08701187053973
 20
11.48986931826346
 30
0.0
 10
12.94097769007158
 20
11.50036892298733
 30
0.0
 10
12.90951977187359
 20
11.50259878967476
 30
0.0
  0
LINE
  5
83
330
1F
100
AcDbEntity
  8
0
  6
Continuous
 62
     7
370
    25
100
AcDbLine
 10
15.3782600952
 20
11.2639341731
 30
0.0
 11
15.3555208379
 21
11.0778181443
 31
0.0
  0
LINE
  5
84
330
1F
100
AcDbEntity
  8
0
  6
Continuous
 62
     7
370
    25
100
AcDbLine
 10
15.3555208379
 20
11.0778181443
 30
0.0
 11
15.5416368667
 21
11.0550788867
 31
0.0
  0
LINE
  5
85
330
1F
100
AcDbEntity
  8
0
  6
Continuous
 62
     7
370
    25
100
AcDbLine
 10
15.5416368667
 20
11.0550788867
 30
0.0
 11
15.564337852
 21
11.2408816647
 31
0.0
  0
SPLINE
  5
86
330
1F
100
AcDbEntity
  8
0
  6
Continuous
 62
     7
370
    25
100
AcDbSpline
210
0.0
220
0.0
230
1.0
 70
     8
 71
     3
 72
    45
 73
    41
 74
     0
 42
0.00000001
 43
0.00000001
 40
0.0
 40
0.0
 40
0.0
 40
0.0
 40
0.0002540897518312
 40
0.0010153730404189
 40
0.0022833589873498
 40
0.0040565770162251
 40
0.0063309815935676
 40
0.0091052744745057
 40
0.0123744894508916
 40
0.0161340231657128
 40
0.0203796604534971
 40
0.0251059762158006
 40
0.0303062367832748
 40
0.0359722056047472
 40
0.0420995223901982
 40
0.048678063692099
 40
0.0557016641246682
 40
0.0631601838890209
 40
0.0710458240741888
 40
0.079349826512255
 40
0.0880629100454657
 40
0.0971757563559511
 40
0.1066781116462642
 40
0.1165615729559075
 40
0.1268142755473613
 40
0.1374283005010189
 40
0.1483936177789397
 40
0.1596997598396382
 40
0.1713381255242434
 40
0.1832976990279093
 40
0.1955696040927178
 40
0.2081435554480289
 40
0.2210115933777215
 40
0.2341618307558447
 40
0.2475874504524841
 40
0.2612768224436114
 40
0.2752227101303402
 40
0.2894141440710628
 40
0.3037711996782109
 40
0.3083424724643555
 40
0.3083424724643555
 40
0.3083424724643555
 40
0.3083424724643555
 10
22.25765165164649
 20
8.883565349770569
 30
0.0
 10
22.25597982412344
 20
8.88459813206303
 30
0.0
 10
22.24929900137121
 20
8.888725253636526
 30
0.0
 10
22.23424589087807
 20
8.897958626960424
 30
0.0
 10
22.2091793311847
 20
8.913337274268358
 30
0.0
 10
22.17408833801385
 20
8.934754380820548
 30
0.0
 10
22.12900015615554
 20
8.962153066141124
 30
0.0
 10
22.07389210769578
 20
8.995341482047136
 30
0.0
 10
22.00879859457122
 20
9.034211804010242
 30
0.0
 10
21.93373537057592
 20
9.07858018914333
 30
0.0
 10
21.84871012504714
 20
9.128238894130385
 30
0.0
 10
21.7537552337053
 20
9.182986740896805
 30
0.0
 10
21.64887896096748
 20
9.24251377768332
 30
0.0
 10
21.53412193582552
 20
9.3065767778274
 30
0.0
 10
21.4095235248226
 20
9.374871055538694
 30
0.0
 10
21.27510730164513
 20
9.447088162343801
 30
0.0
 10
21.13092139712605
 20
9.522860753479629
 30
0.0
 10
20.97702116086365
 20
9.601862928165934
 30
0.0
 10
20.81343465071005
 20
9.68365841355278
 30
0.0
 10
20.64023899469367
 20
9.767906801294487
 30
0.0
 10
20.45749189531382
 20
9.854188023367657
 30
0.0
 10
20.26525572808316
 20
9.942041757564827
 30
0.0
 10
20.06364092883225
 20
10.03110986240166
 30
0.0
 10
19.85270324012871
 20
10.12083861131229
 30
0.0
 10
19.63256287161173
 20
10.21083924348937
 30
0.0
 10
19.40331354237191
 20
10.30059954749708
 30
0.0
 10
19.16509098858058
 20
10.38971072849144
 30
0.0
 10
18.91798711916427
 20
10.4775955068506
 30
0.0
 10
18.662186649498
 20
10.56386981802826
 30
0.0
 10
18.39781366929126
 20
10.6479731958051
 30
0.0
 10
18.12505724012833
 20
10.72944888274881
 30
0.0
 10
17.84407583777185
 20
10.80776862894285
 30
0.0
 10
17.5551036911978
 20
10.88253076550001
 30
0.0
 10
17.25832406733252
 20
10.95319084409186
 30
0.0
 10
16.953988507901
 20
11.01927589515045
 30
0.0
 10
16.64233892538299
 20
11.08038804499809
 30
0.0
 10
16.32363669078096
 20
11.13591717158401
 30
0.0
 10
15.99876495808238
 20
11.18581998262072
 30
0.0
 10
15.74466155858816
 20
11.21819429285217
 30
0.0
 10
15.59941745961619
 20
11.23648609408696
 30
0.0
 10
15.56433785200667
 20
11.24088166474981
 30
0.0
  0
LINE
  5
87
330
1F
100
AcDbEntity
  8
0
  6
Continuous
 62
     7
370
    25
100
AcDbLine
 10
22.4402551709
 20
8.7707608417
 30
0.0
 11
22.2576516516
 21
8.8835653498
 31
0.0
  0
LINE
  5
88
330
1F
100
AcDbEntity
  8
0
  6
Continuous
 62
     7
370
    25
100
AcDbLine
 10
22.2304327716
 20
8.8155181498
 30
0.0
 11
22.4402551709
 21
8.7707608417
 31
0.0
  0
SPLINE
  5
89
330
1F
100
AcDbEntity
  8
0
  6
Continuous
 62
     7
370
    25
100
AcDbSpline
210
0.0
220
0.0
230
1.0
 70
     8
 71
     3
 72
    45
 73
    41
 74
     0
 42
0.00000001
 43
0.00000001
 40
0.6954317067577288
 40
0.6954317067577288
 40
0.6954317067577288
 40
0.6954317067577288
 40
0.7035818246207629
 40
0.7169075633393495
 40
0.7300092743405843
 40
0.7429521279156549
 40
0.755725557694238
 40
0.7683199516741555
 40
0.7807243374027457
 40
0.7929265285864308
 40
0.8049160410865589
 40
0.8166790838088313
 40
0.8282035242084964
 40
0.8394749002660455
 40
0.8504813585168555
 40
0.8612076967744442
 40
0.8716393257296176
 40
0.8817634137109616
 40
0.8915636048210556
 40
0.9010273643172574
 40
0.9101389770085111
 40
0.9188839764012169
 40
0.9272492779043127
 40
0.9352211037112476
 40
0.9427847385100345
 40
0.9499281877133432
 40
0.9566384642920557
 40
0.9629042034427838
 40
0.9687122876061149
 40
0.9740544849024281
 40
0.9789184321677268
 40
0.9832972184116099
 40
0.9871802458290098
 40
0.9905606741393513
 40
0.9934333573190599
 40
0.9957906255195277
 40
0.9976295874610529
 40
0.9989458159268665
 40
0.9997365922159134
 40
1.0
 40
1.0
 40
1.0
 40
1.0
 10
15.4904156761992
 20
9.064889067585572
 30
0.0
 10
15.55038563957004
 20
9.072771133173365
 30
0.0
 10
15.70840485207894
 20
9.09357245032836
 30
0.0
 10
15.96270623547048
 20
9.128018550135465
 30
0.0
 10
16.25302549713151
 20
9.161163912645854
 30
0.0
 10
16.53972991595686
 20
9.189454672486404
 30
0.0
 10
16.8231173051645
 20
9.212649191852984
 30
0.0
 10
17.10284738080851
 20
9.231081169000058
 30
0.0
 10
17.37859963259354
 20
9.244882309767766
 30
0.0
 10
17.6500454206281
 20
9.25424529409644
 30
0.0
 10
17.91684187000176
 20
9.259447887788921
 30
0.0
 10
18.17865574554191
 20
9.260622119507785
 30
0.0
 10
18.43512968225534
 20
9.258142460541551
 30
0.0
 10
18.68593010953071
 20
9.252208791281321
 30
0.0
 10
18.93070699326083
 20
9.243087445601306
 30
0.0
 10
19.16911884815357
 20
9.231086162200844
 30
0.0
 10
19.4008270326092
 20
9.216532104626001
 30
0.0
 10
19.62548368344899
 20
9.199639955960215
 30
0.0
 10
19.84277574897522
 20
9.18080407331647
 30
0.0
 10
20.05236798128262
 20
9.16030019104304
 30
0.0
 10
20.25393854709129
 20
9.138362571212545
 30
0.0
 10
20.44719332750281
 20
9.115450892441936
 30
0.0
 10
20.63182299544033
 20
9.091716006256378
 30
0.0
 10
20.80754983956279
 20
9.067547961437377
 30
0.0
 10
20.97409098774686
 20
9.043191676743152
 30
0.0
 10
21.13118268426232
 20
9.018958108592082
 30
0.0
 10
21.2785781146337
 20
8.99507844230454
 30
0.0
 10
21.41603918914356
 20
8.971869625193477
 30
0.0
 10
21.54335057944701
 20
8.949548498425454
 30
0.0
 10
21.66029136510983
 20
8.928333046507328
 30
0.0
 10
21.7666993162011
 20
8.908490948233709
 30
0.0
 10
21.86236427618423
 20
8.890120770326014
 30
0.0
 10
21.94715830004315
 20
8.873525256153451
 30
0.0
 10
22.02092372235555
 20
8.858777634285365
 30
0.0
 10
22.08355240814335
 20
8.846085681444315
 30
0.0
 10
22.13493498418056
 20
8.83549948769031
 30
0.0
 10
22.17499340991719
 20
8.82719283364779
 30
0.0
 10
22.20364856274315
 20
8.821152445524813
 30
0.0
 10
22.22086944865155
 20
8.817558106393523
 30
0.0
 10
22.2285209097108
 20
8.8159259698787
 30
0.0
 10
22.2304327716465
 20
8.815518149770568
 30
0.0
  0
LINE
  5
8A
330
1F
100
AcDbEntity
  8
0
  6
Continuous
 62
     7
370
    25
100
AcDbLine
 10
15.4659421571
 20
9.2507849978
 30
0.0
 11
15.4904156762
 21
9.0648890676
 31
0.0
  0
LINE
  5
8B
330
1F
100
AcDbEntity
  8
0
  6
Continuous
 62
     7
370
    25
100
AcDbLine
 10
15.2800462268
 20
9.226311479
 30
0.0
 11
15.4659421571
 21
9.2507849978
 31
0.0
  0
LINE
  5
8C
330
1F
100
AcDbEntity
  8
0
  6
Continuous
 62
     7
370
    25
100
AcDbLine
 10
15.3045197456
 20
9.0404155488
 30
0.0
 11
15.2800462268
 21
9.226311479
 31
0.0
  0
SPLINE
  5
8D
330
1F
100
AcDbEntity
  8
0
  6
Continuous
 62
     7
370
    25
100
AcDbSpline
210
0.0
220
0.0
230
1.0
 70
     8
 71
     3
 72
    12
 73
     8
 74
     0
 42
0.00000001
 43
0.00000001
 40
0.6279258258439321
 40
0.6279258258439321
 40
0.6279258258439321
 40
0.6279258258439321
 40
0.6312694223607523
 40
0.6460065237480678
 40
0.6606206841728729
 40
0.6750981874935538
 40
0.687010174038574
 40
0.687010174038574
 40
0.687010174038574
 40
0.687010174038574
 10
14.00070382830553
 20
8.865640493329929
 30
0.0
 10
14.02529372943555
 20
8.86897086487279
 30
0.0
 10
14.15826629000422
 20
8.886971173912706
 30
0.0
 10
14.39873012157618
 20
8.919424636883805
 30
0.0
 10
14.72111221700204
 20
8.962702109029557
 30
0.0
 10
15.02274087205222
 20
9.002989114079737
 30
0.0
 10
15.21687793852505
 20
9.02882919128156
 30
0.0
 10
15.30451974557708
 20
9.040415548793568
 30
0.0
  0
LINE
  5
8E
330
1F
100
AcDbEntity
  8
0
  6
Continuous
 62
     7
370
    25
100
AcDbLine
 10
13.9501775023
 20
9.2373055152
 30
0.0
 11
14.0007038283
 21
8.8656404933
 31
0.0
  0
LINE
  5
8F
330
1F
100
AcDbEntity
  8
0
  6
Continuous
 62
     7
370
    25
100
AcDbLine
 10
13.5785954388
 20
9.186790467
 30
0.0
 11
13.9501775023
 21
9.2373055152
 31
0.0
  0
LINE
  5
90
330
1F
100
AcDbEntity
  8
0
  6
Continuous
 62
     7
370
    25
100
AcDbLine
 10
13.629110487
 20
8.8152084035
 30
0.0
 11
13.5785954388
 21
9.186790467
 31
0.0
  0
SPLINE
  5
91
330
1F
100
AcDbEntity
  8
0
  6
Continuous
 62
     7
370
    25
100
AcDbSpline
210
0.0
220
0.0
230
1.0
 70
     8
 71
     3
 72
    12
 73
     8
 74
     0
 42
0.00000001
 43
0.00000001
 40
0.5461439631916802
 40
0.5461439631916802
 40
0.5461439631916802
 40
0.5461439631916802
 40
0.5562472332602322
 40
0.571381784352882
 40
0.5864660404483751
 40
0.6014845156991583
 40
0.6110828024492753
 40
0.6110828024492753
 40
0.6110828024492753
 40
0.6110828024492753
 10
12.19654221164622
 20
8.61986720593003
 30
0.0
 10
12.27083614164551
 20
8.629995414072944
 30
0.0
 10
12.45641948296599
 20
8.655308808203586
 30
0.0
 10
12.75292133085518
 20
8.695764771197732
 30
0.0
 10
13.08555849211544
 20
8.741209771728064
 30
0.0
 10
13.37750146899477
 20
8.780984073526666
 30
0.0
 10
13.55852634058502
 20
8.80561278008306
 30
0.0
 10
13.6291104869718
 20
8.815208403512875
 30
0.0
  0
LINE
  5
92
330
1F
100
AcDbEntity
  8
0
  6
Continuous
 62
     7
370
    25
100
AcDbLine
 10
12.1965422116
 20
9.3698672059
 30
0.0
 11
12.1965422116
 21
8.6198672059
 31
0.0
  0
LINE
  5
93
330
1F
100
AcDbEntity
  8
0
  6
Continuous
 62
     7
370
    25
100
AcDbLine
 10
12.0715422116
 20
9.3698672059
 30
0.0
 11
12.1965422116
 21
9.3698672059
 31
0.0
  0
LINE
  5
94
330
1F
100
AcDbEntity
  8
0
  6
Continuous
 62
     7
370
    25
100
AcDbLine
 10
12.0715422116
 20
8.6028322605
 30
0.0
 11
12.0715422116
 21
9.3698672059
 31
0.0
  0
SPLINE
  5
95
330
1F
100
AcDbEntity
  8
0
  6
Continuous
 62
     7
370
    25
100
AcDbSpline
210
0.0
220
0.0
230
1.0
 70
     8
 71
     3
 72
     9
 73
     5
 74
     0
 42
0.00000001
 43
0.00000001
 40
0.520465470718606
 40
0.520465470718606
 40
0.520465470718606
 40
0.520465470718606
 40
0.5258873344064182
 40
0.5404777269663087
 40
0.5404777269663087
 40
0.5404777269663087
 40
0.5404777269663087
 10
11.63003897253989
 20
8.542835672920443
 30
0.0
 10
11.66991302767505
 20
8.548236846933381
 30
0.0
 10
11.81708683170582
 20
8.568191118767182
 30
0.0
 10
11.96425100905427
 20
8.588216296027163
 30
0.0
 10
12.07154221164642
 20
8.602832260479632
 30
0.0
  0
LINE
  5
96
330
1F
100
AcDbEntity
  8
0
  6
Continuous
 62
     7
370
    25
100
AcDbLine
 10
11.6049062615
 20
8.7286436298
 30
0.0
 11
11.6300389725
 21
8.5428356729
 31
0.0
  0
LINE
  5
97
330
1F
100
AcDbEntity
  8
0
  6
Continuous
 62
     7
370
    25
100
AcDbLine
 10
11.4190983047
 20
8.7035109188
 30
0.0
 11
11.6049062615
 21
8.7286436298
 31
0.0
  0
LINE
  5
98
330
1F
100
AcDbEntity
  8
0
  6
Continuous
 62
     7
370
    25
100
AcDbLine
 10
11.4190983047
 20
8.7035109188
 30
0.0
 11
11.4442310441
 21
8.5177027515
 31
0.0
  0
SPLINE
  5
99
330
1F
100
AcDbEntity
  8
0
  6
Continuous
 62
     7
370
    25
100
AcDbSpline
210
0.0
220
0.0
230
1.0
 70
     8
 71
     3
 72
    15
 73
    11
 74
     0
 42
0.00000001
 43
0.00000001
 40
0.4170001598971144
 40
0.4170001598971144
 40
0.4170001598971144
 40
0.4170001598971144
 40
0.420174823355266
 40
0.4351095326124219
 40
0.4501242755491032
 40
0.4652030675528332
 40
0.480333153810538
 40
0.4955005832026954
 40
0.5106897747322421
 40
0.5120439593711981
 40
0.5120439593711981
 40
0.5120439593711981
 40
0.5120439593711981
 10
9.346072915841518
 20
8.242837965613147
 30
0.0
 10
9.36945179914816
 20
8.245759164898061
 30
0.0
 10
9.502808414823354
 20
8.262459318825423
 30
0.0
 10
9.74668658461194
 20
8.293374477964436
 30
0.0
 10
10.07812552754677
 20
8.336057603774444
 30
0.0
 10
10.41091184424955
 20
8.379624076450792
 30
0.0
 10
10.74476563779471
 20
8.423763502638863
 30
0.0
 10
11.07936495041826
 20
8.468512234748397
 30
0.0
 10
11.31259972677554
 20
8.499926298311873
 30
0.0
 10
11.43427144879944
 20
8.516357463145107
 30
0.0
 10
11.44423104409401
 20
8.517702751466972
 30
0.0
  0
LINE
  5
9A
330
1F
100
AcDbEntity
  8
0
  6
Continuous
 62
     7
370
    25
100
AcDbLine
 10
9.3229642334
 20
8.4289084866
 30
0.0
 11
9.3460729158
 21
8.2428379656
 31
0.0
  0
LINE
  5
9B
330
1F
100
AcDbEntity
  8
0
  6
Continuous
 62
     7
370
    25
100
AcDbLine
 10
9.1368937124
 20
8.4057998042
 30
0.0
 11
9.3229642334
 21
8.4289084866
 31
0.0
  0
LINE
  5
9C
330
1F
100
AcDbEntity
  8
0
  6
Continuous
 62
     7
370
    25
100
AcDbLine
 10
9.1368937124
 20
8.4057998042
 30
0.0
 11
9.1600022636
 21
8.2197303399
 31
0.0
  0
SPLINE
  5
9D
330
1F
100
AcDbEntity
  8
0
  6
Continuous
 62
     7
370
    25
100
AcDbSpline
210
0.0
220
0.0
230
1.0
 70
     8
 71
     3
 72
    15
 73
    11
 74
     0
 42
0.00000001
 43
0.00000001
 40
0.3173008976357805
 40
0.3173008976357805
 40
0.3173008976357805
 40
0.3173008976357805
 40
0.3189806851177335
 40
0.3329854989238258
 40
0.3471627904008333
 40
0.3614986025989408
 40
0.3759807467343043
 40
0.390597192121319
 40
0.4053325934372969
 40
0.4085786502070922
 40
0.4085786502070922
 40
0.4085786502070922
 40
0.4085786502070922
 10
7.140473894725051
 20
7.993201170266897
 30
0.0
 10
7.152881059451359
 20
7.994416116282038
 30
0.0
 10
7.268726232104491
 20
8.005797794218307
 30
0.0
 10
7.48921870154618
 20
8.028125744085088
 30
0.0
 10
7.803004068124197
 20
8.061418347873424
 30
0.0
 10
8.120159674410772
 20
8.096490094487168
 30
0.0
 10
8.440415718545196
 20
8.133153876418362
 30
0.0
 10
8.76347964770786
 20
8.171343359739483
 30
0.0
 10
9.003643793769912
 20
8.200476764451269
 30
0.0
 10
9.136093097428443
 20
8.216779913127356
 30
0.0
 10
9.16000226357181
 20
8.219730339922505
 30
0.0
  0
LINE
  5
9E
330
1F
100
AcDbEntity
  8
0
  6
Continuous
 62
     7
370
    25
100
AcDbLine
 10
7.1064738116
 20
8.3666566487
 30
0.0
 11
7.1404738947
 21
7.9932011703
 31
0.0
  0
LINE
  5
9F
330
1F
100
AcDbEntity
  8
0
  6
Continuous
 62
     7
370
    25
100
AcDbLine
 10
6.7330183332
 20
8.3326565656
 30
0.0
 11
7.1064738116
 21
8.3666566487
 31
0.0
  0
LINE
  5
A0
330
1F
100
AcDbEntity
  8
0
  6
Continuous
 62
     7
370
    25
100
AcDbLine
 10
6.7671363999
 20
7.9579051648
 30
0.0
 11
6.7330183332
 21
8.3326565656
 31
0.0
  0
SPLINE
  5
A1
330
1F
100
AcDbEntity
  8
0
  6
Continuous
 62
     7
370
    25
100
AcDbSpline
210
0.0
220
0.0
230
1.0
 70
     8
 71
     3
 72
    13
 73
     9
 74
     0
 42
0.00000001
 43
0.00000001
 40
0.2297244997164833
 40
0.2297244997164833
 40
0.2297244997164833
 40
0.2297244997164833
 40
0.239236416912666
 40
0.2519590037406926
 40
0.2649238944848901
 40
0.2781197025559347
 40
0.2915360351420174
 40
0.3004577628980368
 40
0.3004577628980368
 40
0.3004577628980368
 40
0.3004577628980368
 10
5.196542212030311
 20
7.843799385440832
 30
0.0
 10
5.267043658737376
 20
7.847386385247796
 30
0.0
 10
5.431815119214814
 20
7.856332965928146
 30
0.0
 10
5.692551444028648
 20
7.87245462475927
 30
0.0
 10
5.98042425439152
 20
7.892557941425915
 30
0.0
 10
6.273278033464184
 20
7.915127248519581
 30
0.0
 10
6.536069226643728
 20
7.937186898781025
 30
0.0
 10
6.701196672715287
 20
7.951901889042261
 30
0.0
 10
6.767136399894196
 20
7.957905164759231
 30
0.0
  0
LINE
  5
A2
330
1F
100
AcDbEntity
  8
0
  6
Continuous
 62
     7
370
    25
100
AcDbLine
 10
5.1965422116
 20
8.5937993854
 30
0.0
 11
5.196542212
 21
7.8437993854
 31
0.0
  0
LINE
  5
A3
330
1F
100
AcDbEntity
  8
0
  6
Continuous
 62
     7
370
    25
100
AcDbLine
 10
5.0715422116
 20
8.5937993854
 30
0.0
 11
5.1965422116
 21
8.5937993854
 31
0.0
  0
LINE
  5
A4
330
1F
100
AcDbEntity
  8
0
  6
Continuous
 62
     7
370
    25
100
AcDbLine
 10
5.071542212
 20
7.8376950858
 30
0.0
 11
5.0715422116
 21
8.5937993854
 31
0.0
  0
SPLINE
  5
A5
330
1F
100
AcDbEntity
  8
0
  6
Continuous
 62
     7
370
    25
100
AcDbSpline
210
0.0
220
0.0
230
1.0
 70
     8
 71
     3
 72
     9
 73
     5
 74
     0
 42
0.00000001
 43
0.00000001
 40
0.2085650349845574
 40
0.2085650349845574
 40
0.2085650349845574
 40
0.2085650349845574
 40
0.2145604781304418
 40
0.2241034837226979
 40
0.2241034837226979
 40
0.2241034837226979
 40
0.2241034837226979
 10
4.725874252312018
 20
7.823640338467628
 30
0.0
 10
4.770343347399654
 20
7.825164375751689
 30
0.0
 10
4.88558418779016
 20
7.82941140478568
 30
0.0
 10
5.000796118210135
 20
7.834386878038024
 30
0.0
 10
5.071542212028924
 20
7.837695085757816
 30
0.0
  0
LINE
  5
A6
330
1F
100
AcDbEntity
  8
0
  6
Continuous
 62
     7
370
    25
100
AcDbLine
 10
4.7201435264
 20
8.0110568612
 30
0.0
 11
4.7258742523
 21
7.8236403385
 31
0.0
  0
LINE
  5
A7
330
1F
100
AcDbEntity
  8
0
  6
Continuous
 62
     7
370
    25
100
AcDbLine
 10
4.5327311196
 20
8.0053262612
 30
0.0
 11
4.7201435264
 21
8.0110568612
 31
0.0
  0
LINE
  5
A8
330
1F
100
AcDbEntity
  8
0
  6
Continuous
 62
     7
370
    25
100
AcDbLine
 10
4.5327311196
 20
8.0053262612
 30
0.0
 11
4.53846172
 21
7.8179138544
 31
0.0
  0
SPLINE
  5
A9
330
1F
100
AcDbEntity
  8
0
  6
Continuous
 62
     7
370
    25
100
AcDbSpline
210
0.0
220
0.0
230
1.0
 70
     8
 71
     3
 72
    17
 73
    13
 74
     0
 42
0.00000001
 43
0.00000001
 40
0.1016614720720251
 40
0.1016614720720251
 40
0.1016614720720251
 40
0.1016614720720251
 40
0.1089998674022309
 40
0.118084529462581
 40
0.127514842657726
 40
0.1372852704325623
 40
0.1473879174712405
 40
0.1578164805284356
 40
0.1685634728403947
 40
0.1796191282126914
 40
0.1909773731687989
 40
0.2001435402442482
 40
0.2001435402442482
 40
0.2001435402442482
 40
0.2001435402442482
 10
2.349145697271147
 20
7.895398356270233
 30
0.0
 10
2.403194065625947
 20
7.888692589400306
 30
0.0
 10
2.524294222129753
 20
7.874832554991124
 30
0.0
 10
2.715317076100925
 20
7.856686755704887
 30
0.0
 10
2.924647575715236
 20
7.840819989660446
 30
0.0
 10
3.14176570250368
 20
7.828201236890927
 30
0.0
 10
3.366460703799298
 20
7.818790484592303
 30
0.0
 10
3.598517345461552
 20
7.812623507302241
 30
0.0
 10
3.837708354494611
 20
7.809604162085249
 30
0.0
 10
4.083817569182928
 20
7.809687120515602
 30
0.0
 10
4.318174571688338
 20
7.812660728795061
 30
0.0
 10
4.470459299508852
 20
7.816094380073428
 30
0.0
 10
4.538461720024111
 20
7.817913854427343
 30
0.0
  0
LINE
  5
AA
330
1F
100
AcDbEntity
  8
0
  6
Continuous
 62
     7
370
    25
100
AcDbLine
 10
2.374319529
 20
8.0812007464
 30
0.0
 11
2.3491456973
 21
7.8953983563
 31
0.0
  0
LINE
  5
AB
330
1F
100
AcDbEntity
  8
0
  6
Continuous
 62
     7
370
    25
100
AcDbLine
 10
2.1885171389
 20
8.1063745782
 30
0.0
 11
2.374319529
 21
8.0812007464
 31
0.0
  0
LINE
  5
AC
330
1F
100
AcDbEntity
  8
0
  6
Continuous
 62
     7
370
    25
100
AcDbLine
 10
2.1633467313
 20
7.9205974615
 30
0.0
 11
2.1885171389
 21
8.1063745782
 31
0.0
  0
SPLINE
  5
AD
330
1F
100
AcDbEntity
  8
0
  6
Continuous
 62
     7
370
    25
100
AcDbSpline
210
0.0
220
0.0
230
1.0
 70
     8
 71
     3
 72
    24
 73
    20
 74
     0
 42
0.00000001
 43
0.00000001
 40
0.0039351208712084
 40
0.0039351208712084
 40
0.0039351208712084
 40
0.0039351208712084
 40
0.0072932311171293
 40
0.011028136413859
 40
0.0149010810980465
 40
0.0189632717700928
 40
0.023258475402986
 40
0.0278206260323165
 40
0.0326790824435221
 40
0.0378531598360054
 40
0.0433618746912805
 40
0.0492146790039221
 40
0.0554223461563205
 40
0.06198878599669
 40
0.0689180360680075
 40
0.0762111572779437
 40
0.0838683921994994
 40
0.091887410882707
 40
0.0932399630117017
 40
0.0932399630117017
 40
0.0932399630117017
 40
0.0932399630117017
 10
0.4550435098898505
 20
8.764499277174663
 30
0.0
 10
0.4626029793580383
 20
8.740760809945181
 30
0.0
 10
0.4824664272014705
 20
8.691773221993465
 30
0.0
 10
0.5217662424675186
 20
8.620317522087245
 30
0.0
 10
0.57281895485452
 20
8.550077705142177
 30
0.0
 10
0.6342212051174078
 20
8.483007385435858
 30
0.0
 10
0.7058373795751164
 20
8.419036802272345
 30
0.0
 10
0.7875972445171711
 20
8.358200350927255
 30
0.0
 10
0.8793937909111647
 20
8.300525718587147
 30
0.0
 10
0.9810936705104463
 20
8.245951681487137
 30
0.0
 10
1.092582572742429
 20
8.19451216964321
 30
0.0
 10
1.213758842148967
 20
8.14622325823217
 30
0.0
 10
1.344490454082786
 20
8.101149497293571
 30
0.0
 10
1.484617585527744
 20
8.05922224047643
 30
0.0
 10
1.634007010674631
 20
8.020543661608405
 30
0.0
 10
1.792488858910956
 20
7.985059700232108
 30
0.0
 10
1.959910700663427
 20
7.952860933181846
 30
0.0
 10
2.084631353219589
 20
7.932369322625263
 30
0.0
 10
2.153416401924012
 20
7.922064809178801
 30
0.0
 10
2.16334673132427
 20
7.920597461481409
 30
0.0
  0
LINE
  5
AE
330
1F
100
AcDbEntity
  8
0
  6
Continuous
 62
     7
370
    25
100
AcDbLine
 10
0.4550435099
 20
8.7644992772
 30
0.0
 11
0.8002946546
 21
8.7644992772
 31
0.0
  0
LINE
  5
AF
330
1F
100
AcDbEntity
  8
0
  6
Continuous
 62
     7
370
    25
100
AcDbLine
 10
0.8002946546
 20
9.1394992772
 30
0.0
 11
0.8002946546
 21
8.7644992772
 31
0.0
  0
LINE
  5
B0
330
1F
100
AcDbEntity
  8
0
  6
Continuous
 62
     7
370
    25
100
AcDbLine
 10
0.4545310328
 20
9.1394992772
 30
0.0
 11
0.8002946546
 21
9.1394992772
 31
0.0
  0
SPLINE
  5
B1
330
1F
100
AcDbEntity
  8
0
  6
Continuous
 62
     7
370
    25
100
AcDbSpline
210
0.0
220
0.0
230
1.0
 70
     8
 71
     3
 72
    21
 73
    17
 74
     0
 42
0.00000001
 43
0.00000001
 40
0.913578602285428
 40
0.913578602285428
 40
0.913578602285428
 40
0.913578602285428
 40
0.9186607344498127
 40
0.9261662532257968
 40
0.9333026258827831
 40
0.9400712202263494
 40
0.9464747799611675
 40
0.9525175260177909
 40
0.9582048188585928
 40
0.9635466521340151
 40
0.9685565999026111
 40
0.9732499128166676
 40
0.9776510407515667
 40
0.9817870430140477
 40
0.9856942262062861
 40
0.9873639224737294
 40
0.9873639224737294
 40
0.9873639224737294
 40
0.9873639224737294
 10
1.71360000775035
 20
10.24037389574101
 30
0.0
 10
1.67837845322908
 20
10.22292630634495
 30
0.0
 10
1.591545955662065
 20
10.17889225258749
 30
0.0
 10
1.457237056206836
 20
10.10651449698702
 30
0.0
 10
1.314142419184936
 20
10.02312314497543
 30
0.0
 10
1.181392700577439
 20
9.939108182219284
 30
0.0
 10
1.059043693685564
 20
9.854682717544843
 30
0.0
 10
0.9472640845291446
 20
9.769899742070356
 30
0.0
 10
0.8460922710365733
 20
9.684973499083393
 30
0.0
 10
0.755592277792882
 20
9.600033309110804
 30
0.0
 10
0.675893465730015
 20
9.515137683699571
 30
0.0
 10
0.6069929662102588
 20
9.430436124449894
 30
0.0
 10
0.5489810760391951
 20
9.345995712238
 30
0.0
 10
0.5018678597262859
 20
9.261896347718984
 30
0.0
 10
0.472055678106175
 20
9.192792595972632
 30
0.0
 10
0.4583128803742736
 20
9.151855775604899
 30
0.0
 10
0.4545310327389292
 20
9.139499277207745
 30
0.0
  0
LINE
  5
B2
330
1F
100
AcDbEntity
  8
0
  6
Continuous
 62
     7
370
    25
100
AcDbLine
 10
1.7136000078
 20
10.2403738957
 30
0.0
 11
1.7944091307
 21
10.0711812965
 31
0.0
  0
LINE
  5
B3
330
1F
100
AcDbEntity
  8
0
  6
Continuous
 62
     7
370
    25
100
AcDbLine
 10
1.7944091307
 20
10.0711812965
 30
0.0
 11
1.9636017301
 21
10.1519904191
 31
0.0
  0
ARC
  5
B4
330
1F
100
AcDbEntity
  8
0
  6
Continuous
 62
     7
370
    25
100
AcDbCircle
 10
11.4715422116
 20
9.1773032872
 30
0.0
 40
0.2000000000000011
100
AcDbArc
 50
277.707926009
 51
0.0
  0
LINE
  5
B5
330
1F
100
AcDbEntity
  8
0
  6
Continuous
 62
     7
370
    25
100
AcDbLine
 10
11.6715422116
 20
9.1773032872
 30
0.0
 11
11.6715422116
 21
10.3171712465
 31
0.0
  0
ARC
  5
B6
330
1F
100
AcDbEntity
  8
0
  6
Continuous
 62
     7
370
    25
100
AcDbCircle
 10
11.4715422116
 20
10.3171712465
 30
0.0
 40
0.199999999999999
100
AcDbArc
 50
360.0
 51
61.1174148316
  0
LINE
  5
B7
330
1F
100
AcDbEntity
  8
0
  6
Continuous
 62
     7
370
    25
100
AcDbLine
 10
10.655645465
 20
10.9956587758
 30
0.0
 11
11.568145465
 21
10.4922935222
 31
0.0
  0
ARC
  5
B8
330
1F
100
AcDbEntity
  8
0
  6
Continuous
 62
     7
370
    25
100
AcDbCircle
 10
10.5590422116
 20
10.8205365001
 30
0.0
 40
0.1999999999999998
100
AcDbArc
 50
61.1174148316
 51
180.0
  0
LINE
  5
B9
330
1F
100
AcDbEntity
  8
0
  6
Continuous
 62
     7
370
    25
100
AcDbLine
 10
10.3590422116
 20
10.0322796551
 30
0.0
 11
10.3590422116
 21
10.8205365001
 31
0.0
  0
ARC
  5
BA
330
1F
100
AcDbEntity
  8
0
  6
Continuous
 62
     7
370
    25
100
AcDbCircle
 10
10.5590422116
 20
10.0322796551
 30
0.0
 40
0.1999999999999997
100
AcDbArc
 50
180.0
 51
245.5037209488
  0
ARC
  5
BB
330
1F
100
AcDbEntity
  8
0
  6
Continuous
 62
     7
370
    25
100
AcDbCircle
 10
10.1340422116
 20
9.0995417498
 30
0.0
 40
0.825
100
AcDbArc
 50
1.9843341954
 51
65.5037209488
  0
ARC
  5
BC
330
1F
100
AcDbEntity
  8
0
  6
Continuous
 62
     7
370
    25
100
AcDbCircle
 10
11.1584275518
 20
9.1350336479
 30
0.0
 40
0.200000000000001
100
AcDbArc
 50
181.9843341954
 51
277.6669245096
  0
SPLINE
  5
BD
330
1F
100
AcDbEntity
  8
0
  6
Continuous
 62
     7
370
    25
100
AcDbSpline
210
0.0
220
0.0
230
1.0
 70
     8
 71
     3
 72
     9
 73
     5
 74
     0
 42
0.00000001
 43
0.00000001
 40
0.5030188840320087
 40
0.5030188840320087
 40
0.5030188840320087
 40
0.5030188840320087
 40
0.5094777324209665
 40
0.5172316276034904
 40
0.5172316276034904
 40
0.5172316276034904
 40
0.5172316276034904
 10
11.18511037024166
 20
8.936821571588784
 30
0.0
 10
11.23256366430627
 20
8.943209616416436
 30
0.0
 10
11.33698598123459
 20
8.957286373113023
 30
0.0
 10
11.44140171032357
 20
8.971400340455746
 30
0.0
 10
11.49836686599651
 20
8.979110356160197
 30
0.0
  0
ARC
  5
BE
330
1F
100
AcDbEntity
  8
0
  6
Continuous
 62
     7
370
    25
100
AcDbCircle
 10
18.5821614423
 20
9.9046880561
 30
0.0
 40
0.1999999999999998
100
AcDbArc
 50
268.6299458018
 51
71.377062554
  0
SPLINE
  5
BF
330
1F
100
AcDbEntity
  8
0
  6
Continuous
 62
     7
370
    25
100
AcDbSpline
210
0.0
220
0.0
230
1.0
 70
     8
 71
     3
 72
    14
 73
    10
 74
     0
 42
0.00000001
 43
0.00000001
 40
0.1656411662480756
 40
0.1656411662480756
 40
0.1656411662480756
 40
0.1656411662480756
 40
0.1873399380408777
 40
0.2185632610476907
 40
0.2497865840545037
 40
0.2653982455579101
 40
0.2810099070613166
 40
0.2840212018328168
 40
0.2859726595207425
 40
0.2859726595207425
 40
0.2859726595207425
 40
0.2859726595207425
 10
18.64602918379158
 20
10.09421618482685
 30
0.0
 10
18.49147823162254
 20
10.14629721538028
 30
0.0
 10
18.11260501706358
 20
10.26735839965762
 30
0.0
 10
17.50332212958966
 20
10.43620892425836
 30
0.0
 10
16.93138782867809
 20
10.56648204779479
 30
0.0
 10
16.47126936421645
 20
10.65436645358259
 30
0.0
 10
16.21697803563679
 20
10.69683558595065
 30
0.0
 10
16.06470177494265
 20
10.72008042219371
 30
0.0
 10
16.02798743030684
 20
10.72553045091825
 30
0.0
 10
16.01354991633456
 20
10.72764877472306
 30
0.0
  0
ARC
  5
C0
330
1F
100
AcDbEntity
  8
0
  6
Continuous
 62
     7
370
    25
100
AcDbCircle
 10
15.984516053
 20
10.5297674093
 30
0.0
 40
0.2000000000000033
100
AcDbArc
 50
81.6529159505
 51
212.0881706695
  0
ARC
  5
C1
330
1F
100
AcDbEntity
  8
0
  6
Continuous
 62
     7
370
    25
100
AcDbCircle
 10
15.3914539216
 20
10.1579108398
 30
0.0
 40
0.4999999999999983
100
AcDbArc
 50
327.7385999223
 51
32.0881706695
  0
ARC
  5
C2
330
1F
100
AcDbEntity
  8
0
  6
Continuous
 62
     7
370
    25
100
AcDbCircle
 10
15.9833890642
 20
9.7842628946
 30
0.0
 40
0.2
100
AcDbArc
 50
147.7385999223
 51
276.7339681569
  0
SPLINE
  5
C3
330
1F
100
AcDbEntity
  8
0
  6
Continuous
 62
     7
370
    25
100
AcDbSpline
210
0.0
220
0.0
230
1.0
 70
     8
 71
     3
 72
    14
 73
    10
 74
     0
 42
0.00000001
 43
0.00000001
 40
0.7212113086263788
 40
0.7212113086263788
 40
0.7212113086263788
 40
0.7212113086263788
 40
0.7231626970634194
 40
0.7268056188143341
 40
0.7346111725624961
 40
0.7502222800588199
 40
0.7814444950514674
 40
0.812666710044115
 40
0.8340247800743911
 40
0.8340247800743911
 40
0.8340247800743911
 40
0.8340247800743911
 10
16.00684096902314
 20
9.58564263334858
 30
0.0
 10
16.02164528353826
 20
9.58739063917781
 30
0.0
 10
16.06407344436335
 20
9.592336962307597
 30
0.0
 10
16.16556965512588
 20
9.603770617575622
 30
0.0
 10
16.36990599340963
 20
9.625342628912536
 30
0.0
 10
16.78452281754802
 20
9.663059770878943
 30
0.0
 10
17.37734480162372
 20
9.699169432538861
 30
0.0
 10
18.01508773360477
 20
9.712994847122355
 30
0.0
 10
18.41501625361949
 20
9.708628394715234
 30
0.0
 10
18.57737950666721
 20
9.704745231505061
 30
0.0
  0
CIRCLE
  5
C4
330
1F
100
AcDbEntity
  8
0
  6
Continuous
 62
     7
370
    25
100
AcDbCircle
 10
3.1340422116
 20
9.0995417498
 30
0.0
 40
0.375
  0
ARC
  5
C5
330
1F
100
AcDbEntity
  8
0
  6
Continuous
 62
     7
370
    25
100
AcDbCircle
 10
6.8187018265
 20
9.2177595487
 30
0.0
 40
0.2000000000000017
100
AcDbArc
 50
241.1174148316
 51
312.4268885054
  0
LINE
  5
C6
330
1F
100
AcDbEntity
  8
0
  6
Continuous
 62
     7
370
    25
100
AcDbLine
 10
6.9536315995
 20
9.0701317859
 30
0.0
 11
7.6939719847
 21
9.7467928573
 31
0.0
  0
ARC
  5
C7
330
1F
100
AcDbEntity
  8
0
  6
Continuous
 62
     7
370
    25
100
AcDbCircle
 10
7.5590422116
 20
9.8944206201
 30
0.0
 40
0.2000000000000004
100
AcDbArc
 50
312.4268885054
 51
0.0
  0
LINE
  5
C8
330
1F
100
AcDbEntity
  8
0
  6
Continuous
 62
     7
370
    25
100
AcDbLine
 10
7.7590422116
 20
10.8794620748
 30
0.0
 11
7.7590422116
 21
9.8944206201
 31
0.0
  0
ARC
  5
C9
330
1F
100
AcDbEntity
  8
0
  6
Continuous
 62
     7
370
    25
100
AcDbCircle
 10
7.5590422116
 20
10.8794620748
 30
0.0
 40
0.2000000000000002
100
AcDbArc
 50
0.0
 51
94.1465265648
  0
SPLINE
  5
CA
330
1F
100
AcDbEntity
  8
0
  6
Continuous
 62
     7
370
    25
100
AcDbSpline
210
0.0
220
0.0
230
1.0
 70
     8
 71
     3
 72
    12
 73
     8
 74
     0
 42
0.00000001
 43
0.00000001
 40
0.6561626813670228
 40
0.6561626813670228
 40
0.6561626813670228
 40
0.6561626813670228
 40
0.6623685288212537
 40
0.686913106149885
 40
0.7493597521635109
 40
0.7805830751703239
 40
0.7911832058650156
 40
0.7911832058650156
 40
0.7911832058650156
 40
0.7911832058650156
 10
7.544580734801523
 20
11.07893855383138
 30
0.0
 10
7.497437325034241
 20
11.07552079083473
 30
0.0
 10
7.263917702140994
 20
11.05801449654785
 30
0.0
 10
6.557494459216473
 20
10.99623114379105
 30
0.0
 10
5.666563579341137
 20
10.88472918720402
 30
0.0
 10
4.889733403441671
 20
10.74779476368863
 30
0.0
 10
4.580460446553337
 20
10.68508277422276
 30
0.0
 10
4.502242548068421
 20
10.66866313698408
 30
0.0
  0
ARC
  5
CB
330
1F
100
AcDbEntity
  8
0
  6
Continuous
 62
     7
370
    25
100
AcDbCircle
 10
4.5433313234
 20
10.4729293572
 30
0.0
 40
0.2000000000000018
100
AcDbArc
 50
101.855484399
 51
241.1174148316
  0
LINE
  5
CC
330
1F
100
AcDbEntity
  8
0
  6
Continuous
 62
     7
370
    25
100
AcDbLine
 10
4.44672807
 20
10.2978070815
 30
0.0
 11
6.7220985731
 21
9.042637273
 31
0.0
  0
ARC
  5
CD
330
1F
100
AcDbEntity
  8
0
  6
Continuous
 62
     7
370
    25
100
AcDbCircle
 10
9.7090422116
 20
10.7079465435
 30
0.0
 40
0.1999999999999993
100
AcDbArc
 50
0.0
 51
132.4268885054
  0
LINE
  5
CE
330
1F
100
AcDbEntity
  8
0
  6
Continuous
 62
     7
370
    25
100
AcDbLine
 10
9.165736012
 20
10.4823237908
 30
0.0
 11
9.5741124386
 21
10.8555743063
 31
0.0
  0
ARC
  5
CF
330
1F
100
AcDbEntity
  8
0
  6
Continuous
 62
     7
370
    25
100
AcDbCircle
 10
9.300665785
 20
10.334696028
 30
0.0
 40
0.1999999999999999
100
AcDbArc
 50
132.4268885054
 51
227.5937272833
  0
LINE
  5
D0
330
1F
100
AcDbEntity
  8
0
  6
Continuous
 62
     7
370
    25
100
AcDbLine
 10
9.5238485252
 20
9.8599946839
 30
0.0
 11
9.1657891391
 21
10.1870197252
 31
0.0
  0
ARC
  5
D1
330
1F
100
AcDbEntity
  8
0
  6
Continuous
 62
     7
370
    25
100
AcDbCircle
 10
9.6587251711
 20
10.0076709867
 30
0.0
 40
0.2000000000000012
100
AcDbArc
 50
227.5937272833
 51
297.6276689862
  0
ARC
  5
D2
330
1F
100
AcDbEntity
  8
0
  6
Continuous
 62
     7
370
    25
100
AcDbCircle
 10
10.1340422116
 20
9.0995417498
 30
0.0
 40
0.8250000000000002
100
AcDbArc
 50
114.4962790512
 51
117.6276689862
  0
ARC
  5
D3
330
1F
100
AcDbEntity
  8
0
  6
Continuous
 62
     7
370
    25
100
AcDbCircle
 10
9.7090422116
 20
10.0322796551
 30
0.0
 40
0.2000000000000011
100
AcDbArc
 50
294.4962790512
 51
0.0
  0
LINE
  5
D4
330
1F
100
AcDbEntity
  8
0
  6
Continuous
 62
     7
370
    25
100
AcDbLine
 10
9.9090422116
 20
10.7079465435
 30
0.0
 11
9.9090422116
 21
10.0322796551
 31
0.0
  0
ARC
  5
D5
330
1F
100
AcDbEntity
  8
0
  6
Continuous
 62
     7
370
    25
100
AcDbCircle
 10
9.1347212659
 20
8.8715447161
 30
0.0
 40
0.2000000000000003
100
AcDbArc
 50
277.0613899986
 51
12.8521590687
  0
ARC
  5
D6
330
1F
100
AcDbEntity
  8
0
  6
Continuous
 62
     7
370
    25
100
AcDbCircle
 10
10.1340422116
 20
9.0995417498
 30
0.0
 40
0.8250000000000011
100
AcDbArc
 50
157.5597855804
 51
192.8521590687
  0
ARC
  5
D7
330
1F
100
AcDbEntity
  8
0
  6
Continuous
 62
     7
370
    25
100
AcDbCircle
 10
9.1866569106
 20
9.490803927
 30
0.0
 40
0.1999999999999986
100
AcDbArc
 50
337.5597855804
 51
47.5937272833
  0
LINE
  5
D8
330
1F
100
AcDbEntity
  8
0
  6
Continuous
 62
     7
370
    25
100
AcDbLine
 10
8.9167371933
 20
10.0081913797
 30
0.0
 11
9.3215335564
 21
9.6384802298
 31
0.0
  0
ARC
  5
D9
330
1F
100
AcDbEntity
  8
0
  6
Continuous
 62
     7
370
    25
100
AcDbCircle
 10
8.7818605474
 20
9.860515077
 30
0.0
 40
0.1999999999999991
100
AcDbArc
 50
47.5937272833
 51
132.4268885054
  0
LINE
  5
DA
330
1F
100
AcDbEntity
  8
0
  6
Continuous
 62
     7
370
    25
100
AcDbLine
 10
7.3577971327
 20
8.8298921747
 30
0.0
 11
8.6469307744
 21
10.0081428397
 31
0.0
  0
ARC
  5
DB
330
1F
100
AcDbEntity
  8
0
  6
Continuous
 62
     7
370
    25
100
AcDbCircle
 10
7.4927269058
 20
8.6822644119
 30
0.0
 40
0.2000000000000001
100
AcDbArc
 50
132.4268885054
 51
275.9816215157
  0
SPLINE
  5
DC
330
1F
100
AcDbEntity
  8
0
  6
Continuous
 62
     7
370
    25
100
AcDbSpline
210
0.0
220
0.0
230
1.0
 70
     8
 71
     3
 72
    10
 73
     6
 74
     0
 42
0.00000001
 43
0.00000001
 40
0.3362614121121216
 40
0.3362614121121216
 40
0.3362614121121216
 40
0.3362614121121216
 40
0.3430891207348891
 40
0.3755557001470496
 40
0.41104965319095
 40
0.41104965319095
 40
0.41104965319095
 40
0.41104965319095
 10
7.513568795765152
 20
8.48335333726983
 30
0.0
 10
7.563625519967957
 20
8.48859827771157
 30
0.0
 10
7.851725058476625
 20
8.519116578926807
 30
0.0
 10
8.400203730558934
 20
8.580669075584979
 30
0.0
 10
8.898835946664873
 20
8.640796461841841
 30
0.0
 10
9.159307814769399
 20
8.673061715233295
 30
0.0
  0
ARC
  5
DD
330
1F
100
AcDbEntity
  8
0
  6
Continuous
 62
     7
370
    25
100
AcDbCircle
 10
2.2605040122
 20
8.5632992542
 30
0.0
 40
0.2000000000000003
100
AcDbArc
 50
261.6125656441
 51
31.5446870278
  0
ARC
  5
DE
330
1F
100
AcDbEntity
  8
0
  6
Continuous
 62
     7
370
    25
100
AcDbCircle
 10
3.1340422116
 20
9.0995417498
 30
0.0
 40
0.8250000000000013
100
AcDbArc
 50
114.4962790512
 51
211.5446870278
  0
ARC
  5
DF
330
1F
100
AcDbEntity
  8
0
  6
Continuous
 62
     7
370
    25
100
AcDbCircle
 10
2.7090422116
 20
10.0322796551
 30
0.0
 40
0.2
100
AcDbArc
 50
294.4962790512
 51
349.0852697611
  0
ARC
  5
E0
330
1F
100
AcDbEntity
  8
0
  6
Continuous
 62
     7
370
    25
100
AcDbCircle
 10
2.7090422116
 20
9.9565404992
 30
0.0
 40
0.2000000000000005
100
AcDbArc
 50
10.9147302389
 51
111.3381887662
  0
CIRCLE
  5
E1
330
1F
100
AcDbEntity
  8
0
  6
Continuous
 62
     7
370
    25
100
AcDbCircle
 10
10.1340422116
 20
9.0995417498
 30
0.0
 40
0.375
  0
CIRCLE
  5
E2
330
1F
100
AcDbEntity
  8
0
  6
Continuous
 62
     7
370
    25
100
AcDbCircle
 10
15.3914539216
 20
10.1579108398
 30
0.0
 40
0.25
  0
ARC
  5
E3
330
1F
100
AcDbEntity
  8
0
  6
Continuous
 62
     7
370
    25
100
AcDbCircle
 10
4.4715422116
 20
8.4664030295
 30
0.0
 40
0.2000000000000011
100
AcDbArc
 50
271.4139209614
 51
0.0
  0
LINE
  5
E4
330
1F
100
AcDbEntity
  8
0
  6
Continuous
 62
     7
370
    25
100
AcDbLine
 10
4.6715422116
 20
8.4664030295
 30
0.0
 11
4.6715422116
 21
9.5417803208
 31
0.0
  0
ARC
  5
E5
330
1F
100
AcDbEntity
  8
0
  6
Continuous
 62
     7
370
    25
100
AcDbCircle
 10
4.4715422116
 20
9.5417803208
 30
0.0
 40
0.2000000000000005
100
AcDbArc
 50
0.0
 51
61.1174148316
  0
LINE
  5
E6
330
1F
100
AcDbEntity
  8
0
  6
Continuous
 62
     7
370
    25
100
AcDbLine
 10
3.655645465
 20
10.2202678501
 30
0.0
 11
4.568145465
 21
9.7169025965
 31
0.0
  0
ARC
  5
E7
330
1F
100
AcDbEntity
  8
0
  6
Continuous
 62
     7
370
    25
100
AcDbCircle
 10
3.5590422116
 20
10.0451455744
 30
0.0
 40
0.2000000000000011
100
AcDbArc
 50
61.1174148316
 51
180.0
  0
LINE
  5
E8
330
1F
100
AcDbEntity
  8
0
  6
Continuous
 62
     7
370
    25
100
AcDbLine
 10
3.3590422116
 20
10.0322796551
 30
0.0
 11
3.3590422116
 21
10.0451455744
 31
0.0
  0
ARC
  5
E9
330
1F
100
AcDbEntity
  8
0
  6
Continuous
 62
     7
370
    25
100
AcDbCircle
 10
3.5590422116
 20
10.0322796551
 30
0.0
 40
0.1999999999999997
100
AcDbArc
 50
180.0
 51
245.5037209488
  0
ARC
  5
EA
330
1F
100
AcDbEntity
  8
0
  6
Continuous
 62
     7
370
    25
100
AcDbCircle
 10
3.1340422116
 20
9.0995417498
 30
0.0
 40
0.8250000000000003
100
AcDbArc
 50
321.3799590497
 51
65.5037209488
  0
ARC
  5
EB
330
1F
100
AcDbEntity
  8
0
  6
Continuous
 62
     7
370
    25
100
AcDbCircle
 10
3.9348769704
 20
8.4597850076
 30
0.0
 40
0.2000000000000012
100
AcDbArc
 50
141.3799590497
 51
269.9435934611
  0
SPLINE
  5
EC
330
1F
100
AcDbEntity
  8
0
  6
Continuous
 62
     7
370
    25
100
AcDbSpline
210
0.0
220
0.0
230
1.0
 70
     8
 71
     3
 72
     9
 73
     5
 74
     0
 42
0.00000001
 43
0.00000001
 40
0.1730027621724775
 40
0.1730027621724775
 40
0.1730027621724775
 40
0.1730027621724775
 40
0.1882224101911645
 40
0.197857089004595
 40
0.197857089004595
 40
0.197857089004595
 40
0.197857089004595
 10
3.934680074460087
 20
8.259785104495782
 30
0.0
 10
4.045009389334678
 20
8.259676487476352
 30
0.0
 10
4.225488505632645
 20
8.261081424653309
 30
0.0
 10
4.40633785235934
 20
8.264732703519723
 30
0.0
 10
4.476477225949033
 20
8.266463924694035
 30
0.0
  0
ARC
  5
ED
330
1F
100
AcDbEntity
  8
0
  6
Continuous
 62
     7
370
    25
100
AcDbCircle
 10
12.1792830375
 20
10.8975082327
 30
0.0
 40
0.2000000000000033
100
AcDbArc
 50
86.8207190269
 51
241.1174148316
  0
LINE
  5
EE
330
1F
100
AcDbEntity
  8
0
  6
Continuous
 62
     7
370
    25
100
AcDbLine
 10
12.0826797841
 20
10.722385957
 30
0.0
 11
13.5633507945
 21
9.9055987367
 31
0.0
  0
ARC
  5
EF
330
1F
100
AcDbEntity
  8
0
  6
Continuous
 62
     7
370
    25
100
AcDbCircle
 10
13.6599540478
 20
10.0807210123
 30
0.0
 40
0.2000000000000009
100
AcDbArc
 50
241.1174148316
 51
312.4268885054
  0
LINE
  5
F0
330
1F
100
AcDbEntity
  8
0
  6
Continuous
 62
     7
370
    25
100
AcDbLine
 10
13.7948838209
 20
9.9330932495
 30
0.0
 11
14.4985025159
 21
10.5761911942
 31
0.0
  0
ARC
  5
F1
330
1F
100
AcDbEntity
  8
0
  6
Continuous
 62
     7
370
    25
100
AcDbCircle
 10
14.3635727429
 20
10.723818957
 30
0.0
 40
0.199999999999999
100
AcDbArc
 50
312.4268885054
 51
84.1353931202
  0
SPLINE
  5
F2
330
1F
100
AcDbEntity
  8
0
  6
Continuous
 62
     7
370
    25
100
AcDbSpline
210
0.0
220
0.0
230
1.0
 70
     8
 71
     3
 72
    11
 73
     7
 74
     0
 42
0.00000001
 43
0.00000001
 40
0.3575496044846498
 40
0.3575496044846498
 40
0.3575496044846498
 40
0.3575496044846498
 40
0.3746798760817555
 40
0.4059031990885684
 40
0.4371265220953814
 40
0.4533143262211753
 40
0.4533143262211753
 40
0.4533143262211753
 40
0.4533143262211753
 10
14.38400835545878
 20
10.92277218200197
 30
0.0
 10
14.2534197377197
 20
10.93618567856947
 30
0.0
 10
13.8847401010084
 20
10.97257591705058
 30
0.0
 10
13.27725402045268
 20
11.02551305614101
 30
0.0
 10
12.67651009844367
 20
11.06866914292716
 30
0.0
 10
12.3141217532358
 20
11.09032678684282
 30
0.0
 10
12.19037512745881
 20
11.0972004096865
 30
0.0
  0
SPLINE
  5
F3
330
1F
100
AcDbEntity
  8
0
  6
Continuous
 62
     7
370
    25
100
AcDbSpline
210
0.0
220
0.0
230
1.0
 70
     8
 71
     3
 72
     8
 73
     4
 74
     0
 42
0.00000001
 43
0.00000001
 40
0.0587970678286703
 40
0.0587970678286703
 40
0.0587970678286703
 40
0.0587970678286703
 40
1.0
 40
1.0
 40
1.0
 40
1.0
 10
2.636267783585549
 20
10.14283028052902
 30
0.0
 10
1.214062177603502
 20
9.587243179439568
 30
0.0
 10
0.3690584947291592
 20
8.64001752268536
 30
0.0
 10
2.231330798978402
 20
8.365438384838816
 30
0.0
  0
ARC
  5
F4
330
1F
100
AcDbEntity
  8
0
  6
Continuous
 62
     7
370
    25
100
AcDbCircle
 10
23.664890296
 20
7.6000824005
 30
0.0
 40
0.1999999999999973
100
AcDbArc
 50
173.0342477766
 51
212.5172304208
  0
ARC
  5
F5
330
1F
100
AcDbEntity
  8
0
  6
Continuous
 62
     7
370
    25
100
AcDbCircle
 10
23.0746294172
 20
7.2237951499
 30
0.0
 40
0.5000000000000026
100
AcDbArc
 50
318.0898278177
 51
32.5172304208
  0
ARC
  5
F6
330
1F
100
AcDbEntity
  8
0
  6
Continuous
 62
     7
370
    25
100
AcDbCircle
 10
23.5955644954
 20
6.7562198679
 30
0.0
 40
0.2000000000000005
100
AcDbArc
 50
138.0898278177
 51
187.4999561413
  0
LINE
  5
F7
330
1F
100
AcDbEntity
  8
0
  6
Continuous
 62
     7
370
    25
100
AcDbLine
 10
23.4334985977
 20
6.454971434
 30
0.0
 11
23.3972755031
 21
6.7301147812
 31
0.0
  0
ARC
  5
F8
330
1F
100
AcDbEntity
  8
0
  6
Continuous
 62
     7
370
    25
100
AcDbCircle
 10
23.2352096054
 20
6.4288663474
 30
0.0
 40
0.2000000000000005
100
AcDbArc
 50
277.4999561413
 51
7.4999561413
  0
LINE
  5
F9
330
1F
100
AcDbEntity
  8
0
  6
Continuous
 62
     7
370
    25
100
AcDbLine
 10
23.162170196
 20
6.2175248118
 30
0.0
 11
23.2613146921
 21
6.2305773551
 31
0.0
  0
LINE
  5
FA
330
1F
100
AcDbEntity
  8
0
  6
Continuous
 62
     7
370
    25
100
AcDbLine
 10
23.1491176526
 20
6.3166693079
 30
0.0
 11
23.162170196
 21
6.2175248118
 31
0.0
  0
LINE
  5
FB
330
1F
100
AcDbEntity
  8
0
  6
Continuous
 62
     7
370
    25
100
AcDbLine
 10
22.9632217224
 20
6.2921957892
 30
0.0
 11
23.1491176526
 21
6.3166693079
 31
0.0
  0
LINE
  5
FC
330
1F
100
AcDbEntity
  8
0
  6
Continuous
 62
     7
370
    25
100
AcDbLine
 10
22.9876952411
 20
6.1062998589
 30
0.0
 11
22.9632217224
 21
6.2921957892
 31
0.0
  0
SPLINE
  5
FD
330
1F
100
AcDbEntity
  8
0
  6
Continuous
 62
     7
370
    25
100
AcDbSpline
210
0.0
220
0.0
230
1.0
 70
     8
 71
     3
 72
    12
 73
     8
 74
     0
 42
0.00000001
 43
0.00000001
 40
0.6279258258439321
 40
0.6279258258439321
 40
0.6279258258439321
 40
0.6279258258439321
 40
0.6312694223607523
 40
0.6460065237480678
 40
0.6606206841728729
 40
0.6750981874935538
 40
0.6870101740385741
 40
0.6870101740385741
 40
0.6870101740385741
 40
0.6870101740385741
 10
21.68387932386565
 20
5.931524803451026
 30
0.0
 10
21.70846922499567
 20
5.934855174993888
 30
0.0
 10
21.84144178556434
 20
5.952855484033803
 30
0.0
 10
22.08190561713631
 20
5.985308947004902
 30
0.0
 10
22.40428771256216
 20
6.028586419150655
 30
0.0
 10
22.70591636761234
 20
6.068873424200835
 30
0.0
 10
22.90005343408517
 20
6.094713501402658
 30
0.0
 10
22.9876952411372
 20
6.106299858914666
 30
0.0
  0
LINE
  5
FE
330
1F
100
AcDbEntity
  8
0
  6
Continuous
 62
     7
370
    25
100
AcDbLine
 10
21.6333529979
 20
6.3031898253
 30
0.0
 11
21.6838793239
 21
5.9315248035
 31
0.0
  0
LINE
  5
FF
330
1F
100
AcDbEntity
  8
0
  6
Continuous
 62
     7
370
    25
100
AcDbLine
 10
21.2617709344
 20
6.2526747771
 30
0.0
 11
21.6333529979
 21
6.3031898253
 31
0.0
  0
LINE
  5
100
330
1F
100
AcDbEntity
  8
0
  6
Continuous
 62
     7
370
    25
100
AcDbLine
 10
21.3122859825
 20
5.8810927136
 30
0.0
 11
21.2617709344
 21
6.2526747771
 31
0.0
  0
SPLINE
  5
101
330
1F
100
AcDbEntity
  8
0
  6
Continuous
 62
     7
370
    25
100
AcDbSpline
210
0.0
220
0.0
230
1.0
 70
     8
 71
     3
 72
    12
 73
     8
 74
     0
 42
0.00000001
 43
0.00000001
 40
0.5461439631916797
 40
0.5461439631916797
 40
0.5461439631916797
 40
0.5461439631916797
 40
0.5562472332602322
 40
0.571381784352882
 40
0.5864660404483751
 40
0.6014845156991583
 40
0.6110828024492754
 40
0.6110828024492754
 40
0.6110828024492754
 40
0.6110828024492754
 10
19.87971770720633
 20
5.685751516051125
 30
0.0
 10
19.95401163720563
 20
5.69587972419404
 30
0.0
 10
20.13959497852611
 20
5.721193118324682
 30
0.0
 10
20.43609682641531
 20
5.761649081318829
 30
0.0
 10
20.76873398767556
 20
5.807094081849162
 30
0.0
 10
21.0606769645549
 20
5.846868383647764
 30
0.0
 10
21.24170183614514
 20
5.871497090204156
 30
0.0
 10
21.31228598253193
 20
5.881092713633971
 30
0.0
  0
LINE
  5
102
330
1F
100
AcDbEntity
  8
0
  6
Continuous
 62
     7
370
    25
100
AcDbLine
 10
19.8797177072
 20
5.6857515161
 30
0.0
 11
19.8797177072
 21
6.1857515161
 31
0.0
  0
LINE
  5
103
330
1F
100
AcDbEntity
  8
0
  6
Continuous
 62
     7
370
    25
100
AcDbLine
 10
19.7797177072
 20
6.1857515161
 30
0.0
 11
19.8797177072
 21
6.1857515161
 31
0.0
  0
LINE
  5
104
330
1F
100
AcDbEntity
  8
0
  6
Continuous
 62
     7
370
    25
100
AcDbLine
 10
19.7797177072
 20
6.1857515161
 30
0.0
 11
19.7797177072
 21
5.6721225349
 31
0.0
  0
SPLINE
  5
105
330
1F
100
AcDbEntity
  8
0
  6
Continuous
 62
     7
370
    25
100
AcDbSpline
210
0.0
220
0.0
230
1.0
 70
     8
 71
     3
 72
    10
 73
     6
 74
     0
 42
0.00000001
 43
0.00000001
 40
0.520465470718606
 40
0.520465470718606
 40
0.520465470718606
 40
0.520465470718606
 40
0.5258873344064182
 40
0.5410783139096876
 40
0.5416109679894174
 40
0.5416109679894174
 40
0.5416109679894174
 40
0.5416109679894174
 10
19.31321446810001
 20
5.608719983041541
 30
0.0
 10
19.35308852323518
 20
5.61412115705448
 30
0.0
 10
19.50467915383533
 20
5.63467427566396
 30
0.0
 10
19.66017654318044
 20
5.655835674068936
 30
0.0
 10
19.77580081992899
 20
5.671588859933578
 30
0.0
 10
19.7797177072066
 20
5.672122534885926
 30
0.0
  0
LINE
  5
106
330
1F
100
AcDbEntity
  8
0
  6
Continuous
 62
     7
370
    25
100
AcDbLine
 10
19.2880817571
 20
5.7945279399
 30
0.0
 11
19.3132144681
 21
5.608719983
 31
0.0
  0
LINE
  5
107
330
1F
100
AcDbEntity
  8
0
  6
Continuous
 62
     7
370
    25
100
AcDbLine
 10
19.1022738002
 20
5.7693952289
 30
0.0
 11
19.2880817571
 21
5.7945279399
 31
0.0
  0
LINE
  5
108
330
1F
100
AcDbEntity
  8
0
  6
Continuous
 62
     7
370
    25
100
AcDbLine
 10
19.1022738002
 20
5.7693952289
 30
0.0
 11
19.1274065397
 21
5.5835870616
 31
0.0
  0
SPLINE
  5
109
330
1F
100
AcDbEntity
  8
0
  6
Continuous
 62
     7
370
    25
100
AcDbSpline
210
0.0
220
0.0
230
1.0
 70
     8
 71
     3
 72
    15
 73
    11
 74
     0
 42
0.00000001
 43
0.00000001
 40
0.4170001598971144
 40
0.4170001598971144
 40
0.4170001598971144
 40
0.4170001598971144
 40
0.420174823355266
 40
0.4351095326124219
 40
0.4501242755491032
 40
0.4652030675528332
 40
0.480333153810538
 40
0.4955005832026954
 40
0.5106897747322421
 40
0.5120439593711981
 40
0.5120439593711981
 40
0.5120439593711981
 40
0.5120439593711981
 10
17.02924841140164
 20
5.308722275734244
 30
0.0
 10
17.05262729470828
 20
5.311643475019159
 30
0.0
 10
17.18598391038347
 20
5.32834362894652
 30
0.0
 10
17.42986208017206
 20
5.359258788085533
 30
0.0
 10
17.76130102310689
 20
5.401941913895542
 30
0.0
 10
18.09408733980967
 20
5.445508386571889
 30
0.0
 10
18.42794113335484
 20
5.48964781275996
 30
0.0
 10
18.76254044597838
 20
5.534396544869494
 30
0.0
 10
18.99577522233566
 20
5.565810608432971
 30
0.0
 10
19.11744694435957
 20
5.582241773266205
 30
0.0
 10
19.12740653965413
 20
5.583587061588069
 30
0.0
  0
LINE
  5
10A
330
1F
100
AcDbEntity
  8
0
  6
Continuous
 62
     7
370
    25
100
AcDbLine
 10
17.006139729
 20
5.4947927968
 30
0.0
 11
17.0292484114
 21
5.3087222757
 31
0.0
  0
LINE
  5
10B
330
1F
100
AcDbEntity
  8
0
  6
Continuous
 62
     7
370
    25
100
AcDbLine
 10
16.8200692079
 20
5.4716841143
 30
0.0
 11
17.006139729
 21
5.4947927968
 31
0.0
  0
LINE
  5
10C
330
1F
100
AcDbEntity
  8
0
  6
Continuous
 62
     7
370
    25
100
AcDbLine
 10
16.8200692079
 20
5.4716841143
 30
0.0
 11
16.8431777591
 21
5.28561465
 31
0.0
  0
SPLINE
  5
10D
330
1F
100
AcDbEntity
  8
0
  6
Continuous
 62
     7
370
    25
100
AcDbSpline
210
0.0
220
0.0
230
1.0
 70
     8
 71
     3
 72
    15
 73
    11
 74
     0
 42
0.00000001
 43
0.00000001
 40
0.3173008976357805
 40
0.3173008976357805
 40
0.3173008976357805
 40
0.3173008976357805
 40
0.3189806851177335
 40
0.3329854989238258
 40
0.3471627904008333
 40
0.3614986025989408
 40
0.3759807467343043
 40
0.390597192121319
 40
0.4053325934372969
 40
0.4085786502070922
 40
0.4085786502070922
 40
0.4085786502070922
 40
0.4085786502070922
 10
14.82364939028517
 20
5.059085480387995
 30
0.0
 10
14.83605655501148
 20
5.060300426403135
 30
0.0
 10
14.95190172766461
 20
5.071682104339404
 30
0.0
 10
15.1723941971063
 20
5.094010054206186
 30
0.0
 10
15.48617956368432
 20
5.127302657994522
 30
0.0
 10
15.80333516997089
 20
5.162374404608265
 30
0.0
 10
16.12359121410532
 20
5.199038186539458
 30
0.0
 10
16.44665514326798
 20
5.237227669860581
 30
0.0
 10
16.68681928933004
 20
5.266361074572365
 30
0.0
 10
16.81926859298856
 20
5.282664223248454
 30
0.0
 10
16.84317775913193
 20
5.285614650043603
 30
0.0
  0
LINE
  5
10E
330
1F
100
AcDbEntity
  8
0
  6
Continuous
 62
     7
370
    25
100
AcDbLine
 10
14.7896493072
 20
5.4325409588
 30
0.0
 11
14.8236493903
 21
5.0590854804
 31
0.0
  0
LINE
  5
10F
330
1F
100
AcDbEntity
  8
0
  6
Continuous
 62
     7
370
    25
100
AcDbLine
 10
14.4161938288
 20
5.3985408757
 30
0.0
 11
14.7896493072
 21
5.4325409588
 31
0.0
  0
LINE
  5
110
330
1F
100
AcDbEntity
  8
0
  6
Continuous
 62
     7
370
    25
100
AcDbLine
 10
14.4503118955
 20
5.0237894749
 30
0.0
 11
14.4161938288
 21
5.3985408757
 31
0.0
  0
SPLINE
  5
111
330
1F
100
AcDbEntity
  8
0
  6
Continuous
 62
     7
370
    25
100
AcDbSpline
210
0.0
220
0.0
230
1.0
 70
     8
 71
     3
 72
    13
 73
     9
 74
     0
 42
0.00000001
 43
0.00000001
 40
0.2297244996993346
 40
0.2297244996993346
 40
0.2297244996993346
 40
0.2297244996993346
 40
0.239236416912666
 40
0.2519590037406926
 40
0.2649238944848901
 40
0.2781197025559347
 40
0.2915360351420174
 40
0.3004577628980368
 40
0.3004577628980368
 40
0.3004577628980368
 40
0.3004577628980368
 10
12.87971770720912
 20
4.909683695542529
 30
0.0
 10
12.95021915404333
 20
4.913270695355093
 30
0.0
 10
13.11499061464791
 20
4.92221727604139
 30
0.0
 10
13.37572693958877
 20
4.938338934880368
 30
0.0
 10
13.66359974995164
 20
4.958442251547012
 30
0.0
 10
13.95645352902431
 20
4.981011558640678
 30
0.0
 10
14.21924472220385
 20
5.003071208902123
 30
0.0
 10
14.38437216827541
 20
5.017786199163358
 30
0.0
 10
14.45031189545432
 20
5.023789474880329
 30
0.0
  0
LINE
  5
112
330
1F
100
AcDbEntity
  8
0
  6
Continuous
 62
     7
370
    25
100
AcDbLine
 10
12.8797177072
 20
4.9096836956
 30
0.0
 11
12.8797177072
 21
5.4096836956
 31
0.0
  0
LINE
  5
113
330
1F
100
AcDbEntity
  8
0
  6
Continuous
 62
     7
370
    25
100
AcDbLine
 10
12.7547177072
 20
5.4096836956
 30
0.0
 11
12.8797177072
 21
5.4096836956
 31
0.0
  0
LINE
  5
114
330
1F
100
AcDbEntity
  8
0
  6
Continuous
 62
     7
370
    25
100
AcDbLine
 10
12.7547177072
 20
5.4096836956
 30
0.0
 11
12.7547177072
 21
4.9035793959
 31
0.0
  0
SPLINE
  5
115
330
1F
100
AcDbEntity
  8
0
  6
Continuous
 62
     7
370
    25
100
AcDbSpline
210
0.0
220
0.0
230
1.0
 70
     8
 71
     3
 72
     9
 73
     5
 74
     0
 42
0.00000001
 43
0.00000001
 40
0.2085650349845574
 40
0.2085650349845574
 40
0.2085650349845574
 40
0.2085650349845574
 40
0.2145604781304418
 40
0.2241034837056081
 40
0.2241034837056081
 40
0.2241034837056081
 40
0.2241034837056081
 10
12.40904974787214
 20
4.889524648588726
 30
0.0
 10
12.45351884295978
 20
4.891048685872788
 30
0.0
 10
12.56875968322353
 20
4.895295714902106
 30
0.0
 10
12.68397161351683
 20
4.900271188148177
 30
0.0
 10
12.75471770720897
 20
4.90357939586114
 30
0.0
  0
LINE
  5
116
330
1F
100
AcDbEntity
  8
0
  6
Continuous
 62
     7
370
    25
100
AcDbLine
 10
12.403319022
 20
5.0769411714
 30
0.0
 11
12.4090497479
 21
4.8895246486
 31
0.0
  0
LINE
  5
117
330
1F
100
AcDbEntity
  8
0
  6
Continuous
 62
     7
370
    25
100
AcDbLine
 10
12.2159066152
 20
5.0712105713
 30
0.0
 11
12.403319022
 21
5.0769411714
 31
0.0
  0
LINE
  5
118
330
1F
100
AcDbEntity
  8
0
  6
Continuous
 62
     7
370
    25
100
AcDbLine
 10
12.2159066152
 20
5.0712105713
 30
0.0
 11
12.2216372156
 21
4.8837981645
 31
0.0
  0
SPLINE
  5
119
330
1F
100
AcDbEntity
  8
0
  6
Continuous
 62
     7
370
    25
100
AcDbSpline
210
0.0
220
0.0
230
1.0
 70
     8
 71
     3
 72
    17
 73
    13
 74
     0
 42
0.00000001
 43
0.00000001
 40
0.1016614720720251
 40
0.1016614720720251
 40
0.1016614720720251
 40
0.1016614720720251
 40
0.1089998674022309
 40
0.118084529462581
 40
0.127514842657726
 40
0.1372852704325623
 40
0.1473879174712405
 40
0.1578164805284356
 40
0.1685634728403947
 40
0.1796191282126914
 40
0.1909773731687989
 40
0.2001435402442482
 40
0.2001435402442482
 40
0.2001435402442482
 40
0.2001435402442482
 10
10.03232119283127
 20
4.96128266639133
 30
0.0
 10
10.08636956118607
 20
4.954576899521403
 30
0.0
 10
10.20746971768988
 20
4.940716865112221
 30
0.0
 10
10.39849257166105
 20
4.922571065825984
 30
0.0
 10
10.60782307127536
 20
4.906704299781543
 30
0.0
 10
10.8249411980638
 20
4.894085547012025
 30
0.0
 10
11.04963619935942
 20
4.8846747947134
 30
0.0
 10
11.28169284102167
 20
4.878507817423338
 30
0.0
 10
11.52088385005473
 20
4.875488472206347
 30
0.0
 10
11.76699306474305
 20
4.8755714306367
 30
0.0
 10
12.00135006724846
 20
4.878545038916158
 30
0.0
 10
12.15363479506897
 20
4.881978690194527
 30
0.0
 10
12.22163721558423
 20
4.88379816454844
 30
0.0
  0
LINE
  5
11A
330
1F
100
AcDbEntity
  8
0
  6
Continuous
 62
     7
370
    25
100
AcDbLine
 10
10.0574950246
 20
5.1470850566
 30
0.0
 11
10.0323211928
 21
4.9612826664
 31
0.0
  0
LINE
  5
11B
330
1F
100
AcDbEntity
  8
0
  6
Continuous
 62
     7
370
    25
100
AcDbLine
 10
9.8716926344
 20
5.1722588883
 30
0.0
 11
10.0574950246
 21
5.1470850566
 31
0.0
  0
LINE
  5
11C
330
1F
100
AcDbEntity
  8
0
  6
Continuous
 62
     7
370
    25
100
AcDbLine
 10
9.8465222269
 20
4.9864817716
 30
0.0
 11
9.8716926344
 21
5.1722588883
 31
0.0
  0
SPLINE
  5
11D
330
1F
100
AcDbEntity
  8
0
  6
Continuous
 62
     7
370
    25
100
AcDbSpline
210
0.0
220
0.0
230
1.0
 70
     8
 71
     3
 72
    24
 73
    20
 74
     0
 42
0.00000001
 43
0.00000001
 40
0.0039351208712084
 40
0.0039351208712084
 40
0.0039351208712084
 40
0.0039351208712084
 40
0.0072932311171293
 40
0.011028136413859
 40
0.0149010810980465
 40
0.0189632717700928
 40
0.023258475402986
 40
0.0278206260323165
 40
0.0326790824435221
 40
0.0378531598360054
 40
0.0433618746912805
 40
0.0492146790039221
 40
0.0554223461563205
 40
0.06198878599669
 40
0.0689180360680075
 40
0.0762111572779437
 40
0.0838683921994994
 40
0.091887410882707
 40
0.0932399630117017
 40
0.0932399630117017
 40
0.0932399630117017
 40
0.0932399630117017
 10
8.13821900544997
 20
5.83038358729576
 30
0.0
 10
8.145778474918162
 20
5.806645120066278
 30
0.0
 10
8.165641922761592
 20
5.757657532114562
 30
0.0
 10
8.20494173802764
 20
5.686201832208342
 30
0.0
 10
8.255994450414642
 20
5.615962015263275
 30
0.0
 10
8.317396700677529
 20
5.548891695556955
 30
0.0
 10
8.389012875135236
 20
5.484921112393442
 30
0.0
 10
8.470772740077292
 20
5.424084661048354
 30
0.0
 10
8.562569286471286
 20
5.366410028708246
 30
0.0
 10
8.664269166070568
 20
5.311835991608234
 30
0.0
 10
8.775758068302551
 20
5.260396479764307
 30
0.0
 10
8.896934337709087
 20
5.212107568353268
 30
0.0
 10
9.027665949642905
 20
5.167033807414668
 30
0.0
 10
9.167793081087865
 20
5.125106550597526
 30
0.0
 10
9.317182506234753
 20
5.086427971729504
 30
0.0
 10
9.475664354471077
 20
5.050944010353205
 30
0.0
 10
9.64308619622355
 20
5.018745243302943
 30
0.0
 10
9.767806848779712
 20
4.99825363274636
 30
0.0
 10
9.836591897484134
 20
4.987949119299899
 30
0.0
 10
9.84652222688439
 20
4.986481771602506
 30
0.0
  0
LINE
  5
11E
330
1F
100
AcDbEntity
  8
0
  6
Continuous
 62
     7
370
    25
100
AcDbLine
 10
8.1382190055
 20
5.8303835873
 30
0.0
 11
8.4834701501
 21
5.8303835873
 31
0.0
  0
LINE
  5
11F
330
1F
100
AcDbEntity
  8
0
  6
Continuous
 62
     7
370
    25
100
AcDbLine
 10
8.4834701501
 20
6.2053835873
 30
0.0
 11
8.4834701501
 21
5.8303835873
 31
0.0
  0
LINE
  5
120
330
1F
100
AcDbEntity
  8
0
  6
Continuous
 62
     7
370
    25
100
AcDbLine
 10
8.1377065281
 20
6.2053835865
 30
0.0
 11
8.4834701501
 21
6.2053835873
 31
0.0
  0
SPLINE
  5
121
330
1F
100
AcDbEntity
  8
0
  6
Continuous
 62
     7
370
    25
100
AcDbSpline
210
0.0
220
0.0
230
1.0
 70
     8
 71
     3
 72
    21
 73
    17
 74
     0
 42
0.00000001
 43
0.00000001
 40
0.913578602285428
 40
0.913578602285428
 40
0.913578602285428
 40
0.913578602285428
 40
0.9186607344498127
 40
0.9261662532257968
 40
0.9333026258827831
 40
0.9400712202263494
 40
0.9464747799611675
 40
0.9525175260177909
 40
0.9582048188585928
 40
0.9635466521340151
 40
0.9685565999026111
 40
0.9732499128166676
 40
0.9776510407515667
 40
0.9817870430140477
 40
0.9856942262062861
 40
0.9873639225097877
 40
0.9873639225097877
 40
0.9873639225097877
 40
0.9873639225097877
 10
9.396775503310472
 20
7.306258205862109
 30
0.0
 10
9.3615539487892
 20
7.288810616466044
 30
0.0
 10
9.274721451222188
 20
7.244776562708584
 30
0.0
 10
9.140412551766957
 20
7.172398807108121
 30
0.0
 10
8.997317914745057
 20
7.089007455096533
 30
0.0
 10
8.864568196137562
 20
7.004992492340382
 30
0.0
 10
8.742219189245684
 20
6.920567027665941
 30
0.0
 10
8.630439580089266
 20
6.835784052191453
 30
0.0
 10
8.529267766596696
 20
6.750857809204491
 30
0.0
 10
8.438767773353003
 20
6.665917619231901
 30
0.0
 10
8.359068961290138
 20
6.581021993820668
 30
0.0
 10
8.29016846177038
 20
6.496320434570991
 30
0.0
 10
8.232156571599317
 20
6.411880022359098
 30
0.0
 10
8.185043355286409
 20
6.327780657840082
 30
0.0
 10
8.15523117355562
 20
6.258676905837188
 30
0.0
 10
8.14148837575668
 20
6.217740085196629
 30
0.0
 10
8.137706528054036
 20
6.205383586528301
 30
0.0
  0
LINE
  5
122
330
1F
100
AcDbEntity
  8
0
  6
Continuous
 62
     7
370
    25
100
AcDbLine
 10
9.3967755033
 20
7.3062582059
 30
0.0
 11
9.4775846262
 21
7.1370656066
 31
0.0
  0
LINE
  5
123
330
1F
100
AcDbEntity
  8
0
  6
Continuous
 62
     7
370
    25
100
AcDbLine
 10
9.4775846262
 20
7.1370656066
 30
0.0
 11
9.6467772257
 21
7.2178747292
 31
0.0
  0
LINE
  5
124
330
1F
100
AcDbEntity
  8
0
  6
Continuous
 62
     7
370
    25
100
AcDbLine
 10
9.6467772257
 20
7.2178747292
 30
0.0
 11
9.5659681029
 21
7.3870673285
 31
0.0
  0
SPLINE
  5
125
330
1F
100
AcDbEntity
  8
0
  6
Continuous
 62
     7
370
    25
100
AcDbSpline
210
0.0
220
0.0
230
1.0
 70
     8
 71
     3
 72
    14
 73
    10
 74
     0
 42
0.00000001
 43
0.00000001
 40
0.8513043678676254
 40
0.8513043678676254
 40
0.8513043678676254
 40
0.8513043678676254
 40
0.8560378532405389
 40
0.8660338344886196
 40
0.8756888427883988
 40
0.8849977189913464
 40
0.8939534257020234
 40
0.9025528972589622
 40
0.9054973013061784
 40
0.9054973013061784
 40
0.9054973013061784
 40
0.9054973013061784
 10
10.74205958480703
 20
7.829326415595881
 30
0.0
 10
10.70708235387504
 20
7.818518758287692
 30
0.0
 10
10.59839158870157
 20
7.784403030479098
 30
0.0
 10
10.41928387922707
 20
7.725323481865137
 30
0.0
 10
10.20804552735149
 20
7.650826647011796
 30
0.0
 10
10.006030658429
 20
7.574520677418907
 30
0.0
 10
9.813394021726308
 20
7.496640649707277
 30
0.0
 10
9.667917076955424
 20
7.433573935049472
 30
0.0
 10
9.586650324366888
 20
7.396597905791742
 30
0.0
 10
9.565968102877275
 20
7.387067328518136
 30
0.0
  0
LINE
  5
126
330
1F
100
AcDbEntity
  8
0
  6
Continuous
 62
     7
370
    25
100
AcDbLine
 10
10.7420595848
 20
7.8293264156
 30
0.0
 11
10.8411233933
 21
7.4730725176
 31
0.0
  0
LINE
  5
127
330
1F
100
AcDbEntity
  8
0
  6
Continuous
 62
     7
370
    25
100
AcDbLine
 10
10.8411233933
 20
7.4730725176
 30
0.0
 11
11.2024152948
 21
7.5735372473
 31
0.0
  0
LINE
  5
128
330
1F
100
AcDbEntity
  8
0
  6
Continuous
 62
     7
370
    25
100
AcDbLine
 10
11.2024152948
 20
7.5735372473
 30
0.0
 11
11.1019505646
 21
7.9348291487
 31
0.0
  0
SPLINE
  5
129
330
1F
100
AcDbEntity
  8
0
  6
Continuous
 62
     7
370
    25
100
AcDbSpline
210
0.0
220
0.0
230
1.0
 70
     8
 71
     3
 72
    16
 73
    12
 74
     0
 42
0.00000001
 43
0.00000001
 40
0.7462088576025568
 40
0.7462088576025568
 40
0.7462088576025568
 40
0.7462088576025568
 40
0.7521175864591397
 40
0.7647920417814054
 40
0.7772081519207622
 40
0.7893556849316484
 40
0.8012239599679336
 40
0.8128036855342794
 40
0.8240829093538227
 40
0.8350546022887522
 40
0.8351398981997684
 40
0.8351398981997684
 40
0.8351398981997684
 40
0.8351398981997684
 10
13.11953642074179
 20
8.361533105269519
 30
0.0
 10
13.07438211241288
 20
8.35450540372457
 30
0.0
 10
12.93243951640331
 20
8.331956548247046
 30
0.0
 10
12.69604495290854
 20
8.291963694282346
 30
0.0
 10
12.41279577893869
 20
8.23983464580978
 30
0.0
 10
12.13645728991077
 20
8.184767456790578
 30
0.0
 10
11.86733034510723
 20
8.126776494144773
 30
0.0
 10
11.60569982961908
 20
8.066035713450425
 30
0.0
 10
11.35183764569312
 20
8.002650941513423
 30
0.0
 10
11.18497664030138
 20
7.957909988832127
 30
0.0
 10
11.10258612965499
 20
7.935005880789123
 30
0.0
 10
11.10195056462983
 20
7.934829148711112
 30
0.0
  0
LINE
  5
12A
330
1F
100
AcDbEntity
  8
0
  6
Continuous
 62
     7
370
    25
100
AcDbLine
 10
13.1195364207
 20
8.3615331053
 30
0.0
 11
13.147580375
 21
8.176142203
 31
0.0
  0
LINE
  5
12B
330
1F
100
AcDbEntity
  8
0
  6
Continuous
 62
     7
370
    25
100
AcDbLine
 10
13.147580375
 20
8.176142203
 30
0.0
 11
13.3329712772
 21
8.2041861573
 31
0.0
  0
LINE
  5
12C
330
1F
100
AcDbEntity
  8
0
  6
Continuous
 62
     7
370
    25
100
AcDbLine
 10
13.3329712772
 20
8.2041861573
 30
0.0
 11
13.3049273228
 21
8.3895770595
 31
0.0
  0
SPLINE
  5
12D
330
1F
100
AcDbEntity
  8
0
  6
Continuous
 62
     7
370
    25
100
AcDbSpline
210
0.0
220
0.0
230
1.0
 70
     8
 71
     3
 72
    14
 73
    10
 74
     0
 42
0.00000001
 43
0.00000001
 40
0.6471977191416923
 40
0.6471977191416923
 40
0.6471977191416923
 40
0.6471977191416923
 40
0.6571860540028671
 40
0.6713255457791549
 40
0.6852940138169578
 40
0.6990781474144603
 40
0.7126650949455656
 40
0.7260426447110092
 40
0.7381275985622745
 40
0.7381275985622745
 40
0.7381275985622745
 40
0.7381275985622745
 10
15.40276699040937
 20
8.607958327530314
 30
0.0
 10
15.32568271045085
 20
8.602912317522867
 30
0.0
 10
15.13952431943331
 20
8.590014832079417
 30
0.0
 10
14.84579824668225
 20
8.566827801298473
 30
0.0
 10
14.52312648462143
 20
8.537554540039586
 30
0.0
 10
14.20507033879415
 20
8.504939738388043
 30
0.0
 10
13.89198391453512
 20
8.46889468901466
 30
0.0
 10
13.59241223399704
 20
8.43057214468279
 30
0.0
 10
13.3973989334201
 20
8.403164908134029
 30
0.0
 10
13.30492732277551
 20
8.38957705951685
 30
0.0
  0
LINE
  5
12E
330
1F
100
AcDbEntity
  8
0
  6
Continuous
 62
     7
370
    25
100
AcDbLine
 10
15.4027669904
 20
8.6079583275
 30
0.0
 11
15.4144451215
 21
8.4208223576
 31
0.0
  0
LINE
  5
12F
330
1F
100
AcDbEntity
  8
0
  6
Continuous
 62
     7
370
    25
100
AcDbLine
 10
15.4144451215
 20
8.4208223576
 30
0.0
 11
15.6015810914
 21
8.4325004886
 31
0.0
  0
LINE
  5
130
330
1F
100
AcDbEntity
  8
0
  6
Continuous
 62
     7
370
    25
100
AcDbLine
 10
15.6015810914
 20
8.4325004886
 30
0.0
 11
15.5899029601
 21
8.6196364586
 31
0.0
  0
SPLINE
  5
131
330
1F
100
AcDbEntity
  8
0
  6
Continuous
 62
     7
370
    25
100
AcDbSpline
210
0.0
220
0.0
230
1.0
 70
     8
 71
     3
 72
     9
 73
     5
 74
     0
 42
0.00000001
 43
0.00000001
 40
0.6239097271708518
 40
0.6239097271708518
 40
0.6239097271708518
 40
0.6239097271708518
 40
0.628447474920468
 40
0.6391164527335579
 40
0.6391164527335579
 40
0.6391164527335579
 40
0.6391164527335579
 10
15.94221770999873
 20
8.63854842915001
 30
0.0
 10
15.90716342506648
 20
8.636865127211351
 30
0.0
 10
15.78970023507833
 20
8.631029170708553
 30
0.0
 10
15.67227122849244
 20
8.624526676897688
 30
0.0
 10
15.58990296010954
 20
8.619636458561956
 30
0.0
  0
LINE
  5
132
330
1F
100
AcDbEntity
  8
0
  6
Continuous
 62
     7
370
    25
100
AcDbLine
 10
15.94221771
 20
8.6385484292
 30
0.0
 11
15.9422177104
 21
8.1285484292
 31
0.0
  0
LINE
  5
133
330
1F
100
AcDbEntity
  8
0
  6
Continuous
 62
     7
370
    25
100
AcDbLine
 10
15.9422177104
 20
8.1285484292
 30
0.0
 11
16.1922177104
 21
8.1285484292
 31
0.0
  0
LINE
  5
134
330
1F
100
AcDbEntity
  8
0
  6
Continuous
 62
     7
370
    25
100
AcDbLine
 10
16.1922177104
 20
8.1285484292
 30
0.0
 11
16.19221771
 21
8.6495812386
 31
0.0
  0
SPLINE
  5
135
330
1F
100
AcDbEntity
  8
0
  6
Continuous
 62
     7
370
    25
100
AcDbSpline
210
0.0
220
0.0
230
1.0
 70
     8
 71
     3
 72
    12
 73
     8
 74
     0
 42
0.00000001
 43
0.00000001
 40
0.5511452244250064
 40
0.5511452244250064
 40
0.5511452244250064
 40
0.5511452244250064
 40
0.5545829838309861
 40
0.5695295459998657
 40
0.5844034168402927
 40
0.5991909919021363
 40
0.6131242023150876
 40
0.6131242023150876
 40
0.6131242023150876
 40
0.6131242023150876
 10
17.62987033411882
 20
8.67758343198932
 30
0.0
 10
17.6032829279063
 20
8.677594199166077
 30
0.0
 10
17.46109972312986
 20
8.677502157518713
 30
0.0
 10
17.20388530659762
 20
8.67588306057339
 30
0.0
 10
16.85892875220518
 20
8.6704326956994
 30
0.0
 10
16.52187693006931
 20
8.661788741185903
 30
0.0
 10
16.2998889390254
 20
8.653921181158276
 30
0.0
 10
16.1922177099999
 20
8.649581238644727
 30
0.0
  0
LINE
  5
136
330
1F
100
AcDbEntity
  8
0
  6
Continuous
 62
     7
370
    25
100
AcDbLine
 10
17.6298703341
 20
8.677583432
 30
0.0
 11
17.6297177226
 21
8.3007387242
 31
0.0
  0
LINE
  5
137
330
1F
100
AcDbEntity
  8
0
  6
Continuous
 62
     7
370
    25
100
AcDbLine
 10
17.6297177226
 20
8.3007387242
 30
0.0
 11
18.0047176918
 21
8.3005868594
 31
0.0
  0
LINE
  5
138
330
1F
100
AcDbEntity
  8
0
  6
Continuous
 62
     7
370
    25
100
AcDbLine
 10
18.0047176918
 20
8.3005868594
 30
0.0
 11
18.0048695563
 21
8.6755868286
 31
0.0
  0
SPLINE
  5
139
330
1F
100
AcDbEntity
  8
0
  6
Continuous
 62
     7
370
    25
100
AcDbSpline
210
0.0
220
0.0
230
1.0
 70
     8
 71
     3
 72
    15
 73
    11
 74
     0
 42
0.00000001
 43
0.00000001
 40
0.4314156119256059
 40
0.4314156119256059
 40
0.4314156119256059
 40
0.4314156119256059
 40
0.4341867493871219
 40
0.4491772650868069
 40
0.4642147821671246
 40
0.4792840087649619
 40
0.4943697397811477
 40
0.5094578326361675
 40
0.5245323463196893
 40
0.5349824261914548
 40
0.5349824261914548
 40
0.5349824261914548
 40
0.5349824261914548
 10
20.40563814187079
 20
8.581362609768185
 30
0.0
 10
20.38425403408018
 20
8.582791107220135
 30
0.0
 10
20.24718575238858
 20
8.591850108726943
 30
0.0
 10
19.99399567632045
 20
8.60741863626895
 30
0.0
 10
19.64571817219333
 20
8.626162305827837
 30
0.0
 10
19.29656711950173
 20
8.642178968568448
 30
0.0
 10
18.94690586694945
 20
8.655358266006568
 30
0.0
 10
18.59710570523762
 20
8.66562063758714
 30
0.0
 10
18.28307449611523
 20
8.672130881282243
 30
0.0
 10
18.08568556047552
 20
8.67476188362905
 30
0.0
 10
18.00486955628529
 20
8.675586828612012
 30
0.0
  0
LINE
  5
13A
330
1F
100
AcDbEntity
  8
0
  6
Continuous
 62
     7
370
    25
100
AcDbLine
 10
20.4056381419
 20
8.5813626098
 30
0.0
 11
20.3927577074
 21
8.3943065455
 31
0.0
  0
LINE
  5
13B
330
1F
100
AcDbEntity
  8
0
  6
Continuous
 62
     7
370
    25
100
AcDbLine
 10
20.3927577074
 20
8.3943065455
 30
0.0
 11
20.5798147646
 21
8.3814260426
 31
0.0
  0
LINE
  5
13C
330
1F
100
AcDbEntity
  8
0
  6
Continuous
 62
     7
370
    25
100
AcDbLine
 10
20.5798147646
 20
8.3814260426
 30
0.0
 11
20.5926952671
 21
8.5684830998
 31
0.0
  0
SPLINE
  5
13D
330
1F
100
AcDbEntity
  8
0
  6
Continuous
 62
     7
370
    25
100
AcDbSpline
210
0.0
220
0.0
230
1.0
 70
     8
 71
     3
 72
    16
 73
    12
 74
     0
 42
0.00000001
 43
0.00000001
 40
0.3164238124056181
 40
0.3164238124056181
 40
0.3164238124056181
 40
0.3164238124056181
 40
0.3176892265558903
 40
0.331784111124987
 40
0.346039676653823
 40
0.3604438694916348
 40
0.3749827204038077
 40
0.3896404543545233
 40
0.4044033165867775
 40
0.4192566006634758
 40
0.4233343287137741
 40
0.4233343287137741
 40
0.4233343287137741
 40
0.4233343287137741
 10
23.06143559071026
 20
8.329818483233064
 30
0.0
 10
23.05172128951344
 20
8.33100535573926
 30
0.0
 10
22.93379921395089
 20
8.345375876689362
 30
0.0
 10
22.70632298936685
 20
8.372173100702566
 30
0.0
 10
22.37769540634323
 20
8.408798595002223
 30
0.0
 10
22.04541596284779
 20
8.443597731165816
 30
0.0
 10
21.7098142533744
 20
8.476461691794686
 30
0.0
 10
21.37123002567808
 20
8.507248640101443
 30
0.0
 10
21.03001513109347
 20
8.535868291196499
 30
0.0
 10
20.77018736597462
 20
8.555753628394145
 30
0.0
 10
20.62415318538114
 20
8.566253233126444
 30
0.0
 10
20.59269526705784
 20
8.568483099822503
 30
0.0
  0
LINE
  5
13E
330
1F
100
AcDbEntity
  8
0
  6
Continuous
 62
     7
370
    25
100
AcDbLine
 10
23.0614355907
 20
8.3298184832
 30
0.0
 11
23.0386963335
 21
8.1437024544
 31
0.0
  0
LINE
  5
13F
330
1F
100
AcDbEntity
  8
0
  6
Continuous
 62
     7
370
    25
100
AcDbLine
 10
23.0386963335
 20
8.1437024544
 30
0.0
 11
23.2248123622
 21
8.1209631968
 31
0.0
  0
LINE
  5
140
330
1F
100
AcDbEntity
  8
0
  6
Continuous
 62
     7
370
    25
100
AcDbLine
 10
23.2248123622
 20
8.1209631968
 30
0.0
 11
23.2475133476
 21
8.3067659749
 31
0.0
  0
SPLINE
  5
141
330
1F
100
AcDbEntity
  8
0
  6
Continuous
 62
     7
370
    25
100
AcDbSpline
210
0.0
220
0.0
230
1.0
 70
     8
 71
     3
 72
     8
 73
     4
 74
     0
 42
0.00000001
 43
0.00000001
 40
0.303997836878645
 40
0.303997836878645
 40
0.303997836878645
 40
0.303997836878645
 40
0.3083424724649535
 40
0.3083424724649535
 40
0.3083424724649535
 40
0.3083424724649535
 10
23.34752883624607
 20
8.294181811526181
 30
0.0
 10
23.31419188111923
 20
8.298390833010037
 30
0.0
 10
23.28085375813539
 20
8.302588330348373
 30
0.0
 10
23.24751334755302
 20
8.30676597487263
 30
0.0
  0
ARC
  5
142
330
1F
100
AcDbEntity
  8
0
  6
Continuous
 62
     7
370
    25
100
AcDbCircle
 10
23.3224763401
 20
8.0957570841
 30
0.0
 40
0.2000000000000036
100
AcDbArc
 50
353.0342477766
 51
82.8040860347
  0
LINE
  5
143
330
1F
100
AcDbEntity
  8
0
  6
Continuous
 62
     7
370
    25
100
AcDbLine
 10
23.5210001041
 20
8.071501876
 30
0.0
 11
23.466366532
 21
7.6243376086
 31
0.0
  0
SPLINE
  5
144
330
1F
100
AcDbEntity
  8
0
  6
Continuous
 62
     7
370
    25
100
AcDbSpline
210
0.0
220
0.0
230
1.0
 70
     8
 71
     3
 72
    10
 73
     6
 74
     0
 42
0.00000001
 43
0.00000001
 40
0.3362614121117422
 40
0.3362614121117422
 40
0.3362614121117422
 40
0.3362614121117422
 40
0.3430891207344148
 40
0.3755557001470496
 40
0.4110496531909501
 40
0.4110496531909501
 40
0.4110496531909501
 40
0.4110496531909501
 10
15.19674429131693
 20
5.549237647390054
 30
0.0
 10
15.24680101551904
 20
5.554482587831716
 30
0.0
 10
15.53490055403049
 20
5.585000889047205
 30
0.0
 10
16.08337922611558
 20
5.646553385705657
 30
0.0
 10
16.582011442225
 20
5.706680771962938
 30
0.0
 10
16.84248331032952
 20
5.738946025354393
 30
0.0
  0
ARC
  5
145
330
1F
100
AcDbEntity
  8
0
  6
Continuous
 62
     7
370
    25
100
AcDbCircle
 10
16.8178967615
 20
5.9374290262
 30
0.0
 40
0.199999999999999
100
AcDbArc
 50
277.0613899986
 51
12.8521590687
  0
ARC
  5
146
330
1F
100
AcDbEntity
  8
0
  6
Continuous
 62
     7
370
    25
100
AcDbCircle
 10
17.8172177072
 20
6.1654260599
 30
0.0
 40
0.825
100
AcDbArc
 50
114.4962790512
 51
192.8521590687
  0
ARC
  5
147
330
1F
100
AcDbEntity
  8
0
  6
Continuous
 62
     7
370
    25
100
AcDbCircle
 10
17.3922177072
 20
7.0981639652
 30
0.0
 40
0.2000000000000005
100
AcDbArc
 50
294.4962790512
 51
0.0
  0
LINE
  5
148
330
1F
100
AcDbEntity
  8
0
  6
Continuous
 62
     7
370
    25
100
AcDbLine
 10
17.5922177072
 20
7.7738308536
 30
0.0
 11
17.5922177072
 21
7.0981639652
 31
0.0
  0
ARC
  5
149
330
1F
100
AcDbEntity
  8
0
  6
Continuous
 62
     7
370
    25
100
AcDbCircle
 10
17.3922177072
 20
7.7738308536
 30
0.0
 40
0.1999999999999993
100
AcDbArc
 50
0.0
 51
132.4268885054
  0
LINE
  5
14A
330
1F
100
AcDbEntity
  8
0
  6
Continuous
 62
     7
370
    25
100
AcDbLine
 10
15.0409726283
 20
5.8957764848
 30
0.0
 11
17.2572879342
 21
7.9214586164
 31
0.0
  0
ARC
  5
14B
330
1F
100
AcDbEntity
  8
0
  6
Continuous
 62
     7
370
    25
100
AcDbCircle
 10
15.1759024013
 20
5.748148722
 30
0.0
 40
0.2000000000000003
100
AcDbArc
 50
132.4268885054
 51
275.9816215157
  0
CIRCLE
  5
14C
330
1F
100
AcDbEntity
  8
0
  6
Continuous
 62
     7
370
    25
100
AcDbCircle
 10
10.8172177072
 20
6.1654260599
 30
0.0
 40
0.375
  0
ARC
  5
14D
330
1F
100
AcDbEntity
  8
0
  6
Continuous
 62
     7
370
    25
100
AcDbCircle
 10
14.5018773221
 20
6.2836438588
 30
0.0
 40
0.2000000000000023
100
AcDbArc
 50
241.1174148316
 51
312.4268885054
  0
LINE
  5
14E
330
1F
100
AcDbEntity
  8
0
  6
Continuous
 62
     7
370
    25
100
AcDbLine
 10
14.6368070951
 20
6.136016096
 30
0.0
 11
15.5271474834
 21
6.949775136
 31
0.0
  0
ARC
  5
14F
330
1F
100
AcDbEntity
  8
0
  6
Continuous
 62
     7
370
    25
100
AcDbCircle
 10
15.3922177104
 20
7.0974028988
 30
0.0
 40
0.1999999999999993
100
AcDbArc
 50
312.4268885054
 51
360.0
  0
LINE
  5
150
330
1F
100
AcDbEntity
  8
0
  6
Continuous
 62
     7
370
    25
100
AcDbLine
 10
15.5922177104
 20
7.955817733
 30
0.0
 11
15.5922177104
 21
7.0974028988
 31
0.0
  0
ARC
  5
151
330
1F
100
AcDbEntity
  8
0
  6
Continuous
 62
     7
370
    25
100
AcDbCircle
 10
15.3922177104
 20
7.955817733
 30
0.0
 40
0.2000000000000028
100
AcDbArc
 50
360.0
 51
93.8532955969
  0
SPLINE
  5
152
330
1F
100
AcDbEntity
  8
0
  6
Continuous
 62
     7
370
    25
100
AcDbSpline
210
0.0
220
0.0
230
1.0
 70
     8
 71
     3
 72
    12
 73
     8
 74
     0
 42
0.00000001
 43
0.00000001
 40
0.6495387253880556
 40
0.6495387253880556
 40
0.6495387253880556
 40
0.6495387253880556
 40
0.6546782532817266
 40
0.686913106149885
 40
0.7493597521635109
 40
0.7805830751703239
 40
0.7911832058696918
 40
0.7911832058696918
 40
0.7911832058696918
 40
0.7911832058696918
 10
15.37877730833601
 20
8.155365610984914
 30
0.0
 10
15.33970845397372
 20
8.152734156743128
 30
0.0
 10
15.05567517842972
 20
8.133035727183938
 30
0.0
 10
14.29862817804739
 20
8.069369059311096
 30
0.0
 10
13.34973907340101
 20
7.950613496114603
 30
0.0
 10
12.57290889895515
 20
7.813679073794069
 30
0.0
 10
12.26363594210149
 20
7.750967084375975
 30
0.0
 10
12.18541804358312
 20
7.73454744713032
 30
0.0
  0
ARC
  5
153
330
1F
100
AcDbEntity
  8
0
  6
Continuous
 62
     7
370
    25
100
AcDbCircle
 10
12.2265068189
 20
7.5388136674
 30
0.0
 40
0.2000000000000014
100
AcDbArc
 50
101.855484399
 51
241.1174148316
  0
LINE
  5
154
330
1F
100
AcDbEntity
  8
0
  6
Continuous
 62
     7
370
    25
100
AcDbLine
 10
12.1299035656
 20
7.3636913917
 30
0.0
 11
14.4052740687
 21
6.1085215832
 31
0.0
  0
ARC
  5
155
330
1F
100
AcDbEntity
  8
0
  6
Continuous
 62
     7
370
    25
100
AcDbCircle
 10
19.8624579475
 20
7.9633928658
 30
0.0
 40
0.2000000000000023
100
AcDbArc
 50
86.8207118578
 51
241.1174148316
  0
LINE
  5
156
330
1F
100
AcDbEntity
  8
0
  6
Continuous
 62
     7
370
    25
100
AcDbLine
 10
19.7658546941
 20
7.7882705902
 30
0.0
 11
21.24652629
 21
6.9714830468
 31
0.0
  0
ARC
  5
157
330
1F
100
AcDbEntity
  8
0
  6
Continuous
 62
     7
370
    25
100
AcDbCircle
 10
21.3431295434
 20
7.1466053225
 30
0.0
 40
0.2000000000000018
100
AcDbArc
 50
241.1174148316
 51
312.4268885054
  0
LINE
  5
158
330
1F
100
AcDbEntity
  8
0
  6
Continuous
 62
     7
370
    25
100
AcDbLine
 10
21.4780593164
 20
6.9989775597
 30
0.0
 11
22.1816660535
 21
7.6420645749
 31
0.0
  0
ARC
  5
159
330
1F
100
AcDbEntity
  8
0
  6
Continuous
 62
     7
370
    25
100
AcDbCircle
 10
22.0467362804
 20
7.7896923377
 30
0.0
 40
0.2000000000000006
100
AcDbArc
 50
312.4268885054
 51
84.1345272799
  0
SPLINE
  5
15A
330
1F
100
AcDbEntity
  8
0
  6
Continuous
 62
     7
370
    25
100
AcDbSpline
210
0.0
220
0.0
230
1.0
 70
     8
 71
     3
 72
    11
 73
     7
 74
     0
 42
0.00000001
 43
0.00000001
 40
0.3575494110876469
 40
0.3575494110876469
 40
0.3575494110876469
 40
0.3575494110876469
 40
0.3746798760817555
 40
0.4059031990885684
 40
0.4371265220953814
 40
0.4533143653489232
 40
0.4533143653489232
 40
0.4533143653489232
 40
0.4533143653489232
 10
22.06717489954543
 20
7.988645253827513
 30
0.0
 10
21.9365869957346
 20
8.00206067130059
 30
0.0
 10
21.56792674800556
 20
8.038467905087215
 30
0.0
 10
20.96042638721622
 20
8.091394841711125
 30
0.0
 10
20.35968527355632
 20
8.134553457155869
 30
0.0
 10
19.9972969665153
 20
8.156211387577388
 30
0.0
 10
19.87355006249237
 20
8.163085041408086
 30
0.0
  0
ARC
  5
15B
330
1F
100
AcDbEntity
  8
0
  6
Continuous
 62
     7
370
    25
100
AcDbCircle
 10
22.5988641655
 20
6.7103290602
 30
0.0
 40
0.2000000000000105
100
AcDbArc
 50
277.5970414111
 51
47.182557196
  0
ARC
  5
15C
330
1F
100
AcDbEntity
  8
0
  6
Continuous
 62
     7
370
    25
100
AcDbCircle
 10
23.0746294172
 20
7.2237951499
 30
0.0
 40
0.5000000000000097
100
AcDbArc
 50
200.5192866722
 51
227.182557196
  0
ARC
  5
15D
330
1F
100
AcDbEntity
  8
0
  6
Continuous
 62
     7
370
    25
100
AcDbCircle
 10
22.4190414416
 20
6.9784292878
 30
0.0
 40
0.2000000000000044
100
AcDbArc
 50
20.5192866722
 51
132.4268885053
  0
LINE
  5
15E
330
1F
100
AcDbEntity
  8
0
  6
Continuous
 62
     7
370
    25
100
AcDbLine
 10
21.9095586135
 20
6.7837206379
 30
0.0
 11
22.2841116686
 21
7.1260570505
 31
0.0
  0
ARC
  5
15F
330
1F
100
AcDbEntity
  8
0
  6
Continuous
 62
     7
370
    25
100
AcDbCircle
 10
22.0444883865
 20
6.6360928751
 30
0.0
 40
0.2000000000041554
100
AcDbArc
 50
132.4268885053
 51
277.6599695512
  0
SPLINE
  5
160
330
1F
100
AcDbEntity
  8
0
  6
Continuous
 62
     7
370
    25
100
AcDbSpline
210
0.0
220
0.0
230
1.0
 70
     8
 71
     3
 72
    11
 73
     7
 74
     0
 42
0.00000001
 43
0.00000001
 40
0.6481961029693138
 40
0.6481961029693138
 40
0.6481961029693138
 40
0.6481961029693138
 40
0.6520988798433948
 40
0.6565556350808772
 40
0.6713345446924556
 40
0.6732859331294959
 40
0.6732859331294959
 40
0.6732859331294959
 40
0.6732859331294959
 10
22.0711471444022
 20
6.437877561316752
 30
0.0
 10
22.09988075039505
 20
6.441742057102428
 30
0.0
 10
22.16142718792236
 20
6.450013667596412
 30
0.0
 10
22.33178510096066
 20
6.472874149341748
 30
0.0
 10
22.48778422686181
 20
6.49373831697192
 30
0.0
 10
22.61093973940246
 20
6.510168578989867
 30
0.0
 10
22.62530520677162
 20
6.512084586579862
 30
0.0
  0
CIRCLE
  5
161
330
1F
100
AcDbEntity
  8
0
  6
Continuous
 62
     7
370
    25
100
AcDbCircle
 10
17.8172177072
 20
6.1654260599
 30
0.0
 40
0.375
  0
ARC
  5
162
330
1F
100
AcDbEntity
  8
0
  6
Continuous
 62
     7
370
    25
100
AcDbCircle
 10
9.9436795077
 20
5.6291835643
 30
0.0
 40
0.2000000000000005
100
AcDbArc
 50
261.6125656441
 51
31.5446870278
  0
ARC
  5
163
330
1F
100
AcDbEntity
  8
0
  6
Continuous
 62
     7
370
    25
100
AcDbCircle
 10
10.8172177072
 20
6.1654260599
 30
0.0
 40
0.8250000000000007
100
AcDbArc
 50
114.4962790512
 51
211.5446870278
  0
ARC
  5
164
330
1F
100
AcDbEntity
  8
0
  6
Continuous
 62
     7
370
    25
100
AcDbCircle
 10
10.3922177072
 20
7.0981639652
 30
0.0
 40
0.199999999999999
100
AcDbArc
 50
294.4962790512
 51
349.0852697611
  0
ARC
  5
165
330
1F
100
AcDbEntity
  8
0
  6
Continuous
 62
     7
370
    25
100
AcDbCircle
 10
10.3922177072
 20
7.0224248093
 30
0.0
 40
0.2000000000000002
100
AcDbArc
 50
10.9147302389
 51
111.3381887662
  0
SPLINE
  5
166
330
1F
100
AcDbEntity
  8
0
  6
Continuous
 62
     7
370
    25
100
AcDbSpline
210
0.0
220
0.0
230
1.0
 70
     8
 71
     3
 72
     8
 73
     4
 74
     0
 42
0.00000001
 43
0.00000001
 40
0.0587970678286712
 40
0.0587970678286712
 40
0.0587970678286712
 40
0.0587970678286712
 40
1.0
 40
1.0
 40
1.0
 40
1.0
 10
10.31944327914567
 20
7.208714590650119
 30
0.0
 10
8.897237673163637
 20
6.653127489560662
 30
0.0
 10
8.052233990289421
 20
5.705901832806441
 30
0.0
 10
9.914506294538525
 20
5.431322694959913
 30
0.0
  0
CIRCLE
  5
167
330
1F
100
AcDbEntity
  8
0
  6
Continuous
 62
     7
370
    25
100
AcDbCircle
 10
23.0746294172
 20
7.2237951499
 30
0.0
 40
0.2500000000000036
  0
ARC
  5
168
330
1F
100
AcDbEntity
  8
0
  6
Continuous
 62
     7
370
    25
100
AcDbCircle
 10
13.334801806
 20
5.5874423093
 30
0.0
 40
0.1999999999999994
100
AcDbArc
 50
225.0
 51
273.7688746373
  0
SPLINE
  5
169
330
1F
100
AcDbEntity
  8
0
  6
Continuous
 62
     7
370
    25
100
AcDbSpline
210
0.0
220
0.0
230
1.0
 70
     8
 71
     3
 72
     9
 73
     5
 74
     0
 42
0.00000001
 43
0.00000001
 40
0.2521216159124464
 40
0.2521216159124464
 40
0.2521216159124464
 40
0.2521216159124464
 40
0.271707070552634
 40
0.2791557719663175
 40
0.2791557719663175
 40
0.2791557719663175
 40
0.2791557719663175
 10
13.34794817495323
 20
5.387874844540519
 30
0.0
 10
13.49119872652888
 20
5.397311375743455
 30
0.0
 10
13.68902698496536
 20
5.411530328371829
 30
0.0
 10
13.886919979045
 20
5.427186039778137
 30
0.0
 10
13.94145269526787
 20
5.431603685468932
 30
0.0
  0
ARC
  5
16A
330
1F
100
AcDbEntity
  8
0
  6
Continuous
 62
     7
370
    25
100
AcDbCircle
 10
13.9253037791
 20
5.6309506506
 30
0.0
 40
0.200000000000241
100
AcDbArc
 50
274.6313655311
 51
61.1174148316
  0
LINE
  5
16B
330
1F
100
AcDbEntity
  8
0
  6
Continuous
 62
     7
370
    25
100
AcDbLine
 10
11.3388209606
 20
7.2861521602
 30
0.0
 11
14.0219070325
 21
5.8060729263
 31
0.0
  0
ARC
  5
16C
330
1F
100
AcDbEntity
  8
0
  6
Continuous
 62
     7
370
    25
100
AcDbCircle
 10
11.2422177072
 20
7.1110298845
 30
0.0
 40
0.1999999999999994
100
AcDbArc
 50
61.1174148316
 51
180.0
  0
LINE
  5
16D
330
1F
100
AcDbEntity
  8
0
  6
Continuous
 62
     7
370
    25
100
AcDbLine
 10
11.0422177072
 20
7.0981639652
 30
0.0
 11
11.0422177072
 21
7.1110298845
 31
0.0
  0
ARC
  5
16E
330
1F
100
AcDbEntity
  8
0
  6
Continuous
 62
     7
370
    25
100
AcDbCircle
 10
11.2422177072
 20
7.0981639652
 30
0.0
 40
0.1999999999999997
100
AcDbArc
 50
180.0
 51
245.5037209488
  0
ARC
  5
16F
330
1F
100
AcDbEntity
  8
0
  6
Continuous
 62
     7
370
    25
100
AcDbCircle
 10
10.8172177072
 20
6.1654260599
 30
0.0
 40
0.8250000000000007
100
AcDbArc
 50
321.3799117912
 51
65.5037209488
  0
ARC
  5
170
330
1F
100
AcDbEntity
  8
0
  6
Continuous
 62
     7
370
    25
100
AcDbCircle
 10
11.6180519383
 20
5.5256686572
 30
0.0
 40
0.2000000000000012
100
AcDbArc
 50
141.3799117912
 51
269.9405706167
  0
SPLINE
  5
171
330
1F
100
AcDbEntity
  8
0
  6
Continuous
 62
     7
370
    25
100
AcDbSpline
210
0.0
220
0.0
230
1.0
 70
     8
 71
     3
 72
    10
 73
     6
 74
     0
 42
0.00000001
 43
0.00000001
 40
0.1730002194696571
 40
0.1730002194696571
 40
0.1730002194696571
 40
0.1730002194696571
 40
0.1808057732178189
 40
0.1886113269659808
 40
0.202116836666204
 40
0.202116836666204
 40
0.202116836666204
 40
0.202116836666204
 10
11.61784449062582
 20
5.325668764741739
 30
0.0
 10
11.67442241664414
 20
5.32561007992262
 30
0.0
 10
11.78767037707997
 20
5.326002721904969
 30
0.0
 10
11.99920175272137
 20
5.328526865781879
 30
0.0
 10
12.15429107338212
 20
5.332020197808867
 30
0.0
 10
12.25266192959606
 20
5.334833977686124
 30
0.0
  0
ARC
  5
172
330
1F
100
AcDbEntity
  8
0
  6
Continuous
 62
     7
370
    25
100
AcDbCircle
 10
12.2469435093
 20
5.5347522101
 30
0.0
 40
0.2000000000000008
100
AcDbArc
 50
271.638430029
 51
315.0
  0
LINE
  5
173
330
1F
100
AcDbEntity
  8
0
  6
Continuous
 62
     7
370
    25
100
AcDbLine
 10
12.6961390634
 20
5.7011050518
 30
0.0
 11
12.3883648655
 21
5.3933308539
 31
0.0
  0
ARC
  5
174
330
1F
100
AcDbEntity
  8
0
  6
Continuous
 62
     7
370
    25
100
AcDbCircle
 10
12.8375604197
 20
5.5596836956
 30
0.0
 40
0.1999999999999996
100
AcDbArc
 50
95.8378535713
 51
135.0
  0
ARC
  5
175
330
1F
100
AcDbEntity
  8
0
  6
Continuous
 62
     7
370
    25
100
AcDbCircle
 10
12.7968749947
 20
5.5596836956
 30
0.0
 40
0.1999999999999996
100
AcDbArc
 50
45.0
 51
84.1621464287
  0
LINE
  5
176
330
1F
100
AcDbEntity
  8
0
  6
Continuous
 62
     7
370
    25
100
AcDbLine
 10
12.938296351
 20
5.7011050518
 30
0.0
 11
13.1933804497
 21
5.446020953
 31
0.0
  0
ARC
  5
177
330
1F
100
AcDbEntity
  8
0
  6
Continuous
 62
     7
370
    25
100
AcDbCircle
 10
20.2992831106
 20
6.3990288252
 30
0.0
 40
0.1999999999999996
100
AcDbArc
 50
225.0
 51
277.7748439723
  0
LINE
  5
178
330
1F
100
AcDbEntity
  8
0
  6
Continuous
 62
     7
370
    25
100
AcDbLine
 10
20.3263392238
 20
6.2008673588
 30
0.0
 11
20.838799085
 21
6.270791395
 31
0.0
  0
ARC
  5
179
330
1F
100
AcDbEntity
  8
0
  6
Continuous
 62
     7
370
    25
100
AcDbCircle
 10
20.8117903834
 20
6.4689593289
 30
0.0
 40
0.2000000000000735
100
AcDbArc
 50
277.7611357549
 51
61.1174148316
  0
LINE
  5
17A
330
1F
100
AcDbEntity
  8
0
  6
Continuous
 62
     7
370
    25
100
AcDbLine
 10
18.3388209606
 20
8.0615430859
 30
0.0
 11
20.9083936368
 21
6.6440816046
 31
0.0
  0
ARC
  5
17B
330
1F
100
AcDbEntity
  8
0
  6
Continuous
 62
     7
370
    25
100
AcDbCircle
 10
18.2422177072
 20
7.8864208102
 30
0.0
 40
0.1999999999999993
100
AcDbArc
 50
61.1174148316
 51
180.0
  0
LINE
  5
17C
330
1F
100
AcDbEntity
  8
0
  6
Continuous
 62
     7
370
    25
100
AcDbLine
 10
18.0422177072
 20
7.0981639652
 30
0.0
 11
18.0422177072
 21
7.8864208102
 31
0.0
  0
ARC
  5
17D
330
1F
100
AcDbEntity
  8
0
  6
Continuous
 62
     7
370
    25
100
AcDbCircle
 10
18.2422177072
 20
7.0981639652
 30
0.0
 40
0.200000000000002
100
AcDbArc
 50
180.0
 51
245.5037209488
  0
ARC
  5
17E
330
1F
100
AcDbEntity
  8
0
  6
Continuous
 62
     7
370
    25
100
AcDbCircle
 10
17.8172177072
 20
6.1654260599
 30
0.0
 40
0.8249999999999968
100
AcDbArc
 50
1.9846926466
 51
65.5037209488
  0
ARC
  5
17F
330
1F
100
AcDbEntity
  8
0
  6
Continuous
 62
     7
370
    25
100
AcDbCircle
 10
18.8416028253
 20
6.2009243667
 30
0.0
 40
0.2000000000000015
100
AcDbArc
 50
181.9846926466
 51
277.6674048107
  0
SPLINE
  5
180
330
1F
100
AcDbEntity
  8
0
  6
Continuous
 62
     7
370
    25
100
AcDbSpline
210
0.0
220
0.0
230
1.0
 70
     8
 71
     3
 72
     8
 73
     4
 74
     0
 42
0.00000001
 43
0.00000001
 40
0.503022154008895
 40
0.503022154008895
 40
0.503022154008895
 40
0.503022154008895
 40
0.5198377706621563
 40
0.5198377706621563
 40
0.5198377706621563
 40
0.5198377706621563
 10
18.86828730531755
 20
6.002712514106389
 30
0.0
 10
18.99182265186819
 20
6.019343590604648
 30
0.0
 10
19.11537461592623
 20
6.036037319710899
 30
0.0
 10
19.23894139710308
 20
6.052778006088693
 30
0.0
  0
ARC
  5
181
330
1F
100
AcDbEntity
  8
0
  6
Continuous
 62
     7
370
    25
100
AcDbCircle
 10
19.2120909189
 20
6.2509674403
 30
0.0
 40
0.2000000000000009
100
AcDbArc
 50
277.7153915083
 51
315.0
  0
LINE
  5
182
330
1F
100
AcDbEntity
  8
0
  6
Continuous
 62
     7
370
    25
100
AcDbLine
 10
19.7211390634
 20
6.4771728723
 30
0.0
 11
19.3535122752
 21
6.109546084
 31
0.0
  0
ARC
  5
183
330
1F
100
AcDbEntity
  8
0
  6
Continuous
 62
     7
370
    25
100
AcDbCircle
 10
19.8625604197
 20
6.3357515161
 30
0.0
 40
0.2000000000000001
100
AcDbArc
 50
99.4515517649
 51
135.0
  0
ARC
  5
184
330
1F
100
AcDbEntity
  8
0
  6
Continuous
 62
     7
370
    25
100
AcDbCircle
 10
19.7968749947
 20
6.3357515161
 30
0.0
 40
0.199999999999999
100
AcDbArc
 50
45.0
 51
80.5484482351
  0
LINE
  5
185
330
1F
100
AcDbEntity
  8
0
  6
Continuous
 62
     7
370
    25
100
AcDbLine
 10
19.938296351
 20
6.4771728723
 30
0.0
 11
20.1578617543
 21
6.2576074689
 31
0.0
  0
LINE
  5
186
330
1F
100
AcDbEntity
  8
0
  6
Continuous
 62
     7
370
    25
100
AcDbLine
 10
11.2599889957
 20
4.3627260391
 30
0.0
 11
11.2599889957
 21
3.6127260391
 31
0.0
  0
LINE
  5
187
330
1F
100
AcDbEntity
  8
0
  6
Continuous
 62
     7
370
    25
100
AcDbLine
 10
20.7599889957
 20
4.3627260391
 30
0.0
 11
11.2599889957
 21
4.3627260391
 31
0.0
  0
LINE
  5
188
330
1F
100
AcDbEntity
  8
0
  6
Continuous
 62
     7
370
    25
100
AcDbLine
 10
20.7599889957
 20
4.3627260391
 30
0.0
 11
20.7599889957
 21
3.6127260391
 31
0.0
  0
LINE
  5
189
330
1F
100
AcDbEntity
  8
0
  6
Continuous
 62
     7
370
    25
100
AcDbLine
 10
20.7599889957
 20
3.6127260391
 30
0.0
 11
11.2599889957
 21
3.6127260391
 31
0.0
  0
LINE
  5
18A
330
1F
100
AcDbEntity
  8
0
  6
Continuous
 62
     7
370
    25
100
AcDbLine
 10
0.6371673241
 20
4.3628787381
 30
0.0
 11
0.6371673241
 21
3.8628787381
 31
0.0
  0
LINE
  5
18B
330
1F
100
AcDbEntity
  8
0
  6
Continuous
 62
     7
370
    25
100
AcDbLine
 10
10.1371673241
 20
4.3628787381
 30
0.0
 11
0.6371673241
 21
4.3628787381
 31
0.0
  0
LINE
  5
18C
330
1F
100
AcDbEntity
  8
0
  6
Continuous
 62
     7
370
    25
100
AcDbLine
 10
10.1371673241
 20
4.3628787381
 30
0.0
 11
10.1371673241
 21
3.8628787381
 31
0.0
  0
LINE
  5
18D
330
1F
100
AcDbEntity
  8
0
  6
Continuous
 62
     7
370
    25
100
AcDbLine
 10
10.1371673241
 20
3.8628787381
 30
0.0
 11
0.6371673241
 21
3.8628787381
 31
0.0
  0
LINE
  5
18E
330
1F
100
AcDbEntity
  8
0
  6
Continuous
 62
     7
370
    25
100
AcDbLine
 10
3.9893546299
 20
3.1717459288
 30
0.0
 11
22.8343546299
 21
2.6054859095
 31
0.0
  0
LINE
  5
18F
330
1F
100
AcDbEntity
  8
0
  6
Continuous
 62
     7
370
    25
100
AcDbLine
 10
3.9893546299
 20
3.1607811446
 30
0.0
 11
22.8343546299
 21
2.5910851063
 31
0.0
  0
SPLINE
  5
190
330
1F
100
AcDbEntity
  8
0
  6
Continuous
 62
     7
370
    25
100
AcDbSpline
210
0.0
220
0.0
230
1.0
 70
    24
 71
     3
 72
     9
 73
     5
 74
     0
 42
0.00000001
 43
0.00000001
 40
0.385225538059624
 40
0.385225538059624
 40
0.385225538059624
 40
0.385225538059624
 40
0.3896404541172006
 40
0.3913679698596135
 40
0.3913679698596135
 40
0.3913679698596135
 40
0.3913679698596135
 10
3.989354629896364
 20
3.160781144562339
 30
0.0
 10
3.989354629896364
 20
3.163451736170882
 30
0.0
 10
3.989354629896364
 20
3.167123737082987
 30
0.0
 10
3.989354629896364
 20
3.1707350816047
 30
0.0
 10
3.989354629896364
 20
3.171745928786972
 30
0.0
  0
SPLINE
  5
191
330
1F
100
AcDbEntity
  8
0
  6
Continuous
 62
     7
370
    25
100
AcDbSpline
210
0.0
220
0.0
230
1.0
 70
    24
 71
     3
 72
     9
 73
     5
 74
     0
 42
0.00000001
 43
0.00000001
 40
0.663595140672637
 40
0.663595140672637
 40
0.663595140672637
 40
0.663595140672637
 40
0.6682158888679767
 40
0.671483434863797
 40
0.671483434863797
 40
0.671483434863797
 40
0.671483434863797
 10
22.83435462989638
 20
2.605485909486653
 30
0.0
 10
22.83435462989638
 20
2.602717370829557
 30
0.0
 10
22.83435462989638
 20
2.597947484749999
 30
0.0
 10
22.83435462989638
 20
2.593104349710675
 30
0.0
 10
22.83435462989638
 20
2.591085106295785
 30
0.0
  0
LINE
  5
192
330
1F
100
AcDbEntity
  8
0
  6
Continuous
 62
     7
370
    25
100
AcDbLine
 10
22.8343546299
 20
2.0946420913
 30
0.0
 11
3.9893546299
 21
2.6628270182
 31
0.0
  0
LINE
  5
193
330
1F
100
AcDbEntity
  8
0
  6
Continuous
 62
     7
370
    25
100
AcDbLine
 10
3.9893546299
 20
2.6628270182
 30
0.0
 11
3.9893546299
 21
3.1607811446
 31
0.0
  0
LINE
  5
194
330
1F
100
AcDbEntity
  8
0
  6
Continuous
 62
     7
370
    25
100
AcDbLine
 10
22.8343546299
 20
2.0946420913
 30
0.0
 11
22.8343546299
 21
2.5910851063
 31
0.0
  0
LINE
  5
195
330
1F
100
AcDbEntity
  8
0
  6
Continuous
 62
     7
370
    25
100
AcDbLine
 10
3.9893546299
 20
0.8882697555
 30
0.0
 11
22.8343546299
 21
1.0102985282
 31
0.0
  0
SPLINE
  5
196
330
1F
100
AcDbEntity
  8
0
  6
Continuous
 62
     7
370
    25
100
AcDbSpline
210
0.0
220
0.0
230
1.0
 70
    24
 71
     3
 72
     9
 73
     5
 74
     0
 42
0.00000001
 43
0.00000001
 40
0.3217263657596925
 40
0.3217263657596925
 40
0.3217263657596925
 40
0.3217263657596925
 40
0.324901812537067
 40
0.3298212704300342
 40
0.3298212704300342
 40
0.3298212704300342
 40
0.3298212704300342
 10
22.83435462989638
 20
1.01029852818529
 30
0.0
 10
22.83435462989639
 20
1.008144142042744
 30
0.0
 10
22.83435462989638
 20
1.002647892964623
 30
0.0
 10
22.83435462989638
 20
0.9971458964097668
 30
0.0
 10
22.83435462989638
 20
0.9937998471804647
 30
0.0
  0
LINE
  5
197
330
1F
100
AcDbEntity
  8
0
  6
Continuous
 62
     7
370
    25
100
AcDbLine
 10
22.8343546299
 20
0.9937998472
 30
0.0
 11
3.9893546299
 21
0.8714472546
 31
0.0
  0
LINE
  5
198
330
1F
100
AcDbEntity
  8
0
  6
Continuous
 62
     7
370
    25
100
AcDbLine
 10
3.9893546299
 20
0.8714472546
 30
0.0
 11
3.9893546299
 21
0.8882697555
 31
0.0
  0
LINE
  5
199
330
1F
100
AcDbEntity
  8
0
  6
Continuous
 62
     7
370
    25
100
AcDbLine
 10
3.9893546299
 20
1.3837255972
 30
0.0
 11
22.8343546299
 21
1.5059433394
 31
0.0
  0
LINE
  5
19A
330
1F
100
AcDbEntity
  8
0
  6
Continuous
 62
     7
370
    25
100
AcDbLine
 10
22.8343546299
 20
1.5059433394
 30
0.0
 11
22.8343546299
 21
1.0102985282
 31
0.0
  0
LINE
  5
19B
330
1F
100
AcDbEntity
  8
0
  6
Continuous
 62
     7
370
    25
100
AcDbLine
 10
3.9893546299
 20
1.3837255972
 30
0.0
 11
3.9893546299
 21
0.8882697555
 31
0.0
  0
LINE
  5
19C
330
1F
100
AcDbEntity
  8
0
  6
Continuous
 62
     7
370
    25
100
AcDbLine
 10
2.8890221919
 20
5.5075842528
 30
0.0
 11
2.8890221919
 21
5.5551544838
 31
0.0
  0
ARC
  5
19D
330
1F
100
AcDbEntity
  8
0
  6
Continuous
 62
     7
370
    25
100
AcDbCircle
 10
2.8390221919
 20
5.5551544838
 30
0.0
 40
0.0499999999999998
100
AcDbArc
 50
0.0
 51
90.0
  0
LINE
  5
19E
330
1F
100
AcDbEntity
  8
0
  6
Continuous
 62
     7
370
    25
100
AcDbLine
 10
1.955385751
 20
5.6051544838
 30
0.0
 11
2.8390221919
 21
5.6051544838
 31
0.0
  0
LINE
  5
19F
330
1F
100
AcDbEntity
  8
0
  6
Continuous
 62
     7
370
    25
100
AcDbLine
 10
1.955385751
 20
5.7301544838
 30
0.0
 11
1.955385751
 21
5.6051544838
 31
0.0
  0
LINE
  5
1A0
330
1F
100
AcDbEntity
  8
0
  6
Continuous
 62
     7
370
    25
100
AcDbLine
 10
1.855385751
 20
5.7301544838
 30
0.0
 11
1.955385751
 21
5.7301544838
 31
0.0
  0
LINE
  5
1A1
330
1F
100
AcDbEntity
  8
0
  6
Continuous
 62
     7
370
    25
100
AcDbLine
 10
1.855385751
 20
5.6051544838
 30
0.0
 11
1.855385751
 21
5.7301544838
 31
0.0
  0
LINE
  5
1A2
330
1F
100
AcDbEntity
  8
0
  6
Continuous
 62
     7
370
    25
100
AcDbLine
 10
1.0390221919
 20
5.6051544838
 30
0.0
 11
1.855385751
 21
5.6051544838
 31
0.0
  0
ARC
  5
1A3
330
1F
100
AcDbEntity
  8
0
  6
Continuous
 62
     7
370
    25
100
AcDbCircle
 10
1.0390221919
 20
5.7551544838
 30
0.0
 40
0.1500000000000004
100
AcDbArc
 50
180.0
 51
270.0
  0
LINE
  5
1A4
330
1F
100
AcDbEntity
  8
0
  6
Continuous
 62
     7
370
    25
100
AcDbLine
 10
0.8890221919
 20
6.2301544838
 30
0.0
 11
0.8890221919
 21
5.7551544838
 31
0.0
  0
ARC
  5
1A5
330
1F
100
AcDbEntity
  8
0
  6
Continuous
 62
     7
370
    25
100
AcDbCircle
 10
1.0390221919
 20
6.2301544838
 30
0.0
 40
0.1500000000000004
100
AcDbArc
 50
90.0
 51
180.0
  0
LINE
  5
1A6
330
1F
100
AcDbEntity
  8
0
  6
Continuous
 62
     7
370
    25
100
AcDbLine
 10
1.0390221919
 20
6.3801544838
 30
0.0
 11
2.8390221919
 21
6.3801544838
 31
0.0
  0
ARC
  5
1A7
330
1F
100
AcDbEntity
  8
0
  6
Continuous
 62
     7
370
    25
100
AcDbCircle
 10
2.8390221919
 20
6.4301544838
 30
0.0
 40
0.0499999999999998
100
AcDbArc
 50
270.0
 51
0.0
  0
LINE
  5
1A8
330
1F
100
AcDbEntity
  8
0
  6
Continuous
 62
     7
370
    25
100
AcDbLine
 10
2.8890221919
 20
6.4301544838
 30
0.0
 11
2.8890221919
 21
6.4437740801
 31
0.0
  0
LINE
  5
1A9
330
1F
100
AcDbEntity
  8
0
  6
Continuous
 62
     7
370
    25
100
AcDbLine
 10
2.8890221919
 20
6.4437740801
 30
0.0
 11
2.9088839628
 21
6.639958466
 31
0.0
  0
ARC
  5
1AA
330
1F
100
AcDbEntity
  8
0
  6
Continuous
 62
     7
370
    25
100
AcDbCircle
 10
2.9586296758
 20
6.6349221939
 30
0.0
 40
0.0500000000000006
100
AcDbArc
 50
81.2230252983
 51
174.2190537942
  0
LINE
  5
1AB
330
1F
100
AcDbEntity
  8
0
  6
Continuous
 62
     7
370
    25
100
AcDbLine
 10
2.9662591101
 20
6.684336683
 30
0.0
 11
3.6055754042
 21
6.5856283528
 31
0.0
  0
ARC
  5
1AC
330
1F
100
AcDbEntity
  8
0
  6
Continuous
 62
     7
370
    25
100
AcDbCircle
 10
3.5140221919
 20
5.9926544838
 30
0.0
 40
0.6000000000000006
100
AcDbArc
 50
281.5137098286
 51
81.2230252983
  0
LINE
  5
1AD
330
1F
100
AcDbEntity
  8
0
  6
Continuous
 62
     7
370
    25
100
AcDbLine
 10
2.9747591212
 20
5.2704840202
 30
0.0
 11
3.6337836359
 21
5.4047283009
 31
0.0
  0
ARC
  5
1AE
330
1F
100
AcDbEntity
  8
0
  6
Continuous
 62
     7
370
    25
100
AcDbCircle
 10
2.9647790009
 20
5.3194778688
 30
0.0
 40
0.050000000000001
100
AcDbArc
 50
187.6621227821
 51
281.5137098286
  0
LINE
  5
1AF
330
1F
100
AcDbEntity
  8
0
  6
Continuous
 62
     7
370
    25
100
AcDbLine
 10
2.9152254229
 20
5.312811317
 30
0.0
 11
2.8890221919
 21
5.5075842528
 31
0.0
  0
CIRCLE
  5
1B0
330
1F
100
AcDbEntity
  8
0
  6
Continuous
 62
     7
370
    25
100
AcDbCircle
 10
3.5140221919
 20
5.9926544838
 30
0.0
 40
0.2500000000000009
  0
LINE
  5
1B1
330
1F
100
AcDbEntity
  8
0
  6
Continuous
 62
     7
370
    25
100
AcDbLine
 10
6.5203958414
 20
5.4751612737
 30
0.0
 11
6.5203958414
 21
5.5227315048
 31
0.0
  0
ARC
  5
1B2
330
1F
100
AcDbEntity
  8
0
  6
Continuous
 62
     7
370
    25
100
AcDbCircle
 10
6.4703958414
 20
5.5227315048
 30
0.0
 40
0.0500000000000007
100
AcDbArc
 50
0.0
 51
90.0
  0
LINE
  5
1B3
330
1F
100
AcDbEntity
  8
0
  6
Continuous
 62
     7
370
    25
100
AcDbLine
 10
5.5867594005
 20
5.5727315048
 30
0.0
 11
6.4703958414
 21
5.5727315048
 31
0.0
  0
LINE
  5
1B4
330
1F
100
AcDbEntity
  8
0
  6
Continuous
 62
     7
370
    25
100
AcDbLine
 10
5.5867594005
 20
5.6977315048
 30
0.0
 11
5.5867594005
 21
5.5727315048
 31
0.0
  0
LINE
  5
1B5
330
1F
100
AcDbEntity
  8
0
  6
Continuous
 62
     7
370
    25
100
AcDbLine
 10
5.4867594005
 20
5.6977315048
 30
0.0
 11
5.5867594005
 21
5.6977315048
 31
0.0
  0
LINE
  5
1B6
330
1F
100
AcDbEntity
  8
0
  6
Continuous
 62
     7
370
    25
100
AcDbLine
 10
5.4867594005
 20
5.5727315048
 30
0.0
 11
5.4867594005
 21
5.6977315048
 31
0.0
  0
LINE
  5
1B7
330
1F
100
AcDbEntity
  8
0
  6
Continuous
 62
     7
370
    25
100
AcDbLine
 10
4.6703958414
 20
5.5727315048
 30
0.0
 11
5.4867594005
 21
5.5727315048
 31
0.0
  0
ARC
  5
1B8
330
1F
100
AcDbEntity
  8
0
  6
Continuous
 62
     7
370
    25
100
AcDbCircle
 10
4.6703958414
 20
5.7227315048
 30
0.0
 40
0.1500000000000004
100
AcDbArc
 50
180.0
 51
270.0
  0
LINE
  5
1B9
330
1F
100
AcDbEntity
  8
0
  6
Continuous
 62
     7
370
    25
100
AcDbLine
 10
4.5203958414
 20
6.1977315048
 30
0.0
 11
4.5203958414
 21
5.7227315048
 31
0.0
  0
ARC
  5
1BA
330
1F
100
AcDbEntity
  8
0
  6
Continuous
 62
     7
370
    25
100
AcDbCircle
 10
4.6703958414
 20
6.1977315048
 30
0.0
 40
0.1500000000000004
100
AcDbArc
 50
90.0
 51
180.0
  0
LINE
  5
1BB
330
1F
100
AcDbEntity
  8
0
  6
Continuous
 62
     7
370
    25
100
AcDbLine
 10
4.6703958414
 20
6.3477315048
 30
0.0
 11
6.4703958414
 21
6.3477315048
 31
0.0
  0
ARC
  5
1BC
330
1F
100
AcDbEntity
  8
0
  6
Continuous
 62
     7
370
    25
100
AcDbCircle
 10
6.4703958414
 20
6.3977315048
 30
0.0
 40
0.0499999999999998
100
AcDbArc
 50
270.0
 51
0.0
  0
LINE
  5
1BD
330
1F
100
AcDbEntity
  8
0
  6
Continuous
 62
     7
370
    25
100
AcDbLine
 10
6.5203958414
 20
6.3977315048
 30
0.0
 11
6.5203958414
 21
6.4113511011
 31
0.0
  0
LINE
  5
1BE
330
1F
100
AcDbEntity
  8
0
  6
Continuous
 62
     7
370
    25
100
AcDbLine
 10
6.5203958414
 20
6.4113511011
 30
0.0
 11
6.5402576123
 21
6.607535487
 31
0.0
  0
ARC
  5
1BF
330
1F
100
AcDbEntity
  8
0
  6
Continuous
 62
     7
370
    25
100
AcDbCircle
 10
6.5900033253
 20
6.6024992149
 30
0.0
 40
0.050000000000001
100
AcDbArc
 50
81.2230252983
 51
174.2190537942
  0
LINE
  5
1C0
330
1F
100
AcDbEntity
  8
0
  6
Continuous
 62
     7
370
    25
100
AcDbLine
 10
6.5976327596
 20
6.6519137039
 30
0.0
 11
7.2369490538
 21
6.5532053738
 31
0.0
  0
ARC
  5
1C1
330
1F
100
AcDbEntity
  8
0
  6
Continuous
 62
     7
370
    25
100
AcDbCircle
 10
7.1453958414
 20
5.9602315048
 30
0.0
 40
0.6000000000000005
100
AcDbArc
 50
281.5137098286
 51
81.2230252983
  0
LINE
  5
1C2
330
1F
100
AcDbEntity
  8
0
  6
Continuous
 62
     7
370
    25
100
AcDbLine
 10
6.6061327707
 20
5.2380610412
 30
0.0
 11
7.2651572854
 21
5.3723053219
 31
0.0
  0
ARC
  5
1C3
330
1F
100
AcDbEntity
  8
0
  6
Continuous
 62
     7
370
    25
100
AcDbCircle
 10
6.5961526504
 20
5.2870548898
 30
0.0
 40
0.0500000000000003
100
AcDbArc
 50
187.6621227821
 51
281.5137098286
  0
LINE
  5
1C4
330
1F
100
AcDbEntity
  8
0
  6
Continuous
 62
     7
370
    25
100
AcDbLine
 10
6.5465990725
 20
5.280388338
 30
0.0
 11
6.5203958414
 21
5.4751612737
 31
0.0
  0
CIRCLE
  5
1C5
330
1F
100
AcDbEntity
  8
0
  6
Continuous
 62
     7
370
    25
100
AcDbCircle
 10
7.1453958414
 20
5.9602315048
 30
0.0
 40
0.2500000000000009
  0
MTEXT
  5
1C7
330
1F
100
AcDbEntity
  8
0
  6
Continuous
 62
     7
100
AcDbMText
 10
0.0
 20
0.5790104628
 30
0.0
 40
0.2076
 41
0.0
 71
     1
 72
     1
  1
SOLIDWORKS Educational Product.
  7
SLDTEXTSTYLE0
 73
     1
 44
1.0
  0
MTEXT
  5
1C8
330
1F
100
AcDbEntity
  8
0
  6
Continuous
 62
     7
100
AcDbMText
 10
0.0
 20
0.2676104628
 30
0.0
 40
0.2076
 41
0.0
 71
     1
 72
     1
  1
For Instructional Use Only.
  7
SLDTEXTSTYLE0
 73
     1
 44
1.0
  0
ENDSEC
  0
SECTION
  2
OBJECTS
  0
DICTIONARY
  5
C
330
0
100
AcDbDictionary
281
     1
  3
ACAD_GROUP
350
D
  3
ACAD_LAYOUT
350
1A
  3
ACAD_MLINESTYLE
350
17
  3
ACAD_PLOTSETTINGS
350
19
  3
ACAD_PLOTSTYLENAME
350
E
  3
ACAD_SCALELIST
350
47
  3
DWGPROPS
350
1C9
  0
DICTIONARY
  5
D
102
{ACAD_REACTORS
330
C
102
}
330
C
100
AcDbDictionary
281
     1
  0
DICTIONARY
  5
1A
102
{ACAD_REACTORS
330
C
102
}
330
C
100
AcDbDictionary
281
     1
  3
Layout1
350
1E
  3
Layout2
350
26
  3
Model
350
22
  0
DICTIONARY
  5
17
102
{ACAD_REACTORS
330
C
102
}
330
C
100
AcDbDictionary
281
     1
  3
Standard
350
18
  0
DICTIONARY
  5
19
102
{ACAD_REACTORS
330
C
102
}
330
C
100
AcDbDictionary
281
     1
  0
ACDBDICTIONARYWDFLT
  5
E
102
{ACAD_REACTORS
330
C
102
}
330
C
100
AcDbDictionary
281
     1
  3
Normal
350
F
100
AcDbDictionaryWithDefault
340
F
  0
DICTIONARY
  5
47
102
{ACAD_REACTORS
330
C
102
}
330
C
100
AcDbDictionary
281
     1
  3
A0
350
48
  3
A1
350
49
  3
A2
350
4A
  3
A3
350
4B
  3
A4
350
4C
  3
A5
350
4D
  3
A6
350
4E
  3
A7
350
4F
  3
A8
350
50
  3
A9
350
51
  3
B1
350
52
  3
B2
350
53
  3
B3
350
54
  3
B4
350
55
  3
B5
350
56
  3
B6
350
57
  3
B7
350
58
  0
XRECORD
  5
1C9
102
{ACAD_REACTORS
330
C
102
}
330
C
100
AcDbXrecord
280
     1
  1
DWGPROPS COOKIE
  2

  3

  4

  6

  7

  8
ucmai
  9

300
=
301
=
302
=
303
=
304
=
305
=
306
=
307
=
308
=
309
=
 40
0.0
 41
2461142.838577153
 42
2461142.838577674
  1

 90
        0
  0
LAYOUT
  5
1E
102
{ACAD_REACTORS
330
1A
102
}
330
1A
100
AcDbPlotSettings
  1

  2
none_device
  4

  6

 40
0.0
 41
0.0
 42
0.0
 43
0.0
 44
0.0
 45
0.0
 46
0.0
 47
0.0
 48
0.0
 49
0.0
140
0.0
141
0.0
142
1.0
143
1.0
 70
   688
 72
     0
 73
     0
 74
     5
  7

 75
    16
147
1.0
148
0.0
149
0.0
100
AcDbLayout
  1
Layout1
 70
     1
 71
     1
 10
0.0
 20
0.0
 11
12.0
 21
9.0
 12
0.0
 22
0.0
 32
0.0
 14
1.0000000000E+20
 24
1.0000000000E+20
 34
1.0000000000E+20
 15
-1.0000000000E+20
 25
-1.0000000000E+20
 35
-1.0000000000E+20
146
0.0
 13
0.0
 23
0.0
 33
0.0
 16
1.0
 26
0.0
 36
0.0
 17
0.0
 27
1.0
 37
0.0
 76
     0
330
1B
  0
LAYOUT
  5
26
102
{ACAD_REACTORS
330
1A
102
}
330
1A
100
AcDbPlotSettings
  1

  2
none_device
  4

  6

 40
0.0
 41
0.0
 42
0.0
 43
0.0
 44
0.0
 45
0.0
 46
0.0
 47
0.0
 48
0.0
 49
0.0
140
0.0
141
0.0
142
1.0
143
1.0
 70
   688
 72
     0
 73
     0
 74
     5
  7

 75
    16
147
1.0
148
0.0
149
0.0
100
AcDbLayout
  1
Layout2
 70
     1
 71
     2
 10
0.0
 20
0.0
 11
0.0
 21
0.0
 12
0.0
 22
0.0
 32
0.0
 14
0.0
 24
0.0
 34
0.0
 15
0.0
 25
0.0
 35
0.0
146
0.0
 13
0.0
 23
0.0
 33
0.0
 16
1.0
 26
0.0
 36
0.0
 17
0.0
 27
1.0
 37
0.0
 76
     0
330
23
  0
LAYOUT
  5
22
102
{ACAD_REACTORS
330
1A
102
}
330
1A
100
AcDbPlotSettings
  1

  2
none_device
  4
Letter_(8.50_x_11.00_Inches)
  6

 40
6.35
 41
6.35
 42
6.35000508
 43
6.35000508
 44
215.9
 45
279.4
 46
0.0
 47
0.0
 48
0.0
 49
0.0
140
0.0
141
0.0
142
1.0
143
1.0
 70
  1712
 72
     0
 73
     0
 74
     0
  7

 75
     0
147
1.0
148
0.0
149
0.0
100
AcDbLayout
  1
Model
 70
     1
 71
     0
 10
0.0
 20
0.0
 11
24.0
 21
12.0
 12
0.0
 22
0.0
 32
0.0
 14
0.0
 24
0.0
 34
0.0
 15
24.0
 25
12.0
 35
0.0
146
0.0
 13
0.0
 23
0.0
 33
0.0
 16
1.0
 26
0.0
 36
0.0
 17
0.0
 27
1.0
 37
0.0
 76
     0
330
1F
331
29
  0
MLINESTYLE
  5
18
102
{ACAD_REACTORS
330
17
102
}
330
17
100
AcDbMlineStyle
  2
Standard
 70
     0
  3

 62
   256
 51
90.0
 52
90.0
 71
     2
 49
0.5
 62
   256
  6
BYLAYER
 49
-0.5
 62
   256
  6
BYLAYER
  0
ACDBPLACEHOLDER
  5
F
102
{ACAD_REACTORS
330
E
102
}
330
E
  0
SCALE
  5
48
102
{ACAD_REACTORS
330
47
102
}
330
47
100
AcDbScale
 70
     0
300
1:1
140
1.0
141
1.0
290
     1
  0
SCALE
  5
49
102
{ACAD_REACTORS
330
47
102
}
330
47
100
AcDbScale
 70
     0
300
1/128" = 1'-0"
140
0.0078125
141
12.0
290
     0
  0
SCALE
  5
4A
102
{ACAD_REACTORS
330
47
102
}
330
47
100
AcDbScale
 70
     0
300
1/64" = 1'-0"
140
0.015625
141
12.0
290
     0
  0
SCALE
  5
4B
102
{ACAD_REACTORS
330
47
102
}
330
47
100
AcDbScale
 70
     0
300
1/32" = 1'-0"
140
0.03125
141
12.0
290
     0
  0
SCALE
  5
4C
102
{ACAD_REACTORS
330
47
102
}
330
47
100
AcDbScale
 70
     0
300
1/16" = 1'-0"
140
0.0625
141
12.0
290
     0
  0
SCALE
  5
4D
102
{ACAD_REACTORS
330
47
102
}
330
47
100
AcDbScale
 70
     0
300
3/32" = 1'-0"
140
0.09375
141
12.0
290
     0
  0
SCALE
  5
4E
102
{ACAD_REACTORS
330
47
102
}
330
47
100
AcDbScale
 70
     0
300
1/8" = 1'-0"
140
0.125
141
12.0
290
     0
  0
SCALE
  5
4F
102
{ACAD_REACTORS
330
47
102
}
330
47
100
AcDbScale
 70
     0
300
3/16" = 1'-0"
140
0.1875
141
12.0
290
     0
  0
SCALE
  5
50
102
{ACAD_REACTORS
330
47
102
}
330
47
100
AcDbScale
 70
     0
300
1/4" = 1'-0"
140
0.25
141
12.0
290
     0
  0
SCALE
  5
51
102
{ACAD_REACTORS
330
47
102
}
330
47
100
AcDbScale
 70
     0
300
3/8" = 1'-0"
140
0.375
141
12.0
290
     0
  0
SCALE
  5
52
102
{ACAD_REACTORS
330
47
102
}
330
47
100
AcDbScale
 70
     0
300
1/2" = 1'-0"
140
0.5
141
12.0
290
     0
  0
SCALE
  5
53
102
{ACAD_REACTORS
330
47
102
}
330
47
100
AcDbScale
 70
     0
300
3/4" = 1'-0"
140
0.75
141
12.0
290
     0
  0
SCALE
  5
54
102
{ACAD_REACTORS
330
47
102
}
330
47
100
AcDbScale
 70
     0
300
1" = 1'-0"
140
1.0
141
12.0
290
     0
  0
SCALE
  5
55
102
{ACAD_REACTORS
330
47
102
}
330
47
100
AcDbScale
 70
     0
300
1-1/2" = 1'-0"
140
1.5
141
12.0
290
     0
  0
SCALE
  5
56
102
{ACAD_REACTORS
330
47
102
}
330
47
100
AcDbScale
 70
     0
300
3" = 1'-0"
140
3.0
141
12.0
290
     0
  0
SCALE
  5
57
102
{ACAD_REACTORS
330
47
102
}
330
47
100
AcDbScale
 70
     0
300
6" = 1'-0"
140
6.0
141
12.0
290
     0
  0
SCALE
  5
58
102
{ACAD_REACTORS
330
47
102
}
330
47
100
AcDbScale
 70
     0
300
1'-0" = 1'-0"
140
12.0
141
12.0
290
     0
  0
ENDSEC
  0
EOF
