  0
SECTION
  2
HEADER
  9
$ACADVER
  1
AC1015
  9
$ACADMAINTVER
 70
     6
  9
$DWGCODEPAGE
  3
ANSI_1252
  9
$INSBASE
 10
0.0
 20
0.0
 30
0.0
  9
$EXTMIN
 10
0.0
 20
0.0
 30
0.0
  9
$EXTMAX
 10
24.0
 20
12.0
 30
0.0
  9
$LIMMIN
 10
0.0
 20
0.0
  9
$LIMMAX
 10
24.0
 20
12.0
  9
$ORTHOMODE
 70
     0
  9
$REGENMODE
 70
     1
  9
$FILLMODE
 70
     1
  9
$QTEXTMODE
 70
     0
  9
$MIRRTEXT
 70
     1
  9
$LTSCALE
 40
1.0
  9
$ATTMODE
 70
     1
  9
$TEXTSIZE
 40
0.125
  9
$TRACEWID
 40
0.05
  9
$TEXTSTYLE
  7
Standard
  9
$CLAYER
  8
0
  9
$CELTYPE
  6
ByLayer
  9
$CECOLOR
 62
   256
  9
$CELTSCALE
 40
1.0
  9
$DISPSILH
 70
     0
  9
$DIMSCALE
 40
1.0
  9
$DIMASZ
 40
0.13
  9
$DIMEXO
 40
0.05
  9
$DIMDLI
 40
0.38
  9
$DIMRND
 40
0.0
  9
$DIMDLE
 40
0.0
  9
$DIMEXE
 40
0.125
  9
$DIMTP
 40
0.0
  9
$DIMTM
 40
0.0
  9
$DIMTXT
 40
0.125
  9
$DIMCEN
 40
0.09
  9
$DIMTSZ
 40
0.0
  9
$DIMTOL
 70
     0
  9
$DIMLIM
 70
     0
  9
$DIMTIH
 70
     1
  9
$DIMTOH
 70
     1
  9
$DIMSE1
 70
     0
  9
$DIMSE2
 70
     0
  9
$DIMTAD
 70
     0
  9
$DIMZIN
 70
     1
  9
$DIMBLK
  1

  9
$DIMASO
 70
     1
  9
$DIMSHO
 70
     1
  9
$DIMPOST
  1

  9
$DIMAPOST
  1

  9
$DIMALT
 70
     0
  9
$DIMALTD
 70
     2
  9
$DIMALTF
 40
25.4
  9
$DIMLFAC
 40
1.0
  9
$DIMTOFL
 70
     0
  9
$DIMTVP
 40
0.0
  9
$DIMTIX
 70
     0
  9
$DIMSOXD
 70
     0
  9
$DIMSAH
 70
     0
  9
$DIMBLK1
  1

  9
$DIMBLK2
  1

  9
$DIMSTYLE
  2
Standard
  9
$DIMCLRD
 70
     0
  9
$DIMCLRE
 70
     0
  9
$DIMCLRT
 70
     0
  9
$DIMTFAC
 40
1.0
  9
$DIMGAP
 40
0.06
  9
$DIMJUST
 70
     0
  9
$DIMSD1
 70
     0
  9
$DIMSD2
 70
     0
  9
$DIMTOLJ
 70
     1
  9
$DIMTZIN
 70
     1
  9
$DIMALTZ
 70
     0
  9
$DIMALTTZ
 70
     0
  9
$DIMUPT
 70
     0
  9
$DIMDEC
 70
     2
  9
$DIMTDEC
 70
     2
  9
$DIMALTU
 70
     2
  9
$DIMALTTD
 70
     2
  9
$DIMTXSTY
  7
Standard
  9
$DIMAUNIT
 70
     0
  9
$DIMADEC
 70
     2
  9
$DIMALTRND
 40
0.0
  9
$DIMAZIN
 70
     0
  9
$DIMDSEP
 70
    46
  9
$DIMATFIT
 70
     3
  9
$DIMFRAC
 70
     0
  9
$DIMLDRBLK
  1

  9
$DIMLUNIT
 70
     2
  9
$DIMLWD
 70
    -2
  9
$DIMLWE
 70
    -2
  9
$DIMTMOVE
 70
     0
  9
$LUNITS
 70
     2
  9
$LUPREC
 70
     6
  9
$SKETCHINC
 40
0.1
  9
$FILLETRAD
 40
0.0
  9
$AUNITS
 70
     0
  9
$AUPREC
 70
     2
  9
$MENU
  1
.
  9
$ELEVATION
 40
0.0
  9
$PELEVATION
 40
0.0
  9
$THICKNESS
 40
0.0
  9
$LIMCHECK
 70
     0
  9
$CHAMFERA
 40
0.0
  9
$CHAMFERB
 40
0.0
  9
$CHAMFERC
 40
0.0
  9
$CHAMFERD
 40
0.0
  9
$SKPOLY
 70
     0
  9
$TDCREATE
 40
2461142.547409572
  9
$TDUCREATE
 40
2461142.839076238
  9
$TDUPDATE
 40
2461142.547409861
  9
$TDUUPDATE
 40
2461142.839076528
  9
$TDINDWG
 40
0.0000000116
  9
$TDUSRTIMER
 40
0.0000000116
  9
$USRTIMER
 70
     1
  9
$ANGBASE
 50
0.0
  9
$ANGDIR
 70
     0
  9
$PDMODE
 70
     0
  9
$PDSIZE
 40
-1.0
  9
$PLINEWID
 40
0.0
  9
$SPLFRAME
 70
     0
  9
$SPLINETYPE
 70
     6
  9
$SPLINESEGS
 70
     8
  9
$HANDSEED
  5
E6
  9
$SURFTAB1
 70
     6
  9
$SURFTAB2
 70
     6
  9
$SURFTYPE
 70
     6
  9
$SURFU
 70
     6
  9
$SURFV
 70
     6
  9
$UCSBASE
  2

  9
$UCSNAME
  2

  9
$UCSORG
 10
0.0
 20
0.0
 30
0.0
  9
$UCSXDIR
 10
1.0
 20
0.0
 30
0.0
  9
$UCSYDIR
 10
0.0
 20
1.0
 30
0.0
  9
$UCSORTHOREF
  2

  9
$UCSORTHOVIEW
 70
     0
  9
$UCSORGTOP
 10
0.0
 20
0.0
 30
0.0
  9
$UCSORGBOTTOM
 10
0.0
 20
0.0
 30
0.0
  9
$UCSORGLEFT
 10
0.0
 20
0.0
 30
0.0
  9
$UCSORGRIGHT
 10
0.0
 20
0.0
 30
0.0
  9
$UCSORGFRONT
 10
0.0
 20
0.0
 30
0.0
  9
$UCSORGBACK
 10
0.0
 20
0.0
 30
0.0
  9
$PUCSBASE
  2

  9
$PUCSNAME
  2

  9
$PUCSORG
 10
0.0
 20
0.0
 30
0.0
  9
$PUCSXDIR
 10
1.0
 20
0.0
 30
0.0
  9
$PUCSYDIR
 10
0.0
 20
1.0
 30
0.0
  9
$PUCSORTHOREF
  2

  9
$PUCSORTHOVIEW
 70
     0
  9
$PUCSORGTOP
 10
0.0
 20
0.0
 30
0.0
  9
$PUCSORGBOTTOM
 10
0.0
 20
0.0
 30
0.0
  9
$PUCSORGLEFT
 10
0.0
 20
0.0
 30
0.0
  9
$PUCSORGRIGHT
 10
0.0
 20
0.0
 30
0.0
  9
$PUCSORGFRONT
 10
0.0
 20
0.0
 30
0.0
  9
$PUCSORGBACK
 10
0.0
 20
0.0
 30
0.0
  9
$USERI1
 70
     0
  9
$USERI2
 70
     0
  9
$USERI3
 70
     0
  9
$USERI4
 70
     0
  9
$USERI5
 70
     0
  9
$USERR1
 40
0.0
  9
$USERR2
 40
0.0
  9
$USERR3
 40
0.0
  9
$USERR4
 40
0.0
  9
$USERR5
 40
0.0
  9
$WORLDVIEW
 70
     1
  9
$SHADEDGE
 70
     3
  9
$SHADEDIF
 70
    70
  9
$TILEMODE
 70
     1
  9
$MAXACTVP
 70
    64
  9
$PINSBASE
 10
0.0
 20
0.0
 30
0.0
  9
$PLIMCHECK
 70
     0
  9
$PEXTMIN
 10
1.0000000000E+20
 20
1.0000000000E+20
 30
1.0000000000E+20
  9
$PEXTMAX
 10
-1.0000000000E+20
 20
-1.0000000000E+20
 30
-1.0000000000E+20
  9
$PLIMMIN
 10
0.0
 20
0.0
  9
$PLIMMAX
 10
12.0
 20
9.0
  9
$UNITMODE
 70
     0
  9
$VISRETAIN
 70
     1
  9
$PLINEGEN
 70
     0
  9
$PSLTSCALE
 70
     1
  9
$TREEDEPTH
 70
  3020
  9
$CMLSTYLE
  2
Standard
  9
$CMLJUST
 70
     0
  9
$CMLSCALE
 40
1.0
  9
$PROXYGRAPHICS
 70
     1
  9
$MEASUREMENT
 70
     0
  9
$CELWEIGHT
370
    -1
  9
$ENDCAPS
280
     0
  9
$JOINSTYLE
280
     0
  9
$LWDISPLAY
290
     1
  9
$INSUNITS
 70
     1
  9
$HYPERLINKBASE
  1

  9
$STYLESHEET
  1

  9
$XEDIT
290
     1
  9
$CEPSNTYPE
380
     0
  9
$PSTYLEMODE
290
     1
  9
$FINGERPRINTGUID
  2
{9557f83f-570e-4917-8be4-852a96d30fb7}
  9
$VERSIONGUID
  2
{FAEB1C32-E019-11D5-929B-00C0DF256EC4}
  9
$EXTNAMES
290
     1
  9
$PSVPSCALE
 40
0.0
  9
$OLESTARTUP
290
     0
  0
ENDSEC
  0
SECTION
  2
CLASSES
  0
CLASS
  1
ACDBDICTIONARYWDFLT
  2
AcDbDictionaryWithDefault
  3
ObjectDBX Classes
 90
        0
280
     0
281
     0
  0
CLASS
  1
VISUALSTYLE
  2
AcDbVisualStyle
  3
ObjectDBX Classes
 90
     4095
280
     0
281
     0
  0
CLASS
  1
MATERIAL
  2
AcDbMaterial
  3
ObjectDBX Classes
 90
     1153
280
     0
281
     0
  0
CLASS
  1
SCALE
  2
AcDbScale
  3
ObjectDBX Classes
 90
     1153
280
     0
281
     0
  0
CLASS
  1
TABLESTYLE
  2
AcDbTableStyle
  3
ObjectDBX Classes
 90
     4095
280
     0
281
     0
  0
CLASS
  1
MLEADERSTYLE
  2
AcDbMLeaderStyle
  3
ACDB_MLEADERSTYLE_CLASS
 90
     4095
280
     0
281
     0
  0
CLASS
  1
SUN
  2
AcDbSun
  3
SCENEOE
 90
     1153
280
     0
281
     0
  0
CLASS
  1
ACDBPLACEHOLDER
  2
AcDbPlaceHolder
  3
ObjectDBX Classes
 90
        0
280
     0
281
     0
  0
CLASS
  1
LAYOUT
  2
AcDbLayout
  3
ObjectDBX Classes
 90
        0
280
     0
281
     0
  0
ENDSEC
  0
SECTION
  2
TABLES
  0
TABLE
  2
VPORT
  5
8
330
0
100
AcDbSymbolTable
 70
     1
  0
VPORT
  5
29
330
8
100
AcDbSymbolTableRecord
100
AcDbViewportTableRecord
  2
*Active
 70
     0
 10
0.0
 20
0.0
 11
1.0
 21
1.0
 12
12.0
 22
6.0
 13
0.0
 23
0.0
 14
0.5
 24
0.5
 15
0.5
 25
0.5
 16
0.0
 26
0.0
 36
1.0
 17
0.0
 27
0.0
 37
0.0
 40
12.0
 41
2.0
 42
50.0
 43
0.0
 44
0.0
 50
0.0
 51
0.0
 71
     0
 72
  2000
 73
     1
 74
     3
 75
     0
 76
     0
 77
     0
 78
     0
281
     0
 65
     1
110
0.0
120
0.0
130
0.0
111
1.0
121
0.0
131
0.0
112
0.0
122
1.0
132
0.0
 79
     0
146
0.0
  0
ENDTAB
  0
TABLE
  2
LTYPE
  5
5
330
0
100
AcDbSymbolTable
 70
     6
  0
LTYPE
  5
14
330
5
100
AcDbSymbolTableRecord
100
AcDbLinetypeTableRecord
  2
ByBlock
 70
     0
  3

 72
    65
 73
     0
 40
0.0
  0
LTYPE
  5
15
330
5
100
AcDbSymbolTableRecord
100
AcDbLinetypeTableRecord
  2
ByLayer
 70
     0
  3

 72
    65
 73
     0
 40
0.0
  0
LTYPE
  5
16
330
5
100
AcDbSymbolTableRecord
100
AcDbLinetypeTableRecord
  2
Continuous
 70
     0
  3
Solid line
 72
    65
 73
     0
 40
0.0
  0
LTYPE
  5
5E
330
5
100
AcDbSymbolTableRecord
100
AcDbLinetypeTableRecord
  2
HIDDEN
 70
     0
  3
Hidden __ __ __ __ __ __ __ __ __ __ __ __ __ __
 72
    65
 73
     2
 40
0.075
 49
0.05
 74
     0
 49
-0.025
 74
     0
  0
LTYPE
  5
5F
330
5
100
AcDbSymbolTableRecord
100
AcDbLinetypeTableRecord
  2
PHANTOM
 70
     0
  3
Phantom ______  __  __  ______  __  __  ______
 72
    65
 73
     6
 40
0.5
 49
0.25
 74
     0
 49
-0.05
 74
     0
 49
0.05
 74
     0
 49
-0.05
 74
     0
 49
0.05
 74
     0
 49
-0.05
 74
     0
  0
LTYPE
  5
60
330
5
100
AcDbSymbolTableRecord
100
AcDbLinetypeTableRecord
  2
CENTER
 70
     0
  3
Center ____ _ ____ _ ____ _ ____ _ ____ _ ____
 72
    65
 73
     4
 40
0.4
 49
0.25
 74
     0
 49
-0.05
 74
     0
 49
0.05
 74
     0
 49
-0.05
 74
     0
  0
LTYPE
  5
61
330
5
100
AcDbSymbolTableRecord
100
AcDbLinetypeTableRecord
  2
CENTERX2
 70
     0
  3
Center (2x) ________  __  ________  __  _____
 72
    65
 73
     4
 40
0.8
 49
0.5
 74
     0
 49
-0.1
 74
     0
 49
0.1
 74
     0
 49
-0.1
 74
     0
  0
LTYPE
  5
62
330
5
100
AcDbSymbolTableRecord
100
AcDbLinetypeTableRecord
  2
DOT2
 70
     0
  3
Dot (.5x) ........................................
 72
    65
 73
     2
 40
0.025
 49
0.0
 74
     0
 49
-0.025
 74
     0
  0
ENDTAB
  0
TABLE
  2
LAYER
  5
2
330
0
100
AcDbSymbolTable
 70
     3
  0
LAYER
  5
10
330
2
100
AcDbSymbolTableRecord
100
AcDbLayerTableRecord
  2
0
 70
     0
 62
     7
  6
Continuous
370
    -3
390
F
  0
LAYER
  5
63
330
2
100
AcDbSymbolTableRecord
100
AcDbLayerTableRecord
  2
FORMAT
 70
     0
 62
     7
  6
Continuous
370
    -3
390
F
  0
LAYER
  5
64
330
2
100
AcDbSymbolTableRecord
100
AcDbLayerTableRecord
  2
PART_NAMES
 70
     0
 62
     1
  6
Continuous
370
    -3
390
F
  0
ENDTAB
  0
TABLE
  2
STYLE
  5
3
330
0
100
AcDbSymbolTable
 70
     2
  0
STYLE
  5
11
330
3
100
AcDbSymbolTableRecord
100
AcDbTextStyleTableRecord
  2
Standard
 70
     0
 40
0.0
 41
1.0
 50
0.0
 71
     0
 42
0.125
  3
txt
  4

  0
STYLE
  5
E2
330
3
100
AcDbSymbolTableRecord
100
AcDbTextStyleTableRecord
  2
SLDTEXTSTYLE0
 70
     0
 40
0.0
 41
0.7
 50
0.0
 71
     0
 42
0.125
  3
TXT
  4

  0
ENDTAB
  0
TABLE
  2
VIEW
  5
6
330
0
100
AcDbSymbolTable
 70
     0
  0
ENDTAB
  0
TABLE
  2
UCS
  5
7
330
0
100
AcDbSymbolTable
 70
     0
  0
ENDTAB
  0
TABLE
  2
APPID
  5
9
330
0
100
AcDbSymbolTable
 70
     1
  0
APPID
  5
12
330
9
100
AcDbSymbolTableRecord
100
AcDbRegAppTableRecord
  2
ACAD
 70
     0
  0
ENDTAB
  0
TABLE
  2
DIMSTYLE
  5
A
330
0
100
AcDbSymbolTable
 70
     1
100
AcDbDimStyleTable
  0
DIMSTYLE
105
27
330
A
100
AcDbSymbolTableRecord
100
AcDbDimStyleTableRecord
  2
Standard
 70
     0
178
     0
340
11
  0
ENDTAB
  0
TABLE
  2
BLOCK_RECORD
  5
1
330
0
100
AcDbSymbolTable
 70
     1
  0
BLOCK_RECORD
  5
1F
330
1
100
AcDbSymbolTableRecord
100
AcDbBlockTableRecord
  2
*Model_Space
340
22
  0
BLOCK_RECORD
  5
1B
330
1
100
AcDbSymbolTableRecord
100
AcDbBlockTableRecord
  2
*Paper_Space
340
1E
  0
BLOCK_RECORD
  5
23
330
1
100
AcDbSymbolTableRecord
100
AcDbBlockTableRecord
  2
*Paper_Space0
340
26
  0
ENDTAB
  0
ENDSEC
  0
SECTION
  2
BLOCKS
  0
BLOCK
  5
20
330
1F
100
AcDbEntity
  8
0
100
AcDbBlockBegin
  2
*Model_Space
 70
     0
 10
0.0
 20
0.0
 30
0.0
  3
*Model_Space
  1

  0
ENDBLK
  5
21
330
1F
100
AcDbEntity
  8
0
100
AcDbBlockEnd
  0
BLOCK
  5
1C
330
1B
100
AcDbEntity
 67
     1
  8
0
100
AcDbBlockBegin
  2
*Paper_Space
 70
     0
 10
0.0
 20
0.0
 30
0.0
  3
*Paper_Space
  1

  0
ENDBLK
  5
1D
330
1B
100
AcDbEntity
 67
     1
  8
0
100
AcDbBlockEnd
  0
BLOCK
  5
24
330
23
100
AcDbEntity
  8
0
100
AcDbBlockBegin
  2
*Paper_Space0
 70
     0
 10
0.0
 20
0.0
 30
0.0
  3
*Paper_Space0
  1

  0
ENDBLK
  5
25
330
23
100
AcDbEntity
  8
0
100
AcDbBlockEnd
  0
ENDSEC
  0
SECTION
  2
ENTITIES
  0
LINE
  5
65
330
1F
100
AcDbEntity
  8
0
  6
CENTERX2
 62
     7
370
    18
100
AcDbLine
 10
0.25
 20
0.25
 30
0.0
 11
0.25
 21
11.75
 31
0.0
  0
LINE
  5
66
330
1F
100
AcDbEntity
  8
0
  6
CENTERX2
 62
     7
370
    18
100
AcDbLine
 10
0.25
 20
0.25
 30
0.0
 11
23.75
 21
0.25
 31
0.0
  0
LINE
  5
67
330
1F
100
AcDbEntity
  8
0
  6
CENTERX2
 62
     7
370
    18
100
AcDbLine
 10
23.75
 20
0.25
 30
0.0
 11
23.75
 21
11.75
 31
0.0
  0
LINE
  5
68
330
1F
100
AcDbEntity
  8
0
  6
CENTERX2
 62
     7
370
    18
100
AcDbLine
 10
23.75
 20
11.75
 30
0.0
 11
0.25
 21
11.75
 31
0.0
  0
LINE
  5
69
330
1F
100
AcDbEntity
  8
0
  6
Continuous
 62
     7
370
    25
100
AcDbLine
 10
8.9924958824
 20
10.1841595352
 30
0.0
 11
8.9924958824
 21
9.9333061891
 31
0.0
  0
LINE
  5
6A
330
1F
100
AcDbEntity
  8
0
  6
Continuous
 62
     7
370
    25
100
AcDbLine
 10
8.8924958824
 20
10.1841595352
 30
0.0
 11
8.9924958824
 21
10.1841595352
 31
0.0
  0
LINE
  5
6B
330
1F
100
AcDbEntity
  8
0
  6
Continuous
 62
     7
370
    25
100
AcDbLine
 10
8.8924958824
 20
9.919772749
 30
0.0
 11
8.8924958824
 21
10.1841595352
 31
0.0
  0
SPLINE
  5
6C
330
1F
100
AcDbEntity
  8
0
  6
Continuous
 62
     7
370
    25
100
AcDbSpline
210
0.0
220
0.0
230
1.0
 70
     8
 71
     3
 72
    24
 73
    20
 74
     0
 42
0.00000001
 43
0.00000001
 40
0.3866147813967487
 40
0.3866147813967487
 40
0.3866147813967487
 40
0.3866147813967487
 40
0.3905971920125595
 40
0.4053325933244345
 40
0.4201748232382708
 40
0.4351095324912683
 40
0.4501242754237687
 40
0.4652030674233001
 40
0.4803331536767922
 40
0.4955005830647262
 40
0.5106897745900436
 40
0.525887334259988
 40
0.5410783137590276
 40
0.5562472331053485
 40
0.5713817841937842
 40
0.5864660402850772
 40
0.6014845155316786
 40
0.6164243284126624
 40
0.6267010430416889
 40
0.6267010430416889
 40
0.6267010430416889
 40
0.6267010430416889
 10
5.547793529109815
 20
9.477264947208093
 30
0.0
 10
5.566317779452906
 20
9.479467240361204
 30
0.0
 10
5.653379461838259
 20
9.489856456660636
 30
0.0
 10
5.809439998615336
 20
9.508787570450997
 30
0.0
 10
6.016357320353108
 20
9.534495043243084
 30
0.0
 10
6.224508131090571
 20
9.560881232070242
 30
0.0
 10
6.433705219052097
 20
9.587821897356834
 30
0.0
 10
6.643752740176833
 20
9.615320112068552
 30
0.0
 10
6.854474029582736
 20
9.643179962637328
 30
0.0
 10
7.065665874496795
 20
9.671424393917468
 30
0.0
 10
7.277144447041858
 20
9.699908145028695
 30
0.0
 10
7.488713983332456
 20
9.728542679778597
 30
0.0
 10
7.700168412996402
 20
9.757319184962773
 30
0.0
 10
7.911321860235629
 20
9.786118403901783
 30
0.0
 10
8.121978443643743
 20
9.814861276850138
 30
0.0
 10
8.331931821081087
 20
9.84354517768923
 30
0.0
 10
8.540992040298704
 20
9.872027535244555
 30
0.0
 10
8.727744284200226
 20
9.897427822684223
 30
0.0
 10
8.844792794090244
 20
9.913309678249629
 30
0.0
 10
8.892495882419869
 20
9.919772748960442
 30
0.0
  0
LINE
  5
6D
330
1F
100
AcDbEntity
  8
0
  6
Continuous
 62
     7
370
    25
100
AcDbLine
 10
5.5477935291
 20
9.4772649472
 30
0.0
 11
5.5257203299
 21
9.6629331038
 31
0.0
  0
LINE
  5
6E
330
1F
100
AcDbEntity
  8
0
  6
Continuous
 62
     7
370
    25
100
AcDbLine
 10
5.5257203299
 20
9.6629331038
 30
0.0
 11
5.3395314818
 21
9.6407980034
 31
0.0
  0
LINE
  5
6F
330
1F
100
AcDbEntity
  8
0
  6
Continuous
 62
     7
370
    25
100
AcDbLine
 10
5.3395314818
 20
9.6407980034
 30
0.0
 11
5.3609762524
 21
9.4553511606
 31
0.0
  0
SPLINE
  5
70
330
1F
100
AcDbEntity
  8
0
  6
Continuous
 62
     7
370
    25
100
AcDbSpline
210
0.0
220
0.0
230
1.0
 70
     8
 71
     3
 72
    27
 73
    23
 74
     0
 42
0.00000001
 43
0.00000001
 40
0.1328959750305297
 40
0.1328959750305297
 40
0.1328959750305297
 40
0.1328959750305297
 40
0.137285270394336
 40
0.1473879174302012
 40
0.1578164804844925
 40
0.1685634727934591
 40
0.1796191281626775
 40
0.1909773731156224
 40
0.2026269737409965
 40
0.2145604780706986
 40
0.2267672492903836
 40
0.239236416846052
 40
0.251959003670536
 40
0.2649238944111235
 40
0.2781197024784939
 40
0.2915360350608409
 40
0.3051602794847979
 40
0.3189806850289152
 40
0.332985498831108
 40
0.3471627903041679
 40
0.3614986024982836
 40
0.3732296957080536
 40
0.3732296957080536
 40
0.3732296957080536
 40
0.3732296957080536
 10
1.992495882414179
 20
9.271041178842154
 30
0.0
 10
2.013022863381245
 20
9.269860686400943
 30
0.0
 10
2.080810655818686
 20
9.266219115577309
 30
0.0
 10
2.197447632453854
 20
9.261334086138982
 30
0.0
 10
2.343916762629122
 20
9.257441623535819
 30
0.0
 10
2.494888951090796
 20
9.255535878177858
 30
0.0
 10
2.650227761242073
 20
9.255588239743757
 30
0.0
 10
2.809781234712239
 20
9.25761271319518
 30
0.0
 10
2.973413075143233
 20
9.26149745954947
 30
0.0
 10
3.140966259600325
 20
9.267267085538233
 30
0.0
 10
3.312289521290881
 20
9.274851771742885
 30
0.0
 10
3.487228324339263
 20
9.284175189052734
 30
0.0
 10
3.665625767712783
 20
9.295205730042627
 30
0.0
 10
3.847324855629121
 20
9.307894508457712
 30
0.0
 10
4.032167823199697
 20
9.322139766662728
 30
0.0
 10
4.219986757764004
 20
9.337905972367098
 30
0.0
 10
4.41061785621736
 20
9.355101228202383
 30
0.0
 10
4.603892351633176
 20
9.373639451420708
 30
0.0
 10
4.799643258175248
 20
9.393461971612512
 30
0.0
 10
4.997697790789322
 20
9.414475542623526
 30
0.0
 10
5.18507091621919
 20
9.435195664377778
 30
0.0
 10
5.306388306617268
 20
9.449039217227517
 30
0.0
 10
5.360976252390834
 20
9.455351160602085
 30
0.0
  0
LINE
  5
71
330
1F
100
AcDbEntity
  8
0
  6
Continuous
 62
     7
370
    25
100
AcDbLine
 10
1.9924958824
 20
9.5210411788
 30
0.0
 11
1.9924958824
 21
9.2710411788
 31
0.0
  0
LINE
  5
72
330
1F
100
AcDbEntity
  8
0
  6
Continuous
 62
     7
370
    25
100
AcDbLine
 10
1.8674958824
 20
9.5210411788
 30
0.0
 11
1.9924958824
 21
9.5210411788
 31
0.0
  0
LINE
  5
73
330
1F
100
AcDbEntity
  8
0
  6
Continuous
 62
     7
370
    25
100
AcDbLine
 10
1.8674958824
 20
9.2792273087
 30
0.0
 11
1.8674958824
 21
9.5210411788
 31
0.0
  0
LINE
  5
74
330
1F
100
AcDbEntity
  8
0
  6
Continuous
 62
     7
370
    25
100
AcDbLine
 10
1.1657591335
 20
9.3750005049
 30
0.0
 11
1.2063790058
 21
9.5612632324
 31
0.0
  0
LINE
  5
75
330
1F
100
AcDbEntity
  8
0
  6
Continuous
 62
     7
370
    25
100
AcDbLine
 10
1.2063790058
 20
9.5612632324
 30
0.0
 11
1.0231883193
 21
9.6012108963
 31
0.0
  0
LINE
  5
76
330
1F
100
AcDbEntity
  8
0
  6
Continuous
 62
     7
370
    25
100
AcDbLine
 10
1.0231883193
 20
9.6012108963
 30
0.0
 11
0.9838993211
 21
9.4210376209
 31
0.0
  0
SPLINE
  5
77
330
1F
100
AcDbEntity
  8
0
  6
Continuous
 62
     7
370
    25
100
AcDbSpline
210
0.0
220
0.0
230
1.0
 70
     8
 71
     3
 72
    18
 73
    14
 74
     0
 42
0.00000001
 43
0.00000001
 40
0.0093040838634568
 40
0.0093040838634568
 40
0.0093040838634568
 40
0.0093040838634568
 40
0.0110281364107883
 40
0.0149010810938974
 40
0.0189632717648125
 40
0.0232584753965098
 40
0.0278206260245701
 40
0.0326790824344228
 40
0.0378531598254654
 40
0.0433618746792066
 40
0.0492146789902185
 40
0.0554223461408885
 40
0.0601915524685043
 40
0.0601915524685043
 40
0.0601915524685043
 40
0.0601915524685043
 10
0.3901647832005328
 20
9.789218100265096
 30
0.0
 10
0.3940914455516233
 20
9.782156696772304
 30
0.0
 10
0.4074904271609709
 20
9.759601485318662
 30
0.0
 10
0.4341614189750007
 20
9.722906753635066
 30
0.0
 10
0.4729171905072748
 20
9.680573419335332
 30
0.0
 10
0.5181197699472018
 20
9.640196571658628
 30
0.0
 10
0.5697248272966907
 20
9.601797920158559
 30
0.0
 10
0.6276648207703126
 20
9.565394940388089
 30
0.0
 10
0.6918555838406344
 20
9.530948989231796
 30
0.0
 10
0.7622249661480847
 20
9.498481482581475
 30
0.0
 10
0.8387088049674518
 20
9.468002566740834
 30
0.0
 10
0.9132622421113059
 20
9.442297966657772
 30
0.0
 10
0.9624446109298525
 20
9.427270396832133
 30
0.0
 10
0.9838993210588998
 20
9.421037620949756
 30
0.0
  0
LINE
  5
78
330
1F
100
AcDbEntity
  8
0
  6
Continuous
 62
     7
370
    25
100
AcDbLine
 10
0.3901647833
 20
9.7892181003
 30
0.0
 11
0.7055398744
 21
9.7892181003
 31
0.0
  0
LINE
  5
79
330
1F
100
AcDbEntity
  8
0
  6
Continuous
 62
     7
370
    25
100
AcDbLine
 10
0.7055398744
 20
9.7892181003
 30
0.0
 11
0.7055398744
 21
10.1642181003
 31
0.0
  0
LINE
  5
7A
330
1F
100
AcDbEntity
  8
0
  6
Continuous
 62
     7
370
    25
100
AcDbLine
 10
0.7055398744
 20
10.1642181003
 30
0.0
 11
0.3866362601
 21
10.1642181003
 31
0.0
  0
LINE
  5
7B
330
1F
100
AcDbEntity
  8
0
  6
Continuous
 62
     7
370
    25
100
AcDbLine
 10
1.6637030151
 20
11.0057925696
 30
0.0
 11
1.7207175073
 21
10.8348052806
 31
0.0
  0
LINE
  5
7C
330
1F
100
AcDbEntity
  8
0
  6
Continuous
 62
     7
370
    25
100
AcDbLine
 10
1.7207175073
 20
10.8348052806
 30
0.0
 11
1.8985897554
 21
10.8941153801
 31
0.0
  0
LINE
  5
7D
330
1F
100
AcDbEntity
  8
0
  6
Continuous
 62
     7
370
    25
100
AcDbLine
 10
1.8985897554
 20
10.8941153801
 30
0.0
 11
1.8407204043
 21
11.0676670364
 31
0.0
  0
SPLINE
  5
7E
330
1F
100
AcDbEntity
  8
0
  6
Continuous
 62
     7
370
    25
100
AcDbSpline
210
0.0
220
0.0
230
1.0
 70
     8
 71
     3
 72
    17
 73
    13
 74
     0
 42
0.00000001
 43
0.00000001
 40
0.7577814809663989
 40
0.7577814809663989
 40
0.7577814809663989
 40
0.7577814809663989
 40
0.7647920417248709
 40
0.7772081518672121
 40
0.7893556848810181
 40
0.8012239599201559
 40
0.812803685489285
 40
0.8240829093115394
 40
0.835054602249106
 40
0.8457095711187855
 40
0.8560378532059363
 40
0.8629666305629946
 40
0.8629666305629946
 40
0.8629666305629946
 40
0.8629666305629946
 10
3.336630779868848
 20
11.42874633882111
 30
0.0
 10
3.302884423463927
 20
11.42305950587731
 30
0.0
 10
3.209432752186928
 20
11.40693661392302
 30
0.0
 10
3.057844458335937
 20
11.37903837363063
 30
0.0
 10
2.883425584426796
 20
11.34428115565546
 30
0.0
 10
2.713558481163822
 20
11.30767851504188
 30
0.0
 10
2.548422961851127
 20
11.26934024878611
 30
0.0
 10
2.388190645302537
 20
11.22933315247778
 30
0.0
 10
2.233033777591418
 20
11.18773046609732
 30
0.0
 10
2.083109642957357
 20
11.1446320178694
 30
0.0
 10
1.952880499760698
 20
11.1045411054411
 30
0.0
 10
1.872797931672055
 20
11.07839287383286
 30
0.0
 10
1.840720404317737
 20
11.06766703639983
 30
0.0
  0
LINE
  5
7F
330
1F
100
AcDbEntity
  8
0
  6
Continuous
 62
     7
370
    25
100
AcDbLine
 10
3.3366307799
 20
11.4287463388
 30
0.0
 11
3.3669007646
 21
11.2487780931
 31
0.0
  0
LINE
  5
80
330
1F
100
AcDbEntity
  8
0
  6
Continuous
 62
     7
370
    25
100
AcDbLine
 10
3.3669007646
 20
11.2487780931
 30
0.0
 11
3.5522204631
 21
11.2772886974
 31
0.0
  0
LINE
  5
81
330
1F
100
AcDbEntity
  8
0
  6
Continuous
 62
     7
370
    25
100
AcDbLine
 10
3.5522204631
 20
11.2772886974
 30
0.0
 11
3.5242646964
 21
11.4590020461
 31
0.0
  0
SPLINE
  5
82
330
1F
100
AcDbEntity
  8
0
  6
Continuous
 62
     7
370
    25
100
AcDbSpline
210
0.0
220
0.0
230
1.0
 70
     8
 71
     3
 72
    16
 73
    12
 74
     0
 42
0.00000001
 43
0.00000001
 40
0.6396753217898591
 40
0.6396753217898591
 40
0.6396753217898591
 40
0.6396753217898591
 40
0.6428886748646123
 40
0.6571860539204686
 40
0.6713255457001549
 40
0.6852940137413153
 40
0.6990781473421308
 40
0.7126650948765018
 40
0.7260426446451609
 40
0.7391977130340875
 40
0.7448033276638337
 40
0.7448033276638337
 40
0.7448033276638337
 40
0.7448033276638337
 10
5.054995882415991
 20
11.61827430098452
 30
0.0
 10
5.03933786083683
 20
11.61733812407494
 30
0.0
 10
4.95401770650983
 20
11.61213418586967
 30
0.0
 10
4.799866231303589
 20
11.60171990020222
 30
0.0
 10
4.593502962277147
 20
11.58542937676943
 30
0.0
 10
4.389839529148808
 20
11.56695272777861
 30
0.0
 10
4.189089373098443
 20
11.54636697080772
 30
0.0
 10
3.991475997749989
 20
11.52361611571033
 30
0.0
 10
3.79721118485591
 20
11.4987648951581
 30
0.0
 10
3.6418627715798
 20
11.476849665492
 30
0.0
 10
3.551309314909871
 20
11.46316986266842
 30
0.0
 10
3.52426469638371
 20
11.45900204614507
 30
0.0
  0
LINE
  5
83
330
1F
100
AcDbEntity
  8
0
  6
Continuous
 62
     7
370
    25
100
AcDbLine
 10
5.0549958824
 20
11.3781040069
 30
0.0
 11
5.0549958824
 21
11.618274301
 31
0.0
  0
LINE
  5
84
330
1F
100
AcDbEntity
  8
0
  6
Continuous
 62
     7
370
    25
100
AcDbLine
 10
5.3049958824
 20
11.3781040069
 30
0.0
 11
5.0549958824
 21
11.3781040069
 31
0.0
  0
LINE
  5
85
330
1F
100
AcDbEntity
  8
0
  6
Continuous
 62
     7
370
    25
100
AcDbLine
 10
5.3049958824
 20
11.6316227254
 30
0.0
 11
5.3049958824
 21
11.3781040069
 31
0.0
  0
SPLINE
  5
86
330
1F
100
AcDbEntity
  8
0
  6
Continuous
 62
     7
370
    25
100
AcDbSpline
210
0.0
220
0.0
230
1.0
 70
     8
 71
     3
 72
    18
 73
    14
 74
     0
 42
0.00000001
 43
0.00000001
 40
0.472204694106645
 40
0.472204694106645
 40
0.472204694106645
 40
0.472204694106645
 40
0.4792840086398029
 40
0.4943697396596146
 40
0.509457832518261
 40
0.5245323462054061
 40
0.5395793197824217
 40
0.554582983723926
 40
0.569529545896398
 40
0.5844034167404002
 40
0.599190991805798
 40
0.6138768379324343
 40
0.6225796261150676
 40
0.6225796261150676
 40
0.6225796261150676
 40
0.6225796261150676
 10
7.506373765940001
 20
11.62815994109828
 30
0.0
 10
7.471852048000645
 20
11.62973415496883
 30
0.0
 10
7.363756630162088
 20
11.63445844574572
 30
0.0
 10
7.182033338278911
 20
11.64130789016565
 30
0.0
 10
6.961247046388712
 20
11.64778527701472
 30
0.0
 10
6.740602261626658
 20
11.65235950810108
 30
0.0
 10
6.52033788627129
 20
11.65500182408954
 30
0.0
 10
6.300683029492417
 20
11.65564002584425
 30
0.0
 10
6.081876482075178
 20
11.65426269630994
 30
0.0
 10
5.864147370302306
 20
11.65082254395527
 30
0.0
 10
5.647734728570049
 20
11.64527247447508
 30
0.0
 10
5.461494001959152
 20
11.63862402468071
 30
0.0
 10
5.347431579820332
 20
11.63361922949126
 30
0.0
 10
5.304995882416482
 20
11.63162272542834
 30
0.0
  0
LINE
  5
87
330
1F
100
AcDbEntity
  8
0
  6
Continuous
 62
     7
370
    25
100
AcDbLine
 10
7.5063737659
 20
11.6281599411
 30
0.0
 11
7.4980397344
 21
11.4450020784
 31
0.0
  0
LINE
  5
88
330
1F
100
AcDbEntity
  8
0
  6
Continuous
 62
     7
370
    25
100
AcDbLine
 10
7.4980397344
 20
11.4450020784
 30
0.0
 11
7.6852836695
 21
11.4352089008
 31
0.0
  0
LINE
  5
89
330
1F
100
AcDbEntity
  8
0
  6
Continuous
 62
     7
370
    25
100
AcDbLine
 10
7.6852836695
 20
11.4352089008
 30
0.0
 11
7.6948947613
 21
11.618917707
 31
0.0
  0
LINE
  5
8A
330
1F
100
AcDbEntity
  8
0
  6
Continuous
 62
     7
370
    25
100
AcDbLine
 10
13.048109335
 20
10.5161354505
 30
0.0
 11
12.9895510191
 21
10.4057002947
 31
0.0
  0
LINE
  5
8B
330
1F
100
AcDbEntity
  8
0
  6
Continuous
 62
     7
370
    25
100
AcDbLine
 10
12.9895510191
 20
10.4057002947
 30
0.0
 11
13.8730322656
 21
9.9372337674
 31
0.0
  0
SPLINE
  5
8C
330
1F
100
AcDbEntity
  8
0
  6
Continuous
 62
     7
370
    25
100
AcDbSpline
210
0.0
220
0.0
230
1.0
 70
     8
 71
     3
 72
    41
 73
    37
 74
     0
 42
0.00000001
 43
0.00000001
 40
0.6338819257365612
 40
0.6338819257365612
 40
0.6338819257365612
 40
0.6338819257365612
 40
0.6460065235681911
 40
0.6606206839889271
 40
0.6750981873055768
 40
0.6894228577483599
 40
0.703581824424855
 40
0.716907563139731
 40
0.7300092741373179
 40
0.7429521277087846
 40
0.7557255577675005
 40
0.7683199514598861
 40
0.78072433704288
 40
0.7929265286498738
 40
0.8049160410043702
 40
0.8166790838656858
 40
0.828203523977515
 40
0.8394749001742062
 40
0.8504813585641731
 40
0.8612076963923532
 40
0.8716393254866619
 40
0.8817634137490281
 40
0.8915636047146048
 40
0.9010273642081712
 40
0.9101389767554011
 40
0.9188839761456715
 40
0.9272492776464382
 40
0.9352211033101607
 40
0.9427847381068416
 40
0.9499281871675053
 40
0.9566384643063102
 40
0.9629042033149599
 40
0.9687122874766736
 40
0.9740544843513892
 40
0.9789184318951419
 40
0.9832317873703094
 40
0.9832317873703094
 40
0.9832317873703094
 40
0.9832317873703094
 10
8.992495882420059
 20
9.9333061890661
 30
0.0
 10
9.048778910431373
 20
9.940914243817046
 30
0.0
 10
9.172906213798251
 20
9.957658758330608
 30
0.0
 10
9.36425793647718
 20
9.983346347578896
 30
0.0
 10
9.565841597309884
 20
10.01027085168665
 30
0.0
 10
9.765325507918133
 20
10.0368141680236
 30
0.0
 10
9.959522524967806
 20
10.06217063954596
 30
0.0
 10
10.14792521104019
 20
10.08769050752767
 30
0.0
 10
10.33116844607492
 20
10.10861114298363
 30
0.0
 10
10.51213007184725
 20
10.12646765864426
 30
0.0
 10
10.690998059053
 20
10.14110753664376
 30
0.0
 10
10.86755762832952
 20
10.15274140222352
 30
0.0
 10
11.04160648198049
 20
10.1614523836936
 30
0.0
 10
11.21293718958603
 20
10.16736209641959
 30
0.0
 10
11.38133333656278
 20
10.17064586117267
 30
0.0
 10
11.54658458744046
 20
10.17138701077732
 30
0.0
 10
11.70846538582557
 20
10.1698219036517
 30
0.0
 10
11.86676518783506
 20
10.16607670003046
 30
0.0
 10
12.02126305886699
 20
10.16031950433071
 30
0.0
 10
12.17174346140478
 20
10.15274455344712
 30
0.0
 10
12.3179926529362
 20
10.14355834744593
 30
0.0
 10
12.45979107042028
 20
10.13289638920522
 30
0.0
 10
12.59694112029102
 20
10.1210075872272
 30
0.0
 10
12.72923120014285
 20
10.10806598080312
 30
0.0
 10
12.85645817830268
 20
10.09421942961645
 30
0.0
 10
12.97843641273047
 20
10.07975807394596
 30
0.0
 10
13.09497066284514
 20
10.06477712767034
 30
0.0
 10
13.20588564313691
 20
10.04952278033479
 30
0.0
 10
13.31100281044707
 20
10.03414962120911
 30
0.0
 10
13.41015569134449
 20
10.01885391587099
 30
0.0
 10
13.50318849885776
 20
10.00378158964067
 30
0.0
 10
13.58995095595606
 20
9.989132684895369
 30
0.0
 10
13.67030714789576
 20
9.975044074145718
 30
0.0
 10
13.74411763997316
 20
9.961653337846952
 30
0.0
 10
13.81097873230483
 20
9.949185621305359
 30
0.0
 10
13.85319683389683
 20
9.941080301283906
 30
0.0
 10
13.87303226555919
 20
9.937233767445877
 30
0.0
  0
SPLINE
  5
8D
330
1F
100
AcDbEntity
  8
0
  6
Continuous
 62
     7
370
    25
100
AcDbSpline
210
0.0
220
0.0
230
1.0
 70
     8
 71
     3
 72
    14
 73
    10
 74
     0
 42
0.00000001
 43
0.00000001
 40
0.0735426855342453
 40
0.0735426855342453
 40
0.0735426855342453
 40
0.0735426855342453
 40
0.0762111572567232
 40
0.0838683921761468
 40
0.0918874108571214
 40
0.1002659121871965
 40
0.1089998673718805
 40
0.118084529429701
 40
0.1239819207745422
 40
0.1239819207745422
 40
0.1239819207745422
 40
0.1239819207745422
 10
1.165759133468196
 20
9.375000504866762
 30
0.0
 10
1.177967414512072
 20
9.37231403155172
 30
0.0
 10
1.225266857102426
 20
9.36218775464339
 30
0.0
 10
1.309663710254479
 20
9.345956451809943
 30
0.0
 10
1.420864333124366
 20
9.327686182926662
 30
0.0
 10
1.53747701378519
 20
9.311479035045835
 30
0.0
 10
1.659382057505404
 20
9.297324871558322
 30
0.0
 10
1.769983771316533
 20
9.286818503038493
 30
0.0
 10
1.839945369019278
 20
9.281259662470763
 30
0.0
 10
1.867495882415064
 20
9.279227308685776
 30
0.0
  0
SPLINE
  5
8E
330
1F
100
AcDbEntity
  8
0
  6
Continuous
 62
     7
370
    25
100
AcDbSpline
210
0.0
220
0.0
230
1.0
 70
     8
 71
     3
 72
    37
 73
    33
 74
     0
 42
0.00000001
 43
0.00000001
 40
0.0834237953113562
 40
0.0834237953113562
 40
0.0834237953113562
 40
0.0834237953113562
 40
0.0880629095840235
 40
0.0971757563935432
 40
0.1066781115612115
 40
0.1165615728732302
 40
0.1268142750878988
 40
0.1374283004256144
 40
0.1483936173224154
 40
0.1596997599005208
 40
0.1713381254585119
 40
0.1832976987047648
 40
0.1955696041651001
 40
0.2081435555234335
 40
0.2210115929273416
 40
0.2341618307071977
 40
0.2475874502736043
 40
0.2612768225360635
 40
0.2752227102261442
 40
0.2894141439002667
 40
0.3037711995108657
 40
0.3176892263918902
 40
0.3317841109643748
 40
0.3460396764966372
 40
0.3604438693379112
 40
0.3749827202535788
 40
0.3896404542078173
 40
0.4044033164436202
 40
0.4192566005238885
 40
0.4341867492511231
 40
0.4491772649544114
 40
0.4593160162769035
 40
0.4593160162769035
 40
0.4593160162769035
 40
0.4593160162769035
 10
13.04810933501785
 20
10.51613545052088
 30
0.0
 10
13.02763462171555
 20
10.52581125002412
 30
0.0
 10
12.966848563819
 20
10.55429938934061
 30
0.0
 10
12.86360133546356
 20
10.60148433665981
 30
0.0
 10
12.73634643714135
 20
10.657702200725
 30
0.0
 10
12.60320713444358
 20
10.71433704219764
 30
0.0
 10
12.46425930002751
 20
10.77114349853443
 30
0.0
 10
12.31956208417447
 20
10.82779825342444
 30
0.0
 10
12.16920116355688
 20
10.88404330910045
 30
0.0
 10
12.0132345467605
 20
10.93951427344533
 30
0.0
 10
11.85177882634668
 20
10.993968753743
 30
0.0
 10
11.68491232321307
 20
11.04705298758815
 30
0.0
 10
11.51275436646028
 20
11.09847867517717
 30
0.0
 10
11.33540498678851
 20
11.14791240372658
 30
0.0
 10
11.15301202321212
 20
11.19510064996914
 30
0.0
 10
10.96569114778417
 20
11.23969975860761
 30
0.0
 10
10.77360112682776
 20
11.28141121514835
 30
0.0
 10
10.57689465389527
 20
11.31998388001012
 30
0.0
 10
10.37573670066412
 20
11.35503266321577
 30
0.0
 10
10.17068469511244
 20
11.38653023826729
 30
0.0
 10
9.965037875520474
 20
11.41273088683265
 30
0.0
 10
9.759814157134251
 20
11.43842771860747
 30
0.0
 10
9.554896066714747
 20
11.46256754235919
 30
0.0
 10
9.347473448287994
 20
11.48568476173728
 30
0.0
 10
9.137745854562063
 20
11.50764922337868
 30
0.0
 10
8.925921318449753
 20
11.52839224410426
 30
0.0
 10
8.71221428138107
 20
11.54782429960122
 30
0.0
 10
8.496846824303967
 20
11.56588840400173
 30
0.0
 10
8.280027346338919
 20
11.58248219808058
 30
0.0
 10
8.061984471892313
 20
11.5975801180918
 30
0.0
 10
7.866802126293813
 20
11.60958178012513
 30
0.0
 10
7.744319083535934
 20
11.6163268273261
 30
0.0
 10
7.694894761336765
 20
11.61891770698631
 30
0.0
  0
SPLINE
  5
8F
330
1F
100
AcDbEntity
  8
0
  6
Continuous
 62
     7
370
    25
100
AcDbSpline
210
0.0
220
0.0
230
1.0
 70
     8
 71
     3
 72
    24
 73
    20
 74
     0
 42
0.00000001
 43
0.00000001
 40
0.8757716490003782
 40
0.8757716490003782
 40
0.8757716490003782
 40
0.8757716490003782
 40
0.8849977189637044
 40
0.8939534256765339
 40
0.9025528972355396
 40
0.9107893855529798
 40
0.9186607344302619
 40
0.92616625320805
 40
0.9333026258667516
 40
0.9400712202119447
 40
0.9464747799483019
 40
0.9525175260063777
 40
0.9582048188485464
 40
0.9635466521252529
 40
0.968556599895053
 40
0.9732499128102375
 40
0.9776510407461945
 40
0.9817870430096698
 40
0.982281419426357
 40
0.982281419426357
 40
0.982281419426357
 40
0.982281419426357
 10
1.663703015127901
 20
11.00579256960882
 30
0.0
 10
1.621403532031322
 20
10.99032817555358
 30
0.0
 10
1.538371614894573
 20
10.95895507522755
 30
0.0
 10
1.417158324003721
 20
10.9099504070856
 30
0.0
 10
1.301632077028842
 20
10.85986782620018
 30
0.0
 10
1.192253961918277
 20
10.80901152973385
 30
0.0
 10
1.08914776961113
 20
10.75743941622149
 30
0.0
 10
0.9923869844594562
 20
10.70529597310027
 30
0.0
 10
0.9020687463465062
 20
10.65266115642024
 30
0.0
 10
0.8182799968577006
 20
10.59963273013408
 30
0.0
 10
0.7410559515173263
 20
10.54634520392095
 30
0.0
 10
0.6705030812904944
 20
10.49283202462788
 30
0.0
 10
0.6066456221186081
 20
10.43922841798145
 30
0.0
 10
0.5495239849341713
 20
10.38561600829954
 30
0.0
 10
0.4992198195578551
 20
10.3320317268043
 30
0.0
 10
0.4557313153676221
 20
10.27856993567037
 30
0.0
 10
0.4191154657530012
 20
10.22527297489509
 30
0.0
 10
0.3975338419497995
 20
10.186748735007
 30
0.0
 10
0.3876747711345649
 20
10.16639770407514
 30
0.0
 10
0.3866362601108858
 20
10.1642181003017
 30
0.0
  0
LINE
  5
90
330
1F
100
AcDbEntity
  8
0
  6
Continuous
 62
     7
370
    25
100
AcDbLine
 10
9.2877062974
 20
7.3346528123
 30
0.0
 11
9.2877062974
 21
6.813368638
 31
0.0
  0
LINE
  5
91
330
1F
100
AcDbEntity
  8
0
  6
Continuous
 62
     7
370
    25
100
AcDbLine
 10
9.1877062974
 20
7.3346528123
 30
0.0
 11
9.2877062974
 21
7.3346528123
 31
0.0
  0
LINE
  5
92
330
1F
100
AcDbEntity
  8
0
  6
Continuous
 62
     7
370
    25
100
AcDbLine
 10
9.1877062974
 20
6.7997935397
 30
0.0
 11
9.1877062974
 21
7.3346528123
 31
0.0
  0
SPLINE
  5
93
330
1F
100
AcDbEntity
  8
0
  6
Continuous
 62
     7
370
    25
100
AcDbSpline
210
0.0
220
0.0
230
1.0
 70
     8
 71
     3
 72
    23
 73
    19
 74
     0
 42
0.00000001
 43
0.00000001
 40
0.3865439639336369
 40
0.3865439639336369
 40
0.3865439639336369
 40
0.3865439639336369
 40
0.3905971922765331
 40
0.4053325935887113
 40
0.4201748234649589
 40
0.4351095327492743
 40
0.4501242757135254
 40
0.465203067673542
 40
0.4803331539432169
 40
0.4955005833760666
 40
0.5106897749133376
 40
0.5258873345479577
 40
0.5410783141008355
 40
0.5562472334026896
 40
0.5713817845593229
 40
0.5864660406082286
 40
0.6014845159174335
 40
0.6153807725493726
 40
0.6153807725493726
 40
0.6153807725493726
 40
0.6153807725493726
 10
5.841444665512111
 20
6.357652239366526
 30
0.0
 10
5.861233982623535
 20
6.360004619500505
 30
0.0
 10
5.95296195482048
 20
6.370949987018856
 30
0.0
 10
6.117112714533725
 20
6.39086249549307
 30
0.0
 10
6.334298389057501
 20
6.417845710533971
 30
0.0
 10
6.552778764872314
 20
6.445541325045648
 30
0.0
 10
6.772357339984275
 20
6.473818930807587
 30
0.0
 10
6.992828551073692
 20
6.502681756046613
 30
0.0
 10
7.214006966732472
 20
6.531924161865103
 30
0.0
 10
7.435679289507607
 20
6.561570234478349
 30
0.0
 10
7.657652568689526
 20
6.591467502802987
 30
0.0
 10
7.879721325748215
 20
6.621523037644853
 30
0.0
 10
8.101669263730237
 20
6.651727587954795
 30
0.0
 10
8.323301283501335
 20
6.681955978685822
 30
0.0
 10
8.544411781671847
 20
6.712125228926094
 30
0.0
 10
8.764784177783158
 20
6.742232578707914
 30
0.0
 10
8.979135172131876
 20
6.771435752155317
 30
0.0
 10
9.120003976297674
 20
6.79059652956262
 30
0.0
 10
9.187706297445587
 20
6.799793539620262
 30
0.0
  0
LINE
  5
94
330
1F
100
AcDbEntity
  8
0
  6
Continuous
 62
     7
370
    25
100
AcDbLine
 10
5.8414446655
 20
6.3576522394
 30
0.0
 11
5.8413958959
 21
6.3580676186
 31
0.0
  0
LINE
  5
95
330
1F
100
AcDbEntity
  8
0
  6
Continuous
 62
     7
370
    25
100
AcDbLine
 10
5.8413958959
 20
6.3580676186
 30
0.0
 11
5.819249384
 21
6.5445249755
 31
0.0
  0
LINE
  5
96
330
1F
100
AcDbEntity
  8
0
  6
Continuous
 62
     7
370
    25
100
AcDbLine
 10
5.819249384
 20
6.5445249755
 30
0.0
 11
5.6330581446
 21
6.5224101022
 31
0.0
  0
LINE
  5
97
330
1F
100
AcDbEntity
  8
0
  6
Continuous
 62
     7
370
    25
100
AcDbLine
 10
5.6330581446
 20
6.5224101022
 30
0.0
 11
5.6546280166
 21
6.3361392451
 31
0.0
  0
LINE
  5
98
330
1F
100
AcDbEntity
  8
0
  6
Continuous
 62
     7
370
    25
100
AcDbLine
 10
5.6546280166
 20
6.3361392451
 30
0.0
 11
5.6546757695
 21
6.3357325252
 31
0.0
  0
SPLINE
  5
99
330
1F
100
AcDbEntity
  8
0
  6
Continuous
 62
     7
370
    25
100
AcDbSpline
210
0.0
220
0.0
230
1.0
 70
     8
 71
     3
 72
    26
 73
    22
 74
     0
 42
0.00000001
 43
0.00000001
 40
0.1449064106475657
 40
0.1449064106475657
 40
0.1449064106475657
 40
0.1449064106475657
 40
0.1473879175277165
 40
0.1578164805848726
 40
0.1685634728773697
 40
0.1796191282821577
 40
0.1909773732185495
 40
0.202626973889422
 40
0.2145604782048279
 40
0.2267672494165183
 40
0.2392364169801691
 40
0.2519590038126693
 40
0.2649238945665227
 40
0.2781197026539082
 40
0.2915360352340147
 40
0.3051602796784041
 40
0.3189806852074297
 40
0.3329854990321194
 40
0.3471627905074377
 40
0.3614986027057008
 40
0.3737949249613041
 40
0.3737949249613041
 40
0.3737949249613041
 40
0.3737949249613041
 10
2.287706297439536
 20
6.132894206751102
 30
0.0
 10
2.299898481453985
 20
6.132429783324429
 30
0.0
 10
2.36333302642344
 20
6.130133544520621
 30
0.0
 10
2.479611535998475
 20
6.127043407026582
 30
0.0
 10
2.638075778221533
 20
6.125043088258029
 30
0.0
 10
2.801123337338845
 20
6.125098049280686
 30
0.0
 10
2.968594714382099
 20
6.12722298782688
 30
0.0
 10
3.140346848729662
 20
6.131300515060316
 30
0.0
 10
3.316214925284987
 20
6.137356462482027
 30
0.0
 10
3.496040170529421
 20
6.145317540720053
 30
0.0
 10
3.679660379850576
 20
6.155103636324823
 30
0.0
 10
3.866910865964869
 20
6.166681572391524
 30
0.0
 10
4.057626842038668
 20
6.180000037048648
 30
0.0
 10
4.251642714112451
 20
6.194952220512547
 30
0.0
 10
4.448782236592804
 20
6.211500830931832
 30
0.0
 10
4.648873477580328
 20
6.229549407861719
 30
0.0
 10
4.851739295250623
 20
6.249007597547035
 30
0.0
 10
5.057204416817938
 20
6.26981381801348
 30
0.0
 10
5.265087482811299
 20
6.291870196420973
 30
0.0
 10
5.464521321704495
 20
6.313924017280945
 30
0.0
 10
5.59461919261069
 20
6.328779469182163
 30
0.0
 10
5.654675769462598
 20
6.335732525231114
 30
0.0
  0
LINE
  5
9A
330
1F
100
AcDbEntity
  8
0
  6
Continuous
 62
     7
370
    25
100
AcDbLine
 10
2.2877062974
 20
6.5934916922
 30
0.0
 11
2.2877062974
 21
6.1328942067
 31
0.0
  0
LINE
  5
9B
330
1F
100
AcDbEntity
  8
0
  6
Continuous
 62
     7
370
    25
100
AcDbLine
 10
2.1627062974
 20
6.5934916922
 30
0.0
 11
2.2877062974
 21
6.5934916922
 31
0.0
  0
LINE
  5
9C
330
1F
100
AcDbEntity
  8
0
  6
Continuous
 62
     7
370
    25
100
AcDbLine
 10
2.1627062974
 20
6.1384859214
 30
0.0
 11
2.1627062974
 21
6.5934916922
 31
0.0
  0
SPLINE
  5
9D
330
1F
100
AcDbEntity
  8
0
  6
Continuous
 62
     7
370
    25
100
AcDbSpline
210
0.0
220
0.0
230
1.0
 70
     8
 71
     3
 72
    14
 73
    10
 74
     0
 42
0.00000001
 43
0.00000001
 40
0.0792930428869477
 40
0.0792930428869477
 40
0.0792930428869477
 40
0.0792930428869477
 40
0.0838683922215286
 40
0.0918874109443345
 40
0.1002659122557766
 40
0.1089998674474553
 40
0.1180845295250231
 40
0.1275148426994978
 40
0.1364234956535518
 40
0.1364234956535518
 40
0.1364234956535518
 40
0.1364234956535518
 10
1.326035296066824
 20
6.233188209067168
 30
0.0
 10
1.348112446111116
 20
6.228864745591402
 30
0.0
 10
1.408987263859347
 20
6.217493876964197
 30
0.0
 10
1.510752269748505
 20
6.200773880020927
 30
0.0
 10
1.633151900401703
 20
6.183762447226626
 30
0.0
 10
1.761106529248796
 20
6.168905876295129
 30
0.0
 10
1.894490623992073
 20
6.156235346210188
 30
0.0
 10
2.02894702372005
 20
6.146043863249166
 30
0.0
 10
2.118962406115397
 20
6.140740889552759
 30
0.0
 10
2.162706297439598
 20
6.138485921457259
 30
0.0
  0
LINE
  5
9E
330
1F
100
AcDbEntity
  8
0
  6
Continuous
 62
     7
370
    25
100
AcDbLine
 10
1.3260352961
 20
6.2331882091
 30
0.0
 11
1.326812086
 21
6.2364659539
 31
0.0
  0
LINE
  5
9F
330
1F
100
AcDbEntity
  8
0
  6
Continuous
 62
     7
370
    25
100
AcDbLine
 10
1.326812086
 20
6.2364659539
 30
0.0
 11
1.3661047813
 21
6.4251461527
 31
0.0
  0
LINE
  5
A0
330
1F
100
AcDbEntity
  8
0
  6
Continuous
 62
     7
370
    25
100
AcDbLine
 10
1.3661047813
 20
6.4251461527
 30
0.0
 11
1.1826309066
 21
6.4633013868
 31
0.0
  0
LINE
  5
A1
330
1F
100
AcDbEntity
  8
0
  6
Continuous
 62
     7
370
    25
100
AcDbLine
 10
1.1826309066
 20
6.4633013868
 30
0.0
 11
1.1444612366
 21
6.2796811236
 31
0.0
  0
LINE
  5
A2
330
1F
100
AcDbEntity
  8
0
  6
Continuous
 62
     7
370
    25
100
AcDbLine
 10
1.1444612366
 20
6.2796811236
 30
0.0
 11
1.143125087
 21
6.2740431032
 31
0.0
  0
SPLINE
  5
A3
330
1F
100
AcDbEntity
  8
0
  6
Continuous
 62
     7
370
    25
100
AcDbSpline
210
0.0
220
0.0
230
1.0
 70
     8
 71
     3
 72
    19
 73
    15
 74
     0
 42
0.00000001
 43
0.00000001
 40
0.008593694480768
 40
0.008593694480768
 40
0.008593694480768
 40
0.008593694480768
 40
0.0110281364092523
 40
0.0149010810780939
 40
0.018963271783584
 40
0.0232584753890999
 40
0.0278206260479214
 40
0.0326790824531877
 40
0.0378531598851528
 40
0.0433618747088243
 40
0.0492146789973672
 40
0.0554223461424739
 40
0.0619887860189878
 40
0.0665858813558296
 40
0.0665858813558296
 40
0.0665858813558296
 40
0.0665858813558296
 10
0.4239167602072114
 20
6.694431667688741
 30
0.0
 10
0.4294900565417783
 20
6.683829223348316
 30
0.0
 10
0.4450304158658805
 20
6.656955804545947
 30
0.0
 10
0.4750838387479167
 20
6.615607426602342
 30
0.0
 10
0.5157628794737081
 20
6.571173283153112
 30
0.0
 10
0.5632086558384019
 20
6.52879271983791
 30
0.0
 10
0.6173746334436302
 20
6.488488519273825
 30
0.0
 10
0.6781899224419778
 20
6.450279028029185
 30
0.0
 10
0.7455661766924286
 20
6.414123682275694
 30
0.0
 10
0.819427667447533
 20
6.380044964033749
 30
0.0
 10
0.8997070459033929
 20
6.348053519304712
 30
0.0
 10
0.9863168476750293
 20
6.318192115924929
 30
0.0
 10
1.068163008003284
 20
6.293703032461313
 30
0.0
 10
1.121215118253538
 20
6.279600973982039
 30
0.0
 10
1.14312508701128
 20
6.274043103200286
 30
0.0
  0
LINE
  5
A4
330
1F
100
AcDbEntity
  8
0
  6
Continuous
 62
     7
370
    25
100
AcDbLine
 10
0.4239167602
 20
6.6944316677
 30
0.0
 11
0.7418479809
 21
6.6944316677
 31
0.0
  0
LINE
  5
A5
330
1F
100
AcDbEntity
  8
0
  6
Continuous
 62
     7
370
    25
100
AcDbLine
 10
0.7418479809
 20
6.6944316677
 30
0.0
 11
0.7418479809
 21
7.0694316677
 31
0.0
  0
LINE
  5
A6
330
1F
100
AcDbEntity
  8
0
  6
Continuous
 62
     7
370
    25
100
AcDbLine
 10
0.7418479809
 20
7.0694316677
 30
0.0
 11
0.4208296894
 21
7.0694316677
 31
0.0
  0
SPLINE
  5
A7
330
1F
100
AcDbEntity
  8
0
  6
Continuous
 62
     7
370
    25
100
AcDbSpline
210
0.0
220
0.0
230
1.0
 70
     8
 71
     3
 72
    25
 73
    21
 74
     0
 42
0.00000001
 43
0.00000001
 40
0.8751483919461167
 40
0.8751483919461167
 40
0.8751483919461167
 40
0.8751483919461167
 40
0.8756888428550587
 40
0.8849977190008802
 40
0.893953425755851
 40
0.9025528973300768
 40
0.9107893856221742
 40
0.9186607344707267
 40
0.9261662532215825
 40
0.9333026259251767
 40
0.9400712202387567
 40
0.946474779988311
 40
0.9525175260159652
 40
0.9582048188701305
 40
0.9635466521520789
 40
0.9685565998990847
 40
0.9732499128296604
 40
0.9776510407504676
 40
0.981787042997088
 40
0.982954775955455
 40
0.982954775955455
 40
0.982954775955455
 40
0.982954775955455
 10
1.774642195707245
 20
7.965439988567312
 30
0.0
 10
1.77204001064972
 20
7.964492921731593
 30
0.0
 10
1.724627865379728
 20
7.947203609239079
 30
0.0
 10
1.634484280068982
 20
7.913154167117055
 30
0.0
 10
1.506862347872349
 20
7.86155858469046
 30
0.0
 10
1.385603066236875
 20
7.808990634691696
 30
0.0
 10
1.270797019076631
 20
7.755610575928587
 30
0.0
 10
1.162574142237793
 20
7.701479175961858
 30
0.0
 10
1.061011565493592
 20
7.646748093959356
 30
0.0
 10
0.9662112492629321
 20
7.591501254510439
 30
0.0
 10
0.878264451048415
 20
7.535841270529391
 30
0.0
 10
0.7972081319453805
 20
7.47990933095448
 30
0.0
 10
0.7231540484503016
 20
7.423740538691147
 30
0.0
 10
0.656127636984199
 20
7.367476833302228
 30
0.0
 10
0.596171317662544
 20
7.311203885402987
 30
0.0
 10
0.5433707873476095
 20
7.254960464044967
 30
0.0
 10
0.4977241502035326
 20
7.198845609923037
 30
0.0
 10
0.4592912241198092
 20
7.142903767216823
 30
0.0
 10
0.434949706477222
 20
7.0994529831202
 30
0.0
 10
0.4233072953531949
 20
7.074880786004422
 30
0.0
 10
0.4208296892071787
 20
7.069431667772242
 30
0.0
  0
LINE
  5
A8
330
1F
100
AcDbEntity
  8
0
  6
Continuous
 62
     7
370
    25
100
AcDbLine
 10
1.7746421957
 20
7.9654399886
 30
0.0
 11
1.8321736631
 21
7.7936075394
 31
0.0
  0
LINE
  5
A9
330
1F
100
AcDbEntity
  8
0
  6
Continuous
 62
     7
370
    25
100
AcDbLine
 10
1.8321736631
 20
7.7936075394
 30
0.0
 11
2.0099722182
 21
7.8531333966
 31
0.0
  0
LINE
  5
AA
330
1F
100
AcDbEntity
  8
0
  6
Continuous
 62
     7
370
    25
100
AcDbLine
 10
2.0099722182
 20
7.8531333966
 30
0.0
 11
1.9517016668
 21
8.0271881602
 31
0.0
  0
SPLINE
  5
AB
330
1F
100
AcDbEntity
  8
0
  6
Continuous
 62
     7
370
    25
100
AcDbSpline
210
0.0
220
0.0
230
1.0
 70
     8
 71
     3
 72
    17
 73
    13
 74
     0
 42
0.00000001
 43
0.00000001
 40
0.756656087839387
 40
0.756656087839387
 40
0.756656087839387
 40
0.756656087839387
 40
0.7647920418708936
 40
0.7772081519951632
 40
0.7893556849866198
 40
0.8012239600139595
 40
0.8128036856008996
 40
0.8240829094186191
 40
0.8350546023650834
 40
0.8457095711975603
 40
0.8560378532596997
 40
0.8629489463206322
 40
0.8629489463206322
 40
0.8629489463206322
 40
0.8629489463206322
 10
3.538649397197285
 20
8.408963916845794
 30
0.0
 10
3.497533671527061
 20
8.402087960708595
 30
0.0
 10
3.393750253842163
 20
8.384251642984317
 30
0.0
 10
3.228968171930466
 20
8.353925223947414
 30
0.0
 10
3.04589369369792
 20
8.317443164727587
 30
0.0
 10
2.867596869040244
 20
8.279024104414264
 30
0.0
 10
2.694266435032444
 20
8.238783286874083
 30
0.0
 10
2.526082527205415
 20
8.196790822254718
 30
0.0
 10
2.363225939495897
 20
8.15312358636548
 30
0.0
 10
2.205861761266842
 20
8.107886361298794
 30
0.0
 10
2.069256550390728
 20
8.065832583024118
 30
0.0
 10
1.985285525439984
 20
8.038416323287118
 30
0.0
 10
1.95170166675755
 20
8.027188160213251
 30
0.0
  0
LINE
  5
AC
330
1F
100
AcDbEntity
  8
0
  6
Continuous
 62
     7
370
    25
100
AcDbLine
 10
3.5386493972
 20
8.4089639168
 30
0.0
 11
3.5688445598
 21
8.2275615071
 31
0.0
  0
LINE
  5
AD
330
1F
100
AcDbEntity
  8
0
  6
Continuous
 62
     7
370
    25
100
AcDbLine
 10
3.5688445598
 20
8.2275615071
 30
0.0
 11
3.7541787963
 21
8.255975613
 31
0.0
  0
LINE
  5
AE
330
1F
100
AcDbEntity
  8
0
  6
Continuous
 62
     7
370
    25
100
AcDbLine
 10
3.7541787963
 20
8.255975613
 30
0.0
 11
3.7261156313
 21
8.4390233634
 31
0.0
  0
SPLINE
  5
AF
330
1F
100
AcDbEntity
  8
0
  6
Continuous
 62
     7
370
    25
100
AcDbSpline
210
0.0
220
0.0
230
1.0
 70
     8
 71
     3
 72
    16
 73
    12
 74
     0
 42
0.00000001
 43
0.00000001
 40
0.6380475426913851
 40
0.6380475426913851
 40
0.6380475426913851
 40
0.6380475426913851
 40
0.6428886750574507
 40
0.6571860540806531
 40
0.6713255458524574
 40
0.6852940139025203
 40
0.6990781475170407
 40
0.7126650950530847
 40
0.7260426447569291
 40
0.7391977131868439
 40
0.7443043377310046
 40
0.7443043377310046
 40
0.7443043377310046
 40
0.7443043377310046
 10
5.350206297441047
 20
8.606511460101926
 30
0.0
 10
5.32544400084747
 20
8.605061150573063
 30
0.0
 10
5.22756124063459
 20
8.599150695705218
 30
0.0
 10
5.057438455198419
 20
8.587657407574689
 30
0.0
 10
4.840834328446018
 20
8.570558461332311
 30
0.0
 10
4.627064017810222
 20
8.551164901527518
 30
0.0
 10
4.416351556779034
 20
8.529557567859793
 30
0.0
 10
4.208931540734645
 20
8.5056776928099
 30
0.0
 10
4.005026260760653
 20
8.479593220572816
 30
0.0
 10
3.844500315017575
 20
8.456947589457357
 30
0.0
 10
3.751977576421995
 20
8.442994926513304
 30
0.0
 10
3.726115631308631
 20
8.439023363430534
 30
0.0
  0
LINE
  5
B0
330
1F
100
AcDbEntity
  8
0
  6
Continuous
 62
     7
370
    25
100
AcDbLine
 10
5.3502062974
 20
8.2369944929
 30
0.0
 11
5.3502062974
 21
8.6065114601
 31
0.0
  0
LINE
  5
B1
330
1F
100
AcDbEntity
  8
0
  6
Continuous
 62
     7
370
    25
100
AcDbLine
 10
5.6002062974
 20
8.2369944929
 30
0.0
 11
5.3502062974
 21
8.2369944929
 31
0.0
  0
LINE
  5
B2
330
1F
100
AcDbEntity
  8
0
  6
Continuous
 62
     7
370
    25
100
AcDbLine
 10
5.6002062974
 20
8.6196318622
 30
0.0
 11
5.6002062974
 21
8.2369944929
 31
0.0
  0
SPLINE
  5
B3
330
1F
100
AcDbEntity
  8
0
  6
Continuous
 62
     7
370
    25
100
AcDbSpline
210
0.0
220
0.0
230
1.0
 70
     8
 71
     3
 72
    18
 73
    14
 74
     0
 42
0.00000001
 43
0.00000001
 40
0.4760244867499432
 40
0.4760244867499432
 40
0.4760244867499432
 40
0.4760244867499432
 40
0.4792840089178218
 40
0.4943697399289068
 40
0.509457832736699
 40
0.5245323464597985
 40
0.5395793200233994
 40
0.5545829839746124
 40
0.5695295461042585
 40
0.584403416923885
 40
0.599190992034123
 40
0.6138768381566302
 40
0.6217609108027381
 40
0.6217609108027381
 40
0.6217609108027381
 40
0.6217609108027381
 10
7.839600934950322
 20
8.618024175520517
 30
0.0
 10
7.822915823005172
 20
8.618750768928308
 30
0.0
 10
7.729005033219534
 20
8.622757784731125
 30
0.0
 10
7.557821533916374
 20
8.629209966572441
 30
0.0
 10
7.326078636224953
 20
8.63600879786753
 30
0.0
 10
7.094484267973399
 20
8.640810026862217
 30
0.0
 10
6.863289186779975
 20
8.643583467527716
 30
0.0
 10
6.632733872179859
 20
8.644253340577153
 30
0.0
 10
6.403068964680129
 20
8.642807660467783
 30
0.0
 10
6.174534960792673
 20
8.639196789971697
 30
0.0
 10
5.947382757129104
 20
8.633371295109198
 30
0.0
 10
5.756092031172044
 20
8.626542570497556
 30
0.0
 10
5.64055875310702
 20
8.621506328079342
 30
0.0
 10
5.600206297441503
 20
8.619631862219142
 30
0.0
  0
LINE
  5
B4
330
1F
100
AcDbEntity
  8
0
  6
Continuous
 62
     7
370
    25
100
AcDbLine
 10
7.839600935
 20
8.6180241755
 30
0.0
 11
7.8313623961
 21
8.4321015998
 31
0.0
  0
LINE
  5
B5
330
1F
100
AcDbEntity
  8
0
  6
Continuous
 62
     7
370
    25
100
AcDbLine
 10
7.8313623961
 20
8.4321015998
 30
0.0
 11
8.0186200243
 21
8.4226359738
 31
0.0
  0
LINE
  5
B6
330
1F
100
AcDbEntity
  8
0
  6
Continuous
 62
     7
370
    25
100
AcDbLine
 10
8.0186200243
 20
8.4226359738
 30
0.0
 11
8.0281233752
 21
8.6091949151
 31
0.0
  0
SPLINE
  5
B7
330
1F
100
AcDbEntity
  8
0
  6
Continuous
 62
     7
370
    25
100
AcDbSpline
210
0.0
220
0.0
230
1.0
 70
     8
 71
     3
 72
    38
 73
    34
 74
     0
 42
0.00000001
 43
0.00000001
 40
0.0790121330869389
 40
0.0790121330869389
 40
0.0790121330869389
 40
0.0790121330869389
 40
0.0793498266210786
 40
0.0880629102869386
 40
0.0971757565532052
 40
0.1066781118065676
 40
0.1165615732491611
 40
0.1268142759618125
 40
0.1374283004741075
 40
0.1483936178902862
 40
0.1596997600756026
 40
0.1713381259054895
 40
0.1832976991861099
 40
0.195569604016057
 40
0.2081435557736431
 40
0.2210115937228178
 40
0.2341618307433002
 40
0.2475874505190492
 40
0.2612768226196271
 40
0.2752227102723011
 40
0.2894141440240837
 40
0.3037711999415169
 40
0.3176892267430766
 40
0.3317841111320233
 40
0.3460396768487288
 40
0.3604438696672327
 40
0.3749827205461658
 40
0.3896404545353687
 40
0.4044033167073025
 40
0.4192566007979876
 40
0.4341867495536409
 40
0.4491772652451471
 40
0.463746369759137
 40
0.463746369759137
 40
0.463746369759137
 40
0.463746369759137
 10
13.77622686839165
 20
7.419040496751394
 30
0.0
 10
13.77466700438927
 20
7.41978923806299
 30
0.0
 10
13.73285529139832
 20
7.439847172402358
 30
0.0
 10
13.64869618188997
 20
7.479581594045842
 30
0.0
 10
13.52133956161524
 20
7.53778476710801
 30
0.0
 10
13.38776958979544
 20
7.596792461746296
 30
0.0
 10
13.24802319432148
 20
7.656237831999998
 30
0.0
 10
13.10218001705271
 20
7.715863322514222
 30
0.0
 10
12.95030214888483
 20
7.775329603478967
 30
0.0
 10
12.79247950912427
 20
7.834365832627698
 30
0.0
 10
12.62877298796629
 20
7.89258957097541
 30
0.0
 10
12.45930496349118
 20
7.949746372280146
 30
0.0
 10
12.28415764689317
 20
8.005464932397432
 30
0.0
 10
12.1034562862507
 20
8.059442642898759
 30
0.0
 10
11.91730587225593
 20
8.111329538202844
 30
0.0
 10
11.72586158476286
 20
8.160859516019013
 30
0.0
 10
11.52924483909725
 20
8.20767187847145
 30
0.0
 10
11.32762227880267
 20
8.25145327904786
 30
0.0
 10
11.12115417029877
 20
8.291940127489477
 30
0.0
 10
10.9100136758101
 20
8.32872822087339
 30
0.0
 10
10.69478588271436
 20
8.361788876298073
 30
0.0
 10
10.47893375751828
 20
8.389289740116737
 30
0.0
 10
10.26352573190365
 20
8.41626178863009
 30
0.0
 10
10.04843850155028
 20
8.441599560057984
 30
0.0
 10
9.83072245476459
 20
8.465863980324732
 30
0.0
 10
9.610587046667726
 20
8.488918437211412
 30
0.0
 10
9.388250635402665
 20
8.510690839099643
 30
0.0
 10
9.163938303369905
 20
8.531087216677502
 30
0.0
 10
8.937883152220694
 20
8.550047759410637
 30
0.0
 10
8.710303923116454
 20
8.567465027152632
 30
0.0
 10
8.481440585787393
 20
8.583312188340946
 30
0.0
 10
8.253914916705023
 20
8.597302623449734
 30
0.0
 10
8.10267808709216
 20
8.605460008596111
 30
0.0
 10
8.02812337517032
 20
8.609194915091061
 30
0.0
  0
LINE
  5
B8
330
1F
100
AcDbEntity
  8
0
  6
Continuous
 62
     7
370
    25
100
AcDbLine
 10
13.7762268684
 20
7.4190404968
 30
0.0
 11
13.7172547031
 21
7.3088257803
 31
0.0
  0
LINE
  5
B9
330
1F
100
AcDbEntity
  8
0
  6
Continuous
 62
     7
370
    25
100
AcDbLine
 10
13.7172547031
 20
7.3088257803
 30
0.0
 11
14.5989724349
 21
6.8370484583
 31
0.0
  0
SPLINE
  5
BA
330
1F
100
AcDbEntity
  8
0
  6
Continuous
 62
     7
370
    25
100
AcDbSpline
210
0.0
220
0.0
230
1.0
 70
     8
 71
     3
 72
    43
 73
    39
 74
     0
 42
0.00000001
 43
0.00000001
 40
0.6222225284585956
 40
0.6222225284585956
 40
0.6222225284585956
 40
0.6222225284585956
 40
0.6312694225395571
 40
0.6460065239302686
 40
0.6606206843681067
 40
0.675098187462933
 40
0.6894228581506535
 40
0.7035818249485561
 40
0.7169075637785768
 40
0.7300092743612286
 40
0.7429521282304341
 40
0.7557255577393025
 40
0.7683199517486113
 40
0.7807243378172352
 40
0.7929265287959968
 40
0.8049160414182324
 40
0.8166790841649909
 40
0.8282035244999553
 40
0.8394749006291837
 40
0.8504813586617479
 40
0.8612076972844028
 40
0.8716393256871128
 40
0.8817634137122401
 40
0.8915636050430925
 40
0.9010273647272273
 40
0.9101389773654922
 40
0.9188839766824048
 40
0.9272492778901295
 40
0.9352211042619281
 40
0.9427847387599604
 40
0.9499281883258872
 40
0.9566384646262263
 40
0.9629042039583562
 40
0.9687122881126738
 40
0.9740544849976593
 40
0.9789184323221263
 40
0.9832972184459597
 40
0.9844824737548621
 40
0.9844824737548621
 40
0.9844824737548621
 40
0.9844824737548621
 10
9.287706297445833
 20
6.813368637961903
 30
0.0
 10
9.331783769104154
 20
6.819347628752485
 30
0.0
 10
9.447664354769017
 20
6.835049087317864
 30
0.0
 10
9.634761472935404
 20
6.86030007450031
 30
0.0
 10
9.848339877728591
 20
6.888971436919864
 30
0.0
 10
10.05992720641915
 20
6.917232080190526
 30
0.0
 10
10.26931058464936
 20
6.945092617804072
 30
0.0
 10
10.47314470647182
 20
6.971707415793369
 30
0.0
 10
10.67089694867197
 20
6.998493714480314
 30
0.0
 10
10.86323370028395
 20
7.020452547384973
 30
0.0
 10
11.05317561414931
 20
7.039195197275431
 30
0.0
 10
11.24091999499223
 20
7.05456158738644
 30
0.0
 10
11.42624140298826
 20
7.066772787025274
 30
0.0
 10
11.60892749965614
 20
7.075916053971083
 30
0.0
 10
11.78876056095599
 20
7.082119038815175
 30
0.0
 10
11.96551342996929
 20
7.085565762112835
 30
0.0
 10
12.13896534038354
 20
7.086343691265183
 30
0.0
 10
12.30887953663902
 20
7.084700915239755
 30
0.0
 10
12.47503502697485
 20
7.080769853843418
 30
0.0
 10
12.63719991681307
 20
7.074726954436092
 30
0.0
 10
12.7951479667705
 20
7.066776095333114
 30
0.0
 10
12.94865483062199
 20
7.057134018505741
 30
0.0
 10
13.09749004704123
 20
7.045942956821253
 30
0.0
 10
13.24144622315766
 20
7.033464168780357
 30
0.0
 10
13.38030125292649
 20
7.019880329928339
 30
0.0
 10
13.51384192043117
 20
7.005346638047761
 30
0.0
 10
13.64187337106833
 20
6.990167633464678
 30
0.0
 10
13.76419068020184
 20
6.974443250176869
 30
0.0
 10
13.88060986037478
 20
6.958431901433943
 30
0.0
 10
13.99094351237632
 20
6.942295841797027
 30
0.0
 10
14.09501689077532
 20
6.926241083129704
 30
0.0
 10
14.19266648713056
 20
6.910420784276464
 30
0.0
 10
14.28373456264621
 20
6.895044923703443
 30
0.0
 10
14.36807846332946
 20
6.880257158981185
 30
0.0
 10
14.4455518290278
 20
6.866201903753029
 30
0.0
 10
14.51604718276185
 20
6.853056497781342
 30
0.0
 10
14.5663990273023
 20
6.843387624152584
 30
0.0
 10
14.59325267696922
 20
6.83816431236332
 30
0.0
 10
14.59897243487712
 20
6.837048458293397
 30
0.0
  0
ARC
  5
BB
330
1F
100
AcDbEntity
  8
0
  6
Continuous
 62
     7
370
    25
100
AcDbCircle
 10
7.2446449452
 20
8.0674544784
 30
0.0
 40
0.0700000000000025
100
AcDbArc
 50
357.462788377
 51
88.710851808
  0
SPLINE
  5
BC
330
1F
100
AcDbEntity
  8
0
  6
Continuous
 62
     7
370
    25
100
AcDbSpline
210
0.0
220
0.0
230
1.0
 70
     8
 71
     3
 72
    11
 73
     7
 74
     0
 42
0.00000001
 43
0.00000001
 40
0.1891487530044593
 40
0.1891487530044593
 40
0.1891487530044593
 40
0.1891487530044593
 40
0.3252479694960494
 40
0.5031229174773189
 40
0.6809978654585882
 40
0.7146673766994635
 40
0.7146673766994635
 40
0.7146673766994635
 40
0.7146673766994635
 10
7.246219803995825
 20
8.137436760627683
 30
0.0
 10
7.168549340534431
 20
8.13918463173383
 30
0.0
 10
6.989342583255405
 20
8.142423302402356
 30
0.0
 10
6.708718939622681
 20
8.144538853123136
 30
0.0
 10
6.486582718792398
 20
8.143474663102822
 30
0.0
 10
6.365977505939131
 20
8.141971843625907
 30
0.0
 10
6.346783267243946
 20
8.141709009152661
 30
0.0
  0
ARC
  5
BD
330
1F
100
AcDbEntity
  8
0
  6
Continuous
 62
     7
370
    25
100
AcDbCircle
 10
6.3502062974
 20
7.8917324445
 30
0.0
 40
0.2500000000000006
100
AcDbArc
 50
90.7845252484
 51
180.0
  0
LINE
  5
BE
330
1F
100
AcDbEntity
  8
0
  6
Continuous
 62
     7
370
    25
100
AcDbLine
 10
6.1002062974
 20
7.8917324445
 30
0.0
 11
6.1002062974
 21
7.8069944929
 31
0.0
  0
ARC
  5
BF
330
1F
100
AcDbEntity
  8
0
  6
Continuous
 62
     7
370
    25
100
AcDbCircle
 10
6.0302062974
 20
7.8069944929
 30
0.0
 40
0.0700000000000003
100
AcDbArc
 50
270.0
 51
0.0
  0
LINE
  5
C0
330
1F
100
AcDbEntity
  8
0
  6
Continuous
 62
     7
370
    25
100
AcDbLine
 10
6.0302062974
 20
7.7369944929
 30
0.0
 11
5.8594778583
 21
7.7369944929
 31
0.0
  0
ARC
  5
C1
330
1F
100
AcDbEntity
  8
0
  6
Continuous
 62
     7
370
    25
100
AcDbCircle
 10
5.8594778583
 20
7.6669944929
 30
0.0
 40
0.0699999999999999
100
AcDbArc
 50
90.0
 51
190.4286959229
  0
LINE
  5
C2
330
1F
100
AcDbEntity
  8
0
  6
Continuous
 62
     7
370
    25
100
AcDbLine
 10
5.8579926347
 20
7.2883488116
 30
0.0
 11
5.7906341927
 21
7.6543236716
 31
0.0
  0
ARC
  5
C3
330
1F
100
AcDbEntity
  8
0
  6
Continuous
 62
     7
370
    25
100
AcDbCircle
 10
6.1038628688
 20
7.3336017448
 30
0.0
 40
0.2500000000000008
100
AcDbArc
 50
190.4286959229
 51
276.7735751256
  0
LINE
  5
C4
330
1F
100
AcDbEntity
  8
0
  6
Continuous
 62
     7
370
    25
100
AcDbLine
 10
6.1333493686
 20
7.0853467422
 30
0.0
 11
6.1872749201
 21
7.0917517521
 31
0.0
  0
ARC
  5
C5
330
1F
100
AcDbEntity
  8
0
  6
Continuous
 62
     7
370
    25
100
AcDbCircle
 10
6.1955311401
 20
7.0222403514
 30
0.0
 40
0.0699999999999998
100
AcDbArc
 50
6.7735843693
 51
96.7735751256
  0
LINE
  5
C6
330
1F
100
AcDbEntity
  8
0
  6
Continuous
 62
     7
370
    25
100
AcDbLine
 10
6.2650425395
 20
7.0304965825
 30
0.0
 11
6.2704610403
 21
6.9848767871
 31
0.0
  0
ARC
  5
C7
330
1F
100
AcDbEntity
  8
0
  6
Continuous
 62
     7
370
    25
100
AcDbCircle
 10
6.3399724397
 20
6.9931330182
 30
0.0
 40
0.0700000000000008
100
AcDbArc
 50
186.7735843693
 51
277.1971840684
  0
SPLINE
  5
C8
330
1F
100
AcDbEntity
  8
0
  6
Continuous
 62
     7
370
    25
100
AcDbSpline
210
0.0
220
0.0
230
1.0
 70
     8
 71
     3
 72
    11
 73
     7
 74
     0
 42
0.00000001
 43
0.00000001
 40
0.1110440049322134
 40
0.1110440049322134
 40
0.1110440049322134
 40
0.1110440049322134
 40
0.2962274242726422
 40
0.5057618148107053
 40
0.7152962053487684
 40
0.8496665751435943
 40
0.8496665751435943
 40
0.8496665751435943
 40
0.8496665751435943
 10
6.348742352877714
 20
6.923684558048841
 30
0.0
 10
6.526088747960492
 20
6.946079762770957
 30
0.0
 10
6.903882214237244
 20
6.994902267436201
 30
0.0
 10
7.482718907014956
 20
7.0722004069513
 30
0.0
 10
8.012994927163584
 20
7.144217019311571
 30
0.0
 10
8.342700954559046
 20
7.189235296464096
 30
0.0
 10
8.471525099743948
 20
7.20682368097818
 30
0.0
  0
ARC
  5
C9
330
1F
100
AcDbEntity
  8
0
  6
Continuous
 62
     7
370
    25
100
AcDbCircle
 10
8.4377062974
 20
7.4545256967
 30
0.0
 40
0.2499999999999993
100
AcDbArc
 50
277.7745341999
 51
353.1600360265
  0
ARC
  5
CA
330
1F
100
AcDbEntity
  8
0
  6
Continuous
 62
     7
370
    25
100
AcDbCircle
 10
8.4377062974
 20
7.3949774288
 30
0.0
 40
0.25
100
AcDbArc
 50
6.8399639735
 51
65.8830187582
  0
LINE
  5
CB
330
1F
100
AcDbEntity
  8
0
  6
Continuous
 62
     7
370
    25
100
AcDbLine
 10
8.5398565442
 20
7.623155708
 30
0.0
 11
7.8964461558
 21
7.9111959639
 31
0.0
  0
ARC
  5
CC
330
1F
100
AcDbEntity
  8
0
  6
Continuous
 62
     7
370
    25
100
AcDbCircle
 10
7.7942959091
 20
7.6830176847
 30
0.0
 40
0.25
100
AcDbArc
 50
65.8830187582
 51
87.10623694
  0
LINE
  5
CD
330
1F
100
AcDbEntity
  8
0
  6
Continuous
 62
     7
370
    25
100
AcDbLine
 10
7.8069169651
 20
7.9326988994
 30
0.0
 11
7.3793327902
 21
7.9543127153
 31
0.0
  0
ARC
  5
CE
330
1F
100
AcDbEntity
  8
0
  6
Continuous
 62
     7
370
    25
100
AcDbCircle
 10
7.3828666859
 20
8.0242234554
 30
0.0
 40
0.0700000000000007
100
AcDbArc
 50
177.462788377
 51
267.10623694
  0
LINE
  5
CF
330
1F
100
AcDbEntity
  8
0
  6
Continuous
 62
     7
370
    25
100
AcDbLine
 10
7.3129353082
 20
8.0273222312
 30
0.0
 11
7.314576323
 21
8.0643557027
 31
0.0
  0
LINE
  5
D0
330
1F
100
AcDbEntity
  8
0
  6
Continuous
 62
     7
370
    25
100
AcDbLine
 10
5.3546890331
 20
7.2606682713
 30
0.0
 11
5.304704319
 21
7.5322474262
 31
0.0
  0
ARC
  5
D1
330
1F
100
AcDbEntity
  8
0
  6
Continuous
 62
     7
370
    25
100
AcDbCircle
 10
5.0588340849
 20
7.4869944929
 30
0.0
 40
0.2499999999999999
100
AcDbArc
 50
10.4286959229
 51
90.0
  0
LINE
  5
D2
330
1F
100
AcDbEntity
  8
0
  6
Continuous
 62
     7
370
    25
100
AcDbLine
 10
5.0588340849
 20
7.7369944929
 30
0.0
 11
4.9199581024
 21
7.7369944929
 31
0.0
  0
ARC
  5
D3
330
1F
100
AcDbEntity
  8
0
  6
Continuous
 62
     7
370
    25
100
AcDbCircle
 10
4.9199581024
 20
7.8069944929
 30
0.0
 40
0.0700000000000003
100
AcDbArc
 50
182.2567698161
 51
270.0
  0
ARC
  5
D4
330
1F
100
AcDbEntity
  8
0
  6
Continuous
 62
     7
370
    25
100
AcDbCircle
 10
4.6002062974
 20
7.7943935713
 30
0.0
 40
0.2500000000000006
100
AcDbArc
 50
2.2567698161
 51
95.8567517767
  0
SPLINE
  5
D5
330
1F
100
AcDbEntity
  8
0
  6
Continuous
 62
     7
370
    25
100
AcDbSpline
210
0.0
220
0.0
230
1.0
 70
     8
 71
     3
 72
    10
 73
     6
 74
     0
 42
0.00000001
 43
0.00000001
 40
0.5052665280119746
 40
0.5052665280119746
 40
0.5052665280119746
 40
0.5052665280119746
 40
0.5064344077035574
 40
0.6352343279023949
 40
0.6966262532388576
 40
0.6966262532388576
 40
0.6966262532388576
 40
0.6966262532388576
 10
4.574695876911374
 20
8.043088602341134
 30
0.0
 10
4.574278130442177
 20
8.043045751110606
 30
0.0
 10
4.527789350279365
 20
8.038275318920492
 30
0.0
 10
4.45938123219856
 20
8.030969332657392
 30
0.0
 10
4.391467414900174
 20
8.023288138094646
 30
0.0
 10
4.369551600805384
 20
8.020764189943392
 30
0.0
  0
ARC
  5
D6
330
1F
100
AcDbEntity
  8
0
  6
Continuous
 62
     7
370
    25
100
AcDbCircle
 10
4.3775602587
 20
7.9512238319
 30
0.0
 40
0.0700000000000005
100
AcDbArc
 50
96.5695612626
 51
188.7161857623
  0
LINE
  5
D7
330
1F
100
AcDbEntity
  8
0
  6
Continuous
 62
     7
370
    25
100
AcDbLine
 10
4.3083686805
 20
7.9406160278
 30
0.0
 11
4.3135664432
 21
7.9067125544
 31
0.0
  0
ARC
  5
D8
330
1F
100
AcDbEntity
  8
0
  6
Continuous
 62
     7
370
    25
100
AcDbCircle
 10
4.2443748651
 20
7.8961047503
 30
0.0
 40
0.0700000000000008
100
AcDbArc
 50
278.7163060512
 51
8.7161857623
  0
LINE
  5
D9
330
1F
100
AcDbEntity
  8
0
  6
Continuous
 62
     7
370
    25
100
AcDbLine
 10
4.2549828144
 20
7.8269131944
 30
0.0
 11
3.8678007937
 21
7.7675532448
 31
0.0
  0
ARC
  5
DA
330
1F
100
AcDbEntity
  8
0
  6
Continuous
 62
     7
370
    25
100
AcDbCircle
 10
3.9056863271
 20
7.5204405451
 30
0.0
 40
0.2500000000000004
100
AcDbArc
 50
98.7163060512
 51
127.961702275
  0
LINE
  5
DB
330
1F
100
AcDbEntity
  8
0
  6
Continuous
 62
     7
370
    25
100
AcDbLine
 10
2.8839226438
 20
7.0403395813
 30
0.0
 11
3.7519026735
 21
7.7175460698
 31
0.0
  0
ARC
  5
DC
330
1F
100
AcDbEntity
  8
0
  6
Continuous
 62
     7
370
    25
100
AcDbCircle
 10
3.0377062974
 20
6.8432340565
 30
0.0
 40
0.2500000000000002
100
AcDbArc
 50
127.961702275
 51
175.8853877227
  0
ARC
  5
DD
330
1F
100
AcDbEntity
  8
0
  6
Continuous
 62
     7
370
    25
100
AcDbCircle
 10
3.0377062974
 20
6.8791099674
 30
0.0
 40
0.2500000000000002
100
AcDbArc
 50
184.1146122773
 51
271.3699456562
  0
SPLINE
  5
DE
330
1F
100
AcDbEntity
  8
0
  6
Continuous
 62
     7
370
    25
100
AcDbSpline
210
0.0
220
0.0
230
1.0
 70
     8
 71
     3
 72
    11
 73
     7
 74
     0
 42
0.00000001
 43
0.00000001
 40
0.1797241194667089
 40
0.1797241194667089
 40
0.1797241194667089
 40
0.1797241194667089
 40
0.2940573567341631
 40
0.4998179485971197
 40
0.7055785404600763
 40
0.911339132323033
 40
0.911339132323033
 40
0.911339132323033
 40
0.911339132323033
 10
3.043683243474902
 20
6.629181425362287
 30
0.0
 10
3.150362998433557
 20
6.63173263113236
 30
0.0
 10
3.449066668459638
 20
6.642054773854267
 30
0.0
 10
3.941982966224943
 20
6.67095291874801
 30
0.0
 10
4.520796050512704
 20
6.718405643966273
 30
0.0
 10
4.907263479210782
 20
6.756790198686928
 30
0.0
 10
5.100210070544374
 20
6.777222880824599
 30
0.0
  0
LINE
  5
DF
330
1F
100
AcDbEntity
  8
0
  6
Continuous
 62
     7
370
    25
100
AcDbLine
 10
5.1002100705
 20
6.7772228808
 30
0.0
 11
5.0870409914
 21
6.8909470451
 31
0.0
  0
ARC
  5
E0
330
1F
100
AcDbEntity
  8
0
  6
Continuous
 62
     7
370
    25
100
AcDbCircle
 10
5.1565763346
 20
6.8989991283
 30
0.0
 40
0.0700000000000006
100
AcDbArc
 50
98.583019228
 51
186.6053416102
  0
ARC
  5
E1
330
1F
100
AcDbEntity
  8
0
  6
Continuous
 62
     7
370
    25
100
AcDbCircle
 10
5.108818799
 20
7.2154153381
 30
0.0
 40
0.2500000000000006
100
AcDbArc
 50
278.583019228
 51
10.4286959229
  0
MTEXT
  5
E3
330
1F
100
AcDbEntity
  8
0
  6
Continuous
 62
     7
100
AcDbMText
 10
0.0
 20
0.5790104628
 30
0.0
 40
0.2076
 41
0.0
 71
     1
 72
     1
  1
SOLIDWORKS Educational Product.
  7
SLDTEXTSTYLE0
 73
     1
 44
1.0
  0
MTEXT
  5
E4
330
1F
100
AcDbEntity
  8
0
  6
Continuous
 62
     7
100
AcDbMText
 10
0.0
 20
0.2676104628
 30
0.0
 40
0.2076
 41
0.0
 71
     1
 72
     1
  1
For Instructional Use Only.
  7
SLDTEXTSTYLE0
 73
     1
 44
1.0
  0
ENDSEC
  0
SECTION
  2
OBJECTS
  0
DICTIONARY
  5
C
330
0
100
AcDbDictionary
281
     1
  3
ACAD_GROUP
350
D
  3
ACAD_LAYOUT
350
1A
  3
ACAD_MLINESTYLE
350
17
  3
ACAD_PLOTSETTINGS
350
19
  3
ACAD_PLOTSTYLENAME
350
E
  3
ACAD_SCALELIST
350
47
  3
DWGPROPS
350
E5
  0
DICTIONARY
  5
D
102
{ACAD_REACTORS
330
C
102
}
330
C
100
AcDbDictionary
281
     1
  0
DICTIONARY
  5
1A
102
{ACAD_REACTORS
330
C
102
}
330
C
100
AcDbDictionary
281
     1
  3
Layout1
350
1E
  3
Layout2
350
26
  3
Model
350
22
  0
DICTIONARY
  5
17
102
{ACAD_REACTORS
330
C
102
}
330
C
100
AcDbDictionary
281
     1
  3
Standard
350
18
  0
DICTIONARY
  5
19
102
{ACAD_REACTORS
330
C
102
}
330
C
100
AcDbDictionary
281
     1
  0
ACDBDICTIONARYWDFLT
  5
E
102
{ACAD_REACTORS
330
C
102
}
330
C
100
AcDbDictionary
281
     1
  3
Normal
350
F
100
AcDbDictionaryWithDefault
340
F
  0
DICTIONARY
  5
47
102
{ACAD_REACTORS
330
C
102
}
330
C
100
AcDbDictionary
281
     1
  3
A0
350
48
  3
A1
350
49
  3
A2
350
4A
  3
A3
350
4B
  3
A4
350
4C
  3
A5
350
4D
  3
A6
350
4E
  3
A7
350
4F
  3
A8
350
50
  3
A9
350
51
  3
B1
350
52
  3
B2
350
53
  3
B3
350
54
  3
B4
350
55
  3
B5
350
56
  3
B6
350
57
  3
B7
350
58
  0
XRECORD
  5
E5
102
{ACAD_REACTORS
330
C
102
}
330
C
100
AcDbXrecord
280
     1
  1
DWGPROPS COOKIE
  2

  3

  4

  6

  7

  8
ucmai
  9

300
=
301
=
302
=
303
=
304
=
305
=
306
=
307
=
308
=
309
=
 40
0.0
 41
2461142.839076238
 42
2461142.839076528
  1

 90
        0
  0
LAYOUT
  5
1E
102
{ACAD_REACTORS
330
1A
102
}
330
1A
100
AcDbPlotSettings
  1

  2
none_device
  4

  6

 40
0.0
 41
0.0
 42
0.0
 43
0.0
 44
0.0
 45
0.0
 46
0.0
 47
0.0
 48
0.0
 49
0.0
140
0.0
141
0.0
142
1.0
143
1.0
 70
   688
 72
     0
 73
     0
 74
     5
  7

 75
    16
147
1.0
148
0.0
149
0.0
100
AcDbLayout
  1
Layout1
 70
     1
 71
     1
 10
0.0
 20
0.0
 11
12.0
 21
9.0
 12
0.0
 22
0.0
 32
0.0
 14
1.0000000000E+20
 24
1.0000000000E+20
 34
1.0000000000E+20
 15
-1.0000000000E+20
 25
-1.0000000000E+20
 35
-1.0000000000E+20
146
0.0
 13
0.0
 23
0.0
 33
0.0
 16
1.0
 26
0.0
 36
0.0
 17
0.0
 27
1.0
 37
0.0
 76
     0
330
1B
  0
LAYOUT
  5
26
102
{ACAD_REACTORS
330
1A
102
}
330
1A
100
AcDbPlotSettings
  1

  2
none_device
  4

  6

 40
0.0
 41
0.0
 42
0.0
 43
0.0
 44
0.0
 45
0.0
 46
0.0
 47
0.0
 48
0.0
 49
0.0
140
0.0
141
0.0
142
1.0
143
1.0
 70
   688
 72
     0
 73
     0
 74
     5
  7

 75
    16
147
1.0
148
0.0
149
0.0
100
AcDbLayout
  1
Layout2
 70
     1
 71
     2
 10
0.0
 20
0.0
 11
0.0
 21
0.0
 12
0.0
 22
0.0
 32
0.0
 14
0.0
 24
0.0
 34
0.0
 15
0.0
 25
0.0
 35
0.0
146
0.0
 13
0.0
 23
0.0
 33
0.0
 16
1.0
 26
0.0
 36
0.0
 17
0.0
 27
1.0
 37
0.0
 76
     0
330
23
  0
LAYOUT
  5
22
102
{ACAD_REACTORS
330
1A
102
}
330
1A
100
AcDbPlotSettings
  1

  2
none_device
  4
Letter_(8.50_x_11.00_Inches)
  6

 40
6.35
 41
6.35
 42
6.35000508
 43
6.35000508
 44
215.9
 45
279.4
 46
0.0
 47
0.0
 48
0.0
 49
0.0
140
0.0
141
0.0
142
1.0
143
1.0
 70
  1712
 72
     0
 73
     0
 74
     0
  7

 75
     0
147
1.0
148
0.0
149
0.0
100
AcDbLayout
  1
Model
 70
     1
 71
     0
 10
0.0
 20
0.0
 11
24.0
 21
12.0
 12
0.0
 22
0.0
 32
0.0
 14
0.0
 24
0.0
 34
0.0
 15
24.0
 25
12.0
 35
0.0
146
0.0
 13
0.0
 23
0.0
 33
0.0
 16
1.0
 26
0.0
 36
0.0
 17
0.0
 27
1.0
 37
0.0
 76
     0
330
1F
331
29
  0
MLINESTYLE
  5
18
102
{ACAD_REACTORS
330
17
102
}
330
17
100
AcDbMlineStyle
  2
Standard
 70
     0
  3

 62
   256
 51
90.0
 52
90.0
 71
     2
 49
0.5
 62
   256
  6
BYLAYER
 49
-0.5
 62
   256
  6
BYLAYER
  0
ACDBPLACEHOLDER
  5
F
102
{ACAD_REACTORS
330
E
102
}
330
E
  0
SCALE
  5
48
102
{ACAD_REACTORS
330
47
102
}
330
47
100
AcDbScale
 70
     0
300
1:1
140
1.0
141
1.0
290
     1
  0
SCALE
  5
49
102
{ACAD_REACTORS
330
47
102
}
330
47
100
AcDbScale
 70
     0
300
1/128" = 1'-0"
140
0.0078125
141
12.0
290
     0
  0
SCALE
  5
4A
102
{ACAD_REACTORS
330
47
102
}
330
47
100
AcDbScale
 70
     0
300
1/64" = 1'-0"
140
0.015625
141
12.0
290
     0
  0
SCALE
  5
4B
102
{ACAD_REACTORS
330
47
102
}
330
47
100
AcDbScale
 70
     0
300
1/32" = 1'-0"
140
0.03125
141
12.0
290
     0
  0
SCALE
  5
4C
102
{ACAD_REACTORS
330
47
102
}
330
47
100
AcDbScale
 70
     0
300
1/16" = 1'-0"
140
0.0625
141
12.0
290
     0
  0
SCALE
  5
4D
102
{ACAD_REACTORS
330
47
102
}
330
47
100
AcDbScale
 70
     0
300
3/32" = 1'-0"
140
0.09375
141
12.0
290
     0
  0
SCALE
  5
4E
102
{ACAD_REACTORS
330
47
102
}
330
47
100
AcDbScale
 70
     0
300
1/8" = 1'-0"
140
0.125
141
12.0
290
     0
  0
SCALE
  5
4F
102
{ACAD_REACTORS
330
47
102
}
330
47
100
AcDbScale
 70
     0
300
3/16" = 1'-0"
140
0.1875
141
12.0
290
     0
  0
SCALE
  5
50
102
{ACAD_REACTORS
330
47
102
}
330
47
100
AcDbScale
 70
     0
300
1/4" = 1'-0"
140
0.25
141
12.0
290
     0
  0
SCALE
  5
51
102
{ACAD_REACTORS
330
47
102
}
330
47
100
AcDbScale
 70
     0
300
3/8" = 1'-0"
140
0.375
141
12.0
290
     0
  0
SCALE
  5
52
102
{ACAD_REACTORS
330
47
102
}
330
47
100
AcDbScale
 70
     0
300
1/2" = 1'-0"
140
0.5
141
12.0
290
     0
  0
SCALE
  5
53
102
{ACAD_REACTORS
330
47
102
}
330
47
100
AcDbScale
 70
     0
300
3/4" = 1'-0"
140
0.75
141
12.0
290
     0
  0
SCALE
  5
54
102
{ACAD_REACTORS
330
47
102
}
330
47
100
AcDbScale
 70
     0
300
1" = 1'-0"
140
1.0
141
12.0
290
     0
  0
SCALE
  5
55
102
{ACAD_REACTORS
330
47
102
}
330
47
100
AcDbScale
 70
     0
300
1-1/2" = 1'-0"
140
1.5
141
12.0
290
     0
  0
SCALE
  5
56
102
{ACAD_REACTORS
330
47
102
}
330
47
100
AcDbScale
 70
     0
300
3" = 1'-0"
140
3.0
141
12.0
290
     0
  0
SCALE
  5
57
102
{ACAD_REACTORS
330
47
102
}
330
47
100
AcDbScale
 70
     0
300
6" = 1'-0"
140
6.0
141
12.0
290
     0
  0
SCALE
  5
58
102
{ACAD_REACTORS
330
47
102
}
330
47
100
AcDbScale
 70
     0
300
1'-0" = 1'-0"
140
12.0
141
12.0
290
     0
  0
ENDSEC
  0
EOF
