  0
SECTION
  2
HEADER
  9
$ACADVER
  1
AC1015
  9
$ACADMAINTVER
 70
     6
  9
$DWGCODEPAGE
  3
ANSI_1252
  9
$INSBASE
 10
0.0
 20
0.0
 30
0.0
  9
$EXTMIN
 10
0.0
 20
0.0
 30
0.0
  9
$EXTMAX
 10
24.0
 20
12.0
 30
0.0
  9
$LIMMIN
 10
0.0
 20
0.0
  9
$LIMMAX
 10
24.0
 20
12.0
  9
$ORTHOMODE
 70
     0
  9
$REGENMODE
 70
     1
  9
$FILLMODE
 70
     1
  9
$QTEXTMODE
 70
     0
  9
$MIRRTEXT
 70
     1
  9
$LTSCALE
 40
1.0
  9
$ATTMODE
 70
     1
  9
$TEXTSIZE
 40
0.125
  9
$TRACEWID
 40
0.05
  9
$TEXTSTYLE
  7
Standard
  9
$CLAYER
  8
0
  9
$CELTYPE
  6
ByLayer
  9
$CECOLOR
 62
   256
  9
$CELTSCALE
 40
1.0
  9
$DISPSILH
 70
     0
  9
$DIMSCALE
 40
1.0
  9
$DIMASZ
 40
0.13
  9
$DIMEXO
 40
0.05
  9
$DIMDLI
 40
0.38
  9
$DIMRND
 40
0.0
  9
$DIMDLE
 40
0.0
  9
$DIMEXE
 40
0.125
  9
$DIMTP
 40
0.0
  9
$DIMTM
 40
0.0
  9
$DIMTXT
 40
0.125
  9
$DIMCEN
 40
0.09
  9
$DIMTSZ
 40
0.0
  9
$DIMTOL
 70
     0
  9
$DIMLIM
 70
     0
  9
$DIMTIH
 70
     1
  9
$DIMTOH
 70
     1
  9
$DIMSE1
 70
     0
  9
$DIMSE2
 70
     0
  9
$DIMTAD
 70
     0
  9
$DIMZIN
 70
     1
  9
$DIMBLK
  1

  9
$DIMASO
 70
     1
  9
$DIMSHO
 70
     1
  9
$DIMPOST
  1

  9
$DIMAPOST
  1

  9
$DIMALT
 70
     0
  9
$DIMALTD
 70
     2
  9
$DIMALTF
 40
25.4
  9
$DIMLFAC
 40
1.0
  9
$DIMTOFL
 70
     0
  9
$DIMTVP
 40
0.0
  9
$DIMTIX
 70
     0
  9
$DIMSOXD
 70
     0
  9
$DIMSAH
 70
     0
  9
$DIMBLK1
  1

  9
$DIMBLK2
  1

  9
$DIMSTYLE
  2
Standard
  9
$DIMCLRD
 70
     0
  9
$DIMCLRE
 70
     0
  9
$DIMCLRT
 70
     0
  9
$DIMTFAC
 40
1.0
  9
$DIMGAP
 40
0.06
  9
$DIMJUST
 70
     0
  9
$DIMSD1
 70
     0
  9
$DIMSD2
 70
     0
  9
$DIMTOLJ
 70
     1
  9
$DIMTZIN
 70
     1
  9
$DIMALTZ
 70
     0
  9
$DIMALTTZ
 70
     0
  9
$DIMUPT
 70
     0
  9
$DIMDEC
 70
     2
  9
$DIMTDEC
 70
     2
  9
$DIMALTU
 70
     2
  9
$DIMALTTD
 70
     2
  9
$DIMTXSTY
  7
Standard
  9
$DIMAUNIT
 70
     0
  9
$DIMADEC
 70
     2
  9
$DIMALTRND
 40
0.0
  9
$DIMAZIN
 70
     0
  9
$DIMDSEP
 70
    46
  9
$DIMATFIT
 70
     3
  9
$DIMFRAC
 70
     0
  9
$DIMLDRBLK
  1

  9
$DIMLUNIT
 70
     2
  9
$DIMLWD
 70
    -2
  9
$DIMLWE
 70
    -2
  9
$DIMTMOVE
 70
     0
  9
$LUNITS
 70
     2
  9
$LUPREC
 70
     6
  9
$SKETCHINC
 40
0.1
  9
$FILLETRAD
 40
0.0
  9
$AUNITS
 70
     0
  9
$AUPREC
 70
     2
  9
$MENU
  1
.
  9
$ELEVATION
 40
0.0
  9
$PELEVATION
 40
0.0
  9
$THICKNESS
 40
0.0
  9
$LIMCHECK
 70
     0
  9
$CHAMFERA
 40
0.0
  9
$CHAMFERB
 40
0.0
  9
$CHAMFERC
 40
0.0
  9
$CHAMFERD
 40
0.0
  9
$SKPOLY
 70
     0
  9
$TDCREATE
 40
2460784.665542396
  9
$TDUCREATE
 40
2460784.957209063
  9
$TDUPDATE
 40
2460784.665543797
  9
$TDUUPDATE
 40
2460784.957210463
  9
$TDINDWG
 40
0.0000000116
  9
$TDUSRTIMER
 40
0.0000000116
  9
$USRTIMER
 70
     1
  9
$ANGBASE
 50
0.0
  9
$ANGDIR
 70
     0
  9
$PDMODE
 70
     0
  9
$PDSIZE
 40
-1.0
  9
$PLINEWID
 40
0.0
  9
$SPLFRAME
 70
     0
  9
$SPLINETYPE
 70
     6
  9
$SPLINESEGS
 70
     8
  9
$HANDSEED
  5
1EA
  9
$SURFTAB1
 70
     6
  9
$SURFTAB2
 70
     6
  9
$SURFTYPE
 70
     6
  9
$SURFU
 70
     6
  9
$SURFV
 70
     6
  9
$UCSBASE
  2

  9
$UCSNAME
  2

  9
$UCSORG
 10
0.0
 20
0.0
 30
0.0
  9
$UCSXDIR
 10
1.0
 20
0.0
 30
0.0
  9
$UCSYDIR
 10
0.0
 20
1.0
 30
0.0
  9
$UCSORTHOREF
  2

  9
$UCSORTHOVIEW
 70
     0
  9
$UCSORGTOP
 10
0.0
 20
0.0
 30
0.0
  9
$UCSORGBOTTOM
 10
0.0
 20
0.0
 30
0.0
  9
$UCSORGLEFT
 10
0.0
 20
0.0
 30
0.0
  9
$UCSORGRIGHT
 10
0.0
 20
0.0
 30
0.0
  9
$UCSORGFRONT
 10
0.0
 20
0.0
 30
0.0
  9
$UCSORGBACK
 10
0.0
 20
0.0
 30
0.0
  9
$PUCSBASE
  2

  9
$PUCSNAME
  2

  9
$PUCSORG
 10
0.0
 20
0.0
 30
0.0
  9
$PUCSXDIR
 10
1.0
 20
0.0
 30
0.0
  9
$PUCSYDIR
 10
0.0
 20
1.0
 30
0.0
  9
$PUCSORTHOREF
  2

  9
$PUCSORTHOVIEW
 70
     0
  9
$PUCSORGTOP
 10
0.0
 20
0.0
 30
0.0
  9
$PUCSORGBOTTOM
 10
0.0
 20
0.0
 30
0.0
  9
$PUCSORGLEFT
 10
0.0
 20
0.0
 30
0.0
  9
$PUCSORGRIGHT
 10
0.0
 20
0.0
 30
0.0
  9
$PUCSORGFRONT
 10
0.0
 20
0.0
 30
0.0
  9
$PUCSORGBACK
 10
0.0
 20
0.0
 30
0.0
  9
$USERI1
 70
     0
  9
$USERI2
 70
     0
  9
$USERI3
 70
     0
  9
$USERI4
 70
     0
  9
$USERI5
 70
     0
  9
$USERR1
 40
0.0
  9
$USERR2
 40
0.0
  9
$USERR3
 40
0.0
  9
$USERR4
 40
0.0
  9
$USERR5
 40
0.0
  9
$WORLDVIEW
 70
     1
  9
$SHADEDGE
 70
     3
  9
$SHADEDIF
 70
    70
  9
$TILEMODE
 70
     1
  9
$MAXACTVP
 70
    64
  9
$PINSBASE
 10
0.0
 20
0.0
 30
0.0
  9
$PLIMCHECK
 70
     0
  9
$PEXTMIN
 10
1.0000000000E+20
 20
1.0000000000E+20
 30
1.0000000000E+20
  9
$PEXTMAX
 10
-1.0000000000E+20
 20
-1.0000000000E+20
 30
-1.0000000000E+20
  9
$PLIMMIN
 10
0.0
 20
0.0
  9
$PLIMMAX
 10
12.0
 20
9.0
  9
$UNITMODE
 70
     0
  9
$VISRETAIN
 70
     1
  9
$PLINEGEN
 70
     0
  9
$PSLTSCALE
 70
     1
  9
$TREEDEPTH
 70
  3020
  9
$CMLSTYLE
  2
Standard
  9
$CMLJUST
 70
     0
  9
$CMLSCALE
 40
1.0
  9
$PROXYGRAPHICS
 70
     1
  9
$MEASUREMENT
 70
     0
  9
$CELWEIGHT
370
    -1
  9
$ENDCAPS
280
     0
  9
$JOINSTYLE
280
     0
  9
$LWDISPLAY
290
     1
  9
$INSUNITS
 70
     1
  9
$HYPERLINKBASE
  1

  9
$STYLESHEET
  1

  9
$XEDIT
290
     1
  9
$CEPSNTYPE
380
     0
  9
$PSTYLEMODE
290
     1
  9
$FINGERPRINTGUID
  2
{2f2e14b4-f7f6-4b1c-9cf3-7c9f14479a16}
  9
$VERSIONGUID
  2
{FAEB1C32-E019-11D5-929B-00C0DF256EC4}
  9
$EXTNAMES
290
     1
  9
$PSVPSCALE
 40
0.0
  9
$OLESTARTUP
290
     0
  0
ENDSEC
  0
SECTION
  2
CLASSES
  0
CLASS
  1
ACDBDICTIONARYWDFLT
  2
AcDbDictionaryWithDefault
  3
ObjectDBX Classes
 90
        0
280
     0
281
     0
  0
CLASS
  1
VISUALSTYLE
  2
AcDbVisualStyle
  3
ObjectDBX Classes
 90
     4095
280
     0
281
     0
  0
CLASS
  1
MATERIAL
  2
AcDbMaterial
  3
ObjectDBX Classes
 90
     1153
280
     0
281
     0
  0
CLASS
  1
SCALE
  2
AcDbScale
  3
ObjectDBX Classes
 90
     1153
280
     0
281
     0
  0
CLASS
  1
TABLESTYLE
  2
AcDbTableStyle
  3
ObjectDBX Classes
 90
     4095
280
     0
281
     0
  0
CLASS
  1
MLEADERSTYLE
  2
AcDbMLeaderStyle
  3
ACDB_MLEADERSTYLE_CLASS
 90
     4095
280
     0
281
     0
  0
CLASS
  1
SUN
  2
AcDbSun
  3
SCENEOE
 90
     1153
280
     0
281
     0
  0
CLASS
  1
ACDBPLACEHOLDER
  2
AcDbPlaceHolder
  3
ObjectDBX Classes
 90
        0
280
     0
281
     0
  0
CLASS
  1
LAYOUT
  2
AcDbLayout
  3
ObjectDBX Classes
 90
        0
280
     0
281
     0
  0
ENDSEC
  0
SECTION
  2
TABLES
  0
TABLE
  2
VPORT
  5
8
330
0
100
AcDbSymbolTable
 70
     1
  0
VPORT
  5
29
330
8
100
AcDbSymbolTableRecord
100
AcDbViewportTableRecord
  2
*Active
 70
     0
 10
0.0
 20
0.0
 11
1.0
 21
1.0
 12
12.0
 22
6.0
 13
0.0
 23
0.0
 14
0.5
 24
0.5
 15
0.5
 25
0.5
 16
0.0
 26
0.0
 36
1.0
 17
0.0
 27
0.0
 37
0.0
 40
12.0
 41
2.0
 42
50.0
 43
0.0
 44
0.0
 50
0.0
 51
0.0
 71
     0
 72
  2000
 73
     1
 74
     3
 75
     0
 76
     0
 77
     0
 78
     0
281
     0
 65
     1
110
0.0
120
0.0
130
0.0
111
1.0
121
0.0
131
0.0
112
0.0
122
1.0
132
0.0
 79
     0
146
0.0
  0
ENDTAB
  0
TABLE
  2
LTYPE
  5
5
330
0
100
AcDbSymbolTable
 70
     6
  0
LTYPE
  5
14
330
5
100
AcDbSymbolTableRecord
100
AcDbLinetypeTableRecord
  2
ByBlock
 70
     0
  3

 72
    65
 73
     0
 40
0.0
  0
LTYPE
  5
15
330
5
100
AcDbSymbolTableRecord
100
AcDbLinetypeTableRecord
  2
ByLayer
 70
     0
  3

 72
    65
 73
     0
 40
0.0
  0
LTYPE
  5
16
330
5
100
AcDbSymbolTableRecord
100
AcDbLinetypeTableRecord
  2
Continuous
 70
     0
  3
Solid line
 72
    65
 73
     0
 40
0.0
  0
LTYPE
  5
5E
330
5
100
AcDbSymbolTableRecord
100
AcDbLinetypeTableRecord
  2
HIDDEN
 70
     0
  3
Hidden __ __ __ __ __ __ __ __ __ __ __ __ __ __
 72
    65
 73
     2
 40
0.075
 49
0.05
 74
     0
 49
-0.025
 74
     0
  0
LTYPE
  5
5F
330
5
100
AcDbSymbolTableRecord
100
AcDbLinetypeTableRecord
  2
PHANTOM
 70
     0
  3
Phantom ______  __  __  ______  __  __  ______
 72
    65
 73
     6
 40
0.5
 49
0.25
 74
     0
 49
-0.05
 74
     0
 49
0.05
 74
     0
 49
-0.05
 74
     0
 49
0.05
 74
     0
 49
-0.05
 74
     0
  0
LTYPE
  5
60
330
5
100
AcDbSymbolTableRecord
100
AcDbLinetypeTableRecord
  2
CENTER
 70
     0
  3
Center ____ _ ____ _ ____ _ ____ _ ____ _ ____
 72
    65
 73
     4
 40
0.4
 49
0.25
 74
     0
 49
-0.05
 74
     0
 49
0.05
 74
     0
 49
-0.05
 74
     0
  0
LTYPE
  5
61
330
5
100
AcDbSymbolTableRecord
100
AcDbLinetypeTableRecord
  2
CENTERX2
 70
     0
  3
Center (2x) ________  __  ________  __  _____
 72
    65
 73
     4
 40
0.8
 49
0.5
 74
     0
 49
-0.1
 74
     0
 49
0.1
 74
     0
 49
-0.1
 74
     0
  0
LTYPE
  5
62
330
5
100
AcDbSymbolTableRecord
100
AcDbLinetypeTableRecord
  2
DOT2
 70
     0
  3
Dot (.5x) ........................................
 72
    65
 73
     2
 40
0.025
 49
0.0
 74
     0
 49
-0.025
 74
     0
  0
ENDTAB
  0
TABLE
  2
LAYER
  5
2
330
0
100
AcDbSymbolTable
 70
     3
  0
LAYER
  5
10
330
2
100
AcDbSymbolTableRecord
100
AcDbLayerTableRecord
  2
0
 70
     0
 62
     7
  6
Continuous
370
    -3
390
F
  0
LAYER
  5
63
330
2
100
AcDbSymbolTableRecord
100
AcDbLayerTableRecord
  2
FORMAT
 70
     0
 62
     7
  6
Continuous
370
    -3
390
F
  0
LAYER
  5
64
330
2
100
AcDbSymbolTableRecord
100
AcDbLayerTableRecord
  2
PART_NAMES
 70
     0
 62
     1
  6
Continuous
370
    -3
390
F
  0
ENDTAB
  0
TABLE
  2
STYLE
  5
3
330
0
100
AcDbSymbolTable
 70
     3
  0
STYLE
  5
11
330
3
100
AcDbSymbolTableRecord
100
AcDbTextStyleTableRecord
  2
Standard
 70
     0
 40
0.0
 41
1.0
 50
0.0
 71
     0
 42
0.125
  3
txt
  4

  0
STYLE
  5
124
330
3
100
AcDbSymbolTableRecord
100
AcDbTextStyleTableRecord
  2
SLDTEXTSTYLE0
 70
     0
 40
0.0
 41
0.75
 50
0.0
 71
     0
 42
0.125
  3
TXT
  4

  0
STYLE
  5
1E6
330
3
100
AcDbSymbolTableRecord
100
AcDbTextStyleTableRecord
  2
SLDTEXTSTYLE1
 70
     0
 40
0.0
 41
0.7
 50
0.0
 71
     0
 42
0.125
  3
TXT
  4

  0
ENDTAB
  0
TABLE
  2
VIEW
  5
6
330
0
100
AcDbSymbolTable
 70
     0
  0
ENDTAB
  0
TABLE
  2
UCS
  5
7
330
0
100
AcDbSymbolTable
 70
     0
  0
ENDTAB
  0
TABLE
  2
APPID
  5
9
330
0
100
AcDbSymbolTable
 70
     1
  0
APPID
  5
12
330
9
100
AcDbSymbolTableRecord
100
AcDbRegAppTableRecord
  2
ACAD
 70
     0
  0
ENDTAB
  0
TABLE
  2
DIMSTYLE
  5
A
330
0
100
AcDbSymbolTable
 70
     1
100
AcDbDimStyleTable
  0
DIMSTYLE
105
27
330
A
100
AcDbSymbolTableRecord
100
AcDbDimStyleTableRecord
  2
Standard
 70
     0
178
     0
340
11
  0
ENDTAB
  0
TABLE
  2
BLOCK_RECORD
  5
1
330
0
100
AcDbSymbolTable
 70
     1
  0
BLOCK_RECORD
  5
1F
330
1
100
AcDbSymbolTableRecord
100
AcDbBlockTableRecord
  2
*Model_Space
340
22
  0
BLOCK_RECORD
  5
1B
330
1
100
AcDbSymbolTableRecord
100
AcDbBlockTableRecord
  2
*Paper_Space
340
1E
  0
BLOCK_RECORD
  5
23
330
1
100
AcDbSymbolTableRecord
100
AcDbBlockTableRecord
  2
*Paper_Space0
340
26
  0
ENDTAB
  0
ENDSEC
  0
SECTION
  2
BLOCKS
  0
BLOCK
  5
20
330
1F
100
AcDbEntity
  8
0
100
AcDbBlockBegin
  2
*Model_Space
 70
     0
 10
0.0
 20
0.0
 30
0.0
  3
*Model_Space
  1

  0
ENDBLK
  5
21
330
1F
100
AcDbEntity
  8
0
100
AcDbBlockEnd
  0
BLOCK
  5
1C
330
1B
100
AcDbEntity
 67
     1
  8
0
100
AcDbBlockBegin
  2
*Paper_Space
 70
     0
 10
0.0
 20
0.0
 30
0.0
  3
*Paper_Space
  1

  0
ENDBLK
  5
1D
330
1B
100
AcDbEntity
 67
     1
  8
0
100
AcDbBlockEnd
  0
BLOCK
  5
24
330
23
100
AcDbEntity
  8
0
100
AcDbBlockBegin
  2
*Paper_Space0
 70
     0
 10
0.0
 20
0.0
 30
0.0
  3
*Paper_Space0
  1

  0
ENDBLK
  5
25
330
23
100
AcDbEntity
  8
0
100
AcDbBlockEnd
  0
ENDSEC
  0
SECTION
  2
ENTITIES
  0
LINE
  5
65
330
1F
100
AcDbEntity
  8
0
  6
CENTERX2
 62
     7
370
    18
100
AcDbLine
 10
0.25
 20
0.25
 30
0.0
 11
0.25
 21
11.75
 31
0.0
  0
LINE
  5
66
330
1F
100
AcDbEntity
  8
0
  6
CENTERX2
 62
     7
370
    18
100
AcDbLine
 10
0.25
 20
0.25
 30
0.0
 11
23.75
 21
0.25
 31
0.0
  0
LINE
  5
67
330
1F
100
AcDbEntity
  8
0
  6
CENTERX2
 62
     7
370
    18
100
AcDbLine
 10
23.75
 20
0.25
 30
0.0
 11
23.75
 21
11.75
 31
0.0
  0
LINE
  5
68
330
1F
100
AcDbEntity
  8
0
  6
CENTERX2
 62
     7
370
    18
100
AcDbLine
 10
23.75
 20
11.75
 30
0.0
 11
0.25
 21
11.75
 31
0.0
  0
LINE
  5
69
330
1F
100
AcDbEntity
  8
0
  6
Continuous
 62
     7
370
    25
100
AcDbLine
 10
9.2514639849
 20
6.1386568076
 30
0.0
 11
8.9014639849
 21
6.1386568076
 31
0.0
  0
SPLINE
  5
6A
330
1F
100
AcDbEntity
  8
0
  6
Continuous
 62
     7
370
    25
100
AcDbSpline
210
0.0
220
0.0
230
1.0
 70
     8
 71
     3
 72
     9
 73
     5
 74
     0
 42
0.00000001
 43
0.00000001
 40
0.0
 40
0.0
 40
0.0
 40
0.0
 40
0.4368129604909324
 40
1.0
 40
1.0
 40
1.0
 40
1.0
 10
9.240467175453402
 20
5.763489768761321
 30
0.0
 10
9.242054869290321
 20
5.818116104941209
 30
0.0
 10
9.24568959165555
 20
5.943172687782741
 30
0.0
 10
9.249388737905932
 20
6.068227382259507
 30
0.0
 10
9.251472049131392
 20
6.138656565418589
 30
0.0
  0
SPLINE
  5
6B
330
1F
100
AcDbEntity
  8
0
  6
Continuous
 62
     7
370
    25
100
AcDbSpline
210
0.0
220
0.0
230
1.0
 70
     8
 71
     3
 72
    12
 73
     8
 74
     0
 42
0.00000001
 43
0.00000001
 40
0.0
 40
0.0
 40
0.0
 40
0.0
 40
0.160800014298585
 40
0.3275568867510084
 40
0.5002707751356174
 40
0.7401420313731265
 40
1.0
 40
1.0
 40
1.0
 40
1.0
 10
9.194167304292414
 20
4.031936262876779
 30
0.0
 10
9.196421968535809
 20
4.124753429295207
 30
0.0
 10
9.201014821362705
 20
4.313826186543948
 30
0.0
 10
9.208404435574552
 20
4.602583747154809
 30
0.0
 10
9.217252487659056
 20
4.936973805166043
 30
0.0
 10
9.227909275569443
 20
5.325090482154041
 30
0.0
 10
9.236171065168728
 20
5.613511531843416
 30
0.0
 10
9.240467175453402
 20
5.763489768761322
 30
0.0
  0
LINE
  5
6C
330
1F
100
AcDbEntity
  8
0
  6
Continuous
 62
     7
370
    25
100
AcDbLine
 10
9.1909499156
 20
3.8919449465
 30
0.0
 11
9.1941673043
 21
4.0319362629
 31
0.0
  0
SPLINE
  5
6D
330
1F
100
AcDbEntity
  8
0
  6
Continuous
 62
     7
370
    25
100
AcDbSpline
210
0.0
220
0.0
230
1.0
 70
     8
 71
     3
 72
     9
 73
     5
 74
     0
 42
0.00000001
 43
0.00000001
 40
0.0
 40
0.0
 40
0.0
 40
0.0
 40
0.4965907145889225
 40
1.0
 40
1.0
 40
1.0
 40
1.0
 10
9.18537947196516
 20
3.674980915027662
 30
0.0
 10
9.186386046924028
 20
3.710892852481279
 30
0.0
 10
9.188413017886827
 20
3.78320982579268
 30
0.0
 10
9.19010044771047
 20
3.855535520279513
 30
0.0
 10
9.19094991555217
 20
3.89194494645799
 30
0.0
  0
SPLINE
  5
6E
330
1F
100
AcDbEntity
  8
0
  6
Continuous
 62
     7
370
    25
100
AcDbSpline
210
0.0
220
0.0
230
1.0
 70
     8
 71
     3
 72
    19
 73
    15
 74
     0
 42
0.00000001
 43
0.00000001
 40
0.0
 40
0.0
 40
0.0
 40
0.0
 40
0.0624181948317214
 40
0.1248409915892385
 40
0.1872817521270556
 40
0.249753826773116
 40
0.3122705457941559
 40
0.3748452109251834
 40
0.437491086989736
 40
0.5002213936370166
 40
0.6250500781253522
 40
0.7498870733870517
 40
0.8748359497987149
 40
1.0
 40
1.0
 40
1.0
 40
1.0
 10
9.126005413867672
 20
3.265978814285635
 30
0.0
 10
9.128190082091466
 20
3.2743154555373
 30
0.0
 10
9.132559579608772
 20
3.290989352678792
 30
0.0
 10
9.138649540477038
 20
3.316121130270159
 30
0.0
 10
9.144399195733772
 20
3.341339863148643
 30
0.0
 10
9.149775252725378
 20
3.366654420323115
 30
0.0
 10
9.154786651111515
 20
3.392062424077675
 30
0.0
 10
9.15943093884465
 20
3.41756449086143
 30
0.0
 10
9.16370897734071
 20
3.443160513353348
 30
0.0
 10
9.168908123456365
 20
3.477313359437409
 30
0.0
 10
9.174483051507147
 20
3.520090720750411
 30
0.0
 10
9.179657842959093
 20
3.571559081123346
 30
0.0
 10
9.183458165663444
 20
3.623199067606477
 30
0.0
 10
9.184738669322693
 20
3.657710402444768
 30
0.0
 10
9.18537947196516
 20
3.674980915027662
 30
0.0
  0
SPLINE
  5
6F
330
1F
100
AcDbEntity
  8
0
  6
Continuous
 62
     7
370
    25
100
AcDbSpline
210
0.0
220
0.0
230
1.0
 70
     8
 71
     3
 72
    13
 73
     9
 74
     0
 42
0.00000001
 43
0.00000001
 40
0.0
 40
0.0
 40
0.0
 40
0.0
 40
0.1665197621607276
 40
0.3330517828783567
 40
0.4996309683555607
 40
0.6662921951598566
 40
0.833070288389432
 40
1.0
 40
1.0
 40
1.0
 40
1.0
 10
9.075764769160811
 20
3.105733431646931
 30
0.0
 10
9.078901353798702
 20
3.114514658025149
 30
0.0
 10
9.085174753978015
 20
3.132077757222353
 30
0.0
 10
9.094100360683449
 20
3.158594635695337
 30
0.0
 10
9.102673064737452
 20
3.185235369105438
 30
0.0
 10
9.110848713803316
 20
3.212015029667339
 30
0.0
 10
9.118672019307729
 20
3.238920809952031
 30
0.0
 10
9.123560208706667
 20
3.25695674799666
 30
0.0
 10
9.126005413867672
 20
3.265978814285635
 30
0.0
  0
SPLINE
  5
70
330
1F
100
AcDbEntity
  8
0
  6
Continuous
 62
     7
370
    25
100
AcDbSpline
210
0.0
220
0.0
230
1.0
 70
     8
 71
     3
 72
    21
 73
    17
 74
     0
 42
0.00000001
 43
0.00000001
 40
0.0
 40
0.0
 40
0.0
 40
0.0
 40
0.0554090522263102
 40
0.1108229923421537
 40
0.1662518764007296
 40
0.2217057523254056
 40
0.2771946544629672
 40
0.3327285981737022
 40
0.3883175744727475
 40
0.4439715447368406
 40
0.4997004354902985
 40
0.5997760810530948
 40
0.6997864981560182
 40
0.7997890520283094
 40
0.8998411214244554
 40
0.9999999999999999
 40
0.9999999999999999
 40
0.9999999999999999
 40
0.9999999999999999
 10
8.857603618823019
 20
2.673055601911325
 30
0.0
 10
8.862548285691581
 20
2.68054125825683
 30
0.0
 10
8.872438055620709
 20
2.695513231292312
 30
0.0
 10
8.886888843671398
 20
2.718224415637374
 30
0.0
 10
8.901058065778338
 20
2.741120142773258
 30
0.0
 10
8.914918237423272
 20
2.764218718690057
 30
0.0
 10
8.928476726120365
 20
2.787515231541547
 30
0.0
 10
8.941731551889491
 20
2.811011000181951
 30
0.0
 10
8.95468325638721
 20
2.834705649591469
 30
0.0
 10
8.967331649894017
 20
2.858599344822937
 30
0.0
 10
8.982945115537222
 20
2.889069777575039
 30
0.0
 10
9.001145440939514
 20
2.926279891691073
 30
0.0
 10
9.021449912744094
 20
2.97042618254996
 30
0.0
 10
9.040668367636313
 20
3.015050376210735
 30
0.0
 10
9.058899811635175
 20
3.060116430082481
 30
0.0
 10
9.070141117636258
 20
3.090522357441528
 30
0.0
 10
9.075764769160811
 20
3.105733431646932
 30
0.0
  0
SPLINE
  5
71
330
1F
100
AcDbEntity
  8
0
  6
Continuous
 62
     7
370
    25
100
AcDbSpline
210
0.0
220
0.0
230
1.0
 70
     8
 71
     3
 72
    28
 73
    24
 74
     0
 42
0.00000001
 43
0.00000001
 40
0.0
 40
0.0
 40
0.0
 40
0.0
 40
0.0226670395786226
 40
0.0453168404603327
 40
0.0679539764043341
 40
0.0905830288493036
 40
0.1132085841443899
 40
0.1358352307653252
 40
0.1584675565240759
 40
0.1811101457805109
 40
0.2037675766645464
 40
0.226444418317165
 40
0.249145228158554
 40
0.3739802730519971
 40
0.4988771782661904
 40
0.6240045461626413
 40
0.7491701731548994
 40
0.791030169183326
 40
0.8328300976867677
 40
0.8745984709310738
 40
0.916363865808276
 40
0.9581548653202722
 40
1.0
 40
1.0
 40
1.0
 40
1.0
 10
7.880541623066051
 20
1.89787588088808
 30
0.0
 10
7.889499754416324
 20
1.901264843108584
 30
0.0
 10
7.907409204294636
 20
1.908040190182027
 30
0.0
 10
7.934078680040483
 20
1.918682084750567
 30
0.0
 10
7.960589830717211
 20
1.929668763234506
 30
0.0
 10
7.986929697776604
 20
1.941034898900997
 30
0.0
 10
8.013101746336815
 20
1.952771206111722
 30
0.0
 10
8.039105045402062
 20
1.964880171376039
 30
0.0
 10
8.064939835860567
 20
1.977361121865348
 30
0.0
 10
8.09060606609162
 20
1.990214253198826
 30
0.0
 10
8.116103683252186
 20
2.003439445152498
 30
0.0
 10
8.141432932965802
 20
2.017036971610261
 30
0.0
 10
8.204312548724337
 20
2.051947924721719
 30
0.0
 10
8.302393381707232
 20
2.112462400424661
 30
0.0
 10
8.430380891197638
 20
2.206036805774599
 30
0.0
 10
8.550821352819577
 20
2.309362006087674
 30
0.0
 10
8.638014916757797
 20
2.396944116606483
 30
0.0
 10
8.69694822453344
 20
2.462621603943313
 30
0.0
 10
8.731305195524744
 20
2.502982903820056
 30
0.0
 10
8.764575252121649
 20
2.544193301808366
 30
0.0
 10
8.796731219568828
 20
2.586271934912151
 30
0.0
 10
8.827877114859476
 20
2.629149128942655
 30
0.0
 10
8.847690509296
 20
2.65841379687373
 30
0.0
 10
8.857603618823019
 20
2.673055601911325
 30
0.0
  0
SPLINE
  5
72
330
1F
100
AcDbEntity
  8
0
  6
Continuous
 62
     7
370
    25
100
AcDbSpline
210
0.0
220
0.0
230
1.0
 70
     8
 71
     3
 72
    24
 73
    20
 74
     0
 42
0.00000001
 43
0.00000001
 40
0.0
 40
0.0
 40
0.0
 40
0.0
 40
0.0454482956714328
 40
0.0908780480355997
 40
0.1362976610291813
 40
0.1817155442173022
 40
0.2271401081258164
 40
0.2725797595709287
 40
0.3180428969991092
 40
0.3635379058501893
 40
0.4090731539563742
 40
0.4546569869896945
 40
0.500297723970084
 40
0.5837987326154593
 40
0.6671443681605992
 40
0.750385855773499
 40
0.8335746130159992
 40
0.9167621552266678
 40
1.0
 40
1.0
 40
1.0
 40
1.0
 10
7.256483627654102
 20
1.765818192570484
 30
0.0
 10
7.266163494782102
 20
1.766431597303109
 30
0.0
 10
7.285519279566561
 20
1.767658156493793
 30
0.0
 10
7.314513716163912
 20
1.769997859211718
 30
0.0
 10
7.343469159989186
 20
1.77270294481113
 30
0.0
 10
7.372383475582068
 20
1.775809297515372
 30
0.0
 10
7.401257231150129
 20
1.779307304102242
 30
0.0
 10
7.43009027098702
 20
1.7831995399547
 30
0.0
 10
7.458882632045158
 20
1.787485313777659
 30
0.0
 10
7.4876343048255
 20
1.792164810633542
 30
0.0
 10
7.516345273171111
 20
1.797237976953794
 30
0.0
 10
7.545015594486097
 20
1.80270483593976
 30
0.0
 10
7.581547238015989
 20
1.810182937948855
 30
0.0
 10
7.625796868754101
 20
1.820121584554317
 30
0.0
 10
7.677569993020087
 20
1.833106264960171
 30
0.0
 10
7.728943101213724
 20
1.847348385570667
 30
0.0
 10
7.779904645279554
 20
1.862878152416122
 30
0.0
 10
7.830496746299213
 20
1.879582820488292
 30
0.0
 10
7.863856636435471
 20
1.891776965516084
 30
0.0
 10
7.880541623066051
 20
1.89787588088808
 30
0.0
  0
ARC
  5
73
330
1F
100
AcDbEntity
  8
0
  6
Continuous
 62
     7
370
    25
100
AcDbCircle
 10
7.1301440007
 20
3.8917528881
 30
0.0
 40
2.129685430072883
100
AcDbArc
 50
269.3990430679
 51
273.4009623403
  0
SPLINE
  5
74
330
1F
100
AcDbEntity
  8
0
  6
Continuous
 62
     7
370
    25
100
AcDbSpline
210
0.0
220
0.0
230
1.0
 70
     8
 71
     3
 72
    10
 73
     6
 74
     0
 42
0.00000001
 43
0.00000001
 40
0.0
 40
0.0
 40
0.0
 40
0.0
 40
0.3323283850316394
 40
0.665656817472383
 40
1.0
 40
1.0
 40
1.0
 40
1.0
 10
6.936203200905931
 20
1.762282705293375
 30
0.0
 10
6.955212590857121
 20
1.7624238229187
 30
0.0
 10
6.993288574092187
 20
1.762706482822563
 30
0.0
 10
7.050491464366964
 20
1.762672709464484
 30
0.0
 10
7.088682358456752
 20
1.762347469803071
 30
0.0
 10
7.107806827413185
 20
1.762184602817201
 30
0.0
  0
ARC
  5
75
330
1F
100
AcDbEntity
  8
0
  6
Continuous
 62
     7
370
    25
100
AcDbCircle
 10
7.2043875898
 20
-26.6705030221
 30
0.0
 40
28.43405048683822
100
AcDbArc
 50
90.5404105706
 51
90.6818730053
  0
SPLINE
  5
76
330
1F
100
AcDbEntity
  8
0
  6
Continuous
 62
     7
370
    25
100
AcDbSpline
210
0.0
220
0.0
230
1.0
 70
     8
 71
     3
 72
     9
 73
     5
 74
     0
 42
0.00000001
 43
0.00000001
 40
0.0
 40
0.0
 40
0.0
 40
0.0
 40
0.5000366716642582
 40
1.0
 40
1.0
 40
1.0
 40
1.0
 10
6.665175008611217
 20
1.758985826730995
 30
0.0
 10
6.698648473884036
 20
1.759448502294738
 30
0.0
 10
6.765590494679051
 20
1.760373785558871
 30
0.0
 10
6.832534442155811
 20
1.761147214873076
 30
0.0
 10
6.866003960948224
 20
1.761533901167237
 30
0.0
  0
SPLINE
  5
77
330
1F
100
AcDbEntity
  8
0
  6
Continuous
 62
     7
370
    25
100
AcDbSpline
210
0.0
220
0.0
230
1.0
 70
     8
 71
     3
 72
    14
 73
    10
 74
     0
 42
0.00000001
 43
0.00000001
 40
0.0
 40
0.0
 40
0.0
 40
0.0
 40
0.1181911270349027
 40
0.2348573108861107
 40
0.3499989763623028
 40
0.4636165653723803
 40
0.6454481391147467
 40
0.8242418947639079
 40
1.0
 40
1.0
 40
1.0
 40
1.0
 10
4.997898177226077
 20
1.718154200622543
 30
0.0
 10
5.063569665760909
 20
1.720295051508703
 30
0.0
 10
5.194065326358375
 20
1.724549131275481
 30
0.0
 10
5.38855268051449
 20
1.730427823530888
 30
0.0
 10
5.580508701935854
 20
1.73588287003165
 30
0.0
 10
5.808690315715189
 20
1.74190975175408
 30
0.0
 10
6.072264126977668
 20
1.748151352049761
 30
0.0
 10
6.370395549672524
 20
1.754271027366014
 30
0.0
 10
6.567477657108435
 20
1.757423223242665
 30
0.0
 10
6.665175008611218
 20
1.758985826730995
 30
0.0
  0
LINE
  5
78
330
1F
100
AcDbEntity
  8
0
  6
Continuous
 62
     7
370
    25
100
AcDbLine
 10
4.9978981688
 20
2.4681544546
 30
0.0
 11
4.9978981688
 21
1.7181544546
 31
0.0
  0
LINE
  5
79
330
1F
100
AcDbEntity
  8
0
  6
Continuous
 62
     7
370
    25
100
AcDbLine
 10
4.7478981688
 20
2.4681544546
 30
0.0
 11
4.9978981688
 21
2.4681544546
 31
0.0
  0
LINE
  5
7A
330
1F
100
AcDbEntity
  8
0
  6
Continuous
 62
     7
370
    25
100
AcDbLine
 10
4.7478981688
 20
1.7181544546
 30
0.0
 11
4.7478981688
 21
2.4681544546
 31
0.0
  0
SPLINE
  5
7B
330
1F
100
AcDbEntity
  8
0
  6
Continuous
 62
     7
370
    25
100
AcDbSpline
210
0.0
220
0.0
230
1.0
 70
     8
 71
     3
 72
    14
 73
    10
 74
     0
 42
0.00000001
 43
0.00000001
 40
0.0
 40
0.0
 40
0.0
 40
0.0
 40
0.1050868353877611
 40
0.211268140473857
 40
0.3185443979797944
 40
0.4269160759952961
 40
0.5363836285578366
 40
0.7651376340357559
 40
1.0
 40
1.0
 40
1.0
 40
1.0
 10
3.080621328115797
 20
1.758985826731008
 30
0.0
 10
3.139035519914567
 20
1.758076628068123
 30
0.0
 10
3.256472281932113
 20
1.756248761522135
 30
0.0
 10
3.433532167504046
 20
1.753006617695595
 30
0.0
 10
3.612411040215319
 20
1.749381581388845
 30
0.0
 10
3.793108459732859
 20
1.745340336831246
 30
0.0
 10
4.041310432623896
 20
1.739278059967157
 30
0.0
 10
4.359790039138595
 20
1.730606800100774
 30
0.0
 10
4.617397426694359
 20
1.722341371290692
 30
0.0
 10
4.747898168812269
 20
1.718154206458686
 30
0.0
  0
SPLINE
  5
7C
330
1F
100
AcDbEntity
  8
0
  6
Continuous
 62
     7
370
    25
100
AcDbSpline
210
0.0
220
0.0
230
1.0
 70
     8
 71
     3
 72
     9
 73
     5
 74
     0
 42
0.00000001
 43
0.00000001
 40
0.0
 40
0.0
 40
0.0
 40
0.0
 40
0.4999633283357404
 40
1.0
 40
1.0
 40
1.0
 40
1.0
 10
2.87979237577879
 20
1.76153390116725
 30
0.0
 10
2.913261894571204
 20
1.761147214873087
 30
0.0
 10
2.980205842047963
 20
1.760373785558881
 30
0.0
 10
3.047147862842979
 20
1.75944850229475
 30
0.0
 10
3.080621328115797
 20
1.758985826731007
 30
0.0
  0
ARC
  5
7D
330
1F
100
AcDbEntity
  8
0
  6
Continuous
 62
     7
370
    25
100
AcDbCircle
 10
2.5413069809
 20
-26.6705018068
 30
0.0
 40
28.43405048585501
100
AcDbArc
 50
89.3179219175
 51
89.4593846062
  0
SPLINE
  5
7E
330
1F
100
AcDbEntity
  8
0
  6
Continuous
 62
     7
370
    25
100
AcDbSpline
210
0.0
220
0.0
230
1.0
 70
     8
 71
     3
 72
    10
 73
     6
 74
     0
 42
0.00000001
 43
0.00000001
 40
0.0
 40
0.0
 40
0.0
 40
0.0
 40
0.3343431825275845
 40
0.6676716149683293
 40
1.0
 40
1.0
 40
1.0
 40
1.0
 10
2.637989386030703
 20
1.762184861253635
 30
0.0
 10
2.657113854987135
 20
1.762347728239502
 30
0.0
 10
2.695304749076921
 20
1.762672967900911
 30
0.0
 10
2.752507639351697
 20
1.762706741259
 30
0.0
 10
2.790583622586765
 20
1.762424081355135
 30
0.0
 10
2.809593012537957
 20
1.762282963729808
 30
0.0
  0
ARC
  5
7F
330
1F
100
AcDbEntity
  8
0
  6
Continuous
 62
     7
370
    25
100
AcDbCircle
 10
2.6156522127
 20
3.8917531466
 30
0.0
 40
2.129685430072883
100
AcDbArc
 50
266.5990376597
 51
270.6009569321
  0
SPLINE
  5
80
330
1F
100
AcDbEntity
  8
0
  6
Continuous
 62
     7
370
    25
100
AcDbSpline
210
0.0
220
0.0
230
1.0
 70
     8
 71
     3
 72
    24
 73
    20
 74
     0
 42
0.00000001
 43
0.00000001
 40
0.0
 40
0.0
 40
0.0
 40
0.0
 40
0.0454070661258494
 40
0.0907933157250537
 40
0.1361671017426642
 40
0.1815367840076776
 40
0.2269107246173608
 40
0.272297283315284
 40
0.3177048128758669
 40
0.3631416545081416
 40
0.4086161332913441
 40
0.4541365536547122
 40
0.4997111949136146
 40
0.5833313352814952
 40
0.6667871932802302
 40
0.7501302506089845
 40
0.8334121981542949
 40
0.9166848406031409
 40
1.0
 40
1.0
 40
1.0
 40
1.0
 10
1.865254590377838
 20
1.897876139324519
 30
0.0
 10
1.874345204214208
 20
1.894519623403872
 30
0.0
 10
1.892522264363668
 20
1.887808130331959
 30
0.0
 10
1.919953127592395
 20
1.878212374323587
 30
0.0
 10
1.947494526162501
 20
1.868965752599623
 30
0.0
 10
1.975158993525415
 20
1.860101813559393
 30
0.0
 10
2.002943168795796
 20
1.851611572028971
 30
0.0
 10
2.030847949150468
 20
1.843497436398421
 30
0.0
 10
2.058873089390991
 20
1.835758762208035
 30
0.0
 10
2.087018655596644
 20
1.82839572197925
 30
0.0
 10
2.115284611239408
 20
1.821408272971324
 30
0.0
 10
2.143671018818305
 20
1.814796415121631
 30
0.0
 10
2.180096544434133
 20
1.806827822836039
 30
0.0
 10
2.224611438760162
 20
1.797973790492064
 30
0.0
 10
2.277274567129617
 20
1.788852395345906
 30
0.0
 10
2.330076729951358
 20
1.781047725213214
 30
0.0
 10
2.383019608790089
 20
1.774592210152596
 30
0.0
 10
2.436096026002919
 20
1.769365238655751
 30
0.0
 10
2.471570714548446
 20
1.767000914699385
 30
0.0
 10
2.489312585789786
 20
1.765818451006919
 30
0.0
  0
SPLINE
  5
81
330
1F
100
AcDbEntity
  8
0
  6
Continuous
 62
     7
370
    25
100
AcDbSpline
210
0.0
220
0.0
230
1.0
 70
     8
 71
     3
 72
    28
 73
    24
 74
     0
 42
0.00000001
 43
0.00000001
 40
0.0
 40
0.0
 40
0.0
 40
0.0
 40
0.022830713722438
 40
0.0456420277708364
 40
0.0684385616376359
 40
0.0912249438044521
 40
0.1140058089405921
 40
0.1367857950827393
 40
0.159569540804383
 40
0.1823616823836036
 40
0.2051668509778661
 40
0.22798966981439
 40
0.2508347514046054
 40
0.3759836308036196
 40
0.5011277328071213
 40
0.6260079283183284
 40
0.7508596694450486
 40
0.7924538975437253
 40
0.833982161786578
 40
0.8754726426834214
 40
0.916953597749643
 40
0.9584533039593041
 40
1.0
 40
1.0
 40
1.0
 40
1.0
 10
0.8881925946208774
 20
2.673055860347771
 30
0.0
 10
0.8935737064461714
 20
2.665049213574815
 30
0.0
 10
0.9043313576678529
 20
2.64904272342276
 30
0.0
 10
0.9208925311561086
 20
2.625335341796715
 30
0.0
 10
0.9377544103577791
 20
2.601864836879757
 30
0.0
 10
0.9549480511755873
 20
2.578651900158353
 30
0.0
 10
0.9724651366711724
 20
2.555690996311285
 30
0.0
 10
0.9903078930063169
 20
2.532983610512403
 30
0.0
 10
1.008475715351831
 20
2.510529351842452
 30
0.0
 10
1.026968783935923
 20
2.488328315949991
 30
0.0
 10
1.045786968169011
 20
2.466380527149938
 30
0.0
 10
1.06493059513644
 20
2.444685807387529
 30
0.0
 10
1.113448937434252
 20
2.391250120231791
 30
0.0
 10
1.194970765216244
 20
2.309366692842089
 30
0.0
 10
1.315403809688767
 20
2.206046189502431
 30
0.0
 10
1.443397591913335
 20
2.112465627309621
 30
0.0
 10
1.548277913044327
 20
2.047757442001484
 30
0.0
 10
1.625360907513662
 20
2.005549455746875
 30
0.0
 10
1.672192446171985
 20
1.981469712689042
 30
0.0
 10
1.71959002008524
 20
1.958634379630061
 30
0.0
 10
1.767565970559326
 20
1.937074049469703
 30
0.0
 10
1.816076527426665
 20
1.916672479334176
 30
0.0
 10
1.848855720285293
 20
1.904143948984686
 30
0.0
 10
1.865254590377838
 20
1.897876139324519
 30
0.0
  0
SPLINE
  5
82
330
1F
100
AcDbEntity
  8
0
  6
Continuous
 62
     7
370
    25
100
AcDbSpline
210
0.0
220
0.0
230
1.0
 70
     8
 71
     3
 72
    21
 73
    17
 74
     0
 42
0.00000001
 43
0.00000001
 40
0.0
 40
0.0
 40
0.0
 40
0.0
 40
0.0556525377006156
 40
0.1112664638152927
 40
0.1668515842550293
 40
0.2224177201810873
 40
0.2779747028227737
 40
0.3335323682685604
 40
0.3891005522443313
 40
0.4446890848925826
 40
0.5003077855664441
 40
0.600549664269246
 40
0.7005815435008765
 40
0.8004615822129957
 40
0.9002482048506769
 40
1.0
 40
1.0
 40
1.0
 40
1.0
 10
0.6700314442830864
 20
3.10573369008338
 30
0.0
 10
0.6731302397663329
 20
3.097272540358726
 30
0.0
 10
0.6793256807965773
 20
3.080356111233095
 30
0.0
 10
0.6890417961853417
 20
3.055147873575848
 30
0.0
 10
0.6990627483380564
 20
3.030074956051096
 30
0.0
 10
0.7094191468443438
 20
3.005148438647135
 30
0.0
 10
0.7201027929317971
 20
2.980365357672677
 30
0.0
 10
0.7311158872769258
 20
2.955726509568264
 30
0.0
 10
0.7424578167634337
 20
2.93123168510996
 30
0.0
 10
0.7541288270654471
 20
2.906880938631216
 30
0.0
 10
0.769334622925473
 20
2.876206742916269
 30
0.0
 10
0.7884261565769992
 20
2.839431758218802
 30
0.0
 10
0.8118464686491275
 20
2.796844342317191
 30
0.0
 10
0.8362705499797577
 20
2.754911376572196
 30
0.0
 10
0.861609171839341
 20
2.713573665178704
 30
0.0
 10
0.8793324848376158
 20
2.686560223646999
 30
0.0
 10
0.8881925946208774
 20
2.673055860347771
 30
0.0
  0
SPLINE
  5
83
330
1F
100
AcDbEntity
  8
0
  6
Continuous
 62
     7
370
    25
100
AcDbSpline
210
0.0
220
0.0
230
1.0
 70
     8
 71
     3
 72
    13
 73
     9
 74
     0
 42
0.00000001
 43
0.00000001
 40
0.0
 40
0.0
 40
0.0
 40
0.0
 40
0.1669297116105205
 40
0.3337078048400858
 40
0.5003690316443649
 40
0.6669482171215748
 40
0.8334802378392389
 40
1.0
 40
1.0
 40
1.0
 40
1.0
 10
0.619790799576224
 20
3.265979072722083
 30
0.0
 10
0.6222360047372267
 20
3.25695700643311
 30
0.0
 10
0.6271241941361635
 20
3.238921068388483
 30
0.0
 10
0.6349474996405778
 20
3.212015288103799
 30
0.0
 10
0.6431231487064415
 20
3.185235627541896
 30
0.0
 10
0.6516958527604415
 20
3.158594894131794
 30
0.0
 10
0.6606214594658836
 20
3.132078015658808
 30
0.0
 10
0.6668948596451958
 20
3.1145149164616
 30
0.0
 10
0.6700314442830864
 20
3.10573369008338
 30
0.0
  0
SPLINE
  5
84
330
1F
100
AcDbEntity
  8
0
  6
Continuous
 62
     7
370
    25
100
AcDbSpline
210
0.0
220
0.0
230
1.0
 70
     8
 71
     3
 72
    19
 73
    15
 74
     0
 42
0.00000001
 43
0.00000001
 40
0.0
 40
0.0
 40
0.0
 40
0.0
 40
0.0626055354343602
 40
0.1251476802102109
 40
0.1876393006488027
 40
0.2500932942973728
 40
0.3125225820236285
 40
0.3749401000381701
 40
0.4373587918693997
 40
0.4997916003156359
 40
0.6251451765376527
 40
0.7502268190072449
 40
0.8751428462832614
 40
0.9999999999999999
 40
0.9999999999999999
 40
0.9999999999999999
 40
0.9999999999999999
 10
0.560416741478739
 20
3.67498117346411
 30
0.0
 10
0.5607016594079783
 20
3.666341872471866
 30
0.0
 10
0.5612712067754312
 20
3.649072018132058
 30
0.0
 10
0.5625952468192449
 20
3.62319745511722
 30
0.0
 10
0.5642627236765714
 20
3.597364377698364
 30
0.0
 10
0.5663072989826261
 20
3.571573762174059
 30
0.0
 10
0.568719950524229
 20
3.545825342814624
 30
0.0
 10
0.5715031414512681
 20
3.520119227196766
 30
0.0
 10
0.5746560338289274
 20
3.494455270523191
 30
0.0
 10
0.5793625987313298
 20
3.460231073647091
 30
0.0
 10
0.5861675621331907
 20
3.417565953316999
 30
0.0
 10
0.5958468144140242
 20
3.36664812275315
 30
0.0
 10
0.6068893284067847
 20
3.316072695449866
 30
0.0
 10
0.6154909850130929
 20
3.282674322875814
 30
0.0
 10
0.619790799576224
 20
3.265979072722083
 30
0.0
  0
SPLINE
  5
85
330
1F
100
AcDbEntity
  8
0
  6
Continuous
 62
     7
370
    25
100
AcDbSpline
210
0.0
220
0.0
230
1.0
 70
     8
 71
     3
 72
     9
 73
     5
 74
     0
 42
0.00000001
 43
0.00000001
 40
0.0
 40
0.0
 40
0.0
 40
0.0
 40
0.5034092854096495
 40
1.0
 40
1.0
 40
1.0
 40
1.0
 10
0.5548462978917291
 20
3.891945204894439
 30
0.0
 10
0.5556957657334273
 20
3.855535778716066
 30
0.0
 10
0.5573831955570697
 20
3.783210084229233
 30
0.0
 10
0.559410166519869
 20
3.710893110917831
 30
0.0
 10
0.560416741478739
 20
3.67498117346411
 30
0.0
  0
LINE
  5
86
330
1F
100
AcDbEntity
  8
0
  6
Continuous
 62
     7
370
    25
100
AcDbLine
 10
0.5516289092
 20
4.0319365213
 30
0.0
 11
0.5548462979
 21
3.8919452049
 31
0.0
  0
SPLINE
  5
87
330
1F
100
AcDbEntity
  8
0
  6
Continuous
 62
     7
370
    25
100
AcDbSpline
210
0.0
220
0.0
230
1.0
 70
     8
 71
     3
 72
    11
 73
     7
 74
     0
 42
0.00000001
 43
0.00000001
 40
0.0
 40
0.0
 40
0.0
 40
0.0
 40
0.2598508576611457
 40
0.4997292372119273
 40
0.7565606578144386
 40
1.0
 40
1.0
 40
1.0
 40
1.0
 10
0.5053290379905124
 20
5.763490027197771
 30
0.0
 10
0.5096258981900104
 20
5.613515918053953
 30
0.0
 10
0.5178893562721908
 20
5.325094906714782
 30
0.0
 10
0.5298671355661012
 20
4.888427503268675
 30
0.0
 10
0.5411318648066129
 20
4.461220064095095
 30
0.0
 10
0.5481929015550884
 20
4.172454315231881
 30
0.0
 10
0.5516289091514885
 20
4.031936521313228
 30
0.0
  0
SPLINE
  5
88
330
1F
100
AcDbEntity
  8
0
  6
Continuous
 62
     7
370
    25
100
AcDbSpline
210
0.0
220
0.0
230
1.0
 70
     8
 71
     3
 72
     9
 73
     5
 74
     0
 42
0.00000001
 43
0.00000001
 40
0.0
 40
0.0
 40
0.0
 40
0.0
 40
0.5631870135630658
 40
1.0
 40
1.0
 40
1.0
 40
1.0
 10
0.4943241719580618
 20
6.138656565588525
 30
0.0
 10
0.4964074816356546
 20
6.068227434157738
 30
0.0
 10
0.5001066253080405
 20
5.94317282576894
 30
0.0
 10
0.5037413451579926
 20
5.818116329017228
 30
0.0
 10
0.5053290379905119
 20
5.763490027197771
 30
0.0
  0
LINE
  5
89
330
1F
100
AcDbEntity
  8
0
  6
Continuous
 62
     7
370
    25
100
AcDbLine
 10
0.4943323527
 20
6.1386568076
 30
0.0
 11
0.8443323527
 21
6.1386568076
 31
0.0
  0
LINE
  5
8A
330
1F
100
AcDbEntity
  8
0
  6
Continuous
 62
     7
370
    25
100
AcDbLine
 10
0.8443323527
 20
6.1386568076
 30
0.0
 11
0.8443323527
 21
6.2636568076
 31
0.0
  0
LINE
  5
8B
330
1F
100
AcDbEntity
  8
0
  6
Continuous
 62
     7
370
    25
100
AcDbLine
 10
0.8443323527
 20
6.2636568076
 30
0.0
 11
0.4906204843
 21
6.2636568076
 31
0.0
  0
LINE
  5
8C
330
1F
100
AcDbEntity
  8
0
  6
Continuous
 62
     7
370
    25
100
AcDbLine
 10
0.4868014764
 20
6.3919504742
 30
0.0
 11
0.4906172702
 21
6.2636567122
 31
0.0
  0
SPLINE
  5
8D
330
1F
100
AcDbEntity
  8
0
  6
Continuous
 62
     7
370
    25
100
AcDbSpline
210
0.0
220
0.0
230
1.0
 70
     8
 71
     3
 72
     9
 73
     5
 74
     0
 42
0.00000001
 43
0.00000001
 40
0.0
 40
0.0
 40
0.0
 40
0.0
 40
0.5051050683371935
 40
0.9999999999999999
 40
0.9999999999999999
 40
0.9999999999999999
 40
0.9999999999999999
 10
0.4752075585561699
 20
6.76605157718182
 30
0.0
 10
0.4772153882744725
 20
6.703066517844589
 30
0.0
 10
0.4811904616684333
 20
6.578369572029774
 30
0.0
 10
0.484943912557259
 20
6.453665759164521
 30
0.0
 10
0.486801476378384
 20
6.391950474218478
 30
0.0
  0
LWPOLYLINE
  5
8E
330
1F
100
AcDbEntity
  8
0
  6
Continuous
 62
     7
370
    25
100
AcDbPolyline
 90
        9
 70
   128
 43
0.0
 10
0.4746356566
 20
6.7838942218
 10
0.4747069872
 20
6.7816638862
 10
0.4747783703
 20
6.7794335523
 10
0.4748498059
 20
6.77720322
 10
0.4749212941
 20
6.7749728895
 10
0.4749928348
 20
6.7727425606
 10
0.4750644281
 20
6.7705122334
 10
0.475136074
 20
6.7682819079
 10
0.4752077723
 20
6.7660515841
  0
ARC
  5
8F
330
1F
100
AcDbEntity
  8
0
  6
Continuous
 62
     7
370
    25
100
AcDbCircle
 10
89.6858337954
 20
9.6359927277
 30
0.0
 40
89.25677756660927
100
AcDbArc
 50
181.7646598236
 51
181.8311329764
  0
SPLINE
  5
90
330
1F
100
AcDbEntity
  8
0
  6
Continuous
 62
     7
370
    25
100
AcDbSpline
210
0.0
220
0.0
230
1.0
 70
     8
 71
     3
 72
     9
 73
     5
 74
     0
 42
0.00000001
 43
0.00000001
 40
0.0
 40
0.0
 40
0.0
 40
0.0
 40
0.4915329669033864
 40
1.0
 40
1.0
 40
1.0
 40
1.0
 10
0.455745669788733
 20
7.368611469881402
 30
0.0
 10
0.4584123584487435
 20
7.289770552268916
 30
0.0
 10
0.4638376072917881
 20
7.129372526254151
 30
0.0
 10
0.4688419692733078
 20
6.968960813974183
 30
0.0
 10
0.4713865223625925
 20
6.887396746557243
 30
0.0
  0
SPLINE
  5
91
330
1F
100
AcDbEntity
  8
0
  6
Continuous
 62
     7
370
    25
100
AcDbSpline
210
0.0
220
0.0
230
1.0
 70
     8
 71
     3
 72
    22
 73
    18
 74
     0
 42
0.00000001
 43
0.00000001
 40
0.0
 40
0.0
 40
0.0
 40
0.0
 40
0.0499639598283775
 40
0.0999140942905962
 40
0.1498595681015294
 40
0.1998095485414293
 40
0.2497732004099353
 40
0.2997596809868958
 40
0.3497781350138583
 40
0.3998376897099062
 40
0.449947449835345
 40
0.5001164928163913
 40
0.6001684578337896
 40
0.7001106445263306
 40
0.8000151742977549
 40
0.8999542500776113
 40
1.0
 40
1.0
 40
1.0
 40
1.0
 10
0.5109170257122226
 20
7.917992688910028
 30
0.0
 10
0.5088039968529446
 20
7.909014423652399
 30
0.0
 10
0.5045785238237858
 20
7.891060377483963
 30
0.0
 10
0.4987038715693357
 20
7.864025708353054
 30
0.0
 10
0.493170348705297
 20
7.836922436187756
 30
0.0
 10
0.4880110883323879
 20
7.809742629165354
 30
0.0
 10
0.4832172138166139
 20
7.782488415689146
 30
0.0
 10
0.4787911032478869
 20
7.755159230018644
 30
0.0
 10
0.4747321241426037
 20
7.727755222971916
 30
0.0
 10
0.4710404279191439
 20
7.700276373984529
 30
0.0
 10
0.4677160416816166
 20
7.672722630964893
 30
0.0
 10
0.4637799480258983
 20
7.635950391412983
 30
0.0
 10
0.4597887472596418
 20
7.589936802810676
 30
0.0
 10
0.4564789827915527
 20
7.534666985617224
 30
0.0
 10
0.4546854951590293
 20
7.479349925755201
 30
0.0
 10
0.4542736370760434
 20
7.423981332833703
 30
0.0
 10
0.4552548177602535
 20
7.387074653010753
 30
0.0
 10
0.455745669788733
 20
7.368611469881399
 30
0.0
  0
ARC
  5
92
330
1F
100
AcDbEntity
  8
0
  6
Continuous
 62
     7
370
    25
100
AcDbCircle
 10
4.703084729
 20
6.914028734
 30
0.0
 40
4.310709201602203
100
AcDbArc
 50
163.7445928938
 51
166.5321357038
  0
SPLINE
  5
93
330
1F
100
AcDbEntity
  8
0
  6
Continuous
 62
     7
370
    25
100
AcDbSpline
210
0.0
220
0.0
230
1.0
 70
     8
 71
     3
 72
    16
 73
    12
 74
     0
 42
0.00000001
 43
0.00000001
 40
0.0
 40
0.0
 40
0.0
 40
0.0
 40
0.0697679462462194
 40
0.1395388028237934
 40
0.2093170454877817
 40
0.2791071485722017
 40
0.3489135841304403
 40
0.5118223617801851
 40
0.6746015936056757
 40
0.8373084055893207
 40
1.0
 40
1.0
 40
1.0
 40
1.0
 10
0.7306090718370087
 20
8.587820141101686
 30
0.0
 10
0.7261557411877801
 20
8.577179590149417
 30
0.0
 10
0.7172488941210924
 20
8.555898044380168
 30
0.0
 10
0.704212817833039
 20
8.523839980532127
 30
0.0
 10
0.6914142017322717
 20
8.491682745155334
 30
0.0
 10
0.6788761128551424
 20
8.459416557115919
 30
0.0
 10
0.6611336327174686
 20
8.41265550744132
 30
0.0
 10
0.6387479249642617
 20
8.351214359159183
 30
0.0
 10
0.6125580612631902
 20
8.274829013672976
 30
0.0
 10
0.5877110657051281
 20
8.198030191562644
 30
0.0
 10
0.5723720007758792
 20
8.14646312418979
 30
0.0
 10
0.5647028269844008
 20
8.120680796295392
 30
0.0
  0
LINE
  5
94
330
1F
100
AcDbEntity
  8
0
  6
Continuous
 62
     7
370
    25
100
AcDbLine
 10
0.7306101682
 20
8.5878196793
 30
0.0
 11
1.0173133837
 21
8.3870679265
 31
0.0
  0
LINE
  5
95
330
1F
100
AcDbEntity
  8
0
  6
Continuous
 62
     7
370
    25
100
AcDbLine
 10
1.0173133837
 20
8.3870679265
 30
0.0
 11
1.0890104382
 21
8.4894619321
 31
0.0
  0
LINE
  5
96
330
1F
100
AcDbEntity
  8
0
  6
Continuous
 62
     7
370
    25
100
AcDbLine
 10
1.0890104382
 20
8.4894619321
 30
0.0
 11
0.7818238279
 21
8.7045563123
 31
0.0
  0
LINE
  5
97
330
1F
100
AcDbEntity
  8
0
  6
Continuous
 62
     7
370
    25
100
AcDbLine
 10
0.7912113169
 20
8.724983684
 30
0.0
 11
0.7818237497
 21
8.704556348
 31
0.0
  0
SPLINE
  5
98
330
1F
100
AcDbEntity
  8
0
  6
Continuous
 62
     7
370
    25
100
AcDbSpline
210
0.0
220
0.0
230
1.0
 70
     8
 71
     3
 72
    24
 73
    20
 74
     0
 42
0.00000001
 43
0.00000001
 40
0.0
 40
0.0
 40
0.0
 40
0.0
 40
0.0454578470635269
 40
0.0909057371609584
 40
0.1363476498840786
 40
0.1817875663951482
 40
0.2272294683810954
 40
0.2726773370070035
 40
0.3181351518702957
 40
0.3636068899569679
 40
0.4090965246012527
 40
0.4546080244500619
 40
0.5001453524335502
 40
0.5835396737837844
 40
0.6668673443645735
 40
0.7501527668110253
 40
0.8334203809023184
 40
0.9166946420971092
 40
1.0
 40
1.0
 40
1.0
 40
1.0
 10
1.238360697432752
 20
9.477525640275687
 30
0.0
 10
1.230465632644936
 20
9.466838118901709
 30
0.0
 10
1.214677232383329
 20
9.44546541712005
 30
0.0
 10
1.191378078146631
 20
9.413129836031585
 30
0.0
 10
1.168364018825525
 20
9.380597679713643
 30
0.0
 10
1.145662280601293
 20
9.34784872289675
 30
0.0
 10
1.123265570070157
 20
9.314888385079893
 30
0.0
 10
1.101175841961052
 20
9.281715214971713
 30
0.0
 10
1.07939257350245
 20
9.248329603043365
 30
0.0
 10
1.057915903660184
 20
9.214731443576131
 30
0.0
 10
1.036745802063605
 20
9.180920773734853
 30
0.0
 10
1.015882253586355
 20
9.14689755552156
 30
0.0
 10
0.9896334077583644
 20
9.103182495521
 30
0.0
 10
0.9583968510795245
 20
9.049572244463118
 30
0.0
 10
0.9226923261213147
 20
8.985807534355077
 30
0.0
 10
0.8880965990675666
 20
8.921475969079689
 30
0.0
 10
0.8546374269193177
 20
8.856564862209686
 30
0.0
 10
0.8222115848651437
 20
8.7911219598996
 30
0.0
 10
0.8015460254972286
 20
8.74703251948484
 30
0.0
 10
0.7912113169132317
 20
8.724983684018744
 30
0.0
  0
SPLINE
  5
99
330
1F
100
AcDbEntity
  8
0
  6
Continuous
 62
     7
370
    25
100
AcDbSpline
210
0.0
220
0.0
230
1.0
 70
     8
 71
     3
 72
    11
 73
     7
 74
     0
 42
0.00000001
 43
0.00000001
 40
0.0
 40
0.0
 40
0.0
 40
0.0
 40
0.2506545501700284
 40
0.5008527144885941
 40
0.7506244831037708
 40
0.9999999999999999
 40
0.9999999999999999
 40
0.9999999999999999
 40
0.9999999999999999
 10
1.322307549282447
 20
9.585478497164033
 30
0.0
 10
1.315125167045221
 20
9.576591191673097
 30
0.0
 10
1.300773480081753
 20
9.558832762485974
 30
0.0
 10
1.279640183464107
 20
9.531918577827431
 30
0.0
 10
1.258796442524299
 20
9.504853065838395
 30
0.0
 10
1.245169006383356
 20
9.486629959948013
 30
0.0
 10
1.238360697432751
 20
9.477525640275688
 30
0.0
  0
SPLINE
  5
9A
330
1F
100
AcDbEntity
  8
0
  6
Continuous
 62
     7
370
    25
100
AcDbSpline
210
0.0
220
0.0
230
1.0
 70
     8
 71
     3
 72
     9
 73
     5
 74
     0
 42
0.00000001
 43
0.00000001
 40
0.0
 40
0.0
 40
0.0
 40
0.0
 40
0.505300111076107
 40
1.0
 40
1.0
 40
1.0
 40
1.0
 10
1.36411304147222
 20
9.63611759870001
 30
0.0
 10
1.35702588147175
 20
9.627626025767242
 30
0.0
 10
1.343000236424141
 20
9.610821016730762
 30
0.0
 10
1.329156195024906
 20
9.593866095040779
 30
0.0
 10
1.322307549282447
 20
9.585478497164033
 30
0.0
  0
SPLINE
  5
9B
330
1F
100
AcDbEntity
  8
0
  6
Continuous
 62
     7
370
    25
100
AcDbSpline
210
0.0
220
0.0
230
1.0
 70
     8
 71
     3
 72
    23
 73
    19
 74
     0
 42
0.00000001
 43
0.00000001
 40
0.0
 40
0.0
 40
0.0
 40
0.0
 40
0.0312247416846813
 40
0.0624531278587967
 40
0.0936875064318893
 40
0.1249302239625062
 40
0.1561836251308837
 40
0.1874500522137502
 40
0.2187318445618215
 40
0.2500313380805759
 40
0.3749869617610813
 40
0.5000290847066076
 40
0.6250268457083836
 40
0.7500138502018927
 40
0.8125629317119384
 40
0.8750645660684897
 40
0.9375373734962469
 40
1.0
 40
1.0
 40
1.0
 40
1.0
 10
2.270062267972291
 20
10.45628440861488
 30
0.0
 10
2.259532611246502
 20
10.44907804783456
 30
0.0
 10
2.238472068794439
 20
10.4346644851619
 30
0.0
 10
2.207117894818025
 20
10.4126959510604
 30
0.0
 10
2.17593582621237
 20
10.39047176626516
 30
0.0
 10
2.144942878654283
 20
10.36796693897208
 30
0.0
 10
2.114134487259393
 20
10.34518816231
 30
0.0
 10
2.083511893799491
 20
10.32213366551292
 30
0.0
 10
2.05307470063268
 20
10.29880383848909
 30
0.0
 10
1.992657098772204
 20
10.25166049876816
 30
0.0
 10
1.903558082933164
 20
10.17899582515054
 30
0.0
 10
1.788193280547896
 20
10.07809494936767
 30
0.0
 10
1.676351256479854
 20
9.973283207524625
 30
0.0
 10
1.586209692349562
 20
9.882775484703785
 30
0.0
 10
1.515989943593592
 20
9.808549243957327
 30
0.0
 10
1.464313190314266
 20
9.751964178187588
 30
0.0
 10
1.413571992141311
 20
9.694582353904622
 30
0.0
 10
1.380598462696621
 20
9.655604791681073
 30
0.0
 10
1.36411304147222
 20
9.63611759870001
 30
0.0
  0
ARC
  5
9C
330
1F
100
AcDbEntity
  8
0
  6
Continuous
 62
     7
370
    25
100
AcDbCircle
 10
5.0253437382
 20
6.4086647286
 30
0.0
 40
4.896406791863121
100
AcDbArc
 50
123.9351308063
 51
124.2437644284
  0
SPLINE
  5
9D
330
1F
100
AcDbEntity
  8
0
  6
Continuous
 62
     7
370
    25
100
AcDbSpline
210
0.0
220
0.0
230
1.0
 70
     8
 71
     3
 72
    23
 73
    19
 74
     0
 42
0.00000001
 43
0.00000001
 40
0.0
 40
0.0
 40
0.0
 40
0.0
 40
0.0499749345343242
 40
0.0999420531330266
 40
0.149905760038662
 40
0.1998704603959824
 40
0.2498405590870028
 40
0.2998204595664227
 40
0.3498145626989334
 40
0.3998272655999404
 40
0.4498629604812311
 40
0.4999260335030887
 40
0.5833401875505122
 40
0.6666998267951845
 40
0.7500252751488647
 40
0.8333368815459711
 40
0.9166550050628648
 40
1.0
 40
1.0
 40
1.0
 40
1.0
 10
3.054245001624154
 20
10.88597771307357
 30
0.0
 10
3.040950237386292
 20
10.88024132934431
 30
0.0
 10
3.014362788173351
 20
10.86876945903965
 30
0.0
 10
2.974690578286299
 20
10.85108883084016
 30
0.0
 10
2.935177112505751
 20
10.83306451396113
 30
0.0
 10
2.895836995119018
 20
10.81466241007629
 30
0.0
 10
2.856666314144196
 20
10.79589165576814
 30
0.0
 10
2.817666119611995
 20
10.77674980351934
 30
0.0
 10
2.778836128950031
 20
10.75723750917112
 30
0.0
 10
2.74017642745715
 20
10.73735460040321
 30
0.0
 10
2.701686961675108
 20
10.71710111372231
 30
0.0
 10
2.654867060833785
 20
10.69190179146935
 30
0.0
 10
2.599918574767515
 20
10.66143892599543
 30
0.0
 10
2.537098307454941
 20
10.6253170526976
 30
0.0
 10
2.474872223237744
 20
10.5882381511902
 30
0.0
 10
2.413255817222464
 20
10.5501793700529
 30
0.0
 10
2.352191641827087
 20
10.51122609111499
 30
0.0
 10
2.312003053861432
 20
10.48445489945331
 30
0.0
 10
2.291905520036321
 20
10.4710671454367
 30
0.0
  0
SPLINE
  5
9E
330
1F
100
AcDbEntity
  8
0
  6
Continuous
 62
     7
370
    25
100
AcDbSpline
210
0.0
220
0.0
230
1.0
 70
     8
 71
     3
 72
    27
 73
    23
 74
     0
 42
0.00000001
 43
0.00000001
 40
0.0
 40
0.0
 40
0.0
 40
0.0
 40
0.0224065515719309
 40
0.0448080526798013
 40
0.0672062256969222
 40
0.0896027937644294
 40
0.1119994803939007
 40
0.1343980090695444
 40
0.156800102850421
 40
0.1792074839731531
 40
0.2016218734555861
 40
0.2240449907018499
 40
0.353345598330591
 40
0.4826652539538604
 40
0.6119748786841837
 40
0.7413049230676737
 40
0.7844383238771769
 40
0.827548369430221
 40
0.8706473058047631
 40
0.9137473885481541
 40
0.956860872230135
 40
1.0
 40
1.0
 40
1.0
 40
1.0
 10
4.810398158043266
 20
11.25875546557444
 30
0.0
 10
4.796906128211767
 20
11.25853787234803
 30
0.0
 10
4.769925109668756
 20
11.258102734941
 30
0.0
 10
4.729466331369525
 20
11.25700033856415
 30
0.0
 10
4.689024263451306
 20
11.255568814864
 30
0.0
 10
4.648599345632936
 20
11.25377589305903
 30
0.0
 10
4.608191460114085
 20
11.25163021820286
 30
0.0
 10
4.567800642766398
 20
11.24912947519035
 30
0.0
 10
4.527426872194439
 20
11.2462742803125
 30
0.0
 10
4.487070202410363
 20
11.24306448403806
 30
0.0
 10
4.446730442951107
 20
11.23950006868131
 30
0.0
 10
4.342352425178854
 20
11.22935581557699
 30
0.0
 10
4.174372271846832
 20
11.20799178747993
 30
0.0
 10
3.944315036005752
 20
11.16679933990769
 30
0.0
 10
3.716610262112713
 20
11.11405044407192
 30
0.0
 10
3.541785546846001
 20
11.0640993214168
 30
0.0
 10
3.418223671638545
 20
11.02425628586921
 30
0.0
 10
3.344499820791128
 20
10.99910309832958
 30
0.0
 10
3.271227227015083
 20
10.97272347147774
 30
0.0
 10
3.198417896231085
 20
10.94508795127666
 30
0.0
 10
3.126025082617319
 20
10.91630612978827
 30
0.0
 10
3.078176437308696
 20
10.89608918890335
 30
0.0
 10
3.054245001624154
 20
10.88597771307357
 30
0.0
  0
LINE
  5
9F
330
1F
100
AcDbEntity
  8
0
  6
Continuous
 62
     7
370
    25
100
AcDbLine
 10
4.8103981688
 20
11.258754673
 30
0.0
 11
4.8103981688
 21
10.658754673
 31
0.0
  0
LINE
  5
A0
330
1F
100
AcDbEntity
  8
0
  6
Continuous
 62
     7
370
    25
100
AcDbLine
 10
4.8103981688
 20
10.658754673
 30
0.0
 11
4.9353981688
 21
10.658754673
 31
0.0
  0
LINE
  5
A1
330
1F
100
AcDbEntity
  8
0
  6
Continuous
 62
     7
370
    25
100
AcDbLine
 10
4.9353981688
 20
10.658754673
 30
0.0
 11
4.9353981688
 21
11.258754673
 31
0.0
  0
SPLINE
  5
A2
330
1F
100
AcDbEntity
  8
0
  6
Continuous
 62
     7
370
    25
100
AcDbSpline
210
0.0
220
0.0
230
1.0
 70
     8
 71
     3
 72
    27
 73
    23
 74
     0
 42
0.00000001
 43
0.00000001
 40
0.0
 40
0.0
 40
0.0
 40
0.0
 40
0.0235325740203302
 40
0.0470562582307831
 40
0.0705730373986177
 40
0.0940848980397719
 40
0.1175938279170377
 40
0.1411018155366562
 40
0.1646108496439699
 40
0.1881229187187733
 40
0.2116400104709987
 40
0.2351641113373792
 40
0.2586972059797222
 40
0.388015361409212
 40
0.5173368743186009
 40
0.6466446419004336
 40
0.7759571367950885
 40
0.820791370445377
 40
0.8655989914545599
 40
0.910393777310043
 40
0.9551895173420671
 40
1.0
 40
1.0
 40
1.0
 40
1.0
 10
6.691551335102925
 20
10.88597771307356
 30
0.0
 10
6.678509050872716
 20
10.89152225192526
 30
0.0
 10
6.652429409345793
 20
10.90260923508958
 30
0.0
 10
6.613124774380692
 20
10.91878085837858
 30
0.0
 10
6.573695608461388
 20
10.93461179823261
 30
0.0
 10
6.53412794564546
 20
10.95006944124528
 30
0.0
 10
6.494425527929374
 20
10.96516252215522
 30
0.0
 10
6.454587352946225
 20
10.97988870077728
 30
0.0
 10
6.414613694204903
 20
10.99424860332107
 30
0.0
 10
6.374504465021705
 20
11.00824206290335
 30
0.0
 10
6.334259743842308
 20
11.02186911916019
 30
0.0
 10
6.293879308743764
 20
11.03512977894381
 30
0.0
 10
6.192664321572524
 20
11.06734192286599
 30
0.0
 10
6.029192297091607
 20
11.11404847190399
 30
0.0
 10
5.801495679685223
 20
11.16679651731576
 30
0.0
 10
5.571430464454246
 20
11.20799065637384
 30
0.0
 10
5.390057619198296
 20
11.23105886495971
 30
0.0
 10
5.258758223127113
 20
11.24323917673648
 30
0.0
 10
5.178020745080433
 20
11.24931095007189
 30
0.0
 10
5.097212526705704
 20
11.25393675340423
 30
0.0
 10
5.016334731470261
 20
11.25724566897649
 30
0.0
 10
4.962379982025554
 20
11.25825218982325
 30
0.0
 10
4.935398168801814
 20
11.25875553304646
 30
0.0
  0
SPLINE
  5
A3
330
1F
100
AcDbEntity
  8
0
  6
Continuous
 62
     7
370
    25
100
AcDbSpline
210
0.0
220
0.0
230
1.0
 70
     8
 71
     3
 72
    23
 73
    19
 74
     0
 42
0.00000001
 43
0.00000001
 40
0.0
 40
0.0
 40
0.0
 40
0.0
 40
0.0500072137333147
 40
0.1000028184018998
 40
0.1499912085853183
 40
0.1999767807659545
 40
0.2499639321697453
 40
0.2999570596059168
 40
0.3499605583072776
 40
0.399978820772588
 40
0.4500162356125275
 40
0.5000771864007777
 40
0.5834927486360073
 40
0.6668431258720082
 40
0.7501486586965183
 40
0.8334297205557145
 40
0.9167067028560042
 40
1.0
 40
1.0
 40
1.0
 40
1.0
 10
7.453890816690754
 20
10.47106714543668
 30
0.0
 10
7.441846895511375
 20
10.47912144437017
 30
0.0
 10
7.417761849122443
 20
10.49522817244936
 30
0.0
 10
7.381352340106827
 20
10.51895553029239
 30
0.0
 10
7.344743346298016
 20
10.54236141137433
 30
0.0
 10
7.307914188608398
 20
10.56541507192404
 30
0.0
 10
7.270870407964079
 20
10.58812474769827
 30
0.0
 10
7.233610521339706
 20
10.6104882309713
 30
0.0
 10
7.196134925408342
 20
10.63250611424874
 30
0.0
 10
7.158443521956565
 20
10.65417823255943
 30
0.0
 10
7.120536312510718
 20
10.67550465054514
 30
0.0
 10
7.073953880827941
 20
10.70114089333489
 30
0.0
 10
7.018540730811985
 20
10.73074396754602
 30
0.0
 10
6.954105816353708
 20
10.76388234081256
 30
0.0
 10
6.889197891287563
 20
10.79599753723993
 30
0.0
 10
6.823806164132888
 20
10.82706409821231
 30
0.0
 10
6.75797119083699
 20
10.85717675084341
 30
0.0
 10
6.71369273264257
 20
10.87637676547718
 30
0.0
 10
6.691551335102925
 20
10.88597771307356
 30
0.0
  0
ARC
  5
A4
330
1F
100
AcDbEntity
  8
0
  6
Continuous
 62
     7
370
    25
100
AcDbCircle
 10
4.7204525985
 20
6.4086647286
 30
0.0
 40
4.896406630245377
100
AcDbArc
 50
55.7562355716
 51
56.0648691937
  0
SPLINE
  5
A5
330
1F
100
AcDbEntity
  8
0
  6
Continuous
 62
     7
370
    25
100
AcDbSpline
210
0.0
220
0.0
230
1.0
 70
     8
 71
     3
 72
    23
 73
    19
 74
     0
 42
0.00000001
 43
0.00000001
 40
0.0
 40
0.0
 40
0.0
 40
0.0
 40
0.0312276725868815
 40
0.0624566518748458
 40
0.093689269754582
 40
0.1249278573019395
 40
0.1561747442567243
 40
0.1874322585029841
 40
0.2187027255513664
 40
0.2499884680241242
 40
0.3749579618962465
 40
0.4999732371718935
 40
0.6249978486690152
 40
0.7499709874302619
 40
0.8125451473152918
 40
0.8750622081576286
 40
0.9375409031484877
 40
1.0
 40
1.0
 40
1.0
 40
1.0
 10
8.381683113365403
 20
9.636117331497049
 30
0.0
 10
8.373465846073566
 20
9.645880136947714
 30
0.0
 10
8.357030967643833
 20
9.665406156367112
 30
0.0
 10
8.332057736549592
 20
9.694424998287355
 30
0.0
 10
8.306849868066909
 20
9.723245705351141
 30
0.0
 10
8.28138427085635
 20
9.751848936426086
 30
0.0
 10
8.255667127561974
 20
9.780239878525965
 30
0.0
 10
8.229696806072992
 20
9.808417125703713
 30
0.0
 10
8.20347365318462
 20
9.836381110699191
 30
0.0
 10
8.150576733220852
 20
9.891824724789466
 30
0.0
 10
8.06944913881567
 20
9.97327761857993
 30
0.0
 10
7.957613648133089
 20
10.07808492656289
 30
0.0
 10
7.842243788561452
 20
10.17899186857914
 30
0.0
 10
7.74323776771239
 20
10.25973188729476
 30
0.0
 10
7.662407284588242
 20
10.32225397248883
 30
0.0
 10
7.600960528676439
 20
10.36807493866573
 30
0.0
 10
7.538820863371804
 20
10.41287587811978
 30
0.0
 10
7.496760679802777
 20
10.44181623353994
 30
0.0
 10
7.475733886865338
 20
10.45628414141193
 30
0.0
  0
SPLINE
  5
A6
330
1F
100
AcDbEntity
  8
0
  6
Continuous
 62
     7
370
    25
100
AcDbSpline
210
0.0
220
0.0
230
1.0
 70
     8
 71
     3
 72
     9
 73
     5
 74
     0
 42
0.00000001
 43
0.00000001
 40
0.0
 40
0.0
 40
0.0
 40
0.0
 40
0.4946998889236508
 40
1.0
 40
1.0
 40
1.0
 40
1.0
 10
8.42348860555518
 20
9.58547822996107
 30
0.0
 10
8.416639959812722
 20
9.593865827837815
 30
0.0
 10
8.402795918413487
 20
9.610820749527798
 30
0.0
 10
8.388770273365878
 20
9.627625758564278
 30
0.0
 10
8.381683113365403
 20
9.636117331497049
 30
0.0
  0
SPLINE
  5
A7
330
1F
100
AcDbEntity
  8
0
  6
Continuous
 62
     7
370
    25
100
AcDbSpline
210
0.0
220
0.0
230
1.0
 70
     8
 71
     3
 72
    11
 73
     7
 74
     0
 42
0.00000001
 43
0.00000001
 40
0.0
 40
0.0
 40
0.0
 40
0.0
 40
0.2493755168961078
 40
0.4991472855112486
 40
0.749345449829856
 40
1.0
 40
1.0
 40
1.0
 40
1.0
 10
8.507435457404872
 20
9.477525373072726
 30
0.0
 10
8.500627148454269
 20
9.486629692745046
 30
0.0
 10
8.486999712313333
 20
9.504852798635426
 30
0.0
 10
8.466155971373528
 20
9.531918310624457
 30
0.0
 10
8.44502267475588
 20
9.558832495283005
 30
0.0
 10
8.430670987792407
 20
9.576590924470132
 30
0.0
 10
8.42348860555518
 20
9.58547822996107
 30
0.0
  0
SPLINE
  5
A8
330
1F
100
AcDbEntity
  8
0
  6
Continuous
 62
     7
370
    25
100
AcDbSpline
210
0.0
220
0.0
230
1.0
 70
     8
 71
     3
 72
    24
 73
    20
 74
     0
 42
0.00000001
 43
0.00000001
 40
0.0
 40
0.0
 40
0.0
 40
0.0
 40
0.045440931332371
 40
0.0908701203254819
 40
0.1362915323841333
 40
0.1817091349501355
 40
0.2271268964636268
 40
0.2725487853230835
 40
0.3179787688453873
 40
0.3634208122273061
 40
0.4088788775097514
 40
0.4543569225461577
 40
0.499858899976322
 40
0.5833165856839961
 40
0.666701276412607
 40
0.7500374420906168
 40
0.8333495954039294
 40
0.916662270233576
 40
1.0
 40
1.0
 40
1.0
 40
1.0
 10
8.954584837924386
 20
8.724983416815778
 30
0.0
 10
8.94897462518067
 20
8.737022905440798
 30
0.0
 10
8.937755649421913
 20
8.761098771580302
 30
0.0
 10
8.920502191402443
 20
8.7970076987368
 30
0.0
 10
8.902941070259365
 20
8.832759093609306
 30
0.0
 10
8.885041571986694
 20
8.868338743674052
 30
0.0
 10
8.86681192513441
 20
8.903750455258958
 30
0.0
 10
8.848249925513878
 20
8.938993207699916
 30
0.0
 10
8.829356164618996
 20
8.974067272828188
 30
0.0
 10
8.81013048349534
 20
9.008972579294731
 30
0.0
 10
8.790572929303924
 20
9.043709136001661
 30
0.0
 10
8.770683475484988
 20
9.078276974233631
 30
0.0
 10
8.744843912023457
 20
9.122233349463446
 30
0.0
 10
8.712685215867417
 20
9.175324644375092
 30
0.0
 10
8.673730169167401
 20
9.237216246719992
 30
0.0
 10
8.633748201904037
 20
9.298399283872188
 30
0.0
 10
8.592714841929272
 20
9.358855397486689
 30
0.0
 10
8.55072158391596
 20
9.418652577745895
 30
0.0
 10
8.521865612352087
 20
9.457899141131545
 30
0.0
 10
8.507435457404872
 20
9.477525373072726
 30
0.0
  0
LINE
  5
A9
330
1F
100
AcDbEntity
  8
0
  6
Continuous
 62
     7
370
    25
100
AcDbLine
 10
8.9639723702
 20
8.7045561923
 30
0.0
 11
8.9545848379
 21
8.7249834168
 31
0.0
  0
LINE
  5
AA
330
1F
100
AcDbEntity
  8
0
  6
Continuous
 62
     7
370
    25
100
AcDbLine
 10
8.6567858994
 20
8.4894619321
 30
0.0
 11
8.9639725097
 21
8.7045563123
 31
0.0
  0
LINE
  5
AB
330
1F
100
AcDbEntity
  8
0
  6
Continuous
 62
     7
370
    25
100
AcDbLine
 10
8.7284829539
 20
8.3870679265
 30
0.0
 11
8.6567858994
 21
8.4894619321
 31
0.0
  0
LINE
  5
AC
330
1F
100
AcDbEntity
  8
0
  6
Continuous
 62
     7
370
    25
100
AcDbLine
 10
9.0151861694
 20
8.5878196793
 30
0.0
 11
8.7284829539
 21
8.3870679265
 31
0.0
  0
SPLINE
  5
AD
330
1F
100
AcDbEntity
  8
0
  6
Continuous
 62
     7
370
    25
100
AcDbSpline
210
0.0
220
0.0
230
1.0
 70
     8
 71
     3
 72
    18
 73
    14
 74
     0
 42
0.00000001
 43
0.00000001
 40
0.0
 40
0.0
 40
0.0
 40
0.0
 40
0.0813383783678764
 40
0.1626761296951261
 40
0.2440204067881315
 40
0.3253783607320738
 40
0.4067571390066176
 40
0.4881638836063238
 40
0.5696057291682816
 40
0.6510898011093964
 40
0.7674178345368756
 40
0.8837143251280639
 40
0.9999999999999999
 40
0.9999999999999999
 40
0.9999999999999999
 40
0.9999999999999999
 10
9.181093327853212
 20
8.120680529092423
 30
0.0
 10
9.177294050694098
 20
8.133580637966025
 30
0.0
 10
9.169695525664638
 20
8.159380756265804
 30
0.0
 10
9.157837907775875
 20
8.197944232572773
 30
0.0
 10
9.145644223982094
 20
8.236405699210025
 30
0.0
 10
9.133081425451682
 20
8.274755520396289
 30
0.0
 10
9.120158320553507
 20
8.312996258221686
 30
0.0
 10
9.106872731536118
 20
8.351127296312782
 30
0.0
 10
9.093224560567856
 20
8.389148532114254
 30
0.0
 10
9.077222556466543
 20
8.43245718042117
 30
0.0
 10
9.058659629058356
 20
8.480959832486452
 30
0.0
 10
9.037374257405407
 20
8.534578061012205
 30
0.0
 10
9.022582777639434
 20
8.570073321414387
 30
0.0
 10
9.015187381678974
 20
8.587820126301187
 30
0.0
  0
ARC
  5
AE
330
1F
100
AcDbEntity
  8
0
  6
Continuous
 62
     7
370
    25
100
AcDbCircle
 10
5.0427114583
 20
6.9140284762
 30
0.0
 40
4.310709184717308
100
AcDbArc
 50
13.4678642962
 51
16.2554071062
  0
SPLINE
  5
AF
330
1F
100
AcDbEntity
  8
0
  6
Continuous
 62
     7
370
    25
100
AcDbSpline
210
0.0
220
0.0
230
1.0
 70
     8
 71
     3
 72
    22
 73
    18
 74
     0
 42
0.00000001
 43
0.00000001
 40
0.0
 40
0.0
 40
0.0
 40
0.0
 40
0.0500348238705478
 40
0.1000355401587632
 40
0.1500111464460212
 40
0.1999706538804363
 40
0.2499230823225677
 40
0.2998774554675627
 40
0.3498427959569366
 40
0.3998281204931931
 40
0.4498424349705224
 40
0.4998947296346606
 40
0.6001589534029351
 40
0.7002285158262086
 40
0.8001763760856995
 40
0.9000757600099758
 40
0.9999999999999999
 40
0.9999999999999999
 40
0.9999999999999999
 40
0.9999999999999999
 10
9.290050517468334
 20
7.368611212131171
 30
0.0
 10
9.290331625541025
 20
7.377843575240129
 30
0.0
 10
9.290893650061529
 20
7.396302007969621
 30
0.0
 10
9.291266014696806
 20
7.423993047421488
 30
0.0
 10
9.29129322936382
 20
7.451672057318588
 30
0.0
 10
9.290941601231301
 20
7.479340191412198
 30
0.0
 10
9.29022015166952
 20
7.506997137575649
 30
0.0
 10
9.289126465941578
 20
7.53464297508244
 30
0.0
 10
9.287661185342346
 20
7.562277682608467
 30
0.0
 10
9.285824160224937
 20
7.589901249981764
 30
0.0
 10
9.283615349717108
 20
7.617513723151957
 30
0.0
 10
9.280173092132225
 20
7.654335471125835
 30
0.0
 10
9.274944975405653
 20
7.700266425205966
 30
0.0
 10
9.267199841914016
 20
7.755162351298394
 30
0.0
 10
9.25795596390284
 20
7.80975564865585
 30
0.0
 10
9.247345971882748
 20
7.864077734249771
 30
0.0
 10
9.23903510958694
 20
7.900019375262572
 30
0.0
 10
9.23487916154485
 20
7.9179924311598
 30
0.0
  0
SPLINE
  5
B0
330
1F
100
AcDbEntity
  8
0
  6
Continuous
 62
     7
370
    25
100
AcDbSpline
210
0.0
220
0.0
230
1.0
 70
     8
 71
     3
 72
     9
 73
     5
 74
     0
 42
0.00000001
 43
0.00000001
 40
0.0
 40
0.0
 40
0.0
 40
0.0
 40
0.5084670330973153
 40
1.0
 40
1.0
 40
1.0
 40
1.0
 10
9.274409664894472
 20
6.887396488807012
 30
0.0
 10
9.27695421798376
 20
6.968960556224068
 30
0.0
 10
9.281958579965282
 20
7.129372268504032
 30
0.0
 10
9.287383828808327
 20
7.289770294518798
 30
0.0
 10
9.290050517468334
 20
7.368611212131171
 30
0.0
  0
ARC
  5
B1
330
1F
100
AcDbEntity
  8
0
  6
Continuous
 62
     7
370
    25
100
AcDbCircle
 10
-79.9400374945
 20
9.6359924665
 30
0.0
 40
89.25677767988549
100
AcDbArc
 50
358.1688670236
 51
358.2353401764
  0
LWPOLYLINE
  5
B2
330
1F
100
AcDbEntity
  8
0
  6
Continuous
 62
     7
370
    25
100
AcDbPolyline
 90
        9
 70
   128
 43
0.0
 10
9.2705886549
 20
6.7660513187
 10
9.2706603533
 20
6.7682816426
 10
9.2707319991
 20
6.7705119681
 10
9.2708035924
 20
6.7727422953
 10
9.2708751331
 20
6.7749726242
 10
9.2709466213
 20
6.7772029547
 10
9.271018057
 20
6.779433287
 10
9.2710894401
 20
6.7816636209
 10
9.2711607706
 20
6.7838939565
  0
SPLINE
  5
B3
330
1F
100
AcDbEntity
  8
0
  6
Continuous
 62
     7
370
    25
100
AcDbSpline
210
0.0
220
0.0
230
1.0
 70
     8
 71
     3
 72
     9
 73
     5
 74
     0
 42
0.00000001
 43
0.00000001
 40
0.0
 40
0.0
 40
0.0
 40
0.0
 40
0.4948949316634461
 40
1.0
 40
1.0
 40
1.0
 40
1.0
 10
9.258994737065533
 20
6.39195021578203
 30
0.0
 10
9.260852300886663
 20
6.45366550072815
 30
0.0
 10
9.26460575177549
 20
6.578369313593405
 30
0.0
 10
9.268580825169451
 20
6.703066259408218
 30
0.0
 10
9.270588654887753
 20
6.76605131874537
 30
0.0
  0
LINE
  5
B4
330
1F
100
AcDbEntity
  8
0
  6
Continuous
 62
     7
370
    25
100
AcDbLine
 10
9.2551789509
 20
6.2636567121
 30
0.0
 11
9.2589947371
 21
6.3919502158
 31
0.0
  0
LINE
  5
B5
330
1F
100
AcDbEntity
  8
0
  6
Continuous
 62
     7
370
    25
100
AcDbLine
 10
8.9014639849
 20
6.2636568076
 30
0.0
 11
9.2551758533
 21
6.2636568076
 31
0.0
  0
LINE
  5
B6
330
1F
100
AcDbEntity
  8
0
  6
Continuous
 62
     7
370
    25
100
AcDbLine
 10
8.9014639849
 20
6.1386568076
 30
0.0
 11
8.9014639849
 21
6.2636568076
 31
0.0
  0
CIRCLE
  5
B7
330
1F
100
AcDbEntity
  8
0
  6
Continuous
 62
     7
370
    25
100
AcDbCircle
 10
4.8728981688
 20
3.7636568076
 30
0.0
 40
0.4999999999999991
  0
ARC
  5
B8
330
1F
100
AcDbEntity
  8
0
  6
Continuous
 62
     7
370
    25
100
AcDbCircle
 10
8.8014639849
 20
6.2808140951
 30
0.0
 40
0.1999999999999996
100
AcDbArc
 50
135.0
 51
180.0
  0
LINE
  5
B9
330
1F
100
AcDbEntity
  8
0
  6
Continuous
 62
     7
370
    25
100
AcDbLine
 10
8.6600426287
 20
6.4222354514
 30
0.0
 11
8.7067380552
 21
6.4689308779
 31
0.0
  0
ARC
  5
BA
330
1F
100
AcDbEntity
  8
0
  6
Continuous
 62
     7
370
    25
100
AcDbCircle
 10
8.565316699
 20
6.6103522341
 30
0.0
 40
0.2000000000000003
100
AcDbArc
 50
315.0
 51
358.2207135202
  0
SPLINE
  5
BB
330
1F
100
AcDbEntity
  8
0
  6
Continuous
 62
     7
370
    25
100
AcDbSpline
210
0.0
220
0.0
230
1.0
 70
     8
 71
     3
 72
     8
 73
     4
 74
     0
 42
0.00000001
 43
0.00000001
 40
0.005013950652847
 40
0.005013950652847
 40
0.005013950652847
 40
0.005013950652847
 40
0.0095369040287337
 40
0.0095369040287337
 40
0.0095369040287337
 40
0.0095369040287337
 10
8.770847002677836
 20
6.782122443582871
 30
0.0
 10
8.768939471279532
 20
6.722796766333506
 30
0.0
 10
8.767063248920353
 20
6.663470075265387
 30
0.0
 10
8.765220269116071
 20
6.604142350863011
 30
0.0
  0
LWPOLYLINE
  5
BC
330
1F
100
AcDbEntity
  8
0
  6
Continuous
 62
     7
370
    25
100
AcDbPolyline
 90
        9
 70
   128
 43
0.0
 10
8.7708470027
 20
6.7821224436
 10
8.7709183226
 20
6.784340993
 10
8.7709895902
 20
6.7865595442
 10
8.7710608055
 20
6.788778097
 10
8.7711319685
 20
6.7909966515
 10
8.7712030793
 20
6.7932152076
 10
8.7712741378
 20
6.7954337654
 10
8.7713451441
 20
6.797652325
 10
8.7714160981
 20
6.7998708861
  0
ARC
  5
BD
330
1F
100
AcDbEntity
  8
0
  6
Continuous
 62
     7
370
    25
100
AcDbCircle
 10
-79.9400374945
 20
9.6359924665
 30
0.0
 40
88.75677767988556
100
AcDbArc
 50
358.1688670236
 51
358.2353404392
  0
SPLINE
  5
BE
330
1F
100
AcDbEntity
  8
0
  6
Continuous
 62
     7
370
    25
100
AcDbSpline
210
0.0
220
0.0
230
1.0
 70
     8
 71
     3
 72
     8
 73
     4
 74
     0
 42
0.00000001
 43
0.00000001
 40
0.0
 40
0.0
 40
0.0
 40
0.0
 40
0.0122737854688332
 40
0.0122737854688332
 40
0.0122737854688332
 40
0.0122737854688332
 10
8.79034463662061
 20
7.385758592286702
 30
0.0
 10
8.784820668183995
 20
7.224780093626506
 30
0.0
 10
8.77960706855474
 20
7.063790929381804
 30
0.0
 10
8.774646805195616
 20
6.902794023207674
 30
0.0
  0
SPLINE
  5
BF
330
1F
100
AcDbEntity
  8
0
  6
Continuous
 62
     7
370
    25
100
AcDbSpline
210
0.0
220
0.0
230
1.0
 70
     8
 71
     3
 72
    10
 73
     6
 74
     0
 42
0.00000001
 43
0.00000001
 40
0.0
 40
0.0
 40
0.0
 40
0.0
 40
0.5
 40
0.5
 40
1.0
 40
1.0
 40
1.0
 40
1.0
 10
8.74862881109175
 20
7.801542455997065
 30
0.0
 10
8.76490936310256
 20
7.733557267644311
 30
0.0
 10
8.77652937452631
 20
7.664532277782245
 30
0.0
 10
8.790448241992054
 20
7.525502533612698
 30
0.0
 10
8.792742054837172
 20
7.455624325857023
 30
0.0
 10
8.79034463662061
 20
7.385758592286702
 30
0.0
  0
ARC
  5
C0
330
1F
100
AcDbEntity
  8
0
  6
Continuous
 62
     7
370
    25
100
AcDbCircle
 10
5.0427114583
 20
6.9140284762
 30
0.0
 40
3.810709184717306
100
AcDbArc
 50
13.4678642962
 51
13.7018304904
  0
ARC
  5
C1
330
1F
100
AcDbEntity
  8
0
  6
Continuous
 62
     7
370
    25
100
AcDbCircle
 10
8.5506654669
 20
7.7692942184
 30
0.0
 40
0.2000000000000002
100
AcDbArc
 50
13.7018304904
 51
35.0
  0
LINE
  5
C2
330
1F
100
AcDbEntity
  8
0
  6
Continuous
 62
     7
370
    25
100
AcDbLine
 10
8.7144958758
 20
7.8840095056
 30
0.0
 11
8.4011992703
 21
8.3314434283
 31
0.0
  0
ARC
  5
C3
330
1F
100
AcDbEntity
  8
0
  6
Continuous
 62
     7
370
    25
100
AcDbCircle
 10
8.5650296791
 20
8.4461587156
 30
0.0
 40
0.1999999999999993
100
AcDbArc
 50
170.0
 51
215.0
  0
LINE
  5
C4
330
1F
100
AcDbEntity
  8
0
  6
Continuous
 62
     7
370
    25
100
AcDbLine
 10
8.3680681285
 20
8.4808883511
 30
0.0
 11
8.395117027
 21
8.6342902773
 31
0.0
  0
ARC
  5
C5
330
1F
100
AcDbEntity
  8
0
  6
Continuous
 62
     7
370
    25
100
AcDbCircle
 10
8.1981554764
 20
8.6690199128
 30
0.0
 40
0.2000000000000017
100
AcDbArc
 50
350.0
 51
29.1217088151
  0
SPLINE
  5
C6
330
1F
100
AcDbEntity
  8
0
  6
Continuous
 62
     7
370
    25
100
AcDbSpline
210
0.0
220
0.0
230
1.0
 70
     8
 71
     3
 72
     8
 73
     4
 74
     0
 42
0.00000001
 43
0.00000001
 40
0.3643745809640333
 40
0.3643745809640333
 40
0.3643745809640333
 40
0.3643745809640333
 40
1.0
 40
1.0
 40
1.0
 40
1.0
 10
8.106071754093323
 20
9.179352306441347
 30
0.0
 10
8.20392096731749
 20
9.047639465317431
 30
0.0
 10
8.293063523834098
 20
8.90961485958747
 30
0.0
 10
8.372873054890754
 20
8.766353194708309
 30
0.0
  0
SPLINE
  5
C7
330
1F
100
AcDbEntity
  8
0
  6
Continuous
 62
     7
370
    25
100
AcDbSpline
210
0.0
220
0.0
230
1.0
 70
     8
 71
     3
 72
    12
 73
     8
 74
     0
 42
0.00000001
 43
0.00000001
 40
0.0
 40
0.0
 40
0.0
 40
0.0
 40
0.0009536522947176
 40
0.0009536522947176
 40
0.0019071098450944
 40
0.0019071098450944
 40
0.0029166615672976
 40
0.0029166615672976
 40
0.0029166615672976
 40
0.0029166615672976
 10
8.035585633233696
 20
9.269992439371133
 30
0.0
 10
8.043482348739122
 20
9.260283097437208
 30
0.0
 10
8.051310502454037
 20
9.250517582100354
 30
0.0
 10
8.066824559953325
 20
9.230878242386297
 30
0.0
 10
8.074510887591885
 20
9.221003939952217
 30
0.0
 10
8.090188188438105
 20
9.200562124507076
 30
0.0
 10
8.098170936956269
 20
9.189987409273744
 30
0.0
 10
8.106071754093596
 20
9.179352306441519
 30
0.0
  0
SPLINE
  5
C8
330
1F
100
AcDbEntity
  8
0
  6
Continuous
 62
     7
370
    25
100
AcDbSpline
210
0.0
220
0.0
230
1.0
 70
     8
 71
     3
 72
     8
 73
     4
 74
     0
 42
0.00000001
 43
0.00000001
 40
0.0
 40
0.0
 40
0.0
 40
0.0
 40
0.0014856725328532
 40
0.0014856725328532
 40
0.0014856725328532
 40
0.0014856725328532
 10
7.998347422127776
 20
9.315097475687274
 30
0.0
 10
8.010865249785486
 20
9.300149652516449
 30
0.0
 10
8.023283568585027
 20
9.285118337496458
 30
0.0
 10
8.035585633233696
 20
9.269992439371133
 30
0.0
  0
SPLINE
  5
C9
330
1F
100
AcDbEntity
  8
0
  6
Continuous
 62
     7
370
    25
100
AcDbSpline
210
0.0
220
0.0
230
1.0
 70
     8
 71
     3
 72
    14
 73
    10
 74
     0
 42
0.00000001
 43
0.00000001
 40
0.0
 40
0.0
 40
0.0
 40
0.0
 40
0.25
 40
0.25
 40
0.5
 40
0.5
 40
0.75
 40
0.75
 40
1.0
 40
1.0
 40
1.0
 40
1.0
 10
7.19437640408385
 20
10.04295864391285
 30
0.0
 10
7.269375869006353
 20
9.991905271236265
 30
0.0
 10
7.342475645041134
 20
9.938328143905473
 30
0.0
 10
7.484919108514993
 20
9.826183890020152
 30
0.0
 10
7.554273985743456
 20
9.76759588421453
 30
0.0
 10
7.688637101225011
 20
9.645941177298868
 30
0.0
 10
7.753785201778425
 20
9.582750379257405
 30
0.0
 10
7.879526986165354
 20
9.452089672786817
 30
0.0
 10
7.940097399784431
 20
9.38465489456919
 30
0.0
 10
7.99834742212836
 20
9.315097475687757
 30
0.0
  0
ARC
  5
CA
330
1F
100
AcDbEntity
  8
0
  6
Continuous
 62
     7
370
    25
100
AcDbCircle
 10
4.7204525985
 20
6.4086647286
 30
0.0
 40
4.396406630245376
100
AcDbArc
 50
55.7562355716
 51
56.064424097
  0
SPLINE
  5
CB
330
1F
100
AcDbEntity
  8
0
  6
Continuous
 62
     7
370
    25
100
AcDbSpline
210
0.0
220
0.0
230
1.0
 70
     8
 71
     3
 72
    13
 73
     9
 74
     0
 42
0.00000001
 43
0.00000001
 40
0.0
 40
0.0
 40
0.0
 40
0.0
 40
0.1204586266789011
 40
0.2454586266789011
 40
0.2454586266789011
 40
0.3704586266789011
 40
0.3704586266789011
 40
0.6204586266789011
 40
0.6204586266789011
 40
0.6204586266789011
 40
0.6204586266789011
 10
5.503084637352376
 20
10.71062145758482
 30
0.0
 10
5.569274282304638
 20
10.70036707256184
 30
0.0
 10
5.703458165023479
 20
10.67621247804048
 30
0.0
 10
5.836241167641975
 20
10.64544848845378
 30
0.0
 10
5.970752347244508
 20
10.6106781421724
 30
0.0
 10
6.037695185406432
 20
10.59155500556509
 30
0.0
 10
6.236580359063858
 20
10.52925889211986
 30
0.0
 10
6.366825334676703
 20
10.48112114355908
 30
0.0
 10
6.49471642732048
 20
10.426351757455
 30
0.0
  0
ARC
  5
CC
330
1F
100
AcDbEntity
  8
0
  6
Continuous
 62
     7
370
    25
100
AcDbCircle
 10
5.4724654065
 20
10.5129791982
 30
0.0
 40
0.2000000000000059
100
AcDbArc
 50
81.1934968858
 51
135.0
  0
LINE
  5
CD
330
1F
100
AcDbEntity
  8
0
  6
Continuous
 62
     7
370
    25
100
AcDbLine
 10
5.0939768126
 20
10.4173333168
 30
0.0
 11
5.3310440502
 21
10.6544005544
 31
0.0
  0
ARC
  5
CE
330
1F
100
AcDbEntity
  8
0
  6
Continuous
 62
     7
370
    25
100
AcDbCircle
 10
4.9525554563
 20
10.558754673
 30
0.0
 40
0.199999999999999
100
AcDbArc
 50
270.0
 51
315.0
  0
LINE
  5
CF
330
1F
100
AcDbEntity
  8
0
  6
Continuous
 62
     7
370
    25
100
AcDbLine
 10
4.7932407783
 20
10.358754673
 30
0.0
 11
4.9525554563
 21
10.358754673
 31
0.0
  0
ARC
  5
D0
330
1F
100
AcDbEntity
  8
0
  6
Continuous
 62
     7
370
    25
100
AcDbCircle
 10
4.7932407783
 20
10.558754673
 30
0.0
 40
0.1999999999999984
100
AcDbArc
 50
225.0000503882
 51
270.0
  0
LINE
  5
D1
330
1F
100
AcDbEntity
  8
0
  6
Continuous
 62
     7
370
    25
100
AcDbLine
 10
4.4147517128
 20
10.654400609
 30
0.0
 11
4.6518195464
 21
10.4173331924
 31
0.0
  0
ARC
  5
D2
330
1F
100
AcDbEntity
  8
0
  6
Continuous
 62
     7
370
    25
100
AcDbCircle
 10
4.273330481
 20
10.5129791284
 30
0.0
 40
0.2000000000000012
100
AcDbArc
 50
45.0000503882
 51
98.8065114895
  0
SPLINE
  5
D3
330
1F
100
AcDbEntity
  8
0
  6
Continuous
 62
     7
370
    25
100
AcDbSpline
210
0.0
220
0.0
230
1.0
 70
     8
 71
     3
 72
    13
 73
     9
 74
     0
 42
0.00000001
 43
0.00000001
 40
0.3794382323927132
 40
0.3794382323927132
 40
0.3794382323927132
 40
0.3794382323927132
 40
0.6294382323927131
 40
0.6294382323927131
 40
0.754438232392713
 40
0.754438232392713
 40
0.8794382323927128
 40
1.0
 40
1.0
 40
1.0
 40
1.0
 10
3.251086765717284
 20
10.4263546936641
 30
0.0
 10
3.378977348609491
 20
10.48112358770977
 30
0.0
 10
3.509180128004866
 20
10.52924307204378
 30
0.0
 10
3.707932967950015
 20
10.59150461835424
 30
0.0
 10
3.774831427614444
 20
10.61062013847937
 30
0.0
 10
3.909428261826654
 20
10.64541873367841
 30
0.0
 10
4.042309047647259
 20
10.67620789180404
 30
0.0
 10
4.176506738700325
 20
10.70036468966332
 30
0.0
 10
4.242711221365884
 20
10.71062138331572
 30
0.0
  0
SPLINE
  5
D4
330
1F
100
AcDbEntity
  8
0
  6
Continuous
 62
     7
370
    25
100
AcDbSpline
210
0.0
220
0.0
230
1.0
 70
     8
 71
     3
 72
     8
 73
     4
 74
     0
 42
0.00000001
 43
0.00000001
 40
0.0
 40
0.0
 40
0.0
 40
0.0
 40
1.0
 40
1.0
 40
1.0
 40
1.0
 10
2.570655439127268
 20
10.05597844193929
 30
0.0
 10
2.785308509897264
 20
10.2003679161498
 30
0.0
 10
3.013279499683391
 20
10.32450948627761
 30
0.0
 10
3.251086765700806
 20
10.4263546937249
 30
0.0
  0
ARC
  5
D5
330
1F
100
AcDbEntity
  8
0
  6
Continuous
 62
     7
370
    25
100
AcDbCircle
 10
5.0253437382
 20
6.4086647286
 30
0.0
 40
4.396406711054252
100
AcDbArc
 50
123.9410528773
 51
124.2437644284
  0
SPLINE
  5
D6
330
1F
100
AcDbEntity
  8
0
  6
Continuous
 62
     7
370
    25
100
AcDbSpline
210
0.0
220
0.0
230
1.0
 70
     8
 71
     3
 72
    14
 73
    10
 74
     0
 42
0.00000001
 43
0.00000001
 40
0.0
 40
0.0
 40
0.0
 40
0.0
 40
0.25
 40
0.25
 40
0.5
 40
0.5
 40
0.75
 40
0.75
 40
1.0
 40
1.0
 40
1.0
 40
1.0
 10
1.747449262473421
 20
9.315098375491472
 30
0.0
 10
1.805699250801689
 20
9.384655703167214
 30
0.0
 10
1.866262686525965
 20
9.4520821151513
 30
0.0
 10
1.991973485082354
 20
9.582712685256736
 30
0.0
 10
2.05714024765717
 20
9.64592354081226
 30
0.0
 10
2.191503397763094
 20
9.767579813771448
 30
0.0
 10
2.260838498269343
 20
9.826152802644417
 30
0.0
 10
2.403312580190871
 20
9.938322865288873
 30
0.0
 10
2.476420630963052
 20
9.991905494489218
 30
0.0
 10
2.551419887170892
 20
10.04295871071362
 30
0.0
  0
SPLINE
  5
D7
330
1F
100
AcDbEntity
  8
0
  6
Continuous
 62
     7
370
    25
100
AcDbSpline
210
0.0
220
0.0
230
1.0
 70
     8
 71
     3
 72
     8
 73
     4
 74
     0
 42
0.00000001
 43
0.00000001
 40
0.0
 40
0.0
 40
0.0
 40
0.0
 40
0.0014856957173216
 40
0.0014856957173216
 40
0.0014856957173216
 40
0.0014856957173216
 10
1.710210478287852
 20
9.269992653315171
 30
0.0
 10
1.722512723554709
 20
9.285118774075896
 30
0.0
 10
1.73493123399253
 20
9.300150318226107
 30
0.0
 10
1.74744926247279
 20
9.315098375492113
 30
0.0
  0
SPLINE
  5
D8
330
1F
100
AcDbEntity
  8
0
  6
Continuous
 62
     7
370
    25
100
AcDbSpline
210
0.0
220
0.0
230
1.0
 70
     8
 71
     3
 72
    12
 73
     8
 74
     0
 42
0.00000001
 43
0.00000001
 40
0.0
 40
0.0
 40
0.0
 40
0.0
 40
0.0009536474789949
 40
0.0009536474789949
 40
0.0019070974292103
 40
0.0019070974292103
 40
0.0029166480609306
 40
0.0029166480609306
 40
0.0029166480609306
 40
0.0029166480609306
 10
1.639724718752934
 20
9.179353001708646
 30
0.0
 10
1.64718804645228
 20
9.189399206043783
 30
0.0
 10
1.654724471281884
 20
9.199391510808182
 30
0.0
 10
1.669938489181446
 20
9.219263954023058
 30
0.0
 10
1.677616446756294
 20
9.229144630395947
 30
0.0
 10
1.693568199108848
 20
9.249372850444862
 30
0.0
 10
1.70185092791915
 20
9.259714236018548
 30
0.0
 10
1.710210478287852
 20
9.269992653315171
 30
0.0
  0
SPLINE
  5
D9
330
1F
100
AcDbEntity
  8
0
  6
Continuous
 62
     7
370
    25
100
AcDbSpline
210
0.0
220
0.0
230
1.0
 70
     8
 71
     3
 72
     8
 73
     4
 74
     0
 42
0.00000001
 43
0.00000001
 40
0.0
 40
0.0
 40
0.0
 40
0.0
 40
0.6356251808636099
 40
0.6356251808636099
 40
0.6356251808636099
 40
0.6356251808636099
 10
1.372923209284625
 20
8.766353656330935
 30
0.0
 10
1.452732813832255
 20
8.909615432246204
 30
0.0
 10
1.541875447079377
 20
9.047640121040859
 30
0.0
 10
1.639724718752661
 20
9.179353001708847
 30
0.0
  0
ARC
  5
DA
330
1F
100
AcDbEntity
  8
0
  6
Continuous
 62
     7
370
    25
100
AcDbCircle
 10
1.5476407817
 20
8.6690203636
 30
0.0
 40
0.2000000000000003
100
AcDbArc
 50
150.8782876342
 51
190.0
  0
LINE
  5
DB
330
1F
100
AcDbEntity
  8
0
  6
Continuous
 62
     7
370
    25
100
AcDbLine
 10
1.3777282091
 20
8.4808883511
 30
0.0
 11
1.3506792311
 21
8.6342907281
 31
0.0
  0
ARC
  5
DC
330
1F
100
AcDbEntity
  8
0
  6
Continuous
 62
     7
370
    25
100
AcDbCircle
 10
1.1807666585
 20
8.4461587156
 30
0.0
 40
0.2
100
AcDbArc
 50
325.0
 51
10.0
  0
LINE
  5
DD
330
1F
100
AcDbEntity
  8
0
  6
Continuous
 62
     7
370
    25
100
AcDbLine
 10
1.031300108
 20
7.8840090004
 30
0.0
 11
1.3445970674
 21
8.3314434283
 31
0.0
  0
ARC
  5
DE
330
1F
100
AcDbEntity
  8
0
  6
Continuous
 62
     7
370
    25
100
AcDbCircle
 10
1.1951305169
 20
7.7692937131
 30
0.0
 40
0.2000000000000002
100
AcDbArc
 50
145.0
 51
166.2981820373
  0
ARC
  5
DF
330
1F
100
AcDbEntity
  8
0
  6
Continuous
 62
     7
370
    25
100
AcDbCircle
 10
4.703084729
 20
6.914028734
 30
0.0
 40
3.810709201615495
100
AcDbArc
 50
166.2981820373
 51
166.532062812
  0
SPLINE
  5
E0
330
1F
100
AcDbEntity
  8
0
  6
Continuous
 62
     7
370
    25
100
AcDbSpline
210
0.0
220
0.0
230
1.0
 70
     8
 71
     3
 72
    10
 73
     6
 74
     0
 42
0.00000001
 43
0.00000001
 40
0.0
 40
0.0
 40
0.0
 40
0.0
 40
0.5
 40
0.5
 40
1.0
 40
1.0
 40
1.0
 40
1.0
 10
0.9554515544669967
 20
7.385758738407718
 30
0.0
 10
0.9530540987724117
 20
7.455625418164943
 30
0.0
 10
0.9553523537412919
 20
7.525583655048973
 30
0.0
 10
0.969278749279904
 20
7.664614892205263
 30
0.0
 10
0.9808873651937234
 20
7.733560733332496
 30
0.0
 10
0.9971685052080173
 20
7.801547428430474
 30
0.0
  0
SPLINE
  5
E1
330
1F
100
AcDbEntity
  8
0
  6
Continuous
 62
     7
370
    25
100
AcDbSpline
210
0.0
220
0.0
230
1.0
 70
     8
 71
     3
 72
     8
 73
     4
 74
     0
 42
0.00000001
 43
0.00000001
 40
0.0
 40
0.0
 40
0.0
 40
0.0
 40
0.0122737926164575
 40
0.0122737926164575
 40
0.0122737926164575
 40
0.0122737926164575
 10
0.9711495080412634
 20
6.902793877582218
 30
0.0
 10
0.9661892052253471
 20
7.063790835885436
 30
0.0
 10
0.9609755655709294
 20
7.224780095322512
 30
0.0
 10
0.9554515544669973
 20
7.385758738407717
 30
0.0
  0
ARC
  5
E2
330
1F
100
AcDbEntity
  8
0
  6
Continuous
 62
     7
370
    25
100
AcDbCircle
 10
89.6858337954
 20
9.6359927277
 30
0.0
 40
88.75677768010752
100
AcDbArc
 50
181.7646598236
 51
181.8311329764
  0
LINE
  5
E3
330
1F
100
AcDbEntity
  8
0
  6
Continuous
 62
     7
370
    25
100
AcDbLine
 10
0.9743802026
 20
6.7998711474
 30
0.0
 11
0.974949519
 21
6.7821197717
 31
0.0
  0
SPLINE
  5
E4
330
1F
100
AcDbEntity
  8
0
  6
Continuous
 62
     7
370
    25
100
AcDbSpline
210
0.0
220
0.0
230
1.0
 70
     8
 71
     3
 72
     8
 73
     4
 74
     0
 42
0.00000001
 43
0.00000001
 40
0.0
 40
0.0
 40
0.0
 40
0.0
 40
0.0045228821246419
 40
0.0045228821246419
 40
0.0045228821246419
 40
0.0045228821246419
 10
0.9805760619727342
 20
6.604142468597276
 30
0.0
 10
0.9787331452615142
 20
6.663469259430725
 30
0.0
 10
0.976856986673907
 20
6.722795020669573
 30
0.0
 10
0.9749495189967153
 20
6.782119771663556
 30
0.0
  0
ARC
  5
E5
330
1F
100
AcDbEntity
  8
0
  6
Continuous
 62
     7
370
    25
100
AcDbCircle
 10
1.1804796357
 20
6.6103522371
 30
0.0
 40
0.1999999999999999
100
AcDbArc
 50
181.7792535864
 51
225.0
  0
LINE
  5
E6
330
1F
100
AcDbEntity
  8
0
  6
Continuous
 62
     7
370
    25
100
AcDbLine
 10
1.0857537089
 20
6.4222354514
 30
0.0
 11
1.0390582794
 21
6.4689308809
 31
0.0
  0
ARC
  5
E7
330
1F
100
AcDbEntity
  8
0
  6
Continuous
 62
     7
370
    25
100
AcDbCircle
 10
0.9443323527
 20
6.2808140951
 30
0.0
 40
0.2000000000000001
100
AcDbArc
 50
0.0
 51
45.0
  0
LINE
  5
E8
330
1F
100
AcDbEntity
  8
0
  6
Continuous
 62
     7
370
    25
100
AcDbLine
 10
1.1443323527
 20
6.1214995201
 30
0.0
 11
1.1443323527
 21
6.2808140951
 31
0.0
  0
ARC
  5
E9
330
1F
100
AcDbEntity
  8
0
  6
Continuous
 62
     7
370
    25
100
AcDbCircle
 10
0.9443323527
 20
6.1214995201
 30
0.0
 40
0.2000000000000001
100
AcDbArc
 50
315.0
 51
0.0
  0
LINE
  5
EA
330
1F
100
AcDbEntity
  8
0
  6
Continuous
 62
     7
370
    25
100
AcDbLine
 10
1.0626932562
 20
5.9570177111
 30
0.0
 11
1.0857537089
 21
5.9800781638
 31
0.0
  0
ARC
  5
EB
330
1F
100
AcDbEntity
  8
0
  6
Continuous
 62
     7
370
    25
100
AcDbCircle
 10
1.2041146125
 20
5.8155963549
 30
0.0
 40
0.200000000000001
100
AcDbArc
 50
135.0
 51
181.6593767245
  0
LINE
  5
EC
330
1F
100
AcDbEntity
  8
0
  6
Continuous
 62
     7
370
    25
100
AcDbLine
 10
1.0041978774
 20
5.8098048295
 30
0.0
 11
1.0051207008
 21
5.7779224127
 31
0.0
  0
SPLINE
  5
ED
330
1F
100
AcDbEntity
  8
0
  6
Continuous
 62
     7
370
    25
100
AcDbSpline
210
0.0
220
0.0
230
1.0
 70
     8
 71
     3
 72
     8
 73
     4
 74
     0
 42
0.00000001
 43
0.00000001
 40
0.0
 40
0.0
 40
0.0
 40
0.0
 40
0.2565619752443835
 40
0.2565619752443835
 40
0.2565619752443835
 40
0.2565619752443835
 10
1.017776139263911
 20
5.33306336042002
 30
0.0
 10
1.013627302145021
 20
5.481351669004098
 30
0.0
 10
1.009402683917021
 20
5.629637886814709
 30
0.0
 10
1.005120700834211
 20
5.777922412722335
 30
0.0
  0
ARC
  5
EE
330
1F
100
AcDbEntity
  8
0
  6
Continuous
 62
     7
370
    25
100
AcDbCircle
 10
1.2176979073
 20
5.3386568076
 30
0.0
 40
0.2000000000000001
100
AcDbArc
 50
181.6026136058
 51
270.0
  0
LINE
  5
EF
330
1F
100
AcDbEntity
  8
0
  6
Continuous
 62
     7
370
    25
100
AcDbLine
 10
1.2176979073
 20
5.1386568076
 30
0.0
 11
8.5280983143
 21
5.1386568076
 31
0.0
  0
ARC
  5
F0
330
1F
100
AcDbEntity
  8
0
  6
Continuous
 62
     7
370
    25
100
AcDbCircle
 10
8.5280983143
 20
5.3386568076
 30
0.0
 40
0.200000000000002
100
AcDbArc
 50
270.0
 51
358.3973864154
  0
SPLINE
  5
F1
330
1F
100
AcDbEntity
  8
0
  6
Continuous
 62
     7
370
    25
100
AcDbSpline
210
0.0
220
0.0
230
1.0
 70
     8
 71
     3
 72
     8
 73
     4
 74
     0
 42
0.00000001
 43
0.00000001
 40
0.74343733784744
 40
0.74343733784744
 40
0.74343733784744
 40
0.74343733784744
 40
1.0
 40
1.0
 40
1.0
 40
1.0
 10
8.740675567850758
 20
5.777924067276592
 30
0.0
 10
8.736393569402859
 20
5.629639009277918
 30
0.0
 10
8.732168935274311
 20
5.481352235764284
 30
0.0
 10
8.728020082355599
 20
5.333063360494149
 30
0.0
  0
LINE
  5
F2
330
1F
100
AcDbEntity
  8
0
  6
Continuous
 62
     7
370
    25
100
AcDbLine
 10
8.7406755679
 20
5.7779240673
 30
0.0
 11
8.7415983466
 21
5.8098049438
 31
0.0
  0
ARC
  5
F3
330
1F
100
AcDbEntity
  8
0
  6
Continuous
 62
     7
370
    25
100
AcDbCircle
 10
8.5416816116
 20
5.8155964685
 30
0.0
 40
0.2000000000000008
100
AcDbArc
 50
358.3406234702
 51
45.0
  0
LINE
  5
F4
330
1F
100
AcDbEntity
  8
0
  6
Continuous
 62
     7
370
    25
100
AcDbLine
 10
8.6831029678
 20
5.9570178247
 30
0.0
 11
8.6600426287
 21
5.9800781638
 31
0.0
  0
ARC
  5
F5
330
1F
100
AcDbEntity
  8
0
  6
Continuous
 62
     7
370
    25
100
AcDbCircle
 10
8.8014639849
 20
6.1214995201
 30
0.0
 40
0.1999999999999996
100
AcDbArc
 50
180.0
 51
225.0
  0
LINE
  5
F6
330
1F
100
AcDbEntity
  8
0
  6
Continuous
 62
     7
370
    25
100
AcDbLine
 10
8.6014639849
 20
6.1214995201
 30
0.0
 11
8.6014639849
 21
6.2808140951
 31
0.0
  0
ARC
  5
F7
330
1F
100
AcDbEntity
  8
0
  6
Continuous
 62
     7
370
    25
100
AcDbCircle
 10
4.1728981688
 20
3.0495139647
 30
0.0
 40
0.2000000000000002
100
AcDbArc
 50
360.0
 51
45.5729959992
  0
ARC
  5
F8
330
1F
100
AcDbEntity
  8
0
  6
Continuous
 62
     7
370
    25
100
AcDbCircle
 10
4.8728981688
 20
3.7636568076
 30
0.0
 40
0.8000000000000003
100
AcDbArc
 50
153.9655749888
 51
225.5729959992
  0
ARC
  5
F9
330
1F
100
AcDbEntity
  8
0
  6
Continuous
 62
     7
370
    25
100
AcDbCircle
 10
3.9743676712
 20
4.2025678975
 30
0.0
 40
0.2000000000000005
100
AcDbArc
 50
333.9655749888
 51
45.0
  0
LINE
  5
FA
330
1F
100
AcDbEntity
  8
0
  6
Continuous
 62
     7
370
    25
100
AcDbLine
 10
4.1157890274
 20
4.3439892537
 30
0.0
 11
3.6797001173
 21
4.7800781638
 31
0.0
  0
ARC
  5
FB
330
1F
100
AcDbEntity
  8
0
  6
Continuous
 62
     7
370
    25
100
AcDbCircle
 10
3.538278761
 20
4.6386568076
 30
0.0
 40
0.2000000000000002
100
AcDbArc
 50
45.0
 51
90.0
  0
LINE
  5
FC
330
1F
100
AcDbEntity
  8
0
  6
Continuous
 62
     7
370
    25
100
AcDbLine
 10
3.538278761
 20
4.8386568076
 30
0.0
 11
1.2366479194
 21
4.8386568076
 31
0.0
  0
ARC
  5
FD
330
1F
100
AcDbEntity
  8
0
  6
Continuous
 62
     7
370
    25
100
AcDbCircle
 10
1.2366479194
 20
4.6386568076
 30
0.0
 40
0.2000000000000002
100
AcDbArc
 50
90.0
 51
181.492926297
  0
SPLINE
  5
FE
330
1F
100
AcDbEntity
  8
0
  6
Continuous
 62
     7
370
    25
100
AcDbSpline
210
0.0
220
0.0
230
1.0
 70
     8
 71
     3
 72
     8
 73
     4
 74
     0
 42
0.00000001
 43
0.00000001
 40
0.6600345749760093
 40
0.6600345749760093
 40
0.6600345749760093
 40
0.6600345749760093
 40
1.0
 40
1.0
 40
1.0
 40
1.0
 10
1.051485316235798
 20
4.043918687092605
 30
0.0
 10
1.046774624059133
 20
4.240433216240642
 30
0.0
 10
1.041837172576674
 20
4.436942044917469
 30
0.0
 10
1.03671580960384
 20
4.633446101147238
 30
0.0
  0
SPLINE
  5
FF
330
1F
100
AcDbEntity
  8
0
  6
Continuous
 62
     7
370
    25
100
AcDbSpline
210
0.0
220
0.0
230
1.0
 70
     8
 71
     3
 72
     8
 73
     4
 74
     0
 42
0.00000001
 43
0.00000001
 40
0.0
 40
0.0
 40
0.0
 40
0.0
 40
0.0035743166118536
 40
0.0035743166118536
 40
0.0035743166118536
 40
0.0035743166118536
 10
1.054718828578736
 20
3.90323471615791
 30
0.0
 10
1.053659713293186
 20
3.950129805389138
 30
0.0
 10
1.052609412680629
 20
3.997025115993
 30
0.0
 10
1.051485316235798
 20
4.043918687092605
 30
0.0
  0
SPLINE
  5
100
330
1F
100
AcDbEntity
  8
0
  6
Continuous
 62
     7
370
    25
100
AcDbSpline
210
0.0
220
0.0
230
1.0
 70
     8
 71
     3
 72
     8
 73
     4
 74
     0
 42
0.00000001
 43
0.00000001
 40
0.0
 40
0.0
 40
0.0
 40
0.0
 40
0.005433198098534
 40
0.005433198098534
 40
0.005433198098534
 40
0.005433198098534
 10
1.060208791953154
 20
3.689400129132919
 30
0.0
 10
1.058152598403145
 20
3.760672224986198
 30
0.0
 10
1.056328772124541
 20
3.831951081840993
 30
0.0
 10
1.054718828578736
 20
3.90323471615791
 30
0.0
  0
SPLINE
  5
101
330
1F
100
AcDbEntity
  8
0
  6
Continuous
 62
     7
370
    25
100
AcDbSpline
210
0.0
220
0.0
230
1.0
 70
     8
 71
     3
 72
    10
 73
     6
 74
     0
 42
0.00000001
 43
0.00000001
 40
0.0
 40
0.0
 40
0.0
 40
0.0
 40
0.5
 40
0.5
 40
1.0
 40
1.0
 40
1.0
 40
1.0
 10
1.102919259112084
 20
3.394769179432604
 30
0.0
 10
1.090101069885525
 20
3.44285386678352
 30
0.0
 10
1.080139583707516
 20
3.491654031737489
 30
0.0
 10
1.065901568331016
 20
3.590155321560504
 30
0.0
 10
1.061643879835539
 20
3.639658029512772
 30
0.0
 10
1.060208791953154
 20
3.689400129132919
 30
0.0
  0
SPLINE
  5
102
330
1F
100
AcDbEntity
  8
0
  6
Continuous
 62
     7
370
    25
100
AcDbSpline
210
0.0
220
0.0
230
1.0
 70
     8
 71
     3
 72
     8
 73
     4
 74
     0
 42
0.00000001
 43
0.00000001
 40
0.0
 40
0.0
 40
0.0
 40
0.0
 40
1.0
 40
1.0
 40
1.0
 40
1.0
 10
1.140188451028565
 20
3.275887705634384
 30
0.0
 10
1.126050311837183
 20
3.314953167484615
 30
0.0
 10
1.113620449508245
 20
3.354625950078861
 30
0.0
 10
1.102919259112083
 20
3.394769179432604
 30
0.0
  0
SPLINE
  5
103
330
1F
100
AcDbEntity
  8
0
  6
Continuous
 62
     7
370
    25
100
AcDbSpline
210
0.0
220
0.0
230
1.0
 70
     8
 71
     3
 72
    10
 73
     6
 74
     0
 42
0.00000001
 43
0.00000001
 40
0.0
 40
0.0
 40
0.0
 40
0.0
 40
0.5
 40
0.5
 40
1.0
 40
1.0
 40
1.0
 40
1.0
 10
1.304316309136639
 20
2.950258050486314
 30
0.0
 10
1.270520664673829
 20
3.000990582943182
 30
0.0
 10
1.23986729270262
 20
3.053752507021875
 30
0.0
 10
1.18505333958539
 20
3.162586751451662
 30
0.0
 10
1.160932811145853
 20
3.21856828842997
 30
0.0
 10
1.140188451028565
 20
3.275887705634384
 30
0.0
  0
SPLINE
  5
104
330
1F
100
AcDbEntity
  8
0
  6
Continuous
 62
     7
370
    25
100
AcDbSpline
210
0.0
220
0.0
230
1.0
 70
     8
 71
     3
 72
    18
 73
    14
 74
     0
 42
0.00000001
 43
0.00000001
 40
0.0
 40
0.0
 40
0.0
 40
0.0
 40
0.25
 40
0.25
 40
0.375
 40
0.375
 40
0.5
 40
0.5
 40
0.625
 40
0.625
 40
0.75
 40
0.75
 40
1.0
 40
1.0
 40
1.0
 40
1.0
 10
2.040273135503373
 20
2.366244059977421
 30
0.0
 10
1.965431364570722
 20
2.394208131814912
 30
0.0
 10
1.893347509753066
 20
2.427842149294341
 30
0.0
 10
1.789303314106722
 20
2.486684429145515
 30
0.0
 10
1.755272730122815
 20
2.507735222588253
 30
0.0
 10
1.689232257910975
 20
2.552253447063157
 30
0.0
 10
1.657140817491818
 20
2.575762487019028
 30
0.0
 10
1.594810257599944
 20
2.625273329685136
 30
0.0
 10
1.564494740066124
 20
2.651348327033201
 30
0.0
 10
1.50614056755023
 20
2.705654572795531
 30
0.0
 10
1.478145345323621
 20
2.733831917503229
 30
0.0
 10
1.397647552033771
 20
2.821386597175575
 30
0.0
 10
1.348609759069162
 20
2.883766562949343
 30
0.0
 10
1.304316309136639
 20
2.950258050486314
 30
0.0
  0
SPLINE
  5
105
330
1F
100
AcDbEntity
  8
0
  6
Continuous
 62
     7
370
    25
100
AcDbSpline
210
0.0
220
0.0
230
1.0
 70
     8
 71
     3
 72
    12
 73
     8
 74
     0
 42
0.00000001
 43
0.00000001
 40
0.0
 40
0.0
 40
0.0
 40
0.0
 40
0.4999999999999983
 40
0.4999999999999983
 40
0.7499999999999991
 40
0.7499999999999991
 40
1.0
 40
1.0
 40
1.0
 40
1.0
 10
2.518974155797102
 20
2.264937866856733
 30
0.0
 10
2.437193124426118
 20
2.269798624892321
 30
0.0
 10
2.355883991399378
 20
2.28081844678507
 30
0.0
 10
2.235760989167906
 20
2.306247557813776
 30
0.0
 10
2.195999631305307
 20
2.316218260068057
 30
0.0
 10
2.117467264844033
 20
2.339042616085568
 30
0.0
 10
2.078644616299969
 20
2.351905501415567
 30
0.0
 10
2.040273135378991
 20
2.366244059773475
 30
0.0
  0
ARC
  5
106
330
1F
100
AcDbEntity
  8
0
  6
Continuous
 62
     7
370
    25
100
AcDbCircle
 10
2.6156522127
 20
3.8917531466
 30
0.0
 40
1.629685430072884
100
AcDbArc
 50
266.5990376597
 51
270.6009569321
  0
SPLINE
  5
107
330
1F
100
AcDbEntity
  8
0
  6
Continuous
 62
     7
370
    25
100
AcDbSpline
210
0.0
220
0.0
230
1.0
 70
     8
 71
     3
 72
     8
 73
     4
 74
     0
 42
0.00000001
 43
0.00000001
 40
0.0
 40
0.0
 40
0.0
 40
0.0
 40
1.0
 40
1.0
 40
1.0
 40
1.0
 10
2.814310701839846
 20
2.262260706642081
 30
0.0
 10
2.753790218078949
 20
2.262831765739873
 30
0.0
 10
2.693264984966603
 20
2.262792147730016
 30
0.0
 10
2.632745143623174
 20
2.2621573584188
 30
0.0
  0
ARC
  5
108
330
1F
100
AcDbEntity
  8
0
  6
Continuous
 62
     7
370
    25
100
AcDbCircle
 10
2.5413069809
 20
-26.6705018068
 30
0.0
 40
28.93405048809953
100
AcDbArc
 50
89.3179219175
 51
89.4593846062
  0
SPLINE
  5
109
330
1F
100
AcDbEntity
  8
0
  6
Continuous
 62
     7
370
    25
100
AcDbSpline
210
0.0
220
0.0
230
1.0
 70
     8
 71
     3
 72
     9
 73
     5
 74
     0
 42
0.00000001
 43
0.00000001
 40
0.0
 40
0.0
 40
0.0
 40
0.0
 40
0.0025694880475248
 40
0.0051398241304123
 40
0.0051398241304123
 40
0.0051398241304123
 40
0.0051398241304123
 10
3.088083349359048
 20
2.258930141873543
 30
0.0
 10
3.054366811712456
 20
2.259433524750183
 30
0.0
 10
2.986920778636162
 20
2.26031684035534
 30
0.0
 10
2.919473543911995
 20
2.26109692996672
 30
0.0
 10
2.885744489391382
 20
2.26149847674495
 30
0.0
  0
SPLINE
  5
10A
330
1F
100
AcDbEntity
  8
0
  6
Continuous
 62
     7
370
    25
100
AcDbSpline
210
0.0
220
0.0
230
1.0
 70
     8
 71
     3
 72
     8
 73
     4
 74
     0
 42
0.00000001
 43
0.00000001
 40
0.0
 40
0.0
 40
0.0
 40
0.0
 40
0.604689728874968
 40
0.604689728874968
 40
0.604689728874968
 40
0.604689728874968
 10
4.167444377949561
 20
2.235947261671734
 30
0.0
 10
3.807706957758643
 20
2.24576057438918
 30
0.0
 10
3.447916373225118
 20
2.253559380392756
 30
0.0
 10
3.088083349359003
 20
2.25893014186917
 30
0.0
  0
ARC
  5
10B
330
1F
100
AcDbEntity
  8
0
  6
Continuous
 62
     7
370
    25
100
AcDbCircle
 10
4.1728981688
 20
2.4358728883
 30
0.0
 40
0.2000000000000002
100
AcDbArc
 50
268.4374102787
 51
360.0
  0
LINE
  5
10C
330
1F
100
AcDbEntity
  8
0
  6
Continuous
 62
     7
370
    25
100
AcDbLine
 10
4.3728981688
 20
2.4358728883
 30
0.0
 11
4.3728981688
 21
3.0495139647
 31
0.0
  0
SPLINE
  5
10D
330
1F
100
AcDbEntity
  8
0
  6
Continuous
 62
     7
370
    25
100
AcDbSpline
210
0.0
220
0.0
230
1.0
 70
     8
 71
     3
 72
     9
 73
     5
 74
     0
 42
0.00000001
 43
0.00000001
 40
0.0
 40
0.0
 40
0.0
 40
0.0
 40
0.0025699636465372
 40
0.0051399200853416
 40
0.0051399200853416
 40
0.0051399200853416
 40
0.0051399200853416
 10
6.860053636898494
 20
2.261498493560445
 30
0.0
 10
6.826329449209732
 20
2.261097004722192
 30
0.0
 10
6.758880914098162
 20
2.260316876964162
 30
0.0
 10
6.691433581080331
 20
2.259433587882323
 30
0.0
 10
6.657710876860758
 20
2.258930110363893
 30
0.0
  0
ARC
  5
10E
330
1F
100
AcDbEntity
  8
0
  6
Continuous
 62
     7
370
    25
100
AcDbCircle
 10
7.2043875898
 20
-26.6705030221
 30
0.0
 40
28.93405048683665
100
AcDbArc
 50
90.5404141101
 51
90.6818730053
  0
SPLINE
  5
10F
330
1F
100
AcDbEntity
  8
0
  6
Continuous
 62
     7
370
    25
100
AcDbSpline
210
0.0
220
0.0
230
1.0
 70
     8
 71
     3
 72
     8
 73
     4
 74
     0
 42
0.00000001
 43
0.00000001
 40
0.0
 40
0.0
 40
0.0
 40
0.0
 40
1.0
 40
1.0
 40
1.0
 40
1.0
 10
7.113051011641638
 20
2.262157100592606
 30
0.0
 10
7.052531191707955
 20
2.26279188967924
 30
0.0
 10
6.992005974848608
 20
2.262831507109854
 30
0.0
 10
6.931485511604027
 20
2.262260448205648
 30
0.0
  0
ARC
  5
110
330
1F
100
AcDbEntity
  8
0
  6
Continuous
 62
     7
370
    25
100
AcDbCircle
 10
7.1301440007
 20
3.8917528881
 30
0.0
 40
1.629685430079662
100
AcDbArc
 50
269.3990410223
 51
273.4008491155
  0
SPLINE
  5
111
330
1F
100
AcDbEntity
  8
0
  6
Continuous
 62
     7
370
    25
100
AcDbSpline
210
0.0
220
0.0
230
1.0
 70
     8
 71
     3
 72
    12
 73
     8
 74
     0
 42
0.00000001
 43
0.00000001
 40
0.0
 40
0.0
 40
0.0
 40
0.0
 40
0.4999999999999983
 40
0.4999999999999983
 40
0.7499999999999991
 40
0.7499999999999991
 40
1.0
 40
1.0
 40
1.0
 40
1.0
 10
7.705537425150581
 20
2.366249162519884
 30
0.0
 10
7.628792220062142
 20
2.337571207553373
 30
0.0
 10
7.549988626500856
 20
2.314700395496315
 30
0.0
 10
7.429859576958053
 20
2.289277103801895
 30
0.0
 10
7.389466685809245
 20
2.282282283407678
 30
0.0
 10
7.308418059973907
 20
2.271333885969101
 30
0.0
 10
7.267711325176361
 20
2.267367832024705
 30
0.0
 10
7.226818842825644
 20
2.26493741734657
 30
0.0
  0
SPLINE
  5
112
330
1F
100
AcDbEntity
  8
0
  6
Continuous
 62
     7
370
    25
100
AcDbSpline
210
0.0
220
0.0
230
1.0
 70
     8
 71
     3
 72
    18
 73
    14
 74
     0
 42
0.00000001
 43
0.00000001
 40
0.0
 40
0.0
 40
0.0
 40
0.0
 40
0.2500000000000003
 40
0.2500000000000003
 40
0.3750000000000004
 40
0.3750000000000004
 40
0.5000000000000004
 40
0.5000000000000004
 40
0.6250000000000004
 40
0.6250000000000004
 40
0.7500000000000006
 40
0.7500000000000006
 40
1.0
 40
1.0
 40
1.0
 40
1.0
 10
8.441479688800428
 20
2.950257468540238
 30
0.0
 10
8.39718695318837
 20
2.883767053311489
 30
0.0
 10
8.348038553066948
 20
2.821221206228531
 30
0.0
 10
8.267104725887254
 20
2.73326057844978
 30
0.0
 10
8.238880728417595
 20
2.704896370830929
 30
0.0
 10
8.18054110942431
 20
2.650678211632628
 30
0.0
 10
8.150367020660653
 20
2.624754905042046
 30
0.0
 10
8.088011786607796
 20
2.575278064425997
 30
0.0
 10
8.055742239951751
 20
2.551666811829452
 30
0.0
 10
7.989612617051435
 20
2.507154260322364
 30
0.0
 10
7.95581759158418
 20
2.486284919900362
 30
0.0
 10
7.852273412305957
 20
2.427777800553126
 30
0.0
 10
7.780379645542162
 20
2.394213402043941
 30
0.0
 10
7.705537425213097
 20
2.36624916229282
 30
0.0
  0
SPLINE
  5
113
330
1F
100
AcDbEntity
  8
0
  6
Continuous
 62
     7
370
    25
100
AcDbSpline
210
0.0
220
0.0
230
1.0
 70
     8
 71
     3
 72
    10
 73
     6
 74
     0
 42
0.00000001
 43
0.00000001
 40
0.0
 40
0.0
 40
0.0
 40
0.0
 40
0.5
 40
0.5
 40
1.0
 40
1.0
 40
1.0
 40
1.0
 10
8.605607635427187
 20
3.275887096313271
 30
0.0
 10
8.58486317614602
 20
3.218567405105839
 30
0.0
 10
8.56071697297214
 20
3.162529482971199
 30
0.0
 10
8.505898199377398
 20
3.053696839743643
 30
0.0
 10
8.47527582805392
 20
3.000990743755038
 30
0.0
 10
8.441479688800426
 20
2.950257468540239
 30
0.0
  0
SPLINE
  5
114
330
1F
100
AcDbEntity
  8
0
  6
Continuous
 62
     7
370
    25
100
AcDbSpline
210
0.0
220
0.0
230
1.0
 70
     8
 71
     3
 72
     8
 73
     4
 74
     0
 42
0.00000001
 43
0.00000001
 40
0.0
 40
0.0
 40
0.0
 40
0.0
 40
1.0
 40
1.0
 40
1.0
 40
1.0
 10
8.642876947134106
 20
3.394768893995501
 30
0.0
 10
8.632175721972114
 20
3.354625534224853
 30
0.0
 10
8.619745822839686
 20
3.314952691404516
 30
0.0
 10
8.605607635427187
 20
3.275887096313271
 30
0.0
  0
SPLINE
  5
115
330
1F
100
AcDbEntity
  8
0
  6
Continuous
 62
     7
370
    25
100
AcDbSpline
210
0.0
220
0.0
230
1.0
 70
     8
 71
     3
 72
    10
 73
     6
 74
     0
 42
0.00000001
 43
0.00000001
 40
0.0
 40
0.0
 40
0.0
 40
0.0
 40
0.5
 40
0.5
 40
1.0
 40
1.0
 40
1.0
 40
1.0
 10
8.68558742836058
 20
3.689400108817847
 30
0.0
 10
8.684151730506978
 20
3.639636552360168
 30
0.0
 10
8.679891510929721
 20
3.590117858878493
 30
0.0
 10
8.665643289718794
 20
3.491577023861804
 30
0.0
 10
8.655700918905149
 20
3.442875273321714
 30
0.0
 10
8.642876947134106
 20
3.394768893995501
 30
0.0
  0
SPLINE
  5
116
330
1F
100
AcDbEntity
  8
0
  6
Continuous
 62
     7
370
    25
100
AcDbSpline
210
0.0
220
0.0
230
1.0
 70
     8
 71
     3
 72
     8
 73
     4
 74
     0
 42
0.00000001
 43
0.00000001
 40
0.0
 40
0.0
 40
0.0
 40
0.0
 40
0.0054331950554176
 40
0.0054331950554176
 40
0.0054331950554176
 40
0.0054331950554176
 10
8.691077387726343
 20
3.903234584406893
 30
0.0
 10
8.689467446587702
 20
3.83195104544259
 30
0.0
 10
8.687643622032974
 20
3.760672226874112
 30
0.0
 10
8.68558742836058
 20
3.689400108817847
 30
0.0
  0
SPLINE
  5
117
330
1F
100
AcDbEntity
  8
0
  6
Continuous
 62
     7
370
    25
100
AcDbSpline
210
0.0
220
0.0
230
1.0
 70
     8
 71
     3
 72
     8
 73
     4
 74
     0
 42
0.00000001
 43
0.00000001
 40
0.0
 40
0.0
 40
0.0
 40
0.0
 40
0.0035743139585493
 40
0.0035743139585493
 40
0.0035743139585493
 40
0.0035743139585493
 10
8.694310897346167
 20
4.043918434415682
 30
0.0
 10
8.693186801861508
 20
3.997024903622759
 30
0.0
 10
8.692136502085207
 20
3.950129633329306
 30
0.0
 10
8.691077387726343
 20
3.903234584406893
 30
0.0
  0
SPLINE
  5
118
330
1F
100
AcDbEntity
  8
0
  6
Continuous
 62
     7
370
    25
100
AcDbSpline
210
0.0
220
0.0
230
1.0
 70
     8
 71
     3
 72
     8
 73
     4
 74
     0
 42
0.00000001
 43
0.00000001
 40
0.0
 40
0.0
 40
0.0
 40
0.0
 40
0.3399652180405898
 40
0.3399652180405898
 40
0.3399652180405898
 40
0.3399652180405898
 10
8.709080411204997
 20
4.633446100704047
 30
0.0
 10
8.703959044942502
 20
4.436941934976429
 30
0.0
 10
8.69902159069851
 20
4.240433012424443
 30
0.0
 10
8.694310897346167
 20
4.043918434415682
 30
0.0
  0
ARC
  5
119
330
1F
100
AcDbEntity
  8
0
  6
Continuous
 62
     7
370
    25
100
AcDbCircle
 10
8.5091483014
 20
4.6386568076
 30
0.0
 40
0.2000000000000002
100
AcDbArc
 50
358.507073576
 51
90.0
  0
LINE
  5
11A
330
1F
100
AcDbEntity
  8
0
  6
Continuous
 62
     7
370
    25
100
AcDbLine
 10
6.2075175766
 20
4.8386568076
 30
0.0
 11
8.5091483014
 21
4.8386568076
 31
0.0
  0
ARC
  5
11B
330
1F
100
AcDbEntity
  8
0
  6
Continuous
 62
     7
370
    25
100
AcDbCircle
 10
6.2075175766
 20
4.6386568076
 30
0.0
 40
0.2000000000000002
100
AcDbArc
 50
90.0
 51
135.0
  0
LINE
  5
11C
330
1F
100
AcDbEntity
  8
0
  6
Continuous
 62
     7
370
    25
100
AcDbLine
 10
5.6300073102
 20
4.3439892537
 30
0.0
 11
6.0660962203
 21
4.7800781638
 31
0.0
  0
ARC
  5
11D
330
1F
100
AcDbEntity
  8
0
  6
Continuous
 62
     7
370
    25
100
AcDbCircle
 10
5.7714286665
 20
4.2025678975
 30
0.0
 40
0.2000000000000001
100
AcDbArc
 50
135.0
 51
206.0344250112
  0
ARC
  5
11E
330
1F
100
AcDbEntity
  8
0
  6
Continuous
 62
     7
370
    25
100
AcDbCircle
 10
4.8728981688
 20
3.7636568076
 30
0.0
 40
0.8
100
AcDbArc
 50
314.4270040008
 51
26.0344250112
  0
ARC
  5
11F
330
1F
100
AcDbEntity
  8
0
  6
Continuous
 62
     7
370
    25
100
AcDbCircle
 10
5.5728981688
 20
3.0495139647
 30
0.0
 40
0.2000000000000002
100
AcDbArc
 50
134.4270040008
 51
180.0
  0
LINE
  5
120
330
1F
100
AcDbEntity
  8
0
  6
Continuous
 62
     7
370
    25
100
AcDbLine
 10
5.3728981688
 20
2.4358728935
 30
0.0
 11
5.3728981688
 21
3.0495139647
 31
0.0
  0
ARC
  5
121
330
1F
100
AcDbEntity
  8
0
  6
Continuous
 62
     7
370
    25
100
AcDbCircle
 10
5.5728981688
 20
2.4358728935
 30
0.0
 40
0.2000000000000002
100
AcDbArc
 50
180.0
 51
271.5625900409
  0
SPLINE
  5
122
330
1F
100
AcDbEntity
  8
0
  6
Continuous
 62
     7
370
    25
100
AcDbSpline
210
0.0
220
0.0
230
1.0
 70
     8
 71
     3
 72
     8
 73
     4
 74
     0
 42
0.00000001
 43
0.00000001
 40
0.3953106890270236
 40
0.3953106890270236
 40
0.3953106890270236
 40
0.3953106890270236
 40
1.0
 40
1.0
 40
1.0
 40
1.0
 10
6.657710876860645
 20
2.258930110368319
 30
0.0
 10
6.297878018090867
 20
2.253559341858669
 30
0.0
 10
5.938088491480348
 20
2.245760557368075
 30
0.0
 10
5.578351960789169
 20
2.235947266907408
 30
0.0
  0
SPLINE
  5
123
330
1F
100
AcDbEntity
  8
0
  6
Continuous
 62
     7
370
    25
100
AcDbSpline
210
0.0
220
0.0
230
1.0
 70
     8
 71
     3
 72
     8
 73
     4
 74
     0
 42
0.00000001
 43
0.00000001
 40
0.0
 40
0.0
 40
0.0
 40
0.0
 40
1.0
 40
1.0
 40
1.0
 40
1.0
 10
6.494716427292198
 20
10.42635175739924
 30
0.0
 10
6.732392402466256
 20
10.32456226799554
 30
0.0
 10
6.96025573894292
 20
10.2005214632235
 30
0.0
 10
7.174792190052075
 20
10.05621300491559
 30
0.0
  0
MTEXT
  5
125
330
1F
100
AcDbEntity
  8
PART_NAMES
100
AcDbMText
 10
4.6387136447
 20
4.8886236783
 30
0.0
 40
0.1666666667
 41
0.0
 71
     1
 72
     1
  1
BH8
  7
SLDTEXTSTYLE0
 73
     1
 44
1.0
  0
ARC
  5
126
330
1F
100
AcDbEntity
  8
0
  6
Continuous
 62
     7
370
    25
100
AcDbCircle
 10
15.0365031764
 20
4.5439268992
 30
0.0
 40
0.5
100
AcDbArc
 50
149.4775121859
 51
30.5224878141
  0
LINE
  5
127
330
1F
100
AcDbEntity
  8
0
  6
Continuous
 62
     7
370
    25
100
AcDbLine
 10
15.4672181225
 20
4.79786515
 30
0.0
 11
16.154701228
 21
5.4853482555
 31
0.0
  0
ARC
  5
128
330
1F
100
AcDbEntity
  8
0
  6
Continuous
 62
     7
370
    25
100
AcDbCircle
 10
16.2961225842
 20
5.3439268992
 30
0.0
 40
0.1999999999999996
100
AcDbArc
 50
90.0
 51
135.0
  0
LINE
  5
129
330
1F
100
AcDbEntity
  8
0
  6
Continuous
 62
     7
370
    25
100
AcDbLine
 10
16.2961225842
 20
5.5439268992
 30
0.0
 11
18.4689086841
 21
5.5439268992
 31
0.0
  0
ARC
  5
12A
330
1F
100
AcDbEntity
  8
0
  6
Continuous
 62
     7
370
    25
100
AcDbCircle
 10
18.4689086841
 20
5.7439268992
 30
0.0
 40
0.2
100
AcDbArc
 50
270.0
 51
358.5003715272
  0
SPLINE
  5
12B
330
1F
100
AcDbEntity
  8
0
  6
Continuous
 62
     7
370
    25
100
AcDbSpline
210
0.0
220
0.0
230
1.0
 70
     8
 71
     3
 72
     9
 73
     5
 74
     0
 42
0.00000001
 43
0.00000001
 40
0.5941088183520705
 40
0.5941088183520705
 40
0.5941088183520705
 40
0.5941088183520705
 40
0.7499998113197022
 40
1.000000924836836
 40
1.000000924836836
 40
1.000000924836836
 40
1.000000924836836
 10
18.66884018302686
 20
5.738692806011575
 30
0.0
 10
18.67104268935654
 20
5.822823976866452
 30
0.0
 10
18.67690703356809
 20
6.041808619212108
 30
0.0
 10
18.68305665194106
 20
6.260575809741243
 30
0.0
 10
18.68692478673856
 20
6.395358510851104
 30
0.0
  0
SPLINE
  5
12C
330
1F
100
AcDbEntity
  8
0
  6
Continuous
 62
     7
370
    25
100
AcDbSpline
210
0.0
220
0.0
230
1.0
 70
     8
 71
     3
 72
     9
 73
     5
 74
     0
 42
0.00000001
 43
0.00000001
 40
-0.0000026885453766
 40
-0.0000026885453766
 40
-0.0000026885453766
 40
-0.0000026885453766
 40
0.2500004109203502
 40
0.3311919893304122
 40
0.3311919893304122
 40
0.3311919893304122
 40
0.3311919893304122
 10
18.68692478673856
 20
6.395358510851104
 30
0.0
 10
18.68833242109524
 20
6.444367665833691
 30
0.0
 10
18.6902192687322
 20
6.509302593844769
 30
0.0
 10
18.69212611568051
 20
6.574210224167197
 30
0.0
 10
18.69259462675077
 20
6.590120806855087
 30
0.0
  0
ARC
  5
12D
330
1F
100
AcDbEntity
  8
0
  6
Continuous
 62
     7
370
    25
100
AcDbCircle
 10
18.4926812801
 20
6.5960075564
 30
0.0
 40
0.2000000000000002
100
AcDbArc
 50
358.313326869
 51
45.0
  0
LINE
  5
12E
330
1F
100
AcDbEntity
  8
0
  6
Continuous
 62
     7
370
    25
100
AcDbLine
 10
18.6111832935
 20
6.7603482555
 30
0.0
 11
18.6341026363
 21
6.7374289127
 31
0.0
  0
ARC
  5
12F
330
1F
100
AcDbEntity
  8
0
  6
Continuous
 62
     7
370
    25
100
AcDbCircle
 10
18.7526046497
 20
6.9017696117
 30
0.0
 40
0.1999999999999993
100
AcDbArc
 50
180.0
 51
225.0
  0
LINE
  5
130
330
1F
100
AcDbEntity
  8
0
  6
Continuous
 62
     7
370
    25
100
AcDbLine
 10
18.5526046497
 20
6.9017696117
 30
0.0
 11
18.5526046497
 21
7.0610841868
 31
0.0
  0
ARC
  5
131
330
1F
100
AcDbEntity
  8
0
  6
Continuous
 62
     7
370
    25
100
AcDbCircle
 10
18.7526046497
 20
7.0610841868
 30
0.0
 40
0.1999999999999993
100
AcDbArc
 50
134.9999999999
 51
180.0
  0
LINE
  5
132
330
1F
100
AcDbEntity
  8
0
  6
Continuous
 62
     7
370
    25
100
AcDbLine
 10
18.6111832935
 20
7.202505543
 30
0.0
 11
18.6682159765
 21
7.259538226
 31
0.0
  0
ARC
  5
133
330
1F
100
AcDbEntity
  8
0
  6
Continuous
 62
     7
370
    25
100
AcDbCircle
 10
18.5267946203
 20
7.4009595822
 30
0.0
 40
0.2000000000000002
100
AcDbArc
 50
314.9999999999
 51
340.74512924
  0
ARC
  5
134
330
1F
100
AcDbEntity
  8
0
  6
Continuous
 62
     7
370
    25
100
AcDbCircle
 10
-1.7638716097
 20
8.0376874509
 30
0.0
 40
20.49152992682271
100
AcDbArc
 50
358.0348656018
 51
358.1044181997
  0
ARC
  5
135
330
1F
100
AcDbEntity
  8
0
  6
Continuous
 62
     7
370
    25
100
AcDbCircle
 10
-1.8408842921
 20
8.0408310546
 30
0.0
 40
20.56860445861774
100
AcDbArc
 50
358.1027623048
 51
358.3464642833
  0
SPLINE
  5
136
330
1F
100
AcDbEntity
  8
0
  6
Continuous
 62
     7
370
    25
100
AcDbSpline
210
0.0
220
0.0
230
1.0
 70
     8
 71
     3
 72
    11
 73
     7
 74
     0
 42
0.00000001
 43
0.00000001
 40
0.0000011570180439
 40
0.0000011570180439
 40
0.0000011570180439
 40
0.0000011570180439
 40
0.2492308088981636
 40
0.4984604607782833
 40
0.7476901126584029
 40
0.9969197645385226
 40
0.9969197645385226
 40
0.9969197645385226
 40
0.9969197645385226
 10
18.71915518193514
 20
7.447310878429554
 30
0.0
 10
18.72021677383928
 20
7.484085317331772
 30
0.0
 10
18.72220032038523
 20
7.557646018589752
 30
0.0
 10
18.72475638138161
 20
7.667951224193808
 30
0.0
 10
18.72689491959403
 20
7.778229240695533
 30
0.0
 10
18.72804259242066
 20
7.851687456625907
 30
0.0
 10
18.72854749863333
 20
7.888425644814784
 30
0.0
  0
SPLINE
  5
137
330
1F
100
AcDbEntity
  8
0
  6
Continuous
 62
     7
370
    25
100
AcDbSpline
210
0.0
220
0.0
230
1.0
 70
     8
 71
     3
 72
    11
 73
     7
 74
     0
 42
0.00000001
 43
0.00000001
 40
0.0000028046294673
 40
0.0000028046294673
 40
0.0000028046294673
 40
0.0000028046294673
 40
0.2500021034721005
 40
0.5000014023147337
 40
0.7500007011573668
 40
1.0
 40
1.0
 40
1.0
 40
1.0
 10
18.72854749863333
 20
7.888425644814784
 30
0.0
 10
18.72899692728766
 20
7.92112962919667
 30
0.0
 10
18.7278506798883
 20
7.986572925721943
 30
0.0
 10
18.72000266962881
 20
8.084491211806265
 30
0.0
 10
18.70604323920357
 20
8.18168409301699
 30
0.0
 10
18.69270016209614
 20
8.245652331414258
 30
0.0
 10
18.68501808771004
 20
8.277398516185878
 30
0.0
  0
ARC
  5
138
330
1F
100
AcDbEntity
  8
0
  6
Continuous
 62
     7
370
    25
100
AcDbCircle
 10
15.3154750738
 20
7.4620024056
 30
0.0
 40
3.466798370253609
100
AcDbArc
 50
13.6034996763
 51
16.3534290905
  0
SPLINE
  5
139
330
1F
100
AcDbEntity
  8
0
  6
Continuous
 62
     7
370
    25
100
AcDbSpline
210
0.0
220
0.0
230
1.0
 70
     8
 71
     3
 72
    11
 73
     7
 74
     0
 42
0.00000001
 43
0.00000001
 40
0.0000015814649554
 40
0.0000015814649554
 40
0.0000015814649554
 40
0.0000015814649554
 40
0.2490332296149412
 40
0.4980648777649271
 40
0.7470965259149129
 40
0.9961281740648987
 40
0.9961281740648987
 40
0.9961281740648987
 40
0.9961281740648987
 10
18.64201769957787
 20
8.43811976463936
 30
0.0
 10
18.62949541831215
 20
8.480794861045444
 30
0.0
 10
18.60280829820495
 20
8.56564882654766
 30
0.0
 10
18.55787224230347
 20
8.69142093555699
 30
0.0
 10
18.50812784311789
 20
8.81542537264986
 30
0.0
 10
18.47180417460855
 20
8.89680641191575
 30
0.0
 10
18.45287376148635
 20
8.937125181939441
 30
0.0
  0
SPLINE
  5
13A
330
1F
100
AcDbEntity
  8
0
  6
Continuous
 62
     7
370
    25
100
AcDbSpline
210
0.0
220
0.0
230
1.0
 70
     8
 71
     3
 72
    11
 73
     7
 74
     0
 42
0.00000001
 43
0.00000001
 40
0.0000014317627541
 40
0.0000014317627541
 40
0.0000014317627541
 40
0.0000014317627541
 40
0.2500007778342443
 40
0.5000001239057347
 40
0.749999469977225
 40
0.9999988160487153
 40
0.9999988160487153
 40
0.9999988160487153
 40
0.9999988160487153
 10
18.45287376148634
 20
8.93712518193945
 30
0.0
 10
18.42753724004881
 20
8.99108739917523
 30
0.0
 10
18.37401258973082
 20
9.097660018446122
 30
0.0
 10
18.2853051938949
 20
9.253228190935179
 30
0.0
 10
18.18847465240268
 20
9.40395449559981
 30
0.0
 10
18.11866085010644
 20
9.500931775811386
 30
0.0
 10
18.08250104463806
 20
9.548444485452762
 30
0.0
  0
SPLINE
  5
13B
330
1F
100
AcDbEntity
  8
0
  6
Continuous
 62
     7
370
    25
100
AcDbSpline
210
0.0
220
0.0
230
1.0
 70
     8
 71
     3
 72
    11
 73
     7
 74
     0
 42
0.00000001
 43
0.00000001
 40
0.0
 40
0.0
 40
0.0
 40
0.0
 40
0.2499975890576636
 40
0.499995178115327
 40
0.7499927671729905
 40
0.999990356230654
 40
0.999990356230654
 40
0.999990356230654
 40
0.999990356230654
 10
18.08250104463807
 20
9.548444485452753
 30
0.0
 10
18.07711504614286
 20
9.555521426722908
 30
0.0
 10
18.0662781901806
 20
9.569603005200996
 30
0.0
 10
18.04973076917886
 20
9.590637803052793
 30
0.0
 10
18.03292649633973
 20
9.611540999010906
 30
0.0
 10
18.02152889453189
 20
9.625418439655432
 30
0.0
 10
18.01580047270239
 20
9.632319856499231
 30
0.0
  0
SPLINE
  5
13C
330
1F
100
AcDbEntity
  8
0
  6
Continuous
 62
     7
370
    25
100
AcDbSpline
210
0.0
220
0.0
230
1.0
 70
     8
 71
     3
 72
    11
 73
     7
 74
     0
 42
0.00000001
 43
0.00000001
 40
0.0000169560914884
 40
0.0000169560914884
 40
0.0000169560914884
 40
0.0000169560914884
 40
0.2500127170686164
 40
0.5000084780457442
 40
0.750004239022872
 40
1.0
 40
1.0
 40
1.0
 40
1.0
 10
18.01580047270239
 20
9.632319856499231
 30
0.0
 10
18.0129331174557
 20
9.635774351568397
 30
0.0
 10
18.00719299983935
 20
9.642662377269856
 30
0.0
 10
17.99849453210964
 20
9.653019790555552
 30
0.0
 10
17.98973301948415
 20
9.66337388031549
 30
0.0
 10
17.98383412340662
 20
9.670294066220846
 30
0.0
 10
17.98088272576601
 20
9.673744132956879
 30
0.0
  0
SPLINE
  5
13D
330
1F
100
AcDbEntity
  8
0
  6
Continuous
 62
     7
370
    25
100
AcDbSpline
210
0.0
220
0.0
230
1.0
 70
     8
 71
     3
 72
    11
 73
     7
 74
     0
 42
0.00000001
 43
0.00000001
 40
0.0000046667944954
 40
0.0000046667944954
 40
0.0000046667944954
 40
0.0000046667944954
 40
0.2500032711288604
 40
0.5000018754632256
 40
0.7500004797975908
 40
0.9999990841319558
 40
0.9999990841319558
 40
0.9999990841319558
 40
0.9999990841319558
 10
17.98088272576601
 20
9.673744132956879
 30
0.0
 10
17.92608309911974
 20
9.737802176860376
 30
0.0
 10
17.81190117072488
 20
9.861945704160217
 30
0.0
 10
17.62735720034812
 20
10.03583360581084
 30
0.0
 10
17.43073758525016
 20
10.19621433798651
 30
0.0
 10
17.29223936223613
 20
10.29354155273694
 30
0.0
 10
17.22135914841591
 20
10.3396197827462
 30
0.0
  0
SPLINE
  5
13E
330
1F
100
AcDbEntity
  8
0
  6
Continuous
 62
     7
370
    25
100
AcDbSpline
210
0.0
220
0.0
230
1.0
 70
     8
 71
     3
 72
    11
 73
     7
 74
     0
 42
0.00000001
 43
0.00000001
 40
0.000551149999272
 40
0.000551149999272
 40
0.000551149999272
 40
0.000551149999272
 40
0.2503465919089072
 40
0.5001420338185423
 40
0.7499374757281774
 40
0.9997329176378125
 40
0.9997329176378125
 40
0.9997329176378125
 40
0.9997329176378125
 10
17.22135914841591
 20
10.3396197827462
 30
0.0
 10
17.22010365653076
 20
10.34043592214515
 30
0.0
 10
17.21757560889087
 20
10.34207779655705
 30
0.0
 10
17.2138794719991
 20
10.34447310957074
 30
0.0
 10
17.21022979981762
 20
10.3468323894473
 30
0.0
 10
17.20786027324222
 20
10.34835980091613
 30
0.0
 10
17.20666675113001
 20
10.3491279287988
 30
0.0
  0
SPLINE
  5
13F
330
1F
100
AcDbEntity
  8
0
  6
Continuous
 62
     7
370
    25
100
AcDbSpline
210
0.0
220
0.0
230
1.0
 70
     8
 71
     3
 72
    11
 73
     7
 74
     0
 42
0.00000001
 43
0.00000001
 40
0.0000195162648859
 40
0.0000195162648859
 40
0.0000195162648859
 40
0.0000195162648859
 40
0.250011368070433
 40
0.50000321987598
 40
0.7499950716815269
 40
0.999986923487074
 40
0.999986923487074
 40
0.999986923487074
 40
0.999986923487074
 10
17.20666675113001
 20
10.3491279287988
 30
0.0
 10
17.15574483306172
 20
10.38189718460968
 30
0.0
 10
17.05240993447335
 20
10.44511484118777
 30
0.0
 10
16.89316301813243
 20
10.53284629571673
 30
0.0
 10
16.73007606599536
 20
10.6132437394735
 30
0.0
 10
16.61904335191385
 20
10.66181296883639
 30
0.0
 10
16.56300337664833
 20
10.68480997630483
 30
0.0
  0
SPLINE
  5
140
330
1F
100
AcDbEntity
  8
0
  6
Continuous
 62
     7
370
    25
100
AcDbSpline
210
0.0
220
0.0
230
1.0
 70
     8
 71
     3
 72
    10
 73
     6
 74
     0
 42
0.00000001
 43
0.00000001
 40
0.0001021735219067
 40
0.0001021735219067
 40
0.0001021735219067
 40
0.0001021735219067
 40
0.2500743583980991
 40
0.5000465432742914
 40
0.5965837382902449
 40
0.5965837382902449
 40
0.5965837382902449
 40
0.5965837382902449
 10
16.56300337664833
 20
10.68480997630483
 30
0.0
 10
16.44257267453545
 20
10.73422188096045
 30
0.0
 10
16.19683514110062
 20
10.82126090914344
 30
0.0
 10
15.89439023521161
 20
10.89619799594077
 30
0.0
 10
15.71622124108841
 20
10.92778928750694
 30
0.0
 10
15.66642459593094
 20
10.93565883302876
 30
0.0
  0
ARC
  5
141
330
1F
100
AcDbEntity
  8
0
  6
Continuous
 62
     7
370
    25
100
AcDbCircle
 10
15.6352053072
 20
10.7381104693
 30
0.0
 40
0.2000000000000021
100
AcDbArc
 50
81.0196080931
 51
135.0
  0
LINE
  5
142
330
1F
100
AcDbEntity
  8
0
  6
Continuous
 62
     7
370
    25
100
AcDbLine
 10
15.2575818202
 20
10.6433296947
 30
0.0
 11
15.493783951
 21
10.8795318255
 31
0.0
  0
ARC
  5
143
330
1F
100
AcDbEntity
  8
0
  6
Continuous
 62
     7
370
    25
100
AcDbCircle
 10
15.116160464
 20
10.784751051
 30
0.0
 40
0.1999999999999996
100
AcDbArc
 50
270.0
 51
315.0
  0
LINE
  5
144
330
1F
100
AcDbEntity
  8
0
  6
Continuous
 62
     7
370
    25
100
AcDbLine
 10
14.9568458889
 20
10.584751051
 30
0.0
 11
15.116160464
 21
10.584751051
 31
0.0
  0
ARC
  5
145
330
1F
100
AcDbEntity
  8
0
  6
Continuous
 62
     7
370
    25
100
AcDbCircle
 10
14.9568458889
 20
10.784751051
 30
0.0
 40
0.2000000000000021
100
AcDbArc
 50
225.0
 51
270.0
  0
LINE
  5
146
330
1F
100
AcDbEntity
  8
0
  6
Continuous
 62
     7
370
    25
100
AcDbLine
 10
14.5792223832
 20
10.8795318443
 30
0.0
 11
14.8154245327
 21
10.6433296947
 31
0.0
  0
ARC
  5
147
330
1F
100
AcDbEntity
  8
0
  6
Continuous
 62
     7
370
    25
100
AcDbCircle
 10
14.4378010269
 20
10.738110488
 30
0.0
 40
0.2000000000000015
100
AcDbArc
 50
45.0
 51
98.9803901148
  0
SPLINE
  5
148
330
1F
100
AcDbEntity
  8
0
  6
Continuous
 62
     7
370
    25
100
AcDbSpline
210
0.0
220
0.0
230
1.0
 70
     8
 71
     3
 72
    10
 73
     6
 74
     0
 42
0.00000001
 43
0.00000001
 40
0.4035092677281373
 40
0.4035092677281373
 40
0.4035092677281373
 40
0.4035092677281373
 40
0.5000465432640439
 40
0.750018728137046
 40
0.999990913010048
 40
0.999990913010048
 40
0.999990913010048
 40
0.999990913010048
 10
14.40658174442368
 20
10.93565885272281
 30
0.0
 10
14.35678505746657
 20
10.92778930219166
 30
0.0
 10
14.17861602136851
 20
10.89619800606035
 30
0.0
 10
13.87617107465485
 20
10.82126090914934
 30
0.0
 10
13.63043354122265
 20
10.7342218809689
 30
0.0
 10
13.51000283911097
 20
10.68480997631469
 30
0.0
  0
SPLINE
  5
149
330
1F
100
AcDbEntity
  8
0
  6
Continuous
 62
     7
370
    25
100
AcDbSpline
210
0.0
220
0.0
230
1.0
 70
     8
 71
     3
 72
    11
 73
     7
 74
     0
 42
0.00000001
 43
0.00000001
 40
0.0000195162291577
 40
0.0000195162291577
 40
0.0000195162291577
 40
0.0000195162291577
 40
0.2500113680290679
 40
0.5000032198289781
 40
0.7499950716288883
 40
0.9999869234287986
 40
0.9999869234287986
 40
0.9999869234287986
 40
0.9999869234287986
 10
13.51000283911097
 20
10.68480997631469
 30
0.0
 10
13.45396286384656
 20
10.66181296884714
 30
0.0
 10
13.34293014976723
 20
10.61324373948612
 30
0.0
 10
13.1798431976332
 20
10.53284629573249
 30
0.0
 10
13.02059628129508
 20
10.44511484120694
 30
0.0
 10
12.91726138270838
 20
10.38189718463132
 30
0.0
 10
12.86633946464088
 20
10.34912792882171
 30
0.0
  0
SPLINE
  5
14A
330
1F
100
AcDbEntity
  8
0
  6
Continuous
 62
     7
370
    25
100
AcDbSpline
210
0.0
220
0.0
230
1.0
 70
     8
 71
     3
 72
    11
 73
     7
 74
     0
 42
0.00000001
 43
0.00000001
 40
0.000551147494609
 40
0.000551147494609
 40
0.000551147494609
 40
0.000551147494609
 40
0.2503465872786743
 40
0.5001420270627396
 40
0.7499374668468048
 40
0.9997329066308701
 40
0.9997329066308701
 40
0.9997329066308701
 40
0.9997329066308701
 10
12.86633946464088
 20
10.34912792882171
 30
0.0
 10
12.86514594253919
 20
10.34835980094584
 30
0.0
 10
12.86277641598465
 20
10.34683238949052
 30
0.0
 10
12.85912674383551
 20
10.34447310963501
 30
0.0
 10
12.85543060697727
 20
10.34207779664321
 30
0.0
 10
12.85290255936054
 20
10.3404359222465
 30
0.0
 10
12.85164706748686
 20
10.33961978285507
 30
0.0
  0
SPLINE
  5
14B
330
1F
100
AcDbEntity
  8
0
  6
Continuous
 62
     7
370
    25
100
AcDbSpline
210
0.0
220
0.0
230
1.0
 70
     8
 71
     3
 72
    11
 73
     7
 74
     0
 42
0.00000001
 43
0.00000001
 40
0.0000046665977541
 40
0.0000046665977541
 40
0.0000046665977541
 40
0.0000046665977541
 40
0.2500032710241158
 40
0.5000018754504776
 40
0.7500004798768394
 40
0.9999990843032012
 40
0.9999990843032012
 40
0.9999990843032012
 40
0.9999990843032012
 10
12.85164706748686
 20
10.33961978285507
 30
0.0
 10
12.78076685363794
 20
10.29354155283289
 30
0.0
 10
12.64226863056866
 20
10.19621433805258
 30
0.0
 10
12.44564901539549
 20
10.03583360582108
 30
0.0
 10
12.2611050449524
 20
9.861945704104635
 30
0.0
 10
12.14692311652004
 20
9.737802176755093
 30
0.0
 10
12.09212348985683
 20
9.673744132825389
 30
0.0
  0
SPLINE
  5
14C
330
1F
100
AcDbEntity
  8
0
  6
Continuous
 62
     7
370
    25
100
AcDbSpline
210
0.0
220
0.0
230
1.0
 70
     8
 71
     3
 72
    11
 73
     7
 74
     0
 42
0.00000001
 43
0.00000001
 40
0.0000169592613667
 40
0.0000169592613667
 40
0.0000169592613667
 40
0.0000169592613667
 40
0.250012719446025
 40
0.5000084796306834
 40
0.7500042398153417
 40
1.0
 40
1.0
 40
1.0
 40
1.0
 10
12.09212348985683
 20
9.673744132825389
 30
0.0
 10
12.08917209222585
 20
9.67029406610029
 30
0.0
 10
12.08327319616755
 20
9.663373880216929
 30
0.0
 10
12.07451168357034
 20
9.653019790489802
 30
0.0
 10
12.06581321586861
 20
9.64266237723704
 30
0.0
 10
12.06007309827048
 20
9.635774351557373
 30
0.0
 10
12.05720574303289
 20
9.632319856499176
 30
0.0
  0
SPLINE
  5
14D
330
1F
100
AcDbEntity
  8
0
  6
Continuous
 62
     7
370
    25
100
AcDbSpline
210
0.0
220
0.0
230
1.0
 70
     8
 71
     3
 72
    11
 73
     7
 74
     0
 42
0.00000001
 43
0.00000001
 40
0.0
 40
0.0
 40
0.0
 40
0.0
 40
0.2499975913650399
 40
0.4999951827300799
 40
0.7499927740951198
 40
0.9999903654601597
 40
0.9999903654601597
 40
0.9999903654601597
 40
0.9999903654601597
 10
12.05720574303289
 20
9.632319856499176
 30
0.0
 10
12.05147732115061
 20
9.62541843959177
 30
0.0
 10
12.04007971923827
 20
9.611540998818665
 30
0.0
 10
12.02327544624783
 20
9.59063780266605
 30
0.0
 10
12.00672802509951
 20
9.569603004617298
 30
0.0
 10
11.99589116904319
 20
9.555521426006921
 30
0.0
 10
11.99050517050157
 20
9.548444484669956
 30
0.0
  0
SPLINE
  5
14E
330
1F
100
AcDbEntity
  8
0
  6
Continuous
 62
     7
370
    25
100
AcDbSpline
210
0.0
220
0.0
230
1.0
 70
     8
 71
     3
 72
    11
 73
     7
 74
     0
 42
0.00000001
 43
0.00000001
 40
0.000001433135334
 40
0.000001433135334
 40
0.000001433135334
 40
0.000001433135334
 40
0.2500007784922505
 40
0.500000123849167
 40
0.7499994692060836
 40
0.9999988145630002
 40
0.9999988145630002
 40
0.9999988145630002
 40
0.9999988145630002
 10
11.99050517050157
 20
9.548444484669956
 30
0.0
 10
11.95434536515042
 20
9.500931775153836
 30
0.0
 10
11.88453156307481
 20
9.403954495204754
 30
0.0
 10
11.78770102186922
 20
9.253228190965176
 30
0.0
 10
11.69899362627334
 20
9.097660018928748
 30
0.0
 10
11.64546897608278
 20
8.991087399974948
 30
0.0
 10
11.62013245470057
 20
8.937125182901127
 30
0.0
  0
SPLINE
  5
14F
330
1F
100
AcDbEntity
  8
0
  6
Continuous
 62
     7
370
    25
100
AcDbSpline
210
0.0
220
0.0
230
1.0
 70
     8
 71
     3
 72
    11
 73
     7
 74
     0
 42
0.00000001
 43
0.00000001
 40
0.0000015794851912
 40
0.0000015794851912
 40
0.0000015794851912
 40
0.0000015794851912
 40
0.2490332281301181
 40
0.498064876775045
 40
0.7470965254199718
 40
0.9961281740648987
 40
0.9961281740648987
 40
0.9961281740648987
 40
0.9961281740648987
 10
11.62013245470057
 20
8.937125182901127
 30
0.0
 10
11.60120204152843
 20
8.896806412803015
 30
0.0
 10
11.56487837292515
 20
8.815425373384864
 30
0.0
 10
11.51513397361692
 20
8.69142093605465
 30
0.0
 10
11.47019791761164
 20
8.56564882680016
 30
0.0
 10
11.44351079744811
 20
8.480794861130232
 30
0.0
 10
11.43098851615749
 20
8.438119764639314
 30
0.0
  0
ARC
  5
150
330
1F
100
AcDbEntity
  8
0
  6
Continuous
 62
     7
370
    25
100
AcDbCircle
 10
14.757531142
 20
7.4620024056
 30
0.0
 40
3.466798370253609
100
AcDbArc
 50
163.6465709095
 51
166.3965003069
  0
SPLINE
  5
151
330
1F
100
AcDbEntity
  8
0
  6
Continuous
 62
     7
370
    25
100
AcDbSpline
210
0.0
220
0.0
230
1.0
 70
     8
 71
     3
 72
    11
 73
     7
 74
     0
 42
0.00000001
 43
0.00000001
 40
0.0000028020358348
 40
0.0000028020358348
 40
0.0000028020358348
 40
0.0000028020358348
 40
0.2500021015268761
 40
0.5000014010179173
 40
0.7500007005089586
 40
1.0
 40
1.0
 40
1.0
 40
1.0
 10
11.38798812826426
 20
8.277398517173228
 30
0.0
 10
11.38030605383738
 20
8.245652332324804
 30
0.0
 10
11.36696297665877
 20
8.181684093770144
 30
0.0
 10
11.3530035461577
 20
8.084491212313207
 30
0.0
 10
11.34515553585398
 20
7.98657292597661
 30
0.0
 10
11.34400928844629
 20
7.92112962928141
 30
0.0
 10
11.34445871710176
 20
7.8884256448147
 30
0.0
  0
SPLINE
  5
152
330
1F
100
AcDbEntity
  8
0
  6
Continuous
 62
     7
370
    25
100
AcDbSpline
210
0.0
220
0.0
230
1.0
 70
     8
 71
     3
 72
    11
 73
     7
 74
     0
 42
0.00000001
 43
0.00000001
 40
0.000001157018094
 40
0.000001157018094
 40
0.000001157018094
 40
0.000001157018094
 40
0.2492308088982011
 40
0.4984604607783083
 40
0.7476901126584155
 40
0.9969197645385226
 40
0.9969197645385226
 40
0.9969197645385226
 40
0.9969197645385226
 10
11.34445871710176
 20
7.8884256448147
 30
0.0
 10
11.34496362331443
 20
7.851687456625819
 30
0.0
 10
11.34611129614106
 20
7.778229240695437
 30
0.0
 10
11.3482498343535
 20
7.667951224193708
 30
0.0
 10
11.35080589534984
 20
7.557646018589646
 30
0.0
 10
11.35278944189582
 20
7.484085317331683
 30
0.0
 10
11.35385103379995
 20
7.447310878429469
 30
0.0
  0
ARC
  5
153
330
1F
100
AcDbEntity
  8
0
  6
Continuous
 62
     7
370
    25
100
AcDbCircle
 10
31.9138902182
 20
8.0408410901
 30
0.0
 40
20.56860445861774
100
AcDbArc
 50
181.6535636834
 51
181.8972657369
  0
ARC
  5
154
330
1F
100
AcDbEntity
  8
0
  6
Continuous
 62
     7
370
    25
100
AcDbCircle
 10
31.8368778682
 20
8.0376874509
 30
0.0
 40
20.49152992682272
100
AcDbArc
 50
181.8955818718
 51
181.9651343982
  0
ARC
  5
155
330
1F
100
AcDbEntity
  8
0
  6
Continuous
 62
     7
370
    25
100
AcDbCircle
 10
11.5462115875
 20
7.4009597274
 30
0.0
 40
0.2000000000000035
100
AcDbArc
 50
199.2549147987
 51
225.0000000001
  0
LINE
  5
156
330
1F
100
AcDbEntity
  8
0
  6
Continuous
 62
     7
370
    25
100
AcDbLine
 10
11.4618230594
 20
7.202505543
 30
0.0
 11
11.4047902313
 21
7.2595383711
 31
0.0
  0
ARC
  5
157
330
1F
100
AcDbEntity
  8
0
  6
Continuous
 62
     7
370
    25
100
AcDbCircle
 10
11.3204017031
 20
7.0610841868
 30
0.0
 40
0.2000000000000002
100
AcDbArc
 50
0.0
 51
45.0000000001
  0
LINE
  5
158
330
1F
100
AcDbEntity
  8
0
  6
Continuous
 62
     7
370
    25
100
AcDbLine
 10
11.5204017031
 20
6.9017696117
 30
0.0
 11
11.5204017031
 21
7.0610841868
 31
0.0
  0
ARC
  5
159
330
1F
100
AcDbEntity
  8
0
  6
Continuous
 62
     7
370
    25
100
AcDbCircle
 10
11.3204017031
 20
6.9017696117
 30
0.0
 40
0.1999999999999993
100
AcDbArc
 50
315.0
 51
0.0
  0
LINE
  5
15A
330
1F
100
AcDbEntity
  8
0
  6
Continuous
 62
     7
370
    25
100
AcDbLine
 10
11.4618230594
 20
6.7603482555
 30
0.0
 11
11.4389036249
 21
6.7374288209
 31
0.0
  0
ARC
  5
15B
330
1F
100
AcDbEntity
  8
0
  6
Continuous
 62
     7
370
    25
100
AcDbCircle
 10
11.5803249811
 20
6.5960074647
 30
0.0
 40
0.2000000000000003
100
AcDbArc
 50
135.0
 51
181.6866731159
  0
SPLINE
  5
15C
330
1F
100
AcDbEntity
  8
0
  6
Continuous
 62
     7
370
    25
100
AcDbSpline
210
0.0
220
0.0
230
1.0
 70
     8
 71
     3
 72
     9
 73
     5
 74
     0
 42
0.00000001
 43
0.00000001
 40
0.6688151873846403
 40
0.6688151873846403
 40
0.6688151873846403
 40
0.6688151873846403
 40
0.7500066091303186
 40
1.000009708730405
 40
1.000009708730405
 40
1.000009708730405
 40
1.000009708730405
 10
11.38041163441097
 20
6.590120715177779
 30
0.0
 10
11.38088014457316
 20
6.57421016318512
 30
0.0
 10
11.38278699061088
 20
6.509302563526573
 30
0.0
 10
11.38467383735625
 20
6.444367666204781
 30
0.0
 10
11.38608147171369
 20
6.395358511195655
 30
0.0
  0
SPLINE
  5
15D
330
1F
100
AcDbEntity
  8
0
  6
Continuous
 62
     7
370
    25
100
AcDbSpline
210
0.0
220
0.0
230
1.0
 70
     8
 71
     3
 72
     9
 73
     5
 74
     0
 42
0.00000001
 43
0.00000001
 40
-0.0000035294450527
 40
-0.0000035294450527
 40
-0.0000035294450527
 40
-0.0000035294450527
 40
0.2499975841254166
 40
0.4058885772531357
 40
0.4058885772531357
 40
0.4058885772531357
 40
0.4058885772531357
 10
11.38608147171369
 20
6.395358511195655
 30
0.0
 10
11.38994960651201
 20
6.260575810057277
 30
0.0
 10
11.39609922488862
 20
6.041808619413636
 30
0.0
 10
11.40196356910341
 20
5.822823976952868
 30
0.0
 10
11.40416607543535
 20
5.738692806011579
 30
0.0
  0
ARC
  5
15E
330
1F
100
AcDbEntity
  8
0
  6
Continuous
 62
     7
370
    25
100
AcDbCircle
 10
11.6040975744
 20
5.7439268992
 30
0.0
 40
0.2000000000000002
100
AcDbArc
 50
181.4996284728
 51
270.0
  0
LINE
  5
15F
330
1F
100
AcDbEntity
  8
0
  6
Continuous
 62
     7
370
    25
100
AcDbLine
 10
13.7768837687
 20
5.5439268992
 30
0.0
 11
11.6040975744
 21
5.5439268992
 31
0.0
  0
ARC
  5
160
330
1F
100
AcDbEntity
  8
0
  6
Continuous
 62
     7
370
    25
100
AcDbCircle
 10
13.7768837687
 20
5.3439268992
 30
0.0
 40
0.1999999999999996
100
AcDbArc
 50
45.0
 51
90.0
  0
LINE
  5
161
330
1F
100
AcDbEntity
  8
0
  6
Continuous
 62
     7
370
    25
100
AcDbLine
 10
14.6057882304
 20
4.79786515
 30
0.0
 11
13.9183051249
 21
5.4853482555
 31
0.0
  0
ARC
  5
162
330
1F
100
AcDbEntity
  8
0
  6
Continuous
 62
     7
370
    25
100
AcDbCircle
 10
14.3365031764
 20
3.8297840564
 30
0.0
 40
0.2000000000000011
100
AcDbArc
 50
0.0
 51
45.5729959992
  0
ARC
  5
163
330
1F
100
AcDbEntity
  8
0
  6
Continuous
 62
     7
370
    25
100
AcDbCircle
 10
15.0365031764
 20
4.5439268992
 30
0.0
 40
0.8000000000000004
100
AcDbArc
 50
173.6821874535
 51
225.5729959992
  0
ARC
  5
164
330
1F
100
AcDbEntity
  8
0
  6
Continuous
 62
     7
370
    25
100
AcDbCircle
 10
14.0425763841
 20
4.6539702151
 30
0.0
 40
0.2000000000000028
100
AcDbArc
 50
353.6821874535
 51
45.0
  0
LINE
  5
165
330
1F
100
AcDbEntity
  8
0
  6
Continuous
 62
     7
370
    25
100
AcDbLine
 10
13.7940410562
 20
5.1853482555
 30
0.0
 11
14.1839977403
 21
4.7953915714
 31
0.0
  0
ARC
  5
166
330
1F
100
AcDbEntity
  8
0
  6
Continuous
 62
     7
370
    25
100
AcDbCircle
 10
13.6526197
 20
5.0439268992
 30
0.0
 40
0.2000000000000008
100
AcDbArc
 50
45.0
 51
90.0
  0
LINE
  5
167
330
1F
100
AcDbEntity
  8
0
  6
Continuous
 62
     7
370
    25
100
AcDbLine
 10
11.621100297
 20
5.2439268992
 30
0.0
 11
13.6526197
 21
5.2439268992
 31
0.0
  0
ARC
  5
168
330
1F
100
AcDbEntity
  8
0
  6
Continuous
 62
     7
370
    25
100
AcDbCircle
 10
11.621100297
 20
5.0439268992
 30
0.0
 40
0.1999999999999997
100
AcDbArc
 50
90.0
 51
181.2702947859
  0
SPLINE
  5
169
330
1F
100
AcDbEntity
  8
0
  6
Continuous
 62
     7
370
    25
100
AcDbSpline
210
0.0
220
0.0
230
1.0
 70
     8
 71
     3
 72
     8
 73
     4
 74
     0
 42
0.00000001
 43
0.00000001
 40
0.8373142320705745
 40
0.8373142320705745
 40
0.8373142320705745
 40
0.8373142320705745
 40
1.000000924836824
 40
1.000000924836824
 40
1.000000924836824
 40
1.000000924836824
 10
11.42114944955489
 20
5.039493097202587
 30
0.0
 10
11.42310080135096
 20
4.951493127477198
 30
0.0
 10
11.42497510592965
 20
4.863464832663615
 30
0.0
 10
11.42676264254414
 20
4.775462758069031
 30
0.0
  0
SPLINE
  5
16A
330
1F
100
AcDbEntity
  8
0
  6
Continuous
 62
     7
370
    25
100
AcDbSpline
210
0.0
220
0.0
230
1.0
 70
     8
 71
     3
 72
    11
 73
     7
 74
     0
 42
0.00000001
 43
0.00000001
 40
-0.0000114496351501
 40
-0.0000114496351501
 40
-0.0000114496351501
 40
-0.0000114496351501
 40
0.2499940282152565
 40
0.4999995060656631
 40
0.7500049839160696
 40
1.000010461766476
 40
1.000010461766476
 40
1.000010461766476
 40
1.000010461766476
 10
11.42676264254414
 20
4.775462758069031
 30
0.0
 10
11.42698780794295
 20
4.764374389286632
 30
0.0
 10
11.42742349362543
 20
4.74214778128929
 30
0.0
 10
11.42803808806545
 20
4.709104557230986
 30
0.0
 10
11.4286304879301
 20
4.676209592759748
 30
0.0
 10
11.42901782850678
 20
4.654477602229202
 30
0.0
 10
11.42921315262062
 20
4.64358687136525
 30
0.0
  0
ARC
  5
16B
330
1F
100
AcDbEntity
  8
0
  6
Continuous
 62
     7
370
    25
100
AcDbCircle
 10
19.1464354795
 20
4.7819515261
 30
0.0
 40
7.718462620229217
100
AcDbArc
 50
181.0271650984
 51
182.4418156971
  0
SPLINE
  5
16C
330
1F
100
AcDbEntity
  8
0
  6
Continuous
 62
     7
370
    25
100
AcDbSpline
210
0.0
220
0.0
230
1.0
 70
     8
 71
     3
 72
    11
 73
     7
 74
     0
 42
0.00000001
 43
0.00000001
 40
0.0000065114813711
 40
0.0000065114813711
 40
0.0000065114813711
 40
0.0000065114813711
 40
0.2500048836110284
 40
0.5000032557406856
 40
0.7500016278703427
 40
1.0
 40
1.0
 40
1.0
 40
1.0
 10
11.43498120587423
 20
4.453107785181503
 30
0.0
 10
11.43593561393033
 20
4.430731650024579
 30
0.0
 10
11.43917535957018
 20
4.385974441439816
 30
0.0
 10
11.44798633435208
 20
4.319554876641793
 30
0.0
 10
11.46073421101641
 20
4.253968661693105
 30
0.0
 10
11.47180618188945
 20
4.211078144568448
 30
0.0
 10
11.47800212397778
 20
4.189798265954224
 30
0.0
  0
SPLINE
  5
16D
330
1F
100
AcDbEntity
  8
0
  6
Continuous
 62
     7
370
    25
100
AcDbSpline
210
0.0
220
0.0
230
1.0
 70
     8
 71
     3
 72
    11
 73
     7
 74
     0
 42
0.00000001
 43
0.00000001
 40
0.0
 40
0.0
 40
0.0
 40
0.0
 40
0.2500008970546789
 40
0.5000017941093577
 40
0.7500026911640366
 40
1.000003588218715
 40
1.000003588218715
 40
1.000003588218715
 40
1.000003588218715
 10
11.47800212397778
 20
4.189798265954224
 30
0.0
 10
11.48059196441857
 20
4.180903504715797
 30
0.0
 10
11.48597841407771
 20
4.163167974335116
 30
0.0
 10
11.49466050237337
 20
4.136788896666403
 30
0.0
 10
11.50394429018699
 20
4.110638250867508
 30
0.0
 10
11.51052468842755
 20
4.093385119104069
 30
0.0
 10
11.51391652824385
 20
4.084794400112752
 30
0.0
  0
SPLINE
  5
16E
330
1F
100
AcDbEntity
  8
0
  6
Continuous
 62
     7
370
    25
100
AcDbSpline
210
0.0
220
0.0
230
1.0
 70
     8
 71
     3
 72
    11
 73
     7
 74
     0
 42
0.00000001
 43
0.00000001
 40
-0.0000012337982809
 40
-0.0000012337982809
 40
-0.0000012337982809
 40
-0.0000012337982809
 40
0.2499996388506093
 40
0.5000005114994994
 40
0.7500013841483896
 40
1.00000225679728
 40
1.00000225679728
 40
1.00000225679728
 40
1.00000225679728
 10
11.51391652824385
 20
4.084794400112752
 30
0.0
 10
11.52407366293374
 20
4.059068637551174
 30
0.0
 10
11.5459978138319
 20
4.008203786002758
 30
0.0
 10
11.58344470533637
 20
3.934256379219686
 30
0.0
 10
11.62528722095413
 20
3.862988471366497
 30
0.0
 10
11.65581487011537
 20
3.817722387122687
 30
0.0
 10
11.67181172739186
 20
3.795549676266452
 30
0.0
  0
SPLINE
  5
16F
330
1F
100
AcDbEntity
  8
0
  6
Continuous
 62
     7
370
    25
100
AcDbSpline
210
0.0
220
0.0
230
1.0
 70
     8
 71
     3
 72
    11
 73
     7
 74
     0
 42
0.00000001
 43
0.00000001
 40
-0.0000008602849423
 40
-0.0000008602849423
 40
-0.0000008602849423
 40
-0.0000008602849423
 40
0.25001070821699
 40
0.5000222767189222
 40
0.7500338452208545
 40
1.000045413722787
 40
1.000045413722787
 40
1.000045413722787
 40
1.000045413722787
 10
11.67181172739186
 20
3.795549676266452
 30
0.0
 10
11.7139605751378
 20
3.737128058313891
 30
0.0
 10
11.80811375592394
 20
3.62671796253717
 30
0.0
 10
11.97275960695193
 20
3.4872957906243
 30
0.0
 10
12.15656350447638
 20
3.377048373557893
 30
0.0
 10
12.2874628536881
 20
3.325108714405175
 30
0.0
 10
12.35472299522714
 20
3.304595959234747
 30
0.0
  0
SPLINE
  5
170
330
1F
100
AcDbEntity
  8
0
  6
Continuous
 62
     7
370
    25
100
AcDbSpline
210
0.0
220
0.0
230
1.0
 70
     8
 71
     3
 72
    11
 73
     7
 74
     0
 42
0.00000001
 43
0.00000001
 40
-0.0000895647474513
 40
-0.0000895647474513
 40
-0.0000895647474513
 40
-0.0000895647474513
 40
0.2499338563898967
 40
0.4999572775272447
 40
0.7499806986645927
 40
1.000004119801941
 40
1.000004119801941
 40
1.000004119801941
 40
1.000004119801941
 10
12.35472299522714
 20
3.304595959234747
 30
0.0
 10
12.3919610877294
 20
3.293230586698046
 30
0.0
 10
12.46696478667108
 20
3.272909679089343
 30
0.0
 10
12.58244060891758
 20
3.24927270103581
 30
0.0
 10
12.69957073421121
 20
3.232855434995593
 30
0.0
 10
12.77838836712598
 20
3.226804411753925
 30
0.0
 10
12.81781901368498
 20
3.225027204207957
 30
0.0
  0
SPLINE
  5
171
330
1F
100
AcDbEntity
  8
0
  6
Continuous
 62
     7
370
    25
100
AcDbSpline
210
0.0
220
0.0
230
1.0
 70
     8
 71
     3
 72
    11
 73
     7
 74
     0
 42
0.00000001
 43
0.00000001
 40
-0.0000177453782696
 40
-0.0000177453782696
 40
-0.0000177453782696
 40
-0.0000177453782696
 40
0.2499875673377331
 40
0.4999928800537358
 40
0.7499981927697386
 40
1.000003505485741
 40
1.000003505485741
 40
1.000003505485741
 40
1.000003505485741
 10
12.81781901368498
 20
3.225027204207957
 30
0.0
 10
12.82696183562461
 20
3.224615030792952
 30
0.0
 10
12.84524518583659
 20
3.223926078855287
 30
0.0
 10
12.87273426195547
 20
3.223295476906898
 30
0.0
 10
12.90025274794441
 20
3.223068499039094
 30
0.0
 10
12.9186244123031
 20
3.223186119591789
 30
0.0
 10
12.92780598120848
 20
3.223312002848196
 30
0.0
  0
SPLINE
  5
172
330
1F
100
AcDbEntity
  8
0
  6
Continuous
 62
     7
370
    25
100
AcDbSpline
210
0.0
220
0.0
230
1.0
 70
     8
 71
     3
 72
    11
 73
     7
 74
     0
 42
0.00000001
 43
0.00000001
 40
-0.000003033840836
 40
-0.000003033840836
 40
-0.000003033840836
 40
-0.000003033840836
 40
0.2495305489531895
 40
0.4990641317472149
 40
0.7485977145412404
 40
0.9981312973352658
 40
0.9981312973352658
 40
0.9981312973352658
 40
0.9981312973352658
 10
12.92780598120848
 20
3.223312002848196
 30
0.0
 10
12.9422153764441
 20
3.223509533660692
 30
0.0
 10
12.9710327693914
 20
3.223818175965632
 30
0.0
 10
13.01427676834681
 20
3.224019206546747
 30
0.0
 10
13.05753452060057
 20
3.223955470758221
 30
0.0
 10
13.08639725633309
 20
3.223734498245149
 30
0.0
 10
13.10082497460446
 20
3.223579044144479
 30
0.0
  0
ARC
  5
173
330
1F
100
AcDbEntity
  8
0
  6
Continuous
 62
     7
370
    25
100
AcDbCircle
 10
12.9408537444
 20
-11.6233746961
 30
0.0
 40
14.84781553492781
100
AcDbArc
 50
89.1196379889
 51
89.3826799875
  0
SPLINE
  5
174
330
1F
100
AcDbEntity
  8
0
  6
Continuous
 62
     7
370
    25
100
AcDbSpline
210
0.0
220
0.0
230
1.0
 70
     8
 71
     3
 72
    11
 73
     7
 74
     0
 42
0.00000001
 43
0.00000001
 40
0.0019731321838372
 40
0.0019731321838372
 40
0.0019731321838372
 40
0.0019731321838372
 40
0.251478063436906
 40
0.5009829946899749
 40
0.7504879259430437
 40
0.9999928571961124
 40
0.9999928571961124
 40
0.9999928571961124
 40
0.9999928571961124
 10
13.16898465597383
 20
3.222688164019932
 30
0.0
 10
13.18467804207949
 20
3.222447012779215
 30
0.0
 10
13.21596835875069
 20
3.221971920075811
 30
0.0
 10
13.26348280828889
 20
3.22123175332478
 30
0.0
 10
13.31128602083923
 20
3.220432224602636
 30
0.0
 10
13.34354023227241
 20
3.219831006376861
 30
0.0
 10
13.3596185993538
 20
3.219509846068463
 30
0.0
  0
SPLINE
  5
175
330
1F
100
AcDbEntity
  8
0
  6
Continuous
 62
     7
370
    25
100
AcDbSpline
210
0.0
220
0.0
230
1.0
 70
     8
 71
     3
 72
    10
 73
     6
 74
     0
 42
0.00000001
 43
0.00000001
 40
0.000000818523975
 40
0.000000818523975
 40
0.000000818523975
 40
0.000000818523975
 40
0.2460971083639202
 40
0.4921933982038655
 40
0.5703163230670596
 40
0.5703163230670596
 40
0.5703163230670596
 40
0.5703163230670596
 10
13.3596185993538
 20
3.219509846068463
 30
0.0
 10
13.49874573441715
 20
3.216731582632819
 30
0.0
 10
13.77667646163206
 20
3.209918473772619
 30
0.0
 10
14.10002858834458
 20
3.199178954947015
 30
0.0
 10
14.28412827529295
 20
3.192056672041383
 30
0.0
 10
14.32851210944101
 20
3.190281883850819
 30
0.0
  0
ARC
  5
176
330
1F
100
AcDbEntity
  8
0
  6
Continuous
 62
     7
370
    25
100
AcDbCircle
 10
14.3365031764
 20
3.3901221772
 30
0.0
 40
0.1999999999999996
100
AcDbArc
 50
267.7101183859
 51
0.0
  0
LINE
  5
177
330
1F
100
AcDbEntity
  8
0
  6
Continuous
 62
     7
370
    25
100
AcDbLine
 10
14.5365031764
 20
3.3901221772
 30
0.0
 11
14.5365031764
 21
3.8297840564
 31
0.0
  0
SPLINE
  5
178
330
1F
100
AcDbEntity
  8
0
  6
Continuous
 62
     7
370
    25
100
AcDbSpline
210
0.0
220
0.0
230
1.0
 70
     8
 71
     3
 72
    11
 73
     7
 74
     0
 42
0.00000001
 43
0.00000001
 40
0.0019731321838373
 40
0.0019731321838373
 40
0.0019731321838373
 40
0.0019731321838373
 40
0.251478063357696
 40
0.5009829945315546
 40
0.7504879257054133
 40
0.999992856879272
 40
0.999992856879272
 40
0.999992856879272
 40
0.999992856879272
 10
16.71338765916994
 20
3.219509846069641
 30
0.0
 10
16.72946602624609
 20
3.219831006377882
 30
0.0
 10
16.76172023766873
 20
3.220432224603379
 30
0.0
 10
16.80952345020359
 20
3.221231753325211
 30
0.0
 10
16.8570378997265
 20
3.221971920075983
 30
0.0
 10
16.88832821638776
 20
3.222447012779241
 30
0.0
 10
16.90402160248841
 20
3.222688164019882
 30
0.0
  0
ARC
  5
179
330
1F
100
AcDbEntity
  8
0
  6
Continuous
 62
     7
370
    25
100
AcDbCircle
 10
17.1321525141
 20
-11.6233746961
 30
0.0
 40
14.84781553492781
100
AcDbArc
 50
90.6173200125
 51
90.8803620111
  0
SPLINE
  5
17A
330
1F
100
AcDbEntity
  8
0
  6
Continuous
 62
     7
370
    25
100
AcDbSpline
210
0.0
220
0.0
230
1.0
 70
     8
 71
     3
 72
    11
 73
     7
 74
     0
 42
0.00000001
 43
0.00000001
 40
-0.0000030338408459
 40
-0.0000030338408459
 40
-0.0000030338408459
 40
-0.0000030338408459
 40
0.2495305489531821
 40
0.49906413174721
 40
0.7485977145412379
 40
0.9981312973352658
 40
0.9981312973352658
 40
0.9981312973352658
 40
0.9981312973352658
 10
16.97218128385779
 20
3.223579044144428
 30
0.0
 10
16.98660900212915
 20
3.223734498245099
 30
0.0
 10
17.01547173786168
 20
3.22395547075817
 30
0.0
 10
17.05872949011541
 20
3.224019206546699
 30
0.0
 10
17.10197348907088
 20
3.223818175965582
 30
0.0
 10
17.13079088201815
 20
3.223509533660642
 30
0.0
 10
17.14520027725377
 20
3.223312002848146
 30
0.0
  0
SPLINE
  5
17B
330
1F
100
AcDbEntity
  8
0
  6
Continuous
 62
     7
370
    25
100
AcDbSpline
210
0.0
220
0.0
230
1.0
 70
     8
 71
     3
 72
    11
 73
     7
 74
     0
 42
0.00000001
 43
0.00000001
 40
-0.0000177453782696
 40
-0.0000177453782696
 40
-0.0000177453782696
 40
-0.0000177453782696
 40
0.2499875673377303
 40
0.4999928800537302
 40
0.7499981927697301
 40
1.00000350548573
 40
1.00000350548573
 40
1.00000350548573
 40
1.00000350548573
 10
17.14520027725377
 20
3.223312002848146
 30
0.0
 10
17.15438184615915
 20
3.223186119591739
 30
0.0
 10
17.17275351051784
 20
3.223068499039043
 30
0.0
 10
17.20027199650678
 20
3.223295476906848
 30
0.0
 10
17.22776107262566
 20
3.223926078855234
 30
0.0
 10
17.24604442283763
 20
3.224615030792902
 30
0.0
 10
17.25518724477727
 20
3.225027204207906
 30
0.0
  0
SPLINE
  5
17C
330
1F
100
AcDbEntity
  8
0
  6
Continuous
 62
     7
370
    25
100
AcDbSpline
210
0.0
220
0.0
230
1.0
 70
     8
 71
     3
 72
    11
 73
     7
 74
     0
 42
0.00000001
 43
0.00000001
 40
-0.0000895647372813
 40
-0.0000895647372813
 40
-0.0000895647372813
 40
-0.0000895647372813
 40
0.2499338563975242
 40
0.4999572775323297
 40
0.7499806986671352
 40
1.000004119801941
 40
1.000004119801941
 40
1.000004119801941
 40
1.000004119801941
 10
17.25518724477727
 20
3.225027204207906
 30
0.0
 10
17.29461789133586
 20
3.226804411753857
 30
0.0
 10
17.37343552424989
 20
3.232855434995449
 30
0.0
 10
17.49056564954218
 20
3.249272701035329
 30
0.0
 10
17.60604147178805
 20
3.27290967908865
 30
0.0
 10
17.68104517072787
 20
3.293230586696478
 30
0.0
 10
17.71828326322935
 20
3.304595959232937
 30
0.0
  0
SPLINE
  5
17D
330
1F
100
AcDbEntity
  8
0
  6
Continuous
 62
     7
370
    25
100
AcDbSpline
210
0.0
220
0.0
230
1.0
 70
     8
 71
     3
 72
    11
 73
     7
 74
     0
 42
0.00000001
 43
0.00000001
 40
-0.0000008597511105
 40
-0.0000008597511105
 40
-0.0000008597511105
 40
-0.0000008597511105
 40
0.2500107086186525
 40
0.5000222769884155
 40
0.7500338453581785
 40
1.000045413727942
 40
1.000045413727942
 40
1.000045413727942
 40
1.000045413727942
 10
17.71828326322935
 20
3.304595959232937
 30
0.0
 10
17.78554340473324
 20
3.325108714392645
 30
0.0
 10
17.91644275388078
 20
3.377048373515541
 30
0.0
 10
18.10024665131223
 20
3.487295790480738
 30
0.0
 10
18.26489250230924
 20
3.62671796234602
 30
0.0
 10
18.35904568300861
 20
3.737128057876061
 30
0.0
 10
18.40119453069835
 20
3.795549675750734
 30
0.0
  0
SPLINE
  5
17E
330
1F
100
AcDbEntity
  8
0
  6
Continuous
 62
     7
370
    25
100
AcDbSpline
210
0.0
220
0.0
230
1.0
 70
     8
 71
     3
 72
    11
 73
     7
 74
     0
 42
0.00000001
 43
0.00000001
 40
-0.0000012337982851
 40
-0.0000012337982851
 40
-0.0000012337982851
 40
-0.0000012337982851
 40
0.2499996392009552
 40
0.5000005122001956
 40
0.750001385199436
 40
1.000002258198676
 40
1.000002258198676
 40
1.000002258198676
 40
1.000002258198676
 10
18.40119453069835
 20
3.795549675750734
 30
0.0
 10
18.41719138803134
 20
3.817722386685278
 30
0.0
 10
18.44771903736115
 20
3.862988471113713
 30
0.0
 10
18.48956155300709
 20
3.934256379003429
 30
0.0
 10
18.5270084445859
 20
4.008203785899459
 30
0.0
 10
18.54893259551428
 20
4.059068637515108
 30
0.0
 10
18.5590897302184
 20
4.084794400112704
 30
0.0
  0
SPLINE
  5
17F
330
1F
100
AcDbEntity
  8
0
  6
Continuous
 62
     7
370
    25
100
AcDbSpline
210
0.0
220
0.0
230
1.0
 70
     8
 71
     3
 72
    11
 73
     7
 74
     0
 42
0.00000001
 43
0.00000001
 40
0.0
 40
0.0
 40
0.0
 40
0.0
 40
0.2500008970546779
 40
0.5000017941093557
 40
0.7500026911640336
 40
1.000003588218711
 40
1.000003588218711
 40
1.000003588218711
 40
1.000003588218711
 10
18.5590897302184
 20
4.084794400112704
 30
0.0
 10
18.5624815700347
 20
4.093385119104019
 30
0.0
 10
18.56906196827526
 20
4.110638250867464
 30
0.0
 10
18.57834575608885
 20
4.136788896666329
 30
0.0
 10
18.58702784438456
 20
4.163167974335083
 30
0.0
 10
18.59241429404367
 20
4.180903504715747
 30
0.0
 10
18.59500413448446
 20
4.189798265954171
 30
0.0
  0
SPLINE
  5
180
330
1F
100
AcDbEntity
  8
0
  6
Continuous
 62
     7
370
    25
100
AcDbSpline
210
0.0
220
0.0
230
1.0
 70
     8
 71
     3
 72
    11
 73
     7
 74
     0
 42
0.00000001
 43
0.00000001
 40
0.0000065113560483
 40
0.0000065113560483
 40
0.0000065113560483
 40
0.0000065113560483
 40
0.2500048835170363
 40
0.5000032556780242
 40
0.750001627839012
 40
1.0
 40
1.0
 40
1.0
 40
1.0
 10
18.59500413448446
 20
4.189798265954171
 30
0.0
 10
18.60120007657357
 20
4.211078144571068
 30
0.0
 10
18.61227204744784
 20
4.253968661701153
 30
0.0
 10
18.62501992411304
 20
4.319554876658277
 30
0.0
 10
18.63383089889483
 20
4.385974441464862
 30
0.0
 10
18.63707064453392
 20
4.430731650055368
 30
0.0
 10
18.63802505258947
 20
4.453107785215144
 30
0.0
  0
ARC
  5
181
330
1F
100
AcDbEntity
  8
0
  6
Continuous
 62
     7
370
    25
100
AcDbCircle
 10
10.926570779
 20
4.7819515261
 30
0.0
 40
7.718462620229223
100
AcDbArc
 50
357.5581843032
 51
358.9728349016
  0
SPLINE
  5
182
330
1F
100
AcDbEntity
  8
0
  6
Continuous
 62
     7
370
    25
100
AcDbSpline
210
0.0
220
0.0
230
1.0
 70
     8
 71
     3
 72
    11
 73
     7
 74
     0
 42
0.00000001
 43
0.00000001
 40
-0.0000114496347158
 40
-0.0000114496347158
 40
-0.0000114496347158
 40
-0.0000114496347158
 40
0.2499940282134812
 40
0.499999506061678
 40
0.7500049839098749
 40
1.000010461758072
 40
1.000010461758072
 40
1.000010461758072
 40
1.000010461758072
 10
18.64379310584167
 20
4.643586871366227
 30
0.0
 10
18.6439884299555
 20
4.654477602230094
 30
0.0
 10
18.64437577053216
 20
4.676209592760478
 30
0.0
 10
18.64496817039682
 20
4.709104557231425
 30
0.0
 10
18.64558276483683
 20
4.742147781289501
 30
0.0
 10
18.64601845051931
 20
4.764374389286623
 30
0.0
 10
18.64624361591811
 20
4.775462758068919
 30
0.0
  0
SPLINE
  5
183
330
1F
100
AcDbEntity
  8
0
  6
Continuous
 62
     7
370
    25
100
AcDbSpline
210
0.0
220
0.0
230
1.0
 70
     8
 71
     3
 72
     8
 73
     4
 74
     0
 42
0.00000001
 43
0.00000001
 40
-0.0000035292316992
 40
-0.0000035292316992
 40
-0.0000035292316992
 40
-0.0000035292316992
 40
0.1626831635346132
 40
0.1626831635346132
 40
0.1626831635346132
 40
0.1626831635346132
 10
18.64624361591811
 20
4.775462758068919
 30
0.0
 10
18.6480311525326
 20
4.863464832663549
 30
0.0
 10
18.64990545711128
 20
4.951493127477177
 30
0.0
 10
18.65185680890735
 20
5.039493097202602
 30
0.0
  0
ARC
  5
184
330
1F
100
AcDbEntity
  8
0
  6
Continuous
 62
     7
370
    25
100
AcDbCircle
 10
18.4519059614
 20
5.0439268992
 30
0.0
 40
0.2000000000000028
100
AcDbArc
 50
358.7297052141
 51
90.0
  0
LINE
  5
185
330
1F
100
AcDbEntity
  8
0
  6
Continuous
 62
     7
370
    25
100
AcDbLine
 10
18.4519059614
 20
5.2439268992
 30
0.0
 11
16.4203866529
 21
5.2439268992
 31
0.0
  0
ARC
  5
186
330
1F
100
AcDbEntity
  8
0
  6
Continuous
 62
     7
370
    25
100
AcDbCircle
 10
16.4203866529
 20
5.0439268992
 30
0.0
 40
0.1999999999999996
100
AcDbArc
 50
90.0
 51
135.0
  0
LINE
  5
187
330
1F
100
AcDbEntity
  8
0
  6
Continuous
 62
     7
370
    25
100
AcDbLine
 10
16.2789652967
 20
5.1853482555
 30
0.0
 11
15.8890086126
 21
4.7953915714
 31
0.0
  0
ARC
  5
188
330
1F
100
AcDbEntity
  8
0
  6
Continuous
 62
     7
370
    25
100
AcDbCircle
 10
16.0304299688
 20
4.6539702151
 30
0.0
 40
0.1999999999999996
100
AcDbArc
 50
135.0
 51
186.3178125465
  0
ARC
  5
189
330
1F
100
AcDbEntity
  8
0
  6
Continuous
 62
     7
370
    25
100
AcDbCircle
 10
15.0365031764
 20
4.5439268992
 30
0.0
 40
0.8000000000000005
100
AcDbArc
 50
314.4270040008
 51
6.3178125465
  0
ARC
  5
18A
330
1F
100
AcDbEntity
  8
0
  6
Continuous
 62
     7
370
    25
100
AcDbCircle
 10
15.7365031764
 20
3.8297840564
 30
0.0
 40
0.2000000000000011
100
AcDbArc
 50
134.4270040008
 51
180.0
  0
LINE
  5
18B
330
1F
100
AcDbEntity
  8
0
  6
Continuous
 62
     7
370
    25
100
AcDbLine
 10
15.5365031764
 20
3.390122181
 30
0.0
 11
15.5365031764
 21
3.8297840564
 31
0.0
  0
ARC
  5
18C
330
1F
100
AcDbEntity
  8
0
  6
Continuous
 62
     7
370
    25
100
AcDbCircle
 10
15.7365031764
 20
3.390122181
 30
0.0
 40
0.2
100
AcDbArc
 50
180.0
 51
272.2898815091
  0
SPLINE
  5
18D
330
1F
100
AcDbEntity
  8
0
  6
Continuous
 62
     7
370
    25
100
AcDbSpline
210
0.0
220
0.0
230
1.0
 70
     8
 71
     3
 72
    10
 73
     6
 74
     0
 42
0.00000001
 43
0.00000001
 40
0.4140705284936807
 40
0.4140705284936807
 40
0.4140705284936807
 40
0.4140705284936807
 40
0.4921933981854361
 40
0.7382896880343209
 40
0.9843859778832058
 40
0.9843859778832058
 40
0.9843859778832058
 40
0.9843859778832058
 10
15.74449424308599
 20
3.190281887612162
 30
0.0
 10
15.78887804585611
 20
3.192056674466517
 30
0.0
 10
15.97297770143468
 20
3.199178955987198
 30
0.0
 10
16.29632979687667
 20
3.209918473773956
 30
0.0
 10
16.57426052410157
 20
3.216731582634085
 30
0.0
 10
16.71338765916994
 20
3.219509846069641
 30
0.0
  0
SPLINE
  5
18E
330
1F
100
AcDbEntity
  8
0
  6
Continuous
 62
     7
370
    25
100
AcDbSpline
210
0.0
220
0.0
230
1.0
 70
     8
 71
     3
 72
     8
 73
     4
 74
     0
 42
0.00000001
 43
0.00000001
 40
0.9002724097022211
 40
0.9002724097022211
 40
0.9002724097022211
 40
0.9002724097022211
 40
1.0
 40
1.0
 40
1.0
 40
1.0
 10
11.65355329851338
 20
10.35336517673434
 30
0.0
 10
11.71723622559831
 20
10.31337547528343
 30
0.0
 10
11.78081988119947
 20
10.27322177643561
 30
0.0
 10
11.84430398674103
 20
10.23290361998103
 30
0.0
  0
LINE
  5
18F
330
1F
100
AcDbEntity
  8
0
  6
Continuous
 62
     7
370
    25
100
AcDbLine
 10
11.8443039867
 20
10.23290362
 30
0.0
 11
11.8963582718
 21
10.1998444347
 31
0.0
  0
SPLINE
  5
190
330
1F
100
AcDbEntity
  8
0
  6
Continuous
 62
     7
370
    25
100
AcDbSpline
210
0.0
220
0.0
230
1.0
 70
     8
 71
     3
 72
     8
 73
     4
 74
     0
 42
0.00000001
 43
0.00000001
 40
0.0
 40
0.0
 40
0.0
 40
0.0
 40
0.7639267600054893
 40
0.7639267600054893
 40
0.7639267600054893
 40
0.7639267600054893
 10
12.57913217270286
 20
10.75882799429196
 30
0.0
 10
12.33162083752592
 20
10.59792483181178
 30
0.0
 10
12.10236601833516
 20
10.41000899524898
 30
0.0
 10
11.89635827178594
 20
10.19984443468293
 30
0.0
  0
SPLINE
  5
191
330
1F
100
AcDbEntity
  8
0
  6
Continuous
 62
     7
370
    25
100
AcDbSpline
210
0.0
220
0.0
230
1.0
 70
     8
 71
     3
 72
     8
 73
     4
 74
     0
 42
0.00000001
 43
0.00000001
 40
0.0
 40
0.0
 40
0.0
 40
0.0
 40
1.0
 40
1.0
 40
1.0
 40
1.0
 10
12.59575466720955
 20
10.76958453769537
 30
0.0
 10
12.59020487766148
 20
10.76601282502745
 30
0.0
 10
12.58466559862209
 20
10.76242503519196
 30
0.0
 10
12.57913217270286
 20
10.75882799429196
 30
0.0
  0
SPLINE
  5
192
330
1F
100
AcDbEntity
  8
0
  6
Continuous
 62
     7
370
    25
100
AcDbSpline
210
0.0
220
0.0
230
1.0
 70
     8
 71
     3
 72
     8
 73
     4
 74
     0
 42
0.00000001
 43
0.00000001
 40
0.0
 40
0.0
 40
0.0
 40
0.0
 40
1.0
 40
1.0
 40
1.0
 40
1.0
 10
13.32019536591329
 20
11.14738215425222
 30
0.0
 10
13.06773956611439
 20
11.04378345237474
 30
0.0
 10
12.82494896644416
 20
10.91707634946229
 30
0.0
 10
12.59575466720956
 20
10.76958453769537
 30
0.0
  0
SPLINE
  5
193
330
1F
100
AcDbEntity
  8
0
  6
Continuous
 62
     7
370
    25
100
AcDbSpline
210
0.0
220
0.0
230
1.0
 70
     8
 71
     3
 72
     9
 73
     5
 74
     0
 42
0.00000001
 43
0.00000001
 40
0.0
 40
0.0
 40
0.0
 40
0.0
 40
0.5
 40
1.0
 40
1.0
 40
1.0
 40
1.0
 10
14.97400317644689
 20
11.48475105098031
 30
0.0
 10
14.69074870366601
 20
11.48077096764261
 30
0.0
 10
14.1251418188176
 20
11.41978004513174
 30
0.0
 10
13.58159047526519
 20
11.25463189160732
 30
0.0
 10
13.32019536591329
 20
11.14738215425222
 30
0.0
  0
LINE
  5
194
330
1F
100
AcDbEntity
  8
0
  6
Continuous
 62
     7
370
    25
100
AcDbLine
 10
14.9740031764
 20
11.484751051
 30
0.0
 11
14.9740031764
 21
10.884751051
 31
0.0
  0
LINE
  5
195
330
1F
100
AcDbEntity
  8
0
  6
Continuous
 62
     7
370
    25
100
AcDbLine
 10
14.9740031764
 20
10.884751051
 30
0.0
 11
15.0990031764
 21
10.884751051
 31
0.0
  0
LINE
  5
196
330
1F
100
AcDbEntity
  8
0
  6
Continuous
 62
     7
370
    25
100
AcDbLine
 10
15.0990031764
 20
10.884751051
 30
0.0
 11
15.0990031764
 21
11.484751051
 31
0.0
  0
SPLINE
  5
197
330
1F
100
AcDbEntity
  8
0
  6
Continuous
 62
     7
370
    25
100
AcDbSpline
210
0.0
220
0.0
230
1.0
 70
     8
 71
     3
 72
     9
 73
     5
 74
     0
 42
0.00000001
 43
0.00000001
 40
0.0
 40
0.0
 40
0.0
 40
0.0
 40
0.5
 40
1.0
 40
1.0
 40
1.0
 40
1.0
 10
15.09900317644644
 20
11.48475105098031
 30
0.0
 10
15.38225764922732
 20
11.48077096764261
 30
0.0
 10
15.94786453407572
 20
11.41978004513174
 30
0.0
 10
16.49141587762814
 20
11.25463189160732
 30
0.0
 10
16.75281098698004
 20
11.14738215425222
 30
0.0
  0
SPLINE
  5
198
330
1F
100
AcDbEntity
  8
0
  6
Continuous
 62
     7
370
    25
100
AcDbSpline
210
0.0
220
0.0
230
1.0
 70
     8
 71
     3
 72
     8
 73
     4
 74
     0
 42
0.00000001
 43
0.00000001
 40
0.0
 40
0.0
 40
0.0
 40
0.0
 40
1.0
 40
1.0
 40
1.0
 40
1.0
 10
16.75281098698004
 20
11.14738215425222
 30
0.0
 10
17.00526678677894
 20
11.04378345237474
 30
0.0
 10
17.24805738644917
 20
10.91707634946229
 30
0.0
 10
17.47725168568376
 20
10.76958453769537
 30
0.0
  0
SPLINE
  5
199
330
1F
100
AcDbEntity
  8
0
  6
Continuous
 62
     7
370
    25
100
AcDbSpline
210
0.0
220
0.0
230
1.0
 70
     8
 71
     3
 72
     8
 73
     4
 74
     0
 42
0.00000001
 43
0.00000001
 40
0.0
 40
0.0
 40
0.0
 40
0.0
 40
1.0
 40
1.0
 40
1.0
 40
1.0
 10
17.47725168568377
 20
10.76958453769537
 30
0.0
 10
17.48280147523184
 20
10.76601282502745
 30
0.0
 10
17.48834075427123
 20
10.76242503519196
 30
0.0
 10
17.49387418019046
 20
10.75882799429196
 30
0.0
  0
SPLINE
  5
19A
330
1F
100
AcDbEntity
  8
0
  6
Continuous
 62
     7
370
    25
100
AcDbSpline
210
0.0
220
0.0
230
1.0
 70
     8
 71
     3
 72
     8
 73
     4
 74
     0
 42
0.00000001
 43
0.00000001
 40
0.0
 40
0.0
 40
0.0
 40
0.0
 40
0.7639267600056169
 40
0.7639267600056169
 40
0.7639267600056169
 40
0.7639267600056169
 10
17.49387418019046
 20
10.75882799429196
 30
0.0
 10
17.74138551536745
 20
10.59792483181175
 30
0.0
 10
17.97064033455824
 20
10.41000899524892
 30
0.0
 10
18.17664808110749
 20
10.19984443468283
 30
0.0
  0
LINE
  5
19B
330
1F
100
AcDbEntity
  8
0
  6
Continuous
 62
     7
370
    25
100
AcDbLine
 10
18.2287023662
 20
10.23290362
 30
0.0
 11
18.1766480811
 21
10.1998444347
 31
0.0
  0
SPLINE
  5
19C
330
1F
100
AcDbEntity
  8
0
  6
Continuous
 62
     7
370
    25
100
AcDbSpline
210
0.0
220
0.0
230
1.0
 70
     8
 71
     3
 72
     8
 73
     4
 74
     0
 42
0.00000001
 43
0.00000001
 40
0.9002724097022211
 40
0.9002724097022211
 40
0.9002724097022211
 40
0.9002724097022211
 40
1.0
 40
1.0
 40
1.0
 40
1.0
 10
18.41945305437995
 20
10.35336517673434
 30
0.0
 10
18.35577012729502
 20
10.31337547528343
 30
0.0
 10
18.29218647169385
 20
10.27322177643561
 30
0.0
 10
18.22870236615229
 20
10.23290361998103
 30
0.0
  0
LINE
  5
19D
330
1F
100
AcDbEntity
  8
0
  6
Continuous
 62
     7
370
    25
100
AcDbLine
 10
18.773006445
 20
9.9998117861
 30
0.0
 11
18.4194530544
 21
10.3533651767
 31
0.0
  0
LINE
  5
19E
330
1F
100
AcDbEntity
  8
0
  6
Continuous
 62
     7
370
    25
100
AcDbLine
 10
18.773006445
 20
9.9998117861
 30
0.0
 11
18.8613947926
 21
10.0882001338
 31
0.0
  0
LINE
  5
19F
330
1F
100
AcDbEntity
  8
0
  6
Continuous
 62
     7
370
    25
100
AcDbLine
 10
18.8613947926
 20
10.0882001338
 30
0.0
 11
20.3300815274
 21
8.619513399
 31
0.0
  0
LINE
  5
1A0
330
1F
100
AcDbEntity
  8
0
  6
Continuous
 62
     7
370
    25
100
AcDbLine
 10
20.3300815274
 20
8.619513399
 30
0.0
 11
20.2416931798
 21
8.5311250513
 31
0.0
  0
LINE
  5
1A1
330
1F
100
AcDbEntity
  8
0
  6
Continuous
 62
     7
370
    25
100
AcDbLine
 10
20.5952465704
 20
8.1775716607
 30
0.0
 11
20.2416931798
 21
8.5311250513
 31
0.0
  0
SPLINE
  5
1A2
330
1F
100
AcDbEntity
  8
0
  6
Continuous
 62
     7
370
    25
100
AcDbSpline
210
0.0
220
0.0
230
1.0
 70
     8
 71
     3
 72
    12
 73
     8
 74
     0
 42
0.00000001
 43
0.00000001
 40
0.3229918994998724
 40
0.3229918994998724
 40
0.3229918994998724
 40
0.3229918994998724
 40
0.4999999999999994
 40
0.4999999999999994
 40
0.7499999999999998
 40
0.7499999999999998
 40
0.7702456066064584
 40
0.7702456066064584
 40
0.7702456066064584
 40
0.7702456066064584
 10
19.20723247531642
 20
7.071353948813983
 30
0.0
 10
19.38727823268966
 20
7.221138334851693
 30
0.0
 10
19.56832045060737
 20
7.369724090513436
 30
0.0
 10
20.00823075727909
 20
7.724287865568302
 30
0.0
 10
20.26826874097475
 20
7.928595641116405
 30
0.0
 10
20.55258800082582
 20
8.145195672294097
 30
0.0
 10
20.57390745199443
 20
8.161396643913015
 30
0.0
 10
20.5952465703817
 20
8.177571660732998
 30
0.0
  0
LINE
  5
1A3
330
1F
100
AcDbEntity
  8
0
  6
Continuous
 62
     7
370
    25
100
AcDbLine
 10
19.2072324753
 20
7.0713539488
 30
0.0
 11
19.1742642598
 21
7.0439268992
 31
0.0
  0
LINE
  5
1A4
330
1F
100
AcDbEntity
  8
0
  6
Continuous
 62
     7
370
    25
100
AcDbLine
 10
19.1742642598
 20
7.0439268992
 30
0.0
 11
18.8526046497
 21
7.0439268992
 31
0.0
  0
LINE
  5
1A5
330
1F
100
AcDbEntity
  8
0
  6
Continuous
 62
     7
370
    25
100
AcDbLine
 10
18.8526046497
 20
7.0439268992
 30
0.0
 11
18.8526046497
 21
6.9189268992
 31
0.0
  0
LINE
  5
1A6
330
1F
100
AcDbEntity
  8
0
  6
Continuous
 62
     7
370
    25
100
AcDbLine
 10
18.8526046497
 20
6.9189268992
 30
0.0
 11
19.2026046497
 21
6.9189268992
 31
0.0
  0
SPLINE
  5
1A7
330
1F
100
AcDbEntity
  8
0
  6
Continuous
 62
     7
370
    25
100
AcDbSpline
210
0.0
220
0.0
230
1.0
 70
     8
 71
     3
 72
     8
 73
     4
 74
     0
 42
0.00000001
 43
0.00000001
 40
0.083798146828328
 40
0.083798146828328
 40
0.083798146828328
 40
0.083798146828328
 40
1.0
 40
1.0
 40
1.0
 40
1.0
 10
19.20260464974464
 20
6.918926899243103
 30
0.0
 10
19.19723710405274
 20
6.739543241707157
 30
0.0
 10
19.19186681097312
 20
6.56024429460825
 30
0.0
 10
19.18671884458443
 20
6.381009196097088
 30
0.0
  0
SPLINE
  5
1A8
330
1F
100
AcDbEntity
  8
0
  6
Continuous
 62
     7
370
    25
100
AcDbSpline
210
0.0
220
0.0
230
1.0
 70
     8
 71
     3
 72
     8
 73
     4
 74
     0
 42
0.00000001
 43
0.00000001
 40
0.0
 40
0.0
 40
0.0
 40
0.0
 40
1.0
 40
1.0
 40
1.0
 40
1.0
 10
19.18671884458443
 20
6.381009196097088
 30
0.0
 10
19.17127404953968
 20
5.842845118782054
 30
0.0
 10
19.15709521995546
 20
5.304619487406553
 30
0.0
 10
19.14614053250161
 20
4.765310130238398
 30
0.0
  0
SPLINE
  5
1A9
330
1F
100
AcDbEntity
  8
0
  6
Continuous
 62
     7
370
    25
100
AcDbSpline
210
0.0
220
0.0
230
1.0
 70
     8
 71
     3
 72
     8
 73
     4
 74
     0
 42
0.00000001
 43
0.00000001
 40
0.0
 40
0.0
 40
0.0
 40
0.0
 40
1.0
 40
1.0
 40
1.0
 40
1.0
 10
19.14614053250161
 20
4.765310130238396
 30
0.0
 10
19.14525626050461
 20
4.721763768058993
 30
0.0
 10
19.14449430286399
 20
4.678200138755892
 30
0.0
 10
19.14371273770969
 20
4.634622233390645
 30
0.0
  0
ARC
  5
1AA
330
1F
100
AcDbEntity
  8
0
  6
Continuous
 62
     7
370
    25
100
AcDbCircle
 10
10.926570782
 20
4.781951526
 30
0.0
 40
8.218462620229225
100
AcDbArc
 50
357.5581691915
 51
358.9728250593
  0
SPLINE
  5
1AB
330
1F
100
AcDbEntity
  8
0
  6
Continuous
 62
     7
370
    25
100
AcDbSpline
210
0.0
220
0.0
230
1.0
 70
     8
 71
     3
 72
     8
 73
     4
 74
     0
 42
0.00000001
 43
0.00000001
 40
0.0
 40
0.0
 40
0.0
 40
0.0
 40
1.0
 40
1.0
 40
1.0
 40
1.0
 10
19.13757096442612
 20
4.431803207512097
 30
0.0
 10
19.13206470556089
 20
4.302704068525005
 30
0.0
 10
19.11126475399499
 20
4.174334666908209
 30
0.0
 10
19.07506890536043
 20
4.050020518340921
 30
0.0
  0
SPLINE
  5
1AC
330
1F
100
AcDbEntity
  8
0
  6
Continuous
 62
     7
370
    25
100
AcDbSpline
210
0.0
220
0.0
230
1.0
 70
     8
 71
     3
 72
     8
 73
     4
 74
     0
 42
0.00000001
 43
0.00000001
 40
0.0
 40
0.0
 40
0.0
 40
0.0
 40
1.0
 40
1.0
 40
1.0
 40
1.0
 10
19.07506890536043
 20
4.050020518340919
 30
0.0
 10
19.06041072173628
 20
3.999677245654215
 30
0.0
 10
19.04342561912362
 20
3.949987773119624
 30
0.0
 10
19.02415342207237
 20
3.901175907530653
 30
0.0
  0
SPLINE
  5
1AD
330
1F
100
AcDbEntity
  8
0
  6
Continuous
 62
     7
370
    25
100
AcDbSpline
210
0.0
220
0.0
230
1.0
 70
     8
 71
     3
 72
     8
 73
     4
 74
     0
 42
0.00000001
 43
0.00000001
 40
0.0
 40
0.0
 40
0.0
 40
0.0
 40
1.0
 40
1.0
 40
1.0
 40
1.0
 10
19.02415342207237
 20
3.901175907530654
 30
0.0
 10
18.96836845782817
 20
3.759885003307362
 30
0.0
 10
18.89517178870892
 20
3.625662063766389
 30
0.0
 10
18.80668028274139
 20
3.503006935878611
 30
0.0
  0
SPLINE
  5
1AE
330
1F
100
AcDbEntity
  8
0
  6
Continuous
 62
     7
370
    25
100
AcDbSpline
210
0.0
220
0.0
230
1.0
 70
     8
 71
     3
 72
    11
 73
     7
 74
     0
 42
0.00000001
 43
0.00000001
 40
0.0
 40
0.0
 40
0.0
 40
0.0
 40
0.25
 40
0.5
 40
0.75
 40
1.0
 40
1.0
 40
1.0
 40
1.0
 10
18.80668028274139
 20
3.503006935878611
 30
0.0
 10
18.74860490761565
 20
3.422509898367662
 30
0.0
 10
18.61952442009608
 20
3.271167961969814
 30
0.0
 10
18.39281620488287
 20
3.079132891463374
 30
0.0
 10
18.13937380436081
 20
2.927003103018755
 30
0.0
 10
17.95725932672665
 20
2.854742417246755
 30
0.0
 10
17.86418994194376
 20
2.826358452238212
 30
0.0
  0
SPLINE
  5
1AF
330
1F
100
AcDbEntity
  8
0
  6
Continuous
 62
     7
370
    25
100
AcDbSpline
210
0.0
220
0.0
230
1.0
 70
     8
 71
     3
 72
     8
 73
     4
 74
     0
 42
0.00000001
 43
0.00000001
 40
0.0
 40
0.0
 40
0.0
 40
0.0
 40
1.0
 40
1.0
 40
1.0
 40
1.0
 10
17.86418994194376
 20
2.826358452238212
 30
0.0
 10
17.67543916384261
 20
2.768750160149105
 30
0.0
 10
17.47751911942983
 20
2.734540628365969
 30
0.0
 10
17.27770277208078
 20
2.725534559449872
 30
0.0
  0
SPLINE
  5
1B0
330
1F
100
AcDbEntity
  8
0
  6
Continuous
 62
     7
370
    25
100
AcDbSpline
210
0.0
220
0.0
230
1.0
 70
     8
 71
     3
 72
     8
 73
     4
 74
     0
 42
0.00000001
 43
0.00000001
 40
0.0
 40
0.0
 40
0.0
 40
0.0
 40
1.0
 40
1.0
 40
1.0
 40
1.0
 10
17.27770277208079
 20
2.725534559449872
 30
0.0
 10
17.23131318730029
 20
2.723443240849781
 30
0.0
 10
17.18482837766967
 20
2.722721844582509
 30
0.0
 10
17.1383462424666
 20
2.723359134636571
 30
0.0
  0
SPLINE
  5
1B1
330
1F
100
AcDbEntity
  8
0
  6
Continuous
 62
     7
370
    25
100
AcDbSpline
210
0.0
220
0.0
230
1.0
 70
     8
 71
     3
 72
     8
 73
     4
 74
     0
 42
0.00000001
 43
0.00000001
 40
0.0
 40
0.0
 40
0.0
 40
0.0
 40
0.9981312973352658
 40
0.9981312973352658
 40
0.9981312973352658
 40
0.9981312973352658
 10
17.1383462424666
 20
2.723359134636571
 30
0.0
 10
17.08471046194568
 20
2.72409439931159
 30
0.0
 10
17.03114089766385
 20
2.724185443359179
 30
0.0
 10
16.97756836010366
 20
2.723608216212759
 30
0.0
  0
ARC
  5
1B2
330
1F
100
AcDbEntity
  8
0
  6
Continuous
 62
     7
370
    25
100
AcDbCircle
 10
17.1321525612
 20
-11.6233745496
 30
0.0
 40
14.3478155349278
100
AcDbArc
 50
90.6173200125
 51
90.8803620111
  0
SPLINE
  5
1B3
330
1F
100
AcDbEntity
  8
0
  6
Continuous
 62
     7
370
    25
100
AcDbSpline
210
0.0
220
0.0
230
1.0
 70
     8
 71
     3
 72
     8
 73
     4
 74
     0
 42
0.00000001
 43
0.00000001
 40
0.0019731321838372
 40
0.0019731321838372
 40
0.0019731321838372
 40
0.0019731321838372
 40
1.0
 40
1.0
 40
1.0
 40
1.0
 10
16.9117039552615
 20
2.722747327226232
 30
0.0
 10
16.84894463438958
 20
2.721782940828482
 30
0.0
 10
16.78616604693004
 20
2.720863980097136
 30
0.0
 10
16.7233717084704
 20
2.719609678207703
 30
0.0
  0
SPLINE
  5
1B4
330
1F
100
AcDbEntity
  8
0
  6
Continuous
 62
     7
370
    25
100
AcDbSpline
210
0.0
220
0.0
230
1.0
 70
     8
 71
     3
 72
     8
 73
     4
 74
     0
 42
0.00000001
 43
0.00000001
 40
0.0
 40
0.0
 40
0.0
 40
0.0
 40
0.9264459006120008
 40
0.9264459006120008
 40
0.9264459006120008
 40
0.9264459006120008
 10
16.7233717084704
 20
2.719609678207703
 30
0.0
 10
16.20599819467701
 20
2.70927813692779
 30
0.0
 10
15.68595869866894
 20
2.690038506490086
 30
0.0
 10
15.16150317644666
 20
2.663082266139832
 30
0.0
  0
LINE
  5
1B5
330
1F
100
AcDbEntity
  8
0
  6
Continuous
 62
     7
370
    25
100
AcDbLine
 10
15.1615031764
 20
3.4130822661
 30
0.0
 11
15.1615031764
 21
2.6630822661
 31
0.0
  0
LINE
  5
1B6
330
1F
100
AcDbEntity
  8
0
  6
Continuous
 62
     7
370
    25
100
AcDbLine
 10
14.9115031764
 20
3.4130822661
 30
0.0
 11
15.1615031764
 21
3.4130822661
 31
0.0
  0
LINE
  5
1B7
330
1F
100
AcDbEntity
  8
0
  6
Continuous
 62
     7
370
    25
100
AcDbLine
 10
14.9115031764
 20
2.6630822661
 30
0.0
 11
14.9115031764
 21
3.4130822661
 31
0.0
  0
SPLINE
  5
1B8
330
1F
100
AcDbEntity
  8
0
  6
Continuous
 62
     7
370
    25
100
AcDbSpline
210
0.0
220
0.0
230
1.0
 70
     8
 71
     3
 72
     8
 73
     4
 74
     0
 42
0.00000001
 43
0.00000001
 40
0.0
 40
0.0
 40
0.0
 40
0.0
 40
0.9264459006120199
 40
0.9264459006120199
 40
0.9264459006120199
 40
0.9264459006120199
 10
13.34963464442293
 20
2.719609678207703
 30
0.0
 10
13.86700815821633
 20
2.70927813692779
 30
0.0
 10
14.3870476542244
 20
2.690038506490086
 30
0.0
 10
14.9115031764467
 20
2.66308226613983
 30
0.0
  0
SPLINE
  5
1B9
330
1F
100
AcDbEntity
  8
0
  6
Continuous
 62
     7
370
    25
100
AcDbSpline
210
0.0
220
0.0
230
1.0
 70
     8
 71
     3
 72
     8
 73
     4
 74
     0
 42
0.00000001
 43
0.00000001
 40
0.0019731321838372
 40
0.0019731321838372
 40
0.0019731321838372
 40
0.0019731321838372
 40
1.0
 40
1.0
 40
1.0
 40
1.0
 10
13.16130239763182
 20
2.722747327226232
 30
0.0
 10
13.22406171850375
 20
2.721782940828482
 30
0.0
 10
13.28684030596329
 20
2.720863980097136
 30
0.0
 10
13.34963464442293
 20
2.719609678207703
 30
0.0
  0
ARC
  5
1BA
330
1F
100
AcDbEntity
  8
0
  6
Continuous
 62
     7
370
    25
100
AcDbCircle
 10
12.9408537917
 20
-11.6233745496
 30
0.0
 40
14.3478155349278
100
AcDbArc
 50
89.1196379889
 51
89.3826799875
  0
SPLINE
  5
1BB
330
1F
100
AcDbEntity
  8
0
  6
Continuous
 62
     7
370
    25
100
AcDbSpline
210
0.0
220
0.0
230
1.0
 70
     8
 71
     3
 72
     8
 73
     4
 74
     0
 42
0.00000001
 43
0.00000001
 40
0.0
 40
0.0
 40
0.0
 40
0.0
 40
0.9981312973352658
 40
0.9981312973352658
 40
0.9981312973352658
 40
0.9981312973352658
 10
12.93466011042672
 20
2.723359134636571
 30
0.0
 10
12.98829589094764
 20
2.72409439931159
 30
0.0
 10
13.04186545522948
 20
2.724185443359179
 30
0.0
 10
13.09543799278967
 20
2.723608216212759
 30
0.0
  0
SPLINE
  5
1BC
330
1F
100
AcDbEntity
  8
0
  6
Continuous
 62
     7
370
    25
100
AcDbSpline
210
0.0
220
0.0
230
1.0
 70
     8
 71
     3
 72
     8
 73
     4
 74
     0
 42
0.00000001
 43
0.00000001
 40
0.0
 40
0.0
 40
0.0
 40
0.0
 40
1.0
 40
1.0
 40
1.0
 40
1.0
 10
12.79530358081254
 20
2.725534559449873
 30
0.0
 10
12.84169316559303
 20
2.723443240849781
 30
0.0
 10
12.88817797522365
 20
2.72272184458251
 30
0.0
 10
12.93466011042672
 20
2.723359134636571
 30
0.0
  0
SPLINE
  5
1BD
330
1F
100
AcDbEntity
  8
0
  6
Continuous
 62
     7
370
    25
100
AcDbSpline
210
0.0
220
0.0
230
1.0
 70
     8
 71
     3
 72
     8
 73
     4
 74
     0
 42
0.00000001
 43
0.00000001
 40
0.0
 40
0.0
 40
0.0
 40
0.0
 40
1.0
 40
1.0
 40
1.0
 40
1.0
 10
12.20881641094957
 20
2.826358452238212
 30
0.0
 10
12.39756718905072
 20
2.768750160149105
 30
0.0
 10
12.59548723346349
 20
2.734540628365969
 30
0.0
 10
12.79530358081254
 20
2.725534559449872
 30
0.0
  0
SPLINE
  5
1BE
330
1F
100
AcDbEntity
  8
0
  6
Continuous
 62
     7
370
    25
100
AcDbSpline
210
0.0
220
0.0
230
1.0
 70
     8
 71
     3
 72
    11
 73
     7
 74
     0
 42
0.00000001
 43
0.00000001
 40
0.0
 40
0.0
 40
0.0
 40
0.0
 40
0.25
 40
0.5
 40
0.75
 40
1.0
 40
1.0
 40
1.0
 40
1.0
 10
11.26632607015193
 20
3.503006935878611
 30
0.0
 10
11.32440144527767
 20
3.422509898367662
 30
0.0
 10
11.45348193279724
 20
3.271167961969814
 30
0.0
 10
11.68019014801046
 20
3.079132891463374
 30
0.0
 10
11.93363254853252
 20
2.927003103018755
 30
0.0
 10
12.11574702616667
 20
2.854742417246755
 30
0.0
 10
12.20881641094956
 20
2.826358452238212
 30
0.0
  0
SPLINE
  5
1BF
330
1F
100
AcDbEntity
  8
0
  6
Continuous
 62
     7
370
    25
100
AcDbSpline
210
0.0
220
0.0
230
1.0
 70
     8
 71
     3
 72
     8
 73
     4
 74
     0
 42
0.00000001
 43
0.00000001
 40
0.0
 40
0.0
 40
0.0
 40
0.0
 40
1.0
 40
1.0
 40
1.0
 40
1.0
 10
11.04885293082095
 20
3.901175907530654
 30
0.0
 10
11.10463789506516
 20
3.759885003307362
 30
0.0
 10
11.17783456418441
 20
3.625662063766389
 30
0.0
 10
11.26632607015193
 20
3.503006935878611
 30
0.0
  0
SPLINE
  5
1C0
330
1F
100
AcDbEntity
  8
0
  6
Continuous
 62
     7
370
    25
100
AcDbSpline
210
0.0
220
0.0
230
1.0
 70
     8
 71
     3
 72
     8
 73
     4
 74
     0
 42
0.00000001
 43
0.00000001
 40
0.0
 40
0.0
 40
0.0
 40
0.0
 40
1.0
 40
1.0
 40
1.0
 40
1.0
 10
10.99793744753289
 20
4.050020518340919
 30
0.0
 10
11.01259563115704
 20
3.999677245654215
 30
0.0
 10
11.0295807337697
 20
3.949987773119624
 30
0.0
 10
11.04885293082095
 20
3.901175907530653
 30
0.0
  0
SPLINE
  5
1C1
330
1F
100
AcDbEntity
  8
0
  6
Continuous
 62
     7
370
    25
100
AcDbSpline
210
0.0
220
0.0
230
1.0
 70
     8
 71
     3
 72
     8
 73
     4
 74
     0
 42
0.00000001
 43
0.00000001
 40
0.0
 40
0.0
 40
0.0
 40
0.0
 40
1.0
 40
1.0
 40
1.0
 40
1.0
 10
10.9354353884672
 20
4.431803207512097
 30
0.0
 10
10.94094164733243
 20
4.302704068525005
 30
0.0
 10
10.96174159889833
 20
4.174334666908209
 30
0.0
 10
10.99793744753289
 20
4.050020518340921
 30
0.0
  0
ARC
  5
1C2
330
1F
100
AcDbEntity
  8
0
  6
Continuous
 62
     7
370
    25
100
AcDbCircle
 10
19.1464355709
 20
4.781951526
 30
0.0
 40
8.218462620229229
100
AcDbArc
 50
181.0271749407
 51
182.4418308085
  0
SPLINE
  5
1C3
330
1F
100
AcDbEntity
  8
0
  6
Continuous
 62
     7
370
    25
100
AcDbSpline
210
0.0
220
0.0
230
1.0
 70
     8
 71
     3
 72
     8
 73
     4
 74
     0
 42
0.00000001
 43
0.00000001
 40
0.0
 40
0.0
 40
0.0
 40
0.0
 40
1.0
 40
1.0
 40
1.0
 40
1.0
 10
10.92686582039171
 20
4.765310130238396
 30
0.0
 10
10.92775009238872
 20
4.721763768058993
 30
0.0
 10
10.92851205002933
 20
4.678200138755892
 30
0.0
 10
10.92929361518364
 20
4.634622233390645
 30
0.0
  0
SPLINE
  5
1C4
330
1F
100
AcDbEntity
  8
0
  6
Continuous
 62
     7
370
    25
100
AcDbSpline
210
0.0
220
0.0
230
1.0
 70
     8
 71
     3
 72
     8
 73
     4
 74
     0
 42
0.00000001
 43
0.00000001
 40
0.0
 40
0.0
 40
0.0
 40
0.0
 40
1.0
 40
1.0
 40
1.0
 40
1.0
 10
10.88628750830889
 20
6.381009196097088
 30
0.0
 10
10.90173230335365
 20
5.842845118782054
 30
0.0
 10
10.91591113293786
 20
5.304619487406553
 30
0.0
 10
10.92686582039171
 20
4.765310130238398
 30
0.0
  0
SPLINE
  5
1C5
330
1F
100
AcDbEntity
  8
0
  6
Continuous
 62
     7
370
    25
100
AcDbSpline
210
0.0
220
0.0
230
1.0
 70
     8
 71
     3
 72
     8
 73
     4
 74
     0
 42
0.00000001
 43
0.00000001
 40
0.0837981468284701
 40
0.0837981468284701
 40
0.0837981468284701
 40
0.0837981468284701
 40
1.0
 40
1.0
 40
1.0
 40
1.0
 10
10.87040170314869
 20
6.91892689924302
 30
0.0
 10
10.87576924884058
 20
6.739543241707101
 30
0.0
 10
10.8811395419202
 20
6.560244294608222
 30
0.0
 10
10.88628750830889
 20
6.381009196097088
 30
0.0
  0
LINE
  5
1C6
330
1F
100
AcDbEntity
  8
0
  6
Continuous
 62
     7
370
    25
100
AcDbLine
 10
11.2204017031
 20
6.9189268992
 30
0.0
 11
10.8704017031
 21
6.9189268992
 31
0.0
  0
LINE
  5
1C7
330
1F
100
AcDbEntity
  8
0
  6
Continuous
 62
     7
370
    25
100
AcDbLine
 10
11.2204017031
 20
7.0439268992
 30
0.0
 11
11.2204017031
 21
6.9189268992
 31
0.0
  0
LINE
  5
1C8
330
1F
100
AcDbEntity
  8
0
  6
Continuous
 62
     7
370
    25
100
AcDbLine
 10
10.898742093
 20
7.0439268992
 30
0.0
 11
11.2204017031
 21
7.0439268992
 31
0.0
  0
LINE
  5
1C9
330
1F
100
AcDbEntity
  8
0
  6
Continuous
 62
     7
370
    25
100
AcDbLine
 10
10.8657738776
 20
7.0713539488
 30
0.0
 11
10.898742093
 21
7.0439268992
 31
0.0
  0
SPLINE
  5
1CA
330
1F
100
AcDbEntity
  8
0
  6
Continuous
 62
     7
370
    25
100
AcDbSpline
210
0.0
220
0.0
230
1.0
 70
     8
 71
     3
 72
    12
 73
     8
 74
     0
 42
0.00000001
 43
0.00000001
 40
0.3229918994998724
 40
0.3229918994998724
 40
0.3229918994998724
 40
0.3229918994998724
 40
0.4999999999999994
 40
0.4999999999999994
 40
0.7499999999999998
 40
0.7499999999999998
 40
0.7702456066064584
 40
0.7702456066064584
 40
0.7702456066064584
 40
0.7702456066064584
 10
10.8657738775769
 20
7.071353948813983
 30
0.0
 10
10.68572812020366
 20
7.221138334851693
 30
0.0
 10
10.50468590228595
 20
7.369724090513436
 30
0.0
 10
10.06477559561424
 20
7.724287865568302
 30
0.0
 10
9.804737611918567
 20
7.928595641116405
 30
0.0
 10
9.520418352067505
 20
8.145195672294097
 30
0.0
 10
9.49909890089889
 20
8.161396643913015
 30
0.0
 10
9.477759782511622
 20
8.177571660732998
 30
0.0
  0
LINE
  5
1CB
330
1F
100
AcDbEntity
  8
0
  6
Continuous
 62
     7
370
    25
100
AcDbLine
 10
9.4777597825
 20
8.1775716607
 30
0.0
 11
9.8313131731
 21
8.5311250513
 31
0.0
  0
LINE
  5
1CC
330
1F
100
AcDbEntity
  8
0
  6
Continuous
 62
     7
370
    25
100
AcDbLine
 10
9.7429248255
 20
8.619513399
 30
0.0
 11
9.8313131731
 21
8.5311250513
 31
0.0
  0
LINE
  5
1CD
330
1F
100
AcDbEntity
  8
0
  6
Continuous
 62
     7
370
    25
100
AcDbLine
 10
11.2116115603
 20
10.0882001338
 30
0.0
 11
9.7429248255
 21
8.619513399
 31
0.0
  0
LINE
  5
1CE
330
1F
100
AcDbEntity
  8
0
  6
Continuous
 62
     7
370
    25
100
AcDbLine
 10
11.2999999079
 20
9.9998117861
 30
0.0
 11
11.2116115603
 21
10.0882001338
 31
0.0
  0
LINE
  5
1CF
330
1F
100
AcDbEntity
  8
0
  6
Continuous
 62
     7
370
    25
100
AcDbLine
 10
11.2999999079
 20
9.9998117861
 30
0.0
 11
11.6535532985
 21
10.3533651767
 31
0.0
  0
MTEXT
  5
1D0
330
1F
100
AcDbEntity
  8
PART_NAMES
100
AcDbMText
 10
15.3877798498
 20
11.2818591336
 30
0.0
 40
0.1666666667
 41
0.0
 71
     1
 72
     1
  1
BH9
  7
SLDTEXTSTYLE0
 73
     1
 44
1.0
  0
LINE
  5
1D1
330
1F
100
AcDbEntity
  8
0
  6
Continuous
 62
     7
370
    25
100
AcDbLine
 10
22.6144397768
 20
0.803400844
 30
0.0
 11
22.7048782573
 21
0.8798869383
 31
0.0
  0
LINE
  5
1D2
330
1F
100
AcDbEntity
  8
0
  6
Continuous
 62
     7
370
    25
100
AcDbLine
 10
22.4443152551
 20
1.0045590202
 30
0.0
 11
22.6144397768
 21
0.803400844
 31
0.0
  0
LINE
  5
1D3
330
1F
100
AcDbEntity
  8
0
  6
Continuous
 62
     7
370
    25
100
AcDbLine
 10
22.2653317737
 20
0.8531881949
 30
0.0
 11
22.4443152551
 21
1.0045590202
 31
0.0
  0
LINE
  5
1D4
330
1F
100
AcDbEntity
  8
0
  6
Continuous
 62
     7
370
    25
100
AcDbLine
 10
22.11529326
 20
1.0305963279
 30
0.0
 11
22.2653317737
 21
0.8531881949
 31
0.0
  0
SPLINE
  5
1D5
330
1F
100
AcDbEntity
  8
0
  6
Continuous
 62
     7
370
    25
100
AcDbSpline
210
0.0
220
0.0
230
1.0
 70
     8
 71
     3
 72
    11
 73
     7
 74
     0
 42
0.00000001
 43
0.00000001
 40
181.9523199598931
 40
181.9523199598931
 40
181.9523199598931
 40
181.9523199598931
 40
182.7163518628533
 40
194.3591885681599
 40
206.0020252734666
 40
207.0897108033707
 40
207.0897108033707
 40
207.0897108033707
 40
207.0897108033707
 10
22.9081379653359
 20
11.04942585763724
 30
0.0
 10
22.90025417379593
 20
10.94783610723431
 30
0.0
 10
22.77225156280511
 20
9.298177396482972
 30
0.0
 10
22.52454799826548
 20
6.101284845124797
 30
0.0
 10
22.26644619627551
 20
2.86451969621184
 30
0.0
 10
22.12722220117071
 20
1.174944800186451
 30
0.0
 10
22.11529326002943
 20
1.030596327854676
 30
0.0
  0
LINE
  5
1D6
330
1F
100
AcDbEntity
  8
0
  6
Continuous
 62
     7
370
    25
100
AcDbLine
 10
23.0452435742
 20
10.8873098154
 30
0.0
 11
22.9081379653
 21
11.0494258576
 31
0.0
  0
LINE
  5
1D7
330
1F
100
AcDbEntity
  8
0
  6
Continuous
 62
     7
370
    25
100
AcDbLine
 10
23.1896077123
 20
11.0094021927
 30
0.0
 11
23.0452435742
 21
10.8873098154
 31
0.0
  0
LINE
  5
1D8
330
1F
100
AcDbEntity
  8
0
  6
Continuous
 62
     7
370
    25
100
AcDbLine
 10
23.3334295571
 20
10.8393447564
 30
0.0
 11
23.1896077123
 21
11.0094021927
 31
0.0
  0
SPLINE
  5
1D9
330
1F
100
AcDbEntity
  8
0
  6
Continuous
 62
     7
370
    25
100
AcDbSpline
210
0.0
220
0.0
230
1.0
 70
     8
 71
     3
 72
    10
 73
     6
 74
     0
 42
0.00000001
 43
0.00000001
 40
0.0
 40
0.0
 40
0.0
 40
0.0
 40
0.5
 40
0.5
 40
1.0
 40
1.0
 40
1.0
 40
1.0
 10
23.50489565275232
 20
10.98441426798539
 30
0.0
 10
23.37414835368392
 20
9.29947527539727
 30
0.0
 10
23.24371939836785
 20
7.614704978730368
 30
0.0
 10
22.97873018596417
 20
4.246327129833957
 30
0.0
 10
22.84413710356534
 20
2.562738936592332
 30
0.0
 10
22.70487814642834
 20
0.8798867852116764
 30
0.0
  0
LINE
  5
1DA
330
1F
100
AcDbEntity
  8
0
  6
Continuous
 62
     7
370
    25
100
AcDbLine
 10
23.5048912871
 20
10.9843542477
 30
0.0
 11
23.3334295571
 21
10.8393447564
 31
0.0
  0
MTEXT
  5
1DB
330
1F
100
AcDbEntity
  8
PART_NAMES
100
AcDbMText
 10
22.9477942225
 20
6.8986471334
 30
0.0
 40
0.1666666667
 41
0.0
 71
     1
 72
     1
  1
TMS 1.5
  7
SLDTEXTSTYLE0
 11
1.047444401652940E-14
 21
-1.0
 31
0.0
 73
     1
 44
1.0
  0
LINE
  5
1DC
330
1F
100
AcDbEntity
  8
0
  6
Continuous
 62
     7
370
    25
100
AcDbLine
 10
21.5075771201
 20
9.7878284028
 30
0.0
 11
21.6865606015
 21
9.9391992282
 31
0.0
  0
LINE
  5
1DD
330
1F
100
AcDbEntity
  8
0
  6
Continuous
 62
     7
370
    25
100
AcDbLine
 10
21.6865606015
 20
9.9391992282
 30
0.0
 11
21.8566851232
 21
9.7380410519
 31
0.0
  0
SPLINE
  5
1DE
330
1F
100
AcDbEntity
  8
0
  6
Continuous
 62
     7
370
    25
100
AcDbSpline
210
0.0
220
0.0
230
1.0
 70
     8
 71
     3
 72
    14
 73
    10
 74
     0
 42
0.00000001
 43
0.00000001
 40
0.0
 40
0.0
 40
0.0
 40
0.0
 40
0.4999999999999964
 40
0.4999999999999964
 40
0.7499999999999947
 40
0.7499999999999947
 40
0.8749999999999973
 40
0.8749999999999973
 40
1.0
 40
1.0
 40
1.0
 40
1.0
 10
21.94712349288796
 20
9.814526993176221
 30
0.0
 10
21.8474345101087
 20
8.609851742204789
 30
0.0
 10
21.74534945588645
 20
7.405548631890876
 30
0.0
 10
21.58734109198124
 20
5.599470295926917
 30
0.0
 10
21.53386001985028
 20
4.997504234792377
 30
0.0
 10
21.45228262464946
 20
4.094594993234321
 30
0.0
 10
21.42486438278541
 20
3.793631678171653
 30
0.0
 10
21.3695557818326
 20
3.19170688253118
 30
0.0
 10
21.34166955971784
 20
2.890781793750843
 30
0.0
 10
21.31342388441525
 20
2.588652483026209
 30
0.0
  0
ARC
  5
1DF
330
1F
100
AcDbEntity
  8
0
  6
Continuous
 62
     7
370
    25
100
AcDbCircle
 10
21.2636409659
 20
2.5933066232
 30
0.0
 40
0.0500000000000127
100
AcDbArc
 50
270.0
 51
354.65901649
  0
LINE
  5
1E0
330
1F
100
AcDbEntity
  8
0
  6
Continuous
 62
     7
370
    25
100
AcDbLine
 10
21.2636409659
 20
2.5433066232
 30
0.0
 11
20.7614593095
 21
2.5433066232
 31
0.0
  0
ARC
  5
1E1
330
1F
100
AcDbEntity
  8
0
  6
Continuous
 62
     7
370
    25
100
AcDbCircle
 10
20.7614593095
 20
2.5933066232
 30
0.0
 40
0.050000000000005
100
AcDbArc
 50
174.6541256132
 51
270.0
  0
SPLINE
  5
1E2
330
1F
100
AcDbEntity
  8
0
  6
Continuous
 62
     7
370
    25
100
AcDbSpline
210
0.0
220
0.0
230
1.0
 70
     8
 71
     3
 72
    12
 73
     8
 74
     0
 42
0.00000001
 43
0.00000001
 40
207.0897108033707
 40
207.0897108033707
 40
207.0897108033707
 40
207.0897108033707
 40
211.82344362612
 40
217.6448619787733
 40
220.5555711551
 40
223.4662803314266
 40
225.6035533307777
 40
225.6035533307777
 40
225.6035533307777
 40
225.6035533307777
 10
21.35753860648905
 20
9.965236535819237
 30
0.0
 10
21.30562247938375
 20
9.337015342648707
 30
0.0
 10
21.1884356552485
 20
7.936538752097105
 30
0.0
 10
21.03407593108643
 20
6.150718789434865
 30
0.0
 10
20.89647686257307
 20
4.606929133131002
 30
0.0
 10
20.80044133654909
 20
3.552133619070952
 30
0.0
 10
20.7382898317397
 20
2.882368954579085
 30
0.0
 10
20.71167678842948
 20
2.597965012857559
 30
0.0
  0
LINE
  5
1E3
330
1F
100
AcDbEntity
  8
0
  6
Continuous
 62
     7
370
    25
100
AcDbLine
 10
21.3575386065
 20
9.9652365358
 30
0.0
 11
21.5075771201
 21
9.7878284028
 31
0.0
  0
LINE
  5
1E4
330
1F
100
AcDbEntity
  8
0
  6
Continuous
 62
     7
370
    25
100
AcDbLine
 10
21.8566851232
 20
9.7380410519
 30
0.0
 11
21.9471234463
 21
9.814527013
 31
0.0
  0
MTEXT
  5
1E5
330
1F
100
AcDbEntity
  8
PART_NAMES
100
AcDbMText
 10
21.4439218009
 20
6.8797304992
 30
0.0
 40
0.1666666667
 41
0.0
 71
     1
 72
     1
  1
TMS 1.6
  7
SLDTEXTSTYLE0
 11
1.047444401652940E-14
 21
-1.0
 31
0.0
 73
     1
 44
1.0
  0
MTEXT
  5
1E7
330
1F
100
AcDbEntity
  8
0
  6
Continuous
 62
     7
100
AcDbMText
 10
0.0
 20
0.5790104628
 30
0.0
 40
0.2076
 41
0.0
 71
     1
 72
     1
  1
SOLIDWORKS Educational Product.
  7
SLDTEXTSTYLE1
 73
     1
 44
1.0
  0
MTEXT
  5
1E8
330
1F
100
AcDbEntity
  8
0
  6
Continuous
 62
     7
100
AcDbMText
 10
0.0
 20
0.2676104628
 30
0.0
 40
0.2076
 41
0.0
 71
     1
 72
     1
  1
For Instructional Use Only.
  7
SLDTEXTSTYLE1
 73
     1
 44
1.0
  0
ENDSEC
  0
SECTION
  2
OBJECTS
  0
DICTIONARY
  5
C
330
0
100
AcDbDictionary
281
     1
  3
ACAD_GROUP
350
D
  3
ACAD_LAYOUT
350
1A
  3
ACAD_MLINESTYLE
350
17
  3
ACAD_PLOTSETTINGS
350
19
  3
ACAD_PLOTSTYLENAME
350
E
  3
ACAD_SCALELIST
350
47
  3
DWGPROPS
350
1E9
  0
DICTIONARY
  5
D
102
{ACAD_REACTORS
330
C
102
}
330
C
100
AcDbDictionary
281
     1
  0
DICTIONARY
  5
1A
102
{ACAD_REACTORS
330
C
102
}
330
C
100
AcDbDictionary
281
     1
  3
Layout1
350
1E
  3
Layout2
350
26
  3
Model
350
22
  0
DICTIONARY
  5
17
102
{ACAD_REACTORS
330
C
102
}
330
C
100
AcDbDictionary
281
     1
  3
Standard
350
18
  0
DICTIONARY
  5
19
102
{ACAD_REACTORS
330
C
102
}
330
C
100
AcDbDictionary
281
     1
  0
ACDBDICTIONARYWDFLT
  5
E
102
{ACAD_REACTORS
330
C
102
}
330
C
100
AcDbDictionary
281
     1
  3
Normal
350
F
100
AcDbDictionaryWithDefault
340
F
  0
DICTIONARY
  5
47
102
{ACAD_REACTORS
330
C
102
}
330
C
100
AcDbDictionary
281
     1
  3
A0
350
48
  3
A1
350
49
  3
A2
350
4A
  3
A3
350
4B
  3
A4
350
4C
  3
A5
350
4D
  3
A6
350
4E
  3
A7
350
4F
  3
A8
350
50
  3
A9
350
51
  3
B1
350
52
  3
B2
350
53
  3
B3
350
54
  3
B4
350
55
  3
B5
350
56
  3
B6
350
57
  3
B7
350
58
  0
XRECORD
  5
1E9
102
{ACAD_REACTORS
330
C
102
}
330
C
100
AcDbXrecord
280
     1
  1
DWGPROPS COOKIE
  2

  3

  4

  6

  7

  8
ucmai
  9

300
=
301
=
302
=
303
=
304
=
305
=
306
=
307
=
308
=
309
=
 40
0.0
 41
2460784.957209063
 42
2460784.957210463
  1

 90
        0
  0
LAYOUT
  5
1E
102
{ACAD_REACTORS
330
1A
102
}
330
1A
100
AcDbPlotSettings
  1

  2
none_device
  4

  6

 40
0.0
 41
0.0
 42
0.0
 43
0.0
 44
0.0
 45
0.0
 46
0.0
 47
0.0
 48
0.0
 49
0.0
140
0.0
141
0.0
142
1.0
143
1.0
 70
   688
 72
     0
 73
     0
 74
     5
  7

 75
    16
147
1.0
148
0.0
149
0.0
100
AcDbLayout
  1
Layout1
 70
     1
 71
     1
 10
0.0
 20
0.0
 11
12.0
 21
9.0
 12
0.0
 22
0.0
 32
0.0
 14
1.0000000000E+20
 24
1.0000000000E+20
 34
1.0000000000E+20
 15
-1.0000000000E+20
 25
-1.0000000000E+20
 35
-1.0000000000E+20
146
0.0
 13
0.0
 23
0.0
 33
0.0
 16
1.0
 26
0.0
 36
0.0
 17
0.0
 27
1.0
 37
0.0
 76
     0
330
1B
  0
LAYOUT
  5
26
102
{ACAD_REACTORS
330
1A
102
}
330
1A
100
AcDbPlotSettings
  1

  2
none_device
  4

  6

 40
0.0
 41
0.0
 42
0.0
 43
0.0
 44
0.0
 45
0.0
 46
0.0
 47
0.0
 48
0.0
 49
0.0
140
0.0
141
0.0
142
1.0
143
1.0
 70
   688
 72
     0
 73
     0
 74
     5
  7

 75
    16
147
1.0
148
0.0
149
0.0
100
AcDbLayout
  1
Layout2
 70
     1
 71
     2
 10
0.0
 20
0.0
 11
0.0
 21
0.0
 12
0.0
 22
0.0
 32
0.0
 14
0.0
 24
0.0
 34
0.0
 15
0.0
 25
0.0
 35
0.0
146
0.0
 13
0.0
 23
0.0
 33
0.0
 16
1.0
 26
0.0
 36
0.0
 17
0.0
 27
1.0
 37
0.0
 76
     0
330
23
  0
LAYOUT
  5
22
102
{ACAD_REACTORS
330
1A
102
}
330
1A
100
AcDbPlotSettings
  1

  2
none_device
  4
Letter_(8.50_x_11.00_Inches)
  6

 40
6.35
 41
6.35
 42
6.35000508
 43
6.35000508
 44
215.9
 45
279.4
 46
0.0
 47
0.0
 48
0.0
 49
0.0
140
0.0
141
0.0
142
1.0
143
1.0
 70
  1712
 72
     0
 73
     0
 74
     0
  7

 75
     0
147
1.0
148
0.0
149
0.0
100
AcDbLayout
  1
Model
 70
     1
 71
     0
 10
0.0
 20
0.0
 11
24.0
 21
12.0
 12
0.0
 22
0.0
 32
0.0
 14
0.0
 24
0.0
 34
0.0
 15
24.0
 25
12.0
 35
0.0
146
0.0
 13
0.0
 23
0.0
 33
0.0
 16
1.0
 26
0.0
 36
0.0
 17
0.0
 27
1.0
 37
0.0
 76
     0
330
1F
331
29
  0
MLINESTYLE
  5
18
102
{ACAD_REACTORS
330
17
102
}
330
17
100
AcDbMlineStyle
  2
Standard
 70
     0
  3

 62
   256
 51
90.0
 52
90.0
 71
     2
 49
0.5
 62
   256
  6
BYLAYER
 49
-0.5
 62
   256
  6
BYLAYER
  0
ACDBPLACEHOLDER
  5
F
102
{ACAD_REACTORS
330
E
102
}
330
E
  0
SCALE
  5
48
102
{ACAD_REACTORS
330
47
102
}
330
47
100
AcDbScale
 70
     0
300
1:1
140
1.0
141
1.0
290
     1
  0
SCALE
  5
49
102
{ACAD_REACTORS
330
47
102
}
330
47
100
AcDbScale
 70
     0
300
1/128" = 1'-0"
140
0.0078125
141
12.0
290
     0
  0
SCALE
  5
4A
102
{ACAD_REACTORS
330
47
102
}
330
47
100
AcDbScale
 70
     0
300
1/64" = 1'-0"
140
0.015625
141
12.0
290
     0
  0
SCALE
  5
4B
102
{ACAD_REACTORS
330
47
102
}
330
47
100
AcDbScale
 70
     0
300
1/32" = 1'-0"
140
0.03125
141
12.0
290
     0
  0
SCALE
  5
4C
102
{ACAD_REACTORS
330
47
102
}
330
47
100
AcDbScale
 70
     0
300
1/16" = 1'-0"
140
0.0625
141
12.0
290
     0
  0
SCALE
  5
4D
102
{ACAD_REACTORS
330
47
102
}
330
47
100
AcDbScale
 70
     0
300
3/32" = 1'-0"
140
0.09375
141
12.0
290
     0
  0
SCALE
  5
4E
102
{ACAD_REACTORS
330
47
102
}
330
47
100
AcDbScale
 70
     0
300
1/8" = 1'-0"
140
0.125
141
12.0
290
     0
  0
SCALE
  5
4F
102
{ACAD_REACTORS
330
47
102
}
330
47
100
AcDbScale
 70
     0
300
3/16" = 1'-0"
140
0.1875
141
12.0
290
     0
  0
SCALE
  5
50
102
{ACAD_REACTORS
330
47
102
}
330
47
100
AcDbScale
 70
     0
300
1/4" = 1'-0"
140
0.25
141
12.0
290
     0
  0
SCALE
  5
51
102
{ACAD_REACTORS
330
47
102
}
330
47
100
AcDbScale
 70
     0
300
3/8" = 1'-0"
140
0.375
141
12.0
290
     0
  0
SCALE
  5
52
102
{ACAD_REACTORS
330
47
102
}
330
47
100
AcDbScale
 70
     0
300
1/2" = 1'-0"
140
0.5
141
12.0
290
     0
  0
SCALE
  5
53
102
{ACAD_REACTORS
330
47
102
}
330
47
100
AcDbScale
 70
     0
300
3/4" = 1'-0"
140
0.75
141
12.0
290
     0
  0
SCALE
  5
54
102
{ACAD_REACTORS
330
47
102
}
330
47
100
AcDbScale
 70
     0
300
1" = 1'-0"
140
1.0
141
12.0
290
     0
  0
SCALE
  5
55
102
{ACAD_REACTORS
330
47
102
}
330
47
100
AcDbScale
 70
     0
300
1-1/2" = 1'-0"
140
1.5
141
12.0
290
     0
  0
SCALE
  5
56
102
{ACAD_REACTORS
330
47
102
}
330
47
100
AcDbScale
 70
     0
300
3" = 1'-0"
140
3.0
141
12.0
290
     0
  0
SCALE
  5
57
102
{ACAD_REACTORS
330
47
102
}
330
47
100
AcDbScale
 70
     0
300
6" = 1'-0"
140
6.0
141
12.0
290
     0
  0
SCALE
  5
58
102
{ACAD_REACTORS
330
47
102
}
330
47
100
AcDbScale
 70
     0
300
1'-0" = 1'-0"
140
12.0
141
12.0
290
     0
  0
ENDSEC
  0
EOF
