  0
SECTION
  2
HEADER
  9
$ACADVER
  1
AC1015
  9
$ACADMAINTVER
 70
     6
  9
$DWGCODEPAGE
  3
ANSI_1252
  9
$INSBASE
 10
0.0
 20
0.0
 30
0.0
  9
$EXTMIN
 10
0.0
 20
0.0
 30
0.0
  9
$EXTMAX
 10
24.0
 20
12.0
 30
0.0
  9
$LIMMIN
 10
0.0
 20
0.0
  9
$LIMMAX
 10
24.0
 20
12.0
  9
$ORTHOMODE
 70
     0
  9
$REGENMODE
 70
     1
  9
$FILLMODE
 70
     1
  9
$QTEXTMODE
 70
     0
  9
$MIRRTEXT
 70
     1
  9
$LTSCALE
 40
1.0
  9
$ATTMODE
 70
     1
  9
$TEXTSIZE
 40
0.125
  9
$TRACEWID
 40
0.05
  9
$TEXTSTYLE
  7
Standard
  9
$CLAYER
  8
0
  9
$CELTYPE
  6
ByLayer
  9
$CECOLOR
 62
   256
  9
$CELTSCALE
 40
1.0
  9
$DISPSILH
 70
     0
  9
$DIMSCALE
 40
1.0
  9
$DIMASZ
 40
0.13
  9
$DIMEXO
 40
0.05
  9
$DIMDLI
 40
0.38
  9
$DIMRND
 40
0.0
  9
$DIMDLE
 40
0.0
  9
$DIMEXE
 40
0.125
  9
$DIMTP
 40
0.0
  9
$DIMTM
 40
0.0
  9
$DIMTXT
 40
0.125
  9
$DIMCEN
 40
0.09
  9
$DIMTSZ
 40
0.0
  9
$DIMTOL
 70
     0
  9
$DIMLIM
 70
     0
  9
$DIMTIH
 70
     1
  9
$DIMTOH
 70
     1
  9
$DIMSE1
 70
     0
  9
$DIMSE2
 70
     0
  9
$DIMTAD
 70
     0
  9
$DIMZIN
 70
     1
  9
$DIMBLK
  1

  9
$DIMASO
 70
     1
  9
$DIMSHO
 70
     1
  9
$DIMPOST
  1

  9
$DIMAPOST
  1

  9
$DIMALT
 70
     0
  9
$DIMALTD
 70
     2
  9
$DIMALTF
 40
25.4
  9
$DIMLFAC
 40
1.0
  9
$DIMTOFL
 70
     0
  9
$DIMTVP
 40
0.0
  9
$DIMTIX
 70
     0
  9
$DIMSOXD
 70
     0
  9
$DIMSAH
 70
     0
  9
$DIMBLK1
  1

  9
$DIMBLK2
  1

  9
$DIMSTYLE
  2
Standard
  9
$DIMCLRD
 70
     0
  9
$DIMCLRE
 70
     0
  9
$DIMCLRT
 70
     0
  9
$DIMTFAC
 40
1.0
  9
$DIMGAP
 40
0.06
  9
$DIMJUST
 70
     0
  9
$DIMSD1
 70
     0
  9
$DIMSD2
 70
     0
  9
$DIMTOLJ
 70
     1
  9
$DIMTZIN
 70
     1
  9
$DIMALTZ
 70
     0
  9
$DIMALTTZ
 70
     0
  9
$DIMUPT
 70
     0
  9
$DIMDEC
 70
     2
  9
$DIMTDEC
 70
     2
  9
$DIMALTU
 70
     2
  9
$DIMALTTD
 70
     2
  9
$DIMTXSTY
  7
Standard
  9
$DIMAUNIT
 70
     0
  9
$DIMADEC
 70
     2
  9
$DIMALTRND
 40
0.0
  9
$DIMAZIN
 70
     0
  9
$DIMDSEP
 70
    46
  9
$DIMATFIT
 70
     3
  9
$DIMFRAC
 70
     0
  9
$DIMLDRBLK
  1

  9
$DIMLUNIT
 70
     2
  9
$DIMLWD
 70
    -2
  9
$DIMLWE
 70
    -2
  9
$DIMTMOVE
 70
     0
  9
$LUNITS
 70
     2
  9
$LUPREC
 70
     6
  9
$SKETCHINC
 40
0.1
  9
$FILLETRAD
 40
0.0
  9
$AUNITS
 70
     0
  9
$AUPREC
 70
     2
  9
$MENU
  1
.
  9
$ELEVATION
 40
0.0
  9
$PELEVATION
 40
0.0
  9
$THICKNESS
 40
0.0
  9
$LIMCHECK
 70
     0
  9
$CHAMFERA
 40
0.0
  9
$CHAMFERB
 40
0.0
  9
$CHAMFERC
 40
0.0
  9
$CHAMFERD
 40
0.0
  9
$SKPOLY
 70
     0
  9
$TDCREATE
 40
2460784.667313588
  9
$TDUCREATE
 40
2460784.958980255
  9
$TDUPDATE
 40
2460784.667313947
  9
$TDUUPDATE
 40
2460784.958980614
  9
$TDINDWG
 40
0.0000000116
  9
$TDUSRTIMER
 40
0.0000000116
  9
$USRTIMER
 70
     1
  9
$ANGBASE
 50
0.0
  9
$ANGDIR
 70
     0
  9
$PDMODE
 70
     0
  9
$PDSIZE
 40
-1.0
  9
$PLINEWID
 40
0.0
  9
$SPLFRAME
 70
     0
  9
$SPLINETYPE
 70
     6
  9
$SPLINESEGS
 70
     8
  9
$HANDSEED
  5
F2
  9
$SURFTAB1
 70
     6
  9
$SURFTAB2
 70
     6
  9
$SURFTYPE
 70
     6
  9
$SURFU
 70
     6
  9
$SURFV
 70
     6
  9
$UCSBASE
  2

  9
$UCSNAME
  2

  9
$UCSORG
 10
0.0
 20
0.0
 30
0.0
  9
$UCSXDIR
 10
1.0
 20
0.0
 30
0.0
  9
$UCSYDIR
 10
0.0
 20
1.0
 30
0.0
  9
$UCSORTHOREF
  2

  9
$UCSORTHOVIEW
 70
     0
  9
$UCSORGTOP
 10
0.0
 20
0.0
 30
0.0
  9
$UCSORGBOTTOM
 10
0.0
 20
0.0
 30
0.0
  9
$UCSORGLEFT
 10
0.0
 20
0.0
 30
0.0
  9
$UCSORGRIGHT
 10
0.0
 20
0.0
 30
0.0
  9
$UCSORGFRONT
 10
0.0
 20
0.0
 30
0.0
  9
$UCSORGBACK
 10
0.0
 20
0.0
 30
0.0
  9
$PUCSBASE
  2

  9
$PUCSNAME
  2

  9
$PUCSORG
 10
0.0
 20
0.0
 30
0.0
  9
$PUCSXDIR
 10
1.0
 20
0.0
 30
0.0
  9
$PUCSYDIR
 10
0.0
 20
1.0
 30
0.0
  9
$PUCSORTHOREF
  2

  9
$PUCSORTHOVIEW
 70
     0
  9
$PUCSORGTOP
 10
0.0
 20
0.0
 30
0.0
  9
$PUCSORGBOTTOM
 10
0.0
 20
0.0
 30
0.0
  9
$PUCSORGLEFT
 10
0.0
 20
0.0
 30
0.0
  9
$PUCSORGRIGHT
 10
0.0
 20
0.0
 30
0.0
  9
$PUCSORGFRONT
 10
0.0
 20
0.0
 30
0.0
  9
$PUCSORGBACK
 10
0.0
 20
0.0
 30
0.0
  9
$USERI1
 70
     0
  9
$USERI2
 70
     0
  9
$USERI3
 70
     0
  9
$USERI4
 70
     0
  9
$USERI5
 70
     0
  9
$USERR1
 40
0.0
  9
$USERR2
 40
0.0
  9
$USERR3
 40
0.0
  9
$USERR4
 40
0.0
  9
$USERR5
 40
0.0
  9
$WORLDVIEW
 70
     1
  9
$SHADEDGE
 70
     3
  9
$SHADEDIF
 70
    70
  9
$TILEMODE
 70
     1
  9
$MAXACTVP
 70
    64
  9
$PINSBASE
 10
0.0
 20
0.0
 30
0.0
  9
$PLIMCHECK
 70
     0
  9
$PEXTMIN
 10
1.0000000000E+20
 20
1.0000000000E+20
 30
1.0000000000E+20
  9
$PEXTMAX
 10
-1.0000000000E+20
 20
-1.0000000000E+20
 30
-1.0000000000E+20
  9
$PLIMMIN
 10
0.0
 20
0.0
  9
$PLIMMAX
 10
12.0
 20
9.0
  9
$UNITMODE
 70
     0
  9
$VISRETAIN
 70
     1
  9
$PLINEGEN
 70
     0
  9
$PSLTSCALE
 70
     1
  9
$TREEDEPTH
 70
  3020
  9
$CMLSTYLE
  2
Standard
  9
$CMLJUST
 70
     0
  9
$CMLSCALE
 40
1.0
  9
$PROXYGRAPHICS
 70
     1
  9
$MEASUREMENT
 70
     0
  9
$CELWEIGHT
370
    -1
  9
$ENDCAPS
280
     0
  9
$JOINSTYLE
280
     0
  9
$LWDISPLAY
290
     1
  9
$INSUNITS
 70
     1
  9
$HYPERLINKBASE
  1

  9
$STYLESHEET
  1

  9
$XEDIT
290
     1
  9
$CEPSNTYPE
380
     0
  9
$PSTYLEMODE
290
     1
  9
$FINGERPRINTGUID
  2
{751295a4-0973-4266-8425-e4ff3a778239}
  9
$VERSIONGUID
  2
{FAEB1C32-E019-11D5-929B-00C0DF256EC4}
  9
$EXTNAMES
290
     1
  9
$PSVPSCALE
 40
0.0
  9
$OLESTARTUP
290
     0
  0
ENDSEC
  0
SECTION
  2
CLASSES
  0
CLASS
  1
ACDBDICTIONARYWDFLT
  2
AcDbDictionaryWithDefault
  3
ObjectDBX Classes
 90
        0
280
     0
281
     0
  0
CLASS
  1
VISUALSTYLE
  2
AcDbVisualStyle
  3
ObjectDBX Classes
 90
     4095
280
     0
281
     0
  0
CLASS
  1
MATERIAL
  2
AcDbMaterial
  3
ObjectDBX Classes
 90
     1153
280
     0
281
     0
  0
CLASS
  1
SCALE
  2
AcDbScale
  3
ObjectDBX Classes
 90
     1153
280
     0
281
     0
  0
CLASS
  1
TABLESTYLE
  2
AcDbTableStyle
  3
ObjectDBX Classes
 90
     4095
280
     0
281
     0
  0
CLASS
  1
MLEADERSTYLE
  2
AcDbMLeaderStyle
  3
ACDB_MLEADERSTYLE_CLASS
 90
     4095
280
     0
281
     0
  0
CLASS
  1
SUN
  2
AcDbSun
  3
SCENEOE
 90
     1153
280
     0
281
     0
  0
CLASS
  1
ACDBPLACEHOLDER
  2
AcDbPlaceHolder
  3
ObjectDBX Classes
 90
        0
280
     0
281
     0
  0
CLASS
  1
LAYOUT
  2
AcDbLayout
  3
ObjectDBX Classes
 90
        0
280
     0
281
     0
  0
ENDSEC
  0
SECTION
  2
TABLES
  0
TABLE
  2
VPORT
  5
8
330
0
100
AcDbSymbolTable
 70
     1
  0
VPORT
  5
29
330
8
100
AcDbSymbolTableRecord
100
AcDbViewportTableRecord
  2
*Active
 70
     0
 10
0.0
 20
0.0
 11
1.0
 21
1.0
 12
12.0
 22
6.0
 13
0.0
 23
0.0
 14
0.5
 24
0.5
 15
0.5
 25
0.5
 16
0.0
 26
0.0
 36
1.0
 17
0.0
 27
0.0
 37
0.0
 40
12.0
 41
2.0
 42
50.0
 43
0.0
 44
0.0
 50
0.0
 51
0.0
 71
     0
 72
  2000
 73
     1
 74
     3
 75
     0
 76
     0
 77
     0
 78
     0
281
     0
 65
     1
110
0.0
120
0.0
130
0.0
111
1.0
121
0.0
131
0.0
112
0.0
122
1.0
132
0.0
 79
     0
146
0.0
  0
ENDTAB
  0
TABLE
  2
LTYPE
  5
5
330
0
100
AcDbSymbolTable
 70
     6
  0
LTYPE
  5
14
330
5
100
AcDbSymbolTableRecord
100
AcDbLinetypeTableRecord
  2
ByBlock
 70
     0
  3

 72
    65
 73
     0
 40
0.0
  0
LTYPE
  5
15
330
5
100
AcDbSymbolTableRecord
100
AcDbLinetypeTableRecord
  2
ByLayer
 70
     0
  3

 72
    65
 73
     0
 40
0.0
  0
LTYPE
  5
16
330
5
100
AcDbSymbolTableRecord
100
AcDbLinetypeTableRecord
  2
Continuous
 70
     0
  3
Solid line
 72
    65
 73
     0
 40
0.0
  0
LTYPE
  5
5E
330
5
100
AcDbSymbolTableRecord
100
AcDbLinetypeTableRecord
  2
HIDDEN
 70
     0
  3
Hidden __ __ __ __ __ __ __ __ __ __ __ __ __ __
 72
    65
 73
     2
 40
0.075
 49
0.05
 74
     0
 49
-0.025
 74
     0
  0
LTYPE
  5
5F
330
5
100
AcDbSymbolTableRecord
100
AcDbLinetypeTableRecord
  2
PHANTOM
 70
     0
  3
Phantom ______  __  __  ______  __  __  ______
 72
    65
 73
     6
 40
0.5
 49
0.25
 74
     0
 49
-0.05
 74
     0
 49
0.05
 74
     0
 49
-0.05
 74
     0
 49
0.05
 74
     0
 49
-0.05
 74
     0
  0
LTYPE
  5
60
330
5
100
AcDbSymbolTableRecord
100
AcDbLinetypeTableRecord
  2
CENTER
 70
     0
  3
Center ____ _ ____ _ ____ _ ____ _ ____ _ ____
 72
    65
 73
     4
 40
0.4
 49
0.25
 74
     0
 49
-0.05
 74
     0
 49
0.05
 74
     0
 49
-0.05
 74
     0
  0
LTYPE
  5
61
330
5
100
AcDbSymbolTableRecord
100
AcDbLinetypeTableRecord
  2
CENTERX2
 70
     0
  3
Center (2x) ________  __  ________  __  _____
 72
    65
 73
     4
 40
0.8
 49
0.5
 74
     0
 49
-0.1
 74
     0
 49
0.1
 74
     0
 49
-0.1
 74
     0
  0
LTYPE
  5
62
330
5
100
AcDbSymbolTableRecord
100
AcDbLinetypeTableRecord
  2
DOT2
 70
     0
  3
Dot (.5x) ........................................
 72
    65
 73
     2
 40
0.025
 49
0.0
 74
     0
 49
-0.025
 74
     0
  0
ENDTAB
  0
TABLE
  2
LAYER
  5
2
330
0
100
AcDbSymbolTable
 70
     3
  0
LAYER
  5
10
330
2
100
AcDbSymbolTableRecord
100
AcDbLayerTableRecord
  2
0
 70
     0
 62
     7
  6
Continuous
370
    -3
390
F
  0
LAYER
  5
63
330
2
100
AcDbSymbolTableRecord
100
AcDbLayerTableRecord
  2
FORMAT
 70
     0
 62
     7
  6
Continuous
370
    -3
390
F
  0
LAYER
  5
64
330
2
100
AcDbSymbolTableRecord
100
AcDbLayerTableRecord
  2
PART_NAMES
 70
     0
 62
     1
  6
Continuous
370
    -3
390
F
  0
ENDTAB
  0
TABLE
  2
STYLE
  5
3
330
0
100
AcDbSymbolTable
 70
     3
  0
STYLE
  5
11
330
3
100
AcDbSymbolTableRecord
100
AcDbTextStyleTableRecord
  2
Standard
 70
     0
 40
0.0
 41
1.0
 50
0.0
 71
     0
 42
0.125
  3
txt
  4

  0
STYLE
  5
EB
330
3
100
AcDbSymbolTableRecord
100
AcDbTextStyleTableRecord
  2
SLDTEXTSTYLE0
 70
     0
 40
0.0
 41
0.75
 50
0.0
 71
     0
 42
0.125
  3
TXT
  4

  0
STYLE
  5
EE
330
3
100
AcDbSymbolTableRecord
100
AcDbTextStyleTableRecord
  2
SLDTEXTSTYLE1
 70
     0
 40
0.0
 41
0.7
 50
0.0
 71
     0
 42
0.125
  3
TXT
  4

  0
ENDTAB
  0
TABLE
  2
VIEW
  5
6
330
0
100
AcDbSymbolTable
 70
     0
  0
ENDTAB
  0
TABLE
  2
UCS
  5
7
330
0
100
AcDbSymbolTable
 70
     0
  0
ENDTAB
  0
TABLE
  2
APPID
  5
9
330
0
100
AcDbSymbolTable
 70
     1
  0
APPID
  5
12
330
9
100
AcDbSymbolTableRecord
100
AcDbRegAppTableRecord
  2
ACAD
 70
     0
  0
ENDTAB
  0
TABLE
  2
DIMSTYLE
  5
A
330
0
100
AcDbSymbolTable
 70
     1
100
AcDbDimStyleTable
  0
DIMSTYLE
105
27
330
A
100
AcDbSymbolTableRecord
100
AcDbDimStyleTableRecord
  2
Standard
 70
     0
178
     0
340
11
  0
ENDTAB
  0
TABLE
  2
BLOCK_RECORD
  5
1
330
0
100
AcDbSymbolTable
 70
     1
  0
BLOCK_RECORD
  5
1F
330
1
100
AcDbSymbolTableRecord
100
AcDbBlockTableRecord
  2
*Model_Space
340
22
  0
BLOCK_RECORD
  5
1B
330
1
100
AcDbSymbolTableRecord
100
AcDbBlockTableRecord
  2
*Paper_Space
340
1E
  0
BLOCK_RECORD
  5
23
330
1
100
AcDbSymbolTableRecord
100
AcDbBlockTableRecord
  2
*Paper_Space0
340
26
  0
ENDTAB
  0
ENDSEC
  0
SECTION
  2
BLOCKS
  0
BLOCK
  5
20
330
1F
100
AcDbEntity
  8
0
100
AcDbBlockBegin
  2
*Model_Space
 70
     0
 10
0.0
 20
0.0
 30
0.0
  3
*Model_Space
  1

  0
ENDBLK
  5
21
330
1F
100
AcDbEntity
  8
0
100
AcDbBlockEnd
  0
BLOCK
  5
1C
330
1B
100
AcDbEntity
 67
     1
  8
0
100
AcDbBlockBegin
  2
*Paper_Space
 70
     0
 10
0.0
 20
0.0
 30
0.0
  3
*Paper_Space
  1

  0
ENDBLK
  5
1D
330
1B
100
AcDbEntity
 67
     1
  8
0
100
AcDbBlockEnd
  0
BLOCK
  5
24
330
23
100
AcDbEntity
  8
0
100
AcDbBlockBegin
  2
*Paper_Space0
 70
     0
 10
0.0
 20
0.0
 30
0.0
  3
*Paper_Space0
  1

  0
ENDBLK
  5
25
330
23
100
AcDbEntity
  8
0
100
AcDbBlockEnd
  0
ENDSEC
  0
SECTION
  2
ENTITIES
  0
LINE
  5
65
330
1F
100
AcDbEntity
  8
0
  6
CENTERX2
 62
     7
370
    18
100
AcDbLine
 10
0.25
 20
0.25
 30
0.0
 11
0.25
 21
11.75
 31
0.0
  0
LINE
  5
66
330
1F
100
AcDbEntity
  8
0
  6
CENTERX2
 62
     7
370
    18
100
AcDbLine
 10
0.25
 20
0.25
 30
0.0
 11
23.75
 21
0.25
 31
0.0
  0
LINE
  5
67
330
1F
100
AcDbEntity
  8
0
  6
CENTERX2
 62
     7
370
    18
100
AcDbLine
 10
23.75
 20
0.25
 30
0.0
 11
23.75
 21
11.75
 31
0.0
  0
LINE
  5
68
330
1F
100
AcDbEntity
  8
0
  6
CENTERX2
 62
     7
370
    18
100
AcDbLine
 10
23.75
 20
11.75
 30
0.0
 11
0.25
 21
11.75
 31
0.0
  0
CIRCLE
  5
69
330
1F
100
AcDbEntity
  8
0
  6
Continuous
 62
     7
370
    25
100
AcDbCircle
 10
7.7100272148
 20
10.100736713
 30
0.0
 40
0.1249999999999964
  0
CIRCLE
  5
6A
330
1F
100
AcDbEntity
  8
0
  6
Continuous
 62
     7
370
    25
100
AcDbCircle
 10
8.7100272148
 20
10.100736713
 30
0.0
 40
0.1249999999999964
  0
CIRCLE
  5
6B
330
1F
100
AcDbEntity
  8
0
  6
Continuous
 62
     7
370
    25
100
AcDbCircle
 10
8.7100272148
 20
8.850736713
 30
0.0
 40
0.1249999999999964
  0
CIRCLE
  5
6C
330
1F
100
AcDbEntity
  8
0
  6
Continuous
 62
     7
370
    25
100
AcDbCircle
 10
7.7100272148
 20
8.850736713
 30
0.0
 40
0.1249999999999964
  0
CIRCLE
  5
6D
330
1F
100
AcDbEntity
  8
0
  6
Continuous
 62
     7
370
    25
100
AcDbCircle
 10
15.7100272148
 20
8.850736713
 30
0.0
 40
0.1250000000000071
  0
CIRCLE
  5
6E
330
1F
100
AcDbEntity
  8
0
  6
Continuous
 62
     7
370
    25
100
AcDbCircle
 10
14.7100272148
 20
8.850736713
 30
0.0
 40
0.1250000000000071
  0
LINE
  5
6F
330
1F
100
AcDbEntity
  8
0
  6
Continuous
 62
     7
370
    25
100
AcDbLine
 10
14.1100272148
 20
10.0767275336
 30
0.0
 11
14.1100272148
 21
8.5497873946
 31
0.0
  0
SPLINE
  5
70
330
1F
100
AcDbEntity
  8
0
  6
Continuous
 62
     7
370
    25
100
AcDbSpline
210
0.0
220
0.0
230
1.0
 70
     8
 71
     3
 72
     8
 73
     4
 74
     0
 42
0.00000001
 43
0.00000001
 40
0.4342616481943722
 40
0.4342616481943722
 40
0.4342616481943722
 40
0.4342616481943722
 40
0.4437225004595231
 40
0.4437225004595231
 40
0.4437225004595231
 40
0.4437225004595231
 10
13.9850272147682
 20
10.09519605443138
 30
0.0
 10
14.0267024529844
 20
10.08909910962733
 30
0.0
 10
14.06836915631542
 20
10.08294318937234
 30
0.0
 10
14.11002721476821
 20
10.07672753362225
 30
0.0
  0
LINE
  5
71
330
1F
100
AcDbEntity
  8
0
  6
Continuous
 62
     7
370
    25
100
AcDbLine
 10
13.9850272148
 20
8.5477661215
 30
0.0
 11
13.9850272148
 21
10.0951960544
 31
0.0
  0
SPLINE
  5
72
330
1F
100
AcDbEntity
  8
0
  6
Continuous
 62
     7
370
    25
100
AcDbSpline
210
0.0
220
0.0
230
1.0
 70
     8
 71
     3
 72
    10
 73
     6
 74
     0
 42
0.00000001
 43
0.00000001
 40
0.6215809582201994
 40
0.6215809582201994
 40
0.6215809582201994
 40
0.6215809582201994
 40
0.6263583336391461
 40
0.6263583336391461
 40
0.6297773754189471
 40
0.6297773754189471
 40
0.6297773754189471
 40
0.6297773754189471
 10
14.1100272147677
 20
8.549787394572355
 30
0.0
 10
14.08574169363018
 20
8.549384143798845
 30
0.0
 10
14.06145595710745
 20
8.548987049568376
 30
0.0
 10
14.01978919009853
 20
8.548316295700365
 30
0.0
 10
14.0024082582493
 20
8.548039640651147
 30
0.0
 10
13.98502721476783
 20
8.54776612153136
 30
0.0
  0
SPLINE
  5
73
330
1F
100
AcDbEntity
  8
0
  6
Continuous
 62
     7
370
    25
100
AcDbSpline
210
0.0
220
0.0
230
1.0
 70
     8
 71
     3
 72
    28
 73
    24
 74
     0
 42
0.00000001
 43
0.00000001
 40
0.0
 40
0.0
 40
0.0
 40
0.0
 40
0.1250000000000109
 40
0.1250000000000109
 40
0.1875000000000163
 40
0.1875000000000163
 40
0.2500000000000218
 40
0.2500000000000218
 40
0.3750000000000296
 40
0.3750000000000296
 40
0.437500000000034
 40
0.437500000000034
 40
0.5000000000000384
 40
0.5000000000000384
 40
0.6250000000000285
 40
0.6250000000000285
 40
0.6875000000000236
 40
0.6875000000000236
 40
0.7500000000000188
 40
0.7500000000000188
 40
0.8750000000000094
 40
0.8750000000000094
 40
1.0
 40
1.0
 40
1.0
 40
1.0
 10
3.767503083209563
 20
8.9013814551137
 30
0.0
 10
3.768750298073601
 20
8.856326673337469
 30
0.0
 10
3.773468396163937
 20
8.811927125737059
 30
0.0
 10
3.786330778836432
 20
8.746419942501797
 30
0.0
 10
3.791585667231607
 20
8.724766845955196
 30
0.0
 10
3.804173788863706
 20
8.681853003304441
 30
0.0
 10
3.81155562775663
 20
8.660476693397836
 30
0.0
 10
3.836722814454936
 20
8.597878081968997
 30
0.0
 10
3.857339487199159
 20
8.558485287464594
 30
0.0
 10
3.893944258558034
 20
8.502857937338405
 30
0.0
 10
3.907094670355795
 20
8.484893798340174
 30
0.0
 10
3.93530582381932
 20
8.450129875325965
 30
0.0
 10
3.950450340183155
 20
8.433255905606995
 30
0.0
 10
3.997802276779374
 20
8.385347778984933
 30
0.0
 10
4.032074154365259
 20
8.356749637688292
 30
0.0
 10
4.087022013147759
 20
8.318226039210336
 30
0.0
 10
4.105967049563236
 20
8.306095843691319
 30
0.0
 10
4.144826267596669
 20
8.283317135704076
 30
0.0
 10
4.164573305298105
 20
8.272761243367878
 30
0.0
 10
4.2246649502816
 20
8.243326778869323
 30
0.0
 10
4.26585503445979
 20
8.226668146520586
 30
0.0
 10
4.350117410579704
 20
8.19829293047152
 30
0.0
 10
4.39319207133298
 20
8.186582566478886
 30
0.0
 10
4.437091893962947
 20
8.177038801847008
 30
0.0
  0
SPLINE
  5
74
330
1F
100
AcDbEntity
  8
0
  6
Continuous
 62
     7
370
    25
100
AcDbSpline
210
0.0
220
0.0
230
1.0
 70
     8
 71
     3
 72
    46
 73
    42
 74
     0
 42
0.00000001
 43
0.00000001
 40
0.0
 40
0.0
 40
0.0
 40
0.0
 40
0.0624999999999993
 40
0.0624999999999993
 40
0.1249999999999985
 40
0.1249999999999985
 40
0.1874999999999978
 40
0.1874999999999978
 40
0.2187500000000006
 40
0.2187500000000006
 40
0.2500000000000036
 40
0.2500000000000036
 40
0.3750000000000093
 40
0.3750000000000093
 40
0.4375000000000123
 40
0.4375000000000123
 40
0.4687500000000137
 40
0.4687500000000137
 40
0.5000000000000151
 40
0.5000000000000151
 40
0.5625000000000181
 40
0.5625000000000181
 40
0.5937500000000171
 40
0.5937500000000171
 40
0.625000000000016
 40
0.625000000000016
 40
0.6875000000000147
 40
0.6875000000000147
 40
0.7500000000000132
 40
0.7500000000000132
 40
0.812500000000012
 40
0.812500000000012
 40
0.8437500000000102
 40
0.8437500000000102
 40
0.8750000000000083
 40
0.8750000000000083
 40
0.9375000000000048
 40
0.9375000000000048
 40
0.9687500000000023
 40
0.9687500000000023
 40
1.0
 40
1.0
 40
1.0
 40
1.0
 10
6.587033985556944
 20
11.17833142501103
 30
0.0
 10
6.503961682588192
 20
11.17848549239797
 30
0.0
 10
6.421632796411458
 20
11.17419071005793
 30
0.0
 10
6.258234740879251
 20
11.15806258706648
 30
0.0
 10
6.177167326261776
 20
11.14621874548798
 30
0.0
 10
6.016167069450475
 20
11.11574140910865
 30
0.0
 10
5.936235001185532
 20
11.09710328286355
 30
0.0
 10
5.817139087144098
 20
11.06434553546931
 30
0.0
 10
5.777574557880292
 20
11.0526237356256
 30
0.0
 10
5.698709868020154
 20
11.02759806718929
 30
0.0
 10
5.659482004644035
 20
11.01431429274259
 30
0.0
 10
5.465354661210125
 20
10.94450368658413
 30
0.0
 10
5.3154418321858
 20
10.87762449058223
 30
0.0
 10
5.098244052064357
 20
10.76160315835535
 30
0.0
 10
5.027135600896503
 20
10.72028725459237
 30
0.0
 10
4.922465606239775
 20
10.65423462478531
 30
0.0
 10
4.887868977410731
 20
10.63150846646101
 30
0.0
 10
4.819551089778891
 20
10.58478607539508
 30
0.0
 10
4.785877026175382
 20
10.56082449945534
 30
0.0
 10
4.68632731638402
 20
10.48711654039178
 30
0.0
 10
4.621919038553451
 20
10.43555325653965
 30
0.0
 10
4.528400697853331
 20
10.35437723477707
 30
0.0
 10
4.497744686145281
 20
10.32667869622682
 30
0.0
 10
4.437510021941837
 20
10.26994762911059
 30
0.0
 10
4.407930429815323
 20
10.24090789489041
 30
0.0
 10
4.321528231878217
 20
10.15236136720488
 30
0.0
 10
4.266809000819075
 20
10.09122934820363
 30
0.0
 10
4.163562596703544
 20
9.964451618326912
 30
0.0
 10
4.115030165207042
 20
9.898809740583916
 30
0.0
 10
4.024937718246596
 20
9.762443452347775
 30
0.0
 10
3.983365840891253
 20
9.69172768856349
 30
0.0
 10
3.927269213977082
 20
9.58108995798414
 30
0.0
 10
3.909562663588602
 20
9.543299416021421
 30
0.0
 10
3.876935929367832
 20
9.467014530240915
 30
0.0
 10
3.861980730025864
 20
9.428475489869584
 30
0.0
 10
3.821490309672031
 20
9.311580776631395
 30
0.0
 10
3.800274253987204
 20
9.231963867760399
 30
0.0
 10
3.779105374568176
 20
9.109427086845365
 30
0.0
 10
3.773833363203833
 20
9.067904200775528
 30
0.0
 10
3.76746754735839
 20
8.984791804395774
 30
0.0
 10
3.766347123401811
 20
8.943139607249297
 30
0.0
 10
3.767503083209572
 20
8.901381455113691
 30
0.0
  0
SPLINE
  5
75
330
1F
100
AcDbEntity
  8
0
  6
Continuous
 62
     7
370
    25
100
AcDbSpline
210
0.0
220
0.0
230
1.0
 70
     8
 71
     3
 72
    28
 73
    24
 74
     0
 42
0.00000001
 43
0.00000001
 40
0.0125902480413627
 40
0.0125902480413627
 40
0.0125902480413627
 40
0.0125902480413627
 40
0.1249999999999951
 40
0.1249999999999951
 40
0.2499999999999903
 40
0.2499999999999903
 40
0.2812499999999915
 40
0.2812499999999915
 40
0.3124999999999926
 40
0.3124999999999926
 40
0.3749999999999949
 40
0.3749999999999949
 40
0.4999999999999997
 40
0.4999999999999997
 40
0.5625000000000003
 40
0.5625000000000003
 40
0.625000000000001
 40
0.625000000000001
 40
0.7500000000000007
 40
0.7500000000000007
 40
0.8750000000000004
 40
0.8750000000000004
 40
1.0
 40
1.0
 40
1.0
 40
1.0
 10
21.82704805735466
 20
8.501547530234705
 30
0.0
 10
21.28415146124785
 20
8.736985272236154
 30
0.0
 10
20.73384327279928
 20
8.951236308811055
 30
0.0
 10
19.55726497446943
 20
9.362783977788979
 30
0.0
 10
18.92941534953198
 20
9.555565423890696
 30
0.0
 10
18.1355581636653
 20
9.770685840715435
 30
0.0
 10
17.97640733003846
 20
9.81239771163434
 30
0.0
 10
17.65766952723267
 20
9.893238394053233
 30
0.0
 10
17.49803802434933
 20
9.932379381769149
 30
0.0
 10
17.01839224757357
 20
10.04614228366982
 30
0.0
 10
16.69762719210236
 20
10.11710650699043
 30
0.0
 10
15.73260438610738
 20
10.31671054193416
 30
0.0
 10
15.08562764294191
 20
10.43210384508163
 30
0.0
 10
14.11067683960539
 20
10.58334022396328
 30
0.0
 10
13.785142607338
 20
10.63006677271566
 30
0.0
 10
13.13374636841695
 20
10.7167561401857
 30
0.0
 10
12.8077763425809
 20
10.75673567351741
 30
0.0
 10
11.82912635516405
 20
10.86751704752895
 30
0.0
 10
11.17570965296773
 20
10.92920088582851
 30
0.0
 10
9.867232047583716
 20
11.03221970662086
 30
0.0
 10
9.212170638440014
 20
11.07354842733239
 30
0.0
 10
7.900629953781517
 20
11.13865816109123
 30
0.0
 10
7.244150206102988
 20
11.16243333057617
 30
0.0
 10
6.587033985556944
 20
11.17833142501103
 30
0.0
  0
ARC
  5
76
330
1F
100
AcDbEntity
  8
0
  6
Continuous
 62
     7
370
    25
100
AcDbCircle
 10
21.8071547001
 20
8.4556753781
 30
0.0
 40
0.050000000000001
100
AcDbArc
 50
274.5104051187
 51
66.5550891009
  0
SPLINE
  5
77
330
1F
100
AcDbEntity
  8
0
  6
Continuous
 62
     7
370
    25
100
AcDbSpline
210
0.0
220
0.0
230
1.0
 70
     8
 71
     3
 72
    18
 73
    14
 74
     0
 42
0.00000001
 43
0.00000001
 40
0.0
 40
0.0
 40
0.0
 40
0.0
 40
0.2499999999999996
 40
0.2499999999999996
 40
0.3750000000000002
 40
0.3750000000000002
 40
0.5000000000000008
 40
0.5000000000000008
 40
0.6250000000000013
 40
0.6250000000000013
 40
0.7500000000000019
 40
0.7500000000000019
 40
0.9887010600066091
 40
0.9887010600066091
 40
0.9887010600066091
 40
0.9887010600066091
 10
4.437091893962947
 20
8.177038801847008
 30
0.0
 10
5.901512890714709
 20
8.118954495047333
 30
0.0
 10
7.36635848440151
 20
8.076680870310591
 30
0.0
 10
9.564356836977757
 20
8.040451971448498
 30
0.0
 10
10.29712097012214
 20
8.032922955106242
 30
0.0
 10
11.76254957921585
 20
8.027731921245275
 30
0.0
 10
12.4952549924645
 20
8.030069286381153
 30
0.0
 10
13.9606464133191
 20
8.045510245092636
 30
0.0
 10
14.69339909042967
 20
8.0586174815376
 30
0.0
 10
16.158214637684
 20
8.09659815552229
 30
0.0
 10
16.89034059247586
 20
8.121473507241216
 30
0.0
 10
19.01964639418568
 20
8.212521554905463
 30
0.0
 10
20.41600803581706
 20
8.295780227932104
 30
0.0
 10
21.81108670705683
 20
8.405830224684665
 30
0.0
  0
SPLINE
  5
78
330
1F
100
AcDbEntity
  8
0
  6
Continuous
 62
     7
370
    25
100
AcDbSpline
210
0.0
220
0.0
230
1.0
 70
     8
 71
     3
 72
     8
 73
     4
 74
     0
 42
0.00000001
 43
0.00000001
 40
0.1626165094536651
 40
0.1626165094536651
 40
0.1626165094536651
 40
0.1626165094536651
 40
0.1708145143987251
 40
0.1708145143987251
 40
0.1708145143987251
 40
0.1708145143987251
 10
7.110027214768201
 20
8.589279839643767
 30
0.0
 10
7.068360157926046
 20
8.590363376567081
 30
0.0
 10
7.026693491759493
 20
8.591460872286296
 30
0.0
 10
6.985027214768204
 20
8.592572273194715
 30
0.0
  0
LINE
  5
79
330
1F
100
AcDbEntity
  8
0
  6
Continuous
 62
     7
370
    25
100
AcDbLine
 10
7.1100272148
 20
10.6637574915
 30
0.0
 11
7.1100272148
 21
8.5892798396
 31
0.0
  0
SPLINE
  5
7A
330
1F
100
AcDbEntity
  8
0
  6
Continuous
 62
     7
370
    25
100
AcDbSpline
210
0.0
220
0.0
230
1.0
 70
     8
 71
     3
 72
     8
 73
     4
 74
     0
 42
0.00000001
 43
0.00000001
 40
0.9603857023422836
 40
0.9603857023422836
 40
0.9603857023422836
 40
0.9603857023422836
 40
0.9697446746305286
 40
0.9697446746305286
 40
0.9697446746305286
 40
0.9697446746305286
 10
6.985027214767714
 20
10.66751659295768
 30
0.0
 10
7.026695866789518
 20
10.66629632209507
 30
0.0
 10
7.068362538272928
 20
10.66504336777011
 30
0.0
 10
7.110027214767763
 20
10.66375749152131
 30
0.0
  0
LINE
  5
7B
330
1F
100
AcDbEntity
  8
0
  6
Continuous
 62
     7
370
    25
100
AcDbLine
 10
6.9850272148
 20
10.667516593
 30
0.0
 11
6.9850272148
 21
8.5925722732
 31
0.0
  0
SPLINE
  5
7C
330
1F
100
AcDbEntity
  8
0
  6
Continuous
 62
     7
370
    25
100
AcDbSpline
210
0.0
220
0.0
230
1.0
 70
     8
 71
     3
 72
     8
 73
     4
 74
     0
 42
0.00000001
 43
0.00000001
 40
0.0
 40
0.0
 40
0.0
 40
0.0
 40
0.1294380367804109
 40
0.1294380367804109
 40
0.1294380367804109
 40
0.1294380367804109
 10
6.479158485991269
 20
8.606745977933402
 30
0.0
 10
5.821340325499817
 20
8.626057075468838
 30
0.0
 10
5.163617669384749
 20
8.64878053383511
 30
0.0
 10
4.505984612256004
 20
8.674705354097577
 30
0.0
  0
ARC
  5
7D
330
1F
100
AcDbEntity
  8
0
  6
Continuous
 62
     7
370
    25
100
AcDbCircle
 10
6.4850272148
 20
8.8066598544
 30
0.0
 40
0.2000000000000339
100
AcDbArc
 50
268.3184916809
 51
0.0
  0
LINE
  5
7E
330
1F
100
AcDbEntity
  8
0
  6
Continuous
 62
     7
370
    25
100
AcDbLine
 10
6.6850272148
 20
8.8066598544
 30
0.0
 11
6.6850272148
 21
10.4754918461
 31
0.0
  0
SPLINE
  5
7F
330
1F
100
AcDbEntity
  8
0
  6
Continuous
 62
     7
370
    25
100
AcDbSpline
210
0.0
220
0.0
230
1.0
 70
     8
 71
     3
 72
    44
 73
    40
 74
     0
 42
0.00000001
 43
0.00000001
 40
0.0338607263668796
 40
0.0338607263668796
 40
0.0338607263668796
 40
0.0338607263668796
 40
0.0651107263668781
 40
0.0651107263668781
 40
0.0963607263668767
 40
0.0963607263668767
 40
0.1276107263668753
 40
0.1276107263668753
 40
0.1588607263668739
 40
0.1588607263668739
 40
0.2213607263668744
 40
0.2213607263668744
 40
0.2526107263668725
 40
0.2526107263668725
 40
0.2838607263668706
 40
0.2838607263668706
 40
0.3463607263668717
 40
0.3463607263668717
 40
0.4088607263668729
 40
0.4088607263668729
 40
0.471360726366874
 40
0.471360726366874
 40
0.5026107263668779
 40
0.5026107263668779
 40
0.5338607263668816
 40
0.5338607263668816
 40
0.6588607263668832
 40
0.6588607263668832
 40
0.7213607263668878
 40
0.7213607263668878
 40
0.7526107263668862
 40
0.7526107263668862
 40
0.7838607263668846
 40
0.7838607263668846
 40
0.9088607263668863
 40
0.9088607263668863
 40
0.971360726366883
 40
0.971360726366883
 40
1.0
 40
1.0
 40
1.0
 40
1.0
 10
4.267311616436503
 20
8.915217282286076
 30
0.0
 10
4.266386379946709
 20
8.948640733381337
 30
0.0
 10
4.268027528516096
 20
8.981606310171925
 30
0.0
 10
4.275238606064584
 20
9.046836521550375
 30
0.0
 10
4.280808054883541
 20
9.079101241804562
 30
0.0
 10
4.295201406058131
 20
9.143050048224207
 30
0.0
 10
4.304047549073498
 20
9.174730166385668
 30
0.0
 10
4.324578226724986
 20
9.237583999125572
 30
0.0
 10
4.336261576880579
 20
9.268736062811994
 30
0.0
 10
4.374493580883841
 20
9.360054318434257
 30
0.0
 10
4.404327114606915
 20
9.418667073214435
 30
0.0
 10
4.454238792904632
 20
9.503894680105057
 30
0.0
 10
4.471751908735729
 20
9.531847128510499
 30
0.0
 10
4.508366613252985
 20
9.586923677720634
 30
0.0
 10
4.527447028327113
 20
9.613998250254095
 30
0.0
 10
4.58637393278566
 20
9.693310153885212
 30
0.0
 10
4.628049084743775
 20
9.74391878426837
 30
0.0
 10
4.715500797577419
 20
9.841248369870767
 30
0.0
 10
4.761284054490715
 20
9.88796297799799
 30
0.0
 10
4.856575393323695
 20
9.977861478354296
 30
0.0
 10
4.906086146654869
 20
10.02104283838521
 30
0.0
 10
4.983012299109964
 20
10.08329347579771
 30
0.0
 10
5.009067166575265
 20
10.10359183148108
 30
0.0
 10
5.061694835677758
 20
10.1431041838535
 30
0.0
 10
5.088307207372804
 20
10.16235121450742
 30
0.0
 10
5.222819201088231
 20
10.25611320859398
 30
0.0
 10
5.335022372589983
 20
10.32328860629118
 30
0.0
 10
5.509897732604749
 20
10.41284575037795
 30
0.0
 10
5.569296547998561
 20
10.44081012972868
 30
0.0
 10
5.660129948815938
 20
10.47979740874482
 30
0.0
 10
5.690721261899901
 20
10.49230703255855
 30
0.0
 10
5.752039655869683
 20
10.51615143751567
 30
0.0
 10
5.782818888806299
 20
10.52751351110219
 30
0.0
 10
5.937320595118932
 20
10.58149821424601
 30
0.0
 10
6.062838224184314
 20
10.61574403208037
 30
0.0
 10
6.254368524213223
 20
10.65192914949099
 30
0.0
 10
6.318758972482788
 20
10.66143829616185
 30
0.0
 10
6.413570435401014
 20
10.67103284170472
 30
0.0
 10
6.44349459041617
 20
10.67343675792182
 30
0.0
 10
6.473563958498189
 20
10.67516306019819
 30
0.0
  0
SPLINE
  5
80
330
1F
100
AcDbEntity
  8
0
  6
Continuous
 62
     7
370
    25
100
AcDbSpline
210
0.0
220
0.0
230
1.0
 70
     8
 71
     3
 72
    22
 73
    18
 74
     0
 42
0.00000001
 43
0.00000001
 40
0.0
 40
0.0
 40
0.0
 40
0.0
 40
0.2499999999999684
 40
0.2499999999999684
 40
0.3749999999999524
 40
0.3749999999999524
 40
0.4999999999999365
 40
0.4999999999999365
 40
0.6249999999999206
 40
0.6249999999999206
 40
0.687499999999934
 40
0.687499999999934
 40
0.7499999999999476
 40
0.7499999999999476
 40
0.8749999999999735
 40
0.8749999999999735
 40
1.0
 40
1.0
 40
1.0
 40
1.0
 10
4.505984612255977
 20
8.674705354097583
 30
0.0
 10
4.476153086390702
 20
8.682779275499747
 30
0.0
 10
4.447013020706656
 20
8.692662533856552
 30
0.0
 10
4.404853197023006
 20
8.711544010097974
 30
0.0
 10
4.390989945713129
 20
8.718560833916838
 30
0.0
 10
4.364429962249281
 20
8.734192023493808
 30
0.0
 10
4.35171203520353
 20
8.742789682860307
 30
0.0
 10
4.327885119299702
 20
8.762223700441684
 30
0.0
 10
4.316663670809521
 20
8.773245046941415
 30
0.0
 10
4.302512815850987
 20
8.791423025500674
 30
0.0
 10
4.298221700896314
 20
8.797770550885438
 30
0.0
 10
4.290538546567998
 20
8.811074081063168
 30
0.0
 10
4.28713482480654
 20
8.818075887003545
 30
0.0
 10
4.278329009627045
 20
8.839667004278818
 30
0.0
 10
4.274420413438667
 20
8.854444143577362
 30
0.0
 10
4.269111700834098
 20
8.884488191229664
 30
0.0
 10
4.267739492620331
 20
8.899760548530658
 30
0.0
 10
4.267311616436503
 20
8.915217282286076
 30
0.0
  0
ARC
  5
81
330
1F
100
AcDbEntity
  8
0
  6
Continuous
 62
     7
370
    25
100
AcDbCircle
 10
18.6454373872
 20
8.9017076263
 30
0.0
 40
0.2000000000000004
100
AcDbArc
 50
272.9435917787
 51
73.7131812392
  0
SPLINE
  5
82
330
1F
100
AcDbEntity
  8
0
  6
Continuous
 62
     7
370
    25
100
AcDbSpline
210
0.0
220
0.0
230
1.0
 70
     8
 71
     3
 72
    10
 73
     6
 74
     0
 42
0.00000001
 43
0.00000001
 40
0.0824026161293118
 40
0.0824026161293118
 40
0.0824026161293118
 40
0.0824026161293118
 40
0.0886052708962036
 40
0.0886052708962036
 40
0.2562026547668895
 40
0.2562026547668895
 40
0.2562026547668895
 40
0.2562026547668895
 10
16.45154979000024
 20
9.656945936502328
 30
0.0
 10
16.47856859752985
 20
9.651211537736053
 30
0.0
 10
16.50557855440891
 20
9.645445271018401
 30
0.0
 10
17.26214766670703
 20
9.48297448181087
 30
0.0
 10
17.98561498940549
 20
9.30285001768502
 30
0.0
 10
18.70152656571173
 20
9.09368159347051
 30
0.0
  0
ARC
  5
83
330
1F
100
AcDbEntity
  8
0
  6
Continuous
 62
     7
370
    25
100
AcDbCircle
 10
16.4100272148
 20
9.4613037229
 30
0.0
 40
0.2000000000000171
100
AcDbArc
 50
78.0175027398
 51
180.0
  0
LINE
  5
84
330
1F
100
AcDbEntity
  8
0
  6
Continuous
 62
     7
370
    25
100
AcDbLine
 10
16.2100272148
 20
8.8071142315
 30
0.0
 11
16.2100272148
 21
9.4613037229
 31
0.0
  0
ARC
  5
85
330
1F
100
AcDbEntity
  8
0
  6
Continuous
 62
     7
370
    25
100
AcDbCircle
 10
16.4100272148
 20
8.8071142315
 30
0.0
 40
0.1999999999999993
100
AcDbArc
 50
180.0
 51
271.9169339111
  0
SPLINE
  5
86
330
1F
100
AcDbEntity
  8
0
  6
Continuous
 62
     7
370
    25
100
AcDbSpline
210
0.0
220
0.0
230
1.0
 70
     8
 71
     3
 72
     8
 73
     4
 74
     0
 42
0.00000001
 43
0.00000001
 40
0.781076321842188
 40
0.781076321842188
 40
0.781076321842188
 40
0.781076321842188
 40
0.9280241636922258
 40
0.9280241636922258
 40
0.9280241636922258
 40
0.9280241636922258
 10
18.65570794143663
 20
8.701971511137648
 30
0.0
 10
17.90961503070655
 20
8.663606953566179
 30
0.0
 10
17.1632782541268
 20
8.632213026408998
 30
0.0
 10
16.41671732815848
 20
8.607226156851269
 30
0.0
  0
ARC
  5
87
330
1F
100
AcDbEntity
  8
0
  6
Continuous
 62
     7
370
    25
100
AcDbCircle
 10
9.4100272148
 20
10.1068011972
 30
0.0
 40
0.2000000000000005
100
AcDbArc
 50
86.4187377049
 51
180.0
  0
LINE
  5
88
330
1F
100
AcDbEntity
  8
0
  6
Continuous
 62
     7
370
    25
100
AcDbLine
 10
9.2100272148
 20
8.9940284721
 30
0.0
 11
9.2100272148
 21
10.1068011972
 31
0.0
  0
ARC
  5
89
330
1F
100
AcDbEntity
  8
0
  6
Continuous
 62
     7
370
    25
100
AcDbCircle
 10
9.4100272148
 20
8.9940284721
 30
0.0
 40
0.1999999999999995
100
AcDbArc
 50
180.0
 51
269.2405810023
  0
SPLINE
  5
8A
330
1F
100
AcDbEntity
  8
0
  6
Continuous
 62
     7
370
    25
100
AcDbSpline
210
0.0
220
0.0
230
1.0
 70
     8
 71
     3
 72
    10
 73
     6
 74
     0
 42
0.00000001
 43
0.00000001
 40
0.5288418645352356
 40
0.5288418645352356
 40
0.5288418645352356
 40
0.5288418645352356
 40
0.603800184404611
 40
0.7066555432280833
 40
0.7967628064943191
 40
0.7967628064943191
 40
0.7967628064943191
 40
0.7967628064943191
 10
9.407376420001683
 20
8.79404603969861
 30
0.0
 10
9.78791056440583
 20
8.789002007049794
 30
0.0
 10
10.69060062564312
 20
8.78001974830615
 30
0.0
 10
12.05068023716895
 20
8.777638109442961
 30
0.0
 10
13.03014297098568
 20
8.785160499278552
 30
0.0
 10
13.48749626395255
 20
8.790807068452807
 30
0.0
  0
ARC
  5
8B
330
1F
100
AcDbEntity
  8
0
  6
Continuous
 62
     7
370
    25
100
AcDbCircle
 10
13.4850272148
 20
8.9907918274
 30
0.0
 40
0.1999999999999992
100
AcDbArc
 50
270.7073484564
 51
360.0
  0
LINE
  5
8C
330
1F
100
AcDbEntity
  8
0
  6
Continuous
 62
     7
370
    25
100
AcDbLine
 10
13.6850272148
 20
8.9907918274
 30
0.0
 11
13.6850272148
 21
9.7113838388
 31
0.0
  0
ARC
  5
8D
330
1F
100
AcDbEntity
  8
0
  6
Continuous
 62
     7
370
    25
100
AcDbCircle
 10
13.4850272148
 20
9.7113838388
 30
0.0
 40
0.2000000000000002
100
AcDbArc
 50
360.0
 51
82.2324668183
  0
SPLINE
  5
8E
330
1F
100
AcDbEntity
  8
0
  6
Continuous
 62
     7
370
    25
100
AcDbSpline
210
0.0
220
0.0
230
1.0
 70
     8
 71
     3
 72
    10
 73
     6
 74
     0
 42
0.00000001
 43
0.00000001
 40
0.0725934130803768
 40
0.0725934130803768
 40
0.0725934130803768
 40
0.0725934130803768
 40
0.1799564143380319
 40
0.2978333276012075
 40
0.3815715591160704
 40
0.3815715591160704
 40
0.3815715591160704
 40
0.3815715591160704
 10
13.5120580428806
 20
9.909548755795635
 30
0.0
 10
13.04076746308273
 20
9.973835486494226
 30
0.0
 10
12.05021843075962
 20
10.09354217658381
 30
0.0
 10
10.68508528463016
 20
10.22001456474862
 30
0.0
 10
9.793213900973322
 20
10.28321026535412
 30
0.0
 10
9.422520040140087
 20
10.30641063916787
 30
0.0
  0
ARC
  5
8F
330
1F
100
AcDbEntity
  8
0
  6
Continuous
 62
     7
370
    25
100
AcDbCircle
 10
6.4850272148
 20
10.4754918461
 30
0.0
 40
0.2000000000000162
100
AcDbArc
 50
0.0
 51
93.2857817396
  0
ARC
  5
90
330
1F
100
AcDbEntity
  8
0
  6
Continuous
 62
     7
370
    25
100
AcDbCircle
 10
20.7614651041
 20
6.0786157605
 30
0.0
 40
0.1999999999999993
100
AcDbArc
 50
315.0
 51
0.0
  0
LINE
  5
91
330
1F
100
AcDbEntity
  8
0
  6
Continuous
 62
     7
370
    25
100
AcDbLine
 10
20.7700437478
 20
5.8043516918
 30
0.0
 11
20.9028864603
 21
5.9371944043
 31
0.0
  0
ARC
  5
92
330
1F
100
AcDbEntity
  8
0
  6
Continuous
 62
     7
370
    25
100
AcDbCircle
 10
20.9114651041
 20
5.6629303355
 30
0.0
 40
0.2000000000000153
100
AcDbArc
 50
135.0
 51
180.0
  0
LINE
  5
93
330
1F
100
AcDbEntity
  8
0
  6
Continuous
 62
     7
370
    25
100
AcDbLine
 10
20.7114651041
 20
2.5665933479
 30
0.0
 11
20.7114651041
 21
5.6629303355
 31
0.0
  0
ARC
  5
94
330
1F
100
AcDbEntity
  8
0
  6
Continuous
 62
     7
370
    25
100
AcDbCircle
 10
20.6114651041
 20
2.5665933479
 30
0.0
 40
0.1000000000000085
100
AcDbArc
 50
270.0
 51
0.0
  0
LINE
  5
95
330
1F
100
AcDbEntity
  8
0
  6
Continuous
 62
     7
370
    25
100
AcDbLine
 10
1.6239651041
 20
2.4665933479
 30
0.0
 11
20.6114651041
 21
2.4665933479
 31
0.0
  0
ARC
  5
96
330
1F
100
AcDbEntity
  8
0
  6
Continuous
 62
     7
370
    25
100
AcDbCircle
 10
1.6239651041
 20
2.5665933479
 30
0.0
 40
0.1000000000000001
100
AcDbArc
 50
180.0
 51
270.0
  0
LINE
  5
97
330
1F
100
AcDbEntity
  8
0
  6
Continuous
 62
     7
370
    25
100
AcDbLine
 10
1.5239651041
 20
2.5665933479
 30
0.0
 11
1.5239651041
 21
3.41198802
 31
0.0
  0
ARC
  5
98
330
1F
100
AcDbEntity
  8
0
  6
Continuous
 62
     7
370
    25
100
AcDbCircle
 10
1.6239651041
 20
3.41198802
 30
0.0
 40
0.1000000000000039
100
AcDbArc
 50
122.7262162952
 51
180.0
  0
LINE
  5
99
330
1F
100
AcDbEntity
  8
0
  6
Continuous
 62
     7
370
    25
100
AcDbLine
 10
8.0841837835
 20
7.6824189806
 30
0.0
 11
1.5699025734
 21
3.4961143701
 31
0.0
  0
LINE
  5
9A
330
1F
100
AcDbEntity
  8
0
  6
Continuous
 62
     7
370
    25
100
AcDbLine
 10
8.3989651041
 20
7.5892692831
 30
0.0
 11
8.3989651041
 21
7.026757255
 31
0.0
  0
LINE
  5
9B
330
1F
100
AcDbEntity
  8
0
  6
Continuous
 62
     7
370
    25
100
AcDbLine
 10
8.3989651041
 20
7.026757255
 30
0.0
 11
8.5239651041
 21
7.026757255
 31
0.0
  0
LINE
  5
9C
330
1F
100
AcDbEntity
  8
0
  6
Continuous
 62
     7
370
    25
100
AcDbLine
 10
8.5239651041
 20
7.026757255
 30
0.0
 11
8.5239651041
 21
7.570952269
 31
0.0
  0
LINE
  5
9D
330
1F
100
AcDbEntity
  8
0
  6
Continuous
 62
     7
370
    25
100
AcDbLine
 10
15.3989651041
 20
7.1726281889
 30
0.0
 11
15.3989651041
 21
6.6585330852
 31
0.0
  0
LINE
  5
9E
330
1F
100
AcDbEntity
  8
0
  6
Continuous
 62
     7
370
    25
100
AcDbLine
 10
15.3989651041
 20
6.6585330852
 30
0.0
 11
15.5239651041
 21
6.6585330852
 31
0.0
  0
LINE
  5
9F
330
1F
100
AcDbEntity
  8
0
  6
Continuous
 62
     7
370
    25
100
AcDbLine
 10
15.5239651041
 20
6.6585330852
 30
0.0
 11
15.5239651041
 21
7.1519529702
 31
0.0
  0
LINE
  5
A0
330
1F
100
AcDbEntity
  8
0
  6
Continuous
 62
     7
370
    25
100
AcDbLine
 10
20.3989651041
 20
6.8340674955
 30
0.0
 11
20.3989651041
 21
6.3474200945
 31
0.0
  0
LINE
  5
A1
330
1F
100
AcDbEntity
  8
0
  6
Continuous
 62
     7
370
    25
100
AcDbLine
 10
20.3989651041
 20
6.3474200945
 30
0.0
 11
20.8614651041
 21
6.3474200945
 31
0.0
  0
ARC
  5
A2
330
1F
100
AcDbEntity
  8
0
  6
Continuous
 62
     7
370
    25
100
AcDbCircle
 10
20.8614651041
 20
6.2474200945
 30
0.0
 40
0.1000000000000085
100
AcDbArc
 50
0.0
 51
90.0
  0
LINE
  5
A3
330
1F
100
AcDbEntity
  8
0
  6
Continuous
 62
     7
370
    25
100
AcDbLine
 10
20.9614651041
 20
6.0786157605
 30
0.0
 11
20.9614651041
 21
6.2474200945
 31
0.0
  0
ARC
  5
A4
330
1F
100
AcDbEntity
  8
0
  6
Continuous
 62
     7
370
    25
100
AcDbCircle
 10
8.0114651041
 20
6.803605675
 30
0.0
 40
0.2000000000000053
100
AcDbArc
 50
0.0
 51
122.7262162952
  0
LINE
  5
A5
330
1F
100
AcDbEntity
  8
0
  6
Continuous
 62
     7
370
    25
100
AcDbLine
 10
7.9033400428
 20
6.9718583752
 30
0.0
 11
5.504099087
 21
5.4300223458
 31
0.0
  0
ARC
  5
A6
330
1F
100
AcDbEntity
  8
0
  6
Continuous
 62
     7
370
    25
100
AcDbCircle
 10
5.6122241482
 20
5.2617696456
 30
0.0
 40
0.2000000000000064
100
AcDbArc
 50
122.7262162952
 51
231.744729871
  0
LINE
  5
A7
330
1F
100
AcDbEntity
  8
0
  6
Continuous
 62
     7
370
    25
100
AcDbLine
 10
7.8876318679
 20
3.2129507275
 30
0.0
 11
5.488390912
 21
5.1047176491
 31
0.0
  0
ARC
  5
A8
330
1F
100
AcDbEntity
  8
0
  6
Continuous
 62
     7
370
    25
100
AcDbCircle
 10
8.0114651041
 20
3.370002724
 30
0.0
 40
0.2000000000000028
100
AcDbArc
 50
231.744729871
 51
0.0
  0
LINE
  5
A9
330
1F
100
AcDbEntity
  8
0
  6
Continuous
 62
     7
370
    25
100
AcDbLine
 10
8.2114651041
 20
3.370002724
 30
0.0
 11
8.2114651041
 21
6.803605675
 31
0.0
  0
ARC
  5
AA
330
1F
100
AcDbEntity
  8
0
  6
Continuous
 62
     7
370
    25
100
AcDbCircle
 10
19.4770973184
 20
6.2917949328
 30
0.0
 40
0.2000000000000045
100
AcDbArc
 50
309.2205484057
 51
85.9285977654
  0
SPLINE
  5
AB
330
1F
100
AcDbEntity
  8
0
  6
Continuous
 62
     7
370
    25
100
AcDbSpline
210
0.0
220
0.0
230
1.0
 70
     8
 71
     3
 72
     8
 73
     4
 74
     0
 42
0.00000001
 43
0.00000001
 40
0.6264246221995555
 40
0.6264246221995555
 40
0.6264246221995555
 40
0.6264246221995555
 40
0.7338943275573987
 40
0.7338943275573987
 40
0.7338943275573987
 40
0.7338943275573987
 10
16.53906823577521
 20
6.692063271940561
 30
0.0
 10
17.52338225214553
 20
6.627827285345118
 30
0.0
 10
18.5075063243902
 20
6.561315671004984
 30
0.0
 10
19.49129723597972
 20
6.491290201811097
 30
0.0
  0
ARC
  5
AC
330
1F
100
AcDbEntity
  8
0
  6
Continuous
 62
     7
370
    25
100
AcDbCircle
 10
16.5260440106
 20
6.4924877986
 30
0.0
 40
0.200000000000018
100
AcDbArc
 50
86.2661921101
 51
228.5164790639
  0
LINE
  5
AD
330
1F
100
AcDbEntity
  8
0
  6
Continuous
 62
     7
370
    25
100
AcDbLine
 10
17.928079224
 20
4.9858199593
 30
0.0
 11
16.3935630884
 21
6.3426585449
 31
0.0
  0
ARC
  5
AE
330
1F
100
AcDbEntity
  8
0
  6
Continuous
 62
     7
370
    25
100
AcDbCircle
 10
18.0605601461
 20
5.135649213
 30
0.0
 40
0.2000000000000158
100
AcDbArc
 50
228.5164790639
 51
309.2205484057
  0
LINE
  5
AF
330
1F
100
AcDbEntity
  8
0
  6
Continuous
 62
     7
370
    25
100
AcDbLine
 10
19.6035587557
 20
6.1368513789
 30
0.0
 11
18.1870215833
 21
4.9807056591
 31
0.0
  0
ARC
  5
B0
330
1F
100
AcDbEntity
  8
0
  6
Continuous
 62
     7
370
    25
100
AcDbCircle
 10
15.9114651041
 20
6.1015092795
 30
0.0
 40
0.2000000000000031
100
AcDbArc
 50
48.5164790639
 51
180.0
  0
LINE
  5
B1
330
1F
100
AcDbEntity
  8
0
  6
Continuous
 62
     7
370
    25
100
AcDbLine
 10
15.7114651041
 20
3.3816062674
 30
0.0
 11
15.7114651041
 21
6.1015092795
 31
0.0
  0
ARC
  5
B2
330
1F
100
AcDbEntity
  8
0
  6
Continuous
 62
     7
370
    25
100
AcDbCircle
 10
15.9114651041
 20
3.3816062674
 30
0.0
 40
0.2000000000000086
100
AcDbArc
 50
180.0
 51
309.2205484057
  0
LINE
  5
B3
330
1F
100
AcDbEntity
  8
0
  6
Continuous
 62
     7
370
    25
100
AcDbLine
 10
17.6375024147
 20
4.5322004965
 30
0.0
 11
16.0379265413
 21
3.2266627135
 31
0.0
  0
ARC
  5
B4
330
1F
100
AcDbEntity
  8
0
  6
Continuous
 62
     7
370
    25
100
AcDbCircle
 10
17.5110409775
 20
4.6871440504
 30
0.0
 40
0.2000000000000055
100
AcDbArc
 50
309.2205484057
 51
48.5164790639
  0
LINE
  5
B5
330
1F
100
AcDbEntity
  8
0
  6
Continuous
 62
     7
370
    25
100
AcDbLine
 10
17.6435218996
 20
4.8369733041
 30
0.0
 11
16.0439460262
 21
6.2513385332
 31
0.0
  0
ARC
  5
B6
330
1F
100
AcDbEntity
  8
0
  6
Continuous
 62
     7
370
    25
100
AcDbCircle
 10
20.0114651041
 20
5.8243790255
 30
0.0
 40
0.2000000000000108
100
AcDbArc
 50
0.0
 51
129.2205484057
  0
LINE
  5
B7
330
1F
100
AcDbEntity
  8
0
  6
Continuous
 62
     7
370
    25
100
AcDbLine
 10
18.4654796206
 20
4.8207390405
 30
0.0
 11
19.8850036669
 21
5.9793225794
 31
0.0
  0
ARC
  5
B8
330
1F
100
AcDbEntity
  8
0
  6
Continuous
 62
     7
370
    25
100
AcDbCircle
 10
18.5919410578
 20
4.6657954865
 30
0.0
 40
0.2000000000000142
100
AcDbArc
 50
129.2205484057
 51
228.5164790639
  0
LINE
  5
B9
330
1F
100
AcDbEntity
  8
0
  6
Continuous
 62
     7
370
    25
100
AcDbLine
 10
19.8789841819
 20
3.2608051078
 30
0.0
 11
18.4594601357
 21
4.5159662328
 31
0.0
  0
ARC
  5
BA
330
1F
100
AcDbEntity
  8
0
  6
Continuous
 62
     7
370
    25
100
AcDbCircle
 10
20.0114651041
 20
3.4106343615
 30
0.0
 40
0.1999999999999993
100
AcDbArc
 50
228.5164790639
 51
0.0
  0
LINE
  5
BB
330
1F
100
AcDbEntity
  8
0
  6
Continuous
 62
     7
370
    25
100
AcDbLine
 10
20.2114651041
 20
3.4106343615
 30
0.0
 11
20.2114651041
 21
5.8243790255
 31
0.0
  0
ARC
  5
BC
330
1F
100
AcDbEntity
  8
0
  6
Continuous
 62
     7
370
    25
100
AcDbCircle
 10
12.1201768663
 20
5.281185221
 30
0.0
 40
0.2000000000000058
100
AcDbArc
 50
235.9124556623
 51
301.6764014512
  0
LINE
  5
BD
330
1F
100
AcDbEntity
  8
0
  6
Continuous
 62
     7
370
    25
100
AcDbLine
 10
14.4166659619
 20
6.4632094303
 30
0.0
 11
12.2252011024
 21
5.110979728
 31
0.0
  0
ARC
  5
BE
330
1F
100
AcDbEntity
  8
0
  6
Continuous
 62
     7
370
    25
100
AcDbCircle
 10
14.3116417257
 20
6.6334149232
 30
0.0
 40
0.2000000000000011
100
AcDbArc
 50
301.6764014512
 51
86.4441064777
  0
SPLINE
  5
BF
330
1F
100
AcDbEntity
  8
0
  6
Continuous
 62
     7
370
    25
100
AcDbSpline
210
0.0
220
0.0
230
1.0
 70
     8
 71
     3
 72
     9
 73
     5
 74
     0
 42
0.00000001
 43
0.00000001
 40
0.3786318592364102
 40
0.3786318592364102
 40
0.3786318592364102
 40
0.3786318592364102
 40
0.5
 40
0.5458213943149816
 40
0.5458213943149816
 40
0.5458213943149816
 40
0.5458213943149816
 10
9.728193162050067
 20
7.107360257498831
 30
0.0
 10
10.84045165693019
 20
7.043416474472719
 30
0.0
 10
12.37249403827285
 20
6.95310643393619
 30
0.0
 10
13.90426282114101
 20
6.859115992625433
 30
0.0
 10
14.32404616908257
 20
6.833029877024052
 30
0.0
  0
ARC
  5
C0
330
1F
100
AcDbEntity
  8
0
  6
Continuous
 62
     7
370
    25
100
AcDbCircle
 10
9.7167141086
 20
6.9076899509
 30
0.0
 40
0.200000000000023
100
AcDbArc
 50
86.7096852197
 51
235.9124556623
  0
LINE
  5
C1
330
1F
100
AcDbEntity
  8
0
  6
Continuous
 62
     7
370
    25
100
AcDbLine
 10
9.6046223151
 20
6.7420535122
 30
0.0
 11
12.0080850728
 21
5.1155487822
 31
0.0
  0
ARC
  5
C2
330
1F
100
AcDbEntity
  8
0
  6
Continuous
 62
     7
370
    25
100
AcDbCircle
 10
8.9114651041
 20
6.6074046075
 30
0.0
 40
0.2000000000000008
100
AcDbArc
 50
55.9124556623
 51
180.0
  0
LINE
  5
C3
330
1F
100
AcDbEntity
  8
0
  6
Continuous
 62
     7
370
    25
100
AcDbLine
 10
8.7114651041
 20
3.3012696717
 30
0.0
 11
8.7114651041
 21
6.6074046075
 31
0.0
  0
ARC
  5
C4
330
1F
100
AcDbEntity
  8
0
  6
Continuous
 62
     7
370
    25
100
AcDbCircle
 10
8.9114651041
 20
3.3012696717
 30
0.0
 40
0.2000000000000006
100
AcDbArc
 50
180.0
 51
301.6764014512
  0
LINE
  5
C5
330
1F
100
AcDbEntity
  8
0
  6
Continuous
 62
     7
370
    25
100
AcDbLine
 10
11.5719013327
 20
4.7078651861
 30
0.0
 11
9.0164893402
 21
3.1310641788
 31
0.0
  0
ARC
  5
C6
330
1F
100
AcDbEntity
  8
0
  6
Continuous
 62
     7
370
    25
100
AcDbCircle
 10
11.4668770965
 20
4.878070679
 30
0.0
 40
0.2000000000000048
100
AcDbArc
 50
301.6764014512
 51
55.9124556623
  0
LINE
  5
C7
330
1F
100
AcDbEntity
  8
0
  6
Continuous
 62
     7
370
    25
100
AcDbLine
 10
11.57896889
 20
5.0437071177
 30
0.0
 11
9.0235568975
 21
6.7730410462
 31
0.0
  0
ARC
  5
C8
330
1F
100
AcDbEntity
  8
0
  6
Continuous
 62
     7
370
    25
100
AcDbCircle
 10
7.3925379532
 20
2.9665933479
 30
0.0
 40
0.2000000000000023
100
AcDbArc
 50
270.0
 51
51.744729871
  0
LINE
  5
C9
330
1F
100
AcDbEntity
  8
0
  6
Continuous
 62
     7
370
    25
100
AcDbLine
 10
7.5163711894
 20
3.1236453444
 30
0.0
 11
5.1131716756
 21
5.018533532
 31
0.0
  0
ARC
  5
CA
330
1F
100
AcDbEntity
  8
0
  6
Continuous
 62
     7
370
    25
100
AcDbCircle
 10
4.9893384394
 20
4.8614815354
 30
0.0
 40
0.2000000000000096
100
AcDbArc
 50
51.744729871
 51
122.7262162952
  0
LINE
  5
CB
330
1F
100
AcDbEntity
  8
0
  6
Continuous
 62
     7
370
    25
100
AcDbLine
 10
4.8812133781
 20
5.0297342357
 30
0.0
 11
2.1158400428
 21
3.2526087524
 31
0.0
  0
ARC
  5
CC
330
1F
100
AcDbEntity
  8
0
  6
Continuous
 62
     7
370
    25
100
AcDbCircle
 10
2.2239651041
 20
3.0843560522
 30
0.0
 40
0.200000000000001
100
AcDbArc
 50
122.7262162952
 51
180.0
  0
LINE
  5
CD
330
1F
100
AcDbEntity
  8
0
  6
Continuous
 62
     7
370
    25
100
AcDbLine
 10
2.0239651041
 20
3.0843560522
 30
0.0
 11
2.0239651041
 21
2.9665933479
 31
0.0
  0
ARC
  5
CE
330
1F
100
AcDbEntity
  8
0
  6
Continuous
 62
     7
370
    25
100
AcDbCircle
 10
2.2239651041
 20
2.9665933479
 30
0.0
 40
0.2000000000000002
100
AcDbArc
 50
180.0
 51
270.0
  0
LINE
  5
CF
330
1F
100
AcDbEntity
  8
0
  6
Continuous
 62
     7
370
    25
100
AcDbLine
 10
2.2239651041
 20
2.7665933479
 30
0.0
 11
7.3925379532
 21
2.7665933479
 31
0.0
  0
ARC
  5
D0
330
1F
100
AcDbEntity
  8
0
  6
Continuous
 62
     7
370
    25
100
AcDbCircle
 10
15.0114651041
 20
6.242701421
 30
0.0
 40
0.2000000000000038
100
AcDbArc
 50
0.0
 51
121.6764014512
  0
LINE
  5
D1
330
1F
100
AcDbEntity
  8
0
  6
Continuous
 62
     7
370
    25
100
AcDbLine
 10
14.9064408679
 20
6.4129069139
 30
0.0
 11
12.6509149985
 21
5.0211487656
 31
0.0
  0
ARC
  5
D2
330
1F
100
AcDbEntity
  8
0
  6
Continuous
 62
     7
370
    25
100
AcDbCircle
 10
12.7559392347
 20
4.8509432727
 30
0.0
 40
0.1999999999999988
100
AcDbArc
 50
121.6764014512
 51
235.9124556623
  0
LINE
  5
D3
330
1F
100
AcDbEntity
  8
0
  6
Continuous
 62
     7
370
    25
100
AcDbLine
 10
12.6438474412
 20
4.685306834
 30
0.0
 11
14.8993733106
 21
3.1589160117
 31
0.0
  0
ARC
  5
D4
330
1F
100
AcDbEntity
  8
0
  6
Continuous
 62
     7
370
    25
100
AcDbCircle
 10
15.0114651041
 20
3.3245524504
 30
0.0
 40
0.2000000000000022
100
AcDbArc
 50
235.9124556623
 51
0.0
  0
LINE
  5
D5
330
1F
100
AcDbEntity
  8
0
  6
Continuous
 62
     7
370
    25
100
AcDbLine
 10
15.2114651041
 20
3.3245524504
 30
0.0
 11
15.2114651041
 21
6.242701421
 31
0.0
  0
ARC
  5
D6
330
1F
100
AcDbEntity
  8
0
  6
Continuous
 62
     7
370
    25
100
AcDbCircle
 10
14.2914397877
 20
2.9665933479
 30
0.0
 40
0.2000000000000069
100
AcDbArc
 50
270.0
 51
55.9124556623
  0
LINE
  5
D7
330
1F
100
AcDbEntity
  8
0
  6
Continuous
 62
     7
370
    25
100
AcDbLine
 10
14.4035315812
 20
3.1322297867
 30
0.0
 11
12.2147312584
 21
4.6134651695
 31
0.0
  0
ARC
  5
D8
330
1F
100
AcDbEntity
  8
0
  6
Continuous
 62
     7
370
    25
100
AcDbCircle
 10
12.1026394649
 20
4.4478287307
 30
0.0
 40
0.1999999999999993
100
AcDbArc
 50
55.9124556623
 51
121.6764014512
  0
LINE
  5
D9
330
1F
100
AcDbEntity
  8
0
  6
Continuous
 62
     7
370
    25
100
AcDbLine
 10
11.9976152287
 20
4.6180342236
 30
0.0
 11
9.5970798133
 21
3.1367988408
 31
0.0
  0
ARC
  5
DA
330
1F
100
AcDbEntity
  8
0
  6
Continuous
 62
     7
370
    25
100
AcDbCircle
 10
9.7021040495
 20
2.9665933479
 30
0.0
 40
0.2000000000000002
100
AcDbArc
 50
121.6764014512
 51
270.0
  0
LINE
  5
DB
330
1F
100
AcDbEntity
  8
0
  6
Continuous
 62
     7
370
    25
100
AcDbLine
 10
9.7021040495
 20
2.7665933479
 30
0.0
 11
14.2914397877
 21
2.7665933479
 31
0.0
  0
ARC
  5
DC
330
1F
100
AcDbEntity
  8
0
  6
Continuous
 62
     7
370
    25
100
AcDbCircle
 10
19.4568972076
 20
2.9665933479
 30
0.0
 40
0.2000000000000033
100
AcDbArc
 50
270.0
 51
48.5164790639
  0
LINE
  5
DD
330
1F
100
AcDbEntity
  8
0
  6
Continuous
 62
     7
370
    25
100
AcDbLine
 10
19.5893781297
 20
3.1164226016
 30
0.0
 11
18.1749028113
 21
4.3671195776
 31
0.0
  0
ARC
  5
DE
330
1F
100
AcDbEntity
  8
0
  6
Continuous
 62
     7
370
    25
100
AcDbCircle
 10
18.0424218892
 20
4.2172903239
 30
0.0
 40
0.1999999999999977
100
AcDbArc
 50
48.5164790639
 51
129.2205484057
  0
LINE
  5
DF
330
1F
100
AcDbEntity
  8
0
  6
Continuous
 62
     7
370
    25
100
AcDbLine
 10
16.3835768368
 20
3.1215369018
 30
0.0
 11
17.915960452
 21
4.3722338779
 31
0.0
  0
ARC
  5
E0
330
1F
100
AcDbEntity
  8
0
  6
Continuous
 62
     7
370
    25
100
AcDbCircle
 10
16.510038274
 20
2.9665933479
 30
0.0
 40
0.2000000000000057
100
AcDbArc
 50
129.2205484057
 51
270.0
  0
LINE
  5
E1
330
1F
100
AcDbEntity
  8
0
  6
Continuous
 62
     7
370
    25
100
AcDbLine
 10
16.510038274
 20
2.7665933479
 30
0.0
 11
19.4568972076
 21
2.7665933479
 31
0.0
  0
ARC
  5
E2
330
1F
100
AcDbEntity
  8
0
  6
Continuous
 62
     7
370
    25
100
AcDbCircle
 10
15.2989651041
 20
7.1726281889
 30
0.0
 40
0.1000000000000085
100
AcDbArc
 50
0.0
 51
86.3729237001
  0
ARC
  5
E3
330
1F
100
AcDbEntity
  8
0
  6
Continuous
 62
     7
370
    25
100
AcDbCircle
 10
8.1382463141
 20
7.5982926305
 30
0.0
 40
0.0999999999999916
100
AcDbArc
 50
86.7906835807
 51
122.7262162952
  0
ARC
  5
E4
330
1F
100
AcDbEntity
  8
0
  6
Continuous
 62
     7
370
    25
100
AcDbCircle
 10
8.2989651041
 20
7.5892692831
 30
0.0
 40
0.0999999999999996
100
AcDbArc
 50
0.0
 51
86.782475575
  0
ARC
  5
E5
330
1F
100
AcDbEntity
  8
0
  6
Continuous
 62
     7
370
    25
100
AcDbCircle
 10
8.6239651041
 20
7.570952269
 30
0.0
 40
0.0999999999999997
100
AcDbArc
 50
86.7659894177
 51
180.0
  0
ARC
  5
E6
330
1F
100
AcDbEntity
  8
0
  6
Continuous
 62
     7
370
    25
100
AcDbCircle
 10
20.2989651041
 20
6.8340674955
 30
0.0
 40
0.1000000000000441
100
AcDbArc
 50
0.0
 51
85.8177558452
  0
SPLINE
  5
E7
330
1F
100
AcDbEntity
  8
0
  6
Continuous
 62
     7
370
    25
100
AcDbSpline
210
0.0
220
0.0
230
1.0
 70
     8
 71
     3
 72
    11
 73
     7
 74
     0
 42
0.00000001
 43
0.00000001
 40
0.3376482074723054
 40
0.3376482074723054
 40
0.3376482074723054
 40
0.3376482074723054
 40
0.350061528890441
 40
0.381311528890441
 40
0.5
 40
0.5803747267216587
 40
0.5803747267216587
 40
0.5803747267216587
 40
0.5803747267216587
 10
8.629606520679243
 20
7.670793014319216
 30
0.0
 10
8.743422652622627
 20
7.664361930329841
 30
0.0
 10
9.14376180323177
 20
7.641680681833154
 30
0.0
 10
10.63227477546667
 20
7.556566154945156
 30
0.0
 10
12.74371753117509
 20
7.432020457970921
 30
0.0
 10
14.56852440670116
 20
7.31913089141572
 30
0.0
 10
15.30529131911569
 20
7.272427883326119
 30
0.0
  0
LWPOLYLINE
  5
E8
330
1F
100
AcDbEntity
  8
0
  6
Continuous
 62
     7
370
    25
100
AcDbPolyline
 90
        3
 70
   128
 43
0.0
 10
8.1438446994
 20
7.6981357979
 10
8.2338554282
 20
7.6930851082
 10
8.3045777925
 20
7.6891116475
  0
SPLINE
  5
E9
330
1F
100
AcDbEntity
  8
0
  6
Continuous
 62
     7
370
    25
100
AcDbSpline
210
0.0
220
0.0
230
1.0
 70
     8
 71
     3
 72
    11
 73
     7
 74
     0
 42
0.00000001
 43
0.00000001
 40
0.5921946428138046
 40
0.5921946428138046
 40
0.5921946428138046
 40
0.5921946428138046
 40
0.625
 40
0.7402770086595147
 40
0.7559020086595147
 40
0.7622446707276814
 40
0.7622446707276814
 40
0.7622446707276814
 40
0.7622446707276814
 10
15.63033669248289
 20
7.251749778109198
 30
0.0
 10
15.93104874659453
 20
7.232550632525277
 30
0.0
 10
17.28843382904706
 20
7.145012855561498
 30
0.0
 10
18.78894177518387
 20
7.043470201585083
 30
0.0
 10
20.04680016414621
 20
6.95272799284405
 30
0.0
 10
20.24812929796404
 20
6.938051803601885
 30
0.0
 10
20.30625801684771
 20
6.933801208026399
 30
0.0
  0
ARC
  5
EA
330
1F
100
AcDbEntity
  8
0
  6
Continuous
 62
     7
370
    25
100
AcDbCircle
 10
15.6239651041
 20
7.1519529702
 30
0.0
 40
0.1000000000000085
100
AcDbArc
 50
86.3468741214
 51
180.0
  0
MTEXT
  5
EC
330
1F
100
AcDbEntity
  8
PART_NAMES
100
AcDbMText
 10
8.0301517903
 20
8.4546213288
 30
0.0
 40
0.1666666667
 41
0.0
 71
     1
 72
     1
  1
NB
  7
SLDTEXTSTYLE0
 73
     1
 44
1.0
  0
MTEXT
  5
ED
330
1F
100
AcDbEntity
  8
PART_NAMES
100
AcDbMText
 10
8.2114651041
 20
2.8872066366
 30
0.0
 40
0.1666666667
 41
0.0
 71
     1
 72
     1
  1
NS
  7
SLDTEXTSTYLE0
 73
     1
 44
1.0
  0
MTEXT
  5
EF
330
1F
100
AcDbEntity
  8
0
  6
Continuous
 62
     7
100
AcDbMText
 10
0.0
 20
0.5790104628
 30
0.0
 40
0.2076
 41
0.0
 71
     1
 72
     1
  1
SOLIDWORKS Educational Product.
  7
SLDTEXTSTYLE1
 73
     1
 44
1.0
  0
MTEXT
  5
F0
330
1F
100
AcDbEntity
  8
0
  6
Continuous
 62
     7
100
AcDbMText
 10
0.0
 20
0.2676104628
 30
0.0
 40
0.2076
 41
0.0
 71
     1
 72
     1
  1
For Instructional Use Only.
  7
SLDTEXTSTYLE1
 73
     1
 44
1.0
  0
ENDSEC
  0
SECTION
  2
OBJECTS
  0
DICTIONARY
  5
C
330
0
100
AcDbDictionary
281
     1
  3
ACAD_GROUP
350
D
  3
ACAD_LAYOUT
350
1A
  3
ACAD_MLINESTYLE
350
17
  3
ACAD_PLOTSETTINGS
350
19
  3
ACAD_PLOTSTYLENAME
350
E
  3
ACAD_SCALELIST
350
47
  3
DWGPROPS
350
F1
  0
DICTIONARY
  5
D
102
{ACAD_REACTORS
330
C
102
}
330
C
100
AcDbDictionary
281
     1
  0
DICTIONARY
  5
1A
102
{ACAD_REACTORS
330
C
102
}
330
C
100
AcDbDictionary
281
     1
  3
Layout1
350
1E
  3
Layout2
350
26
  3
Model
350
22
  0
DICTIONARY
  5
17
102
{ACAD_REACTORS
330
C
102
}
330
C
100
AcDbDictionary
281
     1
  3
Standard
350
18
  0
DICTIONARY
  5
19
102
{ACAD_REACTORS
330
C
102
}
330
C
100
AcDbDictionary
281
     1
  0
ACDBDICTIONARYWDFLT
  5
E
102
{ACAD_REACTORS
330
C
102
}
330
C
100
AcDbDictionary
281
     1
  3
Normal
350
F
100
AcDbDictionaryWithDefault
340
F
  0
DICTIONARY
  5
47
102
{ACAD_REACTORS
330
C
102
}
330
C
100
AcDbDictionary
281
     1
  3
A0
350
48
  3
A1
350
49
  3
A2
350
4A
  3
A3
350
4B
  3
A4
350
4C
  3
A5
350
4D
  3
A6
350
4E
  3
A7
350
4F
  3
A8
350
50
  3
A9
350
51
  3
B1
350
52
  3
B2
350
53
  3
B3
350
54
  3
B4
350
55
  3
B5
350
56
  3
B6
350
57
  3
B7
350
58
  0
XRECORD
  5
F1
102
{ACAD_REACTORS
330
C
102
}
330
C
100
AcDbXrecord
280
     1
  1
DWGPROPS COOKIE
  2

  3

  4

  6

  7

  8
ucmai
  9

300
=
301
=
302
=
303
=
304
=
305
=
306
=
307
=
308
=
309
=
 40
0.0
 41
2460784.958980255
 42
2460784.958980614
  1

 90
        0
  0
LAYOUT
  5
1E
102
{ACAD_REACTORS
330
1A
102
}
330
1A
100
AcDbPlotSettings
  1

  2
none_device
  4

  6

 40
0.0
 41
0.0
 42
0.0
 43
0.0
 44
0.0
 45
0.0
 46
0.0
 47
0.0
 48
0.0
 49
0.0
140
0.0
141
0.0
142
1.0
143
1.0
 70
   688
 72
     0
 73
     0
 74
     5
  7

 75
    16
147
1.0
148
0.0
149
0.0
100
AcDbLayout
  1
Layout1
 70
     1
 71
     1
 10
0.0
 20
0.0
 11
12.0
 21
9.0
 12
0.0
 22
0.0
 32
0.0
 14
1.0000000000E+20
 24
1.0000000000E+20
 34
1.0000000000E+20
 15
-1.0000000000E+20
 25
-1.0000000000E+20
 35
-1.0000000000E+20
146
0.0
 13
0.0
 23
0.0
 33
0.0
 16
1.0
 26
0.0
 36
0.0
 17
0.0
 27
1.0
 37
0.0
 76
     0
330
1B
  0
LAYOUT
  5
26
102
{ACAD_REACTORS
330
1A
102
}
330
1A
100
AcDbPlotSettings
  1

  2
none_device
  4

  6

 40
0.0
 41
0.0
 42
0.0
 43
0.0
 44
0.0
 45
0.0
 46
0.0
 47
0.0
 48
0.0
 49
0.0
140
0.0
141
0.0
142
1.0
143
1.0
 70
   688
 72
     0
 73
     0
 74
     5
  7

 75
    16
147
1.0
148
0.0
149
0.0
100
AcDbLayout
  1
Layout2
 70
     1
 71
     2
 10
0.0
 20
0.0
 11
0.0
 21
0.0
 12
0.0
 22
0.0
 32
0.0
 14
0.0
 24
0.0
 34
0.0
 15
0.0
 25
0.0
 35
0.0
146
0.0
 13
0.0
 23
0.0
 33
0.0
 16
1.0
 26
0.0
 36
0.0
 17
0.0
 27
1.0
 37
0.0
 76
     0
330
23
  0
LAYOUT
  5
22
102
{ACAD_REACTORS
330
1A
102
}
330
1A
100
AcDbPlotSettings
  1

  2
none_device
  4
Letter_(8.50_x_11.00_Inches)
  6

 40
6.35
 41
6.35
 42
6.35000508
 43
6.35000508
 44
215.9
 45
279.4
 46
0.0
 47
0.0
 48
0.0
 49
0.0
140
0.0
141
0.0
142
1.0
143
1.0
 70
  1712
 72
     0
 73
     0
 74
     0
  7

 75
     0
147
1.0
148
0.0
149
0.0
100
AcDbLayout
  1
Model
 70
     1
 71
     0
 10
0.0
 20
0.0
 11
24.0
 21
12.0
 12
0.0
 22
0.0
 32
0.0
 14
0.0
 24
0.0
 34
0.0
 15
24.0
 25
12.0
 35
0.0
146
0.0
 13
0.0
 23
0.0
 33
0.0
 16
1.0
 26
0.0
 36
0.0
 17
0.0
 27
1.0
 37
0.0
 76
     0
330
1F
331
29
  0
MLINESTYLE
  5
18
102
{ACAD_REACTORS
330
17
102
}
330
17
100
AcDbMlineStyle
  2
Standard
 70
     0
  3

 62
   256
 51
90.0
 52
90.0
 71
     2
 49
0.5
 62
   256
  6
BYLAYER
 49
-0.5
 62
   256
  6
BYLAYER
  0
ACDBPLACEHOLDER
  5
F
102
{ACAD_REACTORS
330
E
102
}
330
E
  0
SCALE
  5
48
102
{ACAD_REACTORS
330
47
102
}
330
47
100
AcDbScale
 70
     0
300
1:1
140
1.0
141
1.0
290
     1
  0
SCALE
  5
49
102
{ACAD_REACTORS
330
47
102
}
330
47
100
AcDbScale
 70
     0
300
1/128" = 1'-0"
140
0.0078125
141
12.0
290
     0
  0
SCALE
  5
4A
102
{ACAD_REACTORS
330
47
102
}
330
47
100
AcDbScale
 70
     0
300
1/64" = 1'-0"
140
0.015625
141
12.0
290
     0
  0
SCALE
  5
4B
102
{ACAD_REACTORS
330
47
102
}
330
47
100
AcDbScale
 70
     0
300
1/32" = 1'-0"
140
0.03125
141
12.0
290
     0
  0
SCALE
  5
4C
102
{ACAD_REACTORS
330
47
102
}
330
47
100
AcDbScale
 70
     0
300
1/16" = 1'-0"
140
0.0625
141
12.0
290
     0
  0
SCALE
  5
4D
102
{ACAD_REACTORS
330
47
102
}
330
47
100
AcDbScale
 70
     0
300
3/32" = 1'-0"
140
0.09375
141
12.0
290
     0
  0
SCALE
  5
4E
102
{ACAD_REACTORS
330
47
102
}
330
47
100
AcDbScale
 70
     0
300
1/8" = 1'-0"
140
0.125
141
12.0
290
     0
  0
SCALE
  5
4F
102
{ACAD_REACTORS
330
47
102
}
330
47
100
AcDbScale
 70
     0
300
3/16" = 1'-0"
140
0.1875
141
12.0
290
     0
  0
SCALE
  5
50
102
{ACAD_REACTORS
330
47
102
}
330
47
100
AcDbScale
 70
     0
300
1/4" = 1'-0"
140
0.25
141
12.0
290
     0
  0
SCALE
  5
51
102
{ACAD_REACTORS
330
47
102
}
330
47
100
AcDbScale
 70
     0
300
3/8" = 1'-0"
140
0.375
141
12.0
290
     0
  0
SCALE
  5
52
102
{ACAD_REACTORS
330
47
102
}
330
47
100
AcDbScale
 70
     0
300
1/2" = 1'-0"
140
0.5
141
12.0
290
     0
  0
SCALE
  5
53
102
{ACAD_REACTORS
330
47
102
}
330
47
100
AcDbScale
 70
     0
300
3/4" = 1'-0"
140
0.75
141
12.0
290
     0
  0
SCALE
  5
54
102
{ACAD_REACTORS
330
47
102
}
330
47
100
AcDbScale
 70
     0
300
1" = 1'-0"
140
1.0
141
12.0
290
     0
  0
SCALE
  5
55
102
{ACAD_REACTORS
330
47
102
}
330
47
100
AcDbScale
 70
     0
300
1-1/2" = 1'-0"
140
1.5
141
12.0
290
     0
  0
SCALE
  5
56
102
{ACAD_REACTORS
330
47
102
}
330
47
100
AcDbScale
 70
     0
300
3" = 1'-0"
140
3.0
141
12.0
290
     0
  0
SCALE
  5
57
102
{ACAD_REACTORS
330
47
102
}
330
47
100
AcDbScale
 70
     0
300
6" = 1'-0"
140
6.0
141
12.0
290
     0
  0
SCALE
  5
58
102
{ACAD_REACTORS
330
47
102
}
330
47
100
AcDbScale
 70
     0
300
1'-0" = 1'-0"
140
12.0
141
12.0
290
     0
  0
ENDSEC
  0
EOF
