  0
SECTION
  2
HEADER
  9
$ACADVER
  1
AC1015
  9
$ACADMAINTVER
 70
     6
  9
$DWGCODEPAGE
  3
ANSI_1252
  9
$INSBASE
 10
0.0
 20
0.0
 30
0.0
  9
$EXTMIN
 10
0.0
 20
0.0
 30
0.0
  9
$EXTMAX
 10
24.0
 20
12.0
 30
0.0
  9
$LIMMIN
 10
0.0
 20
0.0
  9
$LIMMAX
 10
24.0
 20
12.0
  9
$ORTHOMODE
 70
     0
  9
$REGENMODE
 70
     1
  9
$FILLMODE
 70
     1
  9
$QTEXTMODE
 70
     0
  9
$MIRRTEXT
 70
     1
  9
$LTSCALE
 40
1.0
  9
$ATTMODE
 70
     1
  9
$TEXTSIZE
 40
0.1377952756
  9
$TRACEWID
 40
0.05
  9
$TEXTSTYLE
  7
Standard
  9
$CLAYER
  8
0
  9
$CELTYPE
  6
ByLayer
  9
$CECOLOR
 62
   256
  9
$CELTSCALE
 40
1.0
  9
$DISPSILH
 70
     0
  9
$DIMSCALE
 40
1.0
  9
$DIMASZ
 40
0.14
  9
$DIMEXO
 40
0.0393700787
  9
$DIMDLI
 40
0.38
  9
$DIMRND
 40
0.0
  9
$DIMDLE
 40
0.0
  9
$DIMEXE
 40
0.0393700787
  9
$DIMTP
 40
0.0
  9
$DIMTM
 40
0.0
  9
$DIMTXT
 40
0.1377952756
  9
$DIMCEN
 40
0.09
  9
$DIMTSZ
 40
0.0
  9
$DIMTOL
 70
     0
  9
$DIMLIM
 70
     0
  9
$DIMTIH
 70
     1
  9
$DIMTOH
 70
     1
  9
$DIMSE1
 70
     0
  9
$DIMSE2
 70
     0
  9
$DIMTAD
 70
     1
  9
$DIMZIN
 70
     1
  9
$DIMBLK
  1

  9
$DIMASO
 70
     1
  9
$DIMSHO
 70
     1
  9
$DIMPOST
  1

  9
$DIMAPOST
  1

  9
$DIMALT
 70
     0
  9
$DIMALTD
 70
     2
  9
$DIMALTF
 40
25.4
  9
$DIMLFAC
 40
2.0
  9
$DIMTOFL
 70
     0
  9
$DIMTVP
 40
0.0
  9
$DIMTIX
 70
     0
  9
$DIMSOXD
 70
     0
  9
$DIMSAH
 70
     0
  9
$DIMBLK1
  1

  9
$DIMBLK2
  1

  9
$DIMSTYLE
  2
Standard
  9
$DIMCLRD
 70
     0
  9
$DIMCLRE
 70
     0
  9
$DIMCLRT
 70
     0
  9
$DIMTFAC
 40
1.0
  9
$DIMGAP
 40
0.06
  9
$DIMJUST
 70
     0
  9
$DIMSD1
 70
     0
  9
$DIMSD2
 70
     0
  9
$DIMTOLJ
 70
     1
  9
$DIMTZIN
 70
     1
  9
$DIMALTZ
 70
     0
  9
$DIMALTTZ
 70
     0
  9
$DIMUPT
 70
     0
  9
$DIMDEC
 70
     2
  9
$DIMTDEC
 70
     2
  9
$DIMALTU
 70
     2
  9
$DIMALTTD
 70
     2
  9
$DIMTXSTY
  7
Standard
  9
$DIMAUNIT
 70
     0
  9
$DIMADEC
 70
     2
  9
$DIMALTRND
 40
0.0
  9
$DIMAZIN
 70
     0
  9
$DIMDSEP
 70
    46
  9
$DIMATFIT
 70
     3
  9
$DIMFRAC
 70
     0
  9
$DIMLDRBLK
  1

  9
$DIMLUNIT
 70
     2
  9
$DIMLWD
 70
    -2
  9
$DIMLWE
 70
    -2
  9
$DIMTMOVE
 70
     0
  9
$LUNITS
 70
     2
  9
$LUPREC
 70
     2
  9
$SKETCHINC
 40
0.1
  9
$FILLETRAD
 40
0.0
  9
$AUNITS
 70
     0
  9
$AUPREC
 70
     2
  9
$MENU
  1
.
  9
$ELEVATION
 40
0.0
  9
$PELEVATION
 40
0.0
  9
$THICKNESS
 40
0.0
  9
$LIMCHECK
 70
     0
  9
$CHAMFERA
 40
0.0
  9
$CHAMFERB
 40
0.0
  9
$CHAMFERC
 40
0.0
  9
$CHAMFERD
 40
0.0
  9
$SKPOLY
 70
     0
  9
$TDCREATE
 40
2460715.425103634
  9
$TDUCREATE
 40
2460715.758436968
  9
$TDUPDATE
 40
2460715.425104318
  9
$TDUUPDATE
 40
2460715.758437651
  9
$TDINDWG
 40
0.0000000116
  9
$TDUSRTIMER
 40
0.0000000116
  9
$USRTIMER
 70
     1
  9
$ANGBASE
 50
0.0
  9
$ANGDIR
 70
     0
  9
$PDMODE
 70
     0
  9
$PDSIZE
 40
-1.0
  9
$PLINEWID
 40
0.0
  9
$SPLFRAME
 70
     0
  9
$SPLINETYPE
 70
     6
  9
$SPLINESEGS
 70
     8
  9
$HANDSEED
  5
187
  9
$SURFTAB1
 70
     6
  9
$SURFTAB2
 70
     6
  9
$SURFTYPE
 70
     6
  9
$SURFU
 70
     6
  9
$SURFV
 70
     6
  9
$UCSBASE
  2

  9
$UCSNAME
  2

  9
$UCSORG
 10
0.0
 20
0.0
 30
0.0
  9
$UCSXDIR
 10
1.0
 20
0.0
 30
0.0
  9
$UCSYDIR
 10
0.0
 20
1.0
 30
0.0
  9
$UCSORTHOREF
  2

  9
$UCSORTHOVIEW
 70
     0
  9
$UCSORGTOP
 10
0.0
 20
0.0
 30
0.0
  9
$UCSORGBOTTOM
 10
0.0
 20
0.0
 30
0.0
  9
$UCSORGLEFT
 10
0.0
 20
0.0
 30
0.0
  9
$UCSORGRIGHT
 10
0.0
 20
0.0
 30
0.0
  9
$UCSORGFRONT
 10
0.0
 20
0.0
 30
0.0
  9
$UCSORGBACK
 10
0.0
 20
0.0
 30
0.0
  9
$PUCSBASE
  2

  9
$PUCSNAME
  2

  9
$PUCSORG
 10
0.0
 20
0.0
 30
0.0
  9
$PUCSXDIR
 10
1.0
 20
0.0
 30
0.0
  9
$PUCSYDIR
 10
0.0
 20
1.0
 30
0.0
  9
$PUCSORTHOREF
  2

  9
$PUCSORTHOVIEW
 70
     0
  9
$PUCSORGTOP
 10
0.0
 20
0.0
 30
0.0
  9
$PUCSORGBOTTOM
 10
0.0
 20
0.0
 30
0.0
  9
$PUCSORGLEFT
 10
0.0
 20
0.0
 30
0.0
  9
$PUCSORGRIGHT
 10
0.0
 20
0.0
 30
0.0
  9
$PUCSORGFRONT
 10
0.0
 20
0.0
 30
0.0
  9
$PUCSORGBACK
 10
0.0
 20
0.0
 30
0.0
  9
$USERI1
 70
     0
  9
$USERI2
 70
     0
  9
$USERI3
 70
     0
  9
$USERI4
 70
     0
  9
$USERI5
 70
     0
  9
$USERR1
 40
0.0
  9
$USERR2
 40
0.0
  9
$USERR3
 40
0.0
  9
$USERR4
 40
0.0
  9
$USERR5
 40
0.0
  9
$WORLDVIEW
 70
     1
  9
$SHADEDGE
 70
     3
  9
$SHADEDIF
 70
    70
  9
$TILEMODE
 70
     1
  9
$MAXACTVP
 70
    64
  9
$PINSBASE
 10
0.0
 20
0.0
 30
0.0
  9
$PLIMCHECK
 70
     0
  9
$PEXTMIN
 10
1.0000000000E+20
 20
1.0000000000E+20
 30
1.0000000000E+20
  9
$PEXTMAX
 10
-1.0000000000E+20
 20
-1.0000000000E+20
 30
-1.0000000000E+20
  9
$PLIMMIN
 10
0.0
 20
0.0
  9
$PLIMMAX
 10
12.0
 20
9.0
  9
$UNITMODE
 70
     0
  9
$VISRETAIN
 70
     1
  9
$PLINEGEN
 70
     0
  9
$PSLTSCALE
 70
     1
  9
$TREEDEPTH
 70
  3020
  9
$CMLSTYLE
  2
Standard
  9
$CMLJUST
 70
     0
  9
$CMLSCALE
 40
1.0
  9
$PROXYGRAPHICS
 70
     1
  9
$MEASUREMENT
 70
     0
  9
$CELWEIGHT
370
    -1
  9
$ENDCAPS
280
     0
  9
$JOINSTYLE
280
     0
  9
$LWDISPLAY
290
     1
  9
$INSUNITS
 70
     1
  9
$HYPERLINKBASE
  1

  9
$STYLESHEET
  1

  9
$XEDIT
290
     1
  9
$CEPSNTYPE
380
     0
  9
$PSTYLEMODE
290
     1
  9
$FINGERPRINTGUID
  2
{cbe9f59d-ec2b-4160-b045-34d7b184cc73}
  9
$VERSIONGUID
  2
{FAEB1C32-E019-11D5-929B-00C0DF256EC4}
  9
$EXTNAMES
290
     1
  9
$PSVPSCALE
 40
0.0
  9
$OLESTARTUP
290
     0
  0
ENDSEC
  0
SECTION
  2
CLASSES
  0
CLASS
  1
ACDBDICTIONARYWDFLT
  2
AcDbDictionaryWithDefault
  3
ObjectDBX Classes
 90
        0
280
     0
281
     0
  0
CLASS
  1
VISUALSTYLE
  2
AcDbVisualStyle
  3
ObjectDBX Classes
 90
     4095
280
     0
281
     0
  0
CLASS
  1
MATERIAL
  2
AcDbMaterial
  3
ObjectDBX Classes
 90
     1153
280
     0
281
     0
  0
CLASS
  1
SCALE
  2
AcDbScale
  3
ObjectDBX Classes
 90
     1153
280
     0
281
     0
  0
CLASS
  1
TABLESTYLE
  2
AcDbTableStyle
  3
ObjectDBX Classes
 90
     4095
280
     0
281
     0
  0
CLASS
  1
MLEADERSTYLE
  2
AcDbMLeaderStyle
  3
ACDB_MLEADERSTYLE_CLASS
 90
     4095
280
     0
281
     0
  0
CLASS
  1
SUN
  2
AcDbSun
  3
SCENEOE
 90
     1153
280
     0
281
     0
  0
CLASS
  1
ACDBPLACEHOLDER
  2
AcDbPlaceHolder
  3
ObjectDBX Classes
 90
        0
280
     0
281
     0
  0
CLASS
  1
LAYOUT
  2
AcDbLayout
  3
ObjectDBX Classes
 90
        0
280
     0
281
     0
  0
ENDSEC
  0
SECTION
  2
TABLES
  0
TABLE
  2
VPORT
  5
8
330
0
100
AcDbSymbolTable
 70
     1
  0
VPORT
  5
29
330
8
100
AcDbSymbolTableRecord
100
AcDbViewportTableRecord
  2
*Active
 70
     0
 10
0.0
 20
0.0
 11
1.0
 21
1.0
 12
12.0
 22
6.0
 13
0.0
 23
0.0
 14
0.5
 24
0.5
 15
0.5
 25
0.5
 16
0.0
 26
0.0
 36
1.0
 17
0.0
 27
0.0
 37
0.0
 40
12.0
 41
2.0
 42
50.0
 43
0.0
 44
0.0
 50
0.0
 51
0.0
 71
     0
 72
  2000
 73
     1
 74
     3
 75
     0
 76
     0
 77
     0
 78
     0
281
     0
 65
     1
110
0.0
120
0.0
130
0.0
111
1.0
121
0.0
131
0.0
112
0.0
122
1.0
132
0.0
 79
     0
146
0.0
  0
ENDTAB
  0
TABLE
  2
LTYPE
  5
5
330
0
100
AcDbSymbolTable
 70
     6
  0
LTYPE
  5
14
330
5
100
AcDbSymbolTableRecord
100
AcDbLinetypeTableRecord
  2
ByBlock
 70
     0
  3

 72
    65
 73
     0
 40
0.0
  0
LTYPE
  5
15
330
5
100
AcDbSymbolTableRecord
100
AcDbLinetypeTableRecord
  2
ByLayer
 70
     0
  3

 72
    65
 73
     0
 40
0.0
  0
LTYPE
  5
16
330
5
100
AcDbSymbolTableRecord
100
AcDbLinetypeTableRecord
  2
Continuous
 70
     0
  3
Solid line
 72
    65
 73
     0
 40
0.0
  0
LTYPE
  5
5E
330
5
100
AcDbSymbolTableRecord
100
AcDbLinetypeTableRecord
  2
HIDDEN
 70
     0
  3
Hidden __ __ __ __ __ __ __ __ __ __ __ __ __ __
 72
    65
 73
     2
 40
0.075
 49
0.05
 74
     0
 49
-0.025
 74
     0
  0
LTYPE
  5
5F
330
5
100
AcDbSymbolTableRecord
100
AcDbLinetypeTableRecord
  2
PHANTOM
 70
     0
  3
Phantom ______  __  __  ______  __  __  ______
 72
    65
 73
     6
 40
0.5
 49
0.25
 74
     0
 49
-0.05
 74
     0
 49
0.05
 74
     0
 49
-0.05
 74
     0
 49
0.05
 74
     0
 49
-0.05
 74
     0
  0
LTYPE
  5
60
330
5
100
AcDbSymbolTableRecord
100
AcDbLinetypeTableRecord
  2
CENTER
 70
     0
  3
Center ____ _ ____ _ ____ _ ____ _ ____ _ ____
 72
    65
 73
     4
 40
0.4
 49
0.25
 74
     0
 49
-0.05
 74
     0
 49
0.05
 74
     0
 49
-0.05
 74
     0
  0
LTYPE
  5
61
330
5
100
AcDbSymbolTableRecord
100
AcDbLinetypeTableRecord
  2
CENTERX2
 70
     0
  3
Center (2x) ________  __  ________  __  _____
 72
    65
 73
     4
 40
0.8
 49
0.5
 74
     0
 49
-0.1
 74
     0
 49
0.1
 74
     0
 49
-0.1
 74
     0
  0
LTYPE
  5
62
330
5
100
AcDbSymbolTableRecord
100
AcDbLinetypeTableRecord
  2
DOT2
 70
     0
  3
Dot (.5x) ........................................
 72
    65
 73
     2
 40
0.025
 49
0.0
 74
     0
 49
-0.025
 74
     0
  0
ENDTAB
  0
TABLE
  2
LAYER
  5
2
330
0
100
AcDbSymbolTable
 70
     1
  0
LAYER
  5
10
330
2
100
AcDbSymbolTableRecord
100
AcDbLayerTableRecord
  2
0
 70
     0
 62
     7
  6
Continuous
370
    -3
390
F
  0
ENDTAB
  0
TABLE
  2
STYLE
  5
3
330
0
100
AcDbSymbolTable
 70
     2
  0
STYLE
  5
11
330
3
100
AcDbSymbolTableRecord
100
AcDbTextStyleTableRecord
  2
Standard
 70
     0
 40
0.0
 41
1.0
 50
0.0
 71
     0
 42
0.1377952756
  3
txt
  4

  0
STYLE
  5
183
330
3
100
AcDbSymbolTableRecord
100
AcDbTextStyleTableRecord
  2
SLDTEXTSTYLE0
 70
     0
 40
0.0
 41
0.7
 50
0.0
 71
     0
 42
0.1377952756
  3
TXT
  4

  0
ENDTAB
  0
TABLE
  2
VIEW
  5
6
330
0
100
AcDbSymbolTable
 70
     0
  0
ENDTAB
  0
TABLE
  2
UCS
  5
7
330
0
100
AcDbSymbolTable
 70
     0
  0
ENDTAB
  0
TABLE
  2
APPID
  5
9
330
0
100
AcDbSymbolTable
 70
     1
  0
APPID
  5
12
330
9
100
AcDbSymbolTableRecord
100
AcDbRegAppTableRecord
  2
ACAD
 70
     0
  0
ENDTAB
  0
TABLE
  2
DIMSTYLE
  5
A
330
0
100
AcDbSymbolTable
 70
     1
100
AcDbDimStyleTable
  0
DIMSTYLE
105
27
330
A
100
AcDbSymbolTableRecord
100
AcDbDimStyleTableRecord
  2
Standard
 70
     0
178
     0
340
11
  0
ENDTAB
  0
TABLE
  2
BLOCK_RECORD
  5
1
330
0
100
AcDbSymbolTable
 70
     1
  0
BLOCK_RECORD
  5
1F
330
1
100
AcDbSymbolTableRecord
100
AcDbBlockTableRecord
  2
*Model_Space
340
22
  0
BLOCK_RECORD
  5
1B
330
1
100
AcDbSymbolTableRecord
100
AcDbBlockTableRecord
  2
*Paper_Space
340
1E
  0
BLOCK_RECORD
  5
23
330
1
100
AcDbSymbolTableRecord
100
AcDbBlockTableRecord
  2
*Paper_Space0
340
26
  0
ENDTAB
  0
ENDSEC
  0
SECTION
  2
BLOCKS
  0
BLOCK
  5
20
330
1F
100
AcDbEntity
  8
0
100
AcDbBlockBegin
  2
*Model_Space
 70
     0
 10
0.0
 20
0.0
 30
0.0
  3
*Model_Space
  1

  0
ENDBLK
  5
21
330
1F
100
AcDbEntity
  8
0
100
AcDbBlockEnd
  0
BLOCK
  5
1C
330
1B
100
AcDbEntity
 67
     1
  8
0
100
AcDbBlockBegin
  2
*Paper_Space
 70
     0
 10
0.0
 20
0.0
 30
0.0
  3
*Paper_Space
  1

  0
ENDBLK
  5
1D
330
1B
100
AcDbEntity
 67
     1
  8
0
100
AcDbBlockEnd
  0
BLOCK
  5
24
330
23
100
AcDbEntity
  8
0
100
AcDbBlockBegin
  2
*Paper_Space0
 70
     0
 10
0.0
 20
0.0
 30
0.0
  3
*Paper_Space0
  1

  0
ENDBLK
  5
25
330
23
100
AcDbEntity
  8
0
100
AcDbBlockEnd
  0
ENDSEC
  0
SECTION
  2
ENTITIES
  0
ARC
  5
63
330
1F
100
AcDbEntity
  8
0
  6
Continuous
 62
     7
370
    25
100
AcDbCircle
 10
4.384518075
 20
0.4388426949
 30
0.0
 40
0.1
100
AcDbArc
 50
180.0
 51
270.0
  0
LINE
  5
64
330
1F
100
AcDbEntity
  8
0
  6
Continuous
 62
     7
370
    25
100
AcDbLine
 10
4.284518075
 20
0.4388426949
 30
0.0
 11
4.284518075
 21
1.2842373669
 31
0.0
  0
ARC
  5
65
330
1F
100
AcDbEntity
  8
0
  6
Continuous
 62
     7
370
    25
100
AcDbCircle
 10
4.384518075
 20
1.2842373669
 30
0.0
 40
0.1000000000000042
100
AcDbArc
 50
122.7262162952
 51
180.0
  0
LINE
  5
66
330
1F
100
AcDbEntity
  8
0
  6
Continuous
 62
     7
370
    25
100
AcDbLine
 10
10.8447367544
 20
5.5546683276
 30
0.0
 11
4.3304555444
 21
1.368363717
 31
0.0
  0
LINE
  5
67
330
1F
100
AcDbEntity
  8
0
  6
Continuous
 62
     7
370
    25
100
AcDbLine
 10
11.159518075
 20
5.4615186301
 30
0.0
 11
11.159518075
 21
4.8990066019
 31
0.0
  0
LINE
  5
68
330
1F
100
AcDbEntity
  8
0
  6
Continuous
 62
     7
370
    25
100
AcDbLine
 10
11.159518075
 20
4.8990066019
 30
0.0
 11
11.284518075
 21
4.8990066019
 31
0.0
  0
LINE
  5
69
330
1F
100
AcDbEntity
  8
0
  6
Continuous
 62
     7
370
    25
100
AcDbLine
 10
11.284518075
 20
4.8990066019
 30
0.0
 11
11.284518075
 21
5.443201616
 31
0.0
  0
LINE
  5
6A
330
1F
100
AcDbEntity
  8
0
  6
Continuous
 62
     7
370
    25
100
AcDbLine
 10
18.159518075
 20
5.0448775359
 30
0.0
 11
18.159518075
 21
4.5307824321
 31
0.0
  0
LINE
  5
6B
330
1F
100
AcDbEntity
  8
0
  6
Continuous
 62
     7
370
    25
100
AcDbLine
 10
18.159518075
 20
4.5307824321
 30
0.0
 11
18.284518075
 21
4.5307824321
 31
0.0
  0
LINE
  5
6C
330
1F
100
AcDbEntity
  8
0
  6
Continuous
 62
     7
370
    25
100
AcDbLine
 10
18.284518075
 20
4.5307824321
 30
0.0
 11
18.284518075
 21
5.0242023172
 31
0.0
  0
LINE
  5
6D
330
1F
100
AcDbEntity
  8
0
  6
Continuous
 62
     7
370
    25
100
AcDbLine
 10
23.159518075
 20
4.7063168424
 30
0.0
 11
23.159518075
 21
4.2196694414
 31
0.0
  0
LINE
  5
6E
330
1F
100
AcDbEntity
  8
0
  6
Continuous
 62
     7
370
    25
100
AcDbLine
 10
23.159518075
 20
4.2196694414
 30
0.0
 11
23.622018075
 21
4.2196694414
 31
0.0
  0
ARC
  5
6F
330
1F
100
AcDbEntity
  8
0
  6
Continuous
 62
     7
370
    25
100
AcDbCircle
 10
23.622018075
 20
4.1196694414
 30
0.0
 40
0.1000000000000085
100
AcDbArc
 50
0.0
 51
90.0
  0
LINE
  5
70
330
1F
100
AcDbEntity
  8
0
  6
Continuous
 62
     7
370
    25
100
AcDbLine
 10
23.722018075
 20
3.9508651074
 30
0.0
 11
23.722018075
 21
4.1196694414
 31
0.0
  0
ARC
  5
71
330
1F
100
AcDbEntity
  8
0
  6
Continuous
 62
     7
370
    25
100
AcDbCircle
 10
23.522018075
 20
3.9508651074
 30
0.0
 40
0.1999999999999993
100
AcDbArc
 50
315.0
 51
0.0
  0
LINE
  5
72
330
1F
100
AcDbEntity
  8
0
  6
Continuous
 62
     7
370
    25
100
AcDbLine
 10
23.5305967187
 20
3.6766010387
 30
0.0
 11
23.6634394312
 21
3.8094437512
 31
0.0
  0
ARC
  5
73
330
1F
100
AcDbEntity
  8
0
  6
Continuous
 62
     7
370
    25
100
AcDbCircle
 10
23.672018075
 20
3.5351796825
 30
0.0
 40
0.2000000000000128
100
AcDbArc
 50
135.0
 51
180.0
  0
LINE
  5
74
330
1F
100
AcDbEntity
  8
0
  6
Continuous
 62
     7
370
    25
100
AcDbLine
 10
23.472018075
 20
0.9351271931
 30
0.0
 11
23.472018075
 21
3.5351796825
 31
0.0
  0
ARC
  5
75
330
1F
100
AcDbEntity
  8
0
  6
Continuous
 62
     7
370
    25
100
AcDbCircle
 10
23.672018075
 20
0.9351271931
 30
0.0
 40
0.1999999999999992
100
AcDbArc
 50
180.0
 51
231.3083548819
  0
LINE
  5
76
330
1F
100
AcDbEntity
  8
0
  6
Continuous
 62
     7
370
    25
100
AcDbLine
 10
23.5469923056
 20
0.7790228787
 30
0.0
 11
23.6470438444
 21
0.6988904322
 31
0.0
  0
ARC
  5
77
330
1F
100
AcDbEntity
  8
0
  6
Continuous
 62
     7
370
    25
100
AcDbCircle
 10
23.522018075
 20
0.5427861178
 30
0.0
 40
0.2000000000000017
100
AcDbArc
 50
0.0
 51
51.3083548819
  0
LINE
  5
78
330
1F
100
AcDbEntity
  8
0
  6
Continuous
 62
     7
370
    25
100
AcDbLine
 10
23.722018075
 20
0.4388426949
 30
0.0
 11
23.722018075
 21
0.5427861178
 31
0.0
  0
ARC
  5
79
330
1F
100
AcDbEntity
  8
0
  6
Continuous
 62
     7
370
    25
100
AcDbCircle
 10
23.622018075
 20
0.4388426949
 30
0.0
 40
0.1000000000000085
100
AcDbArc
 50
270.0
 51
0.0
  0
LINE
  5
7A
330
1F
100
AcDbEntity
  8
0
  6
Continuous
 62
     7
370
    25
100
AcDbLine
 10
4.384518075
 20
0.3388426949
 30
0.0
 11
23.622018075
 21
0.3388426949
 31
0.0
  0
ARC
  5
7B
330
1F
100
AcDbEntity
  8
0
  6
Continuous
 62
     7
370
    25
100
AcDbCircle
 10
10.772018075
 20
4.6758550219
 30
0.0
 40
0.2000000000000058
100
AcDbArc
 50
0.0
 51
122.7262162952
  0
LINE
  5
7C
330
1F
100
AcDbEntity
  8
0
  6
Continuous
 62
     7
370
    25
100
AcDbLine
 10
10.6638930138
 20
4.8441077222
 30
0.0
 11
8.3608517312
 21
3.3640929625
 31
0.0
  0
ARC
  5
7D
330
1F
100
AcDbEntity
  8
0
  6
Continuous
 62
     7
370
    25
100
AcDbCircle
 10
8.4689767925
 20
3.1958402623
 30
0.0
 40
0.1999999999999979
100
AcDbArc
 50
122.7262162952
 51
230.0024157815
  0
LINE
  5
7E
330
1F
100
AcDbEntity
  8
0
  6
Continuous
 62
     7
370
    25
100
AcDbLine
 10
10.643467013
 20
1.1103103304
 30
0.0
 11
8.3404257304
 21
3.0426259534
 31
0.0
  0
ARC
  5
7F
330
1F
100
AcDbEntity
  8
0
  6
Continuous
 62
     7
370
    25
100
AcDbCircle
 10
10.772018075
 20
1.2635246393
 30
0.0
 40
0.2000000000000036
100
AcDbArc
 50
230.0024157815
 51
0.0
  0
LINE
  5
80
330
1F
100
AcDbEntity
  8
0
  6
Continuous
 62
     7
370
    25
100
AcDbLine
 10
10.972018075
 20
1.2635246393
 30
0.0
 11
10.972018075
 21
4.6758550219
 31
0.0
  0
SPLINE
  5
81
330
1F
100
AcDbEntity
  8
0
  6
Continuous
 62
     7
370
    25
100
AcDbSpline
210
0.0
220
0.0
230
1.0
 70
     8
 71
     3
 72
     8
 73
     4
 74
     0
 42
0.00000001
 43
0.00000001
 40
0.6264246221995555
 40
0.6264246221995555
 40
0.6264246221995555
 40
0.6264246221995555
 40
0.7338943275573987
 40
0.7338943275573987
 40
0.7338943275573987
 40
0.7338943275573987
 10
19.29962120670311
 20
4.564312618877377
 30
0.0
 10
20.28393522307343
 20
4.500076632281934
 30
0.0
 10
21.2680592953181
 20
4.433565017941801
 30
0.0
 10
22.25185020690762
 20
4.363539548747913
 30
0.0
  0
ARC
  5
82
330
1F
100
AcDbEntity
  8
0
  6
Continuous
 62
     7
370
    25
100
AcDbCircle
 10
19.2865969815
 20
4.3647371455
 30
0.0
 40
0.200000000000018
100
AcDbArc
 50
86.2661921101
 51
228.5164790639
  0
LINE
  5
83
330
1F
100
AcDbEntity
  8
0
  6
Continuous
 62
     7
370
    25
100
AcDbLine
 10
20.6886321949
 20
2.8580693063
 30
0.0
 11
19.1541160593
 21
4.2149078918
 31
0.0
  0
ARC
  5
84
330
1F
100
AcDbEntity
  8
0
  6
Continuous
 62
     7
370
    25
100
AcDbCircle
 10
20.8211131171
 20
3.00789856
 30
0.0
 40
0.2000000000000158
100
AcDbArc
 50
228.5164790639
 51
309.2205484057
  0
LINE
  5
85
330
1F
100
AcDbEntity
  8
0
  6
Continuous
 62
     7
370
    25
100
AcDbLine
 10
22.3641117266
 20
4.0091007259
 30
0.0
 11
20.9475745543
 21
2.852955006
 31
0.0
  0
ARC
  5
86
330
1F
100
AcDbEntity
  8
0
  6
Continuous
 62
     7
370
    25
100
AcDbCircle
 10
18.672018075
 20
3.9737586264
 30
0.0
 40
0.2000000000000051
100
AcDbArc
 50
48.5164790639
 51
180.0
  0
LINE
  5
87
330
1F
100
AcDbEntity
  8
0
  6
Continuous
 62
     7
370
    25
100
AcDbLine
 10
18.472018075
 20
1.2538556143
 30
0.0
 11
18.472018075
 21
3.9737586264
 31
0.0
  0
ARC
  5
88
330
1F
100
AcDbEntity
  8
0
  6
Continuous
 62
     7
370
    25
100
AcDbCircle
 10
18.672018075
 20
1.2538556143
 30
0.0
 40
0.2000000000000087
100
AcDbArc
 50
180.0
 51
309.2205484057
  0
LINE
  5
89
330
1F
100
AcDbEntity
  8
0
  6
Continuous
 62
     7
370
    25
100
AcDbLine
 10
20.3980553856
 20
2.4044498434
 30
0.0
 11
18.7984795122
 21
1.0989120604
 31
0.0
  0
ARC
  5
8A
330
1F
100
AcDbEntity
  8
0
  6
Continuous
 62
     7
370
    25
100
AcDbCircle
 10
20.2715939484
 20
2.5593933974
 30
0.0
 40
0.2000000000000051
100
AcDbArc
 50
309.2205484057
 51
48.5164790639
  0
LINE
  5
8B
330
1F
100
AcDbEntity
  8
0
  6
Continuous
 62
     7
370
    25
100
AcDbLine
 10
20.4040748705
 20
2.7092226511
 30
0.0
 11
18.8044989971
 21
4.1235878801
 31
0.0
  0
ARC
  5
8C
330
1F
100
AcDbEntity
  8
0
  6
Continuous
 62
     7
370
    25
100
AcDbCircle
 10
22.772018075
 20
3.6966283725
 30
0.0
 40
0.2000000000000111
100
AcDbArc
 50
0.0
 51
129.2205484057
  0
LINE
  5
8D
330
1F
100
AcDbEntity
  8
0
  6
Continuous
 62
     7
370
    25
100
AcDbLine
 10
21.2260325916
 20
2.6929883874
 30
0.0
 11
22.6455566378
 21
3.8515719264
 31
0.0
  0
ARC
  5
8E
330
1F
100
AcDbEntity
  8
0
  6
Continuous
 62
     7
370
    25
100
AcDbCircle
 10
21.3524940288
 20
2.5380448335
 30
0.0
 40
0.2000000000000142
100
AcDbArc
 50
129.2205484057
 51
228.5164790639
  0
LINE
  5
8F
330
1F
100
AcDbEntity
  8
0
  6
Continuous
 62
     7
370
    25
100
AcDbLine
 10
22.6395371528
 20
1.1330544548
 30
0.0
 11
21.2200131066
 21
2.3882155798
 31
0.0
  0
ARC
  5
90
330
1F
100
AcDbEntity
  8
0
  6
Continuous
 62
     7
370
    25
100
AcDbCircle
 10
22.772018075
 20
1.2828837085
 30
0.0
 40
0.1999999999999993
100
AcDbArc
 50
228.5164790639
 51
0.0
  0
LINE
  5
91
330
1F
100
AcDbEntity
  8
0
  6
Continuous
 62
     7
370
    25
100
AcDbLine
 10
22.972018075
 20
1.2828837085
 30
0.0
 11
22.972018075
 21
3.6966283725
 31
0.0
  0
ARC
  5
92
330
1F
100
AcDbEntity
  8
0
  6
Continuous
 62
     7
370
    25
100
AcDbCircle
 10
14.8807298372
 20
3.1534345679
 30
0.0
 40
0.2000000000000055
100
AcDbArc
 50
235.9124556623
 51
301.6764014512
  0
LINE
  5
93
330
1F
100
AcDbEntity
  8
0
  6
Continuous
 62
     7
370
    25
100
AcDbLine
 10
17.1772189328
 20
4.3354587772
 30
0.0
 11
14.9857540734
 21
2.983229075
 31
0.0
  0
ARC
  5
94
330
1F
100
AcDbEntity
  8
0
  6
Continuous
 62
     7
370
    25
100
AcDbCircle
 10
17.0721946967
 20
4.5056642701
 30
0.0
 40
0.2000000000000012
100
AcDbArc
 50
301.6764014512
 51
86.4441064777
  0
SPLINE
  5
95
330
1F
100
AcDbEntity
  8
0
  6
Continuous
 62
     7
370
    25
100
AcDbSpline
210
0.0
220
0.0
230
1.0
 70
     8
 71
     3
 72
     9
 73
     5
 74
     0
 42
0.00000001
 43
0.00000001
 40
0.3786318592364102
 40
0.3786318592364102
 40
0.3786318592364102
 40
0.3786318592364102
 40
0.5
 40
0.5458213943149816
 40
0.5458213943149816
 40
0.5458213943149816
 40
0.5458213943149816
 10
12.48874613297797
 20
4.979609604435646
 30
0.0
 10
13.60100462785809
 20
4.915665821409536
 30
0.0
 10
15.13304700920075
 20
4.825355780873005
 30
0.0
 10
16.66481579206891
 20
4.731365339562249
 30
0.0
 10
17.08459914001047
 20
4.705279223960869
 30
0.0
  0
ARC
  5
96
330
1F
100
AcDbEntity
  8
0
  6
Continuous
 62
     7
370
    25
100
AcDbCircle
 10
12.4772670795
 20
4.7799392979
 30
0.0
 40
0.2000000000000223
100
AcDbArc
 50
86.7096852197
 51
235.9124556623
  0
LINE
  5
97
330
1F
100
AcDbEntity
  8
0
  6
Continuous
 62
     7
370
    25
100
AcDbLine
 10
12.365175286
 20
4.6143028591
 30
0.0
 11
14.7686380437
 21
2.9877981292
 31
0.0
  0
ARC
  5
98
330
1F
100
AcDbEntity
  8
0
  6
Continuous
 62
     7
370
    25
100
AcDbCircle
 10
11.672018075
 20
4.4796539544
 30
0.0
 40
0.1999999999999998
100
AcDbArc
 50
55.9124556623
 51
180.0
  0
LINE
  5
99
330
1F
100
AcDbEntity
  8
0
  6
Continuous
 62
     7
370
    25
100
AcDbLine
 10
11.472018075
 20
1.1735190187
 30
0.0
 11
11.472018075
 21
4.4796539544
 31
0.0
  0
ARC
  5
9A
330
1F
100
AcDbEntity
  8
0
  6
Continuous
 62
     7
370
    25
100
AcDbCircle
 10
11.672018075
 20
1.1735190187
 30
0.0
 40
0.2000000000000008
100
AcDbArc
 50
180.0
 51
301.6764014512
  0
LINE
  5
9B
330
1F
100
AcDbEntity
  8
0
  6
Continuous
 62
     7
370
    25
100
AcDbLine
 10
14.3324543036
 20
2.580114533
 30
0.0
 11
11.7770423112
 21
1.0033135258
 31
0.0
  0
ARC
  5
9C
330
1F
100
AcDbEntity
  8
0
  6
Continuous
 62
     7
370
    25
100
AcDbCircle
 10
14.2274300675
 20
2.7503200259
 30
0.0
 40
0.2000000000000048
100
AcDbArc
 50
301.6764014512
 51
55.9124556623
  0
LINE
  5
9D
330
1F
100
AcDbEntity
  8
0
  6
Continuous
 62
     7
370
    25
100
AcDbLine
 10
14.3395218609
 20
2.9159564646
 30
0.0
 11
11.7841098685
 21
4.6452903931
 31
0.0
  0
ARC
  5
9E
330
1F
100
AcDbEntity
  8
0
  6
Continuous
 62
     7
370
    25
100
AcDbCircle
 10
10.1891162444
 20
0.8388426949
 30
0.0
 40
0.2000000000000049
100
AcDbArc
 50
270.0
 51
50.0024157815
  0
LINE
  5
9F
330
1F
100
AcDbEntity
  8
0
  6
Continuous
 62
     7
370
    25
100
AcDbLine
 10
10.3176673064
 20
0.9920570038
 30
0.0
 11
7.9808201715
 21
2.9527366762
 31
0.0
  0
ARC
  5
A0
330
1F
100
AcDbEntity
  8
0
  6
Continuous
 62
     7
370
    25
100
AcDbCircle
 10
7.8522691095
 20
2.7995223673
 30
0.0
 40
0.2000000000000021
100
AcDbArc
 50
50.0024157815
 51
122.7262162952
  0
LINE
  5
A1
330
1F
100
AcDbEntity
  8
0
  6
Continuous
 62
     7
370
    25
100
AcDbLine
 10
7.7441440482
 20
2.9677750675
 30
0.0
 11
5.0863036885
 21
1.2597540298
 31
0.0
  0
ARC
  5
A2
330
1F
100
AcDbEntity
  8
0
  6
Continuous
 62
     7
370
    25
100
AcDbCircle
 10
5.1944287497
 20
1.0915013296
 30
0.0
 40
0.2000000000000001
100
AcDbArc
 50
122.7262162952
 51
180.0
  0
LINE
  5
A3
330
1F
100
AcDbEntity
  8
0
  6
Continuous
 62
     7
370
    25
100
AcDbLine
 10
4.9944287497
 20
1.0915013296
 30
0.0
 11
4.9944287497
 21
0.8388426949
 31
0.0
  0
ARC
  5
A4
330
1F
100
AcDbEntity
  8
0
  6
Continuous
 62
     7
370
    25
100
AcDbCircle
 10
5.1944287497
 20
0.8388426949
 30
0.0
 40
0.2000000000000001
100
AcDbArc
 50
180.0
 51
270.0
  0
LINE
  5
A5
330
1F
100
AcDbEntity
  8
0
  6
Continuous
 62
     7
370
    25
100
AcDbLine
 10
5.1944287497
 20
0.6388426949
 30
0.0
 11
10.1891162444
 21
0.6388426949
 31
0.0
  0
ARC
  5
A6
330
1F
100
AcDbEntity
  8
0
  6
Continuous
 62
     7
370
    25
100
AcDbCircle
 10
17.772018075
 20
4.1149507679
 30
0.0
 40
0.2000000000000048
100
AcDbArc
 50
0.0
 51
121.6764014512
  0
LINE
  5
A7
330
1F
100
AcDbEntity
  8
0
  6
Continuous
 62
     7
370
    25
100
AcDbLine
 10
17.6669938388
 20
4.2851562608
 30
0.0
 11
15.4114679694
 21
2.8933981126
 31
0.0
  0
ARC
  5
A8
330
1F
100
AcDbEntity
  8
0
  6
Continuous
 62
     7
370
    25
100
AcDbCircle
 10
15.5164922056
 20
2.7231926197
 30
0.0
 40
0.1999999999999985
100
AcDbArc
 50
121.6764014512
 51
235.9124556623
  0
LINE
  5
A9
330
1F
100
AcDbEntity
  8
0
  6
Continuous
 62
     7
370
    25
100
AcDbLine
 10
15.4044004121
 20
2.5575561809
 30
0.0
 11
17.6599262815
 21
1.0311653586
 31
0.0
  0
ARC
  5
AA
330
1F
100
AcDbEntity
  8
0
  6
Continuous
 62
     7
370
    25
100
AcDbCircle
 10
17.772018075
 20
1.1968017973
 30
0.0
 40
0.200000000000002
100
AcDbArc
 50
235.9124556623
 51
0.0
  0
LINE
  5
AB
330
1F
100
AcDbEntity
  8
0
  6
Continuous
 62
     7
370
    25
100
AcDbLine
 10
17.972018075
 20
1.1968017973
 30
0.0
 11
17.972018075
 21
4.1149507679
 31
0.0
  0
ARC
  5
AC
330
1F
100
AcDbEntity
  8
0
  6
Continuous
 62
     7
370
    25
100
AcDbCircle
 10
17.0519927587
 20
0.8388426949
 30
0.0
 40
0.2000000000000057
100
AcDbArc
 50
270.0
 51
55.9124556623
  0
LINE
  5
AD
330
1F
100
AcDbEntity
  8
0
  6
Continuous
 62
     7
370
    25
100
AcDbLine
 10
17.1640845521
 20
1.0044791336
 30
0.0
 11
14.9752842293
 21
2.4857145164
 31
0.0
  0
ARC
  5
AE
330
1F
100
AcDbEntity
  8
0
  6
Continuous
 62
     7
370
    25
100
AcDbCircle
 10
14.8631924359
 20
2.3200780777
 30
0.0
 40
0.1999999999999997
100
AcDbArc
 50
55.9124556623
 51
121.6764014512
  0
LINE
  5
AF
330
1F
100
AcDbEntity
  8
0
  6
Continuous
 62
     7
370
    25
100
AcDbLine
 10
14.7581681997
 20
2.4902835706
 30
0.0
 11
12.3576327843
 21
1.0090481878
 31
0.0
  0
ARC
  5
B0
330
1F
100
AcDbEntity
  8
0
  6
Continuous
 62
     7
370
    25
100
AcDbCircle
 10
12.4626570204
 20
0.8388426949
 30
0.0
 40
0.2000000000000001
100
AcDbArc
 50
121.6764014512
 51
270.0
  0
LINE
  5
B1
330
1F
100
AcDbEntity
  8
0
  6
Continuous
 62
     7
370
    25
100
AcDbLine
 10
12.4626570204
 20
0.6388426949
 30
0.0
 11
17.0519927587
 21
0.6388426949
 31
0.0
  0
ARC
  5
B2
330
1F
100
AcDbEntity
  8
0
  6
Continuous
 62
     7
370
    25
100
AcDbCircle
 10
22.2174501785
 20
0.8388426949
 30
0.0
 40
0.2000000000000036
100
AcDbArc
 50
270.0
 51
48.5164790639
  0
LINE
  5
B3
330
1F
100
AcDbEntity
  8
0
  6
Continuous
 62
     7
370
    25
100
AcDbLine
 10
22.3499311007
 20
0.9886719486
 30
0.0
 11
20.9354557822
 21
2.2393689246
 31
0.0
  0
ARC
  5
B4
330
1F
100
AcDbEntity
  8
0
  6
Continuous
 62
     7
370
    25
100
AcDbCircle
 10
20.8029748601
 20
2.0895396709
 30
0.0
 40
0.1999999999999973
100
AcDbArc
 50
48.5164790639
 51
129.2205484057
  0
LINE
  5
B5
330
1F
100
AcDbEntity
  8
0
  6
Continuous
 62
     7
370
    25
100
AcDbLine
 10
19.1441298077
 20
0.9937862488
 30
0.0
 11
20.6765134229
 21
2.2444832248
 31
0.0
  0
ARC
  5
B6
330
1F
100
AcDbEntity
  8
0
  6
Continuous
 62
     7
370
    25
100
AcDbCircle
 10
19.2705912449
 20
0.8388426949
 30
0.0
 40
0.2000000000000059
100
AcDbArc
 50
129.2205484057
 51
270.0
  0
LINE
  5
B7
330
1F
100
AcDbEntity
  8
0
  6
Continuous
 62
     7
370
    25
100
AcDbLine
 10
19.2705912449
 20
0.6388426949
 30
0.0
 11
22.2174501785
 21
0.6388426949
 31
0.0
  0
ARC
  5
B8
330
1F
100
AcDbEntity
  8
0
  6
Continuous
 62
     7
370
    25
100
AcDbCircle
 10
22.2376502894
 20
4.1640442798
 30
0.0
 40
0.2000000000000045
100
AcDbArc
 50
309.2205484057
 51
85.9285977654
  0
ARC
  5
B9
330
1F
100
AcDbEntity
  8
0
  6
Continuous
 62
     7
370
    25
100
AcDbCircle
 10
23.059518075
 20
4.7063168424
 30
0.0
 40
0.1000000000000441
100
AcDbArc
 50
0.0
 51
85.8177558452
  0
ARC
  5
BA
330
1F
100
AcDbEntity
  8
0
  6
Continuous
 62
     7
370
    25
100
AcDbCircle
 10
11.384518075
 20
5.443201616
 30
0.0
 40
0.0999999999999989
100
AcDbArc
 50
86.7659894177
 51
180.0
  0
ARC
  5
BB
330
1F
100
AcDbEntity
  8
0
  6
Continuous
 62
     7
370
    25
100
AcDbCircle
 10
11.059518075
 20
5.4615186301
 30
0.0
 40
0.0999999999999996
100
AcDbArc
 50
0.0
 51
86.782475575
  0
SPLINE
  5
BC
330
1F
100
AcDbEntity
  8
0
  6
Continuous
 62
     7
370
    25
100
AcDbSpline
210
0.0
220
0.0
230
1.0
 70
     8
 71
     3
 72
    11
 73
     7
 74
     0
 42
0.00000001
 43
0.00000001
 40
0.5921946428138046
 40
0.5921946428138046
 40
0.5921946428138046
 40
0.5921946428138046
 40
0.625
 40
0.7402770086595147
 40
0.7559020086595147
 40
0.7622446707276814
 40
0.7622446707276814
 40
0.7622446707276814
 40
0.7622446707276814
 10
18.39088966341079
 20
5.123999125046014
 30
0.0
 10
18.69160171752243
 20
5.104799979462094
 30
0.0
 10
20.04898679997496
 20
5.017262202498316
 30
0.0
 10
21.54949474611177
 20
4.915719548521898
 30
0.0
 10
22.80735313507411
 20
4.824977339780866
 30
0.0
 10
23.00868226889194
 20
4.810301150538701
 30
0.0
 10
23.06681098777561
 20
4.806050554963215
 30
0.0
  0
ARC
  5
BD
330
1F
100
AcDbEntity
  8
0
  6
Continuous
 62
     7
370
    25
100
AcDbCircle
 10
10.898799285
 20
5.4705419775
 30
0.0
 40
0.0999999999999925
100
AcDbArc
 50
86.7906835807
 51
122.7262162952
  0
SPLINE
  5
BE
330
1F
100
AcDbEntity
  8
0
  6
Continuous
 62
     7
370
    25
100
AcDbSpline
210
0.0
220
0.0
230
1.0
 70
     8
 71
     3
 72
    11
 73
     7
 74
     0
 42
0.00000001
 43
0.00000001
 40
0.3376482074723054
 40
0.3376482074723054
 40
0.3376482074723054
 40
0.3376482074723054
 40
0.350061528890441
 40
0.381311528890441
 40
0.5
 40
0.5803747267216587
 40
0.5803747267216587
 40
0.5803747267216587
 40
0.5803747267216587
 10
11.39015949160714
 20
5.543042361256031
 30
0.0
 10
11.50397562355053
 20
5.536611277266658
 30
0.0
 10
11.90431477415967
 20
5.51393002876997
 30
0.0
 10
13.39282774639458
 20
5.428815501881972
 30
0.0
 10
15.50427050210299
 20
5.304269804907737
 30
0.0
 10
17.32907737762906
 20
5.191380238352537
 30
0.0
 10
18.06584429004359
 20
5.144677230262936
 30
0.0
  0
LWPOLYLINE
  5
BF
330
1F
100
AcDbEntity
  8
0
  6
Continuous
 62
     7
370
    25
100
AcDbPolyline
 90
        3
 70
   128
 43
0.0
 10
10.9043976703
 20
5.5703851449
 10
10.9944083991
 20
5.5653344551
 10
11.0651307634
 20
5.5613609945
  0
ARC
  5
C0
330
1F
100
AcDbEntity
  8
0
  6
Continuous
 62
     7
370
    25
100
AcDbCircle
 10
18.059518075
 20
5.0448775359
 30
0.0
 40
0.1000000000000085
100
AcDbArc
 50
0.0
 51
86.3729237001
  0
ARC
  5
C1
330
1F
100
AcDbEntity
  8
0
  6
Continuous
 62
     7
370
    25
100
AcDbCircle
 10
18.384518075
 20
5.0242023172
 30
0.0
 40
0.1000000000000085
100
AcDbArc
 50
86.3468741214
 51
180.0
  0
ARC
  5
C2
330
1F
100
AcDbEntity
  8
0
  6
Continuous
 62
     7
370
    25
100
AcDbCircle
 10
23.4563650599
 20
11.4312021434
 30
0.0
 40
0.2000000000000087
100
AcDbArc
 50
308.6916451181
 51
0.0
  0
LINE
  5
C3
330
1F
100
AcDbEntity
  8
0
  6
Continuous
 62
     7
370
    25
100
AcDbLine
 10
23.4813392905
 20
11.1949653825
 30
0.0
 11
23.5813908293
 21
11.275097829
 31
0.0
  0
ARC
  5
C4
330
1F
100
AcDbEntity
  8
0
  6
Continuous
 62
     7
370
    25
100
AcDbCircle
 10
23.6063650599
 20
11.0388610681
 30
0.0
 40
0.1999999999999993
100
AcDbArc
 50
128.6916451181
 51
180.0
  0
LINE
  5
C5
330
1F
100
AcDbEntity
  8
0
  6
Continuous
 62
     7
370
    25
100
AcDbLine
 10
23.4063650599
 20
11.0388610681
 30
0.0
 11
23.4063650599
 21
8.4388085787
 31
0.0
  0
ARC
  5
C6
330
1F
100
AcDbEntity
  8
0
  6
Continuous
 62
     7
370
    25
100
AcDbCircle
 10
23.6063650599
 20
8.4388085787
 30
0.0
 40
0.1999999999999993
100
AcDbArc
 50
180.0
 51
225.0
  0
LINE
  5
C7
330
1F
100
AcDbEntity
  8
0
  6
Continuous
 62
     7
370
    25
100
AcDbLine
 10
23.4649437037
 20
8.2973872225
 30
0.0
 11
23.5977864161
 21
8.16454451
 31
0.0
  0
ARC
  5
C8
330
1F
100
AcDbEntity
  8
0
  6
Continuous
 62
     7
370
    25
100
AcDbCircle
 10
23.4563650599
 20
8.0231231538
 30
0.0
 40
0.2000000000000059
100
AcDbArc
 50
0.0
 51
45.0
  0
LINE
  5
C9
330
1F
100
AcDbEntity
  8
0
  6
Continuous
 62
     7
370
    25
100
AcDbLine
 10
23.6563650599
 20
8.0231231538
 30
0.0
 11
23.6563650599
 21
7.8543188198
 31
0.0
  0
ARC
  5
CA
330
1F
100
AcDbEntity
  8
0
  6
Continuous
 62
     7
370
    25
100
AcDbCircle
 10
23.5563650599
 20
7.8543188198
 30
0.0
 40
0.1000000000000085
100
AcDbArc
 50
270.0
 51
0.0
  0
LINE
  5
CB
330
1F
100
AcDbEntity
  8
0
  6
Continuous
 62
     7
370
    25
100
AcDbLine
 10
23.0938650599
 20
7.7543188198
 30
0.0
 11
23.5563650599
 21
7.7543188198
 31
0.0
  0
LINE
  5
CC
330
1F
100
AcDbEntity
  8
0
  6
Continuous
 62
     7
370
    25
100
AcDbLine
 10
23.0938650599
 20
7.2676714188
 30
0.0
 11
23.0938650599
 21
7.7543188198
 31
0.0
  0
ARC
  5
CD
330
1F
100
AcDbEntity
  8
0
  6
Continuous
 62
     7
370
    25
100
AcDbCircle
 10
22.9938650599
 20
7.2676714188
 30
0.0
 40
0.1000000000000441
100
AcDbArc
 50
274.1822441548
 51
0.0
  0
SPLINE
  5
CE
330
1F
100
AcDbEntity
  8
0
  6
Continuous
 62
     7
370
    25
100
AcDbSpline
210
0.0
220
0.0
230
1.0
 70
     8
 71
     3
 72
    17
 73
    13
 74
     0
 42
0.00000001
 43
0.00000001
 40
0.0
 40
0.0
 40
0.0
 40
0.0
 40
0.1094737643058371
 40
0.2168420485963684
 40
0.3221049195870153
 40
0.4252624480781259
 40
0.5263147092952385
 40
0.6252617832655681
 40
0.7221037552352995
 40
0.8168407161332584
 40
0.9094727630871897
 40
1.0
 40
1.0
 40
1.0
 40
1.0
 10
18.32523571633723
 20
6.850003726313807
 30
0.0
 10
18.49591049739176
 20
6.860940516228687
 30
0.0
 10
18.83397751648325
 20
6.882603751664575
 30
0.0
 10
19.33612294205836
 20
6.91527010725175
 30
0.0
 10
19.82839745139358
 20
6.947665617992676
 30
0.0
 10
20.31079893421774
 20
6.979823340699056
 30
0.0
 10
20.78332796020033
 20
7.011734414271374
 30
0.0
 10
21.24598431741088
 20
7.043402039506485
 30
0.0
 10
21.6987683047859
 20
7.074822073923294
 30
0.0
 10
22.14167897813333
 20
7.106007481986481
 30
0.0
 10
22.57471972631295
 20
7.136911909215637
 30
0.0
 10
22.86010491790603
 20
7.157677491405771
 30
0.0
 10
23.00115773436906
 20
7.167940966665515
 30
0.0
  0
ARC
  5
CF
330
1F
100
AcDbEntity
  8
0
  6
Continuous
 62
     7
370
    25
100
AcDbCircle
 10
18.3188650599
 20
6.949785944
 30
0.0
 40
0.1000000000000085
100
AcDbArc
 50
180.0
 51
273.6531258786
  0
LINE
  5
D0
330
1F
100
AcDbEntity
  8
0
  6
Continuous
 62
     7
370
    25
100
AcDbLine
 10
18.2188650599
 20
7.4432058291
 30
0.0
 11
18.2188650599
 21
6.949785944
 31
0.0
  0
LINE
  5
D1
330
1F
100
AcDbEntity
  8
0
  6
Continuous
 62
     7
370
    25
100
AcDbLine
 10
18.0938650599
 20
7.4432058291
 30
0.0
 11
18.2188650599
 21
7.4432058291
 31
0.0
  0
LINE
  5
D2
330
1F
100
AcDbEntity
  8
0
  6
Continuous
 62
     7
370
    25
100
AcDbLine
 10
18.0938650599
 20
6.9291107253
 30
0.0
 11
18.0938650599
 21
7.4432058291
 31
0.0
  0
ARC
  5
D3
330
1F
100
AcDbEntity
  8
0
  6
Continuous
 62
     7
370
    25
100
AcDbCircle
 10
17.9938650599
 20
6.9291107253
 30
0.0
 40
0.1000000000000085
100
AcDbArc
 50
273.6270762999
 51
0.0
  0
SPLINE
  5
D4
330
1F
100
AcDbEntity
  8
0
  6
Continuous
 62
     7
370
    25
100
AcDbSpline
210
0.0
220
0.0
230
1.0
 70
     8
 71
     3
 72
    18
 73
    14
 74
     0
 42
0.00000001
 43
0.00000001
 40
0.0
 40
0.0
 40
0.0
 40
0.0
 40
0.0993228509745491
 40
0.1975633751690227
 40
0.294721605968447
 40
0.390797577886098
 40
0.4857913266148822
 40
0.5797028890816552
 40
0.6725323035047389
 40
0.7642796094547912
 40
0.8549448479193202
 40
0.9280830736015062
 40
1.0
 40
1.0
 40
1.0
 40
1.0
 10
11.32450691467034
 20
6.430938139886102
 30
0.0
 10
11.5455622375287
 20
6.443458569027661
 30
0.0
 10
11.98526403076624
 20
6.468362991479296
 30
0.0
 10
12.64117637947827
 20
6.505991685392909
 30
0.0
 10
13.28984213330006
 20
6.543562113801957
 30
0.0
 10
13.93125942268017
 20
6.581107388601953
 30
0.0
 10
14.56542873899204
 20
6.61861880926596
 30
0.0
 10
15.19234995964412
 20
6.65609856703697
 30
0.0
 10
15.81202309404314
 20
6.693546445142238
 30
0.0
 10
16.42444822607924
 20
6.730961168244895
 30
0.0
 10
16.99303575419369
 20
6.766087524752706
 30
0.0
 10
17.517481966491
 20
6.798806150073224
 30
0.0
 10
17.84019350476253
 20
6.819205710347162
 30
0.0
 10
18.00019073073426
 20
6.829319612912763
 30
0.0
  0
ARC
  5
D5
330
1F
100
AcDbEntity
  8
0
  6
Continuous
 62
     7
370
    25
100
AcDbCircle
 10
11.3188650599
 20
6.5307866452
 30
0.0
 40
0.0999999999999998
100
AcDbArc
 50
180.0
 51
273.2340105823
  0
LINE
  5
D6
330
1F
100
AcDbEntity
  8
0
  6
Continuous
 62
     7
370
    25
100
AcDbLine
 10
11.2188650599
 20
7.0749816593
 30
0.0
 11
11.2188650599
 21
6.5307866452
 31
0.0
  0
LINE
  5
D7
330
1F
100
AcDbEntity
  8
0
  6
Continuous
 62
     7
370
    25
100
AcDbLine
 10
11.0938650599
 20
7.0749816593
 30
0.0
 11
11.2188650599
 21
7.0749816593
 31
0.0
  0
LINE
  5
D8
330
1F
100
AcDbEntity
  8
0
  6
Continuous
 62
     7
370
    25
100
AcDbLine
 10
11.0938650599
 20
6.5124696311
 30
0.0
 11
11.0938650599
 21
7.0749816593
 31
0.0
  0
ARC
  5
D9
330
1F
100
AcDbEntity
  8
0
  6
Continuous
 62
     7
370
    25
100
AcDbCircle
 10
10.9938650599
 20
6.5124696311
 30
0.0
 40
0.1
100
AcDbArc
 50
273.217524425
 51
0.0
  0
LINE
  5
DA
330
1F
100
AcDbEntity
  8
0
  6
Continuous
 62
     7
370
    25
100
AcDbLine
 10
10.8387446572
 20
6.4036030805
 30
0.0
 11
10.9994778163
 21
6.4126260577
 31
0.0
  0
ARC
  5
DB
330
1F
100
AcDbEntity
  8
0
  6
Continuous
 62
     7
370
    25
100
AcDbCircle
 10
10.8331462699
 20
6.5034462837
 30
0.0
 40
0.0999999999999995
100
AcDbArc
 50
237.2737837048
 51
273.2093164193
  0
LINE
  5
DC
330
1F
100
AcDbEntity
  8
0
  6
Continuous
 62
     7
370
    25
100
AcDbLine
 10
10.7790837393
 20
6.4193199336
 30
0.0
 11
4.2648025293
 21
10.6056245442
 31
0.0
  0
ARC
  5
DD
330
1F
100
AcDbEntity
  8
0
  6
Continuous
 62
     7
370
    25
100
AcDbCircle
 10
4.3188650599
 20
10.6897508943
 30
0.0
 40
0.100000000000004
100
AcDbArc
 50
180.0
 51
237.2737837048
  0
LINE
  5
DE
330
1F
100
AcDbEntity
  8
0
  6
Continuous
 62
     7
370
    25
100
AcDbLine
 10
4.2188650599
 20
11.5351455663
 30
0.0
 11
4.2188650599
 21
10.6897508943
 31
0.0
  0
ARC
  5
DF
330
1F
100
AcDbEntity
  8
0
  6
Continuous
 62
     7
370
    25
100
AcDbCircle
 10
4.3188650599
 20
11.5351455663
 30
0.0
 40
0.1000000000000014
100
AcDbArc
 50
90.0
 51
180.0
  0
LINE
  5
E0
330
1F
100
AcDbEntity
  8
0
  6
Continuous
 62
     7
370
    25
100
AcDbLine
 10
4.3188650599
 20
11.6351455663
 30
0.0
 11
23.5563650599
 21
11.6351455663
 31
0.0
  0
ARC
  5
E1
330
1F
100
AcDbEntity
  8
0
  6
Continuous
 62
     7
370
    25
100
AcDbCircle
 10
23.5563650599
 20
11.5351455663
 30
0.0
 40
0.1000000000000085
100
AcDbArc
 50
0.0
 51
90.0
  0
LINE
  5
E2
330
1F
100
AcDbEntity
  8
0
  6
Continuous
 62
     7
370
    25
100
AcDbLine
 10
23.6563650599
 20
11.5351455663
 30
0.0
 11
23.6563650599
 21
11.4312021434
 31
0.0
  0
ARC
  5
E3
330
1F
100
AcDbEntity
  8
0
  6
Continuous
 62
     7
370
    25
100
AcDbCircle
 10
22.1719972743
 20
7.8099439814
 30
0.0
 40
0.2000000000000123
100
AcDbArc
 50
274.0714022346
 51
50.7794515943
  0
LINE
  5
E4
330
1F
100
AcDbEntity
  8
0
  6
Continuous
 62
     7
370
    25
100
AcDbLine
 10
22.2984587115
 20
7.9648875353
 30
0.0
 11
20.8819215392
 21
9.1210332551
 31
0.0
  0
ARC
  5
E5
330
1F
100
AcDbEntity
  8
0
  6
Continuous
 62
     7
370
    25
100
AcDbCircle
 10
20.755460102
 20
8.9660897012
 30
0.0
 40
0.2000000000000116
100
AcDbArc
 50
50.7794515943
 51
131.4835209361
  0
LINE
  5
E6
330
1F
100
AcDbEntity
  8
0
  6
Continuous
 62
     7
370
    25
100
AcDbLine
 10
20.6229791798
 20
9.1159189549
 30
0.0
 11
19.0884630442
 21
7.7590803694
 31
0.0
  0
ARC
  5
E7
330
1F
100
AcDbEntity
  8
0
  6
Continuous
 62
     7
370
    25
100
AcDbCircle
 10
19.2209439664
 20
7.6092511157
 30
0.0
 40
0.2000000000000171
100
AcDbArc
 50
131.4835209361
 51
273.7338078899
  0
SPLINE
  5
E8
330
1F
100
AcDbEntity
  8
0
  6
Continuous
 62
     7
370
    25
100
AcDbSpline
210
0.0
220
0.0
230
1.0
 70
     8
 71
     3
 72
     8
 73
     4
 74
     0
 42
0.00000001
 43
0.00000001
 40
0.6264246221995555
 40
0.6264246221995555
 40
0.6264246221995555
 40
0.6264246221995555
 40
0.7338943275574026
 40
0.7338943275574026
 40
0.7338943275574026
 40
0.7338943275574026
 10
19.23396819160733
 20
7.409675642313291
 30
0.0
 10
20.21828220797769
 20
7.473911628908738
 30
0.0
 10
21.20240628022239
 20
7.540423243248872
 30
0.0
 10
22.18619719181194
 20
7.610448712442763
 30
0.0
  0
ARC
  5
E9
330
1F
100
AcDbEntity
  8
0
  6
Continuous
 62
     7
370
    25
100
AcDbCircle
 10
21.2868410137
 20
9.4359434277
 30
0.0
 40
0.1999999999999988
100
AcDbArc
 50
131.4835209361
 51
230.7794515943
  0
LINE
  5
EA
330
1F
100
AcDbEntity
  8
0
  6
Continuous
 62
     7
370
    25
100
AcDbLine
 10
21.1603795765
 20
9.2809998738
 30
0.0
 11
22.5799036227
 21
8.1224163348
 31
0.0
  0
ARC
  5
EB
330
1F
100
AcDbEntity
  8
0
  6
Continuous
 62
     7
370
    25
100
AcDbCircle
 10
22.7063650599
 20
8.2773598887
 30
0.0
 40
0.1999999999999993
100
AcDbArc
 50
230.7794515943
 51
0.0
  0
LINE
  5
EC
330
1F
100
AcDbEntity
  8
0
  6
Continuous
 62
     7
370
    25
100
AcDbLine
 10
22.9063650599
 20
10.6911045527
 30
0.0
 11
22.9063650599
 21
8.2773598887
 31
0.0
  0
ARC
  5
ED
330
1F
100
AcDbEntity
  8
0
  6
Continuous
 62
     7
370
    25
100
AcDbCircle
 10
22.7063650599
 20
10.6911045527
 30
0.0
 40
0.1999999999999993
100
AcDbArc
 50
0.0
 51
131.4835209361
  0
LINE
  5
EE
330
1F
100
AcDbEntity
  8
0
  6
Continuous
 62
     7
370
    25
100
AcDbLine
 10
22.5738841377
 20
10.8409338064
 30
0.0
 11
21.1543600915
 21
9.5857726814
 31
0.0
  0
ARC
  5
EF
330
1F
100
AcDbEntity
  8
0
  6
Continuous
 62
     7
370
    25
100
AcDbCircle
 10
11.6063650599
 20
10.8004692425
 30
0.0
 40
0.200000000000001
100
AcDbArc
 50
58.3235985488
 51
180.0
  0
LINE
  5
F0
330
1F
100
AcDbEntity
  8
0
  6
Continuous
 62
     7
370
    25
100
AcDbLine
 10
11.4063650599
 20
10.8004692425
 30
0.0
 11
11.4063650599
 21
7.4943343068
 31
0.0
  0
ARC
  5
F1
330
1F
100
AcDbEntity
  8
0
  6
Continuous
 62
     7
370
    25
100
AcDbCircle
 10
11.6063650599
 20
7.4943343068
 30
0.0
 40
0.1999999999999998
100
AcDbArc
 50
180.0
 51
304.0875443377
  0
LINE
  5
F2
330
1F
100
AcDbEntity
  8
0
  6
Continuous
 62
     7
370
    25
100
AcDbLine
 10
14.2738688458
 20
9.0580317966
 30
0.0
 11
11.7184568534
 21
7.3286978681
 31
0.0
  0
ARC
  5
F3
330
1F
100
AcDbEntity
  8
0
  6
Continuous
 62
     7
370
    25
100
AcDbCircle
 10
14.1617770524
 20
9.2236682353
 30
0.0
 40
0.200000000000004
100
AcDbArc
 50
304.0875443377
 51
58.3235985488
  0
LINE
  5
F4
330
1F
100
AcDbEntity
  8
0
  6
Continuous
 62
     7
370
    25
100
AcDbLine
 10
14.2668012885
 20
9.3938737282
 30
0.0
 11
11.7113892961
 21
10.9706747354
 31
0.0
  0
ARC
  5
F5
330
1F
100
AcDbEntity
  8
0
  6
Continuous
 62
     7
370
    25
100
AcDbCircle
 10
16.9863397436
 20
11.1351455663
 30
0.0
 40
0.2000000000000051
100
AcDbArc
 50
304.0875443377
 51
90.0
  0
LINE
  5
F6
330
1F
100
AcDbEntity
  8
0
  6
Continuous
 62
     7
370
    25
100
AcDbLine
 10
12.3970040053
 20
11.3351455663
 30
0.0
 11
16.9863397436
 21
11.3351455663
 31
0.0
  0
ARC
  5
F7
330
1F
100
AcDbEntity
  8
0
  6
Continuous
 62
     7
370
    25
100
AcDbCircle
 10
12.3970040053
 20
11.1351455663
 30
0.0
 40
0.200000000000004
100
AcDbArc
 50
90.0
 51
238.3235985488
  0
LINE
  5
F8
330
1F
100
AcDbEntity
  8
0
  6
Continuous
 62
     7
370
    25
100
AcDbLine
 10
14.6925151846
 20
9.4837046906
 30
0.0
 11
12.2919797692
 21
10.9649400734
 31
0.0
  0
ARC
  5
F9
330
1F
100
AcDbEntity
  8
0
  6
Continuous
 62
     7
370
    25
100
AcDbCircle
 10
14.7975394208
 20
9.6539101835
 30
0.0
 40
0.200000000000003
100
AcDbArc
 50
238.3235985488
 51
304.0875443377
  0
LINE
  5
FA
330
1F
100
AcDbEntity
  8
0
  6
Continuous
 62
     7
370
    25
100
AcDbLine
 10
17.098431537
 20
10.9695091276
 30
0.0
 11
14.9096312142
 21
9.4882737448
 31
0.0
  0
ARC
  5
FB
330
1F
100
AcDbEntity
  8
0
  6
Continuous
 62
     7
370
    25
100
AcDbCircle
 10
17.7063650599
 20
7.8590374933
 30
0.0
 40
0.2000000000000086
100
AcDbArc
 50
238.3235985488
 51
0.0
  0
LINE
  5
FC
330
1F
100
AcDbEntity
  8
0
  6
Continuous
 62
     7
370
    25
100
AcDbLine
 10
17.9063650599
 20
10.7771864638
 30
0.0
 11
17.9063650599
 21
7.8590374933
 31
0.0
  0
ARC
  5
FD
330
1F
100
AcDbEntity
  8
0
  6
Continuous
 62
     7
370
    25
100
AcDbCircle
 10
17.7063650599
 20
10.7771864638
 30
0.0
 40
0.1999999999999993
100
AcDbArc
 50
0.0
 51
124.0875443377
  0
LINE
  5
FE
330
1F
100
AcDbEntity
  8
0
  6
Continuous
 62
     7
370
    25
100
AcDbLine
 10
15.338747397
 20
9.4164320803
 30
0.0
 11
17.5942732664
 21
10.9428229026
 31
0.0
  0
ARC
  5
FF
330
1F
100
AcDbEntity
  8
0
  6
Continuous
 62
     7
370
    25
100
AcDbCircle
 10
15.4508391905
 20
9.2507956415
 30
0.0
 40
0.2000000000000001
100
AcDbArc
 50
124.0875443377
 51
238.3235985488
  0
LINE
  5
100
330
1F
100
AcDbEntity
  8
0
  6
Continuous
 62
     7
370
    25
100
AcDbLine
 10
17.6013408237
 20
7.6888320003
 30
0.0
 11
15.3458149543
 21
9.0805901486
 31
0.0
  0
ARC
  5
101
330
1F
100
AcDbEntity
  8
0
  6
Continuous
 62
     7
370
    25
100
AcDbCircle
 10
7.7866160944
 20
9.1744658939
 30
0.0
 40
0.2000000000000081
100
AcDbArc
 50
237.2737837048
 51
309.9975842185
  0
LINE
  5
102
330
1F
100
AcDbEntity
  8
0
  6
Continuous
 62
     7
370
    25
100
AcDbLine
 10
10.2520142913
 20
10.9819312574
 30
0.0
 11
7.9151671564
 21
9.021251585
 31
0.0
  0
ARC
  5
103
330
1F
100
AcDbEntity
  8
0
  6
Continuous
 62
     7
370
    25
100
AcDbCircle
 10
10.1234632293
 20
11.1351455663
 30
0.0
 40
0.2000000000000144
100
AcDbArc
 50
309.9975842185
 51
90.0
  0
LINE
  5
104
330
1F
100
AcDbEntity
  8
0
  6
Continuous
 62
     7
370
    25
100
AcDbLine
 10
5.1287757346
 20
11.3351455663
 30
0.0
 11
10.1234632293
 21
11.3351455663
 31
0.0
  0
ARC
  5
105
330
1F
100
AcDbEntity
  8
0
  6
Continuous
 62
     7
370
    25
100
AcDbCircle
 10
5.1287757346
 20
11.1351455663
 30
0.0
 40
0.1999999999999993
100
AcDbArc
 50
90.0
 51
180.0
  0
LINE
  5
106
330
1F
100
AcDbEntity
  8
0
  6
Continuous
 62
     7
370
    25
100
AcDbLine
 10
4.9287757346
 20
10.8824869316
 30
0.0
 11
4.9287757346
 21
11.1351455663
 31
0.0
  0
ARC
  5
107
330
1F
100
AcDbEntity
  8
0
  6
Continuous
 62
     7
370
    25
100
AcDbCircle
 10
5.1287757346
 20
10.8824869316
 30
0.0
 40
0.2000000000000007
100
AcDbArc
 50
180.0
 51
237.2737837048
  0
LINE
  5
108
330
1F
100
AcDbEntity
  8
0
  6
Continuous
 62
     7
370
    25
100
AcDbLine
 10
7.6784910331
 20
9.0062131937
 30
0.0
 11
5.0206506734
 21
10.7142342314
 31
0.0
  0
ARC
  5
109
330
1F
100
AcDbEntity
  8
0
  6
Continuous
 62
     7
370
    25
100
AcDbCircle
 10
17.0065416816
 20
7.468323991
 30
0.0
 40
0.200000000000001
100
AcDbArc
 50
273.5558935223
 51
58.3235985488
  0
LINE
  5
10A
330
1F
100
AcDbEntity
  8
0
  6
Continuous
 62
     7
370
    25
100
AcDbLine
 10
17.1115659177
 20
7.6385294839
 30
0.0
 11
14.9201010583
 21
8.9907591862
 31
0.0
  0
ARC
  5
10B
330
1F
100
AcDbEntity
  8
0
  6
Continuous
 62
     7
370
    25
100
AcDbCircle
 10
14.8150768221
 20
8.8205536933
 30
0.0
 40
0.2000000000000092
100
AcDbArc
 50
58.3235985488
 51
124.0875443377
  0
LINE
  5
10C
330
1F
100
AcDbEntity
  8
0
  6
Continuous
 62
     7
370
    25
100
AcDbLine
 10
12.2995222709
 20
7.3596854021
 30
0.0
 11
14.7029850286
 21
8.986190132
 31
0.0
  0
ARC
  5
10D
330
1F
100
AcDbEntity
  8
0
  6
Continuous
 62
     7
370
    25
100
AcDbCircle
 10
12.4116140644
 20
7.1940489633
 30
0.0
 40
0.2000000000000097
100
AcDbArc
 50
124.0875443377
 51
273.2903147804
  0
SPLINE
  5
10E
330
1F
100
AcDbEntity
  8
0
  6
Continuous
 62
     7
370
    25
100
AcDbSpline
210
0.0
220
0.0
230
1.0
 70
     8
 71
     3
 72
     9
 73
     5
 74
     0
 42
0.00000001
 43
0.00000001
 40
0.3786318592364105
 40
0.3786318592364105
 40
0.3786318592364105
 40
0.3786318592364105
 40
0.5
 40
0.5458213943149816
 40
0.5458213943149816
 40
0.5458213943149816
 40
0.5458213943149816
 10
12.42309311788219
 20
6.994378656755021
 30
0.0
 10
13.53535161276232
 20
7.058322439781133
 30
0.0
 10
15.06739399410497
 20
7.148632480317662
 30
0.0
 10
16.59916277697313
 20
7.24262292162842
 30
0.0
 10
17.01894612491469
 20
7.2687090372298
 30
0.0
  0
ARC
  5
10F
330
1F
100
AcDbEntity
  8
0
  6
Continuous
 62
     7
370
    25
100
AcDbCircle
 10
20.737321845
 20
9.8844485903
 30
0.0
 40
0.1999999999999904
100
AcDbArc
 50
230.7794515943
 51
311.4835209361
  0
LINE
  5
110
330
1F
100
AcDbEntity
  8
0
  6
Continuous
 62
     7
370
    25
100
AcDbLine
 10
22.2842780856
 20
10.9853163126
 30
0.0
 11
20.8698027671
 21
9.7346193366
 31
0.0
  0
ARC
  5
111
330
1F
100
AcDbEntity
  8
0
  6
Continuous
 62
     7
370
    25
100
AcDbCircle
 10
22.1517971634
 20
11.1351455663
 30
0.0
 40
0.2000000000000046
100
AcDbArc
 50
311.4835209361
 51
90.0
  0
LINE
  5
112
330
1F
100
AcDbEntity
  8
0
  6
Continuous
 62
     7
370
    25
100
AcDbLine
 10
19.2049382298
 20
11.3351455663
 30
0.0
 11
22.1517971634
 21
11.3351455663
 31
0.0
  0
ARC
  5
113
330
1F
100
AcDbEntity
  8
0
  6
Continuous
 62
     7
370
    25
100
AcDbCircle
 10
19.2049382298
 20
11.1351455663
 30
0.0
 40
0.1999999999999993
100
AcDbArc
 50
90.0
 51
230.7794515943
  0
LINE
  5
114
330
1F
100
AcDbEntity
  8
0
  6
Continuous
 62
     7
370
    25
100
AcDbLine
 10
19.0784767926
 20
10.9802020124
 30
0.0
 11
20.6108604078
 21
9.7295050364
 31
0.0
  0
ARC
  5
115
330
1F
100
AcDbEntity
  8
0
  6
Continuous
 62
     7
370
    25
100
AcDbCircle
 10
18.6063650599
 20
10.7201326469
 30
0.0
 40
0.200000000000013
100
AcDbArc
 50
50.7794515943
 51
180.0
  0
LINE
  5
116
330
1F
100
AcDbEntity
  8
0
  6
Continuous
 62
     7
370
    25
100
AcDbLine
 10
18.4063650599
 20
10.7201326469
 30
0.0
 11
18.4063650599
 21
8.0002296348
 31
0.0
  0
ARC
  5
117
330
1F
100
AcDbEntity
  8
0
  6
Continuous
 62
     7
370
    25
100
AcDbCircle
 10
18.6063650599
 20
8.0002296348
 30
0.0
 40
0.2000000000000018
100
AcDbArc
 50
180.0
 51
311.4835209361
  0
LINE
  5
118
330
1F
100
AcDbEntity
  8
0
  6
Continuous
 62
     7
370
    25
100
AcDbLine
 10
20.3384218554
 20
9.2647656101
 30
0.0
 11
18.738845982
 21
7.8504003811
 31
0.0
  0
ARC
  5
119
330
1F
100
AcDbEntity
  8
0
  6
Continuous
 62
     7
370
    25
100
AcDbCircle
 10
20.2059409333
 20
9.4145948638
 30
0.0
 40
0.2000000000000089
100
AcDbArc
 50
311.4835209361
 51
50.7794515943
  0
LINE
  5
11A
330
1F
100
AcDbEntity
  8
0
  6
Continuous
 62
     7
370
    25
100
AcDbLine
 10
20.3324023705
 20
9.5695384177
 30
0.0
 11
18.7328264971
 21
10.8750762008
 31
0.0
  0
ARC
  5
11B
330
1F
100
AcDbEntity
  8
0
  6
Continuous
 62
     7
370
    25
100
AcDbCircle
 10
8.4033237774
 20
8.7781479989
 30
0.0
 40
0.1999999999999984
100
AcDbArc
 50
129.9975842185
 51
237.2737837048
  0
LINE
  5
11C
330
1F
100
AcDbEntity
  8
0
  6
Continuous
 62
     7
370
    25
100
AcDbLine
 10
10.5982399987
 20
7.129880539
 30
0.0
 11
8.2951987161
 21
8.6098952987
 31
0.0
  0
ARC
  5
11D
330
1F
100
AcDbEntity
  8
0
  6
Continuous
 62
     7
370
    25
100
AcDbCircle
 10
10.7063650599
 20
7.2981332392
 30
0.0
 40
0.2000000000000058
100
AcDbArc
 50
237.2737837048
 51
0.0
  0
LINE
  5
11E
330
1F
100
AcDbEntity
  8
0
  6
Continuous
 62
     7
370
    25
100
AcDbLine
 10
10.9063650599
 20
10.7104636219
 30
0.0
 11
10.9063650599
 21
7.2981332392
 31
0.0
  0
ARC
  5
11F
330
1F
100
AcDbEntity
  8
0
  6
Continuous
 62
     7
370
    25
100
AcDbCircle
 10
10.7063650599
 20
10.7104636219
 30
0.0
 40
0.2000000000000016
100
AcDbArc
 50
0.0
 51
129.9975842185
  0
LINE
  5
120
330
1F
100
AcDbEntity
  8
0
  6
Continuous
 62
     7
370
    25
100
AcDbLine
 10
10.5778139979
 20
10.8636779308
 30
0.0
 11
8.2747727153
 21
8.9313623078
 31
0.0
  0
LINE
  5
121
330
1F
100
AcDbEntity
  8
0
  6
Continuous
 62
     7
370
    25
100
AcDbLine
 10
10.0595115165
 20
6.3118046628
 30
0.0
 11
10.3527615182
 21
6.1821841081
 31
0.0
  0
LINE
  5
122
330
1F
100
AcDbEntity
  8
0
  6
Continuous
 62
     7
370
    25
100
AcDbLine
 10
10.3527615182
 20
6.1821841081
 30
0.0
 11
10.2536292083
 21
5.9529944104
 31
0.0
  0
SPLINE
  5
123
330
1F
100
AcDbEntity
  8
0
  6
Continuous
 62
     7
370
    25
100
AcDbSpline
210
0.0
220
0.0
230
1.0
 70
     8
 71
     3
 72
    10
 73
     6
 74
     0
 42
0.00000001
 43
0.00000001
 40
0.0
 40
0.0
 40
0.0
 40
0.0
 40
0.3720037420062394
 40
0.7753020524269343
 40
1.0
 40
1.0
 40
1.0
 40
1.0
 10
9.294388597737719
 20
6.36641026849947
 30
0.0
 10
9.41335790521345
 20
6.315197881315389
 30
0.0
 10
9.661304734361735
 20
6.20846489879385
 30
0.0
 10
9.981096222524695
 20
6.070762891855477
 30
0.0
 10
10.18181223447884
 20
5.984027350306799
 30
0.0
 10
10.25362870688143
 20
5.952993251107088
 30
0.0
  0
SPLINE
  5
124
330
1F
100
AcDbEntity
  8
0
  6
Continuous
 62
     7
370
    25
100
AcDbSpline
210
0.0
220
0.0
230
1.0
 70
     8
 71
     3
 72
    21
 73
    17
 74
     0
 42
0.00000001
 43
0.00000001
 40
0.0
 40
0.0
 40
0.0
 40
0.0
 40
0.0410722146931684
 40
0.0827387961195449
 40
0.1249999736934164
 40
0.1878307173345128
 40
0.2499999044667723
 40
0.3749998868416111
 40
0.4999998538988085
 40
0.6249998226258071
 40
0.6882196100560463
 40
0.7500000368621351
 40
0.8123001571878178
 40
0.8747328476453137
 40
0.9372991251205794
 40
1.0
 40
1.0
 40
1.0
 40
1.0
 10
5.746121758862018
 20
8.026719801747399
 30
0.0
 10
5.794044895977618
 20
8.002620467037122
 30
0.0
 10
5.890584678427582
 20
7.954073049857254
 30
0.0
 10
6.0366574274066
 20
7.881172540712634
 30
0.0
 10
6.20833858774969
 20
7.795947965692702
 30
0.0
 10
6.404280842439907
 20
7.699375879222761
 30
0.0
 10
6.697645531385887
 20
7.5560436654106
 30
0.0
 10
7.064926366498757
 20
7.379046346068623
 30
0.0
 10
7.50757933311928
 20
7.16945750495009
 30
0.0
 10
7.878684113627032
 20
6.997335603840437
 30
0.0
 10
8.175626373818353
 20
6.861569304230257
 30
0.0
 10
8.3984919759068
 20
6.760723593687836
 30
0.0
 10
8.620828198867068
 20
6.661206290469588
 30
0.0
 10
8.844509778257985
 20
6.56218806807344
 30
0.0
 10
9.069040380271025
 20
6.463797808155899
 30
0.0
 10
9.219218737226914
 20
6.398896027001404
 30
0.0
 10
9.294388597737719
 20
6.36641026849947
 30
0.0
  0
SPLINE
  5
125
330
1F
100
AcDbEntity
  8
0
  6
Continuous
 62
     7
370
    25
100
AcDbSpline
210
0.0
220
0.0
230
1.0
 70
     8
 71
     3
 72
    22
 73
    18
 74
     0
 42
0.00000001
 43
0.00000001
 40
0.0
 40
0.0
 40
0.0
 40
0.0
 40
0.0332062455742836
 40
0.0672477337391428
 40
0.1021249583567545
 40
0.1378383786184279
 40
0.1743884221992063
 40
0.2117754880634475
 40
0.2499999489664857
 40
0.3659888646125131
 40
0.4999999523629955
 40
0.5594211525799323
 40
0.6259188739267805
 40
0.7564828094671961
 40
0.8430899593339432
 40
0.9357000712391765
 40
1.0
 40
1.0
 40
1.0
 40
1.0
 10
3.110155850228048
 20
9.391594221486114
 30
0.0
 10
3.138861967624836
 20
9.37560552268941
 30
0.0
 10
3.196996252485954
 20
9.343225958516438
 30
0.0
 10
3.285526789049078
 20
9.294496173090648
 30
0.0
 10
3.376400337679594
 20
9.244879892703995
 30
0.0
 10
3.469636026633273
 20
9.194411357873761
 30
0.0
 10
3.565228526559778
 20
9.14308100946531
 30
0.0
 10
3.663179451666903
 20
9.090891739679932
 30
0.0
 10
3.83077792994596
 20
9.002254370904268
 30
0.0
 10
4.083687405821744
 20
8.870418599728614
 30
0.0
 10
4.356050994875553
 20
8.73054286812394
 30
0.0
 10
4.585220295152967
 20
8.613764710438224
 30
0.0
 10
4.811522821528134
 20
8.498874232275874
 30
0.0
 10
5.06199935117601
 20
8.372174995919499
 30
0.0
 10
5.335595298252804
 20
8.233936567352682
 30
0.0
 10
5.550677271802653
 20
8.125287474298352
 30
0.0
 10
5.689311179179863
 20
8.05537083560255
 30
0.0
 10
5.746121758862018
 20
8.026719801747399
 30
0.0
  0
SPLINE
  5
126
330
1F
100
AcDbEntity
  8
0
  6
Continuous
 62
     7
370
    25
100
AcDbSpline
210
0.0
220
0.0
230
1.0
 70
     8
 71
     3
 72
    26
 73
    22
 74
     0
 42
0.00000001
 43
0.00000001
 40
0.0
 40
0.0
 40
0.0
 40
0.0
 40
0.0366066904765114
 40
0.0729148077470832
 40
0.1089249945857327
 40
0.1446379098532643
 40
0.1800542290011869
 40
0.2151746445938275
 40
0.2499998668492875
 40
0.3750604630532736
 40
0.499997171247665
 40
0.5626147393227066
 40
0.6249980248444631
 40
0.6869591246217721
 40
0.7499991414506482
 40
0.8122373262107306
 40
0.8401366681793395
 40
0.8629876812719539
 40
0.9166326836005354
 40
0.9583805034123729
 40
1.0
 40
1.0
 40
1.0
 40
1.0
 10
0.9954417939067256
 20
10.75135494800294
 30
0.0
 10
1.020181750786513
 20
10.73317815694736
 30
0.0
 10
1.069459879349328
 20
10.69697282923202
 30
0.0
 10
1.143358961373441
 20
10.64327530573102
 30
0.0
 10
1.216861289263882
 20
10.59030838647345
 30
0.0
 10
1.289986854337632
 20
10.53809920270351
 30
0.0
 10
1.36273037804676
 20
10.48664061585666
 30
0.0
 10
1.435093216750188
 20
10.43593435745967
 30
0.0
 10
1.569448241772675
 20
10.34269506991644
 30
0.0
 10
1.767124962087312
 20
10.20858987983146
 30
0.0
 10
1.986502542485245
 20
10.06501975129224
 30
0.0
 10
2.163306006391821
 20
9.952433117658334
 30
0.0
 10
2.296260233937497
 20
9.869321620402262
 30
0.0
 10
2.43021318359479
 20
9.787150552978334
 30
0.0
 10
2.564704898596978
 20
9.706099660057587
 30
0.0
 10
2.675265126690749
 20
9.640689005110222
 30
0.0
 10
2.757020393700812
 20
9.592785972725565
 30
0.0
 10
2.832651636797269
 20
9.548685906086169
 30
0.0
 10
2.918738465855971
 20
9.499465919478364
 30
0.0
 10
3.018703208922296
 20
9.442811578982589
 30
0.0
 10
3.079702934422061
 20
9.408649145798586
 30
0.0
 10
3.110155850228048
 20
9.391594221486114
 30
0.0
  0
SPLINE
  5
127
330
1F
100
AcDbEntity
  8
0
  6
Continuous
 62
     7
370
    25
100
AcDbSpline
210
0.0
220
0.0
230
1.0
 70
     8
 71
     3
 72
     8
 73
     4
 74
     0
 42
0.00000001
 43
0.00000001
 40
0.0
 40
0.0
 40
0.0
 40
0.0
 40
0.4793700687162312
 40
0.4793700687162312
 40
0.4793700687162312
 40
0.4793700687162312
 10
0.9954417939067256
 20
10.75135494800294
 30
0.0
 10
0.7526174434211739
 20
10.93020277431503
 30
0.0
 10
0.513576612925295
 20
11.11382052384789
 30
0.0
 10
0.2779888849877273
 20
11.30179163589013
 30
0.0
  0
ARC
  5
128
330
1F
100
AcDbEntity
  8
0
  6
Continuous
 62
     7
370
    25
100
AcDbCircle
 10
0.3403573677
 20
11.3799592274
 30
0.0
 40
0.0999999999999992
100
AcDbArc
 50
152.0000000001
 51
231.4142778282
  0
LINE
  5
129
330
1F
100
AcDbEntity
  8
0
  6
Continuous
 62
     7
370
    25
100
AcDbLine
 10
0.2520626084
 20
11.4269063837
 30
0.0
 11
0.3953736729
 21
11.6964352956
 31
0.0
  0
ARC
  5
12A
330
1F
100
AcDbEntity
  8
0
  6
Continuous
 62
     7
370
    25
100
AcDbCircle
 10
0.4836684322
 20
11.6494881393
 30
0.0
 40
0.1000000000000039
100
AcDbArc
 50
51.2805840808
 51
152.0000000001
  0
SPLINE
  5
12B
330
1F
100
AcDbEntity
  8
0
  6
Continuous
 62
     7
370
    25
100
AcDbSpline
210
0.0
220
0.0
230
1.0
 70
     8
 71
     3
 72
    10
 73
     6
 74
     0
 42
0.00000001
 43
0.00000001
 40
0.4904032736363285
 40
0.4904032736363285
 40
0.4904032736363285
 40
0.4904032736363285
 40
0.5111593145822313
 40
0.75
 40
1.0
 40
1.0
 40
1.0
 40
1.0
 10
0.5462191408348573
 20
11.72750998787522
 30
0.0
 10
0.55618946009237
 20
11.71951670719351
 30
0.0
 10
0.6809736313127189
 20
11.61964226250465
 30
0.0
 10
0.9279365134337078
 20
11.42599005002776
 30
0.0
 10
1.168124453714559
 20
11.24515157149796
 30
0.0
 10
1.291960309297467
 20
11.15394254099417
 30
0.0
  0
SPLINE
  5
12C
330
1F
100
AcDbEntity
  8
0
  6
Continuous
 62
     7
370
    25
100
AcDbSpline
210
0.0
220
0.0
230
1.0
 70
     8
 71
     3
 72
    27
 73
    23
 74
     0
 42
0.00000001
 43
0.00000001
 40
0.0
 40
0.0
 40
0.0
 40
0.0
 40
0.03125
 40
0.0625
 40
0.09375
 40
0.125
 40
0.1875
 40
0.25
 40
0.375
 40
0.5
 40
0.625
 40
0.6875
 40
0.75
 40
0.78125
 40
0.8125
 40
0.84375
 40
0.875
 40
0.90625
 40
0.9375
 40
0.96875
 40
0.984375
 40
1.0
 40
1.0
 40
1.0
 40
1.0
 10
1.291960309115036
 20
11.15394254112853
 30
0.0
 10
1.311617227285786
 20
11.13946459821849
 30
0.0
 10
1.349875197824742
 20
11.11138010057351
 30
0.0
 10
1.414042092208667
 20
11.06462994183702
 30
0.0
 10
1.478511307279164
 20
11.01800632647906
 30
0.0
 10
1.561213936677703
 20
10.95869040814234
 30
0.0
 10
1.665670875300028
 20
10.88468120361349
 30
0.0
 10
1.83320061418829
 20
10.7679786528321
 30
0.0
 10
2.044348582443572
 20
10.62471010974928
 30
0.0
 10
2.300575618471284
 20
10.45704452691799
 30
0.0
 10
2.516311402260016
 20
10.32091264810353
 30
0.0
 10
2.690270050969183
 20
10.21420020958328
 30
0.0
 10
2.799850050516973
 20
10.1481862970274
 30
0.0
 10
2.887558660661182
 20
10.09602010530414
 30
0.0
 10
2.954179212728887
 20
10.05676489060017
 30
0.0
 10
3.015859257611624
 20
10.02065782338492
 30
0.0
 10
3.061252574109564
 20
9.994188271488664
 30
0.0
 10
3.106306395698458
 20
9.968205093254076
 30
0.0
 10
3.171562719875387
 20
9.930913126433122
 30
0.0
 10
3.241639573330891
 20
9.891185558890104
 30
0.0
 10
3.30384441214074
 20
9.856169466341541
 30
0.0
 10
3.33746558058733
 20
9.837338498290316
 30
0.0
 10
3.353976816085147
 20
9.828116084178593
 30
0.0
  0
SPLINE
  5
12D
330
1F
100
AcDbEntity
  8
0
  6
Continuous
 62
     7
370
    25
100
AcDbSpline
210
0.0
220
0.0
230
1.0
 70
     8
 71
     3
 72
    25
 73
    21
 74
     0
 42
0.00000001
 43
0.00000001
 40
0.0
 40
0.0
 40
0.0
 40
0.0
 40
0.0156248287382393
 40
0.0312496574764786
 40
0.0624993149529573
 40
0.0937489724294359
 40
0.1249986299059145
 40
0.1874979448588718
 40
0.249997259811829
 40
0.3124965747647863
 40
0.3749958897177436
 40
0.499994519623658
 40
0.6249931495295726
 40
0.6874924644825299
 40
0.7499917794354871
 40
0.8124910943884444
 40
0.8749904093414016
 40
0.9374897242943588
 40
0.9687393817708374
 40
0.9999890392473161
 40
0.9999890392473161
 40
0.9999890392473161
 40
0.9999890392473161
 10
3.353976783145428
 20
9.828116102577198
 30
0.0
 10
3.370133620600712
 20
9.819091640455174
 30
0.0
 10
3.403318762545299
 20
9.800607919603076
 30
0.0
 10
3.462956616582453
 20
9.767547847204122
 30
0.0
 10
3.514348478227876
 20
9.739265000850741
 30
0.0
 10
3.592684758492832
 20
9.696438557304807
 30
0.0
 10
3.70007642521098
 20
9.638157868825079
 30
0.0
 10
3.834026736645423
 20
9.566249002099955
 30
0.0
 10
3.995770316366871
 20
9.48051151208188
 30
0.0
 10
4.158178412739206
 20
9.39541581899111
 30
0.0
 10
4.375727027968161
 20
9.282498880889312
 30
0.0
 10
4.649032540237458
 20
9.142212316610907
 30
0.0
 10
4.923527986297575
 20
9.002684153969087
 30
0.0
 10
5.151135145593905
 20
8.8874251720385
 30
0.0
 10
5.326622264258434
 20
8.798674298664132
 30
0.0
 10
5.500677637412398
 20
8.710722134150817
 30
0.0
 10
5.666969047204736
 20
8.626717012761375
 30
0.0
 10
5.796942313044004
 20
8.561081040472056
 30
0.0
 10
5.897610859121263
 20
8.510289157859711
 30
0.0
 10
5.946478627964416
 20
8.48565205521932
 30
0.0
 10
5.971099241245977
 20
8.47324542614988
 30
0.0
  0
SPLINE
  5
12E
330
1F
100
AcDbEntity
  8
0
  6
Continuous
 62
     7
370
    25
100
AcDbSpline
210
0.0
220
0.0
230
1.0
 70
     8
 71
     3
 72
    21
 73
    17
 74
     0
 42
0.00000001
 43
0.00000001
 40
0.0000072031465783
 40
0.0000072031465783
 40
0.0000072031465783
 40
0.0000072031465783
 40
0.0312566746310749
 40
0.0625061461155714
 40
0.0937556176000679
 40
0.1250050890845644
 40
0.1875040320535575
 40
0.2500029750225505
 40
0.4999987468985228
 40
0.6249966328365089
 40
0.749994518774495
 40
0.812493461743488
 40
0.8749924047124811
 40
0.9374913476814741
 40
0.9687408191659707
 40
0.9999902906504672
 40
0.9999902906504672
 40
0.9999902906504672
 40
0.9999902906504672
 10
5.971099241245975
 20
8.47324542614988
 30
0.0
 10
6.007896601551947
 20
8.454708108431936
 30
0.0
 10
6.082140103020839
 20
8.417396820616872
 30
0.0
 10
6.189927216914563
 20
8.363474925776915
 30
0.0
 10
6.297120480193693
 20
8.310084029118096
 30
0.0
 10
6.442451471523244
 20
8.237993679064422
 30
0.0
 10
6.624186243409589
 20
8.148424953038809
 30
0.0
 10
7.061054285333345
 20
7.934983672689485
 30
0.0
 10
7.572840460020442
 20
7.69038510304352
 30
0.0
 10
8.160615199621361
 20
7.41773057194886
 30
0.0
 10
8.529169361733492
 20
7.250025212481977
 30
0.0
 10
8.824719619958161
 20
7.11775836080819
 30
0.0
 10
9.046554343773717
 20
7.019559559943687
 30
0.0
 10
9.224075809197068
 20
6.941782261162836
 30
0.0
 10
9.375116378402097
 20
6.876155217516971
 30
0.0
 10
9.453365807549797
 20
6.84234657468402
 30
0.0
 10
9.492175564097762
 20
6.825627338666602
 30
0.0
  0
LWPOLYLINE
  5
12F
330
1F
100
AcDbEntity
  8
0
  6
Continuous
 62
     7
370
    25
100
AcDbPolyline
 90
        5
 70
   128
 43
0.0
 10
9.4921755641
 20
6.8256273387
 10
9.6636832181
 20
6.7517954811
 10
9.8514363545
 20
6.6709695519
 10
10.0070030134
 20
6.6039703318
 10
10.1595875685
 20
6.5382139885
  0
LINE
  5
130
330
1F
100
AcDbEntity
  8
0
  6
Continuous
 62
     7
370
    25
100
AcDbLine
 10
10.1595875685
 20
6.5382139885
 30
0.0
 11
10.0595115165
 21
6.3118046628
 31
0.0
  0
LINE
  5
131
330
1F
100
AcDbEntity
  8
0
  6
Continuous
 62
     7
370
    25
100
AcDbLine
 10
10.1629589668
 20
5.6679388207
 30
0.0
 11
10.4344025968
 21
5.8385711959
 31
0.0
  0
LINE
  5
132
330
1F
100
AcDbEntity
  8
0
  6
Continuous
 62
     7
370
    25
100
AcDbLine
 10
10.4344025968
 20
5.8385711959
 30
0.0
 11
10.5689753832
 21
5.6282255338
 31
0.0
  0
SPLINE
  5
133
330
1F
100
AcDbEntity
  8
0
  6
Continuous
 62
     7
370
    25
100
AcDbSpline
210
0.0
220
0.0
230
1.0
 70
     8
 71
     3
 72
    10
 73
     6
 74
     0
 42
0.00000001
 43
0.00000001
 40
0.0
 40
0.0
 40
0.0
 40
0.0
 40
0.3720037420062394
 40
0.7753020524269343
 40
1.0
 40
1.0
 40
1.0
 40
1.0
 10
9.689837561550009
 20
5.064158240553168
 30
0.0
 10
9.798821347177107
 20
5.13415066294827
 30
0.0
 10
10.02595710721612
 20
5.280023573915771
 30
0.0
 10
10.31894237555534
 20
5.468140747912537
 30
0.0
 10
10.5030883678728
 20
5.586039963923214
 30
0.0
 10
10.5689760638596
 20
5.628224469835247
 30
0.0
  0
SPLINE
  5
134
330
1F
100
AcDbEntity
  8
0
  6
Continuous
 62
     7
370
    25
100
AcDbSpline
210
0.0
220
0.0
230
1.0
 70
     8
 71
     3
 72
    21
 73
    17
 74
     0
 42
0.00000001
 43
0.00000001
 40
0.0
 40
0.0
 40
0.0
 40
0.0
 40
0.0410722146931684
 40
0.0827387961195449
 40
0.1249999736934164
 40
0.1878307173345128
 40
0.2499999044667723
 40
0.3749998868416111
 40
0.4999998538988085
 40
0.6249998226258071
 40
0.6882196100560463
 40
0.7500000368621351
 40
0.8123001571878178
 40
0.8747328476453137
 40
0.9372991251205794
 40
1.0
 40
1.0
 40
1.0
 40
1.0
 10
6.329212940496283
 20
3.050945022231171
 30
0.0
 10
6.375990472631782
 20
3.077198926546356
 30
0.0
 10
6.470222466773025
 20
3.13008666227485
 30
0.0
 10
6.612342572531838
 20
3.210421012131781
 30
0.0
 10
6.778999833851875
 20
3.305094167003594
 30
0.0
 10
6.968631240308318
 20
3.41353523276558
 30
0.0
 10
7.251506483103587
 20
3.576595225560206
 30
0.0
 10
7.603624747655535
 20
3.782109192638792
 30
0.0
 10
8.02491016936554
 20
4.031884540970018
 30
0.0
 10
8.375124852149048
 20
4.243295001733325
 30
0.0
 10
8.653728220252201
 20
4.413551741038849
 30
0.0
 10
8.861957966438473
 20
4.541923493119486
 30
0.0
 10
9.068790387989624
 20
4.670599205961334
 30
0.0
 10
9.275961366556173
 20
4.800669352286643
 30
0.0
 10
9.483086508058976
 20
4.931794522427327
 30
0.0
 10
9.620871194626424
 20
5.020005407484135
 30
0.0
 10
9.689837561550009
 20
5.064158240553168
 30
0.0
  0
SPLINE
  5
135
330
1F
100
AcDbEntity
  8
0
  6
Continuous
 62
     7
370
    25
100
AcDbSpline
210
0.0
220
0.0
230
1.0
 70
     8
 71
     3
 72
    22
 73
    18
 74
     0
 42
0.00000001
 43
0.00000001
 40
0.0
 40
0.0
 40
0.0
 40
0.0
 40
0.0332062455742836
 40
0.0672477337391428
 40
0.1021249583567545
 40
0.1378383786184279
 40
0.1743884221992063
 40
0.2117754880634475
 40
0.2499999489664857
 40
0.3659888646125131
 40
0.4999999523629955
 40
0.5594211525799323
 40
0.6259188739267805
 40
0.7564828094671961
 40
0.8430899593339432
 40
0.9357000712391765
 40
1.0
 40
1.0
 40
1.0
 40
1.0
 10
3.723667334814695
 20
1.628858333646055
 30
0.0
 10
3.75297482398791
 20
1.64371601662732
 30
0.0
 10
3.812326978812947
 20
1.673805100527803
 30
0.0
 10
3.902231449620027
 20
1.719950891459336
 30
0.0
 10
3.994181053778375
 20
1.767543405736612
 30
0.0
 10
4.088158100997544
 20
1.816617648456634
 30
0.0
 10
4.184167536024423
 20
1.867163855987486
 30
0.0
 10
4.28220786376901
 20
1.919184983866514
 30
0.0
 10
4.449411452502599
 20
2.00856503186123
 30
0.0
 10
4.700133444344227
 20
2.14451486215244
 30
0.0
 10
4.968399467495841
 20
2.29209699439288
 30
0.0
 10
5.193362794279545
 20
2.416785437740762
 30
0.0
 10
5.415158084191439
 20
2.540152794805159
 30
0.0
 10
5.660261209409977
 20
2.676957935080796
 30
0.0
 10
5.927858972686536
 20
2.826477306664729
 30
0.0
 10
6.138205466326163
 20
2.94403254211233
 30
0.0
 10
6.273692083937497
 20
3.019868371964932
 30
0.0
 10
6.329212940496283
 20
3.050945022231171
 30
0.0
  0
SPLINE
  5
136
330
1F
100
AcDbEntity
  8
0
  6
Continuous
 62
     7
370
    25
100
AcDbSpline
210
0.0
220
0.0
230
1.0
 70
     8
 71
     3
 72
    26
 73
    22
 74
     0
 42
0.00000001
 43
0.00000001
 40
0.0
 40
0.0
 40
0.0
 40
0.0
 40
0.0366066904765114
 40
0.0729148077470832
 40
0.1089249945857327
 40
0.1446379098532643
 40
0.1800542290011869
 40
0.2151746445938275
 40
0.2499998668492875
 40
0.3750604630532736
 40
0.499997171247665
 40
0.5626147393227066
 40
0.6249980248444631
 40
0.6869591246217721
 40
0.7499991414506482
 40
0.8122373262107306
 40
0.8401366681793395
 40
0.8629876812719539
 40
0.9166326836005354
 40
0.9583805034123729
 40
1.0
 40
1.0
 40
1.0
 40
1.0
 10
1.413841509682787
 20
0.636049474431831
 30
0.0
 10
1.442745160735693
 20
0.6463954956624157
 30
0.0
 10
1.500316717527028
 20
0.6670031534199335
 30
0.0
 10
1.586157824303394
 20
0.6982409949195432
 30
0.0
 10
1.671171370615333
 20
0.7295584610434324
 30
0.0
 10
1.755346042644564
 20
0.7609872969437453
 30
0.0
 10
1.838684806802793
 20
0.7925191346712674
 30
0.0
 10
1.921186986055539
 20
0.8241560669559971
 30
0.0
 10
2.073616235205346
 20
0.8834026828423709
 30
0.0
 10
2.295333895641752
 20
0.9722934405885411
 30
0.0
 10
2.537033312636427
 20
1.073882300285129
 30
0.0
 10
2.729239104412027
 20
1.157501368267819
 30
0.0
 10
2.872488718878592
 20
1.221250058870795
 30
0.0
 10
3.015517159997314
 20
1.286352609317188
 30
0.0
 10
3.157918208122581
 20
1.352528210110118
 30
0.0
 10
3.273970593675525
 20
1.407609619172168
 30
0.0
 10
3.35940097249511
 20
1.448600771513551
 30
0.0
 10
3.43825403911156
 20
1.486641469392221
 30
0.0
 10
3.527198401222013
 20
1.530487217963999
 30
0.0
 10
3.630066553061304
 20
1.58168104074074
 30
0.0
 10
3.692499107353874
 20
1.613148714893802
 30
0.0
 10
3.723667334814695
 20
1.628858333646055
 30
0.0
  0
SPLINE
  5
137
330
1F
100
AcDbEntity
  8
0
  6
Continuous
 62
     7
370
    25
100
AcDbSpline
210
0.0
220
0.0
230
1.0
 70
     8
 71
     3
 72
     8
 73
     4
 74
     0
 42
0.00000001
 43
0.00000001
 40
0.0
 40
0.0
 40
0.0
 40
0.0
 40
0.4793700687162312
 40
0.4793700687162312
 40
0.4793700687162312
 40
0.4793700687162312
 10
1.413841509682787
 20
0.636049474431831
 30
0.0
 10
1.129784288318854
 20
0.5347493996229232
 30
0.0
 10
0.8438883389150658
 20
0.4392533122571204
 30
0.0
 10
0.5563142388696074
 20
0.3490543460755286
 30
0.0
  0
ARC
  5
138
330
1F
100
AcDbEntity
  8
0
  6
Continuous
 62
     7
370
    25
100
AcDbCircle
 10
0.5263863814
 20
0.444470924
 30
0.0
 40
0.1000000000000007
100
AcDbArc
 50
208.0000000002
 51
287.4142778282
  0
LINE
  5
139
330
1F
100
AcDbEntity
  8
0
  6
Continuous
 62
     7
370
    25
100
AcDbLine
 10
0.4380916221
 20
0.3975237678
 30
0.0
 11
0.2947805576
 21
0.6670526796
 31
0.0
  0
ARC
  5
13A
330
1F
100
AcDbEntity
  8
0
  6
Continuous
 62
     7
370
    25
100
AcDbCircle
 10
0.3830753169
 20
0.7139998359
 30
0.0
 40
0.1000000000000049
100
AcDbArc
 50
107.2805840808
 51
208.0000000002
  0
SPLINE
  5
13B
330
1F
100
AcDbEntity
  8
0
  6
Continuous
 62
     7
370
    25
100
AcDbSpline
210
0.0
220
0.0
230
1.0
 70
     8
 71
     3
 72
    10
 73
     6
 74
     0
 42
0.00000001
 43
0.00000001
 40
0.4904032736363285
 40
0.4904032736363285
 40
0.4904032736363285
 40
0.4904032736363285
 40
0.5111593145822313
 40
0.75
 40
1.0
 40
1.0
 40
1.0
 40
1.0
 10
0.3533701853136094
 20
0.8094859875761762
 30
0.0
 10
0.3655722471008611
 20
0.8132819710183632
 30
0.0
 10
0.5181503372979007
 20
0.8608836567120774
 30
0.0
 10
0.8167951885523969
 20
0.9573362220583724
 30
0.0
 10
1.101028473521591
 20
1.055337455157499
 30
0.0
 10
1.245892318402746
 20
1.106998589675061
 30
0.0
  0
SPLINE
  5
13C
330
1F
100
AcDbEntity
  8
0
  6
Continuous
 62
     7
370
    25
100
AcDbSpline
210
0.0
220
0.0
230
1.0
 70
     8
 71
     3
 72
    27
 73
    23
 74
     0
 42
0.00000001
 43
0.00000001
 40
0.0
 40
0.0
 40
0.0
 40
0.0
 40
0.03125
 40
0.0625
 40
0.09375
 40
0.125
 40
0.1875
 40
0.25
 40
0.375
 40
0.5
 40
0.625
 40
0.6875
 40
0.75
 40
0.78125
 40
0.8125
 40
0.84375
 40
0.875
 40
0.90625
 40
0.9375
 40
0.96875
 40
0.984375
 40
1.0
 40
1.0
 40
1.0
 40
1.0
 10
1.245892318189339
 20
1.106998589598955
 30
0.0
 10
1.268887085980254
 20
1.115198950390998
 30
0.0
 10
1.313563775360858
 20
1.13121159363688
 30
0.0
 10
1.388203085453565
 20
1.158266002993752
 30
0.0
 10
1.462906541913426
 20
1.185641809718001
 30
0.0
 10
1.558328390323201
 20
1.221036356241742
 30
0.0
 10
1.678096380388409
 20
1.266249661109682
 30
0.0
 10
1.86852862090582
 20
1.339878870954496
 30
0.0
 10
2.105376071517319
 20
1.434813717424279
 30
0.0
 10
2.387657479532839
 20
1.553478153320122
 30
0.0
 10
2.621153841211896
 20
1.656207243256405
 30
0.0
 10
2.806898904059677
 20
1.740752660774628
 30
0.0
 10
2.922903275989322
 20
1.79468408616872
 30
0.0
 10
3.015197041310934
 20
1.838226855202114
 30
0.0
 10
3.084994829160808
 20
1.871506558483919
 30
0.0
 10
3.149419987901194
 20
1.902450817416685
 30
0.0
 10
3.196747861402545
 20
1.92528199675792
 30
0.0
 10
3.243482669720159
 20
1.948103698763906
 30
0.0
 10
3.310889984755526
 20
1.981350240150669
 30
0.0
 10
3.383012110064787
 20
2.017231210789505
 30
0.0
 10
3.446826270855619
 20
2.049220608897169
 30
0.0
 10
3.481238569699395
 20
2.066563677072867
 30
0.0
 10
3.498117263225587
 20
2.075095003145716
 30
0.0
  0
SPLINE
  5
13D
330
1F
100
AcDbEntity
  8
0
  6
Continuous
 62
     7
370
    25
100
AcDbSpline
210
0.0
220
0.0
230
1.0
 70
     8
 71
     3
 72
    25
 73
    21
 74
     0
 42
0.00000001
 43
0.00000001
 40
0.0
 40
0.0
 40
0.0
 40
0.0
 40
0.0156248287382393
 40
0.0312496574764786
 40
0.0624993149529573
 40
0.0937489724294359
 40
0.1249986299059145
 40
0.1874979448588718
 40
0.249997259811829
 40
0.3124965747647863
 40
0.3749958897177436
 40
0.499994519623658
 40
0.6249931495295726
 40
0.6874924644825299
 40
0.7499917794354871
 40
0.8124910943884444
 40
0.8749904093414016
 40
0.9374897242943588
 40
0.9687393817708374
 40
0.9999890392473161
 40
0.9999890392473161
 40
0.9999890392473161
 40
0.9999890392473161
 10
3.498117229552798
 20
2.075094986125821
 30
0.0
 10
3.51463363657158
 20
2.083443196253638
 30
0.0
 10
3.548514231514671
 20
2.100618960246044
 30
0.0
 10
3.609271338440592
 20
2.131574024115677
 30
0.0
 10
3.661456845054621
 20
2.158364241372518
 30
0.0
 10
3.740766667861566
 20
2.199359717694591
 30
0.0
 10
3.849136206286319
 20
2.255801296975992
 30
0.0
 10
3.983655422173138
 20
2.326640210041283
 30
0.0
 10
4.145180884736873
 20
2.412787918770412
 30
0.0
 10
4.306545866529337
 20
2.499845425057936
 30
0.0
 10
4.521809892589521
 20
2.617059050471888
 30
0.0
 10
4.7909432282414
 20
2.765192337732762
 30
0.0
 10
5.060113222972897
 20
2.914736217628239
 30
0.0
 10
5.282943557825439
 20
3.038979099710569
 30
0.0
 10
5.454652517857596
 20
3.134835656015112
 30
0.0
 10
5.624898696305327
 20
3.2299518738241
 30
0.0
 10
5.787531074488243
 20
3.320838632798921
 30
0.0
 10
5.914625889525505
 20
3.39188818369077
 30
0.0
 10
6.013027405161064
 20
3.446943730452566
 30
0.0
 10
6.060778998474384
 20
3.473680053951886
 30
0.0
 10
6.084832232347848
 20
3.487153768490022
 30
0.0
  0
SPLINE
  5
13E
330
1F
100
AcDbEntity
  8
0
  6
Continuous
 62
     7
370
    25
100
AcDbSpline
210
0.0
220
0.0
230
1.0
 70
     8
 71
     3
 72
    21
 73
    17
 74
     0
 42
0.00000001
 43
0.00000001
 40
0.0000072031465783
 40
0.0000072031465783
 40
0.0000072031465783
 40
0.0000072031465783
 40
0.0312566746310749
 40
0.0625061461155714
 40
0.0937556176000679
 40
0.1250050890845644
 40
0.1875040320535575
 40
0.2500029750225505
 40
0.4999987468985228
 40
0.6249966328365089
 40
0.749994518774495
 40
0.812493461743488
 40
0.8749924047124811
 40
0.9374913476814741
 40
0.9687408191659707
 40
0.9999902906504672
 40
0.9999902906504672
 40
0.9999902906504672
 40
0.9999902906504672
 10
6.084832232347845
 20
3.487153768490021
 30
0.0
 10
6.120777187979969
 20
3.507294226237259
 30
0.0
 10
6.193226086609299
 20
3.54798067110748
 30
0.0
 10
6.298203152589949
 20
3.607187497426444
 30
0.0
 10
6.402407924078073
 20
3.666198929688078
 30
0.0
 10
6.543441591897068
 20
3.746371369798211
 30
0.0
 10
6.71932222585091
 20
3.846950127965273
 30
0.0
 10
7.140566575591675
 20
4.089775299689565
 30
0.0
 10
7.629535177000864
 20
4.37728748327427
 30
0.0
 10
8.184255490829914
 20
4.71210834771491
 30
0.0
 10
8.529382406944523
 20
4.923873948739518
 30
0.0
 10
8.804306203603836
 20
5.094933532565714
 30
0.0
 10
9.009765102401412
 20
5.223930780933416
 30
0.0
 10
9.173514149061042
 20
5.327610232175027
 30
0.0
 10
9.312382248454808
 20
5.416130361943564
 30
0.0
 10
9.38416740912045
 20
5.462096525589828
 30
0.0
 10
9.419730424410352
 20
5.484921993817411
 30
0.0
  0
LWPOLYLINE
  5
13F
330
1F
100
AcDbEntity
  8
0
  6
Continuous
 62
     7
370
    25
100
AcDbPolyline
 90
        5
 70
   128
 43
0.0
 10
9.4197304244
 20
5.4849219938
 10
9.5768456714
 20
5.5858220321
 10
9.748843625
 20
5.6962791505
 10
9.8913802675
 20
5.7877842674
 10
10.031218947
 20
5.8775121161
  0
LINE
  5
140
330
1F
100
AcDbEntity
  8
0
  6
Continuous
 62
     7
370
    25
100
AcDbLine
 10
10.031218947
 20
5.8775121161
 30
0.0
 11
10.1629589668
 21
5.6679388207
 31
0.0
  0
LINE
  5
141
330
1F
100
AcDbEntity
  8
0
  6
Continuous
 62
     7
370
    25
100
AcDbLine
 10
3.5486149717
 20
8.777385297
 30
0.0
 11
3.4568693901
 21
8.6133919628
 31
0.0
  0
LINE
  5
142
330
1F
100
AcDbEntity
  8
0
  6
Continuous
 62
     7
370
    25
100
AcDbLine
 10
3.4568693901
 20
8.6133919628
 30
0.0
 11
3.6226404725
 21
8.5206518252
 31
0.0
  0
LINE
  5
143
330
1F
100
AcDbEntity
  8
0
  6
Continuous
 62
     7
370
    25
100
AcDbLine
 10
3.6226404725
 20
8.5206518252
 30
0.0
 11
3.7143961318
 21
8.684663173
 31
0.0
  0
LINE
  5
144
330
1F
100
AcDbEntity
  8
0
  6
Continuous
 62
     7
370
    25
100
AcDbLine
 10
5.8051236378
 20
7.2624876208
 30
0.0
 11
5.7294514293
 21
7.1735175601
 31
0.0
  0
LINE
  5
145
330
1F
100
AcDbEntity
  8
0
  6
Continuous
 62
     7
370
    25
100
AcDbLine
 10
5.7294514293
 20
7.1735175601
 30
0.0
 11
6.4911782728
 21
6.5256417229
 31
0.0
  0
LINE
  5
146
330
1F
100
AcDbEntity
  8
0
  6
Continuous
 62
     7
370
    25
100
AcDbLine
 10
6.4911782728
 20
6.5256417229
 30
0.0
 11
7.2358725537
 21
5.9728075554
 31
0.0
  0
LINE
  5
147
330
1F
100
AcDbEntity
  8
0
  6
Continuous
 62
     7
370
    25
100
AcDbLine
 10
7.2757146163
 20
5.933214831
 30
0.0
 11
7.2358725537
 21
5.9728075554
 31
0.0
  0
LINE
  5
148
330
1F
100
AcDbEntity
  8
0
  6
Continuous
 62
     7
370
    25
100
AcDbLine
 10
7.0874036309
 20
6.0216487077
 30
0.0
 11
7.2757146163
 21
5.933214831
 31
0.0
  0
SPLINE
  5
149
330
1F
100
AcDbEntity
  8
0
  6
Continuous
 62
     7
370
    25
100
AcDbSpline
210
0.0
220
0.0
230
1.0
 70
     8
 71
     3
 72
    34
 73
    30
 74
     0
 42
0.00000001
 43
0.00000001
 40
0.829742623122541
 40
0.829742623122541
 40
0.829742623122541
 40
0.829742623122541
 40
0.8394749002660455
 40
0.8504813585168555
 40
0.8612076967744442
 40
0.8716393257296176
 40
0.8817634137109616
 40
0.8915636048210556
 40
0.9010273643172574
 40
0.9101389770085111
 40
0.9188839764012169
 40
0.9272492779043127
 40
0.9352211037112476
 40
0.9427847385100345
 40
0.9499281877133432
 40
0.9566384642920557
 40
0.9629042034427838
 40
0.9687122876061149
 40
0.9740544849024281
 40
0.9789184321677268
 40
0.9832972184116099
 40
0.9871802458290098
 40
0.9905606741393513
 40
0.9934333573190599
 40
0.9957906255195277
 40
0.9976295874610529
 40
0.9989458159268665
 40
0.9997365922159134
 40
1.0
 40
1.0
 40
1.0
 40
1.0
 10
3.634317614274899
 20
7.265591413000738
 30
0.0
 10
3.702222996844665
 20
7.248432131534122
 30
0.0
 10
3.846706003294063
 20
7.211003614615356
 30
0.0
 10
4.065182235056274
 20
7.151447266247099
 30
0.0
 10
4.287700292177417
 20
7.087658324193979
 30
0.0
 10
4.503325680285405
 20
7.022933442194383
 30
0.0
 10
4.711777107961031
 20
6.957551905138573
 30
0.0
 10
4.912845691550197
 20
6.891955024736147
 30
0.0
 10
5.106275485978836
 20
6.826476967722761
 30
0.0
 10
5.291814090448312
 20
6.761409782546326
 30
0.0
 10
5.469284873512411
 20
6.697252305651541
 30
0.0
 10
5.63842889356601
 20
6.634215060142251
 30
0.0
 10
5.799069694834055
 20
6.572727513395275
 30
0.0
 10
5.950994016484265
 20
6.513083205998431
 30
0.0
 10
6.094021180847014
 20
6.455633839225878
 30
0.0
 10
6.227968958696533
 20
6.40065205035081
 30
0.0
 10
6.352682229705914
 20
6.348489551533309
 30
0.0
 10
6.46800534450081
 20
6.299398505780017
 30
0.0
 10
6.57377762403658
 20
6.253633386237839
 30
0.0
 10
6.669904750788548
 20
6.2114826848933
 30
0.0
 10
6.756209937227921
 20
6.173085727289836
 30
0.0
 10
6.832638959672363
 20
6.138756577465057
 30
0.0
 10
6.899059028888792
 20
6.108599082386871
 30
0.0
 10
6.955413735657987
 20
6.082833260080253
 30
0.0
 10
7.001610807502428
 20
6.061530480138227
 30
0.0
 10
7.037614776942427
 20
6.04487203302465
 30
0.0
 10
7.063347999322017
 20
6.032862791205592
 30
0.0
 10
7.078820759033722
 20
6.025679362848284
 30
0.0
 10
7.085687776933054
 20
6.022454500457168
 30
0.0
 10
7.087403630942084
 20
6.021648707732655
 30
0.0
  0
LINE
  5
14A
330
1F
100
AcDbEntity
  8
0
  6
Continuous
 62
     7
370
    25
100
AcDbLine
 10
3.6343176143
 20
7.265591413
 30
0.0
 11
3.6790699837
 21
7.446708275
 31
0.0
  0
LINE
  5
14B
330
1F
100
AcDbEntity
  8
0
  6
Continuous
 62
     7
370
    25
100
AcDbLine
 10
3.6790699837
 20
7.446708275
 30
0.0
 11
3.4946598583
 21
7.4922743806
 31
0.0
  0
LINE
  5
14C
330
1F
100
AcDbEntity
  8
0
  6
Continuous
 62
     7
370
    25
100
AcDbLine
 10
3.4946598583
 20
7.4922743806
 30
0.0
 11
3.4499021655
 21
7.3111359733
 31
0.0
  0
SPLINE
  5
14D
330
1F
100
AcDbEntity
  8
0
  6
Continuous
 62
     7
370
    25
100
AcDbSpline
210
0.0
220
0.0
230
1.0
 70
     8
 71
     3
 72
    14
 73
    10
 74
     0
 42
0.00000001
 43
0.00000001
 40
0.7547435756467992
 40
0.7547435756467992
 40
0.7547435756467992
 40
0.7547435756467992
 40
0.755725557694238
 40
0.7683199516741555
 40
0.7807243374027457
 40
0.7929265285864308
 40
0.8049160410865589
 40
0.8166790838088313
 40
0.8209442265958249
 40
0.8209442265958249
 40
0.8209442265958249
 40
0.8209442265958249
 10
2.048268942885863
 20
7.588757832243549
 30
0.0
 10
2.055252351020294
 20
7.587673945401384
 30
0.0
 10
2.151792096162158
 20
7.57262920965254
 30
0.0
 10
2.336291661080858
 20
7.542269743814931
 30
0.0
 10
2.599751352181219
 20
7.494633325030041
 30
0.0
 10
2.858167503023783
 20
7.443752964631155
 30
0.0
 10
3.111277412469966
 20
7.38996642595558
 30
0.0
 10
3.307861181091818
 20
7.345097193184958
 30
0.0
 10
3.420063552473255
 20
7.318335063655788
 30
0.0
 10
3.449902165484733
 20
7.311135973286038
 30
0.0
  0
LINE
  5
14E
330
1F
100
AcDbEntity
  8
0
  6
Continuous
 62
     7
370
    25
100
AcDbLine
 10
2.0482689429
 20
7.5887578322
 30
0.0
 11
2.0632062794
 21
7.706744534
 31
0.0
  0
LINE
  5
14F
330
1F
100
AcDbEntity
  8
0
  6
Continuous
 62
     7
370
    25
100
AcDbLine
 10
2.0632062794
 20
7.706744534
 30
0.0
 11
1.0713830709
 21
7.8323112023
 31
0.0
  0
LINE
  5
150
330
1F
100
AcDbEntity
  8
0
  6
Continuous
 62
     7
370
    25
100
AcDbLine
 10
1.0713830709
 20
7.8323112023
 30
0.0
 11
1.0562613315
 21
7.712867941
 31
0.0
  0
SPLINE
  5
151
330
1F
100
AcDbEntity
  8
0
  6
Continuous
 62
     7
370
    25
100
AcDbSpline
210
0.0
220
0.0
230
1.0
 70
     8
 71
     3
 72
     9
 73
     5
 74
     0
 42
0.00000001
 43
0.00000001
 40
0.6967841287768995
 40
0.6967841287768995
 40
0.6967841287768995
 40
0.6967841287768995
 40
0.7035818246207629
 40
0.7084310093250267
 40
0.7084310093250267
 40
0.7084310093250267
 40
0.7084310093250267
 10
0.8059876923888991
 20
7.737218217448139
 30
0.0
 10
0.8546727184274013
 20
7.732426789634552
 30
0.0
 10
0.9380905406445194
 20
7.724245423017913
 30
0.0
 10
1.021526003735279
 20
7.716233568138573
 30
0.0
 10
1.056261331541359
 20
7.712867940970465
 30
0.0
  0
LINE
  5
152
330
1F
100
AcDbEntity
  8
0
  6
Continuous
 62
     7
370
    25
100
AcDbLine
 10
0.4900726629
 20
8.5236441554
 30
0.0
 11
0.8059876924
 21
7.7372182174
 31
0.0
  0
ARC
  5
153
330
1F
100
AcDbEntity
  8
0
  6
Continuous
 62
     7
370
    25
100
AcDbCircle
 10
1.1396226688
 20
8.7845747779
 30
0.0
 40
0.6999999999999984
100
AcDbArc
 50
156.8858131525
 51
201.8858131525
  0
LINE
  5
154
330
1F
100
AcDbEntity
  8
0
  6
Continuous
 62
     7
370
    25
100
AcDbLine
 10
0.4958156423
 20
9.0593701792
 30
0.0
 11
0.8731701244
 21
9.9434587257
 31
0.0
  0
LINE
  5
155
330
1F
100
AcDbEntity
  8
0
  6
Continuous
 62
     7
370
    25
100
AcDbLine
 10
1.1083907213
 20
9.8585055973
 30
0.0
 11
1.0653019553
 21
9.7435210446
 31
0.0
  0
LINE
  5
156
330
1F
100
AcDbEntity
  8
0
  6
Continuous
 62
     7
370
    25
100
AcDbLine
 10
1.0653019553
 20
9.7435210446
 30
0.0
 11
2.0016115535
 21
9.3926528257
 31
0.0
  0
LINE
  5
157
330
1F
100
AcDbEntity
  8
0
  6
Continuous
 62
     7
370
    25
100
AcDbLine
 10
2.0016115535
 20
9.3926528257
 30
0.0
 11
2.042574611
 21
9.5019648177
 31
0.0
  0
CIRCLE
  5
158
330
1F
100
AcDbEntity
  8
0
  6
Continuous
 62
     7
370
    25
100
AcDbCircle
 10
1.1396226688
 20
8.7845747779
 30
0.0
 40
0.2500000000000002
  0
ARC
  5
159
330
1F
100
AcDbEntity
  8
0
  6
Continuous
 62
     7
370
    25
100
AcDbCircle
 10
3.7602729035
 20
7.9041558269
 30
0.0
 40
0.2500000000000007
100
AcDbArc
 50
255.9226669552
 51
58.7660876034
  0
SPLINE
  5
15A
330
1F
100
AcDbEntity
  8
0
  6
Continuous
 62
     7
370
    25
100
AcDbSpline
210
0.0
220
0.0
230
1.0
 70
     8
 71
     3
 72
    11
 73
     7
 74
     0
 42
0.00000001
 43
0.00000001
 40
0.1716772615531192
 40
0.1716772615531192
 40
0.1716772615531192
 40
0.1716772615531192
 40
0.1873566680084297
 40
0.218582779343168
 40
0.2498088906779063
 40
0.2592336000015101
 40
0.2592336000015101
 40
0.2592336000015101
 40
0.2592336000015101
 10
3.889906202041295
 20
8.117920201638725
 30
0.0
 10
3.79196581828284
 20
8.177314265882435
 30
0.0
 10
3.496978705185737
 20
8.351624156063476
 30
0.0
 10
2.995949225541871
 20
8.62480985855698
 30
0.0
 10
2.523795720840335
 20
8.854565330547606
 30
0.0
 10
2.253348597568746
 20
8.976019825006784
 30
0.0
 10
2.190412666487412
 20
9.003762076670858
 30
0.0
  0
ARC
  5
15B
330
1F
100
AcDbEntity
  8
0
  6
Continuous
 62
     7
370
    25
100
AcDbCircle
 10
2.0895744265
 20
8.7750009581
 30
0.0
 40
0.2499999999999994
100
AcDbArc
 50
66.2120437609
 51
179.4225802608
  0
ARC
  5
15C
330
1F
100
AcDbEntity
  8
0
  6
Continuous
 62
     7
370
    25
100
AcDbCircle
 10
1.1396226688
 20
8.7845747779
 30
0.0
 40
0.7000000000000032
100
AcDbArc
 50
326.6981009996
 51
359.4225802608
  0
ARC
  5
15D
330
1F
100
AcDbEntity
  8
0
  6
Continuous
 62
     7
370
    25
100
AcDbCircle
 10
1.9336223748
 20
8.2629767843
 30
0.0
 40
0.2499999999999998
100
AcDbArc
 50
146.6981009996
 51
261.8870858812
  0
SPLINE
  5
15E
330
1F
100
AcDbEntity
  8
0
  6
Continuous
 62
     7
370
    25
100
AcDbSpline
210
0.0
220
0.0
230
1.0
 70
     8
 71
     3
 72
    11
 73
     7
 74
     0
 42
0.00000001
 43
0.00000001
 40
0.7450790429262888
 40
0.7450790429262888
 40
0.7450790429262888
 40
0.7450790429262888
 40
0.7501990717596683
 40
0.7814241877897097
 40
0.8126493038197512
 40
0.8282057529621792
 40
0.8282057529621792
 40
0.8282057529621792
 40
0.8282057529621792
 10
1.89834128138024
 20
8.01547881576619
 30
0.0
 10
1.935694063907121
 20
8.010154137680598
 30
0.0
 10
2.200757193733146
 20
7.971496076534388
 30
0.0
 10
2.691295677271708
 20
7.888290906574491
 30
0.0
 10
3.253602396647948
 20
7.770091740829749
 30
0.0
 10
3.588411743728702
 20
7.689511716020498
 30
0.0
 10
3.699465078814869
 20
7.661663747730754
 30
0.0
  0
SPLINE
  5
15F
330
1F
100
AcDbEntity
  8
0
  6
Continuous
 62
     7
370
    25
100
AcDbSpline
210
0.0
220
0.0
230
1.0
 70
     8
 71
     3
 72
    19
 73
    15
 74
     0
 42
0.00000001
 43
0.00000001
 40
0.0789046665299089
 40
0.0789046665299089
 40
0.0789046665299089
 40
0.0789046665299089
 40
0.079349826512255
 40
0.0880629100454657
 40
0.0971757563559511
 40
0.1066781116462642
 40
0.1165615729559075
 40
0.1268142755473613
 40
0.1374283005010189
 40
0.1483936177789397
 40
0.1596997598396382
 40
0.1713381255242434
 40
0.1832976990279093
 40
0.1914120153140789
 40
0.1914120153140789
 40
0.1914120153140789
 40
0.1914120153140789
 10
5.805123637815058
 20
7.262487620788839
 30
0.0
 10
5.802520475493685
 20
7.264577910477874
 30
0.0
 10
5.748952733261453
 20
7.307565007713439
 30
0.0
 10
5.64154613145947
 20
7.392657207392066
 30
0.0
 10
5.479325733538427
 20
7.517922501020378
 30
0.0
 10
5.308515244255991
 20
7.646398122798353
 30
0.0
 10
5.129045477850627
 20
7.777548863447007
 30
0.0
 10
4.940944427284788
 20
7.910981125115211
 30
0.0
 10
4.744187906266954
 20
8.046190550325589
 30
0.0
 10
4.538814163331436
 20
8.182761204770852
 30
0.0
 10
4.324782986502007
 20
8.320127678193028
 30
0.0
 10
4.102184321866297
 20
8.457886615538472
 30
0.0
 10
3.897806679790016
 20
8.579533118466617
 30
0.0
 10
3.767321252669753
 20
8.654626075756301
 30
0.0
 10
3.714396131775088
 20
8.684663172986014
 30
0.0
  0
SPLINE
  5
160
330
1F
100
AcDbEntity
  8
0
  6
Continuous
 62
     7
370
    25
100
AcDbSpline
210
0.0
220
0.0
230
1.0
 70
     8
 71
     3
 72
     8
 73
     4
 74
     0
 42
0.00000001
 43
0.00000001
 40
0.3186214090418223
 40
0.3186214090418223
 40
0.3186214090418223
 40
0.3186214090418223
 40
0.3297372155886937
 40
0.3297372155886937
 40
0.3297372155886937
 40
0.3297372155886937
 10
1.108390721292845
 20
9.858505597297547
 30
0.0
 10
1.030062445973274
 20
9.887038970164422
 30
0.0
 10
0.9516517112350974
 20
9.915347831882421
 30
0.0
 10
0.8731701243513
 20
9.94345872574035
 30
0.0
  0
SPLINE
  5
161
330
1F
100
AcDbEntity
  8
0
  6
Continuous
 62
     7
370
    25
100
AcDbSpline
210
0.0
220
0.0
230
1.0
 70
     8
 71
     3
 72
    13
 73
     9
 74
     0
 42
0.00000001
 43
0.00000001
 40
0.1998546360050331
 40
0.1998546360050331
 40
0.1998546360050331
 40
0.1998546360050331
 40
0.2081435554480289
 40
0.2210115933777215
 40
0.2341618307558447
 40
0.2475874504524841
 40
0.2612768224436114
 40
0.2741749620012119
 40
0.2741749620012119
 40
0.2741749620012119
 40
0.2741749620012119
 10
3.548614971696978
 20
8.777385297013074
 30
0.0
 10
3.494171564205094
 20
8.807390360695582
 30
0.0
 10
3.354738712097882
 20
8.883124943904786
 30
0.0
 10
3.126755077746268
 20
9.002410975912687
 30
0.0
 10
2.862019881861575
 20
9.134439811206427
 30
0.0
 10
2.589142197837835
 20
9.26381038351231
 30
0.0
 10
2.31543013083392
 20
9.3868713473978
 30
0.0
 10
2.13193591431373
 20
9.464925652163684
 30
0.0
 10
2.042574611006239
 20
9.501964817661456
 30
0.0
  0
LINE
  5
162
330
1F
100
AcDbEntity
  8
0
  6
Continuous
 62
     7
370
    25
100
AcDbLine
 10
4.6999079841
 20
3.0767078801
 30
0.0
 11
4.6091234279
 21
3.2412351719
 31
0.0
  0
LINE
  5
163
330
1F
100
AcDbEntity
  8
0
  6
Continuous
 62
     7
370
    25
100
AcDbLine
 10
4.6091234279
 20
3.2412351719
 30
0.0
 11
4.4428125995
 21
3.1494664776
 31
0.0
  0
LINE
  5
164
330
1F
100
AcDbEntity
  8
0
  6
Continuous
 62
     7
370
    25
100
AcDbLine
 10
4.4428125995
 20
3.1494664776
 30
0.0
 11
4.5336071278
 21
2.9849211136
 31
0.0
  0
LINE
  5
165
330
1F
100
AcDbEntity
  8
0
  6
Continuous
 62
     7
370
    25
100
AcDbLine
 10
2.2216532686
 20
1.9609122471
 30
0.0
 11
2.1860807546
 21
2.0721621957
 31
0.0
  0
LINE
  5
166
330
1F
100
AcDbEntity
  8
0
  6
Continuous
 62
     7
370
    25
100
AcDbLine
 10
2.1860807546
 20
2.0721621957
 30
0.0
 11
1.2336022284
 21
1.7676042506
 31
0.0
  0
LINE
  5
167
330
1F
100
AcDbEntity
  8
0
  6
Continuous
 62
     7
370
    25
100
AcDbLine
 10
1.2336022284
 20
1.7676042506
 30
0.0
 11
0.3708209007
 21
1.4273050157
 31
0.0
  0
LINE
  5
168
330
1F
100
AcDbEntity
  8
0
  6
Continuous
 62
     7
370
    25
100
AcDbLine
 10
0.3161569219
 20
1.4143890104
 30
0.0
 11
0.3708209007
 21
1.4273050157
 31
0.0
  0
LINE
  5
169
330
1F
100
AcDbEntity
  8
0
  6
Continuous
 62
     7
370
    25
100
AcDbLine
 10
0.4907175036
 20
1.5275710807
 30
0.0
 11
0.3161569219
 21
1.4143890104
 31
0.0
  0
SPLINE
  5
16A
330
1F
100
AcDbEntity
  8
0
  6
Continuous
 62
     7
370
    25
100
AcDbSpline
210
0.0
220
0.0
230
1.0
 70
     8
 71
     3
 72
    34
 73
    30
 74
     0
 42
0.00000001
 43
0.00000001
 40
0.829742623122541
 40
0.829742623122541
 40
0.829742623122541
 40
0.829742623122541
 40
0.8394749002660455
 40
0.8504813585168555
 40
0.8612076967744442
 40
0.8716393257296176
 40
0.8817634137109616
 40
0.8915636048210556
 40
0.9010273643172574
 40
0.9101389770085111
 40
0.9188839764012169
 40
0.9272492779043127
 40
0.9352211037112476
 40
0.9427847385100345
 40
0.9499281877133432
 40
0.9566384642920557
 40
0.9629042034427838
 40
0.9687122876061149
 40
0.9740544849024281
 40
0.9789184321677268
 40
0.9832972184116099
 40
0.9871802458290098
 40
0.9905606741393513
 40
0.9934333573190599
 40
0.9957906255195277
 40
0.9976295874610529
 40
0.9989458159268665
 40
0.9997365922159134
 40
1.0
 40
1.0
 40
1.0
 40
1.0
 10
3.3709694628993
 20
3.802509573031794
 30
0.0
 10
3.320529942300599
 20
3.75391495723776
 30
0.0
 10
3.21242930976747
 20
3.651004868921149
 30
0.0
 10
3.046454578742304
 20
3.496955490028856
 30
0.0
 10
2.874750936051047
 20
3.341709962042451
 30
0.0
 10
2.705893485910237
 20
3.192811406379455
 30
0.0
 10
2.54026795585419
 20
3.050351142160129
 30
0.0
 10
2.378359402978961
 20
2.914273419769822
 30
0.0
 10
2.220586766479451
 20
2.784619046550306
 30
0.0
 10
2.067331350620935
 20
2.661448068453603
 30
0.0
 10
1.919110020373539
 20
2.544646964252565
 30
0.0
 10
1.776238311666367
 20
2.434324397692572
 30
0.0
 10
1.639174095225671
 20
2.330403341075065
 30
0.0
 10
1.508279267466131
 20
2.232909818318287
 30
0.0
 10
1.38394789784467
 20
2.141811464786145
 30
0.0
 10
1.266507741952355
 20
2.057118997100308
 30
0.0
 10
1.156339378382617
 20
1.978778344070673
 30
0.0
 10
1.053739137750862
 20
1.906788468383498
 30
0.0
 10
0.9590079690316139
 20
1.841151383149702
 30
0.0
 10
0.8724406526613293
 20
1.781794784039978
 30
0.0
 10
0.7942488744498721
 20
1.728795186120112
 30
0.0
 10
0.724727949431928
 20
1.682032733402631
 30
0.0
 10
0.6640361973334873
 20
1.641565322670939
 30
0.0
 10
0.6123902329461722
 20
1.60732463142963
 30
0.0
 10
0.5698993972864602
 20
1.579351309045657
 30
0.0
 10
0.5367363594613077
 20
1.557579708326376
 30
0.0
 10
0.5129462707835191
 20
1.542073183770275
 30
0.0
 10
0.4986736571853991
 20
1.532729713476023
 30
0.0
 10
0.4923080665793496
 20
1.528602374320153
 30
0.0
 10
0.4907175036419362
 20
1.527571080745411
 30
0.0
  0
LINE
  5
16B
330
1F
100
AcDbEntity
  8
0
  6
Continuous
 62
     7
370
    25
100
AcDbLine
 10
3.3709694629
 20
3.802509573
 30
0.0
 11
3.5011167851
 21
3.6688392068
 31
0.0
  0
LINE
  5
16C
330
1F
100
AcDbEntity
  8
0
  6
Continuous
 62
     7
370
    25
100
AcDbLine
 10
3.5011167851
 20
3.6688392068
 30
0.0
 11
3.637217691
 21
3.8013530088
 31
0.0
  0
LINE
  5
16D
330
1F
100
AcDbEntity
  8
0
  6
Continuous
 62
     7
370
    25
100
AcDbLine
 10
3.637217691
 20
3.8013530088
 30
0.0
 11
3.5070548866
 21
3.935039276
 31
0.0
  0
SPLINE
  5
16E
330
1F
100
AcDbEntity
  8
0
  6
Continuous
 62
     7
370
    25
100
AcDbSpline
210
0.0
220
0.0
230
1.0
 70
     8
 71
     3
 72
    14
 73
    10
 74
     0
 42
0.00000001
 43
0.00000001
 40
0.7547435756467992
 40
0.7547435756467992
 40
0.7547435756467992
 40
0.7547435756467992
 40
0.755725557694238
 40
0.7683199516741555
 40
0.7807243374027457
 40
0.7929265285864308
 40
0.8049160410865589
 40
0.8166790838088313
 40
0.8209442265958249
 40
0.8209442265958249
 40
0.8209442265958249
 40
0.8209442265958249
 10
4.483166366907795
 20
4.978521889827438
 30
0.0
 10
4.478557203413669
 20
4.973164799969782
 30
0.0
 10
4.414787673747241
 20
4.899139712655196
 30
0.0
 10
4.291551519277536
 20
4.758517392760193
 30
0.0
 10
4.111936502768177
 20
4.559976003942422
 30
0.0
 10
3.932231187025734
 20
4.367430638938436
 30
0.0
 10
3.752861133871753
 20
4.180925941855252
 30
0.0
 10
3.610921483880023
 20
4.037707361024344
 30
0.0
 10
3.528929246372724
 20
3.956572555243465
 30
0.0
 10
3.507054886626261
 20
3.935039276016121
 30
0.0
  0
LINE
  5
16F
330
1F
100
AcDbEntity
  8
0
  6
Continuous
 62
     7
370
    25
100
AcDbLine
 10
4.4831663669
 20
4.9785218898
 30
0.0
 11
4.5754588501
 21
4.9035146678
 31
0.0
  0
LINE
  5
170
330
1F
100
AcDbEntity
  8
0
  6
Continuous
 62
     7
370
    25
100
AcDbLine
 10
4.5754588501
 20
4.9035146678
 30
0.0
 11
5.2059867189
 21
5.6793463969
 31
0.0
  0
LINE
  5
171
330
1F
100
AcDbEntity
  8
0
  6
Continuous
 62
     7
370
    25
100
AcDbLine
 10
5.2059867189
 20
5.6793463969
 30
0.0
 11
5.112554874
 21
5.7552795915
 31
0.0
  0
SPLINE
  5
172
330
1F
100
AcDbEntity
  8
0
  6
Continuous
 62
     7
370
    25
100
AcDbSpline
210
0.0
220
0.0
230
1.0
 70
     8
 71
     3
 72
     9
 73
     5
 74
     0
 42
0.00000001
 43
0.00000001
 40
0.6967841287768995
 40
0.6967841287768995
 40
0.6967841287768995
 40
0.6967841287768995
 40
0.7035818246207629
 40
0.7084310093250267
 40
0.7084310093250267
 40
0.7084310093250267
 40
0.7084310093250267
 10
5.265432325477747
 20
5.954925065454204
 30
0.0
 10
5.235647112965643
 20
5.916117454648185
 30
0.0
 10
5.184636655741102
 20
5.849608800497727
 30
0.0
 10
5.133760812952328
 20
5.782995626573125
 30
0.0
 10
5.11255487403328
 20
5.75527959152855
 30
0.0
  0
LINE
  5
173
330
1F
100
AcDbEntity
  8
0
  6
Continuous
 62
     7
370
    25
100
AcDbLine
 10
6.1000637587
 20
5.8077570245
 30
0.0
 11
5.2654323255
 21
5.9549250655
 31
0.0
  0
ARC
  5
174
330
1F
100
AcDbEntity
  8
0
  6
Continuous
 62
     7
370
    25
100
AcDbCircle
 10
5.9785100344
 20
5.1183915973
 30
0.0
 40
0.700000000000001
100
AcDbArc
 50
35.0
 51
80.0
  0
LINE
  5
175
330
1F
100
AcDbEntity
  8
0
  6
Continuous
 62
     7
370
    25
100
AcDbLine
 10
6.5519164654
 20
5.5198951028
 30
0.0
 11
7.1032690227
 21
4.7324820467
 31
0.0
  0
LINE
  5
176
330
1F
100
AcDbEntity
  8
0
  6
Continuous
 62
     7
370
    25
100
AcDbLine
 10
6.9068849777
 20
4.5776302785
 30
0.0
 11
6.8320120031
 21
4.6749551303
 31
0.0
  0
LINE
  5
177
330
1F
100
AcDbEntity
  8
0
  6
Continuous
 62
     7
370
    25
100
AcDbLine
 10
6.8320120031
 20
4.6749551303
 30
0.0
 11
6.0395038722
 21
4.0652707585
 31
0.0
  0
LINE
  5
178
330
1F
100
AcDbEntity
  8
0
  6
Continuous
 62
     7
370
    25
100
AcDbLine
 10
6.0395038722
 20
4.0652707585
 30
0.0
 11
6.1106831203
 21
3.972747257
 31
0.0
  0
CIRCLE
  5
179
330
1F
100
AcDbEntity
  8
0
  6
Continuous
 62
     7
370
    25
100
AcDbCircle
 10
5.9785100344
 20
5.1183915973
 30
0.0
 40
0.2500000000000001
  0
ARC
  5
17A
330
1F
100
AcDbEntity
  8
0
  6
Continuous
 62
     7
370
    25
100
AcDbCircle
 10
3.8466429835
 20
3.3582529496
 30
0.0
 40
0.2500000000000011
100
AcDbArc
 50
134.0368538026
 51
296.8802744509
  0
SPLINE
  5
17B
330
1F
100
AcDbEntity
  8
0
  6
Continuous
 62
     7
370
    25
100
AcDbSpline
210
0.0
220
0.0
230
1.0
 70
     8
 71
     3
 72
    11
 73
     7
 74
     0
 42
0.00000001
 43
0.00000001
 40
0.1716772615531192
 40
0.1716772615531192
 40
0.1716772615531192
 40
0.1716772615531192
 40
0.1873566680084297
 40
0.218582779343168
 40
0.2498088906779063
 40
0.2592336000015101
 40
0.2592336000015101
 40
0.2592336000015101
 40
0.2592336000015101
 10
3.959674898004591
 20
3.135264639881298
 30
0.0
 10
4.061841410353249
 20
3.187052451117636
 30
0.0
 10
4.365668859403054
 20
3.345451364978111
 30
0.0
 10
4.862289377790924
 20
3.626572385599542
 30
0.0
 10
5.306780077008303
 20
3.906115811959068
 30
0.0
 10
5.552765164684092
 20
4.071597464571514
 30
0.0
 10
5.609565707853514
 20
4.110382284335515
 30
0.0
  0
ARC
  5
17C
330
1F
100
AcDbEntity
  8
0
  6
Continuous
 62
     7
370
    25
100
AcDbCircle
 10
5.4685896613
 20
4.3168423393
 30
0.0
 40
0.2500000000000046
100
AcDbArc
 50
304.3262306084
 51
57.5367671083
  0
ARC
  5
17D
330
1F
100
AcDbEntity
  8
0
  6
Continuous
 62
     7
370
    25
100
AcDbCircle
 10
5.9785100344
 20
5.1183915973
 30
0.0
 40
0.7000000000000028
100
AcDbArc
 50
204.8122878471
 51
237.5367671083
  0
ARC
  5
17E
330
1F
100
AcDbEntity
  8
0
  6
Continuous
 62
     7
370
    25
100
AcDbCircle
 10
5.1162069089
 20
4.7197271774
 30
0.0
 40
0.2500000000000021
100
AcDbArc
 50
24.8122878471
 51
140.0012727286
  0
SPLINE
  5
17F
330
1F
100
AcDbEntity
  8
0
  6
Continuous
 62
     7
370
    25
100
AcDbSpline
210
0.0
220
0.0
230
1.0
 70
     8
 71
     3
 72
    11
 73
     7
 74
     0
 42
0.00000001
 43
0.00000001
 40
0.7450790429262888
 40
0.7450790429262888
 40
0.7450790429262888
 40
0.7450790429262888
 40
0.7501990717596683
 40
0.7814241877897097
 40
0.8126493038197512
 40
0.8282057529621792
 40
0.8282057529621792
 40
0.8282057529621792
 40
0.8282057529621792
 10
4.924692228522506
 20
4.880419825687773
 30
0.0
 10
4.900440241406202
 20
4.851516129036198
 30
0.0
 10
4.727601789471457
 20
4.646870635517399
 30
0.0
 10
4.397835856502921
 20
4.274304488915535
 30
0.0
 10
4.000446434631689
 20
3.859284565510325
 30
0.0
 10
3.7551700259507
 20
3.617561743593448
 30
0.0
 10
3.672862753297041
 20
3.53797615796425
 30
0.0
  0
SPLINE
  5
180
330
1F
100
AcDbEntity
  8
0
  6
Continuous
 62
     7
370
    25
100
AcDbSpline
210
0.0
220
0.0
230
1.0
 70
     8
 71
     3
 72
    19
 73
    15
 74
     0
 42
0.00000001
 43
0.00000001
 40
0.0789046665299089
 40
0.0789046665299089
 40
0.0789046665299089
 40
0.0789046665299089
 40
0.079349826512255
 40
0.0880629100454657
 40
0.0971757563559511
 40
0.1066781116462642
 40
0.1165615729559075
 40
0.1268142755473613
 40
0.1374283005010189
 40
0.1483936177789397
 40
0.1596997598396382
 40
0.1713381255242434
 40
0.1832976990279093
 40
0.1914120153140789
 40
0.1914120153140789
 40
0.1914120153140789
 40
0.1914120153140789
 10
2.221653268620998
 20
1.960912247085111
 30
0.0
 10
2.224803202341063
 20
1.962018448972068
 30
0.0
 10
2.28959964143808
 20
1.984795960182589
 30
0.0
 10
2.418586827440845
 20
2.031047083454192
 30
0.0
 10
2.610639275982503
 20
2.102620181044016
 30
0.0
 10
2.809955149902486
 20
2.179791361180488
 30
0.0
 10
3.016116547524226
 20
2.262902082251462
 30
0.0
 10
3.228774477256117
 20
2.352136484810177
 30
0.0
 10
3.44751346377881
 20
2.447781521292927
 30
0.0
 10
3.671960132278472
 20
2.550024422965138
 30
0.0
 10
3.901655632583812
 20
2.659197999506887
 30
0.0
 10
4.136209962856062
 20
2.775438940946135
 30
0.0
 10
4.347458328420313
 20
2.88471940718663
 30
0.0
 10
4.480146016855352
 20
2.955848699767351
 30
0.0
 10
4.533607127832454
 20
2.984921113578315
 30
0.0
  0
SPLINE
  5
181
330
1F
100
AcDbEntity
  8
0
  6
Continuous
 62
     7
370
    25
100
AcDbSpline
210
0.0
220
0.0
230
1.0
 70
     8
 71
     3
 72
     8
 73
     4
 74
     0
 42
0.00000001
 43
0.00000001
 40
0.3186214090418223
 40
0.3186214090418223
 40
0.3186214090418223
 40
0.3186214090418223
 40
0.3297372155886937
 40
0.3297372155886937
 40
0.3297372155886937
 40
0.3297372155886937
 10
6.906884977704763
 20
4.577630278454873
 30
0.0
 10
6.972487932730243
 20
4.629066883840757
 30
0.0
 10
7.037943812159018
 20
4.680692098824863
 30
0.0
 10
7.103269022676314
 20
4.732482046731403
 30
0.0
  0
SPLINE
  5
182
330
1F
100
AcDbEntity
  8
0
  6
Continuous
 62
     7
370
    25
100
AcDbSpline
210
0.0
220
0.0
230
1.0
 70
     8
 71
     3
 72
    13
 73
     9
 74
     0
 42
0.00000001
 43
0.00000001
 40
0.1998546360050331
 40
0.1998546360050331
 40
0.1998546360050331
 40
0.1998546360050331
 40
0.2081435554480289
 40
0.2210115933777215
 40
0.2341618307558447
 40
0.2475874504524841
 40
0.2612768224436114
 40
0.2741749620012119
 40
0.2741749620012119
 40
0.2741749620012119
 40
0.2741749620012119
 10
4.69990798414226
 20
3.07670788011663
 30
0.0
 10
4.754143897009302
 20
3.107086395903239
 30
0.0
 10
4.892102672984588
 20
3.185474044624353
 30
0.0
 10
5.113816105387398
 20
3.316045285165774
 30
0.0
 10
5.365762691781884
 20
3.471091261873632
 30
0.0
 10
5.619753231505964
 20
3.634455214897495
 30
0.0
 10
5.8688270114459
 20
3.801860557113369
 30
0.0
 10
6.032029919926656
 20
3.916435478681161
 30
0.0
 10
6.110683120285629
 20
3.97274725704835
 30
0.0
  0
MTEXT
  5
184
330
1F
100
AcDbEntity
  8
0
  6
Continuous
 62
     7
100
AcDbMText
 10
0.0
 20
0.5790104628
 30
0.0
 40
0.2076
 41
0.0
 71
     1
 72
     1
  1
SOLIDWORKS Educational Product.
  7
SLDTEXTSTYLE0
 73
     1
 44
1.0
  0
MTEXT
  5
185
330
1F
100
AcDbEntity
  8
0
  6
Continuous
 62
     7
100
AcDbMText
 10
0.0
 20
0.2676104628
 30
0.0
 40
0.2076
 41
0.0
 71
     1
 72
     1
  1
For Instructional Use Only.
  7
SLDTEXTSTYLE0
 73
     1
 44
1.0
  0
ENDSEC
  0
SECTION
  2
OBJECTS
  0
DICTIONARY
  5
C
330
0
100
AcDbDictionary
281
     1
  3
ACAD_GROUP
350
D
  3
ACAD_LAYOUT
350
1A
  3
ACAD_MLINESTYLE
350
17
  3
ACAD_PLOTSETTINGS
350
19
  3
ACAD_PLOTSTYLENAME
350
E
  3
ACAD_SCALELIST
350
47
  3
DWGPROPS
350
186
  0
DICTIONARY
  5
D
102
{ACAD_REACTORS
330
C
102
}
330
C
100
AcDbDictionary
281
     1
  0
DICTIONARY
  5
1A
102
{ACAD_REACTORS
330
C
102
}
330
C
100
AcDbDictionary
281
     1
  3
Layout1
350
1E
  3
Layout2
350
26
  3
Model
350
22
  0
DICTIONARY
  5
17
102
{ACAD_REACTORS
330
C
102
}
330
C
100
AcDbDictionary
281
     1
  3
Standard
350
18
  0
DICTIONARY
  5
19
102
{ACAD_REACTORS
330
C
102
}
330
C
100
AcDbDictionary
281
     1
  0
ACDBDICTIONARYWDFLT
  5
E
102
{ACAD_REACTORS
330
C
102
}
330
C
100
AcDbDictionary
281
     1
  3
Normal
350
F
100
AcDbDictionaryWithDefault
340
F
  0
DICTIONARY
  5
47
102
{ACAD_REACTORS
330
C
102
}
330
C
100
AcDbDictionary
281
     1
  3
A0
350
48
  3
A1
350
49
  3
A2
350
4A
  3
A3
350
4B
  3
A4
350
4C
  3
A5
350
4D
  3
A6
350
4E
  3
A7
350
4F
  3
A8
350
50
  3
A9
350
51
  3
B1
350
52
  3
B2
350
53
  3
B3
350
54
  3
B4
350
55
  3
B5
350
56
  3
B6
350
57
  3
B7
350
58
  0
XRECORD
  5
186
102
{ACAD_REACTORS
330
C
102
}
330
C
100
AcDbXrecord
280
     1
  1
DWGPROPS COOKIE
  2

  3

  4

  6

  7

  8
ucmai
  9

300
=
301
=
302
=
303
=
304
=
305
=
306
=
307
=
308
=
309
=
 40
0.0
 41
2460715.758436968
 42
2460715.758437651
  1

 90
        0
  0
LAYOUT
  5
1E
102
{ACAD_REACTORS
330
1A
102
}
330
1A
100
AcDbPlotSettings
  1

  2
none_device
  4

  6

 40
0.0
 41
0.0
 42
0.0
 43
0.0
 44
0.0
 45
0.0
 46
0.0
 47
0.0
 48
0.0
 49
0.0
140
0.0
141
0.0
142
1.0
143
1.0
 70
   688
 72
     0
 73
     0
 74
     5
  7

 75
    16
147
1.0
148
0.0
149
0.0
100
AcDbLayout
  1
Layout1
 70
     1
 71
     1
 10
0.0
 20
0.0
 11
12.0
 21
9.0
 12
0.0
 22
0.0
 32
0.0
 14
1.0000000000E+20
 24
1.0000000000E+20
 34
1.0000000000E+20
 15
-1.0000000000E+20
 25
-1.0000000000E+20
 35
-1.0000000000E+20
146
0.0
 13
0.0
 23
0.0
 33
0.0
 16
1.0
 26
0.0
 36
0.0
 17
0.0
 27
1.0
 37
0.0
 76
     0
330
1B
  0
LAYOUT
  5
26
102
{ACAD_REACTORS
330
1A
102
}
330
1A
100
AcDbPlotSettings
  1

  2
none_device
  4

  6

 40
0.0
 41
0.0
 42
0.0
 43
0.0
 44
0.0
 45
0.0
 46
0.0
 47
0.0
 48
0.0
 49
0.0
140
0.0
141
0.0
142
1.0
143
1.0
 70
   688
 72
     0
 73
     0
 74
     5
  7

 75
    16
147
1.0
148
0.0
149
0.0
100
AcDbLayout
  1
Layout2
 70
     1
 71
     2
 10
0.0
 20
0.0
 11
0.0
 21
0.0
 12
0.0
 22
0.0
 32
0.0
 14
0.0
 24
0.0
 34
0.0
 15
0.0
 25
0.0
 35
0.0
146
0.0
 13
0.0
 23
0.0
 33
0.0
 16
1.0
 26
0.0
 36
0.0
 17
0.0
 27
1.0
 37
0.0
 76
     0
330
23
  0
LAYOUT
  5
22
102
{ACAD_REACTORS
330
1A
102
}
330
1A
100
AcDbPlotSettings
  1

  2
none_device
  4
Letter_(8.50_x_11.00_Inches)
  6

 40
6.35
 41
6.35
 42
6.35000508
 43
6.35000508
 44
215.9
 45
279.4
 46
0.0
 47
0.0
 48
0.0
 49
0.0
140
0.0
141
0.0
142
1.0
143
1.0
 70
  1712
 72
     0
 73
     0
 74
     0
  7

 75
     0
147
1.0
148
0.0
149
0.0
100
AcDbLayout
  1
Model
 70
     1
 71
     0
 10
0.0
 20
0.0
 11
24.0
 21
12.0
 12
0.0
 22
0.0
 32
0.0
 14
0.0
 24
0.0
 34
0.0
 15
24.0
 25
12.0
 35
0.0
146
0.0
 13
0.0
 23
0.0
 33
0.0
 16
1.0
 26
0.0
 36
0.0
 17
0.0
 27
1.0
 37
0.0
 76
     0
330
1F
331
29
  0
MLINESTYLE
  5
18
102
{ACAD_REACTORS
330
17
102
}
330
17
100
AcDbMlineStyle
  2
Standard
 70
     0
  3

 62
   256
 51
90.0
 52
90.0
 71
     2
 49
0.5
 62
   256
  6
BYLAYER
 49
-0.5
 62
   256
  6
BYLAYER
  0
ACDBPLACEHOLDER
  5
F
102
{ACAD_REACTORS
330
E
102
}
330
E
  0
SCALE
  5
48
102
{ACAD_REACTORS
330
47
102
}
330
47
100
AcDbScale
 70
     0
300
1:1
140
1.0
141
1.0
290
     1
  0
SCALE
  5
49
102
{ACAD_REACTORS
330
47
102
}
330
47
100
AcDbScale
 70
     0
300
1/128" = 1'-0"
140
0.0078125
141
12.0
290
     0
  0
SCALE
  5
4A
102
{ACAD_REACTORS
330
47
102
}
330
47
100
AcDbScale
 70
     0
300
1/64" = 1'-0"
140
0.015625
141
12.0
290
     0
  0
SCALE
  5
4B
102
{ACAD_REACTORS
330
47
102
}
330
47
100
AcDbScale
 70
     0
300
1/32" = 1'-0"
140
0.03125
141
12.0
290
     0
  0
SCALE
  5
4C
102
{ACAD_REACTORS
330
47
102
}
330
47
100
AcDbScale
 70
     0
300
1/16" = 1'-0"
140
0.0625
141
12.0
290
     0
  0
SCALE
  5
4D
102
{ACAD_REACTORS
330
47
102
}
330
47
100
AcDbScale
 70
     0
300
3/32" = 1'-0"
140
0.09375
141
12.0
290
     0
  0
SCALE
  5
4E
102
{ACAD_REACTORS
330
47
102
}
330
47
100
AcDbScale
 70
     0
300
1/8" = 1'-0"
140
0.125
141
12.0
290
     0
  0
SCALE
  5
4F
102
{ACAD_REACTORS
330
47
102
}
330
47
100
AcDbScale
 70
     0
300
3/16" = 1'-0"
140
0.1875
141
12.0
290
     0
  0
SCALE
  5
50
102
{ACAD_REACTORS
330
47
102
}
330
47
100
AcDbScale
 70
     0
300
1/4" = 1'-0"
140
0.25
141
12.0
290
     0
  0
SCALE
  5
51
102
{ACAD_REACTORS
330
47
102
}
330
47
100
AcDbScale
 70
     0
300
3/8" = 1'-0"
140
0.375
141
12.0
290
     0
  0
SCALE
  5
52
102
{ACAD_REACTORS
330
47
102
}
330
47
100
AcDbScale
 70
     0
300
1/2" = 1'-0"
140
0.5
141
12.0
290
     0
  0
SCALE
  5
53
102
{ACAD_REACTORS
330
47
102
}
330
47
100
AcDbScale
 70
     0
300
3/4" = 1'-0"
140
0.75
141
12.0
290
     0
  0
SCALE
  5
54
102
{ACAD_REACTORS
330
47
102
}
330
47
100
AcDbScale
 70
     0
300
1" = 1'-0"
140
1.0
141
12.0
290
     0
  0
SCALE
  5
55
102
{ACAD_REACTORS
330
47
102
}
330
47
100
AcDbScale
 70
     0
300
1-1/2" = 1'-0"
140
1.5
141
12.0
290
     0
  0
SCALE
  5
56
102
{ACAD_REACTORS
330
47
102
}
330
47
100
AcDbScale
 70
     0
300
3" = 1'-0"
140
3.0
141
12.0
290
     0
  0
SCALE
  5
57
102
{ACAD_REACTORS
330
47
102
}
330
47
100
AcDbScale
 70
     0
300
6" = 1'-0"
140
6.0
141
12.0
290
     0
  0
SCALE
  5
58
102
{ACAD_REACTORS
330
47
102
}
330
47
100
AcDbScale
 70
     0
300
1'-0" = 1'-0"
140
12.0
141
12.0
290
     0
  0
ENDSEC
  0
EOF
