  0
SECTION
  2
HEADER
  9
$ACADVER
  1
AC1015
  9
$ACADMAINTVER
 70
     6
  9
$DWGCODEPAGE
  3
ANSI_1252
  9
$INSBASE
 10
0.0
 20
0.0
 30
0.0
  9
$EXTMIN
 10
0.0
 20
0.0
 30
0.0
  9
$EXTMAX
 10
24.0
 20
12.0
 30
0.0
  9
$LIMMIN
 10
0.0
 20
0.0
  9
$LIMMAX
 10
24.0
 20
12.0
  9
$ORTHOMODE
 70
     0
  9
$REGENMODE
 70
     1
  9
$FILLMODE
 70
     1
  9
$QTEXTMODE
 70
     0
  9
$MIRRTEXT
 70
     1
  9
$LTSCALE
 40
1.0
  9
$ATTMODE
 70
     1
  9
$TEXTSIZE
 40
0.1377952756
  9
$TRACEWID
 40
0.05
  9
$TEXTSTYLE
  7
Standard
  9
$CLAYER
  8
0
  9
$CELTYPE
  6
ByLayer
  9
$CECOLOR
 62
   256
  9
$CELTSCALE
 40
1.0
  9
$DISPSILH
 70
     0
  9
$DIMSCALE
 40
1.0
  9
$DIMASZ
 40
0.14
  9
$DIMEXO
 40
0.0393700787
  9
$DIMDLI
 40
0.38
  9
$DIMRND
 40
0.0
  9
$DIMDLE
 40
0.0
  9
$DIMEXE
 40
0.0393700787
  9
$DIMTP
 40
0.0
  9
$DIMTM
 40
0.0
  9
$DIMTXT
 40
0.1377952756
  9
$DIMCEN
 40
0.09
  9
$DIMTSZ
 40
0.0
  9
$DIMTOL
 70
     0
  9
$DIMLIM
 70
     0
  9
$DIMTIH
 70
     1
  9
$DIMTOH
 70
     1
  9
$DIMSE1
 70
     0
  9
$DIMSE2
 70
     0
  9
$DIMTAD
 70
     1
  9
$DIMZIN
 70
     1
  9
$DIMBLK
  1

  9
$DIMASO
 70
     1
  9
$DIMSHO
 70
     1
  9
$DIMPOST
  1

  9
$DIMAPOST
  1

  9
$DIMALT
 70
     0
  9
$DIMALTD
 70
     2
  9
$DIMALTF
 40
25.4
  9
$DIMLFAC
 40
1.0
  9
$DIMTOFL
 70
     0
  9
$DIMTVP
 40
0.0
  9
$DIMTIX
 70
     0
  9
$DIMSOXD
 70
     0
  9
$DIMSAH
 70
     0
  9
$DIMBLK1
  1

  9
$DIMBLK2
  1

  9
$DIMSTYLE
  2
Standard
  9
$DIMCLRD
 70
     0
  9
$DIMCLRE
 70
     0
  9
$DIMCLRT
 70
     0
  9
$DIMTFAC
 40
1.0
  9
$DIMGAP
 40
0.06
  9
$DIMJUST
 70
     0
  9
$DIMSD1
 70
     0
  9
$DIMSD2
 70
     0
  9
$DIMTOLJ
 70
     1
  9
$DIMTZIN
 70
     1
  9
$DIMALTZ
 70
     0
  9
$DIMALTTZ
 70
     0
  9
$DIMUPT
 70
     0
  9
$DIMDEC
 70
     2
  9
$DIMTDEC
 70
     2
  9
$DIMALTU
 70
     2
  9
$DIMALTTD
 70
     2
  9
$DIMTXSTY
  7
Standard
  9
$DIMAUNIT
 70
     0
  9
$DIMADEC
 70
     2
  9
$DIMALTRND
 40
0.0
  9
$DIMAZIN
 70
     0
  9
$DIMDSEP
 70
    46
  9
$DIMATFIT
 70
     3
  9
$DIMFRAC
 70
     0
  9
$DIMLDRBLK
  1

  9
$DIMLUNIT
 70
     2
  9
$DIMLWD
 70
    -2
  9
$DIMLWE
 70
    -2
  9
$DIMTMOVE
 70
     0
  9
$LUNITS
 70
     2
  9
$LUPREC
 70
     6
  9
$SKETCHINC
 40
0.1
  9
$FILLETRAD
 40
0.0
  9
$AUNITS
 70
     0
  9
$AUPREC
 70
     2
  9
$MENU
  1
.
  9
$ELEVATION
 40
0.0
  9
$PELEVATION
 40
0.0
  9
$THICKNESS
 40
0.0
  9
$LIMCHECK
 70
     0
  9
$CHAMFERA
 40
0.0
  9
$CHAMFERB
 40
0.0
  9
$CHAMFERC
 40
0.0
  9
$CHAMFERD
 40
0.0
  9
$SKPOLY
 70
     0
  9
$TDCREATE
 40
2460361.610723415
  9
$TDUCREATE
 40
2460361.944056748
  9
$TDUPDATE
 40
2460361.610724468
  9
$TDUUPDATE
 40
2460361.944057801
  9
$TDINDWG
 40
0.0000000116
  9
$TDUSRTIMER
 40
0.0000000116
  9
$USRTIMER
 70
     1
  9
$ANGBASE
 50
0.0
  9
$ANGDIR
 70
     0
  9
$PDMODE
 70
     0
  9
$PDSIZE
 40
-1.0
  9
$PLINEWID
 40
0.0
  9
$SPLFRAME
 70
     0
  9
$SPLINETYPE
 70
     6
  9
$SPLINESEGS
 70
     8
  9
$HANDSEED
  5
177
  9
$SURFTAB1
 70
     6
  9
$SURFTAB2
 70
     6
  9
$SURFTYPE
 70
     6
  9
$SURFU
 70
     6
  9
$SURFV
 70
     6
  9
$UCSBASE
  2

  9
$UCSNAME
  2

  9
$UCSORG
 10
0.0
 20
0.0
 30
0.0
  9
$UCSXDIR
 10
1.0
 20
0.0
 30
0.0
  9
$UCSYDIR
 10
0.0
 20
1.0
 30
0.0
  9
$UCSORTHOREF
  2

  9
$UCSORTHOVIEW
 70
     0
  9
$UCSORGTOP
 10
0.0
 20
0.0
 30
0.0
  9
$UCSORGBOTTOM
 10
0.0
 20
0.0
 30
0.0
  9
$UCSORGLEFT
 10
0.0
 20
0.0
 30
0.0
  9
$UCSORGRIGHT
 10
0.0
 20
0.0
 30
0.0
  9
$UCSORGFRONT
 10
0.0
 20
0.0
 30
0.0
  9
$UCSORGBACK
 10
0.0
 20
0.0
 30
0.0
  9
$PUCSBASE
  2

  9
$PUCSNAME
  2

  9
$PUCSORG
 10
0.0
 20
0.0
 30
0.0
  9
$PUCSXDIR
 10
1.0
 20
0.0
 30
0.0
  9
$PUCSYDIR
 10
0.0
 20
1.0
 30
0.0
  9
$PUCSORTHOREF
  2

  9
$PUCSORTHOVIEW
 70
     0
  9
$PUCSORGTOP
 10
0.0
 20
0.0
 30
0.0
  9
$PUCSORGBOTTOM
 10
0.0
 20
0.0
 30
0.0
  9
$PUCSORGLEFT
 10
0.0
 20
0.0
 30
0.0
  9
$PUCSORGRIGHT
 10
0.0
 20
0.0
 30
0.0
  9
$PUCSORGFRONT
 10
0.0
 20
0.0
 30
0.0
  9
$PUCSORGBACK
 10
0.0
 20
0.0
 30
0.0
  9
$USERI1
 70
     0
  9
$USERI2
 70
     0
  9
$USERI3
 70
     0
  9
$USERI4
 70
     0
  9
$USERI5
 70
     0
  9
$USERR1
 40
0.0
  9
$USERR2
 40
0.0
  9
$USERR3
 40
0.0
  9
$USERR4
 40
0.0
  9
$USERR5
 40
0.0
  9
$WORLDVIEW
 70
     1
  9
$SHADEDGE
 70
     3
  9
$SHADEDIF
 70
    70
  9
$TILEMODE
 70
     1
  9
$MAXACTVP
 70
    64
  9
$PINSBASE
 10
0.0
 20
0.0
 30
0.0
  9
$PLIMCHECK
 70
     0
  9
$PEXTMIN
 10
1.0000000000E+20
 20
1.0000000000E+20
 30
1.0000000000E+20
  9
$PEXTMAX
 10
-1.0000000000E+20
 20
-1.0000000000E+20
 30
-1.0000000000E+20
  9
$PLIMMIN
 10
0.0
 20
0.0
  9
$PLIMMAX
 10
12.0
 20
9.0
  9
$UNITMODE
 70
     0
  9
$VISRETAIN
 70
     1
  9
$PLINEGEN
 70
     0
  9
$PSLTSCALE
 70
     1
  9
$TREEDEPTH
 70
  3020
  9
$CMLSTYLE
  2
Standard
  9
$CMLJUST
 70
     0
  9
$CMLSCALE
 40
1.0
  9
$PROXYGRAPHICS
 70
     1
  9
$MEASUREMENT
 70
     0
  9
$CELWEIGHT
370
    -1
  9
$ENDCAPS
280
     0
  9
$JOINSTYLE
280
     0
  9
$LWDISPLAY
290
     1
  9
$INSUNITS
 70
     1
  9
$HYPERLINKBASE
  1

  9
$STYLESHEET
  1

  9
$XEDIT
290
     1
  9
$CEPSNTYPE
380
     0
  9
$PSTYLEMODE
290
     1
  9
$FINGERPRINTGUID
  2
{106894ea-9175-4843-b99d-3ee5c11f5477}
  9
$VERSIONGUID
  2
{FAEB1C32-E019-11D5-929B-00C0DF256EC4}
  9
$EXTNAMES
290
     1
  9
$PSVPSCALE
 40
0.0
  9
$OLESTARTUP
290
     0
  0
ENDSEC
  0
SECTION
  2
CLASSES
  0
CLASS
  1
ACDBDICTIONARYWDFLT
  2
AcDbDictionaryWithDefault
  3
ObjectDBX Classes
 90
        0
280
     0
281
     0
  0
CLASS
  1
VISUALSTYLE
  2
AcDbVisualStyle
  3
ObjectDBX Classes
 90
     4095
280
     0
281
     0
  0
CLASS
  1
MATERIAL
  2
AcDbMaterial
  3
ObjectDBX Classes
 90
     1153
280
     0
281
     0
  0
CLASS
  1
SCALE
  2
AcDbScale
  3
ObjectDBX Classes
 90
     1153
280
     0
281
     0
  0
CLASS
  1
TABLESTYLE
  2
AcDbTableStyle
  3
ObjectDBX Classes
 90
     4095
280
     0
281
     0
  0
CLASS
  1
MLEADERSTYLE
  2
AcDbMLeaderStyle
  3
ACDB_MLEADERSTYLE_CLASS
 90
     4095
280
     0
281
     0
  0
CLASS
  1
SUN
  2
AcDbSun
  3
SCENEOE
 90
     1153
280
     0
281
     0
  0
CLASS
  1
ACDBPLACEHOLDER
  2
AcDbPlaceHolder
  3
ObjectDBX Classes
 90
        0
280
     0
281
     0
  0
CLASS
  1
LAYOUT
  2
AcDbLayout
  3
ObjectDBX Classes
 90
        0
280
     0
281
     0
  0
ENDSEC
  0
SECTION
  2
TABLES
  0
TABLE
  2
VPORT
  5
8
330
0
100
AcDbSymbolTable
 70
     1
  0
VPORT
  5
29
330
8
100
AcDbSymbolTableRecord
100
AcDbViewportTableRecord
  2
*Active
 70
     0
 10
0.0
 20
0.0
 11
1.0
 21
1.0
 12
12.0
 22
6.0
 13
0.0
 23
0.0
 14
0.5
 24
0.5
 15
0.5
 25
0.5
 16
0.0
 26
0.0
 36
1.0
 17
0.0
 27
0.0
 37
0.0
 40
12.0
 41
2.0
 42
50.0
 43
0.0
 44
0.0
 50
0.0
 51
0.0
 71
     0
 72
  2000
 73
     1
 74
     3
 75
     0
 76
     0
 77
     0
 78
     0
281
     0
 65
     1
110
0.0
120
0.0
130
0.0
111
1.0
121
0.0
131
0.0
112
0.0
122
1.0
132
0.0
 79
     0
146
0.0
  0
ENDTAB
  0
TABLE
  2
LTYPE
  5
5
330
0
100
AcDbSymbolTable
 70
     6
  0
LTYPE
  5
14
330
5
100
AcDbSymbolTableRecord
100
AcDbLinetypeTableRecord
  2
ByBlock
 70
     0
  3

 72
    65
 73
     0
 40
0.0
  0
LTYPE
  5
15
330
5
100
AcDbSymbolTableRecord
100
AcDbLinetypeTableRecord
  2
ByLayer
 70
     0
  3

 72
    65
 73
     0
 40
0.0
  0
LTYPE
  5
16
330
5
100
AcDbSymbolTableRecord
100
AcDbLinetypeTableRecord
  2
Continuous
 70
     0
  3
Solid line
 72
    65
 73
     0
 40
0.0
  0
LTYPE
  5
5E
330
5
100
AcDbSymbolTableRecord
100
AcDbLinetypeTableRecord
  2
HIDDEN
 70
     0
  3
Hidden __ __ __ __ __ __ __ __ __ __ __ __ __ __
 72
    65
 73
     2
 40
0.075
 49
0.05
 74
     0
 49
-0.025
 74
     0
  0
LTYPE
  5
5F
330
5
100
AcDbSymbolTableRecord
100
AcDbLinetypeTableRecord
  2
PHANTOM
 70
     0
  3
Phantom ______  __  __  ______  __  __  ______
 72
    65
 73
     6
 40
0.5
 49
0.25
 74
     0
 49
-0.05
 74
     0
 49
0.05
 74
     0
 49
-0.05
 74
     0
 49
0.05
 74
     0
 49
-0.05
 74
     0
  0
LTYPE
  5
60
330
5
100
AcDbSymbolTableRecord
100
AcDbLinetypeTableRecord
  2
CENTER
 70
     0
  3
Center ____ _ ____ _ ____ _ ____ _ ____ _ ____
 72
    65
 73
     4
 40
0.4
 49
0.25
 74
     0
 49
-0.05
 74
     0
 49
0.05
 74
     0
 49
-0.05
 74
     0
  0
LTYPE
  5
61
330
5
100
AcDbSymbolTableRecord
100
AcDbLinetypeTableRecord
  2
CENTERX2
 70
     0
  3
Center (2x) ________  __  ________  __  _____
 72
    65
 73
     4
 40
0.8
 49
0.5
 74
     0
 49
-0.1
 74
     0
 49
0.1
 74
     0
 49
-0.1
 74
     0
  0
LTYPE
  5
62
330
5
100
AcDbSymbolTableRecord
100
AcDbLinetypeTableRecord
  2
DOT2
 70
     0
  3
Dot (.5x) ........................................
 72
    65
 73
     2
 40
0.025
 49
0.0
 74
     0
 49
-0.025
 74
     0
  0
ENDTAB
  0
TABLE
  2
LAYER
  5
2
330
0
100
AcDbSymbolTable
 70
     2
  0
LAYER
  5
10
330
2
100
AcDbSymbolTableRecord
100
AcDbLayerTableRecord
  2
0
 70
     0
 62
     7
  6
Continuous
370
    -3
390
F
  0
LAYER
  5
63
330
2
100
AcDbSymbolTableRecord
100
AcDbLayerTableRecord
  2
PART_LAYER
 70
     0
 62
     7
  6
Continuous
370
    -3
390
F
  0
ENDTAB
  0
TABLE
  2
STYLE
  5
3
330
0
100
AcDbSymbolTable
 70
     2
  0
STYLE
  5
11
330
3
100
AcDbSymbolTableRecord
100
AcDbTextStyleTableRecord
  2
Standard
 70
     0
 40
0.0
 41
1.0
 50
0.0
 71
     0
 42
0.1377952756
  3
txt
  4

  0
STYLE
  5
173
330
3
100
AcDbSymbolTableRecord
100
AcDbTextStyleTableRecord
  2
SLDTEXTSTYLE0
 70
     0
 40
0.0
 41
0.7
 50
0.0
 71
     0
 42
0.1377952756
  3
TXT
  4

  0
ENDTAB
  0
TABLE
  2
VIEW
  5
6
330
0
100
AcDbSymbolTable
 70
     0
  0
ENDTAB
  0
TABLE
  2
UCS
  5
7
330
0
100
AcDbSymbolTable
 70
     0
  0
ENDTAB
  0
TABLE
  2
APPID
  5
9
330
0
100
AcDbSymbolTable
 70
     1
  0
APPID
  5
12
330
9
100
AcDbSymbolTableRecord
100
AcDbRegAppTableRecord
  2
ACAD
 70
     0
  0
ENDTAB
  0
TABLE
  2
DIMSTYLE
  5
A
330
0
100
AcDbSymbolTable
 70
     1
100
AcDbDimStyleTable
  0
DIMSTYLE
105
27
330
A
100
AcDbSymbolTableRecord
100
AcDbDimStyleTableRecord
  2
Standard
 70
     0
178
     0
340
11
  0
ENDTAB
  0
TABLE
  2
BLOCK_RECORD
  5
1
330
0
100
AcDbSymbolTable
 70
     1
  0
BLOCK_RECORD
  5
1F
330
1
100
AcDbSymbolTableRecord
100
AcDbBlockTableRecord
  2
*Model_Space
340
22
  0
BLOCK_RECORD
  5
1B
330
1
100
AcDbSymbolTableRecord
100
AcDbBlockTableRecord
  2
*Paper_Space
340
1E
  0
BLOCK_RECORD
  5
23
330
1
100
AcDbSymbolTableRecord
100
AcDbBlockTableRecord
  2
*Paper_Space0
340
26
  0
ENDTAB
  0
ENDSEC
  0
SECTION
  2
BLOCKS
  0
BLOCK
  5
20
330
1F
100
AcDbEntity
  8
0
100
AcDbBlockBegin
  2
*Model_Space
 70
     0
 10
0.0
 20
0.0
 30
0.0
  3
*Model_Space
  1

  0
ENDBLK
  5
21
330
1F
100
AcDbEntity
  8
0
100
AcDbBlockEnd
  0
BLOCK
  5
1C
330
1B
100
AcDbEntity
 67
     1
  8
0
100
AcDbBlockBegin
  2
*Paper_Space
 70
     0
 10
0.0
 20
0.0
 30
0.0
  3
*Paper_Space
  1

  0
ENDBLK
  5
1D
330
1B
100
AcDbEntity
 67
     1
  8
0
100
AcDbBlockEnd
  0
BLOCK
  5
24
330
23
100
AcDbEntity
  8
0
100
AcDbBlockBegin
  2
*Paper_Space0
 70
     0
 10
0.0
 20
0.0
 30
0.0
  3
*Paper_Space0
  1

  0
ENDBLK
  5
25
330
23
100
AcDbEntity
  8
0
100
AcDbBlockEnd
  0
ENDSEC
  0
SECTION
  2
ENTITIES
  0
LINE
  5
64
330
1F
100
AcDbEntity
  8
0
  6
Continuous
 62
     7
370
    18
100
AcDbLine
 10
0.125
 20
11.875
 30
0.0
 11
23.875
 21
11.875
 31
0.0
  0
LINE
  5
65
330
1F
100
AcDbEntity
  8
0
  6
Continuous
 62
     7
370
    18
100
AcDbLine
 10
0.125
 20
11.875
 30
0.0
 11
0.125
 21
0.125
 31
0.0
  0
LINE
  5
66
330
1F
100
AcDbEntity
  8
0
  6
Continuous
 62
     7
370
    18
100
AcDbLine
 10
0.125
 20
0.125
 30
0.0
 11
23.875
 21
0.125
 31
0.0
  0
LINE
  5
67
330
1F
100
AcDbEntity
  8
0
  6
Continuous
 62
     7
370
    18
100
AcDbLine
 10
23.875
 20
11.875
 30
0.0
 11
23.875
 21
0.125
 31
0.0
  0
LINE
  5
68
330
1F
100
AcDbEntity
  8
PART_LAYER
  6
Continuous
370
    25
100
AcDbLine
 10
1.9930564047
 20
11.5078117383
 30
0.0
 11
1.9939285568
 21
11.2579595751
 31
0.0
  0
LINE
  5
69
330
1F
100
AcDbEntity
  8
PART_LAYER
  6
Continuous
370
    25
100
AcDbLine
 10
2.1189277995
 20
11.258394715
 30
0.0
 11
1.9939285568
 21
11.2579595751
 31
0.0
  0
LINE
  5
6A
330
1F
100
AcDbEntity
  8
PART_LAYER
  6
Continuous
370
    25
100
AcDbLine
 10
2.1180556432
 20
11.5082480698
 30
0.0
 11
2.1189277995
 21
11.258394715
 31
0.0
  0
LINE
  5
6B
330
1F
100
AcDbEntity
  8
PART_LAYER
  6
Continuous
370
    25
100
AcDbLine
 10
5.1130373966
 20
11.5187025707
 30
0.0
 11
2.1180556432
 21
11.5082480698
 31
0.0
  0
LINE
  5
6C
330
1F
100
AcDbEntity
  8
PART_LAYER
  6
Continuous
370
    25
100
AcDbLine
 10
5.1130373966
 20
11.5187025707
 30
0.0
 11
5.1139096525
 21
11.2688206682
 31
0.0
  0
LINE
  5
6D
330
1F
100
AcDbEntity
  8
PART_LAYER
  6
Continuous
370
    25
100
AcDbLine
 10
5.2389088952
 20
11.2692558081
 30
0.0
 11
5.1139096525
 21
11.2688206682
 31
0.0
  0
LINE
  5
6E
330
1F
100
AcDbEntity
  8
PART_LAYER
  6
Continuous
370
    25
100
AcDbLine
 10
5.2380366351
 20
11.5191389022
 30
0.0
 11
5.2389088952
 21
11.2692558081
 31
0.0
  0
LINE
  5
6F
330
1F
100
AcDbEntity
  8
PART_LAYER
  6
Continuous
370
    25
100
AcDbLine
 10
8.2330183885
 20
11.5295934032
 30
0.0
 11
5.2380366351
 21
11.5191389022
 31
0.0
  0
LINE
  5
70
330
1F
100
AcDbEntity
  8
PART_LAYER
  6
Continuous
370
    25
100
AcDbLine
 10
8.2330183885
 20
11.5295934032
 30
0.0
 11
8.2338907482
 21
11.2796817613
 31
0.0
  0
LINE
  5
71
330
1F
100
AcDbEntity
  8
PART_LAYER
  6
Continuous
370
    25
100
AcDbLine
 10
8.3588899909
 20
11.2801169012
 30
0.0
 11
8.2338907482
 21
11.2796817613
 31
0.0
  0
LINE
  5
72
330
1F
100
AcDbEntity
  8
PART_LAYER
  6
Continuous
370
    25
100
AcDbLine
 10
8.358017627
 20
11.5300297346
 30
0.0
 11
8.3588899909
 21
11.2801169012
 31
0.0
  0
LINE
  5
73
330
1F
100
AcDbEntity
  8
PART_LAYER
  6
Continuous
370
    25
100
AcDbLine
 10
11.3529993804
 20
11.5404842356
 30
0.0
 11
8.358017627
 21
11.5300297346
 31
0.0
  0
LINE
  5
74
330
1F
100
AcDbEntity
  8
PART_LAYER
  6
Continuous
370
    25
100
AcDbLine
 10
11.3529993804
 20
11.5404842356
 30
0.0
 11
11.3538718439
 21
11.2905428544
 31
0.0
  0
LINE
  5
75
330
1F
100
AcDbEntity
  8
PART_LAYER
  6
Continuous
370
    25
100
AcDbLine
 10
11.4788710866
 20
11.2909779943
 30
0.0
 11
11.3538718439
 21
11.2905428544
 31
0.0
  0
LINE
  5
76
330
1F
100
AcDbEntity
  8
PART_LAYER
  6
Continuous
370
    25
100
AcDbLine
 10
11.4779986188
 20
11.540920567
 30
0.0
 11
11.4788710866
 21
11.2909779943
 31
0.0
  0
LINE
  5
77
330
1F
100
AcDbEntity
  8
PART_LAYER
  6
Continuous
370
    25
100
AcDbLine
 10
14.4729803723
 20
11.551375068
 30
0.0
 11
11.4779986188
 21
11.540920567
 31
0.0
  0
LINE
  5
78
330
1F
100
AcDbEntity
  8
PART_LAYER
  6
Continuous
370
    25
100
AcDbLine
 10
14.4729803723
 20
11.551375068
 30
0.0
 11
14.4738529396
 21
11.3014039474
 31
0.0
  0
LINE
  5
79
330
1F
100
AcDbEntity
  8
PART_LAYER
  6
Continuous
370
    25
100
AcDbLine
 10
14.5988521823
 20
11.3018390874
 30
0.0
 11
14.4738529396
 21
11.3014039474
 31
0.0
  0
LINE
  5
7A
330
1F
100
AcDbEntity
  8
PART_LAYER
  6
Continuous
370
    25
100
AcDbLine
 10
14.5979796107
 20
11.5518113994
 30
0.0
 11
14.5988521823
 21
11.3018390874
 31
0.0
  0
LINE
  5
7B
330
1F
100
AcDbEntity
  8
PART_LAYER
  6
Continuous
370
    25
100
AcDbLine
 10
17.3429628873
 20
11.5613932375
 30
0.0
 11
14.5979796107
 21
11.5518113994
 31
0.0
  0
LINE
  5
7C
330
1F
100
AcDbEntity
  8
PART_LAYER
  6
Continuous
370
    25
100
AcDbLine
 10
17.3438355501
 20
11.3113947606
 30
0.0
 11
17.3429628873
 21
11.5613932375
 31
0.0
  0
LINE
  5
7D
330
1F
100
AcDbEntity
  8
PART_LAYER
  6
Continuous
370
    25
100
AcDbLine
 10
17.4688347886
 20
11.3118310921
 30
0.0
 11
17.3438355501
 21
11.3113947606
 31
0.0
  0
LINE
  5
7E
330
1F
100
AcDbEntity
  8
PART_LAYER
  6
Continuous
370
    25
100
AcDbLine
 10
17.4688347886
 20
11.3118310921
 30
0.0
 11
17.4679621257
 21
11.561829569
 31
0.0
  0
LINE
  5
7F
330
1F
100
AcDbEntity
  8
PART_LAYER
  6
Continuous
370
    25
100
AcDbLine
 10
17.571153399
 20
11.5621897759
 30
0.0
 11
17.4679621257
 21
11.561829569
 31
0.0
  0
LINE
  5
80
330
1F
100
AcDbEntity
  8
PART_LAYER
  6
Continuous
370
    25
100
AcDbLine
 10
17.6490477572
 20
11.5690046492
 30
0.0
 11
17.571153399
 21
11.5621897759
 31
0.0
  0
LINE
  5
81
330
1F
100
AcDbEntity
  8
PART_LAYER
  6
Continuous
370
    25
100
AcDbLine
 10
17.6490477572
 20
11.5690046492
 30
0.0
 11
17.6708366929
 21
11.3199559747
 31
0.0
  0
LINE
  5
82
330
1F
100
AcDbEntity
  8
PART_LAYER
  6
Continuous
370
    25
100
AcDbLine
 10
17.7953610301
 20
11.3308504425
 30
0.0
 11
17.6708366929
 21
11.3199559747
 31
0.0
  0
LINE
  5
83
330
1F
100
AcDbEntity
  8
PART_LAYER
  6
Continuous
370
    25
100
AcDbLine
 10
17.7953610301
 20
11.3308504425
 30
0.0
 11
17.7735720944
 21
11.5798991171
 31
0.0
  0
LINE
  5
84
330
1F
100
AcDbEntity
  8
PART_LAYER
  6
Continuous
370
    25
100
AcDbLine
 10
18.2716694435
 20
11.6234769884
 30
0.0
 11
17.7735720944
 21
11.5798991171
 31
0.0
  0
LINE
  5
85
330
1F
100
AcDbEntity
  8
PART_LAYER
  6
Continuous
370
    25
100
AcDbLine
 10
18.2716694435
 20
11.6234769884
 30
0.0
 11
18.289100592
 21
11.4242380488
 31
0.0
  0
LINE
  5
86
330
1F
100
AcDbEntity
  8
PART_LAYER
  6
Continuous
370
    25
100
AcDbLine
 10
18.289100592
 20
11.4242380488
 30
0.0
 11
18.4136249293
 21
11.4351325167
 31
0.0
  0
LINE
  5
87
330
1F
100
AcDbEntity
  8
PART_LAYER
  6
Continuous
370
    25
100
AcDbLine
 10
18.4136249293
 20
11.4351325167
 30
0.0
 11
18.3961937807
 21
11.6343714563
 31
0.0
  0
LINE
  5
88
330
1F
100
AcDbEntity
  8
PART_LAYER
  6
Continuous
370
    25
100
AcDbLine
 10
18.6452424553
 20
11.656160392
 30
0.0
 11
18.3961937807
 21
11.6343714563
 31
0.0
  0
LINE
  5
89
330
1F
100
AcDbEntity
  8
PART_LAYER
  6
Continuous
370
    25
100
AcDbLine
 10
20.4147298998
 20
11.5098245324
 30
0.0
 11
18.6452424553
 21
11.656160392
 31
0.0
  0
LINE
  5
8A
330
1F
100
AcDbEntity
  8
PART_LAYER
  6
Continuous
370
    25
100
AcDbLine
 10
20.6637785743
 20
11.531613468
 30
0.0
 11
20.4147298998
 21
11.5098245324
 31
0.0
  0
LINE
  5
8B
330
1F
100
AcDbEntity
  8
PART_LAYER
  6
Continuous
370
    25
100
AcDbLine
 10
20.6812097228
 20
11.3323745284
 30
0.0
 11
20.6637785743
 21
11.531613468
 31
0.0
  0
LINE
  5
8C
330
1F
100
AcDbEntity
  8
PART_LAYER
  6
Continuous
370
    25
100
AcDbLine
 10
20.6812097228
 20
11.3323745284
 30
0.0
 11
20.8057340601
 21
11.3432689963
 31
0.0
  0
LINE
  5
8D
330
1F
100
AcDbEntity
  8
PART_LAYER
  6
Continuous
370
    25
100
AcDbLine
 10
20.8057340601
 20
11.3432689963
 30
0.0
 11
20.7883029115
 21
11.5425079359
 31
0.0
  0
LINE
  5
8E
330
1F
100
AcDbEntity
  8
PART_LAYER
  6
Continuous
370
    25
100
AcDbLine
 10
21.2864002606
 20
11.5860858073
 30
0.0
 11
20.7883029115
 21
11.5425079359
 31
0.0
  0
LINE
  5
8F
330
1F
100
AcDbEntity
  8
PART_LAYER
  6
Continuous
370
    25
100
AcDbLine
 10
21.2864002606
 20
11.5860858073
 30
0.0
 11
21.3038314091
 21
11.3868468676
 31
0.0
  0
LINE
  5
90
330
1F
100
AcDbEntity
  8
PART_LAYER
  6
Continuous
370
    25
100
AcDbLine
 10
21.3038314091
 20
11.3868468676
 30
0.0
 11
21.4283557464
 21
11.3977413355
 31
0.0
  0
LINE
  5
91
330
1F
100
AcDbEntity
  8
PART_LAYER
  6
Continuous
370
    25
100
AcDbLine
 10
21.4283557464
 20
11.3977413355
 30
0.0
 11
21.4109245978
 21
11.5969802751
 31
0.0
  0
LINE
  5
92
330
1F
100
AcDbEntity
  8
PART_LAYER
  6
Continuous
370
    25
100
AcDbLine
 10
23.0297409822
 20
11.7386083571
 30
0.0
 11
21.4109245978
 21
11.5969802751
 31
0.0
  0
LINE
  5
93
330
1F
100
AcDbEntity
  8
PART_LAYER
  6
Continuous
370
    25
100
AcDbLine
 10
23.0297409822
 20
11.7386083571
 30
0.0
 11
23.0471721308
 21
11.5393694174
 31
0.0
  0
LINE
  5
94
330
1F
100
AcDbEntity
  8
PART_LAYER
  6
Continuous
370
    25
100
AcDbLine
 10
23.0471721308
 20
11.5393694174
 30
0.0
 11
23.1716964681
 21
11.5502638853
 31
0.0
  0
LINE
  5
95
330
1F
100
AcDbEntity
  8
PART_LAYER
  6
Continuous
370
    25
100
AcDbLine
 10
23.1716964681
 20
11.5502638853
 30
0.0
 11
23.1542653195
 21
11.7495028249
 31
0.0
  0
LINE
  5
96
330
1F
100
AcDbEntity
  8
PART_LAYER
  6
Continuous
370
    25
100
AcDbLine
 10
23.6523626685
 20
11.7930806963
 30
0.0
 11
23.1542653195
 21
11.7495028249
 31
0.0
  0
LINE
  5
97
330
1F
100
AcDbEntity
  8
PART_LAYER
  6
Continuous
370
    25
100
AcDbLine
 10
23.7133716885
 20
11.0957444076
 30
0.0
 11
23.6523626685
 21
11.7930806963
 31
0.0
  0
LINE
  5
98
330
1F
100
AcDbEntity
  8
PART_LAYER
  6
Continuous
370
    25
100
AcDbLine
 10
17.7362034999
 20
10.5728099511
 30
0.0
 11
23.7133716885
 21
11.0957444076
 31
0.0
  0
LINE
  5
99
330
1F
100
AcDbEntity
  8
PART_LAYER
  6
Continuous
370
    25
100
AcDbLine
 10
17.4714527771
 20
10.5618356613
 30
0.0
 11
17.7362034999
 21
10.5728099511
 31
0.0
  0
LINE
  5
9A
330
1F
100
AcDbEntity
  8
PART_LAYER
  6
Continuous
370
    25
100
AcDbLine
 10
17.3464535387
 20
10.5613993299
 30
0.0
 11
17.4714527771
 21
10.5618356613
 31
0.0
  0
LINE
  5
9B
330
1F
100
AcDbEntity
  8
PART_LAYER
  6
Continuous
370
    25
100
AcDbLine
 10
0.6194598927
 20
10.6164343889
 30
0.0
 11
17.3464535387
 21
10.5613993299
 31
0.0
  0
LINE
  5
9C
330
1F
100
AcDbEntity
  8
PART_LAYER
  6
Continuous
370
    25
100
AcDbLine
 10
0.2327057569
 20
10.8200783518
 30
0.0
 11
0.6194598927
 21
10.6164343889
 31
0.0
  0
LINE
  5
9D
330
1F
100
AcDbEntity
  8
PART_LAYER
  6
Continuous
370
    25
100
AcDbLine
 10
0.629701646
 20
11.046529597
 30
0.0
 11
0.2327057569
 21
10.8200783518
 31
0.0
  0
LINE
  5
9E
330
1F
100
AcDbEntity
  8
PART_LAYER
  6
Continuous
370
    25
100
AcDbLine
 10
0.2307960606
 20
11.2507902076
 30
0.0
 11
0.629701646
 21
11.046529597
 31
0.0
  0
LINE
  5
9F
330
1F
100
AcDbEntity
  8
PART_LAYER
  6
Continuous
370
    25
100
AcDbLine
 10
0.495565528
 20
11.5025844878
 30
0.0
 11
0.2307960606
 21
11.2507902076
 31
0.0
  0
LINE
  5
A0
330
1F
100
AcDbEntity
  8
PART_LAYER
  6
Continuous
370
    25
100
AcDbLine
 10
1.9930564047
 20
11.5078117383
 30
0.0
 11
0.495565528
 21
11.5025844878
 31
0.0
  0
LINE
  5
A1
330
1F
100
AcDbEntity
  8
PART_LAYER
  6
Continuous
370
    25
100
AcDbLine
 10
3.3991306083
 20
10.1997376122
 30
0.0
 11
3.4000021376
 21
9.950063885
 31
0.0
  0
LINE
  5
A2
330
1F
100
AcDbEntity
  8
PART_LAYER
  6
Continuous
370
    25
100
AcDbLine
 10
3.5250013802
 20
9.9504990249
 30
0.0
 11
3.4000021376
 21
9.950063885
 31
0.0
  0
LINE
  5
A3
330
1F
100
AcDbEntity
  8
PART_LAYER
  6
Continuous
370
    25
100
AcDbLine
 10
3.5241298468
 20
10.2001739436
 30
0.0
 11
3.5250013802
 21
9.9504990249
 31
0.0
  0
LINE
  5
A4
330
1F
100
AcDbEntity
  8
PART_LAYER
  6
Continuous
370
    25
100
AcDbLine
 10
6.5191116002
 20
10.2106284446
 30
0.0
 11
6.5199832333
 21
9.960924978
 31
0.0
  0
LINE
  5
A5
330
1F
100
AcDbEntity
  8
PART_LAYER
  6
Continuous
370
    25
100
AcDbLine
 10
6.6449824759
 20
9.961360118
 30
0.0
 11
6.5199832333
 21
9.960924978
 31
0.0
  0
LINE
  5
A6
330
1F
100
AcDbEntity
  8
PART_LAYER
  6
Continuous
370
    25
100
AcDbLine
 10
6.6441108387
 20
10.211064776
 30
0.0
 11
6.6449824759
 21
9.961360118
 31
0.0
  0
LINE
  5
A7
330
1F
100
AcDbEntity
  8
PART_LAYER
  6
Continuous
370
    25
100
AcDbLine
 10
9.6390925921
 20
10.221519277
 30
0.0
 11
9.639964329
 21
9.9717860711
 31
0.0
  0
LINE
  5
A8
330
1F
100
AcDbEntity
  8
PART_LAYER
  6
Continuous
370
    25
100
AcDbLine
 10
9.7649635716
 20
9.9722212111
 30
0.0
 11
9.639964329
 21
9.9717860711
 31
0.0
  0
LINE
  5
A9
330
1F
100
AcDbEntity
  8
PART_LAYER
  6
Continuous
370
    25
100
AcDbLine
 10
9.7640918306
 20
10.2219556085
 30
0.0
 11
9.7649635716
 21
9.9722212111
 31
0.0
  0
LINE
  5
AA
330
1F
100
AcDbEntity
  8
PART_LAYER
  6
Continuous
370
    25
100
AcDbLine
 10
12.759073584
 20
10.2324101095
 30
0.0
 11
12.7599454247
 21
9.9826471642
 31
0.0
  0
LINE
  5
AB
330
1F
100
AcDbEntity
  8
PART_LAYER
  6
Continuous
370
    25
100
AcDbLine
 10
12.8849446673
 20
9.9830823042
 30
0.0
 11
12.7599454247
 21
9.9826471642
 31
0.0
  0
LINE
  5
AC
330
1F
100
AcDbEntity
  8
PART_LAYER
  6
Continuous
370
    25
100
AcDbLine
 10
12.8840728225
 20
10.2328464409
 30
0.0
 11
12.8849446673
 21
9.9830823042
 31
0.0
  0
LINE
  5
AD
330
1F
100
AcDbEntity
  8
PART_LAYER
  6
Continuous
370
    25
100
AcDbLine
 10
15.8790545759
 20
10.2433009419
 30
0.0
 11
15.8799265204
 21
9.9935082573
 31
0.0
  0
LINE
  5
AE
330
1F
100
AcDbEntity
  8
PART_LAYER
  6
Continuous
370
    25
100
AcDbLine
 10
16.004925763
 20
9.9939433973
 30
0.0
 11
15.8799265204
 21
9.9935082573
 31
0.0
  0
LINE
  5
AF
330
1F
100
AcDbEntity
  8
PART_LAYER
  6
Continuous
370
    25
100
AcDbLine
 10
16.0040538144
 20
10.2437372733
 30
0.0
 11
16.004925763
 21
9.9939433973
 31
0.0
  0
LINE
  5
B0
330
1F
100
AcDbEntity
  8
PART_LAYER
  6
Continuous
370
    25
100
AcDbLine
 10
18.9990355678
 20
10.2541917743
 30
0.0
 11
18.9999076161
 21
10.0043693504
 31
0.0
  0
LINE
  5
B1
330
1F
100
AcDbEntity
  8
PART_LAYER
  6
Continuous
370
    25
100
AcDbLine
 10
19.1249068587
 20
10.0048044903
 30
0.0
 11
18.9999076161
 21
10.0043693504
 31
0.0
  0
LINE
  5
B2
330
1F
100
AcDbEntity
  8
PART_LAYER
  6
Continuous
370
    25
100
AcDbLine
 10
19.1240348062
 20
10.2546281057
 30
0.0
 11
19.1249068587
 21
10.0048044903
 31
0.0
  0
LINE
  5
B3
330
1F
100
AcDbEntity
  8
PART_LAYER
  6
Continuous
370
    25
100
AcDbLine
 10
20.621525683
 20
10.2598553562
 30
0.0
 11
20.3567562156
 21
10.008061076
 31
0.0
  0
LINE
  5
B4
330
1F
100
AcDbEntity
  8
PART_LAYER
  6
Continuous
370
    25
100
AcDbLine
 10
20.3567562156
 20
10.008061076
 30
0.0
 11
20.755661801
 21
9.8038004654
 31
0.0
  0
LINE
  5
B5
330
1F
100
AcDbEntity
  8
PART_LAYER
  6
Continuous
370
    25
100
AcDbLine
 10
20.755661801
 20
9.8038004654
 30
0.0
 11
20.3586659119
 21
9.5773492202
 31
0.0
  0
LINE
  5
B6
330
1F
100
AcDbEntity
  8
PART_LAYER
  6
Continuous
370
    25
100
AcDbLine
 10
20.3586659119
 20
9.5773492202
 30
0.0
 11
20.7454200476
 21
9.3737052573
 31
0.0
  0
LINE
  5
B7
330
1F
100
AcDbEntity
  8
PART_LAYER
  6
Continuous
370
    25
100
AcDbLine
 10
0.4458872624
 20
9.6913378731
 30
0.0
 11
0.4454678463
 21
9.6904916691
 31
0.0
  0
LINE
  5
B8
330
1F
100
AcDbEntity
  8
PART_LAYER
  6
Continuous
370
    25
100
AcDbLine
 10
0.4441486112
 20
10.1894227373
 30
0.0
 11
0.4458872624
 21
9.6913378731
 31
0.0
  0
LINE
  5
B9
330
1F
100
AcDbEntity
  8
PART_LAYER
  6
Continuous
370
    25
100
AcDbLine
 10
3.3991306083
 20
10.1997376122
 30
0.0
 11
0.4441486112
 21
10.1894227373
 31
0.0
  0
LINE
  5
BA
330
1F
100
AcDbEntity
  8
PART_LAYER
  6
Continuous
370
    25
100
AcDbLine
 10
0.3217606868
 20
9.4409030647
 30
0.0
 11
20.7454200476
 21
9.3737052573
 31
0.0
  0
LINE
  5
BB
330
1F
100
AcDbEntity
  8
PART_LAYER
  6
Continuous
370
    25
100
AcDbLine
 10
0.3217606868
 20
9.4409030647
 30
0.0
 11
0.320888024
 21
9.6909015416
 31
0.0
  0
LINE
  5
BC
330
1F
100
AcDbEntity
  8
PART_LAYER
  6
Continuous
370
    25
100
AcDbLine
 10
0.320888024
 20
9.6909015416
 30
0.0
 11
0.4454678463
 21
9.6904916691
 31
0.0
  0
LINE
  5
BD
330
1F
100
AcDbEntity
  8
PART_LAYER
  6
Continuous
370
    25
100
AcDbLine
 10
18.9990355678
 20
10.2541917743
 30
0.0
 11
16.0040538144
 21
10.2437372733
 31
0.0
  0
LINE
  5
BE
330
1F
100
AcDbEntity
  8
PART_LAYER
  6
Continuous
370
    25
100
AcDbLine
 10
15.8790545759
 20
10.2433009419
 30
0.0
 11
12.8840728225
 21
10.2328464409
 31
0.0
  0
LINE
  5
BF
330
1F
100
AcDbEntity
  8
PART_LAYER
  6
Continuous
370
    25
100
AcDbLine
 10
12.759073584
 20
10.2324101095
 30
0.0
 11
9.7640918306
 21
10.2219556085
 31
0.0
  0
LINE
  5
C0
330
1F
100
AcDbEntity
  8
PART_LAYER
  6
Continuous
370
    25
100
AcDbLine
 10
9.6390925921
 20
10.221519277
 30
0.0
 11
6.6441108387
 21
10.211064776
 31
0.0
  0
LINE
  5
C1
330
1F
100
AcDbEntity
  8
PART_LAYER
  6
Continuous
370
    25
100
AcDbLine
 10
6.5191116002
 20
10.2106284446
 30
0.0
 11
3.5241298468
 21
10.2001739436
 31
0.0
  0
LINE
  5
C2
330
1F
100
AcDbEntity
  8
PART_LAYER
  6
Continuous
370
    25
100
AcDbLine
 10
20.621525683
 20
10.2598553562
 30
0.0
 11
19.1240348062
 21
10.2546281057
 31
0.0
  0
LINE
  5
C3
330
1F
100
AcDbEntity
  8
PART_LAYER
  6
Continuous
370
    25
100
AcDbLine
 10
1.709950506
 20
8.8353062816
 30
0.0
 11
1.7107677607
 21
8.601180992
 31
0.0
  0
LINE
  5
C4
330
1F
100
AcDbEntity
  8
PART_LAYER
  6
Continuous
370
    25
100
AcDbLine
 10
1.8357674504
 20
8.601488063
 30
0.0
 11
1.7107677607
 21
8.601180992
 31
0.0
  0
LINE
  5
C5
330
1F
100
AcDbEntity
  8
PART_LAYER
  6
Continuous
370
    25
100
AcDbLine
 10
1.8349497444
 20
8.835742613
 30
0.0
 11
1.8357674504
 21
8.601488063
 31
0.0
  0
LINE
  5
C6
330
1F
100
AcDbEntity
  8
PART_LAYER
  6
Continuous
370
    25
100
AcDbLine
 10
4.8299314979
 20
8.846197114
 30
0.0
 11
4.8307600147
 21
8.6088454828
 31
0.0
  0
LINE
  5
C7
330
1F
100
AcDbEntity
  8
PART_LAYER
  6
Continuous
370
    25
100
AcDbLine
 10
4.9557597044
 20
8.6091525537
 30
0.0
 11
4.8307600147
 21
8.6088454828
 31
0.0
  0
LINE
  5
C8
330
1F
100
AcDbEntity
  8
PART_LAYER
  6
Continuous
370
    25
100
AcDbLine
 10
4.9549307363
 20
8.8466334454
 30
0.0
 11
4.9557597044
 21
8.6091525537
 31
0.0
  0
LINE
  5
C9
330
1F
100
AcDbEntity
  8
PART_LAYER
  6
Continuous
370
    25
100
AcDbLine
 10
7.9499124898
 20
8.8570879464
 30
0.0
 11
7.9507522687
 21
8.6165099735
 31
0.0
  0
LINE
  5
CA
330
1F
100
AcDbEntity
  8
PART_LAYER
  6
Continuous
370
    25
100
AcDbLine
 10
8.0757519584
 20
8.6168170445
 30
0.0
 11
7.9507522687
 21
8.6165099735
 31
0.0
  0
LINE
  5
CB
330
1F
100
AcDbEntity
  8
PART_LAYER
  6
Continuous
370
    25
100
AcDbLine
 10
8.0749117282
 20
8.8575242778
 30
0.0
 11
8.0757519584
 21
8.6168170445
 31
0.0
  0
LINE
  5
CC
330
1F
100
AcDbEntity
  8
PART_LAYER
  6
Continuous
370
    25
100
AcDbLine
 10
11.0698934816
 20
8.8679787788
 30
0.0
 11
11.0707445227
 21
8.6241744643
 31
0.0
  0
LINE
  5
CD
330
1F
100
AcDbEntity
  8
PART_LAYER
  6
Continuous
370
    25
100
AcDbLine
 10
11.1957442124
 20
8.6244815352
 30
0.0
 11
11.0707445227
 21
8.6241744643
 31
0.0
  0
LINE
  5
CE
330
1F
100
AcDbEntity
  8
PART_LAYER
  6
Continuous
370
    25
100
AcDbLine
 10
11.1948927201
 20
8.8684151103
 30
0.0
 11
11.1957442124
 21
8.6244815352
 31
0.0
  0
LINE
  5
CF
330
1F
100
AcDbEntity
  8
PART_LAYER
  6
Continuous
370
    25
100
AcDbLine
 10
14.1898744735
 20
8.8788696112
 30
0.0
 11
14.1907367767
 21
8.631838955
 31
0.0
  0
LINE
  5
D0
330
1F
100
AcDbEntity
  8
PART_LAYER
  6
Continuous
370
    25
100
AcDbLine
 10
14.3157364664
 20
8.632146026
 30
0.0
 11
14.1907367767
 21
8.631838955
 31
0.0
  0
LINE
  5
D1
330
1F
100
AcDbEntity
  8
PART_LAYER
  6
Continuous
370
    25
100
AcDbLine
 10
14.314873712
 20
8.8793059427
 30
0.0
 11
14.3157364664
 21
8.632146026
 31
0.0
  0
LINE
  5
D2
330
1F
100
AcDbEntity
  8
PART_LAYER
  6
Continuous
370
    25
100
AcDbLine
 10
17.0607296514
 20
8.6388893039
 30
0.0
 11
17.0598569885
 21
8.8888877808
 31
0.0
  0
LINE
  5
D3
330
1F
100
AcDbEntity
  8
PART_LAYER
  6
Continuous
370
    25
100
AcDbLine
 10
17.1857288898
 20
8.6393256353
 30
0.0
 11
17.0607296514
 21
8.6388893039
 31
0.0
  0
LINE
  5
D4
330
1F
100
AcDbEntity
  8
PART_LAYER
  6
Continuous
370
    25
100
AcDbLine
 10
17.1857288898
 20
8.6393256353
 30
0.0
 11
17.184856227
 21
8.8893241122
 31
0.0
  0
LINE
  5
D5
330
1F
100
AcDbEntity
  8
PART_LAYER
  6
Continuous
370
    25
100
AcDbLine
 10
17.3205741808
 20
8.8897978592
 30
0.0
 11
17.184856227
 21
8.8893241122
 31
0.0
  0
LINE
  5
D6
330
1F
100
AcDbEntity
  8
PART_LAYER
  6
Continuous
370
    25
100
AcDbLine
 10
17.4308716435
 20
8.8994476368
 30
0.0
 11
17.3205741808
 21
8.8897978592
 31
0.0
  0
LINE
  5
D7
330
1F
100
AcDbEntity
  8
PART_LAYER
  6
Continuous
370
    25
100
AcDbLine
 10
17.4526605792
 20
8.6503989622
 30
0.0
 11
17.4308716435
 21
8.8994476368
 31
0.0
  0
LINE
  5
D8
330
1F
100
AcDbEntity
  8
PART_LAYER
  6
Continuous
370
    25
100
AcDbLine
 10
17.5771849165
 20
8.6612934301
 30
0.0
 11
17.4526605792
 21
8.6503989622
 31
0.0
  0
LINE
  5
D9
330
1F
100
AcDbEntity
  8
PART_LAYER
  6
Continuous
370
    25
100
AcDbLine
 10
17.5771849165
 20
8.6612934301
 30
0.0
 11
17.5553959808
 21
8.9103421046
 31
0.0
  0
LINE
  5
DA
330
1F
100
AcDbEntity
  8
PART_LAYER
  6
Continuous
370
    25
100
AcDbLine
 10
18.0534933298
 20
8.953919976
 30
0.0
 11
17.5553959808
 21
8.9103421046
 31
0.0
  0
LINE
  5
DB
330
1F
100
AcDbEntity
  8
PART_LAYER
  6
Continuous
370
    25
100
AcDbLine
 10
18.0534933298
 20
8.953919976
 30
0.0
 11
18.0709244784
 21
8.7546810364
 31
0.0
  0
LINE
  5
DC
330
1F
100
AcDbEntity
  8
PART_LAYER
  6
Continuous
370
    25
100
AcDbLine
 10
18.0709244784
 20
8.7546810364
 30
0.0
 11
18.1954488156
 21
8.7655755042
 31
0.0
  0
LINE
  5
DD
330
1F
100
AcDbEntity
  8
PART_LAYER
  6
Continuous
370
    25
100
AcDbLine
 10
18.1954488156
 20
8.7655755042
 30
0.0
 11
18.1780176671
 21
8.9648144438
 31
0.0
  0
LINE
  5
DE
330
1F
100
AcDbEntity
  8
PART_LAYER
  6
Continuous
370
    25
100
AcDbLine
 10
18.4270663416
 20
8.9866033795
 30
0.0
 11
18.1780176671
 21
8.9648144438
 31
0.0
  0
LINE
  5
DF
330
1F
100
AcDbEntity
  8
PART_LAYER
  6
Continuous
370
    25
100
AcDbLine
 10
18.4270663416
 20
8.9866033795
 30
0.0
 11
20.1965537861
 21
8.8402675199
 31
0.0
  0
LINE
  5
E0
330
1F
100
AcDbEntity
  8
PART_LAYER
  6
Continuous
370
    25
100
AcDbLine
 10
20.1965537861
 20
8.8402675199
 30
0.0
 11
20.4456024606
 21
8.8620564556
 31
0.0
  0
LINE
  5
E1
330
1F
100
AcDbEntity
  8
PART_LAYER
  6
Continuous
370
    25
100
AcDbLine
 10
20.4456024606
 20
8.8620564556
 30
0.0
 11
20.4630336092
 21
8.662817516
 31
0.0
  0
LINE
  5
E2
330
1F
100
AcDbEntity
  8
PART_LAYER
  6
Continuous
370
    25
100
AcDbLine
 10
20.4630336092
 20
8.662817516
 30
0.0
 11
20.5875579464
 21
8.6737119838
 31
0.0
  0
LINE
  5
E3
330
1F
100
AcDbEntity
  8
PART_LAYER
  6
Continuous
370
    25
100
AcDbLine
 10
20.5701267979
 20
8.8729509234
 30
0.0
 11
20.5875579464
 21
8.6737119838
 31
0.0
  0
LINE
  5
E4
330
1F
100
AcDbEntity
  8
PART_LAYER
  6
Continuous
370
    25
100
AcDbLine
 10
20.5701267979
 20
8.8729509234
 30
0.0
 11
21.0682241469
 21
8.9165287948
 31
0.0
  0
LINE
  5
E5
330
1F
100
AcDbEntity
  8
PART_LAYER
  6
Continuous
370
    25
100
AcDbLine
 10
21.0682241469
 20
8.9165287948
 30
0.0
 11
21.0856552955
 21
8.7172898552
 31
0.0
  0
LINE
  5
E6
330
1F
100
AcDbEntity
  8
PART_LAYER
  6
Continuous
370
    25
100
AcDbLine
 10
21.0856552955
 20
8.7172898552
 30
0.0
 11
21.2101796327
 21
8.728184323
 31
0.0
  0
LINE
  5
E7
330
1F
100
AcDbEntity
  8
PART_LAYER
  6
Continuous
370
    25
100
AcDbLine
 10
21.2101796327
 20
8.728184323
 30
0.0
 11
21.1927484842
 21
8.9274232627
 31
0.0
  0
LINE
  5
E8
330
1F
100
AcDbEntity
  8
PART_LAYER
  6
Continuous
370
    25
100
AcDbLine
 10
21.1927484842
 20
8.9274232627
 30
0.0
 11
22.8115648686
 21
9.0690513446
 31
0.0
  0
LINE
  5
E9
330
1F
100
AcDbEntity
  8
PART_LAYER
  6
Continuous
370
    25
100
AcDbLine
 10
22.8115648686
 20
9.0690513446
 30
0.0
 11
22.8289960171
 21
8.869812405
 31
0.0
  0
LINE
  5
EA
330
1F
100
AcDbEntity
  8
PART_LAYER
  6
Continuous
370
    25
100
AcDbLine
 10
22.8289960171
 20
8.869812405
 30
0.0
 11
22.9535203544
 21
8.8807068729
 31
0.0
  0
LINE
  5
EB
330
1F
100
AcDbEntity
  8
PART_LAYER
  6
Continuous
370
    25
100
AcDbLine
 10
22.9535203544
 20
8.8807068729
 30
0.0
 11
22.9360892058
 21
9.0799458125
 31
0.0
  0
LINE
  5
EC
330
1F
100
AcDbEntity
  8
PART_LAYER
  6
Continuous
370
    25
100
AcDbLine
 10
22.9360892058
 20
9.0799458125
 30
0.0
 11
23.4341865549
 21
9.1235236838
 31
0.0
  0
LINE
  5
ED
330
1F
100
AcDbEntity
  8
PART_LAYER
  6
Continuous
370
    25
100
AcDbLine
 10
23.4341865549
 20
9.1235236838
 30
0.0
 11
23.4951955748
 21
8.4261873952
 31
0.0
  0
LINE
  5
EE
330
1F
100
AcDbEntity
  8
PART_LAYER
  6
Continuous
370
    25
100
AcDbLine
 10
17.5180273863
 20
7.9032529387
 30
0.0
 11
23.4951955748
 21
8.4261873952
 31
0.0
  0
LINE
  5
EF
330
1F
100
AcDbEntity
  8
PART_LAYER
  6
Continuous
370
    25
100
AcDbLine
 10
17.1883468784
 20
7.8893302046
 30
0.0
 11
17.5180273863
 21
7.9032529387
 31
0.0
  0
LINE
  5
F0
330
1F
100
AcDbEntity
  8
PART_LAYER
  6
Continuous
370
    25
100
AcDbLine
 10
17.0633476399
 20
7.8888938732
 30
0.0
 11
17.1883468784
 21
7.8893302046
 31
0.0
  0
LINE
  5
F1
330
1F
100
AcDbEntity
  8
PART_LAYER
  6
Continuous
370
    25
100
AcDbLine
 10
0.6303752788
 20
7.9929214501
 30
0.0
 11
17.0633476399
 21
7.8888938732
 31
0.0
  0
LINE
  5
F2
330
1F
100
AcDbEntity
  8
PART_LAYER
  6
Continuous
370
    25
100
AcDbLine
 10
0.6303752788
 20
7.9929214501
 30
0.0
 11
0.5880209383
 21
8.4770337771
 31
0.0
  0
LINE
  5
F3
330
1F
100
AcDbEntity
  8
PART_LAYER
  6
Continuous
370
    25
100
AcDbLine
 10
0.5880209383
 20
8.4770337771
 30
0.0
 11
0.2459652718
 21
8.447107784
 31
0.0
  0
LINE
  5
F4
330
1F
100
AcDbEntity
  8
PART_LAYER
  6
Continuous
370
    25
100
AcDbLine
 10
0.2459652718
 20
8.447107784
 30
0.0
 11
0.2124596293
 21
8.8300790311
 31
0.0
  0
LINE
  5
F5
330
1F
100
AcDbEntity
  8
PART_LAYER
  6
Continuous
370
    25
100
AcDbLine
 10
17.0598569885
 20
8.8888877808
 30
0.0
 11
14.314873712
 21
8.8793059427
 31
0.0
  0
LINE
  5
F6
330
1F
100
AcDbEntity
  8
PART_LAYER
  6
Continuous
370
    25
100
AcDbLine
 10
14.1898744735
 20
8.8788696112
 30
0.0
 11
11.1948927201
 21
8.8684151103
 31
0.0
  0
LINE
  5
F7
330
1F
100
AcDbEntity
  8
PART_LAYER
  6
Continuous
370
    25
100
AcDbLine
 10
11.0698934816
 20
8.8679787788
 30
0.0
 11
8.0749117282
 21
8.8575242778
 31
0.0
  0
LINE
  5
F8
330
1F
100
AcDbEntity
  8
PART_LAYER
  6
Continuous
370
    25
100
AcDbLine
 10
7.9499124898
 20
8.8570879464
 30
0.0
 11
4.9549307363
 21
8.8466334454
 31
0.0
  0
LINE
  5
F9
330
1F
100
AcDbEntity
  8
PART_LAYER
  6
Continuous
370
    25
100
AcDbLine
 10
4.8299314979
 20
8.846197114
 30
0.0
 11
1.8349497444
 21
8.835742613
 31
0.0
  0
LINE
  5
FA
330
1F
100
AcDbEntity
  8
PART_LAYER
  6
Continuous
370
    25
100
AcDbLine
 10
1.709950506
 20
8.8353062816
 30
0.0
 11
0.2124596293
 21
8.8300790311
 31
0.0
  0
LINE
  5
FB
330
1F
100
AcDbEntity
  8
PART_LAYER
  6
Continuous
370
    25
100
AcDbLine
 10
0.3443688522
 20
6.8438006036
 30
0.0
 11
21.0624437651
 21
6.7126465381
 31
0.0
  0
LINE
  5
FC
330
1F
100
AcDbEntity
  8
PART_LAYER
  6
Continuous
370
    25
100
AcDbLine
 10
0.3443688522
 20
6.8438006036
 30
0.0
 11
0.3434961894
 21
7.0937990805
 31
0.0
  0
LINE
  5
FD
330
1F
100
AcDbEntity
  8
PART_LAYER
  6
Continuous
370
    25
100
AcDbLine
 10
0.3434961894
 20
7.0937990805
 30
0.0
 11
0.4684954278
 21
7.0942354119
 31
0.0
  0
LINE
  5
FE
330
1F
100
AcDbEntity
  8
PART_LAYER
  6
Continuous
370
    25
100
AcDbLine
 10
0.4671510438
 20
7.4793715001
 30
0.0
 11
0.4684954278
 21
7.0942354119
 31
0.0
  0
LINE
  5
FF
330
1F
100
AcDbEntity
  8
PART_LAYER
  6
Continuous
370
    25
100
AcDbLine
 10
3.4221330409
 20
7.489686375
 30
0.0
 11
0.4671510438
 21
7.4793715001
 31
0.0
  0
LINE
  5
100
330
1F
100
AcDbEntity
  8
PART_LAYER
  6
Continuous
370
    25
100
AcDbLine
 10
3.4221330409
 20
7.489686375
 30
0.0
 11
3.4228827231
 21
7.2749191355
 31
0.0
  0
LINE
  5
101
330
1F
100
AcDbEntity
  8
PART_LAYER
  6
Continuous
370
    25
100
AcDbLine
 10
3.5478824127
 20
7.2752262065
 30
0.0
 11
3.4228827231
 21
7.2749191355
 31
0.0
  0
LINE
  5
102
330
1F
100
AcDbEntity
  8
PART_LAYER
  6
Continuous
370
    25
100
AcDbLine
 10
3.5471322794
 20
7.4901227065
 30
0.0
 11
3.5478824127
 21
7.2752262065
 31
0.0
  0
LINE
  5
103
330
1F
100
AcDbEntity
  8
PART_LAYER
  6
Continuous
370
    25
100
AcDbLine
 10
6.5421140328
 20
7.5005772075
 30
0.0
 11
6.5428749771
 21
7.2825836263
 31
0.0
  0
LINE
  5
104
330
1F
100
AcDbEntity
  8
PART_LAYER
  6
Continuous
370
    25
100
AcDbLine
 10
6.6678746667
 20
7.2828906972
 30
0.0
 11
6.5428749771
 21
7.2825836263
 31
0.0
  0
LINE
  5
105
330
1F
100
AcDbEntity
  8
PART_LAYER
  6
Continuous
370
    25
100
AcDbLine
 10
6.6671132713
 20
7.5010135389
 30
0.0
 11
6.6678746667
 21
7.2828906972
 31
0.0
  0
LINE
  5
106
330
1F
100
AcDbEntity
  8
PART_LAYER
  6
Continuous
370
    25
100
AcDbLine
 10
9.6620950247
 20
7.5114680399
 30
0.0
 11
9.6628672311
 21
7.290248117
 31
0.0
  0
LINE
  5
107
330
1F
100
AcDbEntity
  8
PART_LAYER
  6
Continuous
370
    25
100
AcDbLine
 10
9.7878669207
 20
7.290555188
 30
0.0
 11
9.6628672311
 21
7.290248117
 31
0.0
  0
LINE
  5
108
330
1F
100
AcDbEntity
  8
PART_LAYER
  6
Continuous
370
    25
100
AcDbLine
 10
9.7870942632
 20
7.5119043713
 30
0.0
 11
9.7878669207
 21
7.290555188
 31
0.0
  0
LINE
  5
109
330
1F
100
AcDbEntity
  8
PART_LAYER
  6
Continuous
370
    25
100
AcDbLine
 10
12.7820760166
 20
7.5223588723
 30
0.0
 11
12.7828594851
 21
7.2979126078
 31
0.0
  0
LINE
  5
10A
330
1F
100
AcDbEntity
  8
PART_LAYER
  6
Continuous
370
    25
100
AcDbLine
 10
12.9078591747
 20
7.2982196787
 30
0.0
 11
12.7828594851
 21
7.2979126078
 31
0.0
  0
LINE
  5
10B
330
1F
100
AcDbEntity
  8
PART_LAYER
  6
Continuous
370
    25
100
AcDbLine
 10
12.9070752551
 20
7.5227952037
 30
0.0
 11
12.9078591747
 21
7.2982196787
 31
0.0
  0
LINE
  5
10C
330
1F
100
AcDbEntity
  8
PART_LAYER
  6
Continuous
370
    25
100
AcDbLine
 10
15.9020570085
 20
7.5332497047
 30
0.0
 11
15.9028517391
 21
7.3055770985
 31
0.0
  0
LINE
  5
10D
330
1F
100
AcDbEntity
  8
PART_LAYER
  6
Continuous
370
    25
100
AcDbLine
 10
16.0278514287
 20
7.3058841694
 30
0.0
 11
15.9028517391
 21
7.3055770985
 31
0.0
  0
LINE
  5
10E
330
1F
100
AcDbEntity
  8
PART_LAYER
  6
Continuous
370
    25
100
AcDbLine
 10
16.027056247
 20
7.5336860361
 30
0.0
 11
16.0278514287
 21
7.3058841694
 31
0.0
  0
LINE
  5
10F
330
1F
100
AcDbEntity
  8
PART_LAYER
  6
Continuous
370
    25
100
AcDbLine
 10
19.0220380004
 20
7.5441405371
 30
0.0
 11
19.022843993
 21
7.3132415893
 31
0.0
  0
LINE
  5
110
330
1F
100
AcDbEntity
  8
PART_LAYER
  6
Continuous
370
    25
100
AcDbLine
 10
19.1478436827
 20
7.3135486602
 30
0.0
 11
19.022843993
 21
7.3132415893
 31
0.0
  0
LINE
  5
111
330
1F
100
AcDbEntity
  8
PART_LAYER
  6
Continuous
370
    25
100
AcDbLine
 10
19.1470372389
 20
7.5445768686
 30
0.0
 11
19.1478436827
 21
7.3135486602
 31
0.0
  0
LINE
  5
112
330
1F
100
AcDbEntity
  8
PART_LAYER
  6
Continuous
370
    25
100
AcDbLine
 10
20.6445281156
 20
7.549804119
 30
0.0
 11
20.6780337581
 21
7.1668328719
 31
0.0
  0
LINE
  5
113
330
1F
100
AcDbEntity
  8
PART_LAYER
  6
Continuous
370
    25
100
AcDbLine
 10
20.6780337581
 20
7.1668328719
 30
0.0
 11
21.0200894246
 21
7.1967588651
 31
0.0
  0
LINE
  5
114
330
1F
100
AcDbEntity
  8
PART_LAYER
  6
Continuous
370
    25
100
AcDbLine
 10
21.0200894246
 20
7.1967588651
 30
0.0
 11
21.0624437651
 21
6.7126465381
 31
0.0
  0
LINE
  5
115
330
1F
100
AcDbEntity
  8
PART_LAYER
  6
Continuous
370
    25
100
AcDbLine
 10
19.0220380004
 20
7.5441405371
 30
0.0
 11
16.027056247
 21
7.5336860361
 31
0.0
  0
LINE
  5
116
330
1F
100
AcDbEntity
  8
PART_LAYER
  6
Continuous
370
    25
100
AcDbLine
 10
15.9020570085
 20
7.5332497047
 30
0.0
 11
12.9070752551
 21
7.5227952037
 31
0.0
  0
LINE
  5
117
330
1F
100
AcDbEntity
  8
PART_LAYER
  6
Continuous
370
    25
100
AcDbLine
 10
12.7820760166
 20
7.5223588723
 30
0.0
 11
9.7870942632
 21
7.5119043713
 31
0.0
  0
LINE
  5
118
330
1F
100
AcDbEntity
  8
PART_LAYER
  6
Continuous
370
    25
100
AcDbLine
 10
9.6620950247
 20
7.5114680399
 30
0.0
 11
6.6671132713
 21
7.5010135389
 31
0.0
  0
LINE
  5
119
330
1F
100
AcDbEntity
  8
PART_LAYER
  6
Continuous
370
    25
100
AcDbLine
 10
6.5421140328
 20
7.5005772075
 30
0.0
 11
3.5471322794
 21
7.4901227065
 31
0.0
  0
LINE
  5
11A
330
1F
100
AcDbEntity
  8
PART_LAYER
  6
Continuous
370
    25
100
AcDbLine
 10
20.6445281156
 20
7.549804119
 30
0.0
 11
19.1470372389
 21
7.5445768686
 31
0.0
  0
LINE
  5
11B
330
1F
100
AcDbEntity
  8
PART_LAYER
  6
Continuous
370
    25
100
AcDbLine
 10
0.3755879855
 20
6.5678584595
 30
0.0
 11
14.3320000208
 21
6.2680719286
 31
0.0
  0
LINE
  5
11C
330
1F
100
AcDbEntity
  8
PART_LAYER
  6
Continuous
370
    25
100
AcDbLine
 10
14.456850788
 20
6.2619657073
 30
0.0
 11
14.3320000208
 21
6.2680719286
 31
0.0
  0
LINE
  5
11D
330
1F
100
AcDbEntity
  8
PART_LAYER
  6
Continuous
370
    25
100
AcDbLine
 10
14.4735944638
 20
6.2608018957
 30
0.0
 11
14.456850788
 21
6.2619657073
 31
0.0
  0
LINE
  5
11E
330
1F
100
AcDbEntity
  8
PART_LAYER
  6
Continuous
370
    25
100
AcDbLine
 10
14.4735944638
 20
6.2608018957
 30
0.0
 11
20.4699394259
 21
6.4701988759
 31
0.0
  0
LINE
  5
11F
330
1F
100
AcDbEntity
  8
PART_LAYER
  6
Continuous
370
    25
100
AcDbLine
 10
20.4699394259
 20
6.4701988759
 30
0.0
 11
20.5135637968
 21
5.2209603421
 31
0.0
  0
LINE
  5
120
330
1F
100
AcDbEntity
  8
PART_LAYER
  6
Continuous
370
    25
100
AcDbLine
 10
20.5135637968
 20
5.2209603421
 30
0.0
 11
20.0138683832
 21
5.2035105938
 31
0.0
  0
LINE
  5
121
330
1F
100
AcDbEntity
  8
PART_LAYER
  6
Continuous
370
    25
100
AcDbLine
 10
20.0016535594
 20
5.5532973832
 30
0.0
 11
20.0138683832
 21
5.2035105938
 31
0.0
  0
LINE
  5
122
330
1F
100
AcDbEntity
  8
PART_LAYER
  6
Continuous
370
    25
100
AcDbLine
 10
19.876729706
 20
5.5489349461
 30
0.0
 11
20.0016535594
 21
5.5532973832
 31
0.0
  0
LINE
  5
123
330
1F
100
AcDbEntity
  8
PART_LAYER
  6
Continuous
370
    25
100
AcDbLine
 10
19.8889445299
 20
5.1991481567
 30
0.0
 11
19.876729706
 21
5.5489349461
 31
0.0
  0
LINE
  5
124
330
1F
100
AcDbEntity
  8
PART_LAYER
  6
Continuous
370
    25
100
AcDbLine
 10
19.8889445299
 20
5.1991481567
 30
0.0
 11
18.264934436
 21
5.1424364745
 31
0.0
  0
LINE
  5
125
330
1F
100
AcDbEntity
  8
PART_LAYER
  6
Continuous
370
    25
100
AcDbLine
 10
18.2527196121
 20
5.492223264
 30
0.0
 11
18.264934436
 21
5.1424364745
 31
0.0
  0
LINE
  5
126
330
1F
100
AcDbEntity
  8
PART_LAYER
  6
Continuous
370
    25
100
AcDbLine
 10
18.1277957587
 20
5.4878608269
 30
0.0
 11
18.2527196121
 21
5.492223264
 31
0.0
  0
LINE
  5
127
330
1F
100
AcDbEntity
  8
PART_LAYER
  6
Continuous
370
    25
100
AcDbLine
 10
18.1400105826
 20
5.1380740375
 30
0.0
 11
18.1277957587
 21
5.4878608269
 31
0.0
  0
LINE
  5
128
330
1F
100
AcDbEntity
  8
PART_LAYER
  6
Continuous
370
    25
100
AcDbLine
 10
18.1400105826
 20
5.1380740375
 30
0.0
 11
17.6403151691
 21
5.1206242891
 31
0.0
  0
LINE
  5
129
330
1F
100
AcDbEntity
  8
PART_LAYER
  6
Continuous
370
    25
100
AcDbLine
 10
17.6141405465
 20
5.8701674094
 30
0.0
 11
17.6403151691
 21
5.1206242891
 31
0.0
  0
LINE
  5
12A
330
1F
100
AcDbEntity
  8
PART_LAYER
  6
Continuous
370
    25
100
AcDbLine
 10
17.6141405465
 20
5.8701674094
 30
0.0
 11
17.4892166932
 21
5.8658049723
 31
0.0
  0
LINE
  5
12B
330
1F
100
AcDbEntity
  8
PART_LAYER
  6
Continuous
370
    25
100
AcDbLine
 10
17.4892166932
 20
5.8658049723
 30
0.0
 11
17.5153913157
 21
5.116261852
 31
0.0
  0
LINE
  5
12C
330
1F
100
AcDbEntity
  8
PART_LAYER
  6
Continuous
370
    25
100
AcDbLine
 10
17.5153913157
 20
5.116261852
 30
0.0
 11
17.2655436089
 21
5.1075369778
 31
0.0
  0
LINE
  5
12D
330
1F
100
AcDbEntity
  8
PART_LAYER
  6
Continuous
370
    25
100
AcDbLine
 10
15.5253345358
 20
4.7966151519
 30
0.0
 11
17.2655436089
 21
5.1075369778
 31
0.0
  0
LINE
  5
12E
330
1F
100
AcDbEntity
  8
PART_LAYER
  6
Continuous
370
    25
100
AcDbLine
 10
15.2754868291
 20
4.7878902777
 30
0.0
 11
15.5253345358
 21
4.7966151519
 31
0.0
  0
LINE
  5
12F
330
1F
100
AcDbEntity
  8
PART_LAYER
  6
Continuous
370
    25
100
AcDbLine
 10
15.2685069297
 20
4.9877684431
 30
0.0
 11
15.2754868291
 21
4.7878902777
 31
0.0
  0
LINE
  5
130
330
1F
100
AcDbEntity
  8
PART_LAYER
  6
Continuous
370
    25
100
AcDbLine
 10
15.1435830764
 20
4.983406006
 30
0.0
 11
15.2685069297
 21
4.9877684431
 31
0.0
  0
LINE
  5
131
330
1F
100
AcDbEntity
  8
PART_LAYER
  6
Continuous
370
    25
100
AcDbLine
 10
15.1505629757
 20
4.7835278406
 30
0.0
 11
15.1435830764
 21
4.983406006
 31
0.0
  0
LINE
  5
132
330
1F
100
AcDbEntity
  8
PART_LAYER
  6
Continuous
370
    25
100
AcDbLine
 10
14.6508675622
 20
4.7660780922
 30
0.0
 11
15.1505629757
 21
4.7835278406
 31
0.0
  0
LINE
  5
133
330
1F
100
AcDbEntity
  8
PART_LAYER
  6
Continuous
370
    25
100
AcDbLine
 10
14.6334178138
 20
5.2657735057
 30
0.0
 11
14.6508675622
 21
4.7660780922
 31
0.0
  0
LINE
  5
134
330
1F
100
AcDbEntity
  8
PART_LAYER
  6
Continuous
370
    25
100
AcDbLine
 10
14.5084939605
 20
5.2614110687
 30
0.0
 11
14.6334178138
 21
5.2657735057
 31
0.0
  0
LINE
  5
135
330
1F
100
AcDbEntity
  8
PART_LAYER
  6
Continuous
370
    25
100
AcDbLine
 10
14.5084939605
 20
5.2614110687
 30
0.0
 11
14.5259437088
 21
4.7617156552
 31
0.0
  0
LINE
  5
136
330
1F
100
AcDbEntity
  8
PART_LAYER
  6
Continuous
370
    25
100
AcDbLine
 10
14.4672278222
 20
4.7596652512
 30
0.0
 11
14.5259437088
 21
4.7617156552
 31
0.0
  0
LINE
  5
137
330
1F
100
AcDbEntity
  8
PART_LAYER
  6
Continuous
370
    25
100
AcDbLine
 10
14.4672278222
 20
4.7596652512
 30
0.0
 11
14.3835761333
 21
4.7637565013
 31
0.0
  0
LINE
  5
138
330
1F
100
AcDbEntity
  8
PART_LAYER
  6
Continuous
370
    25
100
AcDbLine
 10
14.4080010182
 20
5.26315957
 30
0.0
 11
14.3835761333
 21
4.7637565013
 31
0.0
  0
LINE
  5
139
330
1F
100
AcDbEntity
  8
PART_LAYER
  6
Continuous
370
    25
100
AcDbLine
 10
14.283150251
 20
5.2692657912
 30
0.0
 11
14.4080010182
 21
5.26315957
 31
0.0
  0
LINE
  5
13A
330
1F
100
AcDbEntity
  8
PART_LAYER
  6
Continuous
370
    25
100
AcDbLine
 10
14.283150251
 20
5.2692657912
 30
0.0
 11
14.2587253661
 21
4.7698627226
 31
0.0
  0
LINE
  5
13B
330
1F
100
AcDbEntity
  8
PART_LAYER
  6
Continuous
370
    25
100
AcDbLine
 10
11.5402027283
 20
5.3783180952
 30
0.0
 11
11.5170025191
 21
4.9039553407
 31
0.0
  0
LINE
  5
13C
330
1F
100
AcDbEntity
  8
PART_LAYER
  6
Continuous
370
    25
100
AcDbLine
 10
11.4152961927
 20
5.3832840471
 30
0.0
 11
11.5402027283
 21
5.3783180952
 31
0.0
  0
LINE
  5
13D
330
1F
100
AcDbEntity
  8
PART_LAYER
  6
Continuous
370
    25
100
AcDbLine
 10
11.4152961927
 20
5.3832840471
 30
0.0
 11
11.3921517519
 21
4.9100615619
 31
0.0
  0
LINE
  5
13E
330
1F
100
AcDbEntity
  8
PART_LAYER
  6
Continuous
370
    25
100
AcDbLine
 10
8.4225355987
 20
5.5022682549
 30
0.0
 11
8.4007273706
 21
5.0563666224
 31
0.0
  0
LINE
  5
13F
330
1F
100
AcDbEntity
  8
PART_LAYER
  6
Continuous
370
    25
100
AcDbLine
 10
8.2976290631
 20
5.5072342068
 30
0.0
 11
8.4225355987
 21
5.5022682549
 31
0.0
  0
LINE
  5
140
330
1F
100
AcDbEntity
  8
PART_LAYER
  6
Continuous
370
    25
100
AcDbLine
 10
8.2976290631
 20
5.5072342068
 30
0.0
 11
8.2758766034
 21
5.0624728436
 31
0.0
  0
LINE
  5
141
330
1F
100
AcDbEntity
  8
PART_LAYER
  6
Continuous
370
    25
100
AcDbLine
 10
5.3048684691
 20
5.6262184146
 30
0.0
 11
5.2844522221
 21
5.2087779042
 31
0.0
  0
LINE
  5
142
330
1F
100
AcDbEntity
  8
PART_LAYER
  6
Continuous
370
    25
100
AcDbLine
 10
5.1799619335
 20
5.6311843665
 30
0.0
 11
5.3048684691
 21
5.6262184146
 31
0.0
  0
LINE
  5
143
330
1F
100
AcDbEntity
  8
PART_LAYER
  6
Continuous
370
    25
100
AcDbLine
 10
5.1799619335
 20
5.6311843665
 30
0.0
 11
5.1596014549
 21
5.2148841254
 31
0.0
  0
LINE
  5
144
330
1F
100
AcDbEntity
  8
PART_LAYER
  6
Continuous
370
    25
100
AcDbLine
 10
2.1872013395
 20
5.7501685743
 30
0.0
 11
2.1681770736
 21
5.3611891859
 31
0.0
  0
LINE
  5
145
330
1F
100
AcDbEntity
  8
PART_LAYER
  6
Continuous
370
    25
100
AcDbLine
 10
2.0622948039
 20
5.7551345262
 30
0.0
 11
2.1872013395
 21
5.7501685743
 31
0.0
  0
LINE
  5
146
330
1F
100
AcDbEntity
  8
PART_LAYER
  6
Continuous
370
    25
100
AcDbLine
 10
2.0622948039
 20
5.7551345262
 30
0.0
 11
2.0433263064
 21
5.3672954072
 31
0.0
  0
LINE
  5
147
330
1F
100
AcDbEntity
  8
PART_LAYER
  6
Continuous
370
    25
100
AcDbLine
 10
0.5476141158
 20
5.4404479374
 30
0.0
 11
0.2218445463
 21
5.8628599644
 31
0.0
  0
LINE
  5
148
330
1F
100
AcDbEntity
  8
PART_LAYER
  6
Continuous
370
    25
100
AcDbLine
 10
0.2218445463
 20
5.8628599644
 30
0.0
 11
0.7751815687
 21
6.0976561449
 31
0.0
  0
LINE
  5
149
330
1F
100
AcDbEntity
  8
PART_LAYER
  6
Continuous
370
    25
100
AcDbLine
 10
0.7751815687
 20
6.0976561449
 30
0.0
 11
0.3755879855
 21
6.5678584595
 31
0.0
  0
LINE
  5
14A
330
1F
100
AcDbEntity
  8
PART_LAYER
  6
Continuous
370
    25
100
AcDbLine
 10
2.0433263064
 20
5.3672954072
 30
0.0
 11
0.5476141158
 21
5.4404479374
 31
0.0
  0
LINE
  5
14B
330
1F
100
AcDbEntity
  8
PART_LAYER
  6
Continuous
370
    25
100
AcDbLine
 10
5.1596014549
 20
5.2148841254
 30
0.0
 11
2.1681770736
 21
5.3611891859
 31
0.0
  0
LINE
  5
14C
330
1F
100
AcDbEntity
  8
PART_LAYER
  6
Continuous
370
    25
100
AcDbLine
 10
8.2758766034
 20
5.0624728436
 30
0.0
 11
5.2844522221
 21
5.2087779042
 31
0.0
  0
LINE
  5
14D
330
1F
100
AcDbEntity
  8
PART_LAYER
  6
Continuous
370
    25
100
AcDbLine
 10
11.3921517519
 20
4.9100615619
 30
0.0
 11
8.4007273706
 21
5.0563666224
 31
0.0
  0
LINE
  5
14E
330
1F
100
AcDbEntity
  8
PART_LAYER
  6
Continuous
370
    25
100
AcDbLine
 10
14.2587253661
 20
4.7698627226
 30
0.0
 11
11.5170025191
 21
4.9039553407
 31
0.0
  0
LINE
  5
14F
330
1F
100
AcDbEntity
  8
PART_LAYER
  6
Continuous
370
    25
100
AcDbLine
 10
22.0739162715
 20
2.8409198633
 30
0.0
 11
22.0374400829
 21
2.4818184772
 31
0.0
  0
LINE
  5
150
330
1F
100
AcDbEntity
  8
PART_LAYER
  6
Continuous
370
    25
100
AcDbLine
 10
21.9494408138
 20
2.8524161125
 30
0.0
 11
22.0739162715
 21
2.8409198633
 31
0.0
  0
LINE
  5
151
330
1F
100
AcDbEntity
  8
PART_LAYER
  6
Continuous
370
    25
100
AcDbLine
 10
21.9494408138
 20
2.8524161125
 30
0.0
 11
21.9130799943
 21
2.4944505144
 31
0.0
  0
LINE
  5
152
330
1F
100
AcDbEntity
  8
PART_LAYER
  6
Continuous
370
    25
100
AcDbLine
 10
21.9130799943
 20
2.4944505144
 30
0.0
 11
18.9334122713
 21
2.7971141244
 31
0.0
  0
LINE
  5
153
330
1F
100
AcDbEntity
  8
PART_LAYER
  6
Continuous
370
    25
100
AcDbLine
 10
18.9670088465
 20
3.1278662441
 30
0.0
 11
18.9334122713
 21
2.7971141244
 31
0.0
  0
LINE
  5
154
330
1F
100
AcDbEntity
  8
PART_LAYER
  6
Continuous
370
    25
100
AcDbLine
 10
18.8425333887
 20
3.1393624933
 30
0.0
 11
18.9670088465
 21
3.1278662441
 31
0.0
  0
LINE
  5
155
330
1F
100
AcDbEntity
  8
PART_LAYER
  6
Continuous
370
    25
100
AcDbLine
 10
18.8425333887
 20
3.1393624933
 30
0.0
 11
18.8090521827
 21
2.8097461616
 31
0.0
  0
LINE
  5
156
330
1F
100
AcDbEntity
  8
PART_LAYER
  6
Continuous
370
    25
100
AcDbLine
 10
18.8090521827
 20
2.8097461616
 30
0.0
 11
15.8293844598
 21
3.1124097717
 31
0.0
  0
LINE
  5
157
330
1F
100
AcDbEntity
  8
PART_LAYER
  6
Continuous
370
    25
100
AcDbLine
 10
15.8601014215
 20
3.4148126249
 30
0.0
 11
15.8293844598
 21
3.1124097717
 31
0.0
  0
LINE
  5
158
330
1F
100
AcDbEntity
  8
PART_LAYER
  6
Continuous
370
    25
100
AcDbLine
 10
15.7356259637
 20
3.4263088741
 30
0.0
 11
15.8601014215
 21
3.4148126249
 31
0.0
  0
LINE
  5
159
330
1F
100
AcDbEntity
  8
PART_LAYER
  6
Continuous
370
    25
100
AcDbLine
 10
15.7356259637
 20
3.4263088741
 30
0.0
 11
15.7050243712
 21
3.1250418088
 31
0.0
  0
LINE
  5
15A
330
1F
100
AcDbEntity
  8
PART_LAYER
  6
Continuous
370
    25
100
AcDbLine
 10
15.7050243712
 20
3.1250418088
 30
0.0
 11
12.7253566482
 21
3.4277054189
 31
0.0
  0
LINE
  5
15B
330
1F
100
AcDbEntity
  8
PART_LAYER
  6
Continuous
370
    25
100
AcDbLine
 10
12.7531939964
 20
3.7017590057
 30
0.0
 11
12.7253566482
 21
3.4277054189
 31
0.0
  0
LINE
  5
15C
330
1F
100
AcDbEntity
  8
PART_LAYER
  6
Continuous
370
    25
100
AcDbLine
 10
12.6287185387
 20
3.7132552549
 30
0.0
 11
12.7531939964
 21
3.7017590057
 31
0.0
  0
LINE
  5
15D
330
1F
100
AcDbEntity
  8
PART_LAYER
  6
Continuous
370
    25
100
AcDbLine
 10
12.6287185387
 20
3.7132552549
 30
0.0
 11
12.6009965596
 21
3.440337456
 31
0.0
  0
LINE
  5
15E
330
1F
100
AcDbEntity
  8
PART_LAYER
  6
Continuous
370
    25
100
AcDbLine
 10
12.6009965596
 20
3.440337456
 30
0.0
 11
9.6213288367
 21
3.7430010661
 31
0.0
  0
LINE
  5
15F
330
1F
100
AcDbEntity
  8
PART_LAYER
  6
Continuous
370
    25
100
AcDbLine
 10
9.6462865714
 20
3.9887053865
 30
0.0
 11
9.6213288367
 21
3.7430010661
 31
0.0
  0
LINE
  5
160
330
1F
100
AcDbEntity
  8
PART_LAYER
  6
Continuous
370
    25
100
AcDbLine
 10
9.5218111137
 20
4.0002016357
 30
0.0
 11
9.6462865714
 21
3.9887053865
 31
0.0
  0
LINE
  5
161
330
1F
100
AcDbEntity
  8
PART_LAYER
  6
Continuous
370
    25
100
AcDbLine
 10
9.5218111137
 20
4.0002016357
 30
0.0
 11
9.4969687481
 21
3.7556331032
 31
0.0
  0
LINE
  5
162
330
1F
100
AcDbEntity
  8
PART_LAYER
  6
Continuous
370
    25
100
AcDbLine
 10
9.4969687481
 20
3.7556331032
 30
0.0
 11
6.5173010251
 21
4.0582967133
 31
0.0
  0
LINE
  5
163
330
1F
100
AcDbEntity
  8
PART_LAYER
  6
Continuous
370
    25
100
AcDbLine
 10
6.5393791464
 20
4.2756517673
 30
0.0
 11
6.5173010251
 21
4.0582967133
 31
0.0
  0
LINE
  5
164
330
1F
100
AcDbEntity
  8
PART_LAYER
  6
Continuous
370
    25
100
AcDbLine
 10
6.4149036887
 20
4.2871480165
 30
0.0
 11
6.5393791464
 21
4.2756517673
 31
0.0
  0
LINE
  5
165
330
1F
100
AcDbEntity
  8
PART_LAYER
  6
Continuous
370
    25
100
AcDbLine
 10
6.4149036887
 20
4.2871480165
 30
0.0
 11
6.3929409365
 21
4.0709287504
 31
0.0
  0
LINE
  5
166
330
1F
100
AcDbEntity
  8
PART_LAYER
  6
Continuous
370
    25
100
AcDbLine
 10
6.3929409365
 20
4.0709287504
 30
0.0
 11
3.4132732136
 21
4.3735923605
 31
0.0
  0
LINE
  5
167
330
1F
100
AcDbEntity
  8
PART_LAYER
  6
Continuous
370
    25
100
AcDbLine
 10
3.4324717214
 20
4.5625981481
 30
0.0
 11
3.4132732136
 21
4.3735923605
 31
0.0
  0
LINE
  5
168
330
1F
100
AcDbEntity
  8
PART_LAYER
  6
Continuous
370
    25
100
AcDbLine
 10
3.3079962637
 20
4.5740943973
 30
0.0
 11
3.4324717214
 21
4.5625981481
 31
0.0
  0
LINE
  5
169
330
1F
100
AcDbEntity
  8
PART_LAYER
  6
Continuous
370
    25
100
AcDbLine
 10
3.3079962637
 20
4.5740943973
 30
0.0
 11
3.288913125
 21
4.3862243976
 31
0.0
  0
LINE
  5
16A
330
1F
100
AcDbEntity
  8
PART_LAYER
  6
Continuous
370
    25
100
AcDbLine
 10
3.288913125
 20
4.3862243976
 30
0.0
 11
0.3490406304
 21
4.6848457558
 31
0.0
  0
LINE
  5
16B
330
1F
100
AcDbEntity
  8
PART_LAYER
  6
Continuous
370
    25
100
AcDbLine
 10
0.3728345121
 20
4.919092157
 30
0.0
 11
0.3490406304
 21
4.6848457558
 31
0.0
  0
LINE
  5
16C
330
1F
100
AcDbEntity
  8
PART_LAYER
  6
Continuous
370
    25
100
AcDbLine
 10
0.2481283162
 20
4.9283168304
 30
0.0
 11
0.3728345121
 21
4.919092157
 31
0.0
  0
LINE
  5
16D
330
1F
100
AcDbEntity
  8
PART_LAYER
  6
Continuous
370
    25
100
AcDbLine
 10
0.2734018717
 20
5.1771303491
 30
0.0
 11
0.2481283162
 21
4.9283168304
 31
0.0
  0
LINE
  5
16E
330
1F
100
AcDbEntity
  8
PART_LAYER
  6
Continuous
370
    25
100
AcDbLine
 10
0.2734018717
 20
5.1771303491
 30
0.0
 11
23.4144876777
 21
3.4653552694
 31
0.0
  0
LINE
  5
16F
330
1F
100
AcDbEntity
  8
PART_LAYER
  6
Continuous
370
    25
100
AcDbLine
 10
23.788925144
 20
2.9748842384
 30
0.0
 11
23.4144876777
 21
3.4653552694
 31
0.0
  0
LINE
  5
170
330
1F
100
AcDbEntity
  8
PART_LAYER
  6
Continuous
370
    25
100
AcDbLine
 10
23.2240581681
 20
2.76936926
 30
0.0
 11
23.788925144
 21
2.9748842384
 31
0.0
  0
LINE
  5
171
330
1F
100
AcDbEntity
  8
PART_LAYER
  6
Continuous
370
    25
100
AcDbLine
 10
23.5272739443
 20
2.3304866722
 30
0.0
 11
23.2240581681
 21
2.76936926
 31
0.0
  0
LINE
  5
172
330
1F
100
AcDbEntity
  8
PART_LAYER
  6
Continuous
370
    25
100
AcDbLine
 10
23.5272739443
 20
2.3304866722
 30
0.0
 11
22.0374400829
 21
2.4818184772
 31
0.0
  0
MTEXT
  5
174
330
1F
100
AcDbEntity
  8
0
  6
Continuous
 62
     7
100
AcDbMText
 10
0.0
 20
0.5790104628
 30
0.0
 40
0.2076
 41
0.0
 71
     1
 72
     1
  1
SOLIDWORKS Educational Product.
  7
SLDTEXTSTYLE0
 73
     1
 44
1.0
  0
MTEXT
  5
175
330
1F
100
AcDbEntity
  8
0
  6
Continuous
 62
     7
100
AcDbMText
 10
0.0
 20
0.2676104628
 30
0.0
 40
0.2076
 41
0.0
 71
     1
 72
     1
  1
For Instructional Use Only.
  7
SLDTEXTSTYLE0
 73
     1
 44
1.0
  0
ENDSEC
  0
SECTION
  2
OBJECTS
  0
DICTIONARY
  5
C
330
0
100
AcDbDictionary
281
     1
  3
ACAD_GROUP
350
D
  3
ACAD_LAYOUT
350
1A
  3
ACAD_MLINESTYLE
350
17
  3
ACAD_PLOTSETTINGS
350
19
  3
ACAD_PLOTSTYLENAME
350
E
  3
ACAD_SCALELIST
350
47
  3
DWGPROPS
350
176
  0
DICTIONARY
  5
D
102
{ACAD_REACTORS
330
C
102
}
330
C
100
AcDbDictionary
281
     1
  0
DICTIONARY
  5
1A
102
{ACAD_REACTORS
330
C
102
}
330
C
100
AcDbDictionary
281
     1
  3
Layout1
350
1E
  3
Layout2
350
26
  3
Model
350
22
  0
DICTIONARY
  5
17
102
{ACAD_REACTORS
330
C
102
}
330
C
100
AcDbDictionary
281
     1
  3
Standard
350
18
  0
DICTIONARY
  5
19
102
{ACAD_REACTORS
330
C
102
}
330
C
100
AcDbDictionary
281
     1
  0
ACDBDICTIONARYWDFLT
  5
E
102
{ACAD_REACTORS
330
C
102
}
330
C
100
AcDbDictionary
281
     1
  3
Normal
350
F
100
AcDbDictionaryWithDefault
340
F
  0
DICTIONARY
  5
47
102
{ACAD_REACTORS
330
C
102
}
330
C
100
AcDbDictionary
281
     1
  3
A0
350
48
  3
A1
350
49
  3
A2
350
4A
  3
A3
350
4B
  3
A4
350
4C
  3
A5
350
4D
  3
A6
350
4E
  3
A7
350
4F
  3
A8
350
50
  3
A9
350
51
  3
B1
350
52
  3
B2
350
53
  3
B3
350
54
  3
B4
350
55
  3
B5
350
56
  3
B6
350
57
  3
B7
350
58
  0
XRECORD
  5
176
102
{ACAD_REACTORS
330
C
102
}
330
C
100
AcDbXrecord
280
     1
  1
DWGPROPS COOKIE
  2

  3

  4

  6

  7

  8
Alex Glasgo
  9

300
=
301
=
302
=
303
=
304
=
305
=
306
=
307
=
308
=
309
=
 40
0.0
 41
2460361.944056748
 42
2460361.944057801
  1

 90
        0
  0
LAYOUT
  5
1E
102
{ACAD_REACTORS
330
1A
102
}
330
1A
100
AcDbPlotSettings
  1

  2
none_device
  4

  6

 40
0.0
 41
0.0
 42
0.0
 43
0.0
 44
0.0
 45
0.0
 46
0.0
 47
0.0
 48
0.0
 49
0.0
140
0.0
141
0.0
142
1.0
143
1.0
 70
   688
 72
     0
 73
     0
 74
     5
  7

 75
    16
147
1.0
148
0.0
149
0.0
100
AcDbLayout
  1
Layout1
 70
     1
 71
     1
 10
0.0
 20
0.0
 11
12.0
 21
9.0
 12
0.0
 22
0.0
 32
0.0
 14
1.0000000000E+20
 24
1.0000000000E+20
 34
1.0000000000E+20
 15
-1.0000000000E+20
 25
-1.0000000000E+20
 35
-1.0000000000E+20
146
0.0
 13
0.0
 23
0.0
 33
0.0
 16
1.0
 26
0.0
 36
0.0
 17
0.0
 27
1.0
 37
0.0
 76
     0
330
1B
  0
LAYOUT
  5
26
102
{ACAD_REACTORS
330
1A
102
}
330
1A
100
AcDbPlotSettings
  1

  2
none_device
  4

  6

 40
0.0
 41
0.0
 42
0.0
 43
0.0
 44
0.0
 45
0.0
 46
0.0
 47
0.0
 48
0.0
 49
0.0
140
0.0
141
0.0
142
1.0
143
1.0
 70
   688
 72
     0
 73
     0
 74
     5
  7

 75
    16
147
1.0
148
0.0
149
0.0
100
AcDbLayout
  1
Layout2
 70
     1
 71
     2
 10
0.0
 20
0.0
 11
0.0
 21
0.0
 12
0.0
 22
0.0
 32
0.0
 14
0.0
 24
0.0
 34
0.0
 15
0.0
 25
0.0
 35
0.0
146
0.0
 13
0.0
 23
0.0
 33
0.0
 16
1.0
 26
0.0
 36
0.0
 17
0.0
 27
1.0
 37
0.0
 76
     0
330
23
  0
LAYOUT
  5
22
102
{ACAD_REACTORS
330
1A
102
}
330
1A
100
AcDbPlotSettings
  1

  2
none_device
  4
Letter_(8.50_x_11.00_Inches)
  6

 40
6.35
 41
6.35
 42
6.35000508
 43
6.35000508
 44
215.9
 45
279.4
 46
0.0
 47
0.0
 48
0.0
 49
0.0
140
0.0
141
0.0
142
1.0
143
1.0
 70
  1712
 72
     0
 73
     0
 74
     0
  7

 75
     0
147
1.0
148
0.0
149
0.0
100
AcDbLayout
  1
Model
 70
     1
 71
     0
 10
0.0
 20
0.0
 11
24.0
 21
12.0
 12
0.0
 22
0.0
 32
0.0
 14
0.0
 24
0.0
 34
0.0
 15
24.0
 25
12.0
 35
0.0
146
0.0
 13
0.0
 23
0.0
 33
0.0
 16
1.0
 26
0.0
 36
0.0
 17
0.0
 27
1.0
 37
0.0
 76
     0
330
1F
331
29
  0
MLINESTYLE
  5
18
102
{ACAD_REACTORS
330
17
102
}
330
17
100
AcDbMlineStyle
  2
Standard
 70
     0
  3

 62
   256
 51
90.0
 52
90.0
 71
     2
 49
0.5
 62
   256
  6
BYLAYER
 49
-0.5
 62
   256
  6
BYLAYER
  0
ACDBPLACEHOLDER
  5
F
102
{ACAD_REACTORS
330
E
102
}
330
E
  0
SCALE
  5
48
102
{ACAD_REACTORS
330
47
102
}
330
47
100
AcDbScale
 70
     0
300
1:1
140
1.0
141
1.0
290
     1
  0
SCALE
  5
49
102
{ACAD_REACTORS
330
47
102
}
330
47
100
AcDbScale
 70
     0
300
1/128" = 1'-0"
140
0.0078125
141
12.0
290
     0
  0
SCALE
  5
4A
102
{ACAD_REACTORS
330
47
102
}
330
47
100
AcDbScale
 70
     0
300
1/64" = 1'-0"
140
0.015625
141
12.0
290
     0
  0
SCALE
  5
4B
102
{ACAD_REACTORS
330
47
102
}
330
47
100
AcDbScale
 70
     0
300
1/32" = 1'-0"
140
0.03125
141
12.0
290
     0
  0
SCALE
  5
4C
102
{ACAD_REACTORS
330
47
102
}
330
47
100
AcDbScale
 70
     0
300
1/16" = 1'-0"
140
0.0625
141
12.0
290
     0
  0
SCALE
  5
4D
102
{ACAD_REACTORS
330
47
102
}
330
47
100
AcDbScale
 70
     0
300
3/32" = 1'-0"
140
0.09375
141
12.0
290
     0
  0
SCALE
  5
4E
102
{ACAD_REACTORS
330
47
102
}
330
47
100
AcDbScale
 70
     0
300
1/8" = 1'-0"
140
0.125
141
12.0
290
     0
  0
SCALE
  5
4F
102
{ACAD_REACTORS
330
47
102
}
330
47
100
AcDbScale
 70
     0
300
3/16" = 1'-0"
140
0.1875
141
12.0
290
     0
  0
SCALE
  5
50
102
{ACAD_REACTORS
330
47
102
}
330
47
100
AcDbScale
 70
     0
300
1/4" = 1'-0"
140
0.25
141
12.0
290
     0
  0
SCALE
  5
51
102
{ACAD_REACTORS
330
47
102
}
330
47
100
AcDbScale
 70
     0
300
3/8" = 1'-0"
140
0.375
141
12.0
290
     0
  0
SCALE
  5
52
102
{ACAD_REACTORS
330
47
102
}
330
47
100
AcDbScale
 70
     0
300
1/2" = 1'-0"
140
0.5
141
12.0
290
     0
  0
SCALE
  5
53
102
{ACAD_REACTORS
330
47
102
}
330
47
100
AcDbScale
 70
     0
300
3/4" = 1'-0"
140
0.75
141
12.0
290
     0
  0
SCALE
  5
54
102
{ACAD_REACTORS
330
47
102
}
330
47
100
AcDbScale
 70
     0
300
1" = 1'-0"
140
1.0
141
12.0
290
     0
  0
SCALE
  5
55
102
{ACAD_REACTORS
330
47
102
}
330
47
100
AcDbScale
 70
     0
300
1-1/2" = 1'-0"
140
1.5
141
12.0
290
     0
  0
SCALE
  5
56
102
{ACAD_REACTORS
330
47
102
}
330
47
100
AcDbScale
 70
     0
300
3" = 1'-0"
140
3.0
141
12.0
290
     0
  0
SCALE
  5
57
102
{ACAD_REACTORS
330
47
102
}
330
47
100
AcDbScale
 70
     0
300
6" = 1'-0"
140
6.0
141
12.0
290
     0
  0
SCALE
  5
58
102
{ACAD_REACTORS
330
47
102
}
330
47
100
AcDbScale
 70
     0
300
1'-0" = 1'-0"
140
12.0
141
12.0
290
     0
  0
ENDSEC
  0
EOF
