  0
SECTION
  2
HEADER
  9
$ACADVER
  1
AC1015
  9
$ACADMAINTVER
 70
     6
  9
$DWGCODEPAGE
  3
ANSI_1252
  9
$INSBASE
 10
0.0
 20
0.0
 30
0.0
  9
$EXTMIN
 10
0.0
 20
0.0
 30
0.0
  9
$EXTMAX
 10
24.0
 20
12.0
 30
0.0
  9
$LIMMIN
 10
0.0
 20
0.0
  9
$LIMMAX
 10
24.0
 20
12.0
  9
$ORTHOMODE
 70
     0
  9
$REGENMODE
 70
     1
  9
$FILLMODE
 70
     1
  9
$QTEXTMODE
 70
     0
  9
$MIRRTEXT
 70
     1
  9
$LTSCALE
 40
1.0
  9
$ATTMODE
 70
     1
  9
$TEXTSIZE
 40
0.125
  9
$TRACEWID
 40
0.05
  9
$TEXTSTYLE
  7
Standard
  9
$CLAYER
  8
0
  9
$CELTYPE
  6
ByLayer
  9
$CECOLOR
 62
   256
  9
$CELTSCALE
 40
1.0
  9
$DISPSILH
 70
     0
  9
$DIMSCALE
 40
1.0
  9
$DIMASZ
 40
0.13
  9
$DIMEXO
 40
0.05
  9
$DIMDLI
 40
0.38
  9
$DIMRND
 40
0.0
  9
$DIMDLE
 40
0.0
  9
$DIMEXE
 40
0.125
  9
$DIMTP
 40
0.0
  9
$DIMTM
 40
0.0
  9
$DIMTXT
 40
0.125
  9
$DIMCEN
 40
0.09
  9
$DIMTSZ
 40
0.0
  9
$DIMTOL
 70
     0
  9
$DIMLIM
 70
     0
  9
$DIMTIH
 70
     1
  9
$DIMTOH
 70
     1
  9
$DIMSE1
 70
     0
  9
$DIMSE2
 70
     0
  9
$DIMTAD
 70
     0
  9
$DIMZIN
 70
     1
  9
$DIMBLK
  1

  9
$DIMASO
 70
     1
  9
$DIMSHO
 70
     1
  9
$DIMPOST
  1

  9
$DIMAPOST
  1

  9
$DIMALT
 70
     0
  9
$DIMALTD
 70
     2
  9
$DIMALTF
 40
25.4
  9
$DIMLFAC
 40
1.0
  9
$DIMTOFL
 70
     0
  9
$DIMTVP
 40
0.0
  9
$DIMTIX
 70
     0
  9
$DIMSOXD
 70
     0
  9
$DIMSAH
 70
     0
  9
$DIMBLK1
  1

  9
$DIMBLK2
  1

  9
$DIMSTYLE
  2
Standard
  9
$DIMCLRD
 70
     0
  9
$DIMCLRE
 70
     0
  9
$DIMCLRT
 70
     0
  9
$DIMTFAC
 40
1.0
  9
$DIMGAP
 40
0.06
  9
$DIMJUST
 70
     0
  9
$DIMSD1
 70
     0
  9
$DIMSD2
 70
     0
  9
$DIMTOLJ
 70
     1
  9
$DIMTZIN
 70
     1
  9
$DIMALTZ
 70
     0
  9
$DIMALTTZ
 70
     0
  9
$DIMUPT
 70
     0
  9
$DIMDEC
 70
     2
  9
$DIMTDEC
 70
     2
  9
$DIMALTU
 70
     2
  9
$DIMALTTD
 70
     2
  9
$DIMTXSTY
  7
Standard
  9
$DIMAUNIT
 70
     0
  9
$DIMADEC
 70
     2
  9
$DIMALTRND
 40
0.0
  9
$DIMAZIN
 70
     0
  9
$DIMDSEP
 70
    46
  9
$DIMATFIT
 70
     3
  9
$DIMFRAC
 70
     0
  9
$DIMLDRBLK
  1

  9
$DIMLUNIT
 70
     2
  9
$DIMLWD
 70
    -2
  9
$DIMLWE
 70
    -2
  9
$DIMTMOVE
 70
     0
  9
$LUNITS
 70
     2
  9
$LUPREC
 70
     6
  9
$SKETCHINC
 40
0.1
  9
$FILLETRAD
 40
0.0
  9
$AUNITS
 70
     0
  9
$AUPREC
 70
     2
  9
$MENU
  1
.
  9
$ELEVATION
 40
0.0
  9
$PELEVATION
 40
0.0
  9
$THICKNESS
 40
0.0
  9
$LIMCHECK
 70
     0
  9
$CHAMFERA
 40
0.0
  9
$CHAMFERB
 40
0.0
  9
$CHAMFERC
 40
0.0
  9
$CHAMFERD
 40
0.0
  9
$SKPOLY
 70
     0
  9
$TDCREATE
 40
2460722.594230047
  9
$TDUCREATE
 40
2460722.92756338
  9
$TDUPDATE
 40
2460722.594230694
  9
$TDUUPDATE
 40
2460722.927564028
  9
$TDINDWG
 40
0.0000000116
  9
$TDUSRTIMER
 40
0.0000000116
  9
$USRTIMER
 70
     1
  9
$ANGBASE
 50
0.0
  9
$ANGDIR
 70
     0
  9
$PDMODE
 70
     0
  9
$PDSIZE
 40
-1.0
  9
$PLINEWID
 40
0.0
  9
$SPLFRAME
 70
     0
  9
$SPLINETYPE
 70
     6
  9
$SPLINESEGS
 70
     8
  9
$HANDSEED
  5
22D
  9
$SURFTAB1
 70
     6
  9
$SURFTAB2
 70
     6
  9
$SURFTYPE
 70
     6
  9
$SURFU
 70
     6
  9
$SURFV
 70
     6
  9
$UCSBASE
  2

  9
$UCSNAME
  2

  9
$UCSORG
 10
0.0
 20
0.0
 30
0.0
  9
$UCSXDIR
 10
1.0
 20
0.0
 30
0.0
  9
$UCSYDIR
 10
0.0
 20
1.0
 30
0.0
  9
$UCSORTHOREF
  2

  9
$UCSORTHOVIEW
 70
     0
  9
$UCSORGTOP
 10
0.0
 20
0.0
 30
0.0
  9
$UCSORGBOTTOM
 10
0.0
 20
0.0
 30
0.0
  9
$UCSORGLEFT
 10
0.0
 20
0.0
 30
0.0
  9
$UCSORGRIGHT
 10
0.0
 20
0.0
 30
0.0
  9
$UCSORGFRONT
 10
0.0
 20
0.0
 30
0.0
  9
$UCSORGBACK
 10
0.0
 20
0.0
 30
0.0
  9
$PUCSBASE
  2

  9
$PUCSNAME
  2

  9
$PUCSORG
 10
0.0
 20
0.0
 30
0.0
  9
$PUCSXDIR
 10
1.0
 20
0.0
 30
0.0
  9
$PUCSYDIR
 10
0.0
 20
1.0
 30
0.0
  9
$PUCSORTHOREF
  2

  9
$PUCSORTHOVIEW
 70
     0
  9
$PUCSORGTOP
 10
0.0
 20
0.0
 30
0.0
  9
$PUCSORGBOTTOM
 10
0.0
 20
0.0
 30
0.0
  9
$PUCSORGLEFT
 10
0.0
 20
0.0
 30
0.0
  9
$PUCSORGRIGHT
 10
0.0
 20
0.0
 30
0.0
  9
$PUCSORGFRONT
 10
0.0
 20
0.0
 30
0.0
  9
$PUCSORGBACK
 10
0.0
 20
0.0
 30
0.0
  9
$USERI1
 70
     0
  9
$USERI2
 70
     0
  9
$USERI3
 70
     0
  9
$USERI4
 70
     0
  9
$USERI5
 70
     0
  9
$USERR1
 40
0.0
  9
$USERR2
 40
0.0
  9
$USERR3
 40
0.0
  9
$USERR4
 40
0.0
  9
$USERR5
 40
0.0
  9
$WORLDVIEW
 70
     1
  9
$SHADEDGE
 70
     3
  9
$SHADEDIF
 70
    70
  9
$TILEMODE
 70
     1
  9
$MAXACTVP
 70
    64
  9
$PINSBASE
 10
0.0
 20
0.0
 30
0.0
  9
$PLIMCHECK
 70
     0
  9
$PEXTMIN
 10
1.0000000000E+20
 20
1.0000000000E+20
 30
1.0000000000E+20
  9
$PEXTMAX
 10
-1.0000000000E+20
 20
-1.0000000000E+20
 30
-1.0000000000E+20
  9
$PLIMMIN
 10
0.0
 20
0.0
  9
$PLIMMAX
 10
12.0
 20
9.0
  9
$UNITMODE
 70
     0
  9
$VISRETAIN
 70
     1
  9
$PLINEGEN
 70
     0
  9
$PSLTSCALE
 70
     1
  9
$TREEDEPTH
 70
  3020
  9
$CMLSTYLE
  2
Standard
  9
$CMLJUST
 70
     0
  9
$CMLSCALE
 40
1.0
  9
$PROXYGRAPHICS
 70
     1
  9
$MEASUREMENT
 70
     0
  9
$CELWEIGHT
370
    -1
  9
$ENDCAPS
280
     0
  9
$JOINSTYLE
280
     0
  9
$LWDISPLAY
290
     1
  9
$INSUNITS
 70
     1
  9
$HYPERLINKBASE
  1

  9
$STYLESHEET
  1

  9
$XEDIT
290
     1
  9
$CEPSNTYPE
380
     0
  9
$PSTYLEMODE
290
     1
  9
$FINGERPRINTGUID
  2
{b187005e-fcdd-40ba-ba53-f0990e5af727}
  9
$VERSIONGUID
  2
{FAEB1C32-E019-11D5-929B-00C0DF256EC4}
  9
$EXTNAMES
290
     1
  9
$PSVPSCALE
 40
0.0
  9
$OLESTARTUP
290
     0
  0
ENDSEC
  0
SECTION
  2
CLASSES
  0
CLASS
  1
ACDBDICTIONARYWDFLT
  2
AcDbDictionaryWithDefault
  3
ObjectDBX Classes
 90
        0
280
     0
281
     0
  0
CLASS
  1
VISUALSTYLE
  2
AcDbVisualStyle
  3
ObjectDBX Classes
 90
     4095
280
     0
281
     0
  0
CLASS
  1
MATERIAL
  2
AcDbMaterial
  3
ObjectDBX Classes
 90
     1153
280
     0
281
     0
  0
CLASS
  1
SCALE
  2
AcDbScale
  3
ObjectDBX Classes
 90
     1153
280
     0
281
     0
  0
CLASS
  1
TABLESTYLE
  2
AcDbTableStyle
  3
ObjectDBX Classes
 90
     4095
280
     0
281
     0
  0
CLASS
  1
MLEADERSTYLE
  2
AcDbMLeaderStyle
  3
ACDB_MLEADERSTYLE_CLASS
 90
     4095
280
     0
281
     0
  0
CLASS
  1
SUN
  2
AcDbSun
  3
SCENEOE
 90
     1153
280
     0
281
     0
  0
CLASS
  1
ACDBPLACEHOLDER
  2
AcDbPlaceHolder
  3
ObjectDBX Classes
 90
        0
280
     0
281
     0
  0
CLASS
  1
LAYOUT
  2
AcDbLayout
  3
ObjectDBX Classes
 90
        0
280
     0
281
     0
  0
ENDSEC
  0
SECTION
  2
TABLES
  0
TABLE
  2
VPORT
  5
8
330
0
100
AcDbSymbolTable
 70
     1
  0
VPORT
  5
29
330
8
100
AcDbSymbolTableRecord
100
AcDbViewportTableRecord
  2
*Active
 70
     0
 10
0.0
 20
0.0
 11
1.0
 21
1.0
 12
12.0
 22
6.0
 13
0.0
 23
0.0
 14
0.5
 24
0.5
 15
0.5
 25
0.5
 16
0.0
 26
0.0
 36
1.0
 17
0.0
 27
0.0
 37
0.0
 40
12.0
 41
2.0
 42
50.0
 43
0.0
 44
0.0
 50
0.0
 51
0.0
 71
     0
 72
  2000
 73
     1
 74
     3
 75
     0
 76
     0
 77
     0
 78
     0
281
     0
 65
     1
110
0.0
120
0.0
130
0.0
111
1.0
121
0.0
131
0.0
112
0.0
122
1.0
132
0.0
 79
     0
146
0.0
  0
ENDTAB
  0
TABLE
  2
LTYPE
  5
5
330
0
100
AcDbSymbolTable
 70
     6
  0
LTYPE
  5
14
330
5
100
AcDbSymbolTableRecord
100
AcDbLinetypeTableRecord
  2
ByBlock
 70
     0
  3

 72
    65
 73
     0
 40
0.0
  0
LTYPE
  5
15
330
5
100
AcDbSymbolTableRecord
100
AcDbLinetypeTableRecord
  2
ByLayer
 70
     0
  3

 72
    65
 73
     0
 40
0.0
  0
LTYPE
  5
16
330
5
100
AcDbSymbolTableRecord
100
AcDbLinetypeTableRecord
  2
Continuous
 70
     0
  3
Solid line
 72
    65
 73
     0
 40
0.0
  0
LTYPE
  5
5E
330
5
100
AcDbSymbolTableRecord
100
AcDbLinetypeTableRecord
  2
HIDDEN
 70
     0
  3
Hidden __ __ __ __ __ __ __ __ __ __ __ __ __ __
 72
    65
 73
     2
 40
0.075
 49
0.05
 74
     0
 49
-0.025
 74
     0
  0
LTYPE
  5
5F
330
5
100
AcDbSymbolTableRecord
100
AcDbLinetypeTableRecord
  2
PHANTOM
 70
     0
  3
Phantom ______  __  __  ______  __  __  ______
 72
    65
 73
     6
 40
0.5
 49
0.25
 74
     0
 49
-0.05
 74
     0
 49
0.05
 74
     0
 49
-0.05
 74
     0
 49
0.05
 74
     0
 49
-0.05
 74
     0
  0
LTYPE
  5
60
330
5
100
AcDbSymbolTableRecord
100
AcDbLinetypeTableRecord
  2
CENTER
 70
     0
  3
Center ____ _ ____ _ ____ _ ____ _ ____ _ ____
 72
    65
 73
     4
 40
0.4
 49
0.25
 74
     0
 49
-0.05
 74
     0
 49
0.05
 74
     0
 49
-0.05
 74
     0
  0
LTYPE
  5
61
330
5
100
AcDbSymbolTableRecord
100
AcDbLinetypeTableRecord
  2
CENTERX2
 70
     0
  3
Center (2x) ________  __  ________  __  _____
 72
    65
 73
     4
 40
0.8
 49
0.5
 74
     0
 49
-0.1
 74
     0
 49
0.1
 74
     0
 49
-0.1
 74
     0
  0
LTYPE
  5
62
330
5
100
AcDbSymbolTableRecord
100
AcDbLinetypeTableRecord
  2
DOT2
 70
     0
  3
Dot (.5x) ........................................
 72
    65
 73
     2
 40
0.025
 49
0.0
 74
     0
 49
-0.025
 74
     0
  0
ENDTAB
  0
TABLE
  2
LAYER
  5
2
330
0
100
AcDbSymbolTable
 70
     3
  0
LAYER
  5
10
330
2
100
AcDbSymbolTableRecord
100
AcDbLayerTableRecord
  2
0
 70
     0
 62
     7
  6
Continuous
370
    -3
390
F
  0
LAYER
  5
63
330
2
100
AcDbSymbolTableRecord
100
AcDbLayerTableRecord
  2
FORMAT
 70
     0
 62
     7
  6
Continuous
370
    -3
390
F
  0
LAYER
  5
64
330
2
100
AcDbSymbolTableRecord
100
AcDbLayerTableRecord
  2
PART_NAMES
 70
     0
 62
     1
  6
Continuous
370
    -3
390
F
  0
ENDTAB
  0
TABLE
  2
STYLE
  5
3
330
0
100
AcDbSymbolTable
 70
     3
  0
STYLE
  5
11
330
3
100
AcDbSymbolTableRecord
100
AcDbTextStyleTableRecord
  2
Standard
 70
     0
 40
0.0
 41
1.0
 50
0.0
 71
     0
 42
0.125
  3
txt
  4

  0
STYLE
  5
C7
330
3
100
AcDbSymbolTableRecord
100
AcDbTextStyleTableRecord
  2
SLDTEXTSTYLE0
 70
     0
 40
0.0
 41
0.75
 50
0.0
 71
     0
 42
0.125
  3
TXT
  4

  0
STYLE
  5
229
330
3
100
AcDbSymbolTableRecord
100
AcDbTextStyleTableRecord
  2
SLDTEXTSTYLE1
 70
     0
 40
0.0
 41
0.7
 50
0.0
 71
     0
 42
0.125
  3
TXT
  4

  0
ENDTAB
  0
TABLE
  2
VIEW
  5
6
330
0
100
AcDbSymbolTable
 70
     0
  0
ENDTAB
  0
TABLE
  2
UCS
  5
7
330
0
100
AcDbSymbolTable
 70
     0
  0
ENDTAB
  0
TABLE
  2
APPID
  5
9
330
0
100
AcDbSymbolTable
 70
     1
  0
APPID
  5
12
330
9
100
AcDbSymbolTableRecord
100
AcDbRegAppTableRecord
  2
ACAD
 70
     0
  0
ENDTAB
  0
TABLE
  2
DIMSTYLE
  5
A
330
0
100
AcDbSymbolTable
 70
     1
100
AcDbDimStyleTable
  0
DIMSTYLE
105
27
330
A
100
AcDbSymbolTableRecord
100
AcDbDimStyleTableRecord
  2
Standard
 70
     0
178
     0
340
11
  0
ENDTAB
  0
TABLE
  2
BLOCK_RECORD
  5
1
330
0
100
AcDbSymbolTable
 70
     1
  0
BLOCK_RECORD
  5
1F
330
1
100
AcDbSymbolTableRecord
100
AcDbBlockTableRecord
  2
*Model_Space
340
22
  0
BLOCK_RECORD
  5
1B
330
1
100
AcDbSymbolTableRecord
100
AcDbBlockTableRecord
  2
*Paper_Space
340
1E
  0
BLOCK_RECORD
  5
23
330
1
100
AcDbSymbolTableRecord
100
AcDbBlockTableRecord
  2
*Paper_Space0
340
26
  0
ENDTAB
  0
ENDSEC
  0
SECTION
  2
BLOCKS
  0
BLOCK
  5
20
330
1F
100
AcDbEntity
  8
0
100
AcDbBlockBegin
  2
*Model_Space
 70
     0
 10
0.0
 20
0.0
 30
0.0
  3
*Model_Space
  1

  0
ENDBLK
  5
21
330
1F
100
AcDbEntity
  8
0
100
AcDbBlockEnd
  0
BLOCK
  5
1C
330
1B
100
AcDbEntity
 67
     1
  8
0
100
AcDbBlockBegin
  2
*Paper_Space
 70
     0
 10
0.0
 20
0.0
 30
0.0
  3
*Paper_Space
  1

  0
ENDBLK
  5
1D
330
1B
100
AcDbEntity
 67
     1
  8
0
100
AcDbBlockEnd
  0
BLOCK
  5
24
330
23
100
AcDbEntity
  8
0
100
AcDbBlockBegin
  2
*Paper_Space0
 70
     0
 10
0.0
 20
0.0
 30
0.0
  3
*Paper_Space0
  1

  0
ENDBLK
  5
25
330
23
100
AcDbEntity
  8
0
100
AcDbBlockEnd
  0
ENDSEC
  0
SECTION
  2
ENTITIES
  0
LINE
  5
65
330
1F
100
AcDbEntity
  8
0
  6
CENTERX2
 62
     7
370
    18
100
AcDbLine
 10
0.25
 20
0.4933336441
 30
0.0
 11
0.25
 21
11.75
 31
0.0
  0
LINE
  5
66
330
1F
100
AcDbEntity
  8
0
  6
CENTERX2
 62
     7
370
    18
100
AcDbLine
 10
0.25
 20
0.4933336441
 30
0.0
 11
23.75
 21
0.4933336441
 31
0.0
  0
LINE
  5
67
330
1F
100
AcDbEntity
  8
0
  6
CENTERX2
 62
     7
370
    18
100
AcDbLine
 10
23.75
 20
0.4933336441
 30
0.0
 11
23.75
 21
11.75
 31
0.0
  0
LINE
  5
68
330
1F
100
AcDbEntity
  8
0
  6
CENTERX2
 62
     7
370
    18
100
AcDbLine
 10
23.75
 20
11.75
 30
0.0
 11
0.25
 21
11.75
 31
0.0
  0
LINE
  5
69
330
1F
100
AcDbEntity
  8
0
  6
Continuous
 62
     7
370
    25
100
AcDbLine
 10
17.9213902026
 20
9.1652490651
 30
0.0
 11
18.0702233466
 21
9.0562610985
 31
0.0
  0
SPLINE
  5
6A
330
1F
100
AcDbEntity
  8
0
  6
Continuous
 62
     7
370
    25
100
AcDbSpline
210
0.0
220
0.0
230
1.0
 70
     8
 71
     3
 72
    11
 73
     7
 74
     0
 42
0.00000001
 43
0.00000001
 40
0.7499935478516897
 40
0.7499935478516897
 40
0.7499935478516897
 40
0.7499935478516897
 40
0.7779952108143205
 40
0.8059968737769514
 40
0.8339985367395822
 40
0.8457356773873134
 40
0.8457356773873134
 40
0.8457356773873134
 40
0.8457356773873134
 10
17.92139020256049
 20
9.165249065143593
 30
0.0
 10
17.77632670399755
 20
9.270341065323526
 30
0.0
 10
17.4826794317575
 20
9.476414860900563
 30
0.0
 10
17.03403630975879
 20
9.769077555159742
 30
0.0
 10
16.66491024929336
 20
9.989874128958865
 30
0.0
 10
16.44511429312807
 20
10.11178051640834
 30
0.0
 10
16.37999253613735
 20
10.14701158294051
 30
0.0
  0
ARC
  5
6B
330
1F
100
AcDbEntity
  8
0
  6
Continuous
 62
     7
370
    25
100
AcDbCircle
 10
16.3324093574
 20
10.0590579525
 30
0.0
 40
0.0999999999999994
100
AcDbArc
 50
61.5864785402
 51
173.2871337742
  0
LINE
  5
6C
330
1F
100
AcDbEntity
  8
0
  6
Continuous
 62
     7
370
    25
100
AcDbLine
 10
16.0970969673
 20
8.9152912538
 30
0.0
 11
16.2330949149
 21
10.0707473284
 31
0.0
  0
ARC
  5
6D
330
1F
100
AcDbEntity
  8
0
  6
Continuous
 62
     7
370
    25
100
AcDbCircle
 10
16.1964114098
 20
8.9036018779
 30
0.0
 40
0.0999999999999985
100
AcDbArc
 50
173.2871337742
 51
225.0
  0
LINE
  5
6E
330
1F
100
AcDbEntity
  8
0
  6
Continuous
 62
     7
370
    25
100
AcDbLine
 10
16.1257007317
 20
8.8328911998
 30
0.0
 11
16.3397787567
 21
8.6188131748
 31
0.0
  0
ARC
  5
6F
330
1F
100
AcDbEntity
  8
0
  6
Continuous
 62
     7
370
    25
100
AcDbCircle
 10
16.4104894348
 20
8.6895238529
 30
0.0
 40
0.0999999999999998
100
AcDbArc
 50
225.0
 51
249.5576629549
  0
LINE
  5
70
330
1F
100
AcDbEntity
  8
0
  6
Continuous
 62
     7
370
    25
100
AcDbLine
 10
18.997643544
 20
7.6184723283
 30
0.0
 11
16.3755629819
 21
8.5958214363
 31
0.0
  0
ARC
  5
71
330
1F
100
AcDbEntity
  8
0
  6
Continuous
 62
     7
370
    25
100
AcDbCircle
 10
19.0325699969
 20
7.712174745
 30
0.0
 40
0.1000000000000012
100
AcDbArc
 50
249.5576629549
 51
315.0
  0
LINE
  5
72
330
1F
100
AcDbEntity
  8
0
  6
Continuous
 62
     7
370
    25
100
AcDbLine
 10
19.3485401492
 20
7.886723541
 30
0.0
 11
19.103280675
 21
7.6414640669
 31
0.0
  0
ARC
  5
73
330
1F
100
AcDbEntity
  8
0
  6
Continuous
 62
     7
370
    25
100
AcDbCircle
 10
19.2778294711
 20
7.9574342192
 30
0.0
 40
0.1000000000000036
100
AcDbArc
 50
315.0
 51
49.125179593
  0
SPLINE
  5
74
330
1F
100
AcDbEntity
  8
0
  6
Continuous
 62
     7
370
    25
100
AcDbSpline
210
0.0
220
0.0
230
1.0
 70
     8
 71
     3
 72
    11
 73
     7
 74
     0
 42
0.00000001
 43
0.00000001
 40
0.6556979357756038
 40
0.6556979357756038
 40
0.6556979357756038
 40
0.6556979357756038
 40
0.6610270342166548
 40
0.684383014932723
 40
0.7123902779117403
 40
0.7403975408907575
 40
0.7403975408907575
 40
0.7403975408907575
 40
0.7403975408907575
 10
19.34327032888525
 20
8.033048332458431
 30
0.0
 10
19.31730114736632
 20
8.055523574721217
 30
0.0
 10
19.1772748795217
 20
8.176189823680177
 30
0.0
 10
18.89806044407114
 20
8.411256772382309
 30
0.0
 10
18.50039275092576
 20
8.731406759491872
 30
0.0
 10
18.21470987502271
 20
8.94932689723342
 30
0.0
 10
18.07022334662994
 20
9.056261098496892
 30
0.0
  0
ARC
  5
75
330
1F
100
AcDbEntity
  8
0
  6
Continuous
 62
     7
370
    25
100
AcDbCircle
 10
18.3475391537
 20
6.2117854114
 30
0.0
 40
0.0999999999999998
100
AcDbArc
 50
231.5548930135
 51
323.8337881808
  0
LINE
  5
76
330
1F
100
AcDbEntity
  8
0
  6
Continuous
 62
     7
370
    25
100
AcDbLine
 10
19.1303337509
 20
7.1132087966
 30
0.0
 11
18.4282699998
 21
6.1527724426
 31
0.0
  0
ARC
  5
77
330
1F
100
AcDbEntity
  8
0
  6
Continuous
 62
     7
370
    25
100
AcDbCircle
 10
19.0496029048
 20
7.1722217655
 30
0.0
 40
0.1000000000003108
100
AcDbArc
 50
323.8337881808
 51
69.5576629549
  0
LINE
  5
78
330
1F
100
AcDbEntity
  8
0
  6
Continuous
 62
     7
370
    25
100
AcDbLine
 10
16.5539653915
 20
8.2091615757
 30
0.0
 11
19.0845293578
 21
7.2659241821
 31
0.0
  0
ARC
  5
79
330
1F
100
AcDbEntity
  8
0
  6
Continuous
 62
     7
370
    25
100
AcDbCircle
 10
16.5190389386
 20
8.115459159
 30
0.0
 40
0.1000000000000023
100
AcDbArc
 50
69.5576629549
 51
135.0
  0
LINE
  5
7A
330
1F
100
AcDbEntity
  8
0
  6
Continuous
 62
     7
370
    25
100
AcDbLine
 10
16.4483282604
 20
8.1861698371
 30
0.0
 11
16.2468904943
 21
7.984732071
 31
0.0
  0
ARC
  5
7B
330
1F
100
AcDbEntity
  8
0
  6
Continuous
 62
     7
370
    25
100
AcDbCircle
 10
16.3176011725
 20
7.9140213929
 30
0.0
 40
0.1000000000000023
100
AcDbArc
 50
135.0
 51
227.843564426
  0
SPLINE
  5
7C
330
1F
100
AcDbEntity
  8
0
  6
Continuous
 62
     7
370
    25
100
AcDbSpline
210
0.0
220
0.0
230
1.0
 70
     8
 71
     3
 72
    11
 73
     7
 74
     0
 42
0.00000001
 43
0.00000001
 40
0.2280381906976965
 40
0.2280381906976965
 40
0.2280381906976965
 40
0.2280381906976965
 40
0.2448517920017564
 40
0.2895209056111524
 40
0.3341900192205484
 40
0.370282453052988
 40
0.370282453052988
 40
0.370282453052988
 40
0.370282453052988
 10
16.25048545947561
 20
7.839889880936593
 30
0.0
 10
16.32762124148687
 20
7.770054221750776
 30
0.0
 10
16.61150021947003
 20
7.516170060039538
 30
0.0
 10
17.11164526152406
 20
7.086419437979149
 30
0.0
 10
17.71490215190115
 20
6.589328730036204
 30
0.0
 10
18.10874991930176
 20
6.273673081921146
 30
0.0
 10
18.28536269749911
 20
6.13346499075243
 30
0.0
  0
CIRCLE
  5
7D
330
1F
100
AcDbEntity
  8
0
  6
Continuous
 62
     7
370
    25
100
AcDbCircle
 10
22.9970934007
 20
3.1968806722
 30
0.0
 40
0.2500000000000014
  0
LINE
  5
7E
330
1F
100
AcDbEntity
  8
0
  6
Continuous
 62
     7
370
    25
100
AcDbLine
 10
13.7047311306
 20
10.8852317699
 30
0.0
 11
13.9374362652
 21
10.6525266354
 31
0.0
  0
LINE
  5
7F
330
1F
100
AcDbEntity
  8
0
  6
Continuous
 62
     7
370
    25
100
AcDbLine
 10
13.9374362652
 20
10.6525266354
 30
0.0
 11
14.2026013081
 21
10.9176916784
 31
0.0
  0
LINE
  5
80
330
1F
100
AcDbEntity
  8
0
  6
Continuous
 62
     7
370
    25
100
AcDbLine
 10
13.9691875491
 20
11.1511054374
 30
0.0
 11
14.2026013081
 21
10.9176916784
 31
0.0
  0
SPLINE
  5
81
330
1F
100
AcDbEntity
  8
0
  6
Continuous
 62
     7
370
    25
100
AcDbSpline
210
0.0
220
0.0
230
1.0
 70
     8
 71
     3
 72
    26
 73
    22
 74
     0
 42
0.00000001
 43
0.00000001
 40
0.8715435416833482
 40
0.8715435416833482
 40
0.8715435416833482
 40
0.8715435416833482
 40
0.8756888428051558
 40
0.8849977189730033
 40
0.8939534256738392
 40
0.9025528972361386
 40
0.9107893855665934
 40
0.9186607344216322
 40
0.92616625322805
 40
0.9333026258890187
 40
0.9400712202305984
 40
0.9464747799460725
 40
0.9525175260252662
 40
0.9582048188571665
 40
0.9635466521265252
 40
0.9685565998720713
 40
0.9732499128173885
 40
0.9776510407402338
 40
0.9817870430299019
 40
0.985694226196927
 40
0.9858134048062881
 40
0.9858134048062881
 40
0.9858134048062881
 40
0.9858134048062881
 10
16.11854912498105
 20
10.72892390616269
 30
0.0
 10
16.09403811074723
 20
10.74059927739587
 30
0.0
 10
16.01430953296238
 20
10.77812673923018
 30
0.0
 10
15.88053831847273
 20
10.83854705085972
 30
0.0
 10
15.71855122514149
 20
10.9072640376139
 30
0.0
 10
15.56143617941019
 20
10.96935121348093
 30
0.0
 10
15.40941990638185
 20
11.02487155273644
 30
0.0
 10
15.26267477579888
 20
11.07376253991118
 30
0.0
 10
15.12140758101877
 20
11.11609153873794
 30
0.0
 10
14.98578633372931
 20
11.1518422425542
 30
0.0
 10
14.8559862683667
 20
11.18102492535713
 30
0.0
 10
14.73216840312582
 20
11.20373378133092
 30
0.0
 10
14.61446548102444
 20
11.21989953757434
 30
0.0
 10
14.50302878452345
 20
11.22962748814137
 30
0.0
 10
14.39797409043748
 20
11.23295673415508
 30
0.0
 10
14.29941389743738
 20
11.22984484857485
 30
0.0
 10
14.20743601053413
 20
11.22038307387123
 30
0.0
 10
14.1221346681981
 20
11.20455750698788
 30
0.0
 10
14.04356374258927
 20
11.1824099673115
 30
0.0
 10
13.99378768398678
 20
11.16263782879632
 30
0.0
 10
13.96989419841824
 20
11.15143821228411
 30
0.0
 10
13.96918754912951
 20
11.15110543736166
 30
0.0
  0
LINE
  5
82
330
1F
100
AcDbEntity
  8
0
  6
Continuous
 62
     7
370
    25
100
AcDbLine
 10
16.118549125
 20
10.7289239062
 30
0.0
 11
16.0389246905
 21
10.5661281509
 31
0.0
  0
LINE
  5
83
330
1F
100
AcDbEntity
  8
0
  6
Continuous
 62
     7
370
    25
100
AcDbLine
 10
16.0389246905
 20
10.5661281509
 30
0.0
 11
16.2073489476
 21
10.4837407098
 31
0.0
  0
LINE
  5
84
330
1F
100
AcDbEntity
  8
0
  6
Continuous
 62
     7
370
    25
100
AcDbLine
 10
16.2073489476
 20
10.4837407098
 30
0.0
 11
16.2870009333
 21
10.6465603609
 31
0.0
  0
SPLINE
  5
85
330
1F
100
AcDbEntity
  8
0
  6
Continuous
 62
     7
370
    25
100
AcDbSpline
210
0.0
220
0.0
230
1.0
 70
     8
 71
     3
 72
    18
 73
    14
 74
     0
 42
0.00000001
 43
0.00000001
 40
0.7499935478516897
 40
0.7499935478516897
 40
0.7499935478516897
 40
0.7499935478516897
 40
0.752117586465523
 40
0.7647920417855404
 40
0.7772081519012203
 40
0.7893556849212618
 40
0.8012239599821006
 40
0.8128036855359224
 40
0.8240829093360648
 40
0.8350546023011844
 40
0.8457095711684692
 40
0.85603785322908
 40
0.8620001997022131
 40
0.8620001997022131
 40
0.8620001997022131
 40
0.8620001997022131
 10
18.15606153329278
 20
9.48917709192167
 30
0.0
 10
18.14479592050849
 20
9.497338523243
 30
0.0
 10
18.06624177257685
 20
9.55411080862337
 30
0.0
 10
17.92094536692669
 20
9.657358861318727
 30
0.0
 10
17.72011876031966
 20
9.79575505794727
 30
0.0
 10
17.5216709383571
 20
9.92825371549266
 30
0.0
 10
17.32579066125984
 20
10.05468328158565
 30
0.0
 10
17.13275268363388
 20
10.17497732708513
 30
0.0
 10
16.94278319542006
 20
10.28903641087324
 30
0.0
 10
16.75611508895367
 20
10.39676659958846
 30
0.0
 10
16.57299229138264
 20
10.49811338633146
 30
0.0
 10
16.41700238332799
 20
10.58066769395288
 30
0.0
 10
16.32191052340175
 20
10.62906034387594
 30
0.0
 10
16.28700093331517
 20
10.64656036086018
 30
0.0
  0
LINE
  5
86
330
1F
100
AcDbEntity
  8
0
  6
Continuous
 62
     7
370
    25
100
AcDbLine
 10
18.1560615333
 20
9.4891770919
 30
0.0
 11
18.0485543999
 21
9.3419496455
 31
0.0
  0
LINE
  5
87
330
1F
100
AcDbEntity
  8
0
  6
Continuous
 62
     7
370
    25
100
AcDbLine
 10
18.0485543999
 20
9.3419496455
 30
0.0
 11
18.199345058
 21
9.2305131509
 31
0.0
  0
LINE
  5
88
330
1F
100
AcDbEntity
  8
0
  6
Continuous
 62
     7
370
    25
100
AcDbLine
 10
18.199345058
 20
9.2305131509
 30
0.0
 11
18.3081809235
 21
9.3777827799
 31
0.0
  0
SPLINE
  5
89
330
1F
100
AcDbEntity
  8
0
  6
Continuous
 62
     7
370
    25
100
AcDbSpline
210
0.0
220
0.0
230
1.0
 70
     8
 71
     3
 72
    17
 73
    13
 74
     0
 42
0.00000001
 43
0.00000001
 40
0.6283684889746887
 40
0.6283684889746887
 40
0.6283684889746887
 40
0.6283684889746887
 40
0.6284474749370552
 40
0.6428886749554992
 40
0.657186053987412
 40
0.6713255457518721
 40
0.6852940138263822
 40
0.6990781474004496
 40
0.7126650949444371
 40
0.7260426447098025
 40
0.7391977130833135
 40
0.7403975408907575
 40
0.7403975408907575
 40
0.7403975408907575
 40
0.7403975408907575
 10
20.00736742382588
 20
7.979865390711356
 30
0.0
 10
20.00698336150372
 20
7.980211955831266
 30
0.0
 10
19.93637835180122
 20
8.043919803866984
 30
0.0
 10
19.79556656064026
 20
8.1695986683801
 30
0.0
 10
19.58405591811243
 20
8.354339073099858
 30
0.0
 10
19.37282164303992
 20
8.534663325261178
 30
0.0
 10
19.1620747309725
 20
8.71035220815683
 30
0.0
 10
18.95209074412451
 20
8.881276296116273
 30
0.0
 10
18.74302860270851
 20
9.047170427212762
 30
0.0
 10
18.53515064206567
 20
9.207895098352893
 30
0.0
 10
18.3900330229273
 20
9.317130729849207
 30
0.0
 10
18.31449737018233
 20
9.373107989877735
 30
0.0
 10
18.30818092351191
 20
9.377782779887843
 30
0.0
  0
LINE
  5
8A
330
1F
100
AcDbEntity
  8
0
  6
Continuous
 62
     7
370
    25
100
AcDbLine
 10
19.506919183
 20
7.4794171499
 30
0.0
 11
20.0073674238
 21
7.9798653907
 31
0.0
  0
LINE
  5
8B
330
1F
100
AcDbEntity
  8
0
  6
Continuous
 62
     7
370
    25
100
AcDbLine
 10
19.6836958783
 20
7.3026404546
 30
0.0
 11
19.506919183
 21
7.4794171499
 31
0.0
  0
LINE
  5
8C
330
1F
100
AcDbEntity
  8
0
  6
Continuous
 62
     7
370
    25
100
AcDbLine
 10
20.19239041
 20
7.8113349863
 30
0.0
 11
19.6836958783
 21
7.3026404546
 31
0.0
  0
SPLINE
  5
8D
330
1F
100
AcDbEntity
  8
0
  6
Continuous
 62
     7
370
    25
100
AcDbSpline
210
0.0
220
0.0
230
1.0
 70
     8
 71
     3
 72
    17
 73
    13
 74
     0
 42
0.00000001
 43
0.00000001
 40
0.4899106917978424
 40
0.4899106917978424
 40
0.4899106917978424
 40
0.4899106917978424
 40
0.4943697397979495
 40
0.5094578326409449
 40
0.5245323463154627
 40
0.5395793198736023
 40
0.5545829838355398
 40
0.5695295460093602
 40
0.5844034168312426
 40
0.5991909918922277
 40
0.6138768380260883
 40
0.6156308206013699
 40
0.6156308206013699
 40
0.6156308206013699
 40
0.6156308206013699
 10
21.94107550447483
 20
6.067548665703292
 30
0.0
 10
21.92118088360995
 20
6.08892817093528
 30
0.0
 10
21.83385391246516
 20
6.182542680742934
 30
0.0
 10
21.67828611642328
 20
6.347514405641744
 30
0.0
 10
21.47329743785075
 20
6.561182338265865
 30
0.0
 10
21.26683682673847
 20
6.772656540919884
 30
0.0
 10
21.05905314776142
 20
6.981651160926024
 30
0.0
 10
20.85016210984367
 20
7.187928819791528
 30
0.0
 10
20.64033622507282
 20
7.391227279835385
 30
0.0
 10
20.42975758625853
 20
7.591275084566842
 30
0.0
 10
20.28007019352026
 20
7.730643712557049
 30
0.0
 10
20.20084755729049
 20
7.803560626287799
 30
0.0
 10
20.19239041003717
 20
7.811334986328925
 30
0.0
  0
LINE
  5
8E
330
1F
100
AcDbEntity
  8
0
  6
Continuous
 62
     7
370
    25
100
AcDbLine
 10
21.9410755045
 20
6.0675486657
 30
0.0
 11
21.8076140188
 21
5.9436343329
 31
0.0
  0
LINE
  5
8F
330
1F
100
AcDbEntity
  8
0
  6
Continuous
 62
     7
370
    25
100
AcDbLine
 10
21.8076140188
 20
5.9436343329
 30
0.0
 11
21.9347985299
 21
5.8058788677
 31
0.0
  0
LINE
  5
90
330
1F
100
AcDbEntity
  8
0
  6
Continuous
 62
     7
370
    25
100
AcDbLine
 10
21.9347985299
 20
5.8058788677
 30
0.0
 11
22.069114206
 21
5.9292271455
 31
0.0
  0
SPLINE
  5
91
330
1F
100
AcDbEntity
  8
0
  6
Continuous
 62
     7
370
    25
100
AcDbSpline
210
0.0
220
0.0
230
1.0
 70
     8
 71
     3
 72
    15
 73
    11
 74
     0
 42
0.00000001
 43
0.00000001
 40
0.384198738080628
 40
0.384198738080628
 40
0.384198738080628
 40
0.384198738080628
 40
0.3896404541172006
 40
0.404403316685164
 40
0.4192566004656613
 40
0.4341867494055215
 40
0.4491772649466113
 40
0.4642147821401647
 40
0.4792840087532322
 40
0.4803176708205791
 40
0.4803176708205791
 40
0.4803176708205791
 40
0.4803176708205791
 10
23.31342632001246
 20
4.508783743264974
 30
0.0
 10
23.29058610747094
 20
4.536143039052165
 30
0.0
 10
23.20565111375972
 20
4.637615808206832
 30
0.0
 10
23.05743118348369
 20
4.81297628233914
 30
0.0
 10
22.86747471843636
 20
5.034418203919515
 30
0.0
 10
22.67493845055404
 20
5.255601619523605
 30
0.0
 10
22.47990096416639
 20
5.476196104422145
 30
0.0
 10
22.28257401319621
 20
5.695970709734896
 30
0.0
 10
22.14511791820767
 20
5.846644222392211
 30
0.0
 10
22.07369999692509
 20
5.924247022416832
 30
0.0
 10
22.06911420600925
 20
5.929227145535573
 30
0.0
  0
LINE
  5
92
330
1F
100
AcDbEntity
  8
0
  6
Continuous
 62
     7
370
    25
100
AcDbLine
 10
23.31342632
 20
4.5087837433
 30
0.0
 11
22.927152868
 21
4.1868668306
 31
0.0
  0
LINE
  5
93
330
1F
100
AcDbEntity
  8
0
  6
Continuous
 62
     7
370
    25
100
AcDbLine
 10
22.927152868
 20
4.1868668306
 30
0.0
 11
23.007175544
 21
4.090846292
 31
0.0
  0
LINE
  5
94
330
1F
100
AcDbEntity
  8
0
  6
Continuous
 62
     7
370
    25
100
AcDbLine
 10
23.007175544
 20
4.090846292
 30
0.0
 11
23.1992349772
 21
4.2507166934
 31
0.0
  0
LINE
  5
95
330
1F
100
AcDbEntity
  8
0
  6
Continuous
 62
     7
370
    25
100
AcDbLine
 10
23.1992349772
 20
4.2507166934
 30
0.0
 11
23.4754640888
 21
3.3423505479
 31
0.0
  0
ARC
  5
96
330
1F
100
AcDbEntity
  8
0
  6
Continuous
 62
     7
370
    25
100
AcDbCircle
 10
22.9970934007
 20
3.1968806722
 30
0.0
 40
0.5000000000000009
100
AcDbArc
 50
246.686096866
 51
16.9142259333
  0
LINE
  5
97
330
1F
100
AcDbEntity
  8
0
  6
Continuous
 62
     7
370
    25
100
AcDbLine
 10
22.03208493
 20
3.0683020963
 30
0.0
 11
22.7992092222
 21
2.7377054857
 31
0.0
  0
LINE
  5
98
330
1F
100
AcDbEntity
  8
0
  6
Continuous
 62
     7
370
    25
100
AcDbLine
 10
22.03208493
 20
3.0683020963
 30
0.0
 11
22.1835392932
 21
3.2672100412
 31
0.0
  0
LINE
  5
99
330
1F
100
AcDbEntity
  8
0
  6
Continuous
 62
     7
370
    25
100
AcDbLine
 10
22.1835392932
 20
3.2672100412
 30
0.0
 11
22.0840833608
 21
3.3429299559
 31
0.0
  0
LINE
  5
9A
330
1F
100
AcDbEntity
  8
0
  6
Continuous
 62
     7
370
    25
100
AcDbLine
 10
22.0840833608
 20
3.3429299559
 30
0.0
 11
21.7808427667
 21
2.9446321486
 31
0.0
  0
SPLINE
  5
9B
330
1F
100
AcDbEntity
  8
0
  6
Continuous
 62
     7
370
    25
100
AcDbSpline
210
0.0
220
0.0
230
1.0
 70
     8
 71
     3
 72
    11
 73
     7
 74
     0
 42
0.00000001
 43
0.00000001
 40
0.5737420474382596
 40
0.5737420474382596
 40
0.5737420474382596
 40
0.5737420474382596
 40
0.5864660402123244
 40
0.6014845155046507
 40
0.6164243286560682
 40
0.6206849948570246
 40
0.6206849948570246
 40
0.6206849948570246
 40
0.6206849948570246
 10
21.07626078257251
 20
3.480292847614642
 30
0.0
 10
21.13993706668926
 20
3.431917555377487
 30
0.0
 10
21.27877607609502
 20
3.326448684841394
 30
0.0
 10
21.49232651323967
 20
3.16410944591957
 30
0.0
 10
21.6635034342943
 20
3.033921362631191
 30
0.0
 10
21.75953420083276
 20
2.960848675236151
 30
0.0
 10
21.78084276669222
 20
2.944632148610686
 30
0.0
  0
LINE
  5
9C
330
1F
100
AcDbEntity
  8
0
  6
Continuous
 62
     7
370
    25
100
AcDbLine
 10
21.5320793925
 20
3.9361114576
 30
0.0
 11
21.0762607826
 21
3.4802928476
 31
0.0
  0
LINE
  5
9D
330
1F
100
AcDbEntity
  8
0
  6
Continuous
 62
     7
370
    25
100
AcDbLine
 10
21.4613687144
 20
4.0068221357
 30
0.0
 11
21.5320793925
 21
3.9361114576
 31
0.0
  0
LINE
  5
9E
330
1F
100
AcDbEntity
  8
0
  6
Continuous
 62
     7
370
    25
100
AcDbLine
 10
20.9958961043
 20
3.5413495256
 30
0.0
 11
21.4613687144
 21
4.0068221357
 31
0.0
  0
SPLINE
  5
9F
330
1F
100
AcDbEntity
  8
0
  6
Continuous
 62
     7
370
    25
100
AcDbSpline
210
0.0
220
0.0
230
1.0
 70
     8
 71
     3
 72
    20
 73
    16
 74
     0
 42
0.00000001
 43
0.00000001
 40
0.3888167210850906
 40
0.3888167210850906
 40
0.3888167210850906
 40
0.3888167210850906
 40
0.3905971921103772
 40
0.4053325934230506
 40
0.4201748233448878
 40
0.4351095326102803
 40
0.4501242755326111
 40
0.4652030675421724
 40
0.480333153799201
 40
0.4955005831875167
 40
0.5106897747567307
 40
0.5258873344228772
 40
0.5410783140474652
 40
0.5562472333498166
 40
0.5683890413770973
 40
0.5683890413770973
 40
0.5683890413770973
 40
0.5683890413770973
 10
18.31075091552274
 20
5.603598584094525
 30
0.0
 10
18.31954545768563
 20
5.596679764685598
 30
0.0
 10
18.40113692630199
 20
5.53251542968363
 30
0.0
 10
18.55626089186072
 20
5.4109550026702
 30
0.0
 10
18.77695477312875
 20
5.239039083751792
 30
0.0
 10
18.99946278714748
 20
5.066596846990248
 30
0.0
 10
19.2234894544916
 20
4.893688032328679
 30
0.0
 10
19.44885189198855
 20
4.720501356145373
 30
0.0
 10
19.67519662809099
 20
4.547018554197496
 30
0.0
 10
19.90235264440043
 20
4.373454189739602
 30
0.0
 10
20.13000772667368
 20
4.19984484711282
 30
0.0
 10
20.35789215794969
 20
4.026292255564007
 30
0.0
 10
20.58580207535027
 20
3.852983557111683
 30
0.0
 10
20.79847285664723
 20
3.691362448377869
 30
0.0
 10
20.93513573139902
 20
3.587514584778449
 30
0.0
 10
20.99589610432034
 20
3.54134952559975
 30
0.0
  0
LINE
  5
A0
330
1F
100
AcDbEntity
  8
0
  6
Continuous
 62
     7
370
    25
100
AcDbLine
 10
18.3107509155
 20
5.6035985841
 30
0.0
 11
18.4256500188
 21
5.749272995
 31
0.0
  0
LINE
  5
A1
330
1F
100
AcDbEntity
  8
0
  6
Continuous
 62
     7
370
    25
100
AcDbLine
 10
18.4256500188
 20
5.749272995
 30
0.0
 11
18.2784320076
 21
5.8653897146
 31
0.0
  0
LINE
  5
A2
330
1F
100
AcDbEntity
  8
0
  6
Continuous
 62
     7
370
    25
100
AcDbLine
 10
18.2784320076
 20
5.8653897146
 30
0.0
 11
18.1633253443
 21
5.7198467878
 31
0.0
  0
SPLINE
  5
A3
330
1F
100
AcDbEntity
  8
0
  6
Continuous
 62
     7
370
    25
100
AcDbSpline
210
0.0
220
0.0
230
1.0
 70
     8
 71
     3
 72
    22
 73
    18
 74
     0
 42
0.00000001
 43
0.00000001
 40
0.2001826783923605
 40
0.2001826783923605
 40
0.2001826783923605
 40
0.2001826783923605
 40
0.2026269738014821
 40
0.2145604781132115
 40
0.2267672493682198
 40
0.2392364169383361
 40
0.2519590037357125
 40
0.264923894487755
 40
0.2781197025314079
 40
0.291536035168929
 40
0.3051602795707027
 40
0.3189806851080141
 40
0.3329854989440796
 40
0.3471627904224897
 40
0.3614986025750235
 40
0.3759807467613205
 40
0.3788591328299444
 40
0.3788591328299444
 40
0.3788591328299444
 40
0.3788591328299444
 10
15.59657144477796
 20
7.900098446431373
 30
0.0
 10
15.60772103042505
 20
7.889530710482299
 30
0.0
 10
15.67337466282822
 20
7.827442872563829
 30
0.0
 10
15.79551510118431
 20
7.713434135372926
 30
0.0
 10
15.96524717902621
 20
7.558093421120355
 30
0.0
 10
16.14005891680597
 20
7.400972153417261
 30
0.0
 10
16.3197714767102
 20
7.242189202556638
 30
0.0
 10
16.50418953470666
 20
7.081847132007081
 30
0.0
 10
16.693066878291
 20
6.919999074808232
 30
0.0
 10
16.88621049943032
 20
6.756770625948713
 30
0.0
 10
17.08337780833468
 20
6.59222999832787
 30
0.0
 10
17.28432702956601
 20
6.426455639891964
 30
0.0
 10
17.4888440781384
 20
6.25955030757811
 30
0.0
 10
17.69667656823474
 20
6.091589462862125
 30
0.0
 10
17.90759254035139
 20
5.9226758579119
 30
0.0
 10
18.06355941577344
 20
5.798751672895985
 30
0.0
 10
18.14913321910197
 20
5.731064395238763
 30
0.0
 10
18.16332534429819
 20
5.719846787840098
 30
0.0
  0
LINE
  5
A4
330
1F
100
AcDbEntity
  8
0
  6
Continuous
 62
     7
370
    25
100
AcDbLine
 10
16.0446897525
 20
8.3482167541
 30
0.0
 11
15.5965714448
 21
7.9000984464
 31
0.0
  0
LINE
  5
A5
330
1F
100
AcDbEntity
  8
0
  6
Continuous
 62
     7
370
    25
100
AcDbLine
 10
15.9563014048
 20
8.4366051018
 30
0.0
 11
16.0446897525
 21
8.3482167541
 31
0.0
  0
LINE
  5
A6
330
1F
100
AcDbEntity
  8
0
  6
Continuous
 62
     7
370
    25
100
AcDbLine
 10
15.5060870972
 20
7.9863907941
 30
0.0
 11
15.9563014048
 21
8.4366051018
 31
0.0
  0
SPLINE
  5
A7
330
1F
100
AcDbEntity
  8
0
  6
Continuous
 62
     7
370
    25
100
AcDbSpline
210
0.0
220
0.0
230
1.0
 70
     8
 71
     3
 72
    17
 73
    13
 74
     0
 42
0.00000001
 43
0.00000001
 40
0.1059644128538436
 40
0.1059644128538436
 40
0.1059644128538436
 40
0.1059644128538436
 40
0.1089998673878562
 40
0.1180845294547093
 40
0.127514842648241
 40
0.1372852704083716
 40
0.1473879174721775
 40
0.1578164805418144
 40
0.168563472829953
 40
0.1796191282234925
 40
0.1909773731643717
 40
0.193551082535625
 40
0.193551082535625
 40
0.193551082535625
 40
0.193551082535625
 10
14.38167438186375
 20
9.194258921435082
 30
0.0
 10
14.39356278563861
 20
9.179338444802662
 30
0.0
 10
14.44125234938433
 20
9.119939233465505
 30
0.0
 10
14.52754275569673
 20
9.01553412381962
 30
0.0
 10
14.64339006585461
 20
8.88068457267495
 30
0.0
 10
14.76584558770336
 20
8.743116671931245
 30
0.0
 10
14.89475916147953
 20
8.60293266193954
 30
0.0
 10
15.03002332588072
 20
8.460282848754858
 30
0.0
 10
15.17144441544656
 20
8.315245751965932
 30
0.0
 10
15.31886585011379
 20
8.167923669662322
 30
0.0
 10
15.43131386893467
 20
8.05829346081884
 30
0.0
 10
15.49441625714207
 20
7.997590470093339
 30
0.0
 10
15.50608709717927
 20
7.986390794129473
 30
0.0
  0
LINE
  5
A8
330
1F
100
AcDbEntity
  8
0
  6
Continuous
 62
     7
370
    25
100
AcDbLine
 10
14.3816743819
 20
9.1942589214
 30
0.0
 11
14.5412275387
 21
9.3126513904
 31
0.0
  0
LINE
  5
A9
330
1F
100
AcDbEntity
  8
0
  6
Continuous
 62
     7
370
    25
100
AcDbLine
 10
14.4295512765
 20
9.4628805092
 30
0.0
 11
14.5412275387
 21
9.3126513904
 31
0.0
  0
LINE
  5
AA
330
1F
100
AcDbEntity
  8
0
  6
Continuous
 62
     7
370
    25
100
AcDbLine
 10
14.4295512765
 20
9.4628805092
 30
0.0
 11
14.2670018461
 21
9.3419810929
 31
0.0
  0
SPLINE
  5
AB
330
1F
100
AcDbEntity
  8
0
  6
Continuous
 62
     7
370
    25
100
AcDbSpline
210
0.0
220
0.0
230
1.0
 70
     8
 71
     3
 72
    24
 73
    20
 74
     0
 42
0.00000001
 43
0.00000001
 40
0.005540770176367
 40
0.005540770176367
 40
0.005540770176367
 40
0.005540770176367
 40
0.0072932310953357
 40
0.0110281363923574
 40
0.0149010810914713
 40
0.018963271772157
 40
0.0232584754107811
 40
0.0278206260443948
 40
0.0326790824243871
 40
0.0378531598505932
 40
0.0433618746940285
 40
0.0492146789836328
 40
0.0554223461694567
 40
0.0619887859844224
 40
0.0689180360513662
 40
0.0762111572855069
 40
0.0838683922149218
 40
0.0918874108771529
 40
0.0960458632657738
 40
0.0960458632657738
 40
0.0960458632657738
 40
0.0960458632657738
 10
13.70473113062789
 20
10.88523176992929
 30
0.0
 10
13.70035219649896
 20
10.8751114107787
 30
0.0
 10
13.68773333628476
 20
10.84292350764374
 30
0.0
 10
13.67129755054879
 20
10.78631322016086
 30
0.0
 10
13.65980819116414
 20
10.71368248410252
 30
0.0
 10
13.656414115452
 20
10.63675229430245
 30
0.0
 10
13.6609923427918
 20
10.55556208375695
 30
0.0
 10
13.6735214163802
 20
10.47017450543975
 30
0.0
 10
13.69395383530202
 20
10.38067021576478
 30
0.0
 10
13.72217308797863
 20
10.28709240321945
 30
0.0
 10
13.75813104395756
 20
10.18952983565118
 30
0.0
 10
13.80177645622598
 20
10.08805301068492
 30
0.0
 10
13.85306892046976
 20
9.98277963847679
 30
0.0
 10
13.91187162859842
 20
9.873764316419527
 30
0.0
 10
13.97816598486373
 20
9.761148002581
 30
0.0
 10
14.05181790038322
 20
9.645000045978612
 30
0.0
 10
14.1327903344876
 20
9.525465958970297
 30
0.0
 10
14.20548737191607
 20
9.424184193823494
 30
0.0
 10
14.25125143064836
 20
9.362837651303671
 30
0.0
 10
14.2670018461138
 20
9.341981092910382
 30
0.0
  0
SPLINE
  5
AC
330
1F
100
AcDbEntity
  8
0
  6
Continuous
 62
     7
370
    25
100
AcDbSpline
210
0.0
220
0.0
230
1.0
 70
     8
 71
     3
 72
    11
 73
     7
 74
     0
 42
0.00000001
 43
0.00000001
 40
0.1059644128538436
 40
0.1059644128538436
 40
0.1059644128538436
 40
0.1059644128538436
 40
0.1169127465640663
 40
0.127861080274289
 40
0.1497577476947343
 40
0.1668083793443548
 40
0.1668083793443548
 40
0.1668083793443548
 40
0.1668083793443548
 10
14.69451200818347
 20
9.443523077620132
 30
0.0
 10
14.7353272083828
 20
9.392298182137592
 30
0.0
 10
14.81810816397381
 20
9.291204853509004
 30
0.0
 10
14.99005656715453
 20
9.09075239502996
 30
0.0
 10
15.19404996118339
 20
8.86680059542687
 30
0.0
 10
15.35918361261133
 20
8.695391287881375
 30
0.0
 10
15.43237570144499
 20
8.620966808083045
 30
0.0
  0
ARC
  5
AD
330
1F
100
AcDbEntity
  8
0
  6
Continuous
 62
     7
370
    25
100
AcDbCircle
 10
15.5036742297
 20
8.6910847078
 30
0.0
 40
0.1000000000000007
100
AcDbArc
 50
224.5216718475
 51
315.0
  0
LINE
  5
AE
330
1F
100
AcDbEntity
  8
0
  6
Continuous
 62
     7
370
    25
100
AcDbLine
 10
15.5743849078
 20
8.6203740297
 30
0.0
 11
15.760571514
 21
8.8065606359
 31
0.0
  0
ARC
  5
AF
330
1F
100
AcDbEntity
  8
0
  6
Continuous
 62
     7
370
    25
100
AcDbCircle
 10
15.6898608359
 20
8.877271314
 30
0.0
 40
0.1000000000000011
100
AcDbArc
 50
315.0
 51
353.2871337742
  0
LINE
  5
B0
330
1F
100
AcDbEntity
  8
0
  6
Continuous
 62
     7
370
    25
100
AcDbLine
 10
15.956392816
 20
10.2862836697
 30
0.0
 11
15.7891752784
 21
8.8655819382
 31
0.0
  0
ARC
  5
B1
330
1F
100
AcDbEntity
  8
0
  6
Continuous
 62
     7
370
    25
100
AcDbCircle
 10
15.8570783734
 20
10.2979730456
 30
0.0
 40
0.1000000000000007
100
AcDbArc
 50
353.2871337742
 51
67.9383540631
  0
ARC
  5
B2
330
1F
100
AcDbEntity
  8
0
  6
Continuous
 62
     7
370
    25
100
AcDbCircle
 10
15.5365484563
 20
9.5070846696
 30
0.0
 40
0.953372047254994
100
AcDbArc
 50
67.9383540631
 51
172.8878501287
  0
ARC
  5
B3
330
1F
100
AcDbEntity
  8
0
  6
Continuous
 62
     7
370
    25
100
AcDbCircle
 10
14.6897425051
 20
9.6127422869
 30
0.0
 40
0.1000000000000014
100
AcDbArc
 50
172.8878501287
 51
217.8222281664
  0
LINE
  5
B4
330
1F
100
AcDbEntity
  8
0
  6
Continuous
 62
     7
370
    25
100
AcDbLine
 10
14.6945120082
 20
9.4435230776
 30
0.0
 11
14.6107507879
 21
9.5514209317
 31
0.0
  0
LINE
  5
B5
330
1F
100
AcDbEntity
  8
0
  6
Continuous
 62
     7
370
    25
100
AcDbLine
 10
21.6482466392
 20
5.7950578298
 30
0.0
 11
21.7748618773
 21
5.6582740739
 31
0.0
  0
SPLINE
  5
B6
330
1F
100
AcDbEntity
  8
0
  6
Continuous
 62
     7
370
    25
100
AcDbSpline
210
0.0
220
0.0
230
1.0
 70
     8
 71
     3
 72
    11
 73
     7
 74
     0
 42
0.00000001
 43
0.00000001
 40
0.4899106917978424
 40
0.4899106917978424
 40
0.4899106917978424
 40
0.4899106917978424
 40
0.5213407239987242
 40
0.5527707561996061
 40
0.5842007884004881
 40
0.590805328286813
 40
0.590805328286813
 40
0.590805328286813
 40
0.590805328286813
 10
21.64824663921532
 20
5.795057829764112
 30
0.0
 10
21.50963199867494
 20
5.944018317766919
 30
0.0
 10
21.22975122682823
 20
6.239625027217518
 30
0.0
 10
20.80234595479751
 20
6.674865681833014
 30
0.0
 10
20.48152693648251
 20
6.989195990730988
 30
0.0
 10
20.30387340049519
 20
7.158930699019315
 30
0.0
 10
20.27296065858711
 20
7.188334732220745
 30
0.0
  0
ARC
  5
B7
330
1F
100
AcDbEntity
  8
0
  6
Continuous
 62
     7
370
    25
100
AcDbCircle
 10
20.2040402296
 20
7.1158780247
 30
0.0
 40
0.1000000000000029
100
AcDbArc
 50
46.4328455106
 51
135.0
  0
LINE
  5
B8
330
1F
100
AcDbEntity
  8
0
  6
Continuous
 62
     7
370
    25
100
AcDbLine
 10
19.8543837207
 20
6.9076428721
 30
0.0
 11
20.1333295515
 21
7.1865887028
 31
0.0
  0
ARC
  5
B9
330
1F
100
AcDbEntity
  8
0
  6
Continuous
 62
     7
370
    25
100
AcDbCircle
 10
19.9250943989
 20
6.836932194
 30
0.0
 40
0.0999999999999979
100
AcDbArc
 50
135.0
 51
219.3964534957
  0
LINE
  5
BA
330
1F
100
AcDbEntity
  8
0
  6
Continuous
 62
     7
370
    25
100
AcDbLine
 10
22.0424339528
 20
4.1013564557
 30
0.0
 11
19.8478171128
 21
6.7734639258
 31
0.0
  0
ARC
  5
BB
330
1F
100
AcDbEntity
  8
0
  6
Continuous
 62
     7
370
    25
100
AcDbCircle
 10
22.1197112389
 20
4.1648247238
 30
0.0
 40
0.1000000000000009
100
AcDbArc
 50
219.3964534957
 51
309.8075292137
  0
LINE
  5
BC
330
1F
100
AcDbEntity
  8
0
  6
Continuous
 62
     7
370
    25
100
AcDbLine
 10
22.1837323043
 20
4.0880047838
 30
0.0
 11
22.6705374186
 21
4.4937039035
 31
0.0
  0
ARC
  5
BD
330
1F
100
AcDbEntity
  8
0
  6
Continuous
 62
     7
370
    25
100
AcDbCircle
 10
22.6065163533
 20
4.5705238436
 30
0.0
 40
0.1000000000000018
100
AcDbArc
 50
309.8075292137
 51
40.5685601273
  0
SPLINE
  5
BE
330
1F
100
AcDbEntity
  8
0
  6
Continuous
 62
     7
370
    25
100
AcDbSpline
210
0.0
220
0.0
230
1.0
 70
     8
 71
     3
 72
    10
 73
     6
 74
     0
 42
0.00000001
 43
0.00000001
 40
0.4099859706438948
 40
0.4099859706438948
 40
0.4099859706438948
 40
0.4099859706438948
 40
0.4322582044506036
 40
0.4562879376355914
 40
0.4803176708205791
 40
0.4803176708205791
 40
0.4803176708205791
 40
0.4803176708205791
 10
22.68247918245335
 20
4.635559592060167
 30
0.0
 10
22.5885543710914
 20
4.74526532417931
 30
0.0
 10
22.39207796140534
 20
4.972238060312375
 30
0.0
 10
22.08970522535434
 20
5.313354597944076
 30
0.0
 10
21.88031669952225
 20
5.543751190510411
 30
0.0
 10
21.77486187726278
 20
5.658274073902716
 30
0.0
  0
ARC
  5
BF
330
1F
100
AcDbEntity
  8
0
  6
Continuous
 62
     7
370
    25
100
AcDbCircle
 10
20.9509406584
 20
4.2035008608
 30
0.0
 40
0.1000000000000002
100
AcDbArc
 50
232.7616577328
 51
315.0
  0
LINE
  5
C0
330
1F
100
AcDbEntity
  8
0
  6
Continuous
 62
     7
370
    25
100
AcDbLine
 10
21.0216513365
 20
4.1327901827
 30
0.0
 11
21.290680872
 21
4.4018197182
 31
0.0
  0
ARC
  5
C1
330
1F
100
AcDbEntity
  8
0
  6
Continuous
 62
     7
370
    25
100
AcDbCircle
 10
21.2199701939
 20
4.4725303963
 30
0.0
 40
0.0999999999999967
100
AcDbArc
 50
315.0
 51
39.3964534957
  0
LINE
  5
C2
330
1F
100
AcDbEntity
  8
0
  6
Continuous
 62
     7
370
    25
100
AcDbLine
 10
19.4324820749
 20
6.8064877439
 30
0.0
 11
21.2972474799
 21
4.5359986644
 31
0.0
  0
ARC
  5
C3
330
1F
100
AcDbEntity
  8
0
  6
Continuous
 62
     7
370
    25
100
AcDbCircle
 10
19.3552047888
 20
6.7430194758
 30
0.0
 40
0.1000000000000012
100
AcDbArc
 50
39.3964534957
 51
143.8337881808
  0
LINE
  5
C4
330
1F
100
AcDbEntity
  8
0
  6
Continuous
 62
     7
370
    25
100
AcDbLine
 10
19.2744739427
 20
6.8020324446
 30
0.0
 11
18.659661272
 21
5.9609572018
 31
0.0
  0
ARC
  5
C5
330
1F
100
AcDbEntity
  8
0
  6
Continuous
 62
     7
370
    25
100
AcDbCircle
 10
18.740392118
 20
5.901944233
 30
0.0
 40
0.1000000000000031
100
AcDbArc
 50
143.8337881808
 51
231.9051486658
  0
SPLINE
  5
C6
330
1F
100
AcDbEntity
  8
0
  6
Continuous
 62
     7
370
    25
100
AcDbSpline
210
0.0
220
0.0
230
1.0
 70
     8
 71
     3
 72
    11
 73
     7
 74
     0
 42
0.00000001
 43
0.00000001
 40
0.3969867627474797
 40
0.3969867627474797
 40
0.3969867627474797
 40
0.3969867627474797
 40
0.4337098011580923
 40
0.478602881231094
 40
0.5234959613040957
 40
0.5452392506982114
 40
0.5452392506982114
 40
0.5452392506982114
 40
0.5452392506982114
 10
18.67869560226501
 20
5.823245186320706
 30
0.0
 10
18.85955927320535
 20
5.681456196436271
 30
0.0
 10
19.26285020233622
 20
5.367737277923694
 30
0.0
 10
19.89187114975311
 20
4.884303386733933
 30
0.0
 10
20.44851154526317
 20
4.459895276843562
 30
0.0
 10
20.78167165865919
 20
4.206553259206591
 30
0.0
 10
20.8904274567343
 20
4.123888346562106
 30
0.0
  0
MTEXT
  5
C8
330
1F
100
AcDbEntity
  8
PART_NAMES
100
AcDbMText
 10
14.1934391604
 20
10.7432349011
 30
0.0
 40
0.1666666667
 41
0.0
 71
     1
 72
     1
  1
1.2.2.1.6
  7
SLDTEXTSTYLE0
 73
     1
 44
1.0
  0
MTEXT
  5
C9
330
1F
100
AcDbEntity
  8
PART_NAMES
100
AcDbMText
 10
17.073907882
 20
2.8746374176
 30
0.0
 40
0.1666666667
 41
0.0
 71
     1
 72
     1
  1
1.2.2.1.4
  7
SLDTEXTSTYLE0
 73
     1
 44
1.0
  0
LINE
  5
CA
330
1F
100
AcDbEntity
  8
0
  6
Continuous
 62
     7
370
    25
100
AcDbLine
 10
12.2911811878
 20
5.8461738907
 30
0.0
 11
12.3585117409
 21
5.350718049
 31
0.0
  0
LINE
  5
CB
330
1F
100
AcDbEntity
  8
0
  6
Continuous
 62
     7
370
    25
100
AcDbLine
 10
12.1673196784
 20
5.8293415855
 30
0.0
 11
12.2911811878
 21
5.8461738907
 31
0.0
  0
LINE
  5
CC
330
1F
100
AcDbEntity
  8
0
  6
Continuous
 62
     7
370
    25
100
AcDbLine
 10
12.234648899
 20
5.333895548
 30
0.0
 11
12.1673196784
 21
5.8293415855
 31
0.0
  0
SPLINE
  5
CD
330
1F
100
AcDbEntity
  8
0
  6
Continuous
 62
     7
370
    25
100
AcDbSpline
210
0.0
220
0.0
230
1.0
 70
     8
 71
     3
 72
    11
 73
     7
 74
     0
 42
0.00000001
 43
0.00000001
 40
0.5679348322074338
 40
0.5679348322074338
 40
0.5679348322074338
 40
0.5679348322074338
 40
0.5713817846092852
 40
0.5864660402123244
 40
0.6014845155046507
 40
0.613265105285581
 40
0.613265105285581
 40
0.613265105285581
 40
0.613265105285581
 10
11.35754474690869
 20
5.214339959042307
 30
0.0
 10
11.37977610146379
 20
5.217374436981408
 30
0.0
 10
11.49929412017235
 20
5.233690120481924
 30
0.0
 10
11.71567146832797
 20
5.263251667104845
 30
0.0
 10
11.98581004418035
 20
5.30005533859797
 30
0.0
 10
12.15866309334886
 20
5.323569367772333
 30
0.0
 10
12.23464889904572
 20
5.333895548026524
 30
0.0
  0
LINE
  5
CE
330
1F
100
AcDbEntity
  8
0
  6
Continuous
 62
     7
370
    25
100
AcDbLine
 10
11.3575447469
 20
5.878711676
 30
0.0
 11
11.3575447469
 21
5.214339959
 31
0.0
  0
LINE
  5
CF
330
1F
100
AcDbEntity
  8
0
  6
Continuous
 62
     7
370
    25
100
AcDbLine
 10
11.2575447469
 20
5.878711676
 30
0.0
 11
11.3575447469
 21
5.878711676
 31
0.0
  0
LINE
  5
D0
330
1F
100
AcDbEntity
  8
0
  6
Continuous
 62
     7
370
    25
100
AcDbLine
 10
11.2575447469
 20
5.2006927168
 30
0.0
 11
11.2575447469
 21
5.878711676
 31
0.0
  0
SPLINE
  5
D1
330
1F
100
AcDbEntity
  8
0
  6
Continuous
 62
     7
370
    25
100
AcDbSpline
210
0.0
220
0.0
230
1.0
 70
     8
 71
     3
 72
    20
 73
    16
 74
     0
 42
0.00000001
 43
0.00000001
 40
0.3892962330305003
 40
0.3892962330305003
 40
0.3892962330305003
 40
0.3892962330305003
 40
0.3905971921103772
 40
0.4053325934230506
 40
0.4201748233448878
 40
0.4351095326102803
 40
0.4501242755326111
 40
0.4652030675421724
 40
0.480333153799201
 40
0.4955005831875167
 40
0.5106897747567307
 40
0.5258873344228772
 40
0.5410783140474652
 40
0.5562472333498166
 40
0.5627665434640513
 40
0.5627665434640513
 40
0.5627665434640513
 40
0.5627665434640513
 10
7.898764443471006
 20
4.760457205456566
 30
0.0
 10
7.907173073831907
 20
4.761461823533358
 30
0.0
 10
8.010820918165852
 20
4.773859606951745
 30
0.0
 10
8.210358672087171
 20
4.798064778167658
 30
0.0
 10
8.497895753466896
 20
4.833788473610312
 30
0.0
 10
8.787146919244279
 20
4.870455330786839
 30
0.0
 10
9.07785201610577
 20
4.907892700306798
 30
0.0
 10
9.369738894323483
 20
4.946104854256516
 30
0.0
 10
9.66256205689262
 20
4.984819543129983
 30
0.0
 10
9.956039113961744
 20
5.024068658033366
 30
0.0
 10
10.24991461463054
 20
5.063650334882933
 30
0.0
 10
10.54391652147547
 20
5.103441543899447
 30
0.0
 10
10.83775847280417
 20
5.143430039165487
 30
0.0
 10
11.07561680352365
 20
5.175871537961116
 30
0.0
 10
11.21549776617081
 20
5.194955330206676
 30
0.0
 10
11.2575447469087
 20
5.200692716761265
 30
0.0
  0
LINE
  5
D2
330
1F
100
AcDbEntity
  8
0
  6
Continuous
 62
     7
370
    25
100
AcDbLine
 10
7.8987644435
 20
4.7604572055
 30
0.0
 11
7.8771654563
 21
4.9435081158
 31
0.0
  0
LINE
  5
D3
330
1F
100
AcDbEntity
  8
0
  6
Continuous
 62
     7
370
    25
100
AcDbLine
 10
7.8771654563
 20
4.9435081158
 30
0.0
 11
7.6909572599
 21
4.9215366714
 31
0.0
  0
LINE
  5
D4
330
1F
100
AcDbEntity
  8
0
  6
Continuous
 62
     7
370
    25
100
AcDbLine
 10
7.6909572599
 20
4.9215366714
 30
0.0
 11
7.7123731553
 21
4.7383896421
 31
0.0
  0
SPLINE
  5
D5
330
1F
100
AcDbEntity
  8
0
  6
Continuous
 62
     7
370
    25
100
AcDbSpline
210
0.0
220
0.0
230
1.0
 70
     8
 71
     3
 72
    21
 73
    17
 74
     0
 42
0.00000001
 43
0.00000001
 40
0.2072406759317427
 40
0.2072406759317427
 40
0.2072406759317427
 40
0.2072406759317427
 40
0.2145604781132115
 40
0.2267672493682198
 40
0.2392364169383361
 40
0.2519590037357125
 40
0.264923894487755
 40
0.2781197025314079
 40
0.291536035168929
 40
0.3051602795707027
 40
0.3189806851080141
 40
0.3329854989440796
 40
0.3471627904224897
 40
0.3614986025750235
 40
0.3759807467613205
 40
0.3796848080372962
 40
0.3796848080372962
 40
0.3796848080372962
 40
0.3796848080372962
 10
4.357544746909129
 20
4.457580466946491
 30
0.0
 10
4.405166148003918
 20
4.459157907728233
 30
0.0
 10
4.532189390060694
 20
4.463770627180827
 30
0.0
 10
4.740260792931418
 20
4.472982198509079
 30
0.0
 10
4.983359787314185
 20
4.485938233054488
 30
0.0
 10
5.231264987793763
 20
4.501266527702152
 30
0.0
 10
5.483758229407058
 20
4.518899147057378
 30
0.0
 10
5.740620279358537
 20
4.538694684803422
 30
0.0
 10
6.001617801183157
 20
4.560603769401471
 30
0.0
 10
6.266523171173795
 20
4.584498691807671
 30
0.0
 10
6.535101866154339
 20
4.610259835266974
 30
0.0
 10
6.807121839441868
 20
4.637805666047365
 30
0.0
 10
7.082342984310336
 20
4.667006609419213
 30
0.0
 10
7.360520166743484
 20
4.69776803733145
 30
0.0
 10
7.570844772019997
 20
4.721846570604798
 30
0.0
 10
7.688426120566064
 20
4.73558148637378
 30
0.0
 10
7.712373155252873
 20
4.738389642086379
 30
0.0
  0
LINE
  5
D6
330
1F
100
AcDbEntity
  8
0
  6
Continuous
 62
     7
370
    25
100
AcDbLine
 10
4.3575447469
 20
5.1151742032
 30
0.0
 11
4.3575447469
 21
4.457580467
 31
0.0
  0
LINE
  5
D7
330
1F
100
AcDbEntity
  8
0
  6
Continuous
 62
     7
370
    25
100
AcDbLine
 10
4.2325447469
 20
5.1151742032
 30
0.0
 11
4.3575447469
 21
5.1151742032
 31
0.0
  0
LINE
  5
D8
330
1F
100
AcDbEntity
  8
0
  6
Continuous
 62
     7
370
    25
100
AcDbLine
 10
4.2325447469
 20
4.4537951783
 30
0.0
 11
4.2325447469
 21
5.1151742032
 31
0.0
  0
SPLINE
  5
D9
330
1F
100
AcDbEntity
  8
0
  6
Continuous
 62
     7
370
    25
100
AcDbSpline
210
0.0
220
0.0
230
1.0
 70
     8
 71
     3
 72
    16
 73
    12
 74
     0
 42
0.00000001
 43
0.00000001
 40
0.1093759128295807
 40
0.1093759128295807
 40
0.1093759128295807
 40
0.1093759128295807
 40
0.1180845294547093
 40
0.127514842648241
 40
0.1372852704083716
 40
0.1473879174721775
 40
0.1578164805418144
 40
0.168563472829953
 40
0.1796191282234925
 40
0.1909773731643717
 40
0.2008367331964279
 40
0.2008367331964279
 40
0.2008367331964279
 40
0.2008367331964279
 10
2.44843861048736
 20
4.50428436963536
 30
0.0
 10
2.504818110886778
 20
4.498372542316894
 30
0.0
 10
2.622373677303693
 20
4.487251511272506
 30
0.0
 10
2.803536504495491
 20
4.473519788895685
 30
0.0
 10
2.993970813539984
 20
4.462451880458104
 30
0.0
 10
3.191050799333027
 20
4.454197709691734
 30
0.0
 10
3.394587679848299
 20
4.448788654965406
 30
0.0
 10
3.604382113921683
 20
4.446140386474193
 30
0.0
 10
3.82024450600957
 20
4.446213149529649
 30
0.0
 10
4.030311023013582
 20
4.448878550518105
 30
0.0
 10
4.16839027328272
 20
4.452037889991403
 30
0.0
 10
4.232544746908976
 20
4.453795178328892
 30
0.0
  0
LINE
  5
DA
330
1F
100
AcDbEntity
  8
0
  6
Continuous
 62
     7
370
    25
100
AcDbLine
 10
2.4484386105
 20
4.5042843696
 30
0.0
 11
2.4493830646
 21
4.5112181838
 31
0.0
  0
LINE
  5
DB
330
1F
100
AcDbEntity
  8
0
  6
Continuous
 62
     7
370
    25
100
AcDbLine
 10
2.4493830646
 20
4.5112181838
 30
0.0
 11
2.4752339687
 21
4.6985567287
 31
0.0
  0
LINE
  5
DC
330
1F
100
AcDbEntity
  8
0
  6
Continuous
 62
     7
370
    25
100
AcDbLine
 10
2.4752339687
 20
4.6985567287
 30
0.0
 11
2.2897520317
 21
4.724002007
 31
0.0
  0
LINE
  5
DD
330
1F
100
AcDbEntity
  8
0
  6
Continuous
 62
     7
370
    25
100
AcDbLine
 10
2.2897520317
 20
4.724002007
 30
0.0
 11
2.2641939469
 21
4.5373761382
 31
0.0
  0
LINE
  5
DE
330
1F
100
AcDbEntity
  8
0
  6
Continuous
 62
     7
370
    25
100
AcDbLine
 10
2.2641939469
 20
4.5373761382
 30
0.0
 11
2.2626282368
 21
4.5259629819
 31
0.0
  0
SPLINE
  5
DF
330
1F
100
AcDbEntity
  8
0
  6
Continuous
 62
     7
370
    25
100
AcDbSpline
210
0.0
220
0.0
230
1.0
 70
     8
 71
     3
 72
    24
 73
    20
 74
     0
 42
0.00000001
 43
0.00000001
 40
0.0051696011917107
 40
0.0051696011917107
 40
0.0051696011917107
 40
0.0051696011917107
 40
0.0072932310953357
 40
0.0110281363923574
 40
0.0149010810914713
 40
0.018963271772157
 40
0.0232584754107811
 40
0.0278206260443948
 40
0.0326790824243871
 40
0.0378531598505932
 40
0.0433618746940285
 40
0.0492146789836328
 40
0.0554223461694567
 40
0.0619887859844224
 40
0.0689180360513662
 40
0.0762111572855069
 40
0.0838683922149218
 40
0.0918874108771529
 40
0.0997963162853839
 40
0.0997963162853839
 40
0.0997963162853839
 40
0.0997963162853839
 10
0.6453888596700288
 20
5.260914105195077
 30
0.0
 10
0.6502892017231072
 20
5.247975334154328
 30
0.0
 10
0.6653798249270163
 20
5.212835439265147
 30
0.0
 10
0.6959692869148905
 20
5.157217074806821
 30
0.0
 10
0.7407476215156646
 20
5.095609731542396
 30
0.0
 10
0.7946035354811547
 20
5.036782354186088
 30
0.0
 10
0.8574180813542501
 20
4.980673754657459
 30
0.0
 10
0.9291296593485857
 20
4.927314103947095
 30
0.0
 10
1.009644410410337
 20
4.876727684269423
 30
0.0
 10
1.098845374415572
 20
4.828860795722812
 30
0.0
 10
1.196632290653586
 20
4.783743200065442
 30
0.0
 10
1.302915996556854
 20
4.741388995938835
 30
0.0
 10
1.417580693250059
 20
4.701854800106421
 30
0.0
 10
1.540486200396447
 20
4.665080403617539
 30
0.0
 10
1.671515664981685
 20
4.631155421413642
 30
0.0
 10
1.810520094443856
 20
4.600032439721987
 30
0.0
 10
1.957365791751892
 20
4.571790900351574
 30
0.0
 10
2.108876072451504
 20
4.546897752127648
 30
0.0
 10
2.211568313588039
 20
4.532551118551117
 30
0.0
 10
2.262628236786852
 20
4.525962981854881
 30
0.0
  0
LINE
  5
E0
330
1F
100
AcDbEntity
  8
0
  6
Continuous
 62
     7
370
    25
100
AcDbLine
 10
0.6453888597
 20
5.2609141052
 30
0.0
 11
0.9758336972
 21
5.2609141052
 31
0.0
  0
LINE
  5
E1
330
1F
100
AcDbEntity
  8
0
  6
Continuous
 62
     7
370
    25
100
AcDbLine
 10
0.9758336972
 20
5.2609141052
 30
0.0
 11
0.9758336972
 21
5.6359141052
 31
0.0
  0
LINE
  5
E2
330
1F
100
AcDbEntity
  8
0
  6
Continuous
 62
     7
370
    25
100
AcDbLine
 10
0.6446247334
 20
5.6359141052
 30
0.0
 11
0.9758336972
 21
5.6359141052
 31
0.0
  0
SPLINE
  5
E3
330
1F
100
AcDbEntity
  8
0
  6
Continuous
 62
     7
370
    25
100
AcDbSpline
210
0.0
220
0.0
230
1.0
 70
     8
 71
     3
 72
    26
 73
    22
 74
     0
 42
0.00000001
 43
0.00000001
 40
0.871029674010464
 40
0.871029674010464
 40
0.871029674010464
 40
0.871029674010464
 40
0.8756888428051558
 40
0.8849977189730033
 40
0.8939534256738392
 40
0.9025528972361386
 40
0.9107893855665934
 40
0.9186607344216322
 40
0.92616625322805
 40
0.9333026258890187
 40
0.9400712202305984
 40
0.9464747799460725
 40
0.9525175260252662
 40
0.9582048188571665
 40
0.9635466521265252
 40
0.9685565998720713
 40
0.9732499128173885
 40
0.9776510407402338
 40
0.9817870430299019
 40
0.985694226196927
 40
0.9861589502222011
 40
0.9861589502222011
 40
0.9861589502222011
 40
0.9861589502222011
 10
2.540160183355619
 20
6.910979620149577
 30
0.0
 10
2.510360915650609
 20
6.900447744701914
 30
0.0
 10
2.421186320616451
 20
6.868413630360155
 30
0.0
 10
2.275704380004766
 20
6.813461532773991
 30
0.0
 10
2.106742785519208
 20
6.745152962248229
 30
0.0
 10
1.946204849379038
 20
6.675557052167703
 30
0.0
 10
1.794210498379153
 20
6.604885970730426
 30
0.0
 10
1.650931756264712
 20
6.533220172313899
 30
0.0
 10
1.516470737622088
 20
6.460760442353272
 30
0.0
 10
1.390962432358467
 20
6.387617885615125
 30
0.0
 10
1.274527653156475
 20
6.31392836359214
 30
0.0
 10
1.167215340162252
 20
6.239878787111757
 30
0.0
 10
1.069173444516377
 20
6.165515640016335
 30
0.0
 10
0.9804356469173408
 20
6.091026832190463
 30
0.0
 10
0.9010581026229798
 20
6.016525792158214
 30
0.0
 10
0.8311542751456517
 20
5.942063838536794
 30
0.0
 10
0.7707216469804434
 20
5.867772100987866
 30
0.0
 10
0.7198394181344644
 20
5.793709415053678
 30
0.0
 10
0.6785164157415733
 20
5.719945862703727
 30
0.0
 10
0.6556120841153548
 20
5.666854301129317
 30
0.0
 10
0.6456613501051081
 20
5.638893685880957
 30
0.0
 10
0.6446247333527522
 20
5.635914105197946
 30
0.0
  0
LINE
  5
E4
330
1F
100
AcDbEntity
  8
0
  6
Continuous
 62
     7
370
    25
100
AcDbLine
 10
2.5401601834
 20
6.9109796201
 30
0.0
 11
2.5990273656
 21
6.7400825154
 31
0.0
  0
LINE
  5
E5
330
1F
100
AcDbEntity
  8
0
  6
Continuous
 62
     7
370
    25
100
AcDbLine
 10
2.5990273656
 20
6.7400825154
 30
0.0
 11
2.7763033678
 21
6.8011382912
 31
0.0
  0
LINE
  5
E6
330
1F
100
AcDbEntity
  8
0
  6
Continuous
 62
     7
370
    25
100
AcDbLine
 10
2.7763033678
 20
6.8011382912
 30
0.0
 11
2.7175579127
 21
6.9717215486
 31
0.0
  0
SPLINE
  5
E7
330
1F
100
AcDbEntity
  8
0
  6
Continuous
 62
     7
370
    25
100
AcDbSpline
210
0.0
220
0.0
230
1.0
 70
     8
 71
     3
 72
    18
 73
    14
 74
     0
 42
0.00000001
 43
0.00000001
 40
0.749036025227942
 40
0.749036025227942
 40
0.749036025227942
 40
0.749036025227942
 40
0.752117586465523
 40
0.7647920417855404
 40
0.7772081519012203
 40
0.7893556849212618
 40
0.8012239599821006
 40
0.8128036855359224
 40
0.8240829093360648
 40
0.8350546023011844
 40
0.8457095711684692
 40
0.85603785322908
 40
0.8618156187351813
 40
0.8618156187351813
 40
0.8618156187351813
 40
0.8618156187351813
 10
4.949724157537466
 20
7.494816490383811
 30
0.0
 10
4.929078965563697
 20
7.491539431850087
 30
0.0
 10
4.823547814284729
 20
7.474609410549774
 30
0.0
 10
4.635115917057608
 20
7.442730804302458
 30
0.0
 10
4.38667806671998
 20
7.397008415645757
 30
0.0
 10
4.144301577988863
 20
7.348708983876756
 30
0.0
 10
3.908250334319275
 20
7.297845111572929
 30
0.0
 10
3.67877420970518
 20
7.244569370820154
 30
0.0
 10
3.456111687761083
 20
7.18897458911944
 30
0.0
 10
3.240502127022942
 20
7.131162536364806
 30
0.0
 10
3.032164092730074
 20
7.071271938959445
 30
0.0
 10
2.858657331845974
 20
7.017858054541254
 30
0.0
 10
2.754757695627828
 20
6.984063185192513
 30
0.0
 10
2.717557912708847
 20
6.971721548640915
 30
0.0
  0
LINE
  5
E8
330
1F
100
AcDbEntity
  8
0
  6
Continuous
 62
     7
370
    25
100
AcDbLine
 10
4.9497241575
 20
7.4948164904
 30
0.0
 11
4.9773378869
 21
7.3157210389
 31
0.0
  0
LINE
  5
E9
330
1F
100
AcDbEntity
  8
0
  6
Continuous
 62
     7
370
    25
100
AcDbLine
 10
4.9773378869
 20
7.3157210389
 30
0.0
 11
5.1627752116
 21
7.3434508831
 31
0.0
  0
LINE
  5
EA
330
1F
100
AcDbEntity
  8
0
  6
Continuous
 62
     7
370
    25
100
AcDbLine
 10
5.1627752116
 20
7.3434508831
 30
0.0
 11
5.1358634545
 21
7.5234246013
 31
0.0
  0
SPLINE
  5
EB
330
1F
100
AcDbEntity
  8
0
  6
Continuous
 62
     7
370
    25
100
AcDbSpline
210
0.0
220
0.0
230
1.0
 70
     8
 71
     3
 72
    17
 73
    13
 74
     0
 42
0.00000001
 43
0.00000001
 40
0.626974273362379
 40
0.626974273362379
 40
0.626974273362379
 40
0.626974273362379
 40
0.6284474749370552
 40
0.6428886749554992
 40
0.657186053987412
 40
0.6713255457518721
 40
0.6852940138263822
 40
0.6990781474004496
 40
0.7126650949444371
 40
0.7260426447098025
 40
0.7391977130833135
 40
0.7397818713466304
 40
0.7397818713466304
 40
0.7397818713466304
 40
0.7397818713466304
 10
7.420044746908933
 20
7.743658856474759
 30
0.0
 10
7.410063982089528
 20
7.743157001513449
 30
0.0
 10
7.302248771359915
 20
7.737676775266943
 30
0.0
 10
7.097635522896234
 20
7.726057616342416
 30
0.0
 10
6.807431688032392
 20
7.706451798954466
 30
0.0
 10
6.520664531286191
 20
7.683814111945524
 30
0.0
 10
6.237649128788412
 20
7.658138534356301
 30
0.0
 10
5.9586820830038
 20
7.629532092744133
 30
0.0
 10
5.684073980526311
 20
7.597916978474574
 30
0.0
 10
5.414119117246203
 20
7.563383150652078
 30
0.0
 10
5.231973007019351
 20
7.537687530643684
 30
0.0
 10
5.139782971259585
 20
7.524007441835225
 30
0.0
 10
5.135863454480433
 20
7.523424601349397
 30
0.0
  0
LINE
  5
EC
330
1F
100
AcDbEntity
  8
0
  6
Continuous
 62
     7
370
    25
100
AcDbLine
 10
7.4200447469
 20
6.9807275226
 30
0.0
 11
7.4200447469
 21
7.7436588565
 31
0.0
  0
LINE
  5
ED
330
1F
100
AcDbEntity
  8
0
  6
Continuous
 62
     7
370
    25
100
AcDbLine
 10
7.6700447469
 20
6.9807275226
 30
0.0
 11
7.4200447469
 21
6.9807275226
 31
0.0
  0
LINE
  5
EE
330
1F
100
AcDbEntity
  8
0
  6
Continuous
 62
     7
370
    25
100
AcDbLine
 10
7.6700447469
 20
7.7551077449
 30
0.0
 11
7.6700447469
 21
6.9807275226
 31
0.0
  0
SPLINE
  5
EF
330
1F
100
AcDbEntity
  8
0
  6
Continuous
 62
     7
370
    25
100
AcDbSpline
210
0.0
220
0.0
230
1.0
 70
     8
 71
     3
 72
    17
 73
    13
 74
     0
 42
0.00000001
 43
0.00000001
 40
0.4914120062422394
 40
0.4914120062422394
 40
0.4914120062422394
 40
0.4914120062422394
 40
0.4943697397979495
 40
0.5094578326409449
 40
0.5245323463154627
 40
0.5395793198736023
 40
0.5545829838355398
 40
0.5695295460093602
 40
0.5844034168312426
 40
0.5991909918922277
 40
0.6138768380260883
 40
0.6146765421018902
 40
0.6146765421018902
 40
0.6146765421018902
 40
0.6146765421018902
 10
10.17790298823087
 20
7.758971632216447
 30
0.0
 10
10.15785179228715
 20
7.759676410918662
 30
0.0
 10
10.03551123473554
 20
7.763876771027844
 30
0.0
 10
9.81093630284681
 20
7.770465308617011
 30
0.0
 10
9.50432322282016
 20
7.77682176578482
 30
0.0
 10
9.198238768228668
 20
7.780493588236672
 30
0.0
 10
8.893001314616649
 20
7.781380449565818
 30
0.0
 10
8.588942691279701
 20
7.779466479550639
 30
0.0
 10
8.286381297502663
 20
7.774685965528737
 30
0.0
 10
7.985649300852515
 20
7.766973459892771
 30
0.0
 10
7.780421532313047
 20
7.759647208538479
 30
0.0
 10
7.675464852297184
 20
7.755332104510153
 30
0.0
 10
7.670044746909231
 20
7.755107744917352
 30
0.0
  0
LINE
  5
F0
330
1F
100
AcDbEntity
  8
0
  6
Continuous
 62
     7
370
    25
100
AcDbLine
 10
10.1779029882
 20
7.7589716322
 30
0.0
 11
10.1714513219
 21
7.5792298929
 31
0.0
  0
LINE
  5
F1
330
1F
100
AcDbEntity
  8
0
  6
Continuous
 62
     7
370
    25
100
AcDbLine
 10
10.1714513219
 20
7.5792298929
 30
0.0
 11
10.3588060468
 21
7.572086905
 31
0.0
  0
LINE
  5
F2
330
1F
100
AcDbEntity
  8
0
  6
Continuous
 62
     7
370
    25
100
AcDbLine
 10
10.3588060468
 20
7.572086905
 30
0.0
 11
10.3662074487
 21
7.7518740798
 31
0.0
  0
SPLINE
  5
F3
330
1F
100
AcDbEntity
  8
0
  6
Continuous
 62
     7
370
    25
100
AcDbSpline
210
0.0
220
0.0
230
1.0
 70
     8
 71
     3
 72
    14
 73
    10
 74
     0
 42
0.00000001
 43
0.00000001
 40
0.3913679698595982
 40
0.3913679698595982
 40
0.3913679698595982
 40
0.3913679698595982
 40
0.404403316685164
 40
0.4192566004656613
 40
0.4341867494055215
 40
0.4491772649466113
 40
0.4642147821401647
 40
0.4792840087532322
 40
0.4821522667443149
 40
0.4821522667443149
 40
0.4821522667443149
 40
0.4821522667443149
 10
12.20977761003423
 20
7.634194222253482
 30
0.0
 10
12.12168290034259
 20
7.641821790144784
 30
0.0
 10
11.93315678109348
 20
7.657553763314798
 30
0.0
 10
11.64354381520444
 20
7.679718644717596
 30
0.0
 10
11.34054641105778
 20
7.700699061512745
 30
0.0
 10
11.03614849767156
 20
7.719416334380505
 30
0.0
 10
10.73067429892364
 20
7.7358564054394
 30
0.0
 10
10.507223881103
 20
7.746106783818523
 30
0.0
 10
10.385648353188
 20
7.75109207903752
 30
0.0
 10
10.36620744868827
 20
7.751874079765309
 30
0.0
  0
LINE
  5
F4
330
1F
100
AcDbEntity
  8
0
  6
Continuous
 62
     7
370
    25
100
AcDbLine
 10
12.20977761
 20
7.6341942223
 30
0.0
 11
12.166647116
 21
7.1360579352
 31
0.0
  0
LINE
  5
F5
330
1F
100
AcDbEntity
  8
0
  6
Continuous
 62
     7
370
    25
100
AcDbLine
 10
12.166647116
 20
7.1360579352
 30
0.0
 11
12.2911811878
 21
7.1252753117
 31
0.0
  0
LINE
  5
F6
330
1F
100
AcDbEntity
  8
0
  6
Continuous
 62
     7
370
    25
100
AcDbLine
 10
12.2911811878
 20
7.1252753117
 30
0.0
 11
12.3342959096
 21
7.623229438
 31
0.0
  0
SPLINE
  5
F7
330
1F
100
AcDbEntity
  8
0
  6
Continuous
 62
     7
370
    25
100
AcDbSpline
210
0.0
220
0.0
230
1.0
 70
     8
 71
     3
 72
    11
 73
     7
 74
     0
 42
0.00000001
 43
0.00000001
 40
0.3407591884207141
 40
0.3407591884207141
 40
0.3407591884207141
 40
0.3407591884207141
 40
0.346039676575272
 40
0.3604438695509835
 40
0.3749827205326229
 40
0.3852255380776067
 40
0.3852255380776067
 40
0.3852255380776067
 40
0.3852255380776067
 10
13.2346816886333
 20
7.533097666146294
 30
0.0
 10
13.19907887506339
 20
7.537033975918545
 30
0.0
 10
13.06634057212965
 20
7.551548107856783
 30
0.0
 10
12.83544922924861
 20
7.575729018258233
 30
0.0
 10
12.57089881924261
 20
7.601635244650945
 30
0.0
 10
12.40350048302069
 20
7.61703353711478
 30
0.0
 10
12.3342959092811
 20
7.623229438061509
 30
0.0
  0
LINE
  5
F8
330
1F
100
AcDbEntity
  8
0
  6
Continuous
 62
     7
370
    25
100
AcDbLine
 10
13.5531895949
 20
6.7774606682
 30
0.0
 11
13.2346816886
 21
7.5330976661
 31
0.0
  0
LINE
  5
F9
330
1F
100
AcDbEntity
  8
0
  6
Continuous
 62
     7
370
    25
100
AcDbLine
 10
13.6683752017
 20
6.826012455
 30
0.0
 11
13.5531895949
 21
6.7774606682
 31
0.0
  0
LINE
  5
FA
330
1F
100
AcDbEntity
  8
0
  6
Continuous
 62
     7
370
    25
100
AcDbLine
 10
13.5227198412
 20
7.1715692752
 30
0.0
 11
13.6683752017
 21
6.826012455
 31
0.0
  0
LINE
  5
FB
330
1F
100
AcDbEntity
  8
0
  6
Continuous
 62
     7
370
    25
100
AcDbLine
 10
14.5518547014
 20
7.1666329832
 30
0.0
 11
13.5227198412
 21
7.1715692752
 31
0.0
  0
ARC
  5
FC
330
1F
100
AcDbEntity
  8
0
  6
Continuous
 62
     7
370
    25
100
AcDbCircle
 10
14.5494564563
 20
6.6666387348
 30
0.0
 40
0.4999999999999993
100
AcDbArc
 50
295.2751338354
 51
89.7251803043
  0
LINE
  5
FD
330
1F
100
AcDbEntity
  8
0
  6
Continuous
 62
     7
370
    25
100
AcDbLine
 10
13.9063106477
 20
5.8100330636
 30
0.0
 11
14.7629391836
 21
6.2145047666
 31
0.0
  0
LINE
  5
FE
330
1F
100
AcDbEntity
  8
0
  6
Continuous
 62
     7
370
    25
100
AcDbLine
 10
13.8735019205
 20
6.0578708885
 30
0.0
 11
13.9063106477
 21
5.8100330636
 31
0.0
  0
LINE
  5
FF
330
1F
100
AcDbEntity
  8
0
  6
Continuous
 62
     7
370
    25
100
AcDbLine
 10
13.7495830081
 20
6.0414665249
 30
0.0
 11
13.8735019205
 21
6.0578708885
 31
0.0
  0
LINE
  5
100
330
1F
100
AcDbEntity
  8
0
  6
Continuous
 62
     7
370
    25
100
AcDbLine
 10
13.8151906073
 20
5.5458653213
 30
0.0
 11
13.7495830081
 21
6.0414665249
 31
0.0
  0
SPLINE
  5
101
330
1F
100
AcDbEntity
  8
0
  6
Continuous
 62
     7
370
    25
100
AcDbSpline
210
0.0
220
0.0
230
1.0
 70
     8
 71
     3
 72
    13
 73
     9
 74
     0
 42
0.00000001
 43
0.00000001
 40
0.6196661324878489
 40
0.6196661324878489
 40
0.6196661324878489
 40
0.6196661324878489
 40
0.631269422567314
 40
0.6460065236600107
 40
0.6606206840247478
 40
0.6750981877258391
 40
0.6894228581060429
 40
0.6949265259972112
 40
0.6949265259972112
 40
0.6949265259972112
 40
0.6949265259972112
 10
12.35851174094319
 20
5.350718048995089
 30
0.0
 10
12.43335562711313
 20
5.360876466934333
 30
0.0
 10
12.60326113390944
 20
5.383907903709488
 30
0.0
 10
12.86745430534491
 20
5.419563926287932
 30
0.0
 10
13.15021564159913
 20
5.457522595706186
 30
0.0
 10
13.43034094619968
 20
5.494937507658269
 30
0.0
 10
13.65169993689445
 20
5.524391520371534
 30
0.0
 10
13.77967066371471
 20
5.541197538709274
 30
0.0
 10
13.81519060725542
 20
5.545865321263156
 30
0.0
  0
CIRCLE
  5
102
330
1F
100
AcDbEntity
  8
0
  6
Continuous
 62
     7
370
    25
100
AcDbCircle
 10
12.9161811878
 20
6.391947654
 30
0.0
 40
0.2500000000000018
  0
CIRCLE
  5
103
330
1F
100
AcDbEntity
  8
0
  6
Continuous
 62
     7
370
    25
100
AcDbCircle
 10
14.5494564563
 20
6.6666387348
 30
0.0
 40
0.25
  0
ARC
  5
104
330
1F
100
AcDbEntity
  8
0
  6
Continuous
 62
     7
370
    25
100
AcDbCircle
 10
9.5876449999
 20
7.2048158764
 30
0.0
 40
0.0700000000000044
100
AcDbArc
 50
357.9443026316
 51
88.9083513796
  0
SPLINE
  5
105
330
1F
100
AcDbEntity
  8
0
  6
Continuous
 62
     7
370
    25
100
AcDbSpline
210
0.0
220
0.0
230
1.0
 70
     8
 71
     3
 72
    11
 73
     7
 74
     0
 42
0.00000001
 43
0.00000001
 40
0.2459538490679417
 40
0.2459538490679417
 40
0.2459538490679417
 40
0.2459538490679417
 40
0.3097571377894494
 40
0.4975397781381022
 40
0.6853224184867551
 40
0.8372403712650733
 40
0.8372403712650733
 40
0.8372403712650733
 40
0.8372403712650733
 10
8.415843397920876
 20
7.27652780638644
 30
0.0
 10
8.45801305974879
 20
7.277236584365547
 30
0.0
 10
8.624307765878996
 20
7.279689206833698
 30
0.0
 10
8.914858118257506
 20
7.281652444353257
 30
0.0
 10
9.263739242138074
 20
7.280021857215838
 30
0.0
 10
9.488483137178493
 20
7.276718129687221
 30
0.0
 10
9.588978619582512
 20
7.274803171335974
 30
0.0
  0
ARC
  5
106
330
1F
100
AcDbEntity
  8
0
  6
Continuous
 62
     7
370
    25
100
AcDbCircle
 10
8.420044747
 20
7.0265631115
 30
0.0
 40
0.2499999999999999
100
AcDbArc
 50
90.9629236181
 51
180.0
  0
LINE
  5
107
330
1F
100
AcDbEntity
  8
0
  6
Continuous
 62
     7
370
    25
100
AcDbLine
 10
8.170044747
 20
6.9339016036
 30
0.0
 11
8.170044747
 21
7.0265631115
 31
0.0
  0
ARC
  5
108
330
1F
100
AcDbEntity
  8
0
  6
Continuous
 62
     7
370
    25
100
AcDbCircle
 10
8.420044747
 20
6.9339016036
 30
0.0
 40
0.25
100
AcDbArc
 50
180.0
 51
249.2499919455
  0
LINE
  5
109
330
1F
100
AcDbEntity
  8
0
  6
Continuous
 62
     7
370
    25
100
AcDbLine
 10
10.4189719545
 20
5.9092344762
 30
0.0
 11
8.3314719547
 21
6.7001178136
 31
0.0
  0
ARC
  5
10A
330
1F
100
AcDbEntity
  8
0
  6
Continuous
 62
     7
370
    25
100
AcDbCircle
 10
10.5075447469
 20
6.1430182661
 30
0.0
 40
0.2500000000000004
100
AcDbArc
 50
249.2499919455
 51
348.6654920443
  0
ARC
  5
10B
330
1F
100
AcDbEntity
  8
0
  6
Continuous
 62
     7
370
    25
100
AcDbCircle
 10
10.5075447469
 20
6.0447499108
 30
0.0
 40
0.2500000000000008
100
AcDbArc
 50
11.3345079557
 51
19.0647491872
  0
LINE
  5
10C
330
1F
100
AcDbEntity
  8
0
  6
Continuous
 62
     7
370
    25
100
AcDbLine
 10
10.4737805797
 20
6.907826252
 30
0.0
 11
10.7438322598
 21
6.1264090268
 31
0.0
  0
ARC
  5
10D
330
1F
100
AcDbEntity
  8
0
  6
Continuous
 62
     7
370
    25
100
AcDbCircle
 10
10.2374930668
 20
6.826167136
 30
0.0
 40
0.2500000000000006
100
AcDbArc
 50
19.0647491872
 51
87.8166286638
  0
LINE
  5
10E
330
1F
100
AcDbEntity
  8
0
  6
Continuous
 62
     7
370
    25
100
AcDbLine
 10
9.723671019
 20
7.0959384736
 30
0.0
 11
10.2470175159
 21
7.0759856399
 31
0.0
  0
ARC
  5
10F
330
1F
100
AcDbEntity
  8
0
  6
Continuous
 62
     7
370
    25
100
AcDbCircle
 10
9.7263378647
 20
7.1658876547
 30
0.0
 40
0.0700000000000009
100
AcDbArc
 50
177.9443026316
 51
267.8166286638
  0
LINE
  5
110
330
1F
100
AcDbEntity
  8
0
  6
Continuous
 62
     7
370
    25
100
AcDbLine
 10
9.6575999499
 20
7.202304907
 30
0.0
 11
9.6563829147
 21
7.168398624
 31
0.0
  0
ARC
  5
111
330
1F
100
AcDbEntity
  8
0
  6
Continuous
 62
     7
370
    25
100
AcDbCircle
 10
2.1953648832
 20
6.1617687583
 30
0.0
 40
0.0700000000000007
100
AcDbArc
 50
19.0067706043
 51
114.0184274128
  0
SPLINE
  5
112
330
1F
100
AcDbEntity
  8
0
  6
Continuous
 62
     7
370
    25
100
AcDbSpline
210
0.0
220
0.0
230
1.0
 70
     8
 71
     3
 72
    11
 73
     7
 74
     0
 42
0.00000001
 43
0.00000001
 40
0.2847129400152359
 40
0.2847129400152359
 40
0.2847129400152359
 40
0.2847129400152359
 40
0.3381703610077745
 40
0.4969214526177299
 40
0.6556725442276853
 40
0.7595654775905268
 40
0.7595654775905268
 40
0.7595654775905268
 40
0.7595654775905268
 10
1.591403269535574
 20
5.922474081512235
 30
0.0
 10
1.611456614360917
 20
5.93526358755761
 30
0.0
 10
1.692085500555903
 20
5.985402216375232
 30
0.0
 10
1.838461223866107
 20
6.06802180518957
 30
0.0
 10
2.012067010849458
 20
6.155138382701844
 30
0.0
 10
2.122826102327934
 20
6.206079971000348
 30
0.0
 10
2.166872752668229
 20
6.225707780049796
 30
0.0
  0
ARC
  5
113
330
1F
100
AcDbEntity
  8
0
  6
Continuous
 62
     7
370
    25
100
AcDbCircle
 10
1.7258336972
 20
5.7116934844
 30
0.0
 40
0.2500000000000004
100
AcDbArc
 50
122.5286800855
 51
180.0
  0
LINE
  5
114
330
1F
100
AcDbEntity
  8
0
  6
Continuous
 62
     7
370
    25
100
AcDbLine
 10
1.4758336972
 20
5.3929099349
 30
0.0
 11
1.4758336972
 21
5.7116934844
 31
0.0
  0
ARC
  5
115
330
1F
100
AcDbEntity
  8
0
  6
Continuous
 62
     7
370
    25
100
AcDbCircle
 10
1.7258336972
 20
5.3929099349
 30
0.0
 40
0.2500000000000009
100
AcDbArc
 50
180.0
 51
254.0705921
  0
SPLINE
  5
116
330
1F
100
AcDbEntity
  8
0
  6
Continuous
 62
     7
370
    25
100
AcDbSpline
210
0.0
220
0.0
230
1.0
 70
     8
 71
     3
 72
     9
 73
     5
 74
     0
 42
0.00000001
 43
0.00000001
 40
0.4140735954348947
 40
0.4140735954348947
 40
0.4140735954348947
 40
0.4140735954348947
 40
0.436482572304528
 40
0.5499041597983029
 40
0.5499041597983029
 40
0.5499041597983029
 40
0.5499041597983029
 10
1.761657120686747
 20
5.124645525104981
 30
0.0
 10
1.755848508506238
 20
5.12609457678542
 30
0.0
 10
1.720694125336865
 20
5.134959422614862
 30
0.0
 10
1.685949228177963
 20
5.144310253239718
 30
0.0
 10
1.657220494592498
 20
5.152509792554191
 30
0.0
  0
ARC
  5
117
330
1F
100
AcDbEntity
  8
0
  6
Continuous
 62
     7
370
    25
100
AcDbCircle
 10
1.778600482
 20
5.1925640241
 30
0.0
 40
0.0700000000000001
100
AcDbArc
 50
255.9925523008
 51
352.2019525457
  0
LINE
  5
118
330
1F
100
AcDbEntity
  8
0
  6
Continuous
 62
     7
370
    25
100
AcDbLine
 10
1.8527325184
 20
5.217965349
 30
0.0
 11
1.8479531546
 21
5.1830662975
 31
0.0
  0
ARC
  5
119
330
1F
100
AcDbEntity
  8
0
  6
Continuous
 62
     7
370
    25
100
AcDbCircle
 10
1.9220851909
 20
5.2084676223
 30
0.0
 40
0.0699999999999998
100
AcDbArc
 50
82.1886560856
 51
172.2019525457
  0
LINE
  5
11A
330
1F
100
AcDbEntity
  8
0
  6
Continuous
 62
     7
370
    25
100
AcDbLine
 10
2.969536809
 20
5.1354289348
 30
0.0
 11
1.9315990118
 21
5.2778180889
 31
0.0
  0
ARC
  5
11B
330
1F
100
AcDbEntity
  8
0
  6
Continuous
 62
     7
370
    25
100
AcDbCircle
 10
2.9600229881
 20
5.0660784683
 30
0.0
 40
0.07
100
AcDbArc
 50
352.1433538331
 51
82.1886560856
  0
LINE
  5
11C
330
1F
100
AcDbEntity
  8
0
  6
Continuous
 62
     7
370
    25
100
AcDbLine
 10
3.0268620778
 20
5.0383648261
 30
0.0
 11
3.0293659107
 21
5.0565098168
 31
0.0
  0
ARC
  5
11D
330
1F
100
AcDbEntity
  8
0
  6
Continuous
 62
     7
370
    25
100
AcDbCircle
 10
3.0962050003
 20
5.0287961747
 30
0.0
 40
0.07
100
AcDbArc
 50
172.1433538331
 51
267.5085253316
  0
SPLINE
  5
11E
330
1F
100
AcDbEntity
  8
0
  6
Continuous
 62
     7
370
    25
100
AcDbSpline
210
0.0
220
0.0
230
1.0
 70
     8
 71
     3
 72
    10
 73
     6
 74
     0
 42
0.00000001
 43
0.00000001
 40
0.405281834738802
 40
0.405281834738802
 40
0.405281834738802
 40
0.405281834738802
 40
0.4908442452001185
 40
0.6365567676297361
 40
0.7195336813836096
 40
0.7195336813836096
 40
0.7195336813836096
 40
0.7195336813836096
 10
3.478920426004582
 20
4.947903065821916
 30
0.0
 10
3.443820813244886
 20
4.948411968344066
 30
0.0
 10
3.349001390373388
 20
4.950122687062882
 30
0.0
 10
3.220343722465612
 20
4.953731325151056
 30
0.0
 10
3.127013957539787
 20
4.957389385942398
 30
0.0
 10
3.093162048973903
 20
4.958862345622118
 30
0.0
  0
ARC
  5
11F
330
1F
100
AcDbEntity
  8
0
  6
Continuous
 62
     7
370
    25
100
AcDbCircle
 10
3.4825447469
 20
5.197876793
 30
0.0
 40
0.25
100
AcDbArc
 50
269.1693377358
 51
0.0
  0
LINE
  5
120
330
1F
100
AcDbEntity
  8
0
  6
Continuous
 62
     7
370
    25
100
AcDbLine
 10
3.7325447469
 20
5.3577739616
 30
0.0
 11
3.7325447469
 21
5.197876793
 31
0.0
  0
ARC
  5
121
330
1F
100
AcDbEntity
  8
0
  6
Continuous
 62
     7
370
    25
100
AcDbCircle
 10
3.4825447469
 20
5.3577739616
 30
0.0
 40
0.2499999999999999
100
AcDbArc
 50
0.0
 51
52.5438177376
  0
LINE
  5
122
330
1F
100
AcDbEntity
  8
0
  6
Continuous
 62
     7
370
    25
100
AcDbLine
 10
2.8301288204
 20
6.1725314416
 30
0.0
 11
3.6345833777
 21
5.5562286283
 31
0.0
  0
ARC
  5
123
330
1F
100
AcDbEntity
  8
0
  6
Continuous
 62
     7
370
    25
100
AcDbCircle
 10
2.6780901896
 20
5.9740767749
 30
0.0
 40
0.2500000000000009
100
AcDbArc
 50
52.5438177376
 51
109.004262707
  0
LINE
  5
124
330
1F
100
AcDbEntity
  8
0
  6
Continuous
 62
     7
370
    25
100
AcDbLine
 10
2.3553018391
 20
6.1273169143
 30
0.0
 11
2.596680565
 21
6.2104503627
 31
0.0
  0
ARC
  5
125
330
1F
100
AcDbEntity
  8
0
  6
Continuous
 62
     7
370
    25
100
AcDbCircle
 10
2.3325071442
 20
6.1935015189
 30
0.0
 40
0.0700000000000004
100
AcDbArc
 50
199.0067706043
 51
289.004262707
  0
LINE
  5
126
330
1F
100
AcDbEntity
  8
0
  6
Continuous
 62
     7
370
    25
100
AcDbLine
 10
2.2615484899
 20
6.1845663502
 30
0.0
 11
2.2663235374
 21
6.170703927
 31
0.0
  0
ARC
  5
127
330
1F
100
AcDbEntity
  8
0
  6
Continuous
 62
     7
370
    25
100
AcDbCircle
 10
8.2538149528
 20
5.4209334925
 30
0.0
 40
0.0700000000000003
100
AcDbArc
 50
6.7294670188
 51
96.7294412361
  0
LINE
  5
128
330
1F
100
AcDbEntity
  8
0
  6
Continuous
 62
     7
370
    25
100
AcDbLine
 10
8.3282333037
 20
5.3876036022
 30
0.0
 11
8.3233326888
 21
5.4291361979
 31
0.0
  0
ARC
  5
129
330
1F
100
AcDbEntity
  8
0
  6
Continuous
 62
     7
370
    25
100
AcDbCircle
 10
8.3977510397
 20
5.3958063076
 30
0.0
 40
0.0700000000000005
100
AcDbArc
 50
186.7294670188
 51
277.1359667264
  0
SPLINE
  5
12A
330
1F
100
AcDbEntity
  8
0
  6
Continuous
 62
     7
370
    25
100
AcDbSpline
210
0.0
220
0.0
230
1.0
 70
     8
 71
     3
 72
     9
 73
     5
 74
     0
 42
0.00000001
 43
0.00000001
 40
0.678992143058852
 40
0.678992143058852
 40
0.678992143058852
 40
0.678992143058852
 40
0.769781543928917
 40
0.8894387218396534
 40
0.8894387218396534
 40
0.8894387218396534
 40
0.8894387218396534
 10
9.013763486789607
 20
5.403877087202209
 30
0.0
 10
8.926422680488052
 20
5.392534669468111
 30
0.0
 10
8.723977859387869
 20
5.366413926320057
 30
0.0
 10
8.521565086355917
 20
5.340760655149333
 30
0.0
 10
8.406446746064358
 20
5.326348516872835
 30
0.0
  0
ARC
  5
12B
330
1F
100
AcDbEntity
  8
0
  6
Continuous
 62
     7
370
    25
100
AcDbCircle
 10
8.9815678604
 20
5.6517953028
 30
0.0
 40
0.2500000000000006
100
AcDbArc
 50
277.3992436339
 51
69.2499919455
  0
LINE
  5
12C
330
1F
100
AcDbEntity
  8
0
  6
Continuous
 62
     7
370
    25
100
AcDbLine
 10
7.6432050573
 20
6.4261968586
 30
0.0
 11
9.0701406528
 21
5.8855790928
 31
0.0
  0
ARC
  5
12D
330
1F
100
AcDbEntity
  8
0
  6
Continuous
 62
     7
370
    25
100
AcDbCircle
 10
7.5546322649
 20
6.1924130687
 30
0.0
 40
0.2500000000000006
100
AcDbArc
 50
69.2499919455
 51
112.7906972422
  0
LINE
  5
12E
330
1F
100
AcDbEntity
  8
0
  6
Continuous
 62
     7
370
    25
100
AcDbLine
 10
5.0107032709
 20
5.3947012038
 30
0.0
 11
7.4577907889
 21
6.4228945831
 31
0.0
  0
ARC
  5
12F
330
1F
100
AcDbEntity
  8
0
  6
Continuous
 62
     7
370
    25
100
AcDbCircle
 10
5.1075447469
 20
5.1642196893
 30
0.0
 40
0.2499999999999995
100
AcDbArc
 50
112.7906972422
 51
170.6829215589
  0
ARC
  5
130
330
1F
100
AcDbEntity
  8
0
  6
Continuous
 62
     7
370
    25
100
AcDbCircle
 10
5.1075447469
 20
5.2451686748
 30
0.0
 40
0.2500000000000003
100
AcDbArc
 50
189.3170784411
 51
273.6265759096
  0
SPLINE
  5
131
330
1F
100
AcDbEntity
  8
0
  6
Continuous
 62
     7
370
    25
100
AcDbSpline
210
0.0
220
0.0
230
1.0
 70
     8
 71
     3
 72
    11
 73
     7
 74
     0
 42
0.00000001
 43
0.00000001
 40
0.113603783323289
 40
0.113603783323289
 40
0.113603783323289
 40
0.113603783323289
 40
0.2932497581287259
 40
0.4978492589511821
 40
0.7024487597736384
 40
0.8124401143725821
 40
0.8124401143725821
 40
0.8124401143725821
 40
0.8124401143725821
 10
7.087405183974687
 20
5.170714464727913
 30
0.0
 10
6.919148686379383
 20
5.152324587830887
 30
0.0
 10
6.559032953184605
 20
5.114394287472043
 30
0.0
 10
6.007369726350262
 20
5.062004550308266
 30
0.0
 10
5.520829535851123
 20
5.022374981172576
 30
0.0
 10
5.226339753834878
 20
5.002196313955229
 30
0.0
 10
5.123358105560117
 20
4.99566930063344
 30
0.0
  0
ARC
  5
132
330
1F
100
AcDbEntity
  8
0
  6
Continuous
 62
     7
370
    25
100
AcDbCircle
 10
7.079799708
 20
5.240300072
 30
0.0
 40
0.0699999999999997
100
AcDbArc
 50
276.2374800602
 51
6.6694682539
  0
LINE
  5
133
330
1F
100
AcDbEntity
  8
0
  6
Continuous
 62
     7
370
    25
100
AcDbLine
 10
7.1444523305
 20
5.2901091712
 30
0.0
 11
7.1493259956
 21
5.2484299756
 31
0.0
  0
ARC
  5
134
330
1F
100
AcDbEntity
  8
0
  6
Continuous
 62
     7
370
    25
100
AcDbCircle
 10
7.2139786181
 20
5.2982390748
 30
0.0
 40
0.0700000000000008
100
AcDbArc
 50
96.7294412361
 51
186.6694682539
  0
LINE
  5
135
330
1F
100
AcDbEntity
  8
0
  6
Continuous
 62
     7
370
    25
100
AcDbLine
 10
8.2456122787
 20
5.4904512322
 30
0.0
 11
7.2057759439
 21
5.3677568145
 31
0.0
  0
LINE
  5
136
330
1F
100
AcDbEntity
  8
0
  6
Continuous
 62
     7
370
    25
100
AcDbLine
 10
4.2167860942
 20
5.7400625322
 30
0.0
 11
3.3942295112
 21
6.3702335365
 31
0.0
  0
ARC
  5
137
330
1F
100
AcDbEntity
  8
0
  6
Continuous
 62
     7
370
    25
100
AcDbCircle
 10
4.368824725
 20
5.938517199
 30
0.0
 40
0.2500000000000003
100
AcDbArc
 50
232.5438177376
 51
292.7906972422
  0
LINE
  5
138
330
1F
100
AcDbEntity
  8
0
  6
Continuous
 62
     7
370
    25
100
AcDbLine
 10
6.766886223
 20
6.6749398813
 30
0.0
 11
4.4656662011
 21
5.7080356845
 31
0.0
  0
ARC
  5
139
330
1F
100
AcDbEntity
  8
0
  6
Continuous
 62
     7
370
    25
100
AcDbCircle
 10
6.6700447469
 20
6.9054213957
 30
0.0
 40
0.2500000000000001
100
AcDbArc
 50
292.7906972422
 51
0.0
  0
LINE
  5
13A
330
1F
100
AcDbEntity
  8
0
  6
Continuous
 62
     7
370
    25
100
AcDbLine
 10
6.9200447469
 20
6.9430793752
 30
0.0
 11
6.9200447469
 21
6.9054213957
 31
0.0
  0
ARC
  5
13B
330
1F
100
AcDbEntity
  8
0
  6
Continuous
 62
     7
370
    25
100
AcDbCircle
 10
6.6700447469
 20
6.9430793752
 30
0.0
 40
0.25
100
AcDbArc
 50
0.0
 51
94.6367937691
  0
SPLINE
  5
13C
330
1F
100
AcDbEntity
  8
0
  6
Continuous
 62
     7
370
    25
100
AcDbSpline
210
0.0
220
0.0
230
1.0
 70
     8
 71
     3
 72
    11
 73
     7
 74
     0
 42
0.00000001
 43
0.00000001
 40
0.1873282351823502
 40
0.1873282351823502
 40
0.1873282351823502
 40
0.1873282351823502
 40
0.3212818557374245
 40
0.4966980980321398
 40
0.672114340326855
 40
0.6918658338613706
 40
0.6918658338613706
 40
0.6918658338613706
 40
0.6918658338613706
 10
5.776836485854405
 20
7.104909542775463
 30
0.0
 10
5.853882791116422
 20
7.114152850491569
 30
0.0
 10
6.031933792561804
 20
7.134529803694607
 30
0.0
 10
6.311496342520218
 20
7.163083510908393
 30
0.0
 10
6.525559986614261
 20
7.182102115204937
 30
0.0
 10
6.638412892051676
 20
7.191334784745171
 30
0.0
 10
6.649834993997955
 20
7.192261168071302
 30
0.0
  0
ARC
  5
13D
330
1F
100
AcDbEntity
  8
0
  6
Continuous
 62
     7
370
    25
100
AcDbCircle
 10
5.7851746514
 20
7.0354079241
 30
0.0
 40
0.0700000000000007
100
AcDbArc
 50
96.8411247334
 51
188.5045167365
  0
LINE
  5
13E
330
1F
100
AcDbEntity
  8
0
  6
Continuous
 62
     7
370
    25
100
AcDbLine
 10
5.7208685169
 20
6.9921252414
 30
0.0
 11
5.7159443568
 21
7.0250558078
 31
0.0
  0
ARC
  5
13F
330
1F
100
AcDbEntity
  8
0
  6
Continuous
 62
     7
370
    25
100
AcDbCircle
 10
5.6516382224
 20
6.981773125
 30
0.0
 40
0.0700000000000002
100
AcDbArc
 50
278.5048507832
 51
8.5045167365
  0
LINE
  5
140
330
1F
100
AcDbEntity
  8
0
  6
Continuous
 62
     7
370
    25
100
AcDbLine
 10
4.6279402773
 20
6.7579135119
 30
0.0
 11
5.6619907424
 21
6.9125428908
 31
0.0
  0
ARC
  5
141
330
1F
100
AcDbEntity
  8
0
  6
Continuous
 62
     7
370
    25
100
AcDbCircle
 10
4.6175877573
 20
6.8271437461
 30
0.0
 40
0.0700000000000002
100
AcDbArc
 50
188.765094738
 51
278.5048507832
  0
LINE
  5
142
330
1F
100
AcDbEntity
  8
0
  6
Continuous
 62
     7
370
    25
100
AcDbLine
 10
4.5442208285
 20
6.8436160102
 30
0.0
 11
4.5484052594
 21
6.8164768824
 31
0.0
  0
ARC
  5
143
330
1F
100
AcDbEntity
  8
0
  6
Continuous
 62
     7
370
    25
100
AcDbCircle
 10
4.4750383306
 20
6.8329491464
 30
0.0
 40
0.0700000000000017
100
AcDbArc
 50
8.765094738
 51
100.9157104652
  0
SPLINE
  5
144
330
1F
100
AcDbEntity
  8
0
  6
Continuous
 62
     7
370
    25
100
AcDbSpline
210
0.0
220
0.0
230
1.0
 70
     8
 71
     3
 72
    11
 73
     7
 74
     0
 42
0.00000001
 43
0.00000001
 40
0.1950684394729181
 40
0.1950684394729181
 40
0.1950684394729181
 40
0.1950684394729181
 40
0.3267188839303391
 40
0.5019494214088066
 40
0.6771799588872741
 40
0.8102425648998696
 40
0.8102425648998696
 40
0.8102425648998696
 40
0.8102425648998696
 10
3.431126244476032
 20
6.664347351725827
 30
0.0
 10
3.503737066480517
 20
6.684126691877754
 30
0.0
 10
3.673408483593852
 20
6.728633630034214
 30
0.0
 10
3.942045198715626
 20
6.793273315504956
 30
0.0
 10
4.213027575989094
 20
6.852432990979382
 30
0.0
 10
4.386720989360588
 20
6.887206651105798
 30
0.0
 10
4.461782802418063
 20
6.901682624241297
 30
0.0
  0
ARC
  5
145
330
1F
100
AcDbEntity
  8
0
  6
Continuous
 62
     7
370
    25
100
AcDbCircle
 10
3.4495240204
 20
6.5968083123
 30
0.0
 40
0.070000000000001
100
AcDbArc
 50
105.2377759075
 51
199.0026812311
  0
LINE
  5
146
330
1F
100
AcDbEntity
  8
0
  6
Continuous
 62
     7
370
    25
100
AcDbLine
 10
3.3955985488
 20
6.5384159217
 30
0.0
 11
3.3833387867
 21
6.5740154443
 31
0.0
  0
ARC
  5
147
330
1F
100
AcDbEntity
  8
0
  6
Continuous
 62
     7
370
    25
100
AcDbCircle
 10
3.329413315
 20
6.5156230536
 30
0.0
 40
0.0699999999999995
100
AcDbArc
 50
320.0897236
 51
19.0026812311
  0
ARC
  5
148
330
1F
100
AcDbEntity
  8
0
  6
Continuous
 62
     7
370
    25
100
AcDbCircle
 10
3.4368003278
 20
6.4258008432
 30
0.0
 40
0.0700000000000005
100
AcDbArc
 50
140.0897236
 51
232.5438177376
  0
MTEXT
  5
149
330
1F
100
AcDbEntity
  8
PART_NAMES
100
AcDbMText
 10
11.1958782143
 20
6.7152623798
 30
0.0
 40
0.1666666667
 41
0.0
 71
     1
 72
     1
  1
1.2.2.1.5
  7
SLDTEXTSTYLE0
 73
     1
 44
1.0
  0
LINE
  5
14A
330
1F
100
AcDbEntity
  8
0
  6
Continuous
 62
     7
370
    25
100
AcDbLine
 10
15.2127999077
 20
4.1189986752
 30
0.0
 11
15.2199567155
 21
4.2989533692
 31
0.0
  0
SPLINE
  5
14B
330
1F
100
AcDbEntity
  8
0
  6
Continuous
 62
     7
370
    25
100
AcDbSpline
210
0.0
220
0.0
230
1.0
 70
     8
 71
     3
 72
    17
 73
    13
 74
     0
 42
0.00000001
 43
0.00000001
 40
0.3520006634151229
 40
0.3520006634151229
 40
0.3520006634151229
 40
0.3520006634151229
 40
0.3604438695336939
 40
0.3749827205263407
 40
0.3896404545049333
 40
0.4044033167265684
 40
0.4192566007030327
 40
0.4341867492519412
 40
0.4491772649888276
 40
0.4642147823367679
 40
0.4792840088618457
 40
0.4842939134669756
 40
0.4842939134669756
 40
0.4842939134669756
 40
0.4842939134669756
 10
17.99968207058219
 20
4.096056615261385
 30
0.0
 10
17.94070443654347
 20
4.102267441493924
 30
0.0
 10
17.78013656470898
 20
4.118858379987594
 30
0.0
 10
17.51701760043477
 20
4.144624432245795
 30
0.0
 10
17.20951999192685
 20
4.172584721124455
 30
0.0
 10
16.89963324875606
 20
4.19857670105168
 30
0.0
 10
16.58765723108376
 20
4.222453087817346
 30
0.0
 10
16.27392089917302
 20
4.244177101099765
 30
0.0
 10
15.95873442069599
 20
4.263557754109002
 30
0.0
 10
15.64243350901344
 20
4.280580501527341
 30
0.0
 10
15.39603656872472
 20
4.291883508679749
 30
0.0
 10
15.25511872645022
 20
4.297580074743881
 30
0.0
 10
15.21995671546019
 20
4.298953369167037
 30
0.0
  0
LINE
  5
14C
330
1F
100
AcDbEntity
  8
0
  6
Continuous
 62
     7
370
    25
100
AcDbLine
 10
17.9996820706
 20
4.0960566153
 30
0.0
 11
18.0284280472
 21
4.0317012297
 31
0.0
  0
LINE
  5
14D
330
1F
100
AcDbEntity
  8
0
  6
Continuous
 62
     7
370
    25
100
AcDbLine
 10
18.0284280472
 20
4.0317012297
 30
0.0
 11
18.3223452225
 21
3.3416920311
 31
0.0
  0
LINE
  5
14E
330
1F
100
AcDbEntity
  8
0
  6
Continuous
 62
     7
370
    25
100
AcDbLine
 10
18.3223452225
 20
3.3416920311
 30
0.0
 11
18.4373467556
 21
3.390678227
 31
0.0
  0
LINE
  5
14F
330
1F
100
AcDbEntity
  8
0
  6
Continuous
 62
     7
370
    25
100
AcDbLine
 10
18.4373467556
 20
3.390678227
 30
0.0
 11
18.2903881679
 21
3.7356828263
 31
0.0
  0
LINE
  5
150
330
1F
100
AcDbEntity
  8
0
  6
Continuous
 62
     7
370
    25
100
AcDbLine
 10
18.2903881679
 20
3.7356828263
 30
0.0
 11
19.4139889805
 21
3.6246731142
 31
0.0
  0
ARC
  5
151
330
1F
100
AcDbEntity
  8
0
  6
Continuous
 62
     7
370
    25
100
AcDbCircle
 10
19.3648292354
 20
3.1270956634
 30
0.0
 40
0.5000000000000012
100
AcDbArc
 50
296.4271184113
 51
84.3575925449
  0
LINE
  5
152
330
1F
100
AcDbEntity
  8
0
  6
Continuous
 62
     7
370
    25
100
AcDbLine
 10
19.5873587728
 20
2.6793450576
 30
0.0
 11
18.7242816439
 21
2.25040057
 31
0.0
  0
LINE
  5
153
330
1F
100
AcDbEntity
  8
0
  6
Continuous
 62
     7
370
    25
100
AcDbLine
 10
18.7242816439
 20
2.25040057
 30
0.0
 11
18.691492075
 21
2.4982409303
 31
0.0
  0
LINE
  5
154
330
1F
100
AcDbEntity
  8
0
  6
Continuous
 62
     7
370
    25
100
AcDbLine
 10
18.691492075
 20
2.4982409303
 30
0.0
 11
18.5675718949
 21
2.4818461458
 31
0.0
  0
LINE
  5
155
330
1F
100
AcDbEntity
  8
0
  6
Continuous
 62
     7
370
    25
100
AcDbLine
 10
18.5675718949
 20
2.4818461458
 30
0.0
 11
18.6331470573
 21
1.9861954729
 31
0.0
  0
SPLINE
  5
156
330
1F
100
AcDbEntity
  8
0
  6
Continuous
 62
     7
370
    25
100
AcDbSpline
210
0.0
220
0.0
230
1.0
 70
     8
 71
     3
 72
    16
 73
    12
 74
     0
 42
0.00000001
 43
0.00000001
 40
0.5620148466372921
 40
0.5620148466372921
 40
0.5620148466372921
 40
0.5620148466372921
 40
0.571381784358444
 40
0.586466040595284
 40
0.6014845156648216
 40
0.6164243286604671
 40
0.6312694223075201
 40
0.646006523946737
 40
0.6606206840695299
 40
0.6750981875563146
 40
0.684793967006562
 40
0.684793967006562
 40
0.684793967006562
 40
0.684793967006562
 10
16.17291752602935
 20
1.653509838273861
 30
0.0
 10
16.23547180390914
 20
1.662045160334482
 30
0.0
 10
16.39876107095136
 20
1.684330525406296
 30
0.0
 10
16.66234125749924
 20
1.7203409383444
 30
0.0
 10
16.96315267785307
 20
1.761323477652471
 30
0.0
 10
17.26237604583578
 20
1.802021031513009
 30
0.0
 10
17.55973545216355
 20
1.842351087859357
 30
0.0
 10
17.85494593750716
 20
1.882193262965337
 30
0.0
 10
18.14772898877131
 20
1.921497279044563
 30
0.0
 10
18.40685812408349
 20
1.95610783912083
 30
0.0
 10
18.56836306791964
 20
1.977610782603239
 30
0.0
 10
18.63314705729864
 20
1.986195472866382
 30
0.0
  0
LINE
  5
157
330
1F
100
AcDbEntity
  8
0
  6
Continuous
 62
     7
370
    25
100
AcDbLine
 10
16.172917526
 20
2.3391388652
 30
0.0
 11
16.172917526
 21
1.6535098383
 31
0.0
  0
LINE
  5
158
330
1F
100
AcDbEntity
  8
0
  6
Continuous
 62
     7
370
    25
100
AcDbLine
 10
16.072917526
 20
2.3391388652
 30
0.0
 11
16.172917526
 21
2.3391388652
 31
0.0
  0
LINE
  5
159
330
1F
100
AcDbEntity
  8
0
  6
Continuous
 62
     7
370
    25
100
AcDbLine
 10
16.072917526
 20
1.6398666122
 30
0.0
 11
16.072917526
 21
2.3391388652
 31
0.0
  0
SPLINE
  5
15A
330
1F
100
AcDbEntity
  8
0
  6
Continuous
 62
     7
370
    25
100
AcDbSpline
210
0.0
220
0.0
230
1.0
 70
     8
 71
     3
 72
    20
 73
    16
 74
     0
 42
0.00000001
 43
0.00000001
 40
0.3894097093636479
 40
0.3894097093636479
 40
0.3894097093636479
 40
0.3894097093636479
 40
0.390597192149141
 40
0.4053325934630905
 40
0.4201748233506162
 40
0.4351095326230947
 40
0.4501242755410936
 40
0.465203067542348
 40
0.4803331538128418
 40
0.4955005832201683
 40
0.5106897747770075
 40
0.5258873342970727
 40
0.5410783141011695
 40
0.5562472332643309
 40
0.5570234908734949
 40
0.5570234908734949
 40
0.5570234908734949
 40
0.5570234908734949
 10
12.7124325424591
 20
1.199998508217756
 30
0.0
 10
12.72037973265009
 20
1.200948189603259
 30
0.0
 10
12.82694151914155
 20
1.213695797975804
 30
0.0
 10
13.03279207748528
 20
1.238666751838687
 30
0.0
 10
13.3305201368166
 20
1.275656579239515
 30
0.0
 10
13.6300230320178
 20
1.313622993015147
 30
0.0
 10
13.93103138900562
 20
1.352387229081117
 30
0.0
 10
14.23326341234083
 20
1.391953710591203
 30
0.0
 10
14.5364649041717
 20
1.432040538722853
 30
0.0
 10
14.8403434663897
 20
1.472680731298352
 30
0.0
 10
15.14463459271215
 20
1.513665273880832
 30
0.0
 10
15.44905660621726
 20
1.55486677649258
 30
0.0
 10
15.75331299449152
 20
1.596272555122996
 30
0.0
 10
15.96124803349558
 20
1.624632816068775
 30
0.0
 10
16.06773350448132
 20
1.639159407596565
 30
0.0
 10
16.07291752602935
 20
1.639866612233882
 30
0.0
  0
LINE
  5
15B
330
1F
100
AcDbEntity
  8
0
  6
Continuous
 62
     7
370
    25
100
AcDbLine
 10
12.7124325425
 20
1.1999985082
 30
0.0
 11
12.6908350386
 21
1.3832102016
 31
0.0
  0
LINE
  5
15C
330
1F
100
AcDbEntity
  8
0
  6
Continuous
 62
     7
370
    25
100
AcDbLine
 10
12.6908350386
 20
1.3832102016
 30
0.0
 11
12.5046244199
 21
1.361259247
 31
0.0
  0
LINE
  5
15D
330
1F
100
AcDbEntity
  8
0
  6
Continuous
 62
     7
370
    25
100
AcDbLine
 10
12.5046244199
 20
1.361259247
 30
0.0
 11
12.5260919192
 21
1.1779248558
 31
0.0
  0
SPLINE
  5
15E
330
1F
100
AcDbEntity
  8
0
  6
Continuous
 62
     7
370
    25
100
AcDbSpline
210
0.0
220
0.0
230
1.0
 70
     8
 71
     3
 72
    21
 73
    17
 74
     0
 42
0.00000001
 43
0.00000001
 40
0.2136488511149353
 40
0.2136488511149353
 40
0.2136488511149353
 40
0.2136488511149353
 40
0.2145604781447966
 40
0.2267672493409626
 40
0.2392364168985155
 40
0.2519590037432643
 40
0.2649238944844178
 40
0.2781197025471088
 40
0.2915360351366116
 40
0.30516027958325
 40
0.3189806851247638
 40
0.3329854989115454
 40
0.3471627904101027
 40
0.3614986026090851
 40
0.3759807467342138
 40
0.3801297283042891
 40
0.3801297283042891
 40
0.3801297283042891
 40
0.3801297283042891
 10
9.172917526029666
 20
0.8907589467144829
 30
0.0
 10
9.179057430675439
 20
0.8909956408607443
 30
0.0
 10
9.267409950150824
 20
0.8944347454598303
 30
0.0
 10
9.43970591320683
 20
0.9020624941299026
 30
0.0
 10
9.691420897261029
 20
0.915477721567517
 30
0.0
 10
9.948112430853525
 20
0.9313492859654108
 30
0.0
 10
10.2095546166326
 20
0.9496068450517129
 30
0.0
 10
10.47552045043454
 20
0.9701039855321024
 30
0.0
 10
10.74576832767417
 20
0.9927895755240808
 30
0.0
 10
11.02006255568555
 20
1.01753139139402
 30
0.0
 10
11.29816030012836
 20
1.044205567871132
 30
0.0
 10
11.57982128932355
 20
1.07272768759494
 30
0.0
 10
11.86479690755217
 20
1.102963578486231
 30
0.0
 10
12.15283333178015
 20
1.134815263747717
 30
0.0
 10
12.37359167132593
 20
1.160088279060676
 30
0.0
 10
12.49831810419014
 20
1.174664935898637
 30
0.0
 10
12.52609191917948
 20
1.177924855843948
 30
0.0
  0
LINE
  5
15F
330
1F
100
AcDbEntity
  8
0
  6
Continuous
 62
     7
370
    25
100
AcDbLine
 10
9.172917526
 20
1.5724047705
 30
0.0
 11
9.172917526
 21
0.8907589467
 31
0.0
  0
LINE
  5
160
330
1F
100
AcDbEntity
  8
0
  6
Continuous
 62
     7
370
    25
100
AcDbLine
 10
9.047917526
 20
1.5724047705
 30
0.0
 11
9.172917526
 21
1.5724047705
 31
0.0
  0
LINE
  5
161
330
1F
100
AcDbEntity
  8
0
  6
Continuous
 62
     7
370
    25
100
AcDbLine
 10
9.047917526
 20
0.886264121
 30
0.0
 11
9.047917526
 21
1.5724047705
 31
0.0
  0
SPLINE
  5
162
330
1F
100
AcDbEntity
  8
0
  6
Continuous
 62
     7
370
    25
100
AcDbSpline
210
0.0
220
0.0
230
1.0
 70
     8
 71
     3
 72
    17
 73
    13
 74
     0
 42
0.00000001
 43
0.00000001
 40
0.1124646307934463
 40
0.1124646307934463
 40
0.1124646307934463
 40
0.1124646307934463
 40
0.1180845294733211
 40
0.1275148426545771
 40
0.1372852704494669
 40
0.1473879174782919
 40
0.1578164805455192
 40
0.1685634728364041
 40
0.1796191282132157
 40
0.1909773731750177
 40
0.2026269738049838
 40
0.2074629511709159
 40
0.2074629511709159
 40
0.2074629511709159
 40
0.2074629511709159
 10
7.128793946358244
 20
0.9281815002726952
 30
0.0
 10
7.166493501116335
 20
0.9244970385557212
 30
0.0
 10
7.26751579819544
 20
0.9152639991740212
 30
0.0
 10
7.434339643002311
 20
0.9026191383008709
 30
0.0
 10
7.63152338386207
 20
0.8911589596831497
 30
0.0
 10
7.835588339471037
 20
0.8826122399749123
 30
0.0
 10
8.046339036980335
 20
0.8770114768637062
 30
0.0
 10
8.263569070270627
 20
0.8742693474074309
 30
0.0
 10
8.487082124204214
 20
0.8743446886435368
 30
0.0
 10
8.716659549870489
 20
0.8772576528105004
 30
0.0
 10
8.90427988948735
 20
0.8817119037535738
 30
0.0
 10
9.015340591707357
 20
0.885178719153569
 30
0.0
 10
9.047917526029766
 20
0.8862641209572001
 30
0.0
  0
LINE
  5
163
330
1F
100
AcDbEntity
  8
0
  6
Continuous
 62
     7
370
    25
100
AcDbLine
 10
7.1287939464
 20
0.9281815003
 30
0.0
 11
7.1294319193
 21
0.9331729967
 31
0.0
  0
LINE
  5
164
330
1F
100
AcDbEntity
  8
0
  6
Continuous
 62
     7
370
    25
100
AcDbLine
 10
7.1294319193
 20
0.9331729967
 30
0.0
 11
7.1533625676
 21
1.1203198767
 31
0.0
  0
LINE
  5
165
330
1F
100
AcDbEntity
  8
0
  6
Continuous
 62
     7
370
    25
100
AcDbLine
 10
7.1533625676
 20
1.1203198767
 30
0.0
 11
6.9675937645
 21
1.143949447
 31
0.0
  0
LINE
  5
166
330
1F
100
AcDbEntity
  8
0
  6
Continuous
 62
     7
370
    25
100
AcDbLine
 10
6.9675937645
 20
1.143949447
 30
0.0
 11
6.9438373347
 21
0.9568942061
 31
0.0
  0
LINE
  5
167
330
1F
100
AcDbEntity
  8
0
  6
Continuous
 62
     7
370
    25
100
AcDbLine
 10
6.9438373347
 20
0.9568942061
 30
0.0
 11
6.9427508815
 21
0.9483938006
 31
0.0
  0
SPLINE
  5
168
330
1F
100
AcDbEntity
  8
0
  6
Continuous
 62
     7
370
    25
100
AcDbSpline
210
0.0
220
0.0
230
1.0
 70
     8
 71
     3
 72
    25
 73
    21
 74
     0
 42
0.00000001
 43
0.00000001
 40
0.0048204894117602
 40
0.0048204894117602
 40
0.0048204894117602
 40
0.0048204894117602
 40
0.0072932311239495
 40
0.0110281363882623
 40
0.0149010811011363
 40
0.0189632717822913
 40
0.0232584753969336
 40
0.0278206260463835
 40
0.0326790824605065
 40
0.0378531598225876
 40
0.0433618746831092
 40
0.0492146790147487
 40
0.0554223461664068
 40
0.0619887859792213
 40
0.0689180360697538
 40
0.0762111572881393
 40
0.0838683921906773
 40
0.0918874108905954
 40
0.1002659122360325
 40
0.1032096365641089
 40
0.1032096365641089
 40
0.1032096365641089
 40
0.1032096365641089
 10
5.197248289993874
 20
1.724544662019917
 30
0.0
 10
5.202926254267205
 20
1.708865693320627
 30
0.0
 10
5.219265476880136
 20
1.670203840838692
 30
0.0
 10
5.252075375193372
 20
1.610548236018128
 30
0.0
 10
5.298440756626633
 20
1.546757385810177
 30
0.0
 10
5.354205448618443
 20
1.485845030381522
 30
0.0
 10
5.419246287426304
 20
1.427747812930786
 30
0.0
 10
5.493499489655757
 20
1.372496973083048
 30
0.0
 10
5.576867868600525
 20
1.320117652612707
 30
0.0
 10
5.66923032123078
 20
1.270554251859332
 30
0.0
 10
5.770483031584326
 20
1.223837584422449
 30
0.0
 10
5.88053367744619
 20
1.179982248723301
 30
0.0
 10
5.999262356427317
 20
1.139046871275256
 30
0.0
 10
6.126523918007487
 20
1.10096910341833
 30
0.0
 10
6.262197369988963
 20
1.065841743246855
 30
0.0
 10
6.406128437064751
 20
1.033615689840523
 30
0.0
 10
6.558178685321498
 20
1.004373206449287
 30
0.0
 10
6.718182426686655
 20
0.9780845810400882
 30
0.0
 10
6.847314798481692
 20
0.960137413547596
 30
0.0
 10
6.923051010628121
 20
0.9507587393733011
 30
0.0
 10
6.942750881506129
 20
0.948393800561083
 30
0.0
  0
LINE
  5
169
330
1F
100
AcDbEntity
  8
0
  6
Continuous
 62
     7
370
    25
100
AcDbLine
 10
5.19724829
 20
1.724544662
 30
0.0
 11
5.5289418002
 21
1.724544662
 31
0.0
  0
LINE
  5
16A
330
1F
100
AcDbEntity
  8
0
  6
Continuous
 62
     7
370
    25
100
AcDbLine
 10
5.5289418002
 20
1.724544662
 30
0.0
 11
5.5289418002
 21
2.099544662
 31
0.0
  0
LINE
  5
16B
330
1F
100
AcDbEntity
  8
0
  6
Continuous
 62
     7
370
    25
100
AcDbLine
 10
5.5289418002
 20
2.099544662
 30
0.0
 11
5.1966299107
 21
2.099544662
 31
0.0
  0
SPLINE
  5
16C
330
1F
100
AcDbEntity
  8
0
  6
Continuous
 62
     7
370
    25
100
AcDbSpline
210
0.0
220
0.0
230
1.0
 70
     8
 71
     3
 72
    26
 73
    22
 74
     0
 42
0.00000001
 43
0.00000001
 40
0.8706543302642638
 40
0.8706543302642638
 40
0.8706543302642638
 40
0.8706543302642638
 40
0.8756888427699402
 40
0.8849977189681817
 40
0.8939534257134248
 40
0.9025528972342319
 40
0.9107893855550118
 40
0.918660734452039
 40
0.9261662532311007
 40
0.9333026258496901
 40
0.9400712202288544
 40
0.9464747799480218
 40
0.9525175259899291
 40
0.9582048188758567
 40
0.9635466521318254
 40
0.9685565998976854
 40
0.973249912806338
 40
0.9776510407309966
 40
0.9817870429956301
 40
0.9856942262199115
 40
0.986493094470285
 40
0.986493094470285
 40
0.986493094470285
 40
0.986493094470285
 10
7.169086908592283
 20
3.42910065270993
 30
0.0
 10
7.135736016100808
 20
3.417344577346865
 30
0.0
 10
7.040904570454599
 20
3.383325201905146
 30
0.0
 10
6.887799928140657
 20
3.325493824072718
 30
0.0
 10
6.712849944928812
 20
3.254764238268802
 30
0.0
 10
6.546622172822507
 20
3.182701690076837
 30
0.0
 10
6.389240791485191
 20
3.10952586121077
 30
0.0
 10
6.240883919649876
 20
3.035320061563375
 30
0.0
 10
6.101657292353257
 20
2.960292191039065
 30
0.0
 10
5.971700682177453
 20
2.884557294673198
 30
0.0
 10
5.851139186711072
 20
2.80825604380045
 30
0.0
 10
5.740023476612365
 20
2.731581980502253
 30
0.0
 10
5.638506749893818
 20
2.654583231194034
 30
0.0
 10
5.546623879779049
 20
2.577454367937559
 30
0.0
 10
5.464433011590948
 20
2.500312838704754
 30
0.0
 10
5.392051631413303
 20
2.423211781368318
 30
0.0
 10
5.329477130513024
 20
2.346286973843865
 30
0.0
 10
5.276791517998233
 20
2.269599335639758
 30
0.0
 10
5.234003933709385
 20
2.193221431959611
 30
0.0
 10
5.209356379423011
 20
2.136089133858056
 30
0.0
 10
5.198420433655421
 20
2.104866939095812
 30
0.0
 10
5.196629910977732
 20
2.099544661943921
 30
0.0
  0
LINE
  5
16D
330
1F
100
AcDbEntity
  8
0
  6
Continuous
 62
     7
370
    25
100
AcDbLine
 10
7.1690869086
 20
3.4291006527
 30
0.0
 11
7.2282594666
 21
3.2579977205
 31
0.0
  0
LINE
  5
16E
330
1F
100
AcDbEntity
  8
0
  6
Continuous
 62
     7
370
    25
100
AcDbLine
 10
7.2282594666
 20
3.2579977205
 30
0.0
 11
7.4054608184
 21
3.3192720562
 31
0.0
  0
LINE
  5
16F
330
1F
100
AcDbEntity
  8
0
  6
Continuous
 62
     7
370
    25
100
AcDbLine
 10
7.4054608184
 20
3.3192720562
 30
0.0
 11
7.3465121553
 21
3.4897604424
 31
0.0
  0
SPLINE
  5
170
330
1F
100
AcDbEntity
  8
0
  6
Continuous
 62
     7
370
    25
100
AcDbSpline
210
0.0
220
0.0
230
1.0
 70
     8
 71
     3
 72
    18
 73
    14
 74
     0
 42
0.00000001
 43
0.00000001
 40
0.74834923596225
 40
0.74834923596225
 40
0.74834923596225
 40
0.74834923596225
 40
0.7521175864757174
 40
0.7647920417806053
 40
0.7772081519169675
 40
0.7893556849213117
 40
0.801223959947354
 40
0.8128036855464306
 40
0.8240829093657238
 40
0.8350546022987564
 40
0.8457095711372445
 40
0.856037853234753
 40
0.8617557004079889
 40
0.8617557004079889
 40
0.8617557004079889
 40
0.8617557004079889
 10
9.670886825269935
 20
4.033261050390907
 30
0.0
 10
9.644742592031587
 20
4.029130837209151
 30
0.0
 10
9.530701282973054
 20
4.010879000604991
 30
0.0
 10
9.330834460280231
 20
3.977065851204729
 30
0.0
 10
9.073591398886087
 20
3.92972295474268
 30
0.0
 10
8.82262452738919
 20
3.879711681263171
 30
0.0
 10
8.57820708284245
 20
3.827045073946195
 30
0.0
 10
8.34059779354528
 20
3.771881120214783
 30
0.0
 10
8.11004359790578
 20
3.714315928435374
 30
0.0
 10
7.886792336280207
 20
3.654454884218719
 30
0.0
 10
7.671070321274239
 20
3.592441624710856
 30
0.0
 10
7.491816332608132
 20
3.537258463569318
 30
0.0
 10
7.384632469426093
 20
3.502402330728568
 30
0.0
 10
7.346512155257089
 20
3.489760442353592
 30
0.0
  0
LINE
  5
171
330
1F
100
AcDbEntity
  8
0
  6
Continuous
 62
     7
370
    25
100
AcDbLine
 10
9.6708868253
 20
4.0332610504
 30
0.0
 11
9.6982327914
 21
3.8538768949
 31
0.0
  0
LINE
  5
172
330
1F
100
AcDbEntity
  8
0
  6
Continuous
 62
     7
370
    25
100
AcDbLine
 10
9.6982327914
 20
3.8538768949
 30
0.0
 11
9.883684843
 21
3.8815089874
 31
0.0
  0
LINE
  5
173
330
1F
100
AcDbEntity
  8
0
  6
Continuous
 62
     7
370
    25
100
AcDbLine
 10
9.883684843
 20
3.8815089874
 30
0.0
 11
9.8568324876
 21
4.0617338683
 31
0.0
  0
SPLINE
  5
174
330
1F
100
AcDbEntity
  8
0
  6
Continuous
 62
     7
370
    25
100
AcDbSpline
210
0.0
220
0.0
230
1.0
 70
     8
 71
     3
 72
    17
 73
    13
 74
     0
 42
0.00000001
 43
0.00000001
 40
0.6259788091363531
 40
0.6259788091363531
 40
0.6259788091363531
 40
0.6259788091363531
 40
0.6284474749157202
 40
0.642888674967953
 40
0.657186053978501
 40
0.6713255457749994
 40
0.6852940137983433
 40
0.6990781473906603
 40
0.7126650949254639
 40
0.726042644716473
 40
0.7391977131028886
 40
0.7394219029186382
 40
0.7394219029186382
 40
0.7394219029186382
 40
0.7394219029186382
 10
12.23541752602929
 20
4.289705157637874
 30
0.0
 10
12.21809920360142
 20
4.288847140950963
 30
0.0
 10
12.09947752492795
 20
4.282861804023979
 30
0.0
 10
11.88063144937861
 20
4.270434419714483
 30
0.0
 10
11.58014211987248
 20
4.250133728091337
 30
0.0
 10
11.28321127301289
 20
4.226693708629793
 30
0.0
 10
10.99016515090707
 20
4.200108129398409
 30
0.0
 10
10.70131086901294
 20
4.170487808671368
 30
0.0
 10
10.41697002065805
 20
4.137752183153083
 30
0.0
 10
10.13744733339288
 20
4.101994395462383
 30
0.0
 10
9.951349185895486
 20
4.075741254773475
 30
0.0
 10
9.858390130876336
 20
4.061964894468613
 30
0.0
 10
9.856832487561134
 20
4.061733868281732
 30
0.0
  0
LINE
  5
175
330
1F
100
AcDbEntity
  8
0
  6
Continuous
 62
     7
370
    25
100
AcDbLine
 10
12.235417526
 20
3.4696795926
 30
0.0
 11
12.235417526
 21
4.2897051576
 31
0.0
  0
LINE
  5
176
330
1F
100
AcDbEntity
  8
0
  6
Continuous
 62
     7
370
    25
100
AcDbLine
 10
12.485417526
 20
3.4696795926
 30
0.0
 11
12.235417526
 21
3.4696795926
 31
0.0
  0
LINE
  5
177
330
1F
100
AcDbEntity
  8
0
  6
Continuous
 62
     7
370
    25
100
AcDbLine
 10
12.485417526
 20
4.3010121429
 30
0.0
 11
12.485417526
 21
3.4696795926
 31
0.0
  0
SPLINE
  5
178
330
1F
100
AcDbEntity
  8
0
  6
Continuous
 62
     7
370
    25
100
AcDbSpline
210
0.0
220
0.0
230
1.0
 70
     8
 71
     3
 72
    17
 73
    13
 74
     0
 42
0.00000001
 43
0.00000001
 40
0.4932351350339942
 40
0.4932351350339942
 40
0.4932351350339942
 40
0.4932351350339942
 40
0.4943697398147698
 40
0.5094578326172675
 40
0.5245323463192195
 40
0.5395793198874003
 40
0.5545829838118859
 40
0.5695295460034178
 40
0.5844034168259592
 40
0.5991909919195342
 40
0.6138768380463724
 40
0.6141023282114383
 40
0.6141023282114383
 40
0.6141023282114383
 40
0.6141023282114383
 10
15.03167759344882
 20
4.305845144481323
 30
0.0
 10
15.02371293972054
 20
4.30611707546724
 30
0.0
 10
14.90983226912187
 20
4.309969496748262
 30
0.0
 10
14.69009787627689
 20
4.316416023351523
 30
0.0
 10
14.37261772048675
 20
4.322997768537926
 30
0.0
 10
14.05568492580516
 20
4.326799729965221
 30
0.0
 10
13.73962915183415
 20
4.327718021246794
 30
0.0
 10
13.42479398866799
 20
4.325736217437896
 30
0.0
 10
13.11150911986767
 20
4.320786269764353
 30
0.0
 10
12.80011848639329
 20
4.312800415889574
 30
0.0
 10
12.59164765301844
 20
4.305358392531245
 30
0.0
 10
12.48700000918965
 20
4.301077011006912
 30
0.0
 10
12.48541752602989
 20
4.301012142957003
 30
0.0
  0
LINE
  5
179
330
1F
100
AcDbEntity
  8
0
  6
Continuous
 62
     7
370
    25
100
AcDbLine
 10
15.0316775934
 20
4.3058451445
 30
0.0
 11
15.025431312
 21
4.1258098576
 31
0.0
  0
LINE
  5
17A
330
1F
100
AcDbEntity
  8
0
  6
Continuous
 62
     7
370
    25
100
AcDbLine
 10
15.025431312
 20
4.1258098576
 30
0.0
 11
15.2127999077
 21
4.1189986752
 31
0.0
  0
CIRCLE
  5
17B
330
1F
100
AcDbEntity
  8
0
  6
Continuous
 62
     7
370
    25
100
AcDbCircle
 10
19.3648292354
 20
3.1270956634
 30
0.0
 40
0.2500000000000036
  0
ARC
  5
17C
330
1F
100
AcDbEntity
  8
0
  6
Continuous
 62
     7
370
    25
100
AcDbCircle
 10
7.7709205033
 20
1.4559457858
 30
0.0
 40
0.0700000000000004
100
AcDbArc
 50
172.7130789788
 51
267.6665333505
  0
SPLINE
  5
17D
330
1F
100
AcDbEntity
  8
0
  6
Continuous
 62
     7
370
    25
100
AcDbSpline
210
0.0
220
0.0
230
1.0
 70
     8
 71
     3
 72
    10
 73
     6
 74
     0
 42
0.00000001
 43
0.00000001
 40
0.2509073127091721
 40
0.2509073127091721
 40
0.2509073127091721
 40
0.2509073127091721
 40
0.3515944305239067
 40
0.5083176526908539
 40
0.6383829585058094
 40
0.6383829585058094
 40
0.6383829585058094
 40
0.6383829585058094
 10
7.768070424059087
 20
1.386003830914633
 30
0.0
 10
7.813733379580615
 20
1.384143101631541
 30
0.0
 10
7.930504452966462
 20
1.380026876758143
 30
0.0
 10
8.10686966363729
 20
1.376091172411043
 30
0.0
 10
8.237540155612612
 20
1.374832439103642
 30
0.0
 10
8.296851406150937
 20
1.374579505190886
 30
0.0
  0
ARC
  5
17E
330
1F
100
AcDbEntity
  8
0
  6
Continuous
 62
     7
370
    25
100
AcDbCircle
 10
8.297917526
 20
1.624577232
 30
0.0
 40
0.2499999999999997
100
AcDbArc
 50
269.7556625815
 51
0.0
  0
LINE
  5
17F
330
1F
100
AcDbEntity
  8
0
  6
Continuous
 62
     7
370
    25
100
AcDbLine
 10
8.547917526
 20
1.624577232
 30
0.0
 11
8.547917526
 21
1.7905039337
 31
0.0
  0
ARC
  5
180
330
1F
100
AcDbEntity
  8
0
  6
Continuous
 62
     7
370
    25
100
AcDbCircle
 10
8.297917526
 20
1.7905039337
 30
0.0
 40
0.2500000000000018
100
AcDbArc
 50
0.0
 51
54.3029825192
  0
LINE
  5
181
330
1F
100
AcDbEntity
  8
0
  6
Continuous
 62
     7
370
    25
100
AcDbLine
 10
7.4630411467
 20
2.698196166
 30
0.0
 11
8.4437922605
 21
1.9935324092
 31
0.0
  0
ARC
  5
182
330
1F
100
AcDbEntity
  8
0
  6
Continuous
 62
     7
370
    25
100
AcDbCircle
 10
7.3171664123
 20
2.4951676905
 30
0.0
 40
0.2500000000000001
100
AcDbArc
 50
54.3029825192
 51
109.0748391021
  0
LINE
  5
183
330
1F
100
AcDbEntity
  8
0
  6
Continuous
 62
     7
370
    25
100
AcDbLine
 10
7.2354656867
 20
2.7314408194
 30
0.0
 11
6.985285966
 21
2.6449313429
 31
0.0
  0
ARC
  5
184
330
1F
100
AcDbEntity
  8
0
  6
Continuous
 62
     7
370
    25
100
AcDbCircle
 10
6.9624097629
 20
2.711087819
 30
0.0
 40
0.0699999999999998
100
AcDbArc
 50
199.0769299963
 51
289.0748391021
  0
LINE
  5
185
330
1F
100
AcDbEntity
  8
0
  6
Continuous
 62
     7
370
    25
100
AcDbLine
 10
6.8962541216
 20
2.6882092016
 30
0.0
 11
6.8906304696
 21
2.7044705124
 31
0.0
  0
ARC
  5
186
330
1F
100
AcDbEntity
  8
0
  6
Continuous
 62
     7
370
    25
100
AcDbCircle
 10
6.8244748283
 20
2.6815918951
 30
0.0
 40
0.0700000000000001
100
AcDbArc
 50
19.0769299963
 51
113.7393092596
  0
ARC
  5
187
330
1F
100
AcDbEntity
  8
0
  6
Continuous
 62
     7
370
    25
100
AcDbCircle
 10
6.2789418002
 20
2.1908334337
 30
0.0
 40
0.2500000000000009
100
AcDbArc
 50
123.1227539059
 51
180.0
  0
LINE
  5
188
330
1F
100
AcDbEntity
  8
0
  6
Continuous
 62
     7
370
    25
100
AcDbLine
 10
6.0289418002
 20
2.1908334337
 30
0.0
 11
6.0289418002
 21
1.8384391487
 31
0.0
  0
ARC
  5
189
330
1F
100
AcDbEntity
  8
0
  6
Continuous
 62
     7
370
    25
100
AcDbCircle
 10
6.2789418002
 20
1.8384391487
 30
0.0
 40
0.25
100
AcDbArc
 50
180.0
 51
253.3657449255
  0
SPLINE
  5
18A
330
1F
100
AcDbEntity
  8
0
  6
Continuous
 62
     7
370
    25
100
AcDbSpline
210
0.0
220
0.0
230
1.0
 70
     8
 71
     3
 72
    10
 73
     6
 74
     0
 42
0.00000001
 43
0.00000001
 40
0.3870985477236558
 40
0.3870985477236558
 40
0.3870985477236558
 40
0.3870985477236558
 40
0.4515591493733761
 40
0.5893958939050435
 40
0.6446105320390293
 40
0.6446105320390293
 40
0.6446105320390293
 40
0.6446105320390293
 10
6.207376484475391
 20
1.598901248605032
 30
0.0
 10
6.226032456436956
 20
1.593327514669316
 30
0.0
 10
6.285036036691021
 20
1.576340793811437
 30
0.0
 10
6.361487502939005
 20
1.556705513538235
 30
0.0
 10
6.419782917555891
 20
1.543169234795363
 30
0.0
 10
6.436500963839993
 20
1.539396572155306
 30
0.0
  0
ARC
  5
18B
330
1F
100
AcDbEntity
  8
0
  6
Continuous
 62
     7
370
    25
100
AcDbCircle
 10
6.4519099752
 20
1.6076795303
 30
0.0
 40
0.0699999999999999
100
AcDbArc
 50
257.2834057491
 51
352.762058095
  0
LINE
  5
18C
330
1F
100
AcDbEntity
  8
0
  6
Continuous
 62
     7
370
    25
100
AcDbLine
 10
6.5213521793
 20
1.5988602166
 30
0.0
 11
6.5257642875
 21
1.6336006205
 31
0.0
  0
ARC
  5
18D
330
1F
100
AcDbEntity
  8
0
  6
Continuous
 62
     7
370
    25
100
AcDbCircle
 10
6.5952064916
 20
1.6247813068
 30
0.0
 40
0.0700000000000001
100
AcDbArc
 50
82.7509731746
 51
172.762058095
  0
LINE
  5
18E
330
1F
100
AcDbEntity
  8
0
  6
Continuous
 62
     7
370
    25
100
AcDbLine
 10
6.6040392399
 20
1.6942218033
 30
0.0
 11
7.6432988904
 21
1.5620292145
 31
0.0
  0
ARC
  5
18F
330
1F
100
AcDbEntity
  8
0
  6
Continuous
 62
     7
370
    25
100
AcDbCircle
 10
7.634466142
 20
1.492588718
 30
0.0
 40
0.0700000000000004
100
AcDbArc
 50
352.7130789788
 51
82.7509731746
  0
LINE
  5
190
330
1F
100
AcDbEntity
  8
0
  6
Continuous
 62
     7
370
    25
100
AcDbLine
 10
7.7039007816
 20
1.4837100451
 30
0.0
 11
7.7014858638
 21
1.4648244587
 31
0.0
  0
ARC
  5
191
330
1F
100
AcDbEntity
  8
0
  6
Continuous
 62
     7
370
    25
100
AcDbCircle
 10
14.5808047572
 20
3.711688807
 30
0.0
 40
0.0699999999999994
100
AcDbArc
 50
178.012933586
 51
267.918113008
  0
LINE
  5
192
330
1F
100
AcDbEntity
  8
0
  6
Continuous
 62
     7
370
    25
100
AcDbLine
 10
14.5108468496
 20
3.71411598
 30
0.0
 11
14.5120506427
 21
3.7488126614
 31
0.0
  0
ARC
  5
193
330
1F
100
AcDbEntity
  8
0
  6
Continuous
 62
     7
370
    25
100
AcDbCircle
 10
14.4420927351
 20
3.7512398344
 30
0.0
 40
0.0699999999999995
100
AcDbArc
 50
358.012933586
 51
88.9359187669
  0
SPLINE
  5
194
330
1F
100
AcDbEntity
  8
0
  6
Continuous
 62
     7
370
    25
100
AcDbSpline
210
0.0
220
0.0
230
1.0
 70
     8
 71
     3
 72
    11
 73
     7
 74
     0
 42
0.00000001
 43
0.00000001
 40
0.1595555774835458
 40
0.1595555774835458
 40
0.1595555774835458
 40
0.1595555774835458
 40
0.3133945421041341
 40
0.5023835561538691
 40
0.6913725702036041
 40
0.7588235175416258
 40
0.7588235175416258
 40
0.7588235175416258
 40
0.7588235175416258
 10
14.44339268087886
 20
3.821227762895712
 30
0.0
 10
14.33963081407057
 20
3.823155020920449
 30
0.0
 10
14.10837064267293
 20
3.826445228046622
 30
0.0
 10
13.74972284497611
 20
3.827971650488987
 30
0.0
 10
13.44938868933692
 20
3.825845005838384
 30
0.0
 10
13.27656007006211
 20
3.823234107178164
 30
0.0
 10
13.23110494411369
 20
3.822449874669245
 30
0.0
  0
ARC
  5
195
330
1F
100
AcDbEntity
  8
0
  6
Continuous
 62
     7
370
    25
100
AcDbCircle
 10
13.235417526
 20
3.5724870742
 30
0.0
 40
0.2500000000000001
100
AcDbArc
 50
90.9884199959
 51
180.0
  0
LINE
  5
196
330
1F
100
AcDbEntity
  8
0
  6
Continuous
 62
     7
370
    25
100
AcDbLine
 10
12.985417526
 20
3.5724870742
 30
0.0
 11
12.985417526
 21
3.5685601675
 31
0.0
  0
ARC
  5
197
330
1F
100
AcDbEntity
  8
0
  6
Continuous
 62
     7
370
    25
100
AcDbCircle
 10
13.235417526
 20
3.5685601675
 30
0.0
 40
0.2500000000000018
100
AcDbArc
 50
180.0
 51
259.6792120604
  0
LINE
  5
198
330
1F
100
AcDbEntity
  8
0
  6
Continuous
 62
     7
370
    25
100
AcDbLine
 10
13.1906277324
 20
3.3226051424
 30
0.0
 11
15.8232828285
 21
2.84318384
 31
0.0
  0
ARC
  5
199
330
1F
100
AcDbEntity
  8
0
  6
Continuous
 62
     7
370
    25
100
AcDbCircle
 10
15.8680726221
 20
3.0891388652
 30
0.0
 40
0.25
100
AcDbArc
 50
259.6792120604
 51
270.0
  0
LINE
  5
19A
330
1F
100
AcDbEntity
  8
0
  6
Continuous
 62
     7
370
    25
100
AcDbLine
 10
15.8680726221
 20
2.8391388652
 30
0.0
 11
16.2301490634
 21
2.8391388652
 31
0.0
  0
ARC
  5
19B
330
1F
100
AcDbEntity
  8
0
  6
Continuous
 62
     7
370
    25
100
AcDbCircle
 10
16.2301490634
 20
3.0891388652
 30
0.0
 40
0.2500000000000004
100
AcDbArc
 50
270.0
 51
312.1669860754
  0
LINE
  5
19C
330
1F
100
AcDbEntity
  8
0
  6
Continuous
 62
     7
370
    25
100
AcDbLine
 10
16.3979724696
 20
2.9038409852
 30
0.0
 11
16.8137611243
 21
3.280418787
 31
0.0
  0
ARC
  5
19D
330
1F
100
AcDbEntity
  8
0
  6
Continuous
 62
     7
370
    25
100
AcDbCircle
 10
16.6459377181
 20
3.465716667
 30
0.0
 40
0.2500000000000006
100
AcDbArc
 50
312.1669860754
 51
85.6776700281
  0
SPLINE
  5
19E
330
1F
100
AcDbEntity
  8
0
  6
Continuous
 62
     7
370
    25
100
AcDbSpline
210
0.0
220
0.0
230
1.0
 70
     8
 71
     3
 72
    10
 73
     6
 74
     0
 42
0.00000001
 43
0.00000001
 40
0.4839192087399309
 40
0.4839192087399309
 40
0.4839192087399309
 40
0.4839192087399309
 40
0.5662886507670303
 40
0.7298946536146533
 40
0.8634409485625689
 40
0.8634409485625689
 40
0.8634409485625689
 40
0.8634409485625689
 10
16.66477955697053
 20
3.715005626021587
 30
0.0
 10
16.60011783480843
 20
3.719892909264141
 30
0.0
 10
16.40699618229354
 20
3.734040912218596
 30
0.0
 10
16.10889963590635
 20
3.753790171449866
 30
0.0
 10
15.87541299557213
 20
3.767241049982993
 30
0.0
 10
15.7704559251766
 20
3.772872987347262
 30
0.0
  0
ARC
  5
19F
330
1F
100
AcDbEntity
  8
0
  6
Continuous
 62
     7
370
    25
100
AcDbCircle
 10
15.7667051605
 20
3.702973547
 30
0.0
 40
0.0700000000000037
100
AcDbArc
 50
86.9284864097
 51
177.7225440242
  0
LINE
  5
1A0
330
1F
100
AcDbEntity
  8
0
  6
Continuous
 62
     7
370
    25
100
AcDbLine
 10
15.6967604529
 20
3.7057552517
 30
0.0
 11
15.6953755734
 21
3.6709330813
 31
0.0
  0
ARC
  5
1A1
330
1F
100
AcDbEntity
  8
0
  6
Continuous
 62
     7
370
    25
100
AcDbCircle
 10
15.6254308658
 20
3.673714786
 30
0.0
 40
0.0700000000000037
100
AcDbArc
 50
267.918113008
 51
357.7225440242
  0
LINE
  5
1A2
330
1F
100
AcDbEntity
  8
0
  6
Continuous
 62
     7
370
    25
100
AcDbLine
 10
15.6228879207
 20
3.6037609911
 30
0.0
 11
14.578261812
 21
3.641735012
 31
0.0
  0
ARC
  5
1A3
330
1F
100
AcDbEntity
  8
0
  6
Continuous
 62
     7
370
    25
100
AcDbCircle
 10
9.3377279401
 20
3.3654152609
 30
0.0
 40
0.0700000000000004
100
AcDbArc
 50
188.6676433001
 51
278.4746428927
  0
LINE
  5
1A4
330
1F
100
AcDbEntity
  8
0
  6
Continuous
 62
     7
370
    25
100
AcDbLine
 10
9.2685273996
 20
3.3548660814
 30
0.0
 11
9.2643069506
 21
3.3825513956
 31
0.0
  0
ARC
  5
1A5
330
1F
100
AcDbEntity
  8
0
  6
Continuous
 62
     7
370
    25
100
AcDbCircle
 10
9.1951064101
 20
3.3720022162
 30
0.0
 40
0.0700000000000019
100
AcDbArc
 50
8.6676433001
 51
100.7982721657
  0
SPLINE
  5
1A6
330
1F
100
AcDbEntity
  8
0
  6
Continuous
 62
     7
370
    25
100
AcDbSpline
210
0.0
220
0.0
230
1.0
 70
     8
 71
     3
 72
    11
 73
     7
 74
     0
 42
0.00000001
 43
0.00000001
 40
0.1800437327403447
 40
0.1800437327403447
 40
0.1800437327403447
 40
0.1800437327403447
 40
0.3191049814292582
 40
0.4981499023592186
 40
0.677194823289179
 40
0.814917363919227
 40
0.814917363919227
 40
0.814917363919227
 40
0.814917363919227
 10
9.181991791621883
 20
3.44076271927359
 30
0.0
 10
9.09925675668105
 20
3.424982753044733
 30
0.0
 10
8.910241599220468
 20
3.387468819056043
 30
0.0
 10
8.616443172859997
 20
3.323602877865633
 30
0.0
 10
8.325165380946228
 20
3.2535497642718
 30
0.0
 10
8.140572762830177
 20
3.204946205435197
 30
0.0
 10
8.06052527158192
 20
3.183004401619725
 30
0.0
  0
ARC
  5
1A7
330
1F
100
AcDbEntity
  8
0
  6
Continuous
 62
     7
370
    25
100
AcDbCircle
 10
8.0790303488
 20
3.1154946829
 30
0.0
 40
0.0700000000000005
100
AcDbArc
 50
105.3288231295
 51
199.0735181302
  0
LINE
  5
1A8
330
1F
100
AcDbEntity
  8
0
  6
Continuous
 62
     7
370
    25
100
AcDbLine
 10
8.0128733453
 20
3.092620005
 30
0.0
 11
8.0413976327
 21
3.0101234822
 31
0.0
  0
ARC
  5
1A9
330
1F
100
AcDbEntity
  8
0
  6
Continuous
 62
     7
370
    25
100
AcDbCircle
 10
8.0835487823
 20
2.9542371637
 30
0.0
 40
0.0700000000000007
100
AcDbArc
 50
127.0247016937
 51
234.3029825192
  0
LINE
  5
1AA
330
1F
100
AcDbEntity
  8
0
  6
Continuous
 62
     7
370
    25
100
AcDbLine
 10
8.0427038567
 20
2.8973891906
 30
0.0
 11
9.0267369509
 21
2.1903673507
 31
0.0
  0
ARC
  5
1AB
330
1F
100
AcDbEntity
  8
0
  6
Continuous
 62
     7
370
    25
100
AcDbCircle
 10
9.1726116853
 20
2.3933958261
 30
0.0
 40
0.2500000000000002
100
AcDbArc
 50
234.3029825192
 51
293.2643544278
  0
LINE
  5
1AC
330
1F
100
AcDbEntity
  8
0
  6
Continuous
 62
     7
370
    25
100
AcDbLine
 10
9.271355193
 20
2.1637227548
 30
0.0
 11
11.5841610337
 21
3.1580690223
 31
0.0
  0
ARC
  5
1AD
330
1F
100
AcDbEntity
  8
0
  6
Continuous
 62
     7
370
    25
100
AcDbCircle
 10
11.485417526
 20
3.3877420937
 30
0.0
 40
0.25
100
AcDbArc
 50
293.2643544278
 51
0.0
  0
LINE
  5
1AE
330
1F
100
AcDbEntity
  8
0
  6
Continuous
 62
     7
370
    25
100
AcDbLine
 10
11.735417526
 20
3.3877420937
 30
0.0
 11
11.735417526
 21
3.4901818877
 31
0.0
  0
ARC
  5
1AF
330
1F
100
AcDbEntity
  8
0
  6
Continuous
 62
     7
370
    25
100
AcDbCircle
 10
11.485417526
 20
3.4901818877
 30
0.0
 40
0.2500000000000018
100
AcDbArc
 50
0.0
 51
94.5234657389
  0
SPLINE
  5
1B0
330
1F
100
AcDbEntity
  8
0
  6
Continuous
 62
     7
370
    25
100
AcDbSpline
210
0.0
220
0.0
230
1.0
 70
     8
 71
     3
 72
    11
 73
     7
 74
     0
 42
0.00000001
 43
0.00000001
 40
0.291789475513094
 40
0.291789475513094
 40
0.291789475513094
 40
0.291789475513094
 40
0.3237704675217529
 40
0.5030953936777762
 40
0.6824203198337997
 40
0.8224662802646776
 40
0.8224662802646776
 40
0.8224662802646776
 40
0.8224662802646776
 10
11.46570068077455
 20
3.739403166961998
 30
0.0
 10
11.44619642770274
 20
3.737860111164931
 30
0.0
 10
11.31734586734391
 20
3.727517359185408
 30
0.0
 10
11.07941036194427
 20
3.70658258609174
 30
0.0
 10
10.77617328779636
 20
3.67571900511925
 30
0.0
 10
10.58237539116526
 20
3.653489468367145
 30
0.0
 10
10.49744985485405
 20
3.643247889432353
 30
0.0
  0
ARC
  5
1B1
330
1F
100
AcDbEntity
  8
0
  6
Continuous
 62
     7
370
    25
100
AcDbCircle
 10
10.5058307693
 20
3.5737514127
 30
0.0
 40
0.0700000000000001
100
AcDbArc
 50
96.8763673734
 51
188.4743641789
  0
LINE
  5
1B2
330
1F
100
AcDbEntity
  8
0
  6
Continuous
 62
     7
370
    25
100
AcDbLine
 10
10.4365950364
 20
3.563435731
 30
0.0
 11
10.4415932431
 21
3.5298892806
 31
0.0
  0
ARC
  5
1B3
330
1F
100
AcDbEntity
  8
0
  6
Continuous
 62
     7
370
    25
100
AcDbCircle
 10
10.3723575102
 20
3.5195735989
 30
0.0
 40
0.0700000000000005
100
AcDbArc
 50
278.4746428927
 51
8.4743641789
  0
LINE
  5
1B4
330
1F
100
AcDbEntity
  8
0
  6
Continuous
 62
     7
370
    25
100
AcDbLine
 10
10.3826735287
 20
3.4503379162
 30
0.0
 11
9.3480439586
 21
3.2961795781
 31
0.0
  0
ARC
  5
1B5
330
1F
100
AcDbEntity
  8
0
  6
Continuous
 62
     7
370
    25
100
AcDbCircle
 10
13.2114862935
 20
1.835316442
 30
0.0
 40
0.07
100
AcDbArc
 50
186.723157919
 51
277.1279146178
  0
SPLINE
  5
1B6
330
1F
100
AcDbEntity
  8
0
  6
Continuous
 62
     7
370
    25
100
AcDbSpline
210
0.0
220
0.0
230
1.0
 70
     8
 71
     3
 72
    11
 73
     7
 74
     0
 42
0.00000001
 43
0.00000001
 40
0.1104945868592101
 40
0.1104945868592101
 40
0.1104945868592101
 40
0.1104945868592101
 40
0.2959951457371116
 40
0.5057145266002229
 40
0.7154339074633342
 40
0.8502422090008761
 40
0.8502422090008761
 40
0.8502422090008761
 40
0.8502422090008761
 10
13.22017223842794
 20
1.765857429938251
 30
0.0
 10
13.39876241572139
 20
1.788190377177592
 30
0.0
 10
13.7790978114143
 20
1.836642830677428
 30
0.0
 10
14.36149762474732
 20
1.913009509964628
 30
0.0
 10
14.89500327464468
 20
1.984405797705159
 30
0.0
 10
15.2267441260466
 20
2.029308743453512
 30
0.0
 10
15.3565434856603
 20
2.046927354600058
 30
0.0
  0
ARC
  5
1B7
330
1F
100
AcDbEntity
  8
0
  6
Continuous
 62
     7
370
    25
100
AcDbCircle
 10
15.322917526
 20
2.2946556227
 30
0.0
 40
0.2500000000000002
100
AcDbArc
 50
277.7299302622
 51
345.7960698244
  0
ARC
  5
1B8
330
1F
100
AcDbEntity
  8
0
  6
Continuous
 62
     7
370
    25
100
AcDbCircle
 10
15.322917526
 20
2.1719686808
 30
0.0
 40
0.2499999999999996
100
AcDbArc
 50
14.2039301756
 51
79.6792120604
  0
LINE
  5
1B9
330
1F
100
AcDbEntity
  8
0
  6
Continuous
 62
     7
370
    25
100
AcDbLine
 10
12.4640745419
 20
2.9466915684
 30
0.0
 11
15.3677073197
 21
2.4179237059
 31
0.0
  0
ARC
  5
1BA
330
1F
100
AcDbEntity
  8
0
  6
Continuous
 62
     7
370
    25
100
AcDbCircle
 10
12.4192847483
 20
2.7007365433
 30
0.0
 40
0.25
100
AcDbArc
 50
79.6792120604
 51
113.2643544278
  0
LINE
  5
1BB
330
1F
100
AcDbEntity
  8
0
  6
Continuous
 62
     7
370
    25
100
AcDbLine
 10
9.8241740184
 20
1.8571446711
 30
0.0
 11
12.3205412407
 21
2.9304096146
 31
0.0
  0
ARC
  5
1BC
330
1F
100
AcDbEntity
  8
0
  6
Continuous
 62
     7
370
    25
100
AcDbCircle
 10
9.922917526
 20
1.6274715998
 30
0.0
 40
0.2500000000000018
100
AcDbArc
 50
113.2643544278
 51
173.7770836183
  0
ARC
  5
1BD
330
1F
100
AcDbEntity
  8
0
  6
Continuous
 62
     7
370
    25
100
AcDbCircle
 10
9.922917526
 20
1.6816700868
 30
0.0
 40
0.2500000000000019
100
AcDbArc
 50
186.2229163817
 51
273.8091336558
  0
SPLINE
  5
1BE
330
1F
100
AcDbEntity
  8
0
  6
Continuous
 62
     7
370
    25
100
AcDbSpline
210
0.0
220
0.0
230
1.0
 70
     8
 71
     3
 72
    11
 73
     7
 74
     0
 42
0.00000001
 43
0.00000001
 40
0.1882465016670551
 40
0.1882465016670551
 40
0.1882465016670551
 40
0.1882465016670551
 40
0.2978464626258699
 40
0.5023397152783963
 40
0.7068329679309227
 40
0.8863722733547291
 40
0.8863722733547291
 40
0.8863722733547291
 40
0.8863722733547291
 10
9.939525766391752
 20
1.432222364075608
 30
0.0
 10
10.0421393057437
 20
1.439054378044957
 30
0.0
 10
10.33615562261019
 20
1.46002937457125
 30
0.0
 10
10.82200110600397
 20
1.500549215627472
 30
0.0
 10
11.37319767580903
 20
1.553532950647733
 30
0.0
 10
11.73298003541028
 20
1.591650733112407
 30
0.0
 10
11.90108011513768
 20
1.610096567139883
 30
0.0
  0
ARC
  5
1BF
330
1F
100
AcDbEntity
  8
0
  6
Continuous
 62
     7
370
    25
100
AcDbCircle
 10
11.8934447577
 20
1.6796789019
 30
0.0
 40
0.0700000000000005
100
AcDbArc
 50
276.2620846213
 51
6.67862327
  0
LINE
  5
1C0
330
1F
100
AcDbEntity
  8
0
  6
Continuous
 62
     7
370
    25
100
AcDbLine
 10
11.9629697453
 20
1.6878199147
 30
0.0
 11
11.9580471236
 21
1.7298595513
 31
0.0
  0
ARC
  5
1C1
330
1F
100
AcDbEntity
  8
0
  6
Continuous
 62
     7
370
    25
100
AcDbCircle
 10
12.0275721112
 20
1.7380005641
 30
0.0
 40
0.0700000000000004
100
AcDbArc
 50
96.7231363947
 51
186.67862327
  0
LINE
  5
1C2
330
1F
100
AcDbEntity
  8
0
  6
Continuous
 62
     7
370
    25
100
AcDbLine
 10
12.0193770869
 20
1.807519206
 30
0.0
 11
13.0593420763
 21
1.9301127745
 31
0.0
  0
ARC
  5
1C3
330
1F
100
AcDbEntity
  8
0
  6
Continuous
 62
     7
370
    25
100
AcDbCircle
 10
13.0675371006
 20
1.8605941326
 30
0.0
 40
0.07
100
AcDbArc
 50
6.723157919
 51
96.7231363947
  0
LINE
  5
1C4
330
1F
100
AcDbEntity
  8
0
  6
Continuous
 62
     7
370
    25
100
AcDbLine
 10
13.1370557395
 20
1.868789183
 30
0.0
 11
13.1419676546
 21
1.8271213916
 31
0.0
  0
SPLINE
  5
1C5
330
1F
100
AcDbEntity
  8
0
  6
Continuous
 62
     7
370
    25
100
AcDbSpline
210
0.0
220
0.0
230
1.0
 70
     8
 71
     3
 72
    11
 73
     7
 74
     0
 42
0.00000001
 43
0.00000001
 40
0.2230050401479405
 40
0.2230050401479405
 40
0.2230050401479405
 40
0.2230050401479405
 40
0.3349082104057434
 40
0.4975855625462474
 40
0.6602629146867514
 40
0.725824833265631
 40
0.725824833265631
 40
0.725824833265631
 40
0.725824833265631
 10
6.796294515594472
 20
2.745668957839586
 30
0.0
 10
6.745232804238653
 20
2.723212638337343
 30
0.0
 10
6.620636358792832
 20
2.666481856582469
 30
0.0
 10
6.427133442016759
 20
2.569750683070672
 30
0.0
 10
6.261204866769021
 20
2.475809962189241
 30
0.0
 10
6.168493386605641
 20
2.417277329559591
 30
0.0
 10
6.14233314974182
 20
2.400208877878317
 30
0.0
  0
ARC
  5
1C6
330
1F
100
AcDbEntity
  8
0
  6
Continuous
 62
     7
370
    25
100
AcDbCircle
 10
10.2537284514
 20
9.7125335053
 30
0.0
 40
0.0999999999999996
100
AcDbArc
 50
277.7661033681
 51
0.0
  0
LINE
  5
1C7
330
1F
100
AcDbEntity
  8
0
  6
Continuous
 62
     7
370
    25
100
AcDbLine
 10
10.3537284514
 20
9.7125335053
 30
0.0
 11
10.3537284514
 21
10.070704371
 31
0.0
  0
ARC
  5
1C8
330
1F
100
AcDbEntity
  8
0
  6
Continuous
 62
     7
370
    25
100
AcDbCircle
 10
10.2537284514
 20
10.070704371
 30
0.0
 40
0.0999999999999996
100
AcDbArc
 50
0.0
 51
84.9777372193
  0
LINE
  5
1C9
330
1F
100
AcDbEntity
  8
0
  6
Continuous
 62
     7
370
    25
100
AcDbLine
 10
10.2624827331
 20
10.1703204468
 30
0.0
 11
7.3406819738
 21
10.4270889106
 31
0.0
  0
ARC
  5
1CA
330
1F
100
AcDbEntity
  8
0
  6
Continuous
 62
     7
370
    25
100
AcDbCircle
 10
7.3319276921
 20
10.3274728348
 30
0.0
 40
0.1000000000000009
100
AcDbArc
 50
84.9777372193
 51
189.2266533723
  0
LINE
  5
1CB
330
1F
100
AcDbEntity
  8
0
  6
Continuous
 62
     7
370
    25
100
AcDbLine
 10
7.39200748
 20
9.3339460192
 30
0.0
 11
7.2332215138
 21
10.3114387973
 31
0.0
  0
ARC
  5
1CC
330
1F
100
AcDbEntity
  8
0
  6
Continuous
 62
     7
370
    25
100
AcDbCircle
 10
7.4907136584
 20
9.3499800567
 30
0.0
 40
0.1000000000000009
100
AcDbArc
 50
189.2266533723
 51
276.9074760954
  0
SPLINE
  5
1CD
330
1F
100
AcDbEntity
  8
0
  6
Continuous
 62
     7
370
    25
100
AcDbSpline
210
0.0
220
0.0
230
1.0
 70
     8
 71
     3
 72
    11
 73
     7
 74
     0
 42
0.00000001
 43
0.00000001
 40
0.3971910220243821
 40
0.3971910220243821
 40
0.3971910220243821
 40
0.3971910220243821
 40
0.4353315415357982
 40
0.4819220401051131
 40
0.528512538674428
 40
0.55106595758839
 40
0.55106595758839
 40
0.55106595758839
 40
0.55106595758839
 10
7.502740295878263
 20
9.250705890965213
 30
0.0
 10
7.730920167766449
 20
9.278348899479973
 30
0.0
 10
8.237795395995265
 20
9.341760801911235
 30
0.0
 10
9.024142824633369
 20
9.44490870898748
 30
0.0
 10
9.717460515635207
 20
9.538547512199553
 30
0.0
 10
10.1320136797585
 20
9.595008313412228
 30
0.0
 10
10.26724139287805
 20
9.613450709556812
 30
0.0
  0
LINE
  5
1CE
330
1F
100
AcDbEntity
  8
0
  6
Continuous
 62
     7
370
    25
100
AcDbLine
 10
9.5824990524
 20
11.2225111539
 30
0.0
 11
9.7686981673
 21
11.2150830579
 31
0.0
  0
SPLINE
  5
1CF
330
1F
100
AcDbEntity
  8
0
  6
Continuous
 62
     7
370
    25
100
AcDbSpline
210
0.0
220
0.0
230
1.0
 70
     8
 71
     3
 72
    11
 73
     7
 74
     0
 42
0.00000001
 43
0.00000001
 40
0.4877354600567571
 40
0.4877354600567571
 40
0.4877354600567571
 40
0.4877354600567571
 40
0.5198619675985218
 40
0.5519884751402864
 40
0.584114982682051
 40
0.5904593616783526
 40
0.5904593616783526
 40
0.5904593616783526
 40
0.5904593616783526
 10
9.582499052367458
 20
11.2225111539461
 30
0.0
 10
9.382405328919015
 20
11.22994898368806
 30
0.0
 10
8.9819715095114
 20
11.24130604111443
 30
0.0
 10
8.38174372097582
 20
11.24716615384896
 30
0.0
 10
7.942348213109761
 20
11.24280098246054
 30
0.0
 10
7.70318602508675
 20
11.23738291656961
 30
0.0
 10
7.663751172891159
 20
11.23640570554224
 30
0.0
  0
ARC
  5
1D0
330
1F
100
AcDbEntity
  8
0
  6
Continuous
 62
     7
370
    25
100
AcDbCircle
 10
7.6662284514
 20
11.1364363948
 30
0.0
 40
0.100000000000001
100
AcDbArc
 50
91.4195212636
 51
180.0
  0
LINE
  5
1D1
330
1F
100
AcDbEntity
  8
0
  6
Continuous
 62
     7
370
    25
100
AcDbLine
 10
7.5662284514
 20
11.1364363948
 30
0.0
 11
7.5662284514
 21
10.8000214333
 31
0.0
  0
ARC
  5
1D2
330
1F
100
AcDbEntity
  8
0
  6
Continuous
 62
     7
370
    25
100
AcDbCircle
 10
7.6662284514
 20
10.8000214333
 30
0.0
 40
0.0999999999999988
100
AcDbArc
 50
180.0
 51
264.9777372193
  0
LINE
  5
1D3
330
1F
100
AcDbEntity
  8
0
  6
Continuous
 62
     7
370
    25
100
AcDbLine
 10
11.1056617108
 20
10.397377913
 30
0.0
 11
7.6574741698
 21
10.7004053576
 31
0.0
  0
ARC
  5
1D4
330
1F
100
AcDbEntity
  8
0
  6
Continuous
 62
     7
370
    25
100
AcDbCircle
 10
11.1144159925
 20
10.4969939888
 30
0.0
 40
0.1000000000000016
100
AcDbArc
 50
264.9777372193
 51
354.5635810804
  0
LINE
  5
1D5
330
1F
100
AcDbEntity
  8
0
  6
Continuous
 62
     7
370
    25
100
AcDbLine
 10
11.213966187
 20
10.4875198784
 30
0.0
 11
11.2645132622
 21
11.0186484999
 31
0.0
  0
ARC
  5
1D6
330
1F
100
AcDbEntity
  8
0
  6
Continuous
 62
     7
370
    25
100
AcDbCircle
 10
11.1649630676
 20
11.0281226102
 30
0.0
 40
0.1000000000000019
100
AcDbArc
 50
354.5635810804
 51
85.3626735689
  0
SPLINE
  5
1D7
330
1F
100
AcDbEntity
  8
0
  6
Continuous
 62
     7
370
    25
100
AcDbSpline
210
0.0
220
0.0
230
1.0
 70
     8
 71
     3
 72
    10
 73
     6
 74
     0
 42
0.00000001
 43
0.00000001
 40
0.4026022944793979
 40
0.4026022944793979
 40
0.4026022944793979
 40
0.4026022944793979
 40
0.426791948405214
 40
0.4522826615348275
 40
0.4777733746644411
 40
0.4777733746644411
 40
0.4777733746644411
 40
0.4777733746644411
 10
11.17304789540639
 20
11.12779525221139
 30
0.0
 10
11.02251780805635
 20
11.14000532118924
 30
0.0
 10
10.71326412450647
 20
11.1632608787813
 30
0.0
 10
10.24513558966289
 20
11.19259656719698
 30
0.0
 10
9.92755211466476
 20
11.2083154789498
 30
0.0
 10
9.768698167316241
 20
11.21508305790736
 30
0.0
  0
LINE
  5
1D8
330
1F
100
AcDbEntity
  8
0
  6
Continuous
 62
     7
370
    25
100
AcDbLine
 10
4.6976013955
 20
10.9790569501
 30
0.0
 11
4.879934574
 21
11.0073488541
 31
0.0
  0
SPLINE
  5
1D9
330
1F
100
AcDbEntity
  8
0
  6
Continuous
 62
     7
370
    25
100
AcDbSpline
210
0.0
220
0.0
230
1.0
 70
     8
 71
     3
 72
    11
 73
     7
 74
     0
 42
0.00000001
 43
0.00000001
 40
0.7507523821382828
 40
0.7507523821382828
 40
0.7507523821382828
 40
0.7507523821382828
 40
0.7785769762915
 40
0.8064015704447173
 40
0.8342261645979345
 40
0.8458897665896267
 40
0.8458897665896267
 40
0.8458897665896267
 40
0.8458897665896267
 10
4.69760139549243
 20
10.97905695014722
 30
0.0
 10
4.528504906311111
 20
10.95189593383803
 30
0.0
 10
4.190662766889464
 20
10.89241778009287
 30
0.0
 10
3.689792488509879
 20
10.7867101357292
 30
0.0
 10
3.290695739149705
 20
10.68610860716637
 30
0.0
 10
3.060417390831928
 20
10.6200993260204
 30
0.0
 10
2.992674528848376
 20
10.59990437830868
 30
0.0
  0
ARC
  5
1DA
330
1F
100
AcDbEntity
  8
0
  6
Continuous
 62
     7
370
    25
100
AcDbCircle
 10
3.0212432661
 20
10.5040720912
 30
0.0
 40
0.1000000000000012
100
AcDbArc
 50
106.5999405383
 51
212.4875064747
  0
LINE
  5
1DB
330
1F
100
AcDbEntity
  8
0
  6
Continuous
 62
     7
370
    25
100
AcDbLine
 10
2.9368924076
 20
10.4503605221
 30
0.0
 11
3.4770823148
 21
9.6020240614
 31
0.0
  0
ARC
  5
1DC
330
1F
100
AcDbEntity
  8
0
  6
Continuous
 62
     7
370
    25
100
AcDbCircle
 10
3.5614331733
 20
9.6557356306
 30
0.0
 40
0.1000000000000004
100
AcDbArc
 50
212.4875064747
 51
270.0
  0
LINE
  5
1DD
330
1F
100
AcDbEntity
  8
0
  6
Continuous
 62
     7
370
    25
100
AcDbLine
 10
3.5614331733
 20
9.5557356306
 30
0.0
 11
3.8621806958
 21
9.5557356306
 31
0.0
  0
ARC
  5
1DE
330
1F
100
AcDbEntity
  8
0
  6
Continuous
 62
     7
370
    25
100
AcDbCircle
 10
3.8621806958
 20
9.6557356306
 30
0.0
 40
0.0999999999999996
100
AcDbArc
 50
270.0
 51
293.8895915349
  0
LINE
  5
1DF
330
1F
100
AcDbEntity
  8
0
  6
Continuous
 62
     7
370
    25
100
AcDbLine
 10
3.9026782453
 20
9.5643028767
 30
0.0
 11
6.4567260009
 21
10.6955460141
 31
0.0
  0
ARC
  5
1E0
330
1F
100
AcDbEntity
  8
0
  6
Continuous
 62
     7
370
    25
100
AcDbCircle
 10
6.4162284514
 20
10.786978768
 30
0.0
 40
0.1000000000000007
100
AcDbArc
 50
293.8895915349
 51
0.0
  0
LINE
  5
1E1
330
1F
100
AcDbEntity
  8
0
  6
Continuous
 62
     7
370
    25
100
AcDbLine
 10
6.5162284514
 20
10.786978768
 30
0.0
 11
6.5162284514
 21
11.0757097988
 31
0.0
  0
ARC
  5
1E2
330
1F
100
AcDbEntity
  8
0
  6
Continuous
 62
     7
370
    25
100
AcDbCircle
 10
6.4162284514
 20
11.0757097988
 30
0.0
 40
0.0999999999999993
100
AcDbArc
 50
0.0
 51
94.2262487294
  0
SPLINE
  5
1E3
330
1F
100
AcDbEntity
  8
0
  6
Continuous
 62
     7
370
    25
100
AcDbSpline
210
0.0
220
0.0
230
1.0
 70
     8
 71
     3
 72
    10
 73
     6
 74
     0
 42
0.00000001
 43
0.00000001
 40
0.65789224498557
 40
0.65789224498557
 40
0.65789224498557
 40
0.65789224498557
 40
0.6851225490080408
 40
0.7129501021904668
 40
0.7407776553728929
 40
0.7407776553728929
 40
0.7407776553728929
 40
0.7407776553728929
 10
6.408858942839315
 20
11.17543788081162
 30
0.0
 10
6.240409612080405
 20
11.16299014528575
 30
0.0
 10
5.900442123785016
 20
11.13416150049196
 30
0.0
 10
5.390363575129219
 20
11.07877553292267
 30
0.0
 10
5.049908873163529
 20
11.03280549989026
 30
0.0
 10
4.879934573954797
 20
11.00734885407146
 30
0.0
  0
ARC
  5
1E4
330
1F
100
AcDbEntity
  8
0
  6
Continuous
 62
     7
370
    25
100
AcDbCircle
 10
6.9936911863
 20
9.291304178
 30
0.0
 40
0.0999999999999994
100
AcDbArc
 50
276.5425014102
 51
9.2266533723
  0
LINE
  5
1E5
330
1F
100
AcDbEntity
  8
0
  6
Continuous
 62
     7
370
    25
100
AcDbLine
 10
7.0923973646
 20
9.3073382156
 30
0.0
 11
6.9098541995
 21
10.4310812632
 31
0.0
  0
ARC
  5
1E6
330
1F
100
AcDbEntity
  8
0
  6
Continuous
 62
     7
370
    25
100
AcDbCircle
 10
6.8111480212
 20
10.4150472256
 30
0.0
 40
0.0999999999999992
100
AcDbArc
 50
9.2266533723
 51
113.8895915349
  0
LINE
  5
1E7
330
1F
100
AcDbEntity
  8
0
  6
Continuous
 62
     7
370
    25
100
AcDbLine
 10
4.3132309019
 20
9.4180355611
 30
0.0
 11
6.7706504717
 21
10.5064799795
 31
0.0
  0
ARC
  5
1E8
330
1F
100
AcDbEntity
  8
0
  6
Continuous
 62
     7
370
    25
100
AcDbCircle
 10
4.3537284514
 20
9.3266028072
 30
0.0
 40
0.0999999999999996
100
AcDbArc
 50
113.8895915349
 51
180.0
  0
LINE
  5
1E9
330
1F
100
AcDbEntity
  8
0
  6
Continuous
 62
     7
370
    25
100
AcDbLine
 10
4.2537284514
 20
9.3266028072
 30
0.0
 11
4.2537284514
 21
9.0645296796
 31
0.0
  0
ARC
  5
1EA
330
1F
100
AcDbEntity
  8
0
  6
Continuous
 62
     7
370
    25
100
AcDbCircle
 10
4.3537284514
 20
9.0645296796
 30
0.0
 40
0.1000000000000005
100
AcDbArc
 50
180.0
 51
272.5668404367
  0
SPLINE
  5
1EB
330
1F
100
AcDbEntity
  8
0
  6
Continuous
 62
     7
370
    25
100
AcDbSpline
210
0.0
220
0.0
230
1.0
 70
     8
 71
     3
 72
    11
 73
     7
 74
     0
 42
0.00000001
 43
0.00000001
 40
0.2216021127557872
 40
0.2216021127557872
 40
0.2216021127557872
 40
0.2216021127557872
 40
0.2392114226021229
 40
0.2856073913192054
 40
0.3320033600362878
 40
0.369448602232968
 40
0.369448602232968
 40
0.369448602232968
 40
0.369448602232968
 10
4.358206934702574
 20
8.964630014047062
 30
0.0
 10
4.462873897665636
 20
8.96932221437209
 30
0.0
 10
4.843847834181085
 20
8.988980987433465
 30
0.0
 10
5.502023702826135
 20
9.037090295148978
 30
0.0
 10
6.279784660206476
 20
9.111233402068061
 30
0.0
 10
6.781292969780088
 20
9.166289336457726
 30
0.0
 10
7.005085206694657
 20
9.19195541707681
 30
0.0
  0
LINE
  5
1EC
330
1F
100
AcDbEntity
  8
0
  6
Continuous
 62
     7
370
    25
100
AcDbLine
 10
2.0891862134
 20
9.0332603111
 30
0.0
 11
2.2631682574
 21
9.0095645967
 31
0.0
  0
SPLINE
  5
1ED
330
1F
100
AcDbEntity
  8
0
  6
Continuous
 62
     7
370
    25
100
AcDbSpline
210
0.0
220
0.0
230
1.0
 70
     8
 71
     3
 72
    11
 73
     7
 74
     0
 42
0.00000001
 43
0.00000001
 40
0.1024120865606991
 40
0.1024120865606991
 40
0.1024120865606991
 40
0.1024120865606991
 40
0.1128519311275444
 40
0.1232917756943896
 40
0.1441714648280801
 40
0.1578544985724843
 40
0.1578544985724843
 40
0.1578544985724843
 40
0.1578544985724843
 10
2.263168257445495
 20
9.009564596684358
 30
0.0
 10
2.322591888950106
 20
9.002308402417514
 30
0.0
 10
2.441299856695673
 20
8.989418875445153
 30
0.0
 10
2.681939984711557
 20
8.96890381610125
 30
0.0
 10
2.943839976800281
 20
8.954468056672745
 30
0.0
 10
3.146373436641633
 20
8.948640548479245
 30
0.0
 10
3.226762699062075
 20
8.94705998924623
 30
0.0
  0
ARC
  5
1EE
330
1F
100
AcDbEntity
  8
0
  6
Continuous
 62
     7
370
    25
100
AcDbCircle
 10
3.2287284514
 20
9.0470406665
 30
0.0
 40
0.1000000000000001
100
AcDbArc
 50
268.8736343114
 51
0.0
  0
LINE
  5
1EF
330
1F
100
AcDbEntity
  8
0
  6
Continuous
 62
     7
370
    25
100
AcDbLine
 10
3.3287284514
 20
9.0470406665
 30
0.0
 11
3.3287284514
 21
9.2473306741
 31
0.0
  0
ARC
  5
1F0
330
1F
100
AcDbEntity
  8
0
  6
Continuous
 62
     7
370
    25
100
AcDbCircle
 10
3.2287284514
 20
9.2473306741
 30
0.0
 40
0.1000000000000001
100
AcDbArc
 50
0.0
 51
32.4875064747
  0
LINE
  5
1F1
330
1F
100
AcDbEntity
  8
0
  6
Continuous
 62
     7
370
    25
100
AcDbLine
 10
2.615457741
 20
10.3966158642
 30
0.0
 11
3.31307931
 21
9.3010422432
 31
0.0
  0
ARC
  5
1F2
330
1F
100
AcDbEntity
  8
0
  6
Continuous
 62
     7
370
    25
100
AcDbCircle
 10
2.5311068825
 20
10.3429042951
 30
0.0
 40
0.1000000000000009
100
AcDbArc
 50
32.4875064747
 51
109.938506396
  0
SPLINE
  5
1F3
330
1F
100
AcDbEntity
  8
0
  6
Continuous
 62
     7
370
    25
100
AcDbSpline
210
0.0
220
0.0
230
1.0
 70
     8
 71
     3
 72
    13
 73
     9
 74
     0
 42
0.00000001
 43
0.00000001
 40
0.874685447926492
 40
0.874685447926492
 40
0.874685447926492
 40
0.874685447926492
 40
0.8861425303838586
 40
0.9003253724268915
 40
0.9145082144699244
 40
0.9286910565129571
 40
0.9344693091336715
 40
0.934654262851692
 40
0.934654262851692
 40
0.934654262851692
 40
0.934654262851692
 10
2.497005741830424
 20
10.43691021087507
 30
0.0
 10
2.432458913796809
 20
10.41349550933618
 30
0.0
 10
2.288540889589763
 20
10.35913378320867
 30
0.0
 10
2.070348443835997
 20
10.26837946126536
 30
0.0
 10
1.844185743021974
 20
10.16269007063652
 30
0.0
 10
1.67070346780046
 20
10.07016563625003
 30
0.0
 10
1.573210960080794
 20
10.01210693114507
 30
0.0
 10
1.54485050174283
 20
9.994597788272634
 30
0.0
 10
1.543971360929433
 20
9.994054416776915
 30
0.0
  0
ARC
  5
1F4
330
1F
100
AcDbEntity
  8
0
  6
Continuous
 62
     7
370
    25
100
AcDbCircle
 10
1.596546754
 20
9.9089907463
 30
0.0
 40
0.100000000000002
100
AcDbArc
 50
121.7190114067
 51
179.9999999999
  0
LINE
  5
1F5
330
1F
100
AcDbEntity
  8
0
  6
Continuous
 62
     7
370
    25
100
AcDbLine
 10
1.496546754
 20
9.9089907463
 30
0.0
 11
1.496546754
 21
9.2398763205
 31
0.0
  0
ARC
  5
1F6
330
1F
100
AcDbEntity
  8
0
  6
Continuous
 62
     7
370
    25
100
AcDbCircle
 10
1.596546754
 20
9.2398763205
 30
0.0
 40
0.0999999999999996
100
AcDbArc
 50
179.9999999999
 51
253.6729672029
  0
SPLINE
  5
1F7
330
1F
100
AcDbEntity
  8
0
  6
Continuous
 62
     7
370
    25
100
AcDbSpline
210
0.0
220
0.0
230
1.0
 70
     8
 71
     3
 72
    11
 73
     7
 74
     0
 42
0.00000001
 43
0.00000001
 40
0.0598015592307685
 40
0.0598015592307685
 40
0.0598015592307685
 40
0.0598015592307685
 40
0.0603916002410179
 40
0.0705723745020891
 40
0.0813429098733481
 40
0.0921134452446071
 40
0.0921134452446071
 40
0.0921134452446071
 40
0.0921134452446071
 10
1.568434801579021
 20
9.143909044164133
 30
0.0
 10
1.571422336411044
 20
9.143033897547598
 30
0.0
 10
1.626043100312689
 20
9.127135667629966
 30
0.0
 10
1.738397890608889
 20
9.09811317571356
 30
0.0
 10
1.909452800123241
 20
9.06242211572436
 30
0.0
 10
2.029428876096711
 20
9.042295533022052
 30
0.0
 10
2.089186213400449
 20
9.033260311120053
 30
0.0
  0
LINE
  5
1F8
330
1F
100
AcDbEntity
  8
0
  6
Continuous
 62
     7
370
    25
100
AcDbLine
 10
0.6677300367
 20
9.6636755538
 30
0.0
 11
0.996546754
 21
9.6636755536
 31
0.0
  0
SPLINE
  5
1F9
330
1F
100
AcDbEntity
  8
0
  6
Continuous
 62
     7
370
    25
100
AcDbSpline
210
0.0
220
0.0
230
1.0
 70
     8
 71
     3
 72
    25
 73
    21
 74
     0
 42
0.00000001
 43
0.00000001
 40
0.8719596883408258
 40
0.8719596883408258
 40
0.8719596883408258
 40
0.8719596883408258
 40
0.8756888428076226
 40
0.8849977189980439
 40
0.8939534257086563
 40
0.9025528972992
 40
0.9107893855889069
 40
0.9186607344672186
 40
0.9261662532328855
 40
0.933302625868879
 40
0.9400712202511936
 40
0.9464747799905837
 40
0.9525175260124116
 40
0.9582048188550785
 40
0.9635466521762344
 40
0.9685565999143283
 40
0.9732499128224859
 40
0.9776510407762231
 40
0.9817870430241908
 40
0.9854224246850883
 40
0.9854224246850883
 40
0.9854224246850883
 40
0.9854224246850883
 10
2.409039006308391
 20
10.83033460795741
 30
0.0
 10
2.386876589143434
 20
10.82245024579356
 30
0.0
 10
2.309506307052965
 20
10.79456183501778
 30
0.0
 10
2.179713527419208
 20
10.74553592011447
 30
0.0
 10
2.022599086625933
 20
10.68201696888233
 30
0.0
 10
1.873317658079322
 20
10.61730094606103
 30
0.0
 10
1.731980761129051
 20
10.55158513834382
 30
0.0
 10
1.59874835665045
 20
10.48494436227752
 30
0.0
 10
1.473715400089354
 20
10.41756532185106
 30
0.0
 10
1.357007414040715
 20
10.34955133523138
 30
0.0
 10
1.24873674294837
 20
10.2810287322575
 30
0.0
 10
1.148948893224889
 20
10.2121713227307
 30
0.0
 10
1.057781444060796
 20
10.14302232813228
 30
0.0
 10
0.975265713398499
 20
10.07375648372284
 30
0.0
 10
0.9014539184412432
 20
10.00447926514691
 30
0.0
 10
0.8364515667837629
 20
9.935238393470971
 30
0.0
 10
0.7802563196283197
 20
9.866155801626167
 30
0.0
 10
0.7329418229053852
 20
9.797286200860427
 30
0.0
 10
0.6953555513880418
 20
9.730192894382146
 30
0.0
 10
0.6757475153559517
 20
9.68517419880846
 30
0.0
 10
0.66773003668848
 20
9.663675553750702
 30
0.0
  0
LINE
  5
1FA
330
1F
100
AcDbEntity
  8
0
  6
Continuous
 62
     7
370
    25
100
AcDbLine
 10
2.4090390063
 20
10.830334608
 30
0.0
 11
2.4674924264
 21
10.659274667
 31
0.0
  0
LINE
  5
1FB
330
1F
100
AcDbEntity
  8
0
  6
Continuous
 62
     7
370
    25
100
AcDbLine
 10
2.4674924264
 20
10.659274667
 30
0.0
 11
2.6449177294
 21
10.7198933233
 31
0.0
  0
LINE
  5
1FC
330
1F
100
AcDbEntity
  8
0
  6
Continuous
 62
     7
370
    25
100
AcDbLine
 10
2.6449177294
 20
10.7198933233
 30
0.0
 11
2.5863624175
 21
10.8912969758
 31
0.0
  0
SPLINE
  5
1FD
330
1F
100
AcDbEntity
  8
0
  6
Continuous
 62
     7
370
    25
100
AcDbSpline
210
0.0
220
0.0
230
1.0
 70
     8
 71
     3
 72
    18
 73
    14
 74
     0
 42
0.00000001
 43
0.00000001
 40
0.7507523821382828
 40
0.7507523821382828
 40
0.7507523821382828
 40
0.7507523821382828
 40
0.7521175864563178
 40
0.7647920418081277
 40
0.7772081519184337
 40
0.7893556849314988
 40
0.8012239599822667
 40
0.8128036855607145
 40
0.8240829093717885
 40
0.8350546022858369
 40
0.8457095711562415
 40
0.8560378532452588
 40
0.8620507587511518
 40
0.8620507587511518
 40
0.8620507587511518
 40
0.8620507587511518
 10
4.63416477623719
 20
11.37399466085293
 30
0.0
 10
4.625662288504986
 20
11.37262895415446
 30
0.0
 10
4.538233658491679
 20
11.35851981480398
 30
0.0
 10
4.373689186190978
 20
11.33068244494129
 30
0.0
 10
4.142671160145797
 20
11.28816599155314
 30
0.0
 10
3.917289488296509
 20
11.24325319356197
 30
0.0
 10
3.697789551993494
 20
11.19595576406507
 30
0.0
 10
3.484403703373574
 20
11.14641558360255
 30
0.0
 10
3.277353706435807
 20
11.09471896291121
 30
0.0
 10
3.076862134738728
 20
11.04096054295304
 30
0.0
 10
2.88313222824483
 20
10.98526932173681
 30
0.0
 10
2.720373667772078
 20
10.93516425996558
 30
0.0
 10
2.622355916639702
 20
10.90325750913845
 30
0.0
 10
2.586362417472799
 20
10.89129697583595
 30
0.0
  0
LINE
  5
1FE
330
1F
100
AcDbEntity
  8
0
  6
Continuous
 62
     7
370
    25
100
AcDbLine
 10
4.6341647762
 20
11.3739946609
 30
0.0
 11
4.6624773407
 21
11.1944318889
 31
0.0
  0
LINE
  5
1FF
330
1F
100
AcDbEntity
  8
0
  6
Continuous
 62
     7
370
    25
100
AcDbLine
 10
4.6624773407
 20
11.1944318889
 30
0.0
 11
4.8478852117
 21
11.2223572365
 31
0.0
  0
LINE
  5
200
330
1F
100
AcDbEntity
  8
0
  6
Continuous
 62
     7
370
    25
100
AcDbLine
 10
4.8478852117
 20
11.2223572365
 30
0.0
 11
4.8206882992
 21
11.4029368707
 31
0.0
  0
SPLINE
  5
201
330
1F
100
AcDbEntity
  8
0
  6
Continuous
 62
     7
370
    25
100
AcDbSpline
210
0.0
220
0.0
230
1.0
 70
     8
 71
     3
 72
    16
 73
    12
 74
     0
 42
0.00000001
 43
0.00000001
 40
0.6294674426431888
 40
0.6294674426431888
 40
0.6294674426431888
 40
0.6294674426431888
 40
0.6428886749478425
 40
0.6571860540353127
 40
0.671325545821975
 40
0.6852940138298269
 40
0.6990781474485708
 40
0.7126650949451319
 40
0.7260426447397559
 40
0.7391977131129412
 40
0.7407776553728929
 40
0.7407776553728929
 40
0.7407776553728929
 40
0.7407776553728929
 10
6.916228451425133
 20
11.60809720630714
 30
0.0
 10
6.831684820613348
 20
11.6036887343084
 30
0.0
 10
6.65712401739877
 20
11.5937094326194
 30
0.0
 10
6.393687752410915
 20
11.57591200091644
 30
0.0
 10
6.127027972371249
 20
11.55486160975809
 30
0.0
 10
5.863856883255535
 20
11.53098633752739
 30
0.0
 10
5.604450290829977
 20
11.50438570672341
 30
0.0
 10
5.349097003301559
 20
11.47498736265648
 30
0.0
 10
5.0980706819909
 20
11.44287495839167
 30
0.0
 10
4.922476408303338
 20
11.41810361494504
 30
0.0
 10
4.830544370598327
 20
11.40441299106551
 30
0.0
 10
4.820688299210428
 20
11.40293687073641
 30
0.0
  0
LINE
  5
202
330
1F
100
AcDbEntity
  8
0
  6
Continuous
 62
     7
370
    25
100
AcDbLine
 10
6.9162284514
 20
10.9578459446
 30
0.0
 11
6.9162284514
 21
11.6080972063
 31
0.0
  0
LINE
  5
203
330
1F
100
AcDbEntity
  8
0
  6
Continuous
 62
     7
370
    25
100
AcDbLine
 10
7.1662284514
 20
10.9578459446
 30
0.0
 11
6.9162284514
 21
10.9578459446
 31
0.0
  0
LINE
  5
204
330
1F
100
AcDbEntity
  8
0
  6
Continuous
 62
     7
370
    25
100
AcDbLine
 10
7.1662284514
 20
11.6199152486
 30
0.0
 11
7.1662284514
 21
10.9578459446
 31
0.0
  0
SPLINE
  5
205
330
1F
100
AcDbEntity
  8
0
  6
Continuous
 62
     7
370
    25
100
AcDbSpline
210
0.0
220
0.0
230
1.0
 70
     8
 71
     3
 72
    17
 73
    13
 74
     0
 42
0.00000001
 43
0.00000001
 40
0.4877354600567571
 40
0.4877354600567571
 40
0.4877354600567571
 40
0.4877354600567571
 40
0.4943697398119483
 40
0.5094578326462498
 40
0.5245323463400294
 40
0.5395793198908416
 40
0.5545829838389865
 40
0.5695295460390742
 40
0.5844034168388074
 40
0.599190991934714
 40
0.613876838022588
 40
0.6162414902238156
 40
0.6162414902238156
 40
0.6162414902238156
 40
0.6162414902238156
 10
9.597357482444803
 20
11.62223509250324
 30
0.0
 10
9.555538700463213
 20
11.62378956895075
 30
0.0
 10
9.418603781307914
 20
11.62863039781388
 30
0.0
 10
9.18659433584938
 20
11.63543704749432
 30
0.0
 10
8.901480177710061
 20
11.64134780549393
 30
0.0
 10
8.616857579195111
 20
11.64476216984451
 30
0.0
 10
8.33302259207366
 20
11.64558684570434
 30
0.0
 10
8.050283778766067
 20
11.64380707902752
 30
0.0
 10
7.768937212838283
 20
11.63936176168401
 30
0.0
 10
7.489291771799357
 20
11.6321900389034
 30
0.0
 10
7.288588824330569
 20
11.62502531387222
 30
0.0
 10
7.181130767903
 20
11.62054855107564
 30
0.0
 10
7.166228451425462
 20
11.61991524864439
 30
0.0
  0
LINE
  5
206
330
1F
100
AcDbEntity
  8
0
  6
Continuous
 62
     7
370
    25
100
AcDbLine
 10
9.5973574824
 20
11.6222350925
 30
0.0
 11
9.5904206046
 21
11.4410925254
 31
0.0
  0
LINE
  5
207
330
1F
100
AcDbEntity
  8
0
  6
Continuous
 62
     7
370
    25
100
AcDbLine
 10
9.5904206046
 20
11.4410925254
 30
0.0
 11
9.7777475876
 21
11.4332859266
 31
0.0
  0
LINE
  5
208
330
1F
100
AcDbEntity
  8
0
  6
Continuous
 62
     7
370
    25
100
AcDbLine
 10
9.7777475876
 20
11.4332859266
 30
0.0
 11
9.7857237331
 21
11.6147205563
 31
0.0
  0
SPLINE
  5
209
330
1F
100
AcDbEntity
  8
0
  6
Continuous
 62
     7
370
    25
100
AcDbSpline
210
0.0
220
0.0
230
1.0
 70
     8
 71
     3
 72
    14
 73
    10
 74
     0
 42
0.00000001
 43
0.00000001
 40
0.3758105221459869
 40
0.3758105221459869
 40
0.3758105221459869
 40
0.3758105221459869
 40
0.3896404542982769
 40
0.4044033163525651
 40
0.4192566005261595
 40
0.4341867494355943
 40
0.4491772651128509
 40
0.4642147822005718
 40
0.4777733746644411
 40
0.4777733746644411
 40
0.4777733746644411
 40
0.4777733746644411
 10
11.71044027289445
 20
11.48224038494327
 30
0.0
 10
11.62358723179738
 20
11.49040833240928
 30
0.0
 10
11.44396677293755
 20
11.50670528077887
 30
0.0
 10
11.17087526676243
 20
11.52961103369202
 30
0.0
 10
10.89070411665926
 20
11.55105330678794
 30
0.0
 10
10.60895210933019
 20
11.57056263013045
 30
0.0
 10
10.3258977959855
 20
11.58796749449038
 30
0.0
 10
10.05135772927216
 20
11.60274274813309
 30
0.0
 10
9.871171011225034
 20
11.61108028664719
 30
0.0
 10
9.785723733062815
 20
11.61472055628685
 30
0.0
  0
LINE
  5
20A
330
1F
100
AcDbEntity
  8
0
  6
Continuous
 62
     7
370
    25
100
AcDbLine
 10
11.6629362623
 20
10.9830870795
 30
0.0
 11
11.7104402729
 21
11.4822403849
 31
0.0
  0
LINE
  5
20B
330
1F
100
AcDbEntity
  8
0
  6
Continuous
 62
     7
370
    25
100
AcDbLine
 10
11.6629362623
 20
10.9830870795
 30
0.0
 11
11.7873648923
 21
10.9712453088
 31
0.0
  0
LINE
  5
20C
330
1F
100
AcDbEntity
  8
0
  6
Continuous
 62
     7
370
    25
100
AcDbLine
 10
11.8113296966
 20
11.2199721907
 30
0.0
 11
11.7873648923
 21
10.9712453088
 31
0.0
  0
LINE
  5
20D
330
1F
100
AcDbEntity
  8
0
  6
Continuous
 62
     7
370
    25
100
AcDbLine
 10
11.8113296966
 20
11.2199721907
 30
0.0
 11
12.5759292687
 21
11.0033315919
 31
0.0
  0
ARC
  5
20E
330
1F
100
AcDbEntity
  8
0
  6
Continuous
 62
     7
370
    25
100
AcDbCircle
 10
12.4123648923
 20
10.4260563588
 30
0.0
 40
0.600000000000003
100
AcDbArc
 50
283.0531332188
 51
74.1805248831
  0
LINE
  5
20F
330
1F
100
AcDbEntity
  8
0
  6
Continuous
 62
     7
370
    25
100
AcDbLine
 10
11.8208091145
 20
9.6729924101
 30
0.0
 11
12.5478776158
 21
9.8415597362
 31
0.0
  0
LINE
  5
210
330
1F
100
AcDbEntity
  8
0
  6
Continuous
 62
     7
370
    25
100
AcDbLine
 10
11.8208091145
 20
9.6729924101
 30
0.0
 11
11.7873648923
 21
9.920751617
 31
0.0
  0
LINE
  5
211
330
1F
100
AcDbEntity
  8
0
  6
Continuous
 62
     7
370
    25
100
AcDbLine
 10
11.7873648923
 20
9.920751617
 30
0.0
 11
11.6634903428
 21
9.9040161241
 31
0.0
  0
LINE
  5
212
330
1F
100
AcDbEntity
  8
0
  6
Continuous
 62
     7
370
    25
100
AcDbLine
 10
11.6634903428
 20
9.9040161241
 30
0.0
 11
11.7303597331
 21
9.4090551645
 31
0.0
  0
SPLINE
  5
213
330
1F
100
AcDbEntity
  8
0
  6
Continuous
 62
     7
370
    25
100
AcDbSpline
210
0.0
220
0.0
230
1.0
 70
     8
 71
     3
 72
    11
 73
     7
 74
     0
 42
0.00000001
 43
0.00000001
 40
0.5806610990341802
 40
0.5806610990341802
 40
0.5806610990341802
 40
0.5806610990341802
 40
0.586466040367737
 40
0.6014845154548236
 40
0.6164243287536559
 40
0.6293814168785411
 40
0.6293814168785411
 40
0.6293814168785411
 40
0.6293814168785411
 10
10.85372845143129
 20
9.289804439693935
 30
0.0
 10
10.88854247863912
 20
9.294557779393022
 30
0.0
 10
11.01342747946116
 20
9.31160496716643
 30
0.0
 10
11.22791910332735
 20
9.340827300471263
 30
0.0
 10
11.48531394438709
 20
9.37583572919659
 30
0.0
 10
11.65264004614805
 20
9.39853378319174
 30
0.0
 10
11.73035973312494
 20
9.409055164493118
 30
0.0
  0
LINE
  5
214
330
1F
100
AcDbEntity
  8
0
  6
Continuous
 62
     7
370
    25
100
AcDbLine
 10
10.8537284514
 20
9.9128798598
 30
0.0
 11
10.8537284514
 21
9.2898044397
 31
0.0
  0
LINE
  5
215
330
1F
100
AcDbEntity
  8
0
  6
Continuous
 62
     7
370
    25
100
AcDbLine
 10
10.7537284514
 20
9.9128798598
 30
0.0
 11
10.8537284514
 21
9.9128798598
 31
0.0
  0
LINE
  5
216
330
1F
100
AcDbEntity
  8
0
  6
Continuous
 62
     7
370
    25
100
AcDbLine
 10
10.7537284514
 20
9.2761491078
 30
0.0
 11
10.7537284514
 21
9.9128798598
 31
0.0
  0
SPLINE
  5
217
330
1F
100
AcDbEntity
  8
0
  6
Continuous
 62
     7
370
    25
100
AcDbSpline
210
0.0
220
0.0
230
1.0
 70
     8
 71
     3
 72
    21
 73
    17
 74
     0
 42
0.00000001
 43
0.00000001
 40
0.3887410429664833
 40
0.3887410429664833
 40
0.3887410429664833
 40
0.3887410429664833
 40
0.3905971921430427
 40
0.4053325934466839
 40
0.4201748233954002
 40
0.4351095326245958
 40
0.45012427557915
 40
0.4652030675793469
 40
0.480333153803852
 40
0.4955005832022248
 40
0.5106897747587928
 40
0.5258873344182895
 40
0.5410783139544114
 40
0.5562472332559546
 40
0.5713817846389997
 40
0.5751030372437429
 40
0.5751030372437429
 40
0.5751030372437429
 40
0.5751030372437429
 10
7.398488558063019
 20
8.835287581416
 30
0.0
 10
7.409644564050554
 20
8.836619104327212
 30
0.0
 10
7.509362332663122
 20
8.848540954524436
 30
0.0
 10
7.698245099316541
 20
8.871453608395226
 30
0.0
 10
7.965620818431406
 20
8.904672452164315
 30
0.0
 10
8.234590435396495
 20
8.938768322387652
 30
0.0
 10
8.504912037170756
 20
8.973580679720046
 30
0.0
 10
8.776332556970917
 20
9.00911349465941
 30
0.0
 10
9.048623710736045
 20
9.045113611060268
 30
0.0
 10
9.32152291016434
 20
9.081610676498558
 30
0.0
 10
9.594792614989917
 20
9.11841698936946
 30
0.0
 10
9.868179862262515
 20
9.155418141426894
 30
0.0
 10
10.14141836994478
 20
9.192602745182924
 30
0.0
 10
10.41426795384895
 20
9.229816701462035
 30
0.0
 10
10.61832722273661
 20
9.257659407864994
 30
0.0
 10
10.73141102020536
 20
9.273101465092674
 30
0.0
 10
10.75372845142436
 20
9.276149107772678
 30
0.0
  0
LINE
  5
218
330
1F
100
AcDbEntity
  8
0
  6
Continuous
 62
     7
370
    25
100
AcDbLine
 10
7.3984885581
 20
8.8352875814
 30
0.0
 11
7.3767555543
 21
9.0191265062
 31
0.0
  0
LINE
  5
219
330
1F
100
AcDbEntity
  8
0
  6
Continuous
 62
     7
370
    25
100
AcDbLine
 10
7.3767555543
 20
9.0191265062
 30
0.0
 11
7.1905522028
 21
8.9971140821
 31
0.0
  0
LINE
  5
21A
330
1F
100
AcDbEntity
  8
0
  6
Continuous
 62
     7
370
    25
100
AcDbLine
 10
7.1905522028
 20
8.9971140821
 30
0.0
 11
7.2119926423
 21
8.8132476816
 31
0.0
  0
SPLINE
  5
21B
330
1F
100
AcDbEntity
  8
0
  6
Continuous
 62
     7
370
    25
100
AcDbSpline
210
0.0
220
0.0
230
1.0
 70
     8
 71
     3
 72
    22
 73
    18
 74
     0
 42
0.00000001
 43
0.00000001
 40
0.1928154538850404
 40
0.1928154538850404
 40
0.1928154538850404
 40
0.1928154538850404
 40
0.202626973811632
 40
0.214560478127828
 40
0.2267672493544196
 40
0.2392364169236901
 40
0.2519590037381537
 40
0.2649238944874444
 40
0.2781197025744886
 40
0.2915360351651119
 40
0.3051602795917696
 40
0.3189806851157697
 40
0.3329854989320469
 40
0.347162790435534
 40
0.3614986025858143
 40
0.3759807467580912
 40
0.3783993287533703
 40
0.3783993287533703
 40
0.3783993287533703
 40
0.3783993287533703
 10
3.853728451424514
 20
8.547876342267456
 30
0.0
 10
3.91310566144886
 20
8.549058075737236
 30
0.0
 10
4.044689508193291
 20
8.552291619925981
 30
0.0
 10
4.250080009004571
 20
8.559364157366488
 30
0.0
 10
4.47146157300843
 20
8.569164985937201
 30
0.0
 10
4.697515090008059
 20
8.58121257630245
 30
0.0
 10
4.928037814396655
 20
8.595466090535055
 30
0.0
 10
5.162826878591461
 20
8.611862355198317
 30
0.0
 10
5.401678420940647
 20
8.630269882184331
 30
0.0
 10
5.644375466934451
 20
8.65064275621994
 30
0.0
 10
5.890706352082142
 20
8.672862230614198
 30
0.0
 10
6.140452998734321
 20
8.696817066382854
 30
0.0
 10
6.393399629726904
 20
8.722431455608856
 30
0.0
 10
6.649322974682049
 20
8.749584902745392
 30
0.0
 10
6.907995087275191
 20
8.778189419105868
 30
0.0
 10
7.095841803187934
 20
8.799694621685576
 30
0.0
 10
7.197452173339268
 20
8.811547201268132
 30
0.0
 10
7.211992642266394
 20
8.813247681614884
 30
0.0
  0
LINE
  5
21C
330
1F
100
AcDbEntity
  8
0
  6
Continuous
 62
     7
370
    25
100
AcDbLine
 10
3.8537284514
 20
9.1557356306
 30
0.0
 11
3.8537284514
 21
8.5478763423
 31
0.0
  0
LINE
  5
21D
330
1F
100
AcDbEntity
  8
0
  6
Continuous
 62
     7
370
    25
100
AcDbLine
 10
3.7287284514
 20
9.1557356306
 30
0.0
 11
3.8537284514
 21
9.1557356306
 31
0.0
  0
LINE
  5
21E
330
1F
100
AcDbEntity
  8
0
  6
Continuous
 62
     7
370
    25
100
AcDbLine
 10
3.7287284514
 20
8.5458059272
 30
0.0
 11
3.7287284514
 21
9.1557356306
 31
0.0
  0
SPLINE
  5
21F
330
1F
100
AcDbEntity
  8
0
  6
Continuous
 62
     7
370
    25
100
AcDbSpline
210
0.0
220
0.0
230
1.0
 70
     8
 71
     3
 72
    16
 73
    12
 74
     0
 42
0.00000001
 43
0.00000001
 40
0.1024120865606991
 40
0.1024120865606991
 40
0.1024120865606991
 40
0.1024120865606991
 40
0.1089998673905868
 40
0.1180845294653211
 40
0.1275148426428651
 40
0.1372852704250823
 40
0.1473879174772517
 40
0.157816480507408
 40
0.1685634728239901
 40
0.1796191282244624
 40
0.1859308430954611
 40
0.1859308430954611
 40
0.1859308430954611
 40
0.1859308430954611
 10
2.214684554919312
 20
8.612513805740237
 30
0.0
 10
2.254266838175058
 20
8.607680430035039
 30
0.0
 10
2.348530596378604
 20
8.59697584260698
 30
0.0
 10
2.499805463831414
 20
8.582605816482241
 30
0.0
 10
2.670535419272488
 20
8.569664881222774
 30
0.0
 10
2.847616963536701
 20
8.559373027046753
 30
0.0
 10
3.030878206572543
 20
8.551697618259285
 30
0.0
 10
3.220143603420406
 20
8.546667830370959
 30
0.0
 10
3.415227790429982
 20
8.544205253372914
 30
0.0
 10
3.585407242379814
 20
8.544262616614938
 30
0.0
 10
3.690527022545442
 20
8.545304066735952
 30
0.0
 10
3.728728451424362
 20
8.54580592719276
 30
0.0
  0
LINE
  5
220
330
1F
100
AcDbEntity
  8
0
  6
Continuous
 62
     7
370
    25
100
AcDbLine
 10
2.2146845549
 20
8.6125138058
 30
0.0
 11
2.216214618
 21
8.6223311201
 31
0.0
  0
LINE
  5
221
330
1F
100
AcDbEntity
  8
0
  6
Continuous
 62
     7
370
    25
100
AcDbLine
 10
2.216214618
 20
8.6223311201
 30
0.0
 11
2.2459060338
 21
8.8100529946
 31
0.0
  0
LINE
  5
222
330
1F
100
AcDbEntity
  8
0
  6
Continuous
 62
     7
370
    25
100
AcDbLine
 10
2.2459060338
 20
8.8100529946
 30
0.0
 11
2.0609978289
 21
8.8391296889
 31
0.0
  0
LINE
  5
223
330
1F
100
AcDbEntity
  8
0
  6
Continuous
 62
     7
370
    25
100
AcDbLine
 10
2.0609978289
 20
8.8391296889
 30
0.0
 11
2.0293864773
 21
8.637755581
 31
0.0
  0
SPLINE
  5
224
330
1F
100
AcDbEntity
  8
0
  6
Continuous
 62
     7
370
    25
100
AcDbSpline
210
0.0
220
0.0
230
1.0
 70
     8
 71
     3
 72
    24
 73
    20
 74
     0
 42
0.00000001
 43
0.00000001
 40
0.0059491622745354
 40
0.0059491622745354
 40
0.0059491622745354
 40
0.0059491622745354
 40
0.0072932311016299
 40
0.011028136436207
 40
0.014901081092616
 40
0.0189632717844844
 40
0.0232584753657929
 40
0.0278206260118335
 40
0.0326790824394457
 40
0.0378531598332748
 40
0.043361874681922
 40
0.0492146789917219
 40
0.0554223461792906
 40
0.0619887860134568
 40
0.068918036048969
 40
0.0762111572947469
 40
0.0838683922029651
 40
0.0918874108829417
 40
0.0921134452446071
 40
0.0921134452446071
 40
0.0921134452446071
 40
0.0921134452446071
 10
0.6689378116912486
 20
9.288675553525124
 30
0.0
 10
0.6720574780984311
 20
9.28114886498866
 30
0.0
 10
0.6845794127750356
 20
9.252998591595883
 30
0.0
 10
0.7107454043699758
 20
9.205423069570422
 30
0.0
 10
0.7523839965215586
 20
9.148135474602645
 30
0.0
 10
0.8024636717948567
 20
9.09343292228625
 30
0.0
 10
0.8608738234692282
 20
9.041258514618896
 30
0.0
 10
0.9275571687187915
 20
8.99164030423858
 30
0.0
 10
1.002426432683538
 20
8.944600874870716
 30
0.0
 10
1.085372854058018
 20
8.900090289316374
 30
0.0
 10
1.176303202915305
 20
8.858136223976969
 30
0.0
 10
1.275134568157189
 20
8.818751787206187
 30
0.0
 10
1.381759271436285
 20
8.781989628976762
 30
0.0
 10
1.49604695967188
 20
8.747793757985509
 30
0.0
 10
1.617888974753175
 20
8.716247508905697
 30
0.0
 10
1.747146770218637
 20
8.687306790606156
 30
0.0
 10
1.883696024373416
 20
8.661045475778858
 30
0.0
 10
1.978688895279832
 20
8.645438140911763
 30
0.0
 10
2.028033644435829
 20
8.63796012732927
 30
0.0
 10
2.029386477311987
 20
8.637755580979249
 30
0.0
  0
LINE
  5
225
330
1F
100
AcDbEntity
  8
0
  6
Continuous
 62
     7
370
    25
100
AcDbLine
 10
0.6689378117
 20
9.2886755535
 30
0.0
 11
0.996546754
 21
9.2886755536
 31
0.0
  0
LINE
  5
226
330
1F
100
AcDbEntity
  8
0
  6
Continuous
 62
     7
370
    25
100
AcDbLine
 10
0.996546754
 20
9.2886755536
 30
0.0
 11
0.996546754
 21
9.6636755536
 31
0.0
  0
CIRCLE
  5
227
330
1F
100
AcDbEntity
  8
0
  6
Continuous
 62
     7
370
    25
100
AcDbCircle
 10
12.4123648923
 20
10.4260563588
 30
0.0
 40
0.2500000000000018
  0
MTEXT
  5
228
330
1F
100
AcDbEntity
  8
PART_NAMES
100
AcDbMText
 10
10.7509277613
 20
10.2046106686
 30
0.0
 40
0.1666666667
 41
0.0
 71
     1
 72
     1
  1
1.2.2.1.7
  7
SLDTEXTSTYLE0
 73
     1
 44
1.0
  0
MTEXT
  5
22A
330
1F
100
AcDbEntity
  8
0
  6
Continuous
 62
     7
100
AcDbMText
 10
0.0
 20
0.5790104628
 30
0.0
 40
0.2076
 41
0.0
 71
     1
 72
     1
  1
SOLIDWORKS Educational Product.
  7
SLDTEXTSTYLE1
 73
     1
 44
1.0
  0
MTEXT
  5
22B
330
1F
100
AcDbEntity
  8
0
  6
Continuous
 62
     7
100
AcDbMText
 10
0.0
 20
0.2676104628
 30
0.0
 40
0.2076
 41
0.0
 71
     1
 72
     1
  1
For Instructional Use Only.
  7
SLDTEXTSTYLE1
 73
     1
 44
1.0
  0
ENDSEC
  0
SECTION
  2
OBJECTS
  0
DICTIONARY
  5
C
330
0
100
AcDbDictionary
281
     1
  3
ACAD_GROUP
350
D
  3
ACAD_LAYOUT
350
1A
  3
ACAD_MLINESTYLE
350
17
  3
ACAD_PLOTSETTINGS
350
19
  3
ACAD_PLOTSTYLENAME
350
E
  3
ACAD_SCALELIST
350
47
  3
DWGPROPS
350
22C
  0
DICTIONARY
  5
D
102
{ACAD_REACTORS
330
C
102
}
330
C
100
AcDbDictionary
281
     1
  0
DICTIONARY
  5
1A
102
{ACAD_REACTORS
330
C
102
}
330
C
100
AcDbDictionary
281
     1
  3
Layout1
350
1E
  3
Layout2
350
26
  3
Model
350
22
  0
DICTIONARY
  5
17
102
{ACAD_REACTORS
330
C
102
}
330
C
100
AcDbDictionary
281
     1
  3
Standard
350
18
  0
DICTIONARY
  5
19
102
{ACAD_REACTORS
330
C
102
}
330
C
100
AcDbDictionary
281
     1
  0
ACDBDICTIONARYWDFLT
  5
E
102
{ACAD_REACTORS
330
C
102
}
330
C
100
AcDbDictionary
281
     1
  3
Normal
350
F
100
AcDbDictionaryWithDefault
340
F
  0
DICTIONARY
  5
47
102
{ACAD_REACTORS
330
C
102
}
330
C
100
AcDbDictionary
281
     1
  3
A0
350
48
  3
A1
350
49
  3
A2
350
4A
  3
A3
350
4B
  3
A4
350
4C
  3
A5
350
4D
  3
A6
350
4E
  3
A7
350
4F
  3
A8
350
50
  3
A9
350
51
  3
B1
350
52
  3
B2
350
53
  3
B3
350
54
  3
B4
350
55
  3
B5
350
56
  3
B6
350
57
  3
B7
350
58
  0
XRECORD
  5
22C
102
{ACAD_REACTORS
330
C
102
}
330
C
100
AcDbXrecord
280
     1
  1
DWGPROPS COOKIE
  2

  3

  4

  6

  7

  8
ucmai
  9

300
=
301
=
302
=
303
=
304
=
305
=
306
=
307
=
308
=
309
=
 40
0.0
 41
2460722.92756338
 42
2460722.927564028
  1

 90
        0
  0
LAYOUT
  5
1E
102
{ACAD_REACTORS
330
1A
102
}
330
1A
100
AcDbPlotSettings
  1

  2
none_device
  4

  6

 40
0.0
 41
0.0
 42
0.0
 43
0.0
 44
0.0
 45
0.0
 46
0.0
 47
0.0
 48
0.0
 49
0.0
140
0.0
141
0.0
142
1.0
143
1.0
 70
   688
 72
     0
 73
     0
 74
     5
  7

 75
    16
147
1.0
148
0.0
149
0.0
100
AcDbLayout
  1
Layout1
 70
     1
 71
     1
 10
0.0
 20
0.0
 11
12.0
 21
9.0
 12
0.0
 22
0.0
 32
0.0
 14
1.0000000000E+20
 24
1.0000000000E+20
 34
1.0000000000E+20
 15
-1.0000000000E+20
 25
-1.0000000000E+20
 35
-1.0000000000E+20
146
0.0
 13
0.0
 23
0.0
 33
0.0
 16
1.0
 26
0.0
 36
0.0
 17
0.0
 27
1.0
 37
0.0
 76
     0
330
1B
  0
LAYOUT
  5
26
102
{ACAD_REACTORS
330
1A
102
}
330
1A
100
AcDbPlotSettings
  1

  2
none_device
  4

  6

 40
0.0
 41
0.0
 42
0.0
 43
0.0
 44
0.0
 45
0.0
 46
0.0
 47
0.0
 48
0.0
 49
0.0
140
0.0
141
0.0
142
1.0
143
1.0
 70
   688
 72
     0
 73
     0
 74
     5
  7

 75
    16
147
1.0
148
0.0
149
0.0
100
AcDbLayout
  1
Layout2
 70
     1
 71
     2
 10
0.0
 20
0.0
 11
0.0
 21
0.0
 12
0.0
 22
0.0
 32
0.0
 14
0.0
 24
0.0
 34
0.0
 15
0.0
 25
0.0
 35
0.0
146
0.0
 13
0.0
 23
0.0
 33
0.0
 16
1.0
 26
0.0
 36
0.0
 17
0.0
 27
1.0
 37
0.0
 76
     0
330
23
  0
LAYOUT
  5
22
102
{ACAD_REACTORS
330
1A
102
}
330
1A
100
AcDbPlotSettings
  1

  2
none_device
  4
Letter_(8.50_x_11.00_Inches)
  6

 40
6.35
 41
6.35
 42
6.35000508
 43
6.35000508
 44
215.9
 45
279.4
 46
0.0
 47
0.0
 48
0.0
 49
0.0
140
0.0
141
0.0
142
1.0
143
1.0
 70
  1712
 72
     0
 73
     0
 74
     0
  7

 75
     0
147
1.0
148
0.0
149
0.0
100
AcDbLayout
  1
Model
 70
     1
 71
     0
 10
0.0
 20
0.0
 11
24.0
 21
12.0
 12
0.0
 22
0.0
 32
0.0
 14
0.0
 24
0.0
 34
0.0
 15
24.0
 25
12.0
 35
0.0
146
0.0
 13
0.0
 23
0.0
 33
0.0
 16
1.0
 26
0.0
 36
0.0
 17
0.0
 27
1.0
 37
0.0
 76
     0
330
1F
331
29
  0
MLINESTYLE
  5
18
102
{ACAD_REACTORS
330
17
102
}
330
17
100
AcDbMlineStyle
  2
Standard
 70
     0
  3

 62
   256
 51
90.0
 52
90.0
 71
     2
 49
0.5
 62
   256
  6
BYLAYER
 49
-0.5
 62
   256
  6
BYLAYER
  0
ACDBPLACEHOLDER
  5
F
102
{ACAD_REACTORS
330
E
102
}
330
E
  0
SCALE
  5
48
102
{ACAD_REACTORS
330
47
102
}
330
47
100
AcDbScale
 70
     0
300
1:1
140
1.0
141
1.0
290
     1
  0
SCALE
  5
49
102
{ACAD_REACTORS
330
47
102
}
330
47
100
AcDbScale
 70
     0
300
1/128" = 1'-0"
140
0.0078125
141
12.0
290
     0
  0
SCALE
  5
4A
102
{ACAD_REACTORS
330
47
102
}
330
47
100
AcDbScale
 70
     0
300
1/64" = 1'-0"
140
0.015625
141
12.0
290
     0
  0
SCALE
  5
4B
102
{ACAD_REACTORS
330
47
102
}
330
47
100
AcDbScale
 70
     0
300
1/32" = 1'-0"
140
0.03125
141
12.0
290
     0
  0
SCALE
  5
4C
102
{ACAD_REACTORS
330
47
102
}
330
47
100
AcDbScale
 70
     0
300
1/16" = 1'-0"
140
0.0625
141
12.0
290
     0
  0
SCALE
  5
4D
102
{ACAD_REACTORS
330
47
102
}
330
47
100
AcDbScale
 70
     0
300
3/32" = 1'-0"
140
0.09375
141
12.0
290
     0
  0
SCALE
  5
4E
102
{ACAD_REACTORS
330
47
102
}
330
47
100
AcDbScale
 70
     0
300
1/8" = 1'-0"
140
0.125
141
12.0
290
     0
  0
SCALE
  5
4F
102
{ACAD_REACTORS
330
47
102
}
330
47
100
AcDbScale
 70
     0
300
3/16" = 1'-0"
140
0.1875
141
12.0
290
     0
  0
SCALE
  5
50
102
{ACAD_REACTORS
330
47
102
}
330
47
100
AcDbScale
 70
     0
300
1/4" = 1'-0"
140
0.25
141
12.0
290
     0
  0
SCALE
  5
51
102
{ACAD_REACTORS
330
47
102
}
330
47
100
AcDbScale
 70
     0
300
3/8" = 1'-0"
140
0.375
141
12.0
290
     0
  0
SCALE
  5
52
102
{ACAD_REACTORS
330
47
102
}
330
47
100
AcDbScale
 70
     0
300
1/2" = 1'-0"
140
0.5
141
12.0
290
     0
  0
SCALE
  5
53
102
{ACAD_REACTORS
330
47
102
}
330
47
100
AcDbScale
 70
     0
300
3/4" = 1'-0"
140
0.75
141
12.0
290
     0
  0
SCALE
  5
54
102
{ACAD_REACTORS
330
47
102
}
330
47
100
AcDbScale
 70
     0
300
1" = 1'-0"
140
1.0
141
12.0
290
     0
  0
SCALE
  5
55
102
{ACAD_REACTORS
330
47
102
}
330
47
100
AcDbScale
 70
     0
300
1-1/2" = 1'-0"
140
1.5
141
12.0
290
     0
  0
SCALE
  5
56
102
{ACAD_REACTORS
330
47
102
}
330
47
100
AcDbScale
 70
     0
300
3" = 1'-0"
140
3.0
141
12.0
290
     0
  0
SCALE
  5
57
102
{ACAD_REACTORS
330
47
102
}
330
47
100
AcDbScale
 70
     0
300
6" = 1'-0"
140
6.0
141
12.0
290
     0
  0
SCALE
  5
58
102
{ACAD_REACTORS
330
47
102
}
330
47
100
AcDbScale
 70
     0
300
1'-0" = 1'-0"
140
12.0
141
12.0
290
     0
  0
ENDSEC
  0
EOF
