  0
SECTION
  2
HEADER
  9
$ACADVER
  1
AC1015
  9
$ACADMAINTVER
 70
     6
  9
$DWGCODEPAGE
  3
ANSI_1252
  9
$INSBASE
 10
0.0
 20
0.0
 30
0.0
  9
$EXTMIN
 10
0.0
 20
0.0
 30
0.0
  9
$EXTMAX
 10
24.0
 20
12.0
 30
0.0
  9
$LIMMIN
 10
0.0
 20
0.0
  9
$LIMMAX
 10
24.0
 20
12.0
  9
$ORTHOMODE
 70
     0
  9
$REGENMODE
 70
     1
  9
$FILLMODE
 70
     1
  9
$QTEXTMODE
 70
     0
  9
$MIRRTEXT
 70
     1
  9
$LTSCALE
 40
1.0
  9
$ATTMODE
 70
     1
  9
$TEXTSIZE
 40
0.125
  9
$TRACEWID
 40
0.05
  9
$TEXTSTYLE
  7
Standard
  9
$CLAYER
  8
0
  9
$CELTYPE
  6
ByLayer
  9
$CECOLOR
 62
   256
  9
$CELTSCALE
 40
1.0
  9
$DISPSILH
 70
     0
  9
$DIMSCALE
 40
1.0
  9
$DIMASZ
 40
0.13
  9
$DIMEXO
 40
0.05
  9
$DIMDLI
 40
0.38
  9
$DIMRND
 40
0.0
  9
$DIMDLE
 40
0.0
  9
$DIMEXE
 40
0.125
  9
$DIMTP
 40
0.0
  9
$DIMTM
 40
0.0
  9
$DIMTXT
 40
0.125
  9
$DIMCEN
 40
0.09
  9
$DIMTSZ
 40
0.0
  9
$DIMTOL
 70
     0
  9
$DIMLIM
 70
     0
  9
$DIMTIH
 70
     1
  9
$DIMTOH
 70
     1
  9
$DIMSE1
 70
     0
  9
$DIMSE2
 70
     0
  9
$DIMTAD
 70
     0
  9
$DIMZIN
 70
     1
  9
$DIMBLK
  1

  9
$DIMASO
 70
     1
  9
$DIMSHO
 70
     1
  9
$DIMPOST
  1

  9
$DIMAPOST
  1

  9
$DIMALT
 70
     0
  9
$DIMALTD
 70
     2
  9
$DIMALTF
 40
25.4
  9
$DIMLFAC
 40
1.0
  9
$DIMTOFL
 70
     0
  9
$DIMTVP
 40
0.0
  9
$DIMTIX
 70
     0
  9
$DIMSOXD
 70
     0
  9
$DIMSAH
 70
     0
  9
$DIMBLK1
  1

  9
$DIMBLK2
  1

  9
$DIMSTYLE
  2
Standard
  9
$DIMCLRD
 70
     0
  9
$DIMCLRE
 70
     0
  9
$DIMCLRT
 70
     0
  9
$DIMTFAC
 40
1.0
  9
$DIMGAP
 40
0.06
  9
$DIMJUST
 70
     0
  9
$DIMSD1
 70
     0
  9
$DIMSD2
 70
     0
  9
$DIMTOLJ
 70
     1
  9
$DIMTZIN
 70
     1
  9
$DIMALTZ
 70
     0
  9
$DIMALTTZ
 70
     0
  9
$DIMUPT
 70
     0
  9
$DIMDEC
 70
     2
  9
$DIMTDEC
 70
     2
  9
$DIMALTU
 70
     2
  9
$DIMALTTD
 70
     2
  9
$DIMTXSTY
  7
Standard
  9
$DIMAUNIT
 70
     0
  9
$DIMADEC
 70
     2
  9
$DIMALTRND
 40
0.0
  9
$DIMAZIN
 70
     0
  9
$DIMDSEP
 70
    46
  9
$DIMATFIT
 70
     3
  9
$DIMFRAC
 70
     0
  9
$DIMLDRBLK
  1

  9
$DIMLUNIT
 70
     2
  9
$DIMLWD
 70
    -2
  9
$DIMLWE
 70
    -2
  9
$DIMTMOVE
 70
     0
  9
$LUNITS
 70
     2
  9
$LUPREC
 70
     6
  9
$SKETCHINC
 40
0.1
  9
$FILLETRAD
 40
0.0
  9
$AUNITS
 70
     0
  9
$AUPREC
 70
     2
  9
$MENU
  1
.
  9
$ELEVATION
 40
0.0
  9
$PELEVATION
 40
0.0
  9
$THICKNESS
 40
0.0
  9
$LIMCHECK
 70
     0
  9
$CHAMFERA
 40
0.0
  9
$CHAMFERB
 40
0.0
  9
$CHAMFERC
 40
0.0
  9
$CHAMFERD
 40
0.0
  9
$SKPOLY
 70
     0
  9
$TDCREATE
 40
2460722.593089375
  9
$TDUCREATE
 40
2460722.926422708
  9
$TDUPDATE
 40
2460722.593090035
  9
$TDUUPDATE
 40
2460722.926423368
  9
$TDINDWG
 40
0.0000000116
  9
$TDUSRTIMER
 40
0.0000000116
  9
$USRTIMER
 70
     1
  9
$ANGBASE
 50
0.0
  9
$ANGDIR
 70
     0
  9
$PDMODE
 70
     0
  9
$PDSIZE
 40
-1.0
  9
$PLINEWID
 40
0.0
  9
$SPLFRAME
 70
     0
  9
$SPLINETYPE
 70
     6
  9
$SPLINESEGS
 70
     8
  9
$HANDSEED
  5
264
  9
$SURFTAB1
 70
     6
  9
$SURFTAB2
 70
     6
  9
$SURFTYPE
 70
     6
  9
$SURFU
 70
     6
  9
$SURFV
 70
     6
  9
$UCSBASE
  2

  9
$UCSNAME
  2

  9
$UCSORG
 10
0.0
 20
0.0
 30
0.0
  9
$UCSXDIR
 10
1.0
 20
0.0
 30
0.0
  9
$UCSYDIR
 10
0.0
 20
1.0
 30
0.0
  9
$UCSORTHOREF
  2

  9
$UCSORTHOVIEW
 70
     0
  9
$UCSORGTOP
 10
0.0
 20
0.0
 30
0.0
  9
$UCSORGBOTTOM
 10
0.0
 20
0.0
 30
0.0
  9
$UCSORGLEFT
 10
0.0
 20
0.0
 30
0.0
  9
$UCSORGRIGHT
 10
0.0
 20
0.0
 30
0.0
  9
$UCSORGFRONT
 10
0.0
 20
0.0
 30
0.0
  9
$UCSORGBACK
 10
0.0
 20
0.0
 30
0.0
  9
$PUCSBASE
  2

  9
$PUCSNAME
  2

  9
$PUCSORG
 10
0.0
 20
0.0
 30
0.0
  9
$PUCSXDIR
 10
1.0
 20
0.0
 30
0.0
  9
$PUCSYDIR
 10
0.0
 20
1.0
 30
0.0
  9
$PUCSORTHOREF
  2

  9
$PUCSORTHOVIEW
 70
     0
  9
$PUCSORGTOP
 10
0.0
 20
0.0
 30
0.0
  9
$PUCSORGBOTTOM
 10
0.0
 20
0.0
 30
0.0
  9
$PUCSORGLEFT
 10
0.0
 20
0.0
 30
0.0
  9
$PUCSORGRIGHT
 10
0.0
 20
0.0
 30
0.0
  9
$PUCSORGFRONT
 10
0.0
 20
0.0
 30
0.0
  9
$PUCSORGBACK
 10
0.0
 20
0.0
 30
0.0
  9
$USERI1
 70
     0
  9
$USERI2
 70
     0
  9
$USERI3
 70
     0
  9
$USERI4
 70
     0
  9
$USERI5
 70
     0
  9
$USERR1
 40
0.0
  9
$USERR2
 40
0.0
  9
$USERR3
 40
0.0
  9
$USERR4
 40
0.0
  9
$USERR5
 40
0.0
  9
$WORLDVIEW
 70
     1
  9
$SHADEDGE
 70
     3
  9
$SHADEDIF
 70
    70
  9
$TILEMODE
 70
     1
  9
$MAXACTVP
 70
    64
  9
$PINSBASE
 10
0.0
 20
0.0
 30
0.0
  9
$PLIMCHECK
 70
     0
  9
$PEXTMIN
 10
1.0000000000E+20
 20
1.0000000000E+20
 30
1.0000000000E+20
  9
$PEXTMAX
 10
-1.0000000000E+20
 20
-1.0000000000E+20
 30
-1.0000000000E+20
  9
$PLIMMIN
 10
0.0
 20
0.0
  9
$PLIMMAX
 10
12.0
 20
9.0
  9
$UNITMODE
 70
     0
  9
$VISRETAIN
 70
     1
  9
$PLINEGEN
 70
     0
  9
$PSLTSCALE
 70
     1
  9
$TREEDEPTH
 70
  3020
  9
$CMLSTYLE
  2
Standard
  9
$CMLJUST
 70
     0
  9
$CMLSCALE
 40
1.0
  9
$PROXYGRAPHICS
 70
     1
  9
$MEASUREMENT
 70
     0
  9
$CELWEIGHT
370
    -1
  9
$ENDCAPS
280
     0
  9
$JOINSTYLE
280
     0
  9
$LWDISPLAY
290
     1
  9
$INSUNITS
 70
     1
  9
$HYPERLINKBASE
  1

  9
$STYLESHEET
  1

  9
$XEDIT
290
     1
  9
$CEPSNTYPE
380
     0
  9
$PSTYLEMODE
290
     1
  9
$FINGERPRINTGUID
  2
{6e7f54e8-45cc-4c1a-b489-bd7c16c86700}
  9
$VERSIONGUID
  2
{FAEB1C32-E019-11D5-929B-00C0DF256EC4}
  9
$EXTNAMES
290
     1
  9
$PSVPSCALE
 40
0.0
  9
$OLESTARTUP
290
     0
  0
ENDSEC
  0
SECTION
  2
CLASSES
  0
CLASS
  1
ACDBDICTIONARYWDFLT
  2
AcDbDictionaryWithDefault
  3
ObjectDBX Classes
 90
        0
280
     0
281
     0
  0
CLASS
  1
VISUALSTYLE
  2
AcDbVisualStyle
  3
ObjectDBX Classes
 90
     4095
280
     0
281
     0
  0
CLASS
  1
MATERIAL
  2
AcDbMaterial
  3
ObjectDBX Classes
 90
     1153
280
     0
281
     0
  0
CLASS
  1
SCALE
  2
AcDbScale
  3
ObjectDBX Classes
 90
     1153
280
     0
281
     0
  0
CLASS
  1
TABLESTYLE
  2
AcDbTableStyle
  3
ObjectDBX Classes
 90
     4095
280
     0
281
     0
  0
CLASS
  1
MLEADERSTYLE
  2
AcDbMLeaderStyle
  3
ACDB_MLEADERSTYLE_CLASS
 90
     4095
280
     0
281
     0
  0
CLASS
  1
SUN
  2
AcDbSun
  3
SCENEOE
 90
     1153
280
     0
281
     0
  0
CLASS
  1
ACDBPLACEHOLDER
  2
AcDbPlaceHolder
  3
ObjectDBX Classes
 90
        0
280
     0
281
     0
  0
CLASS
  1
LAYOUT
  2
AcDbLayout
  3
ObjectDBX Classes
 90
        0
280
     0
281
     0
  0
ENDSEC
  0
SECTION
  2
TABLES
  0
TABLE
  2
VPORT
  5
8
330
0
100
AcDbSymbolTable
 70
     1
  0
VPORT
  5
29
330
8
100
AcDbSymbolTableRecord
100
AcDbViewportTableRecord
  2
*Active
 70
     0
 10
0.0
 20
0.0
 11
1.0
 21
1.0
 12
12.0
 22
6.0
 13
0.0
 23
0.0
 14
0.5
 24
0.5
 15
0.5
 25
0.5
 16
0.0
 26
0.0
 36
1.0
 17
0.0
 27
0.0
 37
0.0
 40
12.0
 41
2.0
 42
50.0
 43
0.0
 44
0.0
 50
0.0
 51
0.0
 71
     0
 72
  2000
 73
     1
 74
     3
 75
     0
 76
     0
 77
     0
 78
     0
281
     0
 65
     1
110
0.0
120
0.0
130
0.0
111
1.0
121
0.0
131
0.0
112
0.0
122
1.0
132
0.0
 79
     0
146
0.0
  0
ENDTAB
  0
TABLE
  2
LTYPE
  5
5
330
0
100
AcDbSymbolTable
 70
     6
  0
LTYPE
  5
14
330
5
100
AcDbSymbolTableRecord
100
AcDbLinetypeTableRecord
  2
ByBlock
 70
     0
  3

 72
    65
 73
     0
 40
0.0
  0
LTYPE
  5
15
330
5
100
AcDbSymbolTableRecord
100
AcDbLinetypeTableRecord
  2
ByLayer
 70
     0
  3

 72
    65
 73
     0
 40
0.0
  0
LTYPE
  5
16
330
5
100
AcDbSymbolTableRecord
100
AcDbLinetypeTableRecord
  2
Continuous
 70
     0
  3
Solid line
 72
    65
 73
     0
 40
0.0
  0
LTYPE
  5
5E
330
5
100
AcDbSymbolTableRecord
100
AcDbLinetypeTableRecord
  2
HIDDEN
 70
     0
  3
Hidden __ __ __ __ __ __ __ __ __ __ __ __ __ __
 72
    65
 73
     2
 40
0.075
 49
0.05
 74
     0
 49
-0.025
 74
     0
  0
LTYPE
  5
5F
330
5
100
AcDbSymbolTableRecord
100
AcDbLinetypeTableRecord
  2
PHANTOM
 70
     0
  3
Phantom ______  __  __  ______  __  __  ______
 72
    65
 73
     6
 40
0.5
 49
0.25
 74
     0
 49
-0.05
 74
     0
 49
0.05
 74
     0
 49
-0.05
 74
     0
 49
0.05
 74
     0
 49
-0.05
 74
     0
  0
LTYPE
  5
60
330
5
100
AcDbSymbolTableRecord
100
AcDbLinetypeTableRecord
  2
CENTER
 70
     0
  3
Center ____ _ ____ _ ____ _ ____ _ ____ _ ____
 72
    65
 73
     4
 40
0.4
 49
0.25
 74
     0
 49
-0.05
 74
     0
 49
0.05
 74
     0
 49
-0.05
 74
     0
  0
LTYPE
  5
61
330
5
100
AcDbSymbolTableRecord
100
AcDbLinetypeTableRecord
  2
CENTERX2
 70
     0
  3
Center (2x) ________  __  ________  __  _____
 72
    65
 73
     4
 40
0.8
 49
0.5
 74
     0
 49
-0.1
 74
     0
 49
0.1
 74
     0
 49
-0.1
 74
     0
  0
LTYPE
  5
62
330
5
100
AcDbSymbolTableRecord
100
AcDbLinetypeTableRecord
  2
DOT2
 70
     0
  3
Dot (.5x) ........................................
 72
    65
 73
     2
 40
0.025
 49
0.0
 74
     0
 49
-0.025
 74
     0
  0
ENDTAB
  0
TABLE
  2
LAYER
  5
2
330
0
100
AcDbSymbolTable
 70
     3
  0
LAYER
  5
10
330
2
100
AcDbSymbolTableRecord
100
AcDbLayerTableRecord
  2
0
 70
     0
 62
     7
  6
Continuous
370
    -3
390
F
  0
LAYER
  5
63
330
2
100
AcDbSymbolTableRecord
100
AcDbLayerTableRecord
  2
FORMAT
 70
     0
 62
     7
  6
Continuous
370
    -3
390
F
  0
LAYER
  5
64
330
2
100
AcDbSymbolTableRecord
100
AcDbLayerTableRecord
  2
PART_NAMES
 70
     0
 62
     1
  6
Continuous
370
    -3
390
F
  0
ENDTAB
  0
TABLE
  2
STYLE
  5
3
330
0
100
AcDbSymbolTable
 70
     3
  0
STYLE
  5
11
330
3
100
AcDbSymbolTableRecord
100
AcDbTextStyleTableRecord
  2
Standard
 70
     0
 40
0.0
 41
1.0
 50
0.0
 71
     0
 42
0.125
  3
txt
  4

  0
STYLE
  5
E7
330
3
100
AcDbSymbolTableRecord
100
AcDbTextStyleTableRecord
  2
SLDTEXTSTYLE0
 70
     0
 40
0.0
 41
0.75
 50
0.0
 71
     0
 42
0.125
  3
TXT
  4

  0
STYLE
  5
260
330
3
100
AcDbSymbolTableRecord
100
AcDbTextStyleTableRecord
  2
SLDTEXTSTYLE1
 70
     0
 40
0.0
 41
0.7
 50
0.0
 71
     0
 42
0.125
  3
TXT
  4

  0
ENDTAB
  0
TABLE
  2
VIEW
  5
6
330
0
100
AcDbSymbolTable
 70
     0
  0
ENDTAB
  0
TABLE
  2
UCS
  5
7
330
0
100
AcDbSymbolTable
 70
     0
  0
ENDTAB
  0
TABLE
  2
APPID
  5
9
330
0
100
AcDbSymbolTable
 70
     1
  0
APPID
  5
12
330
9
100
AcDbSymbolTableRecord
100
AcDbRegAppTableRecord
  2
ACAD
 70
     0
  0
ENDTAB
  0
TABLE
  2
DIMSTYLE
  5
A
330
0
100
AcDbSymbolTable
 70
     1
100
AcDbDimStyleTable
  0
DIMSTYLE
105
27
330
A
100
AcDbSymbolTableRecord
100
AcDbDimStyleTableRecord
  2
Standard
 70
     0
178
     0
340
11
  0
ENDTAB
  0
TABLE
  2
BLOCK_RECORD
  5
1
330
0
100
AcDbSymbolTable
 70
     1
  0
BLOCK_RECORD
  5
1F
330
1
100
AcDbSymbolTableRecord
100
AcDbBlockTableRecord
  2
*Model_Space
340
22
  0
BLOCK_RECORD
  5
1B
330
1
100
AcDbSymbolTableRecord
100
AcDbBlockTableRecord
  2
*Paper_Space
340
1E
  0
BLOCK_RECORD
  5
23
330
1
100
AcDbSymbolTableRecord
100
AcDbBlockTableRecord
  2
*Paper_Space0
340
26
  0
ENDTAB
  0
ENDSEC
  0
SECTION
  2
BLOCKS
  0
BLOCK
  5
20
330
1F
100
AcDbEntity
  8
0
100
AcDbBlockBegin
  2
*Model_Space
 70
     0
 10
0.0
 20
0.0
 30
0.0
  3
*Model_Space
  1

  0
ENDBLK
  5
21
330
1F
100
AcDbEntity
  8
0
100
AcDbBlockEnd
  0
BLOCK
  5
1C
330
1B
100
AcDbEntity
 67
     1
  8
0
100
AcDbBlockBegin
  2
*Paper_Space
 70
     0
 10
0.0
 20
0.0
 30
0.0
  3
*Paper_Space
  1

  0
ENDBLK
  5
1D
330
1B
100
AcDbEntity
 67
     1
  8
0
100
AcDbBlockEnd
  0
BLOCK
  5
24
330
23
100
AcDbEntity
  8
0
100
AcDbBlockBegin
  2
*Paper_Space0
 70
     0
 10
0.0
 20
0.0
 30
0.0
  3
*Paper_Space0
  1

  0
ENDBLK
  5
25
330
23
100
AcDbEntity
  8
0
100
AcDbBlockEnd
  0
ENDSEC
  0
SECTION
  2
ENTITIES
  0
LINE
  5
65
330
1F
100
AcDbEntity
  8
0
  6
CENTERX2
 62
     7
370
    18
100
AcDbLine
 10
0.25
 20
0.25
 30
0.0
 11
0.25
 21
11.75
 31
0.0
  0
LINE
  5
66
330
1F
100
AcDbEntity
  8
0
  6
CENTERX2
 62
     7
370
    18
100
AcDbLine
 10
0.25
 20
0.25
 30
0.0
 11
23.75
 21
0.25
 31
0.0
  0
LINE
  5
67
330
1F
100
AcDbEntity
  8
0
  6
CENTERX2
 62
     7
370
    18
100
AcDbLine
 10
23.75
 20
0.25
 30
0.0
 11
23.75
 21
11.75
 31
0.0
  0
LINE
  5
68
330
1F
100
AcDbEntity
  8
0
  6
CENTERX2
 62
     7
370
    18
100
AcDbLine
 10
23.75
 20
11.75
 30
0.0
 11
0.25
 21
11.75
 31
0.0
  0
LINE
  5
69
330
1F
100
AcDbEntity
  8
0
  6
Continuous
 62
     7
370
    25
100
AcDbLine
 10
1.8291790671
 20
10.1849527697
 30
0.0
 11
1.7483699443
 21
10.354145369
 31
0.0
  0
SPLINE
  5
6A
330
1F
100
AcDbEntity
  8
0
  6
Continuous
 62
     7
370
    25
100
AcDbSpline
210
0.0
220
0.0
230
1.0
 70
     8
 71
     3
 72
    14
 73
    10
 74
     0
 42
0.00000001
 43
0.00000001
 40
0.8513043678676254
 40
0.8513043678676254
 40
0.8513043678676254
 40
0.8513043678676254
 40
0.8560378532405389
 40
0.8660338344886196
 40
0.8756888427883988
 40
0.8849977189913464
 40
0.8939534257020234
 40
0.9025528972589622
 40
0.9054973013061784
 40
0.9054973013061784
 40
0.9054973013061784
 40
0.9054973013061784
 10
2.924461426273778
 20
10.796404456079
 30
0.0
 10
2.88948419534179
 20
10.78559679877081
 30
0.0
 10
2.780793430168319
 20
10.75148107096222
 30
0.0
 10
2.601685720693819
 20
10.69240152234826
 30
0.0
 10
2.390447368818245
 20
10.61790468749492
 30
0.0
 10
2.188432499895754
 20
10.54159871790203
 30
0.0
 10
1.995795863193059
 20
10.4637186901904
 30
0.0
 10
1.850318918422176
 20
10.40065197553259
 30
0.0
 10
1.769052165833641
 20
10.36367594627486
 30
0.0
 10
1.748369944344026
 20
10.35414536900126
 30
0.0
  0
LINE
  5
6B
330
1F
100
AcDbEntity
  8
0
  6
Continuous
 62
     7
370
    25
100
AcDbLine
 10
2.9244614263
 20
10.7964044561
 30
0.0
 11
3.0235252348
 21
10.440150558
 31
0.0
  0
LINE
  5
6C
330
1F
100
AcDbEntity
  8
0
  6
Continuous
 62
     7
370
    25
100
AcDbLine
 10
3.0235252348
 20
10.440150558
 30
0.0
 11
3.3848171362
 21
10.5406152878
 31
0.0
  0
LINE
  5
6D
330
1F
100
AcDbEntity
  8
0
  6
Continuous
 62
     7
370
    25
100
AcDbLine
 10
3.3848171362
 20
10.5406152878
 30
0.0
 11
3.2843524061
 21
10.9019071892
 31
0.0
  0
SPLINE
  5
6E
330
1F
100
AcDbEntity
  8
0
  6
Continuous
 62
     7
370
    25
100
AcDbSpline
210
0.0
220
0.0
230
1.0
 70
     8
 71
     3
 72
    16
 73
    12
 74
     0
 42
0.00000001
 43
0.00000001
 40
0.7462088576025568
 40
0.7462088576025568
 40
0.7462088576025568
 40
0.7462088576025568
 40
0.7521175864591397
 40
0.7647920417814054
 40
0.7772081519207622
 40
0.7893556849316484
 40
0.8012239599679336
 40
0.8128036855342794
 40
0.8240829093538227
 40
0.8350546022887522
 40
0.8351398981997684
 40
0.8351398981997684
 40
0.8351398981997684
 40
0.8351398981997684
 10
5.301938262208539
 20
11.32861114575264
 30
0.0
 10
5.256783953879633
 20
11.32158344420769
 30
0.0
 10
5.114841357870058
 20
11.29903458873017
 30
0.0
 10
4.878446794375293
 20
11.25904173476547
 30
0.0
 10
4.595197620405439
 20
11.2069126862929
 30
0.0
 10
4.318859131377519
 20
11.1518454972737
 30
0.0
 10
4.049732186573981
 20
11.09385453462789
 30
0.0
 10
3.788101671085832
 20
11.03311375393355
 30
0.0
 10
3.534239487159871
 20
10.96972898199654
 30
0.0
 10
3.367378481768127
 20
10.92498802931525
 30
0.0
 10
3.284987971121743
 20
10.90208392127224
 30
0.0
 10
3.284352406096586
 20
10.90190718919423
 30
0.0
  0
LINE
  5
6F
330
1F
100
AcDbEntity
  8
0
  6
Continuous
 62
     7
370
    25
100
AcDbLine
 10
5.3019382622
 20
11.3286111458
 30
0.0
 11
5.3299822165
 21
11.1432202435
 31
0.0
  0
LINE
  5
70
330
1F
100
AcDbEntity
  8
0
  6
Continuous
 62
     7
370
    25
100
AcDbLine
 10
5.3299822165
 20
11.1432202435
 30
0.0
 11
5.5153731187
 21
11.1712641978
 31
0.0
  0
LINE
  5
71
330
1F
100
AcDbEntity
  8
0
  6
Continuous
 62
     7
370
    25
100
AcDbLine
 10
5.5153731187
 20
11.1712641978
 30
0.0
 11
5.4873291642
 21
11.3566551
 31
0.0
  0
SPLINE
  5
72
330
1F
100
AcDbEntity
  8
0
  6
Continuous
 62
     7
370
    25
100
AcDbSpline
210
0.0
220
0.0
230
1.0
 70
     8
 71
     3
 72
    14
 73
    10
 74
     0
 42
0.00000001
 43
0.00000001
 40
0.6471977191416923
 40
0.6471977191416923
 40
0.6471977191416923
 40
0.6471977191416923
 40
0.6571860540028671
 40
0.6713255457791549
 40
0.6852940138169578
 40
0.6990781474144603
 40
0.7126650949455656
 40
0.7260426447110092
 40
0.7381275985622745
 40
0.7381275985622745
 40
0.7381275985622745
 40
0.7381275985622745
 10
7.585168831876124
 20
11.57503636801343
 30
0.0
 10
7.508084551917597
 20
11.56999035800598
 30
0.0
 10
7.321926160900063
 20
11.55709287256254
 30
0.0
 10
7.028200088148998
 20
11.53390584178159
 30
0.0
 10
6.705528326088184
 20
11.50463258052271
 30
0.0
 10
6.387472180260898
 20
11.47201777887116
 30
0.0
 10
6.074385756001877
 20
11.43597272949778
 30
0.0
 10
5.77481407546379
 20
11.39765018516591
 30
0.0
 10
5.579800774886855
 20
11.37024294861715
 30
0.0
 10
5.487329164242266
 20
11.35665509999997
 30
0.0
  0
LINE
  5
73
330
1F
100
AcDbEntity
  8
0
  6
Continuous
 62
     7
370
    25
100
AcDbLine
 10
7.5851688319
 20
11.575036368
 30
0.0
 11
7.5968469629
 21
11.387900398
 31
0.0
  0
LINE
  5
74
330
1F
100
AcDbEntity
  8
0
  6
Continuous
 62
     7
370
    25
100
AcDbLine
 10
7.5968469629
 20
11.387900398
 30
0.0
 11
7.7839829329
 21
11.3995785291
 31
0.0
  0
LINE
  5
75
330
1F
100
AcDbEntity
  8
0
  6
Continuous
 62
     7
370
    25
100
AcDbLine
 10
7.7839829329
 20
11.3995785291
 30
0.0
 11
7.7723048016
 21
11.586714499
 31
0.0
  0
SPLINE
  5
76
330
1F
100
AcDbEntity
  8
0
  6
Continuous
 62
     7
370
    25
100
AcDbSpline
210
0.0
220
0.0
230
1.0
 70
     8
 71
     3
 72
    14
 73
    10
 74
     0
 42
0.00000001
 43
0.00000001
 40
0.5511452244250064
 40
0.5511452244250064
 40
0.5511452244250064
 40
0.5511452244250064
 40
0.5545829838309861
 40
0.5695295459998657
 40
0.5844034168402927
 40
0.5991909919021363
 40
0.6138768380252426
 40
0.628447474920468
 40
0.6391164527335579
 40
0.6391164527335579
 40
0.6391164527335579
 40
0.6391164527335579
 10
9.812272175585576
 20
11.64466147247244
 30
0.0
 10
9.785684769373045
 20
11.6446722396492
 30
0.0
 10
9.643501564596608
 20
11.64458019800183
 30
0.0
 10
9.386287148064373
 20
11.64296110105651
 30
0.0
 10
9.041330593671928
 20
11.63751073618252
 30
0.0
 10
8.698459773086393
 20
11.6287175489558
 30
0.0
 10
8.358038195002255
 20
11.6165651276675
 30
0.0
 10
8.049577809285648
 20
11.60239733922124
 30
0.0
 10
7.854673069959192
 20
11.59160471738081
 30
0.0
 10
7.772304801576291
 20
11.58671449904508
 30
0.0
  0
LINE
  5
77
330
1F
100
AcDbEntity
  8
0
  6
Continuous
 62
     7
370
    25
100
AcDbLine
 10
9.8122721756
 20
11.6446614725
 30
0.0
 11
9.812119564
 21
11.2678167646
 31
0.0
  0
LINE
  5
78
330
1F
100
AcDbEntity
  8
0
  6
Continuous
 62
     7
370
    25
100
AcDbLine
 10
9.812119564
 20
11.2678167646
 30
0.0
 11
10.1871195333
 21
11.2676648998
 31
0.0
  0
LINE
  5
79
330
1F
100
AcDbEntity
  8
0
  6
Continuous
 62
     7
370
    25
100
AcDbLine
 10
10.1871195333
 20
11.2676648998
 30
0.0
 11
10.1872713978
 21
11.6426648691
 31
0.0
  0
SPLINE
  5
7A
330
1F
100
AcDbEntity
  8
0
  6
Continuous
 62
     7
370
    25
100
AcDbSpline
210
0.0
220
0.0
230
1.0
 70
     8
 71
     3
 72
    15
 73
    11
 74
     0
 42
0.00000001
 43
0.00000001
 40
0.4314156119256059
 40
0.4314156119256059
 40
0.4314156119256059
 40
0.4314156119256059
 40
0.4341867493871219
 40
0.4491772650868069
 40
0.4642147821671246
 40
0.4792840087649619
 40
0.4943697397811477
 40
0.5094578326361675
 40
0.5245323463196893
 40
0.5349824261914533
 40
0.5349824261914533
 40
0.5349824261914533
 40
0.5349824261914533
 10
12.58803998333754
 20
11.5484406502513
 30
0.0
 10
12.56665587554693
 20
11.54986914770326
 30
0.0
 10
12.42958759385533
 20
11.55892814921006
 30
0.0
 10
12.1763975177872
 20
11.57449667675207
 30
0.0
 10
11.82812001366008
 20
11.59324034631095
 30
0.0
 10
11.47896896096848
 20
11.60925700905157
 30
0.0
 10
11.12930770841621
 20
11.62243630648969
 30
0.0
 10
10.77950754670437
 20
11.63269867807026
 30
0.0
 10
10.46547633758199
 20
11.63920892176536
 30
0.0
 10
10.26808740194229
 20
11.64183992411217
 30
0.0
 10
10.18727139775208
 20
11.64266486909513
 30
0.0
  0
LINE
  5
7B
330
1F
100
AcDbEntity
  8
0
  6
Continuous
 62
     7
370
    25
100
AcDbLine
 10
12.5880399833
 20
11.5484406503
 30
0.0
 11
12.5751595488
 21
11.3613845859
 31
0.0
  0
LINE
  5
7C
330
1F
100
AcDbEntity
  8
0
  6
Continuous
 62
     7
370
    25
100
AcDbLine
 10
12.5751595488
 20
11.3613845859
 30
0.0
 11
12.762216606
 21
11.3485040831
 31
0.0
  0
LINE
  5
7D
330
1F
100
AcDbEntity
  8
0
  6
Continuous
 62
     7
370
    25
100
AcDbLine
 10
12.762216606
 20
11.3485040831
 30
0.0
 11
12.7750971085
 21
11.5355611403
 31
0.0
  0
SPLINE
  5
7E
330
1F
100
AcDbEntity
  8
0
  6
Continuous
 62
     7
370
    25
100
AcDbSpline
210
0.0
220
0.0
230
1.0
 70
     8
 71
     3
 72
    16
 73
    12
 74
     0
 42
0.00000001
 43
0.00000001
 40
0.3164238124056183
 40
0.3164238124056183
 40
0.3164238124056183
 40
0.3164238124056183
 40
0.3176892265558903
 40
0.331784111124987
 40
0.346039676653823
 40
0.3604438694916348
 40
0.3749827204038077
 40
0.3896404543545233
 40
0.4044033165867775
 40
0.4192566006634758
 40
0.423334328713774
 40
0.423334328713774
 40
0.423334328713774
 40
0.423334328713774
 10
15.243837432177
 20
11.29689652371618
 30
0.0
 10
15.23412313098018
 20
11.29808339622238
 30
0.0
 10
15.11620105541764
 20
11.31245391717248
 30
0.0
 10
14.8887248308336
 20
11.33925114118569
 30
0.0
 10
14.56009724780998
 20
11.37587663548534
 30
0.0
 10
14.22781780431454
 20
11.41067577164894
 30
0.0
 10
13.89221609484116
 20
11.44353973227781
 30
0.0
 10
13.55363186714483
 20
11.47432668058456
 30
0.0
 10
13.21241697256022
 20
11.50294633167962
 30
0.0
 10
12.95258920744137
 20
11.52283166887726
 30
0.0
 10
12.80655502684789
 20
11.53333127360956
 30
0.0
 10
12.77509710852459
 20
11.53556114030562
 30
0.0
  0
LINE
  5
7F
330
1F
100
AcDbEntity
  8
0
  6
Continuous
 62
     7
370
    25
100
AcDbLine
 10
15.2438374322
 20
11.2968965237
 30
0.0
 11
15.2210981749
 21
11.1107804949
 31
0.0
  0
LINE
  5
80
330
1F
100
AcDbEntity
  8
0
  6
Continuous
 62
     7
370
    25
100
AcDbLine
 10
15.2210981749
 20
11.1107804949
 30
0.0
 11
15.4072142037
 21
11.0880412373
 31
0.0
  0
LINE
  5
81
330
1F
100
AcDbEntity
  8
0
  6
Continuous
 62
     7
370
    25
100
AcDbLine
 10
15.4072142037
 20
11.0880412373
 30
0.0
 11
15.429915189
 21
11.2738440154
 31
0.0
  0
SPLINE
  5
82
330
1F
100
AcDbEntity
  8
0
  6
Continuous
 62
     7
370
    25
100
AcDbSpline
210
0.0
220
0.0
230
1.0
 70
     8
 71
     3
 72
    45
 73
    41
 74
     0
 42
0.00000001
 43
0.00000001
 40
0.0
 40
0.0
 40
0.0
 40
0.0
 40
0.0002540897518312
 40
0.0010153730404189
 40
0.0022833589873498
 40
0.0040565770162251
 40
0.0063309815935676
 40
0.0091052744745057
 40
0.0123744894508916
 40
0.0161340231657128
 40
0.0203796604534971
 40
0.0251059762158006
 40
0.0303062367832748
 40
0.0359722056047472
 40
0.0420995223901982
 40
0.048678063692099
 40
0.0557016641246682
 40
0.0631601838890209
 40
0.0710458240741888
 40
0.079349826512255
 40
0.0880629100454657
 40
0.0971757563559511
 40
0.1066781116462642
 40
0.1165615729559075
 40
0.1268142755473613
 40
0.1374283005010189
 40
0.1483936177789397
 40
0.1596997598396382
 40
0.1713381255242434
 40
0.1832976990279093
 40
0.1955696040927178
 40
0.2081435554480289
 40
0.2210115933777215
 40
0.2341618307558447
 40
0.2475874504524841
 40
0.2612768224436114
 40
0.2752227101303402
 40
0.2894141440710628
 40
0.3037711996782109
 40
0.3083424724643554
 40
0.3083424724643554
 40
0.3083424724643554
 40
0.3083424724643554
 10
22.12322898867337
 20
8.916527700374784
 30
0.0
 10
22.12155716115031
 20
8.917560482667247
 30
0.0
 10
22.11487633839808
 20
8.921687604240743
 30
0.0
 10
22.09982322790495
 20
8.930920977564641
 30
0.0
 10
22.07475666821157
 20
8.946299624872573
 30
0.0
 10
22.03966567504072
 20
8.967716731424765
 30
0.0
 10
21.99457749318241
 20
8.99511541674534
 30
0.0
 10
21.93946944472265
 20
9.028303832651352
 30
0.0
 10
21.87437593159809
 20
9.06717415461446
 30
0.0
 10
21.79931270760279
 20
9.111542539747548
 30
0.0
 10
21.71428746207401
 20
9.1612012447346
 30
0.0
 10
21.61933257073218
 20
9.215949091501022
 30
0.0
 10
21.51445629799435
 20
9.275476128287536
 30
0.0
 10
21.39969927285239
 20
9.339539128431618
 30
0.0
 10
21.27510086184948
 20
9.407833406142911
 30
0.0
 10
21.14068463867201
 20
9.480050512948019
 30
0.0
 10
20.99649873415293
 20
9.555823104083846
 30
0.0
 10
20.84259849789053
 20
9.634825278770151
 30
0.0
 10
20.67901198773692
 20
9.716620764156996
 30
0.0
 10
20.50581633172054
 20
9.800869151898704
 30
0.0
 10
20.3230692323407
 20
9.887150373971874
 30
0.0
 10
20.13083306511003
 20
9.975004108169044
 30
0.0
 10
19.92921826585911
 20
10.06407221300587
 30
0.0
 10
19.71828057715558
 20
10.1538009619165
 30
0.0
 10
19.49814020863861
 20
10.24380159409358
 30
0.0
 10
19.26889087939878
 20
10.3335618981013
 30
0.0
 10
19.03066832560745
 20
10.42267307909566
 30
0.0
 10
18.78356445619114
 20
10.51055785745482
 30
0.0
 10
18.52776398652487
 20
10.59683216863248
 30
0.0
 10
18.26339100631813
 20
10.68093554640931
 30
0.0
 10
17.9906345771552
 20
10.76241123335303
 30
0.0
 10
17.70965317479873
 20
10.84073097954706
 30
0.0
 10
17.42068102822467
 20
10.91549311610422
 30
0.0
 10
17.12390140435939
 20
10.98615319469608
 30
0.0
 10
16.81956584492787
 20
11.05223824575466
 30
0.0
 10
16.50791626240987
 20
11.11335039560231
 30
0.0
 10
16.18921402780783
 20
11.16887952218823
 30
0.0
 10
15.86434229510925
 20
11.21878233322494
 30
0.0
 10
15.61023889561503
 20
11.25115664345638
 30
0.0
 10
15.46499479664307
 20
11.26944844469118
 30
0.0
 10
15.42991518903354
 20
11.27384401535402
 30
0.0
  0
LINE
  5
83
330
1F
100
AcDbEntity
  8
0
  6
Continuous
 62
     7
370
    25
100
AcDbLine
 10
22.3058325079
 20
8.8037231923
 30
0.0
 11
22.1232289887
 21
8.9165277004
 31
0.0
  0
LINE
  5
84
330
1F
100
AcDbEntity
  8
0
  6
Continuous
 62
     7
370
    25
100
AcDbLine
 10
22.0960101087
 20
8.8484805004
 30
0.0
 11
22.3058325079
 21
8.8037231923
 31
0.0
  0
SPLINE
  5
85
330
1F
100
AcDbEntity
  8
0
  6
Continuous
 62
     7
370
    25
100
AcDbSpline
210
0.0
220
0.0
230
1.0
 70
     8
 71
     3
 72
    45
 73
    41
 74
     0
 42
0.00000001
 43
0.00000001
 40
0.6954317067577289
 40
0.6954317067577289
 40
0.6954317067577289
 40
0.6954317067577289
 40
0.7035818246207629
 40
0.7169075633393495
 40
0.7300092743405843
 40
0.7429521279156549
 40
0.755725557694238
 40
0.7683199516741555
 40
0.7807243374027457
 40
0.7929265285864308
 40
0.8049160410865589
 40
0.8166790838088313
 40
0.8282035242084964
 40
0.8394749002660455
 40
0.8504813585168555
 40
0.8612076967744442
 40
0.8716393257296176
 40
0.8817634137109616
 40
0.8915636048210556
 40
0.9010273643172574
 40
0.9101389770085111
 40
0.9188839764012169
 40
0.9272492779043127
 40
0.9352211037112476
 40
0.9427847385100345
 40
0.9499281877133432
 40
0.9566384642920557
 40
0.9629042034427838
 40
0.9687122876061149
 40
0.9740544849024281
 40
0.9789184321677268
 40
0.9832972184116099
 40
0.9871802458290098
 40
0.9905606741393513
 40
0.9934333573190599
 40
0.9957906255195277
 40
0.9976295874610529
 40
0.9989458159268665
 40
0.9997365922159134
 40
1.0
 40
1.0
 40
1.0
 40
1.0
 10
15.35599301322607
 20
9.097851418189789
 30
0.0
 10
15.41596297659691
 20
9.10573348377758
 30
0.0
 10
15.57398218910581
 20
9.126534800932575
 30
0.0
 10
15.82828357249735
 20
9.16098090073968
 30
0.0
 10
16.11860283415838
 20
9.19412626325007
 30
0.0
 10
16.40530725298374
 20
9.222417023090621
 30
0.0
 10
16.68869464219138
 20
9.245611542457201
 30
0.0
 10
16.96842471783538
 20
9.264043519604275
 30
0.0
 10
17.24417696962041
 20
9.277844660371983
 30
0.0
 10
17.51562275765497
 20
9.287207644700658
 30
0.0
 10
17.78241920702863
 20
9.292410238393138
 30
0.0
 10
18.04423308256879
 20
9.293584470112002
 30
0.0
 10
18.30070701928221
 20
9.291104811145768
 30
0.0
 10
18.55150744655758
 20
9.285171141885538
 30
0.0
 10
18.7962843302877
 20
9.276049796205522
 30
0.0
 10
19.03469618518044
 20
9.264048512805061
 30
0.0
 10
19.26640436963607
 20
9.249494455230218
 30
0.0
 10
19.49106102047587
 20
9.23260230656443
 30
0.0
 10
19.70835308600209
 20
9.213766423920687
 30
0.0
 10
19.91794531830949
 20
9.193262541647256
 30
0.0
 10
20.11951588411817
 20
9.171324921816762
 30
0.0
 10
20.31277066452968
 20
9.148413243046154
 30
0.0
 10
20.4974003324672
 20
9.124678356860596
 30
0.0
 10
20.67312717658967
 20
9.100510312041594
 30
0.0
 10
20.83966832477373
 20
9.07615402734737
 30
0.0
 10
20.99676002128919
 20
9.0519204591963
 30
0.0
 10
21.14415545166057
 20
9.028040792908756
 30
0.0
 10
21.28161652617043
 20
9.004831975797693
 30
0.0
 10
21.40892791647388
 20
8.982510849029671
 30
0.0
 10
21.52586870213671
 20
8.961295397111543
 30
0.0
 10
21.63227665322797
 20
8.941453298837924
 30
0.0
 10
21.72794161321111
 20
8.923083120930231
 30
0.0
 10
21.81273563707003
 20
8.906487606757668
 30
0.0
 10
21.88650105938242
 20
8.891739984889583
 30
0.0
 10
21.94912974517023
 20
8.879048032048532
 30
0.0
 10
22.00051232120744
 20
8.868461838294527
 30
0.0
 10
22.04057074694406
 20
8.860155184252005
 30
0.0
 10
22.06922589977003
 20
8.85411479612903
 30
0.0
 10
22.08644678567842
 20
8.850520456997739
 30
0.0
 10
22.09409824673768
 20
8.848888320482917
 30
0.0
 10
22.09601010867337
 20
8.848480500374786
 30
0.0
  0
LINE
  5
86
330
1F
100
AcDbEntity
  8
0
  6
Continuous
 62
     7
370
    25
100
AcDbLine
 10
15.3315194941
 20
9.2837473484
 30
0.0
 11
15.3559930132
 21
9.0978514182
 31
0.0
  0
LINE
  5
87
330
1F
100
AcDbEntity
  8
0
  6
Continuous
 62
     7
370
    25
100
AcDbLine
 10
15.1456235639
 20
9.2592738296
 30
0.0
 11
15.3315194941
 21
9.2837473484
 31
0.0
  0
LINE
  5
88
330
1F
100
AcDbEntity
  8
0
  6
Continuous
 62
     7
370
    25
100
AcDbLine
 10
15.1700970826
 20
9.0733778994
 30
0.0
 11
15.1456235639
 21
9.2592738296
 31
0.0
  0
SPLINE
  5
89
330
1F
100
AcDbEntity
  8
0
  6
Continuous
 62
     7
370
    25
100
AcDbSpline
210
0.0
220
0.0
230
1.0
 70
     8
 71
     3
 72
    12
 73
     8
 74
     0
 42
0.00000001
 43
0.00000001
 40
0.6279258258439321
 40
0.6279258258439321
 40
0.6279258258439321
 40
0.6279258258439321
 40
0.6312694223607523
 40
0.6460065237480678
 40
0.6606206841728729
 40
0.6750981874935538
 40
0.687010174038574
 40
0.687010174038574
 40
0.687010174038574
 40
0.687010174038574
 10
13.8662811653324
 20
8.898602843934146
 30
0.0
 10
13.89087106646242
 20
8.901933215477007
 30
0.0
 10
14.02384362703109
 20
8.919933524516923
 30
0.0
 10
14.26430745860306
 20
8.95238698748802
 30
0.0
 10
14.58668955402891
 20
8.995664459633774
 30
0.0
 10
14.88831820907909
 20
9.035951464683954
 30
0.0
 10
15.08245527555192
 20
9.061791541885777
 30
0.0
 10
15.17009708260395
 20
9.073377899397785
 30
0.0
  0
LINE
  5
8A
330
1F
100
AcDbEntity
  8
0
  6
Continuous
 62
     7
370
    25
100
AcDbLine
 10
13.8157548393
 20
9.2702678658
 30
0.0
 11
13.8662811653
 21
8.8986028439
 31
0.0
  0
LINE
  5
8B
330
1F
100
AcDbEntity
  8
0
  6
Continuous
 62
     7
370
    25
100
AcDbLine
 10
13.4441727758
 20
9.2197528176
 30
0.0
 11
13.8157548393
 21
9.2702678658
 31
0.0
  0
LINE
  5
8C
330
1F
100
AcDbEntity
  8
0
  6
Continuous
 62
     7
370
    25
100
AcDbLine
 10
13.494687824
 20
8.8481707541
 30
0.0
 11
13.4441727758
 21
9.2197528176
 31
0.0
  0
SPLINE
  5
8D
330
1F
100
AcDbEntity
  8
0
  6
Continuous
 62
     7
370
    25
100
AcDbSpline
210
0.0
220
0.0
230
1.0
 70
     8
 71
     3
 72
    14
 73
    10
 74
     0
 42
0.00000001
 43
0.00000001
 40
0.520465470718606
 40
0.520465470718606
 40
0.520465470718606
 40
0.520465470718606
 40
0.5258873344064182
 40
0.5410783139096876
 40
0.5562472332602322
 40
0.571381784352882
 40
0.5864660404483751
 40
0.6014845156991583
 40
0.6110828024492754
 40
0.6110828024492754
 40
0.6110828024492754
 40
0.6110828024492754
 10
11.49561630956677
 20
8.57579802352466
 30
0.0
 10
11.53549036470193
 20
8.581199197537599
 30
0.0
 10
11.68708099530208
 20
8.601752316147078
 30
0.0
 10
11.95020891280299
 20
8.637560986100695
 30
0.0
 10
12.28474739052256
 20
8.683188689504721
 30
0.0
 10
12.61849866788206
 20
8.728727121801947
 30
0.0
 10
12.95113582914231
 20
8.774172122332281
 30
0.0
 10
13.24307880602165
 20
8.813946424130883
 30
0.0
 10
13.42410367761189
 20
8.838575130687275
 30
0.0
 10
13.49468782399868
 20
8.84817075411709
 30
0.0
  0
LINE
  5
8E
330
1F
100
AcDbEntity
  8
0
  6
Continuous
 62
     7
370
    25
100
AcDbLine
 10
11.4704835986
 20
8.7616059804
 30
0.0
 11
11.4956163096
 21
8.5757980235
 31
0.0
  0
LINE
  5
8F
330
1F
100
AcDbEntity
  8
0
  6
Continuous
 62
     7
370
    25
100
AcDbLine
 10
11.2846756417
 20
8.7364732694
 30
0.0
 11
11.4704835986
 21
8.7616059804
 31
0.0
  0
LINE
  5
90
330
1F
100
AcDbEntity
  8
0
  6
Continuous
 62
     7
370
    25
100
AcDbLine
 10
11.2846756417
 20
8.7364732694
 30
0.0
 11
11.3098083812
 21
8.5506651021
 31
0.0
  0
SPLINE
  5
91
330
1F
100
AcDbEntity
  8
0
  6
Continuous
 62
     7
370
    25
100
AcDbSpline
210
0.0
220
0.0
230
1.0
 70
     8
 71
     3
 72
    15
 73
    11
 74
     0
 42
0.00000001
 43
0.00000001
 40
0.4170001598971144
 40
0.4170001598971144
 40
0.4170001598971144
 40
0.4170001598971144
 40
0.420174823355266
 40
0.4351095326124219
 40
0.4501242755491032
 40
0.4652030675528332
 40
0.480333153810538
 40
0.4955005832026954
 40
0.5106897747322421
 40
0.5120439593728947
 40
0.5120439593728947
 40
0.5120439593728947
 40
0.5120439593728947
 10
9.21165025286839
 20
8.275800316217364
 30
0.0
 10
9.235029136175033
 20
8.278721515502278
 30
0.0
 10
9.368385751850226
 20
8.295421669429638
 30
0.0
 10
9.612263921638814
 20
8.326336828568653
 30
0.0
 10
9.943702864573643
 20
8.369019954378661
 30
0.0
 10
10.27648918127642
 20
8.41258642705501
 30
0.0
 10
10.61034297482159
 20
8.456725853243078
 30
0.0
 10
10.94494228744513
 20
8.501474585352613
 30
0.0
 10
11.17817706381489
 20
8.53288864891777
 30
0.0
 10
11.29984878585128
 20
8.549319813752694
 30
0.0
 10
11.30980838115832
 20
8.550665102076245
 30
0.0
  0
LINE
  5
92
330
1F
100
AcDbEntity
  8
0
  6
Continuous
 62
     7
370
    25
100
AcDbLine
 10
9.1885415704
 20
8.4618708372
 30
0.0
 11
9.2116502529
 21
8.2758003162
 31
0.0
  0
LINE
  5
93
330
1F
100
AcDbEntity
  8
0
  6
Continuous
 62
     7
370
    25
100
AcDbLine
 10
9.0024710494
 20
8.4387621548
 30
0.0
 11
9.1885415704
 21
8.4618708372
 31
0.0
  0
LINE
  5
94
330
1F
100
AcDbEntity
  8
0
  6
Continuous
 62
     7
370
    25
100
AcDbLine
 10
9.0024710494
 20
8.4387621548
 30
0.0
 11
9.0255796006
 21
8.2526926905
 31
0.0
  0
SPLINE
  5
95
330
1F
100
AcDbEntity
  8
0
  6
Continuous
 62
     7
370
    25
100
AcDbSpline
210
0.0
220
0.0
230
1.0
 70
     8
 71
     3
 72
    15
 73
    11
 74
     0
 42
0.00000001
 43
0.00000001
 40
0.3173008976357805
 40
0.3173008976357805
 40
0.3173008976357805
 40
0.3173008976357805
 40
0.3189806851177335
 40
0.3329854989238258
 40
0.3471627904008333
 40
0.3614986025989408
 40
0.3759807467343043
 40
0.390597192121319
 40
0.4053325934372969
 40
0.4085786502070837
 40
0.4085786502070837
 40
0.4085786502070837
 40
0.4085786502070837
 10
7.006051231751923
 20
8.026163520871114
 30
0.0
 10
7.018458396478232
 20
8.027378466886255
 30
0.0
 10
7.134303569131364
 20
8.038760144822524
 30
0.0
 10
7.354796038573053
 20
8.061088094689305
 30
0.0
 10
7.66858140515107
 20
8.094380698477641
 30
0.0
 10
7.985737011437644
 20
8.129452445091385
 30
0.0
 10
8.30599305557207
 20
8.166116227022577
 30
0.0
 10
8.629056984734731
 20
8.2043057103437
 30
0.0
 10
8.869221130796724
 20
8.233439115055477
 30
0.0
 10
9.001670434455189
 20
8.249742263731557
 30
0.0
 10
9.025579600598494
 20
8.252692690526699
 30
0.0
  0
LINE
  5
96
330
1F
100
AcDbEntity
  8
0
  6
Continuous
 62
     7
370
    25
100
AcDbLine
 10
6.9720511486
 20
8.3996189993
 30
0.0
 11
7.0060512318
 21
8.0261635209
 31
0.0
  0
LINE
  5
97
330
1F
100
AcDbEntity
  8
0
  6
Continuous
 62
     7
370
    25
100
AcDbLine
 10
6.5985956702
 20
8.3656189162
 30
0.0
 11
6.9720511486
 21
8.3996189993
 31
0.0
  0
LINE
  5
98
330
1F
100
AcDbEntity
  8
0
  6
Continuous
 62
     7
370
    25
100
AcDbLine
 10
6.6327137369
 20
7.9908675154
 30
0.0
 11
6.5985956702
 21
8.3656189162
 31
0.0
  0
SPLINE
  5
99
330
1F
100
AcDbEntity
  8
0
  6
Continuous
 62
     7
370
    25
100
AcDbSpline
210
0.0
220
0.0
230
1.0
 70
     8
 71
     3
 72
    15
 73
    11
 74
     0
 42
0.00000001
 43
0.00000001
 40
0.2085650349845574
 40
0.2085650349845574
 40
0.2085650349845574
 40
0.2085650349845574
 40
0.2145604781304418
 40
0.2267672493535257
 40
0.239236416912666
 40
0.2519590037406926
 40
0.2649238944848901
 40
0.2781197025559347
 40
0.2915360351420174
 40
0.3004577628980401
 40
0.3004577628980401
 40
0.3004577628980401
 40
0.3004577628980401
 10
4.591451589338891
 20
7.856602689071845
 30
0.0
 10
4.635920684426527
 20
7.858126726355906
 30
0.0
 10
4.770917331530636
 20
7.863101826136502
 30
0.0
 10
4.998324659708601
 20
7.873169421207064
 30
0.0
 10
5.275486892345912
 20
7.88794086763506
 30
0.0
 10
5.558128781055521
 20
7.905416975363488
 30
0.0
 10
5.846001591418393
 20
7.925520292030131
 30
0.0
 10
6.138855370491057
 20
7.948089599123798
 30
0.0
 10
6.401646563670624
 20
7.970149249385244
 30
0.0
 10
6.566774009742209
 20
7.984864239646481
 30
0.0
 10
6.632713736921141
 20
7.990867515363455
 30
0.0
  0
LINE
  5
9A
330
1F
100
AcDbEntity
  8
0
  6
Continuous
 62
     7
370
    25
100
AcDbLine
 10
4.5857208635
 20
8.0440192118
 30
0.0
 11
4.5914515893
 21
7.8566026891
 31
0.0
  0
LINE
  5
9B
330
1F
100
AcDbEntity
  8
0
  6
Continuous
 62
     7
370
    25
100
AcDbLine
 10
4.3983084567
 20
8.0382886118
 30
0.0
 11
4.5857208635
 21
8.0440192118
 31
0.0
  0
LINE
  5
9C
330
1F
100
AcDbEntity
  8
0
  6
Continuous
 62
     7
370
    25
100
AcDbLine
 10
4.3983084567
 20
8.0382886118
 30
0.0
 11
4.404039057
 21
7.850876205
 31
0.0
  0
SPLINE
  5
9D
330
1F
100
AcDbEntity
  8
0
  6
Continuous
 62
     7
370
    25
100
AcDbSpline
210
0.0
220
0.0
230
1.0
 70
     8
 71
     3
 72
    17
 73
    13
 74
     0
 42
0.00000001
 43
0.00000001
 40
0.1016614720720251
 40
0.1016614720720251
 40
0.1016614720720251
 40
0.1016614720720251
 40
0.1089998674022309
 40
0.118084529462581
 40
0.127514842657726
 40
0.1372852704325623
 40
0.1473879174712405
 40
0.1578164805284356
 40
0.1685634728403947
 40
0.1796191282126914
 40
0.1909773731687989
 40
0.2001435402415022
 40
0.2001435402415022
 40
0.2001435402415022
 40
0.2001435402415022
 10
2.21472303429802
 20
7.928360706874449
 30
0.0
 10
2.26877140265282
 20
7.921654940004523
 30
0.0
 10
2.389871559156626
 20
7.907794905595341
 30
0.0
 10
2.580894413127798
 20
7.889649106309103
 30
0.0
 10
2.790224912742109
 20
7.873782340264662
 30
0.0
 10
3.007343039530553
 20
7.861163587495144
 30
0.0
 10
3.23203804082617
 20
7.851752835196519
 30
0.0
 10
3.464094682488424
 20
7.845585857906457
 30
0.0
 10
3.703285691521484
 20
7.842566512689465
 30
0.0
 10
3.949394906209801
 20
7.842649471119818
 30
0.0
 10
4.183751908694832
 20
7.84562307939902
 30
0.0
 10
4.336036636494976
 20
7.849056730676727
 30
0.0
 10
4.404039056989867
 20
7.850876205029923
 30
0.0
  0
LINE
  5
9E
330
1F
100
AcDbEntity
  8
0
  6
Continuous
 62
     7
370
    25
100
AcDbLine
 10
2.2398968661
 20
8.114163097
 30
0.0
 11
2.2147230343
 21
7.9283607069
 31
0.0
  0
LINE
  5
9F
330
1F
100
AcDbEntity
  8
0
  6
Continuous
 62
     7
370
    25
100
AcDbLine
 10
2.0540944759
 20
8.1393369288
 30
0.0
 11
2.2398968661
 21
8.114163097
 31
0.0
  0
LINE
  5
A0
330
1F
100
AcDbEntity
  8
0
  6
Continuous
 62
     7
370
    25
100
AcDbLine
 10
2.0289240685
 20
7.9535598121
 30
0.0
 11
2.0540944759
 21
8.1393369288
 31
0.0
  0
SPLINE
  5
A1
330
1F
100
AcDbEntity
  8
0
  6
Continuous
 62
     7
370
    25
100
AcDbSpline
210
0.0
220
0.0
230
1.0
 70
     8
 71
     3
 72
    24
 73
    20
 74
     0
 42
0.00000001
 43
0.00000001
 40
0.0039351208712079
 40
0.0039351208712079
 40
0.0039351208712079
 40
0.0039351208712079
 40
0.0072932311171293
 40
0.011028136413859
 40
0.0149010810980465
 40
0.0189632717700928
 40
0.023258475402986
 40
0.0278206260323165
 40
0.0326790824435221
 40
0.0378531598360054
 40
0.0433618746912805
 40
0.0492146790039221
 40
0.0554223461563205
 40
0.06198878599669
 40
0.0689180360680075
 40
0.0762111572779437
 40
0.0838683921994994
 40
0.091887410882707
 40
0.0932399630189705
 40
0.0932399630189705
 40
0.0932399630189705
 40
0.0932399630189705
 10
0.320620846916719
 20
8.797461627778887
 30
0.0
 10
0.328180316384909
 20
8.773723160549403
 30
0.0
 10
0.3480437642283412
 20
8.724735572597684
 30
0.0
 10
0.3873435794943914
 20
8.653279872691462
 30
0.0
 10
0.4383962918813928
 20
8.583040055746395
 30
0.0
 10
0.4997985421442806
 20
8.515969736040075
 30
0.0
 10
0.5714147166019893
 20
8.451999152876562
 30
0.0
 10
0.653174581544044
 20
8.391162701531472
 30
0.0
 10
0.7449711279380374
 20
8.333488069191365
 30
0.0
 10
0.846671007537319
 20
8.278914032091352
 30
0.0
 10
0.9581599097693019
 20
8.227474520247426
 30
0.0
 10
1.07933617917584
 20
8.179185608836388
 30
0.0
 10
1.210067791109659
 20
8.134111847897788
 30
0.0
 10
1.350194922554617
 20
8.092184591080645
 30
0.0
 10
1.499584347701503
 20
8.053506012212623
 30
0.0
 10
1.658066195937829
 20
8.018022050836324
 30
0.0
 10
1.8254880376903
 20
7.985823283786063
 30
0.0
 10
1.9502086902997
 20
7.965331673220732
 30
0.0
 10
2.018993739057588
 20
7.955027159767034
 30
0.0
 10
2.028924068511244
 20
7.953559812061968
 30
0.0
  0
LINE
  5
A2
330
1F
100
AcDbEntity
  8
0
  6
Continuous
 62
     7
370
    25
100
AcDbLine
 10
0.6658719916
 20
8.7974616278
 30
0.0
 11
0.3206208469
 21
8.7974616278
 31
0.0
  0
LINE
  5
A3
330
1F
100
AcDbEntity
  8
0
  6
Continuous
 62
     7
370
    25
100
AcDbLine
 10
0.6658719916
 20
9.1724616278
 30
0.0
 11
0.6658719916
 21
8.7974616278
 31
0.0
  0
LINE
  5
A4
330
1F
100
AcDbEntity
  8
0
  6
Continuous
 62
     7
370
    25
100
AcDbLine
 10
0.3201083695
 20
9.1724616278
 30
0.0
 11
0.6658719916
 21
9.1724616278
 31
0.0
  0
SPLINE
  5
A5
330
1F
100
AcDbEntity
  8
0
  6
Continuous
 62
     7
370
    25
100
AcDbSpline
210
0.0
220
0.0
230
1.0
 70
     8
 71
     3
 72
    21
 73
    17
 74
     0
 42
0.00000001
 43
0.00000001
 40
0.913578602285428
 40
0.913578602285428
 40
0.913578602285428
 40
0.913578602285428
 40
0.9186607344498127
 40
0.9261662532257968
 40
0.9333026258827831
 40
0.9400712202263494
 40
0.9464747799611675
 40
0.9525175260177909
 40
0.9582048188585928
 40
0.9635466521340151
 40
0.9685565999026111
 40
0.9732499128166676
 40
0.9776510407515667
 40
0.9817870430140477
 40
0.9856942262062861
 40
0.9873639224781731
 40
0.9873639224781731
 40
0.9873639224781731
 40
0.9873639224781731
 10
1.579177344777223
 20
10.27333624634523
 30
0.0
 10
1.543955790255953
 20
10.25588865694916
 30
0.0
 10
1.457123292688938
 20
10.2118546031917
 30
0.0
 10
1.322814393233708
 20
10.13947684759124
 30
0.0
 10
1.179719756211809
 20
10.05608549557965
 30
0.0
 10
1.046970037604312
 20
9.972070532823501
 30
0.0
 10
0.9246210307124365
 20
9.887645068149059
 30
0.0
 10
0.8128414215560175
 20
9.802862092674573
 30
0.0
 10
0.7116696080634461
 20
9.71793584968761
 30
0.0
 10
0.6211696148197547
 20
9.63299565971502
 30
0.0
 10
0.5414708027568879
 20
9.548100034303788
 30
0.0
 10
0.4725703032371316
 20
9.46339847505411
 30
0.0
 10
0.4145584130660679
 20
9.378958062842216
 30
0.0
 10
0.3674451967531588
 20
9.2948586983232
 30
0.0
 10
0.3376330151194083
 20
9.225754946545235
 30
0.0
 10
0.3238902173792457
 20
9.18481812614388
 30
0.0
 10
0.3201083697356075
 20
9.172461627713306
 30
0.0
  0
LINE
  5
A6
330
1F
100
AcDbEntity
  8
0
  6
Continuous
 62
     7
370
    25
100
AcDbLine
 10
1.5791773448
 20
10.2733362463
 30
0.0
 11
1.6599864677
 21
10.1041436471
 31
0.0
  0
LINE
  5
A7
330
1F
100
AcDbEntity
  8
0
  6
Continuous
 62
     7
370
    25
100
AcDbLine
 10
1.6599864677
 20
10.1041436471
 30
0.0
 11
1.8291790671
 21
10.1849527697
 31
0.0
  0
ARC
  5
A8
330
1F
100
AcDbEntity
  8
0
  6
Continuous
 62
     7
370
    25
100
AcDbCircle
 10
12.9941922248
 20
9.4360373694
 30
0.0
 40
0.2000000000000726
100
AcDbArc
 50
277.7611357549
 51
61.1174148316
  0
LINE
  5
A9
330
1F
100
AcDbEntity
  8
0
  6
Continuous
 62
     7
370
    25
100
AcDbLine
 10
10.521222802
 20
11.0286211264
 30
0.0
 11
13.0907954782
 21
9.611159645
 31
0.0
  0
ARC
  5
AA
330
1F
100
AcDbEntity
  8
0
  6
Continuous
 62
     7
370
    25
100
AcDbCircle
 10
10.4246195487
 20
10.8534988507
 30
0.0
 40
0.2000000000000014
100
AcDbArc
 50
61.1174148316
 51
180.0
  0
LINE
  5
AB
330
1F
100
AcDbEntity
  8
0
  6
Continuous
 62
     7
370
    25
100
AcDbLine
 10
10.2246195487
 20
10.0652420057
 30
0.0
 11
10.2246195487
 21
10.8534988507
 31
0.0
  0
ARC
  5
AC
330
1F
100
AcDbEntity
  8
0
  6
Continuous
 62
     7
370
    25
100
AcDbCircle
 10
10.4246195487
 20
10.0652420057
 30
0.0
 40
0.2000000000000005
100
AcDbArc
 50
180.0
 51
245.5037209488
  0
ARC
  5
AD
330
1F
100
AcDbEntity
  8
0
  6
Continuous
 62
     7
370
    25
100
AcDbCircle
 10
9.9996195487
 20
9.1325041004
 30
0.0
 40
0.8249999999999992
100
AcDbArc
 50
1.9846926466
 51
65.5037209488
  0
ARC
  5
AE
330
1F
100
AcDbEntity
  8
0
  6
Continuous
 62
     7
370
    25
100
AcDbCircle
 10
11.0240046668
 20
9.1680024072
 30
0.0
 40
0.2000000000000015
100
AcDbArc
 50
181.9846926466
 51
277.6674048107
  0
SPLINE
  5
AF
330
1F
100
AcDbEntity
  8
0
  6
Continuous
 62
     7
370
    25
100
AcDbSpline
210
0.0
220
0.0
230
1.0
 70
     8
 71
     3
 72
    10
 73
     6
 74
     0
 42
0.00000001
 43
0.00000001
 40
0.503022154008895
 40
0.503022154008895
 40
0.503022154008895
 40
0.503022154008895
 40
0.5628889901029348
 40
0.5855934403744916
 40
0.5923747703660249
 40
0.5923747703660249
 40
0.5923747703660249
 40
0.5923747703660249
 10
11.05068914678431
 20
8.969790554589508
 30
0.0
 10
11.49049878899169
 20
9.029000392166031
 30
0.0
 10
12.09739639675066
 20
9.111760803321072
 30
0.0
 10
12.75440301269862
 20
9.20149483012505
 30
0.0
 10
12.97131337279711
 20
9.23107016158965
 30
0.0
 10
13.02120092645975
 20
9.237869435438945
 30
0.0
  0
ARC
  5
B0
330
1F
100
AcDbEntity
  8
0
  6
Continuous
 62
     7
370
    25
100
AcDbCircle
 10
12.0448603745
 20
10.9304705833
 30
0.0
 40
0.2000000000000033
100
AcDbArc
 50
86.8207190269
 51
241.1174148316
  0
LINE
  5
B1
330
1F
100
AcDbEntity
  8
0
  6
Continuous
 62
     7
370
    25
100
AcDbLine
 10
11.9482571211
 20
10.7553483077
 30
0.0
 11
13.4289281315
 21
9.9385610873
 31
0.0
  0
ARC
  5
B2
330
1F
100
AcDbEntity
  8
0
  6
Continuous
 62
     7
370
    25
100
AcDbCircle
 10
13.5255313849
 20
10.1136833629
 30
0.0
 40
0.2000000000000009
100
AcDbArc
 50
241.1174148316
 51
312.4268885054
  0
LINE
  5
B3
330
1F
100
AcDbEntity
  8
0
  6
Continuous
 62
     7
370
    25
100
AcDbLine
 10
13.6604611579
 20
9.9660556002
 30
0.0
 11
14.3640798529
 21
10.6091535448
 31
0.0
  0
ARC
  5
B4
330
1F
100
AcDbEntity
  8
0
  6
Continuous
 62
     7
370
    25
100
AcDbCircle
 10
14.2291500799
 20
10.7567813076
 30
0.0
 40
0.2000000000000005
100
AcDbArc
 50
312.4268885054
 51
84.1353931202
  0
SPLINE
  5
B5
330
1F
100
AcDbEntity
  8
0
  6
Continuous
 62
     7
370
    25
100
AcDbSpline
210
0.0
220
0.0
230
1.0
 70
     8
 71
     3
 72
    11
 73
     7
 74
     0
 42
0.00000001
 43
0.00000001
 40
0.3575496044846501
 40
0.3575496044846501
 40
0.3575496044846501
 40
0.3575496044846501
 40
0.3746798760817555
 40
0.4059031990885684
 40
0.4371265220953814
 40
0.4533143262211754
 40
0.4533143262211754
 40
0.4533143262211754
 40
0.4533143262211754
 10
14.24958569248565
 20
10.95573453260619
 30
0.0
 10
14.11899707474657
 20
10.96914802917369
 30
0.0
 10
13.75031743803527
 20
11.0055382676548
 30
0.0
 10
13.14283135747955
 20
11.05847540674523
 30
0.0
 10
12.54208743547054
 20
11.10163149353138
 30
0.0
 10
12.17969909026267
 20
11.12328913744703
 30
0.0
 10
12.05595246448569
 20
11.13016276029072
 30
0.0
  0
LINE
  5
B6
330
1F
100
AcDbEntity
  8
0
  6
Continuous
 62
     7
370
    25
100
AcDbLine
 10
9.7746195487
 20
10.7409088941
 30
0.0
 11
9.7746195487
 21
10.1075041004
 31
0.0
  0
ARC
  5
B7
330
1F
100
AcDbEntity
  8
0
  6
Continuous
 62
     7
370
    25
100
AcDbCircle
 10
9.5746195487
 20
10.7409088941
 30
0.0
 40
0.2000000000000005
100
AcDbArc
 50
0.0
 51
132.4268885054
  0
LINE
  5
B8
330
1F
100
AcDbEntity
  8
0
  6
Continuous
 62
     7
370
    25
100
AcDbLine
 10
8.746676436
 20
10.2551318632
 30
0.0
 11
9.4396897756
 21
10.8885366569
 31
0.0
  0
ARC
  5
B9
330
1F
100
AcDbEntity
  8
0
  6
Continuous
 62
     7
370
    25
100
AcDbCircle
 10
8.881606209
 20
10.1075041004
 30
0.0
 40
0.2000000000000016
100
AcDbArc
 50
132.4268885054
 51
270.0
  0
LINE
  5
BA
330
1F
100
AcDbEntity
  8
0
  6
Continuous
 62
     7
370
    25
100
AcDbLine
 10
8.881606209
 20
9.9075041004
 30
0.0
 11
9.5746195487
 21
9.9075041004
 31
0.0
  0
ARC
  5
BB
330
1F
100
AcDbEntity
  8
0
  6
Continuous
 62
     7
370
    25
100
AcDbCircle
 10
9.5746195487
 20
10.1075041004
 30
0.0
 40
0.2000000000000046
100
AcDbArc
 50
270.0
 51
0.0
  0
LINE
  5
BC
330
1F
100
AcDbEntity
  8
0
  6
Continuous
 62
     7
370
    25
100
AcDbLine
 10
8.4058695487
 20
9.5075041004
 30
0.0
 11
8.4058695487
 21
9.2575041004
 31
0.0
  0
LINE
  5
BD
330
1F
100
AcDbEntity
  8
0
  6
Continuous
 62
     7
370
    25
100
AcDbLine
 10
6.4058695487
 20
9.5075041004
 30
0.0
 11
8.4058695487
 21
9.5075041004
 31
0.0
  0
LINE
  5
BE
330
1F
100
AcDbEntity
  8
0
  6
Continuous
 62
     7
370
    25
100
AcDbLine
 10
6.4058695487
 20
9.5075041004
 30
0.0
 11
6.4058695487
 21
9.2575041004
 31
0.0
  0
LINE
  5
BF
330
1F
100
AcDbEntity
  8
0
  6
Continuous
 62
     7
370
    25
100
AcDbLine
 10
6.4058695487
 20
9.2575041004
 30
0.0
 11
8.4058695487
 21
9.2575041004
 31
0.0
  0
CIRCLE
  5
C0
330
1F
100
AcDbEntity
  8
0
  6
Continuous
 62
     7
370
    25
100
AcDbCircle
 10
15.2570312587
 20
10.1908731904
 30
0.0
 40
0.2500000000000018
  0
ARC
  5
C1
330
1F
100
AcDbEntity
  8
0
  6
Continuous
 62
     7
370
    25
100
AcDbCircle
 10
2.1260813492
 20
8.5962616048
 30
0.0
 40
0.2000000000000012
100
AcDbArc
 50
261.6125656441
 51
31.5446870278
  0
ARC
  5
C2
330
1F
100
AcDbEntity
  8
0
  6
Continuous
 62
     7
370
    25
100
AcDbCircle
 10
2.9996195487
 20
9.1325041004
 30
0.0
 40
0.8250000000000008
100
AcDbArc
 50
114.4962790512
 51
211.5446870278
  0
ARC
  5
C3
330
1F
100
AcDbEntity
  8
0
  6
Continuous
 62
     7
370
    25
100
AcDbCircle
 10
2.5746195487
 20
10.0652420057
 30
0.0
 40
0.2000000000000005
100
AcDbArc
 50
294.4962790512
 51
349.0852697611
  0
ARC
  5
C4
330
1F
100
AcDbEntity
  8
0
  6
Continuous
 62
     7
370
    25
100
AcDbCircle
 10
2.5746195487
 20
9.9895028498
 30
0.0
 40
0.2000000000000005
100
AcDbArc
 50
10.9147302389
 51
111.3381887662
  0
SPLINE
  5
C5
330
1F
100
AcDbEntity
  8
0
  6
Continuous
 62
     7
370
    25
100
AcDbSpline
210
0.0
220
0.0
230
1.0
 70
     8
 71
     3
 72
     8
 73
     4
 74
     0
 42
0.00000001
 43
0.00000001
 40
0.0587970678286711
 40
0.0587970678286711
 40
0.0587970678286711
 40
0.0587970678286711
 40
1.0
 40
1.0
 40
1.0
 40
1.0
 10
2.501845120612419
 20
10.17579263113324
 30
0.0
 10
1.079639514630397
 20
9.62020553004378
 30
0.0
 10
0.2346358317562265
 20
8.672979873289549
 30
0.0
 10
2.096908136005275
 20
8.398400735443033
 30
0.0
  0
ARC
  5
C6
330
1F
100
AcDbEntity
  8
0
  6
Continuous
 62
     7
370
    25
100
AcDbCircle
 10
7.6216915425
 20
10.1075041004
 30
0.0
 40
0.1999999999999991
100
AcDbArc
 50
270.0
 51
312.4268885054
  0
LINE
  5
C7
330
1F
100
AcDbEntity
  8
0
  6
Continuous
 62
     7
370
    25
100
AcDbLine
 10
7.7566213155
 20
9.9598763376
 30
0.0
 11
8.7041727989
 21
10.8259255425
 31
0.0
  0
ARC
  5
C8
330
1F
100
AcDbEntity
  8
0
  6
Continuous
 62
     7
370
    25
100
AcDbCircle
 10
8.5692430259
 20
10.9735533053
 30
0.0
 40
0.2000000000000017
100
AcDbArc
 50
312.4268885054
 51
92.0132500137
  0
SPLINE
  5
C9
330
1F
100
AcDbEntity
  8
0
  6
Continuous
 62
     7
370
    25
100
AcDbSpline
210
0.0
220
0.0
230
1.0
 70
     8
 71
     3
 72
    12
 73
     8
 74
     0
 42
0.00000001
 43
0.00000001
 40
0.6057153505811109
 40
0.6057153505811109
 40
0.6057153505811109
 40
0.6057153505811109
 40
0.6244664601362591
 40
0.686913106149885
 40
0.7493597521635109
 40
0.7805830751703239
 40
0.7911832058650156
 40
0.7911832058650156
 40
0.7911832058650156
 40
0.7911832058650156
 10
8.562216903622527
 20
11.17342985123691
 30
0.0
 10
8.419231558093365
 20
11.16840358608281
 30
0.0
 10
7.800377408975143
 20
11.14262091102732
 30
0.0
 10
6.708722965625711
 20
11.06494336568939
 30
0.0
 10
5.53214091636801
 20
10.91769153780824
 30
0.0
 10
4.755310740468543
 20
10.78075711429285
 30
0.0
 10
4.44603778358021
 20
10.71804512482698
 30
0.0
 10
4.367819885095293
 20
10.7016254875883
 30
0.0
  0
ARC
  5
CA
330
1F
100
AcDbEntity
  8
0
  6
Continuous
 62
     7
370
    25
100
AcDbCircle
 10
4.4089086604
 20
10.5058917078
 30
0.0
 40
0.2
100
AcDbArc
 50
101.855484399
 51
241.1174148316
  0
LINE
  5
CB
330
1F
100
AcDbEntity
  8
0
  6
Continuous
 62
     7
370
    25
100
AcDbLine
 10
4.3123054071
 20
10.3307694321
 30
0.0
 11
5.7092662953
 21
9.5601594905
 31
0.0
  0
ARC
  5
CC
330
1F
100
AcDbEntity
  8
0
  6
Continuous
 62
     7
370
    25
100
AcDbCircle
 10
5.8058695487
 20
9.7352817662
 30
0.0
 40
0.2000000000000005
100
AcDbArc
 50
241.1174148316
 51
356.0179374983
  0
ARC
  5
CD
330
1F
100
AcDbEntity
  8
0
  6
Continuous
 62
     7
370
    25
100
AcDbCircle
 10
6.2049038846
 20
9.7075041004
 30
0.0
 40
0.2000000000000011
100
AcDbArc
 50
90.0
 51
176.0179374983
  0
LINE
  5
CE
330
1F
100
AcDbEntity
  8
0
  6
Continuous
 62
     7
370
    25
100
AcDbLine
 10
6.2049038846
 20
9.9075041004
 30
0.0
 11
7.6216915425
 21
9.9075041004
 31
0.0
  0
ARC
  5
CF
330
1F
100
AcDbEntity
  8
0
  6
Continuous
 62
     7
370
    25
100
AcDbCircle
 10
3.8004537797
 20
8.4927466976
 30
0.0
 40
0.2000000000000005
100
AcDbArc
 50
141.3799117912
 51
204.997537098
  0
LINE
  5
D0
330
1F
100
AcDbEntity
  8
0
  6
Continuous
 62
     7
370
    25
100
AcDbLine
 10
5.8089150679
 20
8.4415789738
 30
0.0
 11
3.6191885892
 21
8.408230837
 31
0.0
  0
ARC
  5
D1
330
1F
100
AcDbEntity
  8
0
  6
Continuous
 62
     7
370
    25
100
AcDbCircle
 10
5.8058695487
 20
8.6415557845
 30
0.0
 40
0.2
100
AcDbArc
 50
270.8725107055
 51
0.0
  0
LINE
  5
D2
330
1F
100
AcDbEntity
  8
0
  6
Continuous
 62
     7
370
    25
100
AcDbLine
 10
6.0058695487
 20
8.6415557845
 30
0.0
 11
6.0058695487
 21
8.7645314756
 31
0.0
  0
ARC
  5
D3
330
1F
100
AcDbEntity
  8
0
  6
Continuous
 62
     7
370
    25
100
AcDbCircle
 10
5.8058695487
 20
8.7645314756
 30
0.0
 40
0.2000000000000001
100
AcDbArc
 50
0.0
 51
61.1174148316
  0
LINE
  5
D4
330
1F
100
AcDbEntity
  8
0
  6
Continuous
 62
     7
370
    25
100
AcDbLine
 10
3.521222802
 20
10.2532302007
 30
0.0
 11
5.902472802
 21
8.9396537513
 31
0.0
  0
ARC
  5
D5
330
1F
100
AcDbEntity
  8
0
  6
Continuous
 62
     7
370
    25
100
AcDbCircle
 10
3.4246195487
 20
10.078107925
 30
0.0
 40
0.2000000000000011
100
AcDbArc
 50
61.1174148316
 51
180.0
  0
LINE
  5
D6
330
1F
100
AcDbEntity
  8
0
  6
Continuous
 62
     7
370
    25
100
AcDbLine
 10
3.2246195487
 20
10.0652420057
 30
0.0
 11
3.2246195487
 21
10.078107925
 31
0.0
  0
ARC
  5
D7
330
1F
100
AcDbEntity
  8
0
  6
Continuous
 62
     7
370
    25
100
AcDbCircle
 10
3.4246195487
 20
10.0652420057
 30
0.0
 40
0.2000000000000007
100
AcDbArc
 50
180.0
 51
245.5037209488
  0
ARC
  5
D8
330
1F
100
AcDbEntity
  8
0
  6
Continuous
 62
     7
370
    25
100
AcDbCircle
 10
2.9996195487
 20
9.1325041004
 30
0.0
 40
0.8250000000000015
100
AcDbArc
 50
321.3799117912
 51
65.5037209488
  0
ARC
  5
D9
330
1F
100
AcDbEntity
  8
0
  6
Continuous
 62
     7
370
    25
100
AcDbCircle
 10
14.7812660069
 20
9.6774071007
 30
0.0
 40
0.2000000000000105
100
AcDbArc
 50
277.5970414111
 51
47.182557196
  0
ARC
  5
DA
330
1F
100
AcDbEntity
  8
0
  6
Continuous
 62
     7
370
    25
100
AcDbCircle
 10
15.2570312587
 20
10.1908731904
 30
0.0
 40
0.5000000000000115
100
AcDbArc
 50
200.5192866722
 51
227.182557196
  0
ARC
  5
DB
330
1F
100
AcDbEntity
  8
0
  6
Continuous
 62
     7
370
    25
100
AcDbCircle
 10
14.6014432831
 20
9.9455073282
 30
0.0
 40
0.2000000000000025
100
AcDbArc
 50
20.5192866722
 51
132.4268885053
  0
LINE
  5
DC
330
1F
100
AcDbEntity
  8
0
  6
Continuous
 62
     7
370
    25
100
AcDbLine
 10
14.091960455
 20
9.7507986784
 30
0.0
 11
14.4665135101
 21
10.093135091
 31
0.0
  0
ARC
  5
DD
330
1F
100
AcDbEntity
  8
0
  6
Continuous
 62
     7
370
    25
100
AcDbCircle
 10
14.226890228
 20
9.6031709156
 30
0.0
 40
0.2000000000041565
100
AcDbArc
 50
132.4268885053
 51
277.6599695512
  0
SPLINE
  5
DE
330
1F
100
AcDbEntity
  8
0
  6
Continuous
 62
     7
370
    25
100
AcDbSpline
210
0.0
220
0.0
230
1.0
 70
     8
 71
     3
 72
    11
 73
     7
 74
     0
 42
0.00000001
 43
0.00000001
 40
0.6481961029693138
 40
0.6481961029693138
 40
0.6481961029693138
 40
0.6481961029693138
 40
0.6520988798433948
 40
0.6565556350808772
 40
0.6713345446924556
 40
0.6732859331294959
 40
0.6732859331294959
 40
0.6732859331294959
 40
0.6732859331294959
 10
14.25354898586895
 20
9.404955601799871
 30
0.0
 10
14.2822825918618
 20
9.408820097585547
 30
0.0
 10
14.34382902938911
 20
9.417091708079532
 30
0.0
 10
14.51418694242741
 20
9.439952189824867
 30
0.0
 10
14.67018606832856
 20
9.46081635745504
 30
0.0
 10
14.79334158086921
 20
9.477246619472986
 30
0.0
 10
14.80770704823837
 20
9.479162627062982
 30
0.0
  0
ARC
  5
DF
330
1F
100
AcDbEntity
  8
0
  6
Continuous
 62
     7
370
    25
100
AcDbCircle
 10
18.4477387793
 20
9.9376504067
 30
0.0
 40
0.2000000000000015
100
AcDbArc
 50
268.6299458018
 51
71.377062554
  0
SPLINE
  5
E0
330
1F
100
AcDbEntity
  8
0
  6
Continuous
 62
     7
370
    25
100
AcDbSpline
210
0.0
220
0.0
230
1.0
 70
     8
 71
     3
 72
    14
 73
    10
 74
     0
 42
0.00000001
 43
0.00000001
 40
0.1656411662480757
 40
0.1656411662480757
 40
0.1656411662480757
 40
0.1656411662480757
 40
0.1873399380408777
 40
0.2185632610476907
 40
0.2497865840545037
 40
0.2653982455579101
 40
0.2810099070613166
 40
0.2840212018328168
 40
0.2859726595207425
 40
0.2859726595207425
 40
0.2859726595207425
 40
0.2859726595207425
 10
18.51160652081844
 20
10.12717853543106
 30
0.0
 10
18.35705556864941
 20
10.1792595659845
 30
0.0
 10
17.97818235409045
 20
10.30032075026184
 30
0.0
 10
17.36889946661653
 20
10.46917127486257
 30
0.0
 10
16.79696516570496
 20
10.59944439839901
 30
0.0
 10
16.33684670124332
 20
10.68732880418681
 30
0.0
 10
16.08255537266366
 20
10.72979793655487
 30
0.0
 10
15.93027911196952
 20
10.75304277279793
 30
0.0
 10
15.89356476733372
 20
10.75849280152247
 30
0.0
 10
15.87912725336143
 20
10.76061112532728
 30
0.0
  0
ARC
  5
E1
330
1F
100
AcDbEntity
  8
0
  6
Continuous
 62
     7
370
    25
100
AcDbCircle
 10
15.8500933901
 20
10.5627297599
 30
0.0
 40
0.2000000000000033
100
AcDbArc
 50
81.6529159505
 51
212.0881706695
  0
ARC
  5
E2
330
1F
100
AcDbEntity
  8
0
  6
Continuous
 62
     7
370
    25
100
AcDbCircle
 10
15.2570312587
 20
10.1908731904
 30
0.0
 40
0.4999999999999983
100
AcDbArc
 50
327.7385999223
 51
32.0881706695
  0
ARC
  5
E3
330
1F
100
AcDbEntity
  8
0
  6
Continuous
 62
     7
370
    25
100
AcDbCircle
 10
15.8489664013
 20
9.8172252452
 30
0.0
 40
0.2
100
AcDbArc
 50
147.7385999223
 51
276.7339681569
  0
SPLINE
  5
E4
330
1F
100
AcDbEntity
  8
0
  6
Continuous
 62
     7
370
    25
100
AcDbSpline
210
0.0
220
0.0
230
1.0
 70
     8
 71
     3
 72
    14
 73
    10
 74
     0
 42
0.00000001
 43
0.00000001
 40
0.7212113086263788
 40
0.7212113086263788
 40
0.7212113086263788
 40
0.7212113086263788
 40
0.7231626970634194
 40
0.7268056188143341
 40
0.7346111725624961
 40
0.7502222800588199
 40
0.7814444950514674
 40
0.812666710044115
 40
0.8340247800743906
 40
0.8340247800743906
 40
0.8340247800743906
 40
0.8340247800743906
 10
15.87241830605002
 20
9.618604983952798
 30
0.0
 10
15.88722262056513
 20
9.620352989782026
 30
0.0
 10
15.92965078139022
 20
9.625299312911814
 30
0.0
 10
16.03114699215275
 20
9.636732968179839
 30
0.0
 10
16.2354833304365
 20
9.658304979516753
 30
0.0
 10
16.65010015457489
 20
9.696022121483159
 30
0.0
 10
17.2429221386506
 20
9.732131783143078
 30
0.0
 10
17.88066507063164
 20
9.745957197726572
 30
0.0
 10
18.28059359064636
 20
9.74159074531945
 30
0.0
 10
18.44295684369408
 20
9.737707582109278
 30
0.0
  0
CIRCLE
  5
E5
330
1F
100
AcDbEntity
  8
0
  6
Continuous
 62
     7
370
    25
100
AcDbCircle
 10
2.9996195487
 20
9.1325041004
 30
0.0
 40
0.375
  0
CIRCLE
  5
E6
330
1F
100
AcDbEntity
  8
0
  6
Continuous
 62
     7
370
    25
100
AcDbCircle
 10
9.9996195487
 20
9.1325041004
 30
0.0
 40
0.375
  0
MTEXT
  5
E8
330
1F
100
AcDbEntity
  8
PART_NAMES
100
AcDbMText
 10
7.4146305627
 20
8.8291726632
 30
0.0
 40
0.1666666667
 41
0.0
 71
     1
 72
     1
  1
1.2.1.1.1
  7
SLDTEXTSTYLE0
 73
     1
 44
1.0
  0
ARC
  5
E9
330
1F
100
AcDbEntity
  8
0
  6
Continuous
 62
     7
370
    25
100
AcDbCircle
 10
23.3604312874
 20
7.5930179398
 30
0.0
 40
0.2000000000000002
100
AcDbArc
 50
173.0342477766
 51
212.5172304208
  0
ARC
  5
EA
330
1F
100
AcDbEntity
  8
0
  6
Continuous
 62
     7
370
    25
100
AcDbCircle
 10
22.7701704086
 20
7.2167306892
 30
0.0
 40
0.5000000000000026
100
AcDbArc
 50
318.0898278177
 51
32.5172304208
  0
ARC
  5
EB
330
1F
100
AcDbEntity
  8
0
  6
Continuous
 62
     7
370
    25
100
AcDbCircle
 10
23.2911054868
 20
6.7491554072
 30
0.0
 40
0.2000000000000006
100
AcDbArc
 50
138.0898278177
 51
187.4999561413
  0
LINE
  5
EC
330
1F
100
AcDbEntity
  8
0
  6
Continuous
 62
     7
370
    25
100
AcDbLine
 10
23.1290395891
 20
6.4479069733
 30
0.0
 11
23.0928164945
 21
6.7230503205
 31
0.0
  0
ARC
  5
ED
330
1F
100
AcDbEntity
  8
0
  6
Continuous
 62
     7
370
    25
100
AcDbCircle
 10
22.9307505969
 20
6.4218018866
 30
0.0
 40
0.2000000000000005
100
AcDbArc
 50
277.4999561413
 51
7.4999561413
  0
LINE
  5
EE
330
1F
100
AcDbEntity
  8
0
  6
Continuous
 62
     7
370
    25
100
AcDbLine
 10
22.8577111874
 20
6.2104603511
 30
0.0
 11
22.9568556835
 21
6.2235128944
 31
0.0
  0
LINE
  5
EF
330
1F
100
AcDbEntity
  8
0
  6
Continuous
 62
     7
370
    25
100
AcDbLine
 10
22.8446586441
 20
6.3096048472
 30
0.0
 11
22.8577111874
 21
6.2104603511
 31
0.0
  0
LINE
  5
F0
330
1F
100
AcDbEntity
  8
0
  6
Continuous
 62
     7
370
    25
100
AcDbLine
 10
22.6587627138
 20
6.2851313284
 30
0.0
 11
22.8446586441
 21
6.3096048472
 31
0.0
  0
LINE
  5
F1
330
1F
100
AcDbEntity
  8
0
  6
Continuous
 62
     7
370
    25
100
AcDbLine
 10
22.6832362326
 20
6.0992353982
 30
0.0
 11
22.6587627138
 21
6.2851313284
 31
0.0
  0
SPLINE
  5
F2
330
1F
100
AcDbEntity
  8
0
  6
Continuous
 62
     7
370
    25
100
AcDbSpline
210
0.0
220
0.0
230
1.0
 70
     8
 71
     3
 72
    12
 73
     8
 74
     0
 42
0.00000001
 43
0.00000001
 40
0.6279258258439321
 40
0.6279258258439321
 40
0.6279258258439321
 40
0.6279258258439321
 40
0.6312694223607523
 40
0.6460065237480678
 40
0.6606206841728729
 40
0.6750981874935538
 40
0.6870101740385741
 40
0.6870101740385741
 40
0.6870101740385741
 40
0.6870101740385741
 10
21.37942031529028
 20
5.924460342740829
 30
0.0
 10
21.40401021642029
 20
5.92779071428369
 30
0.0
 10
21.53698277698896
 20
5.945791023323606
 30
0.0
 10
21.77744660856093
 20
5.978244486294705
 30
0.0
 10
22.09982870398678
 20
6.021521958440458
 30
0.0
 10
22.40145735903697
 20
6.061808963490638
 30
0.0
 10
22.59559442550979
 20
6.087649040692461
 30
0.0
 10
22.68323623256183
 20
6.099235398204469
 30
0.0
  0
LINE
  5
F3
330
1F
100
AcDbEntity
  8
0
  6
Continuous
 62
     7
370
    25
100
AcDbLine
 10
21.3288939893
 20
6.2961253646
 30
0.0
 11
21.3794203153
 21
5.9244603427
 31
0.0
  0
LINE
  5
F4
330
1F
100
AcDbEntity
  8
0
  6
Continuous
 62
     7
370
    25
100
AcDbLine
 10
20.9573119258
 20
6.2456103164
 30
0.0
 11
21.3288939893
 21
6.2961253646
 31
0.0
  0
LINE
  5
F5
330
1F
100
AcDbEntity
  8
0
  6
Continuous
 62
     7
370
    25
100
AcDbLine
 10
21.007826974
 20
5.8740282529
 30
0.0
 11
20.9573119258
 21
6.2456103164
 31
0.0
  0
SPLINE
  5
F6
330
1F
100
AcDbEntity
  8
0
  6
Continuous
 62
     7
370
    25
100
AcDbSpline
210
0.0
220
0.0
230
1.0
 70
     8
 71
     3
 72
    14
 73
    10
 74
     0
 42
0.00000001
 43
0.00000001
 40
0.520465470718606
 40
0.520465470718606
 40
0.520465470718606
 40
0.520465470718606
 40
0.5258873344064182
 40
0.5410783139096876
 40
0.5562472332602322
 40
0.571381784352882
 40
0.5864660404483751
 40
0.6014845156991583
 40
0.6110828024492754
 40
0.6110828024492754
 40
0.6110828024492754
 40
0.6110828024492754
 10
19.00875545952464
 20
5.601655522331344
 30
0.0
 10
19.0486295146598
 20
5.607056696344283
 30
0.0
 10
19.20022014525995
 20
5.627609814953762
 30
0.0
 10
19.46334806276086
 20
5.663418484907379
 30
0.0
 10
19.79788654048043
 20
5.709046188311405
 30
0.0
 10
20.13163781783993
 20
5.754584620608632
 30
0.0
 10
20.46427497910019
 20
5.800029621138965
 30
0.0
 10
20.75621795597952
 20
5.839803922937567
 30
0.0
 10
20.93724282756977
 20
5.864432629493959
 30
0.0
 10
21.00782697395655
 20
5.874028252923774
 30
0.0
  0
LINE
  5
F7
330
1F
100
AcDbEntity
  8
0
  6
Continuous
 62
     7
370
    25
100
AcDbLine
 10
18.9836227485
 20
5.7874634792
 30
0.0
 11
19.0087554595
 21
5.6016555223
 31
0.0
  0
LINE
  5
F8
330
1F
100
AcDbEntity
  8
0
  6
Continuous
 62
     7
370
    25
100
AcDbLine
 10
18.7978147916
 20
5.7623307682
 30
0.0
 11
18.9836227485
 21
5.7874634792
 31
0.0
  0
LINE
  5
F9
330
1F
100
AcDbEntity
  8
0
  6
Continuous
 62
     7
370
    25
100
AcDbLine
 10
18.7978147916
 20
5.7623307682
 30
0.0
 11
18.8229475311
 21
5.5765226009
 31
0.0
  0
SPLINE
  5
FA
330
1F
100
AcDbEntity
  8
0
  6
Continuous
 62
     7
370
    25
100
AcDbSpline
210
0.0
220
0.0
230
1.0
 70
     8
 71
     3
 72
    15
 73
    11
 74
     0
 42
0.00000001
 43
0.00000001
 40
0.4170001598971144
 40
0.4170001598971144
 40
0.4170001598971144
 40
0.4170001598971144
 40
0.420174823355266
 40
0.4351095326124219
 40
0.4501242755491032
 40
0.4652030675528332
 40
0.480333153810538
 40
0.4955005832026954
 40
0.5106897747322421
 40
0.5120439593711981
 40
0.5120439593711981
 40
0.5120439593711981
 40
0.5120439593711981
 10
16.72478940282626
 20
5.301657815024047
 30
0.0
 10
16.74816828613291
 20
5.304579014308962
 30
0.0
 10
16.8815249018081
 20
5.321279168236322
 30
0.0
 10
17.12540307159669
 20
5.352194327375337
 30
0.0
 10
17.45684201453152
 20
5.394877453185345
 30
0.0
 10
17.78962833123429
 20
5.438443925861692
 30
0.0
 10
18.12348212477946
 20
5.482583352049763
 30
0.0
 10
18.45808143740301
 20
5.527332084159297
 30
0.0
 10
18.69131621376028
 20
5.558746147722774
 30
0.0
 10
18.81298793578419
 20
5.575177312556008
 30
0.0
 10
18.82294753107876
 20
5.576522600877872
 30
0.0
  0
LINE
  5
FB
330
1F
100
AcDbEntity
  8
0
  6
Continuous
 62
     7
370
    25
100
AcDbLine
 10
16.7016807204
 20
5.4877283361
 30
0.0
 11
16.7247894028
 21
5.301657815
 31
0.0
  0
LINE
  5
FC
330
1F
100
AcDbEntity
  8
0
  6
Continuous
 62
     7
370
    25
100
AcDbLine
 10
16.5156101994
 20
5.4646196536
 30
0.0
 11
16.7016807204
 21
5.4877283361
 31
0.0
  0
LINE
  5
FD
330
1F
100
AcDbEntity
  8
0
  6
Continuous
 62
     7
370
    25
100
AcDbLine
 10
16.5156101994
 20
5.4646196536
 30
0.0
 11
16.5387187506
 21
5.2785501893
 31
0.0
  0
SPLINE
  5
FE
330
1F
100
AcDbEntity
  8
0
  6
Continuous
 62
     7
370
    25
100
AcDbSpline
210
0.0
220
0.0
230
1.0
 70
     8
 71
     3
 72
    15
 73
    11
 74
     0
 42
0.00000001
 43
0.00000001
 40
0.3173008976357805
 40
0.3173008976357805
 40
0.3173008976357805
 40
0.3173008976357805
 40
0.3189806851177335
 40
0.3329854989238258
 40
0.3471627904008333
 40
0.3614986025989408
 40
0.3759807467343043
 40
0.390597192121319
 40
0.4053325934372969
 40
0.4085786502070922
 40
0.4085786502070922
 40
0.4085786502070922
 40
0.4085786502070922
 10
14.5191903817098
 20
5.052021019677798
 30
0.0
 10
14.5315975464361
 20
5.053235965692938
 30
0.0
 10
14.64744271908924
 20
5.064617643629207
 30
0.0
 10
14.86793518853093
 20
5.086945593495988
 30
0.0
 10
15.18172055510894
 20
5.120238197284324
 30
0.0
 10
15.49887616139552
 20
5.155309943898068
 30
0.0
 10
15.81913220552994
 20
5.191973725829262
 30
0.0
 10
16.14219613469261
 20
5.230163209150383
 30
0.0
 10
16.38236028075466
 20
5.259296613862168
 30
0.0
 10
16.51480958441319
 20
5.275599762538256
 30
0.0
 10
16.53871875055656
 20
5.278550189333406
 30
0.0
  0
LINE
  5
FF
330
1F
100
AcDbEntity
  8
0
  6
Continuous
 62
     7
370
    25
100
AcDbLine
 10
14.4851902986
 20
5.4254764981
 30
0.0
 11
14.5191903817
 21
5.0520210197
 31
0.0
  0
LINE
  5
100
330
1F
100
AcDbEntity
  8
0
  6
Continuous
 62
     7
370
    25
100
AcDbLine
 10
14.1117348202
 20
5.391476415
 30
0.0
 11
14.4851902986
 21
5.4254764981
 31
0.0
  0
LINE
  5
101
330
1F
100
AcDbEntity
  8
0
  6
Continuous
 62
     7
370
    25
100
AcDbLine
 10
14.1458528869
 20
5.0167250142
 30
0.0
 11
14.1117348202
 21
5.391476415
 31
0.0
  0
SPLINE
  5
102
330
1F
100
AcDbEntity
  8
0
  6
Continuous
 62
     7
370
    25
100
AcDbSpline
210
0.0
220
0.0
230
1.0
 70
     8
 71
     3
 72
    15
 73
    11
 74
     0
 42
0.00000001
 43
0.00000001
 40
0.2085650349845574
 40
0.2085650349845574
 40
0.2085650349845574
 40
0.2085650349845574
 40
0.2145604781304418
 40
0.2267672493535257
 40
0.239236416912666
 40
0.2519590037406926
 40
0.2649238944848901
 40
0.2781197025559347
 40
0.2915360351420174
 40
0.3004577628980384
 40
0.3004577628980384
 40
0.3004577628980384
 40
0.3004577628980384
 10
12.10459073929676
 20
4.882460187878528
 30
0.0
 10
12.1490598343844
 20
4.88398422516259
 30
0.0
 10
12.28405648148851
 20
4.888959324943186
 30
0.0
 10
12.51146380966647
 20
4.899026920013746
 30
0.0
 10
12.78862604230379
 20
4.913798366441744
 30
0.0
 10
13.0712679310134
 20
4.931274474170171
 30
0.0
 10
13.35914074137627
 20
4.951377790836815
 30
0.0
 10
13.65199452044893
 20
4.973947097930481
 30
0.0
 10
13.91478571362849
 20
4.996006748191926
 30
0.0
 10
14.07991315970006
 20
5.010721738453163
 30
0.0
 10
14.14585288687898
 20
5.016725014170134
 30
0.0
  0
LINE
  5
103
330
1F
100
AcDbEntity
  8
0
  6
Continuous
 62
     7
370
    25
100
AcDbLine
 10
12.0988600134
 20
5.0698767106
 30
0.0
 11
12.1045907393
 21
4.8824601879
 31
0.0
  0
LINE
  5
104
330
1F
100
AcDbEntity
  8
0
  6
Continuous
 62
     7
370
    25
100
AcDbLine
 10
11.9114476066
 20
5.0641461106
 30
0.0
 11
12.0988600134
 21
5.0698767106
 31
0.0
  0
LINE
  5
105
330
1F
100
AcDbEntity
  8
0
  6
Continuous
 62
     7
370
    25
100
AcDbLine
 10
11.9114476066
 20
5.0641461106
 30
0.0
 11
11.917178207
 21
4.8767337038
 31
0.0
  0
LINE
  5
106
330
1F
100
AcDbEntity
  8
0
  6
Continuous
 62
     7
370
    25
100
AcDbLine
 10
9.753036016
 20
5.1400205959
 30
0.0
 11
9.7278621843
 21
4.9542182057
 31
0.0
  0
LINE
  5
107
330
1F
100
AcDbEntity
  8
0
  6
Continuous
 62
     7
370
    25
100
AcDbLine
 10
9.5672336258
 20
5.1651944276
 30
0.0
 11
9.753036016
 21
5.1400205959
 31
0.0
  0
LINE
  5
108
330
1F
100
AcDbEntity
  8
0
  6
Continuous
 62
     7
370
    25
100
AcDbLine
 10
9.5420632183
 20
4.9794173109
 30
0.0
 11
9.5672336258
 21
5.1651944276
 31
0.0
  0
SPLINE
  5
109
330
1F
100
AcDbEntity
  8
0
  6
Continuous
 62
     7
370
    25
100
AcDbSpline
210
0.0
220
0.0
230
1.0
 70
     8
 71
     3
 72
    24
 73
    20
 74
     0
 42
0.00000001
 43
0.00000001
 40
0.0039351208712084
 40
0.0039351208712084
 40
0.0039351208712084
 40
0.0039351208712084
 40
0.0072932311171293
 40
0.011028136413859
 40
0.0149010810980465
 40
0.0189632717700928
 40
0.023258475402986
 40
0.0278206260323165
 40
0.0326790824435221
 40
0.0378531598360054
 40
0.0433618746912805
 40
0.0492146790039221
 40
0.0554223461563205
 40
0.06198878599669
 40
0.0689180360680075
 40
0.0762111572779437
 40
0.0838683921994994
 40
0.091887410882707
 40
0.0932399630117017
 40
0.0932399630117017
 40
0.0932399630117017
 40
0.0932399630117017
 10
7.833759996874597
 20
5.823319126585563
 30
0.0
 10
7.841319466342787
 20
5.799580659356081
 30
0.0
 10
7.861182914186218
 20
5.750593071404364
 30
0.0
 10
7.900482729452266
 20
5.679137371498145
 30
0.0
 10
7.951535441839267
 20
5.608897554553078
 30
0.0
 10
8.012937692102154
 20
5.541827234846758
 30
0.0
 10
8.084553866559862
 20
5.477856651683245
 30
0.0
 10
8.16631373150192
 20
5.417020200338156
 30
0.0
 10
8.258110277895911
 20
5.359345567998048
 30
0.0
 10
8.359810157495193
 20
5.304771530898036
 30
0.0
 10
8.471299059727178
 20
5.253332019054111
 30
0.0
 10
8.592475329133714
 20
5.20504310764307
 30
0.0
 10
8.723206941067533
 20
5.159969346704471
 30
0.0
 10
8.86333407251249
 20
5.11804208988733
 30
0.0
 10
9.012723497659378
 20
5.079363511019307
 30
0.0
 10
9.171205345895704
 20
5.043879549643007
 30
0.0
 10
9.338627187648175
 20
5.011680782592746
 30
0.0
 10
9.463347840204337
 20
4.991189172036163
 30
0.0
 10
9.532132888908759
 20
4.980884658589702
 30
0.0
 10
9.542063218309018
 20
4.979417310892308
 30
0.0
  0
LINE
  5
10A
330
1F
100
AcDbEntity
  8
0
  6
Continuous
 62
     7
370
    25
100
AcDbLine
 10
7.8337599969
 20
5.8233191266
 30
0.0
 11
8.1790111415
 21
5.8233191266
 31
0.0
  0
LINE
  5
10B
330
1F
100
AcDbEntity
  8
0
  6
Continuous
 62
     7
370
    25
100
AcDbLine
 10
8.1790111415
 20
6.1983191266
 30
0.0
 11
8.1790111415
 21
5.8233191266
 31
0.0
  0
LINE
  5
10C
330
1F
100
AcDbEntity
  8
0
  6
Continuous
 62
     7
370
    25
100
AcDbLine
 10
7.8332475195
 20
6.1983191258
 30
0.0
 11
8.1790111415
 21
6.1983191266
 31
0.0
  0
SPLINE
  5
10D
330
1F
100
AcDbEntity
  8
0
  6
Continuous
 62
     7
370
    25
100
AcDbSpline
210
0.0
220
0.0
230
1.0
 70
     8
 71
     3
 72
    21
 73
    17
 74
     0
 42
0.00000001
 43
0.00000001
 40
0.913578602285428
 40
0.913578602285428
 40
0.913578602285428
 40
0.913578602285428
 40
0.9186607344498127
 40
0.9261662532257968
 40
0.9333026258827831
 40
0.9400712202263494
 40
0.9464747799611675
 40
0.9525175260177909
 40
0.9582048188585928
 40
0.9635466521340151
 40
0.9685565999026111
 40
0.9732499128166676
 40
0.9776510407515667
 40
0.9817870430140477
 40
0.9856942262062861
 40
0.9873639225097877
 40
0.9873639225097877
 40
0.9873639225097877
 40
0.9873639225097877
 10
9.092316494735098
 20
7.299193745151912
 30
0.0
 10
9.057094940213828
 20
7.281746155755846
 30
0.0
 10
8.970262442646813
 20
7.237712101998387
 30
0.0
 10
8.835953543191582
 20
7.165334346397924
 30
0.0
 10
8.692858906169684
 20
7.081942994386335
 30
0.0
 10
8.560109187562187
 20
6.997928031630186
 30
0.0
 10
8.43776018067031
 20
6.913502566955744
 30
0.0
 10
8.325980571513892
 20
6.828719591481256
 30
0.0
 10
8.224808758021322
 20
6.743793348494294
 30
0.0
 10
8.134308764777629
 20
6.658853158521704
 30
0.0
 10
8.054609952714763
 20
6.573957533110471
 30
0.0
 10
7.985709453195006
 20
6.489255973860794
 30
0.0
 10
7.927697563023942
 20
6.4048155616489
 30
0.0
 10
7.880584346711034
 20
6.320716197129884
 30
0.0
 10
7.850772164980246
 20
6.251612445126991
 30
0.0
 10
7.837029367181307
 20
6.210675624486432
 30
0.0
 10
7.833247519478661
 20
6.198319125818104
 30
0.0
  0
LINE
  5
10E
330
1F
100
AcDbEntity
  8
0
  6
Continuous
 62
     7
370
    25
100
AcDbLine
 10
9.0923164947
 20
7.2991937452
 30
0.0
 11
9.1731256177
 21
7.1300011459
 31
0.0
  0
LINE
  5
10F
330
1F
100
AcDbEntity
  8
0
  6
Continuous
 62
     7
370
    25
100
AcDbLine
 10
9.1731256177
 20
7.1300011459
 30
0.0
 11
9.3423182171
 21
7.2108102685
 31
0.0
  0
LINE
  5
110
330
1F
100
AcDbEntity
  8
0
  6
Continuous
 62
     7
370
    25
100
AcDbLine
 10
9.3423182171
 20
7.2108102685
 30
0.0
 11
9.2615090943
 21
7.3800028678
 31
0.0
  0
LINE
  5
111
330
1F
100
AcDbEntity
  8
0
  6
Continuous
 62
     7
370
    25
100
AcDbLine
 10
10.4376005762
 20
7.8222619549
 30
0.0
 11
10.5366643847
 21
7.4660080569
 31
0.0
  0
LINE
  5
112
330
1F
100
AcDbEntity
  8
0
  6
Continuous
 62
     7
370
    25
100
AcDbLine
 10
10.5366643847
 20
7.4660080569
 30
0.0
 11
10.8979562862
 21
7.5664727866
 31
0.0
  0
LINE
  5
113
330
1F
100
AcDbEntity
  8
0
  6
Continuous
 62
     7
370
    25
100
AcDbLine
 10
10.8979562862
 20
7.5664727866
 30
0.0
 11
10.7974915561
 21
7.927764688
 31
0.0
  0
SPLINE
  5
114
330
1F
100
AcDbEntity
  8
0
  6
Continuous
 62
     7
370
    25
100
AcDbSpline
210
0.0
220
0.0
230
1.0
 70
     8
 71
     3
 72
    16
 73
    12
 74
     0
 42
0.00000001
 43
0.00000001
 40
0.7462088576025568
 40
0.7462088576025568
 40
0.7462088576025568
 40
0.7462088576025568
 40
0.7521175864591397
 40
0.7647920417814054
 40
0.7772081519207622
 40
0.7893556849316484
 40
0.8012239599679336
 40
0.8128036855342794
 40
0.8240829093538227
 40
0.8350546022887522
 40
0.8351398981997684
 40
0.8351398981997684
 40
0.8351398981997684
 40
0.8351398981997684
 10
12.81507741216641
 20
8.354468644559322
 30
0.0
 10
12.76992310383751
 20
8.347440943014373
 30
0.0
 10
12.62798050782793
 20
8.324892087536849
 30
0.0
 10
12.39158594433317
 20
8.28489923357215
 30
0.0
 10
12.10833677036331
 20
8.232770185099584
 30
0.0
 10
11.83199828133539
 20
8.17770299608038
 30
0.0
 10
11.56287133653186
 20
8.119712033434576
 30
0.0
 10
11.30124082104371
 20
8.058971252740228
 30
0.0
 10
11.04737863711775
 20
7.995586480803226
 30
0.0
 10
10.880517631726
 20
7.950845528121929
 30
0.0
 10
10.79812712107962
 20
7.927941420078925
 30
0.0
 10
10.79749155605446
 20
7.927764688000915
 30
0.0
  0
LINE
  5
115
330
1F
100
AcDbEntity
  8
0
  6
Continuous
 62
     7
370
    25
100
AcDbLine
 10
12.8150774122
 20
8.3544686446
 30
0.0
 11
12.8431213664
 21
8.1690777423
 31
0.0
  0
LINE
  5
116
330
1F
100
AcDbEntity
  8
0
  6
Continuous
 62
     7
370
    25
100
AcDbLine
 10
12.8431213664
 20
8.1690777423
 30
0.0
 11
13.0285122687
 21
8.1971216966
 31
0.0
  0
LINE
  5
117
330
1F
100
AcDbEntity
  8
0
  6
Continuous
 62
     7
370
    25
100
AcDbLine
 10
13.0285122687
 20
8.1971216966
 30
0.0
 11
13.0004683142
 21
8.3825125988
 31
0.0
  0
SPLINE
  5
118
330
1F
100
AcDbEntity
  8
0
  6
Continuous
 62
     7
370
    25
100
AcDbSpline
210
0.0
220
0.0
230
1.0
 70
     8
 71
     3
 72
    14
 73
    10
 74
     0
 42
0.00000001
 43
0.00000001
 40
0.6471977191416923
 40
0.6471977191416923
 40
0.6471977191416923
 40
0.6471977191416923
 40
0.6571860540028671
 40
0.6713255457791549
 40
0.6852940138169578
 40
0.6990781474144603
 40
0.7126650949455656
 40
0.7260426447110092
 40
0.7381275985622745
 40
0.7381275985622745
 40
0.7381275985622745
 40
0.7381275985622745
 10
15.098307981834
 20
8.600893866820117
 30
0.0
 10
15.02122370187547
 20
8.59584785681267
 30
0.0
 10
14.83506531085794
 20
8.582950371369218
 30
0.0
 10
14.54133923810687
 20
8.559763340588276
 30
0.0
 10
14.21866747604606
 20
8.53049007932939
 30
0.0
 10
13.90061133021877
 20
8.497875277677846
 30
0.0
 10
13.58752490595975
 20
8.46183022830446
 30
0.0
 10
13.28795322542167
 20
8.423507683972593
 30
0.0
 10
13.09293992484473
 20
8.39610044742383
 30
0.0
 10
13.00046831420014
 20
8.382512598806652
 30
0.0
  0
LINE
  5
119
330
1F
100
AcDbEntity
  8
0
  6
Continuous
 62
     7
370
    25
100
AcDbLine
 10
15.0983079818
 20
8.6008938668
 30
0.0
 11
15.1099861129
 21
8.4137578969
 31
0.0
  0
LINE
  5
11A
330
1F
100
AcDbEntity
  8
0
  6
Continuous
 62
     7
370
    25
100
AcDbLine
 10
15.1099861129
 20
8.4137578969
 30
0.0
 11
15.2971220828
 21
8.4254360279
 31
0.0
  0
LINE
  5
11B
330
1F
100
AcDbEntity
  8
0
  6
Continuous
 62
     7
370
    25
100
AcDbLine
 10
15.2971220828
 20
8.4254360279
 30
0.0
 11
15.2854439515
 21
8.6125719979
 31
0.0
  0
SPLINE
  5
11C
330
1F
100
AcDbEntity
  8
0
  6
Continuous
 62
     7
370
    25
100
AcDbSpline
210
0.0
220
0.0
230
1.0
 70
     8
 71
     3
 72
    14
 73
    10
 74
     0
 42
0.00000001
 43
0.00000001
 40
0.5511452244250064
 40
0.5511452244250064
 40
0.5511452244250064
 40
0.5511452244250064
 40
0.5545829838309861
 40
0.5695295459998657
 40
0.5844034168402927
 40
0.5991909919021363
 40
0.6138768380252426
 40
0.628447474920468
 40
0.6391164527335579
 40
0.6391164527335579
 40
0.6391164527335579
 40
0.6391164527335579
 10
17.32541132554345
 20
8.67051897127912
 30
0.0
 10
17.29882391933092
 20
8.67052973845588
 30
0.0
 10
17.15664071455448
 20
8.670437696808516
 30
0.0
 10
16.89942629802225
 20
8.668818599863194
 30
0.0
 10
16.5544697436298
 20
8.663368234989202
 30
0.0
 10
16.21159892304427
 20
8.654575047762487
 30
0.0
 10
15.87117734496013
 20
8.64242262647419
 30
0.0
 10
15.56271695924352
 20
8.62825483802792
 30
0.0
 10
15.36781221991706
 20
8.61746221618749
 30
0.0
 10
15.28544395153417
 20
8.61257199785176
 30
0.0
  0
LINE
  5
11D
330
1F
100
AcDbEntity
  8
0
  6
Continuous
 62
     7
370
    25
100
AcDbLine
 10
17.3254113255
 20
8.6705189713
 30
0.0
 11
17.325258714
 21
8.2936742634
 31
0.0
  0
LINE
  5
11E
330
1F
100
AcDbEntity
  8
0
  6
Continuous
 62
     7
370
    25
100
AcDbLine
 10
17.325258714
 20
8.2936742634
 30
0.0
 11
17.7002586833
 21
8.2935223986
 31
0.0
  0
LINE
  5
11F
330
1F
100
AcDbEntity
  8
0
  6
Continuous
 62
     7
370
    25
100
AcDbLine
 10
17.7002586833
 20
8.2935223986
 30
0.0
 11
17.7004105477
 21
8.6685223679
 31
0.0
  0
SPLINE
  5
120
330
1F
100
AcDbEntity
  8
0
  6
Continuous
 62
     7
370
    25
100
AcDbSpline
210
0.0
220
0.0
230
1.0
 70
     8
 71
     3
 72
    15
 73
    11
 74
     0
 42
0.00000001
 43
0.00000001
 40
0.4314156119256059
 40
0.4314156119256059
 40
0.4314156119256059
 40
0.4314156119256059
 40
0.4341867493871219
 40
0.4491772650868069
 40
0.4642147821671246
 40
0.4792840087649619
 40
0.4943697397811477
 40
0.5094578326361675
 40
0.5245323463196893
 40
0.5349824261914548
 40
0.5349824261914548
 40
0.5349824261914548
 40
0.5349824261914548
 10
20.10117913329541
 20
8.574298149057986
 30
0.0
 10
20.0797950255048
 20
8.575726646509938
 30
0.0
 10
19.9427267438132
 20
8.584785648016746
 30
0.0
 10
19.68953666774508
 20
8.600354175558753
 30
0.0
 10
19.34125916361796
 20
8.61909784511764
 30
0.0
 10
18.99210811092636
 20
8.63511450785825
 30
0.0
 10
18.64244685837408
 20
8.64829380529637
 30
0.0
 10
18.29264669666224
 20
8.658556176876942
 30
0.0
 10
17.97861548753986
 20
8.665066420572044
 30
0.0
 10
17.78122655190014
 20
8.667697422918852
 30
0.0
 10
17.70041054770992
 20
8.668522367901815
 30
0.0
  0
LINE
  5
121
330
1F
100
AcDbEntity
  8
0
  6
Continuous
 62
     7
370
    25
100
AcDbLine
 10
20.1011791333
 20
8.5742981491
 30
0.0
 11
20.0882986988
 21
8.3872420848
 31
0.0
  0
LINE
  5
122
330
1F
100
AcDbEntity
  8
0
  6
Continuous
 62
     7
370
    25
100
AcDbLine
 10
20.0882986988
 20
8.3872420848
 30
0.0
 11
20.275355756
 21
8.3743615819
 31
0.0
  0
LINE
  5
123
330
1F
100
AcDbEntity
  8
0
  6
Continuous
 62
     7
370
    25
100
AcDbLine
 10
22.7569765821
 20
8.3227540225
 30
0.0
 11
22.7342373249
 21
8.1366379937
 31
0.0
  0
LINE
  5
124
330
1F
100
AcDbEntity
  8
0
  6
Continuous
 62
     7
370
    25
100
AcDbLine
 10
22.7342373249
 20
8.1366379937
 30
0.0
 11
22.9203533537
 21
8.1138987361
 31
0.0
  0
LINE
  5
125
330
1F
100
AcDbEntity
  8
0
  6
Continuous
 62
     7
370
    25
100
AcDbLine
 10
22.9203533537
 20
8.1138987361
 30
0.0
 11
22.943054339
 21
8.2997015142
 31
0.0
  0
SPLINE
  5
126
330
1F
100
AcDbEntity
  8
0
  6
Continuous
 62
     7
370
    25
100
AcDbSpline
210
0.0
220
0.0
230
1.0
 70
     8
 71
     3
 72
     8
 73
     4
 74
     0
 42
0.00000001
 43
0.00000001
 40
0.3039978368786453
 40
0.3039978368786453
 40
0.3039978368786453
 40
0.3039978368786453
 40
0.3083424724649536
 40
0.3083424724649536
 40
0.3083424724649536
 40
0.3083424724649536
 10
23.04306982767068
 20
8.287117350815985
 30
0.0
 10
23.00973287254385
 20
8.291326372299842
 30
0.0
 10
22.97639474956002
 20
8.295523869638176
 30
0.0
 10
22.94305433897765
 20
8.299701514162434
 30
0.0
  0
ARC
  5
127
330
1F
100
AcDbEntity
  8
0
  6
Continuous
 62
     7
370
    25
100
AcDbCircle
 10
23.0180173315
 20
8.0886926234
 30
0.0
 40
0.2000000000000036
100
AcDbArc
 50
353.0342477766
 51
82.8040860347
  0
LINE
  5
128
330
1F
100
AcDbEntity
  8
0
  6
Continuous
 62
     7
370
    25
100
AcDbLine
 10
23.2165410955
 20
8.0644374153
 30
0.0
 11
23.1619075234
 21
7.6172731479
 31
0.0
  0
ARC
  5
129
330
1F
100
AcDbEntity
  8
0
  6
Continuous
 62
     7
370
    25
100
AcDbCircle
 10
20.5073313748
 20
6.4618948682
 30
0.0
 40
0.2000000000000735
100
AcDbArc
 50
277.7611357549
 51
61.1174148316
  0
LINE
  5
12A
330
1F
100
AcDbEntity
  8
0
  6
Continuous
 62
     7
370
    25
100
AcDbLine
 10
18.034361952
 20
8.0544786252
 30
0.0
 11
20.6039346282
 21
6.6370171438
 31
0.0
  0
ARC
  5
12B
330
1F
100
AcDbEntity
  8
0
  6
Continuous
 62
     7
370
    25
100
AcDbCircle
 10
17.9377586986
 20
7.8793563495
 30
0.0
 40
0.1999999999999998
100
AcDbArc
 50
61.1174148316
 51
180.0
  0
LINE
  5
12C
330
1F
100
AcDbEntity
  8
0
  6
Continuous
 62
     7
370
    25
100
AcDbLine
 10
17.7377586986
 20
7.0910995045
 30
0.0
 11
17.7377586986
 21
7.8793563495
 31
0.0
  0
ARC
  5
12D
330
1F
100
AcDbEntity
  8
0
  6
Continuous
 62
     7
370
    25
100
AcDbCircle
 10
17.9377586986
 20
7.0910995045
 30
0.0
 40
0.2000000000000012
100
AcDbArc
 50
180.0
 51
245.5037209488
  0
ARC
  5
12E
330
1F
100
AcDbEntity
  8
0
  6
Continuous
 62
     7
370
    25
100
AcDbCircle
 10
17.5127586986
 20
6.1583615992
 30
0.0
 40
0.8249999999999992
100
AcDbArc
 50
1.9846926466
 51
65.5037209488
  0
ARC
  5
12F
330
1F
100
AcDbEntity
  8
0
  6
Continuous
 62
     7
370
    25
100
AcDbCircle
 10
18.5371438167
 20
6.193859906
 30
0.0
 40
0.2000000000000015
100
AcDbArc
 50
181.9846926466
 51
277.6674048107
  0
SPLINE
  5
130
330
1F
100
AcDbEntity
  8
0
  6
Continuous
 62
     7
370
    25
100
AcDbSpline
210
0.0
220
0.0
230
1.0
 70
     8
 71
     3
 72
    10
 73
     6
 74
     0
 42
0.00000001
 43
0.00000001
 40
0.503022154008895
 40
0.503022154008895
 40
0.503022154008895
 40
0.503022154008895
 40
0.5628889901029348
 40
0.5855934403744916
 40
0.5923747703660249
 40
0.5923747703660249
 40
0.5923747703660249
 40
0.5923747703660249
 10
18.56382829674218
 20
5.995648053396192
 30
0.0
 10
19.00363793894957
 20
6.054857890972714
 30
0.0
 10
19.61053554670854
 20
6.137618302127755
 30
0.0
 10
20.26754216265649
 20
6.227352328931734
 30
0.0
 10
20.48445252275498
 20
6.256927660396334
 30
0.0
 10
20.53434007641762
 20
6.263726934245629
 30
0.0
  0
ARC
  5
131
330
1F
100
AcDbEntity
  8
0
  6
Continuous
 62
     7
370
    25
100
AcDbCircle
 10
22.2944051569
 20
6.7032645995
 30
0.0
 40
0.2000000000000099
100
AcDbArc
 50
277.5970414111
 51
47.182557196
  0
ARC
  5
132
330
1F
100
AcDbEntity
  8
0
  6
Continuous
 62
     7
370
    25
100
AcDbCircle
 10
22.7701704086
 20
7.2167306892
 30
0.0
 40
0.5000000000000103
100
AcDbArc
 50
200.5192866722
 51
227.182557196
  0
ARC
  5
133
330
1F
100
AcDbEntity
  8
0
  6
Continuous
 62
     7
370
    25
100
AcDbCircle
 10
22.1145824331
 20
6.971364827
 30
0.0
 40
0.2000000000000011
100
AcDbArc
 50
20.5192866722
 51
132.4268885053
  0
LINE
  5
134
330
1F
100
AcDbEntity
  8
0
  6
Continuous
 62
     7
370
    25
100
AcDbLine
 10
21.6050996049
 20
6.7766561772
 30
0.0
 11
21.97965266
 21
7.1189925898
 31
0.0
  0
ARC
  5
135
330
1F
100
AcDbEntity
  8
0
  6
Continuous
 62
     7
370
    25
100
AcDbCircle
 10
21.740029378
 20
6.6290284144
 30
0.0
 40
0.2000000000041554
100
AcDbArc
 50
132.4268885053
 51
277.6599695512
  0
SPLINE
  5
136
330
1F
100
AcDbEntity
  8
0
  6
Continuous
 62
     7
370
    25
100
AcDbSpline
210
0.0
220
0.0
230
1.0
 70
     8
 71
     3
 72
    11
 73
     7
 74
     0
 42
0.00000001
 43
0.00000001
 40
0.6481961029693138
 40
0.6481961029693138
 40
0.6481961029693138
 40
0.6481961029693138
 40
0.6520988798433948
 40
0.6565556350808772
 40
0.6713345446924556
 40
0.6732859331294959
 40
0.6732859331294959
 40
0.6732859331294959
 40
0.6732859331294959
 10
21.76668813582683
 20
6.430813100606555
 30
0.0
 10
21.79542174181968
 20
6.43467759639223
 30
0.0
 10
21.85696817934699
 20
6.442949206886214
 30
0.0
 10
22.02732609238529
 20
6.46580968863155
 30
0.0
 10
22.18332521828643
 20
6.486673856261723
 30
0.0
 10
22.30648073082709
 20
6.503104118279669
 30
0.0
 10
22.32084619819625
 20
6.505020125869665
 30
0.0
  0
ARC
  5
137
330
1F
100
AcDbEntity
  8
0
  6
Continuous
 62
     7
370
    25
100
AcDbCircle
 10
19.5579989389
 20
7.9563284051
 30
0.0
 40
0.2000000000000007
100
AcDbArc
 50
86.8207118578
 51
241.1174148316
  0
LINE
  5
138
330
1F
100
AcDbEntity
  8
0
  6
Continuous
 62
     7
370
    25
100
AcDbLine
 10
19.4613956856
 20
7.7812061294
 30
0.0
 11
20.9420672815
 21
6.9644185861
 31
0.0
  0
ARC
  5
139
330
1F
100
AcDbEntity
  8
0
  6
Continuous
 62
     7
370
    25
100
AcDbCircle
 10
21.0386705348
 20
7.1395408618
 30
0.0
 40
0.2000000000000018
100
AcDbArc
 50
241.1174148316
 51
312.4268885054
  0
LINE
  5
13A
330
1F
100
AcDbEntity
  8
0
  6
Continuous
 62
     7
370
    25
100
AcDbLine
 10
21.1736003079
 20
6.991913099
 30
0.0
 11
21.8772070449
 21
7.6350001142
 31
0.0
  0
ARC
  5
13B
330
1F
100
AcDbEntity
  8
0
  6
Continuous
 62
     7
370
    25
100
AcDbCircle
 10
21.7422772718
 20
7.782627877
 30
0.0
 40
0.2000000000000006
100
AcDbArc
 50
312.4268885054
 51
84.1345272799
  0
SPLINE
  5
13C
330
1F
100
AcDbEntity
  8
0
  6
Continuous
 62
     7
370
    25
100
AcDbSpline
210
0.0
220
0.0
230
1.0
 70
     8
 71
     3
 72
    11
 73
     7
 74
     0
 42
0.00000001
 43
0.00000001
 40
0.3575494110876469
 40
0.3575494110876469
 40
0.3575494110876469
 40
0.3575494110876469
 40
0.3746798760817555
 40
0.4059031990885684
 40
0.4371265220953814
 40
0.4533143653489231
 40
0.4533143653489231
 40
0.4533143653489231
 40
0.4533143653489231
 10
21.76271589097005
 20
7.981580793117316
 30
0.0
 10
21.63212798715923
 20
7.994996210590394
 30
0.0
 10
21.26346773943019
 20
8.031403444377016
 30
0.0
 10
20.65596737864084
 20
8.084330381000928
 30
0.0
 10
20.05522626498094
 20
8.127488996445672
 30
0.0
 10
19.69283795793993
 20
8.149146926867191
 30
0.0
 10
19.569091053917
 20
8.156020580697888
 30
0.0
  0
LINE
  5
13D
330
1F
100
AcDbEntity
  8
0
  6
Continuous
 62
     7
370
    25
100
AcDbLine
 10
15.9190086986
 20
6.5333615992
 30
0.0
 11
15.9190086986
 21
6.2833615992
 31
0.0
  0
LINE
  5
13E
330
1F
100
AcDbEntity
  8
0
  6
Continuous
 62
     7
370
    25
100
AcDbLine
 10
13.9190086986
 20
6.5333615992
 30
0.0
 11
15.9190086986
 21
6.5333615992
 31
0.0
  0
LINE
  5
13F
330
1F
100
AcDbEntity
  8
0
  6
Continuous
 62
     7
370
    25
100
AcDbLine
 10
13.9190086986
 20
6.5333615992
 30
0.0
 11
13.9190086986
 21
6.2833615992
 31
0.0
  0
LINE
  5
140
330
1F
100
AcDbEntity
  8
0
  6
Continuous
 62
     7
370
    25
100
AcDbLine
 10
13.9190086986
 20
6.2833615992
 30
0.0
 11
15.9190086986
 21
6.2833615992
 31
0.0
  0
ARC
  5
141
330
1F
100
AcDbEntity
  8
0
  6
Continuous
 62
     7
370
    25
100
AcDbCircle
 10
9.6392204991
 20
5.6221191036
 30
0.0
 40
0.2000000000000015
100
AcDbArc
 50
261.6125656441
 51
31.5446870278
  0
ARC
  5
142
330
1F
100
AcDbEntity
  8
0
  6
Continuous
 62
     7
370
    25
100
AcDbCircle
 10
10.5127586986
 20
6.1583615992
 30
0.0
 40
0.8250000000000007
100
AcDbArc
 50
114.4962790512
 51
211.5446870278
  0
ARC
  5
143
330
1F
100
AcDbEntity
  8
0
  6
Continuous
 62
     7
370
    25
100
AcDbCircle
 10
10.0877586986
 20
7.0910995045
 30
0.0
 40
0.1999999999999998
100
AcDbArc
 50
294.4962790512
 51
349.0852697611
  0
ARC
  5
144
330
1F
100
AcDbEntity
  8
0
  6
Continuous
 62
     7
370
    25
100
AcDbCircle
 10
10.0877586986
 20
7.0153603486
 30
0.0
 40
0.2
100
AcDbArc
 50
10.9147302389
 51
111.3381887662
  0
SPLINE
  5
145
330
1F
100
AcDbEntity
  8
0
  6
Continuous
 62
     7
370
    25
100
AcDbSpline
210
0.0
220
0.0
230
1.0
 70
     8
 71
     3
 72
     8
 73
     4
 74
     0
 42
0.00000001
 43
0.00000001
 40
0.0587970678286712
 40
0.0587970678286712
 40
0.0587970678286712
 40
0.0587970678286712
 40
1.0
 40
1.0
 40
1.0
 40
1.0
 10
10.01498427057029
 20
7.20165012993992
 30
0.0
 10
8.59277866458828
 20
6.646063028850462
 30
0.0
 10
7.747774981714199
 20
5.698837372096222
 30
0.0
 10
9.61004728596315
 20
5.424258234249717
 30
0.0
  0
ARC
  5
146
330
1F
100
AcDbEntity
  8
0
  6
Continuous
 62
     7
370
    25
100
AcDbCircle
 10
13.3190086986
 20
5.6005335303
 30
0.0
 40
0.2000000000000005
100
AcDbArc
 50
274.2108291377
 51
0.0
  0
LINE
  5
147
330
1F
100
AcDbEntity
  8
0
  6
Continuous
 62
     7
370
    25
100
AcDbLine
 10
13.5190086986
 20
5.6005335303
 30
0.0
 11
13.5190086986
 21
5.7903889744
 31
0.0
  0
ARC
  5
148
330
1F
100
AcDbEntity
  8
0
  6
Continuous
 62
     7
370
    25
100
AcDbCircle
 10
13.3190086986
 20
5.7903889744
 30
0.0
 40
0.2000000000000001
100
AcDbArc
 50
0.0
 51
61.1174148316
  0
LINE
  5
149
330
1F
100
AcDbEntity
  8
0
  6
Continuous
 62
     7
370
    25
100
AcDbLine
 10
11.034361952
 20
7.2790876995
 30
0.0
 11
13.415611952
 21
5.9655112501
 31
0.0
  0
ARC
  5
14A
330
1F
100
AcDbEntity
  8
0
  6
Continuous
 62
     7
370
    25
100
AcDbCircle
 10
10.9377586986
 20
7.1039654238
 30
0.0
 40
0.1999999999999993
100
AcDbArc
 50
61.1174148316
 51
180.0
  0
LINE
  5
14B
330
1F
100
AcDbEntity
  8
0
  6
Continuous
 62
     7
370
    25
100
AcDbLine
 10
10.7377586986
 20
7.0910995045
 30
0.0
 11
10.7377586986
 21
7.1039654238
 31
0.0
  0
ARC
  5
14C
330
1F
100
AcDbEntity
  8
0
  6
Continuous
 62
     7
370
    25
100
AcDbCircle
 10
10.9377586986
 20
7.0910995045
 30
0.0
 40
0.2000000000000013
100
AcDbArc
 50
180.0
 51
245.5037209488
  0
ARC
  5
14D
330
1F
100
AcDbEntity
  8
0
  6
Continuous
 62
     7
370
    25
100
AcDbCircle
 10
10.5127586986
 20
6.1583615992
 30
0.0
 40
0.8250000000000007
100
AcDbArc
 50
321.3799117912
 51
65.5037209488
  0
ARC
  5
14E
330
1F
100
AcDbEntity
  8
0
  6
Continuous
 62
     7
370
    25
100
AcDbCircle
 10
11.3135929297
 20
5.5186041964
 30
0.0
 40
0.2000000000000012
100
AcDbArc
 50
141.3799117912
 51
269.9405706167
  0
SPLINE
  5
14F
330
1F
100
AcDbEntity
  8
0
  6
Continuous
 62
     7
370
    25
100
AcDbSpline
210
0.0
220
0.0
230
1.0
 70
     8
 71
     3
 72
    12
 73
     8
 74
     0
 42
0.00000001
 43
0.00000001
 40
0.1730002194696571
 40
0.1730002194696571
 40
0.1730002194696571
 40
0.1730002194696571
 40
0.1808057732178189
 40
0.1886113269659808
 40
0.219444625183812
 40
0.2506668401764595
 40
0.2653438797721265
 40
0.2653438797721265
 40
0.2653438797721265
 40
0.2653438797721265
 10
11.31338548205045
 20
5.318604304031541
 30
0.0
 10
11.36996340806877
 20
5.318545619212423
 30
0.0
 10
11.4832113685046
 20
5.318938261194773
 30
0.0
 10
11.82062862289387
 20
5.32296456553874
 30
0.0
 10
12.32974268142704
 20
5.338803193400172
 30
0.0
 10
12.89047739999585
 20
5.36981650229142
 30
0.0
 10
13.22628549626124
 20
5.393165406283617
 30
0.0
 10
13.33369403710169
 20
5.401073406889333
 30
0.0
  0
LINE
  5
150
330
1F
100
AcDbEntity
  8
0
  6
Continuous
 62
     7
370
    25
100
AcDbLine
 10
17.2877586986
 20
7.7667663929
 30
0.0
 11
17.2877586986
 21
7.1333615992
 31
0.0
  0
ARC
  5
151
330
1F
100
AcDbEntity
  8
0
  6
Continuous
 62
     7
370
    25
100
AcDbCircle
 10
17.0877586986
 20
7.7667663929
 30
0.0
 40
0.1999999999999993
100
AcDbArc
 50
0.0
 51
132.4268885054
  0
LINE
  5
152
330
1F
100
AcDbEntity
  8
0
  6
Continuous
 62
     7
370
    25
100
AcDbLine
 10
16.2598155859
 20
7.280989362
 30
0.0
 11
16.9528289256
 21
7.9143941557
 31
0.0
  0
ARC
  5
153
330
1F
100
AcDbEntity
  8
0
  6
Continuous
 62
     7
370
    25
100
AcDbCircle
 10
16.394745359
 20
7.1333615992
 30
0.0
 40
0.2000000000000002
100
AcDbArc
 50
132.4268885054
 51
270.0
  0
LINE
  5
154
330
1F
100
AcDbEntity
  8
0
  6
Continuous
 62
     7
370
    25
100
AcDbLine
 10
16.394745359
 20
6.9333615992
 30
0.0
 11
17.0877586986
 21
6.9333615992
 31
0.0
  0
ARC
  5
155
330
1F
100
AcDbEntity
  8
0
  6
Continuous
 62
     7
370
    25
100
AcDbCircle
 10
17.0877586986
 20
7.1333615992
 30
0.0
 40
0.2000000000000002
100
AcDbArc
 50
270.0
 51
0.0
  0
ARC
  5
156
330
1F
100
AcDbEntity
  8
0
  6
Continuous
 62
     7
370
    25
100
AcDbCircle
 10
15.1348306925
 20
7.1333615992
 30
0.0
 40
0.2000000000000002
100
AcDbArc
 50
270.0
 51
312.4268885054
  0
LINE
  5
157
330
1F
100
AcDbEntity
  8
0
  6
Continuous
 62
     7
370
    25
100
AcDbLine
 10
15.2697604655
 20
6.9857338364
 30
0.0
 11
16.2173119414
 21
7.8517830345
 31
0.0
  0
ARC
  5
158
330
1F
100
AcDbEntity
  8
0
  6
Continuous
 62
     7
370
    25
100
AcDbCircle
 10
16.0823821684
 20
7.9994107973
 30
0.0
 40
0.2000000000000006
100
AcDbArc
 50
312.4268885054
 51
92.0132512402
  0
SPLINE
  5
159
330
1F
100
AcDbEntity
  8
0
  6
Continuous
 62
     7
370
    25
100
AcDbSpline
210
0.0
220
0.0
230
1.0
 70
     8
 71
     3
 72
    12
 73
     8
 74
     0
 42
0.00000001
 43
0.00000001
 40
0.6057153507230046
 40
0.6057153507230046
 40
0.6057153507230046
 40
0.6057153507230046
 40
0.6244664601362591
 40
0.686913106149885
 40
0.7493597521635109
 40
0.7805830751703239
 40
0.7911832058696918
 40
0.7911832058696918
 40
0.7911832058696918
 40
0.7911832058696918
 10
16.07535604186248
 20
8.199287343093701
 30
0.0
 10
15.93237069346366
 20
8.194261074774207
 30
0.0
 10
15.31351652683053
 20
8.168478384724638
 30
0.0
 10
14.22186212767285
 20
8.090800874250617
 30
0.0
 10
13.04528006482563
 20
7.943549035404406
 30
0.0
 10
12.26844989037978
 20
7.806614613083871
 30
0.0
 10
11.95917693352611
 20
7.743902623665778
 30
0.0
 10
11.88095903500774
 20
7.727482986420124
 30
0.0
  0
ARC
  5
15A
330
1F
100
AcDbEntity
  8
0
  6
Continuous
 62
     7
370
    25
100
AcDbCircle
 10
11.9220478104
 20
7.5317492067
 30
0.0
 40
0.2000000000000014
100
AcDbArc
 50
101.855484399
 51
241.1174148316
  0
LINE
  5
15B
330
1F
100
AcDbEntity
  8
0
  6
Continuous
 62
     7
370
    25
100
AcDbLine
 10
11.825444557
 20
7.356626931
 30
0.0
 11
13.2224054453
 21
6.5860169893
 31
0.0
  0
ARC
  5
15C
330
1F
100
AcDbEntity
  8
0
  6
Continuous
 62
     7
370
    25
100
AcDbCircle
 10
13.3190086986
 20
6.761139265
 30
0.0
 40
0.2000000000000025
100
AcDbArc
 50
241.1174148316
 51
356.0179374983
  0
ARC
  5
15D
330
1F
100
AcDbEntity
  8
0
  6
Continuous
 62
     7
370
    25
100
AcDbCircle
 10
13.7180430346
 20
6.7333615992
 30
0.0
 40
0.2000000000000005
100
AcDbArc
 50
90.0
 51
176.0179374983
  0
LINE
  5
15E
330
1F
100
AcDbEntity
  8
0
  6
Continuous
 62
     7
370
    25
100
AcDbLine
 10
13.7180430346
 20
6.9333615992
 30
0.0
 11
15.1348306925
 21
6.9333615992
 31
0.0
  0
CIRCLE
  5
15F
330
1F
100
AcDbEntity
  8
0
  6
Continuous
 62
     7
370
    25
100
AcDbCircle
 10
10.5127586986
 20
6.1583615992
 30
0.0
 40
0.375
  0
CIRCLE
  5
160
330
1F
100
AcDbEntity
  8
0
  6
Continuous
 62
     7
370
    25
100
AcDbCircle
 10
17.5127586986
 20
6.1583615992
 30
0.0
 40
0.375
  0
CIRCLE
  5
161
330
1F
100
AcDbEntity
  8
0
  6
Continuous
 62
     7
370
    25
100
AcDbCircle
 10
22.7701704086
 20
7.2167306892
 30
0.0
 40
0.2500000000000036
  0
SPLINE
  5
162
330
1F
100
AcDbEntity
  8
0
  6
Continuous
 62
     7
370
    25
100
AcDbSpline
210
0.0
220
0.0
230
1.0
 70
     8
 71
     3
 72
    14
 73
    10
 74
     0
 42
0.00000001
 43
0.00000001
 40
0.8513043678676254
 40
0.8513043678676254
 40
0.8513043678676254
 40
0.8513043678676254
 40
0.8560378532405389
 40
0.8660338344886196
 40
0.8756888427883988
 40
0.8849977189913464
 40
0.8939534257020234
 40
0.9025528972589622
 40
0.9054973013061784
 40
0.9054973013061784
 40
0.9054973013061784
 40
0.9054973013061784
 10
10.43760057623165
 20
7.822261954885684
 30
0.0
 10
10.40262334529966
 20
7.811454297577495
 30
0.0
 10
10.29393258012619
 20
7.7773385697689
 30
0.0
 10
10.11482487065169
 20
7.718259021154939
 30
0.0
 10
9.903586518776118
 20
7.643762186301598
 30
0.0
 10
9.701571649853628
 20
7.56745621670871
 30
0.0
 10
9.508935013150936
 20
7.48957618899708
 30
0.0
 10
9.363458068380051
 20
7.426509474339275
 30
0.0
 10
9.282191315791515
 20
7.389533445081545
 30
0.0
 10
9.2615090943019
 20
7.380002867807939
 30
0.0
  0
SPLINE
  5
163
330
1F
100
AcDbEntity
  8
0
  6
Continuous
 62
     7
370
    25
100
AcDbSpline
210
0.0
220
0.0
230
1.0
 70
     8
 71
     3
 72
    17
 73
    13
 74
     0
 42
0.00000001
 43
0.00000001
 40
0.1016614720720251
 40
0.1016614720720251
 40
0.1016614720720251
 40
0.1016614720720251
 40
0.1089998674022309
 40
0.118084529462581
 40
0.127514842657726
 40
0.1372852704325623
 40
0.1473879174712405
 40
0.1578164805284356
 40
0.1685634728403947
 40
0.1796191282126914
 40
0.1909773731687989
 40
0.2001435402442482
 40
0.2001435402442482
 40
0.2001435402442482
 40
0.2001435402442482
 10
9.727862184255896
 20
4.954218205681133
 30
0.0
 10
9.781910552610695
 20
4.947512438811207
 30
0.0
 10
9.9030107091145
 20
4.933652404402024
 30
0.0
 10
10.09403356308567
 20
4.915506605115787
 30
0.0
 10
10.30336406269998
 20
4.899639839071345
 30
0.0
 10
10.52048218948843
 20
4.887021086301827
 30
0.0
 10
10.74517719078405
 20
4.877610334003204
 30
0.0
 10
10.9772338324463
 20
4.871443356713141
 30
0.0
 10
11.21642484147936
 20
4.868424011496149
 30
0.0
 10
11.46253405616767
 20
4.868506969926503
 30
0.0
 10
11.69689105867308
 20
4.871480578205961
 30
0.0
 10
11.8491757864936
 20
4.874914229484329
 30
0.0
 10
11.91717820700886
 20
4.876733703838243
 30
0.0
  0
SPLINE
  5
164
330
1F
100
AcDbEntity
  8
0
  6
Continuous
 62
     7
370
    25
100
AcDbSpline
210
0.0
220
0.0
230
1.0
 70
     8
 71
     3
 72
    16
 73
    12
 74
     0
 42
0.00000001
 43
0.00000001
 40
0.3164238124056181
 40
0.3164238124056181
 40
0.3164238124056181
 40
0.3164238124056181
 40
0.3176892265558903
 40
0.331784111124987
 40
0.346039676653823
 40
0.3604438694916348
 40
0.3749827204038077
 40
0.3896404543545233
 40
0.4044033165867775
 40
0.4192566006634758
 40
0.4233343287137741
 40
0.4233343287137741
 40
0.4233343287137741
 40
0.4233343287137741
 10
22.75697658213489
 20
8.322754022522867
 30
0.0
 10
22.74726228093806
 20
8.323940895029063
 30
0.0
 10
22.62934020537552
 20
8.338311415979163
 30
0.0
 10
22.40186398079148
 20
8.36510863999237
 30
0.0
 10
22.07323639776786
 20
8.401734134292026
 30
0.0
 10
21.74095695427242
 20
8.43653327045562
 30
0.0
 10
21.40535524479903
 20
8.46939723108449
 30
0.0
 10
21.06677101710271
 20
8.500184179391246
 30
0.0
 10
20.72555612251809
 20
8.528803830486302
 30
0.0
 10
20.46572835739924
 20
8.548689167683946
 30
0.0
 10
20.31969417680576
 20
8.559188772416247
 30
0.0
 10
20.28823625848247
 20
8.561418639112306
 30
0.0
  0
LINE
  5
165
330
1F
100
AcDbEntity
  8
0
  6
Continuous
 62
     7
370
    25
100
AcDbLine
 10
20.275355756
 20
8.3743615819
 30
0.0
 11
20.2882362585
 21
8.5614186391
 31
0.0
  0
MTEXT
  5
166
330
1F
100
AcDbEntity
  8
PART_NAMES
100
AcDbMText
 10
15.0283830616
 20
5.8873916901
 30
0.0
 40
0.1666666667
 41
0.0
 71
     1
 72
     1
  1
1.2.1.1.2
  7
SLDTEXTSTYLE0
 73
     1
 44
1.0
  0
ARC
  5
167
330
1F
100
AcDbEntity
  8
0
  6
Continuous
 62
     7
370
    25
100
AcDbCircle
 10
7.9771710896
 20
2.316076852
 30
0.0
 40
0.2000000000000003
100
AcDbArc
 50
353.0342477766
 51
32.5172304208
  0
ARC
  5
168
330
1F
100
AcDbEntity
  8
0
  6
Continuous
 62
     7
370
    25
100
AcDbCircle
 10
8.5674319684
 20
2.6923641026
 30
0.0
 40
0.5000000000000002
100
AcDbArc
 50
138.0898278177
 51
212.5172304208
  0
ARC
  5
169
330
1F
100
AcDbEntity
  8
0
  6
Continuous
 62
     7
370
    25
100
AcDbCircle
 10
8.0464968902
 20
3.1599393846
 30
0.0
 40
0.2000000000000005
100
AcDbArc
 50
318.0898278177
 51
7.4999561413
  0
LINE
  5
16A
330
1F
100
AcDbEntity
  8
0
  6
Continuous
 62
     7
370
    25
100
AcDbLine
 10
8.2085627879
 20
3.4611878185
 30
0.0
 11
8.2447858825
 21
3.1860444713
 31
0.0
  0
ARC
  5
16B
330
1F
100
AcDbEntity
  8
0
  6
Continuous
 62
     7
370
    25
100
AcDbCircle
 10
8.4068517802
 20
3.4872929052
 30
0.0
 40
0.1999999999999995
100
AcDbArc
 50
97.4999561413
 51
187.4999561413
  0
LINE
  5
16C
330
1F
100
AcDbEntity
  8
0
  6
Continuous
 62
     7
370
    25
100
AcDbLine
 10
8.4798911896
 20
3.6986344407
 30
0.0
 11
8.3807466935
 21
3.6855818974
 31
0.0
  0
LINE
  5
16D
330
1F
100
AcDbEntity
  8
0
  6
Continuous
 62
     7
370
    25
100
AcDbLine
 10
8.492943733
 20
3.5994899446
 30
0.0
 11
8.4798911896
 21
3.6986344407
 31
0.0
  0
LINE
  5
16E
330
1F
100
AcDbEntity
  8
0
  6
Continuous
 62
     7
370
    25
100
AcDbLine
 10
8.6788396632
 20
3.6239634634
 30
0.0
 11
8.492943733
 21
3.5994899446
 31
0.0
  0
LINE
  5
16F
330
1F
100
AcDbEntity
  8
0
  6
Continuous
 62
     7
370
    25
100
AcDbLine
 10
8.6543661445
 20
3.8098593936
 30
0.0
 11
8.6788396632
 21
3.6239634634
 31
0.0
  0
SPLINE
  5
170
330
1F
100
AcDbEntity
  8
0
  6
Continuous
 62
     7
370
    25
100
AcDbSpline
210
0.0
220
0.0
230
1.0
 70
     8
 71
     3
 72
    12
 73
     8
 74
     0
 42
0.00000001
 43
0.00000001
 40
0.6279258258439321
 40
0.6279258258439321
 40
0.6279258258439321
 40
0.6279258258439321
 40
0.6312694223607523
 40
0.6460065237480678
 40
0.6606206841728729
 40
0.6750981874935538
 40
0.6870101740385741
 40
0.6870101740385741
 40
0.6870101740385741
 40
0.6870101740385741
 10
9.9581820617325
 20
3.984634449061822
 30
0.0
 10
9.933592160602487
 20
3.981304077518961
 30
0.0
 10
9.800619600033817
 20
3.963303768479045
 30
0.0
 10
9.560155768461849
 20
3.930850305507946
 30
0.0
 10
9.237773673035994
 20
3.887572833362193
 30
0.0
 10
8.936145017985814
 20
3.847285828312013
 30
0.0
 10
8.742007951512983
 20
3.82144575111019
 30
0.0
 10
8.65436614446095
 20
3.809859393598182
 30
0.0
  0
LINE
  5
171
330
1F
100
AcDbEntity
  8
0
  6
Continuous
 62
     7
370
    25
100
AcDbLine
 10
10.0087083877
 20
3.6129694272
 30
0.0
 11
9.9581820617
 21
3.9846344491
 31
0.0
  0
LINE
  5
172
330
1F
100
AcDbEntity
  8
0
  6
Continuous
 62
     7
370
    25
100
AcDbLine
 10
10.3802904512
 20
3.6634844754
 30
0.0
 11
10.0087083877
 21
3.6129694272
 31
0.0
  0
LINE
  5
173
330
1F
100
AcDbEntity
  8
0
  6
Continuous
 62
     7
370
    25
100
AcDbLine
 10
10.3297754031
 20
4.0350665389
 30
0.0
 11
10.3802904512
 21
3.6634844754
 31
0.0
  0
SPLINE
  5
174
330
1F
100
AcDbEntity
  8
0
  6
Continuous
 62
     7
370
    25
100
AcDbSpline
210
0.0
220
0.0
230
1.0
 70
     8
 71
     3
 72
    14
 73
    10
 74
     0
 42
0.00000001
 43
0.00000001
 40
0.520465470718606
 40
0.520465470718606
 40
0.520465470718606
 40
0.520465470718606
 40
0.5258873344064182
 40
0.5410783139096876
 40
0.5562472332602322
 40
0.571381784352882
 40
0.5864660404483751
 40
0.6014845156991583
 40
0.6110828024492754
 40
0.6110828024492754
 40
0.6110828024492754
 40
0.6110828024492754
 10
12.32884691749814
 20
4.307439269471307
 30
0.0
 10
12.28897286236298
 20
4.302038095458368
 30
0.0
 10
12.13738223176282
 20
4.281484976848889
 30
0.0
 10
11.87425431426192
 20
4.245676306895271
 30
0.0
 10
11.53971583654235
 20
4.200048603491246
 30
0.0
 10
11.20596455918285
 20
4.154510171194019
 30
0.0
 10
10.87332739792259
 20
4.109065170663686
 30
0.0
 10
10.58138442104325
 20
4.069290868865084
 30
0.0
 10
10.40035954945301
 20
4.044662162308692
 30
0.0
 10
10.32977540306623
 20
4.035066538878876
 30
0.0
  0
LINE
  5
175
330
1F
100
AcDbEntity
  8
0
  6
Continuous
 62
     7
370
    25
100
AcDbLine
 10
12.3539796285
 20
4.1216313126
 30
0.0
 11
12.3288469175
 21
4.3074392695
 31
0.0
  0
LINE
  5
176
330
1F
100
AcDbEntity
  8
0
  6
Continuous
 62
     7
370
    25
100
AcDbLine
 10
12.5397875854
 20
4.1467640236
 30
0.0
 11
12.3539796285
 21
4.1216313126
 31
0.0
  0
LINE
  5
177
330
1F
100
AcDbEntity
  8
0
  6
Continuous
 62
     7
370
    25
100
AcDbLine
 10
12.5397875854
 20
4.1467640236
 30
0.0
 11
12.5146548459
 21
4.3325721909
 31
0.0
  0
SPLINE
  5
178
330
1F
100
AcDbEntity
  8
0
  6
Continuous
 62
     7
370
    25
100
AcDbSpline
210
0.0
220
0.0
230
1.0
 70
     8
 71
     3
 72
    15
 73
    11
 74
     0
 42
0.00000001
 43
0.00000001
 40
0.4170001598971144
 40
0.4170001598971144
 40
0.4170001598971144
 40
0.4170001598971144
 40
0.420174823355266
 40
0.4351095326124219
 40
0.4501242755491032
 40
0.4652030675528332
 40
0.480333153810538
 40
0.4955005832026954
 40
0.5106897747322421
 40
0.5120439593711981
 40
0.5120439593711981
 40
0.5120439593711981
 40
0.5120439593711981
 10
14.61281297419652
 20
4.607436976778604
 30
0.0
 10
14.58943409088987
 20
4.604515777493689
 30
0.0
 10
14.45607747521468
 20
4.587815623566328
 30
0.0
 10
14.21219930542609
 20
4.556900464427314
 30
0.0
 10
13.88076036249126
 20
4.514217338617305
 30
0.0
 10
13.54797404578848
 20
4.470650865940959
 30
0.0
 10
13.21412025224332
 20
4.426511439752888
 30
0.0
 10
12.87952093961978
 20
4.381762707643355
 30
0.0
 10
12.64628616326249
 20
4.350348644079877
 30
0.0
 10
12.52461444123859
 20
4.333917479246643
 30
0.0
 10
12.51465484594402
 20
4.332572190924779
 30
0.0
  0
LINE
  5
179
330
1F
100
AcDbEntity
  8
0
  6
Continuous
 62
     7
370
    25
100
AcDbLine
 10
14.6359216566
 20
4.4213664558
 30
0.0
 11
14.6128129742
 21
4.6074369768
 31
0.0
  0
LINE
  5
17A
330
1F
100
AcDbEntity
  8
0
  6
Continuous
 62
     7
370
    25
100
AcDbLine
 10
14.8219921777
 20
4.4444751382
 30
0.0
 11
14.6359216566
 21
4.4213664558
 31
0.0
  0
LINE
  5
17B
330
1F
100
AcDbEntity
  8
0
  6
Continuous
 62
     7
370
    25
100
AcDbLine
 10
14.8219921777
 20
4.4444751382
 30
0.0
 11
14.7988836265
 21
4.6305446025
 31
0.0
  0
SPLINE
  5
17C
330
1F
100
AcDbEntity
  8
0
  6
Continuous
 62
     7
370
    25
100
AcDbSpline
210
0.0
220
0.0
230
1.0
 70
     8
 71
     3
 72
    15
 73
    11
 74
     0
 42
0.00000001
 43
0.00000001
 40
0.3173008976357805
 40
0.3173008976357805
 40
0.3173008976357805
 40
0.3173008976357805
 40
0.3189806851177335
 40
0.3329854989238258
 40
0.3471627904008333
 40
0.3614986025989408
 40
0.3759807467343043
 40
0.390597192121319
 40
0.4053325934372969
 40
0.4085786502070922
 40
0.4085786502070922
 40
0.4085786502070922
 40
0.4085786502070922
 10
16.81841199531298
 20
4.857073772124853
 30
0.0
 10
16.80600483058667
 20
4.855858826109714
 30
0.0
 10
16.69015965793354
 20
4.844477148173444
 30
0.0
 10
16.46966718849185
 20
4.822149198306661
 30
0.0
 10
16.15588182191383
 20
4.788856594518326
 30
0.0
 10
15.83872621562726
 20
4.753784847904583
 30
0.0
 10
15.51847017149284
 20
4.717121065973389
 30
0.0
 10
15.19540624233017
 20
4.678931582652266
 30
0.0
 10
14.95524209626812
 20
4.649798177940482
 30
0.0
 10
14.82279279260959
 20
4.633495029264393
 30
0.0
 10
14.79888362646622
 20
4.630544602469245
 30
0.0
  0
LINE
  5
17D
330
1F
100
AcDbEntity
  8
0
  6
Continuous
 62
     7
370
    25
100
AcDbLine
 10
16.8524120784
 20
4.4836182937
 30
0.0
 11
16.8184119953
 21
4.8570737721
 31
0.0
  0
LINE
  5
17E
330
1F
100
AcDbEntity
  8
0
  6
Continuous
 62
     7
370
    25
100
AcDbLine
 10
17.2258675568
 20
4.5176183768
 30
0.0
 11
16.8524120784
 21
4.4836182937
 31
0.0
  0
LINE
  5
17F
330
1F
100
AcDbEntity
  8
0
  6
Continuous
 62
     7
370
    25
100
AcDbLine
 10
17.1917494901
 20
4.8923697776
 30
0.0
 11
17.2258675568
 21
4.5176183768
 31
0.0
  0
SPLINE
  5
180
330
1F
100
AcDbEntity
  8
0
  6
Continuous
 62
     7
370
    25
100
AcDbSpline
210
0.0
220
0.0
230
1.0
 70
     8
 71
     3
 72
    15
 73
    11
 74
     0
 42
0.00000001
 43
0.00000001
 40
0.2085650349845574
 40
0.2085650349845574
 40
0.2085650349845574
 40
0.2085650349845574
 40
0.2145604781304418
 40
0.2267672493535257
 40
0.239236416912666
 40
0.2519590037406926
 40
0.2649238944848901
 40
0.2781197025559347
 40
0.2915360351420174
 40
0.3004577628980384
 40
0.3004577628980384
 40
0.3004577628980384
 40
0.3004577628980384
 10
19.23301163772602
 20
5.026634603924122
 30
0.0
 10
19.18854254263838
 20
5.025110566640061
 30
0.0
 10
19.05354589553427
 20
5.020135466859465
 30
0.0
 10
18.82613856735631
 20
5.010067871788904
 30
0.0
 10
18.54897633471899
 20
4.995296425360907
 30
0.0
 10
18.26633444600938
 20
4.97782031763248
 30
0.0
 10
17.97846163564651
 20
4.957717000965836
 30
0.0
 10
17.68560785657385
 20
4.935147693872169
 30
0.0
 10
17.42281666339429
 20
4.913088043610725
 30
0.0
 10
17.25768921732272
 20
4.898373053349488
 30
0.0
 10
17.1917494901438
 20
4.892369777632516
 30
0.0
  0
LINE
  5
181
330
1F
100
AcDbEntity
  8
0
  6
Continuous
 62
     7
370
    25
100
AcDbLine
 10
19.2387423636
 20
4.8392180812
 30
0.0
 11
19.2330116377
 21
5.0266346039
 31
0.0
  0
LINE
  5
182
330
1F
100
AcDbEntity
  8
0
  6
Continuous
 62
     7
370
    25
100
AcDbLine
 10
19.4261547704
 20
4.8449486812
 30
0.0
 11
19.2387423636
 21
4.8392180812
 31
0.0
  0
LINE
  5
183
330
1F
100
AcDbEntity
  8
0
  6
Continuous
 62
     7
370
    25
100
AcDbLine
 10
19.4261547704
 20
4.8449486812
 30
0.0
 11
19.42042417
 21
5.032361088
 31
0.0
  0
LINE
  5
184
330
1F
100
AcDbEntity
  8
0
  6
Continuous
 62
     7
370
    25
100
AcDbLine
 10
21.584566361
 20
4.7690741959
 30
0.0
 11
21.6097401928
 21
4.9548765861
 31
0.0
  0
LINE
  5
185
330
1F
100
AcDbEntity
  8
0
  6
Continuous
 62
     7
370
    25
100
AcDbLine
 10
21.7703687512
 20
4.7439003642
 30
0.0
 11
21.584566361
 21
4.7690741959
 31
0.0
  0
LINE
  5
186
330
1F
100
AcDbEntity
  8
0
  6
Continuous
 62
     7
370
    25
100
AcDbLine
 10
21.7955391587
 20
4.9296774809
 30
0.0
 11
21.7703687512
 21
4.7439003642
 31
0.0
  0
SPLINE
  5
187
330
1F
100
AcDbEntity
  8
0
  6
Continuous
 62
     7
370
    25
100
AcDbSpline
210
0.0
220
0.0
230
1.0
 70
     8
 71
     3
 72
    24
 73
    20
 74
     0
 42
0.00000001
 43
0.00000001
 40
0.0039351208712084
 40
0.0039351208712084
 40
0.0039351208712084
 40
0.0039351208712084
 40
0.0072932311171293
 40
0.011028136413859
 40
0.0149010810980465
 40
0.0189632717700928
 40
0.023258475402986
 40
0.0278206260323165
 40
0.0326790824435221
 40
0.0378531598360054
 40
0.0433618746912805
 40
0.0492146790039221
 40
0.0554223461563205
 40
0.06198878599669
 40
0.0689180360680075
 40
0.0762111572779437
 40
0.0838683921994994
 40
0.091887410882707
 40
0.0932399630117017
 40
0.0932399630117017
 40
0.0932399630117017
 40
0.0932399630117017
 10
23.50384238014819
 20
4.085775665217088
 30
0.0
 10
23.49628291067999
 20
4.10951413244657
 30
0.0
 10
23.47641946283656
 20
4.158501720398285
 30
0.0
 10
23.43711964757052
 20
4.229957420304506
 30
0.0
 10
23.38606693518351
 20
4.300197237249572
 30
0.0
 10
23.32466468492063
 20
4.367267556955893
 30
0.0
 10
23.25304851046292
 20
4.431238140119406
 30
0.0
 10
23.17128864552086
 20
4.492074591464495
 30
0.0
 10
23.07949209912687
 20
4.549749223804602
 30
0.0
 10
22.97779221952759
 20
4.604323260904614
 30
0.0
 10
22.8663033172956
 20
4.65576277274854
 30
0.0
 10
22.74512704788907
 20
4.70405168415958
 30
0.0
 10
22.61439543595525
 20
4.749125445098179
 30
0.0
 10
22.47426830451029
 20
4.791052701915322
 30
0.0
 10
22.3248788793634
 20
4.829731280783344
 30
0.0
 10
22.16639703112708
 20
4.865215242159644
 30
0.0
 10
21.9989751893746
 20
4.897414009209903
 30
0.0
 10
21.87425453681844
 20
4.917905619766488
 30
0.0
 10
21.80546948811402
 20
4.928210133212949
 30
0.0
 10
21.79553915871377
 20
4.929677480910343
 30
0.0
  0
LINE
  5
188
330
1F
100
AcDbEntity
  8
0
  6
Continuous
 62
     7
370
    25
100
AcDbLine
 10
23.5038423801
 20
4.0857756652
 30
0.0
 11
23.1585912355
 21
4.0857756652
 31
0.0
  0
LINE
  5
189
330
1F
100
AcDbEntity
  8
0
  6
Continuous
 62
     7
370
    25
100
AcDbLine
 10
23.1585912355
 20
3.7107756652
 30
0.0
 11
23.1585912355
 21
4.0857756652
 31
0.0
  0
LINE
  5
18A
330
1F
100
AcDbEntity
  8
0
  6
Continuous
 62
     7
370
    25
100
AcDbLine
 10
23.5043548575
 20
3.710775666
 30
0.0
 11
23.1585912355
 21
3.7107756652
 31
0.0
  0
LINE
  5
18B
330
1F
100
AcDbEntity
  8
0
  6
Continuous
 62
     7
370
    25
100
AcDbLine
 10
22.1644767594
 20
2.7790936459
 30
0.0
 11
21.9952841599
 21
2.6982845233
 31
0.0
  0
LINE
  5
18C
330
1F
100
AcDbEntity
  8
0
  6
Continuous
 62
     7
370
    25
100
AcDbLine
 10
20.9000018008
 20
2.0868328369
 30
0.0
 11
20.8009379923
 21
2.443086735
 31
0.0
  0
LINE
  5
18D
330
1F
100
AcDbEntity
  8
0
  6
Continuous
 62
     7
370
    25
100
AcDbLine
 10
20.8009379923
 20
2.443086735
 30
0.0
 11
20.4396460908
 21
2.3426220052
 31
0.0
  0
LINE
  5
18E
330
1F
100
AcDbEntity
  8
0
  6
Continuous
 62
     7
370
    25
100
AcDbLine
 10
20.4396460908
 20
2.3426220052
 30
0.0
 11
20.540110821
 21
1.9813301038
 31
0.0
  0
SPLINE
  5
18F
330
1F
100
AcDbEntity
  8
0
  6
Continuous
 62
     7
370
    25
100
AcDbSpline
210
0.0
220
0.0
230
1.0
 70
     8
 71
     3
 72
    16
 73
    12
 74
     0
 42
0.00000001
 43
0.00000001
 40
0.7462088576025568
 40
0.7462088576025568
 40
0.7462088576025568
 40
0.7462088576025568
 40
0.7521175864591397
 40
0.7647920417814054
 40
0.7772081519207622
 40
0.7893556849316484
 40
0.8012239599679336
 40
0.8128036855342794
 40
0.8240829093538227
 40
0.8350546022887522
 40
0.8351398981997684
 40
0.8351398981997684
 40
0.8351398981997684
 40
0.8351398981997684
 10
18.52252496485637
 20
1.554626147243329
 30
0.0
 10
18.56767927318527
 20
1.561653848788279
 30
0.0
 10
18.70962186919485
 20
1.584202704265802
 30
0.0
 10
18.94601643268961
 20
1.624195558230502
 30
0.0
 10
19.22926560665947
 20
1.676324606703067
 30
0.0
 10
19.50560409568739
 20
1.73139179572227
 30
0.0
 10
19.77473104049093
 20
1.789382758368074
 30
0.0
 10
20.03636155597907
 20
1.850123539062422
 30
0.0
 10
20.29022373990503
 20
1.913508310999425
 30
0.0
 10
20.45708474529678
 20
1.958249263680721
 30
0.0
 10
20.53947525594316
 20
1.981153371723724
 30
0.0
 10
20.54011082096832
 20
1.981330103801736
 30
0.0
  0
LINE
  5
190
330
1F
100
AcDbEntity
  8
0
  6
Continuous
 62
     7
370
    25
100
AcDbLine
 10
18.5225249649
 20
1.5546261472
 30
0.0
 11
18.4944810106
 21
1.7400170495
 31
0.0
  0
LINE
  5
191
330
1F
100
AcDbEntity
  8
0
  6
Continuous
 62
     7
370
    25
100
AcDbLine
 10
18.4944810106
 20
1.7400170495
 30
0.0
 11
18.3090901084
 21
1.7119730952
 31
0.0
  0
LINE
  5
192
330
1F
100
AcDbEntity
  8
0
  6
Continuous
 62
     7
370
    25
100
AcDbLine
 10
18.3090901084
 20
1.7119730952
 30
0.0
 11
18.3371340628
 21
1.526582193
 31
0.0
  0
SPLINE
  5
193
330
1F
100
AcDbEntity
  8
0
  6
Continuous
 62
     7
370
    25
100
AcDbSpline
210
0.0
220
0.0
230
1.0
 70
     8
 71
     3
 72
    14
 73
    10
 74
     0
 42
0.00000001
 43
0.00000001
 40
0.6471977191416923
 40
0.6471977191416923
 40
0.6471977191416923
 40
0.6471977191416923
 40
0.6571860540028671
 40
0.6713255457791549
 40
0.6852940138169578
 40
0.6990781474144603
 40
0.7126650949455656
 40
0.7260426447110092
 40
0.7381275985622745
 40
0.7381275985622745
 40
0.7381275985622745
 40
0.7381275985622745
 10
16.23929439518878
 20
1.308200924982534
 30
0.0
 10
16.31637867514731
 20
1.313246934989981
 30
0.0
 10
16.50253706616484
 20
1.326144420433432
 30
0.0
 10
16.79626313891591
 20
1.349331451214375
 30
0.0
 10
17.11893490097672
 20
1.37860471247326
 30
0.0
 10
17.43699104680401
 20
1.411219514124805
 30
0.0
 10
17.75007747106303
 20
1.447264563498189
 30
0.0
 10
18.04964915160112
 20
1.485587107830058
 30
0.0
 10
18.24466245217805
 20
1.51299434437882
 30
0.0
 10
18.33713406282264
 20
1.526582192995998
 30
0.0
  0
LINE
  5
194
330
1F
100
AcDbEntity
  8
0
  6
Continuous
 62
     7
370
    25
100
AcDbLine
 10
16.2392943952
 20
1.308200925
 30
0.0
 11
16.2276162641
 21
1.4953368949
 31
0.0
  0
LINE
  5
195
330
1F
100
AcDbEntity
  8
0
  6
Continuous
 62
     7
370
    25
100
AcDbLine
 10
16.2276162641
 20
1.4953368949
 30
0.0
 11
16.0404802942
 21
1.4836587639
 31
0.0
  0
LINE
  5
196
330
1F
100
AcDbEntity
  8
0
  6
Continuous
 62
     7
370
    25
100
AcDbLine
 10
16.0404802942
 20
1.4836587639
 30
0.0
 11
16.0521584255
 21
1.296522794
 31
0.0
  0
SPLINE
  5
197
330
1F
100
AcDbEntity
  8
0
  6
Continuous
 62
     7
370
    25
100
AcDbSpline
210
0.0
220
0.0
230
1.0
 70
     8
 71
     3
 72
    14
 73
    10
 74
     0
 42
0.00000001
 43
0.00000001
 40
0.5511452244250064
 40
0.5511452244250064
 40
0.5511452244250064
 40
0.5511452244250064
 40
0.5545829838309861
 40
0.5695295459998657
 40
0.5844034168402927
 40
0.5991909919021363
 40
0.6138768380252426
 40
0.628447474920468
 40
0.6391164527335579
 40
0.6391164527335579
 40
0.6391164527335579
 40
0.6391164527335579
 10
14.01219105147933
 20
1.23857582052353
 30
0.0
 10
14.03877845769186
 20
1.238565053346771
 30
0.0
 10
14.1809616624683
 20
1.238657094994134
 30
0.0
 10
14.43817607900053
 20
1.240276191939458
 30
0.0
 10
14.78313263339298
 20
1.245726556813448
 30
0.0
 10
15.12600345397851
 20
1.254519744040164
 30
0.0
 10
15.46642503206265
 20
1.266672165328462
 30
0.0
 10
15.77488541777926
 20
1.280839953774732
 30
0.0
 10
15.96979015710571
 20
1.29163257561516
 30
0.0
 10
16.05215842548862
 20
1.296522793950891
 30
0.0
  0
LINE
  5
198
330
1F
100
AcDbEntity
  8
0
  6
Continuous
 62
     7
370
    25
100
AcDbLine
 10
14.0121910515
 20
1.2385758205
 30
0.0
 11
14.012343663
 21
1.6154205284
 31
0.0
  0
LINE
  5
199
330
1F
100
AcDbEntity
  8
0
  6
Continuous
 62
     7
370
    25
100
AcDbLine
 10
14.012343663
 20
1.6154205284
 30
0.0
 11
13.6373436938
 21
1.6155723932
 31
0.0
  0
LINE
  5
19A
330
1F
100
AcDbEntity
  8
0
  6
Continuous
 62
     7
370
    25
100
AcDbLine
 10
13.6373436938
 20
1.6155723932
 30
0.0
 11
13.6371918293
 21
1.2405724239
 31
0.0
  0
SPLINE
  5
19B
330
1F
100
AcDbEntity
  8
0
  6
Continuous
 62
     7
370
    25
100
AcDbSpline
210
0.0
220
0.0
230
1.0
 70
     8
 71
     3
 72
    15
 73
    11
 74
     0
 42
0.00000001
 43
0.00000001
 40
0.4314156119256059
 40
0.4314156119256059
 40
0.4314156119256059
 40
0.4314156119256059
 40
0.4341867493871219
 40
0.4491772650868069
 40
0.4642147821671246
 40
0.4792840087649619
 40
0.4943697397811477
 40
0.5094578326361675
 40
0.5245323463196893
 40
0.5349824261914548
 40
0.5349824261914548
 40
0.5349824261914548
 40
0.5349824261914548
 10
11.23642324372737
 20
1.334796642744664
 30
0.0
 10
11.25780735151798
 20
1.333368145292712
 30
0.0
 10
11.39487563320958
 20
1.324309143785905
 30
0.0
 10
11.6480657092777
 20
1.308740616243899
 30
0.0
 10
11.99634321340482
 20
1.289996946685012
 30
0.0
 10
12.34549426609643
 20
1.273980283944401
 30
0.0
 10
12.6951555186487
 20
1.26080098650628
 30
0.0
 10
13.04495568036054
 20
1.250538614925708
 30
0.0
 10
13.35898688948292
 20
1.244028371230606
 30
0.0
 10
13.55637582512264
 20
1.241397368883798
 30
0.0
 10
13.63719182931286
 20
1.240572423900836
 30
0.0
  0
LINE
  5
19C
330
1F
100
AcDbEntity
  8
0
  6
Continuous
 62
     7
370
    25
100
AcDbLine
 10
11.2364232437
 20
1.3347966427
 30
0.0
 11
11.2493036782
 21
1.521852707
 31
0.0
  0
LINE
  5
19D
330
1F
100
AcDbEntity
  8
0
  6
Continuous
 62
     7
370
    25
100
AcDbLine
 10
11.2493036782
 20
1.521852707
 30
0.0
 11
11.062246621
 21
1.5347332099
 31
0.0
  0
LINE
  5
19E
330
1F
100
AcDbEntity
  8
0
  6
Continuous
 62
     7
370
    25
100
AcDbLine
 10
11.062246621
 20
1.5347332099
 30
0.0
 11
11.0493661185
 21
1.3476761527
 31
0.0
  0
LINE
  5
19F
330
1F
100
AcDbEntity
  8
0
  6
Continuous
 62
     7
370
    25
100
AcDbLine
 10
10.5855312667
 20
1.5081483406
 30
0.0
 11
10.570371762
 21
1.3840709881
 31
0.0
  0
LINE
  5
1A0
330
1F
100
AcDbEntity
  8
0
  6
Continuous
 62
     7
370
    25
100
AcDbLine
 10
8.5957884097
 20
1.710443577
 30
0.0
 11
10.5855312667
 21
1.5081483406
 31
0.0
  0
LINE
  5
1A1
330
1F
100
AcDbEntity
  8
0
  6
Continuous
 62
     7
370
    25
100
AcDbLine
 10
8.5957884097
 20
1.710443577
 30
0.0
 11
8.6033650521
 21
1.7724567981
 31
0.0
  0
LINE
  5
1A2
330
1F
100
AcDbEntity
  8
0
  6
Continuous
 62
     7
370
    25
100
AcDbLine
 10
8.6033650521
 20
1.7724567981
 30
0.0
 11
8.4172490234
 21
1.7951960557
 31
0.0
  0
LINE
  5
1A3
330
1F
100
AcDbEntity
  8
0
  6
Continuous
 62
     7
370
    25
100
AcDbLine
 10
8.4172490234
 20
1.7951960557
 30
0.0
 11
8.394548038
 21
1.6093932776
 31
0.0
  0
LINE
  5
1A4
330
1F
100
AcDbEntity
  8
0
  6
Continuous
 62
     7
370
    25
100
AcDbLine
 10
8.1210612815
 20
1.8446573765
 30
0.0
 11
8.1756948536
 21
2.2918216439
 31
0.0
  0
CIRCLE
  5
1A5
330
1F
100
AcDbEntity
  8
0
  6
Continuous
 62
     7
370
    25
100
AcDbCircle
 10
8.5674319684
 20
2.6923641026
 30
0.0
 40
0.2500000000000018
  0
ARC
  5
1A6
330
1F
100
AcDbEntity
  8
0
  6
Continuous
 62
     7
370
    25
100
AcDbCircle
 10
11.342778275
 20
3.5171304273
 30
0.0
 40
0.2000000000000003
100
AcDbArc
 50
45.0
 51
97.7748439723
  0
LINE
  5
1A7
330
1F
100
AcDbEntity
  8
0
  6
Continuous
 62
     7
370
    25
100
AcDbLine
 10
11.3157221618
 20
3.7152918937
 30
0.0
 11
10.8032623006
 21
3.6453678576
 31
0.0
  0
ARC
  5
1A8
330
1F
100
AcDbEntity
  8
0
  6
Continuous
 62
     7
370
    25
100
AcDbCircle
 10
10.8302710022
 20
3.4471999236
 30
0.0
 40
0.2000000000000728
100
AcDbArc
 50
97.7611357549
 51
241.1174148316
  0
LINE
  5
1A9
330
1F
100
AcDbEntity
  8
0
  6
Continuous
 62
     7
370
    25
100
AcDbLine
 10
13.303240425
 20
1.8546161666
 30
0.0
 11
10.7336677488
 21
3.272077648
 31
0.0
  0
ARC
  5
1AA
330
1F
100
AcDbEntity
  8
0
  6
Continuous
 62
     7
370
    25
100
AcDbCircle
 10
13.3998436784
 20
2.0297384423
 30
0.0
 40
0.200000000000001
100
AcDbArc
 50
241.1174148316
 51
0.0
  0
LINE
  5
1AB
330
1F
100
AcDbEntity
  8
0
  6
Continuous
 62
     7
370
    25
100
AcDbLine
 10
13.5998436784
 20
2.8179952873
 30
0.0
 11
13.5998436784
 21
2.0297384423
 31
0.0
  0
ARC
  5
1AC
330
1F
100
AcDbEntity
  8
0
  6
Continuous
 62
     7
370
    25
100
AcDbCircle
 10
13.3998436784
 20
2.8179952873
 30
0.0
 40
0.1999999999999993
100
AcDbArc
 50
360.0
 51
65.5037209488
  0
ARC
  5
1AD
330
1F
100
AcDbEntity
  8
0
  6
Continuous
 62
     7
370
    25
100
AcDbCircle
 10
13.8248436784
 20
3.7507331926
 30
0.0
 40
0.8250000000000027
100
AcDbArc
 50
181.9846926466
 51
245.5037209488
  0
ARC
  5
1AE
330
1F
100
AcDbEntity
  8
0
  6
Continuous
 62
     7
370
    25
100
AcDbCircle
 10
12.8004585603
 20
3.7152348858
 30
0.0
 40
0.2000000000000015
100
AcDbArc
 50
1.9846926466
 51
97.6674048107
  0
SPLINE
  5
1AF
330
1F
100
AcDbEntity
  8
0
  6
Continuous
 62
     7
370
    25
100
AcDbSpline
210
0.0
220
0.0
230
1.0
 70
     8
 71
     3
 72
     8
 73
     4
 74
     0
 42
0.00000001
 43
0.00000001
 40
0.503022154008895
 40
0.503022154008895
 40
0.503022154008895
 40
0.503022154008895
 40
0.5198377706621561
 40
0.5198377706621561
 40
0.5198377706621561
 40
0.5198377706621561
 10
12.7737740802806
 20
3.913446738406459
 30
0.0
 10
12.65023873372996
 20
3.8968156619082
 30
0.0
 10
12.52668676967193
 20
3.88012193280195
 30
0.0
 10
12.40311998849508
 20
3.863381246424155
 30
0.0
  0
ARC
  5
1B0
330
1F
100
AcDbEntity
  8
0
  6
Continuous
 62
     7
370
    25
100
AcDbCircle
 10
12.4299704667
 20
3.6651918122
 30
0.0
 40
0.2
100
AcDbArc
 50
97.7153915083
 51
135.0
  0
LINE
  5
1B1
330
1F
100
AcDbEntity
  8
0
  6
Continuous
 62
     7
370
    25
100
AcDbLine
 10
12.0709223222
 20
3.5889863802
 30
0.0
 11
12.2885491104
 21
3.8066131685
 31
0.0
  0
ARC
  5
1B2
330
1F
100
AcDbEntity
  8
0
  6
Continuous
 62
     7
370
    25
100
AcDbCircle
 10
11.9295009659
 20
3.7304077364
 30
0.0
 40
0.1999999999999997
100
AcDbArc
 50
269.9999999999
 51
315.0
  0
LINE
  5
1B3
330
1F
100
AcDbEntity
  8
0
  6
Continuous
 62
     7
370
    25
100
AcDbLine
 10
11.6951863909
 20
3.5304077364
 30
0.0
 11
11.9295009659
 21
3.5304077364
 31
0.0
  0
ARC
  5
1B4
330
1F
100
AcDbEntity
  8
0
  6
Continuous
 62
     7
370
    25
100
AcDbCircle
 10
11.6951863909
 20
3.7304077364
 30
0.0
 40
0.2000000000000002
100
AcDbArc
 50
225.0
 51
269.9999999999
  0
LINE
  5
1B5
330
1F
100
AcDbEntity
  8
0
  6
Continuous
 62
     7
370
    25
100
AcDbLine
 10
11.5537650346
 20
3.5889863802
 30
0.0
 11
11.4841996312
 21
3.6585517836
 31
0.0
  0
ARC
  5
1B6
330
1F
100
AcDbEntity
  8
0
  6
Continuous
 62
     7
370
    25
100
AcDbCircle
 10
21.6983818779
 20
4.2869756882
 30
0.0
 40
0.2000000000000026
100
AcDbArc
 50
81.6125656441
 51
211.5446870278
  0
ARC
  5
1B7
330
1F
100
AcDbEntity
  8
0
  6
Continuous
 62
     7
370
    25
100
AcDbCircle
 10
20.8248436784
 20
3.7507331926
 30
0.0
 40
0.8250000000000017
100
AcDbArc
 50
294.4962790512
 51
31.5446870278
  0
ARC
  5
1B8
330
1F
100
AcDbEntity
  8
0
  6
Continuous
 62
     7
370
    25
100
AcDbCircle
 10
21.2498436784
 20
2.8179952873
 30
0.0
 40
0.2000000000000024
100
AcDbArc
 50
114.4962790512
 51
169.0852697611
  0
ARC
  5
1B9
330
1F
100
AcDbEntity
  8
0
  6
Continuous
 62
     7
370
    25
100
AcDbCircle
 10
21.2498436784
 20
2.8937344432
 30
0.0
 40
0.2000000000000026
100
AcDbArc
 50
190.9147302389
 51
291.3381887662
  0
SPLINE
  5
1BA
330
1F
100
AcDbEntity
  8
0
  6
Continuous
 62
     7
370
    25
100
AcDbSpline
210
0.0
220
0.0
230
1.0
 70
     8
 71
     3
 72
     8
 73
     4
 74
     0
 42
0.00000001
 43
0.00000001
 40
0.0587970678286708
 40
0.0587970678286708
 40
0.0587970678286708
 40
0.0587970678286708
 40
1.0
 40
1.0
 40
1.0
 40
1.0
 10
21.32261810645248
 20
2.707444661862729
 30
0.0
 10
22.74482371243451
 20
3.263031762952187
 30
0.0
 10
23.58982739530866
 20
4.210257419706418
 30
0.0
 10
21.72755509105963
 20
4.484836557552935
 30
0.0
  0
CIRCLE
  5
1BB
330
1F
100
AcDbEntity
  8
0
  6
Continuous
 62
     7
370
    25
100
AcDbCircle
 10
13.8248436784
 20
3.7507331926
 30
0.0
 40
0.375
  0
ARC
  5
1BC
330
1F
100
AcDbEntity
  8
0
  6
Continuous
 62
     7
370
    25
100
AcDbCircle
 10
9.0431972201
 20
3.2058301923
 30
0.0
 40
0.2000000000000099
100
AcDbArc
 50
97.5970414111
 51
227.182557196
  0
ARC
  5
1BD
330
1F
100
AcDbEntity
  8
0
  6
Continuous
 62
     7
370
    25
100
AcDbCircle
 10
8.5674319684
 20
2.6923641026
 30
0.0
 40
0.5000000000000109
100
AcDbArc
 50
20.5192866722
 51
47.182557196
  0
ARC
  5
1BE
330
1F
100
AcDbEntity
  8
0
  6
Continuous
 62
     7
370
    25
100
AcDbCircle
 10
9.223019944
 20
2.9377299648
 30
0.0
 40
0.2000000000000012
100
AcDbArc
 50
200.5192866722
 51
312.4268885053
  0
LINE
  5
1BF
330
1F
100
AcDbEntity
  8
0
  6
Continuous
 62
     7
370
    25
100
AcDbLine
 10
9.7325027721
 20
3.1324386146
 30
0.0
 11
9.357949717
 21
2.790102202
 31
0.0
  0
ARC
  5
1C0
330
1F
100
AcDbEntity
  8
0
  6
Continuous
 62
     7
370
    25
100
AcDbCircle
 10
9.5975729991
 20
3.2800663774
 30
0.0
 40
0.200000000004156
100
AcDbArc
 50
312.4268885053
 51
97.6599695512
  0
SPLINE
  5
1C1
330
1F
100
AcDbEntity
  8
0
  6
Continuous
 62
     7
370
    25
100
AcDbSpline
210
0.0
220
0.0
230
1.0
 70
     8
 71
     3
 72
    11
 73
     7
 74
     0
 42
0.00000001
 43
0.00000001
 40
0.6481961029693138
 40
0.6481961029693138
 40
0.6481961029693138
 40
0.6481961029693138
 40
0.6520988798433948
 40
0.6565556350808772
 40
0.6713345446924556
 40
0.6732859331294959
 40
0.6732859331294959
 40
0.6732859331294959
 40
0.6732859331294959
 10
9.570914241195954
 20
3.478281691196095
 30
0.0
 10
9.542180635203103
 20
3.47441719541042
 30
0.0
 10
9.480634197675796
 20
3.466145584916435
 30
0.0
 10
9.310276284637492
 20
3.4432851031711
 30
0.0
 10
9.154277158736345
 20
3.422420935540928
 30
0.0
 10
9.031121646195691
 20
3.405990673522981
 30
0.0
 10
9.016756178826533
 20
3.404074665932987
 30
0.0
  0
ARC
  5
1C2
330
1F
100
AcDbEntity
  8
0
  6
Continuous
 62
     7
370
    25
100
AcDbCircle
 10
11.7796034381
 20
1.9527663867
 30
0.0
 40
0.2000000000000011
100
AcDbArc
 50
266.8207118578
 51
61.1174148316
  0
LINE
  5
1C3
330
1F
100
AcDbEntity
  8
0
  6
Continuous
 62
     7
370
    25
100
AcDbLine
 10
11.8762066915
 20
2.1278886624
 30
0.0
 11
10.3955350956
 21
2.9446762057
 31
0.0
  0
ARC
  5
1C4
330
1F
100
AcDbEntity
  8
0
  6
Continuous
 62
     7
370
    25
100
AcDbCircle
 10
10.2989318422
 20
2.7695539301
 30
0.0
 40
0.2000000000000001
100
AcDbArc
 50
61.1174148316
 51
132.4268885054
  0
LINE
  5
1C5
330
1F
100
AcDbEntity
  8
0
  6
Continuous
 62
     7
370
    25
100
AcDbLine
 10
10.1640020692
 20
2.9171816928
 30
0.0
 11
9.4603953321
 21
2.2740946776
 31
0.0
  0
ARC
  5
1C6
330
1F
100
AcDbEntity
  8
0
  6
Continuous
 62
     7
370
    25
100
AcDbCircle
 10
9.5953251052
 20
2.1264669148
 30
0.0
 40
0.2000000000000015
100
AcDbArc
 50
132.4268885054
 51
264.1345272799
  0
SPLINE
  5
1C7
330
1F
100
AcDbEntity
  8
0
  6
Continuous
 62
     7
370
    25
100
AcDbSpline
210
0.0
220
0.0
230
1.0
 70
     8
 71
     3
 72
    11
 73
     7
 74
     0
 42
0.00000001
 43
0.00000001
 40
0.3575494110876469
 40
0.3575494110876469
 40
0.3575494110876469
 40
0.3575494110876469
 40
0.3746798760817555
 40
0.4059031990885684
 40
0.4371265220953814
 40
0.4533143653489231
 40
0.4533143653489231
 40
0.4533143653489231
 40
0.4533143653489231
 10
9.574886486052728
 20
1.927513998685335
 30
0.0
 10
9.705474389863552
 20
1.914098581212257
 30
0.0
 10
10.07413463759259
 20
1.877691347425634
 30
0.0
 10
10.68163499838194
 20
1.824764410801723
 30
0.0
 10
11.28237611204183
 20
1.781605795356979
 30
0.0
 10
11.64476441908285
 20
1.75994786493546
 30
0.0
 10
11.76851132310578
 20
1.753074211104763
 30
0.0
  0
ARC
  5
1C8
330
1F
100
AcDbEntity
  8
0
  6
Continuous
 62
     7
370
    25
100
AcDbCircle
 10
18.3072595796
 20
4.3287169432
 30
0.0
 40
0.1999999999999996
100
AcDbArc
 50
45.0
 51
93.7688746373
  0
SPLINE
  5
1C9
330
1F
100
AcDbEntity
  8
0
  6
Continuous
 62
     7
370
    25
100
AcDbSpline
210
0.0
220
0.0
230
1.0
 70
     8
 71
     3
 72
     9
 73
     5
 74
     0
 42
0.00000001
 43
0.00000001
 40
0.2521216159124601
 40
0.2521216159124601
 40
0.2521216159124601
 40
0.2521216159124601
 40
0.271707070552634
 40
0.2791557719663175
 40
0.2791557719663175
 40
0.2791557719663175
 40
0.2791557719663175
 10
18.29411321064462
 20
4.528284407972309
 30
0.0
 10
18.15086265906908
 20
4.518847876769379
 30
0.0
 10
17.95303440063269
 20
4.504628924141009
 30
0.0
 10
17.75514140655316
 20
4.48897321273471
 30
0.0
 10
17.70060869033028
 20
4.484555567043916
 30
0.0
  0
ARC
  5
1CA
330
1F
100
AcDbEntity
  8
0
  6
Continuous
 62
     7
370
    25
100
AcDbCircle
 10
17.7167576065
 20
4.2852086019
 30
0.0
 40
0.2000000000002385
100
AcDbArc
 50
94.6313655311
 51
241.1174148316
  0
LINE
  5
1CB
330
1F
100
AcDbEntity
  8
0
  6
Continuous
 62
     7
370
    25
100
AcDbLine
 10
20.303240425
 20
2.6300070923
 30
0.0
 11
17.6201543531
 21
4.1100863262
 31
0.0
  0
ARC
  5
1CC
330
1F
100
AcDbEntity
  8
0
  6
Continuous
 62
     7
370
    25
100
AcDbCircle
 10
20.3998436784
 20
2.805129368
 30
0.0
 40
0.2000000000000014
100
AcDbArc
 50
241.1174148316
 51
0.0
  0
LINE
  5
1CD
330
1F
100
AcDbEntity
  8
0
  6
Continuous
 62
     7
370
    25
100
AcDbLine
 10
20.5998436784
 20
2.8179952873
 30
0.0
 11
20.5998436784
 21
2.805129368
 31
0.0
  0
ARC
  5
1CE
330
1F
100
AcDbEntity
  8
0
  6
Continuous
 62
     7
370
    25
100
AcDbCircle
 10
20.3998436784
 20
2.8179952873
 30
0.0
 40
0.1999999999999993
100
AcDbArc
 50
0.0
 51
65.5037209488
  0
ARC
  5
1CF
330
1F
100
AcDbEntity
  8
0
  6
Continuous
 62
     7
370
    25
100
AcDbCircle
 10
20.8248436784
 20
3.7507331926
 30
0.0
 40
0.8250000000000017
100
AcDbArc
 50
141.3799117912
 51
245.5037209488
  0
ARC
  5
1D0
330
1F
100
AcDbEntity
  8
0
  6
Continuous
 62
     7
370
    25
100
AcDbCircle
 10
20.0240094473
 20
4.3904905954
 30
0.0
 40
0.2000000000000001
100
AcDbArc
 50
321.3799117912
 51
89.9405706167
  0
SPLINE
  5
1D1
330
1F
100
AcDbEntity
  8
0
  6
Continuous
 62
     7
370
    25
100
AcDbSpline
210
0.0
220
0.0
230
1.0
 70
     8
 71
     3
 72
    10
 73
     6
 74
     0
 42
0.00000001
 43
0.00000001
 40
0.1730002194696571
 40
0.1730002194696571
 40
0.1730002194696571
 40
0.1730002194696571
 40
0.1808057732178189
 40
0.1886113269659808
 40
0.2021168366661889
 40
0.2021168366661889
 40
0.2021168366661889
 40
0.2021168366661889
 10
20.02421689497233
 20
4.59049048777111
 30
0.0
 10
19.96763896895401
 20
4.590549172590228
 30
0.0
 10
19.85439100851818
 20
4.590156530607878
 30
0.0
 10
19.6428596328769
 20
4.58763238673097
 30
0.0
 10
19.48777031221626
 20
4.584139054703985
 30
0.0
 10
19.38939945600242
 20
4.581325274826733
 30
0.0
  0
ARC
  5
1D2
330
1F
100
AcDbEntity
  8
0
  6
Continuous
 62
     7
370
    25
100
AcDbCircle
 10
19.3951178763
 20
4.3814070424
 30
0.0
 40
0.1999999999999996
100
AcDbArc
 50
91.638430029
 51
135.0
  0
LINE
  5
1D3
330
1F
100
AcDbEntity
  8
0
  6
Continuous
 62
     7
370
    25
100
AcDbLine
 10
19.0959223222
 20
4.3650542007
 30
0.0
 11
19.25369652
 21
4.5228283986
 31
0.0
  0
ARC
  5
1D4
330
1F
100
AcDbEntity
  8
0
  6
Continuous
 62
     7
370
    25
100
AcDbCircle
 10
18.9545009659
 20
4.5064755569
 30
0.0
 40
0.2000000000000002
100
AcDbArc
 50
269.9999999999
 51
315.0
  0
LINE
  5
1D5
330
1F
100
AcDbEntity
  8
0
  6
Continuous
 62
     7
370
    25
100
AcDbLine
 10
18.6951863909
 20
4.3064755569
 30
0.0
 11
18.9545009659
 21
4.3064755569
 31
0.0
  0
ARC
  5
1D6
330
1F
100
AcDbEntity
  8
0
  6
Continuous
 62
     7
370
    25
100
AcDbCircle
 10
18.6951863909
 20
4.5064755569
 30
0.0
 40
0.2000000000000015
100
AcDbArc
 50
225.0
 51
269.9999999999
  0
LINE
  5
1D7
330
1F
100
AcDbEntity
  8
0
  6
Continuous
 62
     7
370
    25
100
AcDbLine
 10
18.5537650346
 20
4.3650542007
 30
0.0
 11
18.4486809359
 21
4.4701382995
 31
0.0
  0
CIRCLE
  5
1D8
330
1F
100
AcDbEntity
  8
0
  6
Continuous
 62
     7
370
    25
100
AcDbCircle
 10
20.8248436784
 20
3.7507331926
 30
0.0
 40
0.375
  0
SPLINE
  5
1D9
330
1F
100
AcDbEntity
  8
0
  6
Continuous
 62
     7
370
    25
100
AcDbSpline
210
0.0
220
0.0
230
1.0
 70
     8
 71
     3
 72
    10
 73
     6
 74
     0
 42
0.00000001
 43
0.00000001
 40
0.3362614121117422
 40
0.3362614121117422
 40
0.3362614121117422
 40
0.3362614121117422
 40
0.3430891207344148
 40
0.3755557001470496
 40
0.4110496531909501
 40
0.4110496531909501
 40
0.4110496531909501
 40
0.4110496531909501
 10
16.44531709428123
 20
4.366921605122793
 30
0.0
 10
16.39526037007912
 20
4.361676664681132
 30
0.0
 10
16.10716083156767
 20
4.331158363465643
 30
0.0
 10
15.55868215948258
 20
4.269605866807191
 30
0.0
 10
15.06004994337316
 20
4.209478480549909
 30
0.0
 10
14.79957807526863
 20
4.177213227158456
 30
0.0
  0
ARC
  5
1DA
330
1F
100
AcDbEntity
  8
0
  6
Continuous
 62
     7
370
    25
100
AcDbCircle
 10
14.8241646241
 20
3.9787302263
 30
0.0
 40
0.2000000000000006
100
AcDbArc
 50
97.0613899986
 51
192.8521590687
  0
ARC
  5
1DB
330
1F
100
AcDbEntity
  8
0
  6
Continuous
 62
     7
370
    25
100
AcDbCircle
 10
13.8248436784
 20
3.7507331926
 30
0.0
 40
0.8249999999999991
100
AcDbArc
 50
294.4962790512
 51
12.8521590687
  0
ARC
  5
1DC
330
1F
100
AcDbEntity
  8
0
  6
Continuous
 62
     7
370
    25
100
AcDbCircle
 10
14.2498436784
 20
2.8179952873
 30
0.0
 40
0.2000000000000028
100
AcDbArc
 50
114.4962790512
 51
180.0
  0
LINE
  5
1DD
330
1F
100
AcDbEntity
  8
0
  6
Continuous
 62
     7
370
    25
100
AcDbLine
 10
14.0498436784
 20
2.1423283989
 30
0.0
 11
14.0498436784
 21
2.8179952873
 31
0.0
  0
ARC
  5
1DE
330
1F
100
AcDbEntity
  8
0
  6
Continuous
 62
     7
370
    25
100
AcDbCircle
 10
14.2498436784
 20
2.1423283989
 30
0.0
 40
0.2000000000000011
100
AcDbArc
 50
180.0
 51
312.4268885054
  0
LINE
  5
1DF
330
1F
100
AcDbEntity
  8
0
  6
Continuous
 62
     7
370
    25
100
AcDbLine
 10
16.6010887573
 20
4.0203827677
 30
0.0
 11
14.3847734514
 21
1.9947006361
 31
0.0
  0
ARC
  5
1E0
330
1F
100
AcDbEntity
  8
0
  6
Continuous
 62
     7
370
    25
100
AcDbCircle
 10
16.4661589843
 20
4.1680105305
 30
0.0
 40
0.1999999999999999
100
AcDbArc
 50
312.4268885054
 51
95.9816215157
  0
ARC
  5
1E1
330
1F
100
AcDbEntity
  8
0
  6
Continuous
 62
     7
370
    25
100
AcDbCircle
 10
19.4155545667
 20
2.3773455851
 30
0.0
 40
0.2000000000000002
100
AcDbArc
 50
281.855484399
 51
61.1174148316
  0
LINE
  5
1E2
330
1F
100
AcDbEntity
  8
0
  6
Continuous
 62
     7
370
    25
100
AcDbLine
 10
19.51215782
 20
2.5524678608
 30
0.0
 11
17.2367873169
 21
3.8076376694
 31
0.0
  0
ARC
  5
1E3
330
1F
100
AcDbEntity
  8
0
  6
Continuous
 62
     7
370
    25
100
AcDbCircle
 10
17.1401840635
 20
3.6325153937
 30
0.0
 40
0.2000000000000011
100
AcDbArc
 50
61.1174148316
 51
132.4268885054
  0
LINE
  5
1E4
330
1F
100
AcDbEntity
  8
0
  6
Continuous
 62
     7
370
    25
100
AcDbLine
 10
17.0052542905
 20
3.7801431565
 30
0.0
 11
15.9649139054
 21
2.8292861537
 31
0.0
  0
ARC
  5
1E5
330
1F
100
AcDbEntity
  8
0
  6
Continuous
 62
     7
370
    25
100
AcDbCircle
 10
16.0998436784
 20
2.6816583909
 30
0.0
 40
0.1999999999999993
100
AcDbArc
 50
132.4268885054
 51
180.0
  0
LINE
  5
1E6
330
1F
100
AcDbEntity
  8
0
  6
Continuous
 62
     7
370
    25
100
AcDbLine
 10
15.8998436784
 20
1.9506077805
 30
0.0
 11
15.8998436784
 21
2.6816583909
 31
0.0
  0
ARC
  5
1E7
330
1F
100
AcDbEntity
  8
0
  6
Continuous
 62
     7
370
    25
100
AcDbCircle
 10
16.0998436784
 20
1.9506077805
 30
0.0
 40
0.1999999999999998
100
AcDbArc
 50
180.0
 51
273.5596944512
  0
SPLINE
  5
1E8
330
1F
100
AcDbEntity
  8
0
  6
Continuous
 62
     7
370
    25
100
AcDbSpline
210
0.0
220
0.0
230
1.0
 70
     8
 71
     3
 72
    11
 73
     7
 74
     0
 42
0.00000001
 43
0.00000001
 40
0.6429174774366185
 40
0.6429174774366185
 40
0.6429174774366185
 40
0.6429174774366185
 40
0.686913106149885
 40
0.7493597521635109
 40
0.7805830751703239
 40
0.7911832058696918
 40
0.7911832058696918
 40
0.7911832058696918
 40
0.7911832058696918
 10
16.11226136392538
 20
1.750993650066934
 30
0.0
 10
16.44686095103391
 20
1.771808571539961
 30
0.0
 10
17.25479742780688
 20
1.83569722997633
 30
0.0
 10
18.29232231219714
 20
1.965545756398245
 30
0.0
 10
19.069152486643
 20
2.102480178718779
 30
0.0
 10
19.37842544349667
 20
2.165192168136873
 30
0.0
 10
19.45664334201503
 20
2.181611805382528
 30
0.0
  0
ARC
  5
1E9
330
1F
100
AcDbEntity
  8
0
  6
Continuous
 62
     7
370
    25
100
AcDbCircle
 10
8.3195850455
 20
1.8204021684
 30
0.0
 40
0.2000000000000124
100
AcDbArc
 50
173.0342477766
 51
262.8040860347
  0
SPLINE
  5
1EA
330
1F
100
AcDbEntity
  8
0
  6
Continuous
 62
     7
370
    25
100
AcDbSpline
210
0.0
220
0.0
230
1.0
 70
     8
 71
     3
 72
    14
 73
    10
 74
     0
 42
0.00000001
 43
0.00000001
 40
0.8513043678676254
 40
0.8513043678676254
 40
0.8513043678676254
 40
0.8513043678676254
 40
0.8560378532405389
 40
0.8660338344886196
 40
0.8756888427883988
 40
0.8849977189913464
 40
0.8939534257020234
 40
0.9025528972589622
 40
0.9054973013061784
 40
0.9054973013061784
 40
0.9054973013061784
 40
0.9054973013061784
 10
20.90000180079113
 20
2.086832836916967
 30
0.0
 10
20.93497903172311
 20
2.097640494225156
 30
0.0
 10
21.04366979689658
 20
2.131756222033751
 30
0.0
 10
21.22277750637108
 20
2.190835770647711
 30
0.0
 10
21.43401585824666
 20
2.265332605501052
 30
0.0
 10
21.63603072716915
 20
2.341638575093941
 30
0.0
 10
21.82866736387185
 20
2.419518602805571
 30
0.0
 10
21.97414430864273
 20
2.482585317463376
 30
0.0
 10
22.05541106123127
 20
2.519561346721106
 30
0.0
 10
22.07609328272088
 20
2.529091923994711
 30
0.0
  0
LINE
  5
1EB
330
1F
100
AcDbEntity
  8
0
  6
Continuous
 62
     7
370
    25
100
AcDbLine
 10
22.2452858823
 20
2.6099010467
 30
0.0
 11
22.1644767594
 21
2.7790936459
 31
0.0
  0
SPLINE
  5
1EC
330
1F
100
AcDbEntity
  8
0
  6
Continuous
 62
     7
370
    25
100
AcDbSpline
210
0.0
220
0.0
230
1.0
 70
     8
 71
     3
 72
    17
 73
    13
 74
     0
 42
0.00000001
 43
0.00000001
 40
0.1016614720720251
 40
0.1016614720720251
 40
0.1016614720720251
 40
0.1016614720720251
 40
0.1089998674022309
 40
0.118084529462581
 40
0.127514842657726
 40
0.1372852704325623
 40
0.1473879174712405
 40
0.1578164805284356
 40
0.1685634728403947
 40
0.1796191282126914
 40
0.1909773731687989
 40
0.2001435402442482
 40
0.2001435402442482
 40
0.2001435402442482
 40
0.2001435402442482
 10
21.60974019276689
 20
4.954876586121518
 30
0.0
 10
21.55569182441209
 20
4.961582352991444
 30
0.0
 10
21.43459166790828
 20
4.975442387400626
 30
0.0
 10
21.24356881393711
 20
4.993588186686864
 30
0.0
 10
21.0342383143228
 20
5.009454952731305
 30
0.0
 10
20.81712018753435
 20
5.022073705500824
 30
0.0
 10
20.59242518623874
 20
5.031484457799448
 30
0.0
 10
20.36036854457648
 20
5.03765143508951
 30
0.0
 10
20.12117753554342
 20
5.040670780306502
 30
0.0
 10
19.87506832085511
 20
5.040587821876148
 30
0.0
 10
19.64071131834969
 20
5.037614213596689
 30
0.0
 10
19.48842659052918
 20
5.034180562318322
 30
0.0
 10
19.42042417001392
 20
5.032361087964408
 30
0.0
  0
SPLINE
  5
1ED
330
1F
100
AcDbEntity
  8
0
  6
Continuous
 62
     7
370
    25
100
AcDbSpline
210
0.0
220
0.0
230
1.0
 70
     8
 71
     3
 72
    21
 73
    17
 74
     0
 42
0.00000001
 43
0.00000001
 40
0.913578602285428
 40
0.913578602285428
 40
0.913578602285428
 40
0.913578602285428
 40
0.9186607344498127
 40
0.9261662532257968
 40
0.9333026258827831
 40
0.9400712202263494
 40
0.9464747799611675
 40
0.9525175260177909
 40
0.9582048188585928
 40
0.9635466521340151
 40
0.9685565999026111
 40
0.9732499128166676
 40
0.9776510407515667
 40
0.9817870430140477
 40
0.9856942262062861
 40
0.9873639225097877
 40
0.9873639225097877
 40
0.9873639225097877
 40
0.9873639225097877
 10
22.24528588228768
 20
2.609901046650739
 30
0.0
 10
22.28050743680895
 20
2.627348636046804
 30
0.0
 10
22.36733993437596
 20
2.671382689804264
 30
0.0
 10
22.5016488338312
 20
2.743760445404726
 30
0.0
 10
22.64474347085309
 20
2.827151797416316
 30
0.0
 10
22.77749318946059
 20
2.911166760172465
 30
0.0
 10
22.89984219635247
 20
2.995592224846907
 30
0.0
 10
23.01162180550889
 20
3.080375200321394
 30
0.0
 10
23.11279361900146
 20
3.165301443308357
 30
0.0
 10
23.20329361224515
 20
3.250241633280947
 30
0.0
 10
23.28299242430802
 20
3.335137258692179
 30
0.0
 10
23.35189292382777
 20
3.419838817941857
 30
0.0
 10
23.40990481399884
 20
3.50427923015375
 30
0.0
 10
23.45701803031174
 20
3.588378594672767
 30
0.0
 10
23.48683021204253
 20
3.65748234667566
 30
0.0
 10
23.50057300984147
 20
3.698419167316219
 30
0.0
 10
23.50435485754412
 20
3.710775665984547
 30
0.0
  0
LINE
  5
1EE
330
1F
100
AcDbEntity
  8
0
  6
Continuous
 62
     7
370
    25
100
AcDbLine
 10
21.9952841599
 20
2.6982845233
 30
0.0
 11
22.0760932827
 21
2.529091924
 31
0.0
  0
SPLINE
  5
1EF
330
1F
100
AcDbEntity
  8
0
  6
Continuous
 62
     7
370
    25
100
AcDbSpline
210
0.0
220
0.0
230
1.0
 70
     8
 71
     3
 72
     8
 73
     4
 74
     0
 42
0.00000001
 43
0.00000001
 40
0.3039978368786456
 40
0.3039978368786456
 40
0.3039978368786456
 40
0.3039978368786456
 40
0.3083424724649536
 40
0.3083424724649536
 40
0.3083424724649536
 40
0.3083424724649536
 10
8.294532549352105
 20
1.621977440986664
 30
0.0
 10
8.327869504478937
 20
1.617768419502809
 30
0.0
 10
8.361207627462766
 20
1.613570922164474
 30
0.0
 10
8.394548038045137
 20
1.609393277640218
 30
0.0
  0
SPLINE
  5
1F0
330
1F
100
AcDbEntity
  8
0
  6
Continuous
 62
     7
370
    25
100
AcDbSpline
210
0.0
220
0.0
230
1.0
 70
     8
 71
     3
 72
    10
 73
     6
 74
     0
 42
0.00000001
 43
0.00000001
 40
0.4026300036255549
 40
0.4026300036255549
 40
0.4026300036255549
 40
0.4026300036255549
 40
0.4044033165867775
 40
0.4192566006634758
 40
0.4233343287137739
 40
0.4233343287137739
 40
0.4233343287137739
 40
0.4233343287137739
 10
10.57037176204083
 20
1.384070988082164
 30
0.0
 10
10.5840415563478
 20
1.38296247738587
 30
0.0
 10
10.71221418179639
 20
1.372624832911351
 30
0.0
 10
10.87187401962354
 20
1.360405624118704
 30
0.0
 10
11.01790820021701
 20
1.349906019386405
 30
0.0
 10
11.04936611854031
 20
1.347676152690345
 30
0.0
  0
MTEXT
  5
1F1
330
1F
100
AcDbEntity
  8
PART_NAMES
100
AcDbMText
 10
14.6210417787
 20
1.8139788615
 30
0.0
 40
0.1666666667
 41
0.0
 71
     1
 72
     1
  1
1.2.1.1.3
  7
SLDTEXTSTYLE0
 73
     1
 44
1.0
  0
ARC
  5
1F2
330
1F
100
AcDbEntity
  8
0
  6
Continuous
 62
     7
370
    25
100
AcDbCircle
 10
22.5954213455
 20
11.1974458844
 30
0.0
 40
0.1999999999999975
100
AcDbArc
 50
0.0
 51
90.0
  0
ARC
  5
1F3
330
1F
100
AcDbEntity
  8
0
  6
Continuous
 62
     7
370
    25
100
AcDbCircle
 10
22.5954213455
 20
10.3974458844
 30
0.0
 40
0.1999999999999993
100
AcDbArc
 50
270.0
 51
0.0
  0
ARC
  5
1F4
330
1F
100
AcDbEntity
  8
0
  6
Continuous
 62
     7
370
    25
100
AcDbCircle
 10
21.5897912129
 20
10.3974458844
 30
0.0
 40
0.1999999999999998
100
AcDbArc
 50
244.9831065219
 51
270.0
  0
ARC
  5
1F5
330
1F
100
AcDbEntity
  8
0
  6
Continuous
 62
     7
370
    25
100
AcDbCircle
 10
20.9954213455
 20
10.6748184892
 30
0.0
 40
0.2000000000000013
100
AcDbArc
 50
180.0
 51
244.9831065219
  0
ARC
  5
1F6
330
1F
100
AcDbEntity
  8
0
  6
Continuous
 62
     7
370
    25
100
AcDbCircle
 10
20.9954213455
 20
10.9200732797
 30
0.0
 40
0.1999999999999997
100
AcDbArc
 50
115.0168934781
 51
180.0
  0
ARC
  5
1F7
330
1F
100
AcDbEntity
  8
0
  6
Continuous
 62
     7
370
    25
100
AcDbCircle
 10
21.5897912129
 20
11.1974458844
 30
0.0
 40
0.1999999999999982
100
AcDbArc
 50
90.0
 51
115.0168934781
  0
LINE
  5
1F8
330
1F
100
AcDbEntity
  8
0
  6
Continuous
 62
     7
370
    25
100
AcDbLine
 10
20.9108442525
 20
11.1013099077
 30
0.0
 11
21.5052141198
 21
11.3786825124
 31
0.0
  0
LINE
  5
1F9
330
1F
100
AcDbEntity
  8
0
  6
Continuous
 62
     7
370
    25
100
AcDbLine
 10
21.5897912129
 20
11.3974458844
 30
0.0
 11
22.5954213455
 21
11.3974458844
 31
0.0
  0
LINE
  5
1FA
330
1F
100
AcDbEntity
  8
0
  6
Continuous
 62
     7
370
    25
100
AcDbLine
 10
22.7954213455
 20
11.1974458844
 30
0.0
 11
22.7954213455
 21
10.3974458844
 31
0.0
  0
LINE
  5
1FB
330
1F
100
AcDbEntity
  8
0
  6
Continuous
 62
     7
370
    25
100
AcDbLine
 10
21.5897912129
 20
10.1974458844
 30
0.0
 11
22.5954213455
 21
10.1974458844
 31
0.0
  0
LINE
  5
1FC
330
1F
100
AcDbEntity
  8
0
  6
Continuous
 62
     7
370
    25
100
AcDbLine
 10
20.9108442525
 20
10.4935818612
 30
0.0
 11
21.5052141198
 21
10.2162092564
 31
0.0
  0
LINE
  5
1FD
330
1F
100
AcDbEntity
  8
0
  6
Continuous
 62
     7
370
    25
100
AcDbLine
 10
20.7954213455
 20
10.9200732797
 30
0.0
 11
20.7954213455
 21
10.6748184892
 31
0.0
  0
ARC
  5
1FE
330
1F
100
AcDbEntity
  8
0
  6
Continuous
 62
     7
370
    25
100
AcDbCircle
 10
6.7637261598
 20
0.7707850836
 30
0.0
 40
0.1000000000000003
100
AcDbArc
 50
26.5650511771
 51
52.7863552889
  0
ARC
  5
1FF
330
1F
100
AcDbEntity
  8
0
  6
Continuous
 62
     7
370
    25
100
AcDbCircle
 10
5.9880667572
 20
1.3598338122
 30
0.0
 40
0.1000000000000001
100
AcDbArc
 50
52.7863552889
 51
91.1495564877
  0
ARC
  5
200
330
1F
100
AcDbEntity
  8
0
  6
Continuous
 62
     7
370
    25
100
AcDbCircle
 10
5.1635105855
 20
1.9442603673
 30
0.0
 40
0.1000000000000007
100
AcDbArc
 50
18.1941595112
 51
46.6087731113
  0
ARC
  5
201
330
1F
100
AcDbEntity
  8
0
  6
Continuous
 62
     7
370
    25
100
AcDbCircle
 10
2.1980860686
 20
4.7476629391
 30
0.0
 40
0.1000000000000005
100
AcDbArc
 50
46.6087731113
 51
135.0
  0
ARC
  5
202
330
1F
100
AcDbEntity
  8
0
  6
Continuous
 62
     7
370
    25
100
AcDbCircle
 10
1.9255382998
 20
4.7579578828
 30
0.0
 40
0.1000000000000008
100
AcDbArc
 50
243.4349488229
 51
315.0
  0
ARC
  5
203
330
1F
100
AcDbEntity
  8
0
  6
Continuous
 62
     7
370
    25
100
AcDbCircle
 10
1.4581218515
 20
5.2154937023
 30
0.0
 40
0.1000000000000009
100
AcDbArc
 50
148.1980576335
 51
206.5650511771
  0
ARC
  5
204
330
1F
100
AcDbEntity
  8
0
  6
Continuous
 62
     7
370
    25
100
AcDbCircle
 10
5.7852486175
 20
5.2906797939
 30
0.0
 40
0.1
100
AcDbArc
 50
239.0206378871
 51
279.462322208
  0
ARC
  5
205
330
1F
100
AcDbEntity
  8
0
  6
Continuous
 62
     7
370
    25
100
AcDbCircle
 10
6.110390767
 20
5.1421114011
 30
0.0
 40
0.1
100
AcDbArc
 50
315.0
 51
99.462322208
  0
ARC
  5
206
330
1F
100
AcDbEntity
  8
0
  6
Continuous
 62
     7
370
    25
100
AcDbCircle
 10
6.4285888186
 20
4.8239133496
 30
0.0
 40
0.0999999999999998
100
AcDbArc
 50
350.537677792
 51
135.0
  0
ARC
  5
207
330
1F
100
AcDbEntity
  8
0
  6
Continuous
 62
     7
370
    25
100
AcDbCircle
 10
6.5753214332
 20
4.4877565311
 30
0.0
 40
0.1000000000000009
100
AcDbArc
 50
170.537677792
 51
199.3289737822
  0
ARC
  5
208
330
1F
100
AcDbEntity
  8
0
  6
Continuous
 62
     7
370
    25
100
AcDbCircle
 10
7.6013264165
 20
1.5626888973
 30
0.0
 40
0.1000000000000009
100
AcDbArc
 50
199.3289737822
 51
225.0
  0
ARC
  5
209
330
1F
100
AcDbEntity
  8
0
  6
Continuous
 62
     7
370
    25
100
AcDbCircle
 10
7.9741239775
 20
0.9070486238
 30
0.0
 40
0.1000000000000007
100
AcDbArc
 50
315.0
 51
45.0
  0
ARC
  5
20A
330
1F
100
AcDbEntity
  8
0
  6
Continuous
 62
     7
370
    25
100
AcDbCircle
 10
7.4240485867
 20
0.356973233
 30
0.0
 40
0.1000000000000007
100
AcDbArc
 50
243.4349488229
 51
315.0
  0
ARC
  5
20B
330
1F
100
AcDbEntity
  8
0
  6
Continuous
 62
     7
370
    25
100
AcDbCircle
 10
7.0478481981
 20
1.1828543725
 30
0.0
 40
0.1000000000000006
100
AcDbArc
 50
232.7863552889
 51
315.0
  0
ARC
  5
20C
330
1F
100
AcDbEntity
  8
0
  6
Continuous
 62
     7
370
    25
100
AcDbCircle
 10
7.1639629014
 20
1.2989690758
 30
0.0
 40
0.1000000000000009
100
AcDbArc
 50
315.0
 51
19.3289737822
  0
ARC
  5
20D
330
1F
100
AcDbEntity
  8
0
  6
Continuous
 62
     7
370
    25
100
AcDbCircle
 10
6.8233005849
 20
2.2701732437
 30
0.0
 40
0.1000000000000009
100
AcDbArc
 50
19.3289737822
 51
109.3289737822
  0
LINE
  5
20E
330
1F
100
AcDbEntity
  8
0
  6
Continuous
 62
     7
370
    25
100
AcDbLine
 10
6.785865332
 20
2.3630156735
 30
0.0
 11
6.790201423
 21
2.364536613
 31
0.0
  0
ARC
  5
20F
330
1F
100
AcDbEntity
  8
0
  6
Continuous
 62
     7
370
    25
100
AcDbCircle
 10
6.8189644939
 20
2.2686523041
 30
0.0
 40
0.0999999999999998
100
AcDbArc
 50
109.3289737822
 51
183.9794967652
  0
ARC
  5
210
330
1F
100
AcDbEntity
  8
0
  6
Continuous
 62
     7
370
    25
100
AcDbCircle
 10
6.5341472268
 20
1.5729674853
 30
0.0
 40
0.1000000000000005
100
AcDbArc
 50
131.4915673018
 51
232.7863552889
  0
ARC
  5
211
330
1F
100
AcDbEntity
  8
0
  6
Continuous
 62
     7
370
    25
100
AcDbCircle
 10
1.5858601986
 20
6.5240096501
 30
0.0
 40
0.1
100
AcDbArc
 50
3.533000646
 51
131.6231250323
  0
ARC
  5
212
330
1F
100
AcDbEntity
  8
0
  6
Continuous
 62
     7
370
    25
100
AcDbCircle
 10
1.15413899
 20
6.3198598008
 30
0.0
 40
0.1
100
AcDbArc
 50
98.9933988989
 51
213.3091380701
  0
ARC
  5
213
330
1F
100
AcDbEntity
  8
0
  6
Continuous
 62
     7
370
    25
100
AcDbCircle
 10
1.5886910049
 20
5.658547455
 30
0.0
 40
0.1000000000000001
100
AcDbArc
 50
213.3091380701
 51
315.0
  0
ARC
  5
214
330
1F
100
AcDbEntity
  8
0
  6
Continuous
 62
     7
370
    25
100
AcDbCircle
 10
1.636351878
 20
5.706208328
 30
0.0
 40
0.0999999999999996
100
AcDbArc
 50
315.0
 51
3.533000646
  0
LINE
  5
215
330
1F
100
AcDbEntity
  8
0
  6
Continuous
 62
     7
370
    25
100
AcDbLine
 10
1.7361618251
 20
5.7123706705
 30
0.0
 11
1.6856701457
 21
6.5301719926
 31
0.0
  0
ARC
  5
216
330
1F
100
AcDbEntity
  8
0
  6
Continuous
 62
     7
370
    25
100
AcDbCircle
 10
2.3683479364
 20
5.4152990278
 30
0.0
 40
0.1000000000000001
100
AcDbArc
 50
225.0
 51
259.509428012
  0
LINE
  5
217
330
1F
100
AcDbEntity
  8
0
  6
Continuous
 62
     7
370
    25
100
AcDbLine
 10
5.2905657845
 20
4.7724953892
 30
0.0
 11
2.3501405636
 21
5.3169705397
 31
0.0
  0
ARC
  5
218
330
1F
100
AcDbEntity
  8
0
  6
Continuous
 62
     7
370
    25
100
AcDbCircle
 10
5.3087731574
 20
4.8708238773
 30
0.0
 40
0.1000000000000016
100
AcDbArc
 50
259.509428012
 51
315.0
  0
ARC
  5
219
330
1F
100
AcDbEntity
  8
0
  6
Continuous
 62
     7
370
    25
100
AcDbCircle
 10
5.3854599013
 20
4.9475106213
 30
0.0
 40
0.1000000000000011
100
AcDbArc
 50
315.0
 51
59.0206378871
  0
ARC
  5
21A
330
1F
100
AcDbEntity
  8
0
  6
Continuous
 62
     7
370
    25
100
AcDbCircle
 10
2.0088909148
 20
6.9747029715
 30
0.0
 40
0.1000000000000004
100
AcDbArc
 50
59.0206378871
 51
183.533000646
  0
LINE
  5
21B
330
1F
100
AcDbEntity
  8
0
  6
Continuous
 62
     7
370
    25
100
AcDbLine
 10
1.9880417052
 20
5.6896329695
 30
0.0
 11
1.9090809677
 21
6.968540629
 31
0.0
  0
ARC
  5
21C
330
1F
100
AcDbEntity
  8
0
  6
Continuous
 62
     7
370
    25
100
AcDbCircle
 10
2.0878516522
 20
5.695795312
 30
0.0
 40
0.1000000000000004
100
AcDbArc
 50
183.533000646
 51
225.0
  0
ARC
  5
21D
330
1F
100
AcDbEntity
  8
0
  6
Continuous
 62
     7
370
    25
100
AcDbCircle
 10
5.7280640027
 20
4.0211949171
 30
0.0
 40
0.1000000000000004
100
AcDbArc
 50
335.7059627303
 51
45.0
  0
ARC
  5
21E
330
1F
100
AcDbEntity
  8
0
  6
Continuous
 62
     7
370
    25
100
AcDbCircle
 10
5.3422912104
 20
4.4069677095
 30
0.0
 40
0.1000000000000004
100
AcDbArc
 50
45.0
 51
79.509428012
  0
LINE
  5
21F
330
1F
100
AcDbEntity
  8
0
  6
Continuous
 62
     7
370
    25
100
AcDbLine
 10
5.3604985832
 20
4.5052961976
 30
0.0
 11
2.8037056011
 21
4.9787346084
 31
0.0
  0
ARC
  5
220
330
1F
100
AcDbEntity
  8
0
  6
Continuous
 62
     7
370
    25
100
AcDbCircle
 10
2.7854982282
 20
4.8804061202
 30
0.0
 40
0.1
100
AcDbArc
 50
79.509428012
 51
226.6087731113
  0
ARC
  5
221
330
1F
100
AcDbEntity
  8
0
  6
Continuous
 62
     7
370
    25
100
AcDbCircle
 10
5.1197930522
 20
2.6736501985
 30
0.0
 40
0.1000000000000021
100
AcDbArc
 50
226.6087731113
 51
335.7059627303
  0
LINE
  5
222
330
1F
100
AcDbEntity
  8
0
  6
Continuous
 62
     7
370
    25
100
AcDbLine
 10
5.210937662
 20
2.6325082478
 30
0.0
 11
5.8192086125
 21
3.9800529664
 31
0.0
  0
LINE
  5
223
330
1F
100
AcDbEntity
  8
0
  6
Continuous
 62
     7
370
    25
100
AcDbLine
 10
5.6865581656
 20
3.0785309783
 30
0.0
 11
6.1235062913
 21
4.0465323905
 31
0.0
  0
ARC
  5
224
330
1F
100
AcDbEntity
  8
0
  6
Continuous
 62
     7
370
    25
100
AcDbCircle
 10
5.7777027754
 20
3.0373890276
 30
0.0
 40
0.1000000000000004
100
AcDbArc
 50
155.7059627303
 51
283.1455084374
  0
ARC
  5
225
330
1F
100
AcDbEntity
  8
0
  6
Continuous
 62
     7
370
    25
100
AcDbCircle
 10
6.6700182653
 20
2.6932874663
 30
0.0
 40
0.1000000000000001
100
AcDbArc
 50
214.6784507992
 51
289.3289737822
  0
LINE
  5
226
330
1F
100
AcDbEntity
  8
0
  6
Continuous
 62
     7
370
    25
100
AcDbLine
 10
6.7031174272
 20
2.598924097
 30
0.0
 11
6.7074535182
 21
2.6004450365
 31
0.0
  0
ARC
  5
227
330
1F
100
AcDbEntity
  8
0
  6
Continuous
 62
     7
370
    25
100
AcDbCircle
 10
6.6743543563
 20
2.6948084059
 30
0.0
 40
0.1
100
AcDbArc
 50
289.3289737822
 51
19.3289737822
  0
ARC
  5
228
330
1F
100
AcDbEntity
  8
0
  6
Continuous
 62
     7
370
    25
100
AcDbCircle
 10
6.2146509011
 20
4.0053904398
 30
0.0
 40
0.1000000000000011
100
AcDbArc
 50
19.3289737822
 51
155.7059627303
  0
CIRCLE
  5
229
330
1F
100
AcDbEntity
  8
0
  6
Continuous
 62
     7
370
    25
100
AcDbCircle
 10
5.9710138875
 20
2.2096627359
 30
0.0
 40
0.3750000000000002
  0
LINE
  5
22A
330
1F
100
AcDbEntity
  8
0
  6
Continuous
 62
     7
370
    25
100
AcDbLine
 10
7.2346735795
 20
1.2282583976
 30
0.0
 11
7.1185588763
 21
1.1121436944
 31
0.0
  0
LINE
  5
22B
330
1F
100
AcDbEntity
  8
0
  6
Continuous
 62
     7
370
    25
100
AcDbLine
 10
6.4766820408
 20
4.5041964299
 30
0.0
 11
6.5272282109
 21
4.8074734508
 31
0.0
  0
CIRCLE
  5
22C
330
1F
100
AcDbEntity
  8
0
  6
Continuous
 62
     7
370
    25
100
AcDbCircle
 10
1.0212664192
 20
7.1594102042
 30
0.0
 40
0.3749999999999989
  0
LINE
  5
22D
330
1F
100
AcDbEntity
  8
0
  6
Continuous
 62
     7
370
    25
100
AcDbLine
 10
6.9176639543
 20
2.3032724056
 30
0.0
 11
7.2583262708
 21
1.3320682377
 31
0.0
  0
LINE
  5
22E
330
1F
100
AcDbEntity
  8
0
  6
Continuous
 62
     7
370
    25
100
AcDbLine
 10
5.3794838355
 20
4.8001131992
 30
0.0
 11
5.4561705794
 21
4.8767999432
 31
0.0
  0
ARC
  5
22F
330
1F
100
AcDbEntity
  8
0
  6
Continuous
 62
     7
370
    25
100
AcDbCircle
 10
1.0212664192
 20
7.1594102042
 30
0.0
 40
0.7500000000000002
100
AcDbArc
 50
278.9933988989
 51
311.6231250323
  0
LINE
  5
230
330
1F
100
AcDbEntity
  8
0
  6
Continuous
 62
     7
370
    25
100
AcDbLine
 10
1.5051190262
 20
5.6036318436
 30
0.0
 11
1.0705670112
 21
6.2649441894
 31
0.0
  0
LINE
  5
231
330
1F
100
AcDbEntity
  8
0
  6
Continuous
 62
     7
370
    25
100
AcDbLine
 10
1.7070625561
 20
5.6354976499
 30
0.0
 11
1.6594016831
 21
5.5878367769
 31
0.0
  0
ARC
  5
232
330
1F
100
AcDbEntity
  8
0
  6
Continuous
 62
     7
370
    25
100
AcDbCircle
 10
5.9710138875
 20
2.2096627359
 30
0.0
 40
0.7500000000000013
100
AcDbArc
 50
311.4915673018
 51
3.9794967652
  0
LINE
  5
233
330
1F
100
AcDbEntity
  8
0
  6
Continuous
 62
     7
370
    25
100
AcDbLine
 10
6.9873693194
 20
1.1032157812
 30
0.0
 11
6.4736683481
 21
1.493328894
 31
0.0
  0
LINE
  5
234
330
1F
100
AcDbEntity
  8
0
  6
Continuous
 62
     7
370
    25
100
AcDbLine
 10
6.4809580638
 20
4.4546573692
 30
0.0
 11
7.5069630471
 21
1.5295897354
 31
0.0
  0
LINE
  5
235
330
1F
100
AcDbEntity
  8
0
  6
Continuous
 62
     7
370
    25
100
AcDbLine
 10
7.5306157383
 20
1.4919782192
 30
0.0
 11
8.0448346556
 21
0.977759302
 31
0.0
  0
LINE
  5
236
330
1F
100
AcDbEntity
  8
0
  6
Continuous
 62
     7
370
    25
100
AcDbLine
 10
8.0448346556
 20
0.8363379457
 30
0.0
 11
7.4947592648
 21
0.2862625549
 31
0.0
  0
LINE
  5
237
330
1F
100
AcDbEntity
  8
0
  6
Continuous
 62
     7
370
    25
100
AcDbLine
 10
7.090240501
 20
0.412073877
 30
0.0
 11
7.3793272271
 21
0.2675305139
 31
0.0
  0
LINE
  5
238
330
1F
100
AcDbEntity
  8
0
  6
Continuous
 62
     7
370
    25
100
AcDbLine
 10
7.4437938916
 20
0.7656272676
 30
0.0
 11
7.090240501
 21
0.412073877
 31
0.0
  0
LINE
  5
239
330
1F
100
AcDbEntity
  8
0
  6
Continuous
 62
     7
370
    25
100
AcDbLine
 10
7.3730832135
 20
0.8363379457
 30
0.0
 11
7.4437938916
 21
0.7656272676
 31
0.0
  0
LINE
  5
23A
330
1F
100
AcDbEntity
  8
0
  6
Continuous
 62
     7
370
    25
100
AcDbLine
 10
7.0195298229
 20
0.4827845551
 30
0.0
 11
7.3730832135
 21
0.8363379457
 31
0.0
  0
LINE
  5
23B
330
1F
100
AcDbEntity
  8
0
  6
Continuous
 62
     7
370
    25
100
AcDbLine
 10
7.0195298229
 20
0.4827845551
 30
0.0
 11
6.8531688789
 21
0.8155064431
 31
0.0
  0
LINE
  5
23C
330
1F
100
AcDbEntity
  8
0
  6
Continuous
 62
     7
370
    25
100
AcDbLine
 10
6.8242050385
 20
0.8504236749
 30
0.0
 11
6.0485456359
 21
1.4394724035
 31
0.0
  0
ARC
  5
23D
330
1F
100
AcDbEntity
  8
0
  6
Continuous
 62
     7
370
    25
100
AcDbCircle
 10
5.9710138875
 20
2.2096627359
 30
0.0
 40
0.7500000000000001
100
AcDbArc
 50
198.1941595112
 51
271.1495564877
  0
LINE
  5
23E
330
1F
100
AcDbEntity
  8
0
  6
Continuous
 62
     7
370
    25
100
AcDbLine
 10
2.2667836936
 20
4.820330926
 30
0.0
 11
5.2322082105
 21
2.0169283542
 31
0.0
  0
LINE
  5
23F
330
1F
100
AcDbEntity
  8
0
  6
Continuous
 62
     7
370
    25
100
AcDbLine
 10
2.1273753905
 20
4.8183736173
 30
0.0
 11
1.996248978
 21
4.6872472047
 31
0.0
  0
LINE
  5
240
330
1F
100
AcDbEntity
  8
0
  6
Continuous
 62
     7
370
    25
100
AcDbLine
 10
1.5917302142
 20
4.8130585268
 30
0.0
 11
1.8808169403
 21
4.6685151637
 31
0.0
  0
LINE
  5
241
330
1F
100
AcDbEntity
  8
0
  6
Continuous
 62
     7
370
    25
100
AcDbLine
 10
1.9452836047
 20
5.1666119174
 30
0.0
 11
1.5917302142
 21
4.8130585268
 31
0.0
  0
LINE
  5
242
330
1F
100
AcDbEntity
  8
0
  6
Continuous
 62
     7
370
    25
100
AcDbLine
 10
1.8568952571
 20
5.255000265
 30
0.0
 11
1.9452836047
 21
5.1666119174
 31
0.0
  0
LINE
  5
243
330
1F
100
AcDbEntity
  8
0
  6
Continuous
 62
     7
370
    25
100
AcDbLine
 10
1.5033418665
 20
4.9014468744
 30
0.0
 11
1.8568952571
 21
5.255000265
 31
0.0
  0
LINE
  5
244
330
1F
100
AcDbEntity
  8
0
  6
Continuous
 62
     7
370
    25
100
AcDbLine
 10
1.5033418665
 20
4.9014468744
 30
0.0
 11
1.3686791324
 21
5.1707723427
 31
0.0
  0
LINE
  5
245
330
1F
100
AcDbEntity
  8
0
  6
Continuous
 62
     7
370
    25
100
AcDbLine
 10
1.355935422
 20
5.2843705158
 30
0.0
 11
1.3731343686
 21
5.268192163
 31
0.0
  0
LINE
  5
246
330
1F
100
AcDbEntity
  8
0
  6
Continuous
 62
     7
370
    25
100
AcDbLine
 10
1.355935422
 20
5.2843705158
 30
0.0
 11
0.3944765786
 21
6.7475431191
 31
0.0
  0
ARC
  5
247
330
1F
100
AcDbEntity
  8
0
  6
Continuous
 62
     7
370
    25
100
AcDbCircle
 10
1.0212664192
 20
7.1594102042
 30
0.0
 40
0.7500000000000008
100
AcDbArc
 50
59.0206378871
 51
213.3091380701
  0
LINE
  5
248
330
1F
100
AcDbEntity
  8
0
  6
Continuous
 62
     7
370
    25
100
AcDbLine
 10
5.7337756884
 20
5.2049445177
 30
0.0
 11
1.4073133872
 21
7.8024247752
 31
0.0
  0
LINE
  5
249
330
1F
100
AcDbEntity
  8
0
  6
Continuous
 62
     7
370
    25
100
AcDbLine
 10
5.8016885162
 20
5.1920404015
 30
0.0
 11
6.0939508683
 21
5.2407507935
 31
0.0
  0
LINE
  5
24A
330
1F
100
AcDbEntity
  8
0
  6
Continuous
 62
     7
370
    25
100
AcDbLine
 10
5.765355542
 20
4.6556548199
 30
0.0
 11
6.1811014451
 21
5.071400723
 31
0.0
  0
LINE
  5
24B
330
1F
100
AcDbEntity
  8
0
  6
Continuous
 62
     7
370
    25
100
AcDbLine
 10
5.765355542
 20
4.6556548199
 30
0.0
 11
5.9421322373
 21
4.4788781246
 31
0.0
  0
LINE
  5
24C
330
1F
100
AcDbEntity
  8
0
  6
Continuous
 62
     7
370
    25
100
AcDbLine
 10
5.9421322373
 20
4.4788781246
 30
0.0
 11
6.3578781404
 21
4.8946240277
 31
0.0
  0
LINE
  5
24D
330
1F
100
AcDbEntity
  8
0
  6
Continuous
 62
     7
370
    25
100
AcDbLine
 10
6.3090142705
 20
4.0384896017
 30
0.0
 11
6.7687177256
 21
2.7279075678
 31
0.0
  0
ARC
  5
24E
330
1F
100
AcDbEntity
  8
0
  6
Continuous
 62
     7
370
    25
100
AcDbCircle
 10
5.9710138875
 20
2.2096627359
 30
0.0
 40
0.7500000000000008
100
AcDbArc
 50
34.6784507992
 51
103.1455084374
  0
LINE
  5
24F
330
1F
100
AcDbEntity
  8
0
  6
Continuous
 62
     7
370
    25
100
AcDbLine
 10
5.4369328304
 20
5.0332458974
 30
0.0
 11
2.0603638439
 21
7.0604382476
 31
0.0
  0
LINE
  5
250
330
1F
100
AcDbEntity
  8
0
  6
Continuous
 62
     7
370
    25
100
AcDbLine
 10
2.0171409741
 20
5.6250846339
 30
0.0
 11
2.2976372583
 21
5.3445883497
 31
0.0
  0
LINE
  5
251
330
1F
100
AcDbEntity
  8
0
  6
Continuous
 62
     7
370
    25
100
AcDbLine
 10
5.4130018885
 20
4.4776783876
 30
0.0
 11
5.7987746808
 21
4.0919055952
 31
0.0
  0
LINE
  5
252
330
1F
100
AcDbEntity
  8
0
  6
Continuous
 62
     7
370
    25
100
AcDbLine
 10
5.0510954272
 20
2.6009822116
 30
0.0
 11
2.7168006033
 21
4.8077381333
 31
0.0
  0
MTEXT
  5
253
330
1F
100
AcDbEntity
  8
PART_NAMES
100
AcDbMText
 10
5.3721471776
 20
2.8462262988
 30
0.0
 40
0.1666666667
 41
0.0
 71
     1
 72
     1
  1
1.2.2.1.6
  7
SLDTEXTSTYLE0
 73
     1
 44
1.0
  0
ARC
  5
254
330
1F
100
AcDbEntity
  8
0
  6
Continuous
 62
     7
370
    25
100
AcDbCircle
 10
6.763605271
 20
7.1145109027
 30
0.0
 40
0.2000000000000002
100
AcDbArc
 50
0.0
 51
90.0
  0
ARC
  5
255
330
1F
100
AcDbEntity
  8
0
  6
Continuous
 62
     7
370
    25
100
AcDbCircle
 10
6.763605271
 20
6.3145109027
 30
0.0
 40
0.1999999999999993
100
AcDbArc
 50
270.0
 51
0.0
  0
ARC
  5
256
330
1F
100
AcDbEntity
  8
0
  6
Continuous
 62
     7
370
    25
100
AcDbCircle
 10
5.7579751384
 20
6.3145109027
 30
0.0
 40
0.2000000000000001
100
AcDbArc
 50
244.9831065219
 51
270.0
  0
ARC
  5
257
330
1F
100
AcDbEntity
  8
0
  6
Continuous
 62
     7
370
    25
100
AcDbCircle
 10
5.163605271
 20
6.5918835075
 30
0.0
 40
0.2000000000000005
100
AcDbArc
 50
180.0
 51
244.9831065219
  0
ARC
  5
258
330
1F
100
AcDbEntity
  8
0
  6
Continuous
 62
     7
370
    25
100
AcDbCircle
 10
5.163605271
 20
6.837138298
 30
0.0
 40
0.2000000000000002
100
AcDbArc
 50
115.0168934781
 51
180.0
  0
ARC
  5
259
330
1F
100
AcDbEntity
  8
0
  6
Continuous
 62
     7
370
    25
100
AcDbCircle
 10
5.7579751384
 20
7.1145109027
 30
0.0
 40
0.2000000000000002
100
AcDbArc
 50
90.0
 51
115.0168934781
  0
LINE
  5
25A
330
1F
100
AcDbEntity
  8
0
  6
Continuous
 62
     7
370
    25
100
AcDbLine
 10
5.079028178
 20
7.018374926
 30
0.0
 11
5.6733980453
 21
7.2957475307
 31
0.0
  0
LINE
  5
25B
330
1F
100
AcDbEntity
  8
0
  6
Continuous
 62
     7
370
    25
100
AcDbLine
 10
5.7579751384
 20
7.3145109027
 30
0.0
 11
6.763605271
 21
7.3145109027
 31
0.0
  0
LINE
  5
25C
330
1F
100
AcDbEntity
  8
0
  6
Continuous
 62
     7
370
    25
100
AcDbLine
 10
6.963605271
 20
7.1145109027
 30
0.0
 11
6.963605271
 21
6.3145109027
 31
0.0
  0
LINE
  5
25D
330
1F
100
AcDbEntity
  8
0
  6
Continuous
 62
     7
370
    25
100
AcDbLine
 10
5.7579751384
 20
6.1145109027
 30
0.0
 11
6.763605271
 21
6.1145109027
 31
0.0
  0
LINE
  5
25E
330
1F
100
AcDbEntity
  8
0
  6
Continuous
 62
     7
370
    25
100
AcDbLine
 10
5.079028178
 20
6.4106468795
 30
0.0
 11
5.6733980453
 21
6.1332742747
 31
0.0
  0
LINE
  5
25F
330
1F
100
AcDbEntity
  8
0
  6
Continuous
 62
     7
370
    25
100
AcDbLine
 10
4.963605271
 20
6.837138298
 30
0.0
 11
4.963605271
 21
6.5918835075
 31
0.0
  0
MTEXT
  5
261
330
1F
100
AcDbEntity
  8
0
  6
Continuous
 62
     7
100
AcDbMText
 10
0.0
 20
0.5790104628
 30
0.0
 40
0.2076
 41
0.0
 71
     1
 72
     1
  1
SOLIDWORKS Educational Product.
  7
SLDTEXTSTYLE1
 73
     1
 44
1.0
  0
MTEXT
  5
262
330
1F
100
AcDbEntity
  8
0
  6
Continuous
 62
     7
100
AcDbMText
 10
0.0
 20
0.2676104628
 30
0.0
 40
0.2076
 41
0.0
 71
     1
 72
     1
  1
For Instructional Use Only.
  7
SLDTEXTSTYLE1
 73
     1
 44
1.0
  0
ENDSEC
  0
SECTION
  2
OBJECTS
  0
DICTIONARY
  5
C
330
0
100
AcDbDictionary
281
     1
  3
ACAD_GROUP
350
D
  3
ACAD_LAYOUT
350
1A
  3
ACAD_MLINESTYLE
350
17
  3
ACAD_PLOTSETTINGS
350
19
  3
ACAD_PLOTSTYLENAME
350
E
  3
ACAD_SCALELIST
350
47
  3
DWGPROPS
350
263
  0
DICTIONARY
  5
D
102
{ACAD_REACTORS
330
C
102
}
330
C
100
AcDbDictionary
281
     1
  0
DICTIONARY
  5
1A
102
{ACAD_REACTORS
330
C
102
}
330
C
100
AcDbDictionary
281
     1
  3
Layout1
350
1E
  3
Layout2
350
26
  3
Model
350
22
  0
DICTIONARY
  5
17
102
{ACAD_REACTORS
330
C
102
}
330
C
100
AcDbDictionary
281
     1
  3
Standard
350
18
  0
DICTIONARY
  5
19
102
{ACAD_REACTORS
330
C
102
}
330
C
100
AcDbDictionary
281
     1
  0
ACDBDICTIONARYWDFLT
  5
E
102
{ACAD_REACTORS
330
C
102
}
330
C
100
AcDbDictionary
281
     1
  3
Normal
350
F
100
AcDbDictionaryWithDefault
340
F
  0
DICTIONARY
  5
47
102
{ACAD_REACTORS
330
C
102
}
330
C
100
AcDbDictionary
281
     1
  3
A0
350
48
  3
A1
350
49
  3
A2
350
4A
  3
A3
350
4B
  3
A4
350
4C
  3
A5
350
4D
  3
A6
350
4E
  3
A7
350
4F
  3
A8
350
50
  3
A9
350
51
  3
B1
350
52
  3
B2
350
53
  3
B3
350
54
  3
B4
350
55
  3
B5
350
56
  3
B6
350
57
  3
B7
350
58
  0
XRECORD
  5
263
102
{ACAD_REACTORS
330
C
102
}
330
C
100
AcDbXrecord
280
     1
  1
DWGPROPS COOKIE
  2

  3

  4

  6

  7

  8
ucmai
  9

300
=
301
=
302
=
303
=
304
=
305
=
306
=
307
=
308
=
309
=
 40
0.0
 41
2460722.926422708
 42
2460722.926423368
  1

 90
        0
  0
LAYOUT
  5
1E
102
{ACAD_REACTORS
330
1A
102
}
330
1A
100
AcDbPlotSettings
  1

  2
none_device
  4

  6

 40
0.0
 41
0.0
 42
0.0
 43
0.0
 44
0.0
 45
0.0
 46
0.0
 47
0.0
 48
0.0
 49
0.0
140
0.0
141
0.0
142
1.0
143
1.0
 70
   688
 72
     0
 73
     0
 74
     5
  7

 75
    16
147
1.0
148
0.0
149
0.0
100
AcDbLayout
  1
Layout1
 70
     1
 71
     1
 10
0.0
 20
0.0
 11
12.0
 21
9.0
 12
0.0
 22
0.0
 32
0.0
 14
1.0000000000E+20
 24
1.0000000000E+20
 34
1.0000000000E+20
 15
-1.0000000000E+20
 25
-1.0000000000E+20
 35
-1.0000000000E+20
146
0.0
 13
0.0
 23
0.0
 33
0.0
 16
1.0
 26
0.0
 36
0.0
 17
0.0
 27
1.0
 37
0.0
 76
     0
330
1B
  0
LAYOUT
  5
26
102
{ACAD_REACTORS
330
1A
102
}
330
1A
100
AcDbPlotSettings
  1

  2
none_device
  4

  6

 40
0.0
 41
0.0
 42
0.0
 43
0.0
 44
0.0
 45
0.0
 46
0.0
 47
0.0
 48
0.0
 49
0.0
140
0.0
141
0.0
142
1.0
143
1.0
 70
   688
 72
     0
 73
     0
 74
     5
  7

 75
    16
147
1.0
148
0.0
149
0.0
100
AcDbLayout
  1
Layout2
 70
     1
 71
     2
 10
0.0
 20
0.0
 11
0.0
 21
0.0
 12
0.0
 22
0.0
 32
0.0
 14
0.0
 24
0.0
 34
0.0
 15
0.0
 25
0.0
 35
0.0
146
0.0
 13
0.0
 23
0.0
 33
0.0
 16
1.0
 26
0.0
 36
0.0
 17
0.0
 27
1.0
 37
0.0
 76
     0
330
23
  0
LAYOUT
  5
22
102
{ACAD_REACTORS
330
1A
102
}
330
1A
100
AcDbPlotSettings
  1

  2
none_device
  4
Letter_(8.50_x_11.00_Inches)
  6

 40
6.35
 41
6.35
 42
6.35000508
 43
6.35000508
 44
215.9
 45
279.4
 46
0.0
 47
0.0
 48
0.0
 49
0.0
140
0.0
141
0.0
142
1.0
143
1.0
 70
  1712
 72
     0
 73
     0
 74
     0
  7

 75
     0
147
1.0
148
0.0
149
0.0
100
AcDbLayout
  1
Model
 70
     1
 71
     0
 10
0.0
 20
0.0
 11
24.0
 21
12.0
 12
0.0
 22
0.0
 32
0.0
 14
0.0
 24
0.0
 34
0.0
 15
24.0
 25
12.0
 35
0.0
146
0.0
 13
0.0
 23
0.0
 33
0.0
 16
1.0
 26
0.0
 36
0.0
 17
0.0
 27
1.0
 37
0.0
 76
     0
330
1F
331
29
  0
MLINESTYLE
  5
18
102
{ACAD_REACTORS
330
17
102
}
330
17
100
AcDbMlineStyle
  2
Standard
 70
     0
  3

 62
   256
 51
90.0
 52
90.0
 71
     2
 49
0.5
 62
   256
  6
BYLAYER
 49
-0.5
 62
   256
  6
BYLAYER
  0
ACDBPLACEHOLDER
  5
F
102
{ACAD_REACTORS
330
E
102
}
330
E
  0
SCALE
  5
48
102
{ACAD_REACTORS
330
47
102
}
330
47
100
AcDbScale
 70
     0
300
1:1
140
1.0
141
1.0
290
     1
  0
SCALE
  5
49
102
{ACAD_REACTORS
330
47
102
}
330
47
100
AcDbScale
 70
     0
300
1/128" = 1'-0"
140
0.0078125
141
12.0
290
     0
  0
SCALE
  5
4A
102
{ACAD_REACTORS
330
47
102
}
330
47
100
AcDbScale
 70
     0
300
1/64" = 1'-0"
140
0.015625
141
12.0
290
     0
  0
SCALE
  5
4B
102
{ACAD_REACTORS
330
47
102
}
330
47
100
AcDbScale
 70
     0
300
1/32" = 1'-0"
140
0.03125
141
12.0
290
     0
  0
SCALE
  5
4C
102
{ACAD_REACTORS
330
47
102
}
330
47
100
AcDbScale
 70
     0
300
1/16" = 1'-0"
140
0.0625
141
12.0
290
     0
  0
SCALE
  5
4D
102
{ACAD_REACTORS
330
47
102
}
330
47
100
AcDbScale
 70
     0
300
3/32" = 1'-0"
140
0.09375
141
12.0
290
     0
  0
SCALE
  5
4E
102
{ACAD_REACTORS
330
47
102
}
330
47
100
AcDbScale
 70
     0
300
1/8" = 1'-0"
140
0.125
141
12.0
290
     0
  0
SCALE
  5
4F
102
{ACAD_REACTORS
330
47
102
}
330
47
100
AcDbScale
 70
     0
300
3/16" = 1'-0"
140
0.1875
141
12.0
290
     0
  0
SCALE
  5
50
102
{ACAD_REACTORS
330
47
102
}
330
47
100
AcDbScale
 70
     0
300
1/4" = 1'-0"
140
0.25
141
12.0
290
     0
  0
SCALE
  5
51
102
{ACAD_REACTORS
330
47
102
}
330
47
100
AcDbScale
 70
     0
300
3/8" = 1'-0"
140
0.375
141
12.0
290
     0
  0
SCALE
  5
52
102
{ACAD_REACTORS
330
47
102
}
330
47
100
AcDbScale
 70
     0
300
1/2" = 1'-0"
140
0.5
141
12.0
290
     0
  0
SCALE
  5
53
102
{ACAD_REACTORS
330
47
102
}
330
47
100
AcDbScale
 70
     0
300
3/4" = 1'-0"
140
0.75
141
12.0
290
     0
  0
SCALE
  5
54
102
{ACAD_REACTORS
330
47
102
}
330
47
100
AcDbScale
 70
     0
300
1" = 1'-0"
140
1.0
141
12.0
290
     0
  0
SCALE
  5
55
102
{ACAD_REACTORS
330
47
102
}
330
47
100
AcDbScale
 70
     0
300
1-1/2" = 1'-0"
140
1.5
141
12.0
290
     0
  0
SCALE
  5
56
102
{ACAD_REACTORS
330
47
102
}
330
47
100
AcDbScale
 70
     0
300
3" = 1'-0"
140
3.0
141
12.0
290
     0
  0
SCALE
  5
57
102
{ACAD_REACTORS
330
47
102
}
330
47
100
AcDbScale
 70
     0
300
6" = 1'-0"
140
6.0
141
12.0
290
     0
  0
SCALE
  5
58
102
{ACAD_REACTORS
330
47
102
}
330
47
100
AcDbScale
 70
     0
300
1'-0" = 1'-0"
140
12.0
141
12.0
290
     0
  0
ENDSEC
  0
EOF
