  0
SECTION
  2
HEADER
  9
$ACADVER
  1
AC1015
  9
$ACADMAINTVER
 70
     6
  9
$DWGCODEPAGE
  3
ANSI_1252
  9
$INSBASE
 10
0.0
 20
0.0
 30
0.0
  9
$EXTMIN
 10
0.0
 20
0.0
 30
0.0
  9
$EXTMAX
 10
24.0
 20
12.0
 30
0.0
  9
$LIMMIN
 10
0.0
 20
0.0
  9
$LIMMAX
 10
24.0
 20
12.0
  9
$ORTHOMODE
 70
     0
  9
$REGENMODE
 70
     1
  9
$FILLMODE
 70
     1
  9
$QTEXTMODE
 70
     0
  9
$MIRRTEXT
 70
     1
  9
$LTSCALE
 40
1.0
  9
$ATTMODE
 70
     1
  9
$TEXTSIZE
 40
0.125
  9
$TRACEWID
 40
0.05
  9
$TEXTSTYLE
  7
Standard
  9
$CLAYER
  8
0
  9
$CELTYPE
  6
ByLayer
  9
$CECOLOR
 62
   256
  9
$CELTSCALE
 40
1.0
  9
$DISPSILH
 70
     0
  9
$DIMSCALE
 40
1.0
  9
$DIMASZ
 40
0.13
  9
$DIMEXO
 40
0.05
  9
$DIMDLI
 40
0.38
  9
$DIMRND
 40
0.0
  9
$DIMDLE
 40
0.0
  9
$DIMEXE
 40
0.125
  9
$DIMTP
 40
0.0
  9
$DIMTM
 40
0.0
  9
$DIMTXT
 40
0.125
  9
$DIMCEN
 40
0.09
  9
$DIMTSZ
 40
0.0
  9
$DIMTOL
 70
     0
  9
$DIMLIM
 70
     0
  9
$DIMTIH
 70
     1
  9
$DIMTOH
 70
     1
  9
$DIMSE1
 70
     0
  9
$DIMSE2
 70
     0
  9
$DIMTAD
 70
     0
  9
$DIMZIN
 70
     1
  9
$DIMBLK
  1

  9
$DIMASO
 70
     1
  9
$DIMSHO
 70
     1
  9
$DIMPOST
  1

  9
$DIMAPOST
  1

  9
$DIMALT
 70
     0
  9
$DIMALTD
 70
     2
  9
$DIMALTF
 40
25.4
  9
$DIMLFAC
 40
1.0
  9
$DIMTOFL
 70
     0
  9
$DIMTVP
 40
0.0
  9
$DIMTIX
 70
     0
  9
$DIMSOXD
 70
     0
  9
$DIMSAH
 70
     0
  9
$DIMBLK1
  1

  9
$DIMBLK2
  1

  9
$DIMSTYLE
  2
Standard
  9
$DIMCLRD
 70
     0
  9
$DIMCLRE
 70
     0
  9
$DIMCLRT
 70
     0
  9
$DIMTFAC
 40
1.0
  9
$DIMGAP
 40
0.06
  9
$DIMJUST
 70
     0
  9
$DIMSD1
 70
     0
  9
$DIMSD2
 70
     0
  9
$DIMTOLJ
 70
     1
  9
$DIMTZIN
 70
     1
  9
$DIMALTZ
 70
     0
  9
$DIMALTTZ
 70
     0
  9
$DIMUPT
 70
     0
  9
$DIMDEC
 70
     2
  9
$DIMTDEC
 70
     2
  9
$DIMALTU
 70
     2
  9
$DIMALTTD
 70
     2
  9
$DIMTXSTY
  7
Standard
  9
$DIMAUNIT
 70
     0
  9
$DIMADEC
 70
     2
  9
$DIMALTRND
 40
0.0
  9
$DIMAZIN
 70
     0
  9
$DIMDSEP
 70
    46
  9
$DIMATFIT
 70
     3
  9
$DIMFRAC
 70
     0
  9
$DIMLDRBLK
  1

  9
$DIMLUNIT
 70
     2
  9
$DIMLWD
 70
    -2
  9
$DIMLWE
 70
    -2
  9
$DIMTMOVE
 70
     0
  9
$LUNITS
 70
     2
  9
$LUPREC
 70
     6
  9
$SKETCHINC
 40
0.1
  9
$FILLETRAD
 40
0.0
  9
$AUNITS
 70
     0
  9
$AUPREC
 70
     2
  9
$MENU
  1
.
  9
$ELEVATION
 40
0.0
  9
$PELEVATION
 40
0.0
  9
$THICKNESS
 40
0.0
  9
$LIMCHECK
 70
     0
  9
$CHAMFERA
 40
0.0
  9
$CHAMFERB
 40
0.0
  9
$CHAMFERC
 40
0.0
  9
$CHAMFERD
 40
0.0
  9
$SKPOLY
 70
     0
  9
$TDCREATE
 40
2460722.593648889
  9
$TDUCREATE
 40
2460722.926982222
  9
$TDUPDATE
 40
2460722.593649537
  9
$TDUUPDATE
 40
2460722.926982871
  9
$TDINDWG
 40
0.0000000116
  9
$TDUSRTIMER
 40
0.0000000116
  9
$USRTIMER
 70
     1
  9
$ANGBASE
 50
0.0
  9
$ANGDIR
 70
     0
  9
$PDMODE
 70
     0
  9
$PDSIZE
 40
-1.0
  9
$PLINEWID
 40
0.0
  9
$SPLFRAME
 70
     0
  9
$SPLINETYPE
 70
     6
  9
$SPLINESEGS
 70
     8
  9
$HANDSEED
  5
27E
  9
$SURFTAB1
 70
     6
  9
$SURFTAB2
 70
     6
  9
$SURFTYPE
 70
     6
  9
$SURFU
 70
     6
  9
$SURFV
 70
     6
  9
$UCSBASE
  2

  9
$UCSNAME
  2

  9
$UCSORG
 10
0.0
 20
0.0
 30
0.0
  9
$UCSXDIR
 10
1.0
 20
0.0
 30
0.0
  9
$UCSYDIR
 10
0.0
 20
1.0
 30
0.0
  9
$UCSORTHOREF
  2

  9
$UCSORTHOVIEW
 70
     0
  9
$UCSORGTOP
 10
0.0
 20
0.0
 30
0.0
  9
$UCSORGBOTTOM
 10
0.0
 20
0.0
 30
0.0
  9
$UCSORGLEFT
 10
0.0
 20
0.0
 30
0.0
  9
$UCSORGRIGHT
 10
0.0
 20
0.0
 30
0.0
  9
$UCSORGFRONT
 10
0.0
 20
0.0
 30
0.0
  9
$UCSORGBACK
 10
0.0
 20
0.0
 30
0.0
  9
$PUCSBASE
  2

  9
$PUCSNAME
  2

  9
$PUCSORG
 10
0.0
 20
0.0
 30
0.0
  9
$PUCSXDIR
 10
1.0
 20
0.0
 30
0.0
  9
$PUCSYDIR
 10
0.0
 20
1.0
 30
0.0
  9
$PUCSORTHOREF
  2

  9
$PUCSORTHOVIEW
 70
     0
  9
$PUCSORGTOP
 10
0.0
 20
0.0
 30
0.0
  9
$PUCSORGBOTTOM
 10
0.0
 20
0.0
 30
0.0
  9
$PUCSORGLEFT
 10
0.0
 20
0.0
 30
0.0
  9
$PUCSORGRIGHT
 10
0.0
 20
0.0
 30
0.0
  9
$PUCSORGFRONT
 10
0.0
 20
0.0
 30
0.0
  9
$PUCSORGBACK
 10
0.0
 20
0.0
 30
0.0
  9
$USERI1
 70
     0
  9
$USERI2
 70
     0
  9
$USERI3
 70
     0
  9
$USERI4
 70
     0
  9
$USERI5
 70
     0
  9
$USERR1
 40
0.0
  9
$USERR2
 40
0.0
  9
$USERR3
 40
0.0
  9
$USERR4
 40
0.0
  9
$USERR5
 40
0.0
  9
$WORLDVIEW
 70
     1
  9
$SHADEDGE
 70
     3
  9
$SHADEDIF
 70
    70
  9
$TILEMODE
 70
     1
  9
$MAXACTVP
 70
    64
  9
$PINSBASE
 10
0.0
 20
0.0
 30
0.0
  9
$PLIMCHECK
 70
     0
  9
$PEXTMIN
 10
1.0000000000E+20
 20
1.0000000000E+20
 30
1.0000000000E+20
  9
$PEXTMAX
 10
-1.0000000000E+20
 20
-1.0000000000E+20
 30
-1.0000000000E+20
  9
$PLIMMIN
 10
0.0
 20
0.0
  9
$PLIMMAX
 10
12.0
 20
9.0
  9
$UNITMODE
 70
     0
  9
$VISRETAIN
 70
     1
  9
$PLINEGEN
 70
     0
  9
$PSLTSCALE
 70
     1
  9
$TREEDEPTH
 70
  3020
  9
$CMLSTYLE
  2
Standard
  9
$CMLJUST
 70
     0
  9
$CMLSCALE
 40
1.0
  9
$PROXYGRAPHICS
 70
     1
  9
$MEASUREMENT
 70
     0
  9
$CELWEIGHT
370
    -1
  9
$ENDCAPS
280
     0
  9
$JOINSTYLE
280
     0
  9
$LWDISPLAY
290
     1
  9
$INSUNITS
 70
     1
  9
$HYPERLINKBASE
  1

  9
$STYLESHEET
  1

  9
$XEDIT
290
     1
  9
$CEPSNTYPE
380
     0
  9
$PSTYLEMODE
290
     1
  9
$FINGERPRINTGUID
  2
{7444aca3-ea4e-4fa0-897c-5d8dc5035b10}
  9
$VERSIONGUID
  2
{FAEB1C32-E019-11D5-929B-00C0DF256EC4}
  9
$EXTNAMES
290
     1
  9
$PSVPSCALE
 40
0.0
  9
$OLESTARTUP
290
     0
  0
ENDSEC
  0
SECTION
  2
CLASSES
  0
CLASS
  1
ACDBDICTIONARYWDFLT
  2
AcDbDictionaryWithDefault
  3
ObjectDBX Classes
 90
        0
280
     0
281
     0
  0
CLASS
  1
VISUALSTYLE
  2
AcDbVisualStyle
  3
ObjectDBX Classes
 90
     4095
280
     0
281
     0
  0
CLASS
  1
MATERIAL
  2
AcDbMaterial
  3
ObjectDBX Classes
 90
     1153
280
     0
281
     0
  0
CLASS
  1
SCALE
  2
AcDbScale
  3
ObjectDBX Classes
 90
     1153
280
     0
281
     0
  0
CLASS
  1
TABLESTYLE
  2
AcDbTableStyle
  3
ObjectDBX Classes
 90
     4095
280
     0
281
     0
  0
CLASS
  1
MLEADERSTYLE
  2
AcDbMLeaderStyle
  3
ACDB_MLEADERSTYLE_CLASS
 90
     4095
280
     0
281
     0
  0
CLASS
  1
SUN
  2
AcDbSun
  3
SCENEOE
 90
     1153
280
     0
281
     0
  0
CLASS
  1
ACDBPLACEHOLDER
  2
AcDbPlaceHolder
  3
ObjectDBX Classes
 90
        0
280
     0
281
     0
  0
CLASS
  1
LAYOUT
  2
AcDbLayout
  3
ObjectDBX Classes
 90
        0
280
     0
281
     0
  0
ENDSEC
  0
SECTION
  2
TABLES
  0
TABLE
  2
VPORT
  5
8
330
0
100
AcDbSymbolTable
 70
     1
  0
VPORT
  5
29
330
8
100
AcDbSymbolTableRecord
100
AcDbViewportTableRecord
  2
*Active
 70
     0
 10
0.0
 20
0.0
 11
1.0
 21
1.0
 12
12.0
 22
6.0
 13
0.0
 23
0.0
 14
0.5
 24
0.5
 15
0.5
 25
0.5
 16
0.0
 26
0.0
 36
1.0
 17
0.0
 27
0.0
 37
0.0
 40
12.0
 41
2.0
 42
50.0
 43
0.0
 44
0.0
 50
0.0
 51
0.0
 71
     0
 72
  2000
 73
     1
 74
     3
 75
     0
 76
     0
 77
     0
 78
     0
281
     0
 65
     1
110
0.0
120
0.0
130
0.0
111
1.0
121
0.0
131
0.0
112
0.0
122
1.0
132
0.0
 79
     0
146
0.0
  0
ENDTAB
  0
TABLE
  2
LTYPE
  5
5
330
0
100
AcDbSymbolTable
 70
     6
  0
LTYPE
  5
14
330
5
100
AcDbSymbolTableRecord
100
AcDbLinetypeTableRecord
  2
ByBlock
 70
     0
  3

 72
    65
 73
     0
 40
0.0
  0
LTYPE
  5
15
330
5
100
AcDbSymbolTableRecord
100
AcDbLinetypeTableRecord
  2
ByLayer
 70
     0
  3

 72
    65
 73
     0
 40
0.0
  0
LTYPE
  5
16
330
5
100
AcDbSymbolTableRecord
100
AcDbLinetypeTableRecord
  2
Continuous
 70
     0
  3
Solid line
 72
    65
 73
     0
 40
0.0
  0
LTYPE
  5
5E
330
5
100
AcDbSymbolTableRecord
100
AcDbLinetypeTableRecord
  2
HIDDEN
 70
     0
  3
Hidden __ __ __ __ __ __ __ __ __ __ __ __ __ __
 72
    65
 73
     2
 40
0.075
 49
0.05
 74
     0
 49
-0.025
 74
     0
  0
LTYPE
  5
5F
330
5
100
AcDbSymbolTableRecord
100
AcDbLinetypeTableRecord
  2
PHANTOM
 70
     0
  3
Phantom ______  __  __  ______  __  __  ______
 72
    65
 73
     6
 40
0.5
 49
0.25
 74
     0
 49
-0.05
 74
     0
 49
0.05
 74
     0
 49
-0.05
 74
     0
 49
0.05
 74
     0
 49
-0.05
 74
     0
  0
LTYPE
  5
60
330
5
100
AcDbSymbolTableRecord
100
AcDbLinetypeTableRecord
  2
CENTER
 70
     0
  3
Center ____ _ ____ _ ____ _ ____ _ ____ _ ____
 72
    65
 73
     4
 40
0.4
 49
0.25
 74
     0
 49
-0.05
 74
     0
 49
0.05
 74
     0
 49
-0.05
 74
     0
  0
LTYPE
  5
61
330
5
100
AcDbSymbolTableRecord
100
AcDbLinetypeTableRecord
  2
CENTERX2
 70
     0
  3
Center (2x) ________  __  ________  __  _____
 72
    65
 73
     4
 40
0.8
 49
0.5
 74
     0
 49
-0.1
 74
     0
 49
0.1
 74
     0
 49
-0.1
 74
     0
  0
LTYPE
  5
62
330
5
100
AcDbSymbolTableRecord
100
AcDbLinetypeTableRecord
  2
DOT2
 70
     0
  3
Dot (.5x) ........................................
 72
    65
 73
     2
 40
0.025
 49
0.0
 74
     0
 49
-0.025
 74
     0
  0
ENDTAB
  0
TABLE
  2
LAYER
  5
2
330
0
100
AcDbSymbolTable
 70
     3
  0
LAYER
  5
10
330
2
100
AcDbSymbolTableRecord
100
AcDbLayerTableRecord
  2
0
 70
     0
 62
     7
  6
Continuous
370
    -3
390
F
  0
LAYER
  5
63
330
2
100
AcDbSymbolTableRecord
100
AcDbLayerTableRecord
  2
FORMAT
 70
     0
 62
     7
  6
Continuous
370
    -3
390
F
  0
LAYER
  5
64
330
2
100
AcDbSymbolTableRecord
100
AcDbLayerTableRecord
  2
PART_NAMES
 70
     0
 62
     1
  6
Continuous
370
    -3
390
F
  0
ENDTAB
  0
TABLE
  2
STYLE
  5
3
330
0
100
AcDbSymbolTable
 70
     3
  0
STYLE
  5
11
330
3
100
AcDbSymbolTableRecord
100
AcDbTextStyleTableRecord
  2
Standard
 70
     0
 40
0.0
 41
1.0
 50
0.0
 71
     0
 42
0.125
  3
txt
  4

  0
STYLE
  5
FB
330
3
100
AcDbSymbolTableRecord
100
AcDbTextStyleTableRecord
  2
SLDTEXTSTYLE0
 70
     0
 40
0.0
 41
0.75
 50
0.0
 71
     0
 42
0.125
  3
TXT
  4

  0
STYLE
  5
27A
330
3
100
AcDbSymbolTableRecord
100
AcDbTextStyleTableRecord
  2
SLDTEXTSTYLE1
 70
     0
 40
0.0
 41
0.7
 50
0.0
 71
     0
 42
0.125
  3
TXT
  4

  0
ENDTAB
  0
TABLE
  2
VIEW
  5
6
330
0
100
AcDbSymbolTable
 70
     0
  0
ENDTAB
  0
TABLE
  2
UCS
  5
7
330
0
100
AcDbSymbolTable
 70
     0
  0
ENDTAB
  0
TABLE
  2
APPID
  5
9
330
0
100
AcDbSymbolTable
 70
     1
  0
APPID
  5
12
330
9
100
AcDbSymbolTableRecord
100
AcDbRegAppTableRecord
  2
ACAD
 70
     0
  0
ENDTAB
  0
TABLE
  2
DIMSTYLE
  5
A
330
0
100
AcDbSymbolTable
 70
     1
100
AcDbDimStyleTable
  0
DIMSTYLE
105
27
330
A
100
AcDbSymbolTableRecord
100
AcDbDimStyleTableRecord
  2
Standard
 70
     0
178
     0
340
11
  0
ENDTAB
  0
TABLE
  2
BLOCK_RECORD
  5
1
330
0
100
AcDbSymbolTable
 70
     1
  0
BLOCK_RECORD
  5
1F
330
1
100
AcDbSymbolTableRecord
100
AcDbBlockTableRecord
  2
*Model_Space
340
22
  0
BLOCK_RECORD
  5
1B
330
1
100
AcDbSymbolTableRecord
100
AcDbBlockTableRecord
  2
*Paper_Space
340
1E
  0
BLOCK_RECORD
  5
23
330
1
100
AcDbSymbolTableRecord
100
AcDbBlockTableRecord
  2
*Paper_Space0
340
26
  0
ENDTAB
  0
ENDSEC
  0
SECTION
  2
BLOCKS
  0
BLOCK
  5
20
330
1F
100
AcDbEntity
  8
0
100
AcDbBlockBegin
  2
*Model_Space
 70
     0
 10
0.0
 20
0.0
 30
0.0
  3
*Model_Space
  1

  0
ENDBLK
  5
21
330
1F
100
AcDbEntity
  8
0
100
AcDbBlockEnd
  0
BLOCK
  5
1C
330
1B
100
AcDbEntity
 67
     1
  8
0
100
AcDbBlockBegin
  2
*Paper_Space
 70
     0
 10
0.0
 20
0.0
 30
0.0
  3
*Paper_Space
  1

  0
ENDBLK
  5
1D
330
1B
100
AcDbEntity
 67
     1
  8
0
100
AcDbBlockEnd
  0
BLOCK
  5
24
330
23
100
AcDbEntity
  8
0
100
AcDbBlockBegin
  2
*Paper_Space0
 70
     0
 10
0.0
 20
0.0
 30
0.0
  3
*Paper_Space0
  1

  0
ENDBLK
  5
25
330
23
100
AcDbEntity
  8
0
100
AcDbBlockEnd
  0
ENDSEC
  0
SECTION
  2
ENTITIES
  0
LINE
  5
65
330
1F
100
AcDbEntity
  8
0
  6
CENTERX2
 62
     7
370
    18
100
AcDbLine
 10
0.25
 20
0.25
 30
0.0
 11
0.25
 21
11.75
 31
0.0
  0
LINE
  5
66
330
1F
100
AcDbEntity
  8
0
  6
CENTERX2
 62
     7
370
    18
100
AcDbLine
 10
0.25
 20
0.25
 30
0.0
 11
23.75
 21
0.25
 31
0.0
  0
LINE
  5
67
330
1F
100
AcDbEntity
  8
0
  6
CENTERX2
 62
     7
370
    18
100
AcDbLine
 10
23.75
 20
0.25
 30
0.0
 11
23.75
 21
11.75
 31
0.0
  0
LINE
  5
68
330
1F
100
AcDbEntity
  8
0
  6
CENTERX2
 62
     7
370
    18
100
AcDbLine
 10
23.75
 20
11.75
 30
0.0
 11
0.25
 21
11.75
 31
0.0
  0
ARC
  5
69
330
1F
100
AcDbEntity
  8
0
  6
Continuous
 62
     7
370
    25
100
AcDbCircle
 10
15.8431104773
 20
10.6139973307
 30
0.0
 40
0.1999999999999983
100
AcDbArc
 50
173.0342477766
 51
212.5172304208
  0
ARC
  5
6A
330
1F
100
AcDbEntity
  8
0
  6
Continuous
 62
     7
370
    25
100
AcDbCircle
 10
15.2528495985
 20
10.2377100802
 30
0.0
 40
0.500000000000002
100
AcDbArc
 50
318.0898278177
 51
32.5172304208
  0
ARC
  5
6B
330
1F
100
AcDbEntity
  8
0
  6
Continuous
 62
     7
370
    25
100
AcDbCircle
 10
15.7737846767
 20
9.7701347981
 30
0.0
 40
0.2000000000000004
100
AcDbArc
 50
138.0898278177
 51
187.4999561413
  0
LINE
  5
6C
330
1F
100
AcDbEntity
  8
0
  6
Continuous
 62
     7
370
    25
100
AcDbLine
 10
15.611718779
 20
9.4688863643
 30
0.0
 11
15.5754956844
 21
9.7440297115
 31
0.0
  0
ARC
  5
6D
330
1F
100
AcDbEntity
  8
0
  6
Continuous
 62
     7
370
    25
100
AcDbCircle
 10
15.4134297868
 20
9.4427812776
 30
0.0
 40
0.2000000000000011
100
AcDbArc
 50
277.4999561413
 51
7.4999561413
  0
LINE
  5
6E
330
1F
100
AcDbEntity
  8
0
  6
Continuous
 62
     7
370
    25
100
AcDbLine
 10
15.3403903773
 20
9.231439742
 30
0.0
 11
15.4395348734
 21
9.2444922854
 31
0.0
  0
LINE
  5
6F
330
1F
100
AcDbEntity
  8
0
  6
Continuous
 62
     7
370
    25
100
AcDbLine
 10
15.327337834
 20
9.3305842382
 30
0.0
 11
15.3403903773
 21
9.231439742
 31
0.0
  0
LINE
  5
70
330
1F
100
AcDbEntity
  8
0
  6
Continuous
 62
     7
370
    25
100
AcDbLine
 10
15.1414419037
 20
9.3061107194
 30
0.0
 11
15.327337834
 21
9.3305842382
 31
0.0
  0
LINE
  5
71
330
1F
100
AcDbEntity
  8
0
  6
Continuous
 62
     7
370
    25
100
AcDbLine
 10
15.1659154225
 20
9.1202147892
 30
0.0
 11
15.1414419037
 21
9.3061107194
 31
0.0
  0
SPLINE
  5
72
330
1F
100
AcDbEntity
  8
0
  6
Continuous
 62
     7
370
    25
100
AcDbSpline
210
0.0
220
0.0
230
1.0
 70
     8
 71
     3
 72
    12
 73
     8
 74
     0
 42
0.00000001
 43
0.00000001
 40
0.6279258258439321
 40
0.6279258258439321
 40
0.6279258258439321
 40
0.6279258258439321
 40
0.6312694223607523
 40
0.6460065237480678
 40
0.6606206841728729
 40
0.6750981874935538
 40
0.6870101740385741
 40
0.6870101740385741
 40
0.6870101740385741
 40
0.6870101740385741
 10
13.86209950518749
 20
8.945439733716718
 30
0.0
 10
13.8866894063175
 20
8.948770105259579
 30
0.0
 10
14.01966196688617
 20
8.966770414299495
 30
0.0
 10
14.26012579845814
 20
8.999223877270595
 30
0.0
 10
14.58250789388399
 20
9.042501349416346
 30
0.0
 10
14.88413654893418
 20
9.082788354466528
 30
0.0
 10
15.078273615407
 20
9.10862843166835
 30
0.0
 10
15.16591542245904
 20
9.120214789180357
 30
0.0
  0
LINE
  5
73
330
1F
100
AcDbEntity
  8
0
  6
Continuous
 62
     7
370
    25
100
AcDbLine
 10
13.8115731792
 20
9.3171047556
 30
0.0
 11
13.8620995052
 21
8.9454397337
 31
0.0
  0
LINE
  5
74
330
1F
100
AcDbEntity
  8
0
  6
Continuous
 62
     7
370
    25
100
AcDbLine
 10
13.4399911157
 20
9.2665897074
 30
0.0
 11
13.8115731792
 21
9.3171047556
 31
0.0
  0
LINE
  5
75
330
1F
100
AcDbEntity
  8
0
  6
Continuous
 62
     7
370
    25
100
AcDbLine
 10
13.4905061639
 20
8.8950076439
 30
0.0
 11
13.4399911157
 21
9.2665897074
 31
0.0
  0
SPLINE
  5
76
330
1F
100
AcDbEntity
  8
0
  6
Continuous
 62
     7
370
    25
100
AcDbSpline
210
0.0
220
0.0
230
1.0
 70
     8
 71
     3
 72
    12
 73
     8
 74
     0
 42
0.00000001
 43
0.00000001
 40
0.5461439631916797
 40
0.5461439631916797
 40
0.5461439631916797
 40
0.5461439631916797
 40
0.5562472332602322
 40
0.571381784352882
 40
0.5864660404483751
 40
0.6014845156991583
 40
0.6110828024492754
 40
0.6110828024492754
 40
0.6110828024492754
 40
0.6110828024492754
 10
12.05793788852817
 20
8.699666446316817
 30
0.0
 10
12.13223181852746
 20
8.709794654459731
 30
0.0
 10
12.31781515984794
 20
8.735108048590375
 30
0.0
 10
12.61431700773714
 20
8.775564011584521
 30
0.0
 10
12.9469541689974
 20
8.821009012114855
 30
0.0
 10
13.23889714587673
 20
8.860783313913457
 30
0.0
 10
13.41992201746698
 20
8.885412020469849
 30
0.0
 10
13.49050616385376
 20
8.895007643899664
 30
0.0
  0
LINE
  5
77
330
1F
100
AcDbEntity
  8
0
  6
Continuous
 62
     7
370
    25
100
AcDbLine
 10
12.0579378885
 20
8.6996664463
 30
0.0
 11
12.0579378885
 21
9.1996664463
 31
0.0
  0
LINE
  5
78
330
1F
100
AcDbEntity
  8
0
  6
Continuous
 62
     7
370
    25
100
AcDbLine
 10
11.9579378885
 20
9.1996664463
 30
0.0
 11
12.0579378885
 21
9.1996664463
 31
0.0
  0
LINE
  5
79
330
1F
100
AcDbEntity
  8
0
  6
Continuous
 62
     7
370
    25
100
AcDbLine
 10
11.9579378885
 20
9.1996664463
 30
0.0
 11
11.9579378885
 21
8.6860374652
 31
0.0
  0
SPLINE
  5
7A
330
1F
100
AcDbEntity
  8
0
  6
Continuous
 62
     7
370
    25
100
AcDbSpline
210
0.0
220
0.0
230
1.0
 70
     8
 71
     3
 72
    10
 73
     6
 74
     0
 42
0.00000001
 43
0.00000001
 40
0.520465470718606
 40
0.520465470718606
 40
0.520465470718606
 40
0.520465470718606
 40
0.5258873344064182
 40
0.5410783139096876
 40
0.5416109679894174
 40
0.5416109679894174
 40
0.5416109679894174
 40
0.5416109679894174
 10
11.49143464942185
 20
8.622634913307234
 30
0.0
 10
11.53130870455701
 20
8.628036087320172
 30
0.0
 10
11.68289933515716
 20
8.648589205929651
 30
0.0
 10
11.83839672450228
 20
8.669750604334627
 30
0.0
 10
11.95402100125083
 20
8.68550379019927
 30
0.0
 10
11.95793788852844
 20
8.686037465151617
 30
0.0
  0
LINE
  5
7B
330
1F
100
AcDbEntity
  8
0
  6
Continuous
 62
     7
370
    25
100
AcDbLine
 10
11.4663019384
 20
8.8084428702
 30
0.0
 11
11.4914346494
 21
8.6226349133
 31
0.0
  0
LINE
  5
7C
330
1F
100
AcDbEntity
  8
0
  6
Continuous
 62
     7
370
    25
100
AcDbLine
 10
11.2804939815
 20
8.7833101592
 30
0.0
 11
11.4663019384
 21
8.8084428702
 31
0.0
  0
LINE
  5
7D
330
1F
100
AcDbEntity
  8
0
  6
Continuous
 62
     7
370
    25
100
AcDbLine
 10
11.2804939815
 20
8.7833101592
 30
0.0
 11
11.305626721
 21
8.5975019919
 31
0.0
  0
SPLINE
  5
7E
330
1F
100
AcDbEntity
  8
0
  6
Continuous
 62
     7
370
    25
100
AcDbSpline
210
0.0
220
0.0
230
1.0
 70
     8
 71
     3
 72
    15
 73
    11
 74
     0
 42
0.00000001
 43
0.00000001
 40
0.4170001598971144
 40
0.4170001598971144
 40
0.4170001598971144
 40
0.4170001598971144
 40
0.420174823355266
 40
0.4351095326124219
 40
0.4501242755491032
 40
0.4652030675528332
 40
0.480333153810538
 40
0.4955005832026954
 40
0.5106897747322421
 40
0.5120439593711981
 40
0.5120439593711981
 40
0.5120439593711981
 40
0.5120439593711981
 10
9.207468592723474
 20
8.322637205999936
 30
0.0
 10
9.230847476030117
 20
8.325558405284852
 30
0.0
 10
9.364204091705309
 20
8.342258559212212
 30
0.0
 10
9.608082261493896
 20
8.373173718351225
 30
0.0
 10
9.939521204428726
 20
8.415856844161235
 30
0.0
 10
10.2723075211315
 20
8.459423316837581
 30
0.0
 10
10.60616131467667
 20
8.503562743025652
 30
0.0
 10
10.94076062730021
 20
8.548311475135186
 30
0.0
 10
11.17399540365749
 20
8.579725538698662
 30
0.0
 10
11.2956671256814
 20
8.596156703531896
 30
0.0
 10
11.30562672097597
 20
8.597501991853761
 30
0.0
  0
LINE
  5
7F
330
1F
100
AcDbEntity
  8
0
  6
Continuous
 62
     7
370
    25
100
AcDbLine
 10
9.1843599103
 20
8.508707727
 30
0.0
 11
9.2074685927
 21
8.322637206
 31
0.0
  0
LINE
  5
80
330
1F
100
AcDbEntity
  8
0
  6
Continuous
 62
     7
370
    25
100
AcDbLine
 10
8.9982893893
 20
8.4855990446
 30
0.0
 11
9.1843599103
 21
8.508707727
 31
0.0
  0
LINE
  5
81
330
1F
100
AcDbEntity
  8
0
  6
Continuous
 62
     7
370
    25
100
AcDbLine
 10
8.9982893893
 20
8.4855990446
 30
0.0
 11
9.0213979405
 21
8.2995295803
 31
0.0
  0
SPLINE
  5
82
330
1F
100
AcDbEntity
  8
0
  6
Continuous
 62
     7
370
    25
100
AcDbSpline
210
0.0
220
0.0
230
1.0
 70
     8
 71
     3
 72
    15
 73
    11
 74
     0
 42
0.00000001
 43
0.00000001
 40
0.3173008976357805
 40
0.3173008976357805
 40
0.3173008976357805
 40
0.3173008976357805
 40
0.3189806851177335
 40
0.3329854989238258
 40
0.3471627904008333
 40
0.3614986025989408
 40
0.3759807467343043
 40
0.390597192121319
 40
0.4053325934372969
 40
0.4085786502070922
 40
0.4085786502070922
 40
0.4085786502070922
 40
0.4085786502070922
 10
7.001869571607006
 20
8.073000410653687
 30
0.0
 10
7.014276736333315
 20
8.074215356668827
 30
0.0
 10
7.130121908986448
 20
8.085597034605096
 30
0.0
 10
7.350614378428135
 20
8.107924984471877
 30
0.0
 10
7.664399745006153
 20
8.141217588260213
 30
0.0
 10
7.981555351292727
 20
8.176289334873957
 30
0.0
 10
8.301811395427153
 20
8.212953116805151
 30
0.0
 10
8.624875324589816
 20
8.251142600126274
 30
0.0
 10
8.865039470651869
 20
8.280276004838058
 30
0.0
 10
8.9974887743104
 20
8.296579153514147
 30
0.0
 10
9.021397940453765
 20
8.299529580309295
 30
0.0
  0
LINE
  5
83
330
1F
100
AcDbEntity
  8
0
  6
Continuous
 62
     7
370
    25
100
AcDbLine
 10
6.9678694885
 20
8.4464558891
 30
0.0
 11
7.0018695716
 21
8.0730004107
 31
0.0
  0
LINE
  5
84
330
1F
100
AcDbEntity
  8
0
  6
Continuous
 62
     7
370
    25
100
AcDbLine
 10
6.5944140101
 20
8.4124558059
 30
0.0
 11
6.9678694885
 21
8.4464558891
 31
0.0
  0
LINE
  5
85
330
1F
100
AcDbEntity
  8
0
  6
Continuous
 62
     7
370
    25
100
AcDbLine
 10
6.6285320768
 20
8.0377044051
 30
0.0
 11
6.5944140101
 21
8.4124558059
 31
0.0
  0
SPLINE
  5
86
330
1F
100
AcDbEntity
  8
0
  6
Continuous
 62
     7
370
    25
100
AcDbSpline
210
0.0
220
0.0
230
1.0
 70
     8
 71
     3
 72
    13
 73
     9
 74
     0
 42
0.00000001
 43
0.00000001
 40
0.2297244996993346
 40
0.2297244996993346
 40
0.2297244996993346
 40
0.2297244996993346
 40
0.239236416912666
 40
0.2519590037406926
 40
0.2649238944848901
 40
0.2781197025559347
 40
0.2915360351420174
 40
0.3004577628980368
 40
0.3004577628980368
 40
0.3004577628980368
 40
0.3004577628980368
 10
5.057937888530953
 20
7.923598625808221
 30
0.0
 10
5.128439335365166
 20
7.927185625620785
 30
0.0
 10
5.293210795969743
 20
7.936132206307081
 30
0.0
 10
5.553947120910604
 20
7.95225386514606
 30
0.0
 10
5.841819931273475
 20
7.972357181812704
 30
0.0
 10
6.13467371034614
 20
7.994926488906371
 30
0.0
 10
6.397464903525684
 20
8.016986139167814
 30
0.0
 10
6.562592349597243
 20
8.03170112942905
 30
0.0
 10
6.628532076776152
 20
8.037704405146021
 30
0.0
  0
LINE
  5
87
330
1F
100
AcDbEntity
  8
0
  6
Continuous
 62
     7
370
    25
100
AcDbLine
 10
5.0579378885
 20
7.9235986258
 30
0.0
 11
5.0579378885
 21
8.4235986258
 31
0.0
  0
LINE
  5
88
330
1F
100
AcDbEntity
  8
0
  6
Continuous
 62
     7
370
    25
100
AcDbLine
 10
4.9329378885
 20
8.4235986258
 30
0.0
 11
5.0579378885
 21
8.4235986258
 31
0.0
  0
LINE
  5
89
330
1F
100
AcDbEntity
  8
0
  6
Continuous
 62
     7
370
    25
100
AcDbLine
 10
4.9329378885
 20
8.4235986258
 30
0.0
 11
4.9329378885
 21
7.9174943261
 31
0.0
  0
SPLINE
  5
8A
330
1F
100
AcDbEntity
  8
0
  6
Continuous
 62
     7
370
    25
100
AcDbSpline
210
0.0
220
0.0
230
1.0
 70
     8
 71
     3
 72
     9
 73
     5
 74
     0
 42
0.00000001
 43
0.00000001
 40
0.2085650349845574
 40
0.2085650349845574
 40
0.2085650349845574
 40
0.2085650349845574
 40
0.2145604781304418
 40
0.2241034837056081
 40
0.2241034837056081
 40
0.2241034837056081
 40
0.2241034837056081
 10
4.587269929193973
 20
7.903439578854418
 30
0.0
 10
4.63173902428161
 20
7.904963616138479
 30
0.0
 10
4.746979864545369
 20
7.909210645167798
 30
0.0
 10
4.862191794838663
 20
7.914186118413868
 30
0.0
 10
4.932937888530799
 20
7.917494326126832
 30
0.0
  0
LINE
  5
8B
330
1F
100
AcDbEntity
  8
0
  6
Continuous
 62
     7
370
    25
100
AcDbLine
 10
4.5815392033
 20
8.0908561016
 30
0.0
 11
4.5872699292
 21
7.9034395789
 31
0.0
  0
LINE
  5
8C
330
1F
100
AcDbEntity
  8
0
  6
Continuous
 62
     7
370
    25
100
AcDbLine
 10
4.3941267965
 20
8.0851255016
 30
0.0
 11
4.5815392033
 21
8.0908561016
 31
0.0
  0
LINE
  5
8D
330
1F
100
AcDbEntity
  8
0
  6
Continuous
 62
     7
370
    25
100
AcDbLine
 10
4.3941267965
 20
8.0851255016
 30
0.0
 11
4.3998573969
 21
7.8977130948
 31
0.0
  0
SPLINE
  5
8E
330
1F
100
AcDbEntity
  8
0
  6
Continuous
 62
     7
370
    25
100
AcDbSpline
210
0.0
220
0.0
230
1.0
 70
     8
 71
     3
 72
    17
 73
    13
 74
     0
 42
0.00000001
 43
0.00000001
 40
0.1016614720720251
 40
0.1016614720720251
 40
0.1016614720720251
 40
0.1016614720720251
 40
0.1089998674022309
 40
0.118084529462581
 40
0.127514842657726
 40
0.1372852704325623
 40
0.1473879174712405
 40
0.1578164805284356
 40
0.1685634728403947
 40
0.1796191282126914
 40
0.1909773731687989
 40
0.2001435402442482
 40
0.2001435402442482
 40
0.2001435402442482
 40
0.2001435402442482
 10
2.210541374153104
 20
7.975197596657022
 30
0.0
 10
2.264589742507903
 20
7.968491829787096
 30
0.0
 10
2.385689899011709
 20
7.954631795377914
 30
0.0
 10
2.576712752982881
 20
7.936485996091676
 30
0.0
 10
2.786043252597192
 20
7.920619230047235
 30
0.0
 10
3.003161379385636
 20
7.908000477277716
 30
0.0
 10
3.227856380681253
 20
7.898589724979092
 30
0.0
 10
3.459913022343507
 20
7.892422747689031
 30
0.0
 10
3.699104031376567
 20
7.889403402472038
 30
0.0
 10
3.945213246064883
 20
7.889486360902392
 30
0.0
 10
4.179570248570293
 20
7.892459969181851
 30
0.0
 10
4.331854976390808
 20
7.895893620460217
 30
0.0
 10
4.399857396906066
 20
7.897713094814132
 30
0.0
  0
LINE
  5
8F
330
1F
100
AcDbEntity
  8
0
  6
Continuous
 62
     7
370
    25
100
AcDbLine
 10
2.2357152059
 20
8.1609999868
 30
0.0
 11
2.2105413742
 21
7.9751975967
 31
0.0
  0
LINE
  5
90
330
1F
100
AcDbEntity
  8
0
  6
Continuous
 62
     7
370
    25
100
AcDbLine
 10
2.0499128157
 20
8.1861738186
 30
0.0
 11
2.2357152059
 21
8.1609999868
 31
0.0
  0
LINE
  5
91
330
1F
100
AcDbEntity
  8
0
  6
Continuous
 62
     7
370
    25
100
AcDbLine
 10
2.0247424082
 20
8.0003967019
 30
0.0
 11
2.0499128157
 21
8.1861738186
 31
0.0
  0
SPLINE
  5
92
330
1F
100
AcDbEntity
  8
0
  6
Continuous
 62
     7
370
    25
100
AcDbSpline
210
0.0
220
0.0
230
1.0
 70
     8
 71
     3
 72
    24
 73
    20
 74
     0
 42
0.00000001
 43
0.00000001
 40
0.0039351208712084
 40
0.0039351208712084
 40
0.0039351208712084
 40
0.0039351208712084
 40
0.0072932311171293
 40
0.011028136413859
 40
0.0149010810980465
 40
0.0189632717700928
 40
0.023258475402986
 40
0.0278206260323165
 40
0.0326790824435221
 40
0.0378531598360054
 40
0.0433618746912805
 40
0.0492146790039221
 40
0.0554223461563205
 40
0.06198878599669
 40
0.0689180360680075
 40
0.0762111572779437
 40
0.0838683921994994
 40
0.091887410882707
 40
0.0932399630117017
 40
0.0932399630117017
 40
0.0932399630117017
 40
0.0932399630117017
 10
0.3164391867718053
 20
8.844298517561452
 30
0.0
 10
0.3239986562399953
 20
8.82056005033197
 30
0.0
 10
0.3438621040834264
 20
8.771572462380254
 30
0.0
 10
0.3831619193494745
 20
8.700116762474034
 30
0.0
 10
0.4342146317364758
 20
8.629876945528967
 30
0.0
 10
0.4956168819993625
 20
8.562806625822647
 30
0.0
 10
0.5672330564570712
 20
8.498836042659134
 30
0.0
 10
0.648992921399127
 20
8.437999591314044
 30
0.0
 10
0.7407894677931195
 20
8.380324958973938
 30
0.0
 10
0.8424893473924021
 20
8.325750921873926
 30
0.0
 10
0.953978249624386
 20
8.27431141003
 30
0.0
 10
1.075154519030922
 20
8.22602249861896
 30
0.0
 10
1.205886130964741
 20
8.18094873768036
 30
0.0
 10
1.346013262409699
 20
8.139021480863219
 30
0.0
 10
1.495402687556586
 20
8.100342901995196
 30
0.0
 10
1.653884535792912
 20
8.064858940618898
 30
0.0
 10
1.821306377545383
 20
8.032660173568635
 30
0.0
 10
1.946027030101546
 20
8.012168563012052
 30
0.0
 10
2.014812078805968
 20
8.00186404956559
 30
0.0
 10
2.024742408206226
 20
8.000396701868198
 30
0.0
  0
LINE
  5
93
330
1F
100
AcDbEntity
  8
0
  6
Continuous
 62
     7
370
    25
100
AcDbLine
 10
0.3164391868
 20
8.8442985176
 30
0.0
 11
0.6616903314
 21
8.8442985176
 31
0.0
  0
LINE
  5
94
330
1F
100
AcDbEntity
  8
0
  6
Continuous
 62
     7
370
    25
100
AcDbLine
 10
0.6616903314
 20
9.2192985176
 30
0.0
 11
0.6616903314
 21
8.8442985176
 31
0.0
  0
LINE
  5
95
330
1F
100
AcDbEntity
  8
0
  6
Continuous
 62
     7
370
    25
100
AcDbLine
 10
0.3159267094
 20
9.2192985168
 30
0.0
 11
0.6616903314
 21
9.2192985176
 31
0.0
  0
SPLINE
  5
96
330
1F
100
AcDbEntity
  8
0
  6
Continuous
 62
     7
370
    25
100
AcDbSpline
210
0.0
220
0.0
230
1.0
 70
     8
 71
     3
 72
    21
 73
    17
 74
     0
 42
0.00000001
 43
0.00000001
 40
0.913578602285428
 40
0.913578602285428
 40
0.913578602285428
 40
0.913578602285428
 40
0.9186607344498127
 40
0.9261662532257968
 40
0.9333026258827831
 40
0.9400712202263494
 40
0.9464747799611675
 40
0.9525175260177909
 40
0.9582048188585928
 40
0.9635466521340151
 40
0.9685565999026111
 40
0.9732499128166676
 40
0.9776510407515667
 40
0.9817870430140477
 40
0.9856942262062861
 40
0.9873639225097877
 40
0.9873639225097877
 40
0.9873639225097877
 40
0.9873639225097877
 10
1.574995684632306
 20
10.3201731361278
 30
0.0
 10
1.539774130111036
 20
10.30272554673174
 30
0.0
 10
1.452941632544022
 20
10.25869149297428
 30
0.0
 10
1.318632733088791
 20
10.18631373737381
 30
0.0
 10
1.175538096066892
 20
10.10292238536222
 30
0.0
 10
1.042788377459395
 20
10.01890742260607
 30
0.0
 10
0.9204393705675185
 20
9.934481957931633
 30
0.0
 10
0.8086597614111005
 20
9.849698982457145
 30
0.0
 10
0.7074879479185303
 20
9.764772739470184
 30
0.0
 10
0.6169879546748378
 20
9.679832549497593
 30
0.0
 10
0.5372891426119719
 20
9.59493692408636
 30
0.0
 10
0.4683886430922147
 20
9.510235364836683
 30
0.0
 10
0.410376752921151
 20
9.42579495262479
 30
0.0
 10
0.3632635366082429
 20
9.341695588105773
 30
0.0
 10
0.333451354877455
 20
9.27259183610288
 30
0.0
 10
0.3197085570785151
 20
9.231655015462321
 30
0.0
 10
0.31592670937587
 20
9.219298516793993
 30
0.0
  0
LINE
  5
97
330
1F
100
AcDbEntity
  8
0
  6
Continuous
 62
     7
370
    25
100
AcDbLine
 10
1.5749956846
 20
10.3201731361
 30
0.0
 11
1.6558048076
 21
10.1509805369
 31
0.0
  0
LINE
  5
98
330
1F
100
AcDbEntity
  8
0
  6
Continuous
 62
     7
370
    25
100
AcDbLine
 10
1.6558048076
 20
10.1509805369
 30
0.0
 11
1.824997407
 21
10.2317896594
 31
0.0
  0
LINE
  5
99
330
1F
100
AcDbEntity
  8
0
  6
Continuous
 62
     7
370
    25
100
AcDbLine
 10
1.824997407
 20
10.2317896594
 30
0.0
 11
1.7441882842
 21
10.4009822588
 31
0.0
  0
SPLINE
  5
9A
330
1F
100
AcDbEntity
  8
0
  6
Continuous
 62
     7
370
    25
100
AcDbSpline
210
0.0
220
0.0
230
1.0
 70
     8
 71
     3
 72
    14
 73
    10
 74
     0
 42
0.00000001
 43
0.00000001
 40
0.8513043678676254
 40
0.8513043678676254
 40
0.8513043678676254
 40
0.8513043678676254
 40
0.8560378532405389
 40
0.8660338344886196
 40
0.8756888427883988
 40
0.8849977189913464
 40
0.8939534257020234
 40
0.9025528972589622
 40
0.9054973013061784
 40
0.9054973013061784
 40
0.9054973013061784
 40
0.9054973013061784
 10
2.920279766128861
 20
10.84324134586157
 30
0.0
 10
2.885302535196872
 20
10.83243368855338
 30
0.0
 10
2.776611770023403
 20
10.79831796074479
 30
0.0
 10
2.597504060548902
 20
10.73923841213083
 30
0.0
 10
2.386265708673328
 20
10.66474157727749
 30
0.0
 10
2.184250839750837
 20
10.5884356076846
 30
0.0
 10
1.991614203048143
 20
10.51055557997297
 30
0.0
 10
1.846137258277259
 20
10.44748886531516
 30
0.0
 10
1.764870505688723
 20
10.41051283605743
 30
0.0
 10
1.744188284199109
 20
10.40098225878383
 30
0.0
  0
LINE
  5
9B
330
1F
100
AcDbEntity
  8
0
  6
Continuous
 62
     7
370
    25
100
AcDbLine
 10
2.9202797661
 20
10.8432413459
 30
0.0
 11
3.0193435746
 21
10.4869874478
 31
0.0
  0
LINE
  5
9C
330
1F
100
AcDbEntity
  8
0
  6
Continuous
 62
     7
370
    25
100
AcDbLine
 10
3.0193435746
 20
10.4869874478
 30
0.0
 11
3.3806354761
 21
10.5874521776
 31
0.0
  0
LINE
  5
9D
330
1F
100
AcDbEntity
  8
0
  6
Continuous
 62
     7
370
    25
100
AcDbLine
 10
3.3806354761
 20
10.5874521776
 30
0.0
 11
3.280170746
 21
10.948744079
 31
0.0
  0
SPLINE
  5
9E
330
1F
100
AcDbEntity
  8
0
  6
Continuous
 62
     7
370
    25
100
AcDbSpline
210
0.0
220
0.0
230
1.0
 70
     8
 71
     3
 72
    16
 73
    12
 74
     0
 42
0.00000001
 43
0.00000001
 40
0.7462088576025568
 40
0.7462088576025568
 40
0.7462088576025568
 40
0.7462088576025568
 40
0.7521175864591397
 40
0.7647920417814054
 40
0.7772081519207622
 40
0.7893556849316484
 40
0.8012239599679336
 40
0.8128036855342794
 40
0.8240829093538227
 40
0.8350546022887522
 40
0.8351398981997684
 40
0.8351398981997684
 40
0.8351398981997684
 40
0.8351398981997684
 10
5.297756602063622
 20
11.37544803553521
 30
0.0
 10
5.252602293734716
 20
11.36842033399026
 30
0.0
 10
5.110659697725141
 20
11.34587147851274
 30
0.0
 10
4.874265134230376
 20
11.30587862454804
 30
0.0
 10
4.591015960260521
 20
11.25374957607547
 30
0.0
 10
4.314677471232602
 20
11.19868238705627
 30
0.0
 10
4.045550526429064
 20
11.14069142441047
 30
0.0
 10
3.783920010940915
 20
11.07995064371612
 30
0.0
 10
3.530057827014955
 20
11.01656587177912
 30
0.0
 10
3.36319682162321
 20
10.97182491909782
 30
0.0
 10
3.280806310976826
 20
10.94892081105482
 30
0.0
 10
3.280170745951669
 20
10.9487440789768
 30
0.0
  0
LINE
  5
9F
330
1F
100
AcDbEntity
  8
0
  6
Continuous
 62
     7
370
    25
100
AcDbLine
 10
5.2977566021
 20
11.3754480355
 30
0.0
 11
5.3258005563
 21
11.1900571333
 31
0.0
  0
LINE
  5
A0
330
1F
100
AcDbEntity
  8
0
  6
Continuous
 62
     7
370
    25
100
AcDbLine
 10
5.3258005563
 20
11.1900571333
 30
0.0
 11
5.5111914586
 21
11.2181010876
 31
0.0
  0
LINE
  5
A1
330
1F
100
AcDbEntity
  8
0
  6
Continuous
 62
     7
370
    25
100
AcDbLine
 10
5.5111914586
 20
11.2181010876
 30
0.0
 11
5.4831475041
 21
11.4034919898
 31
0.0
  0
SPLINE
  5
A2
330
1F
100
AcDbEntity
  8
0
  6
Continuous
 62
     7
370
    25
100
AcDbSpline
210
0.0
220
0.0
230
1.0
 70
     8
 71
     3
 72
    14
 73
    10
 74
     0
 42
0.00000001
 43
0.00000001
 40
0.6471977191416923
 40
0.6471977191416923
 40
0.6471977191416923
 40
0.6471977191416923
 40
0.6571860540028671
 40
0.6713255457791549
 40
0.6852940138169578
 40
0.6990781474144603
 40
0.7126650949455656
 40
0.7260426447110092
 40
0.7381275985622745
 40
0.7381275985622745
 40
0.7381275985622745
 40
0.7381275985622745
 10
7.580987171731207
 20
11.62187325779601
 30
0.0
 10
7.503902891772681
 20
11.61682724778856
 30
0.0
 10
7.317744500755146
 20
11.60392976234511
 30
0.0
 10
7.024018428004082
 20
11.58074273156417
 30
0.0
 10
6.701346665943268
 20
11.55146947030528
 30
0.0
 10
6.383290520115982
 20
11.51885466865373
 30
0.0
 10
6.07020409585696
 20
11.48280961928035
 30
0.0
 10
5.770632415318873
 20
11.44448707494848
 30
0.0
 10
5.575619114741937
 20
11.41707983839972
 30
0.0
 10
5.483147504097349
 20
11.40349198978254
 30
0.0
  0
LINE
  5
A3
330
1F
100
AcDbEntity
  8
0
  6
Continuous
 62
     7
370
    25
100
AcDbLine
 10
7.5809871717
 20
11.6218732578
 30
0.0
 11
7.5926653028
 21
11.4347372878
 31
0.0
  0
LINE
  5
A4
330
1F
100
AcDbEntity
  8
0
  6
Continuous
 62
     7
370
    25
100
AcDbLine
 10
7.5926653028
 20
11.4347372878
 30
0.0
 11
7.7798012727
 21
11.4464154189
 31
0.0
  0
LINE
  5
A5
330
1F
100
AcDbEntity
  8
0
  6
Continuous
 62
     7
370
    25
100
AcDbLine
 10
7.7798012727
 20
11.4464154189
 30
0.0
 11
7.7681231414
 21
11.6335513888
 31
0.0
  0
SPLINE
  5
A6
330
1F
100
AcDbEntity
  8
0
  6
Continuous
 62
     7
370
    25
100
AcDbSpline
210
0.0
220
0.0
230
1.0
 70
     8
 71
     3
 72
     9
 73
     5
 74
     0
 42
0.00000001
 43
0.00000001
 40
0.6239097271708518
 40
0.6239097271708518
 40
0.6239097271708518
 40
0.6239097271708518
 40
0.628447474920468
 40
0.6391164527335579
 40
0.6391164527335579
 40
0.6391164527335579
 40
0.6391164527335579
 10
8.120437891320567
 20
11.6524633594157
 30
0.0
 10
8.08538360638831
 20
11.65078005747704
 30
0.0
 10
7.967920416400168
 20
11.64494410097424
 30
0.0
 10
7.850491409814274
 20
11.63844160716338
 30
0.0
 10
7.768123141431373
 20
11.63355138882765
 30
0.0
  0
LINE
  5
A7
330
1F
100
AcDbEntity
  8
0
  6
Continuous
 62
     7
370
    25
100
AcDbLine
 10
8.1204378913
 20
11.6524633594
 30
0.0
 11
8.1204378917
 21
11.1424633594
 31
0.0
  0
LINE
  5
A8
330
1F
100
AcDbEntity
  8
0
  6
Continuous
 62
     7
370
    25
100
AcDbLine
 10
8.1204378917
 20
11.1424633594
 30
0.0
 11
8.3704378917
 21
11.1424633594
 31
0.0
  0
LINE
  5
A9
330
1F
100
AcDbEntity
  8
0
  6
Continuous
 62
     7
370
    25
100
AcDbLine
 10
8.3704378917
 20
11.1424633594
 30
0.0
 11
8.3704378913
 21
11.6634961689
 31
0.0
  0
SPLINE
  5
AA
330
1F
100
AcDbEntity
  8
0
  6
Continuous
 62
     7
370
    25
100
AcDbSpline
210
0.0
220
0.0
230
1.0
 70
     8
 71
     3
 72
    12
 73
     8
 74
     0
 42
0.00000001
 43
0.00000001
 40
0.5511452244250064
 40
0.5511452244250064
 40
0.5511452244250064
 40
0.5511452244250064
 40
0.5545829838309861
 40
0.5695295459998657
 40
0.5844034168402927
 40
0.5991909919021363
 40
0.6131242023150876
 40
0.6131242023150876
 40
0.6131242023150876
 40
0.6131242023150876
 10
9.808090515440659
 20
11.69149836225501
 30
0.0
 10
9.781503109228128
 20
11.69150912943177
 30
0.0
 10
9.63931990445169
 20
11.69141708778441
 30
0.0
 10
9.382105487919455
 20
11.68979799083908
 30
0.0
 10
9.03714893352701
 20
11.68434762596509
 30
0.0
 10
8.700097111391146
 20
11.6757036714516
 30
0.0
 10
8.478109120347233
 20
11.66783611142397
 30
0.0
 10
8.370437891321735
 20
11.66349616891042
 30
0.0
  0
LINE
  5
AB
330
1F
100
AcDbEntity
  8
0
  6
Continuous
 62
     7
370
    25
100
AcDbLine
 10
9.8080905154
 20
11.6914983623
 30
0.0
 11
9.8079379039
 21
11.3146536544
 31
0.0
  0
LINE
  5
AC
330
1F
100
AcDbEntity
  8
0
  6
Continuous
 62
     7
370
    25
100
AcDbLine
 10
9.8079379039
 20
11.3146536544
 30
0.0
 11
10.1829378732
 21
11.3145017896
 31
0.0
  0
LINE
  5
AD
330
1F
100
AcDbEntity
  8
0
  6
Continuous
 62
     7
370
    25
100
AcDbLine
 10
10.1829378732
 20
11.3145017896
 30
0.0
 11
10.1830897376
 21
11.6895017589
 31
0.0
  0
SPLINE
  5
AE
330
1F
100
AcDbEntity
  8
0
  6
Continuous
 62
     7
370
    25
100
AcDbSpline
210
0.0
220
0.0
230
1.0
 70
     8
 71
     3
 72
    15
 73
    11
 74
     0
 42
0.00000001
 43
0.00000001
 40
0.4314156119256059
 40
0.4314156119256059
 40
0.4314156119256059
 40
0.4314156119256059
 40
0.4341867493871219
 40
0.4491772650868069
 40
0.4642147821671246
 40
0.4792840087649619
 40
0.4943697397811477
 40
0.5094578326361675
 40
0.5245323463196893
 40
0.5349824261914548
 40
0.5349824261914548
 40
0.5349824261914548
 40
0.5349824261914548
 10
12.58385832319262
 20
11.59527754003388
 30
0.0
 10
12.56247421540201
 20
11.59670603748583
 30
0.0
 10
12.42540593371041
 20
11.60576503899263
 30
0.0
 10
12.17221585764229
 20
11.62133356653464
 30
0.0
 10
11.82393835351517
 20
11.64007723609353
 30
0.0
 10
11.47478730082356
 20
11.65609389883414
 30
0.0
 10
11.12512604827129
 20
11.66927319627226
 30
0.0
 10
10.77532588655945
 20
11.67953556785283
 30
0.0
 10
10.46129467743707
 20
11.68604581154793
 30
0.0
 10
10.26390574179735
 20
11.68867681389474
 30
0.0
 10
10.18308973760713
 20
11.6895017588777
 30
0.0
  0
LINE
  5
AF
330
1F
100
AcDbEntity
  8
0
  6
Continuous
 62
     7
370
    25
100
AcDbLine
 10
12.5838583232
 20
11.59527754
 30
0.0
 11
12.5709778887
 21
11.4082214757
 31
0.0
  0
LINE
  5
B0
330
1F
100
AcDbEntity
  8
0
  6
Continuous
 62
     7
370
    25
100
AcDbLine
 10
12.5709778887
 20
11.4082214757
 30
0.0
 11
12.7580349459
 21
11.3953409729
 31
0.0
  0
LINE
  5
B1
330
1F
100
AcDbEntity
  8
0
  6
Continuous
 62
     7
370
    25
100
AcDbLine
 10
12.7580349459
 20
11.3953409729
 30
0.0
 11
12.7709154484
 21
11.5823980301
 31
0.0
  0
SPLINE
  5
B2
330
1F
100
AcDbEntity
  8
0
  6
Continuous
 62
     7
370
    25
100
AcDbSpline
210
0.0
220
0.0
230
1.0
 70
     8
 71
     3
 72
    16
 73
    12
 74
     0
 42
0.00000001
 43
0.00000001
 40
0.3164238124056181
 40
0.3164238124056181
 40
0.3164238124056181
 40
0.3164238124056181
 40
0.3176892265558903
 40
0.331784111124987
 40
0.346039676653823
 40
0.3604438694916348
 40
0.3749827204038077
 40
0.3896404543545233
 40
0.4044033165867775
 40
0.4192566006634758
 40
0.4233343287137741
 40
0.4233343287137741
 40
0.4233343287137741
 40
0.4233343287137741
 10
15.23965577203209
 20
11.34373341349876
 30
0.0
 10
15.22994147083527
 20
11.34492028600495
 30
0.0
 10
15.11201939527272
 20
11.35929080695505
 30
0.0
 10
14.88454317068869
 20
11.38608803096826
 30
0.0
 10
14.55591558766507
 20
11.42271352526791
 30
0.0
 10
14.22363614416963
 20
11.45751266143151
 30
0.0
 10
13.88803443469624
 20
11.49037662206038
 30
0.0
 10
13.54945020699991
 20
11.52116357036713
 30
0.0
 10
13.2082353124153
 20
11.54978322146219
 30
0.0
 10
12.94840754729645
 20
11.56966855865984
 30
0.0
 10
12.80237336670297
 20
11.58016816339214
 30
0.0
 10
12.77091544837968
 20
11.58239803008819
 30
0.0
  0
LINE
  5
B3
330
1F
100
AcDbEntity
  8
0
  6
Continuous
 62
     7
370
    25
100
AcDbLine
 10
15.239655772
 20
11.3437334135
 30
0.0
 11
15.2169165148
 21
11.1576173847
 31
0.0
  0
LINE
  5
B4
330
1F
100
AcDbEntity
  8
0
  6
Continuous
 62
     7
370
    25
100
AcDbLine
 10
15.2169165148
 20
11.1576173847
 30
0.0
 11
15.4030325436
 21
11.1348781271
 31
0.0
  0
LINE
  5
B5
330
1F
100
AcDbEntity
  8
0
  6
Continuous
 62
     7
370
    25
100
AcDbLine
 10
15.4030325436
 20
11.1348781271
 30
0.0
 11
15.4257335289
 21
11.3206809051
 31
0.0
  0
SPLINE
  5
B6
330
1F
100
AcDbEntity
  8
0
  6
Continuous
 62
     7
370
    25
100
AcDbSpline
210
0.0
220
0.0
230
1.0
 70
     8
 71
     3
 72
     8
 73
     4
 74
     0
 42
0.00000001
 43
0.00000001
 40
0.303997836878645
 40
0.303997836878645
 40
0.303997836878645
 40
0.303997836878645
 40
0.3083424724649535
 40
0.3083424724649535
 40
0.3083424724649535
 40
0.3083424724649535
 10
15.5257490175679
 20
11.30809674179187
 30
0.0
 10
15.49241206244106
 20
11.31230576327573
 30
0.0
 10
15.45907393945723
 20
11.31650326061406
 30
0.0
 10
15.42573352887485
 20
11.32068090513832
 30
0.0
  0
ARC
  5
B7
330
1F
100
AcDbEntity
  8
0
  6
Continuous
 62
     7
370
    25
100
AcDbCircle
 10
15.5006965214
 20
11.1096720144
 30
0.0
 40
0.2000000000000036
100
AcDbArc
 50
353.0342477766
 51
82.8040860347
  0
LINE
  5
B8
330
1F
100
AcDbEntity
  8
0
  6
Continuous
 62
     7
370
    25
100
AcDbLine
 10
15.6992202854
 20
11.0854168063
 30
0.0
 11
15.6445867133
 21
10.6382525389
 31
0.0
  0
SPLINE
  5
B9
330
1F
100
AcDbEntity
  8
0
  6
Continuous
 62
     7
370
    25
100
AcDbSpline
210
0.0
220
0.0
230
1.0
 70
     8
 71
     3
 72
    10
 73
     6
 74
     0
 42
0.00000001
 43
0.00000001
 40
0.3362614121117422
 40
0.3362614121117422
 40
0.3362614121117422
 40
0.3362614121117422
 40
0.3430891207344148
 40
0.3755557001470496
 40
0.4110496531909501
 40
0.4110496531909501
 40
0.4110496531909501
 40
0.4110496531909501
 10
7.374964472638761
 20
8.563152577655746
 30
0.0
 10
7.425021196840871
 20
8.568397518097408
 30
0.0
 10
7.713120735352321
 20
8.598915819312897
 30
0.0
 10
8.26159940743741
 20
8.660468315971348
 30
0.0
 10
8.760231623546831
 20
8.72059570222863
 30
0.0
 10
9.020703491651355
 20
8.752860955620084
 30
0.0
  0
ARC
  5
BA
330
1F
100
AcDbEntity
  8
0
  6
Continuous
 62
     7
370
    25
100
AcDbCircle
 10
8.9961169428
 20
8.9513439564
 30
0.0
 40
0.2000000000000003
100
AcDbArc
 50
277.0613899986
 51
12.8521590687
  0
ARC
  5
BB
330
1F
100
AcDbEntity
  8
0
  6
Continuous
 62
     7
370
    25
100
AcDbCircle
 10
9.9954378885
 20
9.1793409902
 30
0.0
 40
0.8249999999999997
100
AcDbArc
 50
114.4962790512
 51
192.8521590687
  0
ARC
  5
BC
330
1F
100
AcDbEntity
  8
0
  6
Continuous
 62
     7
370
    25
100
AcDbCircle
 10
9.5704378885
 20
10.1120788955
 30
0.0
 40
0.2000000000000011
100
AcDbArc
 50
294.4962790512
 51
0.0
  0
LINE
  5
BD
330
1F
100
AcDbEntity
  8
0
  6
Continuous
 62
     7
370
    25
100
AcDbLine
 10
9.7704378885
 20
10.7877457839
 30
0.0
 11
9.7704378885
 21
10.1120788955
 31
0.0
  0
ARC
  5
BE
330
1F
100
AcDbEntity
  8
0
  6
Continuous
 62
     7
370
    25
100
AcDbCircle
 10
9.5704378885
 20
10.7877457839
 30
0.0
 40
0.2000000000000005
100
AcDbArc
 50
0.0
 51
132.4268885054
  0
LINE
  5
BF
330
1F
100
AcDbEntity
  8
0
  6
Continuous
 62
     7
370
    25
100
AcDbLine
 10
7.2191928096
 20
8.9096914151
 30
0.0
 11
9.4355081155
 21
10.9353735467
 31
0.0
  0
ARC
  5
C0
330
1F
100
AcDbEntity
  8
0
  6
Continuous
 62
     7
370
    25
100
AcDbCircle
 10
7.3541225826
 20
8.7620636523
 30
0.0
 40
0.200000000000001
100
AcDbArc
 50
132.4268885054
 51
275.9816215157
  0
CIRCLE
  5
C1
330
1F
100
AcDbEntity
  8
0
  6
Continuous
 62
     7
370
    25
100
AcDbCircle
 10
2.9954378885
 20
9.1793409902
 30
0.0
 40
0.3750000000000009
  0
ARC
  5
C2
330
1F
100
AcDbEntity
  8
0
  6
Continuous
 62
     7
370
    25
100
AcDbCircle
 10
6.6800975034
 20
9.2975587891
 30
0.0
 40
0.2000000000000017
100
AcDbArc
 50
241.1174148316
 51
312.4268885054
  0
LINE
  5
C3
330
1F
100
AcDbEntity
  8
0
  6
Continuous
 62
     7
370
    25
100
AcDbLine
 10
6.8150272764
 20
9.1499310263
 30
0.0
 11
7.7053676647
 21
9.9636900663
 31
0.0
  0
ARC
  5
C4
330
1F
100
AcDbEntity
  8
0
  6
Continuous
 62
     7
370
    25
100
AcDbCircle
 10
7.5704378917
 20
10.1113178291
 30
0.0
 40
0.2000000000000002
100
AcDbArc
 50
312.4268885054
 51
360.0
  0
LINE
  5
C5
330
1F
100
AcDbEntity
  8
0
  6
Continuous
 62
     7
370
    25
100
AcDbLine
 10
7.7704378917
 20
10.9697326633
 30
0.0
 11
7.7704378917
 21
10.1113178291
 31
0.0
  0
ARC
  5
C6
330
1F
100
AcDbEntity
  8
0
  6
Continuous
 62
     7
370
    25
100
AcDbCircle
 10
7.5704378917
 20
10.9697326633
 30
0.0
 40
0.2000000000000037
100
AcDbArc
 50
360.0
 51
93.8532955969
  0
SPLINE
  5
C7
330
1F
100
AcDbEntity
  8
0
  6
Continuous
 62
     7
370
    25
100
AcDbSpline
210
0.0
220
0.0
230
1.0
 70
     8
 71
     3
 72
    12
 73
     8
 74
     0
 42
0.00000001
 43
0.00000001
 40
0.6495387253880556
 40
0.6495387253880556
 40
0.6495387253880556
 40
0.6495387253880556
 40
0.6546782532817266
 40
0.686913106149885
 40
0.7493597521635109
 40
0.7805830751703239
 40
0.7911832058696918
 40
0.7911832058696918
 40
0.7911832058696918
 40
0.7911832058696918
 10
7.55699748965784
 20
11.16928054125061
 30
0.0
 10
7.517928635295553
 20
11.16664908700882
 30
0.0
 10
7.233895359751558
 20
11.14695065744963
 30
0.0
 10
6.476848359369223
 20
11.08328398957679
 30
0.0
 10
5.527959254722844
 20
10.9645284263803
 30
0.0
 10
4.751129080276987
 20
10.82759400405976
 30
0.0
 10
4.441856123423321
 20
10.76488201464167
 30
0.0
 10
4.363638224904951
 20
10.74846237739601
 30
0.0
  0
ARC
  5
C8
330
1F
100
AcDbEntity
  8
0
  6
Continuous
 62
     7
370
    25
100
AcDbCircle
 10
4.4047270003
 20
10.5527285976
 30
0.0
 40
0.2000000000000012
100
AcDbArc
 50
101.855484399
 51
241.1174148316
  0
LINE
  5
C9
330
1F
100
AcDbEntity
  8
0
  6
Continuous
 62
     7
370
    25
100
AcDbLine
 10
4.3081237469
 20
10.377606322
 30
0.0
 11
6.58349425
 21
9.1224365134
 31
0.0
  0
ARC
  5
CA
330
1F
100
AcDbEntity
  8
0
  6
Continuous
 62
     7
370
    25
100
AcDbCircle
 10
12.0406781288
 20
10.9773077961
 30
0.0
 40
0.2000000000000014
100
AcDbArc
 50
86.8207118578
 51
241.1174148316
  0
LINE
  5
CB
330
1F
100
AcDbEntity
  8
0
  6
Continuous
 62
     7
370
    25
100
AcDbLine
 10
11.9440748755
 20
10.8021855204
 30
0.0
 11
13.4247464714
 21
9.9853979771
 31
0.0
  0
ARC
  5
CC
330
1F
100
AcDbEntity
  8
0
  6
Continuous
 62
     7
370
    25
100
AcDbCircle
 10
13.5213497247
 20
10.1605202527
 30
0.0
 40
0.2000000000000018
100
AcDbArc
 50
241.1174148316
 51
312.4268885054
  0
LINE
  5
CD
330
1F
100
AcDbEntity
  8
0
  6
Continuous
 62
     7
370
    25
100
AcDbLine
 10
13.6562794978
 20
10.0128924899
 30
0.0
 11
14.3598862348
 21
10.6559795051
 31
0.0
  0
ARC
  5
CE
330
1F
100
AcDbEntity
  8
0
  6
Continuous
 62
     7
370
    25
100
AcDbCircle
 10
14.2249564617
 20
10.8036072679
 30
0.0
 40
0.2000000000000018
100
AcDbArc
 50
312.4268885054
 51
84.1345272799
  0
SPLINE
  5
CF
330
1F
100
AcDbEntity
  8
0
  6
Continuous
 62
     7
370
    25
100
AcDbSpline
210
0.0
220
0.0
230
1.0
 70
     8
 71
     3
 72
    11
 73
     7
 74
     0
 42
0.00000001
 43
0.00000001
 40
0.3575494110876469
 40
0.3575494110876469
 40
0.3575494110876469
 40
0.3575494110876469
 40
0.3746798760817555
 40
0.4059031990885684
 40
0.4371265220953814
 40
0.4533143653489232
 40
0.4533143653489232
 40
0.4533143653489232
 40
0.4533143653489232
 10
14.24539508086726
 20
11.00256018409321
 30
0.0
 10
14.11480717705644
 20
11.01597560156628
 30
0.0
 10
13.7461469293274
 20
11.0523828353529
 30
0.0
 10
13.13864656853805
 20
11.10530977197682
 30
0.0
 10
12.53790545487815
 20
11.14846838742156
 30
0.0
 10
12.17551714783713
 20
11.17012631784308
 30
0.0
 10
12.05177024381421
 20
11.17699997167378
 30
0.0
  0
ARC
  5
D0
330
1F
100
AcDbEntity
  8
0
  6
Continuous
 62
     7
370
    25
100
AcDbCircle
 10
14.7770843468
 20
9.7242439905
 30
0.0
 40
0.200000000000008
100
AcDbArc
 50
277.5970414111
 51
47.182557196
  0
ARC
  5
D1
330
1F
100
AcDbEntity
  8
0
  6
Continuous
 62
     7
370
    25
100
AcDbCircle
 10
15.2528495985
 20
10.2377100802
 30
0.0
 40
0.5000000000000115
100
AcDbArc
 50
200.5192866722
 51
227.182557196
  0
ARC
  5
D2
330
1F
100
AcDbEntity
  8
0
  6
Continuous
 62
     7
370
    25
100
AcDbCircle
 10
14.597261623
 20
9.992344218
 30
0.0
 40
0.2000000000000021
100
AcDbArc
 50
20.5192866722
 51
132.4268885053
  0
LINE
  5
D3
330
1F
100
AcDbEntity
  8
0
  6
Continuous
 62
     7
370
    25
100
AcDbLine
 10
14.0877787948
 20
9.7976355682
 30
0.0
 11
14.4623318499
 21
10.1399719808
 31
0.0
  0
ARC
  5
D4
330
1F
100
AcDbEntity
  8
0
  6
Continuous
 62
     7
370
    25
100
AcDbCircle
 10
14.2227085679
 20
9.6500078054
 30
0.0
 40
0.2000000000041554
100
AcDbArc
 50
132.4268885053
 51
277.6599695512
  0
SPLINE
  5
D5
330
1F
100
AcDbEntity
  8
0
  6
Continuous
 62
     7
370
    25
100
AcDbSpline
210
0.0
220
0.0
230
1.0
 70
     8
 71
     3
 72
    11
 73
     7
 74
     0
 42
0.00000001
 43
0.00000001
 40
0.6481961029693138
 40
0.6481961029693138
 40
0.6481961029693138
 40
0.6481961029693138
 40
0.6520988798433948
 40
0.6565556350808772
 40
0.6713345446924556
 40
0.6732859331294959
 40
0.6732859331294959
 40
0.6732859331294959
 40
0.6732859331294959
 10
14.24936732572404
 20
9.451792491582445
 30
0.0
 10
14.27810093171689
 20
9.45565698736812
 30
0.0
 10
14.33964736924419
 20
9.463928597862104
 30
0.0
 10
14.5100052822825
 20
9.486789079607439
 30
0.0
 10
14.66600440818364
 20
9.507653247237613
 30
0.0
 10
14.7891599207243
 20
9.52408350925556
 30
0.0
 10
14.80352538809346
 20
9.525999516845554
 30
0.0
  0
CIRCLE
  5
D6
330
1F
100
AcDbEntity
  8
0
  6
Continuous
 62
     7
370
    25
100
AcDbCircle
 10
9.9954378885
 20
9.1793409902
 30
0.0
 40
0.375
  0
ARC
  5
D7
330
1F
100
AcDbEntity
  8
0
  6
Continuous
 62
     7
370
    25
100
AcDbCircle
 10
2.121899689
 20
8.6430984946
 30
0.0
 40
0.2000000000000012
100
AcDbArc
 50
261.6125656441
 51
31.5446870278
  0
ARC
  5
D8
330
1F
100
AcDbEntity
  8
0
  6
Continuous
 62
     7
370
    25
100
AcDbCircle
 10
2.9954378885
 20
9.1793409902
 30
0.0
 40
0.8250000000000005
100
AcDbArc
 50
114.4962790512
 51
211.5446870278
  0
ARC
  5
D9
330
1F
100
AcDbEntity
  8
0
  6
Continuous
 62
     7
370
    25
100
AcDbCircle
 10
2.5704378885
 20
10.1120788955
 30
0.0
 40
0.199999999999999
100
AcDbArc
 50
294.4962790512
 51
349.0852697611
  0
ARC
  5
DA
330
1F
100
AcDbEntity
  8
0
  6
Continuous
 62
     7
370
    25
100
AcDbCircle
 10
2.5704378885
 20
10.0363397396
 30
0.0
 40
0.1999999999999993
100
AcDbArc
 50
10.9147302389
 51
111.3381887662
  0
SPLINE
  5
DB
330
1F
100
AcDbEntity
  8
0
  6
Continuous
 62
     7
370
    25
100
AcDbSpline
210
0.0
220
0.0
230
1.0
 70
     8
 71
     3
 72
     8
 73
     4
 74
     0
 42
0.00000001
 43
0.00000001
 40
0.0587970678286712
 40
0.0587970678286712
 40
0.0587970678286712
 40
0.0587970678286712
 40
1.0
 40
1.0
 40
1.0
 40
1.0
 10
2.497663460467502
 20
10.22262952091581
 30
0.0
 10
1.075457854485472
 20
9.667042419826354
 30
0.0
 10
0.230454171611255
 20
8.719816763072133
 30
0.0
 10
2.092726475860358
 20
8.445237625225605
 30
0.0
  0
CIRCLE
  5
DC
330
1F
100
AcDbEntity
  8
0
  6
Continuous
 62
     7
370
    25
100
AcDbCircle
 10
15.2528495985
 20
10.2377100802
 30
0.0
 40
0.2500000000000036
  0
ARC
  5
DD
330
1F
100
AcDbEntity
  8
0
  6
Continuous
 62
     7
370
    25
100
AcDbCircle
 10
5.5130219873
 20
8.6013572395
 30
0.0
 40
0.2000000000000004
100
AcDbArc
 50
225.0
 51
273.7688746373
  0
SPLINE
  5
DE
330
1F
100
AcDbEntity
  8
0
  6
Continuous
 62
     7
370
    25
100
AcDbSpline
210
0.0
220
0.0
230
1.0
 70
     8
 71
     3
 72
     9
 73
     5
 74
     0
 42
0.00000001
 43
0.00000001
 40
0.2521216159124464
 40
0.2521216159124464
 40
0.2521216159124464
 40
0.2521216159124464
 40
0.271707070552634
 40
0.2791557719663175
 40
0.2791557719663175
 40
0.2791557719663175
 40
0.2791557719663175
 10
5.526168356275069
 20
8.401789774806211
 30
0.0
 10
5.669418907850709
 20
8.411226306009148
 30
0.0
 10
5.867247166287196
 20
8.425445258637522
 30
0.0
 10
6.065140160366832
 20
8.441100970043829
 30
0.0
 10
6.119672876589709
 20
8.445518615734624
 30
0.0
  0
ARC
  5
DF
330
1F
100
AcDbEntity
  8
0
  6
Continuous
 62
     7
370
    25
100
AcDbCircle
 10
6.1035239604
 20
8.6448655809
 30
0.0
 40
0.2000000000002394
100
AcDbArc
 50
274.6313655311
 51
61.1174148316
  0
LINE
  5
E0
330
1F
100
AcDbEntity
  8
0
  6
Continuous
 62
     7
370
    25
100
AcDbLine
 10
3.5170411419
 20
10.3000670905
 30
0.0
 11
6.2001272138
 21
8.8199878565
 31
0.0
  0
ARC
  5
E1
330
1F
100
AcDbEntity
  8
0
  6
Continuous
 62
     7
370
    25
100
AcDbCircle
 10
3.4204378885
 20
10.1249448148
 30
0.0
 40
0.2000000000000005
100
AcDbArc
 50
61.1174148316
 51
180.0
  0
LINE
  5
E2
330
1F
100
AcDbEntity
  8
0
  6
Continuous
 62
     7
370
    25
100
AcDbLine
 10
3.2204378885
 20
10.1120788955
 30
0.0
 11
3.2204378885
 21
10.1249448148
 31
0.0
  0
ARC
  5
E3
330
1F
100
AcDbEntity
  8
0
  6
Continuous
 62
     7
370
    25
100
AcDbCircle
 10
3.4204378885
 20
10.1120788955
 30
0.0
 40
0.1999999999999997
100
AcDbArc
 50
180.0
 51
245.5037209488
  0
ARC
  5
E4
330
1F
100
AcDbEntity
  8
0
  6
Continuous
 62
     7
370
    25
100
AcDbCircle
 10
2.9954378885
 20
9.1793409902
 30
0.0
 40
0.8250000000000011
100
AcDbArc
 50
321.3799117912
 51
65.5037209488
  0
ARC
  5
E5
330
1F
100
AcDbEntity
  8
0
  6
Continuous
 62
     7
370
    25
100
AcDbCircle
 10
3.7962721196
 20
8.5395835874
 30
0.0
 40
0.2000000000000005
100
AcDbArc
 50
141.3799117912
 51
269.9405706167
  0
SPLINE
  5
E6
330
1F
100
AcDbEntity
  8
0
  6
Continuous
 62
     7
370
    25
100
AcDbSpline
210
0.0
220
0.0
230
1.0
 70
     8
 71
     3
 72
    10
 73
     6
 74
     0
 42
0.00000001
 43
0.00000001
 40
0.1730002194696571
 40
0.1730002194696571
 40
0.1730002194696571
 40
0.1730002194696571
 40
0.1808057732178189
 40
0.1886113269659808
 40
0.202116836666204
 40
0.202116836666204
 40
0.202116836666204
 40
0.202116836666204
 10
3.796064671947657
 20
8.33958369500743
 30
0.0
 10
3.852642597965978
 20
8.339525010188312
 30
0.0
 10
3.965890558401809
 20
8.339917652170662
 30
0.0
 10
4.177421934043203
 20
8.342441796047572
 30
0.0
 10
4.332511254703951
 20
8.34593512807456
 30
0.0
 10
4.430882110917899
 20
8.348748907951816
 30
0.0
  0
ARC
  5
E7
330
1F
100
AcDbEntity
  8
0
  6
Continuous
 62
     7
370
    25
100
AcDbCircle
 10
4.4251636906
 20
8.5486671404
 30
0.0
 40
0.2000000000000015
100
AcDbArc
 50
271.638430029
 51
315.0
  0
LINE
  5
E8
330
1F
100
AcDbEntity
  8
0
  6
Continuous
 62
     7
370
    25
100
AcDbLine
 10
4.8743592448
 20
8.7150199821
 30
0.0
 11
4.5665850469
 21
8.4072457842
 31
0.0
  0
ARC
  5
E9
330
1F
100
AcDbEntity
  8
0
  6
Continuous
 62
     7
370
    25
100
AcDbCircle
 10
5.015780601
 20
8.5735986258
 30
0.0
 40
0.2000000000000008
100
AcDbArc
 50
95.8378535713
 51
135.0
  0
ARC
  5
EA
330
1F
100
AcDbEntity
  8
0
  6
Continuous
 62
     7
370
    25
100
AcDbCircle
 10
4.9750951761
 20
8.5735986258
 30
0.0
 40
0.2000000000000008
100
AcDbArc
 50
45.0
 51
84.1621464287
  0
LINE
  5
EB
330
1F
100
AcDbEntity
  8
0
  6
Continuous
 62
     7
370
    25
100
AcDbLine
 10
5.1165165323
 20
8.7150199821
 30
0.0
 11
5.3716006311
 21
8.4599358833
 31
0.0
  0
ARC
  5
EC
330
1F
100
AcDbEntity
  8
0
  6
Continuous
 62
     7
370
    25
100
AcDbCircle
 10
12.4775032919
 20
9.4129437554
 30
0.0
 40
0.2000000000000008
100
AcDbArc
 50
225.0
 51
277.7748439723
  0
LINE
  5
ED
330
1F
100
AcDbEntity
  8
0
  6
Continuous
 62
     7
370
    25
100
AcDbLine
 10
12.5045594051
 20
9.2147822891
 30
0.0
 11
13.0170192663
 21
9.2847063252
 31
0.0
  0
ARC
  5
EE
330
1F
100
AcDbEntity
  8
0
  6
Continuous
 62
     7
370
    25
100
AcDbCircle
 10
12.9900105647
 20
9.4828742591
 30
0.0
 40
0.2000000000000726
100
AcDbArc
 50
277.7611357549
 51
61.1174148316
  0
LINE
  5
EF
330
1F
100
AcDbEntity
  8
0
  6
Continuous
 62
     7
370
    25
100
AcDbLine
 10
10.5170411419
 20
11.0754580162
 30
0.0
 11
13.0866138181
 21
9.6579965348
 31
0.0
  0
ARC
  5
F0
330
1F
100
AcDbEntity
  8
0
  6
Continuous
 62
     7
370
    25
100
AcDbCircle
 10
10.4204378885
 20
10.9003357405
 30
0.0
 40
0.1999999999999998
100
AcDbArc
 50
61.1174148316
 51
180.0
  0
LINE
  5
F1
330
1F
100
AcDbEntity
  8
0
  6
Continuous
 62
     7
370
    25
100
AcDbLine
 10
10.2204378885
 20
10.1120788955
 30
0.0
 11
10.2204378885
 21
10.9003357405
 31
0.0
  0
ARC
  5
F2
330
1F
100
AcDbEntity
  8
0
  6
Continuous
 62
     7
370
    25
100
AcDbCircle
 10
10.4204378885
 20
10.1120788955
 30
0.0
 40
0.2000000000000004
100
AcDbArc
 50
180.0
 51
245.5037209488
  0
ARC
  5
F3
330
1F
100
AcDbEntity
  8
0
  6
Continuous
 62
     7
370
    25
100
AcDbCircle
 10
9.9954378885
 20
9.1793409902
 30
0.0
 40
0.8249999999999992
100
AcDbArc
 50
1.9846926466
 51
65.5037209488
  0
ARC
  5
F4
330
1F
100
AcDbEntity
  8
0
  6
Continuous
 62
     7
370
    25
100
AcDbCircle
 10
11.0198230066
 20
9.214839297
 30
0.0
 40
0.2000000000000015
100
AcDbArc
 50
181.9846926466
 51
277.6674048107
  0
SPLINE
  5
F5
330
1F
100
AcDbEntity
  8
0
  6
Continuous
 62
     7
370
    25
100
AcDbSpline
210
0.0
220
0.0
230
1.0
 70
     8
 71
     3
 72
     8
 73
     4
 74
     0
 42
0.00000001
 43
0.00000001
 40
0.503022154008895
 40
0.503022154008895
 40
0.503022154008895
 40
0.503022154008895
 40
0.5198377706621563
 40
0.5198377706621563
 40
0.5198377706621563
 40
0.5198377706621563
 10
11.04650748663939
 20
9.016627444372082
 30
0.0
 10
11.17004283319003
 20
9.03325852087034
 30
0.0
 10
11.29359479724806
 20
9.04995224997659
 30
0.0
 10
11.41716157842492
 20
9.066692936354386
 30
0.0
  0
ARC
  5
F6
330
1F
100
AcDbEntity
  8
0
  6
Continuous
 62
     7
370
    25
100
AcDbCircle
 10
11.3903111003
 20
9.2648823705
 30
0.0
 40
0.2000000000000021
100
AcDbArc
 50
277.7153915083
 51
315.0
  0
LINE
  5
F7
330
1F
100
AcDbEntity
  8
0
  6
Continuous
 62
     7
370
    25
100
AcDbLine
 10
11.8993592448
 20
9.4910878026
 30
0.0
 11
11.5317324565
 21
9.1234610143
 31
0.0
  0
ARC
  5
F8
330
1F
100
AcDbEntity
  8
0
  6
Continuous
 62
     7
370
    25
100
AcDbCircle
 10
12.040780601
 20
9.3496664463
 30
0.0
 40
0.2000000000000001
100
AcDbArc
 50
99.4515517649
 51
135.0
  0
ARC
  5
F9
330
1F
100
AcDbEntity
  8
0
  6
Continuous
 62
     7
370
    25
100
AcDbCircle
 10
11.9750951761
 20
9.3496664463
 30
0.0
 40
0.1999999999999996
100
AcDbArc
 50
45.0
 51
80.5484482351
  0
LINE
  5
FA
330
1F
100
AcDbEntity
  8
0
  6
Continuous
 62
     7
370
    25
100
AcDbLine
 10
12.1165165323
 20
9.4910878026
 30
0.0
 11
12.3360819357
 21
9.2715223992
 31
0.0
  0
MTEXT
  5
FC
330
1F
100
AcDbEntity
  8
PART_NAMES
100
AcDbMText
 10
10.4699064226
 20
11.4926251376
 30
0.0
 40
0.1666666667
 41
0.0
 71
     1
 72
     1
  1
1.2.1.1.4
  7
SLDTEXTSTYLE0
 73
     1
 44
1.0
  0
LINE
  5
FD
330
1F
100
AcDbEntity
  8
0
  6
Continuous
 62
     7
370
    25
100
AcDbLine
 10
2.7893353076
 20
6.4848384768
 30
0.0
 11
2.7085261849
 21
6.6540310763
 31
0.0
  0
SPLINE
  5
FE
330
1F
100
AcDbEntity
  8
0
  6
Continuous
 62
     7
370
    25
100
AcDbSpline
210
0.0
220
0.0
230
1.0
 70
     8
 71
     3
 72
    14
 73
    10
 74
     0
 42
0.00000001
 43
0.00000001
 40
0.8513043678676254
 40
0.8513043678676254
 40
0.8513043678676254
 40
0.8513043678676254
 40
0.8560378532405389
 40
0.8660338344886196
 40
0.8756888427883988
 40
0.8849977189913464
 40
0.8939534257020234
 40
0.9025528972589622
 40
0.9054973012984295
 40
0.9054973012984295
 40
0.9054973012984295
 40
0.9054973012984295
 10
3.884617666693993
 20
7.09629016325582
 30
0.0
 10
3.849640435762005
 20
7.08548250594763
 30
0.0
 10
3.740949670588534
 20
7.051366778139036
 30
0.0
 10
3.561841961114034
 20
6.992287229525075
 30
0.0
 10
3.350603609238461
 20
6.917790394671734
 30
0.0
 10
3.148588740315969
 20
6.841484425078846
 30
0.0
 10
2.955952103613274
 20
6.763604397367216
 30
0.0
 10
2.810475158897381
 20
6.700537682733249
 30
0.0
 10
2.729208406362957
 20
6.663561653501322
 30
0.0
 10
2.708526184927531
 20
6.654031076253321
 30
0.0
  0
LINE
  5
FF
330
1F
100
AcDbEntity
  8
0
  6
Continuous
 62
     7
370
    25
100
AcDbLine
 10
3.8846176667
 20
7.0962901633
 30
0.0
 11
3.9836814752
 21
6.7400362652
 31
0.0
  0
LINE
  5
100
330
1F
100
AcDbEntity
  8
0
  6
Continuous
 62
     7
370
    25
100
AcDbLine
 10
3.9836814752
 20
6.7400362652
 30
0.0
 11
4.3449733767
 21
6.840500995
 31
0.0
  0
LINE
  5
101
330
1F
100
AcDbEntity
  8
0
  6
Continuous
 62
     7
370
    25
100
AcDbLine
 10
4.3449733767
 20
6.840500995
 30
0.0
 11
4.2445086469
 21
7.2017928965
 31
0.0
  0
SPLINE
  5
102
330
1F
100
AcDbEntity
  8
0
  6
Continuous
 62
     7
370
    25
100
AcDbSpline
210
0.0
220
0.0
230
1.0
 70
     8
 71
     3
 72
    16
 73
    12
 74
     0
 42
0.00000001
 43
0.00000001
 40
0.7462088576025568
 40
0.7462088576025568
 40
0.7462088576025568
 40
0.7462088576025568
 40
0.7521175864591397
 40
0.7647920417814054
 40
0.7772081519207622
 40
0.7893556849316484
 40
0.8012239599679336
 40
0.8128036855342794
 40
0.8240829093538227
 40
0.8350546022887522
 40
0.835139898183205
 40
0.835139898183205
 40
0.835139898183205
 40
0.835139898183205
 10
6.262094502628754
 20
7.628496852929457
 30
0.0
 10
6.216940194299848
 20
7.621469151384508
 30
0.0
 10
6.074997598290273
 20
7.598920295906985
 30
0.0
 10
5.838603034795508
 20
7.558927441942285
 30
0.0
 10
5.555353860825654
 20
7.506798393469719
 30
0.0
 10
5.279015371797735
 20
7.451731204450516
 30
0.0
 10
5.009888426994196
 20
7.393740241804712
 30
0.0
 10
4.748257911506047
 20
7.332999461110364
 30
0.0
 10
4.494395727580087
 20
7.269614689173362
 30
0.0
 10
4.327534722312078
 20
7.224873736525243
 30
0.0
 10
4.245144211788799
 20
7.201969628517683
 30
0.0
 10
4.244508646887057
 20
7.201792896474007
 30
0.0
  0
LINE
  5
103
330
1F
100
AcDbEntity
  8
0
  6
Continuous
 62
     7
370
    25
100
AcDbLine
 10
6.2620945026
 20
7.6284968529
 30
0.0
 11
6.2901384569
 21
7.4431059507
 31
0.0
  0
LINE
  5
104
330
1F
100
AcDbEntity
  8
0
  6
Continuous
 62
     7
370
    25
100
AcDbLine
 10
6.2901384569
 20
7.4431059507
 30
0.0
 11
6.4755293591
 21
7.471149905
 31
0.0
  0
LINE
  5
105
330
1F
100
AcDbEntity
  8
0
  6
Continuous
 62
     7
370
    25
100
AcDbLine
 10
6.4755293591
 20
7.471149905
 30
0.0
 11
6.4474854045
 21
7.6565408072
 31
0.0
  0
SPLINE
  5
106
330
1F
100
AcDbEntity
  8
0
  6
Continuous
 62
     7
370
    25
100
AcDbSpline
210
0.0
220
0.0
230
1.0
 70
     8
 71
     3
 72
    14
 73
    10
 74
     0
 42
0.00000001
 43
0.00000001
 40
0.6471977191416923
 40
0.6471977191416923
 40
0.6471977191416923
 40
0.6471977191416923
 40
0.6571860540028671
 40
0.6713255457791549
 40
0.6852940138169578
 40
0.6990781474144603
 40
0.7126650949455656
 40
0.7260426447110092
 40
0.7381275985692739
 40
0.7381275985692739
 40
0.7381275985692739
 40
0.7381275985692739
 10
8.54532507229634
 20
7.874922075190253
 30
0.0
 10
8.468240792337813
 20
7.869876065182805
 30
0.0
 10
8.282082401320277
 20
7.856978579739355
 30
0.0
 10
7.988356328569213
 20
7.833791548958412
 30
0.0
 10
7.665684566508399
 20
7.804518287699525
 30
0.0
 10
7.347628420681113
 20
7.771903486047981
 30
0.0
 10
7.034541996422091
 20
7.735858436674597
 30
0.0
 10
6.734970315830309
 20
7.69753589233586
 30
0.0
 10
6.539957015199853
 20
7.670128655778898
 30
0.0
 10
6.447485404501807
 20
7.656540807153178
 30
0.0
  0
LINE
  5
107
330
1F
100
AcDbEntity
  8
0
  6
Continuous
 62
     7
370
    25
100
AcDbLine
 10
8.5453250723
 20
7.8749220752
 30
0.0
 11
8.5570032033
 21
7.6877861052
 31
0.0
  0
LINE
  5
108
330
1F
100
AcDbEntity
  8
0
  6
Continuous
 62
     7
370
    25
100
AcDbLine
 10
8.5570032033
 20
7.6877861052
 30
0.0
 11
8.7441391733
 21
7.6994642363
 31
0.0
  0
LINE
  5
109
330
1F
100
AcDbEntity
  8
0
  6
Continuous
 62
     7
370
    25
100
AcDbLine
 10
8.7441391733
 20
7.6994642363
 30
0.0
 11
8.7324610419
 21
7.8866002062
 31
0.0
  0
SPLINE
  5
10A
330
1F
100
AcDbEntity
  8
0
  6
Continuous
 62
     7
370
    25
100
AcDbSpline
210
0.0
220
0.0
230
1.0
 70
     8
 71
     3
 72
     9
 73
     5
 74
     0
 42
0.00000001
 43
0.00000001
 40
0.6239097273078288
 40
0.6239097273078288
 40
0.6239097273078288
 40
0.6239097273078288
 40
0.628447474920468
 40
0.6391164527381705
 40
0.6391164527381705
 40
0.6391164527381705
 40
0.6391164527381705
 10
9.08477578871124
 20
7.905512176657511
 30
0.0
 10
9.049721504837306
 20
7.903828874766153
 30
0.0
 10
8.932258315871909
 20
7.897992918308151
 30
0.0
 10
8.814829310308166
 20
7.891490424553681
 30
0.0
 10
8.732461041889673
 20
7.886600206215553
 30
0.0
  0
LINE
  5
10B
330
1F
100
AcDbEntity
  8
0
  6
Continuous
 62
     7
370
    25
100
AcDbLine
 10
9.0847757891
 20
6.9165449862
 30
0.0
 11
9.0847757887
 21
7.9055121767
 31
0.0
  0
LINE
  5
10C
330
1F
100
AcDbEntity
  8
0
  6
Continuous
 62
     7
370
    25
100
AcDbLine
 10
9.3347757891
 20
6.9165449862
 30
0.0
 11
9.0847757891
 21
6.9165449862
 31
0.0
  0
LINE
  5
10D
330
1F
100
AcDbEntity
  8
0
  6
Continuous
 62
     7
370
    25
100
AcDbLine
 10
9.3347757887
 20
7.9165449862
 30
0.0
 11
9.3347757891
 21
6.9165449862
 31
0.0
  0
SPLINE
  5
10E
330
1F
100
AcDbEntity
  8
0
  6
Continuous
 62
     7
370
    25
100
AcDbSpline
210
0.0
220
0.0
230
1.0
 70
     8
 71
     3
 72
    12
 73
     8
 74
     0
 42
0.00000001
 43
0.00000001
 40
0.5511452244250064
 40
0.5511452244250064
 40
0.5511452244250064
 40
0.5511452244250064
 40
0.5545829838309861
 40
0.5695295459998657
 40
0.5844034168402927
 40
0.5991909919021363
 40
0.6131242024519998
 40
0.6131242024519998
 40
0.6131242024519998
 40
0.6131242024519998
 10
10.77242841600579
 20
7.944547179649257
 30
0.0
 10
10.74584100979326
 20
7.944557946826015
 30
0.0
 10
10.60365780501682
 20
7.944465905178652
 30
0.0
 10
10.34644338848459
 20
7.942846808233329
 30
0.0
 10
10.00148683409214
 20
7.937396443359338
 30
0.0
 10
9.664435010897744
 20
7.928752488818696
 30
0.0
 10
9.442447018795926
 20
7.920884928743205
 30
0.0
 10
9.33477578871283
 20
7.916544986176727
 30
0.0
  0
LINE
  5
10F
330
1F
100
AcDbEntity
  8
0
  6
Continuous
 62
     7
370
    25
100
AcDbLine
 10
10.772428416
 20
7.9445471796
 30
0.0
 11
10.7722758045
 21
7.5677024718
 31
0.0
  0
LINE
  5
110
330
1F
100
AcDbEntity
  8
0
  6
Continuous
 62
     7
370
    25
100
AcDbLine
 10
10.7722758045
 20
7.5677024718
 30
0.0
 11
11.1472757737
 21
7.567550607
 31
0.0
  0
LINE
  5
111
330
1F
100
AcDbEntity
  8
0
  6
Continuous
 62
     7
370
    25
100
AcDbLine
 10
11.1472757737
 20
7.567550607
 30
0.0
 11
11.1474276382
 21
7.9425505763
 31
0.0
  0
SPLINE
  5
112
330
1F
100
AcDbEntity
  8
0
  6
Continuous
 62
     7
370
    25
100
AcDbSpline
210
0.0
220
0.0
230
1.0
 70
     8
 71
     3
 72
    15
 73
    11
 74
     0
 42
0.00000001
 43
0.00000001
 40
0.4314156119256059
 40
0.4314156119256059
 40
0.4314156119256059
 40
0.4314156119256059
 40
0.4341867493871219
 40
0.4491772650868069
 40
0.4642147821671246
 40
0.4792840087649619
 40
0.4943697397811477
 40
0.5094578326361675
 40
0.5245323463196893
 40
0.5349824261914548
 40
0.5349824261914548
 40
0.5349824261914548
 40
0.5349824261914548
 10
13.54819622375775
 20
7.848326357428123
 30
0.0
 10
13.52681211596714
 20
7.849754854880074
 30
0.0
 10
13.38974383427554
 20
7.858813856386882
 30
0.0
 10
13.13655375820742
 20
7.874382383928888
 30
0.0
 10
12.7882762540803
 20
7.893126053487775
 30
0.0
 10
12.4391252013887
 20
7.909142716228386
 30
0.0
 10
12.08946394883642
 20
7.922322013666506
 30
0.0
 10
11.73966378712458
 20
7.932584385247078
 30
0.0
 10
11.4256325780022
 20
7.939094628942181
 30
0.0
 10
11.22824364236248
 20
7.941725631288988
 30
0.0
 10
11.14742763817226
 20
7.942550576271951
 30
0.0
  0
LINE
  5
113
330
1F
100
AcDbEntity
  8
0
  6
Continuous
 62
     7
370
    25
100
AcDbLine
 10
13.5481962238
 20
7.8483263574
 30
0.0
 11
13.5353157893
 21
7.6612702931
 31
0.0
  0
LINE
  5
114
330
1F
100
AcDbEntity
  8
0
  6
Continuous
 62
     7
370
    25
100
AcDbLine
 10
13.5353157893
 20
7.6612702931
 30
0.0
 11
13.7223728465
 21
7.6483897903
 31
0.0
  0
LINE
  5
115
330
1F
100
AcDbEntity
  8
0
  6
Continuous
 62
     7
370
    25
100
AcDbLine
 10
13.7223728465
 20
7.6483897903
 30
0.0
 11
13.7352533493
 21
7.8354468475
 31
0.0
  0
SPLINE
  5
116
330
1F
100
AcDbEntity
  8
0
  6
Continuous
 62
     7
370
    25
100
AcDbSpline
210
0.0
220
0.0
230
1.0
 70
     8
 71
     3
 72
    16
 73
    12
 74
     0
 42
0.00000001
 43
0.00000001
 40
0.3164238124056183
 40
0.3164238124056183
 40
0.3164238124056183
 40
0.3164238124056183
 40
0.3176892265558903
 40
0.331784111124987
 40
0.346039676653823
 40
0.3604438694916348
 40
0.3749827204038077
 40
0.3896404543545233
 40
0.4044033165867775
 40
0.4192566006634758
 40
0.4233343286975332
 40
0.4233343286975332
 40
0.4233343286975332
 40
0.4233343286975332
 10
16.20399367259722
 20
7.596782230893002
 30
0.0
 10
16.1942793714004
 20
7.597969103399199
 30
0.0
 10
16.07635729583785
 20
7.6123396243493
 30
0.0
 10
15.84888107125382
 20
7.639136848362505
 30
0.0
 10
15.5202534882302
 20
7.675762342662162
 30
0.0
 10
15.18797404473476
 20
7.710561478825754
 30
0.0
 10
14.85237233526137
 20
7.743425439454624
 30
0.0
 10
14.51378810756504
 20
7.774212387761382
 30
0.0
 10
14.17257321298043
 20
7.802832038856437
 30
0.0
 10
13.91274544798682
 20
7.822717376044497
 30
0.0
 10
13.76671126751867
 20
7.833216980768366
 30
0.0
 10
13.73525334932068
 20
7.835446847455798
 30
0.0
  0
LINE
  5
117
330
1F
100
AcDbEntity
  8
0
  6
Continuous
 62
     7
370
    25
100
AcDbLine
 10
16.2039936726
 20
7.5967822309
 30
0.0
 11
16.1812544154
 21
7.4106662021
 31
0.0
  0
LINE
  5
118
330
1F
100
AcDbEntity
  8
0
  6
Continuous
 62
     7
370
    25
100
AcDbLine
 10
16.1812544154
 20
7.4106662021
 30
0.0
 11
16.3673704441
 21
7.3879269445
 31
0.0
  0
LINE
  5
119
330
1F
100
AcDbEntity
  8
0
  6
Continuous
 62
     7
370
    25
100
AcDbLine
 10
16.3673704441
 20
7.3879269445
 30
0.0
 11
16.3900714295
 21
7.5737297225
 31
0.0
  0
SPLINE
  5
11A
330
1F
100
AcDbEntity
  8
0
  6
Continuous
 62
     7
370
    25
100
AcDbSpline
210
0.0
220
0.0
230
1.0
 70
     8
 71
     3
 72
    45
 73
    41
 74
     0
 42
0.00000001
 43
0.00000001
 40
0.0
 40
0.0
 40
0.0
 40
0.0
 40
0.0002540897518312
 40
0.0010153730404189
 40
0.0022833589873498
 40
0.0040565770162251
 40
0.0063309815935676
 40
0.0091052744745057
 40
0.0123744894508916
 40
0.0161340231657128
 40
0.0203796604534971
 40
0.0251059762158006
 40
0.0303062367832748
 40
0.0359722056047472
 40
0.0420995223901982
 40
0.048678063692099
 40
0.0557016641246682
 40
0.0631601838890209
 40
0.0710458240741888
 40
0.079349826512255
 40
0.0880629100454657
 40
0.0971757563559511
 40
0.1066781116462642
 40
0.1165615729559075
 40
0.1268142755473613
 40
0.1374283005010189
 40
0.1483936177789397
 40
0.1596997598396382
 40
0.1713381255242434
 40
0.1832976990279093
 40
0.1955696040927178
 40
0.2081435554480289
 40
0.2210115933777215
 40
0.2341618307558447
 40
0.2475874504524841
 40
0.2612768224436114
 40
0.2752227101303402
 40
0.2894141440710628
 40
0.3037711996782109
 40
0.3083424724643555
 40
0.3083424724643555
 40
0.3083424724643555
 40
0.3083424724643555
 10
23.08338522909358
 20
5.216413407551604
 30
0.0
 10
23.08171340157052
 20
5.217446189844066
 30
0.0
 10
23.07503257881829
 20
5.221573311417562
 30
0.0
 10
23.05997946832516
 20
5.23080668474146
 30
0.0
 10
23.03491290863179
 20
5.246185332049393
 30
0.0
 10
22.99982191546093
 20
5.267602438601585
 30
0.0
 10
22.95473373360262
 20
5.29500112392216
 30
0.0
 10
22.89962568514287
 20
5.328189539828172
 30
0.0
 10
22.83453217201831
 20
5.367059861791279
 30
0.0
 10
22.75946894802301
 20
5.411428246924368
 30
0.0
 10
22.67444370249423
 20
5.461086951911421
 30
0.0
 10
22.57948881115239
 20
5.515834798677841
 30
0.0
 10
22.47461253841456
 20
5.575361835464355
 30
0.0
 10
22.35985551327261
 20
5.639424835608437
 30
0.0
 10
22.23525710226969
 20
5.70771911331973
 30
0.0
 10
22.10084087909222
 20
5.779936220124837
 30
0.0
 10
21.95665497457314
 20
5.855708811260666
 30
0.0
 10
21.80275473831074
 20
5.93471098594697
 30
0.0
 10
21.63916822815714
 20
6.016506471333816
 30
0.0
 10
21.46597257214075
 20
6.100754859075524
 30
0.0
 10
21.28322547276091
 20
6.187036081148694
 30
0.0
 10
21.09098930553024
 20
6.274889815345864
 30
0.0
 10
20.88937450627933
 20
6.363957920182691
 30
0.0
 10
20.6784368175758
 20
6.453686669093323
 30
0.0
 10
20.45829644905882
 20
6.543687301270403
 30
0.0
 10
20.229047119819
 20
6.633447605278117
 30
0.0
 10
19.99082456602767
 20
6.722558786272475
 30
0.0
 10
19.74372069661135
 20
6.810443564631639
 30
0.0
 10
19.48792022694509
 20
6.896717875809297
 30
0.0
 10
19.22354724673835
 20
6.980821253586133
 30
0.0
 10
18.95079081757542
 20
7.062296940529851
 30
0.0
 10
18.66980941521894
 20
7.140616686723883
 30
0.0
 10
18.38083726864488
 20
7.215378823281041
 30
0.0
 10
18.08405764477961
 20
7.286038901872898
 30
0.0
 10
17.77972208534809
 20
7.352123952931485
 30
0.0
 10
17.46807250283008
 20
7.413236102779128
 30
0.0
 10
17.14937026822805
 20
7.46876522936505
 30
0.0
 10
16.82449853552947
 20
7.518668040401761
 30
0.0
 10
16.57039513603524
 20
7.551042350633203
 30
0.0
 10
16.42515103706328
 20
7.569334151867995
 30
0.0
 10
16.39007142945376
 20
7.573729722530843
 30
0.0
  0
LINE
  5
11B
330
1F
100
AcDbEntity
  8
0
  6
Continuous
 62
     7
370
    25
100
AcDbLine
 10
23.2659887484
 20
5.1036088995
 30
0.0
 11
23.0833852291
 21
5.2164134076
 31
0.0
  0
LINE
  5
11C
330
1F
100
AcDbEntity
  8
0
  6
Continuous
 62
     7
370
    25
100
AcDbLine
 10
23.0561663491
 20
5.1483662076
 30
0.0
 11
23.2659887484
 21
5.1036088995
 31
0.0
  0
SPLINE
  5
11D
330
1F
100
AcDbEntity
  8
0
  6
Continuous
 62
     7
370
    25
100
AcDbSpline
210
0.0
220
0.0
230
1.0
 70
     8
 71
     3
 72
    45
 73
    41
 74
     0
 42
0.00000001
 43
0.00000001
 40
0.6954317067577288
 40
0.6954317067577288
 40
0.6954317067577288
 40
0.6954317067577288
 40
0.7035818246207629
 40
0.7169075633393495
 40
0.7300092743405843
 40
0.7429521279156549
 40
0.755725557694238
 40
0.7683199516741555
 40
0.7807243374027457
 40
0.7929265285864308
 40
0.8049160410865589
 40
0.8166790838088313
 40
0.8282035242084964
 40
0.8394749002660455
 40
0.8504813585168555
 40
0.8612076967744442
 40
0.8716393257296176
 40
0.8817634137109616
 40
0.8915636048210556
 40
0.9010273643172574
 40
0.9101389770085111
 40
0.9188839764012169
 40
0.9272492779043127
 40
0.9352211037112476
 40
0.9427847385100345
 40
0.9499281877133432
 40
0.9566384642920557
 40
0.9629042034427838
 40
0.9687122876061149
 40
0.9740544849024281
 40
0.9789184321677268
 40
0.9832972184116099
 40
0.9871802458290098
 40
0.9905606741393513
 40
0.9934333573190599
 40
0.9957906255195277
 40
0.9976295874610529
 40
0.9989458159268665
 40
0.9997365922159134
 40
1.0
 40
1.0
 40
1.0
 40
1.0
 10
16.31614925364628
 20
5.397737125366608
 30
0.0
 10
16.37611921701713
 20
5.4056191909544
 30
0.0
 10
16.53413842952603
 20
5.426420508109395
 30
0.0
 10
16.78843981291757
 20
5.4608666079165
 30
0.0
 10
17.0787590745786
 20
5.494011970426889
 30
0.0
 10
17.36546349340395
 20
5.522302730267441
 30
0.0
 10
17.64885088261159
 20
5.545497249634021
 30
0.0
 10
17.92858095825559
 20
5.563929226781094
 30
0.0
 10
18.20433321004063
 20
5.577730367548803
 30
0.0
 10
18.47577899807519
 20
5.587093351877476
 30
0.0
 10
18.74257544744885
 20
5.592295945569957
 30
0.0
 10
19.004389322989
 20
5.593470177288821
 30
0.0
 10
19.26086325970243
 20
5.590990518322588
 30
0.0
 10
19.51166368697779
 20
5.585056849062357
 30
0.0
 10
19.75644057070792
 20
5.575935503382341
 30
0.0
 10
19.99485242560066
 20
5.56393421998188
 30
0.0
 10
20.22656061005628
 20
5.549380162407036
 30
0.0
 10
20.45121726089608
 20
5.532488013741251
 30
0.0
 10
20.6685093264223
 20
5.513652131097505
 30
0.0
 10
20.87810155872971
 20
5.493148248824076
 30
0.0
 10
21.07967212453838
 20
5.471210628993581
 30
0.0
 10
21.2729269049499
 20
5.448298950222973
 30
0.0
 10
21.45755657288742
 20
5.424564064037415
 30
0.0
 10
21.63328341700988
 20
5.400396019218412
 30
0.0
 10
21.79982456519394
 20
5.376039734524189
 30
0.0
 10
21.95691626170941
 20
5.35180616637312
 30
0.0
 10
22.10431169208078
 20
5.327926500085575
 30
0.0
 10
22.24177276659065
 20
5.304717682974513
 30
0.0
 10
22.3690841568941
 20
5.28239655620649
 30
0.0
 10
22.48602494255692
 20
5.261181104288363
 30
0.0
 10
22.59243289364819
 20
5.241339006014744
 30
0.0
 10
22.68809785363132
 20
5.222968828107049
 30
0.0
 10
22.77289187749024
 20
5.206373313934487
 30
0.0
 10
22.84665729980264
 20
5.191625692066402
 30
0.0
 10
22.90928598559044
 20
5.17893373922535
 30
0.0
 10
22.96066856162765
 20
5.168347545471346
 30
0.0
 10
23.00072698736427
 20
5.160040891428824
 30
0.0
 10
23.02938214019024
 20
5.154000503305849
 30
0.0
 10
23.04660302609864
 20
5.150406164174559
 30
0.0
 10
23.05425448715789
 20
5.148774027659737
 30
0.0
 10
23.05616634909359
 20
5.148366207551605
 30
0.0
  0
LINE
  5
11E
330
1F
100
AcDbEntity
  8
0
  6
Continuous
 62
     7
370
    25
100
AcDbLine
 10
16.2916757345
 20
5.5836330556
 30
0.0
 11
16.3161492536
 21
5.3977371254
 31
0.0
  0
LINE
  5
11F
330
1F
100
AcDbEntity
  8
0
  6
Continuous
 62
     7
370
    25
100
AcDbLine
 10
16.1057798043
 20
5.5591595368
 30
0.0
 11
16.2916757345
 21
5.5836330556
 31
0.0
  0
LINE
  5
120
330
1F
100
AcDbEntity
  8
0
  6
Continuous
 62
     7
370
    25
100
AcDbLine
 10
16.130253323
 20
5.3732636066
 30
0.0
 11
16.1057798043
 21
5.5591595368
 31
0.0
  0
SPLINE
  5
121
330
1F
100
AcDbEntity
  8
0
  6
Continuous
 62
     7
370
    25
100
AcDbSpline
210
0.0
220
0.0
230
1.0
 70
     8
 71
     3
 72
    12
 73
     8
 74
     0
 42
0.00000001
 43
0.00000001
 40
0.6279258258439321
 40
0.6279258258439321
 40
0.6279258258439321
 40
0.6279258258439321
 40
0.6312694223607523
 40
0.6460065237480678
 40
0.6606206841728729
 40
0.6750981874935538
 40
0.687010174038574
 40
0.687010174038574
 40
0.687010174038574
 40
0.687010174038574
 10
14.82643740575262
 20
5.198488551110965
 30
0.0
 10
14.85102730688263
 20
5.201818922653826
 30
0.0
 10
14.9839998674513
 20
5.219819231693742
 30
0.0
 10
15.22446369902327
 20
5.252272694664841
 30
0.0
 10
15.54684579444913
 20
5.295550166810593
 30
0.0
 10
15.84847444949931
 20
5.335837171860773
 30
0.0
 10
16.04261151597214
 20
5.361677249062596
 30
0.0
 10
16.13025332302417
 20
5.373263606574604
 30
0.0
  0
LINE
  5
122
330
1F
100
AcDbEntity
  8
0
  6
Continuous
 62
     7
370
    25
100
AcDbLine
 10
14.7759110797
 20
5.570153573
 30
0.0
 11
14.8264374058
 21
5.1984885511
 31
0.0
  0
LINE
  5
123
330
1F
100
AcDbEntity
  8
0
  6
Continuous
 62
     7
370
    25
100
AcDbLine
 10
14.4043290163
 20
5.5196385248
 30
0.0
 11
14.7759110797
 21
5.570153573
 31
0.0
  0
LINE
  5
124
330
1F
100
AcDbEntity
  8
0
  6
Continuous
 62
     7
370
    25
100
AcDbLine
 10
14.4548440644
 20
5.1480564613
 30
0.0
 11
14.4043290163
 21
5.5196385248
 31
0.0
  0
SPLINE
  5
125
330
1F
100
AcDbEntity
  8
0
  6
Continuous
 62
     7
370
    25
100
AcDbSpline
210
0.0
220
0.0
230
1.0
 70
     8
 71
     3
 72
    12
 73
     8
 74
     0
 42
0.00000001
 43
0.00000001
 40
0.5461439631916802
 40
0.5461439631916802
 40
0.5461439631916802
 40
0.5461439631916802
 40
0.5562472332602322
 40
0.571381784352882
 40
0.5864660404483751
 40
0.6014845156991583
 40
0.6110828024492753
 40
0.6110828024492753
 40
0.6110828024492753
 40
0.6110828024492753
 10
13.02227578909331
 20
4.952715263711066
 30
0.0
 10
13.0965697190926
 20
4.962843471853979
 30
0.0
 10
13.28215306041308
 20
4.988156865984622
 30
0.0
 10
13.57865490830227
 20
5.028612828978767
 30
0.0
 10
13.91129206956253
 20
5.074057829509101
 30
0.0
 10
14.20323504644186
 20
5.113832131307703
 30
0.0
 10
14.3842599180321
 20
5.138460837864095
 30
0.0
 10
14.45484406441889
 20
5.14805646129391
 30
0.0
  0
LINE
  5
126
330
1F
100
AcDbEntity
  8
0
  6
Continuous
 62
     7
370
    25
100
AcDbLine
 10
13.0222757891
 20
5.7027152637
 30
0.0
 11
13.0222757891
 21
4.9527152637
 31
0.0
  0
LINE
  5
127
330
1F
100
AcDbEntity
  8
0
  6
Continuous
 62
     7
370
    25
100
AcDbLine
 10
12.8972757891
 20
5.7027152637
 30
0.0
 11
13.0222757891
 21
5.7027152637
 31
0.0
  0
LINE
  5
128
330
1F
100
AcDbEntity
  8
0
  6
Continuous
 62
     7
370
    25
100
AcDbLine
 10
12.8972757891
 20
4.9356803183
 30
0.0
 11
12.8972757891
 21
5.7027152637
 31
0.0
  0
SPLINE
  5
129
330
1F
100
AcDbEntity
  8
0
  6
Continuous
 62
     7
370
    25
100
AcDbSpline
210
0.0
220
0.0
230
1.0
 70
     8
 71
     3
 72
     9
 73
     5
 74
     0
 42
0.00000001
 43
0.00000001
 40
0.520465470718606
 40
0.520465470718606
 40
0.520465470718606
 40
0.520465470718606
 40
0.5258873344064182
 40
0.5404777269663087
 40
0.5404777269663087
 40
0.5404777269663087
 40
0.5404777269663087
 10
12.45577254998698
 20
4.875683730701479
 30
0.0
 10
12.49564660512214
 20
4.881084904714418
 30
0.0
 10
12.6428204091529
 20
4.901039176548219
 30
0.0
 10
12.78998458650136
 20
4.921064353808199
 30
0.0
 10
12.89727578909351
 20
4.935680318260667
 30
0.0
  0
LINE
  5
12A
330
1F
100
AcDbEntity
  8
0
  6
Continuous
 62
     7
370
    25
100
AcDbLine
 10
12.430639839
 20
5.0614916876
 30
0.0
 11
12.45577255
 21
4.8756837307
 31
0.0
  0
LINE
  5
12B
330
1F
100
AcDbEntity
  8
0
  6
Continuous
 62
     7
370
    25
100
AcDbLine
 10
12.2448318821
 20
5.0363589766
 30
0.0
 11
12.430639839
 21
5.0614916876
 31
0.0
  0
LINE
  5
12C
330
1F
100
AcDbEntity
  8
0
  6
Continuous
 62
     7
370
    25
100
AcDbLine
 10
12.2448318821
 20
5.0363589766
 30
0.0
 11
12.2699646215
 21
4.8505508092
 31
0.0
  0
SPLINE
  5
12D
330
1F
100
AcDbEntity
  8
0
  6
Continuous
 62
     7
370
    25
100
AcDbSpline
210
0.0
220
0.0
230
1.0
 70
     8
 71
     3
 72
    15
 73
    11
 74
     0
 42
0.00000001
 43
0.00000001
 40
0.4170001598971144
 40
0.4170001598971144
 40
0.4170001598971144
 40
0.4170001598971144
 40
0.420174823355266
 40
0.4351095326124219
 40
0.4501242755491032
 40
0.4652030675528332
 40
0.480333153810538
 40
0.4955005832026954
 40
0.5106897747322421
 40
0.5120439593711981
 40
0.5120439593711981
 40
0.5120439593711981
 40
0.5120439593711981
 10
10.1718064932886
 20
4.575686023394183
 30
0.0
 10
10.19518537659525
 20
4.578607222679097
 30
0.0
 10
10.32854199227044
 20
4.595307376606458
 30
0.0
 10
10.57242016205903
 20
4.626222535745472
 30
0.0
 10
10.90385910499386
 20
4.668905661555481
 30
0.0
 10
11.23664542169663
 20
4.712472134231827
 30
0.0
 10
11.5704992152418
 20
4.756611560419898
 30
0.0
 10
11.90509852786534
 20
4.801360292529432
 30
0.0
 10
12.13833330422263
 20
4.83277435609291
 30
0.0
 10
12.26000502624653
 20
4.849205520926144
 30
0.0
 10
12.2699646215411
 20
4.850550809248007
 30
0.0
  0
LINE
  5
12E
330
1F
100
AcDbEntity
  8
0
  6
Continuous
 62
     7
370
    25
100
AcDbLine
 10
10.1486978108
 20
4.7617565444
 30
0.0
 11
10.1718064933
 21
4.5756860234
 31
0.0
  0
LINE
  5
12F
330
1F
100
AcDbEntity
  8
0
  6
Continuous
 62
     7
370
    25
100
AcDbLine
 10
9.9626272898
 20
4.738647862
 30
0.0
 11
10.1486978108
 21
4.7617565444
 31
0.0
  0
LINE
  5
130
330
1F
100
AcDbEntity
  8
0
  6
Continuous
 62
     7
370
    25
100
AcDbLine
 10
9.9626272898
 20
4.738647862
 30
0.0
 11
9.985735841
 21
4.5525783977
 31
0.0
  0
SPLINE
  5
131
330
1F
100
AcDbEntity
  8
0
  6
Continuous
 62
     7
370
    25
100
AcDbSpline
210
0.0
220
0.0
230
1.0
 70
     8
 71
     3
 72
    15
 73
    11
 74
     0
 42
0.00000001
 43
0.00000001
 40
0.3173008976357805
 40
0.3173008976357805
 40
0.3173008976357805
 40
0.3173008976357805
 40
0.3189806851177335
 40
0.3329854989238258
 40
0.3471627904008333
 40
0.3614986025989408
 40
0.3759807467343043
 40
0.390597192121319
 40
0.4053325934372969
 40
0.4085786502070922
 40
0.4085786502070922
 40
0.4085786502070922
 40
0.4085786502070922
 10
7.966207472172139
 20
4.326049228047934
 30
0.0
 10
7.978614636898447
 20
4.327264174063073
 30
0.0
 10
8.09445980955158
 20
4.338645851999343
 30
0.0
 10
8.314952278993267
 20
4.360973801866125
 30
0.0
 10
8.628737645571285
 20
4.39426640565446
 30
0.0
 10
8.945893251857859
 20
4.429338152268203
 30
0.0
 10
9.266149295992285
 20
4.466001934199397
 30
0.0
 10
9.589213225154946
 20
4.504191417520519
 30
0.0
 10
9.829377371217001
 20
4.533324822232304
 30
0.0
 10
9.961826674875532
 20
4.549627970908393
 30
0.0
 10
9.985735841018897
 20
4.552578397703542
 30
0.0
  0
LINE
  5
132
330
1F
100
AcDbEntity
  8
0
  6
Continuous
 62
     7
370
    25
100
AcDbLine
 10
7.9322073891
 20
4.6995047064
 30
0.0
 11
7.9662074722
 21
4.326049228
 31
0.0
  0
LINE
  5
133
330
1F
100
AcDbEntity
  8
0
  6
Continuous
 62
     7
370
    25
100
AcDbLine
 10
7.5587519107
 20
4.6655046233
 30
0.0
 11
7.9322073891
 21
4.6995047064
 31
0.0
  0
LINE
  5
134
330
1F
100
AcDbEntity
  8
0
  6
Continuous
 62
     7
370
    25
100
AcDbLine
 10
7.5928699773
 20
4.2907532225
 30
0.0
 11
7.5587519107
 21
4.6655046233
 31
0.0
  0
SPLINE
  5
135
330
1F
100
AcDbEntity
  8
0
  6
Continuous
 62
     7
370
    25
100
AcDbSpline
210
0.0
220
0.0
230
1.0
 70
     8
 71
     3
 72
    13
 73
     9
 74
     0
 42
0.00000001
 43
0.00000001
 40
0.2297244997164833
 40
0.2297244997164833
 40
0.2297244997164833
 40
0.2297244997164833
 40
0.239236416912666
 40
0.2519590037406926
 40
0.2649238944848901
 40
0.2781197025559347
 40
0.2915360351420174
 40
0.3004577628980368
 40
0.3004577628980368
 40
0.3004577628980368
 40
0.3004577628980368
 10
6.022275789477399
 20
4.176647443221868
 30
0.0
 10
6.092777236184464
 20
4.180234443028832
 30
0.0
 10
6.257548696661902
 20
4.189181023709183
 30
0.0
 10
6.518285021475736
 20
4.205302682540307
 30
0.0
 10
6.806157831838608
 20
4.22540599920695
 30
0.0
 10
7.099011610911272
 20
4.247975306300617
 30
0.0
 10
7.361802804090816
 20
4.270034956562061
 30
0.0
 10
7.526930250162375
 20
4.284749946823296
 30
0.0
 10
7.592869977341284
 20
4.290753222540267
 30
0.0
  0
LINE
  5
136
330
1F
100
AcDbEntity
  8
0
  6
Continuous
 62
     7
370
    25
100
AcDbLine
 10
6.0222757891
 20
4.9266474432
 30
0.0
 11
6.0222757895
 21
4.1766474432
 31
0.0
  0
LINE
  5
137
330
1F
100
AcDbEntity
  8
0
  6
Continuous
 62
     7
370
    25
100
AcDbLine
 10
5.8972757891
 20
4.9266474432
 30
0.0
 11
6.0222757891
 21
4.9266474432
 31
0.0
  0
LINE
  5
138
330
1F
100
AcDbEntity
  8
0
  6
Continuous
 62
     7
370
    25
100
AcDbLine
 10
5.8972757895
 20
4.1705431435
 30
0.0
 11
5.8972757891
 21
4.9266474432
 31
0.0
  0
SPLINE
  5
139
330
1F
100
AcDbEntity
  8
0
  6
Continuous
 62
     7
370
    25
100
AcDbSpline
210
0.0
220
0.0
230
1.0
 70
     8
 71
     3
 72
     9
 73
     5
 74
     0
 42
0.00000001
 43
0.00000001
 40
0.2085650349845574
 40
0.2085650349845574
 40
0.2085650349845574
 40
0.2085650349845574
 40
0.2145604781304418
 40
0.2241034837226979
 40
0.2241034837226979
 40
0.2241034837226979
 40
0.2241034837226979
 10
5.551607829759106
 20
4.156488396248664
 30
0.0
 10
5.596076924846742
 20
4.158012433532726
 30
0.0
 10
5.711317765237248
 20
4.162259462566715
 30
0.0
 10
5.826529695657223
 20
4.16723493581906
 30
0.0
 10
5.897275789476012
 20
4.170543143538851
 30
0.0
  0
LINE
  5
13A
330
1F
100
AcDbEntity
  8
0
  6
Continuous
 62
     7
370
    25
100
AcDbLine
 10
5.5458771039
 20
4.343904919
 30
0.0
 11
5.5516078298
 21
4.1564883962
 31
0.0
  0
LINE
  5
13B
330
1F
100
AcDbEntity
  8
0
  6
Continuous
 62
     7
370
    25
100
AcDbLine
 10
5.3584646971
 20
4.338174319
 30
0.0
 11
5.5458771039
 21
4.343904919
 31
0.0
  0
LINE
  5
13C
330
1F
100
AcDbEntity
  8
0
  6
Continuous
 62
     7
370
    25
100
AcDbLine
 10
5.3584646971
 20
4.338174319
 30
0.0
 11
5.3641952975
 21
4.1507619122
 31
0.0
  0
SPLINE
  5
13D
330
1F
100
AcDbEntity
  8
0
  6
Continuous
 62
     7
370
    25
100
AcDbSpline
210
0.0
220
0.0
230
1.0
 70
     8
 71
     3
 72
    17
 73
    13
 74
     0
 42
0.00000001
 43
0.00000001
 40
0.1016614720720251
 40
0.1016614720720251
 40
0.1016614720720251
 40
0.1016614720720251
 40
0.1089998674022309
 40
0.118084529462581
 40
0.127514842657726
 40
0.1372852704325623
 40
0.1473879174712405
 40
0.1578164805284356
 40
0.1685634728403947
 40
0.1796191282126914
 40
0.1909773731687989
 40
0.2001435402442482
 40
0.2001435402442482
 40
0.2001435402442482
 40
0.2001435402442482
 10
3.174879274718235
 20
4.228246414051268
 30
0.0
 10
3.228927643073035
 20
4.221540647181342
 30
0.0
 10
3.350027799576841
 20
4.20768061277216
 30
0.0
 10
3.541050653548013
 20
4.189534813485922
 30
0.0
 10
3.750381153162324
 20
4.173668047441481
 30
0.0
 10
3.967499279950768
 20
4.161049294671963
 30
0.0
 10
4.192194281246385
 20
4.151638542373339
 30
0.0
 10
4.424250922908639
 20
4.145471565083277
 30
0.0
 10
4.663441931941699
 20
4.142452219866285
 30
0.0
 10
4.909551146630016
 20
4.142535178296638
 30
0.0
 10
5.143908149135425
 20
4.145508786576097
 30
0.0
 10
5.29619287695594
 20
4.148942437854465
 30
0.0
 10
5.364195297471199
 20
4.150761912208378
 30
0.0
  0
LINE
  5
13E
330
1F
100
AcDbEntity
  8
0
  6
Continuous
 62
     7
370
    25
100
AcDbLine
 10
3.2000531065
 20
4.4140488042
 30
0.0
 11
3.1748792747
 21
4.2282464141
 31
0.0
  0
LINE
  5
13F
330
1F
100
AcDbEntity
  8
0
  6
Continuous
 62
     7
370
    25
100
AcDbLine
 10
3.0142507163
 20
4.439222636
 30
0.0
 11
3.2000531065
 21
4.4140488042
 31
0.0
  0
LINE
  5
140
330
1F
100
AcDbEntity
  8
0
  6
Continuous
 62
     7
370
    25
100
AcDbLine
 10
2.9890803088
 20
4.2534455193
 30
0.0
 11
3.0142507163
 21
4.439222636
 31
0.0
  0
SPLINE
  5
141
330
1F
100
AcDbEntity
  8
0
  6
Continuous
 62
     7
370
    25
100
AcDbSpline
210
0.0
220
0.0
230
1.0
 70
     8
 71
     3
 72
    24
 73
    20
 74
     0
 42
0.00000001
 43
0.00000001
 40
0.0039351208712084
 40
0.0039351208712084
 40
0.0039351208712084
 40
0.0039351208712084
 40
0.0072932311171293
 40
0.011028136413859
 40
0.0149010810980465
 40
0.0189632717700928
 40
0.023258475402986
 40
0.0278206260323165
 40
0.0326790824435221
 40
0.0378531598360054
 40
0.0433618746912805
 40
0.0492146790039221
 40
0.0554223461563205
 40
0.06198878599669
 40
0.0689180360680075
 40
0.0762111572779437
 40
0.0838683921994994
 40
0.091887410882707
 40
0.0932399630117017
 40
0.0932399630117017
 40
0.0932399630117017
 40
0.0932399630117017
 10
1.280777087336938
 20
5.097347334955699
 30
0.0
 10
1.288336556805126
 20
5.073608867726216
 30
0.0
 10
1.308200004648558
 20
5.0246212797745
 30
0.0
 10
1.347499819914606
 20
4.953165579868281
 30
0.0
 10
1.398552532301608
 20
4.882925762923215
 30
0.0
 10
1.459954782564496
 20
4.815855443216893
 30
0.0
 10
1.531570957022204
 20
4.75188486005338
 30
0.0
 10
1.613330821964259
 20
4.691048408708292
 30
0.0
 10
1.705127368358253
 20
4.633373776368185
 30
0.0
 10
1.806827247957534
 20
4.578799739268172
 30
0.0
 10
1.918316150189517
 20
4.527360227424246
 30
0.0
 10
2.039492419596055
 20
4.479071316013206
 30
0.0
 10
2.170224031529874
 20
4.433997555074607
 30
0.0
 10
2.310351162974832
 20
4.392070298257464
 30
0.0
 10
2.459740588121718
 20
4.353391719389442
 30
0.0
 10
2.618222436358044
 20
4.317907758013143
 30
0.0
 10
2.785644278110516
 20
4.285708990962882
 30
0.0
 10
2.910364930666677
 20
4.265217380406298
 30
0.0
 10
2.9791499793711
 20
4.254912866959838
 30
0.0
 10
2.989080308771358
 20
4.253445519262444
 30
0.0
  0
LINE
  5
142
330
1F
100
AcDbEntity
  8
0
  6
Continuous
 62
     7
370
    25
100
AcDbLine
 10
1.2807770873
 20
5.097347335
 30
0.0
 11
1.626028232
 21
5.097347335
 31
0.0
  0
LINE
  5
143
330
1F
100
AcDbEntity
  8
0
  6
Continuous
 62
     7
370
    25
100
AcDbLine
 10
1.626028232
 20
5.472347335
 30
0.0
 11
1.626028232
 21
5.097347335
 31
0.0
  0
LINE
  5
144
330
1F
100
AcDbEntity
  8
0
  6
Continuous
 62
     7
370
    25
100
AcDbLine
 10
1.2802646103
 20
5.472347335
 30
0.0
 11
1.626028232
 21
5.472347335
 31
0.0
  0
SPLINE
  5
145
330
1F
100
AcDbEntity
  8
0
  6
Continuous
 62
     7
370
    25
100
AcDbSpline
210
0.0
220
0.0
230
1.0
 70
     8
 71
     3
 72
    21
 73
    17
 74
     0
 42
0.00000001
 43
0.00000001
 40
0.913578602285428
 40
0.913578602285428
 40
0.913578602285428
 40
0.913578602285428
 40
0.9186607344498127
 40
0.9261662532257968
 40
0.9333026258827831
 40
0.9400712202263494
 40
0.9464747799611675
 40
0.9525175260177909
 40
0.9582048188585928
 40
0.9635466521340151
 40
0.9685565999026111
 40
0.9732499128166676
 40
0.9776510407515667
 40
0.9817870430140477
 40
0.9856942262062861
 40
0.9873639224737294
 40
0.9873639224737294
 40
0.9873639224737294
 40
0.9873639224737294
 10
2.539333585197438
 20
6.573221953522048
 30
0.0
 10
2.504112030676168
 20
6.555774364125982
 30
0.0
 10
2.417279533109153
 20
6.511740310368523
 30
0.0
 10
2.282970633653923
 20
6.43936255476806
 30
0.0
 10
2.139875996632024
 20
6.355971202756471
 30
0.0
 10
2.007126278024527
 20
6.271956240000321
 30
0.0
 10
1.884777271132652
 20
6.18753077532588
 30
0.0
 10
1.772997661976232
 20
6.102747799851391
 30
0.0
 10
1.671825848483661
 20
6.01782155686443
 30
0.0
 10
1.58132585523997
 20
5.93288136689184
 30
0.0
 10
1.501627043177103
 20
5.847985741480607
 30
0.0
 10
1.432726543657347
 20
5.76328418223093
 30
0.0
 10
1.374714653486283
 20
5.678843770019036
 30
0.0
 10
1.327601437173374
 20
5.59474440550002
 30
0.0
 10
1.297789255553263
 20
5.525640653753668
 30
0.0
 10
1.284046457821362
 20
5.484703833385935
 30
0.0
 10
1.280264610186017
 20
5.472347334988782
 30
0.0
  0
LINE
  5
146
330
1F
100
AcDbEntity
  8
0
  6
Continuous
 62
     7
370
    25
100
AcDbLine
 10
2.5393335852
 20
6.5732219535
 30
0.0
 11
2.6201427081
 21
6.4040293542
 31
0.0
  0
LINE
  5
147
330
1F
100
AcDbEntity
  8
0
  6
Continuous
 62
     7
370
    25
100
AcDbLine
 10
2.6201427081
 20
6.4040293542
 30
0.0
 11
2.7893353076
 21
6.4848384768
 31
0.0
  0
ARC
  5
148
330
1F
100
AcDbEntity
  8
0
  6
Continuous
 62
     7
370
    25
100
AcDbCircle
 10
12.2972757891
 20
5.510151345
 30
0.0
 40
0.1999999999999999
100
AcDbArc
 50
277.707926009
 51
0.0
  0
LINE
  5
149
330
1F
100
AcDbEntity
  8
0
  6
Continuous
 62
     7
370
    25
100
AcDbLine
 10
12.4972757891
 20
5.510151345
 30
0.0
 11
12.4972757891
 21
6.6500193043
 31
0.0
  0
ARC
  5
14A
330
1F
100
AcDbEntity
  8
0
  6
Continuous
 62
     7
370
    25
100
AcDbCircle
 10
12.2972757891
 20
6.6500193043
 30
0.0
 40
0.1999999999999998
100
AcDbArc
 50
360.0
 51
61.1174148316
  0
LINE
  5
14B
330
1F
100
AcDbEntity
  8
0
  6
Continuous
 62
     7
370
    25
100
AcDbLine
 10
11.4813790425
 20
7.3285068336
 30
0.0
 11
12.3938790425
 21
6.82514158
 31
0.0
  0
ARC
  5
14C
330
1F
100
AcDbEntity
  8
0
  6
Continuous
 62
     7
370
    25
100
AcDbCircle
 10
11.3847757891
 20
7.1533845579
 30
0.0
 40
0.2000000000000006
100
AcDbArc
 50
61.1174148316
 51
180.0
  0
LINE
  5
14D
330
1F
100
AcDbEntity
  8
0
  6
Continuous
 62
     7
370
    25
100
AcDbLine
 10
11.1847757891
 20
6.3651277129
 30
0.0
 11
11.1847757891
 21
7.1533845579
 31
0.0
  0
ARC
  5
14E
330
1F
100
AcDbEntity
  8
0
  6
Continuous
 62
     7
370
    25
100
AcDbCircle
 10
11.3847757891
 20
6.3651277129
 30
0.0
 40
0.2000000000000005
100
AcDbArc
 50
180.0
 51
245.5037209488
  0
ARC
  5
14F
330
1F
100
AcDbEntity
  8
0
  6
Continuous
 62
     7
370
    25
100
AcDbCircle
 10
10.9597757891
 20
5.4323898076
 30
0.0
 40
0.8249999999999998
100
AcDbArc
 50
1.9843341954
 51
65.5037209488
  0
ARC
  5
150
330
1F
100
AcDbEntity
  8
0
  6
Continuous
 62
     7
370
    25
100
AcDbCircle
 10
11.9841611293
 20
5.4678817057
 30
0.0
 40
0.2000000000000001
100
AcDbArc
 50
181.9843341954
 51
277.6669245096
  0
SPLINE
  5
151
330
1F
100
AcDbEntity
  8
0
  6
Continuous
 62
     7
370
    25
100
AcDbSpline
210
0.0
220
0.0
230
1.0
 70
     8
 71
     3
 72
     9
 73
     5
 74
     0
 42
0.00000001
 43
0.00000001
 40
0.5030188840320087
 40
0.5030188840320087
 40
0.5030188840320087
 40
0.5030188840320087
 40
0.5094777324209665
 40
0.5172316276034904
 40
0.5172316276034904
 40
0.5172316276034904
 40
0.5172316276034904
 10
12.01084394768875
 20
5.269669629369821
 30
0.0
 10
12.05829724175336
 20
5.276057674197472
 30
0.0
 10
12.16271955868168
 20
5.290134430894059
 30
0.0
 10
12.26713528777065
 20
5.304248398236783
 30
0.0
 10
12.3241004434436
 20
5.311958413941233
 30
0.0
  0
ARC
  5
152
330
1F
100
AcDbEntity
  8
0
  6
Continuous
 62
     7
370
    25
100
AcDbCircle
 10
19.4078950197
 20
6.2375361138
 30
0.0
 40
0.1999999999999997
100
AcDbArc
 50
268.6299458018
 51
71.377062554
  0
SPLINE
  5
153
330
1F
100
AcDbEntity
  8
0
  6
Continuous
 62
     7
370
    25
100
AcDbSpline
210
0.0
220
0.0
230
1.0
 70
     8
 71
     3
 72
    14
 73
    10
 74
     0
 42
0.00000001
 43
0.00000001
 40
0.1656411662480756
 40
0.1656411662480756
 40
0.1656411662480756
 40
0.1656411662480756
 40
0.1873399380408777
 40
0.2185632610476907
 40
0.2497865840545037
 40
0.2653982455579101
 40
0.2810099070613166
 40
0.2840212018328168
 40
0.2859726595207425
 40
0.2859726595207425
 40
0.2859726595207425
 40
0.2859726595207425
 10
19.47176276123867
 20
6.427064242607883
 30
0.0
 10
19.31721180906963
 20
6.479145273161318
 30
0.0
 10
18.93833859451066
 20
6.600206457438657
 30
0.0
 10
18.32905570703675
 20
6.769056982039393
 30
0.0
 10
17.75712140612518
 20
6.899330105575832
 30
0.0
 10
17.29700294166354
 20
6.987214511363629
 30
0.0
 10
17.04271161308387
 20
7.029683643731687
 30
0.0
 10
16.89043535238974
 20
7.05292847997475
 30
0.0
 10
16.85372100775393
 20
7.058378508699291
 30
0.0
 10
16.83928349378165
 20
7.060496832504098
 30
0.0
  0
ARC
  5
154
330
1F
100
AcDbEntity
  8
0
  6
Continuous
 62
     7
370
    25
100
AcDbCircle
 10
16.8102496305
 20
6.8626154671
 30
0.0
 40
0.2000000000000018
100
AcDbArc
 50
81.6529159505
 51
212.0881706695
  0
ARC
  5
155
330
1F
100
AcDbEntity
  8
0
  6
Continuous
 62
     7
370
    25
100
AcDbCircle
 10
16.2171874991
 20
6.4907588976
 30
0.0
 40
0.5000000000000003
100
AcDbArc
 50
327.7385999223
 51
32.0881706695
  0
ARC
  5
156
330
1F
100
AcDbEntity
  8
0
  6
Continuous
 62
     7
370
    25
100
AcDbCircle
 10
16.8091226417
 20
6.1171109523
 30
0.0
 40
0.1999999999999996
100
AcDbArc
 50
147.7385999223
 51
276.7339681569
  0
SPLINE
  5
157
330
1F
100
AcDbEntity
  8
0
  6
Continuous
 62
     7
370
    25
100
AcDbSpline
210
0.0
220
0.0
230
1.0
 70
     8
 71
     3
 72
    14
 73
    10
 74
     0
 42
0.00000001
 43
0.00000001
 40
0.7212113086263788
 40
0.7212113086263788
 40
0.7212113086263788
 40
0.7212113086263788
 40
0.7231626970634194
 40
0.7268056188143341
 40
0.7346111725624961
 40
0.7502222800588199
 40
0.7814444950514674
 40
0.812666710044115
 40
0.8340247800743911
 40
0.8340247800743911
 40
0.8340247800743911
 40
0.8340247800743911
 10
16.83257454647023
 20
5.918490691129617
 30
0.0
 10
16.84737886098535
 20
5.920238696958846
 30
0.0
 10
16.88980702181044
 20
5.925185020088633
 30
0.0
 10
16.99130323257297
 20
5.936618675356659
 30
0.0
 10
17.19563957085672
 20
5.958190686693572
 30
0.0
 10
17.6102563949951
 20
5.995907828659979
 30
0.0
 10
18.20307837907081
 20
6.032017490319897
 30
0.0
 10
18.84082131105186
 20
6.045842904903392
 30
0.0
 10
19.24074983106658
 20
6.041476452496269
 30
0.0
 10
19.4031130841143
 20
6.037593289286098
 30
0.0
  0
CIRCLE
  5
158
330
1F
100
AcDbEntity
  8
0
  6
Continuous
 62
     7
370
    25
100
AcDbCircle
 10
3.9597757891
 20
5.4323898076
 30
0.0
 40
0.3750000000000004
  0
ARC
  5
159
330
1F
100
AcDbEntity
  8
0
  6
Continuous
 62
     7
370
    25
100
AcDbCircle
 10
7.6444354039
 20
5.5506076065
 30
0.0
 40
0.2000000000000017
100
AcDbArc
 50
241.1174148316
 51
312.4268885054
  0
LINE
  5
15A
330
1F
100
AcDbEntity
  8
0
  6
Continuous
 62
     7
370
    25
100
AcDbLine
 10
7.779365177
 20
5.4029798437
 30
0.0
 11
8.5197055621
 21
6.0796409151
 31
0.0
  0
ARC
  5
15B
330
1F
100
AcDbEntity
  8
0
  6
Continuous
 62
     7
370
    25
100
AcDbCircle
 10
8.3847757891
 20
6.2272686779
 30
0.0
 40
0.2000000000000011
100
AcDbArc
 50
312.4268885054
 51
0.0
  0
LINE
  5
15C
330
1F
100
AcDbEntity
  8
0
  6
Continuous
 62
     7
370
    25
100
AcDbLine
 10
8.5847757891
 20
7.2123101326
 30
0.0
 11
8.5847757891
 21
6.2272686779
 31
0.0
  0
ARC
  5
15D
330
1F
100
AcDbEntity
  8
0
  6
Continuous
 62
     7
370
    25
100
AcDbCircle
 10
8.3847757891
 20
7.2123101326
 30
0.0
 40
0.2000000000000011
100
AcDbArc
 50
0.0
 51
94.1465265648
  0
SPLINE
  5
15E
330
1F
100
AcDbEntity
  8
0
  6
Continuous
 62
     7
370
    25
100
AcDbSpline
210
0.0
220
0.0
230
1.0
 70
     8
 71
     3
 72
    12
 73
     8
 74
     0
 42
0.00000001
 43
0.00000001
 40
0.6561626813670228
 40
0.6561626813670228
 40
0.6561626813670228
 40
0.6561626813670228
 40
0.6623685288212537
 40
0.686913106149885
 40
0.7493597521635109
 40
0.7805830751703239
 40
0.7911832058650156
 40
0.7911832058650156
 40
0.7911832058650156
 40
0.7911832058650156
 10
8.370314312248611
 20
7.41178661161242
 30
0.0
 10
8.323170902481328
 20
7.408368848615763
 30
0.0
 10
8.08965127958808
 20
7.390862554328884
 30
0.0
 10
7.383228036663561
 20
7.329079201572086
 30
0.0
 10
6.492297156788225
 20
7.217577244985057
 30
0.0
 10
5.715466980888759
 20
7.080642821469669
 30
0.0
 10
5.406194024000425
 20
7.017930832003795
 30
0.0
 10
5.327976125515509
 20
7.001511194765115
 30
0.0
  0
ARC
  5
15F
330
1F
100
AcDbEntity
  8
0
  6
Continuous
 62
     7
370
    25
100
AcDbCircle
 10
5.3690649009
 20
6.805777415
 30
0.0
 40
0.2000000000000009
100
AcDbArc
 50
101.855484399
 51
241.1174148316
  0
LINE
  5
160
330
1F
100
AcDbEntity
  8
0
  6
Continuous
 62
     7
370
    25
100
AcDbLine
 10
5.2724616475
 20
6.6306551393
 30
0.0
 11
7.5478321506
 21
5.3754853308
 31
0.0
  0
ARC
  5
161
330
1F
100
AcDbEntity
  8
0
  6
Continuous
 62
     7
370
    25
100
AcDbCircle
 10
10.5347757891
 20
7.0407946013
 30
0.0
 40
0.1999999999999993
100
AcDbArc
 50
0.0
 51
132.4268885054
  0
LINE
  5
162
330
1F
100
AcDbEntity
  8
0
  6
Continuous
 62
     7
370
    25
100
AcDbLine
 10
9.9914695894
 20
6.8151718486
 30
0.0
 11
10.3998460161
 21
7.188422364
 31
0.0
  0
ARC
  5
163
330
1F
100
AcDbEntity
  8
0
  6
Continuous
 62
     7
370
    25
100
AcDbCircle
 10
10.1263993625
 20
6.6675440858
 30
0.0
 40
0.1999999999999994
100
AcDbArc
 50
132.4268885054
 51
227.5937272833
  0
LINE
  5
164
330
1F
100
AcDbEntity
  8
0
  6
Continuous
 62
     7
370
    25
100
AcDbLine
 10
10.3495821027
 20
6.1928427417
 30
0.0
 11
9.9915227166
 21
6.519867783
 31
0.0
  0
ARC
  5
165
330
1F
100
AcDbEntity
  8
0
  6
Continuous
 62
     7
370
    25
100
AcDbCircle
 10
10.4844587485
 20
6.3405190445
 30
0.0
 40
0.2000000000000011
100
AcDbArc
 50
227.5937272833
 51
297.6276689862
  0
ARC
  5
166
330
1F
100
AcDbEntity
  8
0
  6
Continuous
 62
     7
370
    25
100
AcDbCircle
 10
10.9597757891
 20
5.4323898076
 30
0.0
 40
0.8250000000000005
100
AcDbArc
 50
114.4962790512
 51
117.6276689862
  0
ARC
  5
167
330
1F
100
AcDbEntity
  8
0
  6
Continuous
 62
     7
370
    25
100
AcDbCircle
 10
10.5347757891
 20
6.3651277129
 30
0.0
 40
0.2000000000000028
100
AcDbArc
 50
294.4962790512
 51
0.0
  0
LINE
  5
168
330
1F
100
AcDbEntity
  8
0
  6
Continuous
 62
     7
370
    25
100
AcDbLine
 10
10.7347757891
 20
7.0407946013
 30
0.0
 11
10.7347757891
 21
6.3651277129
 31
0.0
  0
ARC
  5
169
330
1F
100
AcDbEntity
  8
0
  6
Continuous
 62
     7
370
    25
100
AcDbCircle
 10
9.9604548433
 20
5.2043927738
 30
0.0
 40
0.2000000000000003
100
AcDbArc
 50
277.0613899986
 51
12.8521590687
  0
ARC
  5
16A
330
1F
100
AcDbEntity
  8
0
  6
Continuous
 62
     7
370
    25
100
AcDbCircle
 10
10.9597757891
 20
5.4323898076
 30
0.0
 40
0.8249999999999997
100
AcDbArc
 50
157.5597855804
 51
192.8521590687
  0
ARC
  5
16B
330
1F
100
AcDbEntity
  8
0
  6
Continuous
 62
     7
370
    25
100
AcDbCircle
 10
10.012390488
 20
5.8236519848
 30
0.0
 40
0.2000000000000002
100
AcDbArc
 50
337.5597855804
 51
47.5937272833
  0
LINE
  5
16C
330
1F
100
AcDbEntity
  8
0
  6
Continuous
 62
     7
370
    25
100
AcDbLine
 10
9.7424707707
 20
6.3410394375
 30
0.0
 11
10.1472671339
 21
5.9713282875
 31
0.0
  0
ARC
  5
16D
330
1F
100
AcDbEntity
  8
0
  6
Continuous
 62
     7
370
    25
100
AcDbCircle
 10
9.6075941249
 20
6.1933631347
 30
0.0
 40
0.1999999999999997
100
AcDbArc
 50
47.5937272833
 51
132.4268885054
  0
LINE
  5
16E
330
1F
100
AcDbEntity
  8
0
  6
Continuous
 62
     7
370
    25
100
AcDbLine
 10
8.1835307102
 20
5.1627402325
 30
0.0
 11
9.4726643518
 21
6.3409908975
 31
0.0
  0
ARC
  5
16F
330
1F
100
AcDbEntity
  8
0
  6
Continuous
 62
     7
370
    25
100
AcDbCircle
 10
8.3184604832
 20
5.0151124697
 30
0.0
 40
0.1999999999999992
100
AcDbArc
 50
132.4268885054
 51
275.9816215157
  0
SPLINE
  5
170
330
1F
100
AcDbEntity
  8
0
  6
Continuous
 62
     7
370
    25
100
AcDbSpline
210
0.0
220
0.0
230
1.0
 70
     8
 71
     3
 72
    10
 73
     6
 74
     0
 42
0.00000001
 43
0.00000001
 40
0.3362614121121216
 40
0.3362614121121216
 40
0.3362614121121216
 40
0.3362614121121216
 40
0.3430891207348891
 40
0.3755557001470496
 40
0.41104965319095
 40
0.41104965319095
 40
0.41104965319095
 40
0.41104965319095
 10
8.33930237321224
 20
4.816201395050868
 30
0.0
 10
8.389359097415044
 20
4.821446335492607
 30
0.0
 10
8.677458635923713
 20
4.851964636707843
 30
0.0
 10
9.225937308006023
 20
4.913517133366015
 30
0.0
 10
9.724569524111962
 20
4.973644519622876
 30
0.0
 10
9.985041392216488
 20
5.005909773014331
 30
0.0
  0
ARC
  5
171
330
1F
100
AcDbEntity
  8
0
  6
Continuous
 62
     7
370
    25
100
AcDbCircle
 10
3.0862375896
 20
4.896147312
 30
0.0
 40
0.2000000000000008
100
AcDbArc
 50
261.6125656441
 51
31.5446870278
  0
ARC
  5
172
330
1F
100
AcDbEntity
  8
0
  6
Continuous
 62
     7
370
    25
100
AcDbCircle
 10
3.9597757891
 20
5.4323898076
 30
0.0
 40
0.8250000000000008
100
AcDbArc
 50
114.4962790512
 51
211.5446870278
  0
ARC
  5
173
330
1F
100
AcDbEntity
  8
0
  6
Continuous
 62
     7
370
    25
100
AcDbCircle
 10
3.5347757891
 20
6.3651277129
 30
0.0
 40
0.2000000000000007
100
AcDbArc
 50
294.4962790512
 51
349.0852697611
  0
ARC
  5
174
330
1F
100
AcDbEntity
  8
0
  6
Continuous
 62
     7
370
    25
100
AcDbCircle
 10
3.5347757891
 20
6.289388557
 30
0.0
 40
0.2000000000000005
100
AcDbArc
 50
10.9147302389
 51
111.3381887662
  0
CIRCLE
  5
175
330
1F
100
AcDbEntity
  8
0
  6
Continuous
 62
     7
370
    25
100
AcDbCircle
 10
10.9597757891
 20
5.4323898076
 30
0.0
 40
0.375
  0
CIRCLE
  5
176
330
1F
100
AcDbEntity
  8
0
  6
Continuous
 62
     7
370
    25
100
AcDbCircle
 10
16.2171874991
 20
6.4907588976
 30
0.0
 40
0.25
  0
ARC
  5
177
330
1F
100
AcDbEntity
  8
0
  6
Continuous
 62
     7
370
    25
100
AcDbCircle
 10
5.2972757891
 20
4.7992510873
 30
0.0
 40
0.2000000000000011
100
AcDbArc
 50
271.4139209614
 51
0.0
  0
LINE
  5
178
330
1F
100
AcDbEntity
  8
0
  6
Continuous
 62
     7
370
    25
100
AcDbLine
 10
5.4972757891
 20
4.7992510873
 30
0.0
 11
5.4972757891
 21
5.8746283786
 31
0.0
  0
ARC
  5
179
330
1F
100
AcDbEntity
  8
0
  6
Continuous
 62
     7
370
    25
100
AcDbCircle
 10
5.2972757891
 20
5.8746283786
 30
0.0
 40
0.2000000000000005
100
AcDbArc
 50
0.0
 51
61.1174148316
  0
LINE
  5
17A
330
1F
100
AcDbEntity
  8
0
  6
Continuous
 62
     7
370
    25
100
AcDbLine
 10
4.4813790425
 20
6.5531159079
 30
0.0
 11
5.3938790425
 21
6.0497506543
 31
0.0
  0
ARC
  5
17B
330
1F
100
AcDbEntity
  8
0
  6
Continuous
 62
     7
370
    25
100
AcDbCircle
 10
4.3847757891
 20
6.3779936322
 30
0.0
 40
0.2000000000000011
100
AcDbArc
 50
61.1174148316
 51
180.0
  0
LINE
  5
17C
330
1F
100
AcDbEntity
  8
0
  6
Continuous
 62
     7
370
    25
100
AcDbLine
 10
4.1847757891
 20
6.3651277129
 30
0.0
 11
4.1847757891
 21
6.3779936322
 31
0.0
  0
ARC
  5
17D
330
1F
100
AcDbEntity
  8
0
  6
Continuous
 62
     7
370
    25
100
AcDbCircle
 10
4.3847757891
 20
6.3651277129
 30
0.0
 40
0.2000000000000009
100
AcDbArc
 50
180.0
 51
245.5037209488
  0
ARC
  5
17E
330
1F
100
AcDbEntity
  8
0
  6
Continuous
 62
     7
370
    25
100
AcDbCircle
 10
3.9597757891
 20
5.4323898076
 30
0.0
 40
0.8250000000000005
100
AcDbArc
 50
321.3799590497
 51
65.5037209488
  0
ARC
  5
17F
330
1F
100
AcDbEntity
  8
0
  6
Continuous
 62
     7
370
    25
100
AcDbCircle
 10
4.7606105478
 20
4.7926330654
 30
0.0
 40
0.2000000000000006
100
AcDbArc
 50
141.3799590497
 51
269.9435934611
  0
SPLINE
  5
180
330
1F
100
AcDbEntity
  8
0
  6
Continuous
 62
     7
370
    25
100
AcDbSpline
210
0.0
220
0.0
230
1.0
 70
     8
 71
     3
 72
     9
 73
     5
 74
     0
 42
0.00000001
 43
0.00000001
 40
0.1730027621724775
 40
0.1730027621724775
 40
0.1730027621724775
 40
0.1730027621724775
 40
0.1882224101911645
 40
0.197857089004595
 40
0.197857089004595
 40
0.197857089004595
 40
0.197857089004595
 10
4.760413651907174
 20
4.592633162276819
 30
0.0
 10
4.870742966781766
 20
4.592524545257388
 30
0.0
 10
5.051222083079733
 20
4.593929482434345
 30
0.0
 10
5.232071429806428
 20
4.597580761300758
 30
0.0
 10
5.302210803396121
 20
4.59931198247507
 30
0.0
  0
ARC
  5
181
330
1F
100
AcDbEntity
  8
0
  6
Continuous
 62
     7
370
    25
100
AcDbCircle
 10
13.0050166149
 20
7.2303562905
 30
0.0
 40
0.2000000000000026
100
AcDbArc
 50
86.8207190269
 51
241.1174148316
  0
LINE
  5
182
330
1F
100
AcDbEntity
  8
0
  6
Continuous
 62
     7
370
    25
100
AcDbLine
 10
12.9084133615
 20
7.0552340148
 30
0.0
 11
14.3890843719
 21
6.2384467944
 31
0.0
  0
ARC
  5
183
330
1F
100
AcDbEntity
  8
0
  6
Continuous
 62
     7
370
    25
100
AcDbCircle
 10
14.4856876253
 20
6.4135690701
 30
0.0
 40
0.2000000000000009
100
AcDbArc
 50
241.1174148316
 51
312.4268885054
  0
LINE
  5
184
330
1F
100
AcDbEntity
  8
0
  6
Continuous
 62
     7
370
    25
100
AcDbLine
 10
14.6206173983
 20
6.2659413073
 30
0.0
 11
15.3242360934
 21
6.909039252
 31
0.0
  0
ARC
  5
185
330
1F
100
AcDbEntity
  8
0
  6
Continuous
 62
     7
370
    25
100
AcDbCircle
 10
15.1893063203
 20
7.0566670148
 30
0.0
 40
0.1999999999999992
100
AcDbArc
 50
312.4268885054
 51
84.1353931202
  0
SPLINE
  5
186
330
1F
100
AcDbEntity
  8
0
  6
Continuous
 62
     7
370
    25
100
AcDbSpline
210
0.0
220
0.0
230
1.0
 70
     8
 71
     3
 72
    11
 73
     7
 74
     0
 42
0.00000001
 43
0.00000001
 40
0.3575496044846498
 40
0.3575496044846498
 40
0.3575496044846498
 40
0.3575496044846498
 40
0.3746798760817555
 40
0.4059031990885684
 40
0.4371265220953814
 40
0.4533143262211753
 40
0.4533143262211753
 40
0.4533143262211753
 40
0.4533143262211753
 10
15.20974193290587
 20
7.255620239783005
 30
0.0
 10
15.07915331516679
 20
7.269033736350512
 30
0.0
 10
14.71047367845549
 20
7.305423974831616
 30
0.0
 10
14.10298759789977
 20
7.358361113922047
 30
0.0
 10
13.50224367589076
 20
7.401517200708195
 30
0.0
 10
13.13985533068289
 20
7.423174844623852
 30
0.0
 10
13.0161087049059
 20
7.430048467467535
 30
0.0
  0
SPLINE
  5
187
330
1F
100
AcDbEntity
  8
0
  6
Continuous
 62
     7
370
    25
100
AcDbSpline
210
0.0
220
0.0
230
1.0
 70
     8
 71
     3
 72
     8
 73
     4
 74
     0
 42
0.00000001
 43
0.00000001
 40
0.0587970678286703
 40
0.0587970678286703
 40
0.0587970678286703
 40
0.0587970678286703
 40
1.0
 40
1.0
 40
1.0
 40
1.0
 10
3.462001361032637
 20
6.475678338310058
 30
0.0
 10
2.03979575505059
 20
5.920091237220604
 30
0.0
 10
1.194792072176247
 20
4.972865580466396
 30
0.0
 10
3.05706437642549
 20
4.698286442619851
 30
0.0
  0
MTEXT
  5
188
330
1F
100
AcDbEntity
  8
PART_NAMES
100
AcDbMText
 10
13.0693538056
 20
6.012709033
 30
0.0
 40
0.1666666667
 41
0.0
 71
     1
 72
     1
  1
1.2.1.1.5
  7
SLDTEXTSTYLE0
 73
     1
 44
1.0
  0
ARC
  5
189
330
1F
100
AcDbEntity
  8
0
  6
Continuous
 62
     7
370
    25
100
AcDbCircle
 10
19.8413862807
 20
3.1233941523
 30
0.0
 40
0.1000000000000021
100
AcDbArc
 50
202.0678995624
 51
256.8325393401
  0
ARC
  5
18A
330
1F
100
AcDbEntity
  8
0
  6
Continuous
 62
     7
370
    25
100
AcDbCircle
 10
22.6172139706
 20
2.4739925928
 30
0.0
 40
0.1000000000000001
100
AcDbArc
 50
256.8325393401
 51
270.0
  0
ARC
  5
18B
330
1F
100
AcDbEntity
  8
0
  6
Continuous
 62
     7
370
    25
100
AcDbCircle
 10
23.355672351
 20
2.2739925928
 30
0.0
 40
0.1000000000000014
100
AcDbArc
 50
0.0
 51
90.0
  0
ARC
  5
18C
330
1F
100
AcDbEntity
  8
0
  6
Continuous
 62
     7
370
    25
100
AcDbCircle
 10
23.355672351
 20
1.4618030468
 30
0.0
 40
0.1000000000000014
100
AcDbArc
 50
318.576334375
 51
0.0
  0
ARC
  5
18D
330
1F
100
AcDbEntity
  8
0
  6
Continuous
 62
     7
370
    25
100
AcDbCircle
 10
23.180672351
 20
1.2634697135
 30
0.0
 40
0.1000000000000005
100
AcDbArc
 50
180.0000000001
 51
318.576334375
  0
ARC
  5
18E
330
1F
100
AcDbEntity
  8
0
  6
Continuous
 62
     7
370
    25
100
AcDbCircle
 10
22.880672351
 20
1.2634697135
 30
0.0
 40
0.1000000000000011
100
AcDbArc
 50
221.423665625
 51
0.0000000001
  0
ARC
  5
18F
330
1F
100
AcDbEntity
  8
0
  6
Continuous
 62
     7
370
    25
100
AcDbCircle
 10
22.5812536675
 20
1.3005233134
 30
0.0
 40
0.099999999999999
100
AcDbArc
 50
41.423665625
 51
116.2021386672
  0
ARC
  5
190
330
1F
100
AcDbEntity
  8
0
  6
Continuous
 62
     7
370
    25
100
AcDbCircle
 10
20.4991748701
 20
0.8055091947
 30
0.0
 40
0.1000000000000012
100
AcDbArc
 50
52.3681660452
 51
93.6478696134
  0
ARC
  5
191
330
1F
100
AcDbEntity
  8
0
  6
Continuous
 62
     7
370
    25
100
AcDbCircle
 10
16.5032992475
 20
0.5507581343
 30
0.0
 40
0.1000000000000015
100
AcDbArc
 50
93.6478696134
 51
138.576334375
  0
ARC
  5
192
330
1F
100
AcDbEntity
  8
0
  6
Continuous
 62
     7
370
    25
100
AcDbCircle
 10
16.180672351
 20
0.487401893
 30
0.0
 40
0.0999999999999998
100
AcDbArc
 50
180.0000000001
 51
318.576334375
  0
ARC
  5
193
330
1F
100
AcDbEntity
  8
0
  6
Continuous
 62
     7
370
    25
100
AcDbCircle
 10
15.855672351
 20
0.487401893
 30
0.0
 40
0.1000000000000019
100
AcDbArc
 50
221.423665625
 51
0.0000000001
  0
ARC
  5
194
330
1F
100
AcDbEntity
  8
0
  6
Continuous
 62
     7
370
    25
100
AcDbCircle
 10
15.5335372176
 20
0.5502008028
 30
0.0
 40
0.1000000000000002
100
AcDbArc
 50
41.423665625
 51
87.0775842978
  0
ARC
  5
195
330
1F
100
AcDbEntity
  8
0
  6
Continuous
 62
     7
370
    25
100
AcDbCircle
 10
18.6964907501
 20
3.1271738968
 30
0.0
 40
0.1000000000000001
100
AcDbArc
 50
279.5440072211
 51
337.9321004376
  0
ARC
  5
196
330
1F
100
AcDbEntity
  8
0
  6
Continuous
 62
     7
370
    25
100
AcDbCircle
 10
19.043172351
 20
3.4499894516
 30
0.0
 40
0.1000000000000014
100
AcDbArc
 50
0.0
 51
157.9321004376
  0
ARC
  5
197
330
1F
100
AcDbEntity
  8
0
  6
Continuous
 62
     7
370
    25
100
AcDbCircle
 10
19.493172351
 20
3.4499894516
 30
0.0
 40
0.1000000000000014
100
AcDbArc
 50
22.0678995624
 51
180.0
  0
ARC
  5
198
330
1F
100
AcDbEntity
  8
0
  6
Continuous
 62
     7
370
    25
100
AcDbCircle
 10
15.793172351
 20
1.4979247723
 30
0.0
 40
0.1000000000000001
100
AcDbArc
 50
270.0
 51
0.0
  0
LINE
  5
199
330
1F
100
AcDbEntity
  8
0
  6
Continuous
 62
     7
370
    25
100
AcDbLine
 10
15.893172351
 20
1.4979247723
 30
0.0
 11
15.893172351
 21
2.1320144584
 31
0.0
  0
ARC
  5
19A
330
1F
100
AcDbEntity
  8
0
  6
Continuous
 62
     7
370
    25
100
AcDbCircle
 10
15.793172351
 20
2.1320144584
 30
0.0
 40
0.0999999999999997
100
AcDbArc
 50
0.0
 51
99.5440072211
  0
ARC
  5
19B
330
1F
100
AcDbEntity
  8
0
  6
Continuous
 62
     7
370
    25
100
AcDbCircle
 10
14.7240156902
 20
1.9522547003
 30
0.0
 40
0.1000000000000003
100
AcDbArc
 50
99.5440072211
 51
213.8597463923
  0
ARC
  5
19C
330
1F
100
AcDbEntity
  8
0
  6
Continuous
 62
     7
370
    25
100
AcDbCircle
 10
14.7739173655
 20
1.0896305405
 30
0.0
 40
0.1000000000000002
100
AcDbArc
 50
152.7618451266
 51
267.0775842978
  0
ARC
  5
19D
330
1F
100
AcDbEntity
  8
0
  6
Continuous
 62
     7
370
    25
100
AcDbCircle
 10
15.480672351
 20
1.0535506602
 30
0.0
 40
0.0999999999999998
100
AcDbArc
 50
267.0775842978
 51
0.0
  0
ARC
  5
19E
330
1F
100
AcDbEntity
  8
0
  6
Continuous
 62
     7
370
    25
100
AcDbCircle
 10
15.680672351
 20
1.2979247723
 30
0.0
 40
0.1000000000000001
100
AcDbArc
 50
90.0
 51
180.0
  0
ARC
  5
19F
330
1F
100
AcDbEntity
  8
0
  6
Continuous
 62
     7
370
    25
100
AcDbCircle
 10
22.505672351
 20
1.8205925174
 30
0.0
 40
0.0999999999999984
100
AcDbArc
 50
296.2021386672
 51
0.0
  0
ARC
  5
1A0
330
1F
100
AcDbEntity
  8
0
  6
Continuous
 62
     7
370
    25
100
AcDbCircle
 10
22.505672351
 20
1.9865868806
 30
0.0
 40
0.1000000000000001
100
AcDbArc
 50
0.0
 51
76.8325393401
  0
ARC
  5
1A1
330
1F
100
AcDbEntity
  8
0
  6
Continuous
 62
     7
370
    25
100
AcDbCircle
 10
21.4271069836
 20
2.238915955
 30
0.0
 40
0.1000000000000029
100
AcDbArc
 50
76.8325393401
 51
166.8325393401
  0
LINE
  5
1A2
330
1F
100
AcDbEntity
  8
0
  6
Continuous
 62
     7
370
    25
100
AcDbLine
 10
21.3266072617
 20
2.2483215434
 30
0.0
 11
21.3297361405
 21
2.2616957469
 31
0.0
  0
ARC
  5
1A3
330
1F
100
AcDbEntity
  8
0
  6
Continuous
 62
     7
370
    25
100
AcDbCircle
 10
21.4239781047
 20
2.2255417515
 30
0.0
 40
0.1000000000000029
100
AcDbArc
 50
166.8325393401
 51
241.4830623231
  0
ARC
  5
1A4
330
1F
100
AcDbEntity
  8
0
  6
Continuous
 62
     7
370
    25
100
AcDbCircle
 10
21.8677117003
 20
1.5066473809
 30
0.0
 40
0.0999999999999998
100
AcDbArc
 50
181.886399496
 51
296.2021386672
  0
ARC
  5
1A5
330
1F
100
AcDbEntity
  8
0
  6
Continuous
 62
     7
370
    25
100
AcDbCircle
 10
20.9889381898
 20
2.3414250188
 30
0.0
 40
0.1000000000000001
100
AcDbArc
 50
346.8325393401
 51
76.8325393401
  0
ARC
  5
1A6
330
1F
100
AcDbEntity
  8
0
  6
Continuous
 62
     7
370
    25
100
AcDbCircle
 10
19.8588952965
 20
2.6057971987
 30
0.0
 40
0.1000000000000002
100
AcDbArc
 50
76.8325393401
 51
155.1252472583
  0
LINE
  5
1A7
330
1F
100
AcDbEntity
  8
0
  6
Continuous
 62
     7
370
    25
100
AcDbLine
 10
20.159432759
 20
1.7941869295
 30
0.0
 11
19.768172351
 21
2.5635882676
 31
0.0
  0
ARC
  5
1A8
330
1F
100
AcDbEntity
  8
0
  6
Continuous
 62
     7
370
    25
100
AcDbCircle
 10
20.2485694283
 20
1.8395152229
 30
0.0
 40
0.0999999999999995
100
AcDbArc
 50
206.9545094978
 51
334.8792621283
  0
ARC
  5
1A9
330
1F
100
AcDbEntity
  8
0
  6
Continuous
 62
     7
370
    25
100
AcDbCircle
 10
20.985809311
 20
2.3280508153
 30
0.0
 40
0.0999999999999999
100
AcDbArc
 50
272.1820163571
 51
346.8325393401
  0
LINE
  5
1AA
330
1F
100
AcDbEntity
  8
0
  6
Continuous
 62
     7
370
    25
100
AcDbLine
 10
21.083180154
 20
2.3052710234
 30
0.0
 11
21.0863090329
 21
2.3186452269
 31
0.0
  0
ARC
  5
1AB
330
1F
100
AcDbEntity
  8
0
  6
Continuous
 62
     7
370
    25
100
AcDbCircle
 10
16.555672351
 20
1.2664595359
 30
0.0
 40
0.1000000000000014
100
AcDbArc
 50
180.0
 51
300.0773537175
  0
LINE
  5
1AC
330
1F
100
AcDbEntity
  8
0
  6
Continuous
 62
     7
370
    25
100
AcDbLine
 10
18.7182892255
 20
2.4033827077
 30
0.0
 11
16.6057892255
 21
1.1799245782
 31
0.0
  0
ARC
  5
1AD
330
1F
100
AcDbEntity
  8
0
  6
Continuous
 62
     7
370
    25
100
AcDbCircle
 10
18.668172351
 20
2.4899176653
 30
0.0
 40
0.0999999999999979
100
AcDbArc
 50
300.0773537175
 51
0.0
  0
ARC
  5
1AE
330
1F
100
AcDbEntity
  8
0
  6
Continuous
 62
     7
370
    25
100
AcDbCircle
 10
18.668172351
 20
2.6153947932
 30
0.0
 40
0.1000000000000007
100
AcDbArc
 50
0.0
 51
99.5440072211
  0
ARC
  5
1AF
330
1F
100
AcDbEntity
  8
0
  6
Continuous
 62
     7
370
    25
100
AcDbCircle
 10
16.243172351
 20
2.2076739891
 30
0.0
 40
0.1000000000000001
100
AcDbArc
 50
99.5440072211
 51
180.0
  0
LINE
  5
1B0
330
1F
100
AcDbEntity
  8
0
  6
Continuous
 62
     7
370
    25
100
AcDbLine
 10
16.143172351
 20
1.4979247723
 30
0.0
 11
16.143172351
 21
2.2076739891
 31
0.0
  0
ARC
  5
1B1
330
1F
100
AcDbEntity
  8
0
  6
Continuous
 62
     7
370
    25
100
AcDbCircle
 10
16.243172351
 20
1.4979247723
 30
0.0
 40
0.1000000000000001
100
AcDbArc
 50
180.0
 51
270.0
  0
ARC
  5
1B2
330
1F
100
AcDbEntity
  8
0
  6
Continuous
 62
     7
370
    25
100
AcDbCircle
 10
16.355672351
 20
1.2979247723
 30
0.0
 40
0.1000000000000014
100
AcDbArc
 50
0.0
 51
90.0
  0
ARC
  5
1B3
330
1F
100
AcDbEntity
  8
0
  6
Continuous
 62
     7
370
    25
100
AcDbCircle
 10
17.1545756336
 20
1.0932943808
 30
0.0
 40
0.1000000000000003
100
AcDbArc
 50
120.0773537175
 51
273.6478696134
  0
ARC
  5
1B4
330
1F
100
AcDbEntity
  8
0
  6
Continuous
 62
     7
370
    25
100
AcDbCircle
 10
20.0299778244
 20
1.2766113372
 30
0.0
 40
0.1
100
AcDbArc
 50
273.6478696134
 51
26.9545094978
  0
LINE
  5
1B5
330
1F
100
AcDbEntity
  8
0
  6
Continuous
 62
     7
370
    25
100
AcDbLine
 10
20.1191144937
 20
1.3219396306
 30
0.0
 11
19.6557402294
 21
2.2331506087
 31
0.0
  0
ARC
  5
1B6
330
1F
100
AcDbEntity
  8
0
  6
Continuous
 62
     7
370
    25
100
AcDbCircle
 10
19.5666035601
 20
2.1878223153
 30
0.0
 40
0.1000000000000018
100
AcDbArc
 50
26.9545094978
 51
90.0
  0
ARC
  5
1B7
330
1F
100
AcDbEntity
  8
0
  6
Continuous
 62
     7
370
    25
100
AcDbCircle
 10
19.044456624
 20
2.1878223153
 30
0.0
 40
0.1000000000000001
100
AcDbArc
 50
90.0
 51
120.0773537175
  0
LINE
  5
1B8
330
1F
100
AcDbEntity
  8
0
  6
Continuous
 62
     7
370
    25
100
AcDbLine
 10
18.9943397495
 20
2.2743572729
 30
0.0
 11
17.1044587591
 21
1.1798293385
 31
0.0
  0
CIRCLE
  5
1B9
330
1F
100
AcDbEntity
  8
0
  6
Continuous
 62
     7
370
    25
100
AcDbCircle
 10
21.018172351
 20
1.4786671366
 30
0.0
 40
0.375
  0
LINE
  5
1BA
330
1F
100
AcDbEntity
  8
0
  6
Continuous
 62
     7
370
    25
100
AcDbLine
 10
22.605672351
 20
1.9865868806
 30
0.0
 11
22.605672351
 21
1.8205925174
 31
0.0
  0
LINE
  5
1BB
330
1F
100
AcDbEntity
  8
0
  6
Continuous
 62
     7
370
    25
100
AcDbLine
 10
19.7487123539
 20
3.0858236414
 30
0.0
 11
19.5858462778
 21
3.4875599624
 31
0.0
  0
CIRCLE
  5
1BC
330
1F
100
AcDbEntity
  8
0
  6
Continuous
 62
     7
370
    25
100
AcDbCircle
 10
14.018172351
 20
1.4786671366
 30
0.0
 40
0.375
  0
LINE
  5
1BD
330
1F
100
AcDbEntity
  8
0
  6
Continuous
 62
     7
370
    25
100
AcDbLine
 10
21.4498867756
 20
2.336286798
 30
0.0
 11
22.528452143
 21
2.0839577237
 31
0.0
  0
LINE
  5
1BE
330
1F
100
AcDbEntity
  8
0
  6
Continuous
 62
     7
370
    25
100
AcDbLine
 10
19.768172351
 20
2.5635882676
 30
0.0
 11
19.768172351
 21
2.6478608072
 31
0.0
  0
LINE
  5
1BF
330
1F
100
AcDbEntity
  8
0
  6
Continuous
 62
     7
370
    25
100
AcDbLine
 10
16.2265918416
 20
2.3062898433
 30
0.0
 11
18.6515918416
 21
2.7140106474
 31
0.0
  0
ARC
  5
1C0
330
1F
100
AcDbEntity
  8
0
  6
Continuous
 62
     7
370
    25
100
AcDbCircle
 10
14.018172351
 20
1.4786671366
 30
0.0
 40
0.7500000000000004
100
AcDbArc
 50
332.7618451266
 51
33.8597463923
  0
LINE
  5
1C1
330
1F
100
AcDbEntity
  8
0
  6
Continuous
 62
     7
370
    25
100
AcDbLine
 10
14.7688189992
 20
0.9897605918
 30
0.0
 11
15.4755739847
 21
0.9536807115
 31
0.0
  0
LINE
  5
1C2
330
1F
100
AcDbEntity
  8
0
  6
Continuous
 62
     7
370
    25
100
AcDbLine
 10
15.580672351
 20
1.2979247723
 30
0.0
 11
15.580672351
 21
1.0535506602
 31
0.0
  0
LINE
  5
1C3
330
1F
100
AcDbEntity
  8
0
  6
Continuous
 62
     7
370
    25
100
AcDbLine
 10
16.355672351
 20
1.3979247723
 30
0.0
 11
16.243172351
 21
1.3979247723
 31
0.0
  0
ARC
  5
1C4
330
1F
100
AcDbEntity
  8
0
  6
Continuous
 62
     7
370
    25
100
AcDbCircle
 10
21.018172351
 20
1.4786671366
 30
0.0
 40
0.7500000000000021
100
AcDbArc
 50
1.886399496
 51
61.4830623231
  0
LINE
  5
1C5
330
1F
100
AcDbEntity
  8
0
  6
Continuous
 62
     7
370
    25
100
AcDbLine
 10
22.5498262854
 20
1.7308683285
 30
0.0
 11
21.9118656347
 21
1.416923192
 31
0.0
  0
LINE
  5
1C6
330
1F
100
AcDbEntity
  8
0
  6
Continuous
 62
     7
370
    25
100
AcDbLine
 10
19.8186064888
 20
3.0260233092
 30
0.0
 11
22.5944341787
 21
2.3766217498
 31
0.0
  0
LINE
  5
1C7
330
1F
100
AcDbEntity
  8
0
  6
Continuous
 62
     7
370
    25
100
AcDbLine
 10
22.6172139706
 20
2.3739925928
 30
0.0
 11
23.355672351
 21
2.3739925928
 31
0.0
  0
LINE
  5
1C8
330
1F
100
AcDbEntity
  8
0
  6
Continuous
 62
     7
370
    25
100
AcDbLine
 10
23.455672351
 20
2.2739925928
 30
0.0
 11
23.455672351
 21
1.4618030468
 31
0.0
  0
LINE
  5
1C9
330
1F
100
AcDbEntity
  8
0
  6
Continuous
 62
     7
370
    25
100
AcDbLine
 10
23.2556561365
 20
1.1973075497
 30
0.0
 11
23.4306561365
 21
1.3956408831
 31
0.0
  0
LINE
  5
1CA
330
1F
100
AcDbEntity
  8
0
  6
Continuous
 62
     7
370
    25
100
AcDbLine
 10
23.080672351
 20
1.7989925928
 30
0.0
 11
23.080672351
 21
1.2634697135
 31
0.0
  0
LINE
  5
1CB
330
1F
100
AcDbEntity
  8
0
  6
Continuous
 62
     7
370
    25
100
AcDbLine
 10
22.980672351
 20
1.7989925928
 30
0.0
 11
23.080672351
 21
1.7989925928
 31
0.0
  0
LINE
  5
1CC
330
1F
100
AcDbEntity
  8
0
  6
Continuous
 62
     7
370
    25
100
AcDbLine
 10
22.980672351
 20
1.2634697135
 30
0.0
 11
22.980672351
 21
1.7989925928
 31
0.0
  0
LINE
  5
1CD
330
1F
100
AcDbEntity
  8
0
  6
Continuous
 62
     7
370
    25
100
AcDbLine
 10
22.8056885655
 20
1.1973075497
 30
0.0
 11
22.6562374531
 21
1.3666854771
 31
0.0
  0
LINE
  5
1CE
330
1F
100
AcDbEntity
  8
0
  6
Continuous
 62
     7
370
    25
100
AcDbLine
 10
22.5370997331
 20
1.3902475023
 30
0.0
 11
21.3493268592
 21
0.8057357199
 31
0.0
  0
ARC
  5
1CF
330
1F
100
AcDbEntity
  8
0
  6
Continuous
 62
     7
370
    25
100
AcDbCircle
 10
21.018172351
 20
1.4786671366
 30
0.0
 40
0.7500000000000021
100
AcDbArc
 50
232.3681660452
 51
296.2021386672
  0
LINE
  5
1D0
330
1F
100
AcDbEntity
  8
0
  6
Continuous
 62
     7
370
    25
100
AcDbLine
 10
20.492812437
 20
0.9053065867
 30
0.0
 11
16.4969368144
 21
0.6505555263
 31
0.0
  0
LINE
  5
1D1
330
1F
100
AcDbEntity
  8
0
  6
Continuous
 62
     7
370
    25
100
AcDbLine
 10
16.2556561365
 20
0.4212397293
 30
0.0
 11
16.428315462
 21
0.616920298
 31
0.0
  0
LINE
  5
1D2
330
1F
100
AcDbEntity
  8
0
  6
Continuous
 62
     7
370
    25
100
AcDbLine
 10
16.080672351
 20
1.0229247723
 30
0.0
 11
16.080672351
 21
0.487401893
 31
0.0
  0
LINE
  5
1D3
330
1F
100
AcDbEntity
  8
0
  6
Continuous
 62
     7
370
    25
100
AcDbLine
 10
15.955672351
 20
1.0229247723
 30
0.0
 11
16.080672351
 21
1.0229247723
 31
0.0
  0
LINE
  5
1D4
330
1F
100
AcDbEntity
  8
0
  6
Continuous
 62
     7
370
    25
100
AcDbLine
 10
15.955672351
 20
0.487401893
 30
0.0
 11
15.955672351
 21
1.0229247723
 31
0.0
  0
LINE
  5
1D5
330
1F
100
AcDbEntity
  8
0
  6
Continuous
 62
     7
370
    25
100
AcDbLine
 10
15.6085210032
 20
0.6163629665
 30
0.0
 11
15.7806885655
 21
0.4212397293
 31
0.0
  0
LINE
  5
1D6
330
1F
100
AcDbEntity
  8
0
  6
Continuous
 62
     7
370
    25
100
AcDbLine
 10
13.9799346038
 20
0.7296425211
 30
0.0
 11
15.5386355839
 21
0.6500707515
 31
0.0
  0
ARC
  5
1D7
330
1F
100
AcDbEntity
  8
0
  6
Continuous
 62
     7
370
    25
100
AcDbCircle
 10
14.018172351
 20
1.4786671366
 30
0.0
 40
0.7500000000000008
100
AcDbArc
 50
99.5440072211
 51
267.0775842978
  0
LINE
  5
1D8
330
1F
100
AcDbEntity
  8
0
  6
Continuous
 62
     7
370
    25
100
AcDbLine
 10
13.8938185302
 20
2.2182860434
 30
0.0
 11
18.7130712596
 21
3.0285580426
 31
0.0
  0
LINE
  5
1D9
330
1F
100
AcDbEntity
  8
0
  6
Continuous
 62
     7
370
    25
100
AcDbLine
 10
18.7891646769
 20
3.0896033859
 30
0.0
 11
18.9504984242
 21
3.4875599624
 31
0.0
  0
LINE
  5
1DA
330
1F
100
AcDbEntity
  8
0
  6
Continuous
 62
     7
370
    25
100
AcDbLine
 10
19.143172351
 20
2.6628223153
 30
0.0
 11
19.143172351
 21
3.4499894516
 31
0.0
  0
LINE
  5
1DB
330
1F
100
AcDbEntity
  8
0
  6
Continuous
 62
     7
370
    25
100
AcDbLine
 10
19.143172351
 20
2.6628223153
 30
0.0
 11
19.393172351
 21
2.6628223153
 31
0.0
  0
LINE
  5
1DC
330
1F
100
AcDbEntity
  8
0
  6
Continuous
 62
     7
370
    25
100
AcDbLine
 10
19.393172351
 20
2.6628223153
 30
0.0
 11
19.393172351
 21
3.4499894516
 31
0.0
  0
LINE
  5
1DD
330
1F
100
AcDbEntity
  8
0
  6
Continuous
 62
     7
370
    25
100
AcDbLine
 10
14.7074351808
 20
2.0508705545
 30
0.0
 11
15.7765918416
 21
2.2306303127
 31
0.0
  0
LINE
  5
1DE
330
1F
100
AcDbEntity
  8
0
  6
Continuous
 62
     7
370
    25
100
AcDbLine
 10
15.793172351
 20
1.3979247723
 30
0.0
 11
15.680672351
 21
1.3979247723
 31
0.0
  0
LINE
  5
1DF
330
1F
100
AcDbEntity
  8
0
  6
Continuous
 62
     7
370
    25
100
AcDbLine
 10
19.044456624
 20
2.2878223153
 30
0.0
 11
19.5666035601
 21
2.2878223153
 31
0.0
  0
LINE
  5
1E0
330
1F
100
AcDbEntity
  8
0
  6
Continuous
 62
     7
370
    25
100
AcDbLine
 10
20.0363402575
 20
1.1768139452
 30
0.0
 11
17.1609380667
 21
0.9934969889
 31
0.0
  0
LINE
  5
1E1
330
1F
100
AcDbEntity
  8
0
  6
Continuous
 62
     7
370
    25
100
AcDbLine
 10
19.8816750885
 20
2.7031680417
 30
0.0
 11
21.0117179818
 21
2.4387958619
 31
0.0
  0
ARC
  5
1E2
330
1F
100
AcDbEntity
  8
0
  6
Continuous
 62
     7
370
    25
100
AcDbCircle
 10
21.018172351
 20
1.4786671366
 30
0.0
 40
0.7500000000000008
100
AcDbArc
 50
92.1820163571
 51
154.8792621283
  0
LINE
  5
1E3
330
1F
100
AcDbEntity
  8
0
  6
Continuous
 62
     7
370
    25
100
AcDbLine
 10
18.768172351
 20
2.4899176653
 30
0.0
 11
18.768172351
 21
2.6153947932
 31
0.0
  0
LINE
  5
1E4
330
1F
100
AcDbEntity
  8
0
  6
Continuous
 62
     7
370
    25
100
AcDbLine
 10
16.455672351
 20
1.2979247723
 30
0.0
 11
16.455672351
 21
1.2664595359
 31
0.0
  0
MTEXT
  5
1E5
330
1F
100
AcDbEntity
  8
PART_NAMES
100
AcDbMText
 10
16.3947729801
 20
0.9074880467
 30
0.0
 40
0.1666666667
 41
0.0
 71
     1
 72
     1
  1
1.2.1.1.7
  7
SLDTEXTSTYLE0
 73
     1
 44
1.0
  0
ARC
  5
1E6
330
1F
100
AcDbEntity
  8
0
  6
Continuous
 62
     7
370
    25
100
AcDbCircle
 10
9.3990172466
 20
0.4672872165
 30
0.0
 40
0.1000000000000001
100
AcDbArc
 50
57.4318606282
 51
83.65316474
  0
ARC
  5
1E7
330
1F
100
AcDbEntity
  8
0
  6
Continuous
 62
     7
370
    25
100
AcDbCircle
 10
8.4310125218
 20
0.5749569255
 30
0.0
 40
0.1000000000000003
100
AcDbArc
 50
83.65316474
 51
122.0163659389
  0
ARC
  5
1E8
330
1F
100
AcDbEntity
  8
0
  6
Continuous
 62
     7
370
    25
100
AcDbCircle
 10
7.4234080352
 20
0.6535729363
 30
0.0
 40
0.1000000000000004
100
AcDbArc
 50
49.0609689623
 51
77.4755825625
  0
ARC
  5
1E9
330
1F
100
AcDbEntity
  8
0
  6
Continuous
 62
     7
370
    25
100
AcDbCircle
 10
3.4397304242
 20
1.538514311
 30
0.0
 40
0.1000000000000001
100
AcDbArc
 50
77.4755825625
 51
165.8668094511
  0
ARC
  5
1EA
330
1F
100
AcDbEntity
  8
0
  6
Continuous
 62
     7
370
    25
100
AcDbCircle
 10
3.2005039485
 20
1.4075220766
 30
0.0
 40
0.1000000000000001
100
AcDbArc
 50
274.301758274
 51
345.8668094511
  0
ARC
  5
1EB
330
1F
100
AcDbEntity
  8
0
  6
Continuous
 62
     7
370
    25
100
AcDbCircle
 10
2.5645552613
 20
1.560448299
 30
0.0
 40
0.0999999999999998
100
AcDbArc
 50
179.0648670846
 51
237.4318606282
  0
ARC
  5
1EC
330
1F
100
AcDbEntity
  8
0
  6
Continuous
 62
     7
370
    25
100
AcDbCircle
 10
6.2402237393
 20
3.8449920691
 30
0.0
 40
0.0999999999999998
100
AcDbArc
 50
269.8874473383
 51
310.3291316592
  0
ARC
  5
1ED
330
1F
100
AcDbEntity
  8
0
  6
Continuous
 62
     7
370
    25
100
AcDbCircle
 10
6.5955356234
 20
3.8842788317
 30
0.0
 40
0.1000000000000005
100
AcDbArc
 50
345.8668094511
 51
130.3291316592
  0
ARC
  5
1EE
330
1F
100
AcDbEntity
  8
0
  6
Continuous
 62
     7
370
    25
100
AcDbCircle
 10
7.031914452
 20
3.7743992705
 30
0.0
 40
0.1000000000000001
100
AcDbArc
 50
21.4044872431
 51
165.8668094511
  0
ARC
  5
1EF
330
1F
100
AcDbEntity
  8
0
  6
Continuous
 62
     7
370
    25
100
AcDbCircle
 10
7.3303274621
 20
3.5611352507
 30
0.0
 40
0.1000000000000004
100
AcDbArc
 50
201.4044872431
 51
230.1957832333
  0
ARC
  5
1F0
330
1F
100
AcDbEntity
  8
0
  6
Continuous
 62
     7
370
    25
100
AcDbCircle
 10
9.7117001047
 20
1.5767534262
 30
0.0
 40
0.0999999999999998
100
AcDbArc
 50
230.1957832333
 51
255.8668094511
  0
ARC
  5
1F1
330
1F
100
AcDbEntity
  8
0
  6
Continuous
 62
     7
370
    25
100
AcDbCircle
 10
10.3680678328
 20
1.2052381571
 30
0.0
 40
0.1000000000000003
100
AcDbArc
 50
345.8668094511
 51
75.8668094511
  0
ARC
  5
1F2
330
1F
100
AcDbEntity
  8
0
  6
Continuous
 62
     7
370
    25
100
AcDbCircle
 10
10.1781168188
 20
0.4508612729
 30
0.0
 40
0.1000000000000001
100
AcDbArc
 50
274.3017582741
 51
345.8668094511
  0
ARC
  5
1F3
330
1F
100
AcDbEntity
  8
0
  6
Continuous
 62
     7
370
    25
100
AcDbCircle
 10
9.4314871597
 20
0.9667590739
 30
0.0
 40
0.1000000000000002
100
AcDbArc
 50
263.65316474
 51
345.8668094511
  0
ARC
  5
1F4
330
1F
100
AcDbEntity
  8
0
  6
Continuous
 62
     7
370
    25
100
AcDbCircle
 10
9.4715836738
 20
1.1259995153
 30
0.0
 40
0.1000000000000008
100
AcDbArc
 50
345.8668094511
 51
50.1957832333
  0
ARC
  5
1F5
330
1F
100
AcDbEntity
  8
0
  6
Continuous
 62
     7
370
    25
100
AcDbCircle
 10
8.6809014314
 20
1.7848697159
 30
0.0
 40
0.1000000000000005
100
AcDbArc
 50
50.1957832333
 51
140.1957832333
  0
LINE
  5
1F6
330
1F
100
AcDbEntity
  8
0
  6
Continuous
 62
     7
370
    25
100
AcDbLine
 10
8.6011361624
 20
1.845356217
 30
0.0
 11
8.6040777902
 21
1.8488863399
 31
0.0
  0
ARC
  5
1F7
330
1F
100
AcDbEntity
  8
0
  6
Continuous
 62
     7
370
    25
100
AcDbCircle
 10
8.6779598036
 20
1.7813395929
 30
0.0
 40
0.1000000000000002
100
AcDbArc
 50
140.1957832333
 51
214.8463062163
  0
ARC
  5
1F8
330
1F
100
AcDbEntity
  8
0
  6
Continuous
 62
     7
370
    25
100
AcDbCircle
 10
8.7904004074
 20
1.0380661887
 30
0.0
 40
0.0999999999999995
100
AcDbArc
 50
162.358376753
 51
263.65316474
  0
ARC
  5
1F9
330
1F
100
AcDbEntity
  8
0
  6
Continuous
 62
     7
370
    25
100
AcDbCircle
 10
2.0028746463
 20
2.7491643954
 30
0.0
 40
0.1000000000000004
100
AcDbArc
 50
34.3998100971
 51
162.4899344834
  0
ARC
  5
1FA
330
1F
100
AcDbEntity
  8
0
  6
Continuous
 62
     7
370
    25
100
AcDbCircle
 10
1.7370393352
 20
2.3524378518
 30
0.0
 40
0.1000000000000003
100
AcDbArc
 50
129.86020835
 51
244.1759475212
  0
ARC
  5
1FB
330
1F
100
AcDbEntity
  8
0
  6
Continuous
 62
     7
370
    25
100
AcDbCircle
 10
2.4493247785
 20
2.0077366484
 30
0.0
 40
0.1000000000000001
100
AcDbArc
 50
244.1759475212
 51
345.8668094511
  0
ARC
  5
1FC
330
1F
100
AcDbEntity
  8
0
  6
Continuous
 62
     7
370
    25
100
AcDbCircle
 10
2.4657829428
 20
2.0730990724
 30
0.0
 40
0.1000000000000002
100
AcDbArc
 50
345.8668094511
 51
34.3998100971
  0
LINE
  5
1FD
330
1F
100
AcDbEntity
  8
0
  6
Continuous
 62
     7
370
    25
100
AcDbLine
 10
2.5482944799
 20
2.1295954993
 30
0.0
 11
2.0853861833
 21
2.8056608223
 31
0.0
  0
ARC
  5
1FE
330
1F
100
AcDbEntity
  8
0
  6
Continuous
 62
     7
370
    25
100
AcDbCircle
 10
3.243350026
 20
2.1989397722
 30
0.0
 40
0.1000000000000003
100
AcDbArc
 50
255.8668094511
 51
290.3762374631
  0
LINE
  5
1FF
330
1F
100
AcDbEntity
  8
0
  6
Continuous
 62
     7
370
    25
100
AcDbLine
 10
6.0814581234
 20
3.1464080286
 30
0.0
 11
3.2781683554
 21
2.1051971248
 31
0.0
  0
ARC
  5
200
330
1F
100
AcDbEntity
  8
0
  6
Continuous
 62
     7
370
    25
100
AcDbCircle
 10
6.0466397939
 20
3.2401506759
 30
0.0
 40
0.1000000000000003
100
AcDbArc
 50
290.3762374631
 51
345.8668094511
  0
ARC
  5
201
330
1F
100
AcDbEntity
  8
0
  6
Continuous
 62
     7
370
    25
100
AcDbCircle
 10
6.0731211182
 20
3.3453193636
 30
0.0
 40
0.1000000000000001
100
AcDbArc
 50
345.8668094511
 51
89.8874473383
  0
ARC
  5
202
330
1F
100
AcDbEntity
  8
0
  6
Continuous
 62
     7
370
    25
100
AcDbCircle
 10
2.1347626923
 20
3.353055942
 30
0.0
 40
0.1000000000000002
100
AcDbArc
 50
89.8874473383
 51
214.3998100971
  0
LINE
  5
203
330
1F
100
AcDbEntity
  8
0
  6
Continuous
 62
     7
370
    25
100
AcDbLine
 10
2.7761641035
 20
2.2393038021
 30
0.0
 11
2.0522511552
 21
3.2965595152
 31
0.0
  0
ARC
  5
204
330
1F
100
AcDbEntity
  8
0
  6
Continuous
 62
     7
370
    25
100
AcDbCircle
 10
2.8586756405
 20
2.2958002289
 30
0.0
 40
0.1000000000000003
100
AcDbArc
 50
214.3998100971
 51
255.8668094511
  0
ARC
  5
205
330
1F
100
AcDbEntity
  8
0
  6
Continuous
 62
     7
370
    25
100
AcDbCircle
 10
6.8424403538
 20
2.7259759469
 30
0.0
 40
0.0999999999999996
100
AcDbArc
 50
6.5727721814
 51
75.8668094511
  0
ARC
  5
206
330
1F
100
AcDbEntity
  8
0
  6
Continuous
 62
     7
370
    25
100
AcDbCircle
 10
6.3133890965
 20
2.8591902922
 30
0.0
 40
0.1000000000000005
100
AcDbArc
 50
75.8668094511
 51
110.3762374631
  0
LINE
  5
207
330
1F
100
AcDbEntity
  8
0
  6
Continuous
 62
     7
370
    25
100
AcDbLine
 10
6.2785707671
 20
2.9529329396
 30
0.0
 11
3.8410214105
 21
2.0475670379
 31
0.0
  0
ARC
  5
208
330
1F
100
AcDbEntity
  8
0
  6
Continuous
 62
     7
370
    25
100
AcDbCircle
 10
3.8758397399
 20
1.9538243905
 30
0.0
 40
0.1000000000000003
100
AcDbArc
 50
110.3762374631
 51
257.4755825625
  0
ARC
  5
209
330
1F
100
AcDbEntity
  8
0
  6
Continuous
 62
     7
370
    25
100
AcDbCircle
 10
7.0116734038
 20
1.257224609
 30
0.0
 40
0.1000000000000014
100
AcDbArc
 50
257.4755825625
 51
6.5727721814
  0
LINE
  5
20A
330
1F
100
AcDbEntity
  8
0
  6
Continuous
 62
     7
370
    25
100
AcDbLine
 10
7.1110161311
 20
1.2686711162
 30
0.0
 11
6.9417830812
 21
2.7374224541
 31
0.0
  0
LINE
  5
20B
330
1F
100
AcDbEntity
  8
0
  6
Continuous
 62
     7
370
    25
100
AcDbLine
 10
7.2904414845
 20
1.8955344842
 30
0.0
 11
7.1688738444
 21
2.9506040115
 31
0.0
  0
ARC
  5
20C
330
1F
100
AcDbEntity
  8
0
  6
Continuous
 62
     7
370
    25
100
AcDbCircle
 10
7.3897842118
 20
1.9069809914
 30
0.0
 40
0.1
100
AcDbArc
 50
186.5727721814
 51
314.0123178885
  0
ARC
  5
20D
330
1F
100
AcDbEntity
  8
0
  6
Continuous
 62
     7
370
    25
100
AcDbCircle
 10
8.3322534183
 20
2.0694144012
 30
0.0
 40
0.1000000000000006
100
AcDbArc
 50
245.5452602503
 51
320.1957832333
  0
LINE
  5
20E
330
1F
100
AcDbEntity
  8
0
  6
Continuous
 62
     7
370
    25
100
AcDbLine
 10
8.4090770595
 20
2.0053977771
 30
0.0
 11
8.4120186873
 21
2.0089279001
 31
0.0
  0
ARC
  5
20F
330
1F
100
AcDbEntity
  8
0
  6
Continuous
 62
     7
370
    25
100
AcDbCircle
 10
8.3351950461
 20
2.0729445242
 30
0.0
 40
0.0999999999999993
100
AcDbArc
 50
320.1957832333
 51
50.1957832333
  0
ARC
  5
210
330
1F
100
AcDbEntity
  8
0
  6
Continuous
 62
     7
370
    25
100
AcDbCircle
 10
7.2682165717
 20
2.9620505187
 30
0.0
 40
0.1000000000000005
100
AcDbArc
 50
50.1957832333
 51
186.5727721814
  0
CIRCLE
  5
211
330
1F
100
AcDbEntity
  8
0
  6
Continuous
 62
     7
370
    25
100
AcDbCircle
 10
7.9803752649
 20
1.2956691168
 30
0.0
 40
0.3750000000000009
  0
LINE
  5
212
330
1F
100
AcDbEntity
  8
0
  6
Continuous
 62
     7
370
    25
100
AcDbLine
 10
9.5685567468
 20
1.101581835
 30
0.0
 11
9.5284602328
 21
0.9423413936
 31
0.0
  0
LINE
  5
213
330
1F
100
AcDbEntity
  8
0
  6
Continuous
 62
     7
370
    25
100
AcDbLine
 10
7.2372247384
 20
3.5246402806
 30
0.0
 11
7.1250171757
 21
3.8108942406
 31
0.0
  0
CIRCLE
  5
214
330
1F
100
AcDbEntity
  8
0
  6
Continuous
 62
     7
370
    25
100
AcDbCircle
 10
1.1922601535
 20
3.0049067348
 30
0.0
 40
0.3750000000000006
  0
LINE
  5
215
330
1F
100
AcDbEntity
  8
0
  6
Continuous
 62
     7
370
    25
100
AcDbLine
 10
8.7449180555
 20
1.861693357
 30
0.0
 11
9.5356002978
 21
1.2028231564
 31
0.0
  0
LINE
  5
216
330
1F
100
AcDbEntity
  8
0
  6
Continuous
 62
     7
370
    25
100
AcDbLine
 10
6.143612867
 20
3.2157329957
 30
0.0
 11
6.1700941912
 21
3.3209016833
 31
0.0
  0
ARC
  5
217
330
1F
100
AcDbEntity
  8
0
  6
Continuous
 62
     7
370
    25
100
AcDbCircle
 10
1.1922601535
 20
3.0049067348
 30
0.0
 40
0.7500000000000001
100
AcDbArc
 50
309.86020835
 51
342.4899344834
  0
LINE
  5
218
330
1F
100
AcDbEntity
  8
0
  6
Continuous
 62
     7
370
    25
100
AcDbLine
 10
2.4057638775
 20
1.91772305
 30
0.0
 11
1.6934784342
 21
2.2624242534
 31
0.0
  0
LINE
  5
219
330
1F
100
AcDbEntity
  8
0
  6
Continuous
 62
     7
370
    25
100
AcDbLine
 10
2.5627560158
 20
2.0486813921
 30
0.0
 11
2.5462978515
 21
1.9833189682
 31
0.0
  0
ARC
  5
21A
330
1F
100
AcDbEntity
  8
0
  6
Continuous
 62
     7
370
    25
100
AcDbCircle
 10
7.9803752649
 20
1.2956691168
 30
0.0
 40
0.750000000000001
100
AcDbArc
 50
342.358376753
 51
34.8463062163
  0
LINE
  5
21B
330
1F
100
AcDbEntity
  8
0
  6
Continuous
 62
     7
370
    25
100
AcDbLine
 10
9.420432483
 20
0.8673719815
 30
0.0
 11
8.7793457306
 21
0.9386790964
 31
0.0
  0
LINE
  5
21C
330
1F
100
AcDbEntity
  8
0
  6
Continuous
 62
     7
370
    25
100
AcDbLine
 10
7.266310838
 20
3.4843116095
 30
0.0
 11
9.6476834806
 21
1.499929785
 31
0.0
  0
LINE
  5
21D
330
1F
100
AcDbEntity
  8
0
  6
Continuous
 62
     7
370
    25
100
AcDbLine
 10
9.6872824244
 20
1.4797803532
 30
0.0
 11
10.3924855131
 21
1.3022112301
 31
0.0
  0
LINE
  5
21E
330
1F
100
AcDbEntity
  8
0
  6
Continuous
 62
     7
370
    25
100
AcDbLine
 10
10.4650409059
 20
1.1808204768
 30
0.0
 11
10.2750898919
 21
0.4264435926
 31
0.0
  0
LINE
  5
21F
330
1F
100
AcDbEntity
  8
0
  6
Continuous
 62
     7
370
    25
100
AcDbLine
 10
9.8633194995
 20
0.3268993159
 30
0.0
 11
10.1856177516
 21
0.3511429897
 31
0.0
  0
LINE
  5
220
330
1F
100
AcDbEntity
  8
0
  6
Continuous
 62
     7
370
    25
100
AcDbLine
 10
9.9854079008
 20
0.811764681
 30
0.0
 11
9.8633194995
 21
0.3268993159
 31
0.0
  0
LINE
  5
221
330
1F
100
AcDbEntity
  8
0
  6
Continuous
 62
     7
370
    25
100
AcDbLine
 10
9.8884348278
 20
0.8361823612
 30
0.0
 11
9.9854079008
 21
0.811764681
 31
0.0
  0
LINE
  5
222
330
1F
100
AcDbEntity
  8
0
  6
Continuous
 62
     7
370
    25
100
AcDbLine
 10
9.7663464265
 20
0.3513169961
 30
0.0
 11
9.8884348278
 21
0.8361823612
 31
0.0
  0
LINE
  5
223
330
1F
100
AcDbEntity
  8
0
  6
Continuous
 62
     7
370
    25
100
AcDbLine
 10
9.7663464265
 20
0.3513169961
 30
0.0
 11
9.4528474702
 21
0.5515624027
 31
0.0
  0
LINE
  5
224
330
1F
100
AcDbEntity
  8
0
  6
Continuous
 62
     7
370
    25
100
AcDbLine
 10
9.4100719233
 20
0.5666743088
 30
0.0
 11
8.4420671985
 21
0.6743440178
 31
0.0
  0
ARC
  5
225
330
1F
100
AcDbEntity
  8
0
  6
Continuous
 62
     7
370
    25
100
AcDbCircle
 10
7.9803752649
 20
1.2956691168
 30
0.0
 40
0.7499999999999999
100
AcDbArc
 50
229.0609689623
 51
302.0163659389
  0
LINE
  5
226
330
1F
100
AcDbEntity
  8
0
  6
Continuous
 62
     7
370
    25
100
AcDbLine
 10
3.4614159899
 20
1.636134679
 30
0.0
 11
7.4450936009
 21
0.7511933042
 31
0.0
  0
LINE
  5
227
330
1F
100
AcDbEntity
  8
0
  6
Continuous
 62
     7
370
    25
100
AcDbLine
 10
3.3427573511
 20
1.5629319913
 30
0.0
 11
3.2974770215
 21
1.3831043964
 31
0.0
  0
LINE
  5
228
330
1F
100
AcDbEntity
  8
0
  6
Continuous
 62
     7
370
    25
100
AcDbLine
 10
2.8857066292
 20
1.2835601196
 30
0.0
 11
3.2080048813
 21
1.3078037934
 31
0.0
  0
LINE
  5
229
330
1F
100
AcDbEntity
  8
0
  6
Continuous
 62
     7
370
    25
100
AcDbLine
 10
3.0077950305
 20
1.7684254847
 30
0.0
 11
2.8857066292
 21
1.2835601196
 31
0.0
  0
LINE
  5
22A
330
1F
100
AcDbEntity
  8
0
  6
Continuous
 62
     7
370
    25
100
AcDbLine
 10
2.8865786892
 20
1.798947585
 30
0.0
 11
3.0077950305
 21
1.7684254847
 31
0.0
  0
LINE
  5
22B
330
1F
100
AcDbEntity
  8
0
  6
Continuous
 62
     7
370
    25
100
AcDbLine
 10
2.7644902879
 20
1.3140822199
 30
0.0
 11
2.8865786892
 21
1.798947585
 31
0.0
  0
LINE
  5
22C
330
1F
100
AcDbEntity
  8
0
  6
Continuous
 62
     7
370
    25
100
AcDbLine
 10
2.7644902879
 20
1.3140822199
 30
0.0
 11
2.5107250376
 21
1.4761731128
 31
0.0
  0
LINE
  5
22D
330
1F
100
AcDbEntity
  8
0
  6
Continuous
 62
     7
370
    25
100
AcDbLine
 10
2.4415054449
 20
1.5671434105
 30
0.0
 11
2.46456858
 21
1.5620803414
 31
0.0
  0
LINE
  5
22E
330
1F
100
AcDbEntity
  8
0
  6
Continuous
 62
     7
370
    25
100
AcDbLine
 10
2.4415054449
 20
1.5671434105
 30
0.0
 11
0.8655533958
 21
2.3298047466
 31
0.0
  0
ARC
  5
22F
330
1F
100
AcDbEntity
  8
0
  6
Continuous
 62
     7
370
    25
100
AcDbCircle
 10
1.1922601535
 20
3.0049067348
 30
0.0
 40
0.7500000000000002
100
AcDbArc
 50
89.8874473383
 51
244.1759475212
  0
LINE
  5
230
330
1F
100
AcDbEntity
  8
0
  6
Continuous
 62
     7
370
    25
100
AcDbLine
 10
6.240027298
 20
3.744992262
 30
0.0
 11
1.1937334635
 21
3.7549052877
 31
0.0
  0
LINE
  5
231
330
1F
100
AcDbEntity
  8
0
  6
Continuous
 62
     7
370
    25
100
AcDbLine
 10
6.3049414862
 20
3.7687581315
 30
0.0
 11
6.5308178765
 21
3.9605127692
 31
0.0
  0
LINE
  5
232
330
1F
100
AcDbEntity
  8
0
  6
Continuous
 62
     7
370
    25
100
AcDbLine
 10
6.5489440921
 20
3.2897045797
 30
0.0
 11
6.6925086964
 21
3.8598611514
 31
0.0
  0
LINE
  5
233
330
1F
100
AcDbEntity
  8
0
  6
Continuous
 62
     7
370
    25
100
AcDbLine
 10
6.5489440921
 20
3.2897045797
 30
0.0
 11
6.7913767746
 21
3.2286603791
 31
0.0
  0
LINE
  5
234
330
1F
100
AcDbEntity
  8
0
  6
Continuous
 62
     7
370
    25
100
AcDbLine
 10
6.7913767746
 20
3.2286603791
 30
0.0
 11
6.934941379
 21
3.7988169508
 31
0.0
  0
LINE
  5
235
330
1F
100
AcDbEntity
  8
0
  6
Continuous
 62
     7
370
    25
100
AcDbLine
 10
7.3322331958
 20
3.0388741599
 30
0.0
 11
8.3992116702
 21
2.1497681654
 31
0.0
  0
ARC
  5
236
330
1F
100
AcDbEntity
  8
0
  6
Continuous
 62
     7
370
    25
100
AcDbCircle
 10
7.9803752649
 20
1.2956691168
 30
0.0
 40
0.7500000000000003
100
AcDbArc
 50
65.5452602503
 51
134.0123178885
  0
LINE
  5
237
330
1F
100
AcDbEntity
  8
0
  6
Continuous
 62
     7
370
    25
100
AcDbLine
 10
6.0733175595
 20
3.4453191706
 30
0.0
 11
2.1349591336
 21
3.4530557491
 31
0.0
  0
LINE
  5
238
330
1F
100
AcDbEntity
  8
0
  6
Continuous
 62
     7
370
    25
100
AcDbLine
 10
2.8342579603
 20
2.1988271559
 30
0.0
 11
3.2189323457
 21
2.1019666991
 31
0.0
  0
LINE
  5
239
330
1F
100
AcDbEntity
  8
0
  6
Continuous
 62
     7
370
    25
100
AcDbLine
 10
6.3378067768
 20
2.9561633653
 30
0.0
 11
6.8668580341
 21
2.8229490199
 31
0.0
  0
LINE
  5
23A
330
1F
100
AcDbEntity
  8
0
  6
Continuous
 62
     7
370
    25
100
AcDbLine
 10
6.9899878381
 20
1.159604241
 30
0.0
 11
3.8541541742
 21
1.8562040226
 31
0.0
  0
MTEXT
  5
23B
330
1F
100
AcDbEntity
  8
PART_NAMES
100
AcDbMText
 10
2.4462178267
 20
3.7015544866
 30
0.0
 40
0.1666666667
 41
0.0
 71
     1
 72
     1
  1
1.2.2.1.6
  7
SLDTEXTSTYLE0
 73
     1
 44
1.0
  0
ARC
  5
23C
330
1F
100
AcDbEntity
  8
0
  6
Continuous
 62
     7
370
    25
100
AcDbCircle
 10
10.1125754792
 20
2.7340098429
 30
0.0
 40
0.1000000000000009
100
AcDbArc
 50
190.184561594
 51
343.8587398389
  0
ARC
  5
23D
330
1F
100
AcDbEntity
  8
0
  6
Continuous
 62
     7
370
    25
100
AcDbCircle
 10
10.3752668685
 20
3.6416717828
 30
0.0
 40
0.1000000000000025
100
AcDbArc
 50
343.8587398389
 51
100.184561594
  0
ARC
  5
23E
330
1F
100
AcDbEntity
  8
0
  6
Continuous
 62
     7
370
    25
100
AcDbCircle
 10
9.962825029
 20
3.567576508
 30
0.0
 40
0.0999999999999995
100
AcDbArc
 50
100.184561594
 51
190.184561594
  0
ARC
  5
23F
330
1F
100
AcDbEntity
  8
0
  6
Continuous
 62
     7
370
    25
100
AcDbCircle
 10
13.9912729676
 20
3.1529946297
 30
0.0
 40
0.1000000000000011
100
AcDbArc
 50
221.9748513798
 51
338.3942718082
  0
ARC
  5
240
330
1F
100
AcDbEntity
  8
0
  6
Continuous
 62
     7
370
    25
100
AcDbCircle
 10
14.4766189423
 20
4.3784806609
 30
0.0
 40
0.1000000000000002
100
AcDbArc
 50
338.3942718082
 51
100.184561594
  0
ARC
  5
241
330
1F
100
AcDbEntity
  8
0
  6
Continuous
 62
     7
370
    25
100
AcDbCircle
 10
13.1097247066
 20
4.1329177855
 30
0.0
 40
0.100000000000001
100
AcDbArc
 50
100.184561594
 51
221.9748513798
  0
ARC
  5
242
330
1F
100
AcDbEntity
  8
0
  6
Continuous
 62
     7
370
    25
100
AcDbCircle
 10
13.1631022507
 20
2.7200945291
 30
0.0
 40
0.1000000000000003
100
AcDbArc
 50
190.184561594
 51
280.184561594
  0
ARC
  5
243
330
1F
100
AcDbEntity
  8
0
  6
Continuous
 62
     7
370
    25
100
AcDbCircle
 10
13.7481250397
 20
2.8251940126
 30
0.0
 40
0.1000000000000009
100
AcDbArc
 50
280.184561594
 51
41.9748513798
  0
ARC
  5
244
330
1F
100
AcDbEntity
  8
0
  6
Continuous
 62
     7
370
    25
100
AcDbCircle
 10
12.9935299747
 20
3.6639968442
 30
0.0
 40
0.1000000000000012
100
AcDbArc
 50
41.9748513798
 51
190.184561594
  0
ARC
  5
245
330
1F
100
AcDbEntity
  8
0
  6
Continuous
 62
     7
370
    25
100
AcDbCircle
 10
15.7002075607
 20
3.175886103
 30
0.0
 40
0.1000000000000003
100
AcDbArc
 50
280.184561594
 51
41.9748513798
  0
ARC
  5
246
330
1F
100
AcDbEntity
  8
0
  6
Continuous
 62
     7
370
    25
100
AcDbCircle
 10
14.8186592997
 20
4.1558092588
 30
0.0
 40
0.1000000000000012
100
AcDbArc
 50
41.9748513798
 51
158.3942718082
  0
ARC
  5
247
330
1F
100
AcDbEntity
  8
0
  6
Continuous
 62
     7
370
    25
100
AcDbCircle
 10
14.333313325
 20
2.9303232276
 30
0.0
 40
0.1000000000000003
100
AcDbArc
 50
158.3942718082
 51
280.184561594
  0
ARC
  5
248
330
1F
100
AcDbEntity
  8
0
  6
Continuous
 62
     7
370
    25
100
AcDbCircle
 10
15.8164022927
 20
3.6448070444
 30
0.0
 40
0.1000000000000007
100
AcDbArc
 50
221.9748513798
 51
10.184561594
  0
ARC
  5
249
330
1F
100
AcDbEntity
  8
0
  6
Continuous
 62
     7
370
    25
100
AcDbCircle
 10
15.6468300166
 20
4.5887093595
 30
0.0
 40
0.0999999999999998
100
AcDbArc
 50
10.184561594
 51
100.184561594
  0
ARC
  5
24A
330
1F
100
AcDbEntity
  8
0
  6
Continuous
 62
     7
370
    25
100
AcDbCircle
 10
15.0618072276
 20
4.4836098759
 30
0.0
 40
0.1000000000000012
100
AcDbArc
 50
100.184561594
 51
221.9748513798
  0
ARC
  5
24B
330
1F
100
AcDbEntity
  8
0
  6
Continuous
 62
     7
370
    25
100
AcDbCircle
 10
12.3511015381
 20
2.5742184074
 30
0.0
 40
0.1000000000000003
100
AcDbArc
 50
280.184561594
 51
10.184561594
  0
ARC
  5
24C
330
1F
100
AcDbEntity
  8
0
  6
Continuous
 62
     7
370
    25
100
AcDbCircle
 10
12.201351088
 20
3.4077850725
 30
0.0
 40
0.1000000000000024
100
AcDbArc
 50
10.184561594
 51
163.8587398389
  0
ARC
  5
24D
330
1F
100
AcDbEntity
  8
0
  6
Continuous
 62
     7
370
    25
100
AcDbCircle
 10
11.9386596987
 20
2.5001231326
 30
0.0
 40
0.1000000000000005
100
AcDbArc
 50
163.8587398389
 51
280.184561594
  0
ARC
  5
24E
330
1F
100
AcDbEntity
  8
0
  6
Continuous
 62
     7
370
    25
100
AcDbCircle
 10
11.6082725162
 20
2.7973714139
 30
0.0
 40
0.1000000000000024
100
AcDbArc
 50
216.5103833491
 51
343.8587398389
  0
ARC
  5
24F
330
1F
100
AcDbEntity
  8
0
  6
Continuous
 62
     7
370
    25
100
AcDbCircle
 10
11.9336520743
 20
3.9216360566
 30
0.0
 40
0.1000000000000007
100
AcDbArc
 50
343.8587398389
 51
100.184561594
  0
ARC
  5
250
330
1F
100
AcDbEntity
  8
0
  6
Continuous
 62
     7
370
    25
100
AcDbCircle
 10
10.9119197378
 20
3.7380815987
 30
0.0
 40
0.1000000000000003
100
AcDbArc
 50
100.184561594
 51
216.5103833491
  0
ARC
  5
251
330
1F
100
AcDbEntity
  8
0
  6
Continuous
 62
     7
370
    25
100
AcDbCircle
 10
18.6040218873
 20
4.8115566194
 30
0.0
 40
0.2500000000000002
100
AcDbArc
 50
325.184561594
 51
10.184561594
  0
ARC
  5
252
330
1F
100
AcDbEntity
  8
0
  6
Continuous
 62
     7
370
    25
100
AcDbCircle
 10
17.6783536707
 20
3.4804600754
 30
0.0
 40
0.2500000000000007
100
AcDbArc
 50
280.184561594
 51
325.184561594
  0
ARC
  5
253
330
1F
100
AcDbEntity
  8
0
  6
Continuous
 62
     7
370
    25
100
AcDbCircle
 10
9.6305842403
 20
1.8822750339
 30
0.0
 40
0.1000000000000008
100
AcDbArc
 50
190.184561594
 51
280.184561594
  0
ARC
  5
254
330
1F
100
AcDbEntity
  8
0
  6
Continuous
 62
     7
370
    25
100
AcDbCircle
 10
9.3123090658
 20
3.6539129522
 30
0.0
 40
0.1000000000000009
100
AcDbArc
 50
100.184561594
 51
190.184561594
  0
ARC
  5
255
330
1F
100
AcDbEntity
  8
0
  6
Continuous
 62
     7
370
    25
100
AcDbCircle
 10
18.5415067389
 20
5.159539171
 30
0.0
 40
0.2499999999999998
100
AcDbArc
 50
10.184561594
 51
100.184561594
  0
ARC
  5
256
330
1F
100
AcDbEntity
  8
0
  6
Continuous
 62
     7
370
    25
100
AcDbCircle
 10
11.4020068293
 20
2.4037133166
 30
0.0
 40
0.1000000000000003
100
AcDbArc
 50
280.184561594
 51
36.5103833491
  0
ARC
  5
257
330
1F
100
AcDbEntity
  8
0
  6
Continuous
 62
     7
370
    25
100
AcDbCircle
 10
10.705654051
 20
3.3444235015
 30
0.0
 40
0.1000000000000005
100
AcDbArc
 50
36.5103833491
 51
163.8587398389
  0
ARC
  5
258
330
1F
100
AcDbEntity
  8
0
  6
Continuous
 62
     7
370
    25
100
AcDbCircle
 10
10.3802744928
 20
2.2201588587
 30
0.0
 40
0.1000000000000039
100
AcDbArc
 50
163.8587398389
 51
280.184561594
  0
CIRCLE
  5
259
330
1F
100
AcDbEntity
  8
0
  6
Continuous
 62
     7
370
    25
100
AcDbCircle
 10
17.5322270557
 20
3.7082106344
 30
0.0
 40
0.125
  0
LINE
  5
25A
330
1F
100
AcDbEntity
  8
0
  6
Continuous
 62
     7
370
    25
100
AcDbLine
 10
10.7860289561
 20
3.4039203469
 30
0.0
 11
11.4823817345
 21
2.4632101621
 31
0.0
  0
LINE
  5
25B
330
1F
100
AcDbEntity
  8
0
  6
Continuous
 62
     7
370
    25
100
AcDbLine
 10
18.8500827093
 20
4.8557615047
 30
0.0
 11
18.7875675609
 21
5.2037440563
 31
0.0
  0
LINE
  5
25C
330
1F
100
AcDbEntity
  8
0
  6
Continuous
 62
     7
370
    25
100
AcDbLine
 10
11.7043304365
 20
2.7695707676
 30
0.0
 11
12.0297099947
 21
3.8938354103
 31
0.0
  0
LINE
  5
25D
330
1F
100
AcDbEntity
  8
0
  6
Continuous
 62
     7
370
    25
100
AcDbLine
 10
12.2997754168
 20
3.4254670266
 30
0.0
 11
12.4495258669
 21
2.5919003616
 31
0.0
  0
LINE
  5
25E
330
1F
100
AcDbEntity
  8
0
  6
Continuous
 62
     7
370
    25
100
AcDbLine
 10
15.7452543454
 20
4.6063913136
 30
0.0
 11
15.9148266214
 21
3.6624889985
 31
0.0
  0
LINE
  5
25F
330
1F
100
AcDbEntity
  8
0
  6
Continuous
 62
     7
370
    25
100
AcDbLine
 10
14.893003145
 20
4.2226896944
 30
0.0
 11
15.774551406
 21
3.2427665387
 31
0.0
  0
LINE
  5
260
330
1F
100
AcDbEntity
  8
0
  6
Continuous
 62
     7
370
    25
100
AcDbLine
 10
12.8951056459
 20
3.64631489
 30
0.0
 11
13.0646779219
 21
2.7024125749
 31
0.0
  0
LINE
  5
261
330
1F
100
AcDbEntity
  8
0
  6
Continuous
 62
     7
370
    25
100
AcDbLine
 10
13.0353808613
 20
4.0660373499
 30
0.0
 11
13.9169291223
 21
3.0861141941
 31
0.0
  0
LINE
  5
262
330
1F
100
AcDbEntity
  8
0
  6
Continuous
 62
     7
370
    25
100
AcDbLine
 10
9.8644007002
 20
3.5498945538
 30
0.0
 11
10.0141511504
 21
2.7163278888
 31
0.0
  0
CIRCLE
  5
263
330
1F
100
AcDbEntity
  8
0
  6
Continuous
 62
     7
370
    25
100
AcDbCircle
 10
18.3396508023
 20
4.8692734636
 30
0.0
 40
0.1249999999999991
  0
LINE
  5
264
330
1F
100
AcDbEntity
  8
0
  6
Continuous
 62
     7
370
    25
100
AcDbLine
 10
10.2842165724
 20
2.247959505
 30
0.0
 11
10.6095961306
 21
3.3722241478
 31
0.0
  0
LINE
  5
265
330
1F
100
AcDbEntity
  8
0
  6
Continuous
 62
     7
370
    25
100
AcDbLine
 10
10.3979564469
 20
2.1217345299
 30
0.0
 11
11.4196887835
 21
2.3052889879
 31
0.0
  0
LINE
  5
266
330
1F
100
AcDbEntity
  8
0
  6
Continuous
 62
     7
370
    25
100
AcDbLine
 10
17.8836025207
 20
3.3377263738
 30
0.0
 11
18.8092707373
 21
4.6688229177
 31
0.0
  0
LINE
  5
267
330
1F
100
AcDbEntity
  8
0
  6
Continuous
 62
     7
370
    25
100
AcDbLine
 10
9.6482661944
 20
1.7838507052
 30
0.0
 11
17.7225585561
 21
3.2343992534
 31
0.0
  0
LINE
  5
268
330
1F
100
AcDbEntity
  8
0
  6
Continuous
 62
     7
370
    25
100
AcDbLine
 10
9.213884737
 20
3.636230998
 30
0.0
 11
9.5321599115
 21
1.8645930798
 31
0.0
  0
LINE
  5
269
330
1F
100
AcDbEntity
  8
0
  6
Continuous
 62
     7
370
    25
100
AcDbLine
 10
9.2946271116
 20
3.752337281
 30
0.0
 11
18.4973018535
 21
5.4055999929
 31
0.0
  0
LINE
  5
26A
330
1F
100
AcDbEntity
  8
0
  6
Continuous
 62
     7
370
    25
100
AcDbLine
 10
10.8942377837
 20
3.8365059275
 30
0.0
 11
11.9159701202
 21
4.0200603854
 31
0.0
  0
LINE
  5
26B
330
1F
100
AcDbEntity
  8
0
  6
Continuous
 62
     7
370
    25
100
AcDbLine
 10
10.8315448326
 20
3.6785847532
 30
0.0
 11
11.527897611
 21
2.7378745684
 31
0.0
  0
LINE
  5
26C
330
1F
100
AcDbEntity
  8
0
  6
Continuous
 62
     7
370
    25
100
AcDbLine
 10
11.8426017783
 20
2.5279237789
 30
0.0
 11
12.1052931676
 21
3.4355857188
 31
0.0
  0
LINE
  5
26D
330
1F
100
AcDbEntity
  8
0
  6
Continuous
 62
     7
370
    25
100
AcDbLine
 10
11.9563416528
 20
2.4016988038
 30
0.0
 11
12.3687834923
 21
2.4757940786
 31
0.0
  0
LINE
  5
26E
330
1F
100
AcDbEntity
  8
0
  6
Continuous
 62
     7
370
    25
100
AcDbLine
 10
15.0441252735
 20
4.5820342047
 30
0.0
 11
15.6291480625
 21
4.6871336883
 31
0.0
  0
LINE
  5
26F
330
1F
100
AcDbEntity
  8
0
  6
Continuous
 62
     7
370
    25
100
AcDbLine
 10
14.9874633823
 20
4.4167294403
 30
0.0
 11
15.7420584474
 21
3.5779266088
 31
0.0
  0
LINE
  5
270
330
1F
100
AcDbEntity
  8
0
  6
Continuous
 62
     7
370
    25
100
AcDbLine
 10
14.2403393573
 20
2.9671449782
 30
0.0
 11
14.7256853319
 21
4.1926310094
 31
0.0
  0
LINE
  5
271
330
1F
100
AcDbEntity
  8
0
  6
Continuous
 62
     7
370
    25
100
AcDbLine
 10
14.3509952792
 20
2.8318988988
 30
0.0
 11
15.7178895149
 21
3.0774617743
 31
0.0
  0
LINE
  5
272
330
1F
100
AcDbEntity
  8
0
  6
Continuous
 62
     7
370
    25
100
AcDbLine
 10
13.1807842048
 20
2.6216702003
 30
0.0
 11
13.7658069938
 21
2.7267696838
 31
0.0
  0
LINE
  5
273
330
1F
100
AcDbEntity
  8
0
  6
Continuous
 62
     7
370
    25
100
AcDbLine
 10
13.0678738199
 20
3.7308772798
 30
0.0
 11
13.822468885
 21
2.8920744482
 31
0.0
  0
LINE
  5
274
330
1F
100
AcDbEntity
  8
0
  6
Continuous
 62
     7
370
    25
100
AcDbLine
 10
14.0842469354
 20
3.1161728791
 30
0.0
 11
14.56959291
 21
4.3416589103
 31
0.0
  0
LINE
  5
275
330
1F
100
AcDbEntity
  8
0
  6
Continuous
 62
     7
370
    25
100
AcDbLine
 10
13.0920427525
 20
4.2313421143
 30
0.0
 11
14.4589369881
 21
4.4769049897
 31
0.0
  0
LINE
  5
276
330
1F
100
AcDbEntity
  8
0
  6
Continuous
 62
     7
370
    25
100
AcDbLine
 10
10.2086333995
 20
2.7062091966
 30
0.0
 11
10.4713247888
 21
3.6138711365
 31
0.0
  0
LINE
  5
277
330
1F
100
AcDbEntity
  8
0
  6
Continuous
 62
     7
370
    25
100
AcDbLine
 10
9.9451430749
 20
3.6660008367
 30
0.0
 11
10.3575849143
 21
3.7400961116
 31
0.0
  0
MTEXT
  5
278
330
1F
100
AcDbEntity
  8
PART_NAMES
100
AcDbMText
 10
16.6992127637
 20
4.51392856
 30
0.0
 40
0.1666666667
 41
0.0
 71
     1
 72
     1
  1
1.2.1.2.2
  7
SLDTEXTSTYLE0
 73
     1
 44
1.0
  0
MTEXT
  5
279
330
1F
100
AcDbEntity
  8
PART_NAMES
100
AcDbMText
 10
17.5606325392
 20
4.4726595323
 30
0.0
 40
0.125
 41
0.0
 71
     1
 72
     1
  1
.
  7
SLDTEXTSTYLE0
 73
     1
 44
1.0
  0
MTEXT
  5
27B
330
1F
100
AcDbEntity
  8
0
  6
Continuous
 62
     7
100
AcDbMText
 10
0.0
 20
0.5790104628
 30
0.0
 40
0.2076
 41
0.0
 71
     1
 72
     1
  1
SOLIDWORKS Educational Product.
  7
SLDTEXTSTYLE1
 73
     1
 44
1.0
  0
MTEXT
  5
27C
330
1F
100
AcDbEntity
  8
0
  6
Continuous
 62
     7
100
AcDbMText
 10
0.0
 20
0.2676104628
 30
0.0
 40
0.2076
 41
0.0
 71
     1
 72
     1
  1
For Instructional Use Only.
  7
SLDTEXTSTYLE1
 73
     1
 44
1.0
  0
ENDSEC
  0
SECTION
  2
OBJECTS
  0
DICTIONARY
  5
C
330
0
100
AcDbDictionary
281
     1
  3
ACAD_GROUP
350
D
  3
ACAD_LAYOUT
350
1A
  3
ACAD_MLINESTYLE
350
17
  3
ACAD_PLOTSETTINGS
350
19
  3
ACAD_PLOTSTYLENAME
350
E
  3
ACAD_SCALELIST
350
47
  3
DWGPROPS
350
27D
  0
DICTIONARY
  5
D
102
{ACAD_REACTORS
330
C
102
}
330
C
100
AcDbDictionary
281
     1
  0
DICTIONARY
  5
1A
102
{ACAD_REACTORS
330
C
102
}
330
C
100
AcDbDictionary
281
     1
  3
Layout1
350
1E
  3
Layout2
350
26
  3
Model
350
22
  0
DICTIONARY
  5
17
102
{ACAD_REACTORS
330
C
102
}
330
C
100
AcDbDictionary
281
     1
  3
Standard
350
18
  0
DICTIONARY
  5
19
102
{ACAD_REACTORS
330
C
102
}
330
C
100
AcDbDictionary
281
     1
  0
ACDBDICTIONARYWDFLT
  5
E
102
{ACAD_REACTORS
330
C
102
}
330
C
100
AcDbDictionary
281
     1
  3
Normal
350
F
100
AcDbDictionaryWithDefault
340
F
  0
DICTIONARY
  5
47
102
{ACAD_REACTORS
330
C
102
}
330
C
100
AcDbDictionary
281
     1
  3
A0
350
48
  3
A1
350
49
  3
A2
350
4A
  3
A3
350
4B
  3
A4
350
4C
  3
A5
350
4D
  3
A6
350
4E
  3
A7
350
4F
  3
A8
350
50
  3
A9
350
51
  3
B1
350
52
  3
B2
350
53
  3
B3
350
54
  3
B4
350
55
  3
B5
350
56
  3
B6
350
57
  3
B7
350
58
  0
XRECORD
  5
27D
102
{ACAD_REACTORS
330
C
102
}
330
C
100
AcDbXrecord
280
     1
  1
DWGPROPS COOKIE
  2

  3

  4

  6

  7

  8
ucmai
  9

300
=
301
=
302
=
303
=
304
=
305
=
306
=
307
=
308
=
309
=
 40
0.0
 41
2460722.926982222
 42
2460722.926982871
  1

 90
        0
  0
LAYOUT
  5
1E
102
{ACAD_REACTORS
330
1A
102
}
330
1A
100
AcDbPlotSettings
  1

  2
none_device
  4

  6

 40
0.0
 41
0.0
 42
0.0
 43
0.0
 44
0.0
 45
0.0
 46
0.0
 47
0.0
 48
0.0
 49
0.0
140
0.0
141
0.0
142
1.0
143
1.0
 70
   688
 72
     0
 73
     0
 74
     5
  7

 75
    16
147
1.0
148
0.0
149
0.0
100
AcDbLayout
  1
Layout1
 70
     1
 71
     1
 10
0.0
 20
0.0
 11
12.0
 21
9.0
 12
0.0
 22
0.0
 32
0.0
 14
1.0000000000E+20
 24
1.0000000000E+20
 34
1.0000000000E+20
 15
-1.0000000000E+20
 25
-1.0000000000E+20
 35
-1.0000000000E+20
146
0.0
 13
0.0
 23
0.0
 33
0.0
 16
1.0
 26
0.0
 36
0.0
 17
0.0
 27
1.0
 37
0.0
 76
     0
330
1B
  0
LAYOUT
  5
26
102
{ACAD_REACTORS
330
1A
102
}
330
1A
100
AcDbPlotSettings
  1

  2
none_device
  4

  6

 40
0.0
 41
0.0
 42
0.0
 43
0.0
 44
0.0
 45
0.0
 46
0.0
 47
0.0
 48
0.0
 49
0.0
140
0.0
141
0.0
142
1.0
143
1.0
 70
   688
 72
     0
 73
     0
 74
     5
  7

 75
    16
147
1.0
148
0.0
149
0.0
100
AcDbLayout
  1
Layout2
 70
     1
 71
     2
 10
0.0
 20
0.0
 11
0.0
 21
0.0
 12
0.0
 22
0.0
 32
0.0
 14
0.0
 24
0.0
 34
0.0
 15
0.0
 25
0.0
 35
0.0
146
0.0
 13
0.0
 23
0.0
 33
0.0
 16
1.0
 26
0.0
 36
0.0
 17
0.0
 27
1.0
 37
0.0
 76
     0
330
23
  0
LAYOUT
  5
22
102
{ACAD_REACTORS
330
1A
102
}
330
1A
100
AcDbPlotSettings
  1

  2
none_device
  4
Letter_(8.50_x_11.00_Inches)
  6

 40
6.35
 41
6.35
 42
6.35000508
 43
6.35000508
 44
215.9
 45
279.4
 46
0.0
 47
0.0
 48
0.0
 49
0.0
140
0.0
141
0.0
142
1.0
143
1.0
 70
  1712
 72
     0
 73
     0
 74
     0
  7

 75
     0
147
1.0
148
0.0
149
0.0
100
AcDbLayout
  1
Model
 70
     1
 71
     0
 10
0.0
 20
0.0
 11
24.0
 21
12.0
 12
0.0
 22
0.0
 32
0.0
 14
0.0
 24
0.0
 34
0.0
 15
24.0
 25
12.0
 35
0.0
146
0.0
 13
0.0
 23
0.0
 33
0.0
 16
1.0
 26
0.0
 36
0.0
 17
0.0
 27
1.0
 37
0.0
 76
     0
330
1F
331
29
  0
MLINESTYLE
  5
18
102
{ACAD_REACTORS
330
17
102
}
330
17
100
AcDbMlineStyle
  2
Standard
 70
     0
  3

 62
   256
 51
90.0
 52
90.0
 71
     2
 49
0.5
 62
   256
  6
BYLAYER
 49
-0.5
 62
   256
  6
BYLAYER
  0
ACDBPLACEHOLDER
  5
F
102
{ACAD_REACTORS
330
E
102
}
330
E
  0
SCALE
  5
48
102
{ACAD_REACTORS
330
47
102
}
330
47
100
AcDbScale
 70
     0
300
1:1
140
1.0
141
1.0
290
     1
  0
SCALE
  5
49
102
{ACAD_REACTORS
330
47
102
}
330
47
100
AcDbScale
 70
     0
300
1/128" = 1'-0"
140
0.0078125
141
12.0
290
     0
  0
SCALE
  5
4A
102
{ACAD_REACTORS
330
47
102
}
330
47
100
AcDbScale
 70
     0
300
1/64" = 1'-0"
140
0.015625
141
12.0
290
     0
  0
SCALE
  5
4B
102
{ACAD_REACTORS
330
47
102
}
330
47
100
AcDbScale
 70
     0
300
1/32" = 1'-0"
140
0.03125
141
12.0
290
     0
  0
SCALE
  5
4C
102
{ACAD_REACTORS
330
47
102
}
330
47
100
AcDbScale
 70
     0
300
1/16" = 1'-0"
140
0.0625
141
12.0
290
     0
  0
SCALE
  5
4D
102
{ACAD_REACTORS
330
47
102
}
330
47
100
AcDbScale
 70
     0
300
3/32" = 1'-0"
140
0.09375
141
12.0
290
     0
  0
SCALE
  5
4E
102
{ACAD_REACTORS
330
47
102
}
330
47
100
AcDbScale
 70
     0
300
1/8" = 1'-0"
140
0.125
141
12.0
290
     0
  0
SCALE
  5
4F
102
{ACAD_REACTORS
330
47
102
}
330
47
100
AcDbScale
 70
     0
300
3/16" = 1'-0"
140
0.1875
141
12.0
290
     0
  0
SCALE
  5
50
102
{ACAD_REACTORS
330
47
102
}
330
47
100
AcDbScale
 70
     0
300
1/4" = 1'-0"
140
0.25
141
12.0
290
     0
  0
SCALE
  5
51
102
{ACAD_REACTORS
330
47
102
}
330
47
100
AcDbScale
 70
     0
300
3/8" = 1'-0"
140
0.375
141
12.0
290
     0
  0
SCALE
  5
52
102
{ACAD_REACTORS
330
47
102
}
330
47
100
AcDbScale
 70
     0
300
1/2" = 1'-0"
140
0.5
141
12.0
290
     0
  0
SCALE
  5
53
102
{ACAD_REACTORS
330
47
102
}
330
47
100
AcDbScale
 70
     0
300
3/4" = 1'-0"
140
0.75
141
12.0
290
     0
  0
SCALE
  5
54
102
{ACAD_REACTORS
330
47
102
}
330
47
100
AcDbScale
 70
     0
300
1" = 1'-0"
140
1.0
141
12.0
290
     0
  0
SCALE
  5
55
102
{ACAD_REACTORS
330
47
102
}
330
47
100
AcDbScale
 70
     0
300
1-1/2" = 1'-0"
140
1.5
141
12.0
290
     0
  0
SCALE
  5
56
102
{ACAD_REACTORS
330
47
102
}
330
47
100
AcDbScale
 70
     0
300
3" = 1'-0"
140
3.0
141
12.0
290
     0
  0
SCALE
  5
57
102
{ACAD_REACTORS
330
47
102
}
330
47
100
AcDbScale
 70
     0
300
6" = 1'-0"
140
6.0
141
12.0
290
     0
  0
SCALE
  5
58
102
{ACAD_REACTORS
330
47
102
}
330
47
100
AcDbScale
 70
     0
300
1'-0" = 1'-0"
140
12.0
141
12.0
290
     0
  0
ENDSEC
  0
EOF
