  0
SECTION
  2
HEADER
  9
$ACADVER
  1
AC1015
  9
$ACADMAINTVER
 70
     6
  9
$DWGCODEPAGE
  3
ANSI_1252
  9
$INSBASE
 10
0.0
 20
0.0
 30
0.0
  9
$EXTMIN
 10
0.0
 20
0.0
 30
0.0
  9
$EXTMAX
 10
24.0
 20
12.0
 30
0.0
  9
$LIMMIN
 10
0.0
 20
0.0
  9
$LIMMAX
 10
24.0
 20
12.0
  9
$ORTHOMODE
 70
     0
  9
$REGENMODE
 70
     1
  9
$FILLMODE
 70
     1
  9
$QTEXTMODE
 70
     0
  9
$MIRRTEXT
 70
     1
  9
$LTSCALE
 40
1.0
  9
$ATTMODE
 70
     1
  9
$TEXTSIZE
 40
0.125
  9
$TRACEWID
 40
0.05
  9
$TEXTSTYLE
  7
Standard
  9
$CLAYER
  8
0
  9
$CELTYPE
  6
ByLayer
  9
$CECOLOR
 62
   256
  9
$CELTSCALE
 40
1.0
  9
$DISPSILH
 70
     0
  9
$DIMSCALE
 40
1.0
  9
$DIMASZ
 40
0.13
  9
$DIMEXO
 40
0.05
  9
$DIMDLI
 40
0.38
  9
$DIMRND
 40
0.0
  9
$DIMDLE
 40
0.0
  9
$DIMEXE
 40
0.125
  9
$DIMTP
 40
0.0
  9
$DIMTM
 40
0.0
  9
$DIMTXT
 40
0.125
  9
$DIMCEN
 40
0.09
  9
$DIMTSZ
 40
0.0
  9
$DIMTOL
 70
     0
  9
$DIMLIM
 70
     0
  9
$DIMTIH
 70
     1
  9
$DIMTOH
 70
     1
  9
$DIMSE1
 70
     0
  9
$DIMSE2
 70
     0
  9
$DIMTAD
 70
     0
  9
$DIMZIN
 70
     1
  9
$DIMBLK
  1

  9
$DIMASO
 70
     1
  9
$DIMSHO
 70
     1
  9
$DIMPOST
  1

  9
$DIMAPOST
  1

  9
$DIMALT
 70
     0
  9
$DIMALTD
 70
     2
  9
$DIMALTF
 40
25.4
  9
$DIMLFAC
 40
1.0
  9
$DIMTOFL
 70
     0
  9
$DIMTVP
 40
0.0
  9
$DIMTIX
 70
     0
  9
$DIMSOXD
 70
     0
  9
$DIMSAH
 70
     0
  9
$DIMBLK1
  1

  9
$DIMBLK2
  1

  9
$DIMSTYLE
  2
Standard
  9
$DIMCLRD
 70
     0
  9
$DIMCLRE
 70
     0
  9
$DIMCLRT
 70
     0
  9
$DIMTFAC
 40
1.0
  9
$DIMGAP
 40
0.06
  9
$DIMJUST
 70
     0
  9
$DIMSD1
 70
     0
  9
$DIMSD2
 70
     0
  9
$DIMTOLJ
 70
     1
  9
$DIMTZIN
 70
     1
  9
$DIMALTZ
 70
     0
  9
$DIMALTTZ
 70
     0
  9
$DIMUPT
 70
     0
  9
$DIMDEC
 70
     2
  9
$DIMTDEC
 70
     2
  9
$DIMALTU
 70
     2
  9
$DIMALTTD
 70
     2
  9
$DIMTXSTY
  7
Standard
  9
$DIMAUNIT
 70
     0
  9
$DIMADEC
 70
     2
  9
$DIMALTRND
 40
0.0
  9
$DIMAZIN
 70
     0
  9
$DIMDSEP
 70
    46
  9
$DIMATFIT
 70
     3
  9
$DIMFRAC
 70
     0
  9
$DIMLDRBLK
  1

  9
$DIMLUNIT
 70
     2
  9
$DIMLWD
 70
    -2
  9
$DIMLWE
 70
    -2
  9
$DIMTMOVE
 70
     0
  9
$LUNITS
 70
     2
  9
$LUPREC
 70
     6
  9
$SKETCHINC
 40
0.1
  9
$FILLETRAD
 40
0.0
  9
$AUNITS
 70
     0
  9
$AUPREC
 70
     2
  9
$MENU
  1
.
  9
$ELEVATION
 40
0.0
  9
$PELEVATION
 40
0.0
  9
$THICKNESS
 40
0.0
  9
$LIMCHECK
 70
     0
  9
$CHAMFERA
 40
0.0
  9
$CHAMFERB
 40
0.0
  9
$CHAMFERC
 40
0.0
  9
$CHAMFERD
 40
0.0
  9
$SKPOLY
 70
     0
  9
$TDCREATE
 40
2460722.592909595
  9
$TDUCREATE
 40
2460722.926242928
  9
$TDUPDATE
 40
2460722.592910197
  9
$TDUUPDATE
 40
2460722.92624353
  9
$TDINDWG
 40
0.0000000116
  9
$TDUSRTIMER
 40
0.0000000116
  9
$USRTIMER
 70
     1
  9
$ANGBASE
 50
0.0
  9
$ANGDIR
 70
     0
  9
$PDMODE
 70
     0
  9
$PDSIZE
 40
-1.0
  9
$PLINEWID
 40
0.0
  9
$SPLFRAME
 70
     0
  9
$SPLINETYPE
 70
     6
  9
$SPLINESEGS
 70
     8
  9
$HANDSEED
  5
1DA
  9
$SURFTAB1
 70
     6
  9
$SURFTAB2
 70
     6
  9
$SURFTYPE
 70
     6
  9
$SURFU
 70
     6
  9
$SURFV
 70
     6
  9
$UCSBASE
  2

  9
$UCSNAME
  2

  9
$UCSORG
 10
0.0
 20
0.0
 30
0.0
  9
$UCSXDIR
 10
1.0
 20
0.0
 30
0.0
  9
$UCSYDIR
 10
0.0
 20
1.0
 30
0.0
  9
$UCSORTHOREF
  2

  9
$UCSORTHOVIEW
 70
     0
  9
$UCSORGTOP
 10
0.0
 20
0.0
 30
0.0
  9
$UCSORGBOTTOM
 10
0.0
 20
0.0
 30
0.0
  9
$UCSORGLEFT
 10
0.0
 20
0.0
 30
0.0
  9
$UCSORGRIGHT
 10
0.0
 20
0.0
 30
0.0
  9
$UCSORGFRONT
 10
0.0
 20
0.0
 30
0.0
  9
$UCSORGBACK
 10
0.0
 20
0.0
 30
0.0
  9
$PUCSBASE
  2

  9
$PUCSNAME
  2

  9
$PUCSORG
 10
0.0
 20
0.0
 30
0.0
  9
$PUCSXDIR
 10
1.0
 20
0.0
 30
0.0
  9
$PUCSYDIR
 10
0.0
 20
1.0
 30
0.0
  9
$PUCSORTHOREF
  2

  9
$PUCSORTHOVIEW
 70
     0
  9
$PUCSORGTOP
 10
0.0
 20
0.0
 30
0.0
  9
$PUCSORGBOTTOM
 10
0.0
 20
0.0
 30
0.0
  9
$PUCSORGLEFT
 10
0.0
 20
0.0
 30
0.0
  9
$PUCSORGRIGHT
 10
0.0
 20
0.0
 30
0.0
  9
$PUCSORGFRONT
 10
0.0
 20
0.0
 30
0.0
  9
$PUCSORGBACK
 10
0.0
 20
0.0
 30
0.0
  9
$USERI1
 70
     0
  9
$USERI2
 70
     0
  9
$USERI3
 70
     0
  9
$USERI4
 70
     0
  9
$USERI5
 70
     0
  9
$USERR1
 40
0.0
  9
$USERR2
 40
0.0
  9
$USERR3
 40
0.0
  9
$USERR4
 40
0.0
  9
$USERR5
 40
0.0
  9
$WORLDVIEW
 70
     1
  9
$SHADEDGE
 70
     3
  9
$SHADEDIF
 70
    70
  9
$TILEMODE
 70
     1
  9
$MAXACTVP
 70
    64
  9
$PINSBASE
 10
0.0
 20
0.0
 30
0.0
  9
$PLIMCHECK
 70
     0
  9
$PEXTMIN
 10
1.0000000000E+20
 20
1.0000000000E+20
 30
1.0000000000E+20
  9
$PEXTMAX
 10
-1.0000000000E+20
 20
-1.0000000000E+20
 30
-1.0000000000E+20
  9
$PLIMMIN
 10
0.0
 20
0.0
  9
$PLIMMAX
 10
12.0
 20
9.0
  9
$UNITMODE
 70
     0
  9
$VISRETAIN
 70
     1
  9
$PLINEGEN
 70
     0
  9
$PSLTSCALE
 70
     1
  9
$TREEDEPTH
 70
  3020
  9
$CMLSTYLE
  2
Standard
  9
$CMLJUST
 70
     0
  9
$CMLSCALE
 40
1.0
  9
$PROXYGRAPHICS
 70
     1
  9
$MEASUREMENT
 70
     0
  9
$CELWEIGHT
370
    -1
  9
$ENDCAPS
280
     0
  9
$JOINSTYLE
280
     0
  9
$LWDISPLAY
290
     1
  9
$INSUNITS
 70
     1
  9
$HYPERLINKBASE
  1

  9
$STYLESHEET
  1

  9
$XEDIT
290
     1
  9
$CEPSNTYPE
380
     0
  9
$PSTYLEMODE
290
     1
  9
$FINGERPRINTGUID
  2
{f772d6e7-bbd8-48a1-83f9-eb1a6944fca5}
  9
$VERSIONGUID
  2
{FAEB1C32-E019-11D5-929B-00C0DF256EC4}
  9
$EXTNAMES
290
     1
  9
$PSVPSCALE
 40
0.0
  9
$OLESTARTUP
290
     0
  0
ENDSEC
  0
SECTION
  2
CLASSES
  0
CLASS
  1
ACDBDICTIONARYWDFLT
  2
AcDbDictionaryWithDefault
  3
ObjectDBX Classes
 90
        0
280
     0
281
     0
  0
CLASS
  1
VISUALSTYLE
  2
AcDbVisualStyle
  3
ObjectDBX Classes
 90
     4095
280
     0
281
     0
  0
CLASS
  1
MATERIAL
  2
AcDbMaterial
  3
ObjectDBX Classes
 90
     1153
280
     0
281
     0
  0
CLASS
  1
SCALE
  2
AcDbScale
  3
ObjectDBX Classes
 90
     1153
280
     0
281
     0
  0
CLASS
  1
TABLESTYLE
  2
AcDbTableStyle
  3
ObjectDBX Classes
 90
     4095
280
     0
281
     0
  0
CLASS
  1
MLEADERSTYLE
  2
AcDbMLeaderStyle
  3
ACDB_MLEADERSTYLE_CLASS
 90
     4095
280
     0
281
     0
  0
CLASS
  1
SUN
  2
AcDbSun
  3
SCENEOE
 90
     1153
280
     0
281
     0
  0
CLASS
  1
ACDBPLACEHOLDER
  2
AcDbPlaceHolder
  3
ObjectDBX Classes
 90
        0
280
     0
281
     0
  0
CLASS
  1
LAYOUT
  2
AcDbLayout
  3
ObjectDBX Classes
 90
        0
280
     0
281
     0
  0
ENDSEC
  0
SECTION
  2
TABLES
  0
TABLE
  2
VPORT
  5
8
330
0
100
AcDbSymbolTable
 70
     1
  0
VPORT
  5
29
330
8
100
AcDbSymbolTableRecord
100
AcDbViewportTableRecord
  2
*Active
 70
     0
 10
0.0
 20
0.0
 11
1.0
 21
1.0
 12
12.0
 22
6.0
 13
0.0
 23
0.0
 14
0.5
 24
0.5
 15
0.5
 25
0.5
 16
0.0
 26
0.0
 36
1.0
 17
0.0
 27
0.0
 37
0.0
 40
12.0
 41
2.0
 42
50.0
 43
0.0
 44
0.0
 50
0.0
 51
0.0
 71
     0
 72
  2000
 73
     1
 74
     3
 75
     0
 76
     0
 77
     0
 78
     0
281
     0
 65
     1
110
0.0
120
0.0
130
0.0
111
1.0
121
0.0
131
0.0
112
0.0
122
1.0
132
0.0
 79
     0
146
0.0
  0
ENDTAB
  0
TABLE
  2
LTYPE
  5
5
330
0
100
AcDbSymbolTable
 70
     6
  0
LTYPE
  5
14
330
5
100
AcDbSymbolTableRecord
100
AcDbLinetypeTableRecord
  2
ByBlock
 70
     0
  3

 72
    65
 73
     0
 40
0.0
  0
LTYPE
  5
15
330
5
100
AcDbSymbolTableRecord
100
AcDbLinetypeTableRecord
  2
ByLayer
 70
     0
  3

 72
    65
 73
     0
 40
0.0
  0
LTYPE
  5
16
330
5
100
AcDbSymbolTableRecord
100
AcDbLinetypeTableRecord
  2
Continuous
 70
     0
  3
Solid line
 72
    65
 73
     0
 40
0.0
  0
LTYPE
  5
5E
330
5
100
AcDbSymbolTableRecord
100
AcDbLinetypeTableRecord
  2
HIDDEN
 70
     0
  3
Hidden __ __ __ __ __ __ __ __ __ __ __ __ __ __
 72
    65
 73
     2
 40
0.075
 49
0.05
 74
     0
 49
-0.025
 74
     0
  0
LTYPE
  5
5F
330
5
100
AcDbSymbolTableRecord
100
AcDbLinetypeTableRecord
  2
PHANTOM
 70
     0
  3
Phantom ______  __  __  ______  __  __  ______
 72
    65
 73
     6
 40
0.5
 49
0.25
 74
     0
 49
-0.05
 74
     0
 49
0.05
 74
     0
 49
-0.05
 74
     0
 49
0.05
 74
     0
 49
-0.05
 74
     0
  0
LTYPE
  5
60
330
5
100
AcDbSymbolTableRecord
100
AcDbLinetypeTableRecord
  2
CENTER
 70
     0
  3
Center ____ _ ____ _ ____ _ ____ _ ____ _ ____
 72
    65
 73
     4
 40
0.4
 49
0.25
 74
     0
 49
-0.05
 74
     0
 49
0.05
 74
     0
 49
-0.05
 74
     0
  0
LTYPE
  5
61
330
5
100
AcDbSymbolTableRecord
100
AcDbLinetypeTableRecord
  2
CENTERX2
 70
     0
  3
Center (2x) ________  __  ________  __  _____
 72
    65
 73
     4
 40
0.8
 49
0.5
 74
     0
 49
-0.1
 74
     0
 49
0.1
 74
     0
 49
-0.1
 74
     0
  0
LTYPE
  5
62
330
5
100
AcDbSymbolTableRecord
100
AcDbLinetypeTableRecord
  2
DOT2
 70
     0
  3
Dot (.5x) ........................................
 72
    65
 73
     2
 40
0.025
 49
0.0
 74
     0
 49
-0.025
 74
     0
  0
ENDTAB
  0
TABLE
  2
LAYER
  5
2
330
0
100
AcDbSymbolTable
 70
     3
  0
LAYER
  5
10
330
2
100
AcDbSymbolTableRecord
100
AcDbLayerTableRecord
  2
0
 70
     0
 62
     7
  6
Continuous
370
    -3
390
F
  0
LAYER
  5
63
330
2
100
AcDbSymbolTableRecord
100
AcDbLayerTableRecord
  2
FORMAT
 70
     0
 62
     7
  6
Continuous
370
    -3
390
F
  0
LAYER
  5
64
330
2
100
AcDbSymbolTableRecord
100
AcDbLayerTableRecord
  2
PART_NAMES
 70
     0
 62
     1
  6
Continuous
370
    -3
390
F
  0
ENDTAB
  0
TABLE
  2
STYLE
  5
3
330
0
100
AcDbSymbolTable
 70
     3
  0
STYLE
  5
11
330
3
100
AcDbSymbolTableRecord
100
AcDbTextStyleTableRecord
  2
Standard
 70
     0
 40
0.0
 41
1.0
 50
0.0
 71
     0
 42
0.125
  3
txt
  4

  0
STYLE
  5
CF
330
3
100
AcDbSymbolTableRecord
100
AcDbTextStyleTableRecord
  2
SLDTEXTSTYLE0
 70
     0
 40
0.0
 41
0.75
 50
0.0
 71
     0
 42
0.125
  3
TXT
  4

  0
STYLE
  5
1D6
330
3
100
AcDbSymbolTableRecord
100
AcDbTextStyleTableRecord
  2
SLDTEXTSTYLE1
 70
     0
 40
0.0
 41
0.7
 50
0.0
 71
     0
 42
0.125
  3
TXT
  4

  0
ENDTAB
  0
TABLE
  2
VIEW
  5
6
330
0
100
AcDbSymbolTable
 70
     0
  0
ENDTAB
  0
TABLE
  2
UCS
  5
7
330
0
100
AcDbSymbolTable
 70
     0
  0
ENDTAB
  0
TABLE
  2
APPID
  5
9
330
0
100
AcDbSymbolTable
 70
     1
  0
APPID
  5
12
330
9
100
AcDbSymbolTableRecord
100
AcDbRegAppTableRecord
  2
ACAD
 70
     0
  0
ENDTAB
  0
TABLE
  2
DIMSTYLE
  5
A
330
0
100
AcDbSymbolTable
 70
     1
100
AcDbDimStyleTable
  0
DIMSTYLE
105
27
330
A
100
AcDbSymbolTableRecord
100
AcDbDimStyleTableRecord
  2
Standard
 70
     0
178
     0
340
11
  0
ENDTAB
  0
TABLE
  2
BLOCK_RECORD
  5
1
330
0
100
AcDbSymbolTable
 70
     1
  0
BLOCK_RECORD
  5
1F
330
1
100
AcDbSymbolTableRecord
100
AcDbBlockTableRecord
  2
*Model_Space
340
22
  0
BLOCK_RECORD
  5
1B
330
1
100
AcDbSymbolTableRecord
100
AcDbBlockTableRecord
  2
*Paper_Space
340
1E
  0
BLOCK_RECORD
  5
23
330
1
100
AcDbSymbolTableRecord
100
AcDbBlockTableRecord
  2
*Paper_Space0
340
26
  0
ENDTAB
  0
ENDSEC
  0
SECTION
  2
BLOCKS
  0
BLOCK
  5
20
330
1F
100
AcDbEntity
  8
0
100
AcDbBlockBegin
  2
*Model_Space
 70
     0
 10
0.0
 20
0.0
 30
0.0
  3
*Model_Space
  1

  0
ENDBLK
  5
21
330
1F
100
AcDbEntity
  8
0
100
AcDbBlockEnd
  0
BLOCK
  5
1C
330
1B
100
AcDbEntity
 67
     1
  8
0
100
AcDbBlockBegin
  2
*Paper_Space
 70
     0
 10
0.0
 20
0.0
 30
0.0
  3
*Paper_Space
  1

  0
ENDBLK
  5
1D
330
1B
100
AcDbEntity
 67
     1
  8
0
100
AcDbBlockEnd
  0
BLOCK
  5
24
330
23
100
AcDbEntity
  8
0
100
AcDbBlockBegin
  2
*Paper_Space0
 70
     0
 10
0.0
 20
0.0
 30
0.0
  3
*Paper_Space0
  1

  0
ENDBLK
  5
25
330
23
100
AcDbEntity
  8
0
100
AcDbBlockEnd
  0
ENDSEC
  0
SECTION
  2
ENTITIES
  0
LINE
  5
65
330
1F
100
AcDbEntity
  8
0
  6
CENTERX2
 62
     7
370
    18
100
AcDbLine
 10
0.25
 20
0.25
 30
0.0
 11
0.25
 21
11.75
 31
0.0
  0
LINE
  5
66
330
1F
100
AcDbEntity
  8
0
  6
CENTERX2
 62
     7
370
    18
100
AcDbLine
 10
0.25
 20
0.25
 30
0.0
 11
23.75
 21
0.25
 31
0.0
  0
LINE
  5
67
330
1F
100
AcDbEntity
  8
0
  6
CENTERX2
 62
     7
370
    18
100
AcDbLine
 10
23.75
 20
0.25
 30
0.0
 11
23.75
 21
11.75
 31
0.0
  0
LINE
  5
68
330
1F
100
AcDbEntity
  8
0
  6
CENTERX2
 62
     7
370
    18
100
AcDbLine
 10
23.75
 20
11.75
 30
0.0
 11
0.25
 21
11.75
 31
0.0
  0
SPLINE
  5
69
330
1F
100
AcDbEntity
  8
0
  6
Continuous
 62
     7
370
    25
100
AcDbSpline
210
0.0
220
0.0
230
1.0
 70
     8
 71
     3
 72
    27
 73
    23
 74
     0
 42
0.00000001
 43
0.00000001
 40
0.0
 40
0.0
 40
0.0
 40
0.0
 40
0.0036382551718618
 40
0.0072932311171293
 40
0.011028136413859
 40
0.0149010810980465
 40
0.0189632717700928
 40
0.023258475402986
 40
0.0278206260323165
 40
0.0326790824435221
 40
0.0378531598360054
 40
0.0433618746912805
 40
0.0492146790039221
 40
0.0554223461563205
 40
0.06198878599669
 40
0.0689180360680075
 40
0.0762111572779437
 40
0.0838683921994994
 40
0.091887410882707
 40
0.100265912215115
 40
0.1089998674022309
 40
0.1108408882805538
 40
0.1108408882805538
 40
0.1108408882805538
 40
0.1108408882805538
 10
0.3151672937536896
 20
8.905687036647867
 30
0.0
 10
0.3207715194488165
 20
8.879231354011509
 30
0.0
 10
0.3320057268631948
 20
8.826198403128723
 30
0.0
 10
0.362527601825704
 20
8.749852926458113
 30
0.0
 10
0.4028913245747107
 20
8.676462808964544
 30
0.0
 10
0.453944036961712
 20
8.606222992019477
 30
0.0
 10
0.5153462872245999
 20
8.539152672313158
 30
0.0
 10
0.5869624616823085
 20
8.475182089149644
 30
0.0
 10
0.6687223266243632
 20
8.414345637804555
 30
0.0
 10
0.7605188730183567
 20
8.356671005464447
 30
0.0
 10
0.8622187526176383
 20
8.302096968364435
 30
0.0
 10
0.9737076548496212
 20
8.25065745652051
 30
0.0
 10
1.094883924256159
 20
8.202368545109469
 30
0.0
 10
1.225615536189978
 20
8.15729478417087
 30
0.0
 10
1.365742667634936
 20
8.115367527353728
 30
0.0
 10
1.515132092781823
 20
8.076688948485705
 30
0.0
 10
1.673613941018148
 20
8.041204987109406
 30
0.0
 10
1.841035782770619
 20
8.009006220059145
 30
0.0
 10
2.017215180183975
 20
7.980059934693437
 30
0.0
 10
2.201969107629315
 20
7.954382330793914
 30
0.0
 10
2.341704027657591
 20
7.938157974174724
 30
0.0
 10
2.419769816139367
 20
7.930073055012197
 30
0.0
 10
2.433363358697322
 20
7.928694138793253
 30
0.0
  0
SPLINE
  5
6A
330
1F
100
AcDbEntity
  8
0
  6
Continuous
 62
     7
370
    25
100
AcDbSpline
210
0.0
220
0.0
230
1.0
 70
     8
 71
     3
 72
    29
 73
    25
 74
     0
 42
0.00000001
 43
0.00000001
 40
0.8751889023799408
 40
0.8751889023799408
 40
0.8751889023799408
 40
0.8751889023799408
 40
0.8756888427883988
 40
0.8849977189913464
 40
0.8939534257020234
 40
0.9025528972589622
 40
0.9107893855744227
 40
0.9186607344498127
 40
0.9261662532257968
 40
0.9333026258827831
 40
0.9400712202263494
 40
0.9464747799611675
 40
0.9525175260177909
 40
0.9582048188585928
 40
0.9635466521340151
 40
0.9685565999026111
 40
0.9732499128166676
 40
0.9776510407515667
 40
0.9817870430140477
 40
0.9856942262062861
 40
0.989415109013638
 40
0.9930011573396207
 40
0.9965084159405447
 40
1.0
 40
1.0
 40
1.0
 40
1.0
 10
2.414655861468929
 20
10.64338204925007
 30
0.0
 10
2.41102258109006
 20
10.64205932824558
 30
0.0
 10
2.339752745738322
 20
10.61606625698665
 30
0.0
 10
2.203980244976073
 20
10.56478165417511
 30
0.0
 10
2.011343608273378
 20
10.48690162646348
 30
0.0
 10
1.828310959245184
 20
10.40755387917952
 30
0.0
 10
1.655019030539577
 20
10.32698030472575
 30
0.0
 10
1.491663948873232
 20
10.24527263396411
 30
0.0
 10
1.338362138314028
 20
10.16265978386432
 30
0.0
 10
1.195267501292128
 20
10.07926843185273
 30
0.0
 10
1.062517782684631
 20
9.995253469096586
 30
0.0
 10
0.9401687757927557
 20
9.910828004422143
 30
0.0
 10
0.8283891666363367
 20
9.826045028947656
 30
0.0
 10
0.7272173531437653
 20
9.741118785960692
 30
0.0
 10
0.636717359900074
 20
9.656178595988104
 30
0.0
 10
0.5570185478372071
 20
9.57128297057687
 30
0.0
 10
0.4881180483174509
 20
9.486581411327192
 30
0.0
 10
0.4301061581463871
 20
9.4021409991153
 30
0.0
 10
0.382992941833478
 20
9.318041634596282
 30
0.0
 10
0.3468849617661393
 20
9.234344408997998
 30
0.0
 10
0.3217464125369218
 20
9.151096391490643
 30
0.0
 10
0.3079857393008027
 20
9.0684204538217
 30
0.0
 10
0.3045606244404666
 20
8.986250316265856
 30
0.0
 10
0.3116370200587278
 20
8.932501337953624
 30
0.0
 10
0.3151672937536896
 20
8.905687036647867
 30
0.0
  0
LINE
  5
6B
330
1F
100
AcDbEntity
  8
0
  6
Continuous
 62
     7
370
    25
100
AcDbLine
 10
2.4146558615
 20
10.6433820493
 30
0.0
 11
2.4787981305
 21
10.4671945942
 31
0.0
  0
LINE
  5
6C
330
1F
100
AcDbEntity
  8
0
  6
Continuous
 62
     7
370
    25
100
AcDbLine
 10
2.4787981305
 20
10.4671945942
 30
0.0
 11
2.6549855856
 21
10.5313368632
 31
0.0
  0
LINE
  5
6D
330
1F
100
AcDbEntity
  8
0
  6
Continuous
 62
     7
370
    25
100
AcDbLine
 10
2.6549855856
 20
10.5313368632
 30
0.0
 11
2.5914260393
 21
10.7059236821
 31
0.0
  0
SPLINE
  5
6E
330
1F
100
AcDbEntity
  8
0
  6
Continuous
 62
     7
370
    25
100
AcDbSpline
210
0.0
220
0.0
230
1.0
 70
     8
 71
     3
 72
    19
 73
    15
 74
     0
 42
0.00000001
 43
0.00000001
 40
0.74950272550316
 40
0.74950272550316
 40
0.74950272550316
 40
0.74950272550316
 40
0.7521175864591397
 40
0.7647920417814054
 40
0.7772081519207622
 40
0.7893556849316484
 40
0.8012239599679336
 40
0.8128036855342794
 40
0.8240829093538227
 40
0.8350546022887522
 40
0.8457095711558706
 40
0.8560378532405389
 40
0.8660338344886196
 40
0.8671073167523596
 40
0.8671073167523596
 40
0.8671073167523596
 40
0.8671073167523596
 10
5.241991933347657
 20
11.33990841690518
 30
0.0
 10
5.222020324668208
 20
11.3367280225908
 30
0.0
 10
5.105270709719238
 20
11.31796803543179
 30
0.0
 10
4.893994539455612
 20
11.28222467103855
 30
0.0
 10
4.610745365485758
 20
11.23009562256598
 30
0.0
 10
4.334406876457839
 20
11.17502843354678
 30
0.0
 10
4.0652799316543
 20
11.11703747090097
 30
0.0
 10
3.803649416166151
 20
11.05629669020663
 30
0.0
 10
3.54978723224019
 20
10.99291191826963
 30
0.0
 10
3.303966275914502
 20
10.92699919199054
 30
0.0
 10
3.066435738621976
 20
10.85871667304162
 30
0.0
 10
2.837435815476638
 20
10.78821927407583
 30
0.0
 10
2.680266091127139
 20
10.73637607649605
 30
0.0
 10
2.599277052418993
 20
10.70862388539854
 30
0.0
 10
2.59142603926899
 20
10.70592368212325
 30
0.0
  0
LINE
  5
6F
330
1F
100
AcDbEntity
  8
0
  6
Continuous
 62
     7
370
    25
100
AcDbLine
 10
5.2419919333
 20
11.3399084169
 30
0.0
 11
5.2698888484
 21
11.1544953318
 31
0.0
  0
LINE
  5
70
330
1F
100
AcDbEntity
  8
0
  6
Continuous
 62
     7
370
    25
100
AcDbLine
 10
5.2698888484
 20
11.1544953318
 30
0.0
 11
5.4553019335
 21
11.1823922469
 31
0.0
  0
LINE
  5
71
330
1F
100
AcDbEntity
  8
0
  6
Continuous
 62
     7
370
    25
100
AcDbLine
 10
5.4553019335
 20
11.1823922469
 30
0.0
 11
5.4272857621
 21
11.3685979535
 31
0.0
  0
SPLINE
  5
72
330
1F
100
AcDbEntity
  8
0
  6
Continuous
 62
     7
370
    25
100
AcDbSpline
210
0.0
220
0.0
230
1.0
 70
     8
 71
     3
 72
    17
 73
    13
 74
     0
 42
0.00000001
 43
0.00000001
 40
0.62390972730778
 40
0.62390972730778
 40
0.62390972730778
 40
0.62390972730778
 40
0.628447474920468
 40
0.6428886749504474
 40
0.6571860540028671
 40
0.6713255457791549
 40
0.6852940138169578
 40
0.6990781474144603
 40
0.7126650949455656
 40
0.7260426447110092
 40
0.7391977130967738
 40
0.7414213938827517
 40
0.7414213938827517
 40
0.7414213938827517
 40
0.7414213938827517
 10
8.140167293372475
 20
11.62880940575383
 30
0.0
 10
8.105113009498163
 20
11.62712610386246
 30
0.0
 10
7.958511578208633
 20
11.61984246396452
 30
0.0
 10
7.701564492551146
 20
11.60525147803422
 30
0.0
 10
7.370697048503661
 20
11.58289847702817
 30
0.0
 10
7.043747833229317
 20
11.55708877805468
 30
0.0
 10
6.721076071168503
 20
11.52781551679579
 30
0.0
 10
6.403019925341217
 20
11.49520071514424
 30
0.0
 10
6.089933501082196
 20
11.45915566577086
 30
0.0
 10
5.782152332317124
 20
11.41978292712171
 30
0.0
 10
5.561927788147872
 20
11.38871552603405
 30
0.0
 10
5.444292219489394
 20
11.37115671410576
 30
0.0
 10
5.4272857620658
 20
11.36859795349876
 30
0.0
  0
LINE
  5
73
330
1F
100
AcDbEntity
  8
0
  6
Continuous
 62
     7
370
    25
100
AcDbLine
 10
8.1401672938
 20
10.6398422153
 30
0.0
 11
8.1401672934
 21
11.6288094058
 31
0.0
  0
LINE
  5
74
330
1F
100
AcDbEntity
  8
0
  6
Continuous
 62
     7
370
    25
100
AcDbLine
 10
8.3901672938
 20
10.6398422153
 30
0.0
 11
8.1401672938
 21
10.6398422153
 31
0.0
  0
LINE
  5
75
330
1F
100
AcDbEntity
  8
0
  6
Continuous
 62
     7
370
    25
100
AcDbLine
 10
8.3901672934
 20
11.6398422153
 30
0.0
 11
8.3901672938
 21
10.6398422153
 31
0.0
  0
SPLINE
  5
76
330
1F
100
AcDbEntity
  8
0
  6
Continuous
 62
     7
370
    25
100
AcDbSpline
210
0.0
220
0.0
230
1.0
 70
     8
 71
     3
 72
    15
 73
    11
 74
     0
 42
0.00000001
 43
0.00000001
 40
0.4956360687670191
 40
0.4956360687670191
 40
0.4956360687670191
 40
0.4956360687670191
 40
0.5094578326361675
 40
0.5245323463196893
 40
0.5395793198930883
 40
0.5545829838309861
 40
0.5695295459998657
 40
0.5844034168402927
 40
0.5991909919021363
 40
0.6131242024519163
 40
0.6131242024519163
 40
0.6131242024519163
 40
0.6131242024519163
 10
11.11549240583871
 20
11.64610593329674
 30
0.0
 10
11.00865333727352
 20
11.64961157684036
 30
0.0
 10
10.78526360210028
 20
11.65608460781718
 30
0.0
 10
10.44547932522501
 20
11.66312874350166
 30
0.0
 10
10.09650605582937
 20
11.66731506572369
 30
0.0
 10
9.74849847001306
 20
11.66832619315868
 30
0.0
 10
9.401834893144692
 20
11.66614403732959
 30
0.0
 10
9.056878338752247
 20
11.6606936724556
 30
0.0
 10
8.719826515558493
 20
11.65204971791497
 30
0.0
 10
8.497838523457322
 20
11.64418215783951
 30
0.0
 10
8.390167293374871
 20
11.63984221527307
 30
0.0
  0
LINE
  5
77
330
1F
100
AcDbEntity
  8
0
  6
Continuous
 62
     7
370
    25
100
AcDbLine
 10
11.1154924058
 20
11.6461059333
 30
0.0
 11
11.1093433949
 21
11.458706788
 31
0.0
  0
LINE
  5
78
330
1F
100
AcDbEntity
  8
0
  6
Continuous
 62
     7
370
    25
100
AcDbLine
 10
11.1093433949
 20
11.458706788
 30
0.0
 11
11.2967425402
 21
11.452557777
 31
0.0
  0
LINE
  5
79
330
1F
100
AcDbEntity
  8
0
  6
Continuous
 62
     7
370
    25
100
AcDbLine
 10
11.2967425402
 20
11.452557777
 30
0.0
 11
11.3037140286
 21
11.6395077028
 31
0.0
  0
SPLINE
  5
7A
330
1F
100
AcDbEntity
  8
0
  6
Continuous
 62
     7
370
    25
100
AcDbSpline
210
0.0
220
0.0
230
1.0
 70
     8
 71
     3
 72
    57
 73
    53
 74
     0
 42
0.00000001
 43
0.00000001
 40
0.0
 40
0.0
 40
0.0
 40
0.0
 40
0.0002540897518312
 40
0.0010153730404189
 40
0.0022833589873498
 40
0.0040565770162251
 40
0.0063309815935676
 40
0.0091052744745057
 40
0.0123744894508916
 40
0.0161340231657128
 40
0.0203796604534971
 40
0.0251059762158006
 40
0.0303062367832748
 40
0.0359722056047472
 40
0.0420995223901982
 40
0.048678063692099
 40
0.0557016641246682
 40
0.0631601838890209
 40
0.0710458240741888
 40
0.079349826512255
 40
0.0880629100454657
 40
0.0971757563559511
 40
0.1066781116462642
 40
0.1165615729559075
 40
0.1268142755473613
 40
0.1374283005010189
 40
0.1483936177789397
 40
0.1596997598396382
 40
0.1713381255242434
 40
0.1832976990279093
 40
0.1955696040927178
 40
0.2081435554480289
 40
0.2210115933777215
 40
0.2341618307558447
 40
0.2475874504524841
 40
0.2612768224436114
 40
0.2752227101303402
 40
0.2894141440710628
 40
0.3037711996782109
 40
0.3176892265558903
 40
0.331784111124987
 40
0.346039676653823
 40
0.3604438694916348
 40
0.3749827204038077
 40
0.3896404543545233
 40
0.4044033165867775
 40
0.4192566006634758
 40
0.4341867493871219
 40
0.4491772650868069
 40
0.4642147821671246
 40
0.4792840087649619
 40
0.4875187038712972
 40
0.4875187038712972
 40
0.4875187038712972
 40
0.4875187038712972
 10
22.13877673375369
 20
8.939710636647868
 30
0.0
 10
22.13710490623063
 20
8.940743418940329
 30
0.0
 10
22.1304240834784
 20
8.944870540513826
 30
0.0
 10
22.11537097298527
 20
8.954103913837724
 30
0.0
 10
22.09030441329189
 20
8.969482561145657
 30
0.0
 10
22.05521342012104
 20
8.990899667697848
 30
0.0
 10
22.01012523826273
 20
9.018298353018423
 30
0.0
 10
21.95501718980297
 20
9.051486768924434
 30
0.0
 10
21.88992367667841
 20
9.090357090887542
 30
0.0
 10
21.81486045268311
 20
9.134725476020632
 30
0.0
 10
21.72983520715433
 20
9.184384181007683
 30
0.0
 10
21.6348803158125
 20
9.239132027774104
 30
0.0
 10
21.53000404307467
 20
9.298659064560617
 30
0.0
 10
21.41524701793271
 20
9.3627220647047
 30
0.0
 10
21.2906486069298
 20
9.431016342415994
 30
0.0
 10
21.15623238375233
 20
9.5032334492211
 30
0.0
 10
21.01204647923324
 20
9.579006040356928
 30
0.0
 10
20.85814624297085
 20
9.658008215043234
 30
0.0
 10
20.69455973281724
 20
9.739803700430079
 30
0.0
 10
20.52136407680086
 20
9.824052088171786
 30
0.0
 10
20.33861697742102
 20
9.910333310244958
 30
0.0
 10
20.14638081019035
 20
9.998187044442126
 30
0.0
 10
19.94476601093944
 20
10.08725514927896
 30
0.0
 10
19.7338283222359
 20
10.17698389818959
 30
0.0
 10
19.51368795371893
 20
10.26698453036667
 30
0.0
 10
19.2844386244791
 20
10.35674483437438
 30
0.0
 10
19.04621607068777
 20
10.44585601536874
 30
0.0
 10
18.79911220127146
 20
10.5337407937279
 30
0.0
 10
18.54331173160519
 20
10.62001510490556
 30
0.0
 10
18.27893875139845
 20
10.7041184826824
 30
0.0
 10
18.00618232223552
 20
10.78559416962611
 30
0.0
 10
17.72520091987905
 20
10.86391391582015
 30
0.0
 10
17.43622877330499
 20
10.9386760523773
 30
0.0
 10
17.13944914943971
 20
11.00933613096916
 30
0.0
 10
16.83511359000819
 20
11.07542118202775
 30
0.0
 10
16.52346400749019
 20
11.13653333187539
 30
0.0
 10
16.20476177288815
 20
11.19206245846132
 30
0.0
 10
15.87989004018957
 20
11.24196526949802
 30
0.0
 10
15.55407592112728
 20
11.28347595919876
 30
0.0
 10
15.22893213947578
 20
11.32418843192502
 30
0.0
 10
14.90427257591392
 20
11.36243407745877
 30
0.0
 10
14.5756449928903
 20
11.39905957175842
 30
0.0
 10
14.24336554939486
 20
11.43385870792202
 30
0.0
 10
13.90776383992148
 20
11.46672266855089
 30
0.0
 10
13.56917961222515
 20
11.49750961685764
 30
0.0
 10
13.22796471764054
 20
11.5261292679527
 30
0.0
 10
12.88444933086023
 20
11.55241945020317
 30
0.0
 10
12.53899567027034
 20
11.57633966198907
 30
0.0
 10
12.19194526286752
 20
11.59767961302515
 30
0.0
 10
11.8436677587404
 20
11.61642328258404
 30
0.0
 10
11.54744689887694
 20
11.63001187002375
 30
0.0
 10
11.36735634586327
 20
11.637134438009
 30
0.0
 10
11.30371402859343
 20
11.63950770280168
 30
0.0
  0
LINE
  5
7B
330
1F
100
AcDbEntity
  8
0
  6
Continuous
 62
     7
370
    25
100
AcDbLine
 10
22.321380253
 20
8.8269061286
 30
0.0
 11
22.1387767338
 21
8.9397106366
 31
0.0
  0
LINE
  5
7C
330
1F
100
AcDbEntity
  8
0
  6
Continuous
 62
     7
370
    25
100
AcDbLine
 10
22.1115578538
 20
8.8716634366
 30
0.0
 11
22.321380253
 21
8.8269061286
 31
0.0
  0
SPLINE
  5
7D
330
1F
100
AcDbEntity
  8
0
  6
Continuous
 62
     7
370
    25
100
AcDbSpline
210
0.0
220
0.0
230
1.0
 70
     8
 71
     3
 72
    55
 73
    51
 74
     0
 42
0.00000001
 43
0.00000001
 40
0.5461439631916802
 40
0.5461439631916802
 40
0.5461439631916802
 40
0.5461439631916802
 40
0.5562472332602322
 40
0.571381784352882
 40
0.5864660404483751
 40
0.6014845156991583
 40
0.6164243285843019
 40
0.6312694223607523
 40
0.6460065237480678
 40
0.6606206841728729
 40
0.6750981874935538
 40
0.6894228579403255
 40
0.7035818246207629
 40
0.7169075633393495
 40
0.7300092743405843
 40
0.7429521279156549
 40
0.755725557694238
 40
0.7683199516741555
 40
0.7807243374027457
 40
0.7929265285864308
 40
0.8049160410865589
 40
0.8166790838088313
 40
0.8282035242084964
 40
0.8394749002660455
 40
0.8504813585168555
 40
0.8612076967744442
 40
0.8716393257296176
 40
0.8817634137109616
 40
0.8915636048210556
 40
0.9010273643172574
 40
0.9101389770085111
 40
0.9188839764012169
 40
0.9272492779043127
 40
0.9352211037112476
 40
0.9427847385100345
 40
0.9499281877133432
 40
0.9566384642920557
 40
0.9629042034427838
 40
0.9687122876061149
 40
0.9740544849024281
 40
0.9789184321677268
 40
0.9832972184116099
 40
0.9871802458290098
 40
0.9905606741393513
 40
0.9934333573190599
 40
0.9957906255195277
 40
0.9976295874610529
 40
0.9989458159268665
 40
0.9997365922159134
 40
1.0
 40
1.0
 40
1.0
 40
1.0
 10
12.07766729375341
 20
8.67601249280733
 30
0.0
 10
12.15196122375271
 20
8.686140700950244
 30
0.0
 10
12.33754456507318
 20
8.711454095080885
 30
0.0
 10
12.63404641296238
 20
8.75191005807503
 30
0.0
 10
12.96668357422263
 20
8.797355058605364
 30
0.0
 10
13.29790567077472
 20
8.842480746407313
 30
0.0
 10
13.62737917182606
 20
8.887292639724489
 30
0.0
 10
13.95480026998643
 20
8.93169988232766
 30
0.0
 10
14.27985520368338
 20
8.975569923761103
 30
0.0
 10
14.60223729910923
 20
9.018847395906857
 30
0.0
 10
14.92161399842353
 20
9.061504916943925
 30
0.0
 10
15.23766398319527
 20
9.10355850762287
 30
0.0
 10
15.5453377404121
 20
9.143731734702905
 30
0.0
 10
15.84383131757767
 20
9.184163837012765
 30
0.0
 10
16.1341505792387
 20
9.217309199523152
 30
0.0
 10
16.42085499806405
 20
9.245599959363703
 30
0.0
 10
16.70424238727169
 20
9.268794478730284
 30
0.0
 10
16.98397246291569
 20
9.287226455877358
 30
0.0
 10
17.25972471470073
 20
9.301027596645067
 30
0.0
 10
17.53117050273529
 20
9.310390580973738
 30
0.0
 10
17.79796695210895
 20
9.31559317466622
 30
0.0
 10
18.05978082764911
 20
9.316767406385084
 30
0.0
 10
18.31625476436253
 20
9.314287747418852
 30
0.0
 10
18.5670551916379
 20
9.30835407815862
 30
0.0
 10
18.81183207536802
 20
9.299232732478606
 30
0.0
 10
19.05024393026076
 20
9.287231449078144
 30
0.0
 10
19.28195211471639
 20
9.2726773915033
 30
0.0
 10
19.50660876555619
 20
9.255785242837513
 30
0.0
 10
19.72390083108241
 20
9.236949360193767
 30
0.0
 10
19.93349306338981
 20
9.216445477920338
 30
0.0
 10
20.13506362919849
 20
9.194507858089846
 30
0.0
 10
20.32831840961001
 20
9.171596179319236
 30
0.0
 10
20.51294807754753
 20
9.14786129313368
 30
0.0
 10
20.68867492166999
 20
9.123693248314675
 30
0.0
 10
20.85521606985405
 20
9.099336963620452
 30
0.0
 10
21.01230776636951
 20
9.075103395469382
 30
0.0
 10
21.15970319674089
 20
9.051223729181839
 30
0.0
 10
21.29716427125075
 20
9.028014912070775
 30
0.0
 10
21.4244756615542
 20
9.005693785302753
 30
0.0
 10
21.54141644721703
 20
8.984478333384626
 30
0.0
 10
21.64782439830829
 20
8.964636235111008
 30
0.0
 10
21.74348935829143
 20
8.946266057203312
 30
0.0
 10
21.82828338215035
 20
8.92967054303075
 30
0.0
 10
21.90204880446274
 20
8.914922921162665
 30
0.0
 10
21.96467749025054
 20
8.902230968321613
 30
0.0
 10
22.01606006628776
 20
8.89164477456761
 30
0.0
 10
22.05611849202438
 20
8.883338120525089
 30
0.0
 10
22.08477364485034
 20
8.877297732402113
 30
0.0
 10
22.10199453075874
 20
8.873703393270823
 30
0.0
 10
22.109645991818
 20
8.872071256756
 30
0.0
 10
22.11155785375369
 20
8.871663436647868
 30
0.0
  0
LINE
  5
7E
330
1F
100
AcDbEntity
  8
0
  6
Continuous
 62
     7
370
    25
100
AcDbLine
 10
12.0776672938
 20
9.4260124928
 30
0.0
 11
12.0776672938
 21
8.6760124928
 31
0.0
  0
LINE
  5
7F
330
1F
100
AcDbEntity
  8
0
  6
Continuous
 62
     7
370
    25
100
AcDbLine
 10
11.9526672938
 20
9.4260124928
 30
0.0
 11
12.0776672938
 21
9.4260124928
 31
0.0
  0
LINE
  5
80
330
1F
100
AcDbEntity
  8
0
  6
Continuous
 62
     7
370
    25
100
AcDbLine
 10
11.9526672938
 20
8.6589775474
 30
0.0
 11
11.9526672938
 21
9.4260124928
 31
0.0
  0
SPLINE
  5
81
330
1F
100
AcDbEntity
  8
0
  6
Continuous
 62
     7
370
    25
100
AcDbSpline
210
0.0
220
0.0
230
1.0
 70
     8
 71
     3
 72
    18
 73
    14
 74
     0
 42
0.00000001
 43
0.00000001
 40
0.3893244408180161
 40
0.3893244408180161
 40
0.3893244408180161
 40
0.3893244408180161
 40
0.390597192121319
 40
0.4053325934372969
 40
0.420174823355266
 40
0.4351095326124219
 40
0.4501242755491032
 40
0.4652030675528332
 40
0.480333153810538
 40
0.4955005832026954
 40
0.5106897747322421
 40
0.5258873344064182
 40
0.5404777269663006
 40
0.5404777269663006
 40
0.5404777269663006
 40
0.5404777269663006
 10
8.615571875641818
 20
8.22418311384764
 30
0.0
 10
8.624950858756804
 20
8.225303721338722
 30
0.0
 10
8.742914024386804
 20
8.239414175521288
 30
0.0
 10
8.970203358620564
 20
8.266985785478393
 30
0.0
 10
9.29803038078392
 20
8.307715117281054
 30
0.0
 10
9.627811666719133
 20
8.349519764841736
 30
0.0
 10
9.959250609653962
 20
8.392202890651744
 30
0.0
 10
10.29203692635674
 20
8.43576936332809
 30
0.0
 10
10.62589071990191
 20
8.479908789516161
 30
0.0
 10
10.96049003252545
 20
8.524657521625695
 30
0.0
 10
11.29554361869484
 20
8.569785417291532
 30
0.0
 10
11.62632435450753
 20
8.61455439793162
 30
0.0
 10
11.84537609116135
 20
8.644361582904446
 30
0.0
 10
11.95266729375343
 20
8.658977547356907
 30
0.0
  0
LINE
  5
82
330
1F
100
AcDbEntity
  8
0
  6
Continuous
 62
     7
370
    25
100
AcDbLine
 10
8.5936799279
 20
8.4104007087
 30
0.0
 11
8.6155718756
 21
8.2241831138
 31
0.0
  0
LINE
  5
83
330
1F
100
AcDbEntity
  8
0
  6
Continuous
 62
     7
370
    25
100
AcDbLine
 10
8.4074623331
 20
8.3885087609
 30
0.0
 11
8.5936799279
 21
8.4104007087
 31
0.0
  0
LINE
  5
84
330
1F
100
AcDbEntity
  8
0
  6
Continuous
 62
     7
370
    25
100
AcDbLine
 10
8.4293753982
 20
8.2021115371
 30
0.0
 11
8.4074623331
 21
8.3885087609
 31
0.0
  0
SPLINE
  5
85
330
1F
100
AcDbEntity
  8
0
  6
Continuous
 62
     7
370
    25
100
AcDbSpline
210
0.0
220
0.0
230
1.0
 70
     8
 71
     3
 72
    19
 73
    15
 74
     0
 42
0.00000001
 43
0.00000001
 40
0.2297244997164832
 40
0.2297244997164832
 40
0.2297244997164832
 40
0.2297244997164832
 40
0.239236416912666
 40
0.2519590037406926
 40
0.2649238944848901
 40
0.2781197025559347
 40
0.2915360351420174
 40
0.305160279569768
 40
0.3189806851177335
 40
0.3329854989238258
 40
0.3471627904008333
 40
0.3614986025989408
 40
0.3759807467343043
 40
0.3809029283599075
 40
0.3809029283599075
 40
0.3809029283599075
 40
0.3809029283599075
 10
5.077667294137499
 20
7.899944672318131
 30
0.0
 10
5.148168740844564
 20
7.903531672125096
 30
0.0
 10
5.312940201322006
 20
7.912478252805447
 30
0.0
 10
5.573676526135841
 20
7.928599911636571
 30
0.0
 10
5.861549336498712
 20
7.948703228303214
 30
0.0
 10
6.154403115571376
 20
7.971272535396881
 30
0.0
 10
6.451971832907386
 20
7.996251537751401
 30
0.0
 10
6.753995968986692
 20
8.023494638853212
 30
0.0
 10
7.060208139916441
 20
8.052865454514382
 30
0.0
 10
7.370343783653372
 20
8.084271030962388
 30
0.0
 10
7.684129150231389
 20
8.117563634750724
 30
0.0
 10
8.001284756517963
 20
8.152635381364467
 30
0.0
 10
8.25006182454021
 20
8.181116055932534
 30
0.0
 10
8.393095402089788
 20
8.1978464203981
 30
0.0
 10
8.42937539819482
 20
8.202111537129229
 30
0.0
  0
LINE
  5
86
330
1F
100
AcDbEntity
  8
0
  6
Continuous
 62
     7
370
    25
100
AcDbLine
 10
5.0776672938
 20
8.6499446723
 30
0.0
 11
5.0776672941
 21
7.8999446723
 31
0.0
  0
LINE
  5
87
330
1F
100
AcDbEntity
  8
0
  6
Continuous
 62
     7
370
    25
100
AcDbLine
 10
4.9526672938
 20
8.6499446723
 30
0.0
 11
5.0776672938
 21
8.6499446723
 31
0.0
  0
LINE
  5
88
330
1F
100
AcDbEntity
  8
0
  6
Continuous
 62
     7
370
    25
100
AcDbLine
 10
4.9526672941
 20
7.8938403726
 30
0.0
 11
4.9526672938
 21
8.6499446723
 31
0.0
  0
SPLINE
  5
89
330
1F
100
AcDbEntity
  8
0
  6
Continuous
 62
     7
370
    25
100
AcDbSpline
210
0.0
220
0.0
230
1.0
 70
     8
 71
     3
 72
    17
 73
    13
 74
     0
 42
0.00000001
 43
0.00000001
 40
0.1192627376655846
 40
0.1192627376655846
 40
0.1192627376655846
 40
0.1192627376655846
 40
0.127514842657726
 40
0.1372852704325623
 40
0.1473879174712405
 40
0.1578164805284356
 40
0.1685634728403947
 40
0.1796191282126914
 40
0.1909773731687989
 40
0.2026269737974169
 40
0.2145604781304418
 40
0.224103483722588
 40
0.224103483722588
 40
0.224103483722588
 40
0.224103483722588
 10
2.620081196341811
 20
7.911497903280867
 30
0.0
 10
2.681114255180556
 20
7.906423564075886
 30
0.0
 10
2.814502377332244
 20
7.896457911381869
 30
0.0
 10
3.022890784610873
 20
7.884346523768227
 30
0.0
 10
3.24758578590649
 20
7.874935771469603
 30
0.0
 10
3.479642427568744
 20
7.86876879417954
 30
0.0
 10
3.718833436601803
 20
7.865749448962548
 30
0.0
 10
3.96494265129012
 20
7.865832407392902
 30
0.0
 10
4.217729318178416
 20
7.869039858066702
 30
0.0
 10
4.476977497736748
 20
7.875194610208723
 30
0.0
 10
4.722680711843433
 20
7.883655300790201
 30
0.0
 10
4.881921200315698
 20
7.890532164915252
 30
0.0
 10
4.952667294133672
 20
7.893840372635001
 30
0.0
  0
LINE
  5
8A
330
1F
100
AcDbEntity
  8
0
  6
Continuous
 62
     7
370
    25
100
AcDbLine
 10
2.6390039135
 20
8.0980406082
 30
0.0
 11
2.6200811963
 21
7.9114979033
 31
0.0
  0
LINE
  5
8B
330
1F
100
AcDbEntity
  8
0
  6
Continuous
 62
     7
370
    25
100
AcDbLine
 10
2.4524612086
 20
8.1169633254
 30
0.0
 11
2.6390039135
 21
8.0980406082
 31
0.0
  0
LINE
  5
8C
330
1F
100
AcDbEntity
  8
0
  6
Continuous
 62
     7
370
    25
100
AcDbLine
 10
2.4333633587
 20
7.9286941388
 30
0.0
 11
2.4524612086
 21
8.1169633254
 31
0.0
  0
ARC
  5
8D
330
1F
100
AcDbEntity
  8
0
  6
Continuous
 62
     7
370
    25
100
AcDbCircle
 10
11.3526672938
 20
9.2334485741
 30
0.0
 40
0.2000000000000008
100
AcDbArc
 50
277.707926009
 51
360.0
  0
LINE
  5
8E
330
1F
100
AcDbEntity
  8
0
  6
Continuous
 62
     7
370
    25
100
AcDbLine
 10
11.5526672938
 20
9.2334485741
 30
0.0
 11
11.5526672938
 21
10.3733165334
 31
0.0
  0
ARC
  5
8F
330
1F
100
AcDbEntity
  8
0
  6
Continuous
 62
     7
370
    25
100
AcDbCircle
 10
11.3526672938
 20
10.3733165334
 30
0.0
 40
0.200000000000003
100
AcDbArc
 50
0.0
 51
61.1174148316
  0
LINE
  5
90
330
1F
100
AcDbEntity
  8
0
  6
Continuous
 62
     7
370
    25
100
AcDbLine
 10
10.5367705471
 20
11.0518040627
 30
0.0
 11
11.4492705471
 21
10.5484388091
 31
0.0
  0
ARC
  5
91
330
1F
100
AcDbEntity
  8
0
  6
Continuous
 62
     7
370
    25
100
AcDbCircle
 10
10.4401672938
 20
10.876681787
 30
0.0
 40
0.2000000000000014
100
AcDbArc
 50
61.1174148316
 51
180.0
  0
LINE
  5
92
330
1F
100
AcDbEntity
  8
0
  6
Continuous
 62
     7
370
    25
100
AcDbLine
 10
10.2401672938
 20
10.088424942
 30
0.0
 11
10.2401672938
 21
10.876681787
 31
0.0
  0
ARC
  5
93
330
1F
100
AcDbEntity
  8
0
  6
Continuous
 62
     7
370
    25
100
AcDbCircle
 10
10.4401672938
 20
10.088424942
 30
0.0
 40
0.1999999999999997
100
AcDbArc
 50
180.0
 51
245.5037209488
  0
ARC
  5
94
330
1F
100
AcDbEntity
  8
0
  6
Continuous
 62
     7
370
    25
100
AcDbCircle
 10
10.0151672938
 20
9.1556870366
 30
0.0
 40
0.8249999999999992
100
AcDbArc
 50
1.9843341954
 51
65.5037209488
  0
ARC
  5
95
330
1F
100
AcDbEntity
  8
0
  6
Continuous
 62
     7
370
    25
100
AcDbCircle
 10
11.0395526339
 20
9.1911789348
 30
0.0
 40
0.2000000000000001
100
AcDbArc
 50
181.9843341954
 51
277.6669245096
  0
SPLINE
  5
96
330
1F
100
AcDbEntity
  8
0
  6
Continuous
 62
     7
370
    25
100
AcDbSpline
210
0.0
220
0.0
230
1.0
 70
     8
 71
     3
 72
     9
 73
     5
 74
     0
 42
0.00000001
 43
0.00000001
 40
0.5030188840320087
 40
0.5030188840320087
 40
0.5030188840320087
 40
0.5030188840320087
 40
0.5094777324209665
 40
0.5172316276034904
 40
0.5172316276034904
 40
0.5172316276034904
 40
0.5172316276034904
 10
11.06623545234885
 20
8.992966858466085
 30
0.0
 10
11.11368874641346
 20
8.999354903293735
 30
0.0
 10
11.21811106334179
 20
9.013431659990323
 30
0.0
 10
11.32252679243076
 20
9.027545627333048
 30
0.0
 10
11.3794919481037
 20
9.035255643037496
 30
0.0
  0
CIRCLE
  5
97
330
1F
100
AcDbEntity
  8
0
  6
Continuous
 62
     7
370
    25
100
AcDbCircle
 10
3.0151672938
 20
9.1556870366
 30
0.0
 40
0.3750000000000004
  0
ARC
  5
98
330
1F
100
AcDbEntity
  8
0
  6
Continuous
 62
     7
370
    25
100
AcDbCircle
 10
4.4244564055
 20
10.5290746441
 30
0.0
 40
0.2
100
AcDbArc
 50
101.855484399
 51
241.1174148316
  0
LINE
  5
99
330
1F
100
AcDbEntity
  8
0
  6
Continuous
 62
     7
370
    25
100
AcDbLine
 10
4.3278531522
 20
10.3539523684
 30
0.0
 11
6.6032236552
 21
9.0987825599
 31
0.0
  0
ARC
  5
9A
330
1F
100
AcDbEntity
  8
0
  6
Continuous
 62
     7
370
    25
100
AcDbCircle
 10
6.6998269086
 20
9.2739048356
 30
0.0
 40
0.2000000000000004
100
AcDbArc
 50
241.1174148316
 51
312.4268885054
  0
LINE
  5
9B
330
1F
100
AcDbEntity
  8
0
  6
Continuous
 62
     7
370
    25
100
AcDbLine
 10
6.8347566816
 20
9.1262770728
 30
0.0
 11
7.5750970668
 21
9.8029381442
 31
0.0
  0
ARC
  5
9C
330
1F
100
AcDbEntity
  8
0
  6
Continuous
 62
     7
370
    25
100
AcDbCircle
 10
7.4401672938
 20
9.950565907
 30
0.0
 40
0.2000000000000017
100
AcDbArc
 50
312.4268885054
 51
0.0
  0
LINE
  5
9D
330
1F
100
AcDbEntity
  8
0
  6
Continuous
 62
     7
370
    25
100
AcDbLine
 10
7.6401672938
 20
10.9356073617
 30
0.0
 11
7.6401672938
 21
9.950565907
 31
0.0
  0
ARC
  5
9E
330
1F
100
AcDbEntity
  8
0
  6
Continuous
 62
     7
370
    25
100
AcDbCircle
 10
7.4401672938
 20
10.9356073617
 30
0.0
 40
0.2000000000000002
100
AcDbArc
 50
0.0
 51
94.1465265648
  0
CIRCLE
  5
9F
330
1F
100
AcDbEntity
  8
0
  6
Continuous
 62
     7
370
    25
100
AcDbCircle
 10
10.0151672938
 20
9.1556870366
 30
0.0
 40
0.375
  0
ARC
  5
A0
330
1F
100
AcDbEntity
  8
0
  6
Continuous
 62
     7
370
    25
100
AcDbCircle
 10
2.1416290943
 20
8.6194445411
 30
0.0
 40
0.2000000000000003
100
AcDbArc
 50
261.6125656441
 51
31.5446870278
  0
ARC
  5
A1
330
1F
100
AcDbEntity
  8
0
  6
Continuous
 62
     7
370
    25
100
AcDbCircle
 10
3.0151672938
 20
9.1556870366
 30
0.0
 40
0.8250000000000008
100
AcDbArc
 50
114.4962790512
 51
211.5446870278
  0
ARC
  5
A2
330
1F
100
AcDbEntity
  8
0
  6
Continuous
 62
     7
370
    25
100
AcDbCircle
 10
2.5901672938
 20
10.088424942
 30
0.0
 40
0.2000000000000023
100
AcDbArc
 50
294.4962790512
 51
349.0852697611
  0
ARC
  5
A3
330
1F
100
AcDbEntity
  8
0
  6
Continuous
 62
     7
370
    25
100
AcDbCircle
 10
2.5901672938
 20
10.0126857861
 30
0.0
 40
0.2000000000000013
100
AcDbArc
 50
10.9147302389
 51
111.3381887662
  0
SPLINE
  5
A4
330
1F
100
AcDbEntity
  8
0
  6
Continuous
 62
     7
370
    25
100
AcDbSpline
210
0.0
220
0.0
230
1.0
 70
     8
 71
     3
 72
     8
 73
     4
 74
     0
 42
0.00000001
 43
0.00000001
 40
0.0587970678286696
 40
0.0587970678286696
 40
0.0587970678286696
 40
0.0587970678286696
 40
1.0
 40
1.0
 40
1.0
 40
1.0
 10
2.517392865692742
 20
10.19897556740632
 30
0.0
 10
1.095187259710672
 20
9.64338846631687
 30
0.0
 10
0.2501835768361502
 20
8.696162809562646
 30
0.0
 10
2.112455881085594
 20
8.421583671716116
 30
0.0
  0
ARC
  5
A5
330
1F
100
AcDbEntity
  8
0
  6
Continuous
 62
     7
370
    25
100
AcDbCircle
 10
12.0604081196
 20
10.9536535196
 30
0.0
 40
0.2000000000000018
100
AcDbArc
 50
86.8207190269
 51
241.1174148316
  0
LINE
  5
A6
330
1F
100
AcDbEntity
  8
0
  6
Continuous
 62
     7
370
    25
100
AcDbLine
 10
11.9638048662
 20
10.7785312439
 30
0.0
 11
13.4444758766
 21
9.9617440235
 31
0.0
  0
ARC
  5
A7
330
1F
100
AcDbEntity
  8
0
  6
Continuous
 62
     7
370
    25
100
AcDbCircle
 10
13.54107913
 20
10.1368662992
 30
0.0
 40
0.2000000000000009
100
AcDbArc
 50
241.1174148316
 51
312.4268885054
  0
LINE
  5
A8
330
1F
100
AcDbEntity
  8
0
  6
Continuous
 62
     7
370
    25
100
AcDbLine
 10
13.676008903
 20
9.9892385364
 30
0.0
 11
14.1395938537
 21
10.4129488942
 31
0.0
  0
ARC
  5
A9
330
1F
100
AcDbEntity
  8
0
  6
Continuous
 62
     7
370
    25
100
AcDbCircle
 10
14.0046640807
 20
10.560576657
 30
0.0
 40
0.2000000000000005
100
AcDbArc
 50
312.4268885054
 51
0.0000000003
  0
LINE
  5
AA
330
1F
100
AcDbEntity
  8
0
  6
Continuous
 62
     7
370
    25
100
AcDbLine
 10
14.2046640807
 20
10.560576657
 30
0.0
 11
14.2046640807
 21
10.8040272885
 31
0.0
  0
ARC
  5
AB
330
1F
100
AcDbEntity
  8
0
  6
Continuous
 62
     7
370
    25
100
AcDbCircle
 10
14.0046640807
 20
10.8040272885
 30
0.0
 40
0.1999999999999995
100
AcDbArc
 50
0.0000000003
 51
84.4179189976
  0
SPLINE
  5
AC
330
1F
100
AcDbEntity
  8
0
  6
Continuous
 62
     7
370
    25
100
AcDbSpline
210
0.0
220
0.0
230
1.0
 70
     8
 71
     3
 72
    11
 73
     7
 74
     0
 42
0.00000001
 43
0.00000001
 40
0.3680878122726418
 40
0.3680878122726418
 40
0.3680878122726418
 40
0.3680878122726418
 40
0.3746798760817555
 40
0.4059031990885684
 40
0.4371265220953814
 40
0.4533143262211753
 40
0.4533143262211753
 40
0.4533143262211753
 40
0.4533143262211753
 10
14.02411840909886
 20
11.00307886244444
 30
0.0
 10
13.97384393606386
 20
11.00799244383404
 30
0.0
 10
13.68541704894024
 20
11.03573156055121
 30
0.0
 10
13.15837910255987
 20
11.08165834301831
 30
0.0
 10
12.55763518055086
 20
11.12481442980446
 30
0.0
 10
12.19524683534299
 20
11.14647207372012
 30
0.0
 10
12.07150020956601
 20
11.1533456965638
 30
0.0
  0
ARC
  5
AD
330
1F
100
AcDbEntity
  8
0
  6
Continuous
 62
     7
370
    25
100
AcDbCircle
 10
18.4632865244
 20
9.9608333429
 30
0.0
 40
0.1999999999999999
100
AcDbArc
 50
268.6299458018
 51
71.377062554
  0
SPLINE
  5
AE
330
1F
100
AcDbEntity
  8
0
  6
Continuous
 62
     7
370
    25
100
AcDbSpline
210
0.0
220
0.0
230
1.0
 70
     8
 71
     3
 72
    14
 73
    10
 74
     0
 42
0.00000001
 43
0.00000001
 40
0.1656411662480756
 40
0.1656411662480756
 40
0.1656411662480756
 40
0.1656411662480756
 40
0.1873399380408777
 40
0.2185632610476907
 40
0.2497865840545037
 40
0.2653982455579101
 40
0.2810099070613166
 40
0.2840212018328168
 40
0.2859726595207425
 40
0.2859726595207425
 40
0.2859726595207425
 40
0.2859726595207425
 10
18.52715426589877
 20
10.15036147170415
 30
0.0
 10
18.37260331372973
 20
10.20244250225758
 30
0.0
 10
17.99373009917077
 20
10.32350368653492
 30
0.0
 10
17.38444721169685
 20
10.49235421113566
 30
0.0
 10
16.81251291078528
 20
10.6226273346721
 30
0.0
 10
16.35239444632364
 20
10.71051174045989
 30
0.0
 10
16.09810311774398
 20
10.75298087282795
 30
0.0
 10
15.94582685704984
 20
10.77622570907102
 30
0.0
 10
15.90911251241404
 20
10.78167573779555
 30
0.0
 10
15.89467499844175
 20
10.78379406160036
 30
0.0
  0
ARC
  5
AF
330
1F
100
AcDbEntity
  8
0
  6
Continuous
 62
     7
370
    25
100
AcDbCircle
 10
15.8656411352
 20
10.5859126962
 30
0.0
 40
0.1999999999999999
100
AcDbArc
 50
81.6529159505
 51
212.0881706695
  0
ARC
  5
B0
330
1F
100
AcDbEntity
  8
0
  6
Continuous
 62
     7
370
    25
100
AcDbCircle
 10
15.2725790038
 20
10.2140561266
 30
0.0
 40
0.4999999999999987
100
AcDbArc
 50
327.7385999223
 51
32.0881706695
  0
ARC
  5
B1
330
1F
100
AcDbEntity
  8
0
  6
Continuous
 62
     7
370
    25
100
AcDbCircle
 10
15.8645141463
 20
9.8404081814
 30
0.0
 40
0.2
100
AcDbArc
 50
147.7385999223
 51
276.7339681569
  0
SPLINE
  5
B2
330
1F
100
AcDbEntity
  8
0
  6
Continuous
 62
     7
370
    25
100
AcDbSpline
210
0.0
220
0.0
230
1.0
 70
     8
 71
     3
 72
    14
 73
    10
 74
     0
 42
0.00000001
 43
0.00000001
 40
0.7212113086263788
 40
0.7212113086263788
 40
0.7212113086263788
 40
0.7212113086263788
 40
0.7231626970634194
 40
0.7268056188143341
 40
0.7346111725624961
 40
0.7502222800588199
 40
0.7814444950514674
 40
0.812666710044115
 40
0.8340247800743906
 40
0.8340247800743906
 40
0.8340247800743906
 40
0.8340247800743906
 10
15.88796605113034
 20
9.64178792022588
 30
0.0
 10
15.90277036564545
 20
9.643535926055108
 30
0.0
 10
15.94519852647054
 20
9.648482249184896
 30
0.0
 10
16.04669473723307
 20
9.659915904452921
 30
0.0
 10
16.25103107551682
 20
9.681487915789836
 30
0.0
 10
16.66564789965521
 20
9.719205057756243
 30
0.0
 10
17.25846988373092
 20
9.75531471941616
 30
0.0
 10
17.89621281571196
 20
9.769140133999656
 30
0.0
 10
18.29614133572668
 20
9.764773681592532
 30
0.0
 10
18.4585045887744
 20
9.76089051838236
 30
0.0
  0
CIRCLE
  5
B3
330
1F
100
AcDbEntity
  8
0
  6
Continuous
 62
     7
370
    25
100
AcDbCircle
 10
15.2725790038
 20
10.2140561266
 30
0.0
 40
0.2500000000000018
  0
ARC
  5
B4
330
1F
100
AcDbEntity
  8
0
  6
Continuous
 62
     7
370
    25
100
AcDbCircle
 10
4.3526672938
 20
8.5225483164
 30
0.0
 40
0.2000000000000016
100
AcDbArc
 50
271.4139209614
 51
0.0
  0
LINE
  5
B5
330
1F
100
AcDbEntity
  8
0
  6
Continuous
 62
     7
370
    25
100
AcDbLine
 10
4.5526672938
 20
8.5225483164
 30
0.0
 11
4.5526672938
 21
9.5979256077
 31
0.0
  0
ARC
  5
B6
330
1F
100
AcDbEntity
  8
0
  6
Continuous
 62
     7
370
    25
100
AcDbCircle
 10
4.3526672938
 20
9.5979256077
 30
0.0
 40
0.2000000000000002
100
AcDbArc
 50
0.0
 51
61.1174148316
  0
LINE
  5
B7
330
1F
100
AcDbEntity
  8
0
  6
Continuous
 62
     7
370
    25
100
AcDbLine
 10
3.5367705471
 20
10.276413137
 30
0.0
 11
4.4492705471
 21
9.7730478834
 31
0.0
  0
ARC
  5
B8
330
1F
100
AcDbEntity
  8
0
  6
Continuous
 62
     7
370
    25
100
AcDbCircle
 10
3.4401672938
 20
10.1012908613
 30
0.0
 40
0.2000000000000011
100
AcDbArc
 50
61.1174148316
 51
180.0
  0
LINE
  5
B9
330
1F
100
AcDbEntity
  8
0
  6
Continuous
 62
     7
370
    25
100
AcDbLine
 10
3.2401672938
 20
10.088424942
 30
0.0
 11
3.2401672938
 21
10.1012908613
 31
0.0
  0
ARC
  5
BA
330
1F
100
AcDbEntity
  8
0
  6
Continuous
 62
     7
370
    25
100
AcDbCircle
 10
3.4401672938
 20
10.088424942
 30
0.0
 40
0.2000000000000023
100
AcDbArc
 50
180.0
 51
245.5037209488
  0
ARC
  5
BB
330
1F
100
AcDbEntity
  8
0
  6
Continuous
 62
     7
370
    25
100
AcDbCircle
 10
3.0151672938
 20
9.1556870366
 30
0.0
 40
0.8250000000000005
100
AcDbArc
 50
321.3799590497
 51
65.5037209488
  0
ARC
  5
BC
330
1F
100
AcDbEntity
  8
0
  6
Continuous
 62
     7
370
    25
100
AcDbCircle
 10
3.8160020525
 20
8.5159302945
 30
0.0
 40
0.2000000000000001
100
AcDbArc
 50
141.3799590497
 51
269.9435934611
  0
SPLINE
  5
BD
330
1F
100
AcDbEntity
  8
0
  6
Continuous
 62
     7
370
    25
100
AcDbSpline
210
0.0
220
0.0
230
1.0
 70
     8
 71
     3
 72
     9
 73
     5
 74
     0
 42
0.00000001
 43
0.00000001
 40
0.1730027621724775
 40
0.1730027621724775
 40
0.1730027621724775
 40
0.1730027621724775
 40
0.1882224101911645
 40
0.197857089004595
 40
0.197857089004595
 40
0.197857089004595
 40
0.197857089004595
 10
3.815805156567279
 20
8.315930391373081
 30
0.0
 10
3.926134471441869
 20
8.315821774353651
 30
0.0
 10
4.106613587739837
 20
8.31722671153061
 30
0.0
 10
4.287462934466532
 20
8.320877990397022
 30
0.0
 10
4.357602308056225
 20
8.322609211571333
 30
0.0
  0
ARC
  5
BE
330
1F
100
AcDbEntity
  8
0
  6
Continuous
 62
     7
370
    25
100
AcDbCircle
 10
9.5901672938
 20
10.7640918304
 30
0.0
 40
0.1999999999999993
100
AcDbArc
 50
0.0
 51
132.4268885054
  0
LINE
  5
BF
330
1F
100
AcDbEntity
  8
0
  6
Continuous
 62
     7
370
    25
100
AcDbLine
 10
9.0468610941
 20
10.5384690777
 30
0.0
 11
9.4552375207
 21
10.9117195931
 31
0.0
  0
ARC
  5
C0
330
1F
100
AcDbEntity
  8
0
  6
Continuous
 62
     7
370
    25
100
AcDbCircle
 10
9.1817908671
 20
10.3908413149
 30
0.0
 40
0.2000000000000025
100
AcDbArc
 50
132.4268885054
 51
227.5937272833
  0
LINE
  5
C1
330
1F
100
AcDbEntity
  8
0
  6
Continuous
 62
     7
370
    25
100
AcDbLine
 10
9.4049736073
 20
9.9161399708
 30
0.0
 11
9.0469142213
 21
10.2431650121
 31
0.0
  0
ARC
  5
C2
330
1F
100
AcDbEntity
  8
0
  6
Continuous
 62
     7
370
    25
100
AcDbCircle
 10
9.5398502532
 20
10.0638162736
 30
0.0
 40
0.2000000000000007
100
AcDbArc
 50
227.5937272833
 51
297.6276689862
  0
ARC
  5
C3
330
1F
100
AcDbEntity
  8
0
  6
Continuous
 62
     7
370
    25
100
AcDbCircle
 10
10.0151672938
 20
9.1556870366
 30
0.0
 40
0.8249999999999991
100
AcDbArc
 50
114.4962790512
 51
117.6276689862
  0
ARC
  5
C4
330
1F
100
AcDbEntity
  8
0
  6
Continuous
 62
     7
370
    25
100
AcDbCircle
 10
9.5901672938
 20
10.088424942
 30
0.0
 40
0.2000000000000028
100
AcDbArc
 50
294.4962790512
 51
0.0
  0
LINE
  5
C5
330
1F
100
AcDbEntity
  8
0
  6
Continuous
 62
     7
370
    25
100
AcDbLine
 10
9.7901672938
 20
10.7640918304
 30
0.0
 11
9.7901672938
 21
10.088424942
 31
0.0
  0
ARC
  5
C6
330
1F
100
AcDbEntity
  8
0
  6
Continuous
 62
     7
370
    25
100
AcDbCircle
 10
9.015846348
 20
8.9276900029
 30
0.0
 40
0.1999999999999988
100
AcDbArc
 50
277.0613899986
 51
12.8521590687
  0
ARC
  5
C7
330
1F
100
AcDbEntity
  8
0
  6
Continuous
 62
     7
370
    25
100
AcDbCircle
 10
10.0151672938
 20
9.1556870366
 30
0.0
 40
0.8249999999999986
100
AcDbArc
 50
157.5597855804
 51
192.8521590687
  0
ARC
  5
C8
330
1F
100
AcDbEntity
  8
0
  6
Continuous
 62
     7
370
    25
100
AcDbCircle
 10
9.0677819927
 20
9.5469492139
 30
0.0
 40
0.2000000000000009
100
AcDbArc
 50
337.5597855804
 51
47.5937272833
  0
LINE
  5
C9
330
1F
100
AcDbEntity
  8
0
  6
Continuous
 62
     7
370
    25
100
AcDbLine
 10
8.7978622754
 20
10.0643366666
 30
0.0
 11
9.2026586385
 21
9.6946255166
 31
0.0
  0
ARC
  5
CA
330
1F
100
AcDbEntity
  8
0
  6
Continuous
 62
     7
370
    25
100
AcDbCircle
 10
8.6629856295
 20
9.9166603638
 30
0.0
 40
0.2000000000000004
100
AcDbArc
 50
47.5937272833
 51
132.4268885054
  0
LINE
  5
CB
330
1F
100
AcDbEntity
  8
0
  6
Continuous
 62
     7
370
    25
100
AcDbLine
 10
7.2389222148
 20
8.8860374616
 30
0.0
 11
8.5280558565
 21
10.0642881266
 31
0.0
  0
ARC
  5
CC
330
1F
100
AcDbEntity
  8
0
  6
Continuous
 62
     7
370
    25
100
AcDbCircle
 10
7.3738519879
 20
8.7384096988
 30
0.0
 40
0.2000000000000001
100
AcDbArc
 50
132.4268885054
 51
275.9816215157
  0
SPLINE
  5
CD
330
1F
100
AcDbEntity
  8
0
  6
Continuous
 62
     7
370
    25
100
AcDbSpline
210
0.0
220
0.0
230
1.0
 70
     8
 71
     3
 72
    10
 73
     6
 74
     0
 42
0.00000001
 43
0.00000001
 40
0.3362614121121216
 40
0.3362614121121216
 40
0.3362614121121216
 40
0.3362614121121216
 40
0.3430891207348891
 40
0.3755557001470496
 40
0.41104965319095
 40
0.41104965319095
 40
0.41104965319095
 40
0.41104965319095
 10
7.394693877872344
 20
8.53949862414713
 30
0.0
 10
7.444750602075149
 20
8.54474356458887
 30
0.0
 10
7.732850140583817
 20
8.575261865804107
 30
0.0
 10
8.281328812666127
 20
8.636814362462278
 30
0.0
 10
8.779961028772066
 20
8.69694174871914
 30
0.0
 10
9.040432896876592
 20
8.729207002110595
 30
0.0
  0
SPLINE
  5
CE
330
1F
100
AcDbEntity
  8
0
  6
Continuous
 62
     7
370
    25
100
AcDbSpline
210
0.0
220
0.0
230
1.0
 70
     8
 71
     3
 72
    12
 73
     8
 74
     0
 42
0.00000001
 43
0.00000001
 40
0.6561626813670228
 40
0.6561626813670228
 40
0.6561626813670228
 40
0.6561626813670228
 40
0.6623685288212537
 40
0.686913106149885
 40
0.7493597521635109
 40
0.7805830751703239
 40
0.7911832058650156
 40
0.7911832058650156
 40
0.7911832058650156
 40
0.7911832058650156
 10
7.425705816908715
 20
11.13508384070868
 30
0.0
 10
7.378562407141433
 20
11.13166607771203
 30
0.0
 10
7.145042784248186
 20
11.11415978342515
 30
0.0
 10
6.438619541323665
 20
11.05237643066835
 30
0.0
 10
5.547688661448329
 20
10.94087447408132
 30
0.0
 10
4.770858485548863
 20
10.80394005056593
 30
0.0
 10
4.461585528660529
 20
10.74122806110006
 30
0.0
 10
4.383367630175613
 20
10.72480842386138
 30
0.0
  0
MTEXT
  5
D0
330
1F
100
AcDbEntity
  8
PART_NAMES
100
AcDbMText
 10
12.9054246913
 20
9.4186348874
 30
0.0
 40
0.1666666667
 41
0.0
 71
     1
 72
     1
  1
1.2.2.1.1
  7
SLDTEXTSTYLE0
 73
     1
 44
1.0
  0
MTEXT
  5
D1
330
1F
100
AcDbEntity
  8
PART_NAMES
100
AcDbMText
 10
12.8881761507
 20
6.297763889
 30
0.0
 40
0.1666666667
 41
0.0
 71
     1
 72
     1
  1
1.2.2.1.2
  7
SLDTEXTSTYLE0
 73
     1
 44
1.0
  0
LINE
  5
D2
330
1F
100
AcDbEntity
  8
0
  6
Continuous
 62
     7
370
    25
100
AcDbLine
 10
2.6803960474
 20
6.9801867332
 30
0.0
 11
2.7399689185
 21
6.8092778177
 31
0.0
  0
LINE
  5
D3
330
1F
100
AcDbEntity
  8
0
  6
Continuous
 62
     7
370
    25
100
AcDbLine
 10
2.7399689185
 20
6.8092778177
 30
0.0
 11
2.9170209695
 21
6.8709892729
 31
0.0
  0
LINE
  5
D4
330
1F
100
AcDbEntity
  8
0
  6
Continuous
 62
     7
370
    25
100
AcDbLine
 10
2.9170209695
 20
6.8709892729
 30
0.0
 11
2.8578809628
 21
7.0406684639
 31
0.0
  0
SPLINE
  5
D5
330
1F
100
AcDbEntity
  8
0
  6
Continuous
 62
     7
370
    25
100
AcDbSpline
210
0.0
220
0.0
230
1.0
 70
     8
 71
     3
 72
    18
 73
    14
 74
     0
 42
0.00000001
 43
0.00000001
 40
0.7469526653277268
 40
0.7469526653277268
 40
0.7469526653277268
 40
0.7469526653277268
 40
0.7521175864591397
 40
0.7647920417814054
 40
0.7772081519207622
 40
0.7893556849316484
 40
0.8012239599679336
 40
0.8128036855342794
 40
0.8240829093538227
 40
0.8350546022887522
 40
0.8457095711558706
 40
0.8560378532405389
 40
0.8615633390211688
 40
0.8615633390211688
 40
0.8615633390211688
 40
0.8615633390211688
 10
5.366622672692182
 20
7.624499985720417
 30
0.0
 10
5.328353194841749
 20
7.618512761897803
 30
0.0
 10
5.196229288674348
 20
7.597469205703369
 30
0.0
 10
4.972497747267909
 20
7.559618661551735
 30
0.0
 10
4.697831023269342
 20
7.509069123247889
 30
0.0
 10
4.429865590458969
 20
7.455670470055967
 30
0.0
 10
4.168893192082978
 20
7.399436633578332
 30
0.0
 10
3.91519008121412
 20
7.340536298539022
 30
0.0
 10
3.669019921461116
 20
7.279072085191711
 30
0.0
 10
3.430647340112095
 20
7.215156514518884
 30
0.0
 10
3.200313978099533
 20
7.148942955894115
 30
0.0
 10
3.010297565601287
 20
7.090446591974223
 30
0.0
 10
2.897219024270501
 20
7.053697149979861
 30
0.0
 10
2.857880962837672
 20
7.040668463935225
 30
0.0
  0
LINE
  5
D6
330
1F
100
AcDbEntity
  8
0
  6
Continuous
 62
     7
370
    25
100
AcDbLine
 10
5.3666226727
 20
7.6244999857
 30
0.0
 11
5.3932678504
 21
7.4456382936
 31
0.0
  0
LINE
  5
D7
330
1F
100
AcDbEntity
  8
0
  6
Continuous
 62
     7
370
    25
100
AcDbLine
 10
5.3932678504
 20
7.4456382936
 30
0.0
 11
5.5787493556
 21
7.4730748828
 31
0.0
  0
LINE
  5
D8
330
1F
100
AcDbEntity
  8
0
  6
Continuous
 62
     7
370
    25
100
AcDbLine
 10
5.5787493556
 20
7.4730748828
 30
0.0
 11
5.5521805776
 21
7.6526919146
 31
0.0
  0
SPLINE
  5
D9
330
1F
100
AcDbEntity
  8
0
  6
Continuous
 62
     7
370
    25
100
AcDbSpline
210
0.0
220
0.0
230
1.0
 70
     8
 71
     3
 72
    16
 73
    12
 74
     0
 42
0.00000001
 43
0.00000001
 40
0.623949914935915
 40
0.623949914935915
 40
0.623949914935915
 40
0.623949914935915
 40
0.628447474920468
 40
0.6428886749504474
 40
0.6571860540028671
 40
0.6713255457791549
 40
0.6852940138169578
 40
0.6990781474144603
 40
0.7126650949455656
 40
0.7260426447110092
 40
0.73861056695561
 40
0.73861056695561
 40
0.73861056695561
 40
0.73861056695561
 10
8.119408334221472
 20
7.895658497201302
 30
0.0
 10
8.085717287203957
 20
7.894039665090729
 30
0.0
 10
7.943859008730469
 20
7.886989547832291
 30
0.0
 10
7.694998330784649
 20
7.872857756295442
 30
0.0
 10
7.374156170291804
 20
7.85118205121987
 30
0.0
 10
7.057113516240272
 20
7.826154386125274
 30
0.0
 10
6.744218708569901
 20
7.797768104682533
 30
0.0
 10
6.435799663961182
 20
7.766141531521028
 30
0.0
 10
6.132199758357208
 20
7.731188647143659
 30
0.0
 10
5.83811222623106
 20
7.693567659515219
 30
0.0
 10
5.645427016041861
 20
7.666441426539822
 30
0.0
 10
5.552180577584639
 20
7.652691914592444
 30
0.0
  0
LINE
  5
DA
330
1F
100
AcDbEntity
  8
0
  6
Continuous
 62
     7
370
    25
100
AcDbLine
 10
8.1194083342
 20
6.9630334193
 30
0.0
 11
8.1194083342
 21
7.8956584972
 31
0.0
  0
LINE
  5
DB
330
1F
100
AcDbEntity
  8
0
  6
Continuous
 62
     7
370
    25
100
AcDbLine
 10
8.3694083342
 20
6.9630334193
 30
0.0
 11
8.1194083342
 21
6.9630334193
 31
0.0
  0
LINE
  5
DC
330
1F
100
AcDbEntity
  8
0
  6
Continuous
 62
     7
370
    25
100
AcDbLine
 10
8.3694083342
 20
7.906668628
 30
0.0
 11
8.3694083342
 21
6.9630334193
 31
0.0
  0
SPLINE
  5
DD
330
1F
100
AcDbEntity
  8
0
  6
Continuous
 62
     7
370
    25
100
AcDbSpline
210
0.0
220
0.0
230
1.0
 70
     8
 71
     3
 72
    15
 73
    11
 74
     0
 42
0.00000001
 43
0.00000001
 40
0.4962178763305801
 40
0.4962178763305801
 40
0.4962178763305801
 40
0.4962178763305801
 40
0.5094578326361675
 40
0.5245323463196893
 40
0.5395793198930883
 40
0.5545829838309861
 40
0.5695295459998657
 40
0.5844034168402927
 40
0.5991909919021363
 40
0.6128274198175601
 40
0.6128274198175601
 40
0.6128274198175601
 40
0.6128274198175601
 10
10.99240124062196
 20
7.912901491851268
 30
0.0
 10
10.8931593212727
 20
7.916125782860371
 30
0.0
 10
10.68089893353454
 20
7.922241080524344
 30
0.0
 10
10.3557725440285
 20
7.92898134061922
 30
0.0
 10
10.01737316469554
 20
7.933040817277916
 30
0.0
 10
9.679910208729467
 20
7.934021307551633
 30
0.0
 10
9.34375053824021
 20
7.93190527104416
 30
0.0
 10
9.009246167445857
 20
7.926620052225853
 30
0.0
 10
8.684632062074508
 20
7.918295072572908
 30
0.0
 10
8.471594026138927
 20
7.910766281727968
 30
0.0
 10
8.369408334221726
 20
7.906668627991884
 30
0.0
  0
LINE
  5
DE
330
1F
100
AcDbEntity
  8
0
  6
Continuous
 62
     7
370
    25
100
AcDbLine
 10
10.9924012406
 20
7.9129014919
 30
0.0
 11
10.986636542
 21
7.7344194739
 31
0.0
  0
LINE
  5
DF
330
1F
100
AcDbEntity
  8
0
  6
Continuous
 62
     7
370
    25
100
AcDbLine
 10
10.986636542
 20
7.7344194739
 30
0.0
 11
11.1740328796
 21
7.7282719024
 31
0.0
  0
LINE
  5
E0
330
1F
100
AcDbEntity
  8
0
  6
Continuous
 62
     7
370
    25
100
AcDbLine
 10
11.1740328796
 20
7.7282719024
 30
0.0
 11
11.1806171574
 21
7.906350765
 31
0.0
  0
SPLINE
  5
E1
330
1F
100
AcDbEntity
  8
0
  6
Continuous
 62
     7
370
    25
100
AcDbSpline
210
0.0
220
0.0
230
1.0
 70
     8
 71
     3
 72
    16
 73
    12
 74
     0
 42
0.00000001
 43
0.00000001
 40
0.3716741032196761
 40
0.3716741032196761
 40
0.3716741032196761
 40
0.3716741032196761
 40
0.3749827204038077
 40
0.3896404543545233
 40
0.4044033165867775
 40
0.4192566006634758
 40
0.4341867493871219
 40
0.4491772650868069
 40
0.4642147821671246
 40
0.4792840087649619
 40
0.487847196745935
 40
0.487847196745935
 40
0.487847196745935
 40
0.487847196745935
 10
13.78810623151917
 20
7.731007492157659
 30
0.0
 10
13.76340658648371
 20
7.733379212496378
 30
0.0
 10
13.629273262065
 20
7.746153139074995
 30
0.0
 10
13.38482471233253
 20
7.768380473512514
 30
0.0
 10
13.05394862905383
 20
7.796132949179389
 30
0.0
 10
12.72084175849297
 20
7.821626538907666
 30
0.0
 10
12.38585534381895
 20
7.844821968276457
 30
0.0
 10
12.04932056376044
 20
7.865515318796144
 30
0.0
 10
11.71159586800837
 20
7.883691055167397
 30
0.0
 10
11.42188950604755
 20
7.896980801990627
 30
0.0
 10
11.24479339352423
 20
7.903969159275181
 30
0.0
 10
11.1806171573605
 20
7.906350764975672
 30
0.0
  0
LINE
  5
E2
330
1F
100
AcDbEntity
  8
0
  6
Continuous
 62
     7
370
    25
100
AcDbLine
 10
13.7881062315
 20
7.7310074922
 30
0.0
 11
13.8136679691
 21
7.6674300216
 31
0.0
  0
LINE
  5
E3
330
1F
100
AcDbEntity
  8
0
  6
Continuous
 62
     7
370
    25
100
AcDbLine
 10
13.8136679691
 20
7.6674300216
 30
0.0
 11
14.113126072
 21
6.9798074182
 31
0.0
  0
LINE
  5
E4
330
1F
100
AcDbEntity
  8
0
  6
Continuous
 62
     7
370
    25
100
AcDbLine
 10
14.113126072
 20
6.9798074182
 30
0.0
 11
14.2277298392
 21
7.029717102
 31
0.0
  0
LINE
  5
E5
330
1F
100
AcDbEntity
  8
0
  6
Continuous
 62
     7
370
    25
100
AcDbLine
 10
14.2277298392
 20
7.029717102
 30
0.0
 11
14.0780007878
 21
7.3735284037
 31
0.0
  0
LINE
  5
E6
330
1F
100
AcDbEntity
  8
0
  6
Continuous
 62
     7
370
    25
100
AcDbLine
 10
14.0780007878
 20
7.3735284037
 30
0.0
 11
15.3707855406
 21
7.0483555031
 31
0.0
  0
ARC
  5
E7
330
1F
100
AcDbEntity
  8
0
  6
Continuous
 62
     7
370
    25
100
AcDbCircle
 10
15.2488200436
 20
6.5634592075
 30
0.0
 40
0.5000000000000016
100
AcDbArc
 50
298.6306628967
 51
75.881332391
  0
LINE
  5
E8
330
1F
100
AcDbEntity
  8
0
  6
Continuous
 62
     7
370
    25
100
AcDbLine
 10
15.4884008727
 20
6.124595873
 30
0.0
 11
14.6143676845
 21
5.6474505308
 31
0.0
  0
LINE
  5
E9
330
1F
100
AcDbEntity
  8
0
  6
Continuous
 62
     7
370
    25
100
AcDbLine
 10
14.6143676845
 20
5.6474505308
 30
0.0
 11
14.5813117178
 21
5.8952555007
 31
0.0
  0
LINE
  5
EA
330
1F
100
AcDbEntity
  8
0
  6
Continuous
 62
     7
370
    25
100
AcDbLine
 10
14.5813117178
 20
5.8952555007
 30
0.0
 11
14.4574092329
 21
5.8787275173
 31
0.0
  0
LINE
  5
EB
330
1F
100
AcDbEntity
  8
0
  6
Continuous
 62
     7
370
    25
100
AcDbLine
 10
14.4574092329
 20
5.8787275173
 30
0.0
 11
14.5235211663
 21
5.3831175777
 31
0.0
  0
LINE
  5
EC
330
1F
100
AcDbEntity
  8
0
  6
Continuous
 62
     7
370
    25
100
AcDbLine
 10
14.5235211663
 20
5.3831175777
 30
0.0
 11
14.5235872714
 21
5.383112615
 31
0.0
  0
SPLINE
  5
ED
330
1F
100
AcDbEntity
  8
0
  6
Continuous
 62
     7
370
    25
100
AcDbSpline
210
0.0
220
0.0
230
1.0
 70
     8
 71
     3
 72
    16
 73
    12
 74
     0
 42
0.00000001
 43
0.00000001
 40
0.5516789312475072
 40
0.5516789312475072
 40
0.5516789312475072
 40
0.5516789312475072
 40
0.5562472332602322
 40
0.571381784352882
 40
0.5864660404483751
 40
0.6014845156991583
 40
0.6164243285843019
 40
0.6312694223607523
 40
0.6460065237480678
 40
0.6606206841728729
 40
0.6669773284248266
 40
0.6669773284248266
 40
0.6669773284248266
 40
0.6669773284248266
 10
12.05690833422203
 20
5.048520235859855
 30
0.0
 10
12.08948299379303
 20
5.052963080309596
 30
0.0
 10
12.22997547116558
 20
5.072127514060198
 30
0.0
 10
12.47802604900747
 20
5.105972581365223
 30
0.0
 10
12.80058430428153
 20
5.150040598379601
 30
0.0
 10
13.12177037130807
 20
5.193798977841264
 30
0.0
 10
13.44126082527754
 20
5.237253070791044
 30
0.0
 10
13.75876106416363
 20
5.28031477394345
 30
0.0
 10
14.07396683336955
 20
5.322855553121572
 30
0.0
 10
14.32865775112874
 20
5.357045972675017
 30
0.0
 10
14.47824406119751
 20
5.377053759228965
 30
0.0
 10
14.52358727142046
 20
5.383112614664451
 30
0.0
  0
LINE
  5
EE
330
1F
100
AcDbEntity
  8
0
  6
Continuous
 62
     7
370
    25
100
AcDbLine
 10
12.0569083342
 20
5.7754429302
 30
0.0
 11
12.0569083342
 21
5.0485202359
 31
0.0
  0
LINE
  5
EF
330
1F
100
AcDbEntity
  8
0
  6
Continuous
 62
     7
370
    25
100
AcDbLine
 10
11.9569083342
 20
5.7754429302
 30
0.0
 11
12.0569083342
 21
5.7754429302
 31
0.0
  0
LINE
  5
F0
330
1F
100
AcDbEntity
  8
0
  6
Continuous
 62
     7
370
    25
100
AcDbLine
 10
11.9569083342
 20
5.0348836509
 30
0.0
 11
11.9569083342
 21
5.7754429302
 31
0.0
  0
SPLINE
  5
F1
330
1F
100
AcDbEntity
  8
0
  6
Continuous
 62
     7
370
    25
100
AcDbSpline
210
0.0
220
0.0
230
1.0
 70
     8
 71
     3
 72
    19
 73
    15
 74
     0
 42
0.00000001
 43
0.00000001
 40
0.3898643668772364
 40
0.3898643668772364
 40
0.3898643668772364
 40
0.3898643668772364
 40
0.390597192121319
 40
0.4053325934372969
 40
0.420174823355266
 40
0.4351095326124219
 40
0.4501242755491032
 40
0.4652030675528332
 40
0.480333153810538
 40
0.4955005832026954
 40
0.5106897747322421
 40
0.5258873344064182
 40
0.5410783139096876
 40
0.5470042469478796
 40
0.5470042469478796
 40
0.5470042469478796
 40
0.5470042469478796
 10
8.592885788572257
 20
4.595619362486202
 30
0.0
 10
8.598122324651031
 20
4.596245632715658
 30
0.0
 10
8.708652331938339
 20
4.609473245827948
 30
0.0
 10
8.925197439212385
 20
4.635741514227012
 30
0.0
 10
9.243091302604176
 20
4.675236747276164
 30
0.0
 10
9.562880215575536
 20
4.71577471401587
 30
0.0
 10
9.884276558539424
 20
4.757164541113949
 30
0.0
 10
10.20697944984609
 20
4.799410949668315
 30
0.0
 10
10.53071747344683
 20
4.842212951243003
 30
0.0
 10
10.85517842689786
 20
4.885605796769731
 30
0.0
 10
11.1800798894063
 20
4.929366317197006
 30
0.0
 10
11.50512110249847
 20
4.97335849147052
 30
0.0
 10
11.76407492819539
 20
5.008599115748253
 30
0.0
 10
11.91465268227596
 20
5.029122591337953
 30
0.0
 10
11.95690833422197
 20
5.03488365085918
 30
0.0
  0
LINE
  5
F2
330
1F
100
AcDbEntity
  8
0
  6
Continuous
 62
     7
370
    25
100
AcDbLine
 10
8.5928857886
 20
4.5956193625
 30
0.0
 11
8.5714194533
 21
4.7780640599
 31
0.0
  0
LINE
  5
F3
330
1F
100
AcDbEntity
  8
0
  6
Continuous
 62
     7
370
    25
100
AcDbLine
 10
8.5714194533
 20
4.7780640599
 30
0.0
 11
8.3852039898
 21
4.756154085
 31
0.0
  0
LINE
  5
F4
330
1F
100
AcDbEntity
  8
0
  6
Continuous
 62
     7
370
    25
100
AcDbLine
 10
8.3852039898
 20
4.756154085
 30
0.0
 11
8.4066479642
 21
4.5735257497
 31
0.0
  0
SPLINE
  5
F5
330
1F
100
AcDbEntity
  8
0
  6
Continuous
 62
     7
370
    25
100
AcDbSpline
210
0.0
220
0.0
230
1.0
 70
     8
 71
     3
 72
    20
 73
    16
 74
     0
 42
0.00000001
 43
0.00000001
 40
0.2253793731602233
 40
0.2253793731602233
 40
0.2253793731602233
 40
0.2253793731602233
 40
0.2267672493535257
 40
0.239236416912666
 40
0.2519590037406926
 40
0.2649238944848901
 40
0.2781197025559347
 40
0.2915360351420174
 40
0.305160279569768
 40
0.3189806851177335
 40
0.3329854989238258
 40
0.3471627904008333
 40
0.3614986025989408
 40
0.3759807467343043
 40
0.3811776872790718
 40
0.3811776872790718
 40
0.3811776872790718
 40
0.3811776872790718
 10
5.056908334222909
 20
4.275202191978945
 30
0.0
 10
5.066885011393908
 20
4.275678205042485
 30
0.0
 10
5.16649321929863
 20
4.280481984248464
 30
0.0
 10
5.357507530270359
 20
4.290662150697082
 30
0.0
 10
5.631585369752062
 20
4.307608732361436
 30
0.0
 10
5.910735633960931
 20
4.327102918533178
 30
0.0
 10
6.194715943527688
 20
4.348988375622007
 30
0.0
 10
6.483268328728405
 20
4.373210514205286
 30
0.0
 10
6.776141133484499
 20
4.399628149343815
 30
0.0
 10
7.073075075635067
 20
4.428109029290558
 30
0.0
 10
7.373813609366758
 20
4.458563016772295
 30
0.0
 10
7.678091279337451
 20
4.490846854665951
 30
0.0
 10
7.985637070753529
 20
4.524855927357406
 30
0.0
 10
8.228840696567758
 20
4.552698539120929
 30
0.0
 10
8.369503729652154
 20
4.569156577186321
 30
0.0
 10
8.406647964246165
 20
4.573525749746407
 30
0.0
  0
LINE
  5
F6
330
1F
100
AcDbEntity
  8
0
  6
Continuous
 62
     7
370
    25
100
AcDbLine
 10
5.0569083342
 20
5.0023155919
 30
0.0
 11
5.0569083342
 21
4.275202192
 31
0.0
  0
LINE
  5
F7
330
1F
100
AcDbEntity
  8
0
  6
Continuous
 62
     7
370
    25
100
AcDbLine
 10
4.9319083342
 20
5.0023155919
 30
0.0
 11
5.0569083342
 21
5.0023155919
 31
0.0
  0
LINE
  5
F8
330
1F
100
AcDbEntity
  8
0
  6
Continuous
 62
     7
370
    25
100
AcDbLine
 10
4.9319083342
 20
4.2695112991
 30
0.0
 11
4.9319083342
 21
5.0023155919
 31
0.0
  0
SPLINE
  5
F9
330
1F
100
AcDbEntity
  8
0
  6
Continuous
 62
     7
370
    25
100
AcDbSpline
210
0.0
220
0.0
230
1.0
 70
     8
 71
     3
 72
    17
 73
    13
 74
     0
 42
0.00000001
 43
0.00000001
 40
0.1181170675025298
 40
0.1181170675025298
 40
0.1181170675025298
 40
0.1181170675025298
 40
0.127514842657726
 40
0.1372852704325623
 40
0.1473879174712405
 40
0.1578164805284356
 40
0.1685634728403947
 40
0.1796191282126914
 40
0.1909773731687989
 40
0.2026269737974169
 40
0.2145604781304418
 40
0.2195836216255603
 40
0.2195836216255603
 40
0.2195836216255603
 40
0.2195836216255603
 10
2.742836283092961
 20
4.293103141286816
 30
0.0
 10
2.810223520017935
 20
4.287341585518051
 30
0.0
 10
2.947782768474735
 20
4.276919039586143
 30
0.0
 10
3.158088436195315
 20
4.26469622214463
 30
0.0
 10
3.375975178951678
 20
4.255570615640732
 30
0.0
 10
3.601000504371568
 20
4.249590497762637
 30
0.0
 10
3.832944025830927
 20
4.246662638705802
 30
0.0
 10
4.071596131314188
 20
4.2467430834958
 30
0.0
 10
4.316723362195768
 20
4.249853348414271
 30
0.0
 10
4.568116321913481
 20
4.255821611566478
 30
0.0
 10
4.773865776515338
 20
4.262906510634814
 30
0.0
 10
4.89579249584103
 20
4.267947355670715
 30
0.0
 10
4.931908334222846
 20
4.269511299036528
 30
0.0
  0
LINE
  5
FA
330
1F
100
AcDbEntity
  8
0
  6
Continuous
 62
     7
370
    25
100
AcDbLine
 10
2.7428362831
 20
4.2931031413
 30
0.0
 11
2.7628650152
 21
4.4792958595
 31
0.0
  0
LINE
  5
FB
330
1F
100
AcDbEntity
  8
0
  6
Continuous
 62
     7
370
    25
100
AcDbLine
 10
2.7628650152
 20
4.4792958595
 30
0.0
 11
2.57652248
 21
4.4992940139
 31
0.0
  0
LINE
  5
FC
330
1F
100
AcDbEntity
  8
0
  6
Continuous
 62
     7
370
    25
100
AcDbLine
 10
2.57652248
 20
4.4992940139
 30
0.0
 11
2.5563693603
 21
4.3113800285
 31
0.0
  0
LINE
  5
FD
330
1F
100
AcDbEntity
  8
0
  6
Continuous
 62
     7
370
    25
100
AcDbLine
 10
2.5563693603
 20
4.3113800285
 30
0.0
 11
2.5563110945
 21
4.3108037756
 31
0.0
  0
SPLINE
  5
FE
330
1F
100
AcDbEntity
  8
0
  6
Continuous
 62
     7
370
    25
100
AcDbSpline
210
0.0
220
0.0
230
1.0
 70
     8
 71
     3
 72
    26
 73
    22
 74
     0
 42
0.00000001
 43
0.00000001
 40
0.0041966715137619
 40
0.0041966715137619
 40
0.0041966715137619
 40
0.0041966715137619
 40
0.0072932311171293
 40
0.011028136413859
 40
0.0149010810980465
 40
0.0189632717700928
 40
0.023258475402986
 40
0.0278206260323165
 40
0.0326790824435221
 40
0.0378531598360054
 40
0.0433618746912805
 40
0.0492146790039221
 40
0.0554223461563205
 40
0.06198878599669
 40
0.0689180360680075
 40
0.0762111572779437
 40
0.0838683921994994
 40
0.091887410882707
 40
0.100265912215115
 40
0.1089998674022309
 40
0.1094387616370689
 40
0.1094387616370689
 40
0.1094387616370689
 40
0.1094387616370689
 10
0.5545190213228619
 20
5.167255462412975
 30
0.0
 10
0.5615321884690938
 20
5.146105582443449
 30
0.0
 10
0.5802748727299271
 20
5.10044931654594
 30
0.0
 10
0.6174749597979782
 20
5.032811383898604
 30
0.0
 10
0.6669807749996782
 20
4.964699833406991
 30
0.0
 10
0.7265225370796217
 20
4.899661744387792
 30
0.0
 10
0.7959687414512835
 20
4.837629469894158
 30
0.0
 10
0.8752512824856165
 20
4.778636363024853
 30
0.0
 10
0.9642663935238902
 20
4.722709272044683
 30
0.0
 10
1.062884766771333
 20
4.669788828268835
 30
0.0
 10
1.170995555265705
 20
4.619907933633819
 30
0.0
 10
1.28850018370924
 20
4.573082176238575
 30
0.0
 10
1.41527062780148
 20
4.52937415025646
 30
0.0
 10
1.55115190716367
 20
4.488717289320925
 30
0.0
 10
1.69601483272862
 20
4.451210671392654
 30
0.0
 10
1.849694680963396
 20
4.416801874046111
 30
0.0
 10
2.012043640910779
 20
4.385578729637531
 30
0.0
 10
2.182884802582519
 20
4.357509516718463
 30
0.0
 10
2.362040686026276
 20
4.332609944217158
 30
0.0
 10
2.487517646550658
 20
4.318041052242115
 30
0.0
 10
2.553169668490703
 20
4.311132713208721
 30
0.0
 10
2.55631109453839
 20
4.310803775647091
 30
0.0
  0
LINE
  5
FF
330
1F
100
AcDbEntity
  8
0
  6
Continuous
 62
     7
370
    25
100
AcDbLine
 10
0.5545190213
 20
5.1672554624
 30
0.0
 11
0.888403256
 21
5.1672554624
 31
0.0
  0
LINE
  5
100
330
1F
100
AcDbEntity
  8
0
  6
Continuous
 62
     7
370
    25
100
AcDbLine
 10
0.888403256
 20
5.1672554624
 30
0.0
 11
0.888403256
 21
5.5422554624
 31
0.0
  0
LINE
  5
101
330
1F
100
AcDbEntity
  8
0
  6
Continuous
 62
     7
370
    25
100
AcDbLine
 10
0.888403256
 20
5.5422554624
 30
0.0
 11
0.5541407133
 21
5.5422554624
 31
0.0
  0
SPLINE
  5
102
330
1F
100
AcDbEntity
  8
0
  6
Continuous
 62
     7
370
    25
100
AcDbSpline
210
0.0
220
0.0
230
1.0
 70
     8
 71
     3
 72
    26
 73
    22
 74
     0
 42
0.00000001
 43
0.00000001
 40
0.8698974167367318
 40
0.8698974167367318
 40
0.8698974167367318
 40
0.8698974167367318
 40
0.8756888427883988
 40
0.8849977189913464
 40
0.8939534257020234
 40
0.9025528972589622
 40
0.9107893855744227
 40
0.9186607344498127
 40
0.9261662532257968
 40
0.9333026258827831
 40
0.9400712202263494
 40
0.9464747799611675
 40
0.9525175260177909
 40
0.9582048188585928
 40
0.9635466521340151
 40
0.9685565999026111
 40
0.9732499128166676
 40
0.9776510407515667
 40
0.9817870430140477
 40
0.9856942262062861
 40
0.9870851444562609
 40
0.9870851444562609
 40
0.9870851444562609
 40
0.9870851444562609
 10
2.680396047417577
 20
6.980186733224088
 30
0.0
 10
2.639408562142095
 20
6.965815133500072
 30
0.0
 10
2.532776432071687
 20
6.927668607669695
 30
0.0
 10
2.363990885911101
 20
6.863914168099258
 30
0.0
 10
2.177191139300499
 20
6.788393905227291
 30
0.0
 10
1.999704379537859
 20
6.71145039468603
 30
0.0
 10
1.831663196272031
 20
6.63331819953822
 30
0.0
 10
1.673257773580176
 20
6.554086271200654
 30
0.0
 10
1.524601007880916
 20
6.47397659045889
 30
0.0
 10
1.38584213836078
 20
6.393111996413252
 30
0.0
 10
1.25711473622709
 20
6.311642687028614
 30
0.0
 10
1.138472904244037
 20
6.229775313933807
 30
0.0
 10
1.03008021724506
 20
6.147561262616197
 30
0.0
 10
0.931973909701313
 20
6.065208284791739
 30
0.0
 10
0.8442160662529046
 20
5.982841782575319
 30
0.0
 10
0.7669321281955436
 20
5.900518494614046
 30
0.0
 10
0.7001193138112344
 20
5.818383392609634
 30
0.0
 10
0.6438651839123539
 20
5.736501524887761
 30
0.0
 10
0.5981794980537276
 20
5.654950371113671
 30
0.0
 10
0.5701003646808713
 20
5.589863773742968
 30
0.0
 10
0.5572847353859227
 20
5.552209681501807
 30
0.0
 10
0.5541407132128005
 20
5.54225546244832
 30
0.0
  0
CIRCLE
  5
103
330
1F
100
AcDbEntity
  8
0
  6
Continuous
 62
     7
370
    25
100
AcDbCircle
 10
15.2488200436
 20
6.5634592075
 30
0.0
 40
0.25
  0
ARC
  5
104
330
1F
100
AcDbEntity
  8
0
  6
Continuous
 62
     7
370
    25
100
AcDbCircle
 10
3.3735094565
 20
4.8265687561
 30
0.0
 40
0.0700000000000002
100
AcDbArc
 50
173.8603074699
 51
267.9510488875
  0
SPLINE
  5
105
330
1F
100
AcDbEntity
  8
0
  6
Continuous
 62
     7
370
    25
100
AcDbSpline
210
0.0
220
0.0
230
1.0
 70
     8
 71
     3
 72
    11
 73
     7
 74
     0
 42
0.00000001
 43
0.00000001
 40
0.1464294662809239
 40
0.1464294662809239
 40
0.1464294662809239
 40
0.1464294662809239
 40
0.1563586232353216
 40
0.1698930956562205
 40
0.1834275680771194
 40
0.1852596710302855
 40
0.1852596710302855
 40
0.1852596710302855
 40
0.1852596710302855
 10
3.371006723984173
 20
4.756613510934109
 30
0.0
 10
3.439953288175813
 20
4.754146865197799
 30
0.0
 10
3.602878275693207
 20
4.749528105137569
 30
0.0
 10
3.86166377887766
 20
4.746266410544714
 30
0.0
 10
4.064157377344256
 20
4.746953720901801
 30
0.0
 10
4.172125384351689
 20
4.748187982456869
 30
0.0
 10
4.185001415876958
 20
4.748347301118699
 30
0.0
  0
ARC
  5
106
330
1F
100
AcDbEntity
  8
0
  6
Continuous
 62
     7
370
    25
100
AcDbCircle
 10
4.1819083342
 20
4.9983281661
 30
0.0
 40
0.2500000000000006
100
AcDbArc
 50
270.7089001844
 51
0.0
  0
LINE
  5
107
330
1F
100
AcDbEntity
  8
0
  6
Continuous
 62
     7
370
    25
100
AcDbLine
 10
4.4319083342
 20
4.9983281661
 30
0.0
 11
4.4319083342
 21
5.1834202287
 31
0.0
  0
ARC
  5
108
330
1F
100
AcDbEntity
  8
0
  6
Continuous
 62
     7
370
    25
100
AcDbCircle
 10
4.1819083342
 20
5.1834202287
 30
0.0
 40
0.25
100
AcDbArc
 50
0.0
 51
57.0266659545
  0
LINE
  5
109
330
1F
100
AcDbEntity
  8
0
  6
Continuous
 62
     7
370
    25
100
AcDbLine
 10
4.3179704971
 20
5.393151218
 30
0.0
 11
2.9801597594
 21
6.2610507266
 31
0.0
  0
ARC
  5
10A
330
1F
100
AcDbEntity
  8
0
  6
Continuous
 62
     7
370
    25
100
AcDbCircle
 10
2.8440975965
 20
6.0513197374
 30
0.0
 40
0.2500000000000004
100
AcDbArc
 50
57.0266659545
 51
109.2159897032
  0
LINE
  5
10B
330
1F
100
AcDbEntity
  8
0
  6
Continuous
 62
     7
370
    25
100
AcDbLine
 10
2.7618150505
 20
6.2873908763
 30
0.0
 11
2.4984971686
 21
6.1956114838
 31
0.0
  0
ARC
  5
10C
330
1F
100
AcDbEntity
  8
0
  6
Continuous
 62
     7
370
    25
100
AcDbCircle
 10
2.4754580558
 20
6.2617114027
 30
0.0
 40
0.0699999999999996
100
AcDbArc
 50
199.2167682212
 51
289.2159897032
  0
LINE
  5
10D
330
1F
100
AcDbEntity
  8
0
  6
Continuous
 62
     7
370
    25
100
AcDbLine
 10
2.4093584499
 20
6.2386713916
 30
0.0
 11
2.4023269759
 21
6.2588440234
 31
0.0
  0
ARC
  5
10E
330
1F
100
AcDbEntity
  8
0
  6
Continuous
 62
     7
370
    25
100
AcDbCircle
 10
2.3362273701
 20
6.2358040124
 30
0.0
 40
0.070000000000001
100
AcDbArc
 50
19.2167682212
 51
113.2448982444
  0
SPLINE
  5
10F
330
1F
100
AcDbEntity
  8
0
  6
Continuous
 62
     7
370
    25
100
AcDbSpline
210
0.0
220
0.0
230
1.0
 70
     8
 71
     3
 72
    11
 73
     7
 74
     0
 42
0.00000001
 43
0.00000001
 40
0.8970526324788624
 40
0.8970526324788624
 40
0.8970526324788624
 40
0.8970526324788624
 40
0.9074238503730631
 40
0.9213672035208511
 40
0.9353105566686392
 40
0.9421635615544823
 40
0.9421635615544823
 40
0.9421635615544823
 40
0.9421635615544823
 10
2.308601027054347
 20
6.30012185728808
 30
0.0
 10
2.241786599074512
 20
6.27142316082665
 30
0.0
 10
2.085982049406982
 20
6.201704098004477
 30
0.0
 10
1.850724772076413
 20
6.084564095500289
 30
0.0
 10
1.647787100497531
 20
5.9684437175917
 30
0.0
 10
1.534134322620512
 20
5.894607088116004
 30
0.0
 10
1.497683421125968
 20
5.869783749592806
 30
0.0
  0
ARC
  5
110
330
1F
100
AcDbEntity
  8
0
  6
Continuous
 62
     7
370
    25
100
AcDbCircle
 10
1.638403256
 20
5.6631489798
 30
0.0
 40
0.2500000000000031
100
AcDbArc
 50
124.2551580815
 51
180.0
  0
LINE
  5
111
330
1F
100
AcDbEntity
  8
0
  6
Continuous
 62
     7
370
    25
100
AcDbLine
 10
1.388403256
 20
5.6631489798
 30
0.0
 11
1.388403256
 21
5.2464487968
 31
0.0
  0
ARC
  5
112
330
1F
100
AcDbEntity
  8
0
  6
Continuous
 62
     7
370
    25
100
AcDbCircle
 10
1.638403256
 20
5.2464487968
 30
0.0
 40
0.2500000000000009
100
AcDbArc
 50
180.0
 51
252.0128325431
  0
SPLINE
  5
113
330
1F
100
AcDbEntity
  8
0
  6
Continuous
 62
     7
370
    25
100
AcDbSpline
210
0.0
220
0.0
230
1.0
 70
     8
 71
     3
 72
    11
 73
     7
 74
     0
 42
0.00000001
 43
0.00000001
 40
0.0551149965254789
 40
0.0551149965254789
 40
0.0551149965254789
 40
0.0551149965254789
 40
0.0600147995052911
 40
0.0723622922455215
 40
0.0785360386156367
 40
0.0808843986860665
 40
0.0808843986860665
 40
0.0808843986860665
 40
0.0808843986860665
 10
1.561202261425456
 20
5.008667371089071
 30
0.0
 10
1.589628320694786
 20
4.999438222760827
 30
0.0
 10
1.691441216070466
 20
4.968166731772456
 30
0.0
 10
1.836269294651077
 20
4.93135085788907
 30
0.0
 10
1.96906933023441
 20
4.903277507490969
 30
0.0
 10
2.024225370751911
 20
4.892575229407575
 30
0.0
 10
2.039461021891317
 20
4.889687162535767
 30
0.0
  0
ARC
  5
114
330
1F
100
AcDbEntity
  8
0
  6
Continuous
 62
     7
370
    25
100
AcDbCircle
 10
2.0524980454
 20
4.9584624198
 30
0.0
 40
0.0700000000000005
100
AcDbArc
 50
259.2663781046
 51
353.878624836
  0
LINE
  5
115
330
1F
100
AcDbEntity
  8
0
  6
Continuous
 62
     7
370
    25
100
AcDbLine
 10
2.1220989216
 20
4.9509979685
 30
0.0
 11
2.1252297229
 21
4.9801905383
 31
0.0
  0
ARC
  5
116
330
1F
100
AcDbEntity
  8
0
  6
Continuous
 62
     7
370
    25
100
AcDbCircle
 10
2.1948305991
 20
4.972726087
 30
0.0
 40
0.0699999999999995
100
AcDbArc
 50
83.874500729
 51
173.878624836
  0
LINE
  5
117
330
1F
100
AcDbEntity
  8
0
  6
Continuous
 62
     7
370
    25
100
AcDbLine
 10
2.2023000602
 20
5.0423264258
 30
0.0
 11
3.2438691708
 21
4.9305459359
 31
0.0
  0
ARC
  5
118
330
1F
100
AcDbEntity
  8
0
  6
Continuous
 62
     7
370
    25
100
AcDbCircle
 10
3.2363997097
 20
4.8609455972
 30
0.0
 40
0.0700000000000002
100
AcDbArc
 50
353.8603074699
 51
83.874500729
  0
LINE
  5
119
330
1F
100
AcDbEntity
  8
0
  6
Continuous
 62
     7
370
    25
100
AcDbLine
 10
3.305998196
 20
4.853458895
 30
0.0
 11
3.3039109702
 21
4.8340554583
 31
0.0
  0
ARC
  5
11A
330
1F
100
AcDbEntity
  8
0
  6
Continuous
 62
     7
370
    25
100
AcDbCircle
 10
10.4041679328
 20
7.3575789755
 30
0.0
 40
0.0700000000000022
100
AcDbArc
 50
358.150076263
 51
88.9759819789
  0
SPLINE
  5
11B
330
1F
100
AcDbEntity
  8
0
  6
Continuous
 62
     7
370
    25
100
AcDbSpline
210
0.0
220
0.0
230
1.0
 70
     8
 71
     3
 72
    11
 73
     7
 74
     0
 42
0.00000001
 43
0.00000001
 40
0.5219193988437436
 40
0.5219193988437436
 40
0.5219193988437436
 40
0.5219193988437436
 40
0.5368294737291175
 40
0.5549375202334882
 40
0.5730455667378589
 40
0.5800749222896274
 40
0.5800749222896274
 40
0.5800749222896274
 40
0.5800749222896274
 10
10.40541894023856
 20
7.4275677959349
 30
0.0
 10
10.29506752723105
 20
7.429540260049619
 30
0.0
 10
10.05065718682625
 20
7.432849414186033
 30
0.0
 10
9.672445359633365
 20
7.434237643860193
 30
0.0
 10
9.352617484524279
 20
7.43184317615518
 30
0.0
 10
9.166871429257249
 20
7.42894815686221
 30
0.0
 10
9.114936732559128
 20
7.428019083129509
 30
0.0
  0
ARC
  5
11C
330
1F
100
AcDbEntity
  8
0
  6
Continuous
 62
     7
370
    25
100
AcDbCircle
 10
9.1194083342
 20
7.1780590768
 30
0.0
 40
0.2500000000000008
100
AcDbArc
 50
91.0248702635
 51
180.0
  0
LINE
  5
11D
330
1F
100
AcDbEntity
  8
0
  6
Continuous
 62
     7
370
    25
100
AcDbLine
 10
8.8694083342
 20
7.1780590768
 30
0.0
 11
8.8694083342
 21
7.0490374779
 31
0.0
  0
ARC
  5
11E
330
1F
100
AcDbEntity
  8
0
  6
Continuous
 62
     7
370
    25
100
AcDbCircle
 10
9.1194083342
 20
7.0490374779
 30
0.0
 40
0.25
100
AcDbArc
 50
180.0
 51
258.7682043773
  0
LINE
  5
11F
330
1F
100
AcDbEntity
  8
0
  6
Continuous
 62
     7
370
    25
100
AcDbLine
 10
9.0707136615
 20
6.8038256738
 30
0.0
 11
11.7073791623
 21
6.2802311261
 31
0.0
  0
ARC
  5
120
330
1F
100
AcDbEntity
  8
0
  6
Continuous
 62
     7
370
    25
100
AcDbCircle
 10
11.756073835
 20
6.5254429302
 30
0.0
 40
0.2499999999999996
100
AcDbArc
 50
258.7682043773
 51
270.0
  0
LINE
  5
121
330
1F
100
AcDbEntity
  8
0
  6
Continuous
 62
     7
370
    25
100
AcDbLine
 10
11.756073835
 20
6.2754429302
 30
0.0
 11
12.0825266642
 21
6.2754429302
 31
0.0
  0
ARC
  5
122
330
1F
100
AcDbEntity
  8
0
  6
Continuous
 62
     7
370
    25
100
AcDbCircle
 10
12.0825266642
 20
6.5254429302
 30
0.0
 40
0.2500000000000009
100
AcDbArc
 50
270.0
 51
318.3375892935
  0
LINE
  5
123
330
1F
100
AcDbEntity
  8
0
  6
Continuous
 62
     7
370
    25
100
AcDbLine
 10
12.2692952769
 20
6.3592578366
 30
0.0
 11
12.7624876545
 21
6.9135365276
 31
0.0
  0
ARC
  5
124
330
1F
100
AcDbEntity
  8
0
  6
Continuous
 62
     7
370
    25
100
AcDbCircle
 10
12.5757190419
 20
7.0797216212
 30
0.0
 40
0.2500000000000019
100
AcDbArc
 50
318.3375892935
 51
85.9495977212
  0
SPLINE
  5
125
330
1F
100
AcDbEntity
  8
0
  6
Continuous
 62
     7
370
    25
100
AcDbSpline
210
0.0
220
0.0
230
1.0
 70
     8
 71
     3
 72
    10
 73
     6
 74
     0
 42
0.00000001
 43
0.00000001
 40
0.4233865436017399
 40
0.4233865436017399
 40
0.4233865436017399
 40
0.4233865436017399
 40
0.432999643489395
 40
0.449175654730915
 40
0.4621596975449645
 40
0.4621596975449645
 40
0.4621596975449645
 40
0.4621596975449645
 10
12.59337753927733
 20
7.329097196315956
 30
0.0
 10
12.52226110585573
 20
7.334133011679939
 30
0.0
 10
12.33146171678454
 20
7.347182972702416
 30
0.0
 10
12.0445187136608
 20
7.364928884778698
 30
0.0
 10
11.82869640697705
 20
7.376657208270691
 30
0.0
 10
11.73257832316987
 20
7.381552351489143
 30
0.0
  0
ARC
  5
126
330
1F
100
AcDbEntity
  8
0
  6
Continuous
 62
     7
370
    25
100
AcDbCircle
 10
11.7290179473
 20
7.311642955
 30
0.0
 40
0.0700000000000052
100
AcDbArc
 50
87.0845347129
 51
177.8825136819
  0
LINE
  5
127
330
1F
100
AcDbEntity
  8
0
  6
Continuous
 62
     7
370
    25
100
AcDbLine
 10
11.6590657458
 20
7.3142293637
 30
0.0
 11
11.6578695374
 21
7.2818766211
 31
0.0
  0
ARC
  5
128
330
1F
100
AcDbEntity
  8
0
  6
Continuous
 62
     7
370
    25
100
AcDbCircle
 10
11.5879173359
 20
7.2844630298
 30
0.0
 40
0.0699999999999999
100
AcDbArc
 50
268.1210751879
 51
357.8825136819
  0
LINE
  5
129
330
1F
100
AcDbEntity
  8
0
  6
Continuous
 62
     7
370
    25
100
AcDbLine
 10
11.5856222076
 20
7.2145006657
 30
0.0
 11
10.5406914392
 21
7.2487798127
 31
0.0
  0
ARC
  5
12A
330
1F
100
AcDbEntity
  8
0
  6
Continuous
 62
     7
370
    25
100
AcDbCircle
 10
10.5429865675
 20
7.3187421768
 30
0.0
 40
0.0700000000000005
100
AcDbArc
 50
178.150076263
 51
268.1210751879
  0
LINE
  5
12B
330
1F
100
AcDbEntity
  8
0
  6
Continuous
 62
     7
370
    25
100
AcDbLine
 10
10.4730230507
 20
7.3210018924
 30
0.0
 11
10.4741314496
 21
7.35531926
 31
0.0
  0
ARC
  5
12C
330
1F
100
AcDbEntity
  8
0
  6
Continuous
 62
     7
370
    25
100
AcDbCircle
 10
4.8886708839
 20
6.9643821425
 30
0.0
 40
0.0700000000000002
100
AcDbArc
 50
8.4730883208
 51
100.5819255504
  0
SPLINE
  5
12D
330
1F
100
AcDbEntity
  8
0
  6
Continuous
 62
     7
370
    25
100
AcDbSpline
210
0.0
220
0.0
230
1.0
 70
     8
 71
     3
 72
    11
 73
     7
 74
     0
 42
0.00000001
 43
0.00000001
 40
0.7732303031293166
 40
0.7732303031293166
 40
0.7732303031293166
 40
0.7732303031293166
 40
0.7869375510453879
 40
0.8039611085501441
 40
0.8209846660549003
 40
0.834562809545485
 40
0.834562809545485
 40
0.834562809545485
 40
0.834562809545485
 10
4.875815995293189
 20
7.033191675552473
 30
0.0
 10
4.777451906786645
 20
7.014815451417345
 30
0.0
 10
4.557179940628353
 20
6.971808713728867
 30
0.0
 10
4.217523940469237
 20
6.898605797007482
 30
0.0
 10
3.88108549604612
 20
6.817775312023032
 30
0.0
 10
3.667429651626209
 20
6.761175759396727
 30
0.0
 10
3.572878993687587
 20
6.734983340018046
 30
0.0
  0
ARC
  5
12E
330
1F
100
AcDbEntity
  8
0
  6
Continuous
 62
     7
370
    25
100
AcDbCircle
 10
3.5915665995
 20
6.6675239197
 30
0.0
 40
0.0700000000000023
100
AcDbArc
 50
105.483793605
 51
199.2154959895
  0
LINE
  5
12F
330
1F
100
AcDbEntity
  8
0
  6
Continuous
 62
     7
370
    25
100
AcDbLine
 10
3.5254664821
 20
6.6444853764
 30
0.0
 11
3.5537242709
 21
6.563410669
 31
0.0
  0
ARC
  5
130
330
1F
100
AcDbEntity
  8
0
  6
Continuous
 62
     7
370
    25
100
AcDbCircle
 10
3.6146197504
 20
6.5288890731
 30
0.0
 40
0.0700000000000005
100
AcDbArc
 50
150.4511358779
 51
237.0266659545
  0
LINE
  5
131
330
1F
100
AcDbEntity
  8
0
  6
Continuous
 62
     7
370
    25
100
AcDbLine
 10
4.9018913594
 20
5.6103364069
 30
0.0
 11
3.5765223448
 21
6.4701643961
 31
0.0
  0
ARC
  5
132
330
1F
100
AcDbEntity
  8
0
  6
Continuous
 62
     7
370
    25
100
AcDbCircle
 10
5.0379535223
 20
5.8200673961
 30
0.0
 40
0.2500000000000002
100
AcDbArc
 50
237.0266659545
 51
294.2016120902
  0
LINE
  5
133
330
1F
100
AcDbEntity
  8
0
  6
Continuous
 62
     7
370
    25
100
AcDbLine
 10
5.1404406966
 20
5.5920402506
 30
0.0
 11
7.4718955086
 21
6.6399164375
 31
0.0
  0
ARC
  5
134
330
1F
100
AcDbEntity
  8
0
  6
Continuous
 62
     7
370
    25
100
AcDbCircle
 10
7.3694083342
 20
6.8679435831
 30
0.0
 40
0.25
100
AcDbArc
 50
294.2016120902
 51
0.0
  0
LINE
  5
135
330
1F
100
AcDbEntity
  8
0
  6
Continuous
 62
     7
370
    25
100
AcDbLine
 10
7.6194083342
 20
6.8679435831
 30
0.0
 11
7.6194083342
 21
7.0981531732
 31
0.0
  0
ARC
  5
136
330
1F
100
AcDbEntity
  8
0
  6
Continuous
 62
     7
370
    25
100
AcDbCircle
 10
7.3694083342
 20
7.0981531732
 30
0.0
 40
0.25
100
AcDbArc
 50
0.0
 51
94.3152472655
  0
SPLINE
  5
137
330
1F
100
AcDbEntity
  8
0
  6
Continuous
 62
     7
370
    25
100
AcDbSpline
210
0.0
220
0.0
230
1.0
 70
     8
 71
     3
 72
    11
 73
     7
 74
     0
 42
0.00000001
 43
0.00000001
 40
0.6598628510593835
 40
0.6598628510593835
 40
0.6598628510593835
 40
0.6598628510593835
 40
0.6647242792743073
 40
0.6817756310582732
 40
0.6988269828422391
 40
0.7126180167330194
 40
0.7126180167330194
 40
0.7126180167330194
 40
0.7126180167330194
 10
7.350597311703643
 20
7.347444459477284
 30
0.0
 10
7.314879349041354
 20
7.344749253359581
 30
0.0
 10
7.153925616825259
 20
7.332288531871751
 30
0.0
 10
6.868217809944498
 20
7.307601374594413
 30
0.0
 10
6.517664473850904
 20
7.27223351078609
 30
0.0
 10
6.292669787785377
 20
7.246371091131566
 30
0.0
 10
6.192127016926791
 20
7.234153279468674
 30
0.0
  0
ARC
  5
138
330
1F
100
AcDbEntity
  8
0
  6
Continuous
 62
     7
370
    25
100
AcDbCircle
 10
6.2005711973
 20
7.1646644615
 30
0.0
 40
0.0700000000000006
100
AcDbArc
 50
96.9285293054
 51
188.4141232996
  0
LINE
  5
139
330
1F
100
AcDbEntity
  8
0
  6
Continuous
 62
     7
370
    25
100
AcDbLine
 10
6.1313246567
 20
7.1544215801
 30
0.0
 11
6.1362879457
 21
7.1208674875
 31
0.0
  0
ARC
  5
13A
330
1F
100
AcDbEntity
  8
0
  6
Continuous
 62
     7
370
    25
100
AcDbCircle
 10
6.0670414052
 20
7.110624606
 30
0.0
 40
0.0700000000000012
100
AcDbArc
 50
278.4142272834
 51
8.4141232996
  0
LINE
  5
13B
330
1F
100
AcDbEntity
  8
0
  6
Continuous
 62
     7
370
    25
100
AcDbLine
 10
6.0772844123
 20
7.041378084
 30
0.0
 11
5.0414974627
 21
6.8881635572
 31
0.0
  0
ARC
  5
13C
330
1F
100
AcDbEntity
  8
0
  6
Continuous
 62
     7
370
    25
100
AcDbCircle
 10
5.0312544556
 20
6.9574100791
 30
0.0
 40
0.0700000000000004
100
AcDbArc
 50
188.4730883208
 51
278.4142272834
  0
LINE
  5
13D
330
1F
100
AcDbEntity
  8
0
  6
Continuous
 62
     7
370
    25
100
AcDbLine
 10
4.962018493
 20
6.9470959392
 30
0.0
 11
4.9579068465
 21
6.9746962825
 31
0.0
  0
ARC
  5
13E
330
1F
100
AcDbEntity
  8
0
  6
Continuous
 62
     7
370
    25
100
AcDbCircle
 10
8.9482266696
 20
5.2553650864
 30
0.0
 40
0.0700000000000003
100
AcDbArc
 50
6.7105347485
 51
96.7105267137
  0
LINE
  5
13F
330
1F
100
AcDbEntity
  8
0
  6
Continuous
 62
     7
370
    25
100
AcDbLine
 10
9.0177471123
 20
5.2635448206
 30
0.0
 11
9.0225490568
 21
5.2227325766
 31
0.0
  0
ARC
  5
140
330
1F
100
AcDbEntity
  8
0
  6
Continuous
 62
     7
370
    25
100
AcDbCircle
 10
9.0920694995
 20
5.2309123107
 30
0.0
 40
0.070000000000002
100
AcDbArc
 50
186.7105347485
 51
277.1158181975
  0
SPLINE
  5
141
330
1F
100
AcDbEntity
  8
0
  6
Continuous
 62
     7
370
    25
100
AcDbSpline
210
0.0
220
0.0
230
1.0
 70
     8
 71
     3
 72
    11
 73
     7
 74
     0
 42
0.00000001
 43
0.00000001
 40
0.416449289043883
 40
0.416449289043883
 40
0.416449289043883
 40
0.416449289043883
 40
0.44157275530087
 40
0.4699736317454042
 40
0.4983745081899384
 40
0.5239400984711441
 40
0.5239400984711441
 40
0.5239400984711441
 40
0.5239400984711441
 10
9.100740779898944
 20
5.161451466414098
 30
0.0
 10
9.279481467099599
 20
5.183764909867265
 30
0.0
 10
9.660089212437464
 20
5.232119802261761
 30
0.0
 10
10.24326228111836
 20
5.308297046561258
 30
0.0
 10
10.82965485567318
 20
5.386566328946739
 30
0.0
 10
11.21419463222359
 20
5.438517997713805
 30
0.0
 10
11.39631682456949
 20
5.463220642693831
 30
0.0
  0
ARC
  5
142
330
1F
100
AcDbEntity
  8
0
  6
Continuous
 62
     7
370
    25
100
AcDbCircle
 10
11.3869083342
 20
5.5325854775
 30
0.0
 40
0.0700000000000003
100
AcDbArc
 50
277.7243312664
 51
0.0
  0
LINE
  5
143
330
1F
100
AcDbEntity
  8
0
  6
Continuous
 62
     7
370
    25
100
AcDbLine
 10
11.4569083342
 20
5.5325854775
 30
0.0
 11
11.4569083342
 21
5.7627406309
 31
0.0
  0
ARC
  5
144
330
1F
100
AcDbEntity
  8
0
  6
Continuous
 62
     7
370
    25
100
AcDbCircle
 10
11.3869083342
 20
5.7627406309
 30
0.0
 40
0.0700000000000003
100
AcDbArc
 50
0.0
 51
78.7682043773
  0
LINE
  5
145
330
1F
100
AcDbEntity
  8
0
  6
Continuous
 62
     7
370
    25
100
AcDbLine
 10
8.3523853534
 20
6.4367094231
 30
0.0
 11
11.4005428426
 21
5.8313999361
 31
0.0
  0
ARC
  5
146
330
1F
100
AcDbEntity
  8
0
  6
Continuous
 62
     7
370
    25
100
AcDbCircle
 10
8.3036906807
 20
6.1914976191
 30
0.0
 40
0.2500000000000003
100
AcDbArc
 50
78.7682043773
 51
114.2016120902
  0
LINE
  5
147
330
1F
100
AcDbEntity
  8
0
  6
Continuous
 62
     7
370
    25
100
AcDbLine
 10
5.7044211599
 20
5.2973418462
 30
0.0
 11
8.2012035064
 21
6.4195247646
 31
0.0
  0
ARC
  5
148
330
1F
100
AcDbEntity
  8
0
  6
Continuous
 62
     7
370
    25
100
AcDbCircle
 10
5.8069083342
 20
5.0693147007
 30
0.0
 40
0.2499999999999996
100
AcDbArc
 50
114.2016120902
 51
179.7084623737
  0
ARC
  5
149
330
1F
100
AcDbEntity
  8
0
  6
Continuous
 62
     7
370
    25
100
AcDbCircle
 10
5.8069083342
 20
5.0718588355
 30
0.0
 40
0.2500000000000002
100
AcDbArc
 50
180.2915376263
 51
274.1276103495
  0
SPLINE
  5
14A
330
1F
100
AcDbEntity
  8
0
  6
Continuous
 62
     7
370
    25
100
AcDbSpline
210
0.0
220
0.0
230
1.0
 70
     8
 71
     3
 72
    11
 73
     7
 74
     0
 42
0.00000001
 43
0.00000001
 40
0.2626789106632353
 40
0.2626789106632353
 40
0.2626789106632353
 40
0.2626789106632353
 40
0.277019377431628
 40
0.3039732115672472
 40
0.3309270457028664
 40
0.3545932929213018
 40
0.3545932929213018
 40
0.3545932929213018
 40
0.3545932929213018
 10
5.82490285778625
 20
4.82250728219441
 30
0.0
 10
5.926437272190393
 20
4.829834541192715
 30
0.0
 10
6.218793151767573
 20
4.852135607737956
 30
0.0
 10
6.70311399255143
 20
4.894191341056145
 30
0.0
 10
7.253640916201382
 20
4.948264677365395
 30
0.0
 10
7.613451650700639
 20
4.986802717078183
 30
0.0
 10
7.781546517377087
 20
5.005388091146522
 30
0.0
  0
ARC
  5
14B
330
1F
100
AcDbEntity
  8
0
  6
Continuous
 62
     7
370
    25
100
AcDbCircle
 10
7.7738538588
 20
5.0749641143
 30
0.0
 40
0.0700000000000001
100
AcDbArc
 50
276.309269877
 51
6.6969288514
  0
LINE
  5
14C
330
1F
100
AcDbEntity
  8
0
  6
Continuous
 62
     7
370
    25
100
AcDbLine
 10
7.8433762419
 20
5.0831273394
 30
0.0
 11
7.8384819128
 21
5.1248100597
 31
0.0
  0
ARC
  5
14D
330
1F
100
AcDbEntity
  8
0
  6
Continuous
 62
     7
370
    25
100
AcDbCircle
 10
7.9080042959
 20
5.1329732848
 30
0.0
 40
0.0700000000000019
100
AcDbArc
 50
96.7105267137
 51
186.6969288514
  0
LINE
  5
14E
330
1F
100
AcDbEntity
  8
0
  6
Continuous
 62
     7
370
    25
100
AcDbLine
 10
7.8998245715
 20
5.2024937286
 30
0.0
 11
8.9400469452
 21
5.3248855302
 31
0.0
  0
MTEXT
  5
14F
330
1F
100
AcDbEntity
  8
PART_NAMES
100
AcDbMText
 10
10.5635802022
 20
3.9284674377
 30
0.0
 40
0.1666666667
 41
0.0
 71
     1
 72
     1
  1
1.2.2.1.3
  7
SLDTEXTSTYLE0
 73
     1
 44
1.0
  0
CIRCLE
  5
150
330
1F
100
AcDbEntity
  8
0
  6
Continuous
 62
     7
370
    25
100
AcDbCircle
 10
9.0777773124
 20
3.2719245498
 30
0.0
 40
0.25
  0
LINE
  5
151
330
1F
100
AcDbEntity
  8
0
  6
Continuous
 62
     7
370
    25
100
AcDbLine
 10
23.1759294238
 20
4.2963019231
 30
0.0
 11
23.509215301
 21
4.2963019231
 31
0.0
  0
LINE
  5
152
330
1F
100
AcDbEntity
  8
0
  6
Continuous
 62
     7
370
    25
100
AcDbLine
 10
21.4597246466
 20
2.9129503692
 30
0.0
 11
21.4004877594
 21
3.0835642162
 31
0.0
  0
LINE
  5
153
330
1F
100
AcDbEntity
  8
0
  6
Continuous
 62
     7
370
    25
100
AcDbLine
 10
21.4004877594
 20
3.0835642162
 30
0.0
 11
21.2233610579
 21
3.0220713207
 31
0.0
  0
LINE
  5
154
330
1F
100
AcDbEntity
  8
0
  6
Continuous
 62
     7
370
    25
100
AcDbLine
 10
21.2233610579
 20
3.0220713207
 30
0.0
 11
21.2822612743
 21
2.8524035187
 31
0.0
  0
LINE
  5
155
330
1F
100
AcDbEntity
  8
0
  6
Continuous
 62
     7
370
    25
100
AcDbLine
 10
18.8657390201
 20
2.2890345384
 30
0.0
 11
18.838851631
 21
2.4674443911
 31
0.0
  0
LINE
  5
156
330
1F
100
AcDbEntity
  8
0
  6
Continuous
 62
     7
370
    25
100
AcDbLine
 10
18.838851631
 20
2.4674443911
 30
0.0
 11
18.6533848526
 21
2.4399100502
 31
0.0
  0
LINE
  5
157
330
1F
100
AcDbEntity
  8
0
  6
Continuous
 62
     7
370
    25
100
AcDbLine
 10
18.6533848526
 20
2.4399100502
 30
0.0
 11
18.6799855616
 21
2.2607277112
 31
0.0
  0
LINE
  5
158
330
1F
100
AcDbEntity
  8
0
  6
Continuous
 62
     7
370
    25
100
AcDbLine
 10
16.2071890218
 20
2.9008454794
 30
0.0
 11
16.2071890218
 21
2.0255499346
 31
0.0
  0
LINE
  5
159
330
1F
100
AcDbEntity
  8
0
  6
Continuous
 62
     7
370
    25
100
AcDbLine
 10
15.9571890218
 20
2.9008454794
 30
0.0
 11
16.2071890218
 21
2.9008454794
 31
0.0
  0
LINE
  5
15A
330
1F
100
AcDbEntity
  8
0
  6
Continuous
 62
     7
370
    25
100
AcDbLine
 10
15.9571890218
 20
2.0144255019
 30
0.0
 11
15.9571890218
 21
2.9008454794
 31
0.0
  0
LINE
  5
15B
330
1F
100
AcDbEntity
  8
0
  6
Continuous
 62
     7
370
    25
100
AcDbLine
 10
13.3726090683
 20
2.0091879828
 30
0.0
 11
13.3785680249
 21
2.1870873195
 31
0.0
  0
LINE
  5
15C
330
1F
100
AcDbEntity
  8
0
  6
Continuous
 62
     7
370
    25
100
AcDbLine
 10
13.3785680249
 20
2.1870873195
 30
0.0
 11
13.1911855582
 21
2.1935666965
 31
0.0
  0
LINE
  5
15D
330
1F
100
AcDbEntity
  8
0
  6
Continuous
 62
     7
370
    25
100
AcDbLine
 10
13.1911855582
 20
2.1935666965
 30
0.0
 11
13.1843691129
 21
2.0159263932
 31
0.0
  0
LINE
  5
15E
330
1F
100
AcDbEntity
  8
0
  6
Continuous
 62
     7
370
    25
100
AcDbLine
 10
10.1659513034
 20
2.9577459169
 30
0.0
 11
10.4903505373
 21
2.2049532913
 31
0.0
  0
LINE
  5
15F
330
1F
100
AcDbEntity
  8
0
  6
Continuous
 62
     7
370
    25
100
AcDbLine
 10
10.0511563394
 20
2.9082775811
 30
0.0
 11
10.1659513034
 21
2.9577459169
 31
0.0
  0
LINE
  5
160
330
1F
100
AcDbEntity
  8
0
  6
Continuous
 62
     7
370
    25
100
AcDbLine
 10
10.1995613467
 20
2.5638926892
 30
0.0
 11
10.0511563394
 21
2.9082775811
 31
0.0
  0
LINE
  5
161
330
1F
100
AcDbEntity
  8
0
  6
Continuous
 62
     7
370
    25
100
AcDbLine
 10
8.9899593244
 20
2.7796969592
 30
0.0
 11
10.1995613467
 21
2.5638926892
 31
0.0
  0
ARC
  5
162
330
1F
100
AcDbEntity
  8
0
  6
Continuous
 62
     7
370
    25
100
AcDbCircle
 10
9.0777773124
 20
3.2719245498
 30
0.0
 40
0.5000000000000009
100
AcDbArc
 50
117.4934664881
 51
259.8843299032
  0
LINE
  5
163
330
1F
100
AcDbEntity
  8
0
  6
Continuous
 62
     7
370
    25
100
AcDbLine
 10
9.7154017761
 20
4.167415947
 30
0.0
 11
8.8469535808
 21
3.7154562904
 31
0.0
  0
LINE
  5
164
330
1F
100
AcDbEntity
  8
0
  6
Continuous
 62
     7
370
    25
100
AcDbLine
 10
9.7483247012
 20
3.9195932665
 30
0.0
 11
9.7154017761
 21
4.167415947
 31
0.0
  0
LINE
  5
165
330
1F
100
AcDbEntity
  8
0
  6
Continuous
 62
     7
370
    25
100
AcDbLine
 10
9.8722360415
 20
3.936054729
 30
0.0
 11
9.7483247012
 21
3.9195932665
 31
0.0
  0
LINE
  5
166
330
1F
100
AcDbEntity
  8
0
  6
Continuous
 62
     7
370
    25
100
AcDbLine
 10
9.8063901913
 20
4.4317000902
 30
0.0
 11
9.8722360415
 21
3.936054729
 31
0.0
  0
LINE
  5
167
330
1F
100
AcDbEntity
  8
0
  6
Continuous
 62
     7
370
    25
100
AcDbLine
 10
9.8062826324
 20
4.4317160707
 30
0.0
 11
9.8063901913
 21
4.4317000902
 31
0.0
  0
LINE
  5
168
330
1F
100
AcDbEntity
  8
0
  6
Continuous
 62
     7
370
    25
100
AcDbLine
 10
12.2696890218
 20
4.0599110876
 30
0.0
 11
12.2696890218
 21
4.7653752764
 31
0.0
  0
LINE
  5
169
330
1F
100
AcDbEntity
  8
0
  6
Continuous
 62
     7
370
    25
100
AcDbLine
 10
12.3696890218
 20
4.0599110876
 30
0.0
 11
12.2696890218
 21
4.0599110876
 31
0.0
  0
LINE
  5
16A
330
1F
100
AcDbEntity
  8
0
  6
Continuous
 62
     7
370
    25
100
AcDbLine
 10
12.3696890218
 20
4.7790161095
 30
0.0
 11
12.3696890218
 21
4.0599110876
 31
0.0
  0
LINE
  5
16B
330
1F
100
AcDbEntity
  8
0
  6
Continuous
 62
     7
370
    25
100
AcDbLine
 10
15.732028979
 20
5.2186615271
 30
0.0
 11
15.7534747059
 21
5.0365648546
 31
0.0
  0
LINE
  5
16C
330
1F
100
AcDbEntity
  8
0
  6
Continuous
 62
     7
370
    25
100
AcDbLine
 10
15.7534747059
 20
5.0365648546
 30
0.0
 11
15.9396877471
 21
5.0584953193
 31
0.0
  0
LINE
  5
16D
330
1F
100
AcDbEntity
  8
0
  6
Continuous
 62
     7
370
    25
100
AcDbLine
 10
15.9396877471
 20
5.0584953193
 30
0.0
 11
15.9183168283
 21
5.2407528255
 31
0.0
  0
LINE
  5
16E
330
1F
100
AcDbEntity
  8
0
  6
Continuous
 62
     7
370
    25
100
AcDbLine
 10
19.2696890218
 20
4.8298418041
 30
0.0
 11
19.2696890218
 21
5.5339637181
 31
0.0
  0
LINE
  5
16F
330
1F
100
AcDbEntity
  8
0
  6
Continuous
 62
     7
370
    25
100
AcDbLine
 10
19.3946890218
 20
4.8298418041
 30
0.0
 11
19.2696890218
 21
4.8298418041
 31
0.0
  0
LINE
  5
170
330
1F
100
AcDbEntity
  8
0
  6
Continuous
 62
     7
370
    25
100
AcDbLine
 10
19.3946890218
 20
5.5391012942
 30
0.0
 11
19.3946890218
 21
4.8298418041
 31
0.0
  0
LINE
  5
171
330
1F
100
AcDbEntity
  8
0
  6
Continuous
 62
     7
370
    25
100
AcDbLine
 10
21.4487328318
 20
5.5063966422
 30
0.0
 11
21.4484985528
 21
5.5043493324
 31
0.0
  0
LINE
  5
172
330
1F
100
AcDbEntity
  8
0
  6
Continuous
 62
     7
370
    25
100
AcDbLine
 10
21.4484985528
 20
5.5043493324
 30
0.0
 11
21.4264881605
 21
5.3173941172
 31
0.0
  0
LINE
  5
173
330
1F
100
AcDbEntity
  8
0
  6
Continuous
 62
     7
370
    25
100
AcDbLine
 10
21.4264881605
 20
5.3173941172
 30
0.0
 11
21.6125438296
 21
5.2955802549
 31
0.0
  0
LINE
  5
174
330
1F
100
AcDbEntity
  8
0
  6
Continuous
 62
     7
370
    25
100
AcDbLine
 10
21.6125438296
 20
5.2955802549
 30
0.0
 11
21.6344986044
 21
5.483064868
 31
0.0
  0
LINE
  5
175
330
1F
100
AcDbEntity
  8
0
  6
Continuous
 62
     7
370
    25
100
AcDbLine
 10
21.6344986044
 20
5.483064868
 30
0.0
 11
21.6350095145
 21
5.4875295941
 31
0.0
  0
LINE
  5
176
330
1F
100
AcDbEntity
  8
0
  6
Continuous
 62
     7
370
    25
100
AcDbLine
 10
23.5087614769
 20
4.6713019231
 30
0.0
 11
23.1759294238
 21
4.6713019231
 31
0.0
  0
LINE
  5
177
330
1F
100
AcDbEntity
  8
0
  6
Continuous
 62
     7
370
    25
100
AcDbLine
 10
23.1759294238
 20
4.6713019231
 30
0.0
 11
23.1759294238
 21
4.2963019231
 31
0.0
  0
ARC
  5
178
330
1F
100
AcDbEntity
  8
0
  6
Continuous
 62
     7
370
    25
100
AcDbCircle
 10
20.8123104256
 20
4.9755883765
 30
0.0
 40
0.0700000000000005
100
AcDbArc
 50
353.2854291307
 51
87.8203741954
  0
SPLINE
  5
179
330
1F
100
AcDbEntity
  8
0
  6
Continuous
 62
     7
370
    25
100
AcDbSpline
210
0.0
220
0.0
230
1.0
 70
     8
 71
     3
 72
    11
 73
     7
 74
     0
 42
0.00000001
 43
0.00000001
 40
0.2266928178036958
 40
0.2266928178036958
 40
0.2266928178036958
 40
0.2266928178036958
 40
0.341847562240871
 40
0.507566168906613
 40
0.673284775572355
 40
0.6738185918863946
 40
0.6738185918863946
 40
0.6738185918863946
 40
0.6738185918863946
 10
20.81497269861119
 20
5.045537731782678
 30
0.0
 10
20.75751210318712
 20
5.047724682518618
 30
0.0
 10
20.61733149433467
 20
5.052140938106187
 30
0.0
 10
20.39365240782762
 20
5.055947354545131
 30
0.0
 10
20.22722332631711
 20
5.056306122445693
 30
0.0
 10
20.14378525668329
 20
5.055916893476651
 30
0.0
 10
20.14351734626758
 20
5.055915637846584
 30
0.0
  0
ARC
  5
17A
330
1F
100
AcDbEntity
  8
0
  6
Continuous
 62
     7
370
    25
100
AcDbCircle
 10
20.1446890218
 20
4.8059183835
 30
0.0
 40
0.2500000000000036
100
AcDbArc
 50
90.2685292267
 51
180.0
  0
LINE
  5
17B
330
1F
100
AcDbEntity
  8
0
  6
Continuous
 62
     7
370
    25
100
AcDbLine
 10
19.8946890218
 20
4.8059183835
 30
0.0
 11
19.8946890218
 21
4.6318820591
 31
0.0
  0
ARC
  5
17C
330
1F
100
AcDbEntity
  8
0
  6
Continuous
 62
     7
370
    25
100
AcDbCircle
 10
20.1446890218
 20
4.6318820591
 30
0.0
 40
0.2499999999999988
100
AcDbArc
 50
180.0
 51
235.7763049601
  0
LINE
  5
17D
330
1F
100
AcDbEntity
  8
0
  6
Continuous
 62
     7
370
    25
100
AcDbLine
 10
21.1627469019
 20
3.6370419745
 30
0.0
 11
20.0040826782
 21
4.4251700465
 31
0.0
  0
ARC
  5
17E
330
1F
100
AcDbEntity
  8
0
  6
Continuous
 62
     7
370
    25
100
AcDbCircle
 10
21.3033532455
 20
3.8437539871
 30
0.0
 40
0.2500000000000003
100
AcDbArc
 50
235.7763049601
 51
289.1454148389
  0
LINE
  5
17F
330
1F
100
AcDbEntity
  8
0
  6
Continuous
 62
     7
370
    25
100
AcDbLine
 10
21.3853449453
 20
3.6075816747
 30
0.0
 11
21.6427100014
 21
3.6969308375
 31
0.0
  0
ARC
  5
180
330
1F
100
AcDbEntity
  8
0
  6
Continuous
 62
     7
370
    25
100
AcDbCircle
 10
21.6656676773
 20
3.63080259
 30
0.0
 40
0.0700000000000007
100
AcDbArc
 50
19.1469291288
 51
109.1454148389
  0
LINE
  5
181
330
1F
100
AcDbEntity
  8
0
  6
Continuous
 62
     7
370
    25
100
AcDbLine
 10
21.731795318
 20
3.6537620137
 30
0.0
 11
21.7380308574
 21
3.635802438
 31
0.0
  0
ARC
  5
182
330
1F
100
AcDbEntity
  8
0
  6
Continuous
 62
     7
370
    25
100
AcDbCircle
 10
21.8041584981
 20
3.6587618617
 30
0.0
 40
0.0700000000000034
100
AcDbArc
 50
199.1469291288
 51
293.4731419593
  0
SPLINE
  5
183
330
1F
100
AcDbEntity
  8
0
  6
Continuous
 62
     7
370
    25
100
AcDbSpline
210
0.0
220
0.0
230
1.0
 70
     8
 71
     3
 72
    11
 73
     7
 74
     0
 42
0.00000001
 43
0.00000001
 40
0.2078782175147159
 40
0.2078782175147159
 40
0.2078782175147159
 40
0.2078782175147159
 40
0.326900889611078
 40
0.4931609614352573
 40
0.6594210332594367
 40
0.7355724026375143
 40
0.7355724026375143
 40
0.7355724026375143
 40
0.7355724026375143
 10
21.83204083810664
 20
3.594554579262024
 30
0.0
 10
21.89019701108695
 20
3.619809194115872
 30
0.0
 10
22.02878926773298
 20
3.682297936426065
 30
0.0
 10
22.24250919610104
 20
3.788712435515658
 30
0.0
 10
22.42778546976979
 20
3.893864489074115
 30
0.0
 10
22.53245023484641
 20
3.96086649225321
 30
0.0
 10
22.56458619392822
 20
3.982286386336738
 30
0.0
  0
ARC
  5
184
330
1F
100
AcDbEntity
  8
0
  6
Continuous
 62
     7
370
    25
100
AcDbCircle
 10
22.4259294238
 20
4.1903111447
 30
0.0
 40
0.2500000000000036
100
AcDbArc
 50
303.685032855
 51
0.0
  0
LINE
  5
185
330
1F
100
AcDbEntity
  8
0
  6
Continuous
 62
     7
370
    25
100
AcDbLine
 10
22.6759294238
 20
4.1903111447
 30
0.0
 11
22.6759294238
 21
4.5747537142
 31
0.0
  0
ARC
  5
186
330
1F
100
AcDbEntity
  8
0
  6
Continuous
 62
     7
370
    25
100
AcDbCircle
 10
22.4259294238
 20
4.5747537142
 30
0.0
 40
0.2500000000000036
100
AcDbArc
 50
0.0
 51
72.6857916907
  0
SPLINE
  5
187
330
1F
100
AcDbEntity
  8
0
  6
Continuous
 62
     7
370
    25
100
AcDbSpline
210
0.0
220
0.0
230
1.0
 70
     8
 71
     3
 72
    10
 73
     6
 74
     0
 42
0.00000001
 43
0.00000001
 40
0.3388922521112505
 40
0.3388922521112505
 40
0.3388922521112505
 40
0.3388922521112505
 40
0.4570528123988468
 40
0.6086668810328177
 40
0.6884775598744359
 40
0.6884775598744359
 40
0.6884775598744359
 40
0.6884775598744359
 10
22.50033233085484
 20
4.813425470884332
 30
0.0
 10
22.46189606354296
 20
4.825407491984922
 30
0.0
 10
22.37297124917586
 20
4.851058421634159
 30
0.0
 10
22.25431957123347
 20
4.88018884976819
 30
0.0
 10
22.17425727535525
 20
4.897422316288254
 30
0.0
 10
22.14657068393121
 20
4.903123484895545
 30
0.0
  0
ARC
  5
188
330
1F
100
AcDbEntity
  8
0
  6
Continuous
 62
     7
370
    25
100
AcDbCircle
 10
22.1324526323
 20
4.8345619752
 30
0.0
 40
0.0700000000000006
100
AcDbArc
 50
78.3644045088
 51
173.3209829556
  0
LINE
  5
189
330
1F
100
AcDbEntity
  8
0
  6
Continuous
 62
     7
370
    25
100
AcDbLine
 10
22.0629277006
 20
4.8427034658
 30
0.0
 11
22.0591314652
 21
4.8102851998
 31
0.0
  0
ARC
  5
18A
330
1F
100
AcDbEntity
  8
0
  6
Continuous
 62
     7
370
    25
100
AcDbCircle
 10
21.9896065335
 20
4.8184266904
 30
0.0
 40
0.0700000000000007
100
AcDbArc
 50
263.3129572958
 51
353.3209829556
  0
LINE
  5
18B
330
1F
100
AcDbEntity
  8
0
  6
Continuous
 62
     7
370
    25
100
AcDbLine
 10
21.9814553043
 20
4.7489028998
 30
0.0
 11
20.9409851408
 21
4.8708915123
 31
0.0
  0
ARC
  5
18C
330
1F
100
AcDbEntity
  8
0
  6
Continuous
 62
     7
370
    25
100
AcDbCircle
 10
20.9491363699
 20
4.9404153029
 30
0.0
 40
0.0700000000000002
100
AcDbArc
 50
173.2854291307
 51
263.3129572958
  0
LINE
  5
18D
330
1F
100
AcDbEntity
  8
0
  6
Continuous
 62
     7
370
    25
100
AcDbLine
 10
20.8796165036
 20
4.9485999343
 30
0.0
 11
20.8818302919
 21
4.9674037451
 31
0.0
  0
ARC
  5
18E
330
1F
100
AcDbEntity
  8
0
  6
Continuous
 62
     7
370
    25
100
AcDbCircle
 10
13.8227067514
 20
2.6019867248
 30
0.0
 40
0.0700000000000027
100
AcDbArc
 50
358.0815248504
 51
88.0195953949
  0
LINE
  5
18F
330
1F
100
AcDbEntity
  8
0
  6
Continuous
 62
     7
370
    25
100
AcDbLine
 10
13.8926675145
 20
2.5996433032
 30
0.0
 11
13.891555213
 21
2.5664365334
 31
0.0
  0
ARC
  5
190
330
1F
100
AcDbEntity
  8
0
  6
Continuous
 62
     7
370
    25
100
AcDbCircle
 10
13.9615159761
 20
2.5640931118
 30
0.0
 40
0.0700000000000009
100
AcDbArc
 50
178.0815248504
 51
268.949532484
  0
SPLINE
  5
191
330
1F
100
AcDbEntity
  8
0
  6
Continuous
 62
     7
370
    25
100
AcDbSpline
210
0.0
220
0.0
230
1.0
 70
     8
 71
     3
 72
    11
 73
     7
 74
     0
 42
0.00000001
 43
0.00000001
 40
0.1564394858135008
 40
0.1564394858135008
 40
0.1564394858135008
 40
0.1564394858135008
 40
0.3121329771692029
 40
0.5022821901023481
 40
0.6924314030354932
 40
0.7633578991681621
 40
0.7633578991681621
 40
0.7633578991681621
 40
0.7633578991681621
 10
13.96023265984893
 20
2.494104876377463
 30
0.0
 10
14.06725931724879
 20
2.492142417244005
 30
0.0
 10
14.30502698863134
 20
2.488814382941531
 30
0.0
 10
14.67342549285887
 20
2.487313297962866
 30
0.0
 10
14.98350650061497
 20
2.489538224642617
 30
0.0
 10
15.16283786889435
 20
2.492269786623653
 30
0.0
 10
15.2115529265059
 20
2.493120267687474
 30
0.0
  0
ARC
  5
192
330
1F
100
AcDbEntity
  8
0
  6
Continuous
 62
     7
370
    25
100
AcDbCircle
 10
15.2071890218
 20
2.7430821775
 30
0.0
 40
0.2500000000000005
100
AcDbArc
 50
271.0001840926
 51
0.0
  0
LINE
  5
193
330
1F
100
AcDbEntity
  8
0
  6
Continuous
 62
     7
370
    25
100
AcDbLine
 10
15.4571890218
 20
2.7430821775
 30
0.0
 11
15.4571890218
 21
2.8084192475
 31
0.0
  0
ARC
  5
194
330
1F
100
AcDbEntity
  8
0
  6
Continuous
 62
     7
370
    25
100
AcDbCircle
 10
15.2071890218
 20
2.8084192475
 30
0.0
 40
0.2500000000000005
100
AcDbArc
 50
0.0
 51
79.2230189475
  0
LINE
  5
195
330
1F
100
AcDbEntity
  8
0
  6
Continuous
 62
     7
370
    25
100
AcDbLine
 10
15.2539356866
 20
3.0540098608
 30
0.0
 11
12.6192731056
 21
3.5555017009
 31
0.0
  0
ARC
  5
196
330
1F
100
AcDbEntity
  8
0
  6
Continuous
 62
     7
370
    25
100
AcDbCircle
 10
12.5725264408
 20
3.3099110876
 30
0.0
 40
0.2499999999999996
100
AcDbArc
 50
79.2230189475
 51
90.0
  0
LINE
  5
197
330
1F
100
AcDbEntity
  8
0
  6
Continuous
 62
     7
370
    25
100
AcDbLine
 10
12.5725264408
 20
3.5599110876
 30
0.0
 11
12.2281540461
 21
3.5599110876
 31
0.0
  0
ARC
  5
198
330
1F
100
AcDbEntity
  8
0
  6
Continuous
 62
     7
370
    25
100
AcDbCircle
 10
12.2281540461
 20
3.3099110876
 30
0.0
 40
0.2500000000000018
100
AcDbArc
 50
90.0
 51
135.2654441477
  0
LINE
  5
199
330
1F
100
AcDbEntity
  8
0
  6
Continuous
 62
     7
370
    25
100
AcDbLine
 10
12.0505602666
 20
3.4858669045
 30
0.0
 11
11.5912223631
 21
3.0222530509
 31
0.0
  0
ARC
  5
19A
330
1F
100
AcDbEntity
  8
0
  6
Continuous
 62
     7
370
    25
100
AcDbCircle
 10
11.7688161426
 20
2.846297234
 30
0.0
 40
0.2500000000000049
100
AcDbArc
 50
135.2654441477
 51
265.8035500833
  0
SPLINE
  5
19B
330
1F
100
AcDbEntity
  8
0
  6
Continuous
 62
     7
370
    25
100
AcDbSpline
210
0.0
220
0.0
230
1.0
 70
     8
 71
     3
 72
    10
 73
     6
 74
     0
 42
0.00000001
 43
0.00000001
 40
0.4695071523182468
 40
0.4695071523182468
 40
0.4695071523182468
 40
0.4695071523182468
 40
0.5608358913693606
 40
0.7251306299726432
 40
0.858222555125119
 40
0.858222555125119
 40
0.858222555125119
 40
0.858222555125119
 10
11.7505220419194
 20
2.596967480713543
 30
0.0
 10
11.81960793526255
 20
2.591898433509856
 30
0.0
 10
12.01300067364918
 20
2.578174962021097
 30
0.0
 10
12.30719938022961
 20
2.559305849301694
 30
0.0
 10
12.53235146093159
 20
2.546688585394673
 30
0.0
 10
12.63313610919328
 20
2.541411887867149
 30
0.0
  0
ARC
  5
19C
330
1F
100
AcDbEntity
  8
0
  6
Continuous
 62
     7
370
    25
100
AcDbCircle
 10
12.6367960278
 20
2.6113161438
 30
0.0
 40
0.0700000000000001
100
AcDbArc
 50
267.0029492714
 51
357.8025142707
  0
LINE
  5
19D
330
1F
100
AcDbEntity
  8
0
  6
Continuous
 62
     7
370
    25
100
AcDbLine
 10
12.7067445498
 20
2.6086320666
 30
0.0
 11
12.7079788096
 21
2.6407975528
 31
0.0
  0
ARC
  5
19E
330
1F
100
AcDbEntity
  8
0
  6
Continuous
 62
     7
370
    25
100
AcDbCircle
 10
12.7779273316
 20
2.6381134757
 30
0.0
 40
0.07
100
AcDbArc
 50
88.0195953949
 51
177.8025142707
  0
LINE
  5
19F
330
1F
100
AcDbEntity
  8
0
  6
Continuous
 62
     7
370
    25
100
AcDbLine
 10
12.7803463705
 20
2.708071665
 30
0.0
 11
13.8251257903
 21
2.6719449141
 31
0.0
  0
ARC
  5
1A0
330
1F
100
AcDbEntity
  8
0
  6
Continuous
 62
     7
370
    25
100
AcDbCircle
 10
19.3426211214
 20
2.9496234338
 30
0.0
 40
0.0700000000000018
100
AcDbArc
 50
188.5703077096
 51
280.6780030908
  0
SPLINE
  5
1A1
330
1F
100
AcDbEntity
  8
0
  6
Continuous
 62
     7
370
    25
100
AcDbSpline
210
0.0
220
0.0
230
1.0
 70
     8
 71
     3
 72
    11
 73
     7
 74
     0
 42
0.00000001
 43
0.00000001
 40
0.1712774187429635
 40
0.1712774187429635
 40
0.1712774187429635
 40
0.1712774187429635
 40
0.3157386491967191
 40
0.4982142534619101
 40
0.6806898577271011
 40
0.8238642418914763
 40
0.8238642418914763
 40
0.8238642418914763
 40
0.8238642418914763
 10
19.35559137648052
 20
2.880835553456911
 30
0.0
 10
19.44599164092945
 20
2.897880917910122
 30
0.0
 10
19.65031161187368
 20
2.938061551999015
 30
0.0
 10
19.96689921546116
 20
3.006538167903154
 30
0.0
 10
20.28078462705402
 20
3.081924506791093
 30
0.0
 10
20.48026785364029
 20
3.134587438832749
 30
0.0
 10
20.56773047795895
 20
3.158681592136589
 30
0.0
  0
ARC
  5
1A2
330
1F
100
AcDbEntity
  8
0
  6
Continuous
 62
     7
370
    25
100
AcDbCircle
 10
20.5491394464
 20
3.226167691
 30
0.0
 40
0.07
100
AcDbArc
 50
285.4017857622
 51
19.144456303
  0
LINE
  5
1A3
330
1F
100
AcDbEntity
  8
0
  6
Continuous
 62
     7
370
    25
100
AcDbLine
 10
20.6152680779
 20
3.2491242607
 30
0.0
 11
20.5870409356
 21
3.3304352895
 31
0.0
  0
ARC
  5
1A4
330
1F
100
AcDbEntity
  8
0
  6
Continuous
 62
     7
370
    25
100
AcDbCircle
 10
20.5335885734
 20
3.3756331322
 30
0.0
 40
0.0700000000000024
100
AcDbArc
 50
319.7830611693
 51
55.7763049601
  0
LINE
  5
1A5
330
1F
100
AcDbEntity
  8
0
  6
Continuous
 62
     7
370
    25
100
AcDbLine
 10
20.5729583496
 20
3.4335124957
 30
0.0
 11
19.4205510256
 21
4.2173845993
 31
0.0
  0
ARC
  5
1A6
330
1F
100
AcDbEntity
  8
0
  6
Continuous
 62
     7
370
    25
100
AcDbCircle
 10
19.279944682
 20
4.0106725867
 30
0.0
 40
0.2500000000000015
100
AcDbArc
 50
55.7763049601
 51
113.7346685226
  0
LINE
  5
1A7
330
1F
100
AcDbEntity
  8
0
  6
Continuous
 62
     7
370
    25
100
AcDbLine
 10
19.179319244
 20
4.2395273905
 30
0.0
 11
16.8565635838
 21
3.2182322208
 31
0.0
  0
ARC
  5
1A8
330
1F
100
AcDbEntity
  8
0
  6
Continuous
 62
     7
370
    25
100
AcDbCircle
 10
16.9571890218
 20
2.989377417
 30
0.0
 40
0.2500000000000002
100
AcDbArc
 50
113.7346685226
 51
180.0
  0
LINE
  5
1A9
330
1F
100
AcDbEntity
  8
0
  6
Continuous
 62
     7
370
    25
100
AcDbLine
 10
16.7071890218
 20
2.8239465885
 30
0.0
 11
16.7071890218
 21
2.989377417
 31
0.0
  0
ARC
  5
1AA
330
1F
100
AcDbEntity
  8
0
  6
Continuous
 62
     7
370
    25
100
AcDbCircle
 10
16.9571890218
 20
2.8239465885
 30
0.0
 40
0.2500000000000012
100
AcDbArc
 50
180.0
 51
274.4099422872
  0
SPLINE
  5
1AB
330
1F
100
AcDbEntity
  8
0
  6
Continuous
 62
     7
370
    25
100
AcDbSpline
210
0.0
220
0.0
230
1.0
 70
     8
 71
     3
 72
    11
 73
     7
 74
     0
 42
0.00000001
 43
0.00000001
 40
0.2770750024989572
 40
0.2770750024989572
 40
0.2770750024989572
 40
0.2770750024989572
 40
0.3200501709401154
 40
0.5028869077009611
 40
0.6857236444618069
 40
0.8312354715460448
 40
0.8312354715460448
 40
0.8312354715460448
 40
0.8312354715460448
 10
16.97641203206204
 20
2.574686732409812
 30
0.0
 10
17.00397429193786
 20
2.576812343864785
 30
0.0
 10
17.14877298395173
 20
2.588206485978981
 30
0.0
 10
17.41050457799559
 20
2.610990670798679
 30
0.0
 10
17.73739982840717
 20
2.644080014112638
 30
0.0
 10
17.94690136830664
 20
2.668100314695791
 30
0.0
 10
18.03968121184235
 20
2.679317002779919
 30
0.0
  0
ARC
  5
1AC
330
1F
100
AcDbEntity
  8
0
  6
Continuous
 62
     7
370
    25
100
AcDbCircle
 10
18.0312796846
 20
2.7488109906
 30
0.0
 40
0.0700000000000005
100
AcDbArc
 50
276.8933617609
 51
8.4442329548
  0
LINE
  5
1AD
330
1F
100
AcDbEntity
  8
0
  6
Continuous
 62
     7
370
    25
100
AcDbLine
 10
18.1005208328
 20
2.7590902605
 30
0.0
 11
18.0956613582
 21
2.791823675
 31
0.0
  0
ARC
  5
1AE
330
1F
100
AcDbEntity
  8
0
  6
Continuous
 62
     7
370
    25
100
AcDbCircle
 10
18.1649025064
 20
2.802102945
 30
0.0
 40
0.07
100
AcDbArc
 50
98.4444350539
 51
188.4442329548
  0
LINE
  5
1AF
330
1F
100
AcDbEntity
  8
0
  6
Continuous
 62
     7
370
    25
100
AcDbLine
 10
18.1546229922
 20
2.8713440569
 30
0.0
 11
19.1898313914
 21
3.0250307777
 31
0.0
  0
ARC
  5
1B0
330
1F
100
AcDbEntity
  8
0
  6
Continuous
 62
     7
370
    25
100
AcDbCircle
 10
19.2001109056
 20
2.9557896657
 30
0.0
 40
0.07
100
AcDbArc
 50
8.5703077096
 51
98.4444350539
  0
LINE
  5
1B1
330
1F
100
AcDbEntity
  8
0
  6
Continuous
 62
     7
370
    25
100
AcDbLine
 10
19.2693292675
 20
2.9662212702
 30
0.0
 11
19.2734027595
 21
2.9391918293
 31
0.0
  0
ARC
  5
1B2
330
1F
100
AcDbEntity
  8
0
  6
Continuous
 62
     7
370
    25
100
AcDbCircle
 10
15.2329122914
 20
4.5833388176
 30
0.0
 40
0.0700000000000011
100
AcDbArc
 50
6.7168471624
 51
97.1231459688
  0
SPLINE
  5
1B3
330
1F
100
AcDbEntity
  8
0
  6
Continuous
 62
     7
370
    25
100
AcDbSpline
210
0.0
220
0.0
230
1.0
 70
     8
 71
     3
 72
    11
 73
     7
 74
     0
 42
0.00000001
 43
0.00000001
 40
0.1104303512263331
 40
0.1104303512263331
 40
0.1104303512263331
 40
0.1104303512263331
 40
0.2959675263359525
 40
0.5057082247489924
 40
0.7154489231620322
 40
0.8503094695035875
 40
0.8503094695035875
 40
0.8503094695035875
 40
0.8503094695035875
 10
15.22423212746417
 20
4.652798552347392
 30
0.0
 10
15.04548690505254
 20
4.630461325704842
 30
0.0
 10
14.66483484741524
 20
4.582024391438848
 30
0.0
 10
14.0819824734874
 20
4.505721402431104
 30
0.0
 10
13.54804047089374
 20
4.434387267888015
 30
0.0
 10
13.21602948420747
 20
4.389511379213727
 30
0.0
 10
13.08610241833204
 20
4.371896454503573
 30
0.0
  0
ARC
  5
1B4
330
1F
100
AcDbEntity
  8
0
  6
Continuous
 62
     7
370
    25
100
AcDbCircle
 10
13.1196890218
 20
4.1241628474
 30
0.0
 40
0.2499999999999991
100
AcDbArc
 50
97.7208278702
 51
168.5152658057
  0
ARC
  5
1B5
330
1F
100
AcDbEntity
  8
0
  6
Continuous
 62
     7
370
    25
100
AcDbCircle
 10
13.1196890218
 20
4.2237162662
 30
0.0
 40
0.2500000000000001
100
AcDbArc
 50
191.4847341943
 51
259.2230189475
  0
LINE
  5
1B6
330
1F
100
AcDbEntity
  8
0
  6
Continuous
 62
     7
370
    25
100
AcDbLine
 10
15.9763651113
 20
3.4254769645
 30
0.0
 11
13.0729423569
 21
3.978125653
 31
0.0
  0
ARC
  5
1B7
330
1F
100
AcDbEntity
  8
0
  6
Continuous
 62
     7
370
    25
100
AcDbCircle
 10
16.0231117761
 20
3.6710675778
 30
0.0
 40
0.2499999999999998
100
AcDbArc
 50
259.2230189475
 51
293.7346685226
  0
LINE
  5
1B8
330
1F
100
AcDbEntity
  8
0
  6
Continuous
 62
     7
370
    25
100
AcDbLine
 10
18.6203144598
 20
4.5399357612
 30
0.0
 11
16.1237372141
 21
3.442212774
 31
0.0
  0
ARC
  5
1B9
330
1F
100
AcDbEntity
  8
0
  6
Continuous
 62
     7
370
    25
100
AcDbCircle
 10
18.5196890218
 20
4.768790565
 30
0.0
 40
0.2499999999999994
100
AcDbArc
 50
293.7346685226
 51
356.6960669137
  0
ARC
  5
1BA
330
1F
100
AcDbEntity
  8
0
  6
Continuous
 62
     7
370
    25
100
AcDbCircle
 10
18.5196890218
 20
4.7399742859
 30
0.0
 40
0.2499999999999998
100
AcDbArc
 50
3.3039330863
 51
93.9797968647
  0
SPLINE
  5
1BB
330
1F
100
AcDbEntity
  8
0
  6
Continuous
 62
     7
370
    25
100
AcDbSpline
210
0.0
220
0.0
230
1.0
 70
     8
 71
     3
 72
    11
 73
     7
 74
     0
 42
0.00000001
 43
0.00000001
 40
0.1889117682233694
 40
0.1889117682233694
 40
0.1889117682233694
 40
0.1889117682233694
 40
0.2981283536127728
 40
0.5025203305540408
 40
0.7069123074953088
 40
0.8863500631802393
 40
0.8863500631802393
 40
0.8863500631802393
 40
0.8863500631802393
 10
18.50233784248206
 20
4.989371432164202
 30
0.0
 10
18.40010144202649
 20
4.982258591701314
 30
0.0
 10
18.10659204481095
 20
4.960542293590459
 30
0.0
 10
17.62145999533396
 20
4.91916466559762
 30
0.0
 10
17.07074803488407
 20
4.865594762594003
 30
0.0
 10
16.71130551798125
 20
4.827276140806719
 30
0.0
 10
16.54336515770009
 20
4.808766444814396
 30
0.0
  0
ARC
  5
1BC
330
1F
100
AcDbEntity
  8
0
  6
Continuous
 62
     7
370
    25
100
AcDbCircle
 10
16.5510338327
 20
4.7391877741
 30
0.0
 40
0.0700000000000074
100
AcDbArc
 50
96.2895198104
 51
186.6877768026
  0
LINE
  5
1BD
330
1F
100
AcDbEntity
  8
0
  6
Continuous
 62
     7
370
    25
100
AcDbLine
 10
16.4815101465
 20
4.7310356541
 30
0.0
 11
16.4863374259
 21
4.68986719
 31
0.0
  0
ARC
  5
1BE
330
1F
100
AcDbEntity
  8
0
  6
Continuous
 62
     7
370
    25
100
AcDbCircle
 10
16.4168137397
 20
4.6817150701
 30
0.0
 40
0.0700000000000003
100
AcDbArc
 50
276.7168315539
 51
6.6877768026
  0
LINE
  5
1BF
330
1F
100
AcDbEntity
  8
0
  6
Continuous
 62
     7
370
    25
100
AcDbLine
 10
16.4250011142
 20
4.6121955268
 30
0.0
 11
15.3849074451
 21
4.4897028304
 31
0.0
  0
ARC
  5
1C0
330
1F
100
AcDbEntity
  8
0
  6
Continuous
 62
     7
370
    25
100
AcDbCircle
 10
15.3767200706
 20
4.5592223737
 30
0.0
 40
0.0699999999999994
100
AcDbArc
 50
186.7168471624
 51
276.7168315539
  0
LINE
  5
1C1
330
1F
100
AcDbEntity
  8
0
  6
Continuous
 62
     7
370
    25
100
AcDbLine
 10
15.3072005296
 20
4.5510349803
 30
0.0
 11
15.3024318325
 21
4.591526211
 31
0.0
  0
SPLINE
  5
1C2
330
1F
100
AcDbEntity
  8
0
  6
Continuous
 62
     7
370
    25
100
AcDbSpline
210
0.0
220
0.0
230
1.0
 70
     8
 71
     3
 72
    16
 73
    12
 74
     0
 42
0.00000001
 43
0.00000001
 40
0.5569343847213211
 40
0.5569343847213211
 40
0.5569343847213211
 40
0.5569343847213211
 40
0.571381784358444
 40
0.586466040595284
 40
0.6014845156648216
 40
0.6164243286604671
 40
0.6312694223075201
 40
0.646006523946737
 40
0.6606206840695299
 40
0.6750981875563146
 40
0.6759046401425293
 40
0.6759046401425293
 40
0.6759046401425293
 40
0.6759046401425293
 10
12.26968902176405
 20
4.765375276405948
 30
0.0
 10
12.16998563899423
 20
4.751773768151915
 30
0.0
 10
11.96618462056212
 20
4.723965481302502
 30
0.0
 10
11.65874663897891
 20
4.681963201788759
 30
0.0
 10
11.34789470102931
 20
4.639612742650522
 30
0.0
 10
11.03868382164241
 20
4.597556781236306
 30
0.0
 10
10.73139911943329
 20
4.555880583709853
 30
0.0
 10
10.42633506513587
 20
4.514708551978965
 30
0.0
 10
10.12377946808705
 20
4.474092642007665
 30
0.0
 10
9.91737068227207
 20
4.446523670756664
 30
0.0
 10
9.811850386723973
 20
4.432458138810994
 30
0.0
 10
9.80628263238386
 20
4.431716070613874
 30
0.0
  0
SPLINE
  5
1C3
330
1F
100
AcDbEntity
  8
0
  6
Continuous
 62
     7
370
    25
100
AcDbSpline
210
0.0
220
0.0
230
1.0
 70
     8
 71
     3
 72
    15
 73
    11
 74
     0
 42
0.00000001
 43
0.00000001
 40
0.4945571489766152
 40
0.4945571489766152
 40
0.4945571489766152
 40
0.4945571489766152
 40
0.5094578326172675
 40
0.5245323463192195
 40
0.5395793198874003
 40
0.5545829838118859
 40
0.5695295460034178
 40
0.5844034168259592
 40
0.5991909919195342
 40
0.6132796384522682
 40
0.6132796384522682
 40
0.6132796384522682
 40
0.6132796384522682
 10
13.37260906833765
 20
2.009187982785404
 30
0.0
 10
13.48070229597278
 20
2.005576516318023
 30
0.0
 10
13.69817977422897
 20
1.999207834845973
 30
0.0
 10
14.02489682706664
 20
1.992434597682603
 30
0.0
 10
14.35240824039886
 20
1.98850573395697
 30
0.0
 10
14.67901335972408
 20
1.987556791845187
 30
0.0
 10
15.00435712655901
 20
1.989604744525664
 30
0.0
 10
15.32809885312748
 20
1.994719912112255
 30
0.0
 10
15.6455498338835
 20
2.002861188285006
 30
0.0
 10
15.85501273104727
 20
2.010295949299104
 30
0.0
 10
15.95718902176416
 20
2.014425501910885
 30
0.0
  0
SPLINE
  5
1C4
330
1F
100
AcDbEntity
  8
0
  6
Continuous
 62
     7
370
    25
100
AcDbSpline
210
0.0
220
0.0
230
1.0
 70
     8
 71
     3
 72
    25
 73
    21
 74
     0
 42
0.00000001
 43
0.00000001
 40
0.0044998525703008
 40
0.0044998525703008
 40
0.0044998525703008
 40
0.0044998525703008
 40
0.0072932311239495
 40
0.0110281363882623
 40
0.0149010811011363
 40
0.0189632717822913
 40
0.0232584753969336
 40
0.0278206260463835
 40
0.0326790824605065
 40
0.0378531598225876
 40
0.0433618746831092
 40
0.0492146790147487
 40
0.0554223461664068
 40
0.0619887859792213
 40
0.0689180360697538
 40
0.0762111572881393
 40
0.0838683921906773
 40
0.0918874108905954
 40
0.1002659122360325
 40
0.1064736267542547
 40
0.1064736267542547
 40
0.1064736267542547
 40
0.1064736267542547
 10
23.5087614768948
 20
4.671301923085763
 30
0.0
 10
23.50238887879242
 20
4.68968893270454
 30
0.0
 10
23.4848491256188
 20
4.731812960182805
 30
0.0
 10
23.44986566585281
 20
4.795420577345514
 30
0.0
 10
23.4019526954764
 20
4.861340645763361
 30
0.0
 10
23.34432668329099
 20
4.92428614067775
 30
0.0
 10
23.27711490401244
 20
4.984322533620539
 30
0.0
 10
23.20038327000453
 20
5.041417542246909
 30
0.0
 10
23.11423221188242
 20
5.095545185597473
 30
0.0
 10
23.01878687486655
 20
5.146762919144415
 30
0.0
 10
22.91415454010005
 20
5.195038900788398
 30
0.0
 10
22.80043061133921
 20
5.240358044840426
 30
0.0
 10
22.67773899308859
 20
5.28265976794474
 30
0.0
 10
22.54622968071887
 20
5.322008499841947
 30
0.0
 10
22.40602770491906
 20
5.358308345012428
 30
0.0
 10
22.25729249041479
 20
5.391610043272562
 30
0.0
 10
22.10016709178221
 20
5.421828585580339
 30
0.0
 10
21.93482272744909
 20
5.448994675700417
 30
0.0
 10
21.77886065682089
 20
5.470670707551538
 30
0.0
 10
21.67797949456645
 20
5.482723663697657
 30
0.0
 10
21.63500951450483
 20
5.487529594088299
 30
0.0
  0
SPLINE
  5
1C5
330
1F
100
AcDbEntity
  8
0
  6
Continuous
 62
     7
370
    25
100
AcDbSpline
210
0.0
220
0.0
230
1.0
 70
     8
 71
     3
 72
    19
 73
    15
 74
     0
 42
0.00000001
 43
0.00000001
 40
0.3898178018222085
 40
0.3898178018222085
 40
0.3898178018222085
 40
0.3898178018222085
 40
0.390597192149141
 40
0.4053325934630905
 40
0.4201748233506162
 40
0.4351095326230947
 40
0.4501242755410936
 40
0.465203067542348
 40
0.4803331538128418
 40
0.4955005832201683
 40
0.5106897747770075
 40
0.5258873342970727
 40
0.5410783141011695
 40
0.5521042652216226
 40
0.5521042652216226
 40
0.5521042652216226
 40
0.5521042652216226
 10
15.73202897904189
 20
5.218661527135042
 30
0.0
 10
15.72663888824908
 20
5.218016945877184
 30
0.0
 10
15.61934308008288
 20
5.205176910755848
 30
0.0
 10
15.4094433218496
 20
5.179714763745681
 30
0.0
 10
15.1017776616953
 20
5.141490285704109
 30
0.0
 10
14.7922779249988
 20
5.102256624677311
 30
0.0
 10
14.48122247704198
 20
5.062198511557574
 30
0.0
 10
14.16890251906408
 20
5.021311375554592
 30
0.0
 10
13.85558073356147
 20
4.979886524741685
 30
0.0
 10
13.54155927833981
 20
4.937889839223963
 30
0.0
 10
13.22711148840239
 20
4.895537309945799
 30
0.0
 10
12.91252844251511
 20
4.852960578921982
 30
0.0
 10
12.62670897967032
 20
4.814063852795894
 30
0.0
 10
12.44578081480016
 20
4.789394505256606
 30
0.0
 10
12.36968902176414
 20
4.779016109491914
 30
0.0
  0
SPLINE
  5
1C6
330
1F
100
AcDbEntity
  8
0
  6
Continuous
 62
     7
370
    25
100
AcDbSpline
210
0.0
220
0.0
230
1.0
 70
     8
 71
     3
 72
    16
 73
    12
 74
     0
 42
0.00000001
 43
0.00000001
 40
0.6247721303857672
 40
0.6247721303857672
 40
0.6247721303857672
 40
0.6247721303857672
 40
0.6284474749157202
 40
0.642888674967953
 40
0.657186053978501
 40
0.6713255457749994
 40
0.6852940137983433
 40
0.6990781473906603
 40
0.7126650949254639
 40
0.726042644716473
 40
0.7388915053353642
 40
0.7388915053353642
 40
0.7388915053353642
 40
0.7388915053353642
 10
16.20718902176443
 20
2.02554993455667
 30
0.0
 10
16.23383427209539
 20
2.026846314644887
 30
0.0
 10
16.36516566762148
 20
2.033413660964794
 30
0.0
 10
16.60006089765478
 20
2.046752411905445
 30
0.0
 10
16.91057999397196
 20
2.067730702308612
 30
0.0
 10
17.21742183220652
 20
2.091953105389674
 30
0.0
 10
17.52024928090531
 20
2.119426061090185
 30
0.0
 10
17.81874497367593
 20
2.150035052231078
 30
0.0
 10
18.11257658301239
 20
2.183863331158726
 30
0.0
 10
18.39922457714405
 20
2.220532619853713
 30
0.0
 10
18.58772596783248
 20
2.247096139755807
 30
0.0
 10
18.67998556161995
 20
2.260727711243228
 30
0.0
  0
SPLINE
  5
1C7
330
1F
100
AcDbEntity
  8
0
  6
Continuous
 62
     7
370
    25
100
AcDbSpline
210
0.0
220
0.0
230
1.0
 70
     8
 71
     3
 72
    16
 73
    12
 74
     0
 42
0.00000001
 43
0.00000001
 40
0.3618612353468706
 40
0.3618612353468706
 40
0.3618612353468706
 40
0.3618612353468706
 40
0.3749827205263407
 40
0.3896404545049333
 40
0.4044033167265684
 40
0.4192566007030327
 40
0.4341867492519412
 40
0.4491772649888276
 40
0.4642147823367679
 40
0.4792840088618457
 40
0.4859067818728671
 40
0.4859067818728671
 40
0.4859067818728671
 40
0.4859067818728671
 10
10.4903505372569
 20
2.204953291348037
 30
0.0
 10
10.58511104324817
 20
2.195413302877842
 30
0.0
 10
10.78578825523357
 20
2.175830096861515
 30
0.0
 10
11.09330411089417
 20
2.147868148797072
 30
0.0
 10
11.41353428881169
 20
2.121008605625402
 30
0.0
 10
11.73592347727124
 20
2.096335270123009
 30
0.0
 10
12.06013173593688
 20
2.073886150269316
 30
0.0
 10
12.38583854432484
 20
2.053858607632923
 30
0.0
 10
12.71269698359585
 20
2.036267673026806
 30
0.0
 10
12.97901265611456
 20
2.024050930612106
 30
0.0
 10
13.13633407360066
 20
2.017760088976809
 30
0.0
 10
13.18436911285855
 20
2.015926393227257
 30
0.0
  0
SPLINE
  5
1C8
330
1F
100
AcDbEntity
  8
0
  6
Continuous
 62
     7
370
    25
100
AcDbSpline
210
0.0
220
0.0
230
1.0
 70
     8
 71
     3
 72
    17
 73
    13
 74
     0
 42
0.00000001
 43
0.00000001
 40
0.1154340667474236
 40
0.1154340667474236
 40
0.1154340667474236
 40
0.1154340667474236
 40
0.1180845294733211
 40
0.1275148426545771
 40
0.1372852704494669
 40
0.1473879174782919
 40
0.1578164805455192
 40
0.1685634728364041
 40
0.1796191282132157
 40
0.1909773731750177
 40
0.2026269738049838
 40
0.2138147627096453
 40
0.2138147627096453
 40
0.2138147627096453
 40
0.2138147627096453
 10
21.44873283177731
 20
5.50639664220054
 30
0.0
 10
21.43034816521512
 20
5.508072887193102
 30
0.0
 10
21.34652938440754
 20
5.515475361179353
 30
0.0
 10
21.19476153460456
 20
5.526979012518871
 30
0.0
 10
20.99099617255045
 20
5.538821710274085
 30
0.0
 10
20.7801199137833
 20
5.547653703358964
 30
0.0
 10
20.56233475566685
 20
5.553441409374471
 30
0.0
 10
20.33785399376719
 20
5.55627506593774
 30
0.0
 10
20.10688049585091
 20
5.556197209953337
 30
0.0
 10
19.86964020891666
 20
5.553187016539094
 30
0.0
 10
19.63152837526067
 20
5.547534058753254
 30
0.0
 10
19.47255462588437
 20
5.542113634303003
 30
0.0
 10
19.39468902176382
 20
5.539101294201054
 30
0.0
  0
SPLINE
  5
1C9
330
1F
100
AcDbEntity
  8
0
  6
Continuous
 62
     7
370
    25
100
AcDbSpline
210
0.0
220
0.0
230
1.0
 70
     8
 71
     3
 72
    20
 73
    16
 74
     0
 42
0.00000001
 43
0.00000001
 40
0.2198020456782311
 40
0.2198020456782311
 40
0.2198020456782311
 40
0.2198020456782311
 40
0.2267672493409626
 40
0.2392364168985155
 40
0.2519590037432643
 40
0.2649238944844178
 40
0.2781197025471088
 40
0.2915360351366116
 40
0.30516027958325
 40
0.3189806851247638
 40
0.3329854989115454
 40
0.3471627904101027
 40
0.3614986026090851
 40
0.3759807467342138
 40
0.3808399730528521
 40
0.3808399730528521
 40
0.3808399730528521
 40
0.3808399730528521
 10
19.26968902176331
 20
5.533963718086349
 30
0.0
 10
19.22122163367194
 20
5.531856653433738
 30
0.0
 10
19.08600341722332
 20
5.525611275778005
 30
0.0
 10
18.86234316707462
 20
5.513691234006267
 30
0.0
 10
18.59708375445449
 20
5.497289906737596
 30
0.0
 10
18.32691512184204
 20
5.478422944780066
 30
0.0
 10
18.0520718503716
 20
5.457241648427487
 30
0.0
 10
17.77280360893353
 20
5.433798856248115
 30
0.0
 10
17.48935395717019
 20
5.408231205250967
 30
0.0
 10
17.20197383477398
 20
5.380666695095845
 30
0.0
 10
16.91091153323921
 20
5.351192560835425
 30
0.0
 10
16.61642396660843
 20
5.31994745295975
 30
0.0
 10
16.31877343004959
 20
5.287032618546725
 30
0.0
 10
16.08573179426059
 20
5.260353378061537
 30
0.0
 10
15.95193017570954
 20
5.244703937790542
 30
0.0
 10
15.91831682826426
 20
5.240752825498159
 30
0.0
  0
SPLINE
  5
1CA
330
1F
100
AcDbEntity
  8
0
  6
Continuous
 62
     7
370
    25
100
AcDbSpline
210
0.0
220
0.0
230
1.0
 70
     8
 71
     3
 72
    26
 73
    22
 74
     0
 42
0.00000001
 43
0.00000001
 40
0.8702091912998412
 40
0.8702091912998412
 40
0.8702091912998412
 40
0.8702091912998412
 40
0.8756888427699402
 40
0.8849977189681817
 40
0.8939534257134248
 40
0.9025528972342319
 40
0.9107893855550118
 40
0.918660734452039
 40
0.9261662532311007
 40
0.9333026258496901
 40
0.9400712202288544
 40
0.9464747799480218
 40
0.9525175259899291
 40
0.9582048188758567
 40
0.9635466521318254
 40
0.9685565998976854
 40
0.973249912806338
 40
0.9776510407309966
 40
0.9817870429956301
 40
0.9856942262199115
 40
0.9867927918666474
 40
0.9867927918666474
 40
0.9867927918666474
 40
0.9867927918666474
 10
21.45972464656262
 20
2.912950369151601
 30
0.0
 10
21.49724886573783
 20
2.926136335233821
 30
0.0
 10
21.5983059639872
 20
2.962329889579666
 30
0.0
 10
21.75954371385604
 20
3.023233341575554
 30
0.0
 10
21.94033319738589
 20
3.096323747490524
 30
0.0
 10
22.11210933886187
 20
3.170791607562824
 30
0.0
 10
22.27474381373767
 20
3.246409907517425
 30
0.0
 10
22.42805255801309
 20
3.323092556734532
 30
0.0
 10
22.5719263074154
 20
3.400624716003221
 30
0.0
 10
22.70622062401745
 20
3.478887500301936
 30
0.0
 10
22.83080623470918
 20
3.55773554295229
 30
0.0
 10
22.94563077754136
 20
3.636968841803377
 30
0.0
 10
23.05053594104094
 20
3.716537664070836
 30
0.0
 10
23.1454856879819
 20
3.796240943244624
 30
0.0
 10
23.2304199322602
 20
3.875957311161132
 30
0.0
 10
23.30521726632823
 20
3.95563185630574
 30
0.0
 10
23.36988038599371
 20
4.035124268752213
 30
0.0
 10
23.42432454483921
 20
4.114371595613955
 30
0.0
 10
23.46854029795366
 20
4.193298849597779
 30
0.0
 10
23.49487384341877
 20
4.254339225129685
 30
0.0
 10
23.50674173018255
 20
4.28871526706294
 30
0.0
 10
23.50921530116186
 20
4.296301923047823
 30
0.0
  0
SPLINE
  5
1CB
330
1F
100
AcDbEntity
  8
0
  6
Continuous
 62
     7
370
    25
100
AcDbSpline
210
0.0
220
0.0
230
1.0
 70
     8
 71
     3
 72
    18
 73
    14
 74
     0
 42
0.00000001
 43
0.00000001
 40
0.7475206069337679
 40
0.7475206069337679
 40
0.7475206069337679
 40
0.7475206069337679
 40
0.7521175864757174
 40
0.7647920417806053
 40
0.7772081519169675
 40
0.7893556849213117
 40
0.801223959947354
 40
0.8128036855464306
 40
0.8240829093657238
 40
0.8350546022987564
 40
0.8457095711372445
 40
0.856037853234753
 40
0.8615980148069886
 40
0.8615980148069886
 40
0.8615980148069886
 40
0.8615980148069886
 10
18.86573902005026
 20
2.289034538383266
 30
0.0
 10
18.89870128467964
 20
2.294211922138435
 30
0.0
 10
19.02249695193195
 20
2.313968014535829
 30
0.0
 10
19.23496529891382
 20
2.349913069660693
 30
0.0
 10
19.50079464829291
 20
2.39883618267304
 30
0.0
 10
19.76013832039883
 20
2.450516738092602
 30
0.0
 10
20.01271395804143
 20
2.504941257382645
 30
0.0
 10
20.25825419705886
 20
2.561946479798076
 30
0.0
 10
20.49650385670493
 20
2.621433089056533
 30
0.0
 10
20.72720682417994
 20
2.683292181974438
 30
0.0
 10
20.95012923299049
 20
2.747375327068849
 30
0.0
 10
21.13427244785336
 20
2.804063631605415
 30
0.0
 10
21.24395087631289
 20
2.839712201972703
 30
0.0
 10
21.28226127431651
 20
2.852403518740123
 30
0.0
  0
LINE
  5
1CC
330
1F
100
AcDbEntity
  8
0
  6
Continuous
 62
     7
370
    25
100
AcDbLine
 10
0.4507563221
 20
0.5009365379
 30
0.0
 11
0.4507563221
 21
1.0009365379
 31
0.0
  0
LINE
  5
1CD
330
1F
100
AcDbEntity
  8
0
  6
Continuous
 62
     7
370
    25
100
AcDbLine
 10
0.4507563221
 20
1.0009365379
 30
0.0
 11
9.9507563221
 21
1.0009365379
 31
0.0
  0
LINE
  5
1CE
330
1F
100
AcDbEntity
  8
0
  6
Continuous
 62
     7
370
    25
100
AcDbLine
 10
9.9507563221
 20
0.5009365379
 30
0.0
 11
9.9507563221
 21
1.0009365379
 31
0.0
  0
LINE
  5
1CF
330
1F
100
AcDbEntity
  8
0
  6
Continuous
 62
     7
370
    25
100
AcDbLine
 10
0.4507563221
 20
0.5009365379
 30
0.0
 11
9.9507563221
 21
0.5009365379
 31
0.0
  0
MTEXT
  5
1D0
330
1F
100
AcDbEntity
  8
PART_NAMES
100
AcDbMText
 10
2.8823302779
 20
0.7903958223
 30
0.0
 40
0.1666666667
 41
0.0
 71
     1
 72
     1
  1
1.2.2.4.12
  7
SLDTEXTSTYLE0
 73
     1
 44
1.0
  0
LINE
  5
1D1
330
1F
100
AcDbEntity
  8
0
  6
Continuous
 62
     7
370
    25
100
AcDbLine
 10
0.4273378772
 20
1.2892558887
 30
0.0
 11
0.4273378772
 21
2.0392558887
 31
0.0
  0
LINE
  5
1D2
330
1F
100
AcDbEntity
  8
0
  6
Continuous
 62
     7
370
    25
100
AcDbLine
 10
0.4273378772
 20
2.0392558887
 30
0.0
 11
9.9273378772
 21
2.0392558887
 31
0.0
  0
LINE
  5
1D3
330
1F
100
AcDbEntity
  8
0
  6
Continuous
 62
     7
370
    25
100
AcDbLine
 10
9.9273378772
 20
1.2892558887
 30
0.0
 11
9.9273378772
 21
2.0392558887
 31
0.0
  0
LINE
  5
1D4
330
1F
100
AcDbEntity
  8
0
  6
Continuous
 62
     7
370
    25
100
AcDbLine
 10
0.4273378772
 20
1.2892558887
 30
0.0
 11
9.9273378772
 21
1.2892558887
 31
0.0
  0
MTEXT
  5
1D5
330
1F
100
AcDbEntity
  8
PART_NAMES
100
AcDbMText
 10
4.4045291958
 20
1.6568782833
 30
0.0
 40
0.1666666667
 41
0.0
 71
     1
 72
     1
  1
1.2.2.4.11
  7
SLDTEXTSTYLE0
 73
     1
 44
1.0
  0
MTEXT
  5
1D7
330
1F
100
AcDbEntity
  8
0
  6
Continuous
 62
     7
100
AcDbMText
 10
0.0
 20
0.5790104628
 30
0.0
 40
0.2076
 41
0.0
 71
     1
 72
     1
  1
SOLIDWORKS Educational Product.
  7
SLDTEXTSTYLE1
 73
     1
 44
1.0
  0
MTEXT
  5
1D8
330
1F
100
AcDbEntity
  8
0
  6
Continuous
 62
     7
100
AcDbMText
 10
0.0
 20
0.2676104628
 30
0.0
 40
0.2076
 41
0.0
 71
     1
 72
     1
  1
For Instructional Use Only.
  7
SLDTEXTSTYLE1
 73
     1
 44
1.0
  0
ENDSEC
  0
SECTION
  2
OBJECTS
  0
DICTIONARY
  5
C
330
0
100
AcDbDictionary
281
     1
  3
ACAD_GROUP
350
D
  3
ACAD_LAYOUT
350
1A
  3
ACAD_MLINESTYLE
350
17
  3
ACAD_PLOTSETTINGS
350
19
  3
ACAD_PLOTSTYLENAME
350
E
  3
ACAD_SCALELIST
350
47
  3
DWGPROPS
350
1D9
  0
DICTIONARY
  5
D
102
{ACAD_REACTORS
330
C
102
}
330
C
100
AcDbDictionary
281
     1
  0
DICTIONARY
  5
1A
102
{ACAD_REACTORS
330
C
102
}
330
C
100
AcDbDictionary
281
     1
  3
Layout1
350
1E
  3
Layout2
350
26
  3
Model
350
22
  0
DICTIONARY
  5
17
102
{ACAD_REACTORS
330
C
102
}
330
C
100
AcDbDictionary
281
     1
  3
Standard
350
18
  0
DICTIONARY
  5
19
102
{ACAD_REACTORS
330
C
102
}
330
C
100
AcDbDictionary
281
     1
  0
ACDBDICTIONARYWDFLT
  5
E
102
{ACAD_REACTORS
330
C
102
}
330
C
100
AcDbDictionary
281
     1
  3
Normal
350
F
100
AcDbDictionaryWithDefault
340
F
  0
DICTIONARY
  5
47
102
{ACAD_REACTORS
330
C
102
}
330
C
100
AcDbDictionary
281
     1
  3
A0
350
48
  3
A1
350
49
  3
A2
350
4A
  3
A3
350
4B
  3
A4
350
4C
  3
A5
350
4D
  3
A6
350
4E
  3
A7
350
4F
  3
A8
350
50
  3
A9
350
51
  3
B1
350
52
  3
B2
350
53
  3
B3
350
54
  3
B4
350
55
  3
B5
350
56
  3
B6
350
57
  3
B7
350
58
  0
XRECORD
  5
1D9
102
{ACAD_REACTORS
330
C
102
}
330
C
100
AcDbXrecord
280
     1
  1
DWGPROPS COOKIE
  2

  3

  4

  6

  7

  8
ucmai
  9

300
=
301
=
302
=
303
=
304
=
305
=
306
=
307
=
308
=
309
=
 40
0.0
 41
2460722.926242928
 42
2460722.92624353
  1

 90
        0
  0
LAYOUT
  5
1E
102
{ACAD_REACTORS
330
1A
102
}
330
1A
100
AcDbPlotSettings
  1

  2
none_device
  4

  6

 40
0.0
 41
0.0
 42
0.0
 43
0.0
 44
0.0
 45
0.0
 46
0.0
 47
0.0
 48
0.0
 49
0.0
140
0.0
141
0.0
142
1.0
143
1.0
 70
   688
 72
     0
 73
     0
 74
     5
  7

 75
    16
147
1.0
148
0.0
149
0.0
100
AcDbLayout
  1
Layout1
 70
     1
 71
     1
 10
0.0
 20
0.0
 11
12.0
 21
9.0
 12
0.0
 22
0.0
 32
0.0
 14
1.0000000000E+20
 24
1.0000000000E+20
 34
1.0000000000E+20
 15
-1.0000000000E+20
 25
-1.0000000000E+20
 35
-1.0000000000E+20
146
0.0
 13
0.0
 23
0.0
 33
0.0
 16
1.0
 26
0.0
 36
0.0
 17
0.0
 27
1.0
 37
0.0
 76
     0
330
1B
  0
LAYOUT
  5
26
102
{ACAD_REACTORS
330
1A
102
}
330
1A
100
AcDbPlotSettings
  1

  2
none_device
  4

  6

 40
0.0
 41
0.0
 42
0.0
 43
0.0
 44
0.0
 45
0.0
 46
0.0
 47
0.0
 48
0.0
 49
0.0
140
0.0
141
0.0
142
1.0
143
1.0
 70
   688
 72
     0
 73
     0
 74
     5
  7

 75
    16
147
1.0
148
0.0
149
0.0
100
AcDbLayout
  1
Layout2
 70
     1
 71
     2
 10
0.0
 20
0.0
 11
0.0
 21
0.0
 12
0.0
 22
0.0
 32
0.0
 14
0.0
 24
0.0
 34
0.0
 15
0.0
 25
0.0
 35
0.0
146
0.0
 13
0.0
 23
0.0
 33
0.0
 16
1.0
 26
0.0
 36
0.0
 17
0.0
 27
1.0
 37
0.0
 76
     0
330
23
  0
LAYOUT
  5
22
102
{ACAD_REACTORS
330
1A
102
}
330
1A
100
AcDbPlotSettings
  1

  2
none_device
  4
Letter_(8.50_x_11.00_Inches)
  6

 40
6.35
 41
6.35
 42
6.35000508
 43
6.35000508
 44
215.9
 45
279.4
 46
0.0
 47
0.0
 48
0.0
 49
0.0
140
0.0
141
0.0
142
1.0
143
1.0
 70
  1712
 72
     0
 73
     0
 74
     0
  7

 75
     0
147
1.0
148
0.0
149
0.0
100
AcDbLayout
  1
Model
 70
     1
 71
     0
 10
0.0
 20
0.0
 11
24.0
 21
12.0
 12
0.0
 22
0.0
 32
0.0
 14
0.0
 24
0.0
 34
0.0
 15
24.0
 25
12.0
 35
0.0
146
0.0
 13
0.0
 23
0.0
 33
0.0
 16
1.0
 26
0.0
 36
0.0
 17
0.0
 27
1.0
 37
0.0
 76
     0
330
1F
331
29
  0
MLINESTYLE
  5
18
102
{ACAD_REACTORS
330
17
102
}
330
17
100
AcDbMlineStyle
  2
Standard
 70
     0
  3

 62
   256
 51
90.0
 52
90.0
 71
     2
 49
0.5
 62
   256
  6
BYLAYER
 49
-0.5
 62
   256
  6
BYLAYER
  0
ACDBPLACEHOLDER
  5
F
102
{ACAD_REACTORS
330
E
102
}
330
E
  0
SCALE
  5
48
102
{ACAD_REACTORS
330
47
102
}
330
47
100
AcDbScale
 70
     0
300
1:1
140
1.0
141
1.0
290
     1
  0
SCALE
  5
49
102
{ACAD_REACTORS
330
47
102
}
330
47
100
AcDbScale
 70
     0
300
1/128" = 1'-0"
140
0.0078125
141
12.0
290
     0
  0
SCALE
  5
4A
102
{ACAD_REACTORS
330
47
102
}
330
47
100
AcDbScale
 70
     0
300
1/64" = 1'-0"
140
0.015625
141
12.0
290
     0
  0
SCALE
  5
4B
102
{ACAD_REACTORS
330
47
102
}
330
47
100
AcDbScale
 70
     0
300
1/32" = 1'-0"
140
0.03125
141
12.0
290
     0
  0
SCALE
  5
4C
102
{ACAD_REACTORS
330
47
102
}
330
47
100
AcDbScale
 70
     0
300
1/16" = 1'-0"
140
0.0625
141
12.0
290
     0
  0
SCALE
  5
4D
102
{ACAD_REACTORS
330
47
102
}
330
47
100
AcDbScale
 70
     0
300
3/32" = 1'-0"
140
0.09375
141
12.0
290
     0
  0
SCALE
  5
4E
102
{ACAD_REACTORS
330
47
102
}
330
47
100
AcDbScale
 70
     0
300
1/8" = 1'-0"
140
0.125
141
12.0
290
     0
  0
SCALE
  5
4F
102
{ACAD_REACTORS
330
47
102
}
330
47
100
AcDbScale
 70
     0
300
3/16" = 1'-0"
140
0.1875
141
12.0
290
     0
  0
SCALE
  5
50
102
{ACAD_REACTORS
330
47
102
}
330
47
100
AcDbScale
 70
     0
300
1/4" = 1'-0"
140
0.25
141
12.0
290
     0
  0
SCALE
  5
51
102
{ACAD_REACTORS
330
47
102
}
330
47
100
AcDbScale
 70
     0
300
3/8" = 1'-0"
140
0.375
141
12.0
290
     0
  0
SCALE
  5
52
102
{ACAD_REACTORS
330
47
102
}
330
47
100
AcDbScale
 70
     0
300
1/2" = 1'-0"
140
0.5
141
12.0
290
     0
  0
SCALE
  5
53
102
{ACAD_REACTORS
330
47
102
}
330
47
100
AcDbScale
 70
     0
300
3/4" = 1'-0"
140
0.75
141
12.0
290
     0
  0
SCALE
  5
54
102
{ACAD_REACTORS
330
47
102
}
330
47
100
AcDbScale
 70
     0
300
1" = 1'-0"
140
1.0
141
12.0
290
     0
  0
SCALE
  5
55
102
{ACAD_REACTORS
330
47
102
}
330
47
100
AcDbScale
 70
     0
300
1-1/2" = 1'-0"
140
1.5
141
12.0
290
     0
  0
SCALE
  5
56
102
{ACAD_REACTORS
330
47
102
}
330
47
100
AcDbScale
 70
     0
300
3" = 1'-0"
140
3.0
141
12.0
290
     0
  0
SCALE
  5
57
102
{ACAD_REACTORS
330
47
102
}
330
47
100
AcDbScale
 70
     0
300
6" = 1'-0"
140
6.0
141
12.0
290
     0
  0
SCALE
  5
58
102
{ACAD_REACTORS
330
47
102
}
330
47
100
AcDbScale
 70
     0
300
1'-0" = 1'-0"
140
12.0
141
12.0
290
     0
  0
ENDSEC
  0
EOF
