**ABCDEFGHIJKLMNOPQRSTUVWXYZabcdefghijklmnopqrstuvwxyz**************************
**PARASOLID !"#$%&'()*+,-./:;<=>?@[\]^_`{|}~0123456789**************************
**PART1;
MC=AMD64;
MC_MODEL=Intel64 Family 6 Model 186 Stepping 2, GenuineIntel;
MC_ID=unknown;
OS=Windows_NT;
OS_RELEASE=unknown;
FRU=Parasolid Version 34.1, build 247, 10- 7-2022;
APPL=SOLIDWORKS 2023-2023096;
SITE=;
USER=unknown;
FORMAT=text;
GUISE=transmit;
KEY=Horizaonal Wing section-Surface-Extrude3;
FILE=Horizaonal Wing section-Surface-Extrude3.x_t;
DATE=Sat Feb 10 11:17:15 2024;
**PART2;
SCH=SCH_3401247_34101;
USFLD_SIZE=0;
**PART3;
**END_OF_HEADER*****************************************************************
T51 : TRANSMIT FILE created by modeller version 340124723 SCH_3401247_34101_1300
6231 0 12 36 CCCI7 lattice222 0 CCCI4 mesh1006 0 I8 polyline1008 0 CCCCCCCDI5 ow
ner1040 0 CCCI16 boundary_lattice222 0 CCCI13 boundary_mesh1006 0 I17 boundary_p
olyline1008 0 CCCA16 index_map_offset0 0 1 dA9 index_map82 0 A17 node_id_index_m
ap82 0 A20 schema_embedding_map82 0 A5 child12 0 A14 lowest_node_id0 0 1 dA16 me
sh_offset_data206 0 Z1 226 2 3 0 0 0 0 0 0 0 1e3 1e-8 0 4 0 1 0 3 1 5 0 6 7 8 0
 0 9 10 11 0 0 0 0 0 0 0 81 255 2 2 218 12 1 13 0 0 0 0 14 70 11 CI9 list_type0
 0 1 uI10 notransmit0 0 1 lCCCDCCDI12 finger_index0 0 1 dI12 finger_block1012 0
 CZ3 0 4 T1 0 0 10 20 1 15 15 13 255 5 3 0 1 0 16 0 0 9 16 67 255 6 79 0 16 17 0
 0 +18 -1 0 0 .0143409625324634 30 255 7 83 0 19 20 0 0 +-.1778 -.00463504372721
387 -.486265240325771 -1 0 0 29 255 8 60 0 21 22 0 -.485775 -.00651913907058263
 .0695663617744474 19 9 CCCCCCI5 frame230 0 CA5 owner12 0 Z9 1 0 1 0 0 5 0 V0 16
 255 10 20 0 ?23 0 24 18 0 0 1 18 255 11 15 0 25 0 26 27 ?1 17 255 25 0 28 29 30
 11 31 32 0 33 -18 26 10 0 34 11 35 36 ?1 29 27 18 0 11 36 37 -.1778 -.006519139
07058263 .0695663617744474 29 36 13 0 26 38 27 -.1778 -.0081921973731203 -.48483
9703055914 29 37 63 0 39 27 40 -.485775 -.00463504372721387 -.486265240325771 18
 39 55 0 41 42 0 37 ?1 29 40 62 0 42 37 22 -.485775 -.010532748431724 -.49581221
370036 18 42 54 0 43 44 39 40 ?1 29 22 61 0 44 40 8 -.485775 -.0081921973731203
 -.484839703055914 18 44 53 0 45 21 42 22 ?1 17 45 0 28 30 29 44 34 46 0 47 +18
 21 52 0 31 48 44 8 ?1 17 31 0 49 50 23 21 25 32 0 30 +18 48 2 0 51 35 21 52 ?1
 17 51 0 49 23 50 48 41 19 0 53 -18 35 5 0 54 26 48 38 ?1 29 52 4 0 48 0 38 -.17
78 -.00463504372721387 -.486265240325771 29 38 8 0 35 52 36 -.1778 -.01053274843
1724 -.49581221370036 17 54 0 55 53 56 35 43 57 0 58 -15 255 55 68 0 56 59 0 17
 53 0 55 41 54 48 58 60 0 61 +17 56 0 55 54 41 42 62 63 0 64 -17 43 0 65 47 66 4
2 54 57 0 56 +16 57 66 0 ?43 60 63 20 0 0 1 17 58 0 0 0 0 35 53 60 0 66 -16 60 6
 0 ?53 19 57 67 0 0 1 17 66 0 65 43 34 35 68 69 0 0 +15 65 70 0 47 70 0 17 34 0
 65 66 47 26 45 46 0 68 -17 68 0 0 0 0 26 66 69 0 29 -16 69 11 0 ?66 71 46 72 0
 0 1 16 71 44 0 ?73 32 69 74 0 0 1 16 46 65 0 ?45 69 75 76 0 0 1 30 72 12 0 69 0
 77 0 +-.1778 -.0081921973731203 -.484839703055914 0 -.2086170554528365 -.977997
404993586 134 255 77 17 0 78 72 18 79 +80 81 16 78 16 0 ?29 24 32 77 0 0 1 134 1
8 21 0 10 77 67 82 +83 84 141 255 79 17 79 79 77 136 255 80 3 36 3 34 6 FFF1 85
 86 87 135 255 81 2 0 45 255 108 85 -.1778 -.00651913907058263 .0695663617744474
 -.1778 -.00688721273253516 .0694883910827677 -.1778 -.00761052758633523 .069336
3760132391 -.1778 -.00876184326811464 .0690354225894495 -.1778 -.009882594067821
19 .068626070203946 -.1778 -.01202122893025604 .0676619851025588 -.1778 -.014954
60202569386 .0656923130131807 -.1778 -.01813744947617775 .0623412188200519 -.177
8 -.0215964876349103 .0573382189268778 -.1778 -.0247903629698325 .05052204992353
12 -.1778 -.0275359775514862 .0420059138994073 -.1778 -.0295513425657538 .033324
04000789975 -.1778 -.031532992144648 .0216352015564033 -.1778 -.0330186008410447
 .00691344102508237 -.1778 -.0337765423596692 -.0107972873340441 -.1778 -.033795
0491418743 -.02850973119542275 -.1778 -.03325860883833855 -.0462043865238911 -.1
778 -.03196691944896475 -.0697641945581866 -.1778 -.02950340762150525 -.09914601
97389462 -.1778 -.02569337156205825 -.1343082123075642 -.1778 -.0213490549530988
 -.169399514794737 -.1778 -.0167038848255612 -.204446464420127 -.1778 -.01192881
228267918 -.239471434511741 -.1778 -.00793942067939684 -.268654643904962 -.1778
 -.00479172290140647 -.2920077326360265 -.1778 -.00283780100098235 -.30660029267
2818 -.1778 -.00130907436693598 -.318288997719976 -.1778 .000263068831943658 -.3
29949567815073 -.1778 .001719295513011 -.3445702952700555 -.1778 .00280506666571
0385 -.362175990442094 -.1778 .003317931840176175 -.385687405296962 -.1778 .0022
53883879821415 -.4150824601176165 -.1778 -.000960221939673565 -.4443218725916325
 -.1778 -.00472777257870521 -.467542126740326 -.1778 -.00696557190432381 -.47908
9279042028 -.1778 -.0081921973731203 -.484839703055914 127 255 34 86 4 1 1 1 1 1
 1 1 1 1 1 1 1 1 1 1 1 1 1 1 1 1 1 1 1 1 1 1 1 1 1 1 1 4 128 255 34 87 -68755559
4952044e-19 .001884503728706935 .003837763016909075 .00579102230511121 .00774428
159331335 .0155573187461219 .02337035589893045 .031183393051739 .046809467357356
1 .0624355416629732 .0780616159685904 .0936876902742075 .1249398388854416 .15619
1987496676 .18744413610791 .2186962847191445 .2499484333303785 .312452730552847
 .3749570277753155 .437461324997784 .499965622220252 .562469919442721 .624974216
665189 .656226365276424 .687478513887658 .703104588193275 .718730662498892 .7499
82811110126 .78123495972136 .812487108332595 .874991405555063 .937495702777532 .
968747851388766 1 67 17 78 0 88 89 6 0 +77 -1 0 0 .0142710633110561 14 255 88 73
 90 ?70 16 28 5 17 +0 0 70 16 5 50 255 89 77 0 70 91 17 0 +-.1778 -.008192197373
1203 -.484839703055914 0 .977997404993586 -.2086170554528365 0 .2086170554528365
 .977997404993586 14 70 71 92 ?59 88 65 5 89 +0 0 59 88 5 50 91 76 0 59 0 89 0 +
-.1778 -.00463504372721387 -.486265240325771 0 -.850756373387647 .52556026594511
4 0 -.525560265945114 -.850756373387647 14 59 69 93 ?0 70 55 5 91 +0 0 0 70 5 81
 3 93 224 94 59 95 0 92 96 97 0 0 80 7 CCCCCDI12 legal_owners0 16 1 lCZ3 94 98 9
9 9000 0 0 0 0 3 5 0 0 0 FFFFTFFFFFFFFFFF1 1 1 81 1 95 223 100 59 101 93 102 103
 104 81 3 92 222 94 70 102 0 90 93 105 0 0 81 3 96 226 94 16 103 0 93 0 106 0 0
 82 255 6 97 0 1377403092 31087689 0 0 0 14 16 75 96 ?88 0 49 5 6 +0 0 88 0 5 81
 1 103 225 100 16 107 96 95 0 108 82 6 106 0 1377403092 31087689 0 0 0 80 1 100
 109 110 9000 1 1 1 1 1 1 1 1 0 FFFFTFTFFFFFFFFF1 81 1 107 193 111 16 112 103 0
 113 114 82 1 108 -708509553 80 1 111 0 115 8001 0 0 0 0 3 5 0 0 0 FFFFTFTFFFFFF
FFF2 81 2 112 161 116 16 0 107 0 117 0 0 81 1 113 194 111 88 117 118 107 119 120
 83 255 3 114 .792156862745098 .819607843137255 .933333333333333 81 2 117 162 11
6 88 0 113 112 121 0 0 81 1 118 219 100 88 113 90 0 102 122 81 1 119 195 111 70
 121 102 113 101 123 83 3 120 .792156862745098 .819607843137255 .933333333333333
 81 2 121 163 116 70 0 119 117 124 0 0 81 1 102 221 100 70 119 92 118 95 125 81
 1 101 196 111 59 124 95 119 0 126 83 3 123 .792156862745098 .819607843137255 .9
33333333333333 81 2 124 164 116 59 0 101 121 0 0 0 83 3 126 .792156862745098 .81
9607843137255 .933333333333333 80 2 116 127 128 9000 0 0 0 0 3 6 0 0 0 FFFFTFFFF
FFFFFFF9 1 79 255 17 128 ATOM_FACE_ID_200182 1 125 -708771697 81 3 90 220 94 88
 118 0 0 92 129 0 0 82 1 122 -708640625 82 6 129 0 1377403092 31087689 0 0 0 79
 15 115 SDL/TYSA_COLOUR79 14 110 SWEntUnchanged15 49 74 0 50 16 0 17 50 0 49 51
 31 39 130 24 0 0 -17 130 0 0 0 0 21 50 24 0 0 +16 24 48 0 ?130 10 78 131 0 0 1
 134 131 57 0 24 74 132 0 +133 134 134 74 58 0 71 135 131 0 +136 137 30 132 56 0
 63 131 138 0 +-.485775 -.00463504372721387 -.486265240325771 0 .525560265945114
 .850756373387647 136 133 3 35 3 33 6 FFF1 139 140 141 135 134 2 0 45 105 139 -.
485775 -.00463504372721387 -.486265240325771 -.485775 .00183078834545628 -.47579
8604619994 -.485775 .01388926974822002 -.454312764268715 -.485775 .0292245092391
949 -.4206909001956955 -.485775 .0394662975955996 -.391639559871781 -.485775 .04
60383471864307 -.367906811920152 -.485775 .0501289716166113 -.3498976650282125 -
.485775 .0533958988659329 -.331712828111795 -.485775 .055714700607055 -.31340865
14112745 -.485775 .0578672725021249 -.295107197371007 -.485775 .0603514671040502
 -.2706545199273005 -.485775 .0627920862835124 -.2400275542404495 -.485775 .0645
518412881872 -.2031959191642245 -.485775 .0650284962278422 -.1663208488778175 -.
485775 .0640618587849313 -.1294481829635408 -.485775 .0614272131768156 -.0926473
789600514 -.485775 .0575903132654066 -.0621278910615713 -.485775 .05329975510071
73 -.037896239171482 -.485775 .0493855068860328 -.01985279008499585 -.485775 .04
466024218007035 -.001994982657986005 -.485775 .0399109380351398 .012661714377516
72 -.485775 .03548923848937395 .0241743679264121 -.485775 .03180842838620625 .03
266872427533325 -.485775 .02769185479436225 .04097448896241195 -.485775 .0230319
323917029 .0490126857131575 -.485775 .0176580792712106 .0566339395967455 -.48577
5 .0123453248319818 .062404116232879 -.485775 .00732735483393856 .06627011402048
16 -.485775 .00309941750836411 .0685714980011858 -.485775 -.000452354776864283 .
0695610109929074 -.485775 -.00288445310451718 .0697917971271235 -.485775 -.00412
5270625773265 .0698176285587099 -.485775 -.00536659154709746 .0697196954311463 -
.485775 -.00613001958673486 .0696175918349424 -.485775 -.00651913907058263 .0695
663617744474 127 33 140 4 1 1 1 1 1 1 1 1 1 1 1 1 1 1 1 1 1 1 1 1 1 1 1 1 1 1 1
 1 1 1 1 4 128 33 141 0 .0625041235375069 .1250082470750138 .1875123706125205 .2
18764432381274 .2500164941500275 .281268555918781 .3125206176875345 .34377267945
6288 .3750247412250415 .4375288647625485 .500032988300055 .562537111837562 .6250
41235375069 .687545358912576 .750049482450083 .781301544218836 .81255360598759 .
843805667756343 .875057729525097 .890683760409473 .90630979129385 .9219358221782
27 .937561853062603 .95318788394698 .968813914831357 .976626930273545 .984439945
715734 .992252961157922 .994206215018469 .996159468879016 .998112722739563 1.000
06597660011 16 63 36 0 ?62 57 0 132 0 0 1 30 138 80 0 32 132 76 0 +-.1778 -.0065
1913907058263 .0695663617744474 -1 0 0 16 32 64 0 ?31 78 71 138 0 0 1 30 76 81 0
 46 138 20 0 +-.1778 -.0081921973731203 -.484839703055914 -1 0 0 30 20 82 0 57 7
6 7 0 +-.1778 -.010532748431724 -.49581221370036 -1 0 0 17 62 0 0 0 0 39 56 63 0
 50 +30 135 59 0 75 67 74 0 +-.485775 -.0081921973731203 -.484839703055914 0 -.2
086170554528365 -.977997404993586 136 136 3 36 3 34 6 FFF1 142 143 144 135 137 2
 0 45 108 142 -.485775 -.00651913907058263 .0695663617744474 -.485775 -.00688721
273253516 .0694883910827677 -.485775 -.00761052758633523 .0693363760132391 -.485
775 -.00876184326811464 .0690354225894495 -.485775 -.00988259406782119 .06862607
0203946 -.485775 -.01202122893025604 .0676619851025588 -.485775 -.01495460202569
386 .0656923130131807 -.485775 -.01813744947617775 .0623412188200519 -.485775 -.
0215964876349103 .0573382189268778 -.485775 -.0247903629698325 .0505220499235312
 -.485775 -.0275359775514862 .0420059138994073 -.485775 -.0295513425657538 .0333
2404000789975 -.485775 -.031532992144648 .0216352015564033 -.485775 -.0330186008
410447 .00691344102508237 -.485775 -.0337765423596692 -.0107972873340441 -.48577
5 -.0337950491418743 -.02850973119542275 -.485775 -.03325860883833855 -.04620438
65238911 -.485775 -.03196691944896475 -.0697641945581866 -.485775 -.029503407621
50525 -.0991460197389462 -.485775 -.02569337156205825 -.1343082123075642 -.48577
5 -.0213490549530988 -.169399514794737 -.485775 -.0167038848255612 -.20444646442
0127 -.485775 -.01192881228267918 -.239471434511741 -.485775 -.00793942067939684
 -.268654643904962 -.485775 -.00479172290140647 -.2920077326360265 -.485775 -.00
283780100098235 -.306600292672818 -.485775 -.00130907436693598 -.318288997719976
 -.485775 .000263068831943658 -.329949567815073 -.485775 .001719295513011 -.3445
702952700555 -.485775 .002805066665710385 -.362175990442094 -.485775 .0033179318
40176175 -.385687405296962 -.485775 .002253883879821415 -.4150824601176165 -.485
775 -.000960221939673565 -.4443218725916325 -.485775 -.00472777257870521 -.46754
2126740326 -.485775 -.00696557190432381 -.479089279042028 -.485775 -.00819219737
31203 -.484839703055914 127 34 143 4 1 1 1 1 1 1 1 1 1 1 1 1 1 1 1 1 1 1 1 1 1 1
 1 1 1 1 1 1 1 1 1 1 4 128 34 144 -687555594952044e-19 .001884503728706935 .0038
37763016909075 .00579102230511121 .00774428159331335 .0155573187461219 .02337035
589893045 .031183393051739 .0468094673573561 .0624355416629732 .0780616159685904
 .0936876902742075 .1249398388854416 .156191987496676 .18744413610791 .218696284
7191445 .2499484333303785 .312452730552847 .3749570277753155 .437461324997784 .4
99965622220252 .562469919442721 .624974216665189 .656226365276424 .6874785138876
58 .703104588193275 .718730662498892 .749982811110126 .78123495972136 .812487108
332595 .874991405555063 .937495702777532 .968747851388766 1 16 75 40 0 ?64 46 19
 135 0 0 1 30 67 26 0 60 18 135 0 +-.1778 -.00463504372721387 -.486265240325771
 0 .525560265945114 .850756373387647 17 64 0 0 0 0 42 47 75 0 0 +16 19 67 0 ?41
 75 60 7 0 0 1 17 41 0 55 56 53 39 51 19 0 62 +17 47 0 65 34 43 44 64 75 0 73 -1
7 73 0 0 0 0 44 30 71 0 0 +17 30 0 28 25 45 21 73 71 0 130 -15 28 72 0 30 88 0 8
2 6 105 0 1377403092 31087689 0 0 0 82 1 104 -708902769 79 18 99 DOWNSTREAM_FACE
_ID141 82 6 82 82 18 136 83 3 35 3 33 6 FFF1 145 146 147 135 84 2 0 45 105 145 -
.1778 -.00463504372721387 -.486265240325771 -.1778 .00183078834545628 -.47579860
4619994 -.1778 .01388926974822002 -.454312764268715 -.1778 .0292245092391949 -.4
206909001956955 -.1778 .0394662975955996 -.391639559871781 -.1778 .0460383471864
307 -.367906811920152 -.1778 .0501289716166113 -.3498976650282125 -.1778 .053395
8988659329 -.331712828111795 -.1778 .055714700607055 -.3134086514112745 -.1778 .
0578672725021249 -.295107197371007 -.1778 .0603514671040502 -.2706545199273005 -
.1778 .0627920862835124 -.2400275542404495 -.1778 .0645518412881872 -.2031959191
642245 -.1778 .0650284962278422 -.1663208488778175 -.1778 .0640618587849313 -.12
94481829635408 -.1778 .0614272131768156 -.0926473789600514 -.1778 .0575903132654
066 -.0621278910615713 -.1778 .0532997551007173 -.037896239171482 -.1778 .049385
5068860328 -.01985279008499585 -.1778 .04466024218007035 -.001994982657986005 -.
1778 .0399109380351398 .01266171437751672 -.1778 .03548923848937395 .02417436792
64121 -.1778 .03180842838620625 .03266872427533325 -.1778 .02769185479436225 .04
097448896241195 -.1778 .0230319323917029 .0490126857131575 -.1778 .0176580792712
106 .0566339395967455 -.1778 .0123453248319818 .062404116232879 -.1778 .00732735
483393856 .0662701140204816 -.1778 .00309941750836411 .0685714980011858 -.1778 -
.000452354776864283 .0695610109929074 -.1778 -.00288445310451718 .06979179712712
35 -.1778 -.004125270625773265 .0698176285587099 -.1778 -.00536659154709746 .069
7196954311463 -.1778 -.00613001958673486 .0696175918349424 -.1778 -.006519139070
58263 .0695663617744474 127 33 146 4 1 1 1 1 1 1 1 1 1 1 1 1 1 1 1 1 1 1 1 1 1 1
 1 1 1 1 1 1 1 1 1 4 128 33 147 0 .0625041235375069 .1250082470750138 .187512370
6125205 .218764432381274 .2500164941500275 .281268555918781 .3125206176875345 .3
43772679456288 .3750247412250415 .4375288647625485 .500032988300055 .56253711183
7562 .625041235375069 .687545358912576 .750049482450083 .781301544218836 .812553
60598759 .843805667756343 .875057729525097 .890683760409473 .90630979129385 .921
935822178227 .937561853062603 .95318788394698 .968813914831357 .976626930273545
 .984439945715734 .992252961157922 .994206215018469 .996159468879016 .9981127227
39563 1.00006597660011 17 29 0 28 45 25 26 33 78 0 0 +17 33 0 0 0 0 11 29 78 0 2
3 -17 23 0 49 31 51 11 61 10 0 0 +17 61 0 0 0 0 48 23 10 0 0 -74 4 CI16 index_ma
p_offset0 0 1 dCCZ20 15 10 0 0 148 149 150 103 124 96 151 13 101 2 0 0 0 0 0 0 0
 0 0 0 81 2 148 100 152 1 0 149 0 0 0 153 81 2 149 103 154 1 148 150 0 0 0 155 8
1 2 150 104 156 1 149 151 0 0 157 0 81 2 151 180 158 1 150 13 0 0 0 159 81 2 13
 183 160 1 151 2 0 0 0 0 80 2 160 161 162 9000 0 0 0 0 3 5 0 0 0 FFTFFFFFFFFFFFF
F9 1 79 16 162 BODY_RECIPE_200180 2 158 163 164 9000 0 0 0 0 3 5 0 0 0 FFTFFFFFF
FFFFFFF9 1 82 1 159 1 79 24 164 BODY_IN_LIGHTWEIGHT_PERM80 2 156 165 166 9000 0
 0 0 0 3 5 0 0 0 FFTFTTTFFTFFFFFF3 3 84 255 31 157 Stock-Horizaonal Wing section
-179 21 166 SWIMPLICITBODYNAME_ID80 2 154 167 168 9000 0 0 0 0 3 5 0 0 0 FFTFFFF
FFFFFFFFF9 1 82 1 155 26 79 30 168 LAST_BODY_MODIFYING_FEATURE_ID80 2 152 169 17
0 9000 0 0 0 0 3 5 0 0 0 FFTFFFFFFFFFFTFF9 1 82 1 153 103 79 19 170 ENT_TIME_STA
MP_200180 2 12 171 172 9000 0 0 0 0 3 5 0 0 0 FFTFFFFFFFFFFFFF9 1 82 1 14 101 79
 12 172 ATOM_ID_20011 0 
