  0
SECTION
  2
HEADER
  9
$ACADVER
  1
AC1015
  9
$ACADMAINTVER
 70
     6
  9
$DWGCODEPAGE
  3
ANSI_1252
  9
$INSBASE
 10
0.0
 20
0.0
 30
0.0
  9
$EXTMIN
 10
0.0
 20
0.0
 30
0.0
  9
$EXTMAX
 10
24.0
 20
12.0
 30
0.0
  9
$LIMMIN
 10
0.0
 20
0.0
  9
$LIMMAX
 10
24.0
 20
12.0
  9
$ORTHOMODE
 70
     0
  9
$REGENMODE
 70
     1
  9
$FILLMODE
 70
     1
  9
$QTEXTMODE
 70
     0
  9
$MIRRTEXT
 70
     1
  9
$LTSCALE
 40
1.0
  9
$ATTMODE
 70
     1
  9
$TEXTSIZE
 40
0.125
  9
$TRACEWID
 40
0.05
  9
$TEXTSTYLE
  7
Standard
  9
$CLAYER
  8
0
  9
$CELTYPE
  6
ByLayer
  9
$CECOLOR
 62
   256
  9
$CELTSCALE
 40
1.0
  9
$DISPSILH
 70
     0
  9
$DIMSCALE
 40
1.0
  9
$DIMASZ
 40
0.13
  9
$DIMEXO
 40
0.05
  9
$DIMDLI
 40
0.38
  9
$DIMRND
 40
0.0
  9
$DIMDLE
 40
0.0
  9
$DIMEXE
 40
0.125
  9
$DIMTP
 40
0.0
  9
$DIMTM
 40
0.0
  9
$DIMTXT
 40
0.125
  9
$DIMCEN
 40
0.09
  9
$DIMTSZ
 40
0.0
  9
$DIMTOL
 70
     0
  9
$DIMLIM
 70
     0
  9
$DIMTIH
 70
     1
  9
$DIMTOH
 70
     1
  9
$DIMSE1
 70
     0
  9
$DIMSE2
 70
     0
  9
$DIMTAD
 70
     0
  9
$DIMZIN
 70
     1
  9
$DIMBLK
  1

  9
$DIMASO
 70
     1
  9
$DIMSHO
 70
     1
  9
$DIMPOST
  1

  9
$DIMAPOST
  1

  9
$DIMALT
 70
     0
  9
$DIMALTD
 70
     2
  9
$DIMALTF
 40
25.4
  9
$DIMLFAC
 40
1.0
  9
$DIMTOFL
 70
     0
  9
$DIMTVP
 40
0.0
  9
$DIMTIX
 70
     0
  9
$DIMSOXD
 70
     0
  9
$DIMSAH
 70
     0
  9
$DIMBLK1
  1

  9
$DIMBLK2
  1

  9
$DIMSTYLE
  2
Standard
  9
$DIMCLRD
 70
     0
  9
$DIMCLRE
 70
     0
  9
$DIMCLRT
 70
     0
  9
$DIMTFAC
 40
1.0
  9
$DIMGAP
 40
0.06
  9
$DIMJUST
 70
     0
  9
$DIMSD1
 70
     0
  9
$DIMSD2
 70
     0
  9
$DIMTOLJ
 70
     1
  9
$DIMTZIN
 70
     1
  9
$DIMALTZ
 70
     0
  9
$DIMALTTZ
 70
     0
  9
$DIMUPT
 70
     0
  9
$DIMDEC
 70
     2
  9
$DIMTDEC
 70
     2
  9
$DIMALTU
 70
     2
  9
$DIMALTTD
 70
     2
  9
$DIMTXSTY
  7
Standard
  9
$DIMAUNIT
 70
     0
  9
$DIMADEC
 70
     2
  9
$DIMALTRND
 40
0.0
  9
$DIMAZIN
 70
     0
  9
$DIMDSEP
 70
    46
  9
$DIMATFIT
 70
     3
  9
$DIMFRAC
 70
     0
  9
$DIMLDRBLK
  1

  9
$DIMLUNIT
 70
     2
  9
$DIMLWD
 70
    -2
  9
$DIMLWE
 70
    -2
  9
$DIMTMOVE
 70
     0
  9
$LUNITS
 70
     2
  9
$LUPREC
 70
     6
  9
$SKETCHINC
 40
0.1
  9
$FILLETRAD
 40
0.0
  9
$AUNITS
 70
     0
  9
$AUPREC
 70
     2
  9
$MENU
  1
.
  9
$ELEVATION
 40
0.0
  9
$PELEVATION
 40
0.0
  9
$THICKNESS
 40
0.0
  9
$LIMCHECK
 70
     0
  9
$CHAMFERA
 40
0.0
  9
$CHAMFERB
 40
0.0
  9
$CHAMFERC
 40
0.0
  9
$CHAMFERD
 40
0.0
  9
$SKPOLY
 70
     0
  9
$TDCREATE
 40
2460784.67632963
  9
$TDUCREATE
 40
2460784.967996297
  9
$TDUPDATE
 40
2460784.676330347
  9
$TDUUPDATE
 40
2460784.967997014
  9
$TDINDWG
 40
0.0000000116
  9
$TDUSRTIMER
 40
0.0000000116
  9
$USRTIMER
 70
     1
  9
$ANGBASE
 50
0.0
  9
$ANGDIR
 70
     0
  9
$PDMODE
 70
     0
  9
$PDSIZE
 40
-1.0
  9
$PLINEWID
 40
0.0
  9
$SPLFRAME
 70
     0
  9
$SPLINETYPE
 70
     6
  9
$SPLINESEGS
 70
     8
  9
$HANDSEED
  5
335
  9
$SURFTAB1
 70
     6
  9
$SURFTAB2
 70
     6
  9
$SURFTYPE
 70
     6
  9
$SURFU
 70
     6
  9
$SURFV
 70
     6
  9
$UCSBASE
  2

  9
$UCSNAME
  2

  9
$UCSORG
 10
0.0
 20
0.0
 30
0.0
  9
$UCSXDIR
 10
1.0
 20
0.0
 30
0.0
  9
$UCSYDIR
 10
0.0
 20
1.0
 30
0.0
  9
$UCSORTHOREF
  2

  9
$UCSORTHOVIEW
 70
     0
  9
$UCSORGTOP
 10
0.0
 20
0.0
 30
0.0
  9
$UCSORGBOTTOM
 10
0.0
 20
0.0
 30
0.0
  9
$UCSORGLEFT
 10
0.0
 20
0.0
 30
0.0
  9
$UCSORGRIGHT
 10
0.0
 20
0.0
 30
0.0
  9
$UCSORGFRONT
 10
0.0
 20
0.0
 30
0.0
  9
$UCSORGBACK
 10
0.0
 20
0.0
 30
0.0
  9
$PUCSBASE
  2

  9
$PUCSNAME
  2

  9
$PUCSORG
 10
0.0
 20
0.0
 30
0.0
  9
$PUCSXDIR
 10
1.0
 20
0.0
 30
0.0
  9
$PUCSYDIR
 10
0.0
 20
1.0
 30
0.0
  9
$PUCSORTHOREF
  2

  9
$PUCSORTHOVIEW
 70
     0
  9
$PUCSORGTOP
 10
0.0
 20
0.0
 30
0.0
  9
$PUCSORGBOTTOM
 10
0.0
 20
0.0
 30
0.0
  9
$PUCSORGLEFT
 10
0.0
 20
0.0
 30
0.0
  9
$PUCSORGRIGHT
 10
0.0
 20
0.0
 30
0.0
  9
$PUCSORGFRONT
 10
0.0
 20
0.0
 30
0.0
  9
$PUCSORGBACK
 10
0.0
 20
0.0
 30
0.0
  9
$USERI1
 70
     0
  9
$USERI2
 70
     0
  9
$USERI3
 70
     0
  9
$USERI4
 70
     0
  9
$USERI5
 70
     0
  9
$USERR1
 40
0.0
  9
$USERR2
 40
0.0
  9
$USERR3
 40
0.0
  9
$USERR4
 40
0.0
  9
$USERR5
 40
0.0
  9
$WORLDVIEW
 70
     1
  9
$SHADEDGE
 70
     3
  9
$SHADEDIF
 70
    70
  9
$TILEMODE
 70
     1
  9
$MAXACTVP
 70
    64
  9
$PINSBASE
 10
0.0
 20
0.0
 30
0.0
  9
$PLIMCHECK
 70
     0
  9
$PEXTMIN
 10
1.0000000000E+20
 20
1.0000000000E+20
 30
1.0000000000E+20
  9
$PEXTMAX
 10
-1.0000000000E+20
 20
-1.0000000000E+20
 30
-1.0000000000E+20
  9
$PLIMMIN
 10
0.0
 20
0.0
  9
$PLIMMAX
 10
12.0
 20
9.0
  9
$UNITMODE
 70
     0
  9
$VISRETAIN
 70
     1
  9
$PLINEGEN
 70
     0
  9
$PSLTSCALE
 70
     1
  9
$TREEDEPTH
 70
  3020
  9
$CMLSTYLE
  2
Standard
  9
$CMLJUST
 70
     0
  9
$CMLSCALE
 40
1.0
  9
$PROXYGRAPHICS
 70
     1
  9
$MEASUREMENT
 70
     0
  9
$CELWEIGHT
370
    -1
  9
$ENDCAPS
280
     0
  9
$JOINSTYLE
280
     0
  9
$LWDISPLAY
290
     1
  9
$INSUNITS
 70
     1
  9
$HYPERLINKBASE
  1

  9
$STYLESHEET
  1

  9
$XEDIT
290
     1
  9
$CEPSNTYPE
380
     0
  9
$PSTYLEMODE
290
     1
  9
$FINGERPRINTGUID
  2
{e5d9c909-c6b7-43d5-a574-df9afc97c369}
  9
$VERSIONGUID
  2
{FAEB1C32-E019-11D5-929B-00C0DF256EC4}
  9
$EXTNAMES
290
     1
  9
$PSVPSCALE
 40
0.0
  9
$OLESTARTUP
290
     0
  0
ENDSEC
  0
SECTION
  2
CLASSES
  0
CLASS
  1
ACDBDICTIONARYWDFLT
  2
AcDbDictionaryWithDefault
  3
ObjectDBX Classes
 90
        0
280
     0
281
     0
  0
CLASS
  1
VISUALSTYLE
  2
AcDbVisualStyle
  3
ObjectDBX Classes
 90
     4095
280
     0
281
     0
  0
CLASS
  1
MATERIAL
  2
AcDbMaterial
  3
ObjectDBX Classes
 90
     1153
280
     0
281
     0
  0
CLASS
  1
SCALE
  2
AcDbScale
  3
ObjectDBX Classes
 90
     1153
280
     0
281
     0
  0
CLASS
  1
TABLESTYLE
  2
AcDbTableStyle
  3
ObjectDBX Classes
 90
     4095
280
     0
281
     0
  0
CLASS
  1
MLEADERSTYLE
  2
AcDbMLeaderStyle
  3
ACDB_MLEADERSTYLE_CLASS
 90
     4095
280
     0
281
     0
  0
CLASS
  1
SUN
  2
AcDbSun
  3
SCENEOE
 90
     1153
280
     0
281
     0
  0
CLASS
  1
ACDBPLACEHOLDER
  2
AcDbPlaceHolder
  3
ObjectDBX Classes
 90
        0
280
     0
281
     0
  0
CLASS
  1
LAYOUT
  2
AcDbLayout
  3
ObjectDBX Classes
 90
        0
280
     0
281
     0
  0
ENDSEC
  0
SECTION
  2
TABLES
  0
TABLE
  2
VPORT
  5
8
330
0
100
AcDbSymbolTable
 70
     1
  0
VPORT
  5
29
330
8
100
AcDbSymbolTableRecord
100
AcDbViewportTableRecord
  2
*Active
 70
     0
 10
0.0
 20
0.0
 11
1.0
 21
1.0
 12
12.0
 22
6.0
 13
0.0
 23
0.0
 14
0.5
 24
0.5
 15
0.5
 25
0.5
 16
0.0
 26
0.0
 36
1.0
 17
0.0
 27
0.0
 37
0.0
 40
12.0
 41
2.0
 42
50.0
 43
0.0
 44
0.0
 50
0.0
 51
0.0
 71
     0
 72
  2000
 73
     1
 74
     3
 75
     0
 76
     0
 77
     0
 78
     0
281
     0
 65
     1
110
0.0
120
0.0
130
0.0
111
1.0
121
0.0
131
0.0
112
0.0
122
1.0
132
0.0
 79
     0
146
0.0
  0
ENDTAB
  0
TABLE
  2
LTYPE
  5
5
330
0
100
AcDbSymbolTable
 70
     6
  0
LTYPE
  5
14
330
5
100
AcDbSymbolTableRecord
100
AcDbLinetypeTableRecord
  2
ByBlock
 70
     0
  3

 72
    65
 73
     0
 40
0.0
  0
LTYPE
  5
15
330
5
100
AcDbSymbolTableRecord
100
AcDbLinetypeTableRecord
  2
ByLayer
 70
     0
  3

 72
    65
 73
     0
 40
0.0
  0
LTYPE
  5
16
330
5
100
AcDbSymbolTableRecord
100
AcDbLinetypeTableRecord
  2
Continuous
 70
     0
  3
Solid line
 72
    65
 73
     0
 40
0.0
  0
LTYPE
  5
5E
330
5
100
AcDbSymbolTableRecord
100
AcDbLinetypeTableRecord
  2
HIDDEN
 70
     0
  3
Hidden __ __ __ __ __ __ __ __ __ __ __ __ __ __
 72
    65
 73
     2
 40
0.075
 49
0.05
 74
     0
 49
-0.025
 74
     0
  0
LTYPE
  5
5F
330
5
100
AcDbSymbolTableRecord
100
AcDbLinetypeTableRecord
  2
PHANTOM
 70
     0
  3
Phantom ______  __  __  ______  __  __  ______
 72
    65
 73
     6
 40
0.5
 49
0.25
 74
     0
 49
-0.05
 74
     0
 49
0.05
 74
     0
 49
-0.05
 74
     0
 49
0.05
 74
     0
 49
-0.05
 74
     0
  0
LTYPE
  5
60
330
5
100
AcDbSymbolTableRecord
100
AcDbLinetypeTableRecord
  2
CENTER
 70
     0
  3
Center ____ _ ____ _ ____ _ ____ _ ____ _ ____
 72
    65
 73
     4
 40
0.4
 49
0.25
 74
     0
 49
-0.05
 74
     0
 49
0.05
 74
     0
 49
-0.05
 74
     0
  0
LTYPE
  5
61
330
5
100
AcDbSymbolTableRecord
100
AcDbLinetypeTableRecord
  2
CENTERX2
 70
     0
  3
Center (2x) ________  __  ________  __  _____
 72
    65
 73
     4
 40
0.8
 49
0.5
 74
     0
 49
-0.1
 74
     0
 49
0.1
 74
     0
 49
-0.1
 74
     0
  0
LTYPE
  5
62
330
5
100
AcDbSymbolTableRecord
100
AcDbLinetypeTableRecord
  2
DOT2
 70
     0
  3
Dot (.5x) ........................................
 72
    65
 73
     2
 40
0.025
 49
0.0
 74
     0
 49
-0.025
 74
     0
  0
ENDTAB
  0
TABLE
  2
LAYER
  5
2
330
0
100
AcDbSymbolTable
 70
     3
  0
LAYER
  5
10
330
2
100
AcDbSymbolTableRecord
100
AcDbLayerTableRecord
  2
0
 70
     0
 62
     7
  6
Continuous
370
    -3
390
F
  0
LAYER
  5
63
330
2
100
AcDbSymbolTableRecord
100
AcDbLayerTableRecord
  2
FORMAT
 70
     0
 62
     7
  6
Continuous
370
    -3
390
F
  0
LAYER
  5
64
330
2
100
AcDbSymbolTableRecord
100
AcDbLayerTableRecord
  2
PART_NAMES
 70
     0
 62
     1
  6
Continuous
370
    -3
390
F
  0
ENDTAB
  0
TABLE
  2
STYLE
  5
3
330
0
100
AcDbSymbolTable
 70
     3
  0
STYLE
  5
11
330
3
100
AcDbSymbolTableRecord
100
AcDbTextStyleTableRecord
  2
Standard
 70
     0
 40
0.0
 41
1.0
 50
0.0
 71
     0
 42
0.125
  3
txt
  4

  0
STYLE
  5
B2
330
3
100
AcDbSymbolTableRecord
100
AcDbTextStyleTableRecord
  2
SLDTEXTSTYLE0
 70
     0
 40
0.0
 41
0.75
 50
0.0
 71
     0
 42
0.125
  3
TXT
  4

  0
STYLE
  5
331
330
3
100
AcDbSymbolTableRecord
100
AcDbTextStyleTableRecord
  2
SLDTEXTSTYLE1
 70
     0
 40
0.0
 41
0.7
 50
0.0
 71
     0
 42
0.125
  3
TXT
  4

  0
ENDTAB
  0
TABLE
  2
VIEW
  5
6
330
0
100
AcDbSymbolTable
 70
     0
  0
ENDTAB
  0
TABLE
  2
UCS
  5
7
330
0
100
AcDbSymbolTable
 70
     0
  0
ENDTAB
  0
TABLE
  2
APPID
  5
9
330
0
100
AcDbSymbolTable
 70
     1
  0
APPID
  5
12
330
9
100
AcDbSymbolTableRecord
100
AcDbRegAppTableRecord
  2
ACAD
 70
     0
  0
ENDTAB
  0
TABLE
  2
DIMSTYLE
  5
A
330
0
100
AcDbSymbolTable
 70
     1
100
AcDbDimStyleTable
  0
DIMSTYLE
105
27
330
A
100
AcDbSymbolTableRecord
100
AcDbDimStyleTableRecord
  2
Standard
 70
     0
178
     0
340
11
  0
ENDTAB
  0
TABLE
  2
BLOCK_RECORD
  5
1
330
0
100
AcDbSymbolTable
 70
     1
  0
BLOCK_RECORD
  5
1F
330
1
100
AcDbSymbolTableRecord
100
AcDbBlockTableRecord
  2
*Model_Space
340
22
  0
BLOCK_RECORD
  5
1B
330
1
100
AcDbSymbolTableRecord
100
AcDbBlockTableRecord
  2
*Paper_Space
340
1E
  0
BLOCK_RECORD
  5
23
330
1
100
AcDbSymbolTableRecord
100
AcDbBlockTableRecord
  2
*Paper_Space0
340
26
  0
ENDTAB
  0
ENDSEC
  0
SECTION
  2
BLOCKS
  0
BLOCK
  5
20
330
1F
100
AcDbEntity
  8
0
100
AcDbBlockBegin
  2
*Model_Space
 70
     0
 10
0.0
 20
0.0
 30
0.0
  3
*Model_Space
  1

  0
ENDBLK
  5
21
330
1F
100
AcDbEntity
  8
0
100
AcDbBlockEnd
  0
BLOCK
  5
1C
330
1B
100
AcDbEntity
 67
     1
  8
0
100
AcDbBlockBegin
  2
*Paper_Space
 70
     0
 10
0.0
 20
0.0
 30
0.0
  3
*Paper_Space
  1

  0
ENDBLK
  5
1D
330
1B
100
AcDbEntity
 67
     1
  8
0
100
AcDbBlockEnd
  0
BLOCK
  5
24
330
23
100
AcDbEntity
  8
0
100
AcDbBlockBegin
  2
*Paper_Space0
 70
     0
 10
0.0
 20
0.0
 30
0.0
  3
*Paper_Space0
  1

  0
ENDBLK
  5
25
330
23
100
AcDbEntity
  8
0
100
AcDbBlockEnd
  0
ENDSEC
  0
SECTION
  2
ENTITIES
  0
LINE
  5
65
330
1F
100
AcDbEntity
  8
0
  6
CENTERX2
 62
     7
370
    18
100
AcDbLine
 10
0.25
 20
0.25
 30
0.0
 11
0.25
 21
11.75
 31
0.0
  0
LINE
  5
66
330
1F
100
AcDbEntity
  8
0
  6
CENTERX2
 62
     7
370
    18
100
AcDbLine
 10
0.25
 20
0.25
 30
0.0
 11
23.75
 21
0.25
 31
0.0
  0
LINE
  5
67
330
1F
100
AcDbEntity
  8
0
  6
CENTERX2
 62
     7
370
    18
100
AcDbLine
 10
23.75
 20
0.25
 30
0.0
 11
23.75
 21
11.75
 31
0.0
  0
LINE
  5
68
330
1F
100
AcDbEntity
  8
0
  6
CENTERX2
 62
     7
370
    18
100
AcDbLine
 10
23.75
 20
11.75
 30
0.0
 11
0.25
 21
11.75
 31
0.0
  0
ARC
  5
69
330
1F
100
AcDbEntity
  8
0
  6
Continuous
 62
     7
370
    25
100
AcDbCircle
 10
2.0677973301
 20
10.332115539
 30
0.0
 40
0.1000000000000006
100
AcDbArc
 50
310.0465202202
 51
49.9534797798
  0
LINE
  5
6A
330
1F
100
AcDbEntity
  8
0
  6
Continuous
 62
     7
370
    25
100
AcDbLine
 10
1.3416687042
 20
11.0730449283
 30
0.0
 11
2.1321382674
 21
10.4086677681
 31
0.0
  0
ARC
  5
6B
330
1F
100
AcDbEntity
  8
0
  6
Continuous
 62
     7
370
    25
100
AcDbCircle
 10
1.2773277669
 20
10.9964926991
 30
0.0
 40
0.0999999999999999
100
AcDbArc
 50
49.9534797798
 51
180.0
  0
LINE
  5
6C
330
1F
100
AcDbEntity
  8
0
  6
Continuous
 62
     7
370
    25
100
AcDbLine
 10
1.1773277669
 20
9.6677383788
 30
0.0
 11
1.1773277669
 21
10.9964926991
 31
0.0
  0
ARC
  5
6D
330
1F
100
AcDbEntity
  8
0
  6
Continuous
 62
     7
370
    25
100
AcDbCircle
 10
1.2773277669
 20
9.6677383788
 30
0.0
 40
0.0999999999999999
100
AcDbArc
 50
180.0
 51
310.0465202202
  0
LINE
  5
6E
330
1F
100
AcDbEntity
  8
0
  6
Continuous
 62
     7
370
    25
100
AcDbLine
 10
1.3416687042
 20
9.5911861497
 30
0.0
 11
2.1321382674
 21
10.2555633098
 31
0.0
  0
ARC
  5
6F
330
1F
100
AcDbEntity
  8
0
  6
Continuous
 62
     7
370
    25
100
AcDbCircle
 10
5.2768125693
 20
9.357115539
 30
0.0
 40
0.1000000000000014
100
AcDbArc
 50
130.0465202202
 51
270.0
  0
LINE
  5
70
330
1F
100
AcDbEntity
  8
0
  6
Continuous
 62
     7
370
    25
100
AcDbLine
 10
5.2768125693
 20
9.257115539
 30
0.0
 11
6.819793617
 21
9.257115539
 31
0.0
  0
ARC
  5
71
330
1F
100
AcDbEntity
  8
0
  6
Continuous
 62
     7
370
    25
100
AcDbCircle
 10
6.819793617
 20
9.357115539
 30
0.0
 40
0.1000000000000014
100
AcDbArc
 50
270.0
 51
49.9534797798
  0
LINE
  5
72
330
1F
100
AcDbEntity
  8
0
  6
Continuous
 62
     7
370
    25
100
AcDbLine
 10
6.1126440304
 20
10.082093346
 30
0.0
 11
6.8841345543
 21
9.4336677681
 31
0.0
  0
ARC
  5
73
330
1F
100
AcDbEntity
  8
0
  6
Continuous
 62
     7
370
    25
100
AcDbCircle
 10
6.0483030932
 20
10.0055411168
 30
0.0
 40
0.0999999999999995
100
AcDbArc
 50
49.9534797798
 51
130.0465202202
  0
LINE
  5
74
330
1F
100
AcDbEntity
  8
0
  6
Continuous
 62
     7
370
    25
100
AcDbLine
 10
5.9839621559
 20
10.082093346
 30
0.0
 11
5.212471632
 21
9.4336677681
 31
0.0
  0
ARC
  5
75
330
1F
100
AcDbEntity
  8
0
  6
Continuous
 62
     7
370
    25
100
AcDbCircle
 10
4.7023277669
 20
9.5526926756
 30
0.0
 40
0.1000000000000005
100
AcDbArc
 50
120.0
 51
180.0
  0
LINE
  5
76
330
1F
100
AcDbEntity
  8
0
  6
Continuous
 62
     7
370
    25
100
AcDbLine
 10
4.6023277669
 20
9.527418997
 30
0.0
 11
4.6023277669
 21
9.5526926756
 31
0.0
  0
ARC
  5
77
330
1F
100
AcDbEntity
  8
0
  6
Continuous
 62
     7
370
    25
100
AcDbCircle
 10
4.7023277669
 20
9.527418997
 30
0.0
 40
0.1000000000000005
100
AcDbArc
 50
180.0
 51
310.0465202202
  0
LINE
  5
78
330
1F
100
AcDbEntity
  8
0
  6
Continuous
 62
     7
370
    25
100
AcDbLine
 10
4.7666687042
 20
9.4508667679
 30
0.0
 11
5.72408892
 21
10.2555633098
 31
0.0
  0
ARC
  5
79
330
1F
100
AcDbEntity
  8
0
  6
Continuous
 62
     7
370
    25
100
AcDbCircle
 10
5.6597479827
 20
10.332115539
 30
0.0
 40
0.1000000000000003
100
AcDbArc
 50
310.0465202202
 51
49.9534797798
  0
LINE
  5
7A
330
1F
100
AcDbEntity
  8
0
  6
Continuous
 62
     7
370
    25
100
AcDbLine
 10
4.7666687042
 20
11.2133643101
 30
0.0
 11
5.72408892
 21
10.4086677681
 31
0.0
  0
ARC
  5
7B
330
1F
100
AcDbEntity
  8
0
  6
Continuous
 62
     7
370
    25
100
AcDbCircle
 10
4.7023277669
 20
11.1368120809
 30
0.0
 40
0.1000000000000005
100
AcDbArc
 50
49.9534797798
 51
180.0
  0
LINE
  5
7C
330
1F
100
AcDbEntity
  8
0
  6
Continuous
 62
     7
370
    25
100
AcDbLine
 10
4.6023277669
 20
11.1115384024
 30
0.0
 11
4.6023277669
 21
11.1368120809
 31
0.0
  0
ARC
  5
7D
330
1F
100
AcDbEntity
  8
0
  6
Continuous
 62
     7
370
    25
100
AcDbCircle
 10
4.7023277669
 20
11.1115384024
 30
0.0
 40
0.100000000000001
100
AcDbArc
 50
180.0
 51
240.0
  0
ARC
  5
7E
330
1F
100
AcDbEntity
  8
0
  6
Continuous
 62
     7
370
    25
100
AcDbCircle
 10
4.2523277669
 20
10.332115539
 30
0.0
 40
0.8
100
AcDbArc
 50
300.0
 51
60.0
  0
ARC
  5
7F
330
1F
100
AcDbEntity
  8
0
  6
Continuous
 62
     7
370
    25
100
AcDbCircle
 10
6.819793617
 20
11.307115539
 30
0.0
 40
0.1000000000000001
100
AcDbArc
 50
310.0465202202
 51
90.0
  0
LINE
  5
80
330
1F
100
AcDbEntity
  8
0
  6
Continuous
 62
     7
370
    25
100
AcDbLine
 10
6.819793617
 20
11.407115539
 30
0.0
 11
5.2768125693
 21
11.407115539
 31
0.0
  0
ARC
  5
81
330
1F
100
AcDbEntity
  8
0
  6
Continuous
 62
     7
370
    25
100
AcDbCircle
 10
5.2768125693
 20
11.307115539
 30
0.0
 40
0.0999999999999996
100
AcDbArc
 50
90.0
 51
229.9534797798
  0
LINE
  5
82
330
1F
100
AcDbEntity
  8
0
  6
Continuous
 62
     7
370
    25
100
AcDbLine
 10
5.9839621559
 20
10.582137732
 30
0.0
 11
5.212471632
 21
11.2305633098
 31
0.0
  0
ARC
  5
83
330
1F
100
AcDbEntity
  8
0
  6
Continuous
 62
     7
370
    25
100
AcDbCircle
 10
6.0483030932
 20
10.6586899612
 30
0.0
 40
0.1000000000000003
100
AcDbArc
 50
229.9534797798
 51
310.0465202202
  0
LINE
  5
84
330
1F
100
AcDbEntity
  8
0
  6
Continuous
 62
     7
370
    25
100
AcDbLine
 10
6.1126440304
 20
10.582137732
 30
0.0
 11
6.8841345543
 21
11.2305633098
 31
0.0
  0
LINE
  5
85
330
1F
100
AcDbEntity
  8
0
  6
Continuous
 62
     7
370
    25
100
AcDbLine
 10
7.6273277669
 20
11.207115539
 30
0.0
 11
7.6273277669
 21
9.457115539
 31
0.0
  0
LINE
  5
86
330
1F
100
AcDbEntity
  8
0
  6
Continuous
 62
     7
370
    25
100
AcDbLine
 10
7.6273277669
 20
9.457115539
 30
0.0
 11
7.8773277669
 21
9.457115539
 31
0.0
  0
LINE
  5
87
330
1F
100
AcDbEntity
  8
0
  6
Continuous
 62
     7
370
    25
100
AcDbLine
 10
7.8773277669
 20
11.207115539
 30
0.0
 11
7.8773277669
 21
9.457115539
 31
0.0
  0
LINE
  5
88
330
1F
100
AcDbEntity
  8
0
  6
Continuous
 62
     7
370
    25
100
AcDbLine
 10
7.6273277669
 20
11.207115539
 30
0.0
 11
7.8773277669
 21
11.207115539
 31
0.0
  0
ARC
  5
89
330
1F
100
AcDbEntity
  8
0
  6
Continuous
 62
     7
370
    25
100
AcDbCircle
 10
0.4273277669
 20
11.607115539
 30
0.0
 40
0.1
100
AcDbArc
 50
90.0
 51
180.0
  0
LINE
  5
8A
330
1F
100
AcDbEntity
  8
0
  6
Continuous
 62
     7
370
    25
100
AcDbLine
 10
0.4273277669
 20
11.707115539
 30
0.0
 11
8.0773277669
 21
11.707115539
 31
0.0
  0
ARC
  5
8B
330
1F
100
AcDbEntity
  8
0
  6
Continuous
 62
     7
370
    25
100
AcDbCircle
 10
8.0773277669
 20
11.607115539
 30
0.0
 40
0.0999999999999996
100
AcDbArc
 50
0.0
 51
90.0
  0
LINE
  5
8C
330
1F
100
AcDbEntity
  8
0
  6
Continuous
 62
     7
370
    25
100
AcDbLine
 10
8.1773277669
 20
11.607115539
 30
0.0
 11
8.1773277669
 21
9.057115539
 31
0.0
  0
ARC
  5
8D
330
1F
100
AcDbEntity
  8
0
  6
Continuous
 62
     7
370
    25
100
AcDbCircle
 10
8.0773277669
 20
9.057115539
 30
0.0
 40
0.1000000000000014
100
AcDbArc
 50
270.0
 51
0.0
  0
LINE
  5
8E
330
1F
100
AcDbEntity
  8
0
  6
Continuous
 62
     7
370
    25
100
AcDbLine
 10
0.4273277669
 20
8.957115539
 30
0.0
 11
8.0773277669
 21
8.957115539
 31
0.0
  0
ARC
  5
8F
330
1F
100
AcDbEntity
  8
0
  6
Continuous
 62
     7
370
    25
100
AcDbCircle
 10
0.4273277669
 20
9.057115539
 30
0.0
 40
0.1000000000000014
100
AcDbArc
 50
180.0
 51
270.0
  0
LINE
  5
90
330
1F
100
AcDbEntity
  8
0
  6
Continuous
 62
     7
370
    25
100
AcDbLine
 10
0.3273277669
 20
11.607115539
 30
0.0
 11
0.3273277669
 21
9.057115539
 31
0.0
  0
CIRCLE
  5
91
330
1F
100
AcDbEntity
  8
0
  6
Continuous
 62
     7
370
    25
100
AcDbCircle
 10
4.2523277669
 20
10.332115539
 30
0.0
 40
0.5
  0
ARC
  5
92
330
1F
100
AcDbEntity
  8
0
  6
Continuous
 62
     7
370
    25
100
AcDbCircle
 10
7.2273277669
 20
10.9964926991
 30
0.0
 40
0.1000000000000014
100
AcDbArc
 50
0.0
 51
130.0465202202
  0
LINE
  5
93
330
1F
100
AcDbEntity
  8
0
  6
Continuous
 62
     7
370
    25
100
AcDbLine
 10
7.1629868296
 20
11.0730449283
 30
0.0
 11
6.3725172663
 21
10.4086677681
 31
0.0
  0
ARC
  5
94
330
1F
100
AcDbEntity
  8
0
  6
Continuous
 62
     7
370
    25
100
AcDbCircle
 10
6.4368582036
 20
10.332115539
 30
0.0
 40
0.1000000000000003
100
AcDbArc
 50
130.0465202202
 51
229.9534797798
  0
LINE
  5
95
330
1F
100
AcDbEntity
  8
0
  6
Continuous
 62
     7
370
    25
100
AcDbLine
 10
7.1629868296
 20
9.5911861497
 30
0.0
 11
6.3725172663
 21
10.2555633098
 31
0.0
  0
ARC
  5
96
330
1F
100
AcDbEntity
  8
0
  6
Continuous
 62
     7
370
    25
100
AcDbCircle
 10
7.2273277669
 20
9.6677383788
 30
0.0
 40
0.1000000000000014
100
AcDbArc
 50
229.9534797798
 51
0.0
  0
LINE
  5
97
330
1F
100
AcDbEntity
  8
0
  6
Continuous
 62
     7
370
    25
100
AcDbLine
 10
7.3273277669
 20
9.6677383788
 30
0.0
 11
7.3273277669
 21
10.9964926991
 31
0.0
  0
ARC
  5
98
330
1F
100
AcDbEntity
  8
0
  6
Continuous
 62
     7
370
    25
100
AcDbCircle
 10
3.2278429644
 20
11.307115539
 30
0.0
 40
0.0999999999999996
100
AcDbArc
 50
310.0465202202
 51
90.0
  0
LINE
  5
99
330
1F
100
AcDbEntity
  8
0
  6
Continuous
 62
     7
370
    25
100
AcDbLine
 10
1.6848619168
 20
11.407115539
 30
0.0
 11
3.2278429644
 21
11.407115539
 31
0.0
  0
ARC
  5
9A
330
1F
100
AcDbEntity
  8
0
  6
Continuous
 62
     7
370
    25
100
AcDbCircle
 10
1.6848619168
 20
11.307115539
 30
0.0
 40
0.1
100
AcDbArc
 50
90.0
 51
229.9534797798
  0
LINE
  5
9B
330
1F
100
AcDbEntity
  8
0
  6
Continuous
 62
     7
370
    25
100
AcDbLine
 10
2.3920115033
 20
10.582137732
 30
0.0
 11
1.6205209795
 21
11.2305633098
 31
0.0
  0
ARC
  5
9C
330
1F
100
AcDbEntity
  8
0
  6
Continuous
 62
     7
370
    25
100
AcDbCircle
 10
2.4563524406
 20
10.6586899612
 30
0.0
 40
0.1000000000000009
100
AcDbArc
 50
229.9534797798
 51
310.0465202202
  0
LINE
  5
9D
330
1F
100
AcDbEntity
  8
0
  6
Continuous
 62
     7
370
    25
100
AcDbLine
 10
2.5206933779
 20
10.582137732
 30
0.0
 11
3.2921839017
 21
11.2305633098
 31
0.0
  0
ARC
  5
9E
330
1F
100
AcDbEntity
  8
0
  6
Continuous
 62
     7
370
    25
100
AcDbCircle
 10
2.844907551
 20
10.332115539
 30
0.0
 40
0.1000000000000009
100
AcDbArc
 50
130.0465202202
 51
229.9534797798
  0
LINE
  5
9F
330
1F
100
AcDbEntity
  8
0
  6
Continuous
 62
     7
370
    25
100
AcDbLine
 10
3.7379868296
 20
9.4508667679
 30
0.0
 11
2.7805666137
 21
10.2555633098
 31
0.0
  0
ARC
  5
A0
330
1F
100
AcDbEntity
  8
0
  6
Continuous
 62
     7
370
    25
100
AcDbCircle
 10
3.8023277669
 20
9.527418997
 30
0.0
 40
0.1000000000000001
100
AcDbArc
 50
229.9534797798
 51
0.0
  0
LINE
  5
A1
330
1F
100
AcDbEntity
  8
0
  6
Continuous
 62
     7
370
    25
100
AcDbLine
 10
3.9023277669
 20
9.527418997
 30
0.0
 11
3.9023277669
 21
9.5526926756
 31
0.0
  0
ARC
  5
A2
330
1F
100
AcDbEntity
  8
0
  6
Continuous
 62
     7
370
    25
100
AcDbCircle
 10
3.8023277669
 20
9.5526926756
 30
0.0
 40
0.1000000000000001
100
AcDbArc
 50
0.0
 51
60.0
  0
ARC
  5
A3
330
1F
100
AcDbEntity
  8
0
  6
Continuous
 62
     7
370
    25
100
AcDbCircle
 10
4.2523277669
 20
10.332115539
 30
0.0
 40
0.7999999999999998
100
AcDbArc
 50
120.0
 51
240.0
  0
ARC
  5
A4
330
1F
100
AcDbEntity
  8
0
  6
Continuous
 62
     7
370
    25
100
AcDbCircle
 10
3.8023277669
 20
11.1115384024
 30
0.0
 40
0.100000000000001
100
AcDbArc
 50
300.0
 51
0.0
  0
LINE
  5
A5
330
1F
100
AcDbEntity
  8
0
  6
Continuous
 62
     7
370
    25
100
AcDbLine
 10
3.9023277669
 20
11.1115384024
 30
0.0
 11
3.9023277669
 21
11.1368120809
 31
0.0
  0
ARC
  5
A6
330
1F
100
AcDbEntity
  8
0
  6
Continuous
 62
     7
370
    25
100
AcDbCircle
 10
3.8023277669
 20
11.1368120809
 30
0.0
 40
0.1000000000000001
100
AcDbArc
 50
0.0
 51
130.0465202202
  0
LINE
  5
A7
330
1F
100
AcDbEntity
  8
0
  6
Continuous
 62
     7
370
    25
100
AcDbLine
 10
3.7379868296
 20
11.2133643101
 30
0.0
 11
2.7805666137
 21
10.4086677681
 31
0.0
  0
LINE
  5
A8
330
1F
100
AcDbEntity
  8
0
  6
Continuous
 62
     7
370
    25
100
AcDbLine
 10
0.8773277669
 20
9.457115539
 30
0.0
 11
0.6273277669
 21
9.457115539
 31
0.0
  0
LINE
  5
A9
330
1F
100
AcDbEntity
  8
0
  6
Continuous
 62
     7
370
    25
100
AcDbLine
 10
0.8773277669
 20
11.207115539
 30
0.0
 11
0.8773277669
 21
9.457115539
 31
0.0
  0
LINE
  5
AA
330
1F
100
AcDbEntity
  8
0
  6
Continuous
 62
     7
370
    25
100
AcDbLine
 10
0.8773277669
 20
11.207115539
 30
0.0
 11
0.6273277669
 21
11.207115539
 31
0.0
  0
LINE
  5
AB
330
1F
100
AcDbEntity
  8
0
  6
Continuous
 62
     7
370
    25
100
AcDbLine
 10
0.6273277669
 20
11.207115539
 30
0.0
 11
0.6273277669
 21
9.457115539
 31
0.0
  0
ARC
  5
AC
330
1F
100
AcDbEntity
  8
0
  6
Continuous
 62
     7
370
    25
100
AcDbCircle
 10
1.6848619168
 20
9.357115539
 30
0.0
 40
0.1000000000000014
100
AcDbArc
 50
130.0465202202
 51
270.0
  0
LINE
  5
AD
330
1F
100
AcDbEntity
  8
0
  6
Continuous
 62
     7
370
    25
100
AcDbLine
 10
3.2278429644
 20
9.257115539
 30
0.0
 11
1.6848619168
 21
9.257115539
 31
0.0
  0
ARC
  5
AE
330
1F
100
AcDbEntity
  8
0
  6
Continuous
 62
     7
370
    25
100
AcDbCircle
 10
3.2278429644
 20
9.357115539
 30
0.0
 40
0.1000000000000014
100
AcDbArc
 50
270.0
 51
49.9534797798
  0
LINE
  5
AF
330
1F
100
AcDbEntity
  8
0
  6
Continuous
 62
     7
370
    25
100
AcDbLine
 10
2.5206933779
 20
10.082093346
 30
0.0
 11
3.2921839017
 21
9.4336677681
 31
0.0
  0
ARC
  5
B0
330
1F
100
AcDbEntity
  8
0
  6
Continuous
 62
     7
370
    25
100
AcDbCircle
 10
2.4563524406
 20
10.0055411168
 30
0.0
 40
0.0999999999999995
100
AcDbArc
 50
49.9534797798
 51
130.0465202202
  0
LINE
  5
B1
330
1F
100
AcDbEntity
  8
0
  6
Continuous
 62
     7
370
    25
100
AcDbLine
 10
2.3920115033
 20
10.082093346
 30
0.0
 11
1.6205209795
 21
9.4336677681
 31
0.0
  0
MTEXT
  5
B3
330
1F
100
AcDbEntity
  8
PART_NAMES
100
AcDbMText
 10
3.9014135325
 20
11.5085277841
 30
0.0
 40
0.1666666667
 41
0.0
 71
     1
 72
     1
  1
SSC3
  7
SLDTEXTSTYLE0
 73
     1
 44
1.0
  0
ARC
  5
B4
330
1F
100
AcDbEntity
  8
0
  6
Continuous
 62
     7
370
    25
100
AcDbCircle
 10
10.0100839491
 20
10.3335782494
 30
0.0
 40
0.1000000000000003
100
AcDbArc
 50
310.0465202202
 51
49.9534797798
  0
LINE
  5
B5
330
1F
100
AcDbEntity
  8
0
  6
Continuous
 62
     7
370
    25
100
AcDbLine
 10
9.2839553232
 20
11.0745076387
 30
0.0
 11
10.0744248864
 21
10.4101304785
 31
0.0
  0
ARC
  5
B6
330
1F
100
AcDbEntity
  8
0
  6
Continuous
 62
     7
370
    25
100
AcDbCircle
 10
9.2196143859
 20
10.9979554095
 30
0.0
 40
0.0999999999999996
100
AcDbArc
 50
49.9534797798
 51
180.0
  0
LINE
  5
B7
330
1F
100
AcDbEntity
  8
0
  6
Continuous
 62
     7
370
    25
100
AcDbLine
 10
9.1196143859
 20
9.6692010892
 30
0.0
 11
9.1196143859
 21
10.9979554095
 31
0.0
  0
ARC
  5
B8
330
1F
100
AcDbEntity
  8
0
  6
Continuous
 62
     7
370
    25
100
AcDbCircle
 10
9.2196143859
 20
9.6692010892
 30
0.0
 40
0.0999999999999996
100
AcDbArc
 50
180.0
 51
310.0465202202
  0
LINE
  5
B9
330
1F
100
AcDbEntity
  8
0
  6
Continuous
 62
     7
370
    25
100
AcDbLine
 10
9.2839553232
 20
9.5926488601
 30
0.0
 11
10.0744248864
 21
10.2570260202
 31
0.0
  0
ARC
  5
BA
330
1F
100
AcDbEntity
  8
0
  6
Continuous
 62
     7
370
    25
100
AcDbCircle
 10
13.2190991884
 20
9.3585782494
 30
0.0
 40
0.1000000000000014
100
AcDbArc
 50
130.0465202202
 51
270.0
  0
LINE
  5
BB
330
1F
100
AcDbEntity
  8
0
  6
Continuous
 62
     7
370
    25
100
AcDbLine
 10
13.2190991884
 20
9.2585782494
 30
0.0
 11
14.762080236
 21
9.2585782494
 31
0.0
  0
ARC
  5
BC
330
1F
100
AcDbEntity
  8
0
  6
Continuous
 62
     7
370
    25
100
AcDbCircle
 10
14.762080236
 20
9.3585782494
 30
0.0
 40
0.1000000000000014
100
AcDbArc
 50
270.0
 51
49.9534797798
  0
LINE
  5
BD
330
1F
100
AcDbEntity
  8
0
  6
Continuous
 62
     7
370
    25
100
AcDbLine
 10
14.0549306495
 20
10.0835560563
 30
0.0
 11
14.8264211733
 21
9.4351304785
 31
0.0
  0
ARC
  5
BE
330
1F
100
AcDbEntity
  8
0
  6
Continuous
 62
     7
370
    25
100
AcDbCircle
 10
13.9905897122
 20
10.0070038272
 30
0.0
 40
0.1000000000000001
100
AcDbArc
 50
49.9534797798
 51
130.0465202202
  0
LINE
  5
BF
330
1F
100
AcDbEntity
  8
0
  6
Continuous
 62
     7
370
    25
100
AcDbLine
 10
13.9262487749
 20
10.0835560563
 30
0.0
 11
13.1547582511
 21
9.4351304785
 31
0.0
  0
ARC
  5
C0
330
1F
100
AcDbEntity
  8
0
  6
Continuous
 62
     7
370
    25
100
AcDbCircle
 10
12.6446143859
 20
9.554155386
 30
0.0
 40
0.0999999999999996
100
AcDbArc
 50
120.0
 51
180.0
  0
LINE
  5
C1
330
1F
100
AcDbEntity
  8
0
  6
Continuous
 62
     7
370
    25
100
AcDbLine
 10
12.5446143859
 20
9.5288817074
 30
0.0
 11
12.5446143859
 21
9.554155386
 31
0.0
  0
ARC
  5
C2
330
1F
100
AcDbEntity
  8
0
  6
Continuous
 62
     7
370
    25
100
AcDbCircle
 10
12.6446143859
 20
9.5288817074
 30
0.0
 40
0.0999999999999996
100
AcDbArc
 50
180.0
 51
310.0465202202
  0
LINE
  5
C3
330
1F
100
AcDbEntity
  8
0
  6
Continuous
 62
     7
370
    25
100
AcDbLine
 10
12.7089553232
 20
9.4523294783
 30
0.0
 11
13.666375539
 21
10.2570260202
 31
0.0
  0
ARC
  5
C4
330
1F
100
AcDbEntity
  8
0
  6
Continuous
 62
     7
370
    25
100
AcDbCircle
 10
13.6020346017
 20
10.3335782494
 30
0.0
 40
0.1000000000000015
100
AcDbArc
 50
310.0465202202
 51
49.9534797798
  0
LINE
  5
C5
330
1F
100
AcDbEntity
  8
0
  6
Continuous
 62
     7
370
    25
100
AcDbLine
 10
12.7089553232
 20
11.2148270205
 30
0.0
 11
13.666375539
 21
10.4101304785
 31
0.0
  0
ARC
  5
C6
330
1F
100
AcDbEntity
  8
0
  6
Continuous
 62
     7
370
    25
100
AcDbCircle
 10
12.6446143859
 20
11.1382747913
 30
0.0
 40
0.0999999999999996
100
AcDbArc
 50
49.9534797798
 51
180.0
  0
LINE
  5
C7
330
1F
100
AcDbEntity
  8
0
  6
Continuous
 62
     7
370
    25
100
AcDbLine
 10
12.5446143859
 20
11.1130011128
 30
0.0
 11
12.5446143859
 21
11.1382747913
 31
0.0
  0
ARC
  5
C8
330
1F
100
AcDbEntity
  8
0
  6
Continuous
 62
     7
370
    25
100
AcDbCircle
 10
12.6446143859
 20
11.1130011128
 30
0.0
 40
0.0999999999999996
100
AcDbArc
 50
180.0
 51
240.0
  0
ARC
  5
C9
330
1F
100
AcDbEntity
  8
0
  6
Continuous
 62
     7
370
    25
100
AcDbCircle
 10
12.1946143859
 20
10.3335782494
 30
0.0
 40
0.8000000000000015
100
AcDbArc
 50
300.0
 51
60.0
  0
ARC
  5
CA
330
1F
100
AcDbEntity
  8
0
  6
Continuous
 62
     7
370
    25
100
AcDbCircle
 10
14.762080236
 20
11.3085782494
 30
0.0
 40
0.1000000000000001
100
AcDbArc
 50
310.0465202202
 51
90.0
  0
LINE
  5
CB
330
1F
100
AcDbEntity
  8
0
  6
Continuous
 62
     7
370
    25
100
AcDbLine
 10
14.762080236
 20
11.4085782494
 30
0.0
 11
13.2190991884
 21
11.4085782494
 31
0.0
  0
ARC
  5
CC
330
1F
100
AcDbEntity
  8
0
  6
Continuous
 62
     7
370
    25
100
AcDbCircle
 10
13.2190991884
 20
11.3085782494
 30
0.0
 40
0.0999999999999996
100
AcDbArc
 50
90.0
 51
229.9534797798
  0
LINE
  5
CD
330
1F
100
AcDbEntity
  8
0
  6
Continuous
 62
     7
370
    25
100
AcDbLine
 10
13.9262487749
 20
10.5836004424
 30
0.0
 11
13.1547582511
 21
11.2320260202
 31
0.0
  0
ARC
  5
CE
330
1F
100
AcDbEntity
  8
0
  6
Continuous
 62
     7
370
    25
100
AcDbCircle
 10
13.9905897122
 20
10.6601526715
 30
0.0
 40
0.1000000000000028
100
AcDbArc
 50
229.9534797798
 51
310.0465202202
  0
LINE
  5
CF
330
1F
100
AcDbEntity
  8
0
  6
Continuous
 62
     7
370
    25
100
AcDbLine
 10
14.0549306495
 20
10.5836004424
 30
0.0
 11
14.8264211733
 21
11.2320260202
 31
0.0
  0
LINE
  5
D0
330
1F
100
AcDbEntity
  8
0
  6
Continuous
 62
     7
370
    25
100
AcDbLine
 10
15.5696143859
 20
11.2085782494
 30
0.0
 11
15.5696143859
 21
9.4585782494
 31
0.0
  0
LINE
  5
D1
330
1F
100
AcDbEntity
  8
0
  6
Continuous
 62
     7
370
    25
100
AcDbLine
 10
15.5696143859
 20
9.4585782494
 30
0.0
 11
15.8196143859
 21
9.4585782494
 31
0.0
  0
LINE
  5
D2
330
1F
100
AcDbEntity
  8
0
  6
Continuous
 62
     7
370
    25
100
AcDbLine
 10
15.8196143859
 20
11.2085782494
 30
0.0
 11
15.8196143859
 21
9.4585782494
 31
0.0
  0
LINE
  5
D3
330
1F
100
AcDbEntity
  8
0
  6
Continuous
 62
     7
370
    25
100
AcDbLine
 10
15.5696143859
 20
11.2085782494
 30
0.0
 11
15.8196143859
 21
11.2085782494
 31
0.0
  0
ARC
  5
D4
330
1F
100
AcDbEntity
  8
0
  6
Continuous
 62
     7
370
    25
100
AcDbCircle
 10
8.3696143859
 20
11.6085782494
 30
0.0
 40
0.1000000000000014
100
AcDbArc
 50
90.0
 51
180.0
  0
LINE
  5
D5
330
1F
100
AcDbEntity
  8
0
  6
Continuous
 62
     7
370
    25
100
AcDbLine
 10
8.3696143859
 20
11.7085782494
 30
0.0
 11
16.0196143859
 21
11.7085782494
 31
0.0
  0
ARC
  5
D6
330
1F
100
AcDbEntity
  8
0
  6
Continuous
 62
     7
370
    25
100
AcDbCircle
 10
16.0196143859
 20
11.6085782494
 30
0.0
 40
0.1000000000000014
100
AcDbArc
 50
0.0
 51
90.0
  0
LINE
  5
D7
330
1F
100
AcDbEntity
  8
0
  6
Continuous
 62
     7
370
    25
100
AcDbLine
 10
16.1196143859
 20
11.6085782494
 30
0.0
 11
16.1196143859
 21
9.0585782494
 31
0.0
  0
ARC
  5
D8
330
1F
100
AcDbEntity
  8
0
  6
Continuous
 62
     7
370
    25
100
AcDbCircle
 10
16.0196143859
 20
9.0585782494
 30
0.0
 40
0.1000000000000014
100
AcDbArc
 50
270.0
 51
0.0
  0
LINE
  5
D9
330
1F
100
AcDbEntity
  8
0
  6
Continuous
 62
     7
370
    25
100
AcDbLine
 10
8.3696143859
 20
8.9585782494
 30
0.0
 11
16.0196143859
 21
8.9585782494
 31
0.0
  0
ARC
  5
DA
330
1F
100
AcDbEntity
  8
0
  6
Continuous
 62
     7
370
    25
100
AcDbCircle
 10
8.3696143859
 20
9.0585782494
 30
0.0
 40
0.1000000000000014
100
AcDbArc
 50
180.0
 51
270.0
  0
LINE
  5
DB
330
1F
100
AcDbEntity
  8
0
  6
Continuous
 62
     7
370
    25
100
AcDbLine
 10
8.2696143859
 20
11.6085782494
 30
0.0
 11
8.2696143859
 21
9.0585782494
 31
0.0
  0
CIRCLE
  5
DC
330
1F
100
AcDbEntity
  8
0
  6
Continuous
 62
     7
370
    25
100
AcDbCircle
 10
12.1946143859
 20
10.3335782494
 30
0.0
 40
0.5
  0
ARC
  5
DD
330
1F
100
AcDbEntity
  8
0
  6
Continuous
 62
     7
370
    25
100
AcDbCircle
 10
15.1696143859
 20
10.9979554095
 30
0.0
 40
0.0999999999999996
100
AcDbArc
 50
0.0
 51
130.0465202202
  0
LINE
  5
DE
330
1F
100
AcDbEntity
  8
0
  6
Continuous
 62
     7
370
    25
100
AcDbLine
 10
15.1052734486
 20
11.0745076387
 30
0.0
 11
14.3148038854
 21
10.4101304785
 31
0.0
  0
ARC
  5
DF
330
1F
100
AcDbEntity
  8
0
  6
Continuous
 62
     7
370
    25
100
AcDbCircle
 10
14.3791448227
 20
10.3335782494
 30
0.0
 40
0.1000000000000003
100
AcDbArc
 50
130.0465202202
 51
229.9534797798
  0
LINE
  5
E0
330
1F
100
AcDbEntity
  8
0
  6
Continuous
 62
     7
370
    25
100
AcDbLine
 10
15.1052734486
 20
9.5926488601
 30
0.0
 11
14.3148038854
 21
10.2570260202
 31
0.0
  0
ARC
  5
E1
330
1F
100
AcDbEntity
  8
0
  6
Continuous
 62
     7
370
    25
100
AcDbCircle
 10
15.1696143859
 20
9.6692010892
 30
0.0
 40
0.0999999999999996
100
AcDbArc
 50
229.9534797798
 51
0.0
  0
LINE
  5
E2
330
1F
100
AcDbEntity
  8
0
  6
Continuous
 62
     7
370
    25
100
AcDbLine
 10
15.2696143859
 20
9.6692010892
 30
0.0
 11
15.2696143859
 21
10.9979554095
 31
0.0
  0
ARC
  5
E3
330
1F
100
AcDbEntity
  8
0
  6
Continuous
 62
     7
370
    25
100
AcDbCircle
 10
11.1701295834
 20
11.3085782494
 30
0.0
 40
0.1000000000000001
100
AcDbArc
 50
310.0465202202
 51
90.0
  0
LINE
  5
E4
330
1F
100
AcDbEntity
  8
0
  6
Continuous
 62
     7
370
    25
100
AcDbLine
 10
9.6271485358
 20
11.4085782494
 30
0.0
 11
11.1701295834
 21
11.4085782494
 31
0.0
  0
ARC
  5
E5
330
1F
100
AcDbEntity
  8
0
  6
Continuous
 62
     7
370
    25
100
AcDbCircle
 10
9.6271485358
 20
11.3085782494
 30
0.0
 40
0.1000000000000001
100
AcDbArc
 50
90.0
 51
229.9534797798
  0
LINE
  5
E6
330
1F
100
AcDbEntity
  8
0
  6
Continuous
 62
     7
370
    25
100
AcDbLine
 10
10.3342981223
 20
10.5836004424
 30
0.0
 11
9.5628075985
 21
11.2320260202
 31
0.0
  0
ARC
  5
E7
330
1F
100
AcDbEntity
  8
0
  6
Continuous
 62
     7
370
    25
100
AcDbCircle
 10
10.3986390596
 20
10.6601526715
 30
0.0
 40
0.100000000000004
100
AcDbArc
 50
229.9534797798
 51
310.0465202202
  0
LINE
  5
E8
330
1F
100
AcDbEntity
  8
0
  6
Continuous
 62
     7
370
    25
100
AcDbLine
 10
10.4629799969
 20
10.5836004424
 30
0.0
 11
11.2344705207
 21
11.2320260202
 31
0.0
  0
ARC
  5
E9
330
1F
100
AcDbEntity
  8
0
  6
Continuous
 62
     7
370
    25
100
AcDbCircle
 10
10.7871941701
 20
10.3335782494
 30
0.0
 40
0.1000000000000015
100
AcDbArc
 50
130.0465202202
 51
229.9534797798
  0
LINE
  5
EA
330
1F
100
AcDbEntity
  8
0
  6
Continuous
 62
     7
370
    25
100
AcDbLine
 10
11.6802734486
 20
9.4523294783
 30
0.0
 11
10.7228532328
 21
10.2570260202
 31
0.0
  0
ARC
  5
EB
330
1F
100
AcDbEntity
  8
0
  6
Continuous
 62
     7
370
    25
100
AcDbCircle
 10
11.7446143859
 20
9.5288817074
 30
0.0
 40
0.1000000000000001
100
AcDbArc
 50
229.9534797798
 51
0.0
  0
LINE
  5
EC
330
1F
100
AcDbEntity
  8
0
  6
Continuous
 62
     7
370
    25
100
AcDbLine
 10
11.8446143859
 20
9.5288817074
 30
0.0
 11
11.8446143859
 21
9.554155386
 31
0.0
  0
ARC
  5
ED
330
1F
100
AcDbEntity
  8
0
  6
Continuous
 62
     7
370
    25
100
AcDbCircle
 10
11.7446143859
 20
9.554155386
 30
0.0
 40
0.0999999999999991
100
AcDbArc
 50
0.0
 51
60.0
  0
ARC
  5
EE
330
1F
100
AcDbEntity
  8
0
  6
Continuous
 62
     7
370
    25
100
AcDbCircle
 10
12.1946143859
 20
10.3335782494
 30
0.0
 40
0.8000000000000015
100
AcDbArc
 50
120.0
 51
240.0
  0
ARC
  5
EF
330
1F
100
AcDbEntity
  8
0
  6
Continuous
 62
     7
370
    25
100
AcDbCircle
 10
11.7446143859
 20
11.1130011128
 30
0.0
 40
0.0999999999999991
100
AcDbArc
 50
300.0
 51
0.0
  0
LINE
  5
F0
330
1F
100
AcDbEntity
  8
0
  6
Continuous
 62
     7
370
    25
100
AcDbLine
 10
11.8446143859
 20
11.1130011128
 30
0.0
 11
11.8446143859
 21
11.1382747913
 31
0.0
  0
ARC
  5
F1
330
1F
100
AcDbEntity
  8
0
  6
Continuous
 62
     7
370
    25
100
AcDbCircle
 10
11.7446143859
 20
11.1382747913
 30
0.0
 40
0.1000000000000001
100
AcDbArc
 50
0.0
 51
130.0465202202
  0
LINE
  5
F2
330
1F
100
AcDbEntity
  8
0
  6
Continuous
 62
     7
370
    25
100
AcDbLine
 10
11.6802734486
 20
11.2148270205
 30
0.0
 11
10.7228532328
 21
10.4101304785
 31
0.0
  0
LINE
  5
F3
330
1F
100
AcDbEntity
  8
0
  6
Continuous
 62
     7
370
    25
100
AcDbLine
 10
8.8196143859
 20
9.4585782494
 30
0.0
 11
8.5696143859
 21
9.4585782494
 31
0.0
  0
LINE
  5
F4
330
1F
100
AcDbEntity
  8
0
  6
Continuous
 62
     7
370
    25
100
AcDbLine
 10
8.8196143859
 20
11.2085782494
 30
0.0
 11
8.8196143859
 21
9.4585782494
 31
0.0
  0
LINE
  5
F5
330
1F
100
AcDbEntity
  8
0
  6
Continuous
 62
     7
370
    25
100
AcDbLine
 10
8.8196143859
 20
11.2085782494
 30
0.0
 11
8.5696143859
 21
11.2085782494
 31
0.0
  0
LINE
  5
F6
330
1F
100
AcDbEntity
  8
0
  6
Continuous
 62
     7
370
    25
100
AcDbLine
 10
8.5696143859
 20
11.2085782494
 30
0.0
 11
8.5696143859
 21
9.4585782494
 31
0.0
  0
ARC
  5
F7
330
1F
100
AcDbEntity
  8
0
  6
Continuous
 62
     7
370
    25
100
AcDbCircle
 10
9.6271485358
 20
9.3585782494
 30
0.0
 40
0.1000000000000014
100
AcDbArc
 50
130.0465202202
 51
270.0
  0
LINE
  5
F8
330
1F
100
AcDbEntity
  8
0
  6
Continuous
 62
     7
370
    25
100
AcDbLine
 10
11.1701295834
 20
9.2585782494
 30
0.0
 11
9.6271485358
 21
9.2585782494
 31
0.0
  0
ARC
  5
F9
330
1F
100
AcDbEntity
  8
0
  6
Continuous
 62
     7
370
    25
100
AcDbCircle
 10
11.1701295834
 20
9.3585782494
 30
0.0
 40
0.1000000000000014
100
AcDbArc
 50
270.0
 51
49.9534797798
  0
LINE
  5
FA
330
1F
100
AcDbEntity
  8
0
  6
Continuous
 62
     7
370
    25
100
AcDbLine
 10
10.4629799969
 20
10.0835560563
 30
0.0
 11
11.2344705207
 21
9.4351304785
 31
0.0
  0
ARC
  5
FB
330
1F
100
AcDbEntity
  8
0
  6
Continuous
 62
     7
370
    25
100
AcDbCircle
 10
10.3986390596
 20
10.0070038272
 30
0.0
 40
0.099999999999999
100
AcDbArc
 50
49.9534797798
 51
130.0465202202
  0
LINE
  5
FC
330
1F
100
AcDbEntity
  8
0
  6
Continuous
 62
     7
370
    25
100
AcDbLine
 10
10.3342981223
 20
10.0835560563
 30
0.0
 11
9.5628075985
 21
9.4351304785
 31
0.0
  0
MTEXT
  5
FD
330
1F
100
AcDbEntity
  8
PART_NAMES
100
AcDbMText
 10
11.9798780954
 20
11.5085277841
 30
0.0
 40
0.1666666667
 41
0.0
 71
     1
 72
     1
  1
SSC4
  7
SLDTEXTSTYLE0
 73
     1
 44
1.0
  0
ARC
  5
FE
330
1F
100
AcDbEntity
  8
0
  6
Continuous
 62
     7
370
    25
100
AcDbCircle
 10
2.0839469157
 20
7.3489564965
 30
0.0
 40
0.1000000000000002
100
AcDbArc
 50
310.0465202202
 51
49.9534797798
  0
LINE
  5
FF
330
1F
100
AcDbEntity
  8
0
  6
Continuous
 62
     7
370
    25
100
AcDbLine
 10
1.3578182898
 20
8.0898858858
 30
0.0
 11
2.148287853
 21
7.4255087256
 31
0.0
  0
ARC
  5
100
330
1F
100
AcDbEntity
  8
0
  6
Continuous
 62
     7
370
    25
100
AcDbCircle
 10
1.2934773525
 20
8.0133336566
 30
0.0
 40
0.1000000000000001
100
AcDbArc
 50
49.9534797798
 51
180.0
  0
LINE
  5
101
330
1F
100
AcDbEntity
  8
0
  6
Continuous
 62
     7
370
    25
100
AcDbLine
 10
1.1934773525
 20
6.6845793363
 30
0.0
 11
1.1934773525
 21
8.0133336566
 31
0.0
  0
ARC
  5
102
330
1F
100
AcDbEntity
  8
0
  6
Continuous
 62
     7
370
    25
100
AcDbCircle
 10
1.2934773525
 20
6.6845793363
 30
0.0
 40
0.1000000000000001
100
AcDbArc
 50
180.0
 51
310.0465202202
  0
LINE
  5
103
330
1F
100
AcDbEntity
  8
0
  6
Continuous
 62
     7
370
    25
100
AcDbLine
 10
1.3578182898
 20
6.6080271072
 30
0.0
 11
2.148287853
 21
7.2724042673
 31
0.0
  0
ARC
  5
104
330
1F
100
AcDbEntity
  8
0
  6
Continuous
 62
     7
370
    25
100
AcDbCircle
 10
5.292962155
 20
6.3739564965
 30
0.0
 40
0.0999999999999996
100
AcDbArc
 50
130.0465202202
 51
270.0
  0
LINE
  5
105
330
1F
100
AcDbEntity
  8
0
  6
Continuous
 62
     7
370
    25
100
AcDbLine
 10
5.292962155
 20
6.2739564965
 30
0.0
 11
6.8359432026
 21
6.2739564965
 31
0.0
  0
ARC
  5
106
330
1F
100
AcDbEntity
  8
0
  6
Continuous
 62
     7
370
    25
100
AcDbCircle
 10
6.8359432026
 20
6.3739564965
 30
0.0
 40
0.1000000000000001
100
AcDbArc
 50
270.0
 51
49.9534797798
  0
LINE
  5
107
330
1F
100
AcDbEntity
  8
0
  6
Continuous
 62
     7
370
    25
100
AcDbLine
 10
6.1287936161
 20
7.0989343034
 30
0.0
 11
6.9002841399
 21
6.4505087256
 31
0.0
  0
ARC
  5
108
330
1F
100
AcDbEntity
  8
0
  6
Continuous
 62
     7
370
    25
100
AcDbCircle
 10
6.0644526788
 20
7.0223820743
 30
0.0
 40
0.099999999999999
100
AcDbArc
 50
49.9534797798
 51
130.0465202202
  0
LINE
  5
109
330
1F
100
AcDbEntity
  8
0
  6
Continuous
 62
     7
370
    25
100
AcDbLine
 10
6.0001117415
 20
7.0989343034
 30
0.0
 11
5.2286212177
 21
6.4505087256
 31
0.0
  0
ARC
  5
10A
330
1F
100
AcDbEntity
  8
0
  6
Continuous
 62
     7
370
    25
100
AcDbCircle
 10
4.7184773525
 20
6.5695336331
 30
0.0
 40
0.1000000000000005
100
AcDbArc
 50
120.0
 51
180.0
  0
LINE
  5
10B
330
1F
100
AcDbEntity
  8
0
  6
Continuous
 62
     7
370
    25
100
AcDbLine
 10
4.6184773525
 20
6.5442599545
 30
0.0
 11
4.6184773525
 21
6.5695336331
 31
0.0
  0
ARC
  5
10C
330
1F
100
AcDbEntity
  8
0
  6
Continuous
 62
     7
370
    25
100
AcDbCircle
 10
4.7184773525
 20
6.5442599545
 30
0.0
 40
0.1000000000000005
100
AcDbArc
 50
180.0
 51
310.0465202202
  0
LINE
  5
10D
330
1F
100
AcDbEntity
  8
0
  6
Continuous
 62
     7
370
    25
100
AcDbLine
 10
4.7828182898
 20
6.4677077254
 30
0.0
 11
5.7402385056
 21
7.2724042673
 31
0.0
  0
ARC
  5
10E
330
1F
100
AcDbEntity
  8
0
  6
Continuous
 62
     7
370
    25
100
AcDbCircle
 10
5.6758975683
 20
7.3489564965
 30
0.0
 40
0.1000000000000003
100
AcDbArc
 50
310.0465202202
 51
49.9534797798
  0
LINE
  5
10F
330
1F
100
AcDbEntity
  8
0
  6
Continuous
 62
     7
370
    25
100
AcDbLine
 10
4.7828182898
 20
8.2302052676
 30
0.0
 11
5.7402385056
 21
7.4255087256
 31
0.0
  0
ARC
  5
110
330
1F
100
AcDbEntity
  8
0
  6
Continuous
 62
     7
370
    25
100
AcDbCircle
 10
4.7184773525
 20
8.1536530384
 30
0.0
 40
0.1000000000000005
100
AcDbArc
 50
49.9534797798
 51
180.0
  0
LINE
  5
111
330
1F
100
AcDbEntity
  8
0
  6
Continuous
 62
     7
370
    25
100
AcDbLine
 10
4.6184773525
 20
8.1283793599
 30
0.0
 11
4.6184773525
 21
8.1536530384
 31
0.0
  0
ARC
  5
112
330
1F
100
AcDbEntity
  8
0
  6
Continuous
 62
     7
370
    25
100
AcDbCircle
 10
4.7184773525
 20
8.1283793599
 30
0.0
 40
0.1000000000000005
100
AcDbArc
 50
180.0
 51
240.0
  0
ARC
  5
113
330
1F
100
AcDbEntity
  8
0
  6
Continuous
 62
     7
370
    25
100
AcDbCircle
 10
4.2684773525
 20
7.3489564965
 30
0.0
 40
0.8000000000000015
100
AcDbArc
 50
300.0
 51
60.0
  0
ARC
  5
114
330
1F
100
AcDbEntity
  8
0
  6
Continuous
 62
     7
370
    25
100
AcDbCircle
 10
6.8359432026
 20
8.3239564965
 30
0.0
 40
0.1000000000000014
100
AcDbArc
 50
310.0465202202
 51
90.0
  0
LINE
  5
115
330
1F
100
AcDbEntity
  8
0
  6
Continuous
 62
     7
370
    25
100
AcDbLine
 10
6.8359432026
 20
8.4239564965
 30
0.0
 11
5.292962155
 21
8.4239564965
 31
0.0
  0
ARC
  5
116
330
1F
100
AcDbEntity
  8
0
  6
Continuous
 62
     7
370
    25
100
AcDbCircle
 10
5.292962155
 20
8.3239564965
 30
0.0
 40
0.1000000000000015
100
AcDbArc
 50
90.0
 51
229.9534797798
  0
LINE
  5
117
330
1F
100
AcDbEntity
  8
0
  6
Continuous
 62
     7
370
    25
100
AcDbLine
 10
6.0001117415
 20
7.5989786895
 30
0.0
 11
5.2286212177
 21
8.2474042673
 31
0.0
  0
ARC
  5
118
330
1F
100
AcDbEntity
  8
0
  6
Continuous
 62
     7
370
    25
100
AcDbCircle
 10
6.0644526788
 20
7.6755309186
 30
0.0
 40
0.1000000000000001
100
AcDbArc
 50
229.9534797798
 51
310.0465202202
  0
LINE
  5
119
330
1F
100
AcDbEntity
  8
0
  6
Continuous
 62
     7
370
    25
100
AcDbLine
 10
6.1287936161
 20
7.5989786895
 30
0.0
 11
6.9002841399
 21
8.2474042673
 31
0.0
  0
LINE
  5
11A
330
1F
100
AcDbEntity
  8
0
  6
Continuous
 62
     7
370
    25
100
AcDbLine
 10
7.6434773525
 20
8.2239564965
 30
0.0
 11
7.6434773525
 21
6.4739564965
 31
0.0
  0
LINE
  5
11B
330
1F
100
AcDbEntity
  8
0
  6
Continuous
 62
     7
370
    25
100
AcDbLine
 10
7.6434773525
 20
6.4739564965
 30
0.0
 11
7.8934773525
 21
6.4739564965
 31
0.0
  0
LINE
  5
11C
330
1F
100
AcDbEntity
  8
0
  6
Continuous
 62
     7
370
    25
100
AcDbLine
 10
7.8934773525
 20
8.2239564965
 30
0.0
 11
7.8934773525
 21
6.4739564965
 31
0.0
  0
LINE
  5
11D
330
1F
100
AcDbEntity
  8
0
  6
Continuous
 62
     7
370
    25
100
AcDbLine
 10
7.6434773525
 20
8.2239564965
 30
0.0
 11
7.8934773525
 21
8.2239564965
 31
0.0
  0
ARC
  5
11E
330
1F
100
AcDbEntity
  8
0
  6
Continuous
 62
     7
370
    25
100
AcDbCircle
 10
0.4434773525
 20
8.6239564965
 30
0.0
 40
0.1
100
AcDbArc
 50
90.0
 51
180.0
  0
LINE
  5
11F
330
1F
100
AcDbEntity
  8
0
  6
Continuous
 62
     7
370
    25
100
AcDbLine
 10
0.4434773525
 20
8.7239564965
 30
0.0
 11
8.0934773525
 21
8.7239564965
 31
0.0
  0
ARC
  5
120
330
1F
100
AcDbEntity
  8
0
  6
Continuous
 62
     7
370
    25
100
AcDbCircle
 10
8.0934773525
 20
8.6239564965
 30
0.0
 40
0.0999999999999996
100
AcDbArc
 50
0.0
 51
90.0
  0
LINE
  5
121
330
1F
100
AcDbEntity
  8
0
  6
Continuous
 62
     7
370
    25
100
AcDbLine
 10
8.1934773525
 20
8.6239564965
 30
0.0
 11
8.1934773525
 21
6.0739564965
 31
0.0
  0
ARC
  5
122
330
1F
100
AcDbEntity
  8
0
  6
Continuous
 62
     7
370
    25
100
AcDbCircle
 10
8.0934773525
 20
6.0739564965
 30
0.0
 40
0.1000000000000014
100
AcDbArc
 50
270.0
 51
0.0
  0
LINE
  5
123
330
1F
100
AcDbEntity
  8
0
  6
Continuous
 62
     7
370
    25
100
AcDbLine
 10
0.4434773525
 20
5.9739564965
 30
0.0
 11
8.0934773525
 21
5.9739564965
 31
0.0
  0
ARC
  5
124
330
1F
100
AcDbEntity
  8
0
  6
Continuous
 62
     7
370
    25
100
AcDbCircle
 10
0.4434773525
 20
6.0739564965
 30
0.0
 40
0.1
100
AcDbArc
 50
180.0
 51
270.0
  0
LINE
  5
125
330
1F
100
AcDbEntity
  8
0
  6
Continuous
 62
     7
370
    25
100
AcDbLine
 10
0.3434773525
 20
8.6239564965
 30
0.0
 11
0.3434773525
 21
6.0739564965
 31
0.0
  0
CIRCLE
  5
126
330
1F
100
AcDbEntity
  8
0
  6
Continuous
 62
     7
370
    25
100
AcDbCircle
 10
4.2684773525
 20
7.3489564965
 30
0.0
 40
0.5
  0
ARC
  5
127
330
1F
100
AcDbEntity
  8
0
  6
Continuous
 62
     7
370
    25
100
AcDbCircle
 10
7.2434773525
 20
8.0133336566
 30
0.0
 40
0.1000000000000005
100
AcDbArc
 50
0.0
 51
130.0465202202
  0
LINE
  5
128
330
1F
100
AcDbEntity
  8
0
  6
Continuous
 62
     7
370
    25
100
AcDbLine
 10
7.1791364152
 20
8.0898858858
 30
0.0
 11
6.3886668519
 21
7.4255087256
 31
0.0
  0
ARC
  5
129
330
1F
100
AcDbEntity
  8
0
  6
Continuous
 62
     7
370
    25
100
AcDbCircle
 10
6.4530077892
 20
7.3489564965
 30
0.0
 40
0.1000000000000002
100
AcDbArc
 50
130.0465202202
 51
229.9534797798
  0
LINE
  5
12A
330
1F
100
AcDbEntity
  8
0
  6
Continuous
 62
     7
370
    25
100
AcDbLine
 10
7.1791364152
 20
6.6080271072
 30
0.0
 11
6.3886668519
 21
7.2724042673
 31
0.0
  0
ARC
  5
12B
330
1F
100
AcDbEntity
  8
0
  6
Continuous
 62
     7
370
    25
100
AcDbCircle
 10
7.2434773525
 20
6.6845793363
 30
0.0
 40
0.1000000000000005
100
AcDbArc
 50
229.9534797798
 51
0.0
  0
LINE
  5
12C
330
1F
100
AcDbEntity
  8
0
  6
Continuous
 62
     7
370
    25
100
AcDbLine
 10
7.3434773525
 20
6.6845793363
 30
0.0
 11
7.3434773525
 21
8.0133336566
 31
0.0
  0
ARC
  5
12D
330
1F
100
AcDbEntity
  8
0
  6
Continuous
 62
     7
370
    25
100
AcDbCircle
 10
3.24399255
 20
8.3239564965
 30
0.0
 40
0.1000000000000012
100
AcDbArc
 50
310.0465202202
 51
90.0
  0
LINE
  5
12E
330
1F
100
AcDbEntity
  8
0
  6
Continuous
 62
     7
370
    25
100
AcDbLine
 10
1.7010115024
 20
8.4239564965
 30
0.0
 11
3.24399255
 21
8.4239564965
 31
0.0
  0
ARC
  5
12F
330
1F
100
AcDbEntity
  8
0
  6
Continuous
 62
     7
370
    25
100
AcDbCircle
 10
1.7010115024
 20
8.3239564965
 30
0.0
 40
0.1000000000000014
100
AcDbArc
 50
90.0
 51
229.9534797798
  0
LINE
  5
130
330
1F
100
AcDbEntity
  8
0
  6
Continuous
 62
     7
370
    25
100
AcDbLine
 10
2.4081610889
 20
7.5989786895
 30
0.0
 11
1.6366705651
 21
8.2474042673
 31
0.0
  0
ARC
  5
131
330
1F
100
AcDbEntity
  8
0
  6
Continuous
 62
     7
370
    25
100
AcDbCircle
 10
2.4725020262
 20
7.6755309186
 30
0.0
 40
0.0999999999999998
100
AcDbArc
 50
229.9534797798
 51
310.0465202202
  0
LINE
  5
132
330
1F
100
AcDbEntity
  8
0
  6
Continuous
 62
     7
370
    25
100
AcDbLine
 10
2.5368429635
 20
7.5989786895
 30
0.0
 11
3.3083334873
 21
8.2474042673
 31
0.0
  0
ARC
  5
133
330
1F
100
AcDbEntity
  8
0
  6
Continuous
 62
     7
370
    25
100
AcDbCircle
 10
2.8610571367
 20
7.3489564965
 30
0.0
 40
0.1000000000000002
100
AcDbArc
 50
130.0465202202
 51
229.9534797798
  0
LINE
  5
134
330
1F
100
AcDbEntity
  8
0
  6
Continuous
 62
     7
370
    25
100
AcDbLine
 10
3.7541364152
 20
6.4677077254
 30
0.0
 11
2.7967161994
 21
7.2724042673
 31
0.0
  0
ARC
  5
135
330
1F
100
AcDbEntity
  8
0
  6
Continuous
 62
     7
370
    25
100
AcDbCircle
 10
3.8184773525
 20
6.5442599545
 30
0.0
 40
0.1000000000000001
100
AcDbArc
 50
229.9534797798
 51
0.0
  0
LINE
  5
136
330
1F
100
AcDbEntity
  8
0
  6
Continuous
 62
     7
370
    25
100
AcDbLine
 10
3.9184773525
 20
6.5442599545
 30
0.0
 11
3.9184773525
 21
6.5695336331
 31
0.0
  0
ARC
  5
137
330
1F
100
AcDbEntity
  8
0
  6
Continuous
 62
     7
370
    25
100
AcDbCircle
 10
3.8184773525
 20
6.5695336331
 30
0.0
 40
0.1000000000000001
100
AcDbArc
 50
0.0
 51
60.0
  0
ARC
  5
138
330
1F
100
AcDbEntity
  8
0
  6
Continuous
 62
     7
370
    25
100
AcDbCircle
 10
4.2684773525
 20
7.3489564965
 30
0.0
 40
0.8000000000000014
100
AcDbArc
 50
120.0
 51
240.0
  0
ARC
  5
139
330
1F
100
AcDbEntity
  8
0
  6
Continuous
 62
     7
370
    25
100
AcDbCircle
 10
3.8184773525
 20
8.1283793599
 30
0.0
 40
0.1000000000000001
100
AcDbArc
 50
300.0
 51
0.0
  0
LINE
  5
13A
330
1F
100
AcDbEntity
  8
0
  6
Continuous
 62
     7
370
    25
100
AcDbLine
 10
3.9184773525
 20
8.1283793599
 30
0.0
 11
3.9184773525
 21
8.1536530384
 31
0.0
  0
ARC
  5
13B
330
1F
100
AcDbEntity
  8
0
  6
Continuous
 62
     7
370
    25
100
AcDbCircle
 10
3.8184773525
 20
8.1536530384
 30
0.0
 40
0.1000000000000001
100
AcDbArc
 50
0.0
 51
130.0465202202
  0
LINE
  5
13C
330
1F
100
AcDbEntity
  8
0
  6
Continuous
 62
     7
370
    25
100
AcDbLine
 10
3.7541364152
 20
8.2302052676
 30
0.0
 11
2.7967161994
 21
7.4255087256
 31
0.0
  0
LINE
  5
13D
330
1F
100
AcDbEntity
  8
0
  6
Continuous
 62
     7
370
    25
100
AcDbLine
 10
0.8934773525
 20
6.4739564965
 30
0.0
 11
0.6434773525
 21
6.4739564965
 31
0.0
  0
LINE
  5
13E
330
1F
100
AcDbEntity
  8
0
  6
Continuous
 62
     7
370
    25
100
AcDbLine
 10
0.8934773525
 20
8.2239564965
 30
0.0
 11
0.8934773525
 21
6.4739564965
 31
0.0
  0
LINE
  5
13F
330
1F
100
AcDbEntity
  8
0
  6
Continuous
 62
     7
370
    25
100
AcDbLine
 10
0.8934773525
 20
8.2239564965
 30
0.0
 11
0.6434773525
 21
8.2239564965
 31
0.0
  0
LINE
  5
140
330
1F
100
AcDbEntity
  8
0
  6
Continuous
 62
     7
370
    25
100
AcDbLine
 10
0.6434773525
 20
8.2239564965
 30
0.0
 11
0.6434773525
 21
6.4739564965
 31
0.0
  0
ARC
  5
141
330
1F
100
AcDbEntity
  8
0
  6
Continuous
 62
     7
370
    25
100
AcDbCircle
 10
1.7010115024
 20
6.3739564965
 30
0.0
 40
0.0999999999999996
100
AcDbArc
 50
130.0465202202
 51
270.0
  0
LINE
  5
142
330
1F
100
AcDbEntity
  8
0
  6
Continuous
 62
     7
370
    25
100
AcDbLine
 10
3.24399255
 20
6.2739564965
 30
0.0
 11
1.7010115024
 21
6.2739564965
 31
0.0
  0
ARC
  5
143
330
1F
100
AcDbEntity
  8
0
  6
Continuous
 62
     7
370
    25
100
AcDbCircle
 10
3.24399255
 20
6.3739564965
 30
0.0
 40
0.0999999999999996
100
AcDbArc
 50
270.0
 51
49.9534797798
  0
LINE
  5
144
330
1F
100
AcDbEntity
  8
0
  6
Continuous
 62
     7
370
    25
100
AcDbLine
 10
2.5368429635
 20
7.0989343034
 30
0.0
 11
3.3083334873
 21
6.4505087256
 31
0.0
  0
ARC
  5
145
330
1F
100
AcDbEntity
  8
0
  6
Continuous
 62
     7
370
    25
100
AcDbCircle
 10
2.4725020262
 20
7.0223820743
 30
0.0
 40
0.0999999999999995
100
AcDbArc
 50
49.9534797798
 51
130.0465202202
  0
LINE
  5
146
330
1F
100
AcDbEntity
  8
0
  6
Continuous
 62
     7
370
    25
100
AcDbLine
 10
2.4081610889
 20
7.0989343034
 30
0.0
 11
1.6366705651
 21
6.4505087256
 31
0.0
  0
MTEXT
  5
147
330
1F
100
AcDbEntity
  8
PART_NAMES
100
AcDbMText
 10
4.0314118128
 20
8.5371385196
 30
0.0
 40
0.1666666667
 41
0.0
 71
     1
 72
     1
  1
SSC5
  7
SLDTEXTSTYLE0
 73
     1
 44
1.0
  0
ARC
  5
148
330
1F
100
AcDbEntity
  8
0
  6
Continuous
 62
     7
370
    25
100
AcDbCircle
 10
10.047077463
 20
7.3551741765
 30
0.0
 40
0.0999999999999996
100
AcDbArc
 50
310.0465202202
 51
49.9534797798
  0
LINE
  5
149
330
1F
100
AcDbEntity
  8
0
  6
Continuous
 62
     7
370
    25
100
AcDbLine
 10
9.3209488371
 20
8.0961035658
 30
0.0
 11
10.1114184003
 21
7.4317264057
 31
0.0
  0
ARC
  5
14A
330
1F
100
AcDbEntity
  8
0
  6
Continuous
 62
     7
370
    25
100
AcDbCircle
 10
9.2566078998
 20
8.0195513367
 30
0.0
 40
0.0999999999999996
100
AcDbArc
 50
49.9534797798
 51
180.0
  0
LINE
  5
14B
330
1F
100
AcDbEntity
  8
0
  6
Continuous
 62
     7
370
    25
100
AcDbLine
 10
9.1566078998
 20
6.6907970164
 30
0.0
 11
9.1566078998
 21
8.0195513367
 31
0.0
  0
ARC
  5
14C
330
1F
100
AcDbEntity
  8
0
  6
Continuous
 62
     7
370
    25
100
AcDbCircle
 10
9.2566078998
 20
6.6907970164
 30
0.0
 40
0.0999999999999996
100
AcDbArc
 50
180.0
 51
310.0465202202
  0
LINE
  5
14D
330
1F
100
AcDbEntity
  8
0
  6
Continuous
 62
     7
370
    25
100
AcDbLine
 10
9.3209488371
 20
6.6142447872
 30
0.0
 11
10.1114184003
 21
7.2786219474
 31
0.0
  0
ARC
  5
14E
330
1F
100
AcDbEntity
  8
0
  6
Continuous
 62
     7
370
    25
100
AcDbCircle
 10
13.2560927023
 20
6.3801741765
 30
0.0
 40
0.1000000000000005
100
AcDbArc
 50
130.0465202202
 51
270.0
  0
LINE
  5
14F
330
1F
100
AcDbEntity
  8
0
  6
Continuous
 62
     7
370
    25
100
AcDbLine
 10
13.2560927023
 20
6.2801741765
 30
0.0
 11
14.7990737499
 21
6.2801741765
 31
0.0
  0
ARC
  5
150
330
1F
100
AcDbEntity
  8
0
  6
Continuous
 62
     7
370
    25
100
AcDbCircle
 10
14.7990737499
 20
6.3801741765
 30
0.0
 40
0.1000000000000008
100
AcDbArc
 50
270.0
 51
49.9534797798
  0
LINE
  5
151
330
1F
100
AcDbEntity
  8
0
  6
Continuous
 62
     7
370
    25
100
AcDbLine
 10
14.0919241634
 20
7.1051519835
 30
0.0
 11
14.8634146872
 21
6.4567264057
 31
0.0
  0
ARC
  5
152
330
1F
100
AcDbEntity
  8
0
  6
Continuous
 62
     7
370
    25
100
AcDbCircle
 10
14.0275832261
 20
7.0285997544
 30
0.0
 40
0.1000000000000008
100
AcDbArc
 50
49.9534797798
 51
130.0465202202
  0
LINE
  5
153
330
1F
100
AcDbEntity
  8
0
  6
Continuous
 62
     7
370
    25
100
AcDbLine
 10
13.9632422888
 20
7.1051519835
 30
0.0
 11
13.191751765
 21
6.4567264057
 31
0.0
  0
ARC
  5
154
330
1F
100
AcDbEntity
  8
0
  6
Continuous
 62
     7
370
    25
100
AcDbCircle
 10
12.6816078998
 20
6.5757513131
 30
0.0
 40
0.0999999999999996
100
AcDbArc
 50
120.0
 51
180.0
  0
LINE
  5
155
330
1F
100
AcDbEntity
  8
0
  6
Continuous
 62
     7
370
    25
100
AcDbLine
 10
12.5816078998
 20
6.5504776346
 30
0.0
 11
12.5816078998
 21
6.5757513131
 31
0.0
  0
ARC
  5
156
330
1F
100
AcDbEntity
  8
0
  6
Continuous
 62
     7
370
    25
100
AcDbCircle
 10
12.6816078998
 20
6.5504776346
 30
0.0
 40
0.0999999999999996
100
AcDbArc
 50
180.0
 51
310.0465202202
  0
LINE
  5
157
330
1F
100
AcDbEntity
  8
0
  6
Continuous
 62
     7
370
    25
100
AcDbLine
 10
12.7459488371
 20
6.4739254055
 30
0.0
 11
13.7033690529
 21
7.2786219474
 31
0.0
  0
ARC
  5
158
330
1F
100
AcDbEntity
  8
0
  6
Continuous
 62
     7
370
    25
100
AcDbCircle
 10
13.6390281156
 20
7.3551741765
 30
0.0
 40
0.1000000000000008
100
AcDbArc
 50
310.0465202202
 51
49.9534797798
  0
LINE
  5
159
330
1F
100
AcDbEntity
  8
0
  6
Continuous
 62
     7
370
    25
100
AcDbLine
 10
12.7459488371
 20
8.2364229476
 30
0.0
 11
13.7033690529
 21
7.4317264057
 31
0.0
  0
ARC
  5
15A
330
1F
100
AcDbEntity
  8
0
  6
Continuous
 62
     7
370
    25
100
AcDbCircle
 10
12.6816078998
 20
8.1598707185
 30
0.0
 40
0.1000000000000003
100
AcDbArc
 50
49.9534797798
 51
180.0
  0
LINE
  5
15B
330
1F
100
AcDbEntity
  8
0
  6
Continuous
 62
     7
370
    25
100
AcDbLine
 10
12.5816078998
 20
8.13459704
 30
0.0
 11
12.5816078998
 21
8.1598707185
 31
0.0
  0
ARC
  5
15C
330
1F
100
AcDbEntity
  8
0
  6
Continuous
 62
     7
370
    25
100
AcDbCircle
 10
12.6816078998
 20
8.13459704
 30
0.0
 40
0.1000000000000006
100
AcDbArc
 50
180.0
 51
240.0
  0
ARC
  5
15D
330
1F
100
AcDbEntity
  8
0
  6
Continuous
 62
     7
370
    25
100
AcDbCircle
 10
12.2316078998
 20
7.3551741765
 30
0.0
 40
0.8
100
AcDbArc
 50
300.0
 51
60.0
  0
ARC
  5
15E
330
1F
100
AcDbEntity
  8
0
  6
Continuous
 62
     7
370
    25
100
AcDbCircle
 10
14.7990737499
 20
8.3301741765
 30
0.0
 40
0.1000000000000015
100
AcDbArc
 50
310.0465202202
 51
90.0
  0
LINE
  5
15F
330
1F
100
AcDbEntity
  8
0
  6
Continuous
 62
     7
370
    25
100
AcDbLine
 10
14.7990737499
 20
8.4301741765
 30
0.0
 11
13.2560927023
 21
8.4301741765
 31
0.0
  0
ARC
  5
160
330
1F
100
AcDbEntity
  8
0
  6
Continuous
 62
     7
370
    25
100
AcDbCircle
 10
13.2560927023
 20
8.3301741765
 30
0.0
 40
0.1000000000000003
100
AcDbArc
 50
90.0
 51
229.9534797798
  0
LINE
  5
161
330
1F
100
AcDbEntity
  8
0
  6
Continuous
 62
     7
370
    25
100
AcDbLine
 10
13.9632422888
 20
7.6051963696
 30
0.0
 11
13.191751765
 21
8.2536219474
 31
0.0
  0
ARC
  5
162
330
1F
100
AcDbEntity
  8
0
  6
Continuous
 62
     7
370
    25
100
AcDbCircle
 10
14.0275832261
 20
7.6817485987
 30
0.0
 40
0.1000000000000015
100
AcDbArc
 50
229.9534797798
 51
310.0465202202
  0
LINE
  5
163
330
1F
100
AcDbEntity
  8
0
  6
Continuous
 62
     7
370
    25
100
AcDbLine
 10
14.0919241634
 20
7.6051963696
 30
0.0
 11
14.8634146872
 21
8.2536219474
 31
0.0
  0
LINE
  5
164
330
1F
100
AcDbEntity
  8
0
  6
Continuous
 62
     7
370
    25
100
AcDbLine
 10
15.6066078998
 20
8.2301741765
 30
0.0
 11
15.6066078998
 21
6.4801741765
 31
0.0
  0
LINE
  5
165
330
1F
100
AcDbEntity
  8
0
  6
Continuous
 62
     7
370
    25
100
AcDbLine
 10
15.6066078998
 20
6.4801741765
 30
0.0
 11
15.8566078998
 21
6.4801741765
 31
0.0
  0
LINE
  5
166
330
1F
100
AcDbEntity
  8
0
  6
Continuous
 62
     7
370
    25
100
AcDbLine
 10
15.8566078998
 20
8.2301741765
 30
0.0
 11
15.8566078998
 21
6.4801741765
 31
0.0
  0
LINE
  5
167
330
1F
100
AcDbEntity
  8
0
  6
Continuous
 62
     7
370
    25
100
AcDbLine
 10
15.6066078998
 20
8.2301741765
 30
0.0
 11
15.8566078998
 21
8.2301741765
 31
0.0
  0
ARC
  5
168
330
1F
100
AcDbEntity
  8
0
  6
Continuous
 62
     7
370
    25
100
AcDbCircle
 10
8.4066078998
 20
8.6301741765
 30
0.0
 40
0.1000000000000014
100
AcDbArc
 50
90.0
 51
180.0
  0
LINE
  5
169
330
1F
100
AcDbEntity
  8
0
  6
Continuous
 62
     7
370
    25
100
AcDbLine
 10
8.4066078998
 20
8.7301741765
 30
0.0
 11
16.0566078998
 21
8.7301741765
 31
0.0
  0
ARC
  5
16A
330
1F
100
AcDbEntity
  8
0
  6
Continuous
 62
     7
370
    25
100
AcDbCircle
 10
16.0566078998
 20
8.6301741765
 30
0.0
 40
0.1000000000000014
100
AcDbArc
 50
0.0
 51
90.0
  0
LINE
  5
16B
330
1F
100
AcDbEntity
  8
0
  6
Continuous
 62
     7
370
    25
100
AcDbLine
 10
16.1566078998
 20
8.6301741765
 30
0.0
 11
16.1566078998
 21
6.0801741765
 31
0.0
  0
ARC
  5
16C
330
1F
100
AcDbEntity
  8
0
  6
Continuous
 62
     7
370
    25
100
AcDbCircle
 10
16.0566078998
 20
6.0801741765
 30
0.0
 40
0.1000000000000014
100
AcDbArc
 50
270.0
 51
0.0
  0
LINE
  5
16D
330
1F
100
AcDbEntity
  8
0
  6
Continuous
 62
     7
370
    25
100
AcDbLine
 10
8.4066078998
 20
5.9801741765
 30
0.0
 11
16.0566078998
 21
5.9801741765
 31
0.0
  0
ARC
  5
16E
330
1F
100
AcDbEntity
  8
0
  6
Continuous
 62
     7
370
    25
100
AcDbCircle
 10
8.4066078998
 20
6.0801741765
 30
0.0
 40
0.1000000000000005
100
AcDbArc
 50
180.0
 51
270.0
  0
LINE
  5
16F
330
1F
100
AcDbEntity
  8
0
  6
Continuous
 62
     7
370
    25
100
AcDbLine
 10
8.3066078998
 20
8.6301741765
 30
0.0
 11
8.3066078998
 21
6.0801741765
 31
0.0
  0
CIRCLE
  5
170
330
1F
100
AcDbEntity
  8
0
  6
Continuous
 62
     7
370
    25
100
AcDbCircle
 10
12.2316078998
 20
7.3551741765
 30
0.0
 40
0.5
  0
ARC
  5
171
330
1F
100
AcDbEntity
  8
0
  6
Continuous
 62
     7
370
    25
100
AcDbCircle
 10
15.2066078998
 20
8.0195513367
 30
0.0
 40
0.0999999999999996
100
AcDbArc
 50
0.0
 51
130.0465202202
  0
LINE
  5
172
330
1F
100
AcDbEntity
  8
0
  6
Continuous
 62
     7
370
    25
100
AcDbLine
 10
15.1422669625
 20
8.0961035658
 30
0.0
 11
14.3517973993
 21
7.4317264057
 31
0.0
  0
ARC
  5
173
330
1F
100
AcDbEntity
  8
0
  6
Continuous
 62
     7
370
    25
100
AcDbCircle
 10
14.4161383366
 20
7.3551741765
 30
0.0
 40
0.0999999999999996
100
AcDbArc
 50
130.0465202202
 51
229.9534797798
  0
LINE
  5
174
330
1F
100
AcDbEntity
  8
0
  6
Continuous
 62
     7
370
    25
100
AcDbLine
 10
15.1422669625
 20
6.6142447872
 30
0.0
 11
14.3517973993
 21
7.2786219474
 31
0.0
  0
ARC
  5
175
330
1F
100
AcDbEntity
  8
0
  6
Continuous
 62
     7
370
    25
100
AcDbCircle
 10
15.2066078998
 20
6.6907970164
 30
0.0
 40
0.0999999999999996
100
AcDbArc
 50
229.9534797798
 51
0.0
  0
LINE
  5
176
330
1F
100
AcDbEntity
  8
0
  6
Continuous
 62
     7
370
    25
100
AcDbLine
 10
15.3066078998
 20
6.6907970164
 30
0.0
 11
15.3066078998
 21
8.0195513367
 31
0.0
  0
ARC
  5
177
330
1F
100
AcDbEntity
  8
0
  6
Continuous
 62
     7
370
    25
100
AcDbCircle
 10
11.2071230973
 20
8.3301741765
 30
0.0
 40
0.1000000000000003
100
AcDbArc
 50
310.0465202202
 51
90.0
  0
LINE
  5
178
330
1F
100
AcDbEntity
  8
0
  6
Continuous
 62
     7
370
    25
100
AcDbLine
 10
9.6641420497
 20
8.4301741765
 30
0.0
 11
11.2071230973
 21
8.4301741765
 31
0.0
  0
ARC
  5
179
330
1F
100
AcDbEntity
  8
0
  6
Continuous
 62
     7
370
    25
100
AcDbCircle
 10
9.6641420497
 20
8.3301741765
 30
0.0
 40
0.1000000000000015
100
AcDbArc
 50
90.0
 51
229.9534797798
  0
LINE
  5
17A
330
1F
100
AcDbEntity
  8
0
  6
Continuous
 62
     7
370
    25
100
AcDbLine
 10
10.3712916362
 20
7.6051963696
 30
0.0
 11
9.5998011124
 21
8.2536219474
 31
0.0
  0
ARC
  5
17B
330
1F
100
AcDbEntity
  8
0
  6
Continuous
 62
     7
370
    25
100
AcDbCircle
 10
10.4356325735
 20
7.6817485987
 30
0.0
 40
0.1000000000000019
100
AcDbArc
 50
229.9534797798
 51
310.0465202202
  0
LINE
  5
17C
330
1F
100
AcDbEntity
  8
0
  6
Continuous
 62
     7
370
    25
100
AcDbLine
 10
10.4999735108
 20
7.6051963696
 30
0.0
 11
11.2714640346
 21
8.2536219474
 31
0.0
  0
ARC
  5
17D
330
1F
100
AcDbEntity
  8
0
  6
Continuous
 62
     7
370
    25
100
AcDbCircle
 10
10.824187684
 20
7.3551741765
 30
0.0
 40
0.1000000000000008
100
AcDbArc
 50
130.0465202202
 51
229.9534797798
  0
LINE
  5
17E
330
1F
100
AcDbEntity
  8
0
  6
Continuous
 62
     7
370
    25
100
AcDbLine
 10
11.7172669625
 20
6.4739254055
 30
0.0
 11
10.7598467467
 21
7.2786219474
 31
0.0
  0
ARC
  5
17F
330
1F
100
AcDbEntity
  8
0
  6
Continuous
 62
     7
370
    25
100
AcDbCircle
 10
11.7816078998
 20
6.5504776346
 30
0.0
 40
0.1000000000000001
100
AcDbArc
 50
229.9534797798
 51
0.0
  0
LINE
  5
180
330
1F
100
AcDbEntity
  8
0
  6
Continuous
 62
     7
370
    25
100
AcDbLine
 10
11.8816078998
 20
6.5504776346
 30
0.0
 11
11.8816078998
 21
6.5757513131
 31
0.0
  0
ARC
  5
181
330
1F
100
AcDbEntity
  8
0
  6
Continuous
 62
     7
370
    25
100
AcDbCircle
 10
11.7816078998
 20
6.5757513131
 30
0.0
 40
0.0999999999999996
100
AcDbArc
 50
0.0
 51
60.0
  0
ARC
  5
182
330
1F
100
AcDbEntity
  8
0
  6
Continuous
 62
     7
370
    25
100
AcDbCircle
 10
12.2316078998
 20
7.3551741765
 30
0.0
 40
0.8
100
AcDbArc
 50
120.0
 51
240.0
  0
ARC
  5
183
330
1F
100
AcDbEntity
  8
0
  6
Continuous
 62
     7
370
    25
100
AcDbCircle
 10
11.7816078998
 20
8.13459704
 30
0.0
 40
0.1000000000000006
100
AcDbArc
 50
300.0
 51
0.0
  0
LINE
  5
184
330
1F
100
AcDbEntity
  8
0
  6
Continuous
 62
     7
370
    25
100
AcDbLine
 10
11.8816078998
 20
8.13459704
 30
0.0
 11
11.8816078998
 21
8.1598707185
 31
0.0
  0
ARC
  5
185
330
1F
100
AcDbEntity
  8
0
  6
Continuous
 62
     7
370
    25
100
AcDbCircle
 10
11.7816078998
 20
8.1598707185
 30
0.0
 40
0.1000000000000015
100
AcDbArc
 50
0.0
 51
130.0465202202
  0
LINE
  5
186
330
1F
100
AcDbEntity
  8
0
  6
Continuous
 62
     7
370
    25
100
AcDbLine
 10
11.7172669625
 20
8.2364229476
 30
0.0
 11
10.7598467467
 21
7.4317264057
 31
0.0
  0
LINE
  5
187
330
1F
100
AcDbEntity
  8
0
  6
Continuous
 62
     7
370
    25
100
AcDbLine
 10
8.8566078998
 20
6.4801741765
 30
0.0
 11
8.6066078998
 21
6.4801741765
 31
0.0
  0
LINE
  5
188
330
1F
100
AcDbEntity
  8
0
  6
Continuous
 62
     7
370
    25
100
AcDbLine
 10
8.8566078998
 20
8.2301741765
 30
0.0
 11
8.8566078998
 21
6.4801741765
 31
0.0
  0
LINE
  5
189
330
1F
100
AcDbEntity
  8
0
  6
Continuous
 62
     7
370
    25
100
AcDbLine
 10
8.8566078998
 20
8.2301741765
 30
0.0
 11
8.6066078998
 21
8.2301741765
 31
0.0
  0
LINE
  5
18A
330
1F
100
AcDbEntity
  8
0
  6
Continuous
 62
     7
370
    25
100
AcDbLine
 10
8.6066078998
 20
8.2301741765
 30
0.0
 11
8.6066078998
 21
6.4801741765
 31
0.0
  0
ARC
  5
18B
330
1F
100
AcDbEntity
  8
0
  6
Continuous
 62
     7
370
    25
100
AcDbCircle
 10
9.6641420497
 20
6.3801741765
 30
0.0
 40
0.1000000000000005
100
AcDbArc
 50
130.0465202202
 51
270.0
  0
LINE
  5
18C
330
1F
100
AcDbEntity
  8
0
  6
Continuous
 62
     7
370
    25
100
AcDbLine
 10
11.2071230973
 20
6.2801741765
 30
0.0
 11
9.6641420497
 21
6.2801741765
 31
0.0
  0
ARC
  5
18D
330
1F
100
AcDbEntity
  8
0
  6
Continuous
 62
     7
370
    25
100
AcDbCircle
 10
11.2071230973
 20
6.3801741765
 30
0.0
 40
0.1000000000000005
100
AcDbArc
 50
270.0
 51
49.9534797798
  0
LINE
  5
18E
330
1F
100
AcDbEntity
  8
0
  6
Continuous
 62
     7
370
    25
100
AcDbLine
 10
10.4999735108
 20
7.1051519835
 30
0.0
 11
11.2714640346
 21
6.4567264057
 31
0.0
  0
ARC
  5
18F
330
1F
100
AcDbEntity
  8
0
  6
Continuous
 62
     7
370
    25
100
AcDbCircle
 10
10.4356325735
 20
7.0285997544
 30
0.0
 40
0.0999999999999996
100
AcDbArc
 50
49.9534797798
 51
130.0465202202
  0
LINE
  5
190
330
1F
100
AcDbEntity
  8
0
  6
Continuous
 62
     7
370
    25
100
AcDbLine
 10
10.3712916362
 20
7.1051519835
 30
0.0
 11
9.5998011124
 21
6.4567264057
 31
0.0
  0
MTEXT
  5
191
330
1F
100
AcDbEntity
  8
PART_NAMES
100
AcDbMText
 10
12.0746791913
 20
8.500398612
 30
0.0
 40
0.1666666667
 41
0.0
 71
     1
 72
     1
  1
SSC6
  7
SLDTEXTSTYLE0
 73
     1
 44
1.0
  0
ARC
  5
192
330
1F
100
AcDbEntity
  8
0
  6
Continuous
 62
     7
370
    25
100
AcDbCircle
 10
2.0886038282
 20
4.4458441049
 30
0.0
 40
0.1000000000000005
100
AcDbArc
 50
310.0465202202
 51
49.9534797798
  0
LINE
  5
193
330
1F
100
AcDbEntity
  8
0
  6
Continuous
 62
     7
370
    25
100
AcDbLine
 10
1.3624752023
 20
5.1867734942
 30
0.0
 11
2.1529447655
 21
4.5223963341
 31
0.0
  0
ARC
  5
194
330
1F
100
AcDbEntity
  8
0
  6
Continuous
 62
     7
370
    25
100
AcDbCircle
 10
1.298134265
 20
5.1102212651
 30
0.0
 40
0.0999999999999999
100
AcDbArc
 50
49.9534797798
 51
180.0
  0
LINE
  5
195
330
1F
100
AcDbEntity
  8
0
  6
Continuous
 62
     7
370
    25
100
AcDbLine
 10
1.198134265
 20
3.7814669448
 30
0.0
 11
1.198134265
 21
5.1102212651
 31
0.0
  0
ARC
  5
196
330
1F
100
AcDbEntity
  8
0
  6
Continuous
 62
     7
370
    25
100
AcDbCircle
 10
1.298134265
 20
3.7814669448
 30
0.0
 40
0.0999999999999999
100
AcDbArc
 50
180.0
 51
310.0465202202
  0
LINE
  5
197
330
1F
100
AcDbEntity
  8
0
  6
Continuous
 62
     7
370
    25
100
AcDbLine
 10
1.3624752023
 20
3.7049147156
 30
0.0
 11
2.1529447655
 21
4.3692918758
 31
0.0
  0
ARC
  5
198
330
1F
100
AcDbEntity
  8
0
  6
Continuous
 62
     7
370
    25
100
AcDbCircle
 10
5.2976190675
 20
3.4708441049
 30
0.0
 40
0.1000000000000001
100
AcDbArc
 50
130.0465202202
 51
270.0
  0
LINE
  5
199
330
1F
100
AcDbEntity
  8
0
  6
Continuous
 62
     7
370
    25
100
AcDbLine
 10
5.2976190675
 20
3.3708441049
 30
0.0
 11
6.8406001151
 21
3.3708441049
 31
0.0
  0
ARC
  5
19A
330
1F
100
AcDbEntity
  8
0
  6
Continuous
 62
     7
370
    25
100
AcDbCircle
 10
6.8406001151
 20
3.4708441049
 30
0.0
 40
0.1000000000000001
100
AcDbArc
 50
270.0
 51
49.9534797798
  0
LINE
  5
19B
330
1F
100
AcDbEntity
  8
0
  6
Continuous
 62
     7
370
    25
100
AcDbLine
 10
6.1334505286
 20
4.1958219119
 30
0.0
 11
6.9049410524
 21
3.5473963341
 31
0.0
  0
ARC
  5
19C
330
1F
100
AcDbEntity
  8
0
  6
Continuous
 62
     7
370
    25
100
AcDbCircle
 10
6.0691095913
 20
4.1192696828
 30
0.0
 40
0.0999999999999995
100
AcDbArc
 50
49.9534797798
 51
130.0465202202
  0
LINE
  5
19D
330
1F
100
AcDbEntity
  8
0
  6
Continuous
 62
     7
370
    25
100
AcDbLine
 10
6.004768654
 20
4.1958219119
 30
0.0
 11
5.2332781302
 21
3.5473963341
 31
0.0
  0
ARC
  5
19E
330
1F
100
AcDbEntity
  8
0
  6
Continuous
 62
     7
370
    25
100
AcDbCircle
 10
4.723134265
 20
3.6664212415
 30
0.0
 40
0.0999999999999996
100
AcDbArc
 50
120.0
 51
180.0
  0
LINE
  5
19F
330
1F
100
AcDbEntity
  8
0
  6
Continuous
 62
     7
370
    25
100
AcDbLine
 10
4.623134265
 20
3.641147563
 30
0.0
 11
4.623134265
 21
3.6664212415
 31
0.0
  0
ARC
  5
1A0
330
1F
100
AcDbEntity
  8
0
  6
Continuous
 62
     7
370
    25
100
AcDbCircle
 10
4.723134265
 20
3.641147563
 30
0.0
 40
0.1000000000000004
100
AcDbArc
 50
180.0
 51
310.0465202202
  0
LINE
  5
1A1
330
1F
100
AcDbEntity
  8
0
  6
Continuous
 62
     7
370
    25
100
AcDbLine
 10
4.7874752023
 20
3.5645953338
 30
0.0
 11
5.7448954181
 21
4.3692918758
 31
0.0
  0
ARC
  5
1A2
330
1F
100
AcDbEntity
  8
0
  6
Continuous
 62
     7
370
    25
100
AcDbCircle
 10
5.6805544808
 20
4.4458441049
 30
0.0
 40
0.0999999999999996
100
AcDbArc
 50
310.0465202202
 51
49.9534797798
  0
LINE
  5
1A3
330
1F
100
AcDbEntity
  8
0
  6
Continuous
 62
     7
370
    25
100
AcDbLine
 10
4.7874752023
 20
5.327092876
 30
0.0
 11
5.7448954181
 21
4.5223963341
 31
0.0
  0
ARC
  5
1A4
330
1F
100
AcDbEntity
  8
0
  6
Continuous
 62
     7
370
    25
100
AcDbCircle
 10
4.723134265
 20
5.2505406469
 30
0.0
 40
0.1000000000000002
100
AcDbArc
 50
49.9534797798
 51
180.0
  0
LINE
  5
1A5
330
1F
100
AcDbEntity
  8
0
  6
Continuous
 62
     7
370
    25
100
AcDbLine
 10
4.623134265
 20
5.2252669683
 30
0.0
 11
4.623134265
 21
5.2505406469
 31
0.0
  0
ARC
  5
1A6
330
1F
100
AcDbEntity
  8
0
  6
Continuous
 62
     7
370
    25
100
AcDbCircle
 10
4.723134265
 20
5.2252669683
 30
0.0
 40
0.0999999999999998
100
AcDbArc
 50
180.0
 51
240.0
  0
ARC
  5
1A7
330
1F
100
AcDbEntity
  8
0
  6
Continuous
 62
     7
370
    25
100
AcDbCircle
 10
4.273134265
 20
4.4458441049
 30
0.0
 40
0.8000000000000008
100
AcDbArc
 50
300.0
 51
60.0
  0
ARC
  5
1A8
330
1F
100
AcDbEntity
  8
0
  6
Continuous
 62
     7
370
    25
100
AcDbCircle
 10
6.8406001151
 20
5.4208441049
 30
0.0
 40
0.1000000000000002
100
AcDbArc
 50
310.0465202202
 51
90.0
  0
LINE
  5
1A9
330
1F
100
AcDbEntity
  8
0
  6
Continuous
 62
     7
370
    25
100
AcDbLine
 10
6.8406001151
 20
5.5208441049
 30
0.0
 11
5.2976190675
 21
5.5208441049
 31
0.0
  0
ARC
  5
1AA
330
1F
100
AcDbEntity
  8
0
  6
Continuous
 62
     7
370
    25
100
AcDbCircle
 10
5.2976190675
 20
5.4208441049
 30
0.0
 40
0.1000000000000008
100
AcDbArc
 50
90.0
 51
229.9534797798
  0
LINE
  5
1AB
330
1F
100
AcDbEntity
  8
0
  6
Continuous
 62
     7
370
    25
100
AcDbLine
 10
6.004768654
 20
4.695866298
 30
0.0
 11
5.2332781302
 21
5.3442918758
 31
0.0
  0
ARC
  5
1AC
330
1F
100
AcDbEntity
  8
0
  6
Continuous
 62
     7
370
    25
100
AcDbCircle
 10
6.0691095913
 20
4.7724185271
 30
0.0
 40
0.1000000000000002
100
AcDbArc
 50
229.9534797798
 51
310.0465202202
  0
LINE
  5
1AD
330
1F
100
AcDbEntity
  8
0
  6
Continuous
 62
     7
370
    25
100
AcDbLine
 10
6.1334505286
 20
4.695866298
 30
0.0
 11
6.9049410524
 21
5.3442918758
 31
0.0
  0
LINE
  5
1AE
330
1F
100
AcDbEntity
  8
0
  6
Continuous
 62
     7
370
    25
100
AcDbLine
 10
7.648134265
 20
5.3208441049
 30
0.0
 11
7.648134265
 21
3.5708441049
 31
0.0
  0
LINE
  5
1AF
330
1F
100
AcDbEntity
  8
0
  6
Continuous
 62
     7
370
    25
100
AcDbLine
 10
7.648134265
 20
3.5708441049
 30
0.0
 11
7.898134265
 21
3.5708441049
 31
0.0
  0
LINE
  5
1B0
330
1F
100
AcDbEntity
  8
0
  6
Continuous
 62
     7
370
    25
100
AcDbLine
 10
7.898134265
 20
5.3208441049
 30
0.0
 11
7.898134265
 21
3.5708441049
 31
0.0
  0
LINE
  5
1B1
330
1F
100
AcDbEntity
  8
0
  6
Continuous
 62
     7
370
    25
100
AcDbLine
 10
7.648134265
 20
5.3208441049
 30
0.0
 11
7.898134265
 21
5.3208441049
 31
0.0
  0
ARC
  5
1B2
330
1F
100
AcDbEntity
  8
0
  6
Continuous
 62
     7
370
    25
100
AcDbCircle
 10
0.448134265
 20
5.7208441049
 30
0.0
 40
0.1
100
AcDbArc
 50
90.0
 51
180.0
  0
LINE
  5
1B3
330
1F
100
AcDbEntity
  8
0
  6
Continuous
 62
     7
370
    25
100
AcDbLine
 10
0.448134265
 20
5.8208441049
 30
0.0
 11
8.098134265
 21
5.8208441049
 31
0.0
  0
ARC
  5
1B4
330
1F
100
AcDbEntity
  8
0
  6
Continuous
 62
     7
370
    25
100
AcDbCircle
 10
8.098134265
 20
5.7208441049
 30
0.0
 40
0.0999999999999996
100
AcDbArc
 50
0.0
 51
90.0
  0
LINE
  5
1B5
330
1F
100
AcDbEntity
  8
0
  6
Continuous
 62
     7
370
    25
100
AcDbLine
 10
8.198134265
 20
5.7208441049
 30
0.0
 11
8.198134265
 21
3.1708441049
 31
0.0
  0
ARC
  5
1B6
330
1F
100
AcDbEntity
  8
0
  6
Continuous
 62
     7
370
    25
100
AcDbCircle
 10
8.098134265
 20
3.1708441049
 30
0.0
 40
0.1000000000000001
100
AcDbArc
 50
270.0
 51
0.0
  0
LINE
  5
1B7
330
1F
100
AcDbEntity
  8
0
  6
Continuous
 62
     7
370
    25
100
AcDbLine
 10
0.448134265
 20
3.0708441049
 30
0.0
 11
8.098134265
 21
3.0708441049
 31
0.0
  0
ARC
  5
1B8
330
1F
100
AcDbEntity
  8
0
  6
Continuous
 62
     7
370
    25
100
AcDbCircle
 10
0.448134265
 20
3.1708441049
 30
0.0
 40
0.1000000000000001
100
AcDbArc
 50
180.0
 51
270.0
  0
LINE
  5
1B9
330
1F
100
AcDbEntity
  8
0
  6
Continuous
 62
     7
370
    25
100
AcDbLine
 10
0.348134265
 20
5.7208441049
 30
0.0
 11
0.348134265
 21
3.1708441049
 31
0.0
  0
CIRCLE
  5
1BA
330
1F
100
AcDbEntity
  8
0
  6
Continuous
 62
     7
370
    25
100
AcDbCircle
 10
4.273134265
 20
4.4458441049
 30
0.0
 40
0.4999999999999991
  0
ARC
  5
1BB
330
1F
100
AcDbEntity
  8
0
  6
Continuous
 62
     7
370
    25
100
AcDbCircle
 10
7.248134265
 20
5.1102212651
 30
0.0
 40
0.1000000000000005
100
AcDbArc
 50
0.0
 51
130.0465202202
  0
LINE
  5
1BC
330
1F
100
AcDbEntity
  8
0
  6
Continuous
 62
     7
370
    25
100
AcDbLine
 10
7.1837933277
 20
5.1867734942
 30
0.0
 11
6.3933237645
 21
4.5223963341
 31
0.0
  0
ARC
  5
1BD
330
1F
100
AcDbEntity
  8
0
  6
Continuous
 62
     7
370
    25
100
AcDbCircle
 10
6.4576647018
 20
4.4458441049
 30
0.0
 40
0.1000000000000015
100
AcDbArc
 50
130.0465202202
 51
229.9534797798
  0
LINE
  5
1BE
330
1F
100
AcDbEntity
  8
0
  6
Continuous
 62
     7
370
    25
100
AcDbLine
 10
7.1837933277
 20
3.7049147156
 30
0.0
 11
6.3933237645
 21
4.3692918758
 31
0.0
  0
ARC
  5
1BF
330
1F
100
AcDbEntity
  8
0
  6
Continuous
 62
     7
370
    25
100
AcDbCircle
 10
7.248134265
 20
3.7814669448
 30
0.0
 40
0.1000000000000005
100
AcDbArc
 50
229.9534797798
 51
0.0
  0
LINE
  5
1C0
330
1F
100
AcDbEntity
  8
0
  6
Continuous
 62
     7
370
    25
100
AcDbLine
 10
7.348134265
 20
3.7814669448
 30
0.0
 11
7.348134265
 21
5.1102212651
 31
0.0
  0
ARC
  5
1C1
330
1F
100
AcDbEntity
  8
0
  6
Continuous
 62
     7
370
    25
100
AcDbCircle
 10
3.2486494625
 20
5.4208441049
 30
0.0
 40
0.1000000000000005
100
AcDbArc
 50
310.0465202202
 51
90.0
  0
LINE
  5
1C2
330
1F
100
AcDbEntity
  8
0
  6
Continuous
 62
     7
370
    25
100
AcDbLine
 10
1.7056684149
 20
5.5208441049
 30
0.0
 11
3.2486494625
 21
5.5208441049
 31
0.0
  0
ARC
  5
1C3
330
1F
100
AcDbEntity
  8
0
  6
Continuous
 62
     7
370
    25
100
AcDbCircle
 10
1.7056684149
 20
5.4208441049
 30
0.0
 40
0.1000000000000006
100
AcDbArc
 50
90.0
 51
229.9534797798
  0
LINE
  5
1C4
330
1F
100
AcDbEntity
  8
0
  6
Continuous
 62
     7
370
    25
100
AcDbLine
 10
2.4128180014
 20
4.695866298
 30
0.0
 11
1.6413274776
 21
5.3442918758
 31
0.0
  0
ARC
  5
1C5
330
1F
100
AcDbEntity
  8
0
  6
Continuous
 62
     7
370
    25
100
AcDbCircle
 10
2.4771589387
 20
4.7724185271
 30
0.0
 40
0.1000000000000005
100
AcDbArc
 50
229.9534797798
 51
310.0465202202
  0
LINE
  5
1C6
330
1F
100
AcDbEntity
  8
0
  6
Continuous
 62
     7
370
    25
100
AcDbLine
 10
2.541499876
 20
4.695866298
 30
0.0
 11
3.3129903998
 21
5.3442918758
 31
0.0
  0
ARC
  5
1C7
330
1F
100
AcDbEntity
  8
0
  6
Continuous
 62
     7
370
    25
100
AcDbCircle
 10
2.8657140492
 20
4.4458441049
 30
0.0
 40
0.1000000000000002
100
AcDbArc
 50
130.0465202202
 51
229.9534797798
  0
LINE
  5
1C8
330
1F
100
AcDbEntity
  8
0
  6
Continuous
 62
     7
370
    25
100
AcDbLine
 10
3.7587933277
 20
3.5645953338
 30
0.0
 11
2.8013731119
 21
4.3692918758
 31
0.0
  0
ARC
  5
1C9
330
1F
100
AcDbEntity
  8
0
  6
Continuous
 62
     7
370
    25
100
AcDbCircle
 10
3.823134265
 20
3.641147563
 30
0.0
 40
0.1000000000000002
100
AcDbArc
 50
229.9534797798
 51
0.0
  0
LINE
  5
1CA
330
1F
100
AcDbEntity
  8
0
  6
Continuous
 62
     7
370
    25
100
AcDbLine
 10
3.923134265
 20
3.641147563
 30
0.0
 11
3.923134265
 21
3.6664212415
 31
0.0
  0
ARC
  5
1CB
330
1F
100
AcDbEntity
  8
0
  6
Continuous
 62
     7
370
    25
100
AcDbCircle
 10
3.823134265
 20
3.6664212415
 30
0.0
 40
0.1000000000000001
100
AcDbArc
 50
0.0
 51
60.0
  0
ARC
  5
1CC
330
1F
100
AcDbEntity
  8
0
  6
Continuous
 62
     7
370
    25
100
AcDbCircle
 10
4.273134265
 20
4.4458441049
 30
0.0
 40
0.8000000000000008
100
AcDbArc
 50
120.0
 51
240.0
  0
ARC
  5
1CD
330
1F
100
AcDbEntity
  8
0
  6
Continuous
 62
     7
370
    25
100
AcDbCircle
 10
3.823134265
 20
5.2252669683
 30
0.0
 40
0.1000000000000003
100
AcDbArc
 50
300.0
 51
0.0
  0
LINE
  5
1CE
330
1F
100
AcDbEntity
  8
0
  6
Continuous
 62
     7
370
    25
100
AcDbLine
 10
3.923134265
 20
5.2252669683
 30
0.0
 11
3.923134265
 21
5.2505406469
 31
0.0
  0
ARC
  5
1CF
330
1F
100
AcDbEntity
  8
0
  6
Continuous
 62
     7
370
    25
100
AcDbCircle
 10
3.823134265
 20
5.2505406469
 30
0.0
 40
0.1000000000000002
100
AcDbArc
 50
0.0
 51
130.0465202202
  0
LINE
  5
1D0
330
1F
100
AcDbEntity
  8
0
  6
Continuous
 62
     7
370
    25
100
AcDbLine
 10
3.7587933277
 20
5.327092876
 30
0.0
 11
2.8013731119
 21
4.5223963341
 31
0.0
  0
LINE
  5
1D1
330
1F
100
AcDbEntity
  8
0
  6
Continuous
 62
     7
370
    25
100
AcDbLine
 10
0.898134265
 20
3.5708441049
 30
0.0
 11
0.648134265
 21
3.5708441049
 31
0.0
  0
LINE
  5
1D2
330
1F
100
AcDbEntity
  8
0
  6
Continuous
 62
     7
370
    25
100
AcDbLine
 10
0.898134265
 20
5.3208441049
 30
0.0
 11
0.898134265
 21
3.5708441049
 31
0.0
  0
LINE
  5
1D3
330
1F
100
AcDbEntity
  8
0
  6
Continuous
 62
     7
370
    25
100
AcDbLine
 10
0.898134265
 20
5.3208441049
 30
0.0
 11
0.648134265
 21
5.3208441049
 31
0.0
  0
LINE
  5
1D4
330
1F
100
AcDbEntity
  8
0
  6
Continuous
 62
     7
370
    25
100
AcDbLine
 10
0.648134265
 20
5.3208441049
 30
0.0
 11
0.648134265
 21
3.5708441049
 31
0.0
  0
ARC
  5
1D5
330
1F
100
AcDbEntity
  8
0
  6
Continuous
 62
     7
370
    25
100
AcDbCircle
 10
1.7056684149
 20
3.4708441049
 30
0.0
 40
0.1000000000000001
100
AcDbArc
 50
130.0465202202
 51
270.0
  0
LINE
  5
1D6
330
1F
100
AcDbEntity
  8
0
  6
Continuous
 62
     7
370
    25
100
AcDbLine
 10
3.2486494625
 20
3.3708441049
 30
0.0
 11
1.7056684149
 21
3.3708441049
 31
0.0
  0
ARC
  5
1D7
330
1F
100
AcDbEntity
  8
0
  6
Continuous
 62
     7
370
    25
100
AcDbCircle
 10
3.2486494625
 20
3.4708441049
 30
0.0
 40
0.1000000000000001
100
AcDbArc
 50
270.0
 51
49.9534797798
  0
LINE
  5
1D8
330
1F
100
AcDbEntity
  8
0
  6
Continuous
 62
     7
370
    25
100
AcDbLine
 10
2.541499876
 20
4.1958219119
 30
0.0
 11
3.3129903998
 21
3.5473963341
 31
0.0
  0
ARC
  5
1D9
330
1F
100
AcDbEntity
  8
0
  6
Continuous
 62
     7
370
    25
100
AcDbCircle
 10
2.4771589387
 20
4.1192696828
 30
0.0
 40
0.0999999999999995
100
AcDbArc
 50
49.9534797798
 51
130.0465202202
  0
LINE
  5
1DA
330
1F
100
AcDbEntity
  8
0
  6
Continuous
 62
     7
370
    25
100
AcDbLine
 10
2.4128180014
 20
4.1958219119
 30
0.0
 11
1.6413274776
 21
3.5473963341
 31
0.0
  0
MTEXT
  5
1DB
330
1F
100
AcDbEntity
  8
PART_NAMES
100
AcDbMText
 10
4.0128406299
 20
5.6957475354
 30
0.0
 40
0.1666666667
 41
0.0
 71
     1
 72
     1
  1
SSC7
  7
SLDTEXTSTYLE0
 73
     1
 44
1.0
  0
ARC
  5
1DC
330
1F
100
AcDbEntity
  8
0
  6
Continuous
 62
     7
370
    25
100
AcDbCircle
 10
10.0315095123
 20
4.4529408231
 30
0.0
 40
0.1000000000000008
100
AcDbArc
 50
310.0465202202
 51
49.9534797798
  0
LINE
  5
1DD
330
1F
100
AcDbEntity
  8
0
  6
Continuous
 62
     7
370
    25
100
AcDbLine
 10
9.3053808864
 20
5.1938702124
 30
0.0
 11
10.0958504496
 21
4.5294930523
 31
0.0
  0
ARC
  5
1DE
330
1F
100
AcDbEntity
  8
0
  6
Continuous
 62
     7
370
    25
100
AcDbCircle
 10
9.2410399491
 20
5.1173179833
 30
0.0
 40
0.0999999999999996
100
AcDbArc
 50
49.9534797798
 51
180.0
  0
LINE
  5
1DF
330
1F
100
AcDbEntity
  8
0
  6
Continuous
 62
     7
370
    25
100
AcDbLine
 10
9.1410399491
 20
3.788563663
 30
0.0
 11
9.1410399491
 21
5.1173179833
 31
0.0
  0
ARC
  5
1E0
330
1F
100
AcDbEntity
  8
0
  6
Continuous
 62
     7
370
    25
100
AcDbCircle
 10
9.2410399491
 20
3.788563663
 30
0.0
 40
0.1000000000000008
100
AcDbArc
 50
180.0
 51
310.0465202202
  0
LINE
  5
1E1
330
1F
100
AcDbEntity
  8
0
  6
Continuous
 62
     7
370
    25
100
AcDbLine
 10
9.3053808864
 20
3.7120114338
 30
0.0
 11
10.0958504496
 21
4.376388594
 31
0.0
  0
ARC
  5
1E2
330
1F
100
AcDbEntity
  8
0
  6
Continuous
 62
     7
370
    25
100
AcDbCircle
 10
13.2405247516
 20
3.4779408231
 30
0.0
 40
0.1000000000000001
100
AcDbArc
 50
130.0465202202
 51
270.0
  0
LINE
  5
1E3
330
1F
100
AcDbEntity
  8
0
  6
Continuous
 62
     7
370
    25
100
AcDbLine
 10
13.2405247516
 20
3.3779408231
 30
0.0
 11
14.7835057992
 21
3.3779408231
 31
0.0
  0
ARC
  5
1E4
330
1F
100
AcDbEntity
  8
0
  6
Continuous
 62
     7
370
    25
100
AcDbCircle
 10
14.7835057992
 20
3.4779408231
 30
0.0
 40
0.1000000000000001
100
AcDbArc
 50
270.0
 51
49.9534797798
  0
LINE
  5
1E5
330
1F
100
AcDbEntity
  8
0
  6
Continuous
 62
     7
370
    25
100
AcDbLine
 10
14.0763562127
 20
4.2029186301
 30
0.0
 11
14.8478467365
 21
3.5544930523
 31
0.0
  0
ARC
  5
1E6
330
1F
100
AcDbEntity
  8
0
  6
Continuous
 62
     7
370
    25
100
AcDbCircle
 10
14.0120152754
 20
4.1263664009
 30
0.0
 40
0.0999999999999996
100
AcDbArc
 50
49.9534797798
 51
130.0465202202
  0
LINE
  5
1E7
330
1F
100
AcDbEntity
  8
0
  6
Continuous
 62
     7
370
    25
100
AcDbLine
 10
13.9476743381
 20
4.2029186301
 30
0.0
 11
13.1761838143
 21
3.5544930523
 31
0.0
  0
ARC
  5
1E8
330
1F
100
AcDbEntity
  8
0
  6
Continuous
 62
     7
370
    25
100
AcDbCircle
 10
12.6660399491
 20
3.6735179597
 30
0.0
 40
0.1000000000000003
100
AcDbArc
 50
120.0
 51
180.0
  0
LINE
  5
1E9
330
1F
100
AcDbEntity
  8
0
  6
Continuous
 62
     7
370
    25
100
AcDbLine
 10
12.5660399491
 20
3.6482442812
 30
0.0
 11
12.5660399491
 21
3.6735179597
 31
0.0
  0
ARC
  5
1EA
330
1F
100
AcDbEntity
  8
0
  6
Continuous
 62
     7
370
    25
100
AcDbCircle
 10
12.6660399491
 20
3.6482442812
 30
0.0
 40
0.0999999999999996
100
AcDbArc
 50
180.0
 51
310.0465202202
  0
LINE
  5
1EB
330
1F
100
AcDbEntity
  8
0
  6
Continuous
 62
     7
370
    25
100
AcDbLine
 10
12.7303808864
 20
3.571692052
 30
0.0
 11
13.6878011022
 21
4.376388594
 31
0.0
  0
ARC
  5
1EC
330
1F
100
AcDbEntity
  8
0
  6
Continuous
 62
     7
370
    25
100
AcDbCircle
 10
13.6234601649
 20
4.4529408231
 30
0.0
 40
0.1000000000000019
100
AcDbArc
 50
310.0465202202
 51
49.9534797798
  0
LINE
  5
1ED
330
1F
100
AcDbEntity
  8
0
  6
Continuous
 62
     7
370
    25
100
AcDbLine
 10
12.7303808864
 20
5.3341895942
 30
0.0
 11
13.6878011022
 21
4.5294930523
 31
0.0
  0
ARC
  5
1EE
330
1F
100
AcDbEntity
  8
0
  6
Continuous
 62
     7
370
    25
100
AcDbCircle
 10
12.6660399491
 20
5.2576373651
 30
0.0
 40
0.0999999999999996
100
AcDbArc
 50
49.9534797798
 51
180.0
  0
LINE
  5
1EF
330
1F
100
AcDbEntity
  8
0
  6
Continuous
 62
     7
370
    25
100
AcDbLine
 10
12.5660399491
 20
5.2323636865
 30
0.0
 11
12.5660399491
 21
5.2576373651
 31
0.0
  0
ARC
  5
1F0
330
1F
100
AcDbEntity
  8
0
  6
Continuous
 62
     7
370
    25
100
AcDbCircle
 10
12.6660399491
 20
5.2323636865
 30
0.0
 40
0.1000000000000015
100
AcDbArc
 50
180.0
 51
240.0
  0
ARC
  5
1F1
330
1F
100
AcDbEntity
  8
0
  6
Continuous
 62
     7
370
    25
100
AcDbCircle
 10
12.2160399491
 20
4.4529408231
 30
0.0
 40
0.8000000000000004
100
AcDbArc
 50
300.0
 51
60.0
  0
ARC
  5
1F2
330
1F
100
AcDbEntity
  8
0
  6
Continuous
 62
     7
370
    25
100
AcDbCircle
 10
14.7835057992
 20
5.4279408231
 30
0.0
 40
0.1000000000000005
100
AcDbArc
 50
310.0465202202
 51
90.0
  0
LINE
  5
1F3
330
1F
100
AcDbEntity
  8
0
  6
Continuous
 62
     7
370
    25
100
AcDbLine
 10
14.7835057992
 20
5.5279408231
 30
0.0
 11
13.2405247516
 21
5.5279408231
 31
0.0
  0
ARC
  5
1F4
330
1F
100
AcDbEntity
  8
0
  6
Continuous
 62
     7
370
    25
100
AcDbCircle
 10
13.2405247516
 20
5.4279408231
 30
0.0
 40
0.1000000000000003
100
AcDbArc
 50
90.0
 51
229.9534797798
  0
LINE
  5
1F5
330
1F
100
AcDbEntity
  8
0
  6
Continuous
 62
     7
370
    25
100
AcDbLine
 10
13.9476743381
 20
4.7029630161
 30
0.0
 11
13.1761838143
 21
5.351388594
 31
0.0
  0
ARC
  5
1F6
330
1F
100
AcDbEntity
  8
0
  6
Continuous
 62
     7
370
    25
100
AcDbCircle
 10
14.0120152754
 20
4.7795152453
 30
0.0
 40
0.1000000000000026
100
AcDbArc
 50
229.9534797798
 51
310.0465202202
  0
LINE
  5
1F7
330
1F
100
AcDbEntity
  8
0
  6
Continuous
 62
     7
370
    25
100
AcDbLine
 10
14.0763562127
 20
4.7029630161
 30
0.0
 11
14.8478467365
 21
5.351388594
 31
0.0
  0
LINE
  5
1F8
330
1F
100
AcDbEntity
  8
0
  6
Continuous
 62
     7
370
    25
100
AcDbLine
 10
15.5910399491
 20
5.3279408231
 30
0.0
 11
15.5910399491
 21
3.5779408231
 31
0.0
  0
LINE
  5
1F9
330
1F
100
AcDbEntity
  8
0
  6
Continuous
 62
     7
370
    25
100
AcDbLine
 10
15.5910399491
 20
3.5779408231
 30
0.0
 11
15.8410399491
 21
3.5779408231
 31
0.0
  0
LINE
  5
1FA
330
1F
100
AcDbEntity
  8
0
  6
Continuous
 62
     7
370
    25
100
AcDbLine
 10
15.8410399491
 20
5.3279408231
 30
0.0
 11
15.8410399491
 21
3.5779408231
 31
0.0
  0
LINE
  5
1FB
330
1F
100
AcDbEntity
  8
0
  6
Continuous
 62
     7
370
    25
100
AcDbLine
 10
15.5910399491
 20
5.3279408231
 30
0.0
 11
15.8410399491
 21
5.3279408231
 31
0.0
  0
ARC
  5
1FC
330
1F
100
AcDbEntity
  8
0
  6
Continuous
 62
     7
370
    25
100
AcDbCircle
 10
8.3910399491
 20
5.7279408231
 30
0.0
 40
0.1000000000000005
100
AcDbArc
 50
90.0
 51
180.0
  0
LINE
  5
1FD
330
1F
100
AcDbEntity
  8
0
  6
Continuous
 62
     7
370
    25
100
AcDbLine
 10
8.3910399491
 20
5.8279408231
 30
0.0
 11
16.0410399491
 21
5.8279408231
 31
0.0
  0
ARC
  5
1FE
330
1F
100
AcDbEntity
  8
0
  6
Continuous
 62
     7
370
    25
100
AcDbCircle
 10
16.0410399491
 20
5.7279408231
 30
0.0
 40
0.1000000000000014
100
AcDbArc
 50
0.0
 51
90.0
  0
LINE
  5
1FF
330
1F
100
AcDbEntity
  8
0
  6
Continuous
 62
     7
370
    25
100
AcDbLine
 10
16.1410399491
 20
5.7279408231
 30
0.0
 11
16.1410399491
 21
3.1779408231
 31
0.0
  0
ARC
  5
200
330
1F
100
AcDbEntity
  8
0
  6
Continuous
 62
     7
370
    25
100
AcDbCircle
 10
16.0410399491
 20
3.1779408231
 30
0.0
 40
0.1000000000000001
100
AcDbArc
 50
270.0
 51
0.0
  0
LINE
  5
201
330
1F
100
AcDbEntity
  8
0
  6
Continuous
 62
     7
370
    25
100
AcDbLine
 10
8.3910399491
 20
3.0779408231
 30
0.0
 11
16.0410399491
 21
3.0779408231
 31
0.0
  0
ARC
  5
202
330
1F
100
AcDbEntity
  8
0
  6
Continuous
 62
     7
370
    25
100
AcDbCircle
 10
8.3910399491
 20
3.1779408231
 30
0.0
 40
0.1000000000000001
100
AcDbArc
 50
180.0
 51
270.0
  0
LINE
  5
203
330
1F
100
AcDbEntity
  8
0
  6
Continuous
 62
     7
370
    25
100
AcDbLine
 10
8.2910399491
 20
5.7279408231
 30
0.0
 11
8.2910399491
 21
3.1779408231
 31
0.0
  0
CIRCLE
  5
204
330
1F
100
AcDbEntity
  8
0
  6
Continuous
 62
     7
370
    25
100
AcDbCircle
 10
12.2160399491
 20
4.4529408231
 30
0.0
 40
0.5
  0
ARC
  5
205
330
1F
100
AcDbEntity
  8
0
  6
Continuous
 62
     7
370
    25
100
AcDbCircle
 10
15.1910399491
 20
5.1173179833
 30
0.0
 40
0.0999999999999996
100
AcDbArc
 50
0.0
 51
130.0465202202
  0
LINE
  5
206
330
1F
100
AcDbEntity
  8
0
  6
Continuous
 62
     7
370
    25
100
AcDbLine
 10
15.1266990118
 20
5.1938702124
 30
0.0
 11
14.3362294486
 21
4.5294930523
 31
0.0
  0
ARC
  5
207
330
1F
100
AcDbEntity
  8
0
  6
Continuous
 62
     7
370
    25
100
AcDbCircle
 10
14.4005703859
 20
4.4529408231
 30
0.0
 40
0.0999999999999996
100
AcDbArc
 50
130.0465202202
 51
229.9534797798
  0
LINE
  5
208
330
1F
100
AcDbEntity
  8
0
  6
Continuous
 62
     7
370
    25
100
AcDbLine
 10
15.1266990118
 20
3.7120114338
 30
0.0
 11
14.3362294486
 21
4.376388594
 31
0.0
  0
ARC
  5
209
330
1F
100
AcDbEntity
  8
0
  6
Continuous
 62
     7
370
    25
100
AcDbCircle
 10
15.1910399491
 20
3.788563663
 30
0.0
 40
0.1
100
AcDbArc
 50
229.9534797798
 51
0.0
  0
LINE
  5
20A
330
1F
100
AcDbEntity
  8
0
  6
Continuous
 62
     7
370
    25
100
AcDbLine
 10
15.2910399491
 20
3.788563663
 30
0.0
 11
15.2910399491
 21
5.1173179833
 31
0.0
  0
ARC
  5
20B
330
1F
100
AcDbEntity
  8
0
  6
Continuous
 62
     7
370
    25
100
AcDbCircle
 10
11.1915551466
 20
5.4279408231
 30
0.0
 40
0.1000000000000005
100
AcDbArc
 50
310.0465202202
 51
90.0
  0
LINE
  5
20C
330
1F
100
AcDbEntity
  8
0
  6
Continuous
 62
     7
370
    25
100
AcDbLine
 10
9.648574099
 20
5.5279408231
 30
0.0
 11
11.1915551466
 21
5.5279408231
 31
0.0
  0
ARC
  5
20D
330
1F
100
AcDbEntity
  8
0
  6
Continuous
 62
     7
370
    25
100
AcDbCircle
 10
9.648574099
 20
5.4279408231
 30
0.0
 40
0.1000000000000008
100
AcDbArc
 50
90.0
 51
229.9534797798
  0
LINE
  5
20E
330
1F
100
AcDbEntity
  8
0
  6
Continuous
 62
     7
370
    25
100
AcDbLine
 10
10.3557236855
 20
4.7029630161
 30
0.0
 11
9.5842331617
 21
5.351388594
 31
0.0
  0
ARC
  5
20F
330
1F
100
AcDbEntity
  8
0
  6
Continuous
 62
     7
370
    25
100
AcDbCircle
 10
10.4200646228
 20
4.7795152453
 30
0.0
 40
0.1000000000000008
100
AcDbArc
 50
229.9534797798
 51
310.0465202202
  0
LINE
  5
210
330
1F
100
AcDbEntity
  8
0
  6
Continuous
 62
     7
370
    25
100
AcDbLine
 10
10.4844055601
 20
4.7029630161
 30
0.0
 11
11.2558960839
 21
5.351388594
 31
0.0
  0
ARC
  5
211
330
1F
100
AcDbEntity
  8
0
  6
Continuous
 62
     7
370
    25
100
AcDbCircle
 10
10.8086197333
 20
4.4529408231
 30
0.0
 40
0.1000000000000019
100
AcDbArc
 50
130.0465202202
 51
229.9534797798
  0
LINE
  5
212
330
1F
100
AcDbEntity
  8
0
  6
Continuous
 62
     7
370
    25
100
AcDbLine
 10
11.7016990118
 20
3.571692052
 30
0.0
 11
10.744278796
 21
4.376388594
 31
0.0
  0
ARC
  5
213
330
1F
100
AcDbEntity
  8
0
  6
Continuous
 62
     7
370
    25
100
AcDbCircle
 10
11.7660399491
 20
3.6482442812
 30
0.0
 40
0.0999999999999996
100
AcDbArc
 50
229.9534797798
 51
0.0
  0
LINE
  5
214
330
1F
100
AcDbEntity
  8
0
  6
Continuous
 62
     7
370
    25
100
AcDbLine
 10
11.8660399491
 20
3.6482442812
 30
0.0
 11
11.8660399491
 21
3.6735179597
 31
0.0
  0
ARC
  5
215
330
1F
100
AcDbEntity
  8
0
  6
Continuous
 62
     7
370
    25
100
AcDbCircle
 10
11.7660399491
 20
3.6735179597
 30
0.0
 40
0.1000000000000003
100
AcDbArc
 50
0.0
 51
60.0
  0
ARC
  5
216
330
1F
100
AcDbEntity
  8
0
  6
Continuous
 62
     7
370
    25
100
AcDbCircle
 10
12.2160399491
 20
4.4529408231
 30
0.0
 40
0.7999999999999995
100
AcDbArc
 50
120.0
 51
240.0
  0
ARC
  5
217
330
1F
100
AcDbEntity
  8
0
  6
Continuous
 62
     7
370
    25
100
AcDbCircle
 10
11.7660399491
 20
5.2323636865
 30
0.0
 40
0.1000000000000015
100
AcDbArc
 50
300.0
 51
0.0
  0
LINE
  5
218
330
1F
100
AcDbEntity
  8
0
  6
Continuous
 62
     7
370
    25
100
AcDbLine
 10
11.8660399491
 20
5.2323636865
 30
0.0
 11
11.8660399491
 21
5.2576373651
 31
0.0
  0
ARC
  5
219
330
1F
100
AcDbEntity
  8
0
  6
Continuous
 62
     7
370
    25
100
AcDbCircle
 10
11.7660399491
 20
5.2576373651
 30
0.0
 40
0.0999999999999996
100
AcDbArc
 50
0.0
 51
130.0465202202
  0
LINE
  5
21A
330
1F
100
AcDbEntity
  8
0
  6
Continuous
 62
     7
370
    25
100
AcDbLine
 10
11.7016990118
 20
5.3341895942
 30
0.0
 11
10.744278796
 21
4.5294930523
 31
0.0
  0
LINE
  5
21B
330
1F
100
AcDbEntity
  8
0
  6
Continuous
 62
     7
370
    25
100
AcDbLine
 10
8.8410399491
 20
3.5779408231
 30
0.0
 11
8.5910399491
 21
3.5779408231
 31
0.0
  0
LINE
  5
21C
330
1F
100
AcDbEntity
  8
0
  6
Continuous
 62
     7
370
    25
100
AcDbLine
 10
8.8410399491
 20
5.3279408231
 30
0.0
 11
8.8410399491
 21
3.5779408231
 31
0.0
  0
LINE
  5
21D
330
1F
100
AcDbEntity
  8
0
  6
Continuous
 62
     7
370
    25
100
AcDbLine
 10
8.8410399491
 20
5.3279408231
 30
0.0
 11
8.5910399491
 21
5.3279408231
 31
0.0
  0
LINE
  5
21E
330
1F
100
AcDbEntity
  8
0
  6
Continuous
 62
     7
370
    25
100
AcDbLine
 10
8.5910399491
 20
5.3279408231
 30
0.0
 11
8.5910399491
 21
3.5779408231
 31
0.0
  0
ARC
  5
21F
330
1F
100
AcDbEntity
  8
0
  6
Continuous
 62
     7
370
    25
100
AcDbCircle
 10
9.648574099
 20
3.4779408231
 30
0.0
 40
0.1000000000000001
100
AcDbArc
 50
130.0465202202
 51
270.0
  0
LINE
  5
220
330
1F
100
AcDbEntity
  8
0
  6
Continuous
 62
     7
370
    25
100
AcDbLine
 10
11.1915551466
 20
3.3779408231
 30
0.0
 11
9.648574099
 21
3.3779408231
 31
0.0
  0
ARC
  5
221
330
1F
100
AcDbEntity
  8
0
  6
Continuous
 62
     7
370
    25
100
AcDbCircle
 10
11.1915551466
 20
3.4779408231
 30
0.0
 40
0.1000000000000001
100
AcDbArc
 50
270.0
 51
49.9534797798
  0
LINE
  5
222
330
1F
100
AcDbEntity
  8
0
  6
Continuous
 62
     7
370
    25
100
AcDbLine
 10
10.4844055601
 20
4.2029186301
 30
0.0
 11
11.2558960839
 21
3.5544930523
 31
0.0
  0
ARC
  5
223
330
1F
100
AcDbEntity
  8
0
  6
Continuous
 62
     7
370
    25
100
AcDbCircle
 10
10.4200646228
 20
4.1263664009
 30
0.0
 40
0.0999999999999996
100
AcDbArc
 50
49.9534797798
 51
130.0465202202
  0
LINE
  5
224
330
1F
100
AcDbEntity
  8
0
  6
Continuous
 62
     7
370
    25
100
AcDbLine
 10
10.3557236855
 20
4.2029186301
 30
0.0
 11
9.5842331617
 21
3.5544930523
 31
0.0
  0
MTEXT
  5
225
330
1F
100
AcDbEntity
  8
PART_NAMES
100
AcDbMText
 10
12.0170204612
 20
5.6771763525
 30
0.0
 40
0.1666666667
 41
0.0
 71
     1
 72
     1
  1
SSC8
  7
SLDTEXTSTYLE0
 73
     1
 44
1.0
  0
SPLINE
  5
226
330
1F
100
AcDbEntity
  8
0
  6
Continuous
 62
     7
370
    25
100
AcDbSpline
210
0.0
220
0.0
230
1.0
 70
     8
 71
     3
 72
     8
 73
     4
 74
     0
 42
0.00000001
 43
0.00000001
 40
0.0
 40
0.0
 40
0.0
 40
0.0
 40
1.0
 40
1.0
 40
1.0
 40
1.0
 10
5.084835691699621
 20
2.566972373146731
 30
0.0
 10
5.084802574692685
 20
2.511899495015207
 30
0.0
 10
5.080257595419078
 20
2.460776412704818
 30
0.0
 10
5.072898319898961
 20
2.41360182582903
 30
0.0
  0
LINE
  5
227
330
1F
100
AcDbEntity
  8
0
  6
Continuous
 62
     7
370
    25
100
AcDbLine
 10
5.0848356917
 20
2.5669723731
 30
0.0
 11
9.0036574049
 21
2.5668345081
 31
0.0
  0
LINE
  5
228
330
1F
100
AcDbEntity
  8
0
  6
Continuous
 62
     7
370
    25
100
AcDbLine
 10
9.0036246166
 20
1.7473915318
 30
0.0
 11
9.0036574049
 21
2.5668345081
 31
0.0
  0
LINE
  5
229
330
1F
100
AcDbEntity
  8
0
  6
Continuous
 62
     7
370
    25
100
AcDbLine
 10
9.2536230043
 20
1.7473708615
 30
0.0
 11
9.0036246166
 21
1.7473915318
 31
0.0
  0
LINE
  5
22A
330
1F
100
AcDbEntity
  8
0
  6
Continuous
 62
     7
370
    25
100
AcDbLine
 10
9.2536230043
 20
0.9975696415
 30
0.0
 11
9.2536230043
 21
1.7473708615
 31
0.0
  0
LINE
  5
22B
330
1F
100
AcDbEntity
  8
0
  6
Continuous
 62
     7
370
    25
100
AcDbLine
 10
9.0035946149
 20
0.9975903144
 30
0.0
 11
9.2536230043
 21
0.9975696415
 31
0.0
  0
LINE
  5
22C
330
1F
100
AcDbEntity
  8
0
  6
Continuous
 62
     7
370
    25
100
AcDbLine
 10
9.0035946149
 20
0.807703362
 30
0.0
 11
9.0035946149
 21
0.9975903144
 31
0.0
  0
LINE
  5
22D
330
1F
100
AcDbEntity
  8
0
  6
Continuous
 62
     7
370
    25
100
AcDbLine
 10
0.6286880988
 20
0.808395816
 30
0.0
 11
9.0035946149
 21
0.807703362
 31
0.0
  0
LINE
  5
22E
330
1F
100
AcDbEntity
  8
0
  6
Continuous
 62
     7
370
    25
100
AcDbLine
 10
0.6286880988
 20
0.808395816
 30
0.0
 11
0.6286880988
 21
1.0053487372
 31
0.0
  0
LINE
  5
22F
330
1F
100
AcDbEntity
  8
0
  6
Continuous
 62
     7
370
    25
100
AcDbLine
 10
0.6286880988
 20
1.0053487372
 30
0.0
 11
0.3786897111
 21
1.0053694076
 31
0.0
  0
LINE
  5
230
330
1F
100
AcDbEntity
  8
0
  6
Continuous
 62
     7
370
    25
100
AcDbLine
 10
0.3786897111
 20
1.0053694076
 30
0.0
 11
0.3786897111
 21
1.7551706275
 31
0.0
  0
LINE
  5
231
330
1F
100
AcDbEntity
  8
0
  6
Continuous
 62
     7
370
    25
100
AcDbLine
 10
0.3786897111
 20
1.7551706275
 30
0.0
 11
0.6286880988
 21
1.7551499571
 31
0.0
  0
LINE
  5
232
330
1F
100
AcDbEntity
  8
0
  6
Continuous
 62
     7
370
    25
100
AcDbLine
 10
0.6286880988
 20
1.7551499571
 30
0.0
 11
0.6286880988
 21
2.5671291415
 31
0.0
  0
LINE
  5
233
330
1F
100
AcDbEntity
  8
0
  6
Continuous
 62
     7
370
    25
100
AcDbLine
 10
0.6286880988
 20
2.5671291415
 30
0.0
 11
3.083291098
 21
2.567042788
 31
0.0
  0
SPLINE
  5
234
330
1F
100
AcDbEntity
  8
0
  6
Continuous
 62
     7
370
    25
100
AcDbSpline
210
0.0
220
0.0
230
1.0
 70
     8
 71
     3
 72
    38
 73
    34
 74
     0
 42
0.00000001
 43
0.00000001
 40
0.0
 40
0.0
 40
0.0
 40
0.0
 40
0.0625
 40
0.0625
 40
0.125
 40
0.125
 40
0.1875
 40
0.1875
 40
0.25
 40
0.25
 40
0.3125
 40
0.3125
 40
0.375
 40
0.375
 40
0.4375
 40
0.4375
 40
0.5
 40
0.5
 40
0.5625
 40
0.5625
 40
0.625
 40
0.625
 40
0.6875
 40
0.6875
 40
0.75
 40
0.75
 40
0.8125
 40
0.8125
 40
0.875
 40
0.875
 40
0.9375
 40
0.9375
 40
1.0
 40
1.0
 40
1.0
 40
1.0
 10
5.07128261976901
 20
2.403244829962072
 30
0.0
 10
5.065298844915333
 20
2.3648875071647
 30
0.0
 10
5.056742242228808
 20
2.324622851117325
 30
0.0
 10
5.03277445727072
 20
2.240767074161093
 30
0.0
 10
5.017358062181662
 20
2.197167272728513
 30
0.0
 10
4.977741237415503
 20
2.107775268525827
 30
0.0
 10
4.953529161255578
 20
2.061974883150858
 30
0.0
 10
4.894416932813082
 20
1.970239342483165
 30
0.0
 10
4.859497264800563
 20
1.924301314667487
 30
0.0
 10
4.777555508827999
 20
1.835459315790422
 30
0.0
 10
4.730508557562452
 20
1.79256502654847
 30
0.0
 10
4.624069258392242
 20
1.714017757163222
 30
0.0
 10
4.564656382043384
 20
1.678392889292572
 30
0.0
 10
4.435140166813425
 20
1.61908066521845
 30
0.0
 10
4.365036209756134
 20
1.595436555785005
 30
0.0
 10
4.218070095184639
 20
1.56417386420013
 30
0.0
 10
4.141238188868337
 20
1.556595791282734
 30
0.0
 10
3.986610252098057
 20
1.559606092648265
 30
0.0
 10
3.908867566552972
 20
1.570207948006633
 30
0.0
 10
3.758767107351851
 20
1.608872483267043
 30
0.0
 10
3.686459339123701
 20
1.636911362474731
 30
0.0
 10
3.552470864445295
 20
1.707036768858197
 30
0.0
 10
3.490812195852197
 20
1.749076721496583
 30
0.0
 10
3.381096487519059
 20
1.842215460280257
 30
0.0
 10
3.333029763429805
 20
1.893270743582624
 30
0.0
 10
3.251027337240427
 20
1.999325016882996
 30
0.0
 10
3.217064616432843
 20
2.05429991549573
 30
0.0
 10
3.161969430774624
 20
2.164013690549286
 30
0.0
 10
3.14080934023541
 20
2.21874835504844
 30
0.0
 10
3.10906786246358
 20
2.325151786765415
 30
0.0
 10
3.098467150788702
 20
2.376828152235076
 30
0.0
 10
3.085372520220201
 20
2.475550188997328
 30
0.0
 10
3.082868671652105
 20
2.522607144993605
 30
0.0
 10
3.083291097962404
 20
2.567042787961645
 30
0.0
  0
LINE
  5
235
330
1F
100
AcDbEntity
  8
0
  6
Continuous
 62
     7
370
    25
100
AcDbLine
 10
5.0728983199
 20
2.4136018258
 30
0.0
 11
5.0712826198
 21
2.40324483
 31
0.0
  0
ARC
  5
236
330
1F
100
AcDbEntity
  8
0
  6
Continuous
 62
     7
370
    25
100
AcDbCircle
 10
3.3583331538
 20
1.2580541049
 30
0.0
 40
0.0999767460905855
100
AcDbArc
 50
269.9870426083
 51
359.9934004606
  0
LINE
  5
237
330
1F
100
AcDbEntity
  8
0
  6
Continuous
 62
     7
370
    25
100
AcDbLine
 10
3.4583098992
 20
1.3022591879
 30
0.0
 11
3.4583098992
 21
1.2580425892
 31
0.0
  0
ARC
  5
238
330
1F
100
AcDbEntity
  8
0
  6
Continuous
 62
     7
370
    25
100
AcDbCircle
 10
3.358331235
 20
1.3022528746
 30
0.0
 40
0.0999786643774584
100
AcDbArc
 50
0.0036180112
 51
60.012492485
  0
SPLINE
  5
239
330
1F
100
AcDbEntity
  8
0
  6
Continuous
 62
     7
370
    25
100
AcDbSpline
210
0.0
220
0.0
230
1.0
 70
     8
 71
     3
 72
    18
 73
    14
 74
     0
 42
0.00000001
 43
0.00000001
 40
0.6989321034193464
 40
0.6989321034193464
 40
0.6989321034193464
 40
0.6989321034193464
 40
0.7463228647266031
 40
0.7463228647266031
 40
0.7775728647266049
 40
0.7775728647266049
 40
0.8088228647266067
 40
0.8088228647266067
 40
0.8713228647266089
 40
0.8713228647266089
 40
0.9025728647266107
 40
0.9025728647266107
 40
0.9223907613072516
 40
0.9223907613072516
 40
0.9223907613072516
 40
0.9223907613072516
 10
2.872894332255039
 20
1.959869493094842
 30
0.0
 10
2.897572365313403
 20
1.909923524903243
 30
0.0
 10
2.925374354095245
 20
1.861448573468853
 30
0.0
 10
2.976812172558096
 20
1.783505732344252
 30
0.0
 10
2.998747022653582
 20
1.753083341762462
 30
0.0
 10
3.044652243703172
 20
1.694675959293006
 30
0.0
 10
3.068686659423577
 20
1.6665727495463
 30
0.0
 10
3.143966055820358
 20
1.585494102604245
 30
0.0
 10
3.198365961316953
 20
1.535728056873128
 30
0.0
 10
3.286399389911123
 20
1.467623627828958
 30
0.0
 10
3.316969054641777
 20
1.445930270381273
 30
0.0
 10
3.367945978652851
 20
1.412844854166113
 30
0.0
 10
3.387993387900217
 20
1.400568817200588
 30
0.0
 10
3.408301688046793
 20
1.388847834915825
 30
0.0
  0
ARC
  5
23A
330
1F
100
AcDbEntity
  8
0
  6
Continuous
 62
     7
370
    25
100
AcDbCircle
 10
2.7832317693
 20
1.9155596992
 30
0.0
 40
0.100013664201036
100
AcDbArc
 50
26.2978404687
 51
139.6626451091
  0
LINE
  5
23B
330
1F
100
AcDbEntity
  8
0
  6
Continuous
 62
     7
370
    25
100
AcDbLine
 10
2.1488062413
 20
1.3228426974
 30
0.0
 11
2.7069967055
 21
1.9802972315
 31
0.0
  0
ARC
  5
23C
330
1F
100
AcDbEntity
  8
0
  6
Continuous
 62
     7
370
    25
100
AcDbCircle
 10
2.2250295492
 20
1.2581480245
 30
0.0
 40
0.0999769642220121
100
AcDbArc
 50
139.6770067412
 51
270.0100716177
  0
LINE
  5
23D
330
1F
100
AcDbEntity
  8
0
  6
Continuous
 62
     7
370
    25
100
AcDbLine
 10
2.2250471235
 20
1.1581710618
 30
0.0
 11
3.3583105441
 21
1.1580773613
 31
0.0
  0
ARC
  5
23E
330
1F
100
AcDbEntity
  8
0
  6
Continuous
 62
     7
370
    25
100
AcDbCircle
 10
1.0786819518
 20
1.2582619565
 30
0.0
 40
0.0999961112781887
100
AcDbArc
 50
180.0082205959
 51
270.0018592253
  0
LINE
  5
23F
330
1F
100
AcDbEntity
  8
0
  6
Continuous
 62
     7
370
    25
100
AcDbLine
 10
1.0786851967
 20
1.1582658453
 30
0.0
 11
1.5306168827
 21
1.1582284787
 31
0.0
  0
ARC
  5
240
330
1F
100
AcDbEntity
  8
0
  6
Continuous
 62
     7
370
    25
100
AcDbCircle
 10
1.5306458068
 20
1.258195233
 30
0.0
 40
0.0999667584460861
100
AcDbArc
 50
269.9834222194
 51
40.3316002574
  0
LINE
  5
241
330
1F
100
AcDbEntity
  8
0
  6
Continuous
 62
     7
370
    25
100
AcDbLine
 10
1.1549199294
 20
1.8551665129
 30
0.0
 11
1.6068516155
 21
1.3228947501
 31
0.0
  0
ARC
  5
242
330
1F
100
AcDbEntity
  8
0
  6
Continuous
 62
     7
370
    25
100
AcDbCircle
 10
1.0786840127
 20
1.7904539173
 30
0.0
 40
0.0999981750813238
100
AcDbArc
 50
40.326147676
 51
179.9839062901
  0
LINE
  5
243
330
1F
100
AcDbEntity
  8
0
  6
Continuous
 62
     7
370
    25
100
AcDbLine
 10
0.9786858416
 20
1.7904820056
 30
0.0
 11
0.9786858416
 21
1.2582476094
 31
0.0
  0
ARC
  5
244
330
1F
100
AcDbEntity
  8
0
  6
Continuous
 62
     7
370
    25
100
AcDbCircle
 10
1.8778414256
 20
1.4672176414
 30
0.0
 40
0.1000150622481659
100
AcDbArc
 50
220.3338540309
 51
319.6621146107
  0
LINE
  5
245
330
1F
100
AcDbEntity
  8
0
  6
Continuous
 62
     7
370
    25
100
AcDbLine
 10
1.9540769556
 20
1.4024784983
 30
0.0
 11
2.5059455303
 21
2.0524869093
 31
0.0
  0
ARC
  5
246
330
1F
100
AcDbEntity
  8
0
  6
Continuous
 62
     7
370
    25
100
AcDbCircle
 10
2.4297222207
 20
2.1171815821
 30
0.0
 40
0.0999769654752165
100
AcDbArc
 50
319.6770073699
 51
90.0127936274
  0
LINE
  5
247
330
1F
100
AcDbEntity
  8
0
  6
Continuous
 62
     7
370
    25
100
AcDbLine
 10
2.4296998967
 20
2.2171585451
 30
0.0
 11
1.3259009605
 21
2.217197377
 31
0.0
  0
ARC
  5
248
330
1F
100
AcDbEntity
  8
0
  6
Continuous
 62
     7
370
    25
100
AcDbCircle
 10
1.3258767863
 20
2.1172306226
 30
0.0
 40
0.0999667573617073
100
AcDbArc
 50
89.9861445962
 51
220.3316008624
  0
LINE
  5
249
330
1F
100
AcDbEntity
  8
0
  6
Continuous
 62
     7
370
    25
100
AcDbLine
 10
1.2496709792
 20
2.0525311053
 30
0.0
 11
1.8016013407
 21
1.4024838625
 31
0.0
  0
ARC
  5
24A
330
1F
100
AcDbEntity
  8
0
  6
Continuous
 62
     7
370
    25
100
AcDbCircle
 10
8.2642814668
 20
1.2576383582
 30
0.0
 40
0.0999666341930771
100
AcDbArc
 50
269.9833763766
 51
45.7635459689
  0
LINE
  5
24B
330
1F
100
AcDbEntity
  8
0
  6
Continuous
 62
     7
370
    25
100
AcDbLine
 10
7.6354077021
 20
2.0094967529
 30
0.0
 11
8.3340202992
 21
1.3292611423
 31
0.0
  0
ARC
  5
24C
330
1F
100
AcDbEntity
  8
0
  6
Continuous
 62
     7
370
    25
100
AcDbCircle
 10
7.5656339403
 20
1.9378377128
 30
0.0
 40
0.1000169778474878
100
AcDbArc
 50
45.7636989972
 51
134.2268263434
  0
LINE
  5
24D
330
1F
100
AcDbEntity
  8
0
  6
Continuous
 62
     7
370
    25
100
AcDbLine
 10
6.7972594321
 20
1.3293882048
 30
0.0
 11
7.4958720292
 21
2.00950829
 31
0.0
  0
ARC
  5
24E
330
1F
100
AcDbEntity
  8
0
  6
Continuous
 62
     7
370
    25
100
AcDbCircle
 10
6.8670083122
 20
1.2577627844
 30
0.0
 40
0.0999755326341393
100
AcDbArc
 50
134.2395257126
 51
270.0108637994
  0
LINE
  5
24F
330
1F
100
AcDbEntity
  8
0
  6
Continuous
 62
     7
370
    25
100
AcDbLine
 10
6.8670272685
 20
1.1577872536
 30
0.0
 11
8.2642524628
 21
1.1576717282
 31
0.0
  0
ARC
  5
250
330
1F
100
AcDbEntity
  8
0
  6
Continuous
 62
     7
370
    25
100
AcDbCircle
 10
4.8082612263
 20
1.3021511387
 30
0.0
 40
0.0999593885969157
100
AcDbArc
 50
119.9777260538
 51
179.9980225117
  0
LINE
  5
251
330
1F
100
AcDbEntity
  8
0
  6
Continuous
 62
     7
370
    25
100
AcDbLine
 10
4.7083018377
 20
1.2579392373
 30
0.0
 11
4.7083018377
 21
1.3021545887
 31
0.0
  0
ARC
  5
252
330
1F
100
AcDbEntity
  8
0
  6
Continuous
 62
     7
370
    25
100
AcDbCircle
 10
4.808297948
 20
1.2579535844
 30
0.0
 40
0.0999961112781831
100
AcDbArc
 50
180.0082205959
 51
270.0018592253
  0
LINE
  5
253
330
1F
100
AcDbEntity
  8
0
  6
Continuous
 62
     7
370
    25
100
AcDbLine
 10
4.8083011928
 20
1.1579574732
 30
0.0
 11
6.0882909496
 21
1.1578516411
 31
0.0
  0
ARC
  5
254
330
1F
100
AcDbEntity
  8
0
  6
Continuous
 62
     7
370
    25
100
AcDbCircle
 10
6.0883199535
 20
1.2578182711
 30
0.0
 40
0.0999666342098536
100
AcDbArc
 50
269.9833764048
 51
45.7689919728
  0
LINE
  5
255
330
1F
100
AcDbEntity
  8
0
  6
Continuous
 62
     7
370
    25
100
AcDbLine
 10
5.4625304822
 20
2.0065447707
 30
0.0
 11
6.1580519778
 21
1.3294476836
 31
0.0
  0
ARC
  5
256
330
1F
100
AcDbEntity
  8
0
  6
Continuous
 62
     7
370
    25
100
AcDbCircle
 10
5.3927655529
 20
1.9348887638
 30
0.0
 40
0.1000086430957456
100
AcDbArc
 50
45.7661122047
 51
154.5513898496
  0
SPLINE
  5
257
330
1F
100
AcDbEntity
  8
0
  6
Continuous
 62
     7
370
    25
100
AcDbSpline
210
0.0
220
0.0
230
1.0
 70
     8
 71
     3
 72
    18
 73
    14
 74
     0
 42
0.00000001
 43
0.00000001
 40
0.0719637120806635
 40
0.0719637120806635
 40
0.0719637120806635
 40
0.0719637120806635
 40
0.1230695605805491
 40
0.1230695605805491
 40
0.1543195605805484
 40
0.1543195605805484
 40
0.1855695605805477
 40
0.1855695605805477
 40
0.2480695605805451
 40
0.2480695605805451
 40
0.2793195605805443
 40
0.2793195605805443
 40
0.3011058484998791
 40
0.3011058484998791
 40
0.3011058484998791
 40
0.3011058484998791
 10
4.758315188881602
 20
1.38873793168323
 30
0.0
 10
4.810565673501975
 20
1.418881646292168
 30
0.0
 10
4.860623548625608
 20
1.452425101566386
 30
0.0
 10
4.937752873363285
 20
1.511965001167827
 30
0.0
 10
4.966194800622574
 20
1.535836457626315
 30
0.0
 10
5.021376160908281
 20
1.586219165219266
 30
0.0
 10
5.047747847569397
 20
1.612396359813332
 30
0.0
 10
5.123221307626975
 20
1.693701243133586
 30
0.0
 10
5.168749889097993
 20
1.751625055744868
 30
0.0
 10
5.229880303097088
 20
1.844077519690576
 30
0.0
 10
5.249057492383873
 20
1.875827362564801
 30
0.0
 10
5.279507629604745
 20
1.931341500773891
 30
0.0
 10
5.291339999145515
 20
1.954483511431772
 30
0.0
 10
5.302460642741697
 20
1.977862615174995
 30
0.0
  0
ARC
  5
258
330
1F
100
AcDbEntity
  8
0
  6
Continuous
 62
     7
370
    25
100
AcDbCircle
 10
6.4776755207
 20
1.4369466813
 30
0.0
 40
0.1000169778449568
100
AcDbArc
 50
225.7691422857
 51
314.226826356
  0
LINE
  5
259
330
1F
100
AcDbEntity
  8
0
  6
Continuous
 62
     7
370
    25
100
AcDbLine
 10
6.5474374317
 20
1.3652761042
 30
0.0
 11
7.2460442959
 21
2.0453906081
 31
0.0
  0
ARC
  5
25A
330
1F
100
AcDbEntity
  8
0
  6
Continuous
 62
     7
370
    25
100
AcDbCircle
 10
7.1762954141
 20
2.1170160285
 30
0.0
 40
0.0999755338435863
100
AcDbArc
 50
314.2395263554
 51
90.0135858584
  0
LINE
  5
25B
330
1F
100
AcDbEntity
  8
0
  6
Continuous
 62
     7
370
    25
100
AcDbLine
 10
7.1762717081
 20
2.2169915596
 30
0.0
 11
5.7789933307
 21
2.2170407162
 31
0.0
  0
ARC
  5
25C
330
1F
100
AcDbEntity
  8
0
  6
Continuous
 62
     7
370
    25
100
AcDbCircle
 10
5.7789690767
 20
2.1170740859
 30
0.0
 40
0.0999666332159649
100
AcDbArc
 50
89.9860988287
 51
225.768992565
  0
LINE
  5
25D
330
1F
100
AcDbEntity
  8
0
  6
Continuous
 62
     7
370
    25
100
AcDbLine
 10
5.7092370538
 20
2.0454446733
 30
0.0
 11
6.407908567
 21
1.3652810128
 31
0.0
  0
ARC
  5
25E
330
1F
100
AcDbEntity
  8
0
  6
Continuous
 62
     7
370
    25
100
AcDbCircle
 10
8.5536213883
 20
1.5341031356
 30
0.0
 40
0.0999969533838811
100
AcDbArc
 50
225.755340963
 51
359.9823149048
  0
LINE
  5
25F
330
1F
100
AcDbEntity
  8
0
  6
Continuous
 62
     7
370
    25
100
AcDbLine
 10
8.6536183369
 20
1.5340722703
 30
0.0
 11
8.6536416598
 21
2.1169573399
 31
0.0
  0
ARC
  5
260
330
1F
100
AcDbEntity
  8
0
  6
Continuous
 62
     7
370
    25
100
AcDbCircle
 10
8.5536455491
 20
2.1169469926
 30
0.0
 40
0.099996111230076
100
AcDbArc
 50
0.0059287964
 51
90.0045813669
  0
LINE
  5
261
330
1F
100
AcDbEntity
  8
0
  6
Continuous
 62
     7
370
    25
100
AcDbLine
 10
8.5536375534
 20
2.2169431035
 30
0.0
 11
7.9549605288
 21
2.2169641651
 31
0.0
  0
ARC
  5
262
330
1F
100
AcDbEntity
  8
0
  6
Continuous
 62
     7
370
    25
100
AcDbCircle
 10
7.9549362748
 20
2.1169975349
 30
0.0
 40
0.0999666331990974
100
AcDbArc
 50
89.9860988004
 51
225.7635465612
  0
LINE
  5
263
330
1F
100
AcDbEntity
  8
0
  6
Continuous
 62
     7
370
    25
100
AcDbLine
 10
7.8851974438
 20
2.0453747507
 30
0.0
 11
8.4838511455
 21
1.4624686195
 31
0.0
  0
LINE
  5
264
330
1F
100
AcDbEntity
  8
0
  6
Continuous
 62
     7
370
    25
100
AcDbLine
 10
9.0036246166
 20
1.7473915318
 30
0.0
 11
9.0045224716
 21
1.753146981
 31
0.0
  0
LINE
  5
265
330
1F
100
AcDbEntity
  8
0
  6
Continuous
 62
     7
370
    25
100
AcDbLine
 10
9.0036574049
 20
2.5668345081
 30
0.0
 11
9.0045552599
 21
2.5725899572
 31
0.0
  0
LINE
  5
266
330
1F
100
AcDbEntity
  8
0
  6
Continuous
 62
     7
370
    25
100
AcDbLine
 10
9.0045224716
 20
1.753146981
 30
0.0
 11
9.0045552599
 21
2.5725899572
 31
0.0
  0
LINE
  5
267
330
1F
100
AcDbEntity
  8
0
  6
Continuous
 62
     7
370
    25
100
AcDbLine
 10
5.0848356917
 20
2.5669723731
 30
0.0
 11
5.0857335466
 21
2.5727278223
 31
0.0
  0
LINE
  5
268
330
1F
100
AcDbEntity
  8
0
  6
Continuous
 62
     7
370
    25
100
AcDbLine
 10
5.0857335466
 20
2.5727278223
 30
0.0
 11
9.0045552599
 21
2.5725899572
 31
0.0
  0
LINE
  5
269
330
1F
100
AcDbEntity
  8
0
  6
Continuous
 62
     7
370
    25
100
AcDbLine
 10
7.8860952987
 20
2.0511301998
 30
0.0
 11
7.8851974438
 21
2.0453747507
 31
0.0
  0
ARC
  5
26A
330
1F
100
AcDbEntity
  8
0
  6
Continuous
 62
     7
370
    25
100
AcDbCircle
 10
7.9558285286
 20
2.1227554277
 30
0.0
 40
0.0999644768149523
100
AcDbArc
 50
172.8050787352
 51
225.7668237848
  0
LINE
  5
26B
330
1F
100
AcDbEntity
  8
0
  6
Continuous
 62
     7
370
    25
100
AcDbLine
 10
7.2460442959
 20
2.0453906081
 30
0.0
 11
7.2469421508
 21
2.0511460572
 31
0.0
  0
ARC
  5
26C
330
1F
100
AcDbEntity
  8
0
  6
Continuous
 62
     7
370
    25
100
AcDbCircle
 10
7.1772195356
 20
2.1227676097
 30
0.0
 40
0.0999544388985153
100
AcDbArc
 50
314.2302863037
 51
349.4628702399
  0
LINE
  5
26D
330
1F
100
AcDbEntity
  8
0
  6
Continuous
 62
     7
370
    25
100
AcDbLine
 10
8.4847490004
 20
1.4682240686
 30
0.0
 11
7.8860952987
 21
2.0511301998
 31
0.0
  0
LINE
  5
26E
330
1F
100
AcDbEntity
  8
0
  6
Continuous
 62
     7
370
    25
100
AcDbLine
 10
8.4838511455
 20
1.4624686195
 30
0.0
 11
8.4847490004
 21
1.4682240686
 31
0.0
  0
LINE
  5
26F
330
1F
100
AcDbEntity
  8
0
  6
Continuous
 62
     7
370
    25
100
AcDbLine
 10
3.083291098
 20
2.567042788
 30
0.0
 11
3.0841889529
 21
2.5727982371
 31
0.0
  0
LINE
  5
270
330
1F
100
AcDbEntity
  8
0
  6
Continuous
 62
     7
370
    25
100
AcDbLine
 10
9.2536230043
 20
1.7473708615
 30
0.0
 11
9.2545208593
 21
1.7531263106
 31
0.0
  0
LINE
  5
271
330
1F
100
AcDbEntity
  8
0
  6
Continuous
 62
     7
370
    25
100
AcDbLine
 10
9.2545208593
 20
1.7531263106
 30
0.0
 11
9.0045224716
 21
1.753146981
 31
0.0
  0
LINE
  5
272
330
1F
100
AcDbEntity
  8
0
  6
Continuous
 62
     7
370
    25
100
AcDbLine
 10
9.2536230043
 20
0.9975696415
 30
0.0
 11
9.2545208593
 21
1.0033250907
 31
0.0
  0
LINE
  5
273
330
1F
100
AcDbEntity
  8
0
  6
Continuous
 62
     7
370
    25
100
AcDbLine
 10
9.2545208593
 20
1.0033250907
 30
0.0
 11
9.2545208593
 21
1.7531263106
 31
0.0
  0
LINE
  5
274
330
1F
100
AcDbEntity
  8
0
  6
Continuous
 62
     7
370
    25
100
AcDbLine
 10
6.5483352867
 20
1.3710315533
 30
0.0
 11
6.5474374317
 21
1.3652761042
 31
0.0
  0
LINE
  5
275
330
1F
100
AcDbEntity
  8
0
  6
Continuous
 62
     7
370
    25
100
AcDbLine
 10
7.2469421508
 20
2.0511460572
 30
0.0
 11
6.5483352867
 21
1.3710315533
 31
0.0
  0
LINE
  5
276
330
1F
100
AcDbEntity
  8
0
  6
Continuous
 62
     7
370
    25
100
AcDbLine
 10
5.7101349088
 20
2.0512001225
 30
0.0
 11
5.7092370538
 21
2.0454446733
 31
0.0
  0
ARC
  5
277
330
1F
100
AcDbEntity
  8
0
  6
Continuous
 62
     7
370
    25
100
AcDbCircle
 10
5.7798613344
 20
2.1228319795
 30
0.0
 40
0.0999644805463837
100
AcDbArc
 50
172.8050795624
 51
225.7722686349
  0
LINE
  5
278
330
1F
100
AcDbEntity
  8
0
  6
Continuous
 62
     7
370
    25
100
AcDbLine
 10
0.6286880988
 20
2.5671291415
 30
0.0
 11
0.6295859537
 21
2.5728845906
 31
0.0
  0
LINE
  5
279
330
1F
100
AcDbEntity
  8
0
  6
Continuous
 62
     7
370
    25
100
AcDbLine
 10
0.6295859537
 20
2.5728845906
 30
0.0
 11
3.0841889529
 21
2.5727982371
 31
0.0
  0
LINE
  5
27A
330
1F
100
AcDbEntity
  8
0
  6
Continuous
 62
     7
370
    25
100
AcDbLine
 10
6.408806422
 20
1.371036462
 30
0.0
 11
5.7101349088
 21
2.0512001225
 31
0.0
  0
LINE
  5
27B
330
1F
100
AcDbEntity
  8
0
  6
Continuous
 62
     7
370
    25
100
AcDbLine
 10
6.407908567
 20
1.3652810128
 30
0.0
 11
6.408806422
 21
1.371036462
 31
0.0
  0
ARC
  5
27C
330
1F
100
AcDbEntity
  8
0
  6
Continuous
 62
     7
370
    25
100
AcDbCircle
 10
8.5545208235
 20
1.5398612171
 30
0.0
 40
0.0999999417629176
100
AcDbArc
 50
225.7557446693
 51
349.4519058492
  0
LINE
  5
27D
330
1F
100
AcDbEntity
  8
0
  6
Continuous
 62
     7
370
    25
100
AcDbLine
 10
8.2642524628
 20
1.1576717282
 30
0.0
 11
8.2651503177
 21
1.1634271773
 31
0.0
  0
ARC
  5
27E
330
1F
100
AcDbEntity
  8
0
  6
Continuous
 62
     7
370
    25
100
AcDbCircle
 10
8.2651713912
 20
1.2634077236
 30
0.0
 40
0.0999805484482825
100
AcDbArc
 50
269.9879234278
 51
349.4581024854
  0
LINE
  5
27F
330
1F
100
AcDbEntity
  8
0
  6
Continuous
 62
     7
370
    25
100
AcDbLine
 10
2.5059455303
 20
2.0524869093
 30
0.0
 11
2.5068433853
 21
2.0582423584
 31
0.0
  0
ARC
  5
280
330
1F
100
AcDbEntity
  8
0
  6
Continuous
 62
     7
370
    25
100
AcDbCircle
 10
2.4306503016
 20
2.1229336451
 30
0.0
 40
0.0999517312762634
100
AcDbArc
 50
319.6672752859
 51
349.4631346993
  0
LINE
  5
281
330
1F
100
AcDbEntity
  8
0
  6
Continuous
 62
     7
370
    25
100
AcDbLine
 10
6.8679251234
 20
1.1635427027
 30
0.0
 11
6.8670272685
 21
1.1577872536
 31
0.0
  0
LINE
  5
282
330
1F
100
AcDbEntity
  8
0
  6
Continuous
 62
     7
370
    25
100
AcDbLine
 10
6.8679251234
 20
1.1635427027
 30
0.0
 11
8.2651503177
 21
1.1634271773
 31
0.0
  0
LINE
  5
283
330
1F
100
AcDbEntity
  8
0
  6
Continuous
 62
     7
370
    25
100
AcDbLine
 10
1.9549748106
 20
1.4082339475
 30
0.0
 11
1.9540769556
 21
1.4024784983
 31
0.0
  0
LINE
  5
284
330
1F
100
AcDbEntity
  8
0
  6
Continuous
 62
     7
370
    25
100
AcDbLine
 10
2.5068433853
 20
2.0582423584
 30
0.0
 11
1.9549748106
 21
1.4082339475
 31
0.0
  0
LINE
  5
285
330
1F
100
AcDbEntity
  8
0
  6
Continuous
 62
     7
370
    25
100
AcDbLine
 10
1.2505688341
 20
2.0582865544
 30
0.0
 11
1.2496709792
 21
2.0525311053
 31
0.0
  0
ARC
  5
286
330
1F
100
AcDbEntity
  8
0
  6
Continuous
 62
     7
370
    25
100
AcDbCircle
 10
1.3267652438
 20
2.122988036
 30
0.0
 40
0.0999608651603109
100
AcDbArc
 50
172.8044687848
 51
220.3359453215
  0
LINE
  5
287
330
1F
100
AcDbEntity
  8
0
  6
Continuous
 62
     7
370
    25
100
AcDbLine
 10
9.0035946149
 20
0.807703362
 30
0.0
 11
9.0044924699
 21
0.8134588111
 31
0.0
  0
LINE
  5
288
330
1F
100
AcDbEntity
  8
0
  6
Continuous
 62
     7
370
    25
100
AcDbLine
 10
9.0044924699
 20
0.8134588111
 30
0.0
 11
9.0044924699
 21
0.9975902402
 31
0.0
  0
ARC
  5
289
330
1F
100
AcDbEntity
  8
0
  6
Continuous
 62
     7
370
    25
100
AcDbCircle
 10
6.867920357
 20
1.2635355303
 30
0.0
 40
0.0999928276870457
100
AcDbArc
 50
172.8129178812
 51
270.00273116
  0
ARC
  5
28A
330
1F
100
AcDbEntity
  8
0
  6
Continuous
 62
     7
370
    25
100
AcDbCircle
 10
6.4785733756
 20
1.4427021304
 30
0.0
 40
0.1000169778449571
100
AcDbArc
 50
225.7691422857
 51
314.226826356
  0
LINE
  5
28B
330
1F
100
AcDbEntity
  8
0
  6
Continuous
 62
     7
370
    25
100
AcDbLine
 10
6.0882909496
 20
1.1578516411
 30
0.0
 11
6.0891888045
 21
1.1636070902
 31
0.0
  0
ARC
  5
28C
330
1F
100
AcDbEntity
  8
0
  6
Continuous
 62
     7
370
    25
100
AcDbCircle
 10
6.0892098785
 20
1.2635876359
 30
0.0
 40
0.0999805478938495
100
AcDbArc
 50
269.9879231637
 51
349.4581030595
  0
LINE
  5
28D
330
1F
100
AcDbEntity
  8
0
  6
Continuous
 62
     7
370
    25
100
AcDbLine
 10
1.8024991957
 20
1.4082393116
 30
0.0
 11
1.2505688341
 21
2.0582865544
 31
0.0
  0
LINE
  5
28E
330
1F
100
AcDbEntity
  8
0
  6
Continuous
 62
     7
370
    25
100
AcDbLine
 10
1.8016013407
 20
1.4024838625
 30
0.0
 11
1.8024991957
 21
1.4082393116
 31
0.0
  0
LINE
  5
28F
330
1F
100
AcDbEntity
  8
0
  6
Continuous
 62
     7
370
    25
100
AcDbLine
 10
4.7091996927
 20
1.3079100378
 30
0.0
 11
4.7083018377
 21
1.3021545887
 31
0.0
  0
LINE
  5
290
330
1F
100
AcDbEntity
  8
0
  6
Continuous
 62
     7
370
    25
100
AcDbLine
 10
4.709987104
 20
1.3204311595
 30
0.0
 11
4.7091996927
 21
1.3079100378
 31
0.0
  0
LINE
  5
291
330
1F
100
AcDbEntity
  8
0
  6
Continuous
 62
     7
370
    25
100
AcDbLine
 10
4.8091990478
 20
1.1637129223
 30
0.0
 11
4.8083011928
 21
1.1579574732
 31
0.0
  0
LINE
  5
292
330
1F
100
AcDbEntity
  8
0
  6
Continuous
 62
     7
370
    25
100
AcDbLine
 10
4.8091990478
 20
1.1637129223
 30
0.0
 11
6.0891888045
 21
1.1636070902
 31
0.0
  0
LINE
  5
293
330
1F
100
AcDbEntity
  8
0
  6
Continuous
 62
     7
370
    25
100
AcDbLine
 10
0.9795836965
 20
1.7962374547
 30
0.0
 11
0.9786858416
 21
1.7904820056
 31
0.0
  0
LINE
  5
294
330
1F
100
AcDbEntity
  8
0
  6
Continuous
 62
     7
370
    25
100
AcDbLine
 10
0.9803711078
 20
1.8087585763
 30
0.0
 11
0.9795836965
 21
1.7962374547
 31
0.0
  0
LINE
  5
295
330
1F
100
AcDbEntity
  8
0
  6
Continuous
 62
     7
370
    25
100
AcDbLine
 10
4.7091996927
 20
1.2636946865
 30
0.0
 11
4.7091996927
 21
1.3079100378
 31
0.0
  0
LINE
  5
296
330
1F
100
AcDbEntity
  8
0
  6
Continuous
 62
     7
370
    25
100
AcDbLine
 10
4.7083018377
 20
1.2579392373
 30
0.0
 11
4.7091996927
 21
1.2636946865
 31
0.0
  0
ARC
  5
297
330
1F
100
AcDbEntity
  8
0
  6
Continuous
 62
     7
370
    25
100
AcDbCircle
 10
4.8091958029
 20
1.2637090335
 30
0.0
 40
0.0999961112781807
100
AcDbArc
 50
180.0082205959
 51
270.0018592253
  0
LINE
  5
298
330
1F
100
AcDbEntity
  8
0
  6
Continuous
 62
     7
370
    25
100
AcDbLine
 10
0.9786858416
 20
1.2582476094
 30
0.0
 11
0.9795836965
 21
1.2640030586
 31
0.0
  0
LINE
  5
299
330
1F
100
AcDbEntity
  8
0
  6
Continuous
 62
     7
370
    25
100
AcDbLine
 10
0.9795836965
 20
1.7962374547
 30
0.0
 11
0.9795836965
 21
1.2640030586
 31
0.0
  0
LINE
  5
29A
330
1F
100
AcDbEntity
  8
0
  6
Continuous
 62
     7
370
    25
100
AcDbLine
 10
0.3786897111
 20
1.7551706275
 30
0.0
 11
0.379587566
 21
1.7609260766
 31
0.0
  0
LINE
  5
29B
330
1F
100
AcDbEntity
  8
0
  6
Continuous
 62
     7
370
    25
100
AcDbLine
 10
0.379587566
 20
1.7609260766
 30
0.0
 11
0.6286880988
 21
1.7609054805
 31
0.0
  0
LINE
  5
29C
330
1F
100
AcDbEntity
  8
0
  6
Continuous
 62
     7
370
    25
100
AcDbLine
 10
3.3583105441
 20
1.1580773613
 30
0.0
 11
3.3592083991
 21
1.1638328104
 31
0.0
  0
ARC
  5
29D
330
1F
100
AcDbEntity
  8
0
  6
Continuous
 62
     7
370
    25
100
AcDbCircle
 10
3.3592295527
 20
1.2638132603
 30
0.0
 40
0.0999804520643132
100
AcDbArc
 50
269.987877514
 51
349.4581496501
  0
ARC
  5
29E
330
1F
100
AcDbEntity
  8
0
  6
Continuous
 62
     7
370
    25
100
AcDbCircle
 10
1.8787392806
 20
1.4729730905
 30
0.0
 40
0.1000150622481647
100
AcDbArc
 50
220.3338540309
 51
319.6621146108
  0
LINE
  5
29F
330
1F
100
AcDbEntity
  8
0
  6
Continuous
 62
     7
370
    25
100
AcDbLine
 10
2.2259449784
 20
1.1639265109
 30
0.0
 11
2.2250471235
 21
1.1581710618
 31
0.0
  0
LINE
  5
2A0
330
1F
100
AcDbEntity
  8
0
  6
Continuous
 62
     7
370
    25
100
AcDbLine
 10
2.2259449784
 20
1.1639265109
 30
0.0
 11
3.3592083991
 21
1.1638328104
 31
0.0
  0
ARC
  5
2A1
330
1F
100
AcDbEntity
  8
0
  6
Continuous
 62
     7
370
    25
100
AcDbCircle
 10
2.2259408166
 20
1.2639198717
 30
0.0
 40
0.0999933608361265
100
AcDbArc
 50
172.8132642938
 51
270.0023847104
  0
LINE
  5
2A2
330
1F
100
AcDbEntity
  8
0
  6
Continuous
 62
     7
370
    25
100
AcDbLine
 10
1.5306168827
 20
1.1582284787
 30
0.0
 11
1.5315147377
 21
1.1639839278
 31
0.0
  0
ARC
  5
2A3
330
1F
100
AcDbEntity
  8
0
  6
Continuous
 62
     7
370
    25
100
AcDbCircle
 10
1.5315353458
 20
1.2639650341
 30
0.0
 40
0.0999811083970849
100
AcDbArc
 50
269.9881901655
 51
349.457835643
  0
LINE
  5
2A4
330
1F
100
AcDbEntity
  8
0
  6
Continuous
 62
     7
370
    25
100
AcDbLine
 10
1.0795830516
 20
1.1640212944
 30
0.0
 11
1.0786851967
 21
1.1582658453
 31
0.0
  0
ARC
  5
2A5
330
1F
100
AcDbEntity
  8
0
  6
Continuous
 62
     7
370
    25
100
AcDbCircle
 10
1.0795798068
 20
1.2640174057
 30
0.0
 40
0.0999961112781807
100
AcDbArc
 50
180.0082205959
 51
270.0018592253
  0
LINE
  5
2A6
330
1F
100
AcDbEntity
  8
0
  6
Continuous
 62
     7
370
    25
100
AcDbLine
 10
1.0795830516
 20
1.1640212944
 30
0.0
 11
1.5315147377
 21
1.1639839278
 31
0.0
  0
MTEXT
  5
2A7
330
1F
100
AcDbEntity
  8
PART_NAMES
100
AcDbMText
 10
3.6793715681
 20
1.2352595952
 30
0.0
 40
0.1666666667
 41
0.0
 71
     1
 72
     1
  1
NGHb2
  7
SLDTEXTSTYLE0
 73
     1
 44
1.0
  0
LINE
  5
2A8
330
1F
100
AcDbEntity
  8
0
  6
Continuous
 62
     7
370
    25
100
AcDbLine
 10
18.0028481139
 20
2.1088895715
 30
0.0
 11
18.0042897473
 21
2.1146449621
 31
0.0
  0
LINE
  5
2A9
330
1F
100
AcDbEntity
  8
0
  6
Continuous
 62
     7
370
    25
100
AcDbLine
 10
18.0028481139
 20
2.8586907914
 30
0.0
 11
18.0028481139
 21
2.1088895715
 31
0.0
  0
LINE
  5
2AA
330
1F
100
AcDbEntity
  8
0
  6
Continuous
 62
     7
370
    25
100
AcDbLine
 10
18.0028481139
 20
2.8586907914
 30
0.0
 11
18.0042897473
 21
2.864446182
 31
0.0
  0
LINE
  5
2AB
330
1F
100
AcDbEntity
  8
0
  6
Continuous
 62
     7
370
    25
100
AcDbLine
 10
18.0042897473
 20
2.864446182
 30
0.0
 11
18.0042897473
 21
2.1146449621
 31
0.0
  0
LINE
  5
2AC
330
1F
100
AcDbEntity
  8
0
  6
Continuous
 62
     7
370
    25
100
AcDbLine
 10
9.3778941857
 20
2.859835832
 30
0.0
 11
18.0028481139
 21
2.8586907914
 31
0.0
  0
LINE
  5
2AD
330
1F
100
AcDbEntity
  8
0
  6
Continuous
 62
     7
370
    25
100
AcDbLine
 10
9.3778941857
 20
2.859835832
 30
0.0
 11
9.3793358191
 21
2.8655912225
 31
0.0
  0
LINE
  5
2AE
330
1F
100
AcDbEntity
  8
0
  6
Continuous
 62
     7
370
    25
100
AcDbLine
 10
9.3793358191
 20
2.8655912225
 30
0.0
 11
18.0042897473
 21
2.864446182
 31
0.0
  0
SPLINE
  5
2AF
330
1F
100
AcDbEntity
  8
0
  6
Continuous
 62
     7
370
    25
100
AcDbSpline
210
0.0
220
0.0
230
1.0
 70
     8
 71
     3
 72
     8
 73
     4
 74
     0
 42
0.00000001
 43
0.00000001
 40
0.0
 40
0.0
 40
0.0
 40
0.0
 40
1.0
 40
1.0
 40
1.0
 40
1.0
 10
11.84521211399556
 20
1.257433031058885
 30
0.0
 10
11.848837786122
 20
1.280152780599975
 30
0.0
 10
11.85312950656364
 20
1.30201205983984
 30
0.0
 10
11.85794438612935
 20
1.323033685692978
 30
0.0
  0
LINE
  5
2B0
330
1F
100
AcDbEntity
  8
0
  6
Continuous
 62
     7
370
    25
100
AcDbLine
 10
9.3778941857
 20
1.2576503643
 30
0.0
 11
11.845212114
 21
1.2574330311
 31
0.0
  0
LINE
  5
2B1
330
1F
100
AcDbEntity
  8
0
  6
Continuous
 62
     7
370
    25
100
AcDbLine
 10
9.3778941857
 20
1.8332873735
 30
0.0
 11
9.3778941857
 21
1.2576503643
 31
0.0
  0
LINE
  5
2B2
330
1F
100
AcDbEntity
  8
0
  6
Continuous
 62
     7
370
    25
100
AcDbLine
 10
9.1278983423
 20
1.8333205627
 30
0.0
 11
9.3778941857
 21
1.8332873735
 31
0.0
  0
LINE
  5
2B3
330
1F
100
AcDbEntity
  8
0
  6
Continuous
 62
     7
370
    25
100
AcDbLine
 10
9.1278983423
 20
2.5831217826
 30
0.0
 11
9.1278983423
 21
1.8333205627
 31
0.0
  0
LINE
  5
2B4
330
1F
100
AcDbEntity
  8
0
  6
Continuous
 62
     7
370
    25
100
AcDbLine
 10
9.3778941857
 20
2.5830885934
 30
0.0
 11
9.1278983423
 21
2.5831217826
 31
0.0
  0
LINE
  5
2B5
330
1F
100
AcDbEntity
  8
0
  6
Continuous
 62
     7
370
    25
100
AcDbLine
 10
9.3778941857
 20
2.859835832
 30
0.0
 11
9.3778941857
 21
2.5830885934
 31
0.0
  0
LINE
  5
2B6
330
1F
100
AcDbEntity
  8
0
  6
Continuous
 62
     7
370
    25
100
AcDbLine
 10
18.0028481139
 20
2.1088895715
 30
0.0
 11
17.7528522587
 21
2.1089227607
 31
0.0
  0
LINE
  5
2B7
330
1F
100
AcDbEntity
  8
0
  6
Continuous
 62
     7
370
    25
100
AcDbLine
 10
17.7528522587
 20
1.2569126531
 30
0.0
 11
17.7528522587
 21
2.1089227607
 31
0.0
  0
LINE
  5
2B8
330
1F
100
AcDbEntity
  8
0
  6
Continuous
 62
     7
370
    25
100
AcDbLine
 10
17.7527493631
 20
1.2569126668
 30
0.0
 11
17.7528522587
 21
1.2569126531
 31
0.0
  0
LINE
  5
2B9
330
1F
100
AcDbEntity
  8
0
  6
Continuous
 62
     7
370
    25
100
AcDbLine
 10
13.8243216973
 20
1.2572587016
 30
0.0
 11
17.7527493631
 21
1.2569126668
 31
0.0
  0
SPLINE
  5
2BA
330
1F
100
AcDbEntity
  8
0
  6
Continuous
 62
     7
370
    25
100
AcDbSpline
210
0.0
220
0.0
230
1.0
 70
     8
 71
     3
 72
    38
 73
    34
 74
     0
 42
0.00000001
 43
0.00000001
 40
0.0
 40
0.0
 40
0.0
 40
0.0
 40
0.0625
 40
0.0625
 40
0.125
 40
0.125
 40
0.1874999999999999
 40
0.1874999999999999
 40
0.2499999999999999
 40
0.2499999999999999
 40
0.3124999999999999
 40
0.3124999999999999
 40
0.3749999999999999
 40
0.3749999999999999
 40
0.4374999999999999
 40
0.4374999999999999
 40
0.4999999999999999
 40
0.4999999999999999
 40
0.5624999999999999
 40
0.5624999999999999
 40
0.6249999999999999
 40
0.6249999999999999
 40
0.6874999999999999
 40
0.6874999999999999
 40
0.7499999999999998
 40
0.7499999999999998
 40
0.8124999999999998
 40
0.8124999999999998
 40
0.8749999999999998
 40
0.8749999999999998
 40
0.9374999999999998
 40
0.9374999999999998
 40
1.0
 40
1.0
 40
1.0
 40
1.0
 10
11.86053859542064
 20
1.333390470744546
 30
0.0
 10
11.86835985741661
 20
1.367537875915256
 30
0.0
 10
11.87838175832537
 20
1.403083568861286
 30
0.0
 10
11.90404600815281
 20
1.476545748165544
 30
0.0
 10
11.91969152027518
 20
1.514467167746752
 30
0.0
 10
11.95794865183524
 20
1.591832524319346
 30
0.0
 10
11.98056671980288
 20
1.631281165714198
 30
0.0
 10
12.03409928828378
 20
1.710272420629637
 30
0.0
 10
12.0650242916198
 20
1.749817389918009
 30
0.0
 10
12.13623357808744
 20
1.826877024697003
 30
0.0
 10
12.17653175349807
 20
1.864388432351149
 30
0.0
 10
12.2669119735335
 20
1.934560904406652
 30
0.0
 10
12.31700783939099
 20
1.967209760310167
 30
0.0
 10
12.42633715572426
 20
2.024361488740712
 30
0.0
 10
12.48557769750332
 20
2.048842459731317
 30
0.0
 10
12.61113709011468
 20
2.086400527772606
 30
0.0
 10
12.67744892785472
 20
2.09945103354211
 30
0.0
 10
12.81365090456666
 20
2.111681705632137
 30
0.0
 10
12.88351746504349
 20
2.110841496105937
 30
0.0
 10
13.02234578578389
 20
2.094366296508852
 30
0.0
 10
13.09127443630851
 20
2.078728195435316
 30
0.0
 10
13.22364795720493
 20
2.033665137607012
 30
0.0
 10
13.28706414519696
 20
2.004257054003818
 30
0.0
 10
13.40472107296381
 20
1.9343870682888
 30
0.0
 10
13.45894908615661
 20
1.893953676765183
 30
0.0
 10
13.55608352357184
 20
1.8057696726788
 30
0.0
 10
13.59899491013363
 20
1.758046193230874
 30
0.0
 10
13.67300850825772
 20
1.659137832921812
 30
0.0
 10
13.70412651683632
 20
1.607969822339967
 30
0.0
 10
13.7553815668117
 20
1.505459802205242
 30
0.0
 10
13.77553639789149
 20
1.454122971653914
 30
0.0
 10
13.80647248215263
 20
1.353664221632631
 30
0.0
 10
13.81726776335636
 20
1.304539301654724
 30
0.0
 10
13.82432169732408
 20
1.257258701569427
 30
0.0
  0
LINE
  5
2BB
330
1F
100
AcDbEntity
  8
0
  6
Continuous
 62
     7
370
    25
100
AcDbLine
 10
11.8605385954
 20
1.3333904707
 30
0.0
 11
11.8579443861
 21
1.3230336857
 31
0.0
  0
ARC
  5
2BC
330
1F
100
AcDbEntity
  8
0
  6
Continuous
 62
     7
370
    25
100
AcDbCircle
 10
11.1910672937
 20
1.7073616641
 30
0.0
 40
0.0999637778091751
100
AcDbArc
 50
269.9843735048
 51
45.7489040576
  0
LINE
  5
2BD
330
1F
100
AcDbEntity
  8
0
  6
Continuous
 62
     7
370
    25
100
AcDbLine
 10
10.7238134225
 20
2.3021682301
 30
0.0
 11
11.2608224338
 21
1.7789645782
 31
0.0
  0
ARC
  5
2BE
330
1F
100
AcDbEntity
  8
0
  6
Continuous
 62
     7
370
    25
100
AcDbCircle
 10
10.6540170397
 20
2.2305336211
 30
0.0
 40
0.1000152601296562
100
AcDbArc
 50
45.7446506338
 51
134.2452555907
  0
LINE
  5
2BF
330
1F
100
AcDbEntity
  8
0
  6
Continuous
 62
     7
370
    25
100
AcDbLine
 10
10.047271033
 20
1.7790714736
 30
0.0
 11
10.5842332779
 21
2.302180525
 31
0.0
  0
ARC
  5
2C0
330
1F
100
AcDbEntity
  8
0
  6
Continuous
 62
     7
370
    25
100
AcDbCircle
 10
10.1170496607
 20
1.7074709475
 30
0.0
 40
0.0999784587767224
100
AcDbArc
 50
134.2616923411
 51
270.0109534756
  0
LINE
  5
2C1
330
1F
100
AcDbEntity
  8
0
  6
Continuous
 62
     7
370
    25
100
AcDbLine
 10
10.117068774
 20
1.6074924905
 30
0.0
 11
11.1910400302
 21
1.60739789
 31
0.0
  0
ARC
  5
2C2
330
1F
100
AcDbEntity
  8
0
  6
Continuous
 62
     7
370
    25
100
AcDbCircle
 10
10.2648706234
 20
2.4098323873
 30
0.0
 40
0.0999784576116905
100
AcDbArc
 50
314.2616917238
 51
90.0083935944
  0
LINE
  5
2C3
330
1F
100
AcDbEntity
  8
0
  6
Continuous
 62
     7
370
    25
100
AcDbLine
 10
10.264855977
 20
2.5098108438
 30
0.0
 11
9.8278867037
 21
2.5098688554
 31
0.0
  0
ARC
  5
2C4
330
1F
100
AcDbEntity
  8
0
  6
Continuous
 62
     7
370
    25
100
AcDbCircle
 10
9.8278587396
 20
2.4098984856
 30
0.0
 40
0.099970373772642
100
AcDbArc
 50
89.9839730122
 51
179.9941830108
  0
LINE
  5
2C5
330
1F
100
AcDbEntity
  8
0
  6
Continuous
 62
     7
370
    25
100
AcDbLine
 10
9.7278883664
 20
2.4099086351
 30
0.0
 11
9.7278883664
 21
1.9841548056
 31
0.0
  0
ARC
  5
2C6
330
1F
100
AcDbEntity
  8
0
  6
Continuous
 62
     7
370
    25
100
AcDbCircle
 10
9.8278965455
 20
1.9841733872
 30
0.0
 40
0.1000081808671626
100
AcDbArc
 50
180.0106456108
 51
314.2489412232
  0
LINE
  5
2C7
330
1F
100
AcDbEntity
  8
0
  6
Continuous
 62
     7
370
    25
100
AcDbLine
 10
9.8976799762
 20
1.9125360434
 30
0.0
 11
10.3346492495
 21
2.3382318613
 31
0.0
  0
ARC
  5
2C8
330
1F
100
AcDbEntity
  8
0
  6
Continuous
 62
     7
370
    25
100
AcDbCircle
 10
11.5992277377
 20
1.868058141
 30
0.0
 40
0.1000084756157941
100
AcDbArc
 50
225.742279867
 51
328.4560798134
  0
SPLINE
  5
2C9
330
1F
100
AcDbEntity
  8
0
  6
Continuous
 62
     7
370
    25
100
AcDbSpline
210
0.0
220
0.0
230
1.0
 70
     8
 71
     3
 72
    18
 73
    14
 74
     0
 42
0.00000001
 43
0.00000001
 40
0.0725396387233008
 40
0.0725396387233008
 40
0.0725396387233008
 40
0.0725396387233008
 40
0.1032953611070578
 40
0.1032953611070578
 40
0.1345453611070586
 40
0.1345453611070586
 40
0.1657953611070594
 40
0.1657953611070594
 40
0.2282953611070612
 40
0.2282953611070612
 40
0.2595453611070627
 40
0.2595453611070627
 40
0.2807557223837665
 40
0.2807557223837665
 40
0.2807557223837665
 40
0.2807557223837665
 10
12.1601816678864
 20
2.278787798108243
 30
0.0
 10
12.13171447026822
 20
2.262361703160705
 30
0.0
 10
12.10382412426038
 20
2.244878618895045
 30
0.0
 10
12.04876409582548
 20
2.207489669578491
 30
0.0
 10
12.0215863395656
 20
2.187521639340439
 30
0.0
 10
11.96859144538193
 20
2.145411797916919
 30
0.0
 10
11.94305108511961
 20
2.123493571728875
 30
0.0
 10
11.86921971674966
 20
2.055222534217318
 30
0.0
 10
11.82370351975564
 20
2.006366805126918
 30
0.0
 10
11.76094706470466
 20
1.928106043566394
 30
0.0
 10
11.74095164241974
 20
1.901186207102258
 30
0.0
 10
11.70896849842414
 20
1.85456641642103
 30
0.0
 10
11.69645261224213
 20
1.835284114043164
 30
0.0
 10
11.68445890013516
 20
1.815738506555205
 30
0.0
  0
ARC
  5
2CA
330
1F
100
AcDbEntity
  8
0
  6
Continuous
 62
     7
370
    25
100
AcDbCircle
 10
12.1102307344
 20
2.3653652269
 30
0.0
 40
0.0999537239588397
100
AcDbArc
 50
299.9828391422
 51
359.998630298
  0
LINE
  5
2CB
330
1F
100
AcDbEntity
  8
0
  6
Continuous
 62
     7
370
    25
100
AcDbLine
 10
12.2101844584
 20
2.4095790879
 30
0.0
 11
12.2101844584
 21
2.3653628375
 31
0.0
  0
ARC
  5
2CC
330
1F
100
AcDbEntity
  8
0
  6
Continuous
 62
     7
370
    25
100
AcDbCircle
 10
12.110182992
 20
2.4095643921
 30
0.0
 40
0.1000014674859189
100
AcDbArc
 50
0.0084199293
 51
89.9982072038
  0
LINE
  5
2CD
330
1F
100
AcDbEntity
  8
0
  6
Continuous
 62
     7
370
    25
100
AcDbLine
 10
12.110186121
 20
2.5095658596
 30
0.0
 11
11.0432167956
 21
2.5097075094
 31
0.0
  0
ARC
  5
2CE
330
1F
100
AcDbEntity
  8
0
  6
Continuous
 62
     7
370
    25
100
AcDbCircle
 10
11.0431850649
 20
2.4097437358
 30
0.0
 40
0.0999637786453056
100
AcDbArc
 50
89.9818130328
 51
225.7489035564
  0
LINE
  5
2CF
330
1F
100
AcDbEntity
  8
0
  6
Continuous
 62
     7
370
    25
100
AcDbLine
 10
10.9734299236
 20
2.3381408217
 30
0.0
 11
11.5294331258
 21
1.7964312792
 31
0.0
  0
ARC
  5
2D0
330
1F
100
AcDbEntity
  8
0
  6
Continuous
 62
     7
370
    25
100
AcDbCircle
 10
17.3028877063
 20
1.7068299006
 30
0.0
 40
0.0999703722468821
100
AcDbArc
 50
269.9865331341
 51
359.994183509
  0
LINE
  5
2D1
330
1F
100
AcDbEntity
  8
0
  6
Continuous
 62
     7
370
    25
100
AcDbLine
 10
17.402858078
 20
1.7068197519
 30
0.0
 11
17.402858078
 21
2.1689656371
 31
0.0
  0
ARC
  5
2D2
330
1F
100
AcDbEntity
  8
0
  6
Continuous
 62
     7
370
    25
100
AcDbCircle
 10
17.3028496532
 20
2.1689468078
 30
0.0
 40
0.1000084266024587
100
AcDbArc
 50
0.0107874657
 51
129.2404445625
  0
LINE
  5
2D3
330
1F
100
AcDbEntity
  8
0
  6
Continuous
 62
     7
370
    25
100
AcDbLine
 10
16.6738299024
 20
1.7843070988
 30
0.0
 11
17.2395867056
 21
2.2464031494
 31
0.0
  0
ARC
  5
2D4
330
1F
100
AcDbEntity
  8
0
  6
Continuous
 62
     7
370
    25
100
AcDbCircle
 10
16.7370868164
 20
1.706886383
 30
0.0
 40
0.0999770194392824
100
AcDbArc
 50
129.2506817052
 51
270.0117996023
  0
LINE
  5
2D5
330
1F
100
AcDbEntity
  8
0
  6
Continuous
 62
     7
370
    25
100
AcDbLine
 10
16.7371074059
 20
1.6069093657
 30
0.0
 11
17.3028642091
 21
1.6068595311
 31
0.0
  0
ARC
  5
2D6
330
1F
100
AcDbEntity
  8
0
  6
Continuous
 62
     7
370
    25
100
AcDbCircle
 10
15.8602135341
 20
1.7069509224
 30
0.0
 40
0.0999643169187092
100
AcDbArc
 50
269.9846873446
 51
50.7545187592
  0
LINE
  5
2D7
330
1F
100
AcDbEntity
  8
0
  6
Continuous
 62
     7
370
    25
100
AcDbLine
 10
15.2576638293
 20
2.3283462636
 30
0.0
 11
15.9234553846
 21
1.7843675421
 31
0.0
  0
ARC
  5
2D8
330
1F
100
AcDbEntity
  8
0
  6
Continuous
 62
     7
370
    25
100
AcDbCircle
 10
15.1943805114
 20
2.2508957072
 30
0.0
 40
0.1000168336446257
100
AcDbArc
 50
50.748421129
 51
129.2414850954
  0
LINE
  5
2D9
330
1F
100
AcDbEntity
  8
0
  6
Continuous
 62
     7
370
    25
100
AcDbLine
 10
14.4653679062
 20
1.7844959774
 30
0.0
 11
15.131110839
 21
2.328357411
 31
0.0
  0
ARC
  5
2DA
330
1F
100
AcDbEntity
  8
0
  6
Continuous
 62
     7
370
    25
100
AcDbCircle
 10
14.5286317419
 20
1.7070809157
 30
0.0
 40
0.0999770207870575
100
AcDbArc
 50
129.2558036325
 51
270.0117987905
  0
LINE
  5
2DB
330
1F
100
AcDbEntity
  8
0
  6
Continuous
 62
     7
370
    25
100
AcDbLine
 10
14.52865233
 20
1.6071038971
 30
0.0
 11
15.860186818
 21
1.6069866091
 31
0.0
  0
ARC
  5
2DC
330
1F
100
AcDbEntity
  8
0
  6
Continuous
 62
     7
370
    25
100
AcDbCircle
 10
14.755991967
 20
2.4092375887
 30
0.0
 40
0.0999770196525869
100
AcDbArc
 50
309.2558029991
 51
90.0092388663
  0
LINE
  5
2DD
330
1F
100
AcDbEntity
  8
0
  6
Continuous
 62
     7
370
    25
100
AcDbLine
 10
14.7559758459
 20
2.5092146071
 30
0.0
 11
13.5601620125
 21
2.5093733622
 31
0.0
  0
ARC
  5
2DE
330
1F
100
AcDbEntity
  8
0
  6
Continuous
 62
     7
370
    25
100
AcDbCircle
 10
13.5601340484
 20
2.4094029923
 30
0.0
 40
0.0999703737726438
100
AcDbArc
 50
89.9839730122
 51
179.9941830108
  0
LINE
  5
2DF
330
1F
100
AcDbEntity
  8
0
  6
Continuous
 62
     7
370
    25
100
AcDbLine
 10
13.4601636751
 20
2.3651998187
 30
0.0
 11
13.4601636751
 21
2.4094131419
 31
0.0
  0
ARC
  5
2E0
330
1F
100
AcDbEntity
  8
0
  6
Continuous
 62
     7
370
    25
100
AcDbCircle
 10
13.5601483531
 20
2.3652068071
 30
0.0
 40
0.0999846782231609
100
AcDbArc
 50
180.0040046508
 51
240.0095800979
  0
SPLINE
  5
2E1
330
1F
100
AcDbEntity
  8
0
  6
Continuous
 62
     7
370
    25
100
AcDbSpline
210
0.0
220
0.0
230
1.0
 70
     8
 71
     3
 72
    18
 73
    14
 74
     0
 42
0.00000001
 43
0.00000001
 40
0.7197781338392263
 40
0.7197781338392263
 40
0.7197781338392263
 40
0.7197781338392263
 40
0.7456107990055386
 40
0.7456107990055386
 40
0.7768607990055367
 40
0.7768607990055367
 40
0.8393607990055314
 40
0.8393607990055314
 40
0.8706107990055295
 40
0.8706107990055295
 40
0.9018607990055276
 40
0.9018607990055276
 40
0.9320826651663184
 40
0.9320826651663184
 40
0.9320826651663184
 40
0.9320826651663184
 10
13.99273472753162
 20
1.804317196789346
 30
0.0
 10
13.97834243778248
 20
1.828283796401447
 30
0.0
 10
13.96319867783606
 20
1.851812949951597
 30
0.0
 10
13.92838296665178
 20
1.902401440041909
 30
0.0
 10
13.90837409330663
 20
1.929262677144435
 30
0.0
 10
13.84555191845207
 20
2.007390907272536
 30
0.0
 10
13.79995838468968
 20
2.056215877725303
 30
0.0
 10
13.72592395076012
 20
2.124495797618191
 30
0.0
 10
13.70022279343392
 20
2.146487537125228
 30
0.0
 10
13.64722824823312
 20
2.188477134777776
 30
0.0
 10
13.62010145739579
 20
2.208353368400876
 30
0.0
 10
13.56553518755892
 20
2.245310489546118
 30
0.0
 10
13.53813765933278
 20
2.262465917681428
 30
0.0
 10
13.51017049246398
 20
2.278609178215075
 30
0.0
  0
ARC
  5
2E2
330
1F
100
AcDbEntity
  8
0
  6
Continuous
 62
     7
370
    25
100
AcDbCircle
 10
14.0784772281
 20
1.855811094
 30
0.0
 40
0.1000169878261891
100
AcDbArc
 50
210.9875302746
 51
309.2414265798
  0
LINE
  5
2E3
330
1F
100
AcDbEntity
  8
0
  6
Continuous
 62
     7
370
    25
100
AcDbLine
 10
14.141746919
 20
1.7783492062
 30
0.0
 11
14.8192558011
 21
2.3318225272
 31
0.0
  0
ARC
  5
2E4
330
1F
100
AcDbEntity
  8
0
  6
Continuous
 62
     7
370
    25
100
AcDbCircle
 10
16.2986289488
 20
1.8651992604
 30
0.0
 40
0.1000168358927811
100
AcDbArc
 50
230.74842175
 51
309.2363651858
  0
LINE
  5
2E5
330
1F
100
AcDbEntity
  8
0
  6
Continuous
 62
     7
370
    25
100
AcDbLine
 10
16.3618917005
 20
1.7877319014
 30
0.0
 11
17.0276708205
 21
2.3315236865
 31
0.0
  0
ARC
  5
2E6
330
1F
100
AcDbEntity
  8
0
  6
Continuous
 62
     7
370
    25
100
AcDbCircle
 10
16.964413908
 20
2.4089444021
 30
0.0
 40
0.0999770183048455
100
AcDbArc
 50
309.2506810718
 51
90.009239678
  0
LINE
  5
2E7
330
1F
100
AcDbEntity
  8
0
  6
Continuous
 62
     7
370
    25
100
AcDbLine
 10
16.9643977855
 20
2.5089214191
 30
0.0
 11
15.6328395454
 21
2.5090981955
 31
0.0
  0
ARC
  5
2E8
330
1F
100
AcDbEntity
  8
0
  6
Continuous
 62
     7
370
    25
100
AcDbCircle
 10
15.6328083619
 20
2.4091338827
 30
0.0
 40
0.0999643176668264
100
AcDbArc
 50
89.9821268341
 51
230.7545182816
  0
LINE
  5
2E9
330
1F
100
AcDbEntity
  8
0
  6
Continuous
 62
     7
370
    25
100
AcDbLine
 10
15.5695665103
 20
2.331717263
 30
0.0
 11
16.2353456303
 21
1.7877487016
 31
0.0
  0
LINE
  5
2EA
330
1F
100
AcDbEntity
  8
0
  6
Continuous
 62
     7
370
    25
100
AcDbLine
 10
17.0276708205
 20
2.3315236865
 30
0.0
 11
17.029112454
 21
2.3372790771
 31
0.0
  0
ARC
  5
2EB
330
1F
100
AcDbEntity
  8
0
  6
Continuous
 62
     7
370
    25
100
AcDbCircle
 10
16.9658858643
 20
2.4146928018
 30
0.0
 40
0.0999524208128403
100
AcDbArc
 50
309.2397562656
 51
344.236238303
  0
LINE
  5
2EC
330
1F
100
AcDbEntity
  8
0
  6
Continuous
 62
     7
370
    25
100
AcDbLine
 10
16.3633333339
 20
1.793487292
 30
0.0
 11
16.3618917005
 21
1.7877319014
 31
0.0
  0
LINE
  5
2ED
330
1F
100
AcDbEntity
  8
0
  6
Continuous
 62
     7
370
    25
100
AcDbLine
 10
17.029112454
 20
2.3372790771
 30
0.0
 11
16.3633333339
 21
1.793487292
 31
0.0
  0
LINE
  5
2EE
330
1F
100
AcDbEntity
  8
0
  6
Continuous
 62
     7
370
    25
100
AcDbLine
 10
17.7528522587
 20
1.2569126531
 30
0.0
 11
17.7542938921
 21
1.2626680437
 31
0.0
  0
LINE
  5
2EF
330
1F
100
AcDbEntity
  8
0
  6
Continuous
 62
     7
370
    25
100
AcDbLine
 10
17.7542938921
 20
1.2626680437
 30
0.0
 11
17.7542938921
 21
2.1089225693
 31
0.0
  0
LINE
  5
2F0
330
1F
100
AcDbEntity
  8
0
  6
Continuous
 62
     7
370
    25
100
AcDbLine
 10
15.5710081437
 20
2.3374726536
 30
0.0
 11
15.5695665103
 21
2.331717263
 31
0.0
  0
ARC
  5
2F1
330
1F
100
AcDbEntity
  8
0
  6
Continuous
 62
     7
370
    25
100
AcDbCircle
 10
15.6342530271
 20
2.4148935976
 30
0.0
 40
0.09996958467223
100
AcDbArc
 50
167.6417510754
 51
230.7547405701
  0
LINE
  5
2F2
330
1F
100
AcDbEntity
  8
0
  6
Continuous
 62
     7
370
    25
100
AcDbLine
 10
16.2367872638
 20
1.7935040921
 30
0.0
 11
15.5710081437
 21
2.3374726536
 31
0.0
  0
LINE
  5
2F3
330
1F
100
AcDbEntity
  8
0
  6
Continuous
 62
     7
370
    25
100
AcDbLine
 10
16.2353456303
 20
1.7877487016
 30
0.0
 11
16.2367872638
 21
1.7935040921
 31
0.0
  0
LINE
  5
2F4
330
1F
100
AcDbEntity
  8
0
  6
Continuous
 62
     7
370
    25
100
AcDbLine
 10
14.8192558011
 20
2.3318225272
 30
0.0
 11
14.8206974346
 21
2.3375779177
 31
0.0
  0
ARC
  5
2F5
330
1F
100
AcDbEntity
  8
0
  6
Continuous
 62
     7
370
    25
100
AcDbCircle
 10
14.7574639273
 20
2.4149859885
 30
0.0
 40
0.0999524179994153
100
AcDbArc
 50
309.244877657
 51
344.2362389765
  0
LINE
  5
2F6
330
1F
100
AcDbEntity
  8
0
  6
Continuous
 62
     7
370
    25
100
AcDbLine
 10
17.3028642091
 20
1.6068595311
 30
0.0
 11
17.3043058425
 21
1.6126149217
 31
0.0
  0
ARC
  5
2F7
330
1F
100
AcDbEntity
  8
0
  6
Continuous
 62
     7
370
    25
100
AcDbCircle
 10
17.3043273479
 20
1.7125904498
 30
0.0
 40
0.0999755304225397
100
AcDbArc
 50
269.9876753493
 51
344.2325079028
  0
LINE
  5
2F8
330
1F
100
AcDbEntity
  8
0
  6
Continuous
 62
     7
370
    25
100
AcDbLine
 10
14.1431885524
 20
1.7841045967
 30
0.0
 11
14.141746919
 21
1.7783492062
 31
0.0
  0
LINE
  5
2F9
330
1F
100
AcDbEntity
  8
0
  6
Continuous
 62
     7
370
    25
100
AcDbLine
 10
14.8206974346
 20
2.3375779177
 30
0.0
 11
14.1431885524
 21
1.7841045967
 31
0.0
  0
LINE
  5
2FA
330
1F
100
AcDbEntity
  8
0
  6
Continuous
 62
     7
370
    25
100
AcDbLine
 10
16.7385490393
 20
1.6126647563
 30
0.0
 11
16.7371074059
 21
1.6069093657
 31
0.0
  0
ARC
  5
2FB
330
1F
100
AcDbEntity
  8
0
  6
Continuous
 62
     7
370
    25
100
AcDbCircle
 10
16.7385444439
 20
1.7126599618
 30
0.0
 40
0.0999952056506799
100
AcDbArc
 50
167.6497787999
 51
270.0026331103
  0
LINE
  5
2FC
330
1F
100
AcDbEntity
  8
0
  6
Continuous
 62
     7
370
    25
100
AcDbLine
 10
16.7385490393
 20
1.6126647563
 30
0.0
 11
17.3043058425
 21
1.6126149217
 31
0.0
  0
LINE
  5
2FD
330
1F
100
AcDbEntity
  8
0
  6
Continuous
 62
     7
370
    25
100
AcDbLine
 10
13.4616053086
 20
2.4151685324
 30
0.0
 11
13.4601636751
 21
2.4094131419
 31
0.0
  0
LWPOLYLINE
  5
2FE
330
1F
100
AcDbEntity
  8
0
  6
Continuous
 62
     7
370
    25
100
AcDbPolyline
 90
        3
 70
   128
 43
0.0
 10
13.4639223553
 20
2.4365646125
 10
13.4635267486
 20
2.4346721389
 10
13.4616053086
 20
2.4151685324
  0
ARC
  5
2FF
330
1F
100
AcDbEntity
  8
0
  6
Continuous
 62
     7
370
    25
100
AcDbCircle
 10
16.3000705822
 20
1.870954651
 30
0.0
 40
0.1000168358927767
100
AcDbArc
 50
230.74842175
 51
309.2363651858
  0
LINE
  5
300
330
1F
100
AcDbEntity
  8
0
  6
Continuous
 62
     7
370
    25
100
AcDbLine
 10
13.9927347276
 20
1.8043171968
 30
0.0
 11
13.994176361
 21
1.8100725873
 31
0.0
  0
LINE
  5
301
330
1F
100
AcDbEntity
  8
0
  6
Continuous
 62
     7
370
    25
100
AcDbLine
 10
13.5116121262
 20
2.2843645686
 30
0.0
 11
13.5101704928
 21
2.278609178
 31
0.0
  0
SPLINE
  5
302
330
1F
100
AcDbEntity
  8
0
  6
Continuous
 62
     7
370
    25
100
AcDbSpline
210
0.0
220
0.0
230
1.0
 70
     8
 71
     3
 72
    18
 73
    14
 74
     0
 42
0.00000001
 43
0.00000001
 40
0.7197781339553238
 40
0.7197781339553238
 40
0.7197781339553238
 40
0.7197781339553238
 40
0.7500000000000171
 40
0.7500000000000171
 40
0.7812500000000152
 40
0.7812500000000152
 40
0.8125000000000133
 40
0.8125000000000133
 40
0.875000000000008
 40
0.875000000000008
 40
0.9062500000000061
 40
0.9062500000000061
 40
0.9320826651785938
 40
0.9320826651785938
 40
0.9320826651785938
 40
0.9320826651785938
 10
13.5116121262241
 20
2.284364568578582
 30
0.0
 10
13.5395792929811
 20
2.268221308099173
 30
0.0
 10
13.56697682109979
 20
2.25106588002587
 30
0.0
 10
13.6215430908336
 20
2.214108758950427
 30
0.0
 10
13.64866988167093
 20
2.194232525327326
 30
0.0
 10
13.70166442687173
 20
2.152242927674779
 30
0.0
 10
13.72736558419793
 20
2.130251188167742
 30
0.0
 10
13.80140001812749
 20
2.061971268274854
 30
0.0
 10
13.84699355188988
 20
2.013146297822086
 30
0.0
 10
13.90981572674444
 20
1.935018067693986
 30
0.0
 10
13.92982460008959
 20
1.90815683059146
 30
0.0
 10
13.96464031128136
 20
1.857568340490268
 30
0.0
 10
13.97978407123468
 20
1.834039186928635
 30
0.0
 10
13.99417636098995
 20
1.81007258730473
 30
0.0
  0
LINE
  5
303
330
1F
100
AcDbEntity
  8
0
  6
Continuous
 62
     7
370
    25
100
AcDbLine
 10
13.4601636751
 20
2.3651998187
 30
0.0
 11
13.4616053086
 21
2.3709552093
 31
0.0
  0
LINE
  5
304
330
1F
100
AcDbEntity
  8
0
  6
Continuous
 62
     7
370
    25
100
AcDbLine
 10
13.4616053086
 20
2.3709552093
 30
0.0
 11
13.4616053086
 21
2.4151685324
 31
0.0
  0
LINE
  5
305
330
1F
100
AcDbEntity
  8
0
  6
Continuous
 62
     7
370
    25
100
AcDbLine
 10
15.860186818
 20
1.6069866091
 30
0.0
 11
15.8616284514
 21
1.6127419996
 31
0.0
  0
ARC
  5
306
330
1F
100
AcDbEntity
  8
0
  6
Continuous
 62
     7
370
    25
100
AcDbCircle
 10
15.8616490859
 20
1.7127186788
 30
0.0
 40
0.0999766813008072
100
AcDbArc
 50
269.9881745735
 51
344.2320073676
  0
ARC
  5
307
330
1F
100
AcDbEntity
  8
0
  6
Continuous
 62
     7
370
    25
100
AcDbCircle
 10
13.5615899865
 20
2.3709621976
 30
0.0
 40
0.0999846782231934
100
AcDbArc
 50
180.0040046508
 51
240.0095800979
  0
LINE
  5
308
330
1F
100
AcDbEntity
  8
0
  6
Continuous
 62
     7
370
    25
100
AcDbLine
 10
14.5300939634
 20
1.6128592876
 30
0.0
 11
14.52865233
 21
1.6071038971
 31
0.0
  0
LINE
  5
309
330
1F
100
AcDbEntity
  8
0
  6
Continuous
 62
     7
370
    25
100
AcDbLine
 10
14.5300939634
 20
1.6128592876
 30
0.0
 11
15.8616284514
 21
1.6127419996
 31
0.0
  0
LINE
  5
30A
330
1F
100
AcDbEntity
  8
0
  6
Continuous
 62
     7
370
    25
100
AcDbLine
 10
12.1601816676
 20
2.2787877979
 30
0.0
 11
12.161623301
 21
2.2845431885
 31
0.0
  0
ARC
  5
30B
330
1F
100
AcDbEntity
  8
0
  6
Continuous
 62
     7
370
    25
100
AcDbCircle
 10
12.111668207
 20
2.3711244581
 30
0.0
 40
0.0999591299947796
100
AcDbArc
 50
299.9838048195
 51
344.2352606089
  0
ARC
  5
30C
330
1F
100
AcDbEntity
  8
0
  6
Continuous
 62
     7
370
    25
100
AcDbCircle
 10
14.5300893686
 20
1.7128544936
 30
0.0
 40
0.0999952061384636
100
AcDbArc
 50
167.6497787753
 51
270.0026327629
  0
LINE
  5
30D
330
1F
100
AcDbEntity
  8
0
  6
Continuous
 62
     7
370
    25
100
AcDbLine
 10
11.6859005336
 20
1.8214938971
 30
0.0
 11
11.6844589001
 21
1.8157385066
 31
0.0
  0
SPLINE
  5
30E
330
1F
100
AcDbEntity
  8
0
  6
Continuous
 62
     7
370
    25
100
AcDbSpline
210
0.0
220
0.0
230
1.0
 70
     8
 71
     3
 72
    18
 73
    14
 74
     0
 42
0.00000001
 43
0.00000001
 40
0.0725396387233162
 40
0.0725396387233162
 40
0.0725396387233162
 40
0.0725396387233162
 40
0.0937500000000046
 40
0.0937500000000046
 40
0.1250000000000061
 40
0.1250000000000061
 40
0.1875000000000079
 40
0.1875000000000079
 40
0.2187500000000087
 40
0.2187500000000087
 40
0.2500000000000095
 40
0.2500000000000095
 40
0.2807557222633588
 40
0.2807557222633588
 40
0.2807557222633588
 40
0.2807557222633588
 10
11.685900533573
 20
1.821493897104798
 30
0.0
 10
11.69789424567996
 20
1.841039504592743
 30
0.0
 10
11.71041013186197
 20
1.860321806970594
 30
0.0
 10
11.74239327585755
 20
1.906941597651809
 30
0.0
 10
11.76238869814247
 20
1.933861434115945
 30
0.0
 10
11.82514515319345
 20
2.012122195676469
 30
0.0
 10
11.87066135018748
 20
2.060977924766868
 30
0.0
 10
11.94449271855743
 20
2.129248962278425
 30
0.0
 10
11.97003307881975
 20
2.151167188466469
 30
0.0
 10
12.02302797300342
 20
2.193277029889989
 30
0.0
 10
12.0502057292633
 20
2.213245060128041
 30
0.0
 10
12.10526575759128
 20
2.250634009371991
 30
0.0
 10
12.13315610348765
 20
2.268117093573363
 30
0.0
 10
12.16162330098987
 20
2.28454318846487
 30
0.0
  0
ARC
  5
30F
330
1F
100
AcDbEntity
  8
0
  6
Continuous
 62
     7
370
    25
100
AcDbCircle
 10
14.0799188615
 20
1.8615664846
 30
0.0
 40
0.1000169878262216
100
AcDbArc
 50
210.9875302746
 51
309.2414265798
  0
LINE
  5
310
330
1F
100
AcDbEntity
  8
0
  6
Continuous
 62
     7
370
    25
100
AcDbLine
 10
10.974871557
 20
2.3438962123
 30
0.0
 11
10.9734299236
 21
2.3381408217
 31
0.0
  0
ARC
  5
311
330
1F
100
AcDbEntity
  8
0
  6
Continuous
 62
     7
370
    25
100
AcDbCircle
 10
11.0446279406
 20
2.4155028526
 30
0.0
 40
0.0999673146558279
100
AcDbArc
 50
167.6414308379
 51
225.7498838365
  0
LINE
  5
312
330
1F
100
AcDbEntity
  8
0
  6
Continuous
 62
     7
370
    25
100
AcDbLine
 10
11.5308747592
 20
1.8021866697
 30
0.0
 11
10.974871557
 21
2.3438962123
 31
0.0
  0
LINE
  5
313
330
1F
100
AcDbEntity
  8
0
  6
Continuous
 62
     7
370
    25
100
AcDbLine
 10
11.5294331258
 20
1.7964312792
 30
0.0
 11
11.5308747592
 21
1.8021866697
 31
0.0
  0
LINE
  5
314
330
1F
100
AcDbEntity
  8
0
  6
Continuous
 62
     7
370
    25
100
AcDbLine
 10
10.3346492495
 20
2.3382318613
 30
0.0
 11
10.3360908829
 21
2.3439872518
 31
0.0
  0
LWPOLYLINE
  5
315
330
1F
100
AcDbEntity
  8
0
  6
Continuous
 62
     7
370
    25
100
AcDbPolyline
 90
        3
 70
   128
 43
0.0
 10
10.3360908829
 20
2.3439872518
 10
10.3523208333
 20
2.3646069995
 10
10.3625372673
 20
2.3884279914
  0
LINE
  5
316
330
1F
100
AcDbEntity
  8
0
  6
Continuous
 62
     7
370
    25
100
AcDbLine
 10
9.7293299998
 20
2.4156640257
 30
0.0
 11
9.7278883664
 21
2.4099086351
 31
0.0
  0
LWPOLYLINE
  5
317
330
1F
100
AcDbEntity
  8
0
  6
Continuous
 62
     7
370
    25
100
AcDbPolyline
 90
        3
 70
   128
 43
0.0
 10
9.7316470466
 20
2.4370601058
 10
9.7312514398
 20
2.4351676321
 10
9.7293299998
 20
2.4156640257
  0
LINE
  5
318
330
1F
100
AcDbEntity
  8
0
  6
Continuous
 62
     7
370
    25
100
AcDbLine
 10
9.1278983423
 20
2.5831217826
 30
0.0
 11
9.1293399757
 21
2.5888771732
 31
0.0
  0
LINE
  5
319
330
1F
100
AcDbEntity
  8
0
  6
Continuous
 62
     7
370
    25
100
AcDbLine
 10
9.3778941857
 20
2.5888441753
 30
0.0
 11
9.1293399757
 21
2.5888771732
 31
0.0
  0
LINE
  5
31A
330
1F
100
AcDbEntity
  8
0
  6
Continuous
 62
     7
370
    25
100
AcDbLine
 10
9.8991216097
 20
1.9182914339
 30
0.0
 11
9.8976799762
 21
1.9125360434
 31
0.0
  0
LINE
  5
31B
330
1F
100
AcDbEntity
  8
0
  6
Continuous
 62
     7
370
    25
100
AcDbLine
 10
10.3360908829
 20
2.3439872518
 30
0.0
 11
9.8991216097
 21
1.9182914339
 31
0.0
  0
LINE
  5
31C
330
1F
100
AcDbEntity
  8
0
  6
Continuous
 62
     7
370
    25
100
AcDbLine
 10
9.7278883664
 20
1.9841548056
 30
0.0
 11
9.7293299998
 21
1.9899101962
 31
0.0
  0
LINE
  5
31D
330
1F
100
AcDbEntity
  8
0
  6
Continuous
 62
     7
370
    25
100
AcDbLine
 10
9.7293299998
 20
2.4156640257
 30
0.0
 11
9.7293299998
 21
1.9899101962
 31
0.0
  0
ARC
  5
31E
330
1F
100
AcDbEntity
  8
0
  6
Continuous
 62
     7
370
    25
100
AcDbCircle
 10
11.6006693712
 20
1.8738135315
 30
0.0
 40
0.1000084756157561
100
AcDbArc
 50
225.742279867
 51
328.4560798135
  0
LINE
  5
31F
330
1F
100
AcDbEntity
  8
0
  6
Continuous
 62
     7
370
    25
100
AcDbLine
 10
11.1910400302
 20
1.60739789
 30
0.0
 11
11.1924816637
 21
1.6131532805
 31
0.0
  0
ARC
  5
320
330
1F
100
AcDbEntity
  8
0
  6
Continuous
 62
     7
370
    25
100
AcDbCircle
 10
11.1925019139
 20
1.7131304675
 30
0.0
 40
0.09997718904571
100
AcDbArc
 50
269.9883948169
 51
344.2317887633
  0
ARC
  5
321
330
1F
100
AcDbEntity
  8
0
  6
Continuous
 62
     7
370
    25
100
AcDbCircle
 10
9.8293384658
 20
1.9899294578
 30
0.0
 40
0.1000084678168812
100
AcDbArc
 50
180.011035151
 51
314.248551683
  0
LINE
  5
322
330
1F
100
AcDbEntity
  8
0
  6
Continuous
 62
     7
370
    25
100
AcDbLine
 10
10.1185104074
 20
1.6132478811
 30
0.0
 11
10.117068774
 21
1.6074924905
 31
0.0
  0
LINE
  5
323
330
1F
100
AcDbEntity
  8
0
  6
Continuous
 62
     7
370
    25
100
AcDbLine
 10
10.1185104074
 20
1.6132478811
 30
0.0
 11
11.1924816637
 21
1.6131532805
 31
0.0
  0
ARC
  5
324
330
1F
100
AcDbEntity
  8
0
  6
Continuous
 62
     7
370
    25
100
AcDbCircle
 10
10.1185064054
 20
1.7132435642
 30
0.0
 40
0.0999956831664983
100
AcDbArc
 50
167.6501182322
 51
270.002293098
  0
MTEXT
  5
325
330
1F
100
AcDbEntity
  8
PART_NAMES
100
AcDbMText
 10
12.4210940147
 20
2.6129405122
 30
0.0
 40
0.1666666667
 41
0.0
 71
     1
 72
     1
  1
NGHt2
  7
SLDTEXTSTYLE0
 73
     1
 44
1.0
  0
SPLINE
  5
326
330
1F
100
AcDbEntity
  8
0
  6
Continuous
 62
     7
370
    25
100
AcDbSpline
210
0.0
220
0.0
230
1.0
 70
     8
 71
     3
 72
    18
 73
    14
 74
     0
 42
0.00000001
 43
0.00000001
 40
0.0945643771965674
 40
0.0945643771965674
 40
0.0945643771965674
 40
0.0945643771965674
 40
0.125
 40
0.25
 40
0.375
 40
0.5
 40
0.625
 40
0.75
 40
0.8125
 40
0.875
 40
0.9375
 40
0.96875
 40
1.0
 40
1.0
 40
1.0
 40
1.0
 10
18.05376544790969
 20
7.533116925757314
 30
0.0
 10
18.07727611751355
 20
7.494420925067278
 30
0.0
 10
18.19769285690144
 20
7.296844627993919
 30
0.0
 10
18.41841820933938
 20
6.940097906533749
 30
0.0
 10
18.71675934736046
 20
6.467535602278777
 30
0.0
 10
19.01578545408223
 20
6.001568067889933
 30
0.0
 10
19.31250256576034
 20
5.545145675415291
 30
0.0
 10
19.55544960445427
 20
5.175040894953749
 30
0.0
 10
19.74574397269808
 20
4.886543261140096
 30
0.0
 10
19.88609050680003
 20
4.67428420836743
 30
0.0
 10
20.00068086921144
 20
4.50125052274965
 30
0.0
 10
20.09092928597477
 20
4.365042565228494
 30
0.0
 10
20.1352420442995
 20
4.298170350896318
 30
0.0
 10
20.15749921783839
 20
4.264579851171752
 30
0.0
  0
ARC
  5
327
330
1F
100
AcDbEntity
  8
0
  6
Continuous
 62
     7
370
    25
100
AcDbCircle
 10
18.0964966557
 20
7.5590792808
 30
0.0
 40
0.0500000000000009
100
AcDbArc
 50
100.8601397907
 51
211.2817620485
  0
LINE
  5
328
330
1F
100
AcDbEntity
  8
0
  6
Continuous
 62
     7
370
    25
100
AcDbLine
 10
18.5064923058
 20
7.6886480597
 30
0.0
 11
18.0870760429
 21
7.6081837822
 31
0.0
  0
ARC
  5
329
330
1F
100
AcDbEntity
  8
0
  6
Continuous
 62
     7
370
    25
100
AcDbCircle
 10
18.5159129186
 20
7.6395435583
 30
0.0
 40
0.0500000000000017
100
AcDbArc
 50
31.4519151442
 51
100.8601397907
  0
SPLINE
  5
32A
330
1F
100
AcDbEntity
  8
0
  6
Continuous
 62
     7
370
    25
100
AcDbSpline
210
0.0
220
0.0
230
1.0
 70
     8
 71
     3
 72
     8
 73
     4
 74
     0
 42
0.00000001
 43
0.00000001
 40
0.1282213291001761
 40
0.1282213291001761
 40
0.1282213291001761
 40
0.1282213291001761
 40
1.0
 40
1.0
 40
1.0
 40
1.0
 10
18.55856683686503
 20
7.665632698943573
 30
0.0
 10
19.23061349927166
 20
6.566883458678646
 30
0.0
 10
19.95722480608825
 20
5.472052102913587
 30
0.0
 10
20.5743044029976
 20
4.540756312196934
 30
0.0
  0
ARC
  5
32B
330
1F
100
AcDbEntity
  8
0
  6
Continuous
 62
     7
370
    25
100
AcDbCircle
 10
21.654940354
 20
2.8705624796
 30
0.0
 40
0.0499999999999981
100
AcDbArc
 50
280.8601397907
 51
35.8350969266
  0
LINE
  5
32C
330
1F
100
AcDbEntity
  8
0
  6
Continuous
 62
     7
370
    25
100
AcDbLine
 10
21.6643609668
 20
2.8214579782
 30
0.0
 11
21.2317437552
 21
2.7384611217
 31
0.0
  0
ARC
  5
32D
330
1F
100
AcDbEntity
  8
0
  6
Continuous
 62
     7
370
    25
100
AcDbCircle
 10
21.2223231424
 20
2.7875656231
 30
0.0
 40
0.0500000000000024
100
AcDbArc
 50
215.4233186169
 51
280.8601397907
  0
SPLINE
  5
32E
330
1F
100
AcDbEntity
  8
0
  6
Continuous
 62
     7
370
    25
100
AcDbSpline
210
0.0
220
0.0
230
1.0
 70
     8
 71
     3
 72
    12
 73
     8
 74
     0
 42
0.00000001
 43
0.00000001
 40
14.81781036438427
 40
14.81781036438427
 40
14.81781036438427
 40
14.81781036438427
 40
16.03427913768637
 40
17.25074791098846
 40
18.46721668429056
 40
19.0754510709416
 40
19.12016043378796
 40
19.12016043378796
 40
19.12016043378796
 40
19.12016043378796
 10
20.15749921783839
 20
4.264579851171751
 30
0.0
 10
20.25105672766951
 20
4.123382969064407
 30
0.0
 10
20.4380431548057
 20
3.84210878618989
 30
0.0
 10
20.72417466451661
 20
3.416720486967508
 30
0.0
 10
20.96872203952571
 20
3.060414549883843
 30
0.0
 10
21.12313732667466
 20
2.840805974902715
 30
0.0
 10
21.17783014011725
 20
2.763854952528972
 30
0.0
 10
21.18157854392851
 20
2.75858497955882
 30
0.0
  0
SPLINE
  5
32F
330
1F
100
AcDbEntity
  8
0
  6
Continuous
 62
     7
370
    25
100
AcDbSpline
210
0.0
220
0.0
230
1.0
 70
     8
 71
     3
 72
    12
 73
     8
 74
     0
 42
0.00000001
 43
0.00000001
 40
0.0
 40
0.0
 40
0.0
 40
0.0
 40
0.5000000000000011
 40
0.5000000000000011
 40
0.7500000000000006
 40
0.7500000000000006
 40
1.0
 40
1.0
 40
1.0
 40
1.0
 10
20.5743044029976
 20
4.540756312196933
 30
0.0
 10
20.75505247313688
 20
4.267971540598653
 30
0.0
 10
20.93724368774269
 20
3.994537281837528
 30
0.0
 10
21.21598433611778
 20
3.583871159382864
 30
0.0
 10
21.30983268885344
 20
3.44691117072026
 30
0.0
 10
21.50029300894132
 20
3.173141959711494
 30
0.0
 10
21.5969040914366
 20
3.036331684243359
 30
0.0
 10
21.69547562949137
 20
2.899835187670404
 30
0.0
  0
MTEXT
  5
330
330
1F
100
AcDbEntity
  8
PART_NAMES
100
AcDbMText
 10
18.6510880318
 20
7.1873220651
 30
0.0
 40
0.1666666667
 41
0.0
 71
     1
 72
     1
  1
TFS3
  7
SLDTEXTSTYLE0
 11
0.529919264233203
 21
-0.8480480961564272
 31
0.0
 73
     1
 44
1.0
  0
MTEXT
  5
332
330
1F
100
AcDbEntity
  8
0
  6
Continuous
 62
     7
100
AcDbMText
 10
0.0
 20
0.5790104628
 30
0.0
 40
0.2076
 41
0.0
 71
     1
 72
     1
  1
SOLIDWORKS Educational Product.
  7
SLDTEXTSTYLE1
 73
     1
 44
1.0
  0
MTEXT
  5
333
330
1F
100
AcDbEntity
  8
0
  6
Continuous
 62
     7
100
AcDbMText
 10
0.0
 20
0.2676104628
 30
0.0
 40
0.2076
 41
0.0
 71
     1
 72
     1
  1
For Instructional Use Only.
  7
SLDTEXTSTYLE1
 73
     1
 44
1.0
  0
ENDSEC
  0
SECTION
  2
OBJECTS
  0
DICTIONARY
  5
C
330
0
100
AcDbDictionary
281
     1
  3
ACAD_GROUP
350
D
  3
ACAD_LAYOUT
350
1A
  3
ACAD_MLINESTYLE
350
17
  3
ACAD_PLOTSETTINGS
350
19
  3
ACAD_PLOTSTYLENAME
350
E
  3
ACAD_SCALELIST
350
47
  3
DWGPROPS
350
334
  0
DICTIONARY
  5
D
102
{ACAD_REACTORS
330
C
102
}
330
C
100
AcDbDictionary
281
     1
  0
DICTIONARY
  5
1A
102
{ACAD_REACTORS
330
C
102
}
330
C
100
AcDbDictionary
281
     1
  3
Layout1
350
1E
  3
Layout2
350
26
  3
Model
350
22
  0
DICTIONARY
  5
17
102
{ACAD_REACTORS
330
C
102
}
330
C
100
AcDbDictionary
281
     1
  3
Standard
350
18
  0
DICTIONARY
  5
19
102
{ACAD_REACTORS
330
C
102
}
330
C
100
AcDbDictionary
281
     1
  0
ACDBDICTIONARYWDFLT
  5
E
102
{ACAD_REACTORS
330
C
102
}
330
C
100
AcDbDictionary
281
     1
  3
Normal
350
F
100
AcDbDictionaryWithDefault
340
F
  0
DICTIONARY
  5
47
102
{ACAD_REACTORS
330
C
102
}
330
C
100
AcDbDictionary
281
     1
  3
A0
350
48
  3
A1
350
49
  3
A2
350
4A
  3
A3
350
4B
  3
A4
350
4C
  3
A5
350
4D
  3
A6
350
4E
  3
A7
350
4F
  3
A8
350
50
  3
A9
350
51
  3
B1
350
52
  3
B2
350
53
  3
B3
350
54
  3
B4
350
55
  3
B5
350
56
  3
B6
350
57
  3
B7
350
58
  0
XRECORD
  5
334
102
{ACAD_REACTORS
330
C
102
}
330
C
100
AcDbXrecord
280
     1
  1
DWGPROPS COOKIE
  2

  3

  4

  6

  7

  8
ucmai
  9

300
=
301
=
302
=
303
=
304
=
305
=
306
=
307
=
308
=
309
=
 40
0.0
 41
2460784.967996297
 42
2460784.967997014
  1

 90
        0
  0
LAYOUT
  5
1E
102
{ACAD_REACTORS
330
1A
102
}
330
1A
100
AcDbPlotSettings
  1

  2
none_device
  4

  6

 40
0.0
 41
0.0
 42
0.0
 43
0.0
 44
0.0
 45
0.0
 46
0.0
 47
0.0
 48
0.0
 49
0.0
140
0.0
141
0.0
142
1.0
143
1.0
 70
   688
 72
     0
 73
     0
 74
     5
  7

 75
    16
147
1.0
148
0.0
149
0.0
100
AcDbLayout
  1
Layout1
 70
     1
 71
     1
 10
0.0
 20
0.0
 11
12.0
 21
9.0
 12
0.0
 22
0.0
 32
0.0
 14
1.0000000000E+20
 24
1.0000000000E+20
 34
1.0000000000E+20
 15
-1.0000000000E+20
 25
-1.0000000000E+20
 35
-1.0000000000E+20
146
0.0
 13
0.0
 23
0.0
 33
0.0
 16
1.0
 26
0.0
 36
0.0
 17
0.0
 27
1.0
 37
0.0
 76
     0
330
1B
  0
LAYOUT
  5
26
102
{ACAD_REACTORS
330
1A
102
}
330
1A
100
AcDbPlotSettings
  1

  2
none_device
  4

  6

 40
0.0
 41
0.0
 42
0.0
 43
0.0
 44
0.0
 45
0.0
 46
0.0
 47
0.0
 48
0.0
 49
0.0
140
0.0
141
0.0
142
1.0
143
1.0
 70
   688
 72
     0
 73
     0
 74
     5
  7

 75
    16
147
1.0
148
0.0
149
0.0
100
AcDbLayout
  1
Layout2
 70
     1
 71
     2
 10
0.0
 20
0.0
 11
0.0
 21
0.0
 12
0.0
 22
0.0
 32
0.0
 14
0.0
 24
0.0
 34
0.0
 15
0.0
 25
0.0
 35
0.0
146
0.0
 13
0.0
 23
0.0
 33
0.0
 16
1.0
 26
0.0
 36
0.0
 17
0.0
 27
1.0
 37
0.0
 76
     0
330
23
  0
LAYOUT
  5
22
102
{ACAD_REACTORS
330
1A
102
}
330
1A
100
AcDbPlotSettings
  1

  2
none_device
  4
Letter_(8.50_x_11.00_Inches)
  6

 40
6.35
 41
6.35
 42
6.35000508
 43
6.35000508
 44
215.9
 45
279.4
 46
0.0
 47
0.0
 48
0.0
 49
0.0
140
0.0
141
0.0
142
1.0
143
1.0
 70
  1712
 72
     0
 73
     0
 74
     0
  7

 75
     0
147
1.0
148
0.0
149
0.0
100
AcDbLayout
  1
Model
 70
     1
 71
     0
 10
0.0
 20
0.0
 11
24.0
 21
12.0
 12
0.0
 22
0.0
 32
0.0
 14
0.0
 24
0.0
 34
0.0
 15
24.0
 25
12.0
 35
0.0
146
0.0
 13
0.0
 23
0.0
 33
0.0
 16
1.0
 26
0.0
 36
0.0
 17
0.0
 27
1.0
 37
0.0
 76
     0
330
1F
331
29
  0
MLINESTYLE
  5
18
102
{ACAD_REACTORS
330
17
102
}
330
17
100
AcDbMlineStyle
  2
Standard
 70
     0
  3

 62
   256
 51
90.0
 52
90.0
 71
     2
 49
0.5
 62
   256
  6
BYLAYER
 49
-0.5
 62
   256
  6
BYLAYER
  0
ACDBPLACEHOLDER
  5
F
102
{ACAD_REACTORS
330
E
102
}
330
E
  0
SCALE
  5
48
102
{ACAD_REACTORS
330
47
102
}
330
47
100
AcDbScale
 70
     0
300
1:1
140
1.0
141
1.0
290
     1
  0
SCALE
  5
49
102
{ACAD_REACTORS
330
47
102
}
330
47
100
AcDbScale
 70
     0
300
1/128" = 1'-0"
140
0.0078125
141
12.0
290
     0
  0
SCALE
  5
4A
102
{ACAD_REACTORS
330
47
102
}
330
47
100
AcDbScale
 70
     0
300
1/64" = 1'-0"
140
0.015625
141
12.0
290
     0
  0
SCALE
  5
4B
102
{ACAD_REACTORS
330
47
102
}
330
47
100
AcDbScale
 70
     0
300
1/32" = 1'-0"
140
0.03125
141
12.0
290
     0
  0
SCALE
  5
4C
102
{ACAD_REACTORS
330
47
102
}
330
47
100
AcDbScale
 70
     0
300
1/16" = 1'-0"
140
0.0625
141
12.0
290
     0
  0
SCALE
  5
4D
102
{ACAD_REACTORS
330
47
102
}
330
47
100
AcDbScale
 70
     0
300
3/32" = 1'-0"
140
0.09375
141
12.0
290
     0
  0
SCALE
  5
4E
102
{ACAD_REACTORS
330
47
102
}
330
47
100
AcDbScale
 70
     0
300
1/8" = 1'-0"
140
0.125
141
12.0
290
     0
  0
SCALE
  5
4F
102
{ACAD_REACTORS
330
47
102
}
330
47
100
AcDbScale
 70
     0
300
3/16" = 1'-0"
140
0.1875
141
12.0
290
     0
  0
SCALE
  5
50
102
{ACAD_REACTORS
330
47
102
}
330
47
100
AcDbScale
 70
     0
300
1/4" = 1'-0"
140
0.25
141
12.0
290
     0
  0
SCALE
  5
51
102
{ACAD_REACTORS
330
47
102
}
330
47
100
AcDbScale
 70
     0
300
3/8" = 1'-0"
140
0.375
141
12.0
290
     0
  0
SCALE
  5
52
102
{ACAD_REACTORS
330
47
102
}
330
47
100
AcDbScale
 70
     0
300
1/2" = 1'-0"
140
0.5
141
12.0
290
     0
  0
SCALE
  5
53
102
{ACAD_REACTORS
330
47
102
}
330
47
100
AcDbScale
 70
     0
300
3/4" = 1'-0"
140
0.75
141
12.0
290
     0
  0
SCALE
  5
54
102
{ACAD_REACTORS
330
47
102
}
330
47
100
AcDbScale
 70
     0
300
1" = 1'-0"
140
1.0
141
12.0
290
     0
  0
SCALE
  5
55
102
{ACAD_REACTORS
330
47
102
}
330
47
100
AcDbScale
 70
     0
300
1-1/2" = 1'-0"
140
1.5
141
12.0
290
     0
  0
SCALE
  5
56
102
{ACAD_REACTORS
330
47
102
}
330
47
100
AcDbScale
 70
     0
300
3" = 1'-0"
140
3.0
141
12.0
290
     0
  0
SCALE
  5
57
102
{ACAD_REACTORS
330
47
102
}
330
47
100
AcDbScale
 70
     0
300
6" = 1'-0"
140
6.0
141
12.0
290
     0
  0
SCALE
  5
58
102
{ACAD_REACTORS
330
47
102
}
330
47
100
AcDbScale
 70
     0
300
1'-0" = 1'-0"
140
12.0
141
12.0
290
     0
  0
ENDSEC
  0
EOF
