  0
SECTION
  2
HEADER
  9
$ACADVER
  1
AC1015
  9
$ACADMAINTVER
 70
     6
  9
$DWGCODEPAGE
  3
ANSI_1252
  9
$INSBASE
 10
0.0
 20
0.0
 30
0.0
  9
$EXTMIN
 10
0.0
 20
0.0
 30
0.0
  9
$EXTMAX
 10
24.0
 20
12.0
 30
0.0
  9
$LIMMIN
 10
0.0
 20
0.0
  9
$LIMMAX
 10
24.0
 20
12.0
  9
$ORTHOMODE
 70
     0
  9
$REGENMODE
 70
     1
  9
$FILLMODE
 70
     1
  9
$QTEXTMODE
 70
     0
  9
$MIRRTEXT
 70
     1
  9
$LTSCALE
 40
1.0
  9
$ATTMODE
 70
     1
  9
$TEXTSIZE
 40
0.125
  9
$TRACEWID
 40
0.05
  9
$TEXTSTYLE
  7
Standard
  9
$CLAYER
  8
0
  9
$CELTYPE
  6
ByLayer
  9
$CECOLOR
 62
   256
  9
$CELTSCALE
 40
1.0
  9
$DISPSILH
 70
     0
  9
$DIMSCALE
 40
1.0
  9
$DIMASZ
 40
0.13
  9
$DIMEXO
 40
0.05
  9
$DIMDLI
 40
0.38
  9
$DIMRND
 40
0.0
  9
$DIMDLE
 40
0.0
  9
$DIMEXE
 40
0.125
  9
$DIMTP
 40
0.0
  9
$DIMTM
 40
0.0
  9
$DIMTXT
 40
0.125
  9
$DIMCEN
 40
0.09
  9
$DIMTSZ
 40
0.0
  9
$DIMTOL
 70
     0
  9
$DIMLIM
 70
     0
  9
$DIMTIH
 70
     1
  9
$DIMTOH
 70
     1
  9
$DIMSE1
 70
     0
  9
$DIMSE2
 70
     0
  9
$DIMTAD
 70
     0
  9
$DIMZIN
 70
     1
  9
$DIMBLK
  1

  9
$DIMASO
 70
     1
  9
$DIMSHO
 70
     1
  9
$DIMPOST
  1

  9
$DIMAPOST
  1

  9
$DIMALT
 70
     0
  9
$DIMALTD
 70
     2
  9
$DIMALTF
 40
25.4
  9
$DIMLFAC
 40
1.0
  9
$DIMTOFL
 70
     0
  9
$DIMTVP
 40
0.0
  9
$DIMTIX
 70
     0
  9
$DIMSOXD
 70
     0
  9
$DIMSAH
 70
     0
  9
$DIMBLK1
  1

  9
$DIMBLK2
  1

  9
$DIMSTYLE
  2
Standard
  9
$DIMCLRD
 70
     0
  9
$DIMCLRE
 70
     0
  9
$DIMCLRT
 70
     0
  9
$DIMTFAC
 40
1.0
  9
$DIMGAP
 40
0.06
  9
$DIMJUST
 70
     0
  9
$DIMSD1
 70
     0
  9
$DIMSD2
 70
     0
  9
$DIMTOLJ
 70
     1
  9
$DIMTZIN
 70
     1
  9
$DIMALTZ
 70
     0
  9
$DIMALTTZ
 70
     0
  9
$DIMUPT
 70
     0
  9
$DIMDEC
 70
     2
  9
$DIMTDEC
 70
     2
  9
$DIMALTU
 70
     2
  9
$DIMALTTD
 70
     2
  9
$DIMTXSTY
  7
Standard
  9
$DIMAUNIT
 70
     0
  9
$DIMADEC
 70
     2
  9
$DIMALTRND
 40
0.0
  9
$DIMAZIN
 70
     0
  9
$DIMDSEP
 70
    46
  9
$DIMATFIT
 70
     3
  9
$DIMFRAC
 70
     0
  9
$DIMLDRBLK
  1

  9
$DIMLUNIT
 70
     2
  9
$DIMLWD
 70
    -2
  9
$DIMLWE
 70
    -2
  9
$DIMTMOVE
 70
     0
  9
$LUNITS
 70
     2
  9
$LUPREC
 70
     6
  9
$SKETCHINC
 40
0.1
  9
$FILLETRAD
 40
0.0
  9
$AUNITS
 70
     0
  9
$AUPREC
 70
     2
  9
$MENU
  1
.
  9
$ELEVATION
 40
0.0
  9
$PELEVATION
 40
0.0
  9
$THICKNESS
 40
0.0
  9
$LIMCHECK
 70
     0
  9
$CHAMFERA
 40
0.0
  9
$CHAMFERB
 40
0.0
  9
$CHAMFERC
 40
0.0
  9
$CHAMFERD
 40
0.0
  9
$SKPOLY
 70
     0
  9
$TDCREATE
 40
2460784.665887512
  9
$TDUCREATE
 40
2460784.957554179
  9
$TDUPDATE
 40
2460784.665888241
  9
$TDUUPDATE
 40
2460784.957554908
  9
$TDINDWG
 40
0.0000000116
  9
$TDUSRTIMER
 40
0.0000000116
  9
$USRTIMER
 70
     1
  9
$ANGBASE
 50
0.0
  9
$ANGDIR
 70
     0
  9
$PDMODE
 70
     0
  9
$PDSIZE
 40
-1.0
  9
$PLINEWID
 40
0.0
  9
$SPLFRAME
 70
     0
  9
$SPLINETYPE
 70
     6
  9
$SPLINESEGS
 70
     8
  9
$HANDSEED
  5
1E5
  9
$SURFTAB1
 70
     6
  9
$SURFTAB2
 70
     6
  9
$SURFTYPE
 70
     6
  9
$SURFU
 70
     6
  9
$SURFV
 70
     6
  9
$UCSBASE
  2

  9
$UCSNAME
  2

  9
$UCSORG
 10
0.0
 20
0.0
 30
0.0
  9
$UCSXDIR
 10
1.0
 20
0.0
 30
0.0
  9
$UCSYDIR
 10
0.0
 20
1.0
 30
0.0
  9
$UCSORTHOREF
  2

  9
$UCSORTHOVIEW
 70
     0
  9
$UCSORGTOP
 10
0.0
 20
0.0
 30
0.0
  9
$UCSORGBOTTOM
 10
0.0
 20
0.0
 30
0.0
  9
$UCSORGLEFT
 10
0.0
 20
0.0
 30
0.0
  9
$UCSORGRIGHT
 10
0.0
 20
0.0
 30
0.0
  9
$UCSORGFRONT
 10
0.0
 20
0.0
 30
0.0
  9
$UCSORGBACK
 10
0.0
 20
0.0
 30
0.0
  9
$PUCSBASE
  2

  9
$PUCSNAME
  2

  9
$PUCSORG
 10
0.0
 20
0.0
 30
0.0
  9
$PUCSXDIR
 10
1.0
 20
0.0
 30
0.0
  9
$PUCSYDIR
 10
0.0
 20
1.0
 30
0.0
  9
$PUCSORTHOREF
  2

  9
$PUCSORTHOVIEW
 70
     0
  9
$PUCSORGTOP
 10
0.0
 20
0.0
 30
0.0
  9
$PUCSORGBOTTOM
 10
0.0
 20
0.0
 30
0.0
  9
$PUCSORGLEFT
 10
0.0
 20
0.0
 30
0.0
  9
$PUCSORGRIGHT
 10
0.0
 20
0.0
 30
0.0
  9
$PUCSORGFRONT
 10
0.0
 20
0.0
 30
0.0
  9
$PUCSORGBACK
 10
0.0
 20
0.0
 30
0.0
  9
$USERI1
 70
     0
  9
$USERI2
 70
     0
  9
$USERI3
 70
     0
  9
$USERI4
 70
     0
  9
$USERI5
 70
     0
  9
$USERR1
 40
0.0
  9
$USERR2
 40
0.0
  9
$USERR3
 40
0.0
  9
$USERR4
 40
0.0
  9
$USERR5
 40
0.0
  9
$WORLDVIEW
 70
     1
  9
$SHADEDGE
 70
     3
  9
$SHADEDIF
 70
    70
  9
$TILEMODE
 70
     1
  9
$MAXACTVP
 70
    64
  9
$PINSBASE
 10
0.0
 20
0.0
 30
0.0
  9
$PLIMCHECK
 70
     0
  9
$PEXTMIN
 10
1.0000000000E+20
 20
1.0000000000E+20
 30
1.0000000000E+20
  9
$PEXTMAX
 10
-1.0000000000E+20
 20
-1.0000000000E+20
 30
-1.0000000000E+20
  9
$PLIMMIN
 10
0.0
 20
0.0
  9
$PLIMMAX
 10
12.0
 20
9.0
  9
$UNITMODE
 70
     0
  9
$VISRETAIN
 70
     1
  9
$PLINEGEN
 70
     0
  9
$PSLTSCALE
 70
     1
  9
$TREEDEPTH
 70
  3020
  9
$CMLSTYLE
  2
Standard
  9
$CMLJUST
 70
     0
  9
$CMLSCALE
 40
1.0
  9
$PROXYGRAPHICS
 70
     1
  9
$MEASUREMENT
 70
     0
  9
$CELWEIGHT
370
    -1
  9
$ENDCAPS
280
     0
  9
$JOINSTYLE
280
     0
  9
$LWDISPLAY
290
     1
  9
$INSUNITS
 70
     1
  9
$HYPERLINKBASE
  1

  9
$STYLESHEET
  1

  9
$XEDIT
290
     1
  9
$CEPSNTYPE
380
     0
  9
$PSTYLEMODE
290
     1
  9
$FINGERPRINTGUID
  2
{8081467e-2f1d-4bef-8408-481e6d07d893}
  9
$VERSIONGUID
  2
{FAEB1C32-E019-11D5-929B-00C0DF256EC4}
  9
$EXTNAMES
290
     1
  9
$PSVPSCALE
 40
0.0
  9
$OLESTARTUP
290
     0
  0
ENDSEC
  0
SECTION
  2
CLASSES
  0
CLASS
  1
ACDBDICTIONARYWDFLT
  2
AcDbDictionaryWithDefault
  3
ObjectDBX Classes
 90
        0
280
     0
281
     0
  0
CLASS
  1
VISUALSTYLE
  2
AcDbVisualStyle
  3
ObjectDBX Classes
 90
     4095
280
     0
281
     0
  0
CLASS
  1
MATERIAL
  2
AcDbMaterial
  3
ObjectDBX Classes
 90
     1153
280
     0
281
     0
  0
CLASS
  1
SCALE
  2
AcDbScale
  3
ObjectDBX Classes
 90
     1153
280
     0
281
     0
  0
CLASS
  1
TABLESTYLE
  2
AcDbTableStyle
  3
ObjectDBX Classes
 90
     4095
280
     0
281
     0
  0
CLASS
  1
MLEADERSTYLE
  2
AcDbMLeaderStyle
  3
ACDB_MLEADERSTYLE_CLASS
 90
     4095
280
     0
281
     0
  0
CLASS
  1
SUN
  2
AcDbSun
  3
SCENEOE
 90
     1153
280
     0
281
     0
  0
CLASS
  1
ACDBPLACEHOLDER
  2
AcDbPlaceHolder
  3
ObjectDBX Classes
 90
        0
280
     0
281
     0
  0
CLASS
  1
LAYOUT
  2
AcDbLayout
  3
ObjectDBX Classes
 90
        0
280
     0
281
     0
  0
ENDSEC
  0
SECTION
  2
TABLES
  0
TABLE
  2
VPORT
  5
8
330
0
100
AcDbSymbolTable
 70
     1
  0
VPORT
  5
29
330
8
100
AcDbSymbolTableRecord
100
AcDbViewportTableRecord
  2
*Active
 70
     0
 10
0.0
 20
0.0
 11
1.0
 21
1.0
 12
12.0
 22
6.0
 13
0.0
 23
0.0
 14
0.5
 24
0.5
 15
0.5
 25
0.5
 16
0.0
 26
0.0
 36
1.0
 17
0.0
 27
0.0
 37
0.0
 40
12.0
 41
2.0
 42
50.0
 43
0.0
 44
0.0
 50
0.0
 51
0.0
 71
     0
 72
  2000
 73
     1
 74
     3
 75
     0
 76
     0
 77
     0
 78
     0
281
     0
 65
     1
110
0.0
120
0.0
130
0.0
111
1.0
121
0.0
131
0.0
112
0.0
122
1.0
132
0.0
 79
     0
146
0.0
  0
ENDTAB
  0
TABLE
  2
LTYPE
  5
5
330
0
100
AcDbSymbolTable
 70
     6
  0
LTYPE
  5
14
330
5
100
AcDbSymbolTableRecord
100
AcDbLinetypeTableRecord
  2
ByBlock
 70
     0
  3

 72
    65
 73
     0
 40
0.0
  0
LTYPE
  5
15
330
5
100
AcDbSymbolTableRecord
100
AcDbLinetypeTableRecord
  2
ByLayer
 70
     0
  3

 72
    65
 73
     0
 40
0.0
  0
LTYPE
  5
16
330
5
100
AcDbSymbolTableRecord
100
AcDbLinetypeTableRecord
  2
Continuous
 70
     0
  3
Solid line
 72
    65
 73
     0
 40
0.0
  0
LTYPE
  5
5E
330
5
100
AcDbSymbolTableRecord
100
AcDbLinetypeTableRecord
  2
HIDDEN
 70
     0
  3
Hidden __ __ __ __ __ __ __ __ __ __ __ __ __ __
 72
    65
 73
     2
 40
0.075
 49
0.05
 74
     0
 49
-0.025
 74
     0
  0
LTYPE
  5
5F
330
5
100
AcDbSymbolTableRecord
100
AcDbLinetypeTableRecord
  2
PHANTOM
 70
     0
  3
Phantom ______  __  __  ______  __  __  ______
 72
    65
 73
     6
 40
0.5
 49
0.25
 74
     0
 49
-0.05
 74
     0
 49
0.05
 74
     0
 49
-0.05
 74
     0
 49
0.05
 74
     0
 49
-0.05
 74
     0
  0
LTYPE
  5
60
330
5
100
AcDbSymbolTableRecord
100
AcDbLinetypeTableRecord
  2
CENTER
 70
     0
  3
Center ____ _ ____ _ ____ _ ____ _ ____ _ ____
 72
    65
 73
     4
 40
0.4
 49
0.25
 74
     0
 49
-0.05
 74
     0
 49
0.05
 74
     0
 49
-0.05
 74
     0
  0
LTYPE
  5
61
330
5
100
AcDbSymbolTableRecord
100
AcDbLinetypeTableRecord
  2
CENTERX2
 70
     0
  3
Center (2x) ________  __  ________  __  _____
 72
    65
 73
     4
 40
0.8
 49
0.5
 74
     0
 49
-0.1
 74
     0
 49
0.1
 74
     0
 49
-0.1
 74
     0
  0
LTYPE
  5
62
330
5
100
AcDbSymbolTableRecord
100
AcDbLinetypeTableRecord
  2
DOT2
 70
     0
  3
Dot (.5x) ........................................
 72
    65
 73
     2
 40
0.025
 49
0.0
 74
     0
 49
-0.025
 74
     0
  0
ENDTAB
  0
TABLE
  2
LAYER
  5
2
330
0
100
AcDbSymbolTable
 70
     3
  0
LAYER
  5
10
330
2
100
AcDbSymbolTableRecord
100
AcDbLayerTableRecord
  2
0
 70
     0
 62
     7
  6
Continuous
370
    -3
390
F
  0
LAYER
  5
63
330
2
100
AcDbSymbolTableRecord
100
AcDbLayerTableRecord
  2
FORMAT
 70
     0
 62
     7
  6
Continuous
370
    -3
390
F
  0
LAYER
  5
64
330
2
100
AcDbSymbolTableRecord
100
AcDbLayerTableRecord
  2
PART_NAMES
 70
     0
 62
     1
  6
Continuous
370
    -3
390
F
  0
ENDTAB
  0
TABLE
  2
STYLE
  5
3
330
0
100
AcDbSymbolTable
 70
     3
  0
STYLE
  5
11
330
3
100
AcDbSymbolTableRecord
100
AcDbTextStyleTableRecord
  2
Standard
 70
     0
 40
0.0
 41
1.0
 50
0.0
 71
     0
 42
0.125
  3
txt
  4

  0
STYLE
  5
10F
330
3
100
AcDbSymbolTableRecord
100
AcDbTextStyleTableRecord
  2
SLDTEXTSTYLE0
 70
     0
 40
0.0
 41
0.75
 50
0.0
 71
     0
 42
0.125
  3
TXT
  4

  0
STYLE
  5
1E1
330
3
100
AcDbSymbolTableRecord
100
AcDbTextStyleTableRecord
  2
SLDTEXTSTYLE1
 70
     0
 40
0.0
 41
0.7
 50
0.0
 71
     0
 42
0.125
  3
TXT
  4

  0
ENDTAB
  0
TABLE
  2
VIEW
  5
6
330
0
100
AcDbSymbolTable
 70
     0
  0
ENDTAB
  0
TABLE
  2
UCS
  5
7
330
0
100
AcDbSymbolTable
 70
     0
  0
ENDTAB
  0
TABLE
  2
APPID
  5
9
330
0
100
AcDbSymbolTable
 70
     1
  0
APPID
  5
12
330
9
100
AcDbSymbolTableRecord
100
AcDbRegAppTableRecord
  2
ACAD
 70
     0
  0
ENDTAB
  0
TABLE
  2
DIMSTYLE
  5
A
330
0
100
AcDbSymbolTable
 70
     1
100
AcDbDimStyleTable
  0
DIMSTYLE
105
27
330
A
100
AcDbSymbolTableRecord
100
AcDbDimStyleTableRecord
  2
Standard
 70
     0
178
     0
340
11
  0
ENDTAB
  0
TABLE
  2
BLOCK_RECORD
  5
1
330
0
100
AcDbSymbolTable
 70
     1
  0
BLOCK_RECORD
  5
1F
330
1
100
AcDbSymbolTableRecord
100
AcDbBlockTableRecord
  2
*Model_Space
340
22
  0
BLOCK_RECORD
  5
1B
330
1
100
AcDbSymbolTableRecord
100
AcDbBlockTableRecord
  2
*Paper_Space
340
1E
  0
BLOCK_RECORD
  5
23
330
1
100
AcDbSymbolTableRecord
100
AcDbBlockTableRecord
  2
*Paper_Space0
340
26
  0
ENDTAB
  0
ENDSEC
  0
SECTION
  2
BLOCKS
  0
BLOCK
  5
20
330
1F
100
AcDbEntity
  8
0
100
AcDbBlockBegin
  2
*Model_Space
 70
     0
 10
0.0
 20
0.0
 30
0.0
  3
*Model_Space
  1

  0
ENDBLK
  5
21
330
1F
100
AcDbEntity
  8
0
100
AcDbBlockEnd
  0
BLOCK
  5
1C
330
1B
100
AcDbEntity
 67
     1
  8
0
100
AcDbBlockBegin
  2
*Paper_Space
 70
     0
 10
0.0
 20
0.0
 30
0.0
  3
*Paper_Space
  1

  0
ENDBLK
  5
1D
330
1B
100
AcDbEntity
 67
     1
  8
0
100
AcDbBlockEnd
  0
BLOCK
  5
24
330
23
100
AcDbEntity
  8
0
100
AcDbBlockBegin
  2
*Paper_Space0
 70
     0
 10
0.0
 20
0.0
 30
0.0
  3
*Paper_Space0
  1

  0
ENDBLK
  5
25
330
23
100
AcDbEntity
  8
0
100
AcDbBlockEnd
  0
ENDSEC
  0
SECTION
  2
ENTITIES
  0
LINE
  5
65
330
1F
100
AcDbEntity
  8
0
  6
CENTERX2
 62
     7
370
    18
100
AcDbLine
 10
0.25
 20
0.25
 30
0.0
 11
0.25
 21
11.75
 31
0.0
  0
LINE
  5
66
330
1F
100
AcDbEntity
  8
0
  6
CENTERX2
 62
     7
370
    18
100
AcDbLine
 10
0.25
 20
0.25
 30
0.0
 11
23.75
 21
0.25
 31
0.0
  0
LINE
  5
67
330
1F
100
AcDbEntity
  8
0
  6
CENTERX2
 62
     7
370
    18
100
AcDbLine
 10
23.75
 20
0.25
 30
0.0
 11
23.75
 21
11.75
 31
0.0
  0
LINE
  5
68
330
1F
100
AcDbEntity
  8
0
  6
CENTERX2
 62
     7
370
    18
100
AcDbLine
 10
23.75
 20
11.75
 30
0.0
 11
0.25
 21
11.75
 31
0.0
  0
LINE
  5
69
330
1F
100
AcDbEntity
  8
0
  6
Continuous
 62
     7
370
    25
100
AcDbLine
 10
14.8150510144
 20
1.5693884281
 30
0.0
 11
15.9087458857
 21
2.6630832994
 31
0.0
  0
LINE
  5
6A
330
1F
100
AcDbEntity
  8
0
  6
Continuous
 62
     7
370
    25
100
AcDbLine
 10
14.7266626667
 20
1.6577767758
 30
0.0
 11
14.8150510144
 21
1.5693884281
 31
0.0
  0
LINE
  5
6B
330
1F
100
AcDbEntity
  8
0
  6
Continuous
 62
     7
370
    25
100
AcDbLine
 10
14.3731092762
 20
1.3042233852
 30
0.0
 11
14.7266626667
 21
1.6577767758
 31
0.0
  0
SPLINE
  5
6C
330
1F
100
AcDbEntity
  8
0
  6
Continuous
 62
     7
370
    25
100
AcDbSpline
210
0.0
220
0.0
230
1.0
 70
     8
 71
     3
 72
    14
 73
    10
 74
     0
 42
0.00000001
 43
0.00000001
 40
0.7077435738269998
 40
0.7077435738269998
 40
0.7077435738269998
 40
0.7077435738269998
 40
0.750000000000001
 40
0.750000000000001
 40
0.8750000000000011
 40
0.8750000000000011
 40
0.9375000000000006
 40
0.9375000000000006
 40
1.0
 40
1.0
 40
1.0
 40
1.0
 10
14.37310927615478
 20
1.304223385183956
 30
0.0
 10
14.34412796555184
 20
1.315573669240049
 30
0.0
 10
14.31518546732558
 20
1.327025058869001
 30
0.0
 10
14.20078796976168
 20
1.37276969392551
 30
0.0
 10
14.11564623113953
 20
1.407878978122068
 30
0.0
 10
13.98870288316387
 20
1.462546813358391
 30
0.0
 10
13.94651799988934
 20
1.481106942434553
 30
0.0
 10
13.86251257326753
 20
1.519176299822822
 30
0.0
 10
13.82067666091555
 20
1.538645492142339
 30
0.0
 10
13.77919783688852
 20
1.559044893398748
 30
0.0
  0
LINE
  5
6D
330
1F
100
AcDbEntity
  8
0
  6
Continuous
 62
     7
370
    25
100
AcDbLine
 10
13.7791978369
 20
1.5590448934
 30
0.0
 11
13.6427906989
 21
1.626130304
 31
0.0
  0
SPLINE
  5
6E
330
1F
100
AcDbEntity
  8
0
  6
Continuous
 62
     7
370
    25
100
AcDbSpline
210
0.0
220
0.0
230
1.0
 70
     8
 71
     3
 72
     8
 73
     4
 74
     0
 42
0.00000001
 43
0.00000001
 40
0.0
 40
0.0
 40
0.0
 40
0.0
 40
0.9344905711042223
 40
0.9344905711042223
 40
0.9344905711042223
 40
0.9344905711042223
 10
12.88161687236119
 20
0.9784822273273035
 30
0.0
 10
13.16392451050639
 20
1.159116721334859
 30
0.0
 10
13.42055569065891
 20
1.377764325396463
 30
0.0
 10
13.64279069886293
 20
1.626130304041285
 30
0.0
  0
ARC
  5
6F
330
1F
100
AcDbEntity
  8
0
  6
Continuous
 62
     7
370
    25
100
AcDbCircle
 10
11.0900821421
 20
3.7778719062
 30
0.0
 40
3.323579220706269
100
AcDbArc
 50
302.2664192079
 51
302.6181589426
  0
SPLINE
  5
70
330
1F
100
AcDbEntity
  8
0
  6
Continuous
 62
     7
370
    25
100
AcDbSpline
210
0.0
220
0.0
230
1.0
 70
     8
 71
     3
 72
     8
 73
     4
 74
     0
 42
0.00000001
 43
0.00000001
 40
0.0
 40
0.0
 40
0.0
 40
0.0
 40
0.9973297079773947
 40
0.9973297079773947
 40
0.9973297079773947
 40
0.9973297079773947
 10
12.18993478938477
 20
0.6226232756389813
 30
0.0
 10
12.4250641990844
 20
0.7170700859035074
 30
0.0
 10
12.65104090010396
 20
0.8328333115195177
 30
0.0
 10
12.86439765311544
 20
0.967536894802739
 30
0.0
  0
SPLINE
  5
71
330
1F
100
AcDbEntity
  8
0
  6
Continuous
 62
     7
370
    25
100
AcDbSpline
210
0.0
220
0.0
230
1.0
 70
     8
 71
     3
 72
     9
 73
     5
 74
     0
 42
0.00000001
 43
0.00000001
 40
0.0
 40
0.0
 40
0.0
 40
0.0
 40
0.5
 40
1.0
 40
1.0
 40
1.0
 40
1.0
 10
10.64949864718765
 20
0.3149145564592695
 30
0.0
 10
10.91348569232531
 20
0.3188239255893962
 30
0.0
 10
11.44042425432299
 20
0.3745424743523397
 30
0.0
 10
11.94656255419991
 20
0.5248759408027099
 30
0.0
 10
12.18993478938477
 20
0.6226232756389813
 30
0.0
  0
LINE
  5
72
330
1F
100
AcDbEntity
  8
0
  6
Continuous
 62
     7
370
    25
100
AcDbLine
 10
10.6494986472
 20
0.3149145565
 30
0.0
 11
10.6494986472
 21
0.9149145565
 31
0.0
  0
LINE
  5
73
330
1F
100
AcDbEntity
  8
0
  6
Continuous
 62
     7
370
    25
100
AcDbLine
 10
10.6494986472
 20
0.9149145565
 30
0.0
 11
10.5244986472
 21
0.9149145565
 31
0.0
  0
LINE
  5
74
330
1F
100
AcDbEntity
  8
0
  6
Continuous
 62
     7
370
    25
100
AcDbLine
 10
10.5244986472
 20
0.9149145565
 30
0.0
 11
10.5244986472
 21
0.3149145565
 31
0.0
  0
SPLINE
  5
75
330
1F
100
AcDbEntity
  8
0
  6
Continuous
 62
     7
370
    25
100
AcDbSpline
210
0.0
220
0.0
230
1.0
 70
     8
 71
     3
 72
     9
 73
     5
 74
     0
 42
0.00000001
 43
0.00000001
 40
0.0
 40
0.0
 40
0.0
 40
0.0
 40
0.5
 40
1.0
 40
1.0
 40
1.0
 40
1.0
 10
10.52449864718784
 20
0.3149145564592695
 30
0.0
 10
10.26051160205018
 20
0.3188239255893962
 30
0.0
 10
9.733573040052507
 20
0.3745424743523397
 30
0.0
 10
9.227434740175589
 20
0.5248759408027099
 30
0.0
 10
8.984062504990723
 20
0.6226232756389813
 30
0.0
  0
SPLINE
  5
76
330
1F
100
AcDbEntity
  8
0
  6
Continuous
 62
     7
370
    25
100
AcDbSpline
210
0.0
220
0.0
230
1.0
 70
     8
 71
     3
 72
     8
 73
     4
 74
     0
 42
0.00000001
 43
0.00000001
 40
0.0
 40
0.0
 40
0.0
 40
0.0
 40
0.9973297079773947
 40
0.9973297079773947
 40
0.9973297079773947
 40
0.9973297079773947
 10
8.984062504990725
 20
0.6226232756389813
 30
0.0
 10
8.748933095291095
 20
0.7170700859035074
 30
0.0
 10
8.522956394271535
 20
0.8328333115195177
 30
0.0
 10
8.30959964126006
 20
0.967536894802739
 30
0.0
  0
ARC
  5
77
330
1F
100
AcDbEntity
  8
0
  6
Continuous
 62
     7
370
    25
100
AcDbCircle
 10
10.0839151523
 20
3.7778719062
 30
0.0
 40
3.323579220706267
100
AcDbArc
 50
237.3818410574
 51
237.7335807921
  0
SPLINE
  5
78
330
1F
100
AcDbEntity
  8
0
  6
Continuous
 62
     7
370
    25
100
AcDbSpline
210
0.0
220
0.0
230
1.0
 70
     8
 71
     3
 72
     8
 73
     4
 74
     0
 42
0.00000001
 43
0.00000001
 40
0.0
 40
0.0
 40
0.0
 40
0.0
 40
0.9344905711042223
 40
0.9344905711042223
 40
0.9344905711042223
 40
0.9344905711042223
 10
8.292380422014306
 20
0.9784822273273035
 30
0.0
 10
8.010072783869104
 20
1.159116721334859
 30
0.0
 10
7.753441603716587
 20
1.377764325396463
 30
0.0
 10
7.531206595512563
 20
1.626130304041285
 30
0.0
  0
LINE
  5
79
330
1F
100
AcDbEntity
  8
0
  6
Continuous
 62
     7
370
    25
100
AcDbLine
 10
7.3947994575
 20
1.5590448934
 30
0.0
 11
7.5312065955
 21
1.626130304
 31
0.0
  0
SPLINE
  5
7A
330
1F
100
AcDbEntity
  8
0
  6
Continuous
 62
     7
370
    25
100
AcDbSpline
210
0.0
220
0.0
230
1.0
 70
     8
 71
     3
 72
    14
 73
    10
 74
     0
 42
0.00000001
 43
0.00000001
 40
0.7077435738269998
 40
0.7077435738269998
 40
0.7077435738269998
 40
0.7077435738269998
 40
0.750000000000001
 40
0.750000000000001
 40
0.8750000000000011
 40
0.8750000000000011
 40
0.9375000000000006
 40
0.9375000000000006
 40
1.0
 40
1.0
 40
1.0
 40
1.0
 10
6.800888018220711
 20
1.304223385183956
 30
0.0
 10
6.829869328823659
 20
1.315573669240049
 30
0.0
 10
6.858811827049919
 20
1.327025058869001
 30
0.0
 10
6.973209324613822
 20
1.37276969392551
 30
0.0
 10
7.058351063235963
 20
1.407878978122068
 30
0.0
 10
7.18529441121163
 20
1.462546813358391
 30
0.0
 10
7.227479294486156
 20
1.481106942434553
 30
0.0
 10
7.311484721107962
 20
1.519176299822822
 30
0.0
 10
7.353320633459949
 20
1.538645492142339
 30
0.0
 10
7.39479945748697
 20
1.559044893398748
 30
0.0
  0
LINE
  5
7B
330
1F
100
AcDbEntity
  8
0
  6
Continuous
 62
     7
370
    25
100
AcDbLine
 10
6.8008880182
 20
1.3042233852
 30
0.0
 11
6.4473346276
 21
1.6577767758
 31
0.0
  0
LINE
  5
7C
330
1F
100
AcDbEntity
  8
0
  6
Continuous
 62
     7
370
    25
100
AcDbLine
 10
6.4473346276
 20
1.6577767758
 30
0.0
 11
6.35894628
 21
1.5693884281
 31
0.0
  0
LINE
  5
7D
330
1F
100
AcDbEntity
  8
0
  6
Continuous
 62
     7
370
    25
100
AcDbLine
 10
6.35894628
 20
1.5693884281
 30
0.0
 11
5.2652514087
 21
2.6630832994
 31
0.0
  0
LINE
  5
7E
330
1F
100
AcDbEntity
  8
0
  6
Continuous
 62
     7
370
    25
100
AcDbLine
 10
5.2652514087
 20
2.6630832994
 30
0.0
 11
5.3536397563
 21
2.7514716471
 31
0.0
  0
LINE
  5
7F
330
1F
100
AcDbEntity
  8
0
  6
Continuous
 62
     7
370
    25
100
AcDbLine
 10
5.3536397563
 20
2.7514716471
 30
0.0
 11
5.0000863657
 21
3.1050250377
 31
0.0
  0
SPLINE
  5
80
330
1F
100
AcDbEntity
  8
0
  6
Continuous
 62
     7
370
    25
100
AcDbSpline
210
0.0
220
0.0
230
1.0
 70
     8
 71
     3
 72
    16
 73
    12
 74
     0
 42
0.00000001
 43
0.00000001
 40
0.289210721432107
 40
0.289210721432107
 40
0.289210721432107
 40
0.289210721432107
 40
0.3749999999999996
 40
0.3749999999999996
 40
0.4999999999999996
 40
0.4999999999999996
 40
0.6249999999999994
 40
0.6249999999999994
 40
0.7499999999999994
 40
0.7499999999999994
 40
0.7660597172734648
 40
0.7660597172734648
 40
0.7660597172734648
 40
0.7660597172734648
 10
6.565848997822237
 20
4.210500912021757
 30
0.0
 10
6.477363057985943
 20
4.137017783794101
 30
0.0
 10
6.387649568179715
 20
4.065082269816216
 30
0.0
 10
6.164652201305103
 20
3.891567635975582
 30
0.0
 10
6.030176161967295
 20
3.791491515877723
 30
0.0
 10
5.757281045547104
 20
3.59631039828422
 30
0.0
 10
5.618890059470045
 20
3.501249873332872
 30
0.0
 10
5.33927340858333
 20
3.316284517692281
 30
0.0
 10
5.197942131895928
 20
3.226307688642893
 30
0.0
 10
5.036840042485183
 20
3.127424673143006
 30
0.0
 10
5.018474920267436
 20
3.116205577569862
 30
0.0
 10
5.000086365577525
 20
3.10502503755245
 30
0.0
  0
LINE
  5
81
330
1F
100
AcDbEntity
  8
0
  6
Continuous
 62
     7
370
    25
100
AcDbLine
 10
6.5658489974
 20
4.2105009116
 30
0.0
 11
7.0156958719
 21
4.2105009116
 31
0.0
  0
LINE
  5
82
330
1F
100
AcDbEntity
  8
0
  6
Continuous
 62
     7
370
    25
100
AcDbLine
 10
7.0156958719
 20
4.2105009116
 30
0.0
 11
7.0156958719
 21
4.3355009116
 31
0.0
  0
LINE
  5
83
330
1F
100
AcDbEntity
  8
0
  6
Continuous
 62
     7
370
    25
100
AcDbLine
 10
7.0156958719
 20
4.3355009116
 30
0.0
 11
6.6656958719
 21
4.3355009116
 31
0.0
  0
SPLINE
  5
84
330
1F
100
AcDbEntity
  8
0
  6
Continuous
 62
     7
370
    25
100
AcDbSpline
210
0.0
220
0.0
230
1.0
 70
     8
 71
     3
 72
     8
 73
     4
 74
     0
 42
0.00000001
 43
0.00000001
 40
0.5519447105480442
 40
0.5519447105480442
 40
0.5519447105480442
 40
0.5519447105480442
 40
1.0
 40
1.0
 40
1.0
 40
1.0
 10
6.665696045829127
 20
4.335500911258101
 30
0.0
 10
6.667122731654662
 20
4.383873235268197
 30
0.0
 10
6.668519856068114
 20
4.432231816760002
 30
0.0
 10
6.669889192683876
 20
4.480577743963202
 30
0.0
  0
SPLINE
  5
85
330
1F
100
AcDbEntity
  8
0
  6
Continuous
 62
     7
370
    25
100
AcDbSpline
210
0.0
220
0.0
230
1.0
 70
     8
 71
     3
 72
     8
 73
     4
 74
     0
 42
0.00000001
 43
0.00000001
 40
0.0
 40
0.0
 40
0.0
 40
0.0
 40
1.0
 40
1.0
 40
1.0
 40
1.0
 10
6.669889192683876
 20
4.480577743963202
 30
0.0
 10
6.67501977379543
 20
4.661763653180302
 30
0.0
 10
6.680208387456555
 20
4.842755917390192
 30
0.0
 10
6.685207692047145
 20
5.023583070438243
 30
0.0
  0
SPLINE
  5
86
330
1F
100
AcDbEntity
  8
0
  6
Continuous
 62
     7
370
    25
100
AcDbSpline
210
0.0
220
0.0
230
1.0
 70
     8
 71
     3
 72
     8
 73
     4
 74
     0
 42
0.00000001
 43
0.00000001
 40
0.0
 40
0.0
 40
0.0
 40
0.0
 40
1.0
 40
1.0
 40
1.0
 40
1.0
 10
6.685207692047145
 20
5.023583070438243
 30
0.0
 10
6.698933052046199
 20
5.520512000775626
 30
0.0
 10
6.711628751120991
 20
6.016738208878217
 30
0.0
 10
6.721189913247309
 20
6.513342308826657
 30
0.0
  0
SPLINE
  5
87
330
1F
100
AcDbEntity
  8
0
  6
Continuous
 62
     7
370
    25
100
AcDbSpline
210
0.0
220
0.0
230
1.0
 70
     8
 71
     3
 72
     8
 73
     4
 74
     0
 42
0.00000001
 43
0.00000001
 40
0.0
 40
0.0
 40
0.0
 40
0.0
 40
1.0
 40
1.0
 40
1.0
 40
1.0
 10
6.721189913247309
 20
6.513342308826657
 30
0.0
 10
6.721960746994163
 20
6.553402534067401
 30
0.0
 10
6.722613044256746
 20
6.593474285425828
 30
0.0
 10
6.723290451637933
 20
6.633554807367474
 30
0.0
  0
SPLINE
  5
88
330
1F
100
AcDbEntity
  8
0
  6
Continuous
 62
     7
370
    25
100
AcDbSpline
210
0.0
220
0.0
230
1.0
 70
     8
 71
     3
 72
     8
 73
     4
 74
     0
 42
0.00000001
 43
0.00000001
 40
0.0
 40
0.0
 40
0.0
 40
0.0
 40
1.0
 40
1.0
 40
1.0
 40
1.0
 10
6.723290451637933
 20
6.633554807367474
 30
0.0
 10
6.724337975823751
 20
6.695539301440492
 30
0.0
 10
6.727112726756552
 20
6.757774433821219
 30
0.0
 10
6.731605835436756
 20
6.819987986730659
 30
0.0
  0
SPLINE
  5
89
330
1F
100
AcDbEntity
  8
0
  6
Continuous
 62
     7
370
    25
100
AcDbSpline
210
0.0
220
0.0
230
1.0
 70
     8
 71
     3
 72
     8
 73
     4
 74
     0
 42
0.00000001
 43
0.00000001
 40
0.0
 40
0.0
 40
0.0
 40
0.0
 40
1.0
 40
1.0
 40
1.0
 40
1.0
 10
6.731605835436756
 20
6.819987986730659
 30
0.0
 10
6.740161908207823
 20
6.938480224095318
 30
0.0
 10
6.762987130318586
 20
7.055944017614709
 30
0.0
 10
6.799799842744022
 20
7.169103770331851
 30
0.0
  0
SPLINE
  5
8A
330
1F
100
AcDbEntity
  8
0
  6
Continuous
 62
     7
370
    25
100
AcDbSpline
210
0.0
220
0.0
230
1.0
 70
     8
 71
     3
 72
     8
 73
     4
 74
     0
 42
0.00000001
 43
0.00000001
 40
0.0
 40
0.0
 40
0.0
 40
0.0
 40
1.0
 40
1.0
 40
1.0
 40
1.0
 10
6.799799842744022
 20
7.169103770331851
 30
0.0
 10
6.814706685504415
 20
7.214926448614767
 30
0.0
 10
6.831796863662616
 20
7.260052264135566
 30
0.0
 10
6.851009500111912
 20
7.304267118491296
 30
0.0
  0
SPLINE
  5
8B
330
1F
100
AcDbEntity
  8
0
  6
Continuous
 62
     7
370
    25
100
AcDbSpline
210
0.0
220
0.0
230
1.0
 70
     8
 71
     3
 72
     8
 73
     4
 74
     0
 42
0.00000001
 43
0.00000001
 40
0.0
 40
0.0
 40
0.0
 40
0.0
 40
1.0
 40
1.0
 40
1.0
 40
1.0
 10
6.851009500111912
 20
7.304267118491296
 30
0.0
 10
6.906617037047495
 20
7.432239856452817
 30
0.0
 10
6.979023664029036
 20
7.55270407443787
 30
0.0
 10
7.06567364457781
 20
7.661242722170821
 30
0.0
  0
SPLINE
  5
8C
330
1F
100
AcDbEntity
  8
0
  6
Continuous
 62
     7
370
    25
100
AcDbSpline
210
0.0
220
0.0
230
1.0
 70
     8
 71
     3
 72
    11
 73
     7
 74
     0
 42
0.00000001
 43
0.00000001
 40
0.0
 40
0.0
 40
0.0
 40
0.0
 40
0.25
 40
0.5
 40
0.75
 40
1.0
 40
1.0
 40
1.0
 40
1.0
 10
7.065673644577809
 20
7.661242722170821
 30
0.0
 10
7.122513559048805
 20
7.732442164979901
 30
0.0
 10
7.248331102564424
 20
7.864837795118743
 30
0.0
 10
7.467239898596392
 20
8.02716441712496
 30
0.0
 10
7.70943358453885
 20
8.148242737005603
 30
0.0
 10
7.881376289284963
 20
8.198992148120363
 30
0.0
 10
7.968595795750898
 20
8.216469432602592
 30
0.0
  0
SPLINE
  5
8D
330
1F
100
AcDbEntity
  8
0
  6
Continuous
 62
     7
370
    25
100
AcDbSpline
210
0.0
220
0.0
230
1.0
 70
     8
 71
     3
 72
     8
 73
     4
 74
     0
 42
0.00000001
 43
0.00000001
 40
0.0
 40
0.0
 40
0.0
 40
0.0
 40
1.0
 40
1.0
 40
1.0
 40
1.0
 10
7.968595795750898
 20
8.216469432602592
 30
0.0
 10
8.145197948877433
 20
8.251906801169255
 30
0.0
 10
8.328163677961546
 20
8.272421549110321
 30
0.0
 10
8.512960230613176
 20
8.277073953760796
 30
0.0
  0
SPLINE
  5
8E
330
1F
100
AcDbEntity
  8
0
  6
Continuous
 62
     7
370
    25
100
AcDbSpline
210
0.0
220
0.0
230
1.0
 70
     8
 71
     3
 72
     8
 73
     4
 74
     0
 42
0.00000001
 43
0.00000001
 40
0.0
 40
0.0
 40
0.0
 40
0.0
 40
1.0
 40
1.0
 40
1.0
 40
1.0
 10
8.512960230613176
 20
8.277073953760796
 30
0.0
 10
8.555841561735724
 20
8.278154147540645
 30
0.0
 10
8.598816968301428
 20
8.278364544119801
 30
0.0
 10
8.641825750429541
 20
8.27773550378429
 30
0.0
  0
SPLINE
  5
8F
330
1F
100
AcDbEntity
  8
0
  6
Continuous
 62
     7
370
    25
100
AcDbSpline
210
0.0
220
0.0
230
1.0
 70
     8
 71
     3
 72
     8
 73
     4
 74
     0
 42
0.00000001
 43
0.00000001
 40
0.0
 40
0.0
 40
0.0
 40
0.0
 40
0.9988217810268523
 40
0.9988217810268523
 40
0.9988217810268523
 40
0.9988217810268523
 10
8.641825750429541
 20
8.27773550378429
 30
0.0
 10
8.69147758556657
 20
8.27700943132855
 30
0.0
 10
8.7410959688164
 20
8.276654608747764
 30
0.0
 10
8.790721752875472
 20
8.27669222458566
 30
0.0
  0
ARC
  5
90
330
1F
100
AcDbEntity
  8
0
  6
Continuous
 62
     7
370
    25
100
AcDbCircle
 10
8.7758475737
 20
27.8998840513
 30
0.0
 40
19.62319746216939
100
AcDbArc
 50
270.0434296079
 51
270.2211018852
  0
SPLINE
  5
91
330
1F
100
AcDbEntity
  8
0
  6
Continuous
 62
     7
370
    25
100
AcDbSpline
210
0.0
220
0.0
230
1.0
 70
     8
 71
     3
 72
     8
 73
     4
 74
     0
 42
0.00000001
 43
0.00000001
 40
0.0018972923257021
 40
0.0018972923257021
 40
0.0018972923257021
 40
0.0018972923257021
 40
1.0
 40
1.0
 40
1.0
 40
1.0
 10
8.851572438993593
 20
8.276832700460117
 30
0.0
 10
8.909665487690226
 20
8.277056880084736
 30
0.0
 10
8.967779953848128
 20
8.277297423058794
 30
0.0
 10
9.025914015572448
 20
8.277686741784889
 30
0.0
  0
SPLINE
  5
92
330
1F
100
AcDbEntity
  8
0
  6
Continuous
 62
     7
370
    25
100
AcDbSpline
210
0.0
220
0.0
230
1.0
 70
     8
 71
     3
 72
     8
 73
     4
 74
     0
 42
0.00000001
 43
0.00000001
 40
0.0
 40
0.0
 40
0.0
 40
0.0
 40
0.9205288792881315
 40
0.9205288792881315
 40
0.9205288792881315
 40
0.9205288792881315
 10
9.025914015572448
 20
8.277686741784889
 30
0.0
 10
9.50150319952276
 20
8.280877224294228
 30
0.0
 10
9.979720061553895
 20
8.290195135480268
 30
0.0
 10
10.46199864718775
 20
8.306165766328238
 30
0.0
  0
LINE
  5
93
330
1F
100
AcDbEntity
  8
0
  6
Continuous
 62
     7
370
    25
100
AcDbLine
 10
10.4619986472
 20
7.5561657663
 30
0.0
 11
10.4619986472
 21
8.3061657663
 31
0.0
  0
LINE
  5
94
330
1F
100
AcDbEntity
  8
0
  6
Continuous
 62
     7
370
    25
100
AcDbLine
 10
10.7119986472
 20
7.5561657663
 30
0.0
 11
10.4619986472
 21
7.5561657663
 31
0.0
  0
LINE
  5
95
330
1F
100
AcDbEntity
  8
0
  6
Continuous
 62
     7
370
    25
100
AcDbLine
 10
10.7119986472
 20
8.3061657663
 30
0.0
 11
10.7119986472
 21
7.5561657663
 31
0.0
  0
SPLINE
  5
96
330
1F
100
AcDbEntity
  8
0
  6
Continuous
 62
     7
370
    25
100
AcDbSpline
210
0.0
220
0.0
230
1.0
 70
     8
 71
     3
 72
     8
 73
     4
 74
     0
 42
0.00000001
 43
0.00000001
 40
0.0
 40
0.0
 40
0.0
 40
0.0
 40
0.9205288792881317
 40
0.9205288792881317
 40
0.9205288792881317
 40
0.9205288792881317
 10
12.14808327880305
 20
8.277686741784889
 30
0.0
 10
11.67249409485274
 20
8.280877224294228
 30
0.0
 10
11.1942772328216
 20
8.290195135480266
 30
0.0
 10
10.71199864718775
 20
8.306165766328238
 30
0.0
  0
SPLINE
  5
97
330
1F
100
AcDbEntity
  8
0
  6
Continuous
 62
     7
370
    25
100
AcDbSpline
210
0.0
220
0.0
230
1.0
 70
     8
 71
     3
 72
     8
 73
     4
 74
     0
 42
0.00000001
 43
0.00000001
 40
0.0018972923257021
 40
0.0018972923257021
 40
0.0018972923257021
 40
0.0018972923257021
 40
1.0
 40
1.0
 40
1.0
 40
1.0
 10
12.3224248553819
 20
8.276832700460117
 30
0.0
 10
12.26433180668527
 20
8.277056880084736
 30
0.0
 10
12.20621734052737
 20
8.277297423058794
 30
0.0
 10
12.14808327880305
 20
8.277686741784889
 30
0.0
  0
ARC
  5
98
330
1F
100
AcDbEntity
  8
0
  6
Continuous
 62
     7
370
    25
100
AcDbCircle
 10
12.3981497207
 20
27.8998840513
 30
0.0
 40
19.62319746216939
100
AcDbArc
 50
269.7788981148
 51
269.9565703921
  0
SPLINE
  5
99
330
1F
100
AcDbEntity
  8
0
  6
Continuous
 62
     7
370
    25
100
AcDbSpline
210
0.0
220
0.0
230
1.0
 70
     8
 71
     3
 72
     8
 73
     4
 74
     0
 42
0.00000001
 43
0.00000001
 40
0.0
 40
0.0
 40
0.0
 40
0.0
 40
0.9988217810268523
 40
0.9988217810268523
 40
0.9988217810268523
 40
0.9988217810268523
 10
12.53217154394595
 20
8.27773550378429
 30
0.0
 10
12.48251970880893
 20
8.27700943132855
 30
0.0
 10
12.4329013255591
 20
8.276654608747764
 30
0.0
 10
12.38327554150002
 20
8.27669222458566
 30
0.0
  0
SPLINE
  5
9A
330
1F
100
AcDbEntity
  8
0
  6
Continuous
 62
     7
370
    25
100
AcDbSpline
210
0.0
220
0.0
230
1.0
 70
     8
 71
     3
 72
     8
 73
     4
 74
     0
 42
0.00000001
 43
0.00000001
 40
0.0
 40
0.0
 40
0.0
 40
0.0
 40
1.0
 40
1.0
 40
1.0
 40
1.0
 10
12.66103706376232
 20
8.277073953760796
 30
0.0
 10
12.61815573263977
 20
8.278154147540645
 30
0.0
 10
12.57518032607407
 20
8.278364544119801
 30
0.0
 10
12.53217154394595
 20
8.27773550378429
 30
0.0
  0
SPLINE
  5
9B
330
1F
100
AcDbEntity
  8
0
  6
Continuous
 62
     7
370
    25
100
AcDbSpline
210
0.0
220
0.0
230
1.0
 70
     8
 71
     3
 72
     8
 73
     4
 74
     0
 42
0.00000001
 43
0.00000001
 40
0.0
 40
0.0
 40
0.0
 40
0.0
 40
1.0
 40
1.0
 40
1.0
 40
1.0
 10
13.2054014986246
 20
8.216469432602592
 30
0.0
 10
13.02879934549806
 20
8.251906801169255
 30
0.0
 10
12.84583361641395
 20
8.272421549110321
 30
0.0
 10
12.66103706376232
 20
8.277073953760796
 30
0.0
  0
SPLINE
  5
9C
330
1F
100
AcDbEntity
  8
0
  6
Continuous
 62
     7
370
    25
100
AcDbSpline
210
0.0
220
0.0
230
1.0
 70
     8
 71
     3
 72
    11
 73
     7
 74
     0
 42
0.00000001
 43
0.00000001
 40
0.0
 40
0.0
 40
0.0
 40
0.0
 40
0.25
 40
0.5
 40
0.75
 40
1.0
 40
1.0
 40
1.0
 40
1.0
 10
14.10832364979769
 20
7.661242722170821
 30
0.0
 10
14.05148373532669
 20
7.732442164979901
 30
0.0
 10
13.92566619181107
 20
7.864837795118743
 30
0.0
 10
13.70675739577911
 20
8.02716441712496
 30
0.0
 10
13.46456370983665
 20
8.148242737005603
 30
0.0
 10
13.29262100509053
 20
8.198992148120363
 30
0.0
 10
13.2054014986246
 20
8.216469432602592
 30
0.0
  0
SPLINE
  5
9D
330
1F
100
AcDbEntity
  8
0
  6
Continuous
 62
     7
370
    25
100
AcDbSpline
210
0.0
220
0.0
230
1.0
 70
     8
 71
     3
 72
     8
 73
     4
 74
     0
 42
0.00000001
 43
0.00000001
 40
0.0
 40
0.0
 40
0.0
 40
0.0
 40
1.0
 40
1.0
 40
1.0
 40
1.0
 10
14.32298779426358
 20
7.304267118491296
 30
0.0
 10
14.267380257328
 20
7.432239856452817
 30
0.0
 10
14.19497363034646
 20
7.55270407443787
 30
0.0
 10
14.10832364979769
 20
7.661242722170821
 30
0.0
  0
SPLINE
  5
9E
330
1F
100
AcDbEntity
  8
0
  6
Continuous
 62
     7
370
    25
100
AcDbSpline
210
0.0
220
0.0
230
1.0
 70
     8
 71
     3
 72
     8
 73
     4
 74
     0
 42
0.00000001
 43
0.00000001
 40
0.0
 40
0.0
 40
0.0
 40
0.0
 40
1.0
 40
1.0
 40
1.0
 40
1.0
 10
14.37419745163147
 20
7.169103770331851
 30
0.0
 10
14.35929060887108
 20
7.214926448614767
 30
0.0
 10
14.34220043071288
 20
7.260052264135566
 30
0.0
 10
14.32298779426358
 20
7.304267118491296
 30
0.0
  0
SPLINE
  5
9F
330
1F
100
AcDbEntity
  8
0
  6
Continuous
 62
     7
370
    25
100
AcDbSpline
210
0.0
220
0.0
230
1.0
 70
     8
 71
     3
 72
     8
 73
     4
 74
     0
 42
0.00000001
 43
0.00000001
 40
0.0
 40
0.0
 40
0.0
 40
0.0
 40
1.0
 40
1.0
 40
1.0
 40
1.0
 10
14.44239145893874
 20
6.819987986730659
 30
0.0
 10
14.43383538616767
 20
6.938480224095318
 30
0.0
 10
14.41101016405691
 20
7.055944017614709
 30
0.0
 10
14.37419745163147
 20
7.169103770331851
 30
0.0
  0
SPLINE
  5
A0
330
1F
100
AcDbEntity
  8
0
  6
Continuous
 62
     7
370
    25
100
AcDbSpline
210
0.0
220
0.0
230
1.0
 70
     8
 71
     3
 72
     8
 73
     4
 74
     0
 42
0.00000001
 43
0.00000001
 40
0.0
 40
0.0
 40
0.0
 40
0.0
 40
1.0
 40
1.0
 40
1.0
 40
1.0
 10
14.45070684273756
 20
6.633554807367474
 30
0.0
 10
14.44965931855174
 20
6.695539301440492
 30
0.0
 10
14.44688456761894
 20
6.757774433821219
 30
0.0
 10
14.44239145893874
 20
6.819987986730659
 30
0.0
  0
SPLINE
  5
A1
330
1F
100
AcDbEntity
  8
0
  6
Continuous
 62
     7
370
    25
100
AcDbSpline
210
0.0
220
0.0
230
1.0
 70
     8
 71
     3
 72
     8
 73
     4
 74
     0
 42
0.00000001
 43
0.00000001
 40
0.0
 40
0.0
 40
0.0
 40
0.0
 40
1.0
 40
1.0
 40
1.0
 40
1.0
 10
14.45280738112819
 20
6.513342308826657
 30
0.0
 10
14.45203654738133
 20
6.553402534067401
 30
0.0
 10
14.45138425011875
 20
6.593474285425828
 30
0.0
 10
14.45070684273756
 20
6.633554807367474
 30
0.0
  0
SPLINE
  5
A2
330
1F
100
AcDbEntity
  8
0
  6
Continuous
 62
     7
370
    25
100
AcDbSpline
210
0.0
220
0.0
230
1.0
 70
     8
 71
     3
 72
     8
 73
     4
 74
     0
 42
0.00000001
 43
0.00000001
 40
0.0
 40
0.0
 40
0.0
 40
0.0
 40
1.0
 40
1.0
 40
1.0
 40
1.0
 10
14.48878960232835
 20
5.023583070438243
 30
0.0
 10
14.4750642423293
 20
5.520512000775626
 30
0.0
 10
14.4623685432545
 20
6.016738208878217
 30
0.0
 10
14.45280738112819
 20
6.513342308826657
 30
0.0
  0
SPLINE
  5
A3
330
1F
100
AcDbEntity
  8
0
  6
Continuous
 62
     7
370
    25
100
AcDbSpline
210
0.0
220
0.0
230
1.0
 70
     8
 71
     3
 72
     8
 73
     4
 74
     0
 42
0.00000001
 43
0.00000001
 40
0.0
 40
0.0
 40
0.0
 40
0.0
 40
1.0
 40
1.0
 40
1.0
 40
1.0
 10
14.50410810169162
 20
4.480577743963202
 30
0.0
 10
14.49897752058007
 20
4.661763653180302
 30
0.0
 10
14.49378890691894
 20
4.842755917390192
 30
0.0
 10
14.48878960232835
 20
5.023583070438243
 30
0.0
  0
SPLINE
  5
A4
330
1F
100
AcDbEntity
  8
0
  6
Continuous
 62
     7
370
    25
100
AcDbSpline
210
0.0
220
0.0
230
1.0
 70
     8
 71
     3
 72
     8
 73
     4
 74
     0
 42
0.00000001
 43
0.00000001
 40
0.551944695905594
 40
0.551944695905594
 40
0.551944695905594
 40
0.551944695905594
 40
1.0
 40
1.0
 40
1.0
 40
1.0
 10
14.50830124868624
 20
4.335500906515677
 30
0.0
 10
14.50687456281215
 20
4.383873232107479
 30
0.0
 10
14.50547743835213
 20
4.432231815180056
 30
0.0
 10
14.50410810169162
 20
4.480577743963202
 30
0.0
  0
LINE
  5
A5
330
1F
100
AcDbEntity
  8
0
  6
Continuous
 62
     7
370
    25
100
AcDbLine
 10
14.1583014225
 20
4.3355009116
 30
0.0
 11
14.5083014225
 21
4.3355009116
 31
0.0
  0
LINE
  5
A6
330
1F
100
AcDbEntity
  8
0
  6
Continuous
 62
     7
370
    25
100
AcDbLine
 10
14.1583014225
 20
4.2105009116
 30
0.0
 11
14.1583014225
 21
4.3355009116
 31
0.0
  0
LINE
  5
A7
330
1F
100
AcDbEntity
  8
0
  6
Continuous
 62
     7
370
    25
100
AcDbLine
 10
14.608148297
 20
4.2105009116
 30
0.0
 11
14.1583014225
 21
4.2105009116
 31
0.0
  0
LINE
  5
A8
330
1F
100
AcDbEntity
  8
0
  6
Continuous
 62
     7
370
    25
100
AcDbLine
 10
15.820357538
 20
2.7514716471
 30
0.0
 11
16.1739109286
 21
3.1050250377
 31
0.0
  0
LINE
  5
A9
330
1F
100
AcDbEntity
  8
0
  6
Continuous
 62
     7
370
    25
100
AcDbLine
 10
15.9087458857
 20
2.6630832994
 30
0.0
 11
15.820357538
 21
2.7514716471
 31
0.0
  0
ARC
  5
AA
330
1F
100
AcDbEntity
  8
0
  6
Continuous
 62
     7
370
    25
100
AcDbCircle
 10
10.6666559347
 20
1.0149145565
 30
0.0
 40
0.2000000000000005
100
AcDbArc
 50
45.0
 51
90.0
  0
LINE
  5
AB
330
1F
100
AcDbEntity
  8
0
  6
Continuous
 62
     7
370
    25
100
AcDbLine
 10
11.0421301862
 20
0.9222830175
 30
0.0
 11
10.808077291
 21
1.1563359127
 31
0.0
  0
ARC
  5
AC
330
1F
100
AcDbEntity
  8
0
  6
Continuous
 62
     7
370
    25
100
AcDbCircle
 10
11.1835515424
 20
1.0637043737
 30
0.0
 40
0.1999999999999991
100
AcDbArc
 50
225.0
 51
279.4322892018
  0
SPLINE
  5
AD
330
1F
100
AcDbEntity
  8
0
  6
Continuous
 62
     7
370
    25
100
AcDbSpline
210
0.0
220
0.0
230
1.0
 70
     8
 71
     3
 72
    10
 73
     6
 74
     0
 42
0.00000001
 43
0.00000001
 40
0.4342299762577632
 40
0.4342299762577632
 40
0.4342299762577632
 40
0.4342299762577632
 40
0.500088023546763
 40
0.7500408026364092
 40
0.9999935817260552
 40
0.9999935817260552
 40
0.9999935817260552
 40
0.9999935817260552
 10
11.21632792677105
 20
0.8664083812971598
 30
0.0
 10
11.24779995112089
 20
0.8716367650792881
 30
0.0
 10
11.39834919731997
 20
0.8985898630922723
 30
0.0
 10
11.66451517667661
 20
0.9629909507977672
 30
0.0
 10
11.89194862868913
 20
1.041762288040964
 30
0.0
 10
12.0035760058802
 20
1.086595668280558
 30
0.0
  0
SPLINE
  5
AE
330
1F
100
AcDbEntity
  8
0
  6
Continuous
 62
     7
370
    25
100
AcDbSpline
210
0.0
220
0.0
230
1.0
 70
     8
 71
     3
 72
    11
 73
     7
 74
     0
 42
0.00000001
 43
0.00000001
 40
0.0000137867027824
 40
0.0000137867027824
 40
0.0000137867027824
 40
0.0000137867027824
 40
0.2493427670214355
 40
0.4986717473400886
 40
0.7480007276587417
 40
0.9973297079773947
 40
0.9973297079773947
 40
0.9973297079773947
 40
0.9973297079773947
 10
12.0035760058802
 20
1.086595668280558
 30
0.0
 10
12.05526924619615
 20
1.107359967334169
 30
0.0
 10
12.15773428223534
 20
1.151266697157851
 30
0.0
 10
12.30818773182049
 20
1.223997273783761
 30
0.0
 10
12.45512752225418
 20
1.303419262654679
 30
0.0
 10
12.55046010857113
 20
1.360644971617276
 30
0.0
 10
12.59746901396724
 20
1.390324219701528
 30
0.0
  0
ARC
  5
AF
330
1F
100
AcDbEntity
  8
0
  6
Continuous
 62
     7
370
    25
100
AcDbCircle
 10
11.0900818954
 20
3.7778718507
 30
0.0
 40
2.823579220706266
100
AcDbArc
 50
302.2664192079
 51
302.6185853293
  0
SPLINE
  5
B0
330
1F
100
AcDbEntity
  8
0
  6
Continuous
 62
     7
370
    25
100
AcDbSpline
210
0.0
220
0.0
230
1.0
 70
     8
 71
     3
 72
    11
 73
     7
 74
     0
 42
0.00000001
 43
0.00000001
 40
-0.0000211883838494
 40
-0.0000211883838494
 40
-0.0000211883838494
 40
-0.0000211883838494
 40
0.2499800503433753
 40
0.4999812890706
 40
0.7499825277978247
 40
0.9999837665250494
 40
0.9999837665250494
 40
0.9999837665250494
 40
0.9999837665250494
 10
12.61211540993563
 20
1.39963435285872
 30
0.0
 10
12.67732567637012
 20
1.441359130689323
 30
0.0
 10
12.80478600051737
 20
1.529647247978426
 30
0.0
 10
12.98555754182827
 20
1.675368895301383
 30
0.0
 10
13.15509994592384
 20
1.833604268226647
 30
0.0
 10
13.25982625343107
 20
1.946625049660882
 30
0.0
 10
13.3100833867024
 20
2.005002065399771
 30
0.0
  0
ARC
  5
B1
330
1F
100
AcDbEntity
  8
0
  6
Continuous
 62
     7
370
    25
100
AcDbCircle
 10
10.9137807212
 20
4.0677040964
 30
0.0
 40
3.161804252852332
100
AcDbArc
 50
319.2786152852
 51
320.1953445453
  0
SPLINE
  5
B2
330
1F
100
AcDbEntity
  8
0
  6
Continuous
 62
     7
370
    25
100
AcDbSpline
210
0.0
220
0.0
230
1.0
 70
     8
 71
     3
 72
    11
 73
     7
 74
     0
 42
0.00000001
 43
0.00000001
 40
0.01297638648703
 40
0.01297638648703
 40
0.01297638648703
 40
0.01297638648703
 40
0.2597298847657061
 40
0.5064833830443822
 40
0.7532368813230583
 40
0.9999903796017345
 40
0.9999903796017345
 40
0.9999903796017345
 40
0.9999903796017345
 10
13.34277837740341
 20
2.043605156242027
 30
0.0
 10
13.34806504387525
 20
2.049949362157128
 30
0.0
 10
13.35859336411033
 20
2.062701563813967
 30
0.0
 10
13.37413239608556
 20
2.081881358066616
 30
0.0
 10
13.38945381561491
 20
2.101158812282137
 30
0.0
 10
13.39949704655036
 20
2.114044161391613
 30
0.0
 10
13.40449362894884
 20
2.120518619005321
 30
0.0
  0
SPLINE
  5
B3
330
1F
100
AcDbEntity
  8
0
  6
Continuous
 62
     7
370
    25
100
AcDbSpline
210
0.0
220
0.0
230
1.0
 70
     8
 71
     3
 72
    11
 73
     7
 74
     0
 42
0.00000001
 43
0.00000001
 40
0.0000014520385937
 40
0.0000014520385937
 40
0.0000014520385937
 40
0.0000014520385937
 40
0.2500006783163752
 40
0.4999999045941566
 40
0.749999130871938
 40
0.9999983571497195
 40
0.9999983571497195
 40
0.9999983571497195
 40
0.9999983571497195
 10
13.40449362894884
 20
2.120518619005321
 30
0.0
 10
13.43792962118413
 20
2.163844618998177
 30
0.0
 10
13.50252468717355
 20
2.252302688874546
 30
0.0
 10
13.59220611262507
 20
2.389824681597589
 30
0.0
 10
13.67446176026876
 20
2.531808768602338
 30
0.0
 10
13.72414950928914
 20
2.629079498882694
 30
0.0
 10
13.74769261043229
 20
2.678348995738911
 30
0.0
  0
SPLINE
  5
B4
330
1F
100
AcDbEntity
  8
0
  6
Continuous
 62
     7
370
    25
100
AcDbSpline
210
0.0
220
0.0
230
1.0
 70
     8
 71
     3
 72
    11
 73
     7
 74
     0
 42
0.00000001
 43
0.00000001
 40
0.0000021945481763
 40
0.0000021945481763
 40
0.0000021945481763
 40
0.0000021945481763
 40
0.2411095364889152
 40
0.4822168784296541
 40
0.723324220370393
 40
0.9644315623111319
 40
0.9644315623111319
 40
0.9644315623111319
 40
0.9644315623111319
 10
13.74769261043229
 20
2.678348995738911
 30
0.0
 10
13.76470069048202
 20
2.713942875409215
 30
0.0
 10
13.79738491747185
 20
2.785776572802681
 30
0.0
 10
13.84234080384464
 20
2.895276947435997
 30
0.0
 10
13.88316416732622
 20
3.006362819648829
 30
0.0
 10
13.90757653863545
 20
3.081340512259348
 30
0.0
 10
13.91907707042098
 20
3.11904723793932
 30
0.0
  0
ARC
  5
B5
330
1F
100
AcDbEntity
  8
0
  6
Continuous
 62
     7
370
    25
100
AcDbCircle
 10
10.909729099
 20
4.0368968092
 30
0.0
 40
3.146207724932867
100
AcDbArc
 50
343.0383212873
 51
346.0940463338
  0
SPLINE
  5
B6
330
1F
100
AcDbEntity
  8
0
  6
Continuous
 62
     7
370
    25
100
AcDbSpline
210
0.0
220
0.0
230
1.0
 70
     8
 71
     3
 72
    11
 73
     7
 74
     0
 42
0.00000001
 43
0.00000001
 40
0.0001040952780122
 40
0.0001040952780122
 40
0.0001040952780122
 40
0.0001040952780122
 40
0.2500780714585091
 40
0.5000520476390061
 40
0.7500260238195031
 40
1.0
 40
1.0
 40
1.0
 40
1.0
 10
13.96372623883912
 20
3.280772137989287
 30
0.0
 10
13.97120312225724
 20
3.310971364972978
 30
0.0
 10
13.98453888054583
 20
3.371784229346553
 30
0.0
 10
13.99964769952276
 20
3.463925686271192
 30
0.0
 10
14.00982831917024
 20
3.556684205537379
 30
0.0
 10
14.01331309605736
 20
3.618643893226481
 30
0.0
 10
14.01422998846396
 20
3.649661764969182
 30
0.0
  0
SPLINE
  5
B7
330
1F
100
AcDbEntity
  8
0
  6
Continuous
 62
     7
370
    25
100
AcDbSpline
210
0.0
220
0.0
230
1.0
 70
     8
 71
     3
 72
    10
 73
     6
 74
     0
 42
0.00000001
 43
0.00000001
 40
0.0
 40
0.0
 40
0.0
 40
0.0
 40
0.25
 40
0.5
 40
0.5558067660874263
 40
0.5558067660874263
 40
0.5558067660874263
 40
0.5558067660874263
 10
14.01422998846396
 20
3.649661764969181
 30
0.0
 10
14.01519485610785
 20
3.682303258364451
 30
0.0
 10
14.01672603845143
 20
3.747554635159037
 30
0.0
 10
14.01755625484612
 20
3.8202996234707
 30
0.0
 10
14.01772068982999
 20
3.860352595809389
 30
0.0
 10
14.01774097505342
 20
3.867662902787921
 30
0.0
  0
ARC
  5
B8
330
1F
100
AcDbEntity
  8
0
  6
Continuous
 62
     7
370
    25
100
AcDbCircle
 10
13.817741745
 20
3.8682178766
 30
0.0
 40
0.1999999999999992
100
AcDbArc
 50
359.8410115049
 51
45.0
  0
LINE
  5
B9
330
1F
100
AcDbEntity
  8
0
  6
Continuous
 62
     7
370
    25
100
AcDbLine
 10
13.9168800663
 20
4.0519222679
 30
0.0
 11
13.9591631013
 21
4.0096392329
 31
0.0
  0
ARC
  5
BA
330
1F
100
AcDbEntity
  8
0
  6
Continuous
 62
     7
370
    25
100
AcDbCircle
 10
14.0583014225
 20
4.1933436241
 30
0.0
 40
0.2000000000000002
100
AcDbArc
 50
180.0
 51
225.0
  0
LINE
  5
BB
330
1F
100
AcDbEntity
  8
0
  6
Continuous
 62
     7
370
    25
100
AcDbLine
 10
13.8583014225
 20
4.1933436241
 30
0.0
 11
13.8583014225
 21
4.3526581992
 31
0.0
  0
ARC
  5
BC
330
1F
100
AcDbEntity
  8
0
  6
Continuous
 62
     7
370
    25
100
AcDbCircle
 10
14.0583014225
 20
4.3526581992
 30
0.0
 40
0.2000000000000015
100
AcDbArc
 50
135.0
 51
180.0
  0
LINE
  5
BD
330
1F
100
AcDbEntity
  8
0
  6
Continuous
 62
     7
370
    25
100
AcDbLine
 10
13.9168800663
 20
4.4940795554
 30
0.0
 11
13.940188512
 21
4.5173880011
 31
0.0
  0
ARC
  5
BE
330
1F
100
AcDbEntity
  8
0
  6
Continuous
 62
     7
370
    25
100
AcDbCircle
 10
13.7987671557
 20
4.6588093574
 30
0.0
 40
0.2000000000000015
100
AcDbArc
 50
315.0
 51
1.6262069422
  0
SPLINE
  5
BF
330
1F
100
AcDbEntity
  8
0
  6
Continuous
 62
     7
370
    25
100
AcDbSpline
210
0.0
220
0.0
230
1.0
 70
     8
 71
     3
 72
    10
 73
     6
 74
     0
 42
0.00000001
 43
0.00000001
 40
0.3645847333358016
 40
0.3645847333358016
 40
0.3645847333358016
 40
0.3645847333358016
 40
0.500004478968141
 40
0.7500083389609603
 40
1.00001219895378
 40
1.00001219895378
 40
1.00001219895378
 40
1.00001219895378
 10
13.99868660358081
 20
4.664485128340464
 30
0.0
 10
13.9979903508366
 20
4.689009455476815
 30
0.0
 10
13.99601005013782
 20
4.758811753600135
 30
0.0
 10
13.9927598113233
 20
4.873900224016069
 30
0.0
 10
13.99023236066077
 20
4.964482567757083
 30
0.0
 10
13.98898026255666
 20
5.009771533732525
 30
0.0
  0
SPLINE
  5
C0
330
1F
100
AcDbEntity
  8
0
  6
Continuous
 62
     7
370
    25
100
AcDbSpline
210
0.0
220
0.0
230
1.0
 70
     8
 71
     3
 72
     9
 73
     5
 74
     0
 42
0.00000001
 43
0.00000001
 40
-0.0000044389299149
 40
-0.0000044389299149
 40
-0.0000044389299149
 40
-0.0000044389299149
 40
0.2499971410861153
 40
0.3388376350832439
 40
0.3388376350832439
 40
0.3388376350832439
 40
0.3388376350832439
 10
13.98898026255666
 20
5.009771533732525
 30
0.0
 10
13.98554410245124
 20
5.13417827903986
 30
0.0
 10
13.9809728367889
 20
5.302783398185823
 30
0.0
 10
13.97657821853645
 20
5.471428914569143
 30
0.0
 10
13.97543964178208
 20
5.515648817655229
 30
0.0
  0
ARC
  5
C1
330
1F
100
AcDbEntity
  8
0
  6
Continuous
 62
     7
370
    25
100
AcDbCircle
 10
13.7755059051
 20
5.5105009116
 30
0.0
 40
0.2000000000000011
100
AcDbArc
 50
1.4749293326
 51
90.0
  0
LINE
  5
C2
330
1F
100
AcDbEntity
  8
0
  6
Continuous
 62
     7
370
    25
100
AcDbLine
 10
13.7755059051
 20
5.7105009116
 30
0.0
 11
11.846618055
 21
5.7105009116
 31
0.0
  0
ARC
  5
C3
330
1F
100
AcDbEntity
  8
0
  6
Continuous
 62
     7
370
    25
100
AcDbCircle
 10
11.846618055
 20
5.9105009116
 30
0.0
 40
0.2000000000000002
100
AcDbArc
 50
225.0
 51
270.0
  0
LINE
  5
C4
330
1F
100
AcDbEntity
  8
0
  6
Continuous
 62
     7
370
    25
100
AcDbLine
 10
11.7051966987
 20
5.7690795554
 30
0.0
 11
11.0177135933
 21
6.4565626608
 31
0.0
  0
ARC
  5
C5
330
1F
100
AcDbEntity
  8
0
  6
Continuous
 62
     7
370
    25
100
AcDbCircle
 10
10.5869986472
 20
6.7105009116
 30
0.0
 40
0.5000000000000004
100
AcDbArc
 50
329.4775121859
 51
210.5224878141
  0
LINE
  5
C6
330
1F
100
AcDbEntity
  8
0
  6
Continuous
 62
     7
370
    25
100
AcDbLine
 10
9.4688005957
 20
5.7690795554
 30
0.0
 11
10.1562837011
 21
6.4565626608
 31
0.0
  0
ARC
  5
C7
330
1F
100
AcDbEntity
  8
0
  6
Continuous
 62
     7
370
    25
100
AcDbCircle
 10
9.3273792394
 20
5.9105009116
 30
0.0
 40
0.2000000000000002
100
AcDbArc
 50
270.0
 51
315.0
  0
LINE
  5
C8
330
1F
100
AcDbEntity
  8
0
  6
Continuous
 62
     7
370
    25
100
AcDbLine
 10
7.3984912517
 20
5.7105009116
 30
0.0
 11
9.3273792394
 21
5.7105009116
 31
0.0
  0
ARC
  5
C9
330
1F
100
AcDbEntity
  8
0
  6
Continuous
 62
     7
370
    25
100
AcDbCircle
 10
7.3984912517
 20
5.5105009116
 30
0.0
 40
0.1999999999999998
100
AcDbArc
 50
90.0
 51
178.5250706674
  0
SPLINE
  5
CA
330
1F
100
AcDbEntity
  8
0
  6
Continuous
 62
     7
370
    25
100
AcDbSpline
210
0.0
220
0.0
230
1.0
 70
     8
 71
     3
 72
     9
 73
     5
 74
     0
 42
0.00000001
 43
0.00000001
 40
0.6611598066861933
 40
0.6611598066861933
 40
0.6611598066861933
 40
0.6611598066861933
 40
0.7500003007545168
 40
1.000001880624343
 40
1.000001880624343
 40
1.000001880624343
 40
1.000001880624343
 10
7.198557515047819
 20
5.515648817655259
 30
0.0
 10
7.197418938292526
 20
5.471428914533721
 30
0.0
 10
7.193024320040978
 20
5.30278339818764
 30
0.0
 10
7.188453054379725
 20
5.134178279078932
 30
0.0
 10
7.185016894276316
 20
5.009771533844298
 30
0.0
  0
SPLINE
  5
CB
330
1F
100
AcDbEntity
  8
0
  6
Continuous
 62
     7
370
    25
100
AcDbSpline
210
0.0
220
0.0
230
1.0
 70
     8
 71
     3
 72
    10
 73
     6
 74
     0
 42
0.00000001
 43
0.00000001
 40
-0.0000032419574563
 40
-0.0000032419574563
 40
-0.0000032419574563
 40
-0.0000032419574563
 40
0.2500006183218442
 40
0.5000044786011445
 40
0.6354239777137524
 40
0.6354239777137524
 40
0.6354239777137524
 40
0.6354239777137524
 10
7.185016894276316
 20
5.009771533844298
 30
0.0
 10
7.183764796170768
 20
4.964482567817024
 30
0.0
 10
7.181237345505354
 20
4.873900223972392
 30
0.0
 10
7.177987107948866
 20
4.758811798102218
 30
0.0
 10
7.176006808520865
 20
4.689009544569605
 30
0.0
 10
7.175310557045823
 20
4.664485262074295
 30
0.0
  0
ARC
  5
CC
330
1F
100
AcDbEntity
  8
0
  6
Continuous
 62
     7
370
    25
100
AcDbCircle
 10
7.3752300049
 20
4.6588094911
 30
0.0
 40
0.2000000000000013
100
AcDbArc
 50
178.373793062
 51
225.0
  0
LINE
  5
CD
330
1F
100
AcDbEntity
  8
0
  6
Continuous
 62
     7
370
    25
100
AcDbLine
 10
7.2571172281
 20
4.4940795554
 30
0.0
 11
7.2338086486
 21
4.5173881349
 31
0.0
  0
ARC
  5
CE
330
1F
100
AcDbEntity
  8
0
  6
Continuous
 62
     7
370
    25
100
AcDbCircle
 10
7.1156958719
 20
4.3526581992
 30
0.0
 40
0.2000000000000002
100
AcDbArc
 50
0.0
 51
45.0
  0
LINE
  5
CF
330
1F
100
AcDbEntity
  8
0
  6
Continuous
 62
     7
370
    25
100
AcDbLine
 10
7.3156958719
 20
4.1933436241
 30
0.0
 11
7.3156958719
 21
4.3526581992
 31
0.0
  0
ARC
  5
D0
330
1F
100
AcDbEntity
  8
0
  6
Continuous
 62
     7
370
    25
100
AcDbCircle
 10
7.1156958719
 20
4.1933436241
 30
0.0
 40
0.2000000000000002
100
AcDbArc
 50
315.0
 51
0.0
  0
LINE
  5
D1
330
1F
100
AcDbEntity
  8
0
  6
Continuous
 62
     7
370
    25
100
AcDbLine
 10
7.2571172281
 20
4.0519222679
 30
0.0
 11
7.21483377
 21
4.0096388097
 31
0.0
  0
ARC
  5
D2
330
1F
100
AcDbEntity
  8
0
  6
Continuous
 62
     7
370
    25
100
AcDbCircle
 10
7.3562551262
 20
3.8682174535
 30
0.0
 40
0.1999999999999994
100
AcDbArc
 50
135.0
 51
180.1589915095
  0
SPLINE
  5
D3
330
1F
100
AcDbEntity
  8
0
  6
Continuous
 62
     7
370
    25
100
AcDbSpline
210
0.0
220
0.0
230
1.0
 70
     8
 71
     3
 72
    10
 73
     6
 74
     0
 42
0.00000001
 43
0.00000001
 40
0.4441943373989548
 40
0.4441943373989548
 40
0.4441943373989548
 40
0.4441943373989548
 40
0.5
 40
0.75
 40
1.0
 40
1.0
 40
1.0
 40
1.0
 10
7.156255896225968
 20
3.867662469140371
 30
0.0
 10
7.156276181432769
 20
3.860352306751721
 30
0.0
 10
7.15644061687822
 20
3.820299479044517
 30
0.0
 10
7.157270831624611
 20
3.747554635159161
 30
0.0
 10
7.158802013968197
 20
3.682303258364542
 30
0.0
 10
7.159766881612089
 20
3.649661764969267
 30
0.0
  0
SPLINE
  5
D4
330
1F
100
AcDbEntity
  8
0
  6
Continuous
 62
     7
370
    25
100
AcDbSpline
210
0.0
220
0.0
230
1.0
 70
     8
 71
     3
 72
    11
 73
     7
 74
     0
 42
0.00000001
 43
0.00000001
 40
0.0001040952780123
 40
0.0001040952780123
 40
0.0001040952780123
 40
0.0001040952780123
 40
0.2500780714585091
 40
0.5000520476390061
 40
0.7500260238195031
 40
1.0
 40
1.0
 40
1.0
 40
1.0
 10
7.159766881612089
 20
3.649661764969267
 30
0.0
 10
7.160683774018683
 20
3.618643893226552
 30
0.0
 10
7.164168550905831
 20
3.556684205537413
 30
0.0
 10
7.174349170553276
 20
3.463925686271248
 30
0.0
 10
7.189457989530209
 20
3.3717842293466
 30
0.0
 10
7.202793747818811
 20
3.310971364973025
 30
0.0
 10
7.210270631236925
 20
3.280772137989334
 30
0.0
  0
ARC
  5
D5
330
1F
100
AcDbEntity
  8
0
  6
Continuous
 62
     7
370
    25
100
AcDbCircle
 10
10.2642677711
 20
4.0368968092
 30
0.0
 40
3.146207724932866
100
AcDbArc
 50
193.9059536662
 51
196.9616787127
  0
SPLINE
  5
D6
330
1F
100
AcDbEntity
  8
0
  6
Continuous
 62
     7
370
    25
100
AcDbSpline
210
0.0
220
0.0
230
1.0
 70
     8
 71
     3
 72
    11
 73
     7
 74
     0
 42
0.00000001
 43
0.00000001
 40
0.0000021917919593
 40
0.0000021917919593
 40
0.0000021917919593
 40
0.0000021917919593
 40
0.2411095344217524
 40
0.4822168770515456
 40
0.7233242196813388
 40
0.9644315623111319
 40
0.9644315623111319
 40
0.9644315623111319
 40
0.9644315623111319
 10
7.254919799655076
 20
3.119047237939354
 30
0.0
 10
7.266420331473471
 20
3.081340512151608
 30
0.0
 10
7.290832702856529
 20
3.006362819327994
 30
0.0
 10
7.331656066472674
 20
2.895276946803986
 30
0.0
 10
7.376611953003325
 20
2.785776571869467
 30
0.0
 10
7.409296180113484
 20
2.713942874282953
 30
0.0
 10
7.426304260227073
 20
2.678348994518248
 30
0.0
  0
SPLINE
  5
D7
330
1F
100
AcDbEntity
  8
0
  6
Continuous
 62
     7
370
    25
100
AcDbSpline
210
0.0
220
0.0
230
1.0
 70
     8
 71
     3
 72
    11
 73
     7
 74
     0
 42
0.00000001
 43
0.00000001
 40
0.000001450608821
 40
0.000001450608821
 40
0.000001450608821
 40
0.000001450608821
 40
0.2500006767276082
 40
0.4999999028463955
 40
0.7499991289651828
 40
0.9999983550839701
 40
0.9999983550839701
 40
0.9999983550839701
 40
0.9999983550839701
 10
7.426304260227073
 20
2.678348994518247
 30
0.0
 10
7.449847361377085
 20
2.629079497703202
 30
0.0
 10
7.499535110407241
 20
2.531808767504596
 30
0.0
 10
7.581790758053877
 20
2.389824680621087
 30
0.0
 10
7.671472183497108
 20
2.252302688016586
 30
0.0
 10
7.736067249473807
 20
2.163844618217063
 30
0.0
 10
7.769503241701055
 20
2.120518618261815
 30
0.0
  0
SPLINE
  5
D8
330
1F
100
AcDbEntity
  8
0
  6
Continuous
 62
     7
370
    25
100
AcDbSpline
210
0.0
220
0.0
230
1.0
 70
     8
 71
     3
 72
    11
 73
     7
 74
     0
 42
0.00000001
 43
0.00000001
 40
0.01297638648703
 40
0.01297638648703
 40
0.01297638648703
 40
0.01297638648703
 40
0.2597298824005358
 40
0.5064833783140418
 40
0.7532368742275477
 40
0.9999903701410536
 40
0.9999903701410536
 40
0.9999903701410536
 40
0.9999903701410536
 10
7.769503241701055
 20
2.120518618261816
 30
0.0
 10
7.774499824054574
 20
2.114044160711303
 30
0.0
 10
7.784543054899093
 20
2.101158811726988
 30
0.0
 10
7.799864474287004
 20
2.081881357698358
 30
0.0
 10
7.815403506116656
 20
2.06270156363064
 30
0.0
 10
7.825931826251425
 20
2.04994936209646
 30
0.0
 10
7.831218492672666
 20
2.043605156242076
 30
0.0
  0
ARC
  5
D9
330
1F
100
AcDbEntity
  8
0
  6
Continuous
 62
     7
370
    25
100
AcDbCircle
 10
10.2602161488
 20
4.0677040964
 30
0.0
 40
3.161804252852332
100
AcDbArc
 50
219.8046554547
 51
220.7213847148
  0
SPLINE
  5
DA
330
1F
100
AcDbEntity
  8
0
  6
Continuous
 62
     7
370
    25
100
AcDbSpline
210
0.0
220
0.0
230
1.0
 70
     8
 71
     3
 72
    11
 73
     7
 74
     0
 42
0.00000001
 43
0.00000001
 40
-0.0000211883677588
 40
-0.0000211883677588
 40
-0.0000211883677588
 40
-0.0000211883677588
 40
0.2499800503547618
 40
0.4999812890772823
 40
0.7499825277998029
 40
0.9999837665223235
 40
0.9999837665223235
 40
0.9999837665223235
 40
0.9999837665223235
 10
7.863913483375356
 20
2.00500206539787
 30
0.0
 10
7.914170616645775
 20
1.946625049660122
 30
0.0
 10
8.01889692415107
 20
1.833604268228002
 30
0.0
 10
8.188439328243055
 20
1.675368895305599
 30
0.0
 10
8.36921086955101
 20
1.529647247984599
 30
0.0
 10
8.496671193693297
 20
1.441359130697447
 30
0.0
 10
8.561881460125903
 20
1.399634352868045
 30
0.0
  0
ARC
  5
DB
330
1F
100
AcDbEntity
  8
0
  6
Continuous
 62
     7
370
    25
100
AcDbCircle
 10
10.0839149747
 20
3.7778718507
 30
0.0
 40
2.823579220706263
100
AcDbArc
 50
237.3814146704
 51
237.7335807921
  0
SPLINE
  5
DC
330
1F
100
AcDbEntity
  8
0
  6
Continuous
 62
     7
370
    25
100
AcDbSpline
210
0.0
220
0.0
230
1.0
 70
     8
 71
     3
 72
    11
 73
     7
 74
     0
 42
0.00000001
 43
0.00000001
 40
0.0000137866441329
 40
0.0000137866441329
 40
0.0000137866441329
 40
0.0000137866441329
 40
0.2493427669774484
 40
0.4986717473107638
 40
0.7480007276440792
 40
0.9973297079773947
 40
0.9973297079773947
 40
0.9973297079773947
 40
0.9973297079773947
 10
8.576527856108864
 20
1.390324219701528
 30
0.0
 10
8.62353676150775
 20
1.360644971615527
 30
0.0
 10
8.718869347830388
 20
1.30341926264969
 30
0.0
 10
8.865809138273022
 20
1.223997273774682
 30
0.0
 10
9.016262587867557
 20
1.151266697145486
 30
0.0
 10
9.118727623913182
 20
1.10735996732018
 30
0.0
 10
9.170420864232403
 20
1.086595668265902
 30
0.0
  0
SPLINE
  5
DD
330
1F
100
AcDbEntity
  8
0
  6
Continuous
 62
     7
370
    25
100
AcDbSpline
210
0.0
220
0.0
230
1.0
 70
     8
 71
     3
 72
    10
 73
     6
 74
     0
 42
0.00000001
 43
0.00000001
 40
0.0001824653674686
 40
0.0001824653674686
 40
0.0001824653674686
 40
0.0001824653674686
 40
0.2501352444502944
 40
0.5000880235331202
 40
0.5659463386278454
 40
0.5659463386278454
 40
0.5659463386278454
 40
0.5659463386278454
 10
9.170420864232403
 20
1.086595668265902
 30
0.0
 10
9.282048241420945
 20
1.041762288028697
 30
0.0
 10
9.509481693428068
 20
0.9629909507897159
 30
0.0
 10
9.775647798769139
 20
0.898589832603074
 30
0.0
 10
9.926197174304514
 20
0.8716367193637461
 30
0.0
 10
9.957669327258957
 20
0.8664083175116978
 30
0.0
  0
ARC
  5
DE
330
1F
100
AcDbEntity
  8
0
  6
Continuous
 62
     7
370
    25
100
AcDbCircle
 10
9.9904456915
 20
1.0637043133
 30
0.0
 40
0.2000000000000017
100
AcDbArc
 50
260.5677166355
 51
315.0
  0
LINE
  5
DF
330
1F
100
AcDbEntity
  8
0
  6
Continuous
 62
     7
370
    25
100
AcDbLine
 10
10.3659200034
 20
1.1563359127
 30
0.0
 11
10.1318670478
 21
0.922282957
 31
0.0
  0
ARC
  5
E0
330
1F
100
AcDbEntity
  8
0
  6
Continuous
 62
     7
370
    25
100
AcDbCircle
 10
10.5073413597
 20
1.0149145565
 30
0.0
 40
0.2000000000000005
100
AcDbArc
 50
90.0
 51
135.0
  0
LINE
  5
E1
330
1F
100
AcDbEntity
  8
0
  6
Continuous
 62
     7
370
    25
100
AcDbLine
 10
10.6666559347
 20
1.2149145565
 30
0.0
 11
10.5073413597
 21
1.2149145565
 31
0.0
  0
ARC
  5
E2
330
1F
100
AcDbEntity
  8
0
  6
Continuous
 62
     7
370
    25
100
AcDbCircle
 10
9.2031151707
 20
6.2105009116
 30
0.0
 40
0.200000000000002
100
AcDbArc
 50
270.0
 51
315.0
  0
LINE
  5
E3
330
1F
100
AcDbEntity
  8
0
  6
Continuous
 62
     7
370
    25
100
AcDbLine
 10
9.3445365269
 20
6.0690795554
 30
0.0
 11
9.734493211
 21
6.4590362395
 31
0.0
  0
ARC
  5
E4
330
1F
100
AcDbEntity
  8
0
  6
Continuous
 62
     7
370
    25
100
AcDbCircle
 10
9.5930718548
 20
6.6004575957
 30
0.0
 40
0.1999999999999996
100
AcDbArc
 50
315.0
 51
6.3178125465
  0
ARC
  5
E5
330
1F
100
AcDbEntity
  8
0
  6
Continuous
 62
     7
370
    25
100
AcDbCircle
 10
10.5869986472
 20
6.7105009116
 30
0.0
 40
0.8000000000000006
100
AcDbArc
 50
134.4270040008
 51
186.3178125465
  0
ARC
  5
E6
330
1F
100
AcDbEntity
  8
0
  6
Continuous
 62
     7
370
    25
100
AcDbCircle
 10
9.8869986472
 20
7.4246437545
 30
0.0
 40
0.1999999999999996
100
AcDbArc
 50
314.4270040008
 51
0.0
  0
LINE
  5
E7
330
1F
100
AcDbEntity
  8
0
  6
Continuous
 62
     7
370
    25
100
AcDbLine
 10
10.0869986472
 20
7.5900284398
 30
0.0
 11
10.0869986472
 21
7.4246437545
 31
0.0
  0
ARC
  5
E8
330
1F
100
AcDbEntity
  8
0
  6
Continuous
 62
     7
370
    25
100
AcDbCircle
 10
9.8869986472
 20
7.5900284398
 30
0.0
 40
0.2
100
AcDbArc
 50
0.0
 51
91.2682558561
  0
SPLINE
  5
E9
330
1F
100
AcDbEntity
  8
0
  6
Continuous
 62
     7
370
    25
100
AcDbSpline
210
0.0
220
0.0
230
1.0
 70
     8
 71
     3
 72
    10
 73
     6
 74
     0
 42
0.00000001
 43
0.00000001
 40
0.4452426874301088
 40
0.4452426874301088
 40
0.4452426874301088
 40
0.4452426874301088
 40
0.4944233621582763
 40
0.7416359764119573
 40
0.9888485906656385
 40
0.9888485906656385
 40
0.9888485906656385
 40
0.9888485906656385
 10
9.88257196060887
 20
7.789979444915126
 30
0.0
 10
9.856739045537038
 20
7.789407533719308
 30
0.0
 10
9.701110127232099
 20
7.786072581081946
 30
0.0
 10
9.416169144896337
 20
7.781182202924752
 30
0.0
 10
9.158348784077841
 20
7.778563722463768
 30
0.0
 10
9.029265220830847
 20
7.777697767423827
 30
0.0
  0
SPLINE
  5
EA
330
1F
100
AcDbEntity
  8
0
  6
Continuous
 62
     7
370
    25
100
AcDbSpline
210
0.0
220
0.0
230
1.0
 70
     8
 71
     3
 72
    11
 73
     7
 74
     0
 42
0.00000001
 43
0.00000001
 40
0.0018972923257021
 40
0.0018972923257021
 40
0.0018972923257021
 40
0.0018972923257021
 40
0.2514271079629613
 40
0.5009569236002205
 40
0.7504867392374797
 40
1.000016554874739
 40
1.000016554874739
 40
1.000016554874739
 40
1.000016554874739
 10
9.029265220830847
 20
7.777697767423827
 30
0.0
 10
9.014543391921952
 20
7.777599176623415
 30
0.0
 10
8.985062130321934
 20
7.777420591913429
 30
0.0
 10
8.941064857388259
 20
7.777197858728845
 30
0.0
 10
8.897180041069884
 20
7.777006803373735
 30
0.0
 10
8.868073772385463
 20
7.776892450534882
 30
0.0
 10
8.853501843530104
 20
7.776836217825219
 30
0.0
  0
ARC
  5
EB
330
1F
100
AcDbEntity
  8
0
  6
Continuous
 62
     7
370
    25
100
AcDbCircle
 10
8.7758475051
 20
27.8998838475
 30
0.0
 40
20.12319746216939
100
AcDbArc
 50
270.0434296079
 51
270.2211018852
  0
SPLINE
  5
EC
330
1F
100
AcDbEntity
  8
0
  6
Continuous
 62
     7
370
    25
100
AcDbSpline
210
0.0
220
0.0
230
1.0
 70
     8
 71
     3
 72
    11
 73
     7
 74
     0
 42
0.00000001
 43
0.00000001
 40
-0.0000043281257273
 40
-0.0000043281257273
 40
-0.0000043281257273
 40
-0.0000043281257273
 40
0.2497021991624176
 40
0.4994087264505625
 40
0.7491152537387074
 40
0.9988217810268523
 40
0.9988217810268523
 40
0.9988217810268523
 40
0.9988217810268523
 10
8.79110067904131
 20
7.776692166180624
 30
0.0
 10
8.778039862296684
 20
7.776682266214814
 30
0.0
 10
8.75191165419606
 20
7.776714123008762
 30
0.0
 10
8.71275889425309
 20
7.776914611454568
 30
0.0
 10
8.673623499936223
 20
7.777265518981342
 30
0.0
 10
8.647551835314502
 20
7.777598109435214
 30
0.0
 10
8.634514180319691
 20
7.777788762653831
 30
0.0
  0
SPLINE
  5
ED
330
1F
100
AcDbEntity
  8
0
  6
Continuous
 62
     7
370
    25
100
AcDbSpline
210
0.0
220
0.0
230
1.0
 70
     8
 71
     3
 72
    11
 73
     7
 74
     0
 42
0.00000001
 43
0.00000001
 40
-0.0000281223457175
 40
-0.0000281223457175
 40
-0.0000281223457175
 40
-0.0000281223457175
 40
0.2499801587784369
 40
0.4999884399025913
 40
0.7499967210267457
 40
1.0000050021509
 40
1.0000050021509
 40
1.0000050021509
 40
1.0000050021509
 10
8.634514180319691
 20
7.777788762653831
 30
0.0
 10
8.62539779778788
 20
7.777922097569229
 30
0.0
 10
8.607146374966925
 20
7.778100000807219
 30
0.0
 10
8.579871413663696
 20
7.778097062634509
 30
0.0
 10
8.552653431485313
 20
7.777823267188435
 30
0.0
 10
8.534588616630481
 20
7.777459966372942
 30
0.0
 10
8.525547702135276
 20
7.777232222985639
 30
0.0
  0
SPLINE
  5
EE
330
1F
100
AcDbEntity
  8
0
  6
Continuous
 62
     7
370
    25
100
AcDbSpline
210
0.0
220
0.0
230
1.0
 70
     8
 71
     3
 72
    11
 73
     7
 74
     0
 42
0.00000001
 43
0.00000001
 40
-0.0001242696492
 40
-0.0001242696492
 40
-0.0001242696492
 40
-0.0001242696492
 40
0.2499084291765258
 40
0.4999411280022515
 40
0.7499738268279772
 40
1.000006525653703
 40
1.000006525653703
 40
1.000006525653703
 40
1.000006525653703
 10
8.525547702135276
 20
7.777232222985639
 30
0.0
 10
8.486600129516741
 20
7.776251685928128
 30
0.0
 10
8.408568572645622
 20
7.772604830200036
 30
0.0
 10
8.292880007481333
 20
7.762206691076056
 30
0.0
 10
8.178507995141914
 20
7.746931590266098
 30
0.0
 10
8.10410125656857
 20
7.733693077764823
 30
0.0
 10
8.066900057732727
 20
7.726228205049917
 30
0.0
  0
SPLINE
  5
EF
330
1F
100
AcDbEntity
  8
0
  6
Continuous
 62
     7
370
    25
100
AcDbSpline
210
0.0
220
0.0
230
1.0
 70
     8
 71
     3
 72
    11
 73
     7
 74
     0
 42
0.00000001
 43
0.00000001
 40
-0.0000018590125808
 40
-0.0000018590125808
 40
-0.0000018590125808
 40
-0.0000018590125808
 40
0.2500143329174823
 40
0.5000305248475454
 40
0.7500467167776085
 40
1.000062908707672
 40
1.000062908707672
 40
1.000062908707672
 40
1.000062908707672
 10
8.06690005773273
 20
7.72622820504992
 30
0.0
 10
8.008489440308434
 20
7.714523724952845
 30
0.0
 10
7.894228502352379
 20
7.680811173448129
 30
0.0
 10
7.730468592011727
 20
7.599087660046527
 30
0.0
 10
7.581618624071306
 20
7.488803962409951
 30
0.0
 10
7.495195131184678
 20
7.397856354107219
 30
0.0
 10
7.456426801637694
 20
7.349293940034756
 30
0.0
  0
SPLINE
  5
F0
330
1F
100
AcDbEntity
  8
0
  6
Continuous
 62
     7
370
    25
100
AcDbSpline
210
0.0
220
0.0
230
1.0
 70
     8
 71
     3
 72
    11
 73
     7
 74
     0
 42
0.00000001
 43
0.00000001
 40
-0.0000012887574157
 40
-0.0000012887574157
 40
-0.0000012887574157
 40
-0.0000012887574157
 40
0.2500002533036184
 40
0.5000017953646525
 40
0.7500033374256866
 40
1.000004879486721
 40
1.000004879486721
 40
1.000004879486721
 40
1.000004879486721
 10
7.456426801637694
 20
7.349293940034754
 30
0.0
 10
7.441661842757403
 20
7.330799202233894
 30
0.0
 10
7.413426541314497
 20
7.292903148002924
 30
0.0
 10
7.374548575147188
 20
7.232825939958443
 30
0.0
 10
7.339620131546265
 20
7.170161163837796
 30
0.0
 10
7.319113497760895
 20
7.126925594827796
 30
0.0
 10
7.309587190959727
 20
7.10500217165192
 30
0.0
  0
SPLINE
  5
F1
330
1F
100
AcDbEntity
  8
0
  6
Continuous
 62
     7
370
    25
100
AcDbSpline
210
0.0
220
0.0
230
1.0
 70
     8
 71
     3
 72
    11
 73
     7
 74
     0
 42
0.00000001
 43
0.00000001
 40
0.0
 40
0.0
 40
0.0
 40
0.0
 40
0.2500009361057172
 40
0.5000018722114343
 40
0.7500028083171515
 40
1.000003744422869
 40
1.000003744422869
 40
1.000003744422869
 40
1.000003744422869
 10
7.309587190959727
 20
7.10500217165192
 30
0.0
 10
7.306373239759695
 20
7.097605769570878
 30
0.0
 10
7.300124705585188
 20
7.082741296648415
 30
0.0
 10
7.291273171514527
 20
7.060191784910347
 30
0.0
 10
7.282957168144457
 20
7.037424978204906
 30
0.0
 10
7.277772905660123
 20
7.022110351326888
 30
0.0
 10
7.275272646388543
 20
7.014424714732538
 30
0.0
  0
SPLINE
  5
F2
330
1F
100
AcDbEntity
  8
0
  6
Continuous
 62
     7
370
    25
100
AcDbSpline
210
0.0
220
0.0
230
1.0
 70
     8
 71
     3
 72
    11
 73
     7
 74
     0
 42
0.00000001
 43
0.00000001
 40
-0.0000089743987769
 40
-0.0000089743987769
 40
-0.0000089743987769
 40
-0.0000089743987769
 40
0.2499932692009174
 40
0.4999955128006116
 40
0.7499977564003057
 40
1.0
 40
1.0
 40
1.0
 40
1.0
 10
7.275272646388543
 20
7.014424714732538
 30
0.0
 10
7.269228680783207
 20
6.99584597906573
 30
0.0
 10
7.258293664906489
 20
6.95835539945575
 30
0.0
 10
7.245275611820007
 20
6.900940559750639
 30
0.0
 10
7.235738565579998
 20
6.842744191604282
 30
0.0
 10
7.23172327383032
 20
6.803585920168739
 30
0.0
 10
7.230307183123288
 20
6.78397461476298
 30
0.0
  0
SPLINE
  5
F3
330
1F
100
AcDbEntity
  8
0
  6
Continuous
 62
     7
370
    25
100
AcDbSpline
210
0.0
220
0.0
230
1.0
 70
     8
 71
     3
 72
    11
 73
     7
 74
     0
 42
0.00000001
 43
0.00000001
 40
-0.0000018498654601
 40
-0.0000018498654601
 40
-0.0000018498654601
 40
-0.0000018498654601
 40
0.2500028864328643
 40
0.5000076227311887
 40
0.7500123590295131
 40
1.000017095327838
 40
1.000017095327838
 40
1.000017095327838
 40
1.000017095327838
 10
7.230307183123288
 20
6.783974614762982
 30
0.0
 10
7.229349539006229
 20
6.770714654413547
 30
0.0
 10
7.2276155843958
 20
6.744165954331224
 30
0.0
 10
7.225567724549884
 20
6.704402729345877
 30
0.0
 10
7.224071077722714
 20
6.664681952334838
 30
0.0
 10
7.223442182979774
 20
6.63830863808111
 30
0.0
 10
7.223219057625037
 20
6.625105780891619
 30
0.0
  0
SPLINE
  5
F4
330
1F
100
AcDbEntity
  8
0
  6
Continuous
 62
     7
370
    25
100
AcDbSpline
210
0.0
220
0.0
230
1.0
 70
     8
 71
     3
 72
    11
 73
     7
 74
     0
 42
0.00000001
 43
0.00000001
 40
-0.0000233193839347
 40
-0.0000233193839347
 40
-0.0000233193839347
 40
-0.0000233193839347
 40
0.2499832331282219
 40
0.4999897856403787
 40
0.7499963381525353
 40
1.000002890664692
 40
1.000002890664692
 40
1.000002890664692
 40
1.000002890664692
 10
7.223219057625037
 20
6.625105780891619
 30
0.0
 10
7.223049956985491
 20
6.615100513630249
 30
0.0
 10
7.222715802299217
 20
6.595145060385273
 30
0.0
 10
7.22220488623432
 20
6.56488114676153
 30
0.0
 10
7.221673453597255
 20
6.534452059708383
 30
0.0
 10
7.221294076001494
 20
6.513945772657521
 30
0.0
 10
7.221097319735822
 20
6.503720350700496
 30
0.0
  0
SPLINE
  5
F5
330
1F
100
AcDbEntity
  8
0
  6
Continuous
 62
     7
370
    25
100
AcDbSpline
210
0.0
220
0.0
230
1.0
 70
     8
 71
     3
 72
     8
 73
     4
 74
     0
 42
0.00000001
 43
0.00000001
 40
-0.000004438854962
 40
-0.000004438854962
 40
-0.000004438854962
 40
-0.000004438854962
 40
0.1931869475996926
 40
0.1931869475996926
 40
0.1931869475996926
 40
0.1931869475996926
 10
7.221097319735822
 20
6.503720350700496
 30
0.0
 10
7.219243220220202
 20
6.407418937859335
 30
0.0
 10
7.217270978496686
 20
6.311097326999832
 30
0.0
 10
7.215197098867234
 20
6.21480749030419
 30
0.0
  0
ARC
  5
F6
330
1F
100
AcDbEntity
  8
0
  6
Continuous
 62
     7
370
    25
100
AcDbCircle
 10
7.4151507269
 20
6.2105009116
 30
0.0
 40
0.1999999999999993
100
AcDbArc
 50
178.7661607319
 51
270.0
  0
LINE
  5
F7
330
1F
100
AcDbEntity
  8
0
  6
Continuous
 62
     7
370
    25
100
AcDbLine
 10
7.4151507269
 20
6.0105009116
 30
0.0
 11
9.2031151707
 21
6.0105009116
 31
0.0
  0
ARC
  5
F8
330
1F
100
AcDbEntity
  8
0
  6
Continuous
 62
     7
370
    25
100
AcDbCircle
 10
11.2869986472
 20
7.4246437545
 30
0.0
 40
0.2000000000000002
100
AcDbArc
 50
180.0
 51
225.5729959992
  0
ARC
  5
F9
330
1F
100
AcDbEntity
  8
0
  6
Continuous
 62
     7
370
    25
100
AcDbCircle
 10
10.5869986472
 20
6.7105009116
 30
0.0
 40
0.8000000000000003
100
AcDbArc
 50
353.6821874535
 51
45.5729959992
  0
ARC
  5
FA
330
1F
100
AcDbEntity
  8
0
  6
Continuous
 62
     7
370
    25
100
AcDbCircle
 10
11.5809254396
 20
6.6004575957
 30
0.0
 40
0.200000000000001
100
AcDbArc
 50
173.6821874535
 51
225.0
  0
LINE
  5
FB
330
1F
100
AcDbEntity
  8
0
  6
Continuous
 62
     7
370
    25
100
AcDbLine
 10
11.8294607674
 20
6.0690795554
 30
0.0
 11
11.4395040833
 21
6.4590362395
 31
0.0
  0
ARC
  5
FC
330
1F
100
AcDbEntity
  8
0
  6
Continuous
 62
     7
370
    25
100
AcDbCircle
 10
11.9708821237
 20
6.2105009116
 30
0.0
 40
0.200000000000002
100
AcDbArc
 50
225.0
 51
270.0
  0
LINE
  5
FD
330
1F
100
AcDbEntity
  8
0
  6
Continuous
 62
     7
370
    25
100
AcDbLine
 10
13.7588464299
 20
6.0105009116
 30
0.0
 11
11.9708821237
 21
6.0105009116
 31
0.0
  0
ARC
  5
FE
330
1F
100
AcDbEntity
  8
0
  6
Continuous
 62
     7
370
    25
100
AcDbCircle
 10
13.7588464299
 20
6.2105009116
 30
0.0
 40
0.200000000000002
100
AcDbArc
 50
270.0
 51
1.2338392679
  0
SPLINE
  5
FF
330
1F
100
AcDbEntity
  8
0
  6
Continuous
 62
     7
370
    25
100
AcDbSpline
210
0.0
220
0.0
230
1.0
 70
     8
 71
     3
 72
     8
 73
     4
 74
     0
 42
0.00000001
 43
0.00000001
 40
0.8068104941698054
 40
0.8068104941698054
 40
0.8068104941698054
 40
0.8068104941698054
 40
1.000001881134206
 40
1.000001881134206
 40
1.000001881134206
 40
1.000001881134206
 10
13.95880005796283
 20
6.214807490303718
 30
0.0
 10
13.95672617832815
 20
6.311097327252718
 30
0.0
 10
13.95475393659993
 20
6.407418938365478
 30
0.0
 10
13.95289983707944
 20
6.503720351460063
 30
0.0
  0
SPLINE
  5
100
330
1F
100
AcDbEntity
  8
0
  6
Continuous
 62
     7
370
    25
100
AcDbSpline
210
0.0
220
0.0
230
1.0
 70
     8
 71
     3
 72
    11
 73
     7
 74
     0
 42
0.00000001
 43
0.00000001
 40
-0.0000233130627865
 40
-0.0000233130627865
 40
-0.0000233130627865
 40
-0.0000233130627865
 40
0.2499832378413619
 40
0.4999897887455104
 40
0.7499963396496587
 40
1.000002890553807
 40
1.000002890553807
 40
1.000002890553807
 40
1.000002890553807
 10
13.95289983707944
 20
6.503720351460063
 30
0.0
 10
13.95270308081495
 20
6.51394577335595
 30
0.0
 10
13.95232370322245
 20
6.534452060289676
 30
0.0
 10
13.95179227058913
 20
6.564881147136393
 30
0.0
 10
13.95128135452766
 20
6.59514506056551
 30
0.0
 10
13.95094719984351
 20
6.615100513681524
 30
0.0
 10
13.95077809920506
 20
6.625105780878318
 30
0.0
  0
SPLINE
  5
101
330
1F
100
AcDbEntity
  8
0
  6
Continuous
 62
     7
370
    25
100
AcDbSpline
210
0.0
220
0.0
230
1.0
 70
     8
 71
     3
 72
    11
 73
     7
 74
     0
 42
0.00000001
 43
0.00000001
 40
-0.0000018499370244
 40
-0.0000018499370244
 40
-0.0000018499370244
 40
-0.0000018499370244
 40
0.250002886177764
 40
0.5000076222925524
 40
0.7500123584073408
 40
1.000017094522129
 40
1.000017094522129
 40
1.000017094522129
 40
1.000017094522129
 10
13.95077809920506
 20
6.625105780878318
 30
0.0
 10
13.95055497385048
 20
6.638308638058757
 30
0.0
 10
13.94992607910822
 20
6.664681952295586
 30
0.0
 10
13.94842943228316
 20
6.704402729274095
 30
0.0
 10
13.94638157243899
 20
6.744165954238988
 30
0.0
 10
13.94464761783327
 20
6.770714654280233
 30
0.0
 10
13.94368997371745
 20
6.783974614612516
 30
0.0
  0
SPLINE
  5
102
330
1F
100
AcDbEntity
  8
0
  6
Continuous
 62
     7
370
    25
100
AcDbSpline
210
0.0
220
0.0
230
1.0
 70
     8
 71
     3
 72
    11
 73
     7
 74
     0
 42
0.00000001
 43
0.00000001
 40
-0.0000089748219405
 40
-0.0000089748219405
 40
-0.0000089748219405
 40
-0.0000089748219405
 40
0.2499932688835446
 40
0.4999955125890297
 40
0.7499977562945148
 40
1.0
 40
1.0
 40
1.0
 40
1.0
 10
13.94368997371745
 20
6.783974614612516
 30
0.0
 10
13.9422738830086
 20
6.803585920043512
 30
0.0
 10
13.93825859126004
 20
6.842744191545827
 30
0.0
 10
13.92872154501996
 20
6.900940559697525
 30
0.0
 10
13.91570349193011
 20
6.958355399433006
 30
0.0
 10
13.90476847604923
 20
6.995845979057831
 30
0.0
 10
13.89872451044133
 20
7.01442471473252
 30
0.0
  0
SPLINE
  5
103
330
1F
100
AcDbEntity
  8
0
  6
Continuous
 62
     7
370
    25
100
AcDbSpline
210
0.0
220
0.0
230
1.0
 70
     8
 71
     3
 72
    11
 73
     7
 74
     0
 42
0.00000001
 43
0.00000001
 40
0.0
 40
0.0
 40
0.0
 40
0.0
 40
0.2500009350329135
 40
0.500001870065827
 40
0.7500028050987404
 40
1.000003740131654
 40
1.000003740131654
 40
1.000003740131654
 40
1.000003740131654
 10
13.89872451044133
 20
7.01442471473252
 30
0.0
 10
13.89622425118047
 20
7.022110351293907
 30
0.0
 10
13.89103998871711
 20
7.037424978110955
 30
0.0
 10
13.88272398539547
 20
7.06019178469994
 30
0.0
 10
13.87387245133455
 20
7.082741296417005
 30
0.0
 10
13.86762391727648
 20
7.0976057690961
 30
0.0
 10
13.86440996611748
 20
7.105002171082696
 30
0.0
  0
SPLINE
  5
104
330
1F
100
AcDbEntity
  8
0
  6
Continuous
 62
     7
370
    25
100
AcDbSpline
210
0.0
220
0.0
230
1.0
 70
     8
 71
     3
 72
    11
 73
     7
 74
     0
 42
0.00000001
 43
0.00000001
 40
-0.0000012902400845
 40
-0.0000012902400845
 40
-0.0000012902400845
 40
-0.0000012902400845
 40
0.2500002519898762
 40
0.500001794219837
 40
0.7500033364497978
 40
1.000004878679759
 40
1.000004878679759
 40
1.000004878679759
 40
1.000004878679759
 10
13.86440996611748
 20
7.105002171082696
 30
0.0
 10
13.85488365928397
 20
7.126925594333021
 30
0.0
 10
13.83437702543555
 20
7.170161163561825
 30
0.0
 10
13.79944858186423
 20
7.232825939655724
 30
0.0
 10
13.7605706156509
 20
7.292903147803959
 30
0.0
 10
13.73233531427019
 20
7.330799201986218
 30
0.0
 10
13.71757035540198
 20
7.34929393977195
 30
0.0
  0
SPLINE
  5
105
330
1F
100
AcDbEntity
  8
0
  6
Continuous
 62
     7
370
    25
100
AcDbSpline
210
0.0
220
0.0
230
1.0
 70
     8
 71
     3
 72
    11
 73
     7
 74
     0
 42
0.00000001
 43
0.00000001
 40
-0.000001859320149
 40
-0.000001859320149
 40
-0.000001859320149
 40
-0.000001859320149
 40
0.25001433268774
 40
0.5000305246956289
 40
0.7500467167035179
 40
1.000062908711407
 40
1.000062908711407
 40
1.000062908711407
 40
1.000062908711407
 10
13.71757035540198
 20
7.34929393977195
 30
0.0
 10
13.67880202582071
 20
7.397856353887367
 30
0.0
 10
13.59237853287365
 20
7.488803962328249
 30
0.0
 10
13.44352856491926
 20
7.59908765998296
 30
0.0
 10
13.27976865452757
 20
7.680811173433897
 30
0.0
 10
13.16550771653625
 20
7.714523724949858
 30
0.0
 10
13.10709709909324
 20
7.726228205050683
 30
0.0
  0
SPLINE
  5
106
330
1F
100
AcDbEntity
  8
0
  6
Continuous
 62
     7
370
    25
100
AcDbSpline
210
0.0
220
0.0
230
1.0
 70
     8
 71
     3
 72
    11
 73
     7
 74
     0
 42
0.00000001
 43
0.00000001
 40
-0.0001242696418299
 40
-0.0001242696418299
 40
-0.0001242696418299
 40
-0.0001242696418299
 40
0.2499084291820533
 40
0.4999411280059365
 40
0.7499738268298197
 40
1.000006525653703
 40
1.000006525653703
 40
1.000006525653703
 40
1.000006525653703
 10
13.10709709909324
 20
7.726228205050683
 30
0.0
 10
13.06989590025787
 20
7.733693077765492
 30
0.0
 10
12.99548916168563
 20
7.746931590266396
 30
0.0
 10
12.8811171493468
 20
7.762206691076231
 30
0.0
 10
12.76542858418341
 20
7.772604830200053
 30
0.0
 10
12.68739702731285
 20
7.776251685928115
 30
0.0
 10
12.6484494546946
 20
7.77723222298562
 30
0.0
  0
SPLINE
  5
107
330
1F
100
AcDbEntity
  8
0
  6
Continuous
 62
     7
370
    25
100
AcDbSpline
210
0.0
220
0.0
230
1.0
 70
     8
 71
     3
 72
    11
 73
     7
 74
     0
 42
0.00000001
 43
0.00000001
 40
-0.0000281223457175
 40
-0.0000281223457175
 40
-0.0000281223457175
 40
-0.0000281223457175
 40
0.2499801587784369
 40
0.4999884399025913
 40
0.7499967210267457
 40
1.0000050021509
 40
1.0000050021509
 40
1.0000050021509
 40
1.0000050021509
 10
12.6484494546946
 20
7.77723222298562
 30
0.0
 10
12.6394085401994
 20
7.777459966372921
 30
0.0
 10
12.62134372534456
 20
7.777823267188412
 30
0.0
 10
12.59412574316621
 20
7.778097062634487
 30
0.0
 10
12.56685078186295
 20
7.778100000807197
 30
0.0
 10
12.548599359042
 20
7.77792209756921
 30
0.0
 10
12.53948297651019
 20
7.777788762653811
 30
0.0
  0
SPLINE
  5
108
330
1F
100
AcDbEntity
  8
0
  6
Continuous
 62
     7
370
    25
100
AcDbSpline
210
0.0
220
0.0
230
1.0
 70
     8
 71
     3
 72
    11
 73
     7
 74
     0
 42
0.00000001
 43
0.00000001
 40
-0.0000043281257272
 40
-0.0000043281257272
 40
-0.0000043281257272
 40
-0.0000043281257272
 40
0.2497021991624176
 40
0.4994087264505625
 40
0.7491152537387074
 40
0.9988217810268523
 40
0.9988217810268523
 40
0.9988217810268523
 40
0.9988217810268523
 10
12.53948297651019
 20
7.777788762653811
 30
0.0
 10
12.52644532151538
 20
7.777598109435193
 30
0.0
 10
12.50037365689365
 20
7.777265518981322
 30
0.0
 10
12.4612382625768
 20
7.776914611454551
 30
0.0
 10
12.42208550263382
 20
7.776714123008745
 30
0.0
 10
12.3959572945332
 20
7.776682266214799
 30
0.0
 10
12.38289647778857
 20
7.776692166180609
 30
0.0
  0
ARC
  5
109
330
1F
100
AcDbEntity
  8
0
  6
Continuous
 62
     7
370
    25
100
AcDbCircle
 10
12.3981496517
 20
27.8998838475
 30
0.0
 40
20.12319746216939
100
AcDbArc
 50
269.7788981148
 51
269.9565703921
  0
SPLINE
  5
10A
330
1F
100
AcDbEntity
  8
0
  6
Continuous
 62
     7
370
    25
100
AcDbSpline
210
0.0
220
0.0
230
1.0
 70
     8
 71
     3
 72
    11
 73
     7
 74
     0
 42
0.00000001
 43
0.00000001
 40
0.0018972923257021
 40
0.0018972923257021
 40
0.0018972923257021
 40
0.0018972923257021
 40
0.251427108021389
 40
0.500956923717076
 40
0.750486739412763
 40
1.00001655510845
 40
1.00001655510845
 40
1.00001655510845
 40
1.00001655510845
 10
12.32049531329977
 20
7.776836217825198
 30
0.0
 10
12.30592338444099
 20
7.776892450534874
 30
0.0
 10
12.27681711574972
 20
7.777006803373756
 30
0.0
 10
12.2329322994211
 20
7.777197858728919
 30
0.0
 10
12.18893502647681
 20
7.777420591913571
 30
0.0
 10
12.15945376487037
 20
7.777599176623649
 30
0.0
 10
12.14473193595819
 20
7.777697767424083
 30
0.0
  0
SPLINE
  5
10B
330
1F
100
AcDbEntity
  8
0
  6
Continuous
 62
     7
370
    25
100
AcDbSpline
210
0.0
220
0.0
230
1.0
 70
     8
 71
     3
 72
    10
 73
     6
 74
     0
 42
0.00000001
 43
0.00000001
 40
-0.0000018663227385
 40
-0.0000018663227385
 40
-0.0000018663227385
 40
-0.0000018663227385
 40
0.247210747924432
 40
0.4944233621716026
 40
0.5436039499184229
 40
0.5436039499184229
 40
0.5436039499184229
 40
0.5436039499184229
 10
12.14473193595819
 20
7.777697767424083
 30
0.0
 10
12.01564837271444
 20
7.778563722464002
 30
0.0
 10
11.7578280119023
 20
7.781182202925231
 30
0.0
 10
11.47288707516625
 20
7.786072580299897
 30
0.0
 10
11.31725820261543
 20
7.789407531762351
 30
0.0
 10
11.29142533326493
 20
7.789979441881109
 30
0.0
  0
ARC
  5
10C
330
1F
100
AcDbEntity
  8
0
  6
Continuous
 62
     7
370
    25
100
AcDbCircle
 10
11.2869986472
 20
7.5900284368
 30
0.0
 40
0.2000000000000011
100
AcDbArc
 50
88.7317442877
 51
180.0
  0
LINE
  5
10D
330
1F
100
AcDbEntity
  8
0
  6
Continuous
 62
     7
370
    25
100
AcDbLine
 10
11.0869986472
 20
7.5900284368
 30
0.0
 11
11.0869986472
 21
7.4246437545
 31
0.0
  0
SPLINE
  5
10E
330
1F
100
AcDbEntity
  8
0
  6
Continuous
 62
     7
370
    25
100
AcDbSpline
210
0.0
220
0.0
230
1.0
 70
     8
 71
     3
 72
    16
 73
    12
 74
     0
 42
0.00000001
 43
0.00000001
 40
0.2892107215798912
 40
0.2892107215798912
 40
0.2892107215798912
 40
0.2892107215798912
 40
0.3749999999999996
 40
0.3749999999999996
 40
0.4999999999999996
 40
0.4999999999999996
 40
0.6249999999999994
 40
0.6249999999999994
 40
0.7499999999999994
 40
0.7499999999999994
 40
0.7660597171256411
 40
0.7660597171256411
 40
0.7660597171256411
 40
0.7660597171256411
 10
14.60814829701055
 20
4.210500911642002
 30
0.0
 10
14.69663423669864
 20
4.137017783546263
 30
0.0
 10
14.78634772635212
 20
4.065082269694565
 30
0.0
 10
15.00934509307039
 20
3.891567635975582
 30
0.0
 10
15.1438211324082
 20
3.791491515877723
 30
0.0
 10
15.41671624882839
 20
3.59631039828422
 30
0.0
 10
15.55510723490545
 20
3.501249873332872
 30
0.0
 10
15.83472388579217
 20
3.316284517692281
 30
0.0
 10
15.97605516247957
 20
3.226307688642893
 30
0.0
 10
16.13715725172148
 20
3.127424673246631
 30
0.0
 10
16.15552237376997
 20
3.116205577776397
 30
0.0
 10
16.17391092829019
 20
3.105025037861187
 30
0.0
  0
MTEXT
  5
110
330
1F
100
AcDbEntity
  8
PART_NAMES
100
AcDbMText
 10
10.3224377344
 20
0.5688942239
 30
0.0
 40
0.1666666667
 41
0.0
 71
     1
 72
     1
  1
BH10
  7
SLDTEXTSTYLE0
 11
-1.0
 21
-6.982962677686267E-15
 31
0.0
 73
     1
 44
1.0
  0
ARC
  5
111
330
1F
100
AcDbEntity
  8
0
  6
Continuous
 62
     7
370
    25
100
AcDbCircle
 10
21.3076073948
 20
8.5488601547
 30
0.0
 40
0.200000000000001
100
AcDbArc
 50
315.0
 51
3.8227447787
  0
SPLINE
  5
112
330
1F
100
AcDbEntity
  8
0
  6
Continuous
 62
     7
370
    25
100
AcDbSpline
210
0.0
220
0.0
230
1.0
 70
     8
 71
     3
 72
     8
 73
     4
 74
     0
 42
0.00000001
 43
0.00000001
 40
0.9536430055347798
 40
0.9536430055347798
 40
0.9536430055347798
 40
0.9536430055347798
 40
1.0
 40
1.0
 40
1.0
 40
1.0
 10
21.507162410988
 20
8.56219415343174
 30
0.0
 10
21.50679883500037
 20
8.567635387792002
 30
0.0
 10
21.50642563573913
 20
8.573076335409398
 30
0.0
 10
21.50604277255201
 20
8.57851742547018
 30
0.0
  0
SPLINE
  5
113
330
1F
100
AcDbEntity
  8
0
  6
Continuous
 62
     7
370
    25
100
AcDbSpline
210
0.0
220
0.0
230
1.0
 70
     8
 71
     3
 72
    11
 73
     7
 74
     0
 42
0.00000001
 43
0.00000001
 40
0.0002949775571648
 40
0.0002949775571648
 40
0.0002949775571648
 40
0.0002949775571648
 40
0.2502212331678736
 40
0.5001474887785824
 40
0.7500737443892912
 40
1.0
 40
1.0
 40
1.0
 40
1.0
 10
21.50604277255201
 20
8.57851742547018
 30
0.0
 10
21.50394039714334
 20
8.6083955039095
 30
0.0
 10
21.4983871987714
 20
8.66801881605633
 30
0.0
 10
21.48599966556769
 20
8.757257900982836
 30
0.0
 10
21.46959045650829
 20
8.84594125094688
 30
0.0
 10
21.45598456849206
 20
8.904579251858722
 30
0.0
 10
21.4485264904722
 20
8.933717629331673
 30
0.0
  0
ARC
  5
114
330
1F
100
AcDbEntity
  8
0
  6
Continuous
 62
     7
370
    25
100
AcDbCircle
 10
18.6193798355
 20
8.209586833
 30
0.0
 40
2.920348644540643
100
AcDbArc
 50
14.3568514844
 51
17.3137918546
  0
SPLINE
  5
115
330
1F
100
AcDbEntity
  8
0
  6
Continuous
 62
     7
370
    25
100
AcDbSpline
210
0.0
220
0.0
230
1.0
 70
     8
 71
     3
 72
    11
 73
     7
 74
     0
 42
0.00000001
 43
0.00000001
 40
0.0000010362673613
 40
0.0000010362673613
 40
0.0000010362673613
 40
0.0000010362673613
 40
0.2440163614003275
 40
0.4880316865332936
 40
0.7320470116662597
 40
0.9760623367992259
 40
0.9760623367992259
 40
0.9760623367992259
 40
0.9760623367992259
 10
21.40740511675298
 20
9.078696283322886
 30
0.0
 10
21.39636705580869
 20
9.114105394291023
 30
0.0
 10
21.37294922578585
 20
9.184506479146659
 30
0.0
 10
21.333838764473
 20
9.288734192495777
 30
0.0
 10
21.29080766562558
 20
9.391403142536781
 30
0.0
 10
21.25955205294133
 20
9.458688518120766
 30
0.0
 10
21.24328898344677
 20
9.492020919260856
 30
0.0
  0
SPLINE
  5
116
330
1F
100
AcDbEntity
  8
0
  6
Continuous
 62
     7
370
    25
100
AcDbSpline
210
0.0
220
0.0
230
1.0
 70
     8
 71
     3
 72
    11
 73
     7
 74
     0
 42
0.00000001
 43
0.00000001
 40
0.0000006105127393
 40
0.0000006105127393
 40
0.0000006105127393
 40
0.0000006105127393
 40
0.2500002663017229
 40
0.4999999220907065
 40
0.7499995778796901
 40
0.9999992336686737
 40
0.9999992336686737
 40
0.9999992336686737
 40
0.9999992336686737
 10
21.24328898344677
 20
9.492020919260856
 30
0.0
 10
21.22100543414208
 20
9.537692497677446
 30
0.0
 10
21.17404844504548
 20
9.627840488987713
 30
0.0
 10
21.09650094724116
 20
9.75941612829775
 30
0.0
 10
21.01213385732188
 20
9.886833410054308
 30
0.0
 10
20.95148575788667
 20
9.968772237034619
 30
0.0
 10
20.92011811680814
 20
10.00890483961156
 30
0.0
  0
SPLINE
  5
117
330
1F
100
AcDbEntity
  8
0
  6
Continuous
 62
     7
370
    25
100
AcDbSpline
210
0.0
220
0.0
230
1.0
 70
     8
 71
     3
 72
    11
 73
     7
 74
     0
 42
0.00000001
 43
0.00000001
 40
0.0
 40
0.0
 40
0.0
 40
0.0
 40
0.2499990079748704
 40
0.4999980159497407
 40
0.7499970239246111
 40
0.9999960318994815
 40
0.9999960318994815
 40
0.9999960318994815
 40
0.9999960318994815
 10
20.92011811680814
 20
10.00890483961156
 30
0.0
 10
20.91532245818764
 20
10.01504051181927
 30
0.0
 10
20.90568657510507
 20
10.02725413088493
 30
0.0
 10
20.89100117933161
 20
10.04552909603867
 30
0.0
 10
20.87612030888374
 20
10.06371584927116
 30
0.0
 10
20.86604784119196
 20
10.07580937296886
 30
0.0
 10
20.86099161213673
 20
10.08182739899069
 30
0.0
  0
SPLINE
  5
118
330
1F
100
AcDbEntity
  8
0
  6
Continuous
 62
     7
370
    25
100
AcDbSpline
210
0.0
220
0.0
230
1.0
 70
     8
 71
     3
 72
    11
 73
     7
 74
     0
 42
0.00000001
 43
0.00000001
 40
0.0
 40
0.0
 40
0.0
 40
0.0
 40
0.25
 40
0.5
 40
0.75
 40
1.0
 40
1.0
 40
1.0
 40
1.0
 10
20.86099161213673
 20
10.08182739899069
 30
0.0
 10
20.8585283609732
 20
10.08475920985182
 30
0.0
 10
20.85358063397379
 20
10.09062591242234
 30
0.0
 10
20.84618742228031
 20
10.09932417058121
 30
0.0
 10
20.83879096928204
 20
10.10795649335386
 30
0.0
 10
20.83387833200568
 20
10.11364266193114
 30
0.0
 10
20.83141077032707
 20
10.11648658484073
 30
0.0
  0
SPLINE
  5
119
330
1F
100
AcDbEntity
  8
0
  6
Continuous
 62
     7
370
    25
100
AcDbSpline
210
0.0
220
0.0
230
1.0
 70
     8
 71
     3
 72
    11
 73
     7
 74
     0
 42
0.00000001
 43
0.00000001
 40
0.0001183384978997
 40
0.0001183384978997
 40
0.0001183384978997
 40
0.0001183384978997
 40
0.250088615648454
 40
0.5000588927990083
 40
0.7500291699495626
 40
0.9999994471001169
 40
0.9999994471001169
 40
0.9999994471001169
 40
0.9999994471001169
 10
20.83141077032707
 20
10.11648658484073
 30
0.0
 10
20.78456379547693
 20
10.17047870491924
 30
0.0
 10
20.68697845637192
 20
10.27497637378732
 30
0.0
 10
20.52905603895758
 20
10.42123322667667
 30
0.0
 10
20.36076016580273
 20
10.55585055173447
 30
0.0
 10
20.24218314485892
 20
10.63734566508024
 30
0.0
 10
20.18152836902873
 20
10.67584930111054
 30
0.0
  0
ARC
  5
11A
330
1F
100
AcDbEntity
  8
0
  6
Continuous
 62
     7
370
    25
100
AcDbCircle
 10
18.9105529598
 20
8.6736818053
 30
0.0
 40
2.371508627884984
100
AcDbArc
 50
57.5926302573
 51
57.9396684205
  0
SPLINE
  5
11B
330
1F
100
AcDbEntity
  8
0
  6
Continuous
 62
     7
370
    25
100
AcDbSpline
210
0.0
220
0.0
230
1.0
 70
     8
 71
     3
 72
    11
 73
     7
 74
     0
 42
0.00000001
 43
0.00000001
 40
0.0000033672933166
 40
0.0000033672933166
 40
0.0000033672933166
 40
0.0000033672933166
 40
0.2499881423270651
 40
0.4999729173608136
 40
0.7499576923945621
 40
0.9999424674283106
 40
0.9999424674283106
 40
0.9999424674283106
 40
0.9999424674283106
 10
20.16937808368507
 20
10.68351077305308
 30
0.0
 10
20.12542563992763
 20
10.71103970280007
 30
0.0
 10
20.03631117691754
 20
10.76410408630684
 30
0.0
 10
19.89894925425716
 20
10.83773743545329
 30
0.0
 10
19.75831671992688
 20
10.90513523078512
 30
0.0
 10
19.66253664500751
 20
10.94580168843237
 30
0.0
 10
19.61422362855368
 20
10.96502355656062
 30
0.0
  0
SPLINE
  5
11C
330
1F
100
AcDbEntity
  8
0
  6
Continuous
 62
     7
370
    25
100
AcDbSpline
210
0.0
220
0.0
230
1.0
 70
     8
 71
     3
 72
    10
 73
     6
 74
     0
 42
0.00000001
 43
0.00000001
 40
0.0001858472693071
 40
0.0001858472693071
 40
0.0001858472693071
 40
0.0001858472693071
 40
0.2501389943348014
 40
0.5000921414002957
 40
0.5353245182653903
 40
0.5353245182653903
 40
0.5353245182653903
 40
0.5353245182653903
 10
19.61422362855368
 20
10.96502355656062
 30
0.0
 10
19.51000249519159
 20
11.00648792534163
 30
0.0
 10
19.29777423934267
 20
11.07928608373841
 30
0.0
 10
19.06273377591841
 20
11.13559305938576
 30
0.0
 10
18.93596797668982
 20
11.15881494633513
 30
0.0
 10
18.9202852859629
 20
11.16158011851201
 30
0.0
  0
ARC
  5
11D
330
1F
100
AcDbEntity
  8
0
  6
Continuous
 62
     7
370
    25
100
AcDbCircle
 10
18.8855569821
 20
10.9646183331
 30
0.0
 40
0.1999999999999996
100
AcDbArc
 50
80.0003873811
 51
135.0
  0
LINE
  5
11E
330
1F
100
AcDbEntity
  8
0
  6
Continuous
 62
     7
370
    25
100
AcDbLine
 10
18.5127456601
 20
10.8746497236
 30
0.0
 11
18.7441356259
 21
11.1060396893
 31
0.0
  0
ARC
  5
11F
330
1F
100
AcDbEntity
  8
0
  6
Continuous
 62
     7
370
    25
100
AcDbCircle
 10
18.3713243039
 20
11.0160710798
 30
0.0
 40
0.1999999999999993
100
AcDbArc
 50
270.0
 51
315.0
  0
LINE
  5
120
330
1F
100
AcDbEntity
  8
0
  6
Continuous
 62
     7
370
    25
100
AcDbLine
 10
18.2120097288
 20
10.8160710798
 30
0.0
 11
18.3713243039
 21
10.8160710798
 31
0.0
  0
ARC
  5
121
330
1F
100
AcDbEntity
  8
0
  6
Continuous
 62
     7
370
    25
100
AcDbCircle
 10
18.2120097288
 20
11.0160710798
 30
0.0
 40
0.1999999999999993
100
AcDbArc
 50
225.0
 51
270.0
  0
LINE
  5
122
330
1F
100
AcDbEntity
  8
0
  6
Continuous
 62
     7
370
    25
100
AcDbLine
 10
17.8391983958
 20
11.1060397003
 30
0.0
 11
18.0705883726
 21
10.8746497236
 31
0.0
  0
ARC
  5
123
330
1F
100
AcDbEntity
  8
0
  6
Continuous
 62
     7
370
    25
100
AcDbCircle
 10
17.6977770396
 20
10.9646183441
 30
0.0
 40
0.2000000000000021
100
AcDbArc
 50
45.0
 51
99.9996115486
  0
SPLINE
  5
124
330
1F
100
AcDbEntity
  8
0
  6
Continuous
 62
     7
370
    25
100
AcDbSpline
210
0.0
220
0.0
230
1.0
 70
     8
 71
     3
 72
    10
 73
     6
 74
     0
 42
0.00000001
 43
0.00000001
 40
0.4648597150558767
 40
0.4648597150558767
 40
0.4648597150558767
 40
0.4648597150558767
 40
0.5000921415001347
 40
0.7500452886162455
 40
0.9999984357323564
 40
0.9999984357323564
 40
0.9999984357323564
 40
0.9999984357323564
 10
17.66304873939148
 20
11.161580130162
 30
0.0
 10
17.64736602653459
 20
11.15881495438524
 30
0.0
 10
17.52060020498428
 20
11.13559306456949
 30
0.0
 10
17.28555971974264
 20
11.07928608368371
 30
0.0
 10
17.07333146385637
 20
11.0064879252581
 30
0.0
 10
16.96911033047675
 20
10.96502355646075
 30
0.0
  0
SPLINE
  5
125
330
1F
100
AcDbEntity
  8
0
  6
Continuous
 62
     7
370
    25
100
AcDbSpline
210
0.0
220
0.0
230
1.0
 70
     8
 71
     3
 72
    11
 73
     7
 74
     0
 42
0.00000001
 43
0.00000001
 40
0.0000033677261275
 40
0.0000033677261275
 40
0.0000033677261275
 40
0.0000033677261275
 40
0.2499881426516732
 40
0.499972917577219
 40
0.7499576925027648
 40
0.9999424674283106
 40
0.9999424674283106
 40
0.9999424674283106
 40
0.9999424674283106
 10
16.96911033047675
 20
10.96502355646075
 30
0.0
 10
16.92079731404538
 20
10.94580168833701
 30
0.0
 10
16.82501723917037
 20
10.90513523070079
 30
0.0
 10
16.68438470490438
 20
10.83773743539132
 30
0.0
 10
16.54702278230572
 20
10.76410408627279
 30
0.0
 10
16.45790831933478
 20
10.71103970278814
 30
0.0
 10
16.41395587559637
 20
10.68351077305307
 30
0.0
  0
ARC
  5
126
330
1F
100
AcDbEntity
  8
0
  6
Continuous
 62
     7
370
    25
100
AcDbCircle
 10
17.6727809995
 20
8.6736818053
 30
0.0
 40
2.371508627884984
100
AcDbArc
 50
122.0603315795
 51
122.4073697427
  0
SPLINE
  5
127
330
1F
100
AcDbEntity
  8
0
  6
Continuous
 62
     7
370
    25
100
AcDbSpline
210
0.0
220
0.0
230
1.0
 70
     8
 71
     3
 72
    11
 73
     7
 74
     0
 42
0.00000001
 43
0.00000001
 40
0.0001183384978996
 40
0.0001183384978996
 40
0.0001183384978996
 40
0.0001183384978996
 40
0.2500886156485267
 40
0.5000588927991537
 40
0.7500291699497807
 40
0.9999994471004078
 40
0.9999994471004078
 40
0.9999994471004078
 40
0.9999994471004078
 10
16.40180559025271
 20
10.67584930111054
 30
0.0
 10
16.34115081442251
 20
10.63734566508022
 30
0.0
 10
16.22257379347865
 20
10.55585055173443
 30
0.0
 10
16.05427792032379
 20
10.42123322667659
 30
0.0
 10
15.89635550290937
 20
10.27497637378719
 30
0.0
 10
15.79877016380436
 20
10.17047870491906
 30
0.0
 10
15.75192318895423
 20
10.11648658484054
 30
0.0
  0
SPLINE
  5
128
330
1F
100
AcDbEntity
  8
0
  6
Continuous
 62
     7
370
    25
100
AcDbSpline
210
0.0
220
0.0
230
1.0
 70
     8
 71
     3
 72
    11
 73
     7
 74
     0
 42
0.00000001
 43
0.00000001
 40
0.0
 40
0.0
 40
0.0
 40
0.0
 40
0.25
 40
0.5
 40
0.75
 40
1.0
 40
1.0
 40
1.0
 40
1.0
 10
15.75192318895423
 20
10.11648658484054
 30
0.0
 10
15.74945562727566
 20
10.11364266193101
 30
0.0
 10
15.7445429899994
 20
10.10795649335382
 30
0.0
 10
15.73714653700121
 20
10.09932417058128
 30
0.0
 10
15.72975332530772
 20
10.09062591242242
 30
0.0
 10
15.72480559830834
 20
10.08475920985192
 30
0.0
 10
15.72234234714481
 20
10.08182739899078
 30
0.0
  0
SPLINE
  5
129
330
1F
100
AcDbEntity
  8
0
  6
Continuous
 62
     7
370
    25
100
AcDbSpline
210
0.0
220
0.0
230
1.0
 70
     8
 71
     3
 72
    11
 73
     7
 74
     0
 42
0.00000001
 43
0.00000001
 40
0.0
 40
0.0
 40
0.0
 40
0.0
 40
0.2499989971395253
 40
0.4999979942790506
 40
0.7499969914185759
 40
0.9999959885581012
 40
0.9999959885581012
 40
0.9999959885581012
 40
0.9999959885581012
 10
15.72234234714481
 20
10.08182739899078
 30
0.0
 10
15.71728611830839
 20
10.0758093732294
 30
0.0
 10
15.70721365105079
 20
10.06371585005757
 30
0.0
 10
15.69233278123432
 20
10.04552909761789
 30
0.0
 10
15.67764738607503
 20
10.02725413326452
 30
0.0
 10
15.66801150338842
 20
10.01504051473509
 30
0.0
 10
15.66321584496385
 20
10.00890484279799
 30
0.0
  0
SPLINE
  5
12A
330
1F
100
AcDbEntity
  8
0
  6
Continuous
 62
     7
370
    25
100
AcDbSpline
210
0.0
220
0.0
230
1.0
 70
     8
 71
     3
 72
    11
 73
     7
 74
     0
 42
0.00000001
 43
0.00000001
 40
0.0000006038980244
 40
0.0000006038980244
 40
0.0000006038980244
 40
0.0000006038980244
 40
0.2500002597527836
 40
0.4999999156075429
 40
0.7499995714623021
 40
0.9999992273170614
 40
0.9999992273170614
 40
0.9999992273170614
 40
0.9999992273170614
 10
15.66321584496385
 20
10.00890484279799
 30
0.0
 10
15.63184820382114
 20
9.968772240253825
 30
0.0
 10
15.5712001042568
 20
9.886833413335356
 30
0.0
 10
15.48683301414032
 20
9.759416131658114
 30
0.0
 10
15.40928551613619
 20
9.627840492414936
 30
0.0
 10
15.36232852690467
 20
9.53769250114047
 30
0.0
 10
15.34004497753233
 20
9.49202092274009
 30
0.0
  0
SPLINE
  5
12B
330
1F
100
AcDbEntity
  8
0
  6
Continuous
 62
     7
370
    25
100
AcDbSpline
210
0.0
220
0.0
230
1.0
 70
     8
 71
     3
 72
    11
 73
     7
 74
     0
 42
0.00000001
 43
0.00000001
 40
0.0000010277766489
 40
0.0000010277766489
 40
0.0000010277766489
 40
0.0000010277766489
 40
0.2440163550322932
 40
0.4880316822879374
 40
0.7320470095435817
 40
0.9760623367992259
 40
0.9760623367992259
 40
0.9760623367992259
 40
0.9760623367992259
 10
15.34004497753233
 20
9.49202092274009
 30
0.0
 10
15.32378190785226
 20
9.458688521331997
 30
0.0
 10
15.29252629481848
 20
9.391403145199504
 30
0.0
 10
15.24949519551194
 20
9.288734194300732
 30
0.0
 10
15.21038473380726
 20
9.184506480063817
 30
0.0
 10
15.18696690356897
 20
9.114105394599267
 30
0.0
 10
15.17592884252866
 20
9.0786962833231
 30
0.0
  0
ARC
  5
12C
330
1F
100
AcDbEntity
  8
0
  6
Continuous
 62
     7
370
    25
100
AcDbCircle
 10
17.9639541238
 20
8.209586833
 30
0.0
 40
2.920348644540644
100
AcDbArc
 50
162.6862081454
 51
165.6431485156
  0
SPLINE
  5
12D
330
1F
100
AcDbEntity
  8
0
  6
Continuous
 62
     7
370
    25
100
AcDbSpline
210
0.0
220
0.0
230
1.0
 70
     8
 71
     3
 72
    11
 73
     7
 74
     0
 42
0.00000001
 43
0.00000001
 40
0.0002949775571648
 40
0.0002949775571648
 40
0.0002949775571648
 40
0.0002949775571648
 40
0.2502212331678736
 40
0.5001474887785824
 40
0.7500737443892912
 40
1.0
 40
1.0
 40
1.0
 40
1.0
 10
15.13480746880943
 20
8.933717629331868
 30
0.0
 10
15.12734939078957
 20
8.904579251858921
 30
0.0
 10
15.11374350277338
 20
8.845941250947085
 30
0.0
 10
15.09733429371394
 20
8.757257900983026
 30
0.0
 10
15.08494676051023
 20
8.668018816056533
 30
0.0
 10
15.07939356213831
 20
8.608395503909685
 30
0.0
 10
15.07729118672963
 20
8.578517425470357
 30
0.0
  0
SPLINE
  5
12E
330
1F
100
AcDbEntity
  8
0
  6
Continuous
 62
     7
370
    25
100
AcDbSpline
210
0.0
220
0.0
230
1.0
 70
     8
 71
     3
 72
     8
 73
     4
 74
     0
 42
0.00000001
 43
0.00000001
 40
0.0
 40
0.0
 40
0.0
 40
0.0
 40
0.0463567902829532
 40
0.0463567902829532
 40
0.0463567902829532
 40
0.0463567902829532
 10
15.07729118672963
 20
8.578517425470357
 30
0.0
 10
15.07690832522885
 20
8.573076359375193
 30
0.0
 10
15.07653512756883
 20
8.567635435722162
 30
0.0
 10
15.07617155309782
 20
8.562194225330678
 30
0.0
  0
ARC
  5
12F
330
1F
100
AcDbEntity
  8
0
  6
Continuous
 62
     7
370
    25
100
AcDbCircle
 10
15.2757265691
 20
8.5488602235
 30
0.0
 40
0.1999999999999996
100
AcDbArc
 50
176.1772543308
 51
225.0
  0
LINE
  5
130
330
1F
100
AcDbEntity
  8
0
  6
Continuous
 62
     7
370
    25
100
AcDbLine
 10
15.1591738578
 20
8.3825702223
 30
0.0
 11
15.1343052128
 21
8.4074388673
 31
0.0
  0
ARC
  5
131
330
1F
100
AcDbEntity
  8
0
  6
Continuous
 62
     7
370
    25
100
AcDbCircle
 10
15.0177525016
 20
8.241148866
 30
0.0
 40
0.2000000000000008
100
AcDbArc
 50
0.0
 51
45.0
  0
LINE
  5
132
330
1F
100
AcDbEntity
  8
0
  6
Continuous
 62
     7
370
    25
100
AcDbLine
 10
15.2177525016
 20
8.241148866
 30
0.0
 11
15.2177525016
 21
8.081834291
 31
0.0
  0
ARC
  5
133
330
1F
100
AcDbEntity
  8
0
  6
Continuous
 62
     7
370
    25
100
AcDbCircle
 10
15.0177525016
 20
8.081834291
 30
0.0
 40
0.1999999999999996
100
AcDbArc
 50
315.0
 51
0.0
  0
LINE
  5
134
330
1F
100
AcDbEntity
  8
0
  6
Continuous
 62
     7
370
    25
100
AcDbLine
 10
15.1591738578
 20
7.9404129347
 30
0.0
 11
15.1340839009
 21
7.9153229779
 31
0.0
  0
ARC
  5
135
330
1F
100
AcDbEntity
  8
0
  6
Continuous
 62
     7
370
    25
100
AcDbCircle
 10
15.2755052572
 20
7.7739016216
 30
0.0
 40
0.2000000000000046
100
AcDbArc
 50
135.0
 51
181.3232267548
  0
LWPOLYLINE
  5
136
330
1F
100
AcDbEntity
  8
0
  6
Continuous
 62
     7
370
    25
100
AcDbPolyline
 90
        3
 70
   128
 43
0.0
 10
15.0755585911
 20
7.7692830995
 10
15.0813740488
 20
7.5180747551
 10
15.0859147254
 20
7.3207375911
  0
SPLINE
  5
137
330
1F
100
AcDbEntity
  8
0
  6
Continuous
 62
     7
370
    25
100
AcDbSpline
210
0.0
220
0.0
230
1.0
 70
     8
 71
     3
 72
     9
 73
     5
 74
     0
 42
0.00000001
 43
0.00000001
 40
-0.0000019125080428
 40
-0.0000019125080428
 40
-0.0000019125080428
 40
-0.0000019125080428
 40
0.2499987899541481
 40
0.2863593134487724
 40
0.2863593134487724
 40
0.2863593134487724
 40
0.2863593134487724
 10
15.08591472538697
 20
7.320737591092136
 30
0.0
 10
15.08858013906743
 20
7.204014185843367
 30
0.0
 10
15.09158938474096
 20
7.070302362962791
 30
0.0
 10
15.0945112362012
 20
6.93661370917705
 30
0.0
 10
15.09488074351638
 20
6.919638990351062
 30
0.0
  0
ARC
  5
138
330
1F
100
AcDbEntity
  8
0
  6
Continuous
 62
     7
370
    25
100
AcDbCircle
 10
15.2948333753
 20
6.9239915785
 30
0.0
 40
0.2000000000000023
100
AcDbArc
 50
181.2470231073
 51
270.0
  0
LINE
  5
139
330
1F
100
AcDbEntity
  8
0
  6
Continuous
 62
     7
370
    25
100
AcDbLine
 10
15.2948333753
 20
6.7239915785
 30
0.0
 11
17.0320476086
 21
6.7239915785
 31
0.0
  0
ARC
  5
13A
330
1F
100
AcDbEntity
  8
0
  6
Continuous
 62
     7
370
    25
100
AcDbCircle
 10
17.0320476086
 20
6.5239915785
 30
0.0
 40
0.2000000000000002
100
AcDbArc
 50
45.0
 51
90.0
  0
LINE
  5
13B
330
1F
100
AcDbEntity
  8
0
  6
Continuous
 62
     7
370
    25
100
AcDbLine
 10
17.1734689648
 20
6.6654129347
 30
0.0
 11
17.8609520702
 21
5.9779298293
 31
0.0
  0
ARC
  5
13C
330
1F
100
AcDbEntity
  8
0
  6
Continuous
 62
     7
370
    25
100
AcDbCircle
 10
18.2916670163
 20
5.7239915785
 30
0.0
 40
0.5000000000000004
100
AcDbArc
 50
149.4775121859
 51
30.5224878141
  0
LINE
  5
13D
330
1F
100
AcDbEntity
  8
0
  6
Continuous
 62
     7
370
    25
100
AcDbLine
 10
19.4098650679
 20
6.6654129347
 30
0.0
 11
18.7223819624
 21
5.9779298293
 31
0.0
  0
ARC
  5
13E
330
1F
100
AcDbEntity
  8
0
  6
Continuous
 62
     7
370
    25
100
AcDbCircle
 10
19.5512864241
 20
6.5239915785
 30
0.0
 40
0.2000000000000002
100
AcDbArc
 50
90.0
 51
135.0
  0
LINE
  5
13F
330
1F
100
AcDbEntity
  8
0
  6
Continuous
 62
     7
370
    25
100
AcDbLine
 10
21.2885005839
 20
6.7239915785
 30
0.0
 11
19.5512864241
 21
6.7239915785
 31
0.0
  0
ARC
  5
140
330
1F
100
AcDbEntity
  8
0
  6
Continuous
 62
     7
370
    25
100
AcDbCircle
 10
21.2885005839
 20
6.9239915785
 30
0.0
 40
0.2000000000000002
100
AcDbArc
 50
270.0
 51
358.7529768926
  0
SPLINE
  5
141
330
1F
100
AcDbEntity
  8
0
  6
Continuous
 62
     7
370
    25
100
AcDbSpline
210
0.0
220
0.0
230
1.0
 70
     8
 71
     3
 72
     9
 73
     5
 74
     0
 42
0.00000001
 43
0.00000001
 40
0.7136396705417681
 40
0.7136396705417681
 40
0.7136396705417681
 40
0.7136396705417681
 40
0.7500001942469731
 40
1.000000896498717
 40
1.000000896498717
 40
1.000000896498717
 40
1.000000896498717
 10
21.48845321576552
 20
6.919638990350965
 30
0.0
 10
21.48882272308285
 20
6.936613709275268
 30
0.0
 10
21.49174457454322
 20
7.070302363061145
 30
0.0
 10
21.49475382021681
 20
7.204014185941745
 30
0.0
 10
21.49741923389507
 20
7.320737591092276
 30
0.0
  0
SPLINE
  5
142
330
1F
100
AcDbEntity
  8
0
  6
Continuous
 62
     7
370
    25
100
AcDbSpline
210
0.0
220
0.0
230
1.0
 70
     8
 71
     3
 72
    11
 73
     7
 74
     0
 42
0.00000001
 43
0.00000001
 40
-0.00000135946594
 40
-0.00000135946594
 40
-0.00000135946594
 40
-0.00000135946594
 40
0.2500002936271852
 40
0.5000019467203105
 40
0.7500035998134358
 40
0.8792907069399729
 40
0.8792907069399729
 40
0.8792907069399729
 40
0.8792907069399729
 10
21.49741923389507
 20
7.320737591092276
 30
0.0
 10
21.49839029112144
 20
7.363242043549131
 30
0.0
 10
21.50034378614439
 20
7.448247400003349
 30
0.0
 10
21.50329450189022
 20
7.575774692555544
 30
0.0
 10
21.50577529170257
 20
7.682785775906871
 30
0.0
 10
21.50726744962965
 20
7.747294114348915
 30
0.0
 10
21.50777536980553
 20
7.769283171236062
 30
0.0
  0
ARC
  5
143
330
1F
100
AcDbEntity
  8
0
  6
Continuous
 62
     7
370
    25
100
AcDbCircle
 10
21.3078287038
 20
7.7739016934
 30
0.0
 40
0.2000000000000034
100
AcDbArc
 50
358.6767732492
 51
45.0
  0
LINE
  5
144
330
1F
100
AcDbEntity
  8
0
  6
Continuous
 62
     7
370
    25
100
AcDbLine
 10
21.4241601749
 20
7.9404129347
 30
0.0
 11
21.44925006
 21
7.9153230496
 31
0.0
  0
ARC
  5
145
330
1F
100
AcDbEntity
  8
0
  6
Continuous
 62
     7
370
    25
100
AcDbCircle
 10
21.5655815311
 20
8.081834291
 30
0.0
 40
0.1999999999999993
100
AcDbArc
 50
180.0
 51
225.0
  0
LINE
  5
146
330
1F
100
AcDbEntity
  8
0
  6
Continuous
 62
     7
370
    25
100
AcDbLine
 10
21.3655815311
 20
8.241148866
 30
0.0
 11
21.3655815311
 21
8.081834291
 31
0.0
  0
ARC
  5
147
330
1F
100
AcDbEntity
  8
0
  6
Continuous
 62
     7
370
    25
100
AcDbCircle
 10
21.5655815311
 20
8.241148866
 30
0.0
 40
0.1999999999999993
100
AcDbArc
 50
135.0
 51
180.0
  0
LINE
  5
148
330
1F
100
AcDbEntity
  8
0
  6
Continuous
 62
     7
370
    25
100
AcDbLine
 10
21.4241601749
 20
8.3825702223
 30
0.0
 11
21.4490287511
 21
8.4074387985
 31
0.0
  0
ARC
  5
149
330
1F
100
AcDbEntity
  8
0
  6
Continuous
 62
     7
370
    25
100
AcDbCircle
 10
19.6755504928
 20
6.2239915785
 30
0.0
 40
0.2000000000000028
100
AcDbArc
 50
90.0
 51
135.0
  0
LINE
  5
14A
330
1F
100
AcDbEntity
  8
0
  6
Continuous
 62
     7
370
    25
100
AcDbLine
 10
19.5341291366
 20
6.3654129347
 30
0.0
 11
19.1441724525
 21
5.9754562507
 31
0.0
  0
ARC
  5
14B
330
1F
100
AcDbEntity
  8
0
  6
Continuous
 62
     7
370
    25
100
AcDbCircle
 10
19.2855938087
 20
5.8340348944
 30
0.0
 40
0.1999999999999996
100
AcDbArc
 50
135.0
 51
186.3178125465
  0
ARC
  5
14C
330
1F
100
AcDbEntity
  8
0
  6
Continuous
 62
     7
370
    25
100
AcDbCircle
 10
18.2916670163
 20
5.7239915785
 30
0.0
 40
0.7999999999999998
100
AcDbArc
 50
314.4270040008
 51
6.3178125465
  0
ARC
  5
14D
330
1F
100
AcDbEntity
  8
0
  6
Continuous
 62
     7
370
    25
100
AcDbCircle
 10
18.9916670163
 20
5.0098487357
 30
0.0
 40
0.2000000000000035
100
AcDbArc
 50
134.4270040008
 51
173.2483261221
  0
ARC
  5
14E
330
1F
100
AcDbEntity
  8
0
  6
Continuous
 62
     7
370
    25
100
AcDbCircle
 10
18.9916670163
 20
5.0568752995
 30
0.0
 40
0.2000000000000014
100
AcDbArc
 50
186.7516738779
 51
270.2487789817
  0
SPLINE
  5
14F
330
1F
100
AcDbEntity
  8
0
  6
Continuous
 62
     7
370
    25
100
AcDbSpline
210
0.0
220
0.0
230
1.0
 70
     8
 71
     3
 72
    10
 73
     6
 74
     0
 42
0.00000001
 43
0.00000001
 40
0.4748790610325911
 40
0.4748790610325911
 40
0.4748790610325911
 40
0.4748790610325911
 40
0.4975773067245919
 40
0.7463666504119895
 40
0.995155994099387
 40
0.995155994099387
 40
0.995155994099387
 40
0.995155994099387
 10
18.99253541607754
 20
4.856877184793381
 30
0.0
 10
19.0036621895354
 20
4.856925497684662
 30
0.0
 10
19.13672922349424
 20
4.857474183058288
 30
0.0
 10
19.3913809365907
 20
4.857863159073115
 30
0.0
 10
19.63379210420749
 20
4.857183978773175
 30
0.0
 10
19.75513766012878
 20
4.85660747090753
 30
0.0
  0
SPLINE
  5
150
330
1F
100
AcDbEntity
  8
0
  6
Continuous
 62
     7
370
    25
100
AcDbSpline
210
0.0
220
0.0
230
1.0
 70
     8
 71
     3
 72
    11
 73
     7
 74
     0
 42
0.00000001
 43
0.00000001
 40
0.0003410876730769
 40
0.0003410876730769
 40
0.0003410876730769
 40
0.0003410876730769
 40
0.2502588753011943
 40
0.5001766629293115
 40
0.7500944505574287
 40
1.000012238185546
 40
1.000012238185546
 40
1.000012238185546
 40
1.000012238185546
 10
19.75513766012878
 20
4.85660747090753
 30
0.0
 10
19.76880687787663
 20
4.856542419297226
 30
0.0
 10
19.79613259758091
 20
4.856412073850089
 30
0.0
 10
19.83719743647798
 20
4.85621059231528
 30
0.0
 10
19.87830041711911
 20
4.855998628236891
 30
0.0
 10
19.90575335248524
 20
4.855847036624451
 30
0.0
 10
19.91947342599235
 20
4.855767988690631
 30
0.0
  0
ARC
  5
151
330
1F
100
AcDbEntity
  8
0
  6
Continuous
 62
     7
370
    25
100
AcDbCircle
 10
19.6423181091
 20
-43.2491113752
 30
0.0
 40
48.10567776973556
100
AcDbArc
 50
89.6016743442
 51
89.6698951451
  0
SPLINE
  5
152
330
1F
100
AcDbEntity
  8
0
  6
Continuous
 62
     7
370
    25
100
AcDbSpline
210
0.0
220
0.0
230
1.0
 70
     8
 71
     3
 72
    11
 73
     7
 74
     0
 42
0.00000001
 43
0.00000001
 40
-0.0000043638180641
 40
-0.0000043638180641
 40
-0.0000043638180641
 40
-0.0000043638180641
 40
0.2499978171121879
 40
0.4999999980424401
 40
0.7500021789726921
 40
1.000004359902944
 40
1.000004359902944
 40
1.000004359902944
 40
1.000004359902944
 10
19.97675061799252
 20
4.855403886687329
 30
0.0
 10
19.98869799056151
 20
4.855320796926068
 30
0.0
 10
20.01259740142727
 20
4.85513348105726
 30
0.0
 10
20.0484171292948
 20
4.854790761975114
 30
0.0
 10
20.08422311893202
 20
4.854387534580956
 30
0.0
 10
20.10807758320937
 20
4.854079371263305
 30
0.0
 10
20.12000664523725
 20
4.853915602586162
 30
0.0
  0
SPLINE
  5
153
330
1F
100
AcDbEntity
  8
0
  6
Continuous
 62
     7
370
    25
100
AcDbSpline
210
0.0
220
0.0
230
1.0
 70
     8
 71
     3
 72
    11
 73
     7
 74
     0
 42
0.00000001
 43
0.00000001
 40
-0.0000133794586676
 40
-0.0000133794586676
 40
-0.0000133794586676
 40
-0.0000133794586676
 40
0.2499899654059993
 40
0.4999933102706662
 40
0.7499966551353331
 40
1.0
 40
1.0
 40
1.0
 40
1.0
 10
20.12000664523725
 20
4.853915602586162
 30
0.0
 10
20.12913298000487
 20
4.853790300134575
 30
0.0
 10
20.14740588423758
 20
4.853591422007081
 30
0.0
 10
20.17469961379671
 20
4.853452823123455
 30
0.0
 10
20.20193257856043
 20
4.853475697392217
 30
0.0
 10
20.22000301057753
 20
4.853599847524985
 30
0.0
 10
20.22904848710917
 20
4.85368980430126
 30
0.0
  0
SPLINE
  5
154
330
1F
100
AcDbEntity
  8
0
  6
Continuous
 62
     7
370
    25
100
AcDbSpline
210
0.0
220
0.0
230
1.0
 70
     8
 71
     3
 72
    11
 73
     7
 74
     0
 42
0.00000001
 43
0.00000001
 40
-0.0000529258258202
 40
-0.0000529258258202
 40
-0.0000529258258202
 40
-0.0000529258258202
 40
0.2499610811883612
 40
0.4999750882025427
 40
0.7499890952167241
 40
1.000003102230905
 40
1.000003102230905
 40
1.000003102230905
 40
1.000003102230905
 10
20.22904848710916
 20
4.85368980430126
 30
0.0
 10
20.26800915047904
 20
4.854077014382112
 30
0.0
 10
20.34609485021284
 20
4.85586213055325
 30
0.0
 10
20.46208905167855
 20
4.861514996400893
 30
0.0
 10
20.57720398912964
 20
4.87012703348173
 30
0.0
 10
20.65261030940144
 20
4.877752209458183
 30
0.0
 10
20.69039972665194
 20
4.882079355513312
 30
0.0
  0
SPLINE
  5
155
330
1F
100
AcDbEntity
  8
0
  6
Continuous
 62
     7
370
    25
100
AcDbSpline
210
0.0
220
0.0
230
1.0
 70
     8
 71
     3
 72
    11
 73
     7
 74
     0
 42
0.00000001
 43
0.00000001
 40
-0.0000010587019574
 40
-0.0000010587019574
 40
-0.0000010587019574
 40
-0.0000010587019574
 40
0.2500058970228005
 40
0.5000128527475585
 40
0.7500198084723164
 40
1.000026764197074
 40
1.000026764197074
 40
1.000026764197074
 40
1.000026764197074
 10
20.69039972665195
 20
4.882079355513312
 30
0.0
 10
20.74224748598566
 20
4.888010640677947
 30
0.0
 10
20.84442073724659
 20
4.909649704094488
 30
0.0
 10
20.99248517308886
 20
4.971464249321771
 30
0.0
 10
21.12848974400938
 20
5.060675122702114
 30
0.0
 10
21.20822324769433
 20
5.137007635191353
 30
0.0
 10
21.24408364431459
 20
5.178191649828234
 30
0.0
  0
SPLINE
  5
156
330
1F
100
AcDbEntity
  8
0
  6
Continuous
 62
     7
370
    25
100
AcDbSpline
210
0.0
220
0.0
230
1.0
 70
     8
 71
     3
 72
    11
 73
     7
 74
     0
 42
0.00000001
 43
0.00000001
 40
0.0122144917415692
 40
0.0122144917415692
 40
0.0122144917415692
 40
0.0122144917415692
 40
0.2591615615272527
 40
0.5061086313129363
 40
0.7530557010986197
 40
1.000002770884303
 40
1.000002770884303
 40
1.000002770884303
 40
1.000002770884303
 10
21.24408364431459
 20
5.178191649828234
 30
0.0
 10
21.2576161043812
 20
5.193732921658623
 30
0.0
 10
21.28355983338953
 20
5.225691121448836
 30
0.0
 10
21.31941495135704
 20
5.276604698638618
 30
0.0
 10
21.35176050945494
 20
5.329935412887796
 30
0.0
 10
21.37081236294601
 20
5.366801208782093
 30
0.0
 10
21.37969634512722
 20
5.385543462191546
 30
0.0
  0
ARC
  5
157
330
1F
100
AcDbEntity
  8
0
  6
Continuous
 62
     7
370
    25
100
AcDbCircle
 10
20.5736963355
 20
5.7675940145
 30
0.0
 40
0.8919633625156199
100
AcDbArc
 50
334.6386681527
 51
340.4138220748
  0
SPLINE
  5
158
330
1F
100
AcDbEntity
  8
0
  6
Continuous
 62
     7
370
    25
100
AcDbSpline
210
0.0
220
0.0
230
1.0
 70
     8
 71
     3
 72
    11
 73
     7
 74
     0
 42
0.00000001
 43
0.00000001
 40
-0.0000045008980386
 40
-0.0000045008980386
 40
-0.0000045008980386
 40
-0.0000045008980386
 40
0.2496351462302651
 40
0.4992747933585687
 40
0.7489144404868724
 40
0.9985540876151761
 40
0.9985540876151761
 40
0.9985540876151761
 40
0.9985540876151761
 10
21.41404922607597
 20
5.468586223053702
 30
0.0
 10
21.41992719130738
 20
5.485106073147242
 30
0.0
 10
21.43065891577305
 20
5.518481266177172
 30
0.0
 10
21.44372652099823
 20
5.569637968190375
 30
0.0
 10
21.45365737686509
 20
5.621517675288869
 30
0.0
 10
21.4581519246422
 20
5.656353717213546
 30
0.0
 10
21.45986623135726
 20
5.673831209474669
 30
0.0
  0
SPLINE
  5
159
330
1F
100
AcDbEntity
  8
0
  6
Continuous
 62
     7
370
    25
100
AcDbSpline
210
0.0
220
0.0
230
1.0
 70
     8
 71
     3
 72
    11
 73
     7
 74
     0
 42
0.00000001
 43
0.00000001
 40
0.0
 40
0.0
 40
0.0
 40
0.0
 40
0.250002142471301
 40
0.5000042849426021
 40
0.7500064274139031
 40
1.000008569885204
 40
1.000008569885204
 40
1.000008569885204
 40
1.000008569885204
 10
21.45986623135726
 20
5.673831209474669
 30
0.0
 10
21.46095219904869
 20
5.684902052247917
 30
0.0
 10
21.46289594345306
 20
5.707080388050046
 30
0.0
 10
21.46511574106444
 20
5.740319756735955
 30
0.0
 10
21.46664100827043
 20
5.773532388546398
 30
0.0
 10
21.46719347068824
 20
5.795568610964652
 30
0.0
 10
21.46735453491229
 20
5.806603348637746
 30
0.0
  0
SPLINE
  5
15A
330
1F
100
AcDbEntity
  8
0
  6
Continuous
 62
     7
370
    25
100
AcDbSpline
210
0.0
220
0.0
230
1.0
 70
     8
 71
     3
 72
    11
 73
     7
 74
     0
 42
0.00000001
 43
0.00000001
 40
-0.0000111329914591
 40
-0.0000111329914591
 40
-0.0000111329914591
 40
-0.0000111329914591
 40
0.2499916502564057
 40
0.4999944335042705
 40
0.7499972167521353
 40
1.0
 40
1.0
 40
1.0
 40
1.0
 10
21.46735453491229
 20
5.806603348637746
 30
0.0
 10
21.46749120047307
 20
5.815966039951808
 30
0.0
 10
21.4677611522888
 20
5.834645713276987
 30
0.0
 10
21.46817229804062
 20
5.8629396836953
 30
0.0
 10
21.46859813828098
 20
5.89137075903117
 30
0.0
 10
21.46890045246289
 20
5.910507648351445
 30
0.0
 10
21.46905691467562
 20
5.92005311544627
 30
0.0
  0
SPLINE
  5
15B
330
1F
100
AcDbEntity
  8
0
  6
Continuous
 62
     7
370
    25
100
AcDbSpline
210
0.0
220
0.0
230
1.0
 70
     8
 71
     3
 72
     8
 73
     4
 74
     0
 42
0.00000001
 43
0.00000001
 40
-0.0000019125082602
 40
-0.0000019125082602
 40
-0.0000019125082602
 40
-0.0000019125082602
 40
0.214309881675739
 40
0.214309881675739
 40
0.214309881675739
 40
0.214309881675739
 10
21.46905691467562
 20
5.92005311544627
 30
0.0
 10
21.47069794637146
 20
6.020138792904143
 30
0.0
 10
21.4724489042797
 20
6.120232431540976
 30
0.0
 10
21.47429188852204
 20
6.220309056629443
 30
0.0
  0
ARC
  5
15C
330
1F
100
AcDbEntity
  8
0
  6
Continuous
 62
     7
370
    25
100
AcDbCircle
 10
21.2743257938
 20
6.2239915785
 30
0.0
 40
0.2000000000000018
100
AcDbArc
 50
358.9449755727
 51
90.0
  0
LINE
  5
15D
330
1F
100
AcDbEntity
  8
0
  6
Continuous
 62
     7
370
    25
100
AcDbLine
 10
21.2743257938
 20
6.4239915785
 30
0.0
 11
19.6755504928
 21
6.4239915785
 31
0.0
  0
ARC
  5
15E
330
1F
100
AcDbEntity
  8
0
  6
Continuous
 62
     7
370
    25
100
AcDbCircle
 10
17.297740224
 20
5.8340348944
 30
0.0
 40
0.2000000000000021
100
AcDbArc
 50
353.6821874535
 51
45.0
  0
LINE
  5
15F
330
1F
100
AcDbEntity
  8
0
  6
Continuous
 62
     7
370
    25
100
AcDbLine
 10
17.0492048961
 20
6.3654129347
 30
0.0
 11
17.4391615802
 21
5.9754562507
 31
0.0
  0
ARC
  5
160
330
1F
100
AcDbEntity
  8
0
  6
Continuous
 62
     7
370
    25
100
AcDbCircle
 10
16.9077835399
 20
6.2239915785
 30
0.0
 40
0.2000000000000002
100
AcDbArc
 50
45.0
 51
90.0
  0
LINE
  5
161
330
1F
100
AcDbEntity
  8
0
  6
Continuous
 62
     7
370
    25
100
AcDbLine
 10
15.3090081655
 20
6.4239915785
 30
0.0
 11
16.9077835399
 21
6.4239915785
 31
0.0
  0
ARC
  5
162
330
1F
100
AcDbEntity
  8
0
  6
Continuous
 62
     7
370
    25
100
AcDbCircle
 10
15.3090081655
 20
6.2239915785
 30
0.0
 40
0.2000000000000002
100
AcDbArc
 50
90.0
 51
181.0550244271
  0
SPLINE
  5
163
330
1F
100
AcDbEntity
  8
0
  6
Continuous
 62
     7
370
    25
100
AcDbSpline
210
0.0
220
0.0
230
1.0
 70
     8
 71
     3
 72
     8
 73
     4
 74
     0
 42
0.00000001
 43
0.00000001
 40
0.7856891023147051
 40
0.7856891023147051
 40
0.7856891023147051
 40
0.7856891023147051
 40
1.000000897340721
 40
1.000000897340721
 40
1.000000897340721
 40
1.000000897340721
 10
15.10904207075955
 20
6.220309056630112
 30
0.0
 10
15.11088505500878
 20
6.120232431149394
 30
0.0
 10
15.11263601292306
 20
6.020138792120838
 30
0.0
 10
15.1142770446253
 20
5.920053114270853
 30
0.0
  0
SPLINE
  5
164
330
1F
100
AcDbEntity
  8
0
  6
Continuous
 62
     7
370
    25
100
AcDbSpline
210
0.0
220
0.0
230
1.0
 70
     8
 71
     3
 72
    11
 73
     7
 74
     0
 42
0.00000001
 43
0.00000001
 40
-0.0000111225446889
 40
-0.0000111225446889
 40
-0.0000111225446889
 40
-0.0000111225446889
 40
0.2499916580914833
 40
0.4999944387276555
 40
0.7499972193638278
 40
1.0
 40
1.0
 40
1.0
 40
1.0
 10
15.1142770446253
 20
5.920053114270853
 30
0.0
 10
15.1144335068365
 20
5.91050764726972
 30
0.0
 10
15.11473582101415
 20
5.891370758130084
 30
0.0
 10
15.11516166124972
 20
5.86293968310556
 30
0.0
 10
15.11557280699706
 20
5.834645712983257
 30
0.0
 10
15.11584275881
 20
5.815966039853985
 30
0.0
 10
15.11597942436935
 20
5.806603348638057
 30
0.0
  0
SPLINE
  5
165
330
1F
100
AcDbEntity
  8
0
  6
Continuous
 62
     7
370
    25
100
AcDbSpline
210
0.0
220
0.0
230
1.0
 70
     8
 71
     3
 72
    11
 73
     7
 74
     0
 42
0.00000001
 43
0.00000001
 40
0.0
 40
0.0
 40
0.0
 40
0.0
 40
0.2500021414352457
 40
0.5000042828704915
 40
0.7500064243057372
 40
1.000008565740983
 40
1.000008565740983
 40
1.000008565740983
 40
1.000008565740983
 10
15.11597942436935
 20
5.806603348638057
 30
0.0
 10
15.11614048859273
 20
5.79556861101079
 30
0.0
 10
15.11669295100785
 20
5.773532388679915
 30
0.0
 10
15.11821821820078
 20
5.740319757025826
 30
0.0
 10
15.12043801580456
 20
5.707080388411113
 30
0.0
 10
15.12238176017225
 20
5.684902052866959
 30
0.0
 10
15.12346772785358
 20
5.673831210196754
 30
0.0
  0
SPLINE
  5
166
330
1F
100
AcDbEntity
  8
0
  6
Continuous
 62
     7
370
    25
100
AcDbSpline
210
0.0
220
0.0
230
1.0
 70
     8
 71
     3
 72
    11
 73
     7
 74
     0
 42
0.00000001
 43
0.00000001
 40
-0.0000045030748267
 40
-0.0000045030748267
 40
-0.0000045030748267
 40
-0.0000045030748267
 40
0.249635144597674
 40
0.4992747922701747
 40
0.7489144399426754
 40
0.9985540876151761
 40
0.9985540876151761
 40
0.9985540876151761
 40
0.9985540876151761
 10
15.12346772785358
 20
5.673831210196754
 30
0.0
 10
15.12518203458101
 20
5.656353717809537
 30
0.0
 10
15.12967658236338
 20
5.621517675547414
 30
0.0
 10
15.13960743822995
 20
5.569637968437139
 30
0.0
 10
15.15267504347484
 20
5.518481266280846
 30
0.0
 10
15.16340676796142
 20
5.485106073183642
 30
0.0
 10
15.16928473320566
 20
5.468586223054057
 30
0.0
  0
ARC
  5
167
330
1F
100
AcDbEntity
  8
0
  6
Continuous
 62
     7
370
    25
100
AcDbCircle
 10
16.0096376012
 20
5.767594078
 30
0.0
 40
0.8919633625155351
100
AcDbArc
 50
199.5861822508
 51
205.3613363573
  0
SPLINE
  5
168
330
1F
100
AcDbEntity
  8
0
  6
Continuous
 62
     7
370
    25
100
AcDbSpline
210
0.0
220
0.0
230
1.0
 70
     8
 71
     3
 72
    11
 73
     7
 74
     0
 42
0.00000001
 43
0.00000001
 40
0.0122144917415693
 40
0.0122144917415693
 40
0.0122144917415693
 40
0.0122144917415693
 40
0.2591615626426548
 40
0.5061086335437404
 40
0.753055704444826
 40
1.000002775345912
 40
1.000002775345912
 40
1.000002775345912
 40
1.000002775345912
 10
15.20363762165331
 20
5.385543462191563
 30
0.0
 10
15.21252160387467
 20
5.366801208697401
 30
0.0
 10
15.2315734574473
 20
5.329935412649668
 30
0.0
 10
15.2639190157631
 20
5.276604698126569
 30
0.0
 10
15.29977413375844
 20
5.225691120910963
 30
0.0
 10
15.32571786334405
 20
5.19373292057367
 30
0.0
 10
15.33925032360686
 20
5.178191648517964
 30
0.0
  0
SPLINE
  5
169
330
1F
100
AcDbEntity
  8
0
  6
Continuous
 62
     7
370
    25
100
AcDbSpline
210
0.0
220
0.0
230
1.0
 70
     8
 71
     3
 72
    11
 73
     7
 74
     0
 42
0.00000001
 43
0.00000001
 40
-0.0000010570005615
 40
-0.0000010570005615
 40
-0.0000010570005615
 40
-0.0000010570005615
 40
0.2500058982956835
 40
0.5000128535919284
 40
0.7500198088881733
 40
1.000026764184418
 40
1.000026764184418
 40
1.000026764184418
 40
1.000026764184418
 10
15.33925032360685
 20
5.178191648517964
 30
0.0
 10
15.37511072002956
 20
5.137007634107976
 30
0.0
 10
15.45484422333385
 20
5.060675122360183
 30
0.0
 10
15.590848794208
 20
4.971464249036859
 30
0.0
 10
15.73891322978331
 20
4.909649704045248
 30
0.0
 10
15.8410864808732
 20
4.888010640668984
 30
0.0
 10
15.89293424011599
 20
4.882079355514751
 30
0.0
  0
SPLINE
  5
16A
330
1F
100
AcDbEntity
  8
0
  6
Continuous
 62
     7
370
    25
100
AcDbSpline
210
0.0
220
0.0
230
1.0
 70
     8
 71
     3
 72
    11
 73
     7
 74
     0
 42
0.00000001
 43
0.00000001
 40
-0.000052925850823
 40
-0.000052925850823
 40
-0.000052925850823
 40
-0.000052925850823
 40
0.2499610811696094
 40
0.4999750881900417
 40
0.7499890952104741
 40
1.000003102230906
 40
1.000003102230906
 40
1.000003102230906
 40
1.000003102230906
 10
15.89293424011599
 20
4.882079355514751
 30
0.0
 10
15.93072365736784
 20
4.877752209459469
 30
0.0
 10
16.00612997764268
 20
4.870127033482369
 30
0.0
 10
16.12124491509612
 20
4.861514996401247
 30
0.0
 10
16.2372391165648
 20
4.855862130553328
 30
0.0
 10
16.31532481630053
 20
4.854077014382123
 30
0.0
 10
16.35428547967138
 20
4.85368980430126
 30
0.0
  0
SPLINE
  5
16B
330
1F
100
AcDbEntity
  8
0
  6
Continuous
 62
     7
370
    25
100
AcDbSpline
210
0.0
220
0.0
230
1.0
 70
     8
 71
     3
 72
    11
 73
     7
 74
     0
 42
0.00000001
 43
0.00000001
 40
-0.0000133794585874
 40
-0.0000133794585874
 40
-0.0000133794585874
 40
-0.0000133794585874
 40
0.2499899654060595
 40
0.4999933102707063
 40
0.7499966551353532
 40
1.0
 40
1.0
 40
1.0
 40
1.0
 10
16.35428547967137
 20
4.85368980430126
 30
0.0
 10
16.36333095620301
 20
4.853599847524954
 30
0.0
 10
16.38140138822009
 20
4.853475697392128
 30
0.0
 10
16.40863435298385
 20
4.853452823123268
 30
0.0
 10
16.43592808254293
 20
4.853591422006802
 30
0.0
 10
16.45420098677567
 20
4.853790300134235
 30
0.0
 10
16.4633273215433
 20
4.85391560258579
 30
0.0
  0
SPLINE
  5
16C
330
1F
100
AcDbEntity
  8
0
  6
Continuous
 62
     7
370
    25
100
AcDbSpline
210
0.0
220
0.0
230
1.0
 70
     8
 71
     3
 72
    11
 73
     7
 74
     0
 42
0.00000001
 43
0.00000001
 40
-0.0000043638180641
 40
-0.0000043638180641
 40
-0.0000043638180641
 40
-0.0000043638180641
 40
0.249997817112188
 40
0.4999999980424401
 40
0.7500021789726922
 40
1.000004359902944
 40
1.000004359902944
 40
1.000004359902944
 40
1.000004359902944
 10
16.4633273215433
 20
4.85391560258579
 30
0.0
 10
16.47525638357118
 20
4.854079371262965
 30
0.0
 10
16.49911084784852
 20
4.854387534580675
 30
0.0
 10
16.53491683748576
 20
4.854790761974924
 30
0.0
 10
16.5707365653533
 20
4.855133481057161
 30
0.0
 10
16.59463597621903
 20
4.85532079692603
 30
0.0
 10
16.60658334878802
 20
4.85540388668732
 30
0.0
  0
ARC
  5
16D
330
1F
100
AcDbEntity
  8
0
  6
Continuous
 62
     7
370
    25
100
AcDbCircle
 10
16.9410158577
 20
-43.2491113752
 30
0.0
 40
48.10567776973556
100
AcDbArc
 50
90.3301048549
 51
90.3983256558
  0
SPLINE
  5
16E
330
1F
100
AcDbEntity
  8
0
  6
Continuous
 62
     7
370
    25
100
AcDbSpline
210
0.0
220
0.0
230
1.0
 70
     8
 71
     3
 72
    11
 73
     7
 74
     0
 42
0.00000001
 43
0.00000001
 40
0.000341087673077
 40
0.000341087673077
 40
0.000341087673077
 40
0.000341087673077
 40
0.2502588753090883
 40
0.5001766629450995
 40
0.7500944505811109
 40
1.000012238217122
 40
1.000012238217122
 40
1.000012238217122
 40
1.000012238217122
 10
16.66386054078819
 20
4.855767988690622
 30
0.0
 10
16.67758061429572
 20
4.855847036624446
 30
0.0
 10
16.70503354966274
 20
4.85599862823689
 30
0.0
 10
16.74613653030516
 20
4.8562105923153
 30
0.0
 10
16.7872013692035
 20
4.856412073850107
 30
0.0
 10
16.81452708890866
 20
4.856542419297248
 30
0.0
 10
16.82819630665694
 20
4.856607470907554
 30
0.0
  0
SPLINE
  5
16F
330
1F
100
AcDbEntity
  8
0
  6
Continuous
 62
     7
370
    25
100
AcDbSpline
210
0.0
220
0.0
230
1.0
 70
     8
 71
     3
 72
    10
 73
     6
 74
     0
 42
0.00000001
 43
0.00000001
 40
-0.0000013806466363
 40
-0.0000013806466363
 40
-0.0000013806466363
 40
-0.0000013806466363
 40
0.2487879630399114
 40
0.4975773067264591
 40
0.5202755971078269
 40
0.5202755971078269
 40
0.5202755971078269
 40
0.5202755971078269
 10
16.82819630665694
 20
4.856607470907554
 30
0.0
 10
16.94954186257782
 20
4.857183978773198
 30
0.0
 10
17.19195303019384
 20
4.857863159073112
 30
0.0
 10
17.44660476516285
 20
4.857474183024871
 30
0.0
 10
17.579671821056
 20
4.856925497504016
 30
0.0
 10
17.59079861642646
 20
4.856877184508011
 30
0.0
  0
ARC
  5
170
330
1F
100
AcDbEntity
  8
0
  6
Continuous
 62
     7
370
    25
100
AcDbCircle
 10
17.5916670163
 20
5.0568752992
 30
0.0
 40
0.2000000000000016
100
AcDbArc
 50
269.751220969
 51
353.2483261634
  0
ARC
  5
171
330
1F
100
AcDbEntity
  8
0
  6
Continuous
 62
     7
370
    25
100
AcDbCircle
 10
17.5916670163
 20
5.0098487357
 30
0.0
 40
0.2000000000000022
100
AcDbArc
 50
6.7516738366
 51
45.5729959992
  0
ARC
  5
172
330
1F
100
AcDbEntity
  8
0
  6
Continuous
 62
     7
370
    25
100
AcDbCircle
 10
18.2916670163
 20
5.7239915785
 30
0.0
 40
0.8000000000000043
100
AcDbArc
 50
173.6821874535
 51
225.5729959992
  0
SPLINE
  5
173
330
1F
100
AcDbEntity
  8
0
  6
Continuous
 62
     7
370
    25
100
AcDbSpline
210
0.0
220
0.0
230
1.0
 70
     8
 71
     3
 72
    16
 73
    12
 74
     0
 42
0.00000001
 43
0.00000001
 40
0.4721024802051658
 40
0.4721024802051658
 40
0.4721024802051658
 40
0.4721024802051658
 40
0.5000000000000001
 40
0.5000000000000001
 40
0.7500000000000004
 40
0.7500000000000004
 40
0.8750000000000002
 40
0.8750000000000002
 40
0.9375000000000001
 40
0.9375000000000001
 40
1.0
 40
1.0
 40
1.0
 40
1.0
 10
13.74709973759894
 20
10.37181245518189
 30
0.0
 10
13.77115123944781
 20
10.3680766324439
 30
0.0
 10
13.79519580767548
 20
10.36429265850938
 30
0.0
 10
14.03464188903671
 20
10.32610768113916
 30
0.0
 10
14.24952041118816
 20
10.28784083703141
 30
0.0
 10
14.5699423833905
 20
10.22245786418946
 30
0.0
 10
14.67645895411253
 20
10.19933236808855
 30
0.0
 10
14.83564490128379
 20
10.16194789030669
 30
0.0
 10
14.8886082942142
 20
10.14903502023762
 30
0.0
 10
14.99427426539058
 20
10.12201517807548
 30
0.0
 10
15.04698714043133
 20
10.10795534835673
 30
0.0
 10
15.09946782663731
 20
10.09283247589509
 30
0.0
  0
LINE
  5
174
330
1F
100
AcDbEntity
  8
0
  6
Continuous
 62
     7
370
    25
100
AcDbLine
 10
15.0994678266
 20
10.0928324759
 30
0.0
 11
15.1069222916
 21
10.0906843919
 31
0.0
  0
SPLINE
  5
175
330
1F
100
AcDbEntity
  8
0
  6
Continuous
 62
     7
370
    25
100
AcDbSpline
210
0.0
220
0.0
230
1.0
 70
     8
 71
     3
 72
    15
 73
    11
 74
     0
 42
0.00000001
 43
0.00000001
 40
0.0
 40
0.0
 40
0.0
 40
0.0
 40
0.124989925783195
 40
0.2499567888555047
 40
0.3749135598564113
 40
0.4998732125680104
 40
0.624848719874953
 40
0.7498530497257375
 40
0.8748991611017132
 40
1.0
 40
1.0
 40
1.0
 40
1.0
 10
15.26927088261093
 20
10.31681330369842
 30
0.0
 10
15.26215358547281
 20
10.30765188381381
 30
0.0
 10
15.24792030445575
 20
10.28933073447827
 30
0.0
 10
15.22692793648942
 20
10.26157667808589
 30
0.0
 10
15.20620085576829
 20
10.23362799217971
 30
0.0
 10
15.18576498545954
 20
10.20546448033749
 30
0.0
 10
15.16561159011882
 20
10.1770927331504
 30
0.0
 10
15.14574969619314
 20
10.14850658735555
 30
0.0
 10
15.12615192587059
 20
10.11972411834271
 30
0.0
 10
15.11333310450798
 20
10.10036571246405
 30
0.0
 10
15.10692229156626
 20
10.09068439189428
 30
0.0
  0
SPLINE
  5
176
330
1F
100
AcDbEntity
  8
0
  6
Continuous
 62
     7
370
    25
100
AcDbSpline
210
0.0
220
0.0
230
1.0
 70
     8
 71
     3
 72
    11
 73
     7
 74
     0
 42
0.00000001
 43
0.00000001
 40
0.0
 40
0.0
 40
0.0
 40
0.0
 40
0.2518422619091354
 40
0.5024433848101867
 40
0.7518227437692524
 40
0.9999999999999999
 40
0.9999999999999999
 40
0.9999999999999999
 40
0.9999999999999999
 10
15.3395240389675
 20
10.40346447930533
 30
0.0
 10
15.33351745319366
 20
10.39627940783856
 30
0.0
 10
15.32153388353984
 20
10.38194467465875
 30
0.0
 10
15.30384422889069
 20
10.36029498988239
 30
0.0
 10
15.28640446964298
 20
10.33861811567636
 30
0.0
 10
15.2749728719961
 20
10.32406985810301
 30
0.0
 10
15.26927088261093
 20
10.31681330369842
 30
0.0
  0
SPLINE
  5
177
330
1F
100
AcDbEntity
  8
0
  6
Continuous
 62
     7
370
    25
100
AcDbSpline
210
0.0
220
0.0
230
1.0
 70
     8
 71
     3
 72
     9
 73
     5
 74
     0
 42
0.00000001
 43
0.00000001
 40
0.0
 40
0.0
 40
0.0
 40
0.0
 40
0.4945744585660869
 40
1.0
 40
1.0
 40
1.0
 40
1.0
 10
15.37426464312584
 20
10.4441667600479
 30
0.0
 10
15.36849725115826
 20
10.43749090394376
 30
0.0
 10
15.35683592925277
 20
10.42399272184293
 30
0.0
 10
15.34533626367065
 20
10.41035654923087
 30
0.0
 10
15.3395240389675
 20
10.40346447930533
 30
0.0
  0
SPLINE
  5
178
330
1F
100
AcDbEntity
  8
0
  6
Continuous
 62
     7
370
    25
100
AcDbSpline
210
0.0
220
0.0
230
1.0
 70
     8
 71
     3
 72
    27
 73
    23
 74
     0
 42
0.00000001
 43
0.00000001
 40
0.0
 40
0.0
 40
0.0
 40
0.0
 40
0.0357778406786421
 40
0.0715381922325984
 40
0.107284903311864
 40
0.1430218269734207
 40
0.1787528194405364
 40
0.2144817388569388
 40
0.2502124440378908
 40
0.2859487932201745
 40
0.3216946428130105
 40
0.3574538461519387
 40
0.3932302522576613
 40
0.4290277046018435
 40
0.4648500398818339
 40
0.5007010868062357
 40
0.6256380005448686
 40
0.7505090179497845
 40
0.8129590271375384
 40
0.8753437339068034
 40
0.937683817104278
 40
1.0
 40
1.0
 40
1.0
 40
1.0
 10
16.13383793032558
 20
11.09797926078611
 30
0.0
 10
16.12373097561629
 20
11.09152089994942
 30
0.0
 10
16.103522006736
 20
11.07860733528821
 30
0.0
 10
16.07347150213708
 20
11.05884397574895
 30
0.0
 10
16.04362461131837
 20
11.03879989130426
 30
0.0
 10
16.01399949867483
 20
11.01844646956306
 30
0.0
 10
15.98459130097374
 20
10.99779137400994
 30
0.0
 10
15.95540132218768
 20
10.97683255283458
 30
0.0
 10
15.92642921429365
 20
10.95557055656016
 30
0.0
 10
15.89767507179468
 20
10.93400523889848
 30
0.0
 10
15.86913887062894
 20
10.91213663914426
 30
0.0
 10
15.84082061827137
 20
10.88996475130579
 30
0.0
 10
15.81272031441815
 20
10.86748956514634
 30
0.0
 10
15.78483795810761
 20
10.84471113297671
 30
0.0
 10
15.75717355856647
 20
10.82162926113946
 30
0.0
 10
15.70700238092067
 20
10.77888307615797
 30
0.0
 10
15.63555263390293
 20
10.71508591654227
 30
0.0
 10
15.56003431852304
 20
10.64255960626713
 30
0.0
 10
15.50124761434369
 20
10.58295805514323
 30
0.0
 10
15.45801809483068
 20
10.53747297298775
 30
0.0
 10
15.41559286789884
 20
10.49129442761979
 30
0.0
 10
15.38803895708298
 20
10.45987397449441
 30
0.0
 10
15.37426464312584
 20
10.4441667600479
 30
0.0
  0
ARC
  5
179
330
1F
100
AcDbEntity
  8
0
  6
Continuous
 62
     7
370
    25
100
AcDbCircle
 10
17.6727810361
 20
8.6736822665
 30
0.0
 40
2.871508627884984
100
AcDbArc
 50
122.0603315795
 51
122.4073697427
  0
SPLINE
  5
17A
330
1F
100
AcDbEntity
  8
0
  6
Continuous
 62
     7
370
    25
100
AcDbSpline
210
0.0
220
0.0
230
1.0
 70
     8
 71
     3
 72
    21
 73
    17
 74
     0
 42
0.00000001
 43
0.00000001
 40
0.0
 40
0.0
 40
0.0
 40
0.0
 40
0.0555702579086887
 40
0.1111412513383744
 40
0.1667186604599893
 40
0.2223081634777844
 40
0.277915434891194
 40
0.3335461437623625
 40
0.3892059519919807
 40
0.4449005126060304
 40
0.5006354680560107
 40
0.6005169917082706
 40
0.700361760266548
 40
0.8002022212555696
 40
0.900070826398675
 40
0.9999999999999999
 40
0.9999999999999999
 40
0.9999999999999999
 40
0.9999999999999999
 10
16.78427422848545
 20
11.42960512154347
 30
0.0
 10
16.77200401019739
 20
11.42468176083344
 30
0.0
 10
16.74746341121418
 20
11.41483497424836
 30
0.0
 10
16.71084275892777
 20
11.39959322384724
 30
0.0
 10
16.67436299960967
 20
11.3840068990226
 30
0.0
 10
16.63803763059428
 20
11.36804207783432
 30
0.0
 10
16.60186303583022
 20
11.35170785390699
 30
0.0
 10
16.56584018609877
 20
11.33500178486278
 30
0.0
 10
16.5299688219512
 20
11.31792454731472
 30
0.0
 10
16.49424901617011
 20
11.30047588232371
 30
0.0
 10
16.44929987194417
 20
11.27795633023407
 30
0.0
 10
16.39534472211599
 20
11.24997002434689
 30
0.0
 10
16.33267276320244
 20
11.21602261721557
 30
0.0
 10
16.27063887107746
 20
11.18093127181557
 30
0.0
 10
16.20918126919495
 20
11.14479490542116
 30
0.0
 10
16.16876446460361
 20
11.11977152978898
 30
0.0
 10
16.1485499361549
 20
11.10725604906965
 30
0.0
  0
SPLINE
  5
17B
330
1F
100
AcDbEntity
  8
0
  6
Continuous
 62
     7
370
    25
100
AcDbSpline
210
0.0
220
0.0
230
1.0
 70
     8
 71
     3
 72
    24
 73
    20
 74
     0
 42
0.00000001
 43
0.00000001
 40
0.0
 40
0.0
 40
0.0
 40
0.0
 40
0.0274080526847033
 40
0.0548032730512856
 40
0.0821882771547609
 40
0.1095656839787963
 40
0.1369381146877734
 40
0.1643081918757243
 40
0.1916785388132159
 40
0.2190517786932621
 40
0.3495971234619277
 40
0.4799249444063038
 40
0.610228904569759
 40
0.7402699023852464
 40
0.7923316869572359
 40
0.8443164608360273
 40
0.89624332231678
 40
0.9481314336415994
 40
1.0
 40
1.0
 40
1.0
 40
1.0
 10
18.22916701634577
 20
11.71607185356464
 30
0.0
 10
18.21563824749205
 20
11.71582395624165
 30
0.0
 10
18.18858704388895
 20
11.71532827766
 30
0.0
 10
18.1480301049824
 20
11.71408263648885
 30
0.0
 10
18.10750173843389
 20
11.71246956468227
 30
0.0
 10
18.06700250732273
 20
11.71045304910322
 30
0.0
 10
18.02653224950299
 20
11.70804273018827
 30
0.0
 10
17.98609105743468
 20
11.70523604168148
 30
0.0
 10
17.94567873007195
 20
11.70203361170034
 30
0.0
 10
17.85456496813531
 20
11.69391534094563
 30
0.0
 10
17.7131777977051
 20
11.67727990558382
 30
0.0
 10
17.52258886869802
 20
11.64570165243169
 30
0.0
 10
17.33394118929891
 20
11.60523200272997
 30
0.0
 10
17.18478681495415
 20
11.56573617291536
 30
0.0
 10
17.07411593024255
 20
11.53244259785893
 30
0.0
 10
17.00080932940702
 20
11.5088578558021
 30
0.0
 10
16.92806101935004
 20
11.48387202351927
 30
0.0
 10
16.85582068671327
 20
11.45761018140136
 30
0.0
 10
16.80812005272271
 20
11.43893896911142
 30
0.0
 10
16.78427422848545
 20
11.42960512154347
 30
0.0
  0
LINE
  5
17C
330
1F
100
AcDbEntity
  8
0
  6
Continuous
 62
     7
370
    25
100
AcDbLine
 10
18.2291670163
 20
11.7160714667
 30
0.0
 11
18.2291670163
 21
11.1160710798
 31
0.0
  0
LINE
  5
17D
330
1F
100
AcDbEntity
  8
0
  6
Continuous
 62
     7
370
    25
100
AcDbLine
 10
18.2291670163
 20
11.1160710798
 30
0.0
 11
18.3541670163
 21
11.1160710798
 31
0.0
  0
LINE
  5
17E
330
1F
100
AcDbEntity
  8
0
  6
Continuous
 62
     7
370
    25
100
AcDbLine
 10
18.3541670163
 20
11.1160710798
 30
0.0
 11
18.3541670163
 21
11.7160715105
 31
0.0
  0
SPLINE
  5
17F
330
1F
100
AcDbEntity
  8
0
  6
Continuous
 62
     7
370
    25
100
AcDbSpline
210
0.0
220
0.0
230
1.0
 70
     8
 71
     3
 72
     9
 73
     5
 74
     0
 42
0.00000001
 43
0.00000001
 40
0.0
 40
0.0
 40
0.0
 40
0.0
 40
0.5
 40
1.0
 40
1.0
 40
1.0
 40
1.0
 10
18.35416700296717
 20
11.71607108002248
 30
0.0
 10
18.60175421921819
 20
11.71222686312554
 30
0.0
 10
19.09591672841806
 20
11.66020695518411
 30
0.0
 10
19.57069167892291
 20
11.52046151999533
 30
0.0
 10
19.79905980419074
 20
11.42960512154347
 30
0.0
  0
SPLINE
  5
180
330
1F
100
AcDbEntity
  8
0
  6
Continuous
 62
     7
370
    25
100
AcDbSpline
210
0.0
220
0.0
230
1.0
 70
     8
 71
     3
 72
     8
 73
     4
 74
     0
 42
0.00000001
 43
0.00000001
 40
0.0
 40
0.0
 40
0.0
 40
0.0
 40
0.9999424674283106
 40
0.9999424674283106
 40
0.9999424674283106
 40
0.9999424674283106
 10
19.79905980419074
 20
11.42960512154347
 30
0.0
 10
20.02068511785151
 20
11.34142919652562
 30
0.0
 10
20.23366926604523
 20
11.23322119607734
 30
0.0
 10
20.43478409652129
 20
11.10725604906965
 30
0.0
  0
ARC
  5
181
330
1F
100
AcDbEntity
  8
0
  6
Continuous
 62
     7
370
    25
100
AcDbCircle
 10
18.9105529966
 20
8.6736822665
 30
0.0
 40
2.871508627884985
100
AcDbArc
 50
57.5926302573
 51
57.9396684205
  0
SPLINE
  5
182
330
1F
100
AcDbEntity
  8
0
  6
Continuous
 62
     7
370
    25
100
AcDbSpline
210
0.0
220
0.0
230
1.0
 70
     8
 71
     3
 72
     8
 73
     4
 74
     0
 42
0.00000001
 43
0.00000001
 40
0.0001183384978996
 40
0.0001183384978996
 40
0.0001183384978996
 40
0.0001183384978996
 40
1.0
 40
1.0
 40
1.0
 40
1.0
 10
20.44949610235061
 20
11.0979792607861
 30
0.0
 10
20.73335229935878
 20
10.91778742024336
 30
0.0
 10
20.98994776871879
 20
10.69670910177518
 30
0.0
 10
21.20906938955035
 20
10.4441667600479
 30
0.0
  0
SPLINE
  5
183
330
1F
100
AcDbEntity
  8
0
  6
Continuous
 62
     7
370
    25
100
AcDbSpline
210
0.0
220
0.0
230
1.0
 70
     8
 71
     3
 72
     8
 73
     4
 74
     0
 42
0.00000001
 43
0.00000001
 40
0.0
 40
0.0
 40
0.0
 40
0.0
 40
1.0
 40
1.0
 40
1.0
 40
1.0
 10
21.20906938955035
 20
10.4441667600479
 30
0.0
 10
21.22076077978262
 20
10.43069215764396
 30
0.0
 10
21.23233675602972
 20
10.41712015654102
 30
0.0
 10
21.24380999370868
 20
10.40346447930533
 30
0.0
  0
SPLINE
  5
184
330
1F
100
AcDbEntity
  8
0
  6
Continuous
 62
     7
370
    25
100
AcDbSpline
210
0.0
220
0.0
230
1.0
 70
     8
 71
     3
 72
     8
 73
     4
 74
     0
 42
0.00000001
 43
0.00000001
 40
0.0
 40
0.0
 40
0.0
 40
0.0
 40
1.0
 40
1.0
 40
1.0
 40
1.0
 10
21.24380999370868
 20
10.40346447930533
 30
0.0
 10
21.26774729553682
 20
10.3749738188308
 30
0.0
 10
21.29117838187477
 20
10.34609259337065
 30
0.0
 10
21.31406315006526
 20
10.31681330369842
 30
0.0
  0
SPLINE
  5
185
330
1F
100
AcDbEntity
  8
0
  6
Continuous
 62
     7
370
    25
100
AcDbSpline
210
0.0
220
0.0
230
1.0
 70
     8
 71
     3
 72
     8
 73
     4
 74
     0
 42
0.00000001
 43
0.00000001
 40
0.0
 40
0.0
 40
0.0
 40
0.0
 40
0.3889058968193939
 40
0.3889058968193939
 40
0.3889058968193939
 40
0.3889058968193939
 10
21.31406315006526
 20
10.31681330369842
 30
0.0
 10
21.37125126365839
 20
10.24364531434352
 30
0.0
 10
21.42541952603163
 20
10.16818324558729
 30
0.0
 10
21.47641174110992
 20
10.09068439189428
 30
0.0
  0
LINE
  5
186
330
1F
100
AcDbEntity
  8
0
  6
Continuous
 62
     7
370
    25
100
AcDbLine
 10
21.483866206
 20
10.0928324759
 30
0.0
 11
21.4764117411
 21
10.0906843919
 31
0.0
  0
SPLINE
  5
187
330
1F
100
AcDbEntity
  8
0
  6
Continuous
 62
     7
370
    25
100
AcDbSpline
210
0.0
220
0.0
230
1.0
 70
     8
 71
     3
 72
    19
 73
    15
 74
     0
 42
0.00000001
 43
0.00000001
 40
0.0
 40
0.0
 40
0.0
 40
0.0
 40
0.0488970905799969
 40
0.0973661562492519
 40
0.1454079032841056
 40
0.1930230569761717
 40
0.3995580016990422
 40
0.596500661951642
 40
0.6995832217466733
 40
0.7981661410730133
 40
0.8494131740110369
 40
0.8990389330790495
 40
0.9516770607931724
 40
1.0
 40
1.0
 40
1.0
 40
1.0
 10
22.83623475912934
 20
10.37181161486045
 30
0.0
 10
22.81398607272021
 20
10.36833249085026
 30
0.0
 10
22.76968345570238
 20
10.36140469764275
 30
0.0
 10
22.70357133976588
 20
10.35074286047145
 30
0.0
 10
22.63808049707735
 20
10.33993987667264
 30
0.0
 10
22.50085593512063
 20
10.31674310142958
 30
0.0
 10
22.29638811819422
 20
10.27990895232683
 30
0.0
 10
22.06763270177411
 20
10.23403893514304
 30
0.0
 10
21.88828107878483
 20
10.19486884807519
 30
0.0
 10
21.77482598687295
 20
10.1684942015513
 30
0.0
 10
21.6855981463971
 20
10.14666842062225
 30
0.0
 10
21.61708059212452
 20
10.12924469758171
 30
0.0
 10
21.55002097469291
 20
10.11155223516872
 30
0.0
 10
21.50528037455452
 20
10.09889202515834
 30
0.0
 10
21.48386620603887
 20
10.09283247589509
 30
0.0
  0
LINE
  5
188
330
1F
100
AcDbEntity
  8
0
  6
Continuous
 62
     7
370
    25
100
AcDbLine
 10
23.7548454527
 20
9.4532012976
 30
0.0
 11
22.8362346899
 21
10.3718120603
 31
0.0
  0
SPLINE
  5
189
330
1F
100
AcDbEntity
  8
0
  6
Continuous
 62
     7
370
    25
100
AcDbSpline
210
0.0
220
0.0
230
1.0
 70
     8
 71
     3
 72
    23
 73
    19
 74
     0
 42
0.00000001
 43
0.00000001
 40
0.0
 40
0.0
 40
0.0
 40
0.0
 40
0.0206860630267462
 40
0.0415543695238224
 40
0.0626065077588726
 40
0.0838440247554935
 40
0.1052684273795621
 40
0.1268811834073563
 40
0.1486837225745747
 40
0.2216738660194603
 40
0.2965529716207376
 40
0.4417781043764253
 40
0.5915921269264259
 40
0.7378364646376234
 40
0.887477367808595
 40
0.9248044395873035
 40
0.9623110852029657
 40
1.0
 40
1.0
 40
1.0
 40
1.0
 10
22.01760970981463
 20
8.25788646151039
 30
0.0
 10
22.02815801339607
 20
8.267966691508555
 30
0.0
 10
22.04934755073365
 20
8.288215957968168
 30
0.0
 10
22.08161247196168
 20
8.318364441925246
 30
0.0
 10
22.11440346999943
 20
8.348516859926193
 30
0.0
 10
22.14774584278213
 20
8.378646880882162
 30
0.0
 10
22.18163264287867
 20
8.408761718716946
 30
0.0
 10
22.21606605729298
 20
8.438859180706489
 30
0.0
 10
22.27831534435054
 20
8.492393997612854
 30
0.0
 10
22.37040177979616
 20
8.568848566848542
 30
0.0
 10
22.53273769023471
 20
8.696868956129302
 30
0.0
 10
22.74318223771091
 20
8.851255414962663
 30
0.0
 10
23.0018298217653
 20
9.024543867893273
 30
0.0
 10
23.26968891927618
 20
9.189217648020572
 30
0.0
 10
23.47431816845977
 20
9.304925724110925
 30
0.0
 10
23.6137973460544
 20
9.379843742105276
 30
0.0
 10
23.6840118225604
 20
9.416841689823586
 30
0.0
 10
23.73119434729215
 20
9.44106427535871
 30
0.0
 10
23.75484279335418
 20
9.453204925117642
 30
0.0
  0
LINE
  5
18A
330
1F
100
AcDbEntity
  8
0
  6
Continuous
 62
     7
370
    25
100
AcDbLine
 10
22.0176097098
 20
8.2578864615
 30
0.0
 11
21.9823249407
 21
8.2239915785
 31
0.0
  0
LINE
  5
18B
330
1F
100
AcDbEntity
  8
0
  6
Continuous
 62
     7
370
    25
100
AcDbLine
 10
21.6655815311
 20
8.2239915785
 30
0.0
 11
21.9823249407
 21
8.2239915785
 31
0.0
  0
LINE
  5
18C
330
1F
100
AcDbEntity
  8
0
  6
Continuous
 62
     7
370
    25
100
AcDbLine
 10
21.6655815311
 20
8.0989915785
 30
0.0
 11
21.6655815311
 21
8.2239915785
 31
0.0
  0
LINE
  5
18D
330
1F
100
AcDbEntity
  8
0
  6
Continuous
 62
     7
370
    25
100
AcDbLine
 10
22.0155815311
 20
8.0989915785
 30
0.0
 11
21.6655815311
 21
8.0989915785
 31
0.0
  0
SPLINE
  5
18E
330
1F
100
AcDbEntity
  8
0
  6
Continuous
 62
     7
370
    25
100
AcDbSpline
210
0.0
220
0.0
230
1.0
 70
     8
 71
     3
 72
     8
 73
     4
 74
     0
 42
0.00000001
 43
0.00000001
 40
0.0810880259891713
 40
0.0810880259891713
 40
0.0810880259891713
 40
0.0810880259891713
 40
1.0
 40
1.0
 40
1.0
 40
1.0
 10
22.01558153111115
 20
8.098991578510288
 30
0.0
 10
22.01337181547543
 20
8.005724118184506
 30
0.0
 10
22.01120862979106
 20
7.912517060148007
 30
0.0
 10
22.00906357081514
 20
7.819366460523749
 30
0.0
  0
SPLINE
  5
18F
330
1F
100
AcDbEntity
  8
0
  6
Continuous
 62
     7
370
    25
100
AcDbSpline
210
0.0
220
0.0
230
1.0
 70
     8
 71
     3
 72
     8
 73
     4
 74
     0
 42
0.00000001
 43
0.00000001
 40
0.0
 40
0.0
 40
0.0
 40
0.0
 40
1.0
 40
1.0
 40
1.0
 40
1.0
 10
22.00906357081514
 20
7.819366460523749
 30
0.0
 10
22.00514449110086
 20
7.649157225166127
 30
0.0
 10
22.00116888777508
 20
7.479149519032219
 30
0.0
 10
21.99728897397689
 20
7.309320587132156
 30
0.0
  0
SPLINE
  5
190
330
1F
100
AcDbEntity
  8
0
  6
Continuous
 62
     7
370
    25
100
AcDbSpline
210
0.0
220
0.0
230
1.0
 70
     8
 71
     3
 72
     8
 73
     4
 74
     0
 42
0.00000001
 43
0.00000001
 40
0.0
 40
0.0
 40
0.0
 40
0.0
 40
1.0
 40
1.0
 40
1.0
 40
1.0
 10
21.99728897397689
 20
7.309320587132156
 30
0.0
 10
21.98663558762246
 20
6.842789053275848
 30
0.0
 10
21.97662073003625
 20
6.377260981831148
 30
0.0
 10
21.96898985228487
 20
5.91185768018561
 30
0.0
  0
SPLINE
  5
191
330
1F
100
AcDbEntity
  8
0
  6
Continuous
 62
     7
370
    25
100
AcDbSpline
210
0.0
220
0.0
230
1.0
 70
     8
 71
     3
 72
     8
 73
     4
 74
     0
 42
0.00000001
 43
0.00000001
 40
0.0
 40
0.0
 40
0.0
 40
0.0
 40
1.0
 40
1.0
 40
1.0
 40
1.0
 10
21.96898985228487
 20
5.91185768018561
 30
0.0
 10
21.96837497666557
 20
5.87434526815236
 30
0.0
 10
21.96784908430374
 20
5.836827560213762
 30
0.0
 10
21.96730138954986
 20
5.799306059656474
 30
0.0
  0
SPLINE
  5
192
330
1F
100
AcDbEntity
  8
0
  6
Continuous
 62
     7
370
    25
100
AcDbSpline
210
0.0
220
0.0
230
1.0
 70
     8
 71
     3
 72
     8
 73
     4
 74
     0
 42
0.00000001
 43
0.00000001
 40
0.0
 40
0.0
 40
0.0
 40
0.0
 40
1.0
 40
1.0
 40
1.0
 40
1.0
 10
21.96730138954986
 20
5.799306059656474
 30
0.0
 10
21.96645458361159
 20
5.741290187764804
 30
0.0
 10
21.96317291713988
 20
5.683075500917324
 30
0.0
 10
21.95747816803297
 20
5.625020668813933
 30
0.0
  0
SPLINE
  5
193
330
1F
100
AcDbEntity
  8
0
  6
Continuous
 62
     7
370
    25
100
AcDbSpline
210
0.0
220
0.0
230
1.0
 70
     8
 71
     3
 72
     8
 73
     4
 74
     0
 42
0.00000001
 43
0.00000001
 40
0.0
 40
0.0
 40
0.0
 40
0.0
 40
0.9985540876151761
 40
0.9985540876151761
 40
0.9985540876151761
 40
0.9985540876151761
 10
21.95747816803297
 20
5.625020668813933
 30
0.0
 10
21.94665314649997
 20
5.514658719923946
 30
0.0
 10
21.9223363798511
 20
5.405573804886291
 30
0.0
 10
21.88511849611872
 20
5.300974026586827
 30
0.0
  0
ARC
  5
194
330
1F
100
AcDbEntity
  8
0
  6
Continuous
 62
     7
370
    25
100
AcDbCircle
 10
20.5736964315
 20
5.767594078
 30
0.0
 40
1.391963362515535
100
AcDbArc
 50
334.6386636427
 51
340.4138177492
  0
SPLINE
  5
195
330
1F
100
AcDbEntity
  8
0
  6
Continuous
 62
     7
370
    25
100
AcDbSpline
210
0.0
220
0.0
230
1.0
 70
     8
 71
     3
 72
     8
 73
     4
 74
     0
 42
0.00000001
 43
0.00000001
 40
0.0122144917415693
 40
0.0122144917415693
 40
0.0122144917415693
 40
0.0122144917415693
 40
1.0
 40
1.0
 40
1.0
 40
1.0
 10
21.83150864608377
 20
5.17138074878432
 30
0.0
 10
21.77639715497934
 20
5.055113796534413
 30
0.0
 10
21.70536578443362
 20
4.94654770834739
 30
0.0
 10
21.6211670756935
 20
4.849850211081028
 30
0.0
  0
SPLINE
  5
196
330
1F
100
AcDbEntity
  8
0
  6
Continuous
 62
     7
370
    25
100
AcDbSpline
210
0.0
220
0.0
230
1.0
 70
     8
 71
     3
 72
    11
 73
     7
 74
     0
 42
0.00000001
 43
0.00000001
 40
0.0
 40
0.0
 40
0.0
 40
0.0
 40
0.25
 40
0.5
 40
0.75
 40
1.0
 40
1.0
 40
1.0
 40
1.0
 10
21.6211670756935
 20
4.849850211081028
 30
0.0
 10
21.56528693162375
 20
4.785674438134357
 30
0.0
 10
21.44194789841899
 20
4.667591129531529
 30
0.0
 10
21.22880859238531
 20
4.527610359105113
 30
0.0
 10
20.9948241609759
 20
4.429700366454096
 30
0.0
 10
20.83024831160732
 20
4.394816683196265
 30
0.0
 10
20.74725481891809
 20
4.385322385308087
 30
0.0
  0
SPLINE
  5
197
330
1F
100
AcDbEntity
  8
0
  6
Continuous
 62
     7
370
    25
100
AcDbSpline
210
0.0
220
0.0
230
1.0
 70
     8
 71
     3
 72
     8
 73
     4
 74
     0
 42
0.00000001
 43
0.00000001
 40
0.0
 40
0.0
 40
0.0
 40
0.0
 40
1.0
 40
1.0
 40
1.0
 40
1.0
 10
20.74725481891809
 20
4.385322385308087
 30
0.0
 10
20.57938019156892
 20
4.366099595322339
 30
0.0
 10
20.40744393929372
 20
4.355438107844209
 30
0.0
 10
20.23401913263758
 20
4.353714527504479
 30
0.0
  0
SPLINE
  5
198
330
1F
100
AcDbEntity
  8
0
  6
Continuous
 62
     7
370
    25
100
AcDbSpline
210
0.0
220
0.0
230
1.0
 70
     8
 71
     3
 72
     8
 73
     4
 74
     0
 42
0.00000001
 43
0.00000001
 40
0.0
 40
0.0
 40
0.0
 40
0.0
 40
1.0
 40
1.0
 40
1.0
 40
1.0
 10
20.23401913263758
 20
4.353714527504479
 30
0.0
 10
20.19379318569896
 20
4.353314482631461
 30
0.0
 10
20.15348974062858
 20
4.353408779134524
 30
0.0
 10
20.11314244156579
 20
4.353962738156945
 30
0.0
  0
SPLINE
  5
199
330
1F
100
AcDbEntity
  8
0
  6
Continuous
 62
     7
370
    25
100
AcDbSpline
210
0.0
220
0.0
230
1.0
 70
     8
 71
     3
 72
     8
 73
     4
 74
     0
 42
0.00000001
 43
0.00000001
 40
0.0
 40
0.0
 40
0.0
 40
0.0
 40
1.0
 40
1.0
 40
1.0
 40
1.0
 10
20.11314244156579
 20
4.353962738156945
 30
0.0
 10
20.06651646400642
 20
4.354602845036057
 30
0.0
 10
20.0198992773302
 20
4.355091727186442
 30
0.0
 10
19.97327402129692
 20
4.35541598939306
 30
0.0
  0
ARC
  5
19A
330
1F
100
AcDbEntity
  8
0
  6
Continuous
 62
     7
370
    25
100
AcDbCircle
 10
19.6423181421
 20
-43.2491113596
 30
0.0
 40
47.60567776973556
100
AcDbArc
 50
89.6016750791
 51
89.6698951451
  0
SPLINE
  5
19B
330
1F
100
AcDbEntity
  8
0
  6
Continuous
 62
     7
370
    25
100
AcDbSpline
210
0.0
220
0.0
230
1.0
 70
     8
 71
     3
 72
     8
 73
     4
 74
     0
 42
0.00000001
 43
0.00000001
 40
0.000341087673077
 40
0.000341087673077
 40
0.000341087673077
 40
0.000341087673077
 40
1.0
 40
1.0
 40
1.0
 40
1.0
 10
19.91659276660447
 20
4.355776302739608
 30
0.0
 10
19.86199853960652
 20
4.356090846305318
 30
0.0
 10
19.80738773500952
 20
4.356353167348684
 30
0.0
 10
19.75276023355928
 20
4.356613138840966
 30
0.0
  0
SPLINE
  5
19C
330
1F
100
AcDbEntity
  8
0
  6
Continuous
 62
     7
370
    25
100
AcDbSpline
210
0.0
220
0.0
230
1.0
 70
     8
 71
     3
 72
     8
 73
     4
 74
     0
 42
0.00000001
 43
0.00000001
 40
0.0
 40
0.0
 40
0.0
 40
0.0
 40
0.9149246386377983
 40
0.9149246386377983
 40
0.9149246386377983
 40
0.9149246386377983
 10
19.75276023355928
 20
4.356613138840966
 30
0.0
 10
19.30955778097146
 20
4.358718775904067
 30
0.0
 10
18.86450125254288
 20
4.357654055539746
 30
0.0
 10
18.41666701633667
 20
4.352070969843721
 30
0.0
  0
LINE
  5
19D
330
1F
100
AcDbEntity
  8
0
  6
Continuous
 62
     7
370
    25
100
AcDbLine
 10
18.4166670163
 20
5.1020709698
 30
0.0
 11
18.4166670163
 21
4.3520709698
 31
0.0
  0
LINE
  5
19E
330
1F
100
AcDbEntity
  8
0
  6
Continuous
 62
     7
370
    25
100
AcDbLine
 10
18.1666670163
 20
5.1020709698
 30
0.0
 11
18.4166670163
 21
5.1020709698
 31
0.0
  0
LINE
  5
19F
330
1F
100
AcDbEntity
  8
0
  6
Continuous
 62
     7
370
    25
100
AcDbLine
 10
18.1666670163
 20
4.3520709698
 30
0.0
 11
18.1666670163
 21
5.1020709698
 31
0.0
  0
SPLINE
  5
1A0
330
1F
100
AcDbEntity
  8
0
  6
Continuous
 62
     7
370
    25
100
AcDbSpline
210
0.0
220
0.0
230
1.0
 70
     8
 71
     3
 72
    13
 73
     9
 74
     0
 42
0.00000001
 43
0.00000001
 40
0.0
 40
0.0
 40
0.0
 40
0.0
 40
0.1395768281334191
 40
0.2769667476649258
 40
0.4121703878220679
 40
0.5451884088582806
 40
0.7749719431688485
 40
1.0
 40
1.0
 40
1.0
 40
1.0
 10
16.83057379911691
 20
4.356613138840966
 30
0.0
 10
16.89273693460135
 20
4.356872229555991
 30
0.0
 10
17.01608922516439
 20
4.357386351517713
 30
0.0
 10
17.19965848124843
 20
4.357664567596147
 30
0.0
 10
17.38030677285709
 20
4.357574845145312
 30
0.0
 10
17.60210366002411
 20
4.356944158737967
 30
0.0
 10
17.86390370686956
 20
4.355452948398616
 30
0.0
 10
18.06645185617156
 20
4.353190197304871
 30
0.0
 10
18.16666701633878
 20
4.352070651339827
 30
0.0
  0
LINE
  5
1A1
330
1F
100
AcDbEntity
  8
0
  6
Continuous
 62
     7
370
    25
100
AcDbLine
 10
16.6667412661
 20
4.3557763027
 30
0.0
 11
16.8305737991
 21
4.3566131388
 31
0.0
  0
ARC
  5
1A2
330
1F
100
AcDbEntity
  8
0
  6
Continuous
 62
     7
370
    25
100
AcDbCircle
 10
16.9410158906
 20
-43.2491113596
 30
0.0
 40
47.60567776973556
100
AcDbArc
 50
90.3301048549
 51
90.3983249209
  0
SPLINE
  5
1A3
330
1F
100
AcDbEntity
  8
0
  6
Continuous
 62
     7
370
    25
100
AcDbSpline
210
0.0
220
0.0
230
1.0
 70
     8
 71
     3
 72
     9
 73
     5
 74
     0
 42
0.00000001
 43
0.00000001
 40
0.0
 40
0.0
 40
0.0
 40
0.0
 40
0.5035912542614861
 40
1.0
 40
1.0
 40
1.0
 40
1.0
 10
16.47019159111039
 20
4.353962738156945
 30
0.0
 10
16.49366981153053
 20
4.354266169234003
 30
0.0
 10
16.54029139246838
 20
4.354868703679331
 30
0.0
 10
16.58691543092684
 20
4.355234436448058
 30
0.0
 10
16.61006001137927
 20
4.35541598939306
 30
0.0
  0
SPLINE
  5
1A4
330
1F
100
AcDbEntity
  8
0
  6
Continuous
 62
     7
370
    25
100
AcDbSpline
210
0.0
220
0.0
230
1.0
 70
     8
 71
     3
 72
    10
 73
     6
 74
     0
 42
0.00000001
 43
0.00000001
 40
0.0
 40
0.0
 40
0.0
 40
0.0
 40
0.3303089188299438
 40
0.6636353348072809
 40
1.0
 40
1.0
 40
1.0
 40
1.0
 10
16.34931490003861
 20
4.353714527504479
 30
0.0
 10
16.3626237597787
 20
4.35361463055932
 30
0.0
 10
16.38936306073613
 20
4.35341392407255
 30
0.0
 10
16.42965695807302
 20
4.353499359820664
 30
0.0
 10
16.45663924242632
 20
4.353807812250002
 30
0.0
 10
16.47019159111039
 20
4.353962738156945
 30
0.0
  0
SPLINE
  5
1A5
330
1F
100
AcDbEntity
  8
0
  6
Continuous
 62
     7
370
    25
100
AcDbSpline
210
0.0
220
0.0
230
1.0
 70
     8
 71
     3
 72
    16
 73
    12
 74
     0
 42
0.00000001
 43
0.00000001
 40
0.0
 40
0.0
 40
0.0
 40
0.0
 40
0.0823566911445528
 40
0.1648788971556555
 40
0.2475729923048354
 40
0.330445311200151
 40
0.4135021476711785
 40
0.4967497536968538
 40
0.6642079548106428
 40
0.8319414390716399
 40
1.0
 40
1.0
 40
1.0
 40
1.0
 10
15.8360792137581
 20
4.385322385308087
 30
0.0
 10
15.85011408196104
 20
4.383751620288667
 30
0.0
 10
15.87821202468878
 20
4.380606933433316
 30
0.0
 10
15.92045303482616
 20
4.376356879291943
 30
0.0
 10
15.96281485415246
 20
4.372442544747736
 30
0.0
 10
16.0053013670574
 20
4.36889775207232
 30
0.0
 10
16.04791157662229
 20
4.365714213397033
 30
0.0
 10
16.10502095098867
 20
4.361941487015824
 30
0.0
 10
16.17667779792859
 20
4.358163469297391
 30
0.0
 10
16.26292276743962
 20
4.354999751215159
 30
0.0
 10
16.32049894288022
 20
4.354143211810233
 30
0.0
 10
16.34931490003861
 20
4.353714527504479
 30
0.0
  0
SPLINE
  5
1A6
330
1F
100
AcDbEntity
  8
0
  6
Continuous
 62
     7
370
    25
100
AcDbSpline
210
0.0
220
0.0
230
1.0
 70
     8
 71
     3
 72
    28
 73
    24
 74
     0
 42
0.00000001
 43
0.00000001
 40
0.0
 40
0.0
 40
0.0
 40
0.0
 40
0.0229707224450271
 40
0.0459070364488274
 40
0.0688151588727523
 40
0.0917013295522771
 40
0.1145718062904062
 40
0.1374328597779542
 40
0.1602907684610754
 40
0.1831518133769464
 40
0.2060222729787837
 40
0.2289084179714915
 40
0.2518165061791398
 40
0.377329185833404
 40
0.5024949617942889
 40
0.6273711553761475
 40
0.7518582370488555
 40
0.7934012890937602
 40
0.8348152410981963
 40
0.8761409305807376
 40
0.9174194570194417
 40
0.9586920607882363
 40
1.0
 40
1.0
 40
1.0
 40
1.0
 10
14.96216695698269
 20
4.849850211081028
 30
0.0
 10
14.96728538442085
 20
4.84402772933173
 30
0.0
 10
14.97751457227191
 20
4.832391487479633
 30
0.0
 10
14.99320893182131
 20
4.815270995665938
 30
0.0
 10
15.00914347668943
 20
4.798414129369286
 30
0.0
 10
15.02534427684549
 20
4.781843594054164
 30
0.0
 10
15.04180435451544
 20
4.765553321807654
 30
0.0
 10
15.05852557469135
 20
4.749544940886282
 30
0.0
 10
15.07550742654914
 20
4.733818022808356
 30
0.0
 10
15.09275006842184
 20
4.718372677460484
 30
0.0
 10
15.11025335445664
 20
4.703208914940731
 30
0.0
 10
15.12801768567927
 20
4.688326604627511
 30
0.0
 10
15.17294121854142
 20
4.651936111657625
 30
0.0
 10
15.24781321213443
 20
4.597653587914367
 30
0.0
 10
15.35700232840039
 20
4.532957528101819
 30
0.0
 10
15.47135144850211
 20
4.478686828398881
 30
0.0
 10
15.5637458411122
 20
4.445022359600137
 30
0.0
 10
15.63089168855401
 20
4.425181145726372
 30
0.0
 10
15.67147550908338
 20
4.414560047269712
 30
0.0
 10
15.71228514895331
 20
4.405235665706281
 30
0.0
 10
15.75332511507091
 20
4.397239393111504
 30
0.0
 10
15.79458141305325
 20
4.390452356057709
 30
0.0
 10
15.82224266819225
 20
4.387032863280967
 30
0.0
 10
15.8360792137581
 20
4.385322385308087
 30
0.0
  0
SPLINE
  5
1A7
330
1F
100
AcDbEntity
  8
0
  6
Continuous
 62
     7
370
    25
100
AcDbSpline
210
0.0
220
0.0
230
1.0
 70
     8
 71
     3
 72
    20
 73
    16
 74
     0
 42
0.00000001
 43
0.00000001
 40
0.0
 40
0.0
 40
0.0
 40
0.0
 40
0.0625568575722302
 40
0.1250767164647349
 40
0.1875778654973673
 40
0.2500786099144959
 40
0.3125972553158916
 40
0.3751520915860823
 40
0.4377613768925782
 40
0.5004433218227132
 40
0.6006272031295612
 40
0.7005996979242811
 40
0.8004357830410069
 40
0.9002107428333509
 40
1.0
 40
1.0
 40
1.0
 40
1.0
 10
14.75182538659242
 20
5.17138074878432
 30
0.0
 10
14.75530353560939
 20
5.164135437403982
 30
0.0
 10
14.762257776524
 20
5.149649099816282
 30
0.0
 10
14.7731558931579
 20
5.128153912822197
 30
0.0
 10
14.78439037449343
 20
5.106841733787364
 30
0.0
 10
14.79599502945183
 20
5.085728595466295
 30
0.0
 10
14.80796080454424
 20
5.064810210577786
 30
0.0
 10
14.82029009674944
 20
5.044087732659364
 30
0.0
 10
14.83298235177176
 20
5.023560865978885
 30
0.0
 10
14.84863436859765
 20
4.999185230770339
 30
0.0
 10
14.86750548375733
 20
4.971178350103926
 30
0.0
 10
14.88990580937678
 20
4.939810011130859
 30
0.0
 10
14.91314195420052
 20
4.909123291472993
 30
0.0
 10
14.93714126883132
 20
4.879055186640683
 30
0.0
 10
14.95382466251624
 20
4.859585667885664
 30
0.0
 10
14.96216695698269
 20
4.849850211081028
 30
0.0
  0
ARC
  5
1A8
330
1F
100
AcDbEntity
  8
0
  6
Continuous
 62
     7
370
    25
100
AcDbCircle
 10
16.0096376012
 20
5.767594078
 30
0.0
 40
1.391963362515539
100
AcDbArc
 50
199.5861822508
 51
205.3613363573
  0
SPLINE
  5
1A9
330
1F
100
AcDbEntity
  8
0
  6
Continuous
 62
     7
370
    25
100
AcDbSpline
210
0.0
220
0.0
230
1.0
 70
     8
 71
     3
 72
    18
 73
    14
 74
     0
 42
0.00000001
 43
0.00000001
 40
0.0
 40
0.0
 40
0.0
 40
0.0
 40
0.071410720113634
 40
0.1427846847019036
 40
0.2141435495450788
 40
0.2855089841694428
 40
0.356902652119062
 40
0.4283461912547727
 40
0.4998611941697541
 40
0.6250953354536225
 40
0.7501185906700869
 40
0.8750477831363284
 40
1.0
 40
1.0
 40
1.0
 40
1.0
 10
14.62585586464322
 20
5.625020668813933
 30
0.0
 10
14.62666885725622
 20
5.617139433745047
 30
0.0
 10
14.62829442403006
 20
5.601381020126169
 30
0.0
 10
14.63125354198437
 20
5.577805440636856
 30
0.0
 10
14.6345928682212
 20
5.554286682794069
 30
0.0
 10
14.63834979456661
 20
5.530828411094512
 30
0.0
 10
14.64251434885371
 20
5.507429688660006
 30
0.0
 10
14.64708902699066
 20
5.484090637652184
 30
0.0
 10
14.65331964627157
 20
5.454993702272037
 30
0.0
 10
14.6616210065465
 20
5.420265721217335
 30
0.0
 10
14.67255576079047
 20
5.380096465809841
 30
0.0
 10
14.68461987673116
 20
5.340279254482791
 30
0.0
 10
14.69368337157464
 20
5.314076574001812
 30
0.0
 10
14.69821553655746
 20
5.300974026586826
 30
0.0
  0
SPLINE
  5
1AA
330
1F
100
AcDbEntity
  8
0
  6
Continuous
 62
     7
370
    25
100
AcDbSpline
210
0.0
220
0.0
230
1.0
 70
     8
 71
     3
 72
    13
 73
     9
 74
     0
 42
0.00000001
 43
0.00000001
 40
0.0
 40
0.0
 40
0.0
 40
0.0
 40
0.166333105433804
 40
0.3327568136019516
 40
0.4993032996171587
 40
0.6660046674999217
 40
0.8328929318876508
 40
1.0
 40
1.0
 40
1.0
 40
1.0
 10
14.61603264312633
 20
5.799306059656474
 30
0.0
 10
14.616212834931
 20
5.789626382655086
 30
0.0
 10
14.61657331669199
 20
5.770261756068713
 30
0.0
 10
14.61762739220816
 20
5.741218200153248
 30
0.0
 10
14.61905490433454
 20
5.712169740733578
 30
0.0
 10
14.62090241544409
 20
5.683117870498354
 30
0.0
 10
14.62312375944698
 20
5.654058888131368
 30
0.0
 10
14.62494476525802
 20
5.634704301714932
 30
0.0
 10
14.62585586464322
 20
5.625020668813932
 30
0.0
  0
LWPOLYLINE
  5
1AB
330
1F
100
AcDbEntity
  8
0
  6
Continuous
 62
     7
370
    25
100
AcDbPolyline
 90
        3
 70
   128
 43
0.0
 10
14.6143441804
 20
5.9118576802
 10
14.6149744097
 20
5.8710231505
 10
14.6160326431
 20
5.7993060597
  0
SPLINE
  5
1AC
330
1F
100
AcDbEntity
  8
0
  6
Continuous
 62
     7
370
    25
100
AcDbSpline
210
0.0
220
0.0
230
1.0
 70
     8
 71
     3
 72
    11
 73
     7
 74
     0
 42
0.00000001
 43
0.00000001
 40
0.0
 40
0.0
 40
0.0
 40
0.0
 40
0.267650113285568
 40
0.5003189509756912
 40
0.7596551545409088
 40
1.0
 40
1.0
 40
1.0
 40
1.0
 10
14.5860450586993
 20
7.309320587132156
 30
0.0
 10
14.58886495430541
 20
7.184649657672747
 30
0.0
 10
14.59413619142237
 20
6.951602012451894
 30
0.0
 10
14.60166462773275
 20
6.597745604634691
 30
0.0
 10
14.60844133278864
 20
6.256598103039836
 30
0.0
 10
14.61242705964539
 20
6.023822118554677
 30
0.0
 10
14.61434418039131
 20
5.91185768018561
 30
0.0
  0
LWPOLYLINE
  5
1AD
330
1F
100
AcDbEntity
  8
0
  6
Continuous
 62
     7
370
    25
100
AcDbPolyline
 90
        4
 70
   128
 43
0.0
 10
14.5742704619
 20
7.8193664605
 10
14.576402638
 20
7.7270548671
 10
14.5801724475
 20
7.56420091
 10
14.5860450587
 20
7.3093205871
  0
SPLINE
  5
1AE
330
1F
100
AcDbEntity
  8
0
  6
Continuous
 62
     7
370
    25
100
AcDbSpline
210
0.0
220
0.0
230
1.0
 70
     8
 71
     3
 72
     9
 73
     5
 74
     0
 42
0.00000001
 43
0.00000001
 40
0.0
 40
0.0
 40
0.0
 40
0.0
 40
0.4645838572138272
 40
1.0
 40
1.0
 40
1.0
 40
1.0
 10
14.56775240544278
 20
8.098991578509615
 30
0.0
 10
14.56877255580934
 20
8.055688724053795
 30
0.0
 10
14.57096839268726
 20
7.962480891316098
 30
0.0
 10
14.57311899478253
 20
7.869272003637834
 30
0.0
 10
14.57427046186104
 20
7.819366460523749
 30
0.0
  0
LINE
  5
1AF
330
1F
100
AcDbEntity
  8
0
  6
Continuous
 62
     7
370
    25
100
AcDbLine
 10
14.5677524054
 20
8.0989915785
 30
0.0
 11
14.9177525016
 21
8.0989915785
 31
0.0
  0
LINE
  5
1B0
330
1F
100
AcDbEntity
  8
0
  6
Continuous
 62
     7
370
    25
100
AcDbLine
 10
14.9177525016
 20
8.0989915785
 30
0.0
 11
14.9177525016
 21
8.2239915785
 31
0.0
  0
LINE
  5
1B1
330
1F
100
AcDbEntity
  8
0
  6
Continuous
 62
     7
370
    25
100
AcDbLine
 10
14.9177525016
 20
8.2239915785
 30
0.0
 11
14.601009092
 21
8.2239915785
 31
0.0
  0
LINE
  5
1B2
330
1F
100
AcDbEntity
  8
0
  6
Continuous
 62
     7
370
    25
100
AcDbLine
 10
14.5657243229
 20
8.2578864615
 30
0.0
 11
14.601009092
 21
8.2239915785
 31
0.0
  0
SPLINE
  5
1B3
330
1F
100
AcDbEntity
  8
0
  6
Continuous
 62
     7
370
    25
100
AcDbSpline
210
0.0
220
0.0
230
1.0
 70
     8
 71
     3
 72
    20
 73
    16
 74
     0
 42
0.00000001
 43
0.00000001
 40
0.2136658478692451
 40
0.2136658478692451
 40
0.2136658478692451
 40
0.2136658478692451
 40
0.2499999999999991
 40
0.2499999999999991
 40
0.3749999999999985
 40
0.3749999999999985
 40
0.4999999999999978
 40
0.4999999999999978
 40
0.6249999999999972
 40
0.6249999999999972
 40
0.6874999999999976
 40
0.6874999999999976
 40
0.7499999999999978
 40
0.7499999999999978
 40
0.7541274579964871
 40
0.7541274579964871
 40
0.7541274579964871
 40
0.7541274579964871
 10
14.56572432286155
 20
8.257886461510395
 30
0.0
 10
14.53125742494094
 20
8.29099568967766
 30
0.0
 10
14.49630276919806
 20
8.323590356549463
 30
0.0
 10
14.33965821746009
 20
8.465770974783766
 30
0.0
 10
14.21398025924191
 20
8.569756239087463
 30
0.0
 10
13.95588059292018
 20
8.768068405826773
 30
0.0
 10
13.82342500117543
 20
8.862346780295924
 30
0.0
 10
13.55267987946985
 20
9.042548194685246
 30
0.0
 10
13.41437619679287
 20
9.128450965162402
 30
0.0
 10
13.20295758063662
 20
9.251629201891973
 30
0.0
 10
13.13182236162706
 20
9.291740004428926
 30
0.0
 10
12.98828215736736
 20
9.370143057206615
 30
0.0
 10
12.91581933560333
 20
9.408463981951096
 30
0.0
 10
12.83812134559328
 20
9.44828039267844
 30
0.0
 10
12.8333061961636
 20
9.450742777971293
 30
0.0
 10
12.82848916120476
 20
9.453201000992488
 30
0.0
  0
LINE
  5
1B4
330
1F
100
AcDbEntity
  8
0
  6
Continuous
 62
     7
370
    25
100
AcDbLine
 10
12.82848858
 20
9.4532012976
 30
0.0
 11
13.7470995878
 21
10.3718123054
 31
0.0
  0
MTEXT
  5
1B5
330
1F
100
AcDbEntity
  8
PART_NAMES
100
AcDbMText
 10
18.5981541161
 20
11.4747185024
 30
0.0
 40
0.1666666667
 41
0.0
 71
     1
 72
     1
  1
BH11
  7
SLDTEXTSTYLE0
 73
     1
 44
1.0
  0
LINE
  5
1B6
330
1F
100
AcDbEntity
  8
0
  6
Continuous
 62
     7
370
    25
100
AcDbLine
 10
15.1321808599
 20
11.2545133442
 30
0.0
 11
15.0080906925
 21
11.0900615129
 31
0.0
  0
LINE
  5
1B7
330
1F
100
AcDbEntity
  8
0
  6
Continuous
 62
     7
370
    25
100
AcDbLine
 10
15.0080906925
 20
11.0900615129
 30
0.0
 11
15.1563564724
 21
10.9781848296
 31
0.0
  0
LINE
  5
1B8
330
1F
100
AcDbEntity
  8
0
  6
Continuous
 62
     7
370
    25
100
AcDbLine
 10
15.1563564724
 20
10.9781848296
 30
0.0
 11
14.9540979763
 21
10.778669358
 31
0.0
  0
SPLINE
  5
1B9
330
1F
100
AcDbEntity
  8
0
  6
Continuous
 62
     7
370
    25
100
AcDbSpline
210
0.0
220
0.0
230
1.0
 70
     8
 71
     3
 72
    18
 73
    14
 74
     0
 42
0.00000001
 43
0.00000001
 40
78.98603688604047
 40
78.98603688604047
 40
78.98603688604047
 40
78.98603688604047
 40
79.38617610325655
 40
80.84153069141988
 40
82.29688527958322
 40
83.75223986774655
 40
86.66294904407323
 40
89.57365822039989
 40
92.48436739672655
 40
95.39507657305323
 40
98.30578574937991
 40
101.2164949257066
 40
104.3182803594638
 40
104.3182803594638
 40
104.3182803594638
 40
104.3182803594638
 10
4.851609649819943
 20
10.90058896889719
 30
0.0
 10
4.904665792099936
 20
10.89854190860718
 30
0.0
 10
5.150815661834185
 20
10.88938458597347
 30
0.0
 10
5.591659078041435
 20
10.87561966793648
 30
0.0
 10
6.178021821055098
 20
10.86140188570591
 30
0.0
 10
6.959629956243578
 20
10.8464369693839
 30
0.0
 10
7.930604749825401
 20
10.83304486361441
 30
0.0
 10
9.085712480631537
 20
10.82083293426417
 30
0.0
 10
10.23554886667151
 20
10.81043803047407
 30
0.0
 10
11.38718297693032
 20
10.80125920202516
 30
0.0
 10
12.54619746041545
 20
10.79334173091904
 30
0.0
 10
13.73731857391017
 20
10.78612117715027
 30
0.0
 10
14.53998235432095
 20
10.78110624814221
 30
0.0
 10
14.95409797625703
 20
10.77866935800703
 30
0.0
  0
ARC
  5
1BA
330
1F
100
AcDbEntity
  8
0
  6
Continuous
 62
     7
370
    25
100
AcDbCircle
 10
4.853537361
 20
10.9505517944
 30
0.0
 40
0.050000000000002
100
AcDbArc
 50
185.0
 51
267.7904581438
  0
LINE
  5
1BB
330
1F
100
AcDbEntity
  8
0
  6
Continuous
 62
     7
370
    25
100
AcDbLine
 10
4.7597993989
 20
11.4482959412
 30
0.0
 11
4.803727626
 21
10.9461940072
 31
0.0
  0
ARC
  5
1BC
330
1F
100
AcDbEntity
  8
0
  6
Continuous
 62
     7
370
    25
100
AcDbCircle
 10
4.8096091338
 20
11.4526537284
 30
0.0
 40
0.0500000000000014
100
AcDbArc
 50
87.7263015659
 51
185.0
  0
LINE
  5
1BD
330
1F
100
AcDbEntity
  8
0
  6
Continuous
 62
     7
370
    25
100
AcDbLine
 10
15.0100431192
 20
11.3783302873
 30
0.0
 11
15.1321808599
 21
11.2545133442
 31
0.0
  0
SPLINE
  5
1BE
330
1F
100
AcDbEntity
  8
0
  6
Continuous
 62
     7
370
    25
100
AcDbSpline
210
0.0
220
0.0
230
1.0
 70
     8
 71
     3
 72
    26
 73
    22
 74
     0
 42
0.00000001
 43
0.00000001
 40
0.0
 40
0.0
 40
0.0
 40
0.0
 40
0.0625
 40
0.0625
 40
0.1249999999999999
 40
0.1249999999999999
 40
0.1874999999999999
 40
0.1874999999999999
 40
0.2499999999999999
 40
0.2499999999999999
 40
0.3749999999999998
 40
0.3749999999999998
 40
0.4999999999999998
 40
0.4999999999999998
 40
0.6249999999999998
 40
0.6249999999999998
 40
0.7499999999999999
 40
0.7499999999999999
 40
0.8749999999999999
 40
0.8749999999999999
 40
1.0
 40
1.0
 40
1.0
 40
1.0
 10
4.811592789108822
 20
11.5026143639848
 30
0.0
 10
5.021617135282515
 20
11.49427548006123
 30
0.0
 10
5.232335480219231
 20
11.48710085793032
 30
0.0
 10
5.65629354753445
 20
11.47446392444825
 30
0.0
 10
5.869584033307141
 20
11.46899674613591
 30
0.0
 10
6.297382646562601
 20
11.45929470290234
 30
0.0
 10
6.511524200031281
 20
11.4550738492727
 30
0.0
 10
6.939102810034923
 20
11.44752305858755
 30
0.0
 10
7.152629408029972
 20
11.44418989225415
 30
0.0
 10
7.792002872005604
 20
11.43507715354656
 30
0.0
 10
8.216555212887977
 20
11.43015021683672
 30
0.0
 10
9.06284361577693
 20
11.42122854566734
 30
0.0
 10
9.484647900710963
 20
11.41724991414452
 30
0.0
 10
10.32815719659424
 20
11.40979156947994
 30
0.0
 10
10.74993043047091
 20
11.40632795927489
 30
0.0
 10
11.5960515090164
 20
11.39988203813938
 30
0.0
 10
12.02046757661268
 20
11.39691583014563
 30
0.0
 10
12.87245839943683
 20
11.39137967098765
 30
0.0
 10
13.30005121313608
 20
11.38881211724702
 30
0.0
 10
14.15506006601739
 20
11.3834970214745
 30
0.0
 10
14.58256514919233
 20
11.38080692674468
 30
0.0
 10
15.0100430225119
 20
11.37831372417622
 30
0.0
  0
MTEXT
  5
1BF
330
1F
100
AcDbEntity
  8
PART_NAMES
100
AcDbMText
 10
8.2635064811
 20
11.1913491317
 30
0.0
 40
0.1666666667
 41
0.0
 71
     1
 72
     1
  1
TMS 1.1
  7
SLDTEXTSTYLE0
 73
     1
 44
1.0
  0
LINE
  5
1C0
330
1F
100
AcDbEntity
  8
0
  6
Continuous
 62
     7
370
    25
100
AcDbLine
 10
13.3707982704
 20
8.9897538744
 30
0.0
 11
13.5126068577
 21
8.8183905262
 31
0.0
  0
LINE
  5
1C1
330
1F
100
AcDbEntity
  8
0
  6
Continuous
 62
     7
370
    25
100
AcDbLine
 10
13.5126068577
 20
8.8183905262
 30
0.0
 11
13.3436208722
 21
8.6785492818
 31
0.0
  0
LINE
  5
1C2
330
1F
100
AcDbEntity
  8
0
  6
Continuous
 62
     7
370
    25
100
AcDbLine
 10
13.3436208722
 20
8.6785492818
 30
0.0
 11
13.4779716536
 21
8.5161980434
 31
0.0
  0
LINE
  5
1C3
330
1F
100
AcDbEntity
  8
0
  6
Continuous
 62
     7
370
    25
100
AcDbLine
 10
13.4779716536
 20
8.5161980434
 30
0.0
 11
13.3269744304
 21
8.391243068
 31
0.0
  0
SPLINE
  5
1C4
330
1F
100
AcDbEntity
  8
0
  6
Continuous
 62
     7
370
    25
100
AcDbSpline
210
0.0
220
0.0
230
1.0
 70
     8
 71
     3
 72
    12
 73
     8
 74
     0
 42
0.00000001
 43
0.00000001
 40
104.3182803594641
 40
104.3182803594641
 40
104.3182803594641
 40
104.3182803594641
 40
107.0379132783599
 40
112.8593316310132
 40
118.6807499836666
 40
124.5021683363199
 40
129.755744473064
 40
129.755744473064
 40
129.755744473064
 40
129.755744473064
 10
3.181092985531938
 20
9.277640309719864
 30
0.0
 10
3.542619979874992
 20
9.243865979068511
 30
0.0
 10
4.678103838584706
 20
9.138152348224388
 30
0.0
 10
6.588326167490077
 20
8.964371557900337
 30
0.0
 10
8.910725357707939
 20
8.761418095568837
 30
0.0
 10
11.15707342187184
 20
8.571704984467951
 30
0.0
 10
12.62887589544964
 20
8.449260840527312
 30
0.0
 10
13.32697443038368
 20
8.391243067968764
 30
0.0
  0
LINE
  5
1C5
330
1F
100
AcDbEntity
  8
0
  6
Continuous
 62
     7
370
    25
100
AcDbLine
 10
3.3999707461
 20
9.4587685752
 30
0.0
 11
3.1810929855
 21
9.2776403097
 31
0.0
  0
LINE
  5
1C6
330
1F
100
AcDbEntity
  8
0
  6
Continuous
 62
     7
370
    25
100
AcDbLine
 10
3.2620198577
 20
9.5831417482
 30
0.0
 11
3.3999707461
 21
9.4587685752
 31
0.0
  0
LINE
  5
1C7
330
1F
100
AcDbEntity
  8
0
  6
Continuous
 62
     7
370
    25
100
AcDbLine
 10
3.3999707461
 20
9.7361526199
 30
0.0
 11
3.2620198577
 21
9.5831417482
 31
0.0
  0
LINE
  5
1C8
330
1F
100
AcDbEntity
  8
0
  6
Continuous
 62
     7
370
    25
100
AcDbLine
 10
3.2891032585
 20
9.8701263394
 30
0.0
 11
3.3999707461
 21
9.7361526199
 31
0.0
  0
SPLINE
  5
1C9
330
1F
100
AcDbEntity
  8
0
  6
Continuous
 62
     7
370
    25
100
AcDbSpline
210
0.0
220
0.0
230
1.0
 70
     8
 71
     3
 72
    12
 73
     8
 74
     0
 42
0.00000001
 43
0.00000001
 40
0.0
 40
0.0
 40
0.0
 40
0.0
 40
0.25
 40
0.25
 40
0.5
 40
0.5
 40
1.0
 40
1.0
 40
1.0
 40
1.0
 10
3.289087594113334
 20
9.870126915978801
 30
0.0
 10
4.129311361207349
 20
9.791676347953315
 30
0.0
 10
4.969492809252469
 20
9.714067586609575
 30
0.0
 10
6.649769551672422
 20
9.562137455246313
 30
0.0
 10
7.489867860832938
 20
9.487788083639238
 30
0.0
 10
10.01015957721813
 20
9.26918298414087
 30
0.0
 10
11.69040951180199
 20
9.129382797130257
 30
0.0
 10
13.37079837065652
 20
8.989755080494017
 30
0.0
  0
MTEXT
  5
1CA
330
1F
100
AcDbEntity
  8
PART_NAMES
100
AcDbMText
 10
6.2465833136
 20
9.4077889754
 30
0.0
 40
0.1666666667
 41
0.0
 71
     1
 72
     1
  1
TMS 1.2
  7
SLDTEXTSTYLE0
 73
     1
 44
1.0
  0
LINE
  5
1CB
330
1F
100
AcDbEntity
  8
0
  6
Continuous
 62
     7
370
    25
100
AcDbLine
 10
2.9252112427
 20
11.1853085341
 30
0.0
 11
2.7716753586
 21
11.3668520184
 31
0.0
  0
LINE
  5
1CC
330
1F
100
AcDbEntity
  8
0
  6
Continuous
 62
     7
370
    25
100
AcDbLine
 10
3.0779023875
 20
11.31444327
 30
0.0
 11
2.9252112427
 21
11.1853085341
 31
0.0
  0
LINE
  5
1CD
330
1F
100
AcDbEntity
  8
0
  6
Continuous
 62
     7
370
    25
100
AcDbLine
 10
3.1993593726
 20
11.1708304299
 30
0.0
 11
3.0779023875
 21
11.31444327
 31
0.0
  0
SPLINE
  5
1CE
330
1F
100
AcDbEntity
  8
0
  6
Continuous
 62
     7
370
    25
100
AcDbSpline
210
0.0
220
0.0
230
1.0
 70
     8
 71
     3
 72
    10
 73
     6
 74
     0
 42
0.00000001
 43
0.00000001
 40
129.755744473064
 40
129.755744473064
 40
129.755744473064
 40
129.755744473064
 40
136.1450050416266
 40
147.7878417469333
 40
154.9432245223673
 40
154.9432245223673
 40
154.9432245223673
 40
154.9432245223673
 10
2.360041766168462
 20
1.129341286271276
 30
0.0
 10
2.430601449103582
 20
1.978350290067604
 30
0.0
 10
2.629466032361245
 20
4.374169474759011
 30
0.0
 10
2.913445158670959
 20
7.72077927301965
 30
0.0
 10
3.12108413242396
 20
10.21956641522321
 30
0.0
 10
3.199359372590461
 20
11.17083042990971
 30
0.0
  0
LINE
  5
1CF
330
1F
100
AcDbEntity
  8
0
  6
Continuous
 62
     7
370
    25
100
AcDbLine
 10
2.2350867907
 20
1.2803385095
 30
0.0
 11
2.3600417662
 21
1.1293412863
 31
0.0
  0
LINE
  5
1D0
330
1F
100
AcDbEntity
  8
0
  6
Continuous
 62
     7
370
    25
100
AcDbLine
 10
2.0727355523
 20
1.1459877281
 30
0.0
 11
2.2350867907
 21
1.2803385095
 31
0.0
  0
LINE
  5
1D1
330
1F
100
AcDbEntity
  8
0
  6
Continuous
 62
     7
370
    25
100
AcDbLine
 10
1.932894308
 20
1.3149737135
 30
0.0
 11
2.0727355523
 21
1.1459877281
 31
0.0
  0
LINE
  5
1D2
330
1F
100
AcDbEntity
  8
0
  6
Continuous
 62
     7
370
    25
100
AcDbLine
 10
1.761528913
 20
1.1731634326
 30
0.0
 11
1.932894308
 21
1.3149737135
 31
0.0
  0
LINE
  5
1D3
330
1F
100
AcDbEntity
  8
0
  6
Continuous
 62
     7
370
    25
100
AcDbLine
 10
2.7716753586
 20
11.3668520184
 30
0.0
 11
2.6016630535
 21
11.2230683422
 31
0.0
  0
SPLINE
  5
1D4
330
1F
100
AcDbEntity
  8
0
  6
Continuous
 62
     7
370
    25
100
AcDbSpline
210
0.0
220
0.0
230
1.0
 70
     8
 71
     3
 72
    14
 73
    10
 74
     0
 42
0.00000001
 43
0.00000001
 40
0.0
 40
0.0
 40
0.0
 40
0.0
 40
0.25
 40
0.25
 40
0.5
 40
0.5
 40
0.75
 40
0.75
 40
1.0
 40
1.0
 40
1.0
 40
1.0
 10
1.761529753643204
 20
1.173165226544091
 30
0.0
 10
1.831118717914655
 20
2.010653105584747
 30
0.0
 10
1.900716105074905
 20
2.848147905949834
 30
0.0
 10
2.04084817403647
 20
4.523151156337259
 30
0.0
 10
2.111360040490663
 20
5.360656061805435
 30
0.0
 10
2.252549328422189
 20
7.035615905744965
 30
0.0
 10
2.323159305977683
 20
7.873063706082194
 30
0.0
 10
2.46323001607605
 20
9.547992393430656
 30
0.0
 10
2.532755802923655
 20
10.38548420101702
 30
0.0
 10
2.601662340831092
 20
11.22305361729477
 30
0.0
  0
MTEXT
  5
1D5
330
1F
100
AcDbEntity
  8
PART_NAMES
100
AcDbMText
 10
2.5720726764
 20
7.1648804022
 30
0.0
 40
0.1666666667
 41
0.0
 71
     1
 72
     1
  1
TMS 1.3
  7
SLDTEXTSTYLE0
 11
1.047444401652940E-14
 21
-1.0
 31
0.0
 73
     1
 44
1.0
  0
LINE
  5
1D6
330
1F
100
AcDbEntity
  8
0
  6
Continuous
 62
     7
370
    25
100
AcDbLine
 10
1.0797450365
 20
0.6659431416
 30
0.0
 11
0.9270538917
 21
0.5368084057
 31
0.0
  0
LINE
  5
1D7
330
1F
100
AcDbEntity
  8
0
  6
Continuous
 62
     7
370
    25
100
AcDbLine
 10
0.9270538917
 20
0.5368084057
 30
0.0
 11
0.7735180076
 21
0.71835189
 31
0.0
  0
LINE
  5
1D8
330
1F
100
AcDbEntity
  8
0
  6
Continuous
 62
     7
370
    25
100
AcDbLine
 10
0.7735180076
 20
0.71835189
 30
0.0
 11
0.6034897714
 21
0.5745547404
 31
0.0
  0
LINE
  5
1D9
330
1F
100
AcDbEntity
  8
0
  6
Continuous
 62
     7
370
    25
100
AcDbLine
 10
1.6319933367
 20
11.5071369805
 30
0.0
 11
1.7758151814
 21
11.3370795442
 31
0.0
  0
LINE
  5
1DA
330
1F
100
AcDbEntity
  8
0
  6
Continuous
 62
     7
370
    25
100
AcDbLine
 10
1.7758151814
 20
11.3370795442
 30
0.0
 11
1.9201793196
 21
11.4591719215
 31
0.0
  0
LINE
  5
1DB
330
1F
100
AcDbEntity
  8
0
  6
Continuous
 62
     7
370
    25
100
AcDbLine
 10
1.9201793196
 20
11.4591719215
 30
0.0
 11
2.0572849284
 21
11.2970558793
 31
0.0
  0
SPLINE
  5
1DC
330
1F
100
AcDbEntity
  8
0
  6
Continuous
 62
     7
370
    25
100
AcDbSpline
210
0.0
220
0.0
230
1.0
 70
     8
 71
     3
 72
    10
 73
     6
 74
     0
 42
0.00000001
 43
0.00000001
 40
154.9432245223673
 40
154.9432245223673
 40
154.9432245223673
 40
154.9432245223673
 40
159.4306784522399
 40
171.0735151575466
 40
181.9523199598931
 40
181.9523199598931
 40
181.9523199598931
 40
181.9523199598931
 10
1.201202021635944
 20
0.5223303015078373
 30
0.0
 10
1.250291853042702
 20
1.118909628571503
 30
0.0
 10
1.425671202649473
 20
3.263504616414876
 30
0.0
 10
1.712126415450226
 20
6.855318640060398
 30
0.0
 10
1.945030153532485
 20
9.850552061469331
 30
0.0
 10
2.057284928409593
 20
11.29705587926893
 30
0.0
  0
LINE
  5
1DD
330
1F
100
AcDbEntity
  8
0
  6
Continuous
 62
     7
370
    25
100
AcDbLine
 10
1.2012020216
 20
0.5223303015
 30
0.0
 11
1.0797450365
 21
0.6659431416
 31
0.0
  0
SPLINE
  5
1DE
330
1F
100
AcDbEntity
  8
0
  6
Continuous
 62
     7
370
    25
100
AcDbSpline
210
0.0
220
0.0
230
1.0
 70
     8
 71
     3
 72
    10
 73
     6
 74
     0
 42
0.00000001
 43
0.00000001
 40
0.0
 40
0.0
 40
0.0
 40
0.0
 40
0.5
 40
0.5
 40
1.0
 40
1.0
 40
1.0
 40
1.0
 10
0.6035049898765749
 20
0.5745534888929027
 30
0.0
 10
0.7513672825034562
 20
2.371842075519419
 30
0.0
 10
0.8962570745513937
 20
4.16952681352169
 30
0.0
 10
1.181047660915345
 20
7.765570567940943
 30
0.0
 10
1.320993894911575
 20
9.563902785945698
 30
0.0
 10
1.460527240993175
 20
11.36206746892078
 30
0.0
  0
LINE
  5
1DF
330
1F
100
AcDbEntity
  8
0
  6
Continuous
 62
     7
370
    25
100
AcDbLine
 10
1.4604662329
 20
11.362072201
 30
0.0
 11
1.6319933367
 21
11.5071369805
 31
0.0
  0
MTEXT
  5
1E0
330
1F
100
AcDbEntity
  8
PART_NAMES
100
AcDbMText
 10
1.4886015533
 20
7.2648931212
 30
0.0
 40
0.1666666667
 41
0.0
 71
     1
 72
     1
  1
TMS 1.4
  7
SLDTEXTSTYLE0
 11
1.047444401652940E-14
 21
-1.0
 31
0.0
 73
     1
 44
1.0
  0
MTEXT
  5
1E2
330
1F
100
AcDbEntity
  8
0
  6
Continuous
 62
     7
100
AcDbMText
 10
0.0
 20
0.5790104628
 30
0.0
 40
0.2076
 41
0.0
 71
     1
 72
     1
  1
SOLIDWORKS Educational Product.
  7
SLDTEXTSTYLE1
 73
     1
 44
1.0
  0
MTEXT
  5
1E3
330
1F
100
AcDbEntity
  8
0
  6
Continuous
 62
     7
100
AcDbMText
 10
0.0
 20
0.2676104628
 30
0.0
 40
0.2076
 41
0.0
 71
     1
 72
     1
  1
For Instructional Use Only.
  7
SLDTEXTSTYLE1
 73
     1
 44
1.0
  0
ENDSEC
  0
SECTION
  2
OBJECTS
  0
DICTIONARY
  5
C
330
0
100
AcDbDictionary
281
     1
  3
ACAD_GROUP
350
D
  3
ACAD_LAYOUT
350
1A
  3
ACAD_MLINESTYLE
350
17
  3
ACAD_PLOTSETTINGS
350
19
  3
ACAD_PLOTSTYLENAME
350
E
  3
ACAD_SCALELIST
350
47
  3
DWGPROPS
350
1E4
  0
DICTIONARY
  5
D
102
{ACAD_REACTORS
330
C
102
}
330
C
100
AcDbDictionary
281
     1
  0
DICTIONARY
  5
1A
102
{ACAD_REACTORS
330
C
102
}
330
C
100
AcDbDictionary
281
     1
  3
Layout1
350
1E
  3
Layout2
350
26
  3
Model
350
22
  0
DICTIONARY
  5
17
102
{ACAD_REACTORS
330
C
102
}
330
C
100
AcDbDictionary
281
     1
  3
Standard
350
18
  0
DICTIONARY
  5
19
102
{ACAD_REACTORS
330
C
102
}
330
C
100
AcDbDictionary
281
     1
  0
ACDBDICTIONARYWDFLT
  5
E
102
{ACAD_REACTORS
330
C
102
}
330
C
100
AcDbDictionary
281
     1
  3
Normal
350
F
100
AcDbDictionaryWithDefault
340
F
  0
DICTIONARY
  5
47
102
{ACAD_REACTORS
330
C
102
}
330
C
100
AcDbDictionary
281
     1
  3
A0
350
48
  3
A1
350
49
  3
A2
350
4A
  3
A3
350
4B
  3
A4
350
4C
  3
A5
350
4D
  3
A6
350
4E
  3
A7
350
4F
  3
A8
350
50
  3
A9
350
51
  3
B1
350
52
  3
B2
350
53
  3
B3
350
54
  3
B4
350
55
  3
B5
350
56
  3
B6
350
57
  3
B7
350
58
  0
XRECORD
  5
1E4
102
{ACAD_REACTORS
330
C
102
}
330
C
100
AcDbXrecord
280
     1
  1
DWGPROPS COOKIE
  2

  3

  4

  6

  7

  8
ucmai
  9

300
=
301
=
302
=
303
=
304
=
305
=
306
=
307
=
308
=
309
=
 40
0.0
 41
2460784.957554179
 42
2460784.957554908
  1

 90
        0
  0
LAYOUT
  5
1E
102
{ACAD_REACTORS
330
1A
102
}
330
1A
100
AcDbPlotSettings
  1

  2
none_device
  4

  6

 40
0.0
 41
0.0
 42
0.0
 43
0.0
 44
0.0
 45
0.0
 46
0.0
 47
0.0
 48
0.0
 49
0.0
140
0.0
141
0.0
142
1.0
143
1.0
 70
   688
 72
     0
 73
     0
 74
     5
  7

 75
    16
147
1.0
148
0.0
149
0.0
100
AcDbLayout
  1
Layout1
 70
     1
 71
     1
 10
0.0
 20
0.0
 11
12.0
 21
9.0
 12
0.0
 22
0.0
 32
0.0
 14
1.0000000000E+20
 24
1.0000000000E+20
 34
1.0000000000E+20
 15
-1.0000000000E+20
 25
-1.0000000000E+20
 35
-1.0000000000E+20
146
0.0
 13
0.0
 23
0.0
 33
0.0
 16
1.0
 26
0.0
 36
0.0
 17
0.0
 27
1.0
 37
0.0
 76
     0
330
1B
  0
LAYOUT
  5
26
102
{ACAD_REACTORS
330
1A
102
}
330
1A
100
AcDbPlotSettings
  1

  2
none_device
  4

  6

 40
0.0
 41
0.0
 42
0.0
 43
0.0
 44
0.0
 45
0.0
 46
0.0
 47
0.0
 48
0.0
 49
0.0
140
0.0
141
0.0
142
1.0
143
1.0
 70
   688
 72
     0
 73
     0
 74
     5
  7

 75
    16
147
1.0
148
0.0
149
0.0
100
AcDbLayout
  1
Layout2
 70
     1
 71
     2
 10
0.0
 20
0.0
 11
0.0
 21
0.0
 12
0.0
 22
0.0
 32
0.0
 14
0.0
 24
0.0
 34
0.0
 15
0.0
 25
0.0
 35
0.0
146
0.0
 13
0.0
 23
0.0
 33
0.0
 16
1.0
 26
0.0
 36
0.0
 17
0.0
 27
1.0
 37
0.0
 76
     0
330
23
  0
LAYOUT
  5
22
102
{ACAD_REACTORS
330
1A
102
}
330
1A
100
AcDbPlotSettings
  1

  2
none_device
  4
Letter_(8.50_x_11.00_Inches)
  6

 40
6.35
 41
6.35
 42
6.35000508
 43
6.35000508
 44
215.9
 45
279.4
 46
0.0
 47
0.0
 48
0.0
 49
0.0
140
0.0
141
0.0
142
1.0
143
1.0
 70
  1712
 72
     0
 73
     0
 74
     0
  7

 75
     0
147
1.0
148
0.0
149
0.0
100
AcDbLayout
  1
Model
 70
     1
 71
     0
 10
0.0
 20
0.0
 11
24.0
 21
12.0
 12
0.0
 22
0.0
 32
0.0
 14
0.0
 24
0.0
 34
0.0
 15
24.0
 25
12.0
 35
0.0
146
0.0
 13
0.0
 23
0.0
 33
0.0
 16
1.0
 26
0.0
 36
0.0
 17
0.0
 27
1.0
 37
0.0
 76
     0
330
1F
331
29
  0
MLINESTYLE
  5
18
102
{ACAD_REACTORS
330
17
102
}
330
17
100
AcDbMlineStyle
  2
Standard
 70
     0
  3

 62
   256
 51
90.0
 52
90.0
 71
     2
 49
0.5
 62
   256
  6
BYLAYER
 49
-0.5
 62
   256
  6
BYLAYER
  0
ACDBPLACEHOLDER
  5
F
102
{ACAD_REACTORS
330
E
102
}
330
E
  0
SCALE
  5
48
102
{ACAD_REACTORS
330
47
102
}
330
47
100
AcDbScale
 70
     0
300
1:1
140
1.0
141
1.0
290
     1
  0
SCALE
  5
49
102
{ACAD_REACTORS
330
47
102
}
330
47
100
AcDbScale
 70
     0
300
1/128" = 1'-0"
140
0.0078125
141
12.0
290
     0
  0
SCALE
  5
4A
102
{ACAD_REACTORS
330
47
102
}
330
47
100
AcDbScale
 70
     0
300
1/64" = 1'-0"
140
0.015625
141
12.0
290
     0
  0
SCALE
  5
4B
102
{ACAD_REACTORS
330
47
102
}
330
47
100
AcDbScale
 70
     0
300
1/32" = 1'-0"
140
0.03125
141
12.0
290
     0
  0
SCALE
  5
4C
102
{ACAD_REACTORS
330
47
102
}
330
47
100
AcDbScale
 70
     0
300
1/16" = 1'-0"
140
0.0625
141
12.0
290
     0
  0
SCALE
  5
4D
102
{ACAD_REACTORS
330
47
102
}
330
47
100
AcDbScale
 70
     0
300
3/32" = 1'-0"
140
0.09375
141
12.0
290
     0
  0
SCALE
  5
4E
102
{ACAD_REACTORS
330
47
102
}
330
47
100
AcDbScale
 70
     0
300
1/8" = 1'-0"
140
0.125
141
12.0
290
     0
  0
SCALE
  5
4F
102
{ACAD_REACTORS
330
47
102
}
330
47
100
AcDbScale
 70
     0
300
3/16" = 1'-0"
140
0.1875
141
12.0
290
     0
  0
SCALE
  5
50
102
{ACAD_REACTORS
330
47
102
}
330
47
100
AcDbScale
 70
     0
300
1/4" = 1'-0"
140
0.25
141
12.0
290
     0
  0
SCALE
  5
51
102
{ACAD_REACTORS
330
47
102
}
330
47
100
AcDbScale
 70
     0
300
3/8" = 1'-0"
140
0.375
141
12.0
290
     0
  0
SCALE
  5
52
102
{ACAD_REACTORS
330
47
102
}
330
47
100
AcDbScale
 70
     0
300
1/2" = 1'-0"
140
0.5
141
12.0
290
     0
  0
SCALE
  5
53
102
{ACAD_REACTORS
330
47
102
}
330
47
100
AcDbScale
 70
     0
300
3/4" = 1'-0"
140
0.75
141
12.0
290
     0
  0
SCALE
  5
54
102
{ACAD_REACTORS
330
47
102
}
330
47
100
AcDbScale
 70
     0
300
1" = 1'-0"
140
1.0
141
12.0
290
     0
  0
SCALE
  5
55
102
{ACAD_REACTORS
330
47
102
}
330
47
100
AcDbScale
 70
     0
300
1-1/2" = 1'-0"
140
1.5
141
12.0
290
     0
  0
SCALE
  5
56
102
{ACAD_REACTORS
330
47
102
}
330
47
100
AcDbScale
 70
     0
300
3" = 1'-0"
140
3.0
141
12.0
290
     0
  0
SCALE
  5
57
102
{ACAD_REACTORS
330
47
102
}
330
47
100
AcDbScale
 70
     0
300
6" = 1'-0"
140
6.0
141
12.0
290
     0
  0
SCALE
  5
58
102
{ACAD_REACTORS
330
47
102
}
330
47
100
AcDbScale
 70
     0
300
1'-0" = 1'-0"
140
12.0
141
12.0
290
     0
  0
ENDSEC
  0
EOF
