  0
SECTION
  2
HEADER
  9
$ACADVER
  1
AC1015
  9
$ACADMAINTVER
 70
     6
  9
$DWGCODEPAGE
  3
ANSI_1252
  9
$INSBASE
 10
0.0
 20
0.0
 30
0.0
  9
$EXTMIN
 10
0.0
 20
0.0
 30
0.0
  9
$EXTMAX
 10
24.0
 20
12.0
 30
0.0
  9
$LIMMIN
 10
0.0
 20
0.0
  9
$LIMMAX
 10
24.0
 20
12.0
  9
$ORTHOMODE
 70
     0
  9
$REGENMODE
 70
     1
  9
$FILLMODE
 70
     1
  9
$QTEXTMODE
 70
     0
  9
$MIRRTEXT
 70
     1
  9
$LTSCALE
 40
1.0
  9
$ATTMODE
 70
     1
  9
$TEXTSIZE
 40
0.125
  9
$TRACEWID
 40
0.05
  9
$TEXTSTYLE
  7
Standard
  9
$CLAYER
  8
0
  9
$CELTYPE
  6
ByLayer
  9
$CECOLOR
 62
   256
  9
$CELTSCALE
 40
1.0
  9
$DISPSILH
 70
     0
  9
$DIMSCALE
 40
1.0
  9
$DIMASZ
 40
0.13
  9
$DIMEXO
 40
0.05
  9
$DIMDLI
 40
0.38
  9
$DIMRND
 40
0.0
  9
$DIMDLE
 40
0.0
  9
$DIMEXE
 40
0.125
  9
$DIMTP
 40
0.0
  9
$DIMTM
 40
0.0
  9
$DIMTXT
 40
0.125
  9
$DIMCEN
 40
0.09
  9
$DIMTSZ
 40
0.0
  9
$DIMTOL
 70
     0
  9
$DIMLIM
 70
     0
  9
$DIMTIH
 70
     1
  9
$DIMTOH
 70
     1
  9
$DIMSE1
 70
     0
  9
$DIMSE2
 70
     0
  9
$DIMTAD
 70
     0
  9
$DIMZIN
 70
     1
  9
$DIMBLK
  1

  9
$DIMASO
 70
     1
  9
$DIMSHO
 70
     1
  9
$DIMPOST
  1

  9
$DIMAPOST
  1

  9
$DIMALT
 70
     0
  9
$DIMALTD
 70
     2
  9
$DIMALTF
 40
25.4
  9
$DIMLFAC
 40
1.0
  9
$DIMTOFL
 70
     0
  9
$DIMTVP
 40
0.0
  9
$DIMTIX
 70
     0
  9
$DIMSOXD
 70
     0
  9
$DIMSAH
 70
     0
  9
$DIMBLK1
  1

  9
$DIMBLK2
  1

  9
$DIMSTYLE
  2
Standard
  9
$DIMCLRD
 70
     0
  9
$DIMCLRE
 70
     0
  9
$DIMCLRT
 70
     0
  9
$DIMTFAC
 40
1.0
  9
$DIMGAP
 40
0.06
  9
$DIMJUST
 70
     0
  9
$DIMSD1
 70
     0
  9
$DIMSD2
 70
     0
  9
$DIMTOLJ
 70
     1
  9
$DIMTZIN
 70
     1
  9
$DIMALTZ
 70
     0
  9
$DIMALTTZ
 70
     0
  9
$DIMUPT
 70
     0
  9
$DIMDEC
 70
     2
  9
$DIMTDEC
 70
     2
  9
$DIMALTU
 70
     2
  9
$DIMALTTD
 70
     2
  9
$DIMTXSTY
  7
Standard
  9
$DIMAUNIT
 70
     0
  9
$DIMADEC
 70
     2
  9
$DIMALTRND
 40
0.0
  9
$DIMAZIN
 70
     0
  9
$DIMDSEP
 70
    46
  9
$DIMATFIT
 70
     3
  9
$DIMFRAC
 70
     0
  9
$DIMLDRBLK
  1

  9
$DIMLUNIT
 70
     2
  9
$DIMLWD
 70
    -2
  9
$DIMLWE
 70
    -2
  9
$DIMTMOVE
 70
     0
  9
$LUNITS
 70
     2
  9
$LUPREC
 70
     6
  9
$SKETCHINC
 40
0.1
  9
$FILLETRAD
 40
0.0
  9
$AUNITS
 70
     0
  9
$AUPREC
 70
     2
  9
$MENU
  1
.
  9
$ELEVATION
 40
0.0
  9
$PELEVATION
 40
0.0
  9
$THICKNESS
 40
0.0
  9
$LIMCHECK
 70
     0
  9
$CHAMFERA
 40
0.0
  9
$CHAMFERB
 40
0.0
  9
$CHAMFERC
 40
0.0
  9
$CHAMFERD
 40
0.0
  9
$SKPOLY
 70
     0
  9
$TDCREATE
 40
2460784.673149977
  9
$TDUCREATE
 40
2460784.964816644
  9
$TDUPDATE
 40
2460784.673150521
  9
$TDUUPDATE
 40
2460784.964817188
  9
$TDINDWG
 40
0.0000000116
  9
$TDUSRTIMER
 40
0.0000000116
  9
$USRTIMER
 70
     1
  9
$ANGBASE
 50
0.0
  9
$ANGDIR
 70
     0
  9
$PDMODE
 70
     0
  9
$PDSIZE
 40
-1.0
  9
$PLINEWID
 40
0.0
  9
$SPLFRAME
 70
     0
  9
$SPLINETYPE
 70
     6
  9
$SPLINESEGS
 70
     8
  9
$HANDSEED
  5
1DA
  9
$SURFTAB1
 70
     6
  9
$SURFTAB2
 70
     6
  9
$SURFTYPE
 70
     6
  9
$SURFU
 70
     6
  9
$SURFV
 70
     6
  9
$UCSBASE
  2

  9
$UCSNAME
  2

  9
$UCSORG
 10
0.0
 20
0.0
 30
0.0
  9
$UCSXDIR
 10
1.0
 20
0.0
 30
0.0
  9
$UCSYDIR
 10
0.0
 20
1.0
 30
0.0
  9
$UCSORTHOREF
  2

  9
$UCSORTHOVIEW
 70
     0
  9
$UCSORGTOP
 10
0.0
 20
0.0
 30
0.0
  9
$UCSORGBOTTOM
 10
0.0
 20
0.0
 30
0.0
  9
$UCSORGLEFT
 10
0.0
 20
0.0
 30
0.0
  9
$UCSORGRIGHT
 10
0.0
 20
0.0
 30
0.0
  9
$UCSORGFRONT
 10
0.0
 20
0.0
 30
0.0
  9
$UCSORGBACK
 10
0.0
 20
0.0
 30
0.0
  9
$PUCSBASE
  2

  9
$PUCSNAME
  2

  9
$PUCSORG
 10
0.0
 20
0.0
 30
0.0
  9
$PUCSXDIR
 10
1.0
 20
0.0
 30
0.0
  9
$PUCSYDIR
 10
0.0
 20
1.0
 30
0.0
  9
$PUCSORTHOREF
  2

  9
$PUCSORTHOVIEW
 70
     0
  9
$PUCSORGTOP
 10
0.0
 20
0.0
 30
0.0
  9
$PUCSORGBOTTOM
 10
0.0
 20
0.0
 30
0.0
  9
$PUCSORGLEFT
 10
0.0
 20
0.0
 30
0.0
  9
$PUCSORGRIGHT
 10
0.0
 20
0.0
 30
0.0
  9
$PUCSORGFRONT
 10
0.0
 20
0.0
 30
0.0
  9
$PUCSORGBACK
 10
0.0
 20
0.0
 30
0.0
  9
$USERI1
 70
     0
  9
$USERI2
 70
     0
  9
$USERI3
 70
     0
  9
$USERI4
 70
     0
  9
$USERI5
 70
     0
  9
$USERR1
 40
0.0
  9
$USERR2
 40
0.0
  9
$USERR3
 40
0.0
  9
$USERR4
 40
0.0
  9
$USERR5
 40
0.0
  9
$WORLDVIEW
 70
     1
  9
$SHADEDGE
 70
     3
  9
$SHADEDIF
 70
    70
  9
$TILEMODE
 70
     1
  9
$MAXACTVP
 70
    64
  9
$PINSBASE
 10
0.0
 20
0.0
 30
0.0
  9
$PLIMCHECK
 70
     0
  9
$PEXTMIN
 10
1.0000000000E+20
 20
1.0000000000E+20
 30
1.0000000000E+20
  9
$PEXTMAX
 10
-1.0000000000E+20
 20
-1.0000000000E+20
 30
-1.0000000000E+20
  9
$PLIMMIN
 10
0.0
 20
0.0
  9
$PLIMMAX
 10
12.0
 20
9.0
  9
$UNITMODE
 70
     0
  9
$VISRETAIN
 70
     1
  9
$PLINEGEN
 70
     0
  9
$PSLTSCALE
 70
     1
  9
$TREEDEPTH
 70
  3020
  9
$CMLSTYLE
  2
Standard
  9
$CMLJUST
 70
     0
  9
$CMLSCALE
 40
1.0
  9
$PROXYGRAPHICS
 70
     1
  9
$MEASUREMENT
 70
     0
  9
$CELWEIGHT
370
    -1
  9
$ENDCAPS
280
     0
  9
$JOINSTYLE
280
     0
  9
$LWDISPLAY
290
     1
  9
$INSUNITS
 70
     1
  9
$HYPERLINKBASE
  1

  9
$STYLESHEET
  1

  9
$XEDIT
290
     1
  9
$CEPSNTYPE
380
     0
  9
$PSTYLEMODE
290
     1
  9
$FINGERPRINTGUID
  2
{0f31d55b-710a-406e-ba12-a79f8c41eb9b}
  9
$VERSIONGUID
  2
{FAEB1C32-E019-11D5-929B-00C0DF256EC4}
  9
$EXTNAMES
290
     1
  9
$PSVPSCALE
 40
0.0
  9
$OLESTARTUP
290
     0
  0
ENDSEC
  0
SECTION
  2
CLASSES
  0
CLASS
  1
ACDBDICTIONARYWDFLT
  2
AcDbDictionaryWithDefault
  3
ObjectDBX Classes
 90
        0
280
     0
281
     0
  0
CLASS
  1
VISUALSTYLE
  2
AcDbVisualStyle
  3
ObjectDBX Classes
 90
     4095
280
     0
281
     0
  0
CLASS
  1
MATERIAL
  2
AcDbMaterial
  3
ObjectDBX Classes
 90
     1153
280
     0
281
     0
  0
CLASS
  1
SCALE
  2
AcDbScale
  3
ObjectDBX Classes
 90
     1153
280
     0
281
     0
  0
CLASS
  1
TABLESTYLE
  2
AcDbTableStyle
  3
ObjectDBX Classes
 90
     4095
280
     0
281
     0
  0
CLASS
  1
MLEADERSTYLE
  2
AcDbMLeaderStyle
  3
ACDB_MLEADERSTYLE_CLASS
 90
     4095
280
     0
281
     0
  0
CLASS
  1
SUN
  2
AcDbSun
  3
SCENEOE
 90
     1153
280
     0
281
     0
  0
CLASS
  1
ACDBPLACEHOLDER
  2
AcDbPlaceHolder
  3
ObjectDBX Classes
 90
        0
280
     0
281
     0
  0
CLASS
  1
LAYOUT
  2
AcDbLayout
  3
ObjectDBX Classes
 90
        0
280
     0
281
     0
  0
ENDSEC
  0
SECTION
  2
TABLES
  0
TABLE
  2
VPORT
  5
8
330
0
100
AcDbSymbolTable
 70
     1
  0
VPORT
  5
29
330
8
100
AcDbSymbolTableRecord
100
AcDbViewportTableRecord
  2
*Active
 70
     0
 10
0.0
 20
0.0
 11
1.0
 21
1.0
 12
12.0
 22
6.0
 13
0.0
 23
0.0
 14
0.5
 24
0.5
 15
0.5
 25
0.5
 16
0.0
 26
0.0
 36
1.0
 17
0.0
 27
0.0
 37
0.0
 40
12.0
 41
2.0
 42
50.0
 43
0.0
 44
0.0
 50
0.0
 51
0.0
 71
     0
 72
  2000
 73
     1
 74
     3
 75
     0
 76
     0
 77
     0
 78
     0
281
     0
 65
     1
110
0.0
120
0.0
130
0.0
111
1.0
121
0.0
131
0.0
112
0.0
122
1.0
132
0.0
 79
     0
146
0.0
  0
ENDTAB
  0
TABLE
  2
LTYPE
  5
5
330
0
100
AcDbSymbolTable
 70
     6
  0
LTYPE
  5
14
330
5
100
AcDbSymbolTableRecord
100
AcDbLinetypeTableRecord
  2
ByBlock
 70
     0
  3

 72
    65
 73
     0
 40
0.0
  0
LTYPE
  5
15
330
5
100
AcDbSymbolTableRecord
100
AcDbLinetypeTableRecord
  2
ByLayer
 70
     0
  3

 72
    65
 73
     0
 40
0.0
  0
LTYPE
  5
16
330
5
100
AcDbSymbolTableRecord
100
AcDbLinetypeTableRecord
  2
Continuous
 70
     0
  3
Solid line
 72
    65
 73
     0
 40
0.0
  0
LTYPE
  5
5E
330
5
100
AcDbSymbolTableRecord
100
AcDbLinetypeTableRecord
  2
HIDDEN
 70
     0
  3
Hidden __ __ __ __ __ __ __ __ __ __ __ __ __ __
 72
    65
 73
     2
 40
0.075
 49
0.05
 74
     0
 49
-0.025
 74
     0
  0
LTYPE
  5
5F
330
5
100
AcDbSymbolTableRecord
100
AcDbLinetypeTableRecord
  2
PHANTOM
 70
     0
  3
Phantom ______  __  __  ______  __  __  ______
 72
    65
 73
     6
 40
0.5
 49
0.25
 74
     0
 49
-0.05
 74
     0
 49
0.05
 74
     0
 49
-0.05
 74
     0
 49
0.05
 74
     0
 49
-0.05
 74
     0
  0
LTYPE
  5
60
330
5
100
AcDbSymbolTableRecord
100
AcDbLinetypeTableRecord
  2
CENTER
 70
     0
  3
Center ____ _ ____ _ ____ _ ____ _ ____ _ ____
 72
    65
 73
     4
 40
0.4
 49
0.25
 74
     0
 49
-0.05
 74
     0
 49
0.05
 74
     0
 49
-0.05
 74
     0
  0
LTYPE
  5
61
330
5
100
AcDbSymbolTableRecord
100
AcDbLinetypeTableRecord
  2
CENTERX2
 70
     0
  3
Center (2x) ________  __  ________  __  _____
 72
    65
 73
     4
 40
0.8
 49
0.5
 74
     0
 49
-0.1
 74
     0
 49
0.1
 74
     0
 49
-0.1
 74
     0
  0
LTYPE
  5
62
330
5
100
AcDbSymbolTableRecord
100
AcDbLinetypeTableRecord
  2
DOT2
 70
     0
  3
Dot (.5x) ........................................
 72
    65
 73
     2
 40
0.025
 49
0.0
 74
     0
 49
-0.025
 74
     0
  0
ENDTAB
  0
TABLE
  2
LAYER
  5
2
330
0
100
AcDbSymbolTable
 70
     3
  0
LAYER
  5
10
330
2
100
AcDbSymbolTableRecord
100
AcDbLayerTableRecord
  2
0
 70
     0
 62
     7
  6
Continuous
370
    -3
390
F
  0
LAYER
  5
63
330
2
100
AcDbSymbolTableRecord
100
AcDbLayerTableRecord
  2
FORMAT
 70
     0
 62
     7
  6
Continuous
370
    -3
390
F
  0
LAYER
  5
64
330
2
100
AcDbSymbolTableRecord
100
AcDbLayerTableRecord
  2
PART_NAMES
 70
     0
 62
     1
  6
Continuous
370
    -3
390
F
  0
ENDTAB
  0
TABLE
  2
STYLE
  5
3
330
0
100
AcDbSymbolTable
 70
     3
  0
STYLE
  5
11
330
3
100
AcDbSymbolTableRecord
100
AcDbTextStyleTableRecord
  2
Standard
 70
     0
 40
0.0
 41
1.0
 50
0.0
 71
     0
 42
0.125
  3
txt
  4

  0
STYLE
  5
11C
330
3
100
AcDbSymbolTableRecord
100
AcDbTextStyleTableRecord
  2
SLDTEXTSTYLE0
 70
     0
 40
0.0
 41
0.75
 50
0.0
 71
     0
 42
0.125
  3
TXT
  4

  0
STYLE
  5
1D6
330
3
100
AcDbSymbolTableRecord
100
AcDbTextStyleTableRecord
  2
SLDTEXTSTYLE1
 70
     0
 40
0.0
 41
0.7
 50
0.0
 71
     0
 42
0.125
  3
TXT
  4

  0
ENDTAB
  0
TABLE
  2
VIEW
  5
6
330
0
100
AcDbSymbolTable
 70
     0
  0
ENDTAB
  0
TABLE
  2
UCS
  5
7
330
0
100
AcDbSymbolTable
 70
     0
  0
ENDTAB
  0
TABLE
  2
APPID
  5
9
330
0
100
AcDbSymbolTable
 70
     1
  0
APPID
  5
12
330
9
100
AcDbSymbolTableRecord
100
AcDbRegAppTableRecord
  2
ACAD
 70
     0
  0
ENDTAB
  0
TABLE
  2
DIMSTYLE
  5
A
330
0
100
AcDbSymbolTable
 70
     1
100
AcDbDimStyleTable
  0
DIMSTYLE
105
27
330
A
100
AcDbSymbolTableRecord
100
AcDbDimStyleTableRecord
  2
Standard
 70
     0
178
     0
340
11
  0
ENDTAB
  0
TABLE
  2
BLOCK_RECORD
  5
1
330
0
100
AcDbSymbolTable
 70
     1
  0
BLOCK_RECORD
  5
1F
330
1
100
AcDbSymbolTableRecord
100
AcDbBlockTableRecord
  2
*Model_Space
340
22
  0
BLOCK_RECORD
  5
1B
330
1
100
AcDbSymbolTableRecord
100
AcDbBlockTableRecord
  2
*Paper_Space
340
1E
  0
BLOCK_RECORD
  5
23
330
1
100
AcDbSymbolTableRecord
100
AcDbBlockTableRecord
  2
*Paper_Space0
340
26
  0
ENDTAB
  0
ENDSEC
  0
SECTION
  2
BLOCKS
  0
BLOCK
  5
20
330
1F
100
AcDbEntity
  8
0
100
AcDbBlockBegin
  2
*Model_Space
 70
     0
 10
0.0
 20
0.0
 30
0.0
  3
*Model_Space
  1

  0
ENDBLK
  5
21
330
1F
100
AcDbEntity
  8
0
100
AcDbBlockEnd
  0
BLOCK
  5
1C
330
1B
100
AcDbEntity
 67
     1
  8
0
100
AcDbBlockBegin
  2
*Paper_Space
 70
     0
 10
0.0
 20
0.0
 30
0.0
  3
*Paper_Space
  1

  0
ENDBLK
  5
1D
330
1B
100
AcDbEntity
 67
     1
  8
0
100
AcDbBlockEnd
  0
BLOCK
  5
24
330
23
100
AcDbEntity
  8
0
100
AcDbBlockBegin
  2
*Paper_Space0
 70
     0
 10
0.0
 20
0.0
 30
0.0
  3
*Paper_Space0
  1

  0
ENDBLK
  5
25
330
23
100
AcDbEntity
  8
0
100
AcDbBlockEnd
  0
ENDSEC
  0
SECTION
  2
ENTITIES
  0
LINE
  5
65
330
1F
100
AcDbEntity
  8
0
  6
CENTERX2
 62
     7
370
    18
100
AcDbLine
 10
0.25
 20
0.25
 30
0.0
 11
0.25
 21
11.75
 31
0.0
  0
LINE
  5
66
330
1F
100
AcDbEntity
  8
0
  6
CENTERX2
 62
     7
370
    18
100
AcDbLine
 10
0.25
 20
0.25
 30
0.0
 11
23.75
 21
0.25
 31
0.0
  0
LINE
  5
67
330
1F
100
AcDbEntity
  8
0
  6
CENTERX2
 62
     7
370
    18
100
AcDbLine
 10
23.75
 20
0.25
 30
0.0
 11
23.75
 21
11.75
 31
0.0
  0
LINE
  5
68
330
1F
100
AcDbEntity
  8
0
  6
CENTERX2
 62
     7
370
    18
100
AcDbLine
 10
23.75
 20
11.75
 30
0.0
 11
0.25
 21
11.75
 31
0.0
  0
SPLINE
  5
69
330
1F
100
AcDbEntity
  8
0
  6
Continuous
 62
     7
370
    25
100
AcDbSpline
210
0.0
220
0.0
230
1.0
 70
     8
 71
     3
 72
     8
 73
     4
 74
     0
 42
0.00000001
 43
0.00000001
 40
0.0
 40
0.0
 40
0.0
 40
0.0
 40
1.0
 40
1.0
 40
1.0
 40
1.0
 10
9.533426455461722
 20
3.253842209271498
 30
0.0
 10
9.53172662745015
 20
3.203082237939717
 30
0.0
 10
9.529988882271764
 20
3.152329734545902
 30
0.0
 10
9.52825628396738
 20
3.101583411458118
 30
0.0
  0
LWPOLYLINE
  5
6A
330
1F
100
AcDbEntity
  8
0
  6
Continuous
 62
     7
370
    25
100
AcDbPolyline
 90
        3
 70
   128
 43
0.0
 10
9.528256284
 20
3.1015834115
 10
9.5237665913
 20
2.9698571803
 10
9.5202521747
 20
2.8664482842
  0
SPLINE
  5
6B
330
1F
100
AcDbEntity
  8
0
  6
Continuous
 62
     7
370
    25
100
AcDbSpline
210
0.0
220
0.0
230
1.0
 70
     8
 71
     3
 72
     8
 73
     4
 74
     0
 42
0.00000001
 43
0.00000001
 40
0.0
 40
0.0
 40
0.0
 40
0.0
 40
1.0
 40
1.0
 40
1.0
 40
1.0
 10
9.520252174737017
 20
2.86644828423373
 30
0.0
 10
9.51519475823299
 20
2.717462563649352
 30
0.0
 10
9.501625557028559
 20
2.568725928729661
 30
0.0
 10
9.479990814883143
 20
2.421947195651803
 30
0.0
  0
ARC
  5
6C
330
1F
100
AcDbEntity
  8
0
  6
Continuous
 62
     7
370
    25
100
AcDbCircle
 10
7.5271363774
 20
2.709789127
 30
0.0
 40
1.973953754641264
100
AcDbArc
 50
346.3669022092
 51
351.6152337105
  0
SPLINE
  5
6D
330
1F
100
AcDbEntity
  8
0
  6
Continuous
 62
     7
370
    25
100
AcDbSpline
210
0.0
220
0.0
230
1.0
 70
     8
 71
     3
 72
     8
 73
     4
 74
     0
 42
0.00000001
 43
0.00000001
 40
0.0
 40
0.0
 40
0.0
 40
0.0
 40
1.0
 40
1.0
 40
1.0
 40
1.0
 10
9.445473993235536
 20
2.244521235401983
 30
0.0
 10
9.404476309767752
 20
2.075484429320805
 30
0.0
 10
9.342267411898
 20
1.911474282460765
 30
0.0
 10
9.260829925503595
 20
1.7573118398467
 30
0.0
  0
SPLINE
  5
6E
330
1F
100
AcDbEntity
  8
0
  6
Continuous
 62
     7
370
    25
100
AcDbSpline
210
0.0
220
0.0
230
1.0
 70
     8
 71
     3
 72
    11
 73
     7
 74
     0
 42
0.00000001
 43
0.00000001
 40
0.0
 40
0.0
 40
0.0
 40
0.0
 40
0.25
 40
0.5
 40
0.75
 40
1.0
 40
1.0
 40
1.0
 40
1.0
 10
9.260829925503595
 20
1.7573118398467
 30
0.0
 10
9.207409927450414
 20
1.656186988412199
 30
0.0
 10
9.084183586054591
 20
1.462464222905154
 30
0.0
 10
8.85496187484411
 20
1.205172848916693
 30
0.0
 10
8.587149450840611
 20
0.9878586610549897
 30
0.0
 10
8.38741811690683
 20
0.8734052342470762
 30
0.0
 10
8.283558484701736
 20
0.8245557473166765
 30
0.0
  0
SPLINE
  5
6F
330
1F
100
AcDbEntity
  8
0
  6
Continuous
 62
     7
370
    25
100
AcDbSpline
210
0.0
220
0.0
230
1.0
 70
     8
 71
     3
 72
     8
 73
     4
 74
     0
 42
0.00000001
 43
0.00000001
 40
0.0
 40
0.0
 40
0.0
 40
0.0
 40
1.0
 40
1.0
 40
1.0
 40
1.0
 10
8.283558484701736
 20
0.8245557473166765
 30
0.0
 10
8.0745044129833
 20
0.7262288311003926
 30
0.0
 10
7.849245753596762
 20
0.6623482056729139
 30
0.0
 10
7.619595365927697
 20
0.6362952944768536
 30
0.0
  0
ARC
  5
70
330
1F
100
AcDbEntity
  8
0
  6
Continuous
 62
     7
370
    25
100
AcDbCircle
 10
7.379684863
 20
2.7510509
 30
0.0
 40
2.128320525210223
100
AcDbArc
 50
272.0337380134
 51
276.4723038332
  0
SPLINE
  5
71
330
1F
100
AcDbEntity
  8
0
  6
Continuous
 62
     7
370
    25
100
AcDbSpline
210
0.0
220
0.0
230
1.0
 70
     8
 71
     3
 72
     8
 73
     4
 74
     0
 42
0.00000001
 43
0.00000001
 40
0.0
 40
0.0
 40
0.0
 40
0.0
 40
1.0
 40
1.0
 40
1.0
 40
1.0
 10
7.455214640309999
 20
0.6240710109523454
 30
0.0
 10
7.393059492727208
 20
0.6218638605807303
 30
0.0
 10
7.330793003574781
 20
0.6210222251765305
 30
0.0
 10
7.268542924406756
 20
0.6215609707499874
 30
0.0
  0
ARC
  5
72
330
1F
100
AcDbEntity
  8
0
  6
Continuous
 62
     7
370
    25
100
AcDbCircle
 10
7.0520828935
 20
-24.3896033391
 30
0.0
 40
25.01210097293328
100
AcDbArc
 50
89.5041439728
 51
89.6775015989
  0
SPLINE
  5
73
330
1F
100
AcDbEntity
  8
0
  6
Continuous
 62
     7
370
    25
100
AcDbSpline
210
0.0
220
0.0
230
1.0
 70
     8
 71
     3
 72
     8
 73
     4
 74
     0
 42
0.00000001
 43
0.00000001
 40
0.0
 40
0.0
 40
0.0
 40
0.0
 40
1.0
 40
1.0
 40
1.0
 40
1.0
 10
7.192866735683892
 20
0.622101420742382
 30
0.0
 10
7.119910479733909
 20
0.6225125866062828
 30
0.0
 10
7.046962614308726
 20
0.6228642923010682
 30
0.0
 10
6.974019010647995
 20
0.6232301507209183
 30
0.0
  0
SPLINE
  5
74
330
1F
100
AcDbEntity
  8
0
  6
Continuous
 62
     7
370
    25
100
AcDbSpline
210
0.0
220
0.0
230
1.0
 70
     8
 71
     3
 72
     8
 73
     4
 74
     0
 42
0.00000001
 43
0.00000001
 40
0.0
 40
0.0
 40
0.0
 40
0.0
 40
1.0
 40
1.0
 40
1.0
 40
1.0
 10
6.974019010647995
 20
0.6232301507209183
 30
0.0
 10
6.369352154590048
 20
0.6262628981194535
 30
0.0
 10
5.765205552825949
 20
0.6304759039660958
 30
0.0
 10
5.161827207867568
 20
0.6350863708201789
 30
0.0
  0
LINE
  5
75
330
1F
100
AcDbEntity
  8
0
  6
Continuous
 62
     7
370
    25
100
AcDbLine
 10
5.1618272079
 20
1.3850863708
 30
0.0
 11
5.1618272079
 21
0.6350863708
 31
0.0
  0
LINE
  5
76
330
1F
100
AcDbEntity
  8
0
  6
Continuous
 62
     7
370
    25
100
AcDbLine
 10
4.9118272079
 20
1.3850863708
 30
0.0
 11
5.1618272079
 21
1.3850863708
 31
0.0
  0
LINE
  5
77
330
1F
100
AcDbEntity
  8
0
  6
Continuous
 62
     7
370
    25
100
AcDbLine
 10
4.9118272079
 20
0.6350863708
 30
0.0
 11
4.9118272079
 21
1.3850863708
 31
0.0
  0
SPLINE
  5
78
330
1F
100
AcDbEntity
  8
0
  6
Continuous
 62
     7
370
    25
100
AcDbSpline
210
0.0
220
0.0
230
1.0
 70
     8
 71
     3
 72
     8
 73
     4
 74
     0
 42
0.00000001
 43
0.00000001
 40
0.0
 40
0.0
 40
0.0
 40
0.0
 40
1.0
 40
1.0
 40
1.0
 40
1.0
 10
3.099635405087125
 20
0.6232301507209183
 30
0.0
 10
3.704302261145072
 20
0.6262628981194535
 30
0.0
 10
4.308448862909171
 20
0.6304759039660958
 30
0.0
 10
4.911827207867552
 20
0.6350863708201789
 30
0.0
  0
SPLINE
  5
79
330
1F
100
AcDbEntity
  8
0
  6
Continuous
 62
     7
370
    25
100
AcDbSpline
210
0.0
220
0.0
230
1.0
 70
     8
 71
     3
 72
     8
 73
     4
 74
     0
 42
0.00000001
 43
0.00000001
 40
0.0
 40
0.0
 40
0.0
 40
0.0
 40
1.0
 40
1.0
 40
1.0
 40
1.0
 10
2.880787680051229
 20
0.622101420742382
 30
0.0
 10
2.953743936001211
 20
0.6225125866062828
 30
0.0
 10
3.026691801426394
 20
0.6228642923010682
 30
0.0
 10
3.099635405087125
 20
0.6232301507209183
 30
0.0
  0
ARC
  5
7A
330
1F
100
AcDbEntity
  8
0
  6
Continuous
 62
     7
370
    25
100
AcDbCircle
 10
3.0215715222
 20
-24.3896033391
 30
0.0
 40
25.01210097293328
100
AcDbArc
 50
90.3224984011
 51
90.4958560272
  0
SPLINE
  5
7B
330
1F
100
AcDbEntity
  8
0
  6
Continuous
 62
     7
370
    25
100
AcDbSpline
210
0.0
220
0.0
230
1.0
 70
     8
 71
     3
 72
     8
 73
     4
 74
     0
 42
0.00000001
 43
0.00000001
 40
0.0
 40
0.0
 40
0.0
 40
0.0
 40
1.0
 40
1.0
 40
1.0
 40
1.0
 10
2.618439775425122
 20
0.6240710109523454
 30
0.0
 10
2.680594923007912
 20
0.6218638605807303
 30
0.0
 10
2.74286141216034
 20
0.6210222251765305
 30
0.0
 10
2.805111491328365
 20
0.6215609707499874
 30
0.0
  0
ARC
  5
7C
330
1F
100
AcDbEntity
  8
0
  6
Continuous
 62
     7
370
    25
100
AcDbCircle
 10
2.6939695527
 20
2.7510509
 30
0.0
 40
2.128320525210223
100
AcDbArc
 50
263.5276961668
 51
267.9662619866
  0
SPLINE
  5
7D
330
1F
100
AcDbEntity
  8
0
  6
Continuous
 62
     7
370
    25
100
AcDbSpline
210
0.0
220
0.0
230
1.0
 70
     8
 71
     3
 72
     8
 73
     4
 74
     0
 42
0.00000001
 43
0.00000001
 40
0.0
 40
0.0
 40
0.0
 40
0.0
 40
1.0
 40
1.0
 40
1.0
 40
1.0
 10
1.790095931033384
 20
0.8245557473166765
 30
0.0
 10
1.99915000275182
 20
0.7262288311003926
 30
0.0
 10
2.224408662138358
 20
0.6623482056729139
 30
0.0
 10
2.454059049807423
 20
0.6362952944768536
 30
0.0
  0
SPLINE
  5
7E
330
1F
100
AcDbEntity
  8
0
  6
Continuous
 62
     7
370
    25
100
AcDbSpline
210
0.0
220
0.0
230
1.0
 70
     8
 71
     3
 72
    11
 73
     7
 74
     0
 42
0.00000001
 43
0.00000001
 40
0.0
 40
0.0
 40
0.0
 40
0.0
 40
0.25
 40
0.5
 40
0.75
 40
1.0
 40
1.0
 40
1.0
 40
1.0
 10
0.8128244902315248
 20
1.7573118398467
 30
0.0
 10
0.8662444882847071
 20
1.656186988412199
 30
0.0
 10
0.9894708296805297
 20
1.462464222905154
 30
0.0
 10
1.218692540891011
 20
1.205172848916693
 30
0.0
 10
1.486504964894511
 20
0.9878586610549897
 30
0.0
 10
1.68623629882829
 20
0.8734052342470762
 30
0.0
 10
1.790095931033384
 20
0.8245557473166765
 30
0.0
  0
SPLINE
  5
7F
330
1F
100
AcDbEntity
  8
0
  6
Continuous
 62
     7
370
    25
100
AcDbSpline
210
0.0
220
0.0
230
1.0
 70
     8
 71
     3
 72
     8
 73
     4
 74
     0
 42
0.00000001
 43
0.00000001
 40
0.0
 40
0.0
 40
0.0
 40
0.0
 40
1.0
 40
1.0
 40
1.0
 40
1.0
 10
0.6281804224995854
 20
2.244521235401983
 30
0.0
 10
0.6691781059673694
 20
2.075484429320805
 30
0.0
 10
0.7313870038371209
 20
1.911474282460765
 30
0.0
 10
0.8128244902315248
 20
1.7573118398467
 30
0.0
  0
ARC
  5
80
330
1F
100
AcDbEntity
  8
0
  6
Continuous
 62
     7
370
    25
100
AcDbCircle
 10
2.5465180384
 20
2.709789127
 30
0.0
 40
1.973953754641264
100
AcDbArc
 50
188.3847662895
 51
193.6330977908
  0
SPLINE
  5
81
330
1F
100
AcDbEntity
  8
0
  6
Continuous
 62
     7
370
    25
100
AcDbSpline
210
0.0
220
0.0
230
1.0
 70
     8
 71
     3
 72
     8
 73
     4
 74
     0
 42
0.00000001
 43
0.00000001
 40
0.0
 40
0.0
 40
0.0
 40
0.0
 40
1.0
 40
1.0
 40
1.0
 40
1.0
 10
0.5534022409981041
 20
2.86644828423373
 30
0.0
 10
0.5584596575021313
 20
2.717462563649352
 30
0.0
 10
0.5720288587065611
 20
2.568725928729661
 30
0.0
 10
0.5936636008519772
 20
2.421947195651803
 30
0.0
  0
LWPOLYLINE
  5
82
330
1F
100
AcDbEntity
  8
0
  6
Continuous
 62
     7
370
    25
100
AcDbPolyline
 90
        3
 70
   128
 43
0.0
 10
0.5453981318
 20
3.1015834115
 10
0.5498878245
 20
2.9698571803
 10
0.553402241
 20
2.8664482842
  0
SPLINE
  5
83
330
1F
100
AcDbEntity
  8
0
  6
Continuous
 62
     7
370
    25
100
AcDbSpline
210
0.0
220
0.0
230
1.0
 70
     8
 71
     3
 72
     8
 73
     4
 74
     0
 42
0.00000001
 43
0.00000001
 40
0.0
 40
0.0
 40
0.0
 40
0.0
 40
1.0
 40
1.0
 40
1.0
 40
1.0
 10
0.5402279602733981
 20
3.253842209271498
 30
0.0
 10
0.5419277882849703
 20
3.203082237939717
 30
0.0
 10
0.5436655334633553
 20
3.152329734545902
 30
0.0
 10
0.5453981317677394
 20
3.101583411458118
 30
0.0
  0
SPLINE
  5
84
330
1F
100
AcDbEntity
  8
0
  6
Continuous
 62
     7
370
    25
100
AcDbSpline
210
0.0
220
0.0
230
1.0
 70
     8
 71
     3
 72
     8
 73
     4
 74
     0
 42
0.00000001
 43
0.00000001
 40
0.0
 40
0.0
 40
0.0
 40
0.0
 40
1.0
 40
1.0
 40
1.0
 40
1.0
 10
0.4813000445887991
 20
5.086703421803167
 30
0.0
 10
0.5002837764364501
 20
4.475316663256376
 30
0.0
 10
0.5197858251342058
 20
3.864279237789725
 30
0.0
 10
0.5402279602733981
 20
3.253842209271498
 30
0.0
  0
LINE
  5
85
330
1F
100
AcDbEntity
  8
0
  6
Continuous
 62
     7
370
    25
100
AcDbLine
 10
0.4813000446
 20
5.0867034218
 30
0.0
 11
0.8313000446
 21
5.0867034218
 31
0.0
  0
LINE
  5
86
330
1F
100
AcDbEntity
  8
0
  6
Continuous
 62
     7
370
    25
100
AcDbLine
 10
0.8313000446
 20
5.0867034218
 30
0.0
 11
0.8313000446
 21
5.2117034218
 31
0.0
  0
LINE
  5
87
330
1F
100
AcDbEntity
  8
0
  6
Continuous
 62
     7
370
    25
100
AcDbLine
 10
0.8313000446
 20
5.2117034218
 30
0.0
 11
0.4774225093
 21
5.2117034218
 31
0.0
  0
SPLINE
  5
88
330
1F
100
AcDbEntity
  8
0
  6
Continuous
 62
     7
370
    25
100
AcDbSpline
210
0.0
220
0.0
230
1.0
 70
     8
 71
     3
 72
     8
 73
     4
 74
     0
 42
0.00000001
 43
0.00000001
 40
0.0
 40
0.0
 40
0.0
 40
0.0
 40
1.0
 40
1.0
 40
1.0
 40
1.0
 10
0.4578802159999549
 20
5.833669257098475
 30
0.0
 10
0.4645010979309112
 20
5.626331801502596
 30
0.0
 10
0.4709871488911423
 20
5.419012204921562
 30
0.0
 10
0.4774225093131871
 20
5.211703421803143
 30
0.0
  0
SPLINE
  5
89
330
1F
100
AcDbEntity
  8
0
  6
Continuous
 62
     7
370
    25
100
AcDbSpline
210
0.0
220
0.0
230
1.0
 70
     8
 71
     3
 72
     8
 73
     4
 74
     0
 42
0.00000001
 43
0.00000001
 40
0.0
 40
0.0
 40
0.0
 40
0.0
 40
1.0
 40
1.0
 40
1.0
 40
1.0
 10
0.4438786453321837
 20
6.240242308116827
 30
0.0
 10
0.4488905875390392
 20
6.104704314708073
 30
0.0
 10
0.4535527019437862
 20
5.969188297276255
 30
0.0
 10
0.4578802159999549
 20
5.833669257098475
 30
0.0
  0
ARC
  5
8A
330
1F
100
AcDbEntity
  8
0
  6
Continuous
 62
     7
370
    25
100
AcDbCircle
 10
-65.8144761309
 20
3.7908297475
 30
0.0
 40
66.3036139327504
100
AcDbArc
 50
2.1171235639
 51
2.2345442107
  0
SPLINE
  5
8B
330
1F
100
AcDbEntity
  8
0
  6
Continuous
 62
     7
370
    25
100
AcDbSpline
210
0.0
220
0.0
230
1.0
 70
     8
 71
     3
 72
     8
 73
     4
 74
     0
 42
0.00000001
 43
0.00000001
 40
0.0
 40
0.0
 40
0.0
 40
0.0
 40
1.0
 40
1.0
 40
1.0
 40
1.0
 10
0.4296230558846907
 20
6.903179576061007
 30
0.0
 10
0.4288240378804455
 20
6.727509946708539
 30
0.0
 10
0.4318676561552823
 20
6.551665235962622
 30
0.0
 10
0.4387198968347653
 20
6.376025416980613
 30
0.0
  0
SPLINE
  5
8C
330
1F
100
AcDbEntity
  8
0
  6
Continuous
 62
     7
370
    25
100
AcDbSpline
210
0.0
220
0.0
230
1.0
 70
     8
 71
     3
 72
     8
 73
     4
 74
     0
 42
0.00000001
 43
0.00000001
 40
0.0
 40
0.0
 40
0.0
 40
0.0
 40
1.0
 40
1.0
 40
1.0
 40
1.0
 10
0.4920116920348912
 20
7.505137021285091
 30
0.0
 10
0.4515806858153768
 20
7.307297795818435
 30
0.0
 10
0.4305417164340208
 20
7.105149905144077
 30
0.0
 10
0.4296230558846907
 20
6.903179576061005
 30
0.0
  0
ARC
  5
8D
330
1F
100
AcDbEntity
  8
0
  6
Continuous
 62
     7
370
    25
100
AcDbCircle
 10
5.3769507088
 20
6.5068365108
 30
0.0
 40
4.985903439298925
100
AcDbArc
 50
165.9274844507
 51
168.4499068002
  0
SPLINE
  5
8E
330
1F
100
AcDbEntity
  8
0
  6
Continuous
 62
     7
370
    25
100
AcDbSpline
210
0.0
220
0.0
230
1.0
 70
     8
 71
     3
 72
     8
 73
     4
 74
     0
 42
0.00000001
 43
0.00000001
 40
0.0
 40
0.0
 40
0.0
 40
0.0
 40
1.0
 40
1.0
 40
1.0
 40
1.0
 10
0.5547172630912053
 20
7.773812180422636
 30
0.0
 10
0.5499333106860397
 20
7.755621892585743
 30
0.0
 10
0.5452542091012454
 20
7.737403334449064
 30
0.0
 10
0.5406803923476998
 20
7.719157644926741
 30
0.0
  0
LINE
  5
8F
330
1F
100
AcDbEntity
  8
0
  6
Continuous
 62
     7
370
    25
100
AcDbLine
 10
0.8229119732
 20
7.5860202227
 30
0.0
 11
0.5547172631
 21
7.7738121804
 31
0.0
  0
LINE
  5
90
330
1F
100
AcDbEntity
  8
0
  6
Continuous
 62
     7
370
    25
100
AcDbLine
 10
0.8946090277
 20
7.6884142282
 30
0.0
 11
0.8229119732
 21
7.5860202227
 31
0.0
  0
LINE
  5
91
330
1F
100
AcDbEntity
  8
0
  6
Continuous
 62
     7
370
    25
100
AcDbLine
 10
0.590178095
 20
7.9015790622
 30
0.0
 11
0.8946090277
 21
7.6884142282
 31
0.0
  0
SPLINE
  5
92
330
1F
100
AcDbEntity
  8
0
  6
Continuous
 62
     7
370
    25
100
AcDbSpline
210
0.0
220
0.0
230
1.0
 70
     8
 71
     3
 72
     8
 73
     4
 74
     0
 42
0.00000001
 43
0.00000001
 40
0.0
 40
0.0
 40
0.0
 40
0.0
 40
1.0
 40
1.0
 40
1.0
 40
1.0
 10
0.7645641089652891
 20
8.397807032436813
 30
0.0
 10
0.6976326478980013
 20
8.23570802302852
 30
0.0
 10
0.6393864919562386
 20
8.069990401128358
 30
0.0
 10
0.5901780950065686
 20
7.901579062199528
 30
0.0
  0
SPLINE
  5
93
330
1F
100
AcDbEntity
  8
0
  6
Continuous
 62
     7
370
    25
100
AcDbSpline
210
0.0
220
0.0
230
1.0
 70
     8
 71
     3
 72
     8
 73
     4
 74
     0
 42
0.00000001
 43
0.00000001
 40
0.0
 40
0.0
 40
0.0
 40
0.0
 40
1.0
 40
1.0
 40
1.0
 40
1.0
 10
1.216018049422686
 20
9.239818031084125
 30
0.0
 10
1.037650682623724
 20
8.975183835036034
 30
0.0
 10
0.8863058820304186
 20
8.692649262343147
 30
0.0
 10
0.7645641089652848
 20
8.397807032436804
 30
0.0
  0
SPLINE
  5
94
330
1F
100
AcDbEntity
  8
0
  6
Continuous
 62
     7
370
    25
100
AcDbSpline
210
0.0
220
0.0
230
1.0
 70
     8
 71
     3
 72
     8
 73
     4
 74
     0
 42
0.00000001
 43
0.00000001
 40
0.0
 40
0.0
 40
0.0
 40
0.0
 40
1.0
 40
1.0
 40
1.0
 40
1.0
 10
1.297129990533848
 20
9.364395567046769
 30
0.0
 10
1.270839878287371
 20
9.32256976882773
 30
0.0
 10
1.243783234368965
 20
9.281011764850293
 30
0.0
 10
1.21601804942269
 20
9.239818031084134
 30
0.0
  0
ARC
  5
95
330
1F
100
AcDbEntity
  8
0
  6
Continuous
 62
     7
370
    25
100
AcDbCircle
 10
4.731416048
 20
7.2059876013
 30
0.0
 40
4.056235406279529
100
AcDbArc
 50
146.8474461393
 51
147.8511266709
  0
SPLINE
  5
96
330
1F
100
AcDbEntity
  8
0
  6
Continuous
 62
     7
370
    25
100
AcDbSpline
210
0.0
220
0.0
230
1.0
 70
     8
 71
     3
 72
     8
 73
     4
 74
     0
 42
0.00000001
 43
0.00000001
 40
0.0
 40
0.0
 40
0.0
 40
0.0
 40
1.0
 40
1.0
 40
1.0
 40
1.0
 10
2.23520739566454
 20
10.4060134782479
 30
0.0
 10
1.883024151235466
 20
10.12937210255095
 30
0.0
 10
1.578508772146063
 20
9.796260303486989
 30
0.0
 10
1.335464948571957
 20
9.424221538783213
 30
0.0
  0
SPLINE
  5
97
330
1F
100
AcDbEntity
  8
0
  6
Continuous
 62
     7
370
    25
100
AcDbSpline
210
0.0
220
0.0
230
1.0
 70
     8
 71
     3
 72
     8
 73
     4
 74
     0
 42
0.00000001
 43
0.00000001
 40
0.0
 40
0.0
 40
0.0
 40
0.0
 40
1.0
 40
1.0
 40
1.0
 40
1.0
 10
2.253292474227044
 20
10.42015222907683
 30
0.0
 10
2.247250780044749
 20
10.41545577517955
 30
0.0
 10
2.241224607508517
 20
10.41074000577098
 30
0.0
 10
2.235207395664541
 20
10.4060134782479
 30
0.0
  0
SPLINE
  5
98
330
1F
100
AcDbEntity
  8
0
  6
Continuous
 62
     7
370
    25
100
AcDbSpline
210
0.0
220
0.0
230
1.0
 70
     8
 71
     3
 72
     8
 73
     4
 74
     0
 42
0.00000001
 43
0.00000001
 40
0.0
 40
0.0
 40
0.0
 40
0.0
 40
1.0
 40
1.0
 40
1.0
 40
1.0
 10
3.058974226960499
 20
10.91999528671633
 30
0.0
 10
2.773457771031612
 20
10.78199098871123
 30
0.0
 10
2.502835048867354
 20
10.61413223309631
 30
0.0
 10
2.253292474227044
 20
10.42015222907683
 30
0.0
  0
SPLINE
  5
99
330
1F
100
AcDbEntity
  8
0
  6
Continuous
 62
     7
370
    25
100
AcDbSpline
210
0.0
220
0.0
230
1.0
 70
     8
 71
     3
 72
     9
 73
     5
 74
     0
 42
0.00000001
 43
0.00000001
 40
0.0
 40
0.0
 40
0.0
 40
0.0
 40
0.5
 40
1.0
 40
1.0
 40
1.0
 40
1.0
 10
4.974327207867556
 20
11.37229447691126
 30
0.0
 10
4.643389196998196
 20
11.36773995592854
 30
0.0
 10
3.982570503157076
 20
11.28605825026566
 30
0.0
 10
3.356051097464659
 20
11.06358766412612
 30
0.0
 10
3.058974226960499
 20
10.91999528671633
 30
0.0
  0
LINE
  5
9A
330
1F
100
AcDbEntity
  8
0
  6
Continuous
 62
     7
370
    25
100
AcDbLine
 10
4.9743272079
 20
11.3722944769
 30
0.0
 11
4.9743272079
 21
10.7722944769
 31
0.0
  0
LINE
  5
9B
330
1F
100
AcDbEntity
  8
0
  6
Continuous
 62
     7
370
    25
100
AcDbLine
 10
4.9743272079
 20
10.7722944769
 30
0.0
 11
5.0993272079
 21
10.7722944769
 31
0.0
  0
LINE
  5
9C
330
1F
100
AcDbEntity
  8
0
  6
Continuous
 62
     7
370
    25
100
AcDbLine
 10
5.0993272079
 20
10.7722944769
 30
0.0
 11
5.0993272079
 21
11.3722944769
 31
0.0
  0
SPLINE
  5
9D
330
1F
100
AcDbEntity
  8
0
  6
Continuous
 62
     7
370
    25
100
AcDbSpline
210
0.0
220
0.0
230
1.0
 70
     8
 71
     3
 72
     9
 73
     5
 74
     0
 42
0.00000001
 43
0.00000001
 40
0.0
 40
0.0
 40
0.0
 40
0.0
 40
0.5
 40
1.0
 40
1.0
 40
1.0
 40
1.0
 10
5.099327207867562
 20
11.37229447691126
 30
0.0
 10
5.430265218736923
 20
11.36773995592854
 30
0.0
 10
6.091083912578044
 20
11.28605825026565
 30
0.0
 10
6.717603318270461
 20
11.06358766412612
 30
0.0
 10
7.014680188774621
 20
10.91999528671633
 30
0.0
  0
SPLINE
  5
9E
330
1F
100
AcDbEntity
  8
0
  6
Continuous
 62
     7
370
    25
100
AcDbSpline
210
0.0
220
0.0
230
1.0
 70
     8
 71
     3
 72
     8
 73
     4
 74
     0
 42
0.00000001
 43
0.00000001
 40
0.0
 40
0.0
 40
0.0
 40
0.0
 40
1.0
 40
1.0
 40
1.0
 40
1.0
 10
7.014680188774621
 20
10.91999528671633
 30
0.0
 10
7.300196644703507
 20
10.78199098871123
 30
0.0
 10
7.570819366867766
 20
10.61413223309631
 30
0.0
 10
7.820361941508076
 20
10.42015222907683
 30
0.0
  0
SPLINE
  5
9F
330
1F
100
AcDbEntity
  8
0
  6
Continuous
 62
     7
370
    25
100
AcDbSpline
210
0.0
220
0.0
230
1.0
 70
     8
 71
     3
 72
     8
 73
     4
 74
     0
 42
0.00000001
 43
0.00000001
 40
0.0
 40
0.0
 40
0.0
 40
0.0
 40
1.0
 40
1.0
 40
1.0
 40
1.0
 10
7.820361941508076
 20
10.42015222907683
 30
0.0
 10
7.826403635690372
 20
10.41545577517955
 30
0.0
 10
7.832429808226603
 20
10.41074000577098
 30
0.0
 10
7.83844702007058
 20
10.4060134782479
 30
0.0
  0
SPLINE
  5
A0
330
1F
100
AcDbEntity
  8
0
  6
Continuous
 62
     7
370
    25
100
AcDbSpline
210
0.0
220
0.0
230
1.0
 70
     8
 71
     3
 72
     8
 73
     4
 74
     0
 42
0.00000001
 43
0.00000001
 40
0.0
 40
0.0
 40
0.0
 40
0.0
 40
1.0
 40
1.0
 40
1.0
 40
1.0
 10
7.83844702007058
 20
10.4060134782479
 30
0.0
 10
8.190630264499655
 20
10.12937210255095
 30
0.0
 10
8.495145643589057
 20
9.796260303486989
 30
0.0
 10
8.738189467163165
 20
9.424221538783213
 30
0.0
  0
ARC
  5
A1
330
1F
100
AcDbEntity
  8
0
  6
Continuous
 62
     7
370
    25
100
AcDbCircle
 10
5.3422383677
 20
7.2059876013
 30
0.0
 40
4.05623540627953
100
AcDbArc
 50
32.1488733291
 51
33.1525538607
  0
SPLINE
  5
A2
330
1F
100
AcDbEntity
  8
0
  6
Continuous
 62
     7
370
    25
100
AcDbSpline
210
0.0
220
0.0
230
1.0
 70
     8
 71
     3
 72
     8
 73
     4
 74
     0
 42
0.00000001
 43
0.00000001
 40
0.0
 40
0.0
 40
0.0
 40
0.0
 40
1.0
 40
1.0
 40
1.0
 40
1.0
 10
8.776524425201277
 20
9.364395567046762
 30
0.0
 10
8.802814537447754
 20
9.322569768827721
 30
0.0
 10
8.82987118136616
 20
9.281011764850284
 30
0.0
 10
8.857636366312434
 20
9.239818031084125
 30
0.0
  0
SPLINE
  5
A3
330
1F
100
AcDbEntity
  8
0
  6
Continuous
 62
     7
370
    25
100
AcDbSpline
210
0.0
220
0.0
230
1.0
 70
     8
 71
     3
 72
     8
 73
     4
 74
     0
 42
0.00000001
 43
0.00000001
 40
0.0
 40
0.0
 40
0.0
 40
0.0
 40
1.0
 40
1.0
 40
1.0
 40
1.0
 10
8.857636366312434
 20
9.239818031084125
 30
0.0
 10
9.036003733111396
 20
8.975183835036034
 30
0.0
 10
9.187348533704702
 20
8.692649262343147
 30
0.0
 10
9.309090306769836
 20
8.397807032436804
 30
0.0
  0
SPLINE
  5
A4
330
1F
100
AcDbEntity
  8
0
  6
Continuous
 62
     7
370
    25
100
AcDbSpline
210
0.0
220
0.0
230
1.0
 70
     8
 71
     3
 72
     8
 73
     4
 74
     0
 42
0.00000001
 43
0.00000001
 40
0.0
 40
0.0
 40
0.0
 40
0.0
 40
1.0
 40
1.0
 40
1.0
 40
1.0
 10
9.309090306769832
 20
8.397807032436813
 30
0.0
 10
9.37602176783712
 20
8.23570802302852
 30
0.0
 10
9.434267923778883
 20
8.069990401128358
 30
0.0
 10
9.483476320728553
 20
7.901579062199528
 30
0.0
  0
LINE
  5
A5
330
1F
100
AcDbEntity
  8
0
  6
Continuous
 62
     7
370
    25
100
AcDbLine
 10
9.4834763207
 20
7.9015790622
 30
0.0
 11
9.179045388
 21
7.6884142282
 31
0.0
  0
LINE
  5
A6
330
1F
100
AcDbEntity
  8
0
  6
Continuous
 62
     7
370
    25
100
AcDbLine
 10
9.179045388
 20
7.6884142282
 30
0.0
 11
9.2507424426
 21
7.5860202227
 31
0.0
  0
LINE
  5
A7
330
1F
100
AcDbEntity
  8
0
  6
Continuous
 62
     7
370
    25
100
AcDbLine
 10
9.2507424426
 20
7.5860202227
 30
0.0
 11
9.5189371526
 21
7.7738121804
 31
0.0
  0
SPLINE
  5
A8
330
1F
100
AcDbEntity
  8
0
  6
Continuous
 62
     7
370
    25
100
AcDbSpline
210
0.0
220
0.0
230
1.0
 70
     8
 71
     3
 72
     8
 73
     4
 74
     0
 42
0.00000001
 43
0.00000001
 40
0.0
 40
0.0
 40
0.0
 40
0.0
 40
1.0
 40
1.0
 40
1.0
 40
1.0
 10
9.518937152643923
 20
7.773812180422609
 30
0.0
 10
9.523721105049088
 20
7.755621892585725
 30
0.0
 10
9.528400206633878
 20
7.737403334449056
 30
0.0
 10
9.532974023387421
 20
7.719157644926741
 30
0.0
  0
ARC
  5
A9
330
1F
100
AcDbEntity
  8
0
  6
Continuous
 62
     7
370
    25
100
AcDbCircle
 10
4.696703707
 20
6.5068365108
 30
0.0
 40
4.985903439298925
100
AcDbArc
 50
11.5500931998
 51
14.0725155493
  0
SPLINE
  5
AA
330
1F
100
AcDbEntity
  8
0
  6
Continuous
 62
     7
370
    25
100
AcDbSpline
210
0.0
220
0.0
230
1.0
 70
     8
 71
     3
 72
     8
 73
     4
 74
     0
 42
0.00000001
 43
0.00000001
 40
0.0
 40
0.0
 40
0.0
 40
0.0
 40
1.0
 40
1.0
 40
1.0
 40
1.0
 10
9.581642723700229
 20
7.505137021285091
 30
0.0
 10
9.622073729919743
 20
7.307297795818435
 30
0.0
 10
9.6431126993011
 20
7.105149905144077
 30
0.0
 10
9.64403135985043
 20
6.903179576061005
 30
0.0
  0
SPLINE
  5
AB
330
1F
100
AcDbEntity
  8
0
  6
Continuous
 62
     7
370
    25
100
AcDbSpline
210
0.0
220
0.0
230
1.0
 70
     8
 71
     3
 72
     8
 73
     4
 74
     0
 42
0.00000001
 43
0.00000001
 40
0.0
 40
0.0
 40
0.0
 40
0.0
 40
1.0
 40
1.0
 40
1.0
 40
1.0
 10
9.64403135985043
 20
6.903179576061007
 30
0.0
 10
9.644830377854674
 20
6.727509946708539
 30
0.0
 10
9.641786759579837
 20
6.551665235962622
 30
0.0
 10
9.634934518900355
 20
6.376025416980613
 30
0.0
  0
ARC
  5
AC
330
1F
100
AcDbEntity
  8
0
  6
Continuous
 62
     7
370
    25
100
AcDbCircle
 10
75.8881305467
 20
3.7908297475
 30
0.0
 40
66.30361393275041
100
AcDbArc
 50
177.7654557893
 51
177.8828764361
  0
SPLINE
  5
AD
330
1F
100
AcDbEntity
  8
0
  6
Continuous
 62
     7
370
    25
100
AcDbSpline
210
0.0
220
0.0
230
1.0
 70
     8
 71
     3
 72
     8
 73
     4
 74
     0
 42
0.00000001
 43
0.00000001
 40
0.0
 40
0.0
 40
0.0
 40
0.0
 40
1.0
 40
1.0
 40
1.0
 40
1.0
 10
9.629775770402937
 20
6.240242308116827
 30
0.0
 10
9.62476382819608
 20
6.104704314708073
 30
0.0
 10
9.620101713791334
 20
5.969188297276255
 30
0.0
 10
9.615774199735165
 20
5.833669257098475
 30
0.0
  0
SPLINE
  5
AE
330
1F
100
AcDbEntity
  8
0
  6
Continuous
 62
     7
370
    25
100
AcDbSpline
210
0.0
220
0.0
230
1.0
 70
     8
 71
     3
 72
     8
 73
     4
 74
     0
 42
0.00000001
 43
0.00000001
 40
0.0
 40
0.0
 40
0.0
 40
0.0
 40
1.0
 40
1.0
 40
1.0
 40
1.0
 10
9.615774199735165
 20
5.833669257098475
 30
0.0
 10
9.609153317804209
 20
5.626331801502596
 30
0.0
 10
9.602667266843978
 20
5.419012204921563
 30
0.0
 10
9.596231906421933
 20
5.211703421803144
 30
0.0
  0
LINE
  5
AF
330
1F
100
AcDbEntity
  8
0
  6
Continuous
 62
     7
370
    25
100
AcDbLine
 10
9.2423543711
 20
5.2117034218
 30
0.0
 11
9.5962319064
 21
5.2117034218
 31
0.0
  0
LINE
  5
B0
330
1F
100
AcDbEntity
  8
0
  6
Continuous
 62
     7
370
    25
100
AcDbLine
 10
9.2423543711
 20
5.0867034218
 30
0.0
 11
9.2423543711
 21
5.2117034218
 31
0.0
  0
LINE
  5
B1
330
1F
100
AcDbEntity
  8
0
  6
Continuous
 62
     7
370
    25
100
AcDbLine
 10
9.5923543711
 20
5.0867034218
 30
0.0
 11
9.2423543711
 21
5.0867034218
 31
0.0
  0
SPLINE
  5
B2
330
1F
100
AcDbEntity
  8
0
  6
Continuous
 62
     7
370
    25
100
AcDbSpline
210
0.0
220
0.0
230
1.0
 70
     8
 71
     3
 72
     8
 73
     4
 74
     0
 42
0.00000001
 43
0.00000001
 40
0.0
 40
0.0
 40
0.0
 40
0.0
 40
1.0
 40
1.0
 40
1.0
 40
1.0
 10
9.592354371146321
 20
5.086703421803159
 30
0.0
 10
9.57337063929867
 20
4.475316663256371
 30
0.0
 10
9.553868590600915
 20
3.864279237789723
 30
0.0
 10
9.533426455461722
 20
3.253842209271498
 30
0.0
  0
LINE
  5
B3
330
1F
100
AcDbEntity
  8
0
  6
Continuous
 62
     7
370
    25
100
AcDbLine
 10
8.6618272079
 20
1.8367034218
 30
0.0
 11
8.6618272079
 21
3.5867034218
 31
0.0
  0
LINE
  5
B4
330
1F
100
AcDbEntity
  8
0
  6
Continuous
 62
     7
370
    25
100
AcDbLine
 10
8.6618272079
 20
3.5867034218
 30
0.0
 11
8.4118272079
 21
3.5867034218
 31
0.0
  0
LINE
  5
B5
330
1F
100
AcDbEntity
  8
0
  6
Continuous
 62
     7
370
    25
100
AcDbLine
 10
8.4118272079
 20
3.5867034218
 30
0.0
 11
8.4118272079
 21
1.8367034218
 31
0.0
  0
LINE
  5
B6
330
1F
100
AcDbEntity
  8
0
  6
Continuous
 62
     7
370
    25
100
AcDbLine
 10
8.4118272079
 20
1.8367034218
 30
0.0
 11
8.6618272079
 21
1.8367034218
 31
0.0
  0
CIRCLE
  5
B7
330
1F
100
AcDbEntity
  8
0
  6
Continuous
 62
     7
370
    25
100
AcDbCircle
 10
5.0368272079
 20
2.7117034218
 30
0.0
 40
0.5
  0
LINE
  5
B8
330
1F
100
AcDbEntity
  8
0
  6
Continuous
 62
     7
370
    25
100
AcDbLine
 10
1.6618272079
 20
3.5867034218
 30
0.0
 11
1.6618272079
 21
1.8367034218
 31
0.0
  0
LINE
  5
B9
330
1F
100
AcDbEntity
  8
0
  6
Continuous
 62
     7
370
    25
100
AcDbLine
 10
1.4118272079
 20
3.5867034218
 30
0.0
 11
1.6618272079
 21
3.5867034218
 31
0.0
  0
LINE
  5
BA
330
1F
100
AcDbEntity
  8
0
  6
Continuous
 62
     7
370
    25
100
AcDbLine
 10
1.4118272079
 20
1.8367034218
 30
0.0
 11
1.4118272079
 21
3.5867034218
 31
0.0
  0
LINE
  5
BB
330
1F
100
AcDbEntity
  8
0
  6
Continuous
 62
     7
370
    25
100
AcDbLine
 10
1.6618272079
 20
1.8367034218
 30
0.0
 11
1.4118272079
 21
1.8367034218
 31
0.0
  0
ARC
  5
BC
330
1F
100
AcDbEntity
  8
0
  6
Continuous
 62
     7
370
    25
100
AcDbCircle
 10
4.3368272079
 20
3.5867034218
 30
0.0
 40
0.2000000000000002
100
AcDbArc
 50
0.0
 51
90.0
  0
LINE
  5
BD
330
1F
100
AcDbEntity
  8
0
  6
Continuous
 62
     7
370
    25
100
AcDbLine
 10
4.3368272079
 20
3.7867034218
 30
0.0
 11
2.1618272079
 21
3.7867034218
 31
0.0
  0
ARC
  5
BE
330
1F
100
AcDbEntity
  8
0
  6
Continuous
 62
     7
370
    25
100
AcDbCircle
 10
2.1618272079
 20
3.5867034218
 30
0.0
 40
0.2000000000000002
100
AcDbArc
 50
90.0
 51
180.0
  0
LINE
  5
BF
330
1F
100
AcDbEntity
  8
0
  6
Continuous
 62
     7
370
    25
100
AcDbLine
 10
1.9618272079
 20
3.5867034218
 30
0.0
 11
1.9618272079
 21
1.4258185364
 31
0.0
  0
ARC
  5
C0
330
1F
100
AcDbEntity
  8
0
  6
Continuous
 62
     7
370
    25
100
AcDbCircle
 10
2.1618272079
 20
1.4258185364
 30
0.0
 40
0.2000000000000055
100
AcDbArc
 50
180.0
 51
248.0798736683
  0
SPLINE
  5
C1
330
1F
100
AcDbEntity
  8
0
  6
Continuous
 62
     7
370
    25
100
AcDbSpline
210
0.0
220
0.0
230
1.0
 70
     8
 71
     3
 72
    12
 73
     8
 74
     0
 42
0.00000001
 43
0.00000001
 40
0.1735518832836102
 40
0.1735518832836102
 40
0.1735518832836102
 40
0.1735518832836102
 40
0.6735518832836083
 40
0.6735518832836083
 40
0.9235518832836093
 40
0.9235518832836093
 40
1.0
 40
1.0
 40
1.0
 40
1.0
 10
2.510420509085639
 20
1.133108524884449
 30
0.0
 10
2.42257700483739
 20
1.143074016510912
 30
0.0
 10
2.335692037266131
 20
1.160271732132095
 30
0.0
 10
2.208232096978413
 20
1.196416304059244
 30
0.0
 10
2.166198689293226
 20
1.210203229702685
 30
0.0
 10
2.112249353618949
 20
1.230364982680218
 30
0.0
 10
2.099676290401046
 20
1.235242676122922
 30
0.0
 10
2.087164471072144
 20
1.240277501252965
 30
0.0
  0
ARC
  5
C2
330
1F
100
AcDbEntity
  8
0
  6
Continuous
 62
     7
370
    25
100
AcDbCircle
 10
2.6939695527
 20
2.7510509
 30
0.0
 40
1.628320532540933
100
AcDbArc
 50
263.5276961668
 51
267.9662619866
  0
SPLINE
  5
C3
330
1F
100
AcDbEntity
  8
0
  6
Continuous
 62
     7
370
    25
100
AcDbSpline
210
0.0
220
0.0
230
1.0
 70
     8
 71
     3
 72
     8
 73
     4
 74
     0
 42
0.00000001
 43
0.00000001
 40
0.0
 40
0.0
 40
0.0
 40
0.0
 40
1.0
 40
1.0
 40
1.0
 40
1.0
 10
2.800784385198546
 20
1.121542246551933
 30
0.0
 10
2.745909149292398
 20
1.121067326827622
 30
0.0
 10
2.691026476926662
 20
1.12180856462185
 30
0.0
 10
2.636183760570015
 20
1.123756048080491
 30
0.0
  0
ARC
  5
C4
330
1F
100
AcDbEntity
  8
0
  6
Continuous
 62
     7
370
    25
100
AcDbCircle
 10
3.0215715222
 20
-24.3896033391
 30
0.0
 40
25.51210097292716
100
AcDbArc
 50
90.3225063375
 51
90.4958560272
  0
SPLINE
  5
C5
330
1F
100
AcDbEntity
  8
0
  6
Continuous
 62
     7
370
    25
100
AcDbSpline
210
0.0
220
0.0
230
1.0
 70
     8
 71
     3
 72
     8
 73
     4
 74
     0
 42
0.00000001
 43
0.00000001
 40
0.0
 40
0.0
 40
0.0
 40
0.0
 40
0.0055666818498287
 40
0.0055666818498287
 40
0.0055666818498287
 40
0.0055666818498287
 10
3.097127619622039
 20
1.123223861693427
 30
0.0
 10
3.024074968894618
 20
1.122857456333401
 30
0.0
 10
2.951022239121664
 20
1.122505188163045
 30
0.0
 10
2.877969831677845
 20
1.122093480409877
 30
0.0
  0
SPLINE
  5
C6
330
1F
100
AcDbEntity
  8
0
  6
Continuous
 62
     7
370
    25
100
AcDbSpline
210
0.0
220
0.0
230
1.0
 70
     8
 71
     3
 72
     8
 73
     4
 74
     0
 42
0.00000001
 43
0.00000001
 40
0.0
 40
0.0
 40
0.0
 40
0.0
 40
0.6398487144406997
 40
0.6398487144406997
 40
0.6398487144406997
 40
0.6398487144406997
 10
4.338245655310624
 20
1.130863174373967
 30
0.0
 10
3.924542065582461
 20
1.127929017295623
 30
0.0
 10
3.51083641387225
 20
1.12529884605373
 30
0.0
 10
3.097127619622039
 20
1.123223861693427
 30
0.0
  0
ARC
  5
C7
330
1F
100
AcDbEntity
  8
0
  6
Continuous
 62
     7
370
    25
100
AcDbCircle
 10
4.3368272079
 20
1.3308581443
 30
0.0
 40
0.200000000000002
100
AcDbArc
 50
270.4063585679
 51
0.0
  0
LINE
  5
C8
330
1F
100
AcDbEntity
  8
0
  6
Continuous
 62
     7
370
    25
100
AcDbLine
 10
4.5368272079
 20
1.3308581443
 30
0.0
 11
4.5368272079
 21
1.9975605789
 31
0.0
  0
ARC
  5
C9
330
1F
100
AcDbEntity
  8
0
  6
Continuous
 62
     7
370
    25
100
AcDbCircle
 10
4.3368272079
 20
1.9975605789
 30
0.0
 40
0.2000000000000003
100
AcDbArc
 50
0.0
 51
45.5729959992
  0
ARC
  5
CA
330
1F
100
AcDbEntity
  8
0
  6
Continuous
 62
     7
370
    25
100
AcDbCircle
 10
5.0368272079
 20
2.7117034218
 30
0.0
 40
0.7999999999999998
100
AcDbArc
 50
134.4270040008
 51
225.5729959992
  0
ARC
  5
CB
330
1F
100
AcDbEntity
  8
0
  6
Continuous
 62
     7
370
    25
100
AcDbCircle
 10
4.3368272079
 20
3.4258462647
 30
0.0
 40
0.2000000000000003
100
AcDbArc
 50
314.4270040008
 51
0.0
  0
LINE
  5
CC
330
1F
100
AcDbEntity
  8
0
  6
Continuous
 62
     7
370
    25
100
AcDbLine
 10
4.5368272079
 20
3.4258462647
 30
0.0
 11
4.5368272079
 21
3.5867034218
 31
0.0
  0
SPLINE
  5
CD
330
1F
100
AcDbEntity
  8
0
  6
Continuous
 62
     7
370
    25
100
AcDbSpline
210
0.0
220
0.0
230
1.0
 70
     8
 71
     3
 72
     8
 73
     4
 74
     0
 42
0.00000001
 43
0.00000001
 40
0.0
 40
0.0
 40
0.0
 40
0.0
 40
0.0055665930892062
 40
0.0055665930892062
 40
0.0055665930892062
 40
0.0055665930892062
 10
7.195681050289251
 20
1.122093500325393
 30
0.0
 10
7.122629809653233
 20
1.12250519958881
 30
0.0
 10
7.049578246716822
 20
1.122857462352799
 30
0.0
 10
6.976526762828474
 20
1.12322386186037
 30
0.0
  0
ARC
  5
CE
330
1F
100
AcDbEntity
  8
0
  6
Continuous
 62
     7
370
    25
100
AcDbCircle
 10
7.0520828935
 20
-24.3896033391
 30
0.0
 40
25.51210097293329
100
AcDbArc
 50
89.5041439728
 51
89.6775015989
  0
SPLINE
  5
CF
330
1F
100
AcDbEntity
  8
0
  6
Continuous
 62
     7
370
    25
100
AcDbSpline
210
0.0
220
0.0
230
1.0
 70
     8
 71
     3
 72
     8
 73
     4
 74
     0
 42
0.00000001
 43
0.00000001
 40
0.0
 40
0.0
 40
0.0
 40
0.0
 40
1.0
 40
1.0
 40
1.0
 40
1.0
 10
7.437470654644802
 20
1.123756062732678
 30
0.0
 10
7.382627939026871
 20
1.121808579300268
 30
0.0
 10
7.327745265547572
 20
1.12106732687988
 30
0.0
 10
7.272870030536992
 20
1.12154224659644
 30
0.0
  0
ARC
  5
D0
330
1F
100
AcDbEntity
  8
0
  6
Continuous
 62
     7
370
    25
100
AcDbCircle
 10
7.379684863
 20
2.7510509
 30
0.0
 40
1.628320517879512
100
AcDbArc
 50
272.0337380134
 51
276.4723038332
  0
SPLINE
  5
D1
330
1F
100
AcDbEntity
  8
0
  6
Continuous
 62
     7
370
    25
100
AcDbSpline
210
0.0
220
0.0
230
1.0
 70
     8
 71
     3
 72
    12
 73
     8
 74
     0
 42
0.00000001
 43
0.00000001
 40
0.0
 40
0.0
 40
0.0
 40
0.0
 40
0.3266256371641062
 40
0.3266256371641062
 40
0.5766256371641054
 40
0.5766256371641054
 40
0.8266256371641046
 40
0.8266256371641046
 40
0.8266256371641046
 40
0.8266256371641046
 10
7.986497996374998
 20
1.240279006707948
 30
0.0
 10
7.932965305476353
 20
1.218734457133348
 30
0.0
 10
7.878306761340029
 20
1.200064805295002
 30
0.0
 10
7.780313184706827
 20
1.1722854058493
 30
0.0
 10
7.737296116628757
 20
1.161958047661662
 30
0.0
 10
7.650750086662372
 20
1.144871380373679
 30
0.0
 10
7.60715575768213
 20
1.138091296673918
 30
0.0
 10
7.563233904996802
 20
1.133108539452423
 30
0.0
  0
ARC
  5
D2
330
1F
100
AcDbEntity
  8
0
  6
Continuous
 62
     7
370
    25
100
AcDbCircle
 10
7.9118272079
 20
1.4258168016
 30
0.0
 40
0.2000000000000028
100
AcDbArc
 50
291.9226128065
 51
0.0
  0
LINE
  5
D3
330
1F
100
AcDbEntity
  8
0
  6
Continuous
 62
     7
370
    25
100
AcDbLine
 10
8.1118272079
 20
3.5867034218
 30
0.0
 11
8.1118272079
 21
1.4258168016
 31
0.0
  0
ARC
  5
D4
330
1F
100
AcDbEntity
  8
0
  6
Continuous
 62
     7
370
    25
100
AcDbCircle
 10
7.9118272079
 20
3.5867034218
 30
0.0
 40
0.2000000000000002
100
AcDbArc
 50
0.0
 51
90.0
  0
LINE
  5
D5
330
1F
100
AcDbEntity
  8
0
  6
Continuous
 62
     7
370
    25
100
AcDbLine
 10
5.7368272079
 20
3.7867034218
 30
0.0
 11
7.9118272079
 21
3.7867034218
 31
0.0
  0
ARC
  5
D6
330
1F
100
AcDbEntity
  8
0
  6
Continuous
 62
     7
370
    25
100
AcDbCircle
 10
5.7368272079
 20
3.5867034218
 30
0.0
 40
0.1999999999999997
100
AcDbArc
 50
90.0
 51
180.0
  0
LINE
  5
D7
330
1F
100
AcDbEntity
  8
0
  6
Continuous
 62
     7
370
    25
100
AcDbLine
 10
5.5368272079
 20
3.4258462647
 30
0.0
 11
5.5368272079
 21
3.5867034218
 31
0.0
  0
ARC
  5
D8
330
1F
100
AcDbEntity
  8
0
  6
Continuous
 62
     7
370
    25
100
AcDbCircle
 10
5.7368272079
 20
3.4258462647
 30
0.0
 40
0.1999999999999997
100
AcDbArc
 50
180.0
 51
225.5729959992
  0
ARC
  5
D9
330
1F
100
AcDbEntity
  8
0
  6
Continuous
 62
     7
370
    25
100
AcDbCircle
 10
5.0368272079
 20
2.7117034218
 30
0.0
 40
0.7999999999999998
100
AcDbArc
 50
314.4270040008
 51
45.5729959992
  0
ARC
  5
DA
330
1F
100
AcDbEntity
  8
0
  6
Continuous
 62
     7
370
    25
100
AcDbCircle
 10
5.7368272079
 20
1.9975605789
 30
0.0
 40
0.2000000000000002
100
AcDbArc
 50
134.4270040008
 51
180.0
  0
LINE
  5
DB
330
1F
100
AcDbEntity
  8
0
  6
Continuous
 62
     7
370
    25
100
AcDbLine
 10
5.5368272079
 20
1.3308573455
 30
0.0
 11
5.5368272079
 21
1.9975605789
 31
0.0
  0
ARC
  5
DC
330
1F
100
AcDbEntity
  8
0
  6
Continuous
 62
     7
370
    25
100
AcDbCircle
 10
5.7368272079
 20
1.3308573455
 30
0.0
 40
0.2000000000000002
100
AcDbArc
 50
180.0
 51
269.5936455037
  0
SPLINE
  5
DD
330
1F
100
AcDbEntity
  8
0
  6
Continuous
 62
     7
370
    25
100
AcDbSpline
210
0.0
220
0.0
230
1.0
 70
     8
 71
     3
 72
     8
 73
     4
 74
     0
 42
0.00000001
 43
0.00000001
 40
0.017744463285941
 40
0.017744463285941
 40
0.017744463285941
 40
0.017744463285941
 40
0.0492694635953788
 40
0.0492694635953788
 40
0.0492694635953788
 40
0.0492694635953788
 10
6.976526762828474
 20
1.12322386186037
 30
0.0
 10
6.562818077421488
 20
1.125298845674762
 30
0.0
 10
6.149112319275975
 20
1.127928248099856
 30
0.0
 10
5.73540877462449
 20
1.130862375458586
 30
0.0
  0
ARC
  5
DE
330
1F
100
AcDbEntity
  8
0
  6
Continuous
 62
     7
370
    25
100
AcDbCircle
 10
8.7338798444
 20
7.9443353344
 30
0.0
 40
0.1999999999999999
100
AcDbArc
 50
350.0
 51
19.7160799808
  0
SPLINE
  5
DF
330
1F
100
AcDbEntity
  8
0
  6
Continuous
 62
     7
370
    25
100
AcDbSpline
210
0.0
220
0.0
230
1.0
 70
     8
 71
     3
 72
     8
 73
     4
 74
     0
 42
0.00000001
 43
0.00000001
 40
0.6743211882505734
 40
0.6743211882505734
 40
0.6743211882505734
 40
0.6743211882505734
 40
1.0
 40
1.0
 40
1.0
 40
1.0
 10
8.846936984656418
 20
8.206981701677147
 30
0.0
 10
8.873553167864126
 20
8.142520880661127
 30
0.0
 10
8.898633971909396
 20
8.077440934836131
 30
0.0
 10
8.922155024674376
 20
8.011807228374966
 30
0.0
  0
SPLINE
  5
E0
330
1F
100
AcDbEntity
  8
0
  6
Continuous
 62
     7
370
    25
100
AcDbSpline
210
0.0
220
0.0
230
1.0
 70
     8
 71
     3
 72
     8
 73
     4
 74
     0
 42
0.00000001
 43
0.00000001
 40
0.0
 40
0.0
 40
0.0
 40
0.0
 40
1.0
 40
1.0
 40
1.0
 40
1.0
 10
8.443022707341374
 20
8.960362285402221
 30
0.0
 10
8.602610499716757
 20
8.723590347282233
 30
0.0
 10
8.737963542548988
 20
8.47090074821778
 30
0.0
 10
8.846936984656418
 20
8.206981701677147
 30
0.0
  0
SPLINE
  5
E1
330
1F
100
AcDbEntity
  8
0
  6
Continuous
 62
     7
370
    25
100
AcDbSpline
210
0.0
220
0.0
230
1.0
 70
     8
 71
     3
 72
     8
 73
     4
 74
     0
 42
0.00000001
 43
0.00000001
 40
0.0
 40
0.0
 40
0.0
 40
0.0
 40
1.0
 40
1.0
 40
1.0
 40
1.0
 10
8.353190259616248
 20
9.098335075894994
 30
0.0
 10
8.382397161842425
 20
9.051868861233661
 30
0.0
 10
8.412347929350377
 20
9.005872828203964
 30
0.0
 10
8.443022707341374
 20
8.960362285402221
 30
0.0
  0
ARC
  5
E2
330
1F
100
AcDbEntity
  8
0
  6
Continuous
 62
     7
370
    25
100
AcDbCircle
 10
5.3422383677
 20
7.2059876013
 30
0.0
 40
3.556235406279531
100
AcDbArc
 50
32.148873329
 51
33.1523395408
  0
SPLINE
  5
E3
330
1F
100
AcDbEntity
  8
0
  6
Continuous
 62
     7
370
    25
100
AcDbSpline
210
0.0
220
0.0
230
1.0
 70
     8
 71
     3
 72
    14
 73
    10
 74
     0
 42
0.00000001
 43
0.00000001
 40
0.0
 40
0.0
 40
0.0
 40
0.0
 40
0.25
 40
0.25
 40
0.5
 40
0.5
 40
0.75
 40
0.75
 40
1.0
 40
1.0
 40
1.0
 40
1.0
 10
7.529588034806573
 20
10.0128136216577
 30
0.0
 10
7.606631046268416
 20
9.95229599141585
 30
0.0
 10
7.681014348816716
 20
9.888755072574025
 30
0.0
 10
7.824523762326524
 20
9.75569739019875
 30
0.0
 10
7.893655475138629
 20
9.686153161438666
 30
0.0
 10
8.025839520356351
 20
9.541915739940725
 30
0.0
 10
8.08908660039663
 20
9.467013096359414
 30
0.0
 10
8.209175074580717
 20
9.312434108235081
 30
0.0
 10
8.266006814885088
 20
9.232793967964897
 30
0.0
 10
8.31958801239647
 20
9.150775342486684
 30
0.0
  0
SPLINE
  5
E4
330
1F
100
AcDbEntity
  8
0
  6
Continuous
 62
     7
370
    25
100
AcDbSpline
210
0.0
220
0.0
230
1.0
 70
     8
 71
     3
 72
     8
 73
     4
 74
     0
 42
0.00000001
 43
0.00000001
 40
0.0
 40
0.0
 40
0.0
 40
0.0
 40
0.0005187463170821
 40
0.0005187463170821
 40
0.0005187463170821
 40
0.0005187463170821
 10
7.513498753523963
 20
10.02539282911208
 30
0.0
 10
7.518873559501743
 20
10.02121477446055
 30
0.0
 10
7.52423446584437
 20
10.01701885685788
 30
0.0
 10
7.529588034807181
 20
10.01281362165832
 30
0.0
  0
SPLINE
  5
E5
330
1F
100
AcDbEntity
  8
0
  6
Continuous
 62
     7
370
    25
100
AcDbSpline
210
0.0
220
0.0
230
1.0
 70
     8
 71
     3
 72
    12
 73
     8
 74
     0
 42
0.00000001
 43
0.00000001
 40
0.0
 40
0.0
 40
0.0
 40
0.0
 40
0.2499999999999996
 40
0.2499999999999996
 40
0.499999999999999
 40
0.499999999999999
 40
1.0
 40
1.0
 40
1.0
 40
1.0
 10
6.797089442318111
 20
10.46982391150825
 30
0.0
 10
6.860486358712035
 20
10.43918102994765
 30
0.0
 10
6.92301929396092
 20
10.40690380908398
 30
0.0
 10
7.046362773927666
 20
10.33909122850006
 30
0.0
 10
7.107180886020092
 20
10.30354800324604
 30
0.0
 10
7.286586732786271
 20
10.1922833265903
 30
0.0
 10
7.402311524609731
 20
10.11182336763995
 30
0.0
 10
7.513498753524151
 20
10.02539282911232
 30
0.0
  0
SPLINE
  5
E6
330
1F
100
AcDbEntity
  8
0
  6
Continuous
 62
     7
370
    25
100
AcDbSpline
210
0.0
220
0.0
230
1.0
 70
     8
 71
     3
 72
    15
 73
    11
 74
     0
 42
0.00000001
 43
0.00000001
 40
0.0
 40
0.0
 40
0.0
 40
0.0
 40
0.027613337486204
 40
0.027613337486204
 40
0.1526133374862038
 40
0.2776133374862036
 40
0.2776133374862036
 40
0.4026133374862035
 40
0.4026133374862035
 40
0.6526133374862042
 40
0.6526133374862042
 40
0.6526133374862042
 40
0.6526133374862042
 10
5.666823060542337
 20
10.8233847937655
 30
0.0
 10
5.683400463236048
 20
10.82077296212691
 30
0.0
 10
5.699961253458547
 20
10.81805812657047
 30
0.0
 10
5.791376666836739
 20
10.80248686445622
 30
0.0
 10
5.940144842727617
 20
10.77281351211462
 30
0.0
 10
6.086960157788848
 20
10.73485496224995
 30
0.0
 10
6.23279500948526
 20
10.69273670345043
 30
0.0
 10
6.30528456332878
 20
10.66957052336814
 30
0.0
 10
6.520123041293123
 20
10.59417737462267
 30
0.0
 10
6.660194942519836
 20
10.53599199334874
 30
0.0
 10
6.797089442318229
 20
10.46982391150846
 30
0.0
  0
ARC
  5
E7
330
1F
100
AcDbEntity
  8
0
  6
Continuous
 62
     7
370
    25
100
AcDbCircle
 10
5.6356971407
 20
10.6258216972
 30
0.0
 40
0.1999999999999982
100
AcDbArc
 50
81.0464243643
 51
135.0
  0
LINE
  5
E8
330
1F
100
AcDbEntity
  8
0
  6
Continuous
 62
     7
370
    25
100
AcDbLine
 10
5.2579058516
 20
10.5308731207
 30
0.0
 11
5.4942757844
 21
10.7672430535
 31
0.0
  0
ARC
  5
E9
330
1F
100
AcDbEntity
  8
0
  6
Continuous
 62
     7
370
    25
100
AcDbCircle
 10
5.1164844954
 20
10.6722944769
 30
0.0
 40
0.2000000000000002
100
AcDbArc
 50
270.0
 51
315.0
  0
LINE
  5
EA
330
1F
100
AcDbEntity
  8
0
  6
Continuous
 62
     7
370
    25
100
AcDbLine
 10
4.9571699203
 20
10.4722944769
 30
0.0
 11
5.1164844954
 21
10.4722944769
 31
0.0
  0
ARC
  5
EB
330
1F
100
AcDbEntity
  8
0
  6
Continuous
 62
     7
370
    25
100
AcDbCircle
 10
4.9571699203
 20
10.6722944769
 30
0.0
 40
0.1999999999999996
100
AcDbArc
 50
225.0
 51
270.0
  0
LINE
  5
EC
330
1F
100
AcDbEntity
  8
0
  6
Continuous
 62
     7
370
    25
100
AcDbLine
 10
4.5793788054
 20
10.7672428794
 30
0.0
 11
4.8157485641
 21
10.5308731207
 31
0.0
  0
ARC
  5
ED
330
1F
100
AcDbEntity
  8
0
  6
Continuous
 62
     7
370
    25
100
AcDbCircle
 10
4.4379574491
 20
10.6258215232
 30
0.0
 40
0.2000000000000008
100
AcDbArc
 50
45.0
 51
98.9532398772
  0
SPLINE
  5
EE
330
1F
100
AcDbEntity
  8
0
  6
Continuous
 62
     7
370
    25
100
AcDbSpline
210
0.0
220
0.0
230
1.0
 70
     8
 71
     3
 72
    15
 73
    11
 74
     0
 42
0.00000001
 43
0.00000001
 40
0.3472503189331403
 40
0.3472503189331403
 40
0.3472503189331403
 40
0.3472503189331403
 40
0.5972503189331398
 40
0.5972503189331398
 40
0.7222503189331398
 40
0.7222503189331398
 40
0.84725031893314
 40
0.9722503189331401
 40
0.9722503189331401
 40
1.0
 40
1.0
 40
1.0
 40
1.0
 10
3.276564535755243
 20
10.4698236999643
 30
0.0
 10
3.413459240436749
 20
10.53599188083502
 30
0.0
 10
3.553480663650633
 20
10.59415290234103
 30
0.0
 10
3.768157693540412
 20
10.6694994032231
 30
0.0
 10
3.840589497287246
 20
10.6926543261193
 30
0.0
 10
3.986529697766759
 20
10.73481184830081
 30
0.0
 10
4.133398076228659
 20
10.77278800008086
 30
0.0
 10
4.282111097036875
 20
10.802454180008
 30
0.0
 10
4.373539988047392
 20
10.81803298190684
 30
0.0
 10
4.390175808643889
 20
10.82076054881023
 30
0.0
 10
4.406832685157762
 20
10.82338480181992
 30
0.0
  0
SPLINE
  5
EF
330
1F
100
AcDbEntity
  8
0
  6
Continuous
 62
     7
370
    25
100
AcDbSpline
210
0.0
220
0.0
230
1.0
 70
     8
 71
     3
 72
     8
 73
     4
 74
     0
 42
0.00000001
 43
0.00000001
 40
0.0
 40
0.0
 40
0.0
 40
0.0
 40
1.0
 40
1.0
 40
1.0
 40
1.0
 10
2.560155227320723
 20
10.02539249105372
 30
0.0
 10
2.78252994629709
 20
10.19825377111001
 30
0.0
 10
3.022976791643968
 20
10.347252135762
 30
0.0
 10
3.276564535755174
 20
10.46982369996453
 30
0.0
  0
SPLINE
  5
F0
330
1F
100
AcDbEntity
  8
0
  6
Continuous
 62
     7
370
    25
100
AcDbSpline
210
0.0
220
0.0
230
1.0
 70
     8
 71
     3
 72
     8
 73
     4
 74
     0
 42
0.00000001
 43
0.00000001
 40
0.0
 40
0.0
 40
0.0
 40
0.0
 40
0.0005187101284325
 40
0.0005187101284325
 40
0.0005187101284325
 40
0.0005187101284325
 10
2.544067065317195
 20
10.01281415924686
 30
0.0
 10
2.549420262083629
 20
10.01701910078119
 30
0.0
 10
2.554780794921347
 20
10.02121472680022
 30
0.0
 10
2.560155227320555
 20
10.02539249105398
 30
0.0
  0
SPLINE
  5
F1
330
1F
100
AcDbEntity
  8
0
  6
Continuous
 62
     7
370
    25
100
AcDbSpline
210
0.0
220
0.0
230
1.0
 70
     8
 71
     3
 72
    14
 73
    10
 74
     0
 42
0.00000001
 43
0.00000001
 40
0.0
 40
0.0
 40
0.0
 40
0.0
 40
0.25
 40
0.25
 40
0.5
 40
0.5
 40
0.75
 40
0.75
 40
1.0
 40
1.0
 40
1.0
 40
1.0
 10
1.754066403333728
 20
9.150775342479148
 30
0.0
 10
1.807647693442956
 20
9.232794109700595
 30
0.0
 10
1.864473671781437
 20
9.312425417152111
 30
0.0
 10
1.984534867258183
 20
9.46697207825335
 30
0.0
 10
2.047797139204306
 20
9.541895282263845
 30
0.0
 10
2.179980200651668
 20
9.686133794750747
 30
0.0
 10
2.249092855554959
 20
9.755661194819652
 30
0.0
 10
2.392632332791718
 20
9.88874905168323
 30
0.0
 10
2.467024054949263
 20
9.952296560204916
 30
0.0
 10
2.544067065316662
 20
10.01281415924749
 30
0.0
  0
ARC
  5
F2
330
1F
100
AcDbEntity
  8
0
  6
Continuous
 62
     7
370
    25
100
AcDbCircle
 10
4.731416048
 20
7.2059876013
 30
0.0
 40
3.556235406680731
100
AcDbArc
 50
146.8476604593
 51
147.8515539998
  0
SPLINE
  5
F3
330
1F
100
AcDbEntity
  8
0
  6
Continuous
 62
     7
370
    25
100
AcDbSpline
210
0.0
220
0.0
230
1.0
 70
     8
 71
     3
 72
     8
 73
     4
 74
     0
 42
0.00000001
 43
0.00000001
 40
0.0
 40
0.0
 40
0.0
 40
0.0
 40
1.0
 40
1.0
 40
1.0
 40
1.0
 10
1.630631715869493
 20
8.960362296493592
 30
0.0
 10
1.661301553868669
 20
9.005865510091263
 30
0.0
 10
1.691247842939748
 20
9.051853889041253
 30
0.0
 10
1.720450041244256
 20
9.098312620079968
 30
0.0
  0
SPLINE
  5
F4
330
1F
100
AcDbEntity
  8
0
  6
Continuous
 62
     7
370
    25
100
AcDbSpline
210
0.0
220
0.0
230
1.0
 70
     8
 71
     3
 72
     8
 73
     4
 74
     0
 42
0.00000001
 43
0.00000001
 40
0.0
 40
0.0
 40
0.0
 40
0.0
 40
1.0
 40
1.0
 40
1.0
 40
1.0
 10
1.226717432492616
 20
8.206981705101457
 30
0.0
 10
1.335690850607295
 20
8.470900693534936
 30
0.0
 10
1.471044043707076
 20
8.723590536727162
 30
0.0
 10
1.630631715869493
 20
8.960362296493592
 30
0.0
  0
SPLINE
  5
F5
330
1F
100
AcDbEntity
  8
0
  6
Continuous
 62
     7
370
    25
100
AcDbSpline
210
0.0
220
0.0
230
1.0
 70
     8
 71
     3
 72
     8
 73
     4
 74
     0
 42
0.00000001
 43
0.00000001
 40
0.0
 40
0.0
 40
0.0
 40
0.0
 40
0.3256810816535284
 40
0.3256810816535284
 40
0.3256810816535284
 40
0.3256810816535284
 10
1.151499389667978
 20
8.011807071968494
 30
0.0
 10
1.175020515551202
 20
8.077441041940329
 30
0.0
 10
1.200101347020393
 20
8.142521120787615
 30
0.0
 10
1.226717432492616
 20
8.206981705101457
 30
0.0
  0
ARC
  5
F6
330
1F
100
AcDbEntity
  8
0
  6
Continuous
 62
     7
370
    25
100
AcDbCircle
 10
1.3397745894
 20
7.9443352322
 30
0.0
 40
0.2000000000000015
100
AcDbArc
 50
160.2839365092
 51
190.0
  0
LINE
  5
F7
330
1F
100
AcDbEntity
  8
0
  6
Continuous
 62
     7
370
    25
100
AcDbLine
 10
1.1833267986
 20
7.6798406473
 30
0.0
 11
1.1428130388
 21
7.9096055966
 31
0.0
  0
ARC
  5
F8
330
1F
100
AcDbEntity
  8
0
  6
Continuous
 62
     7
370
    25
100
AcDbCircle
 10
0.986365248
 20
7.6451110118
 30
0.0
 40
0.2000000000000004
100
AcDbArc
 50
325.0
 51
10.0
  0
LINE
  5
F9
330
1F
100
AcDbEntity
  8
0
  6
Continuous
 62
     7
370
    25
100
AcDbLine
 10
1.1501956568
 20
7.5303957245
 30
0.0
 11
0.9833973394
 21
7.2921830399
 31
0.0
  0
ARC
  5
FA
330
1F
100
AcDbEntity
  8
0
  6
Continuous
 62
     7
370
    25
100
AcDbCircle
 10
1.1472277482
 20
7.1774677526
 30
0.0
 40
0.200000000000001
100
AcDbArc
 50
145.0
 51
173.0108545581
  0
SPLINE
  5
FB
330
1F
100
AcDbEntity
  8
0
  6
Continuous
 62
     7
370
    25
100
AcDbSpline
210
0.0
220
0.0
230
1.0
 70
     8
 71
     3
 72
     8
 73
     4
 74
     0
 42
0.00000001
 43
0.00000001
 40
0.4057085167153112
 40
0.4057085167153112
 40
0.4057085167153112
 40
0.4057085167153112
 40
1.0
 40
1.0
 40
1.0
 40
1.0
 10
0.9296178837686877
 20
6.900905353281197
 30
0.0
 10
0.9300754523447519
 20
7.001503203001858
 30
0.0
 10
0.9364792078681252
 20
7.102004108804802
 30
0.0
 10
0.9487139039075448
 20
7.201804013731815
 30
0.0
  0
SPLINE
  5
FC
330
1F
100
AcDbEntity
  8
0
  6
Continuous
 62
     7
370
    25
100
AcDbSpline
210
0.0
220
0.0
230
1.0
 70
     8
 71
     3
 72
     8
 73
     4
 74
     0
 42
0.00000001
 43
0.00000001
 40
0.0
 40
0.0
 40
0.0
 40
0.0
 40
1.0
 40
1.0
 40
1.0
 40
1.0
 10
0.9383396920439017
 20
6.395520550927475
 30
0.0
 10
0.9317709049769066
 20
6.563896035558773
 30
0.0
 10
0.9288514683472009
 20
6.732403499093002
 30
0.0
 10
0.9296178837686877
 20
6.900905353281197
 30
0.0
  0
ARC
  5
FD
330
1F
100
AcDbEntity
  8
0
  6
Continuous
 62
     7
370
    25
100
AcDbCircle
 10
-65.8144761309
 20
3.7908297475
 30
0.0
 40
66.80361393273768
100
AcDbArc
 50
2.1171279073
 51
2.2345442107
  0
SPLINE
  5
FE
330
1F
100
AcDbEntity
  8
0
  6
Continuous
 62
     7
370
    25
100
AcDbSpline
210
0.0
220
0.0
230
1.0
 70
     8
 71
     3
 72
     8
 73
     4
 74
     0
 42
0.00000001
 43
0.00000001
 40
0.0
 40
0.0
 40
0.0
 40
0.0
 40
0.0103970882512917
 40
0.0103970882512917
 40
0.0103970882512917
 40
0.0103970882512917
 10
0.9576254897069497
 20
5.849627371257756
 30
0.0
 10
0.9532706911504094
 20
5.986002507746636
 30
0.0
 10
0.9485792877670551
 20
6.122367019951145
 30
0.0
 10
0.9435373152902278
 20
6.258718559116079
 30
0.0
  0
SPLINE
  5
FF
330
1F
100
AcDbEntity
  8
0
  6
Continuous
 62
     7
370
    25
100
AcDbSpline
210
0.0
220
0.0
230
1.0
 70
     8
 71
     3
 72
     8
 73
     4
 74
     0
 42
0.00000001
 43
0.00000001
 40
0.0
 40
0.0
 40
0.0
 40
0.0
 40
0.0075472603183654
 40
0.0075472603183654
 40
0.0075472603183654
 40
0.0075472603183654
 10
0.9670265230980495
 20
5.552639898242361
 30
0.0
 10
0.9639173265197324
 20
5.651636497756965
 30
0.0
 10
0.9607866834783322
 20
5.750632420404046
 30
0.0
 10
0.9576254897069497
 20
5.849627371257756
 30
0.0
  0
ARC
  5
100
330
1F
100
AcDbEntity
  8
0
  6
Continuous
 62
     7
370
    25
100
AcDbCircle
 10
1.1669279554
 20
5.5589182235
 30
0.0
 40
0.2000000000000004
100
AcDbArc
 50
181.7989032256
 51
225.0
  0
LINE
  5
101
330
1F
100
AcDbEntity
  8
0
  6
Continuous
 62
     7
370
    25
100
AcDbLine
 10
1.0727214008
 20
5.3702820656
 30
0.0
 11
1.0255065992
 21
5.4174968672
 31
0.0
  0
ARC
  5
102
330
1F
100
AcDbEntity
  8
0
  6
Continuous
 62
     7
370
    25
100
AcDbCircle
 10
0.9313000446
 20
5.2288607093
 30
0.0
 40
0.2000000000000002
100
AcDbArc
 50
0.0
 51
45.0
  0
LINE
  5
103
330
1F
100
AcDbEntity
  8
0
  6
Continuous
 62
     7
370
    25
100
AcDbLine
 10
1.1313000446
 20
5.0695461343
 30
0.0
 11
1.1313000446
 21
5.2288607093
 31
0.0
  0
ARC
  5
104
330
1F
100
AcDbEntity
  8
0
  6
Continuous
 62
     7
370
    25
100
AcDbCircle
 10
0.9313000446
 20
5.0695461343
 30
0.0
 40
0.2000000000000002
100
AcDbArc
 50
315.0
 51
0.0
  0
LINE
  5
105
330
1F
100
AcDbEntity
  8
0
  6
Continuous
 62
     7
370
    25
100
AcDbLine
 10
1.0727214008
 20
4.928124778
 30
0.0
 11
1.0502864807
 21
4.9056898579
 31
0.0
  0
ARC
  5
106
330
1F
100
AcDbEntity
  8
0
  6
Continuous
 62
     7
370
    25
100
AcDbCircle
 10
1.191707837
 20
4.7642685017
 30
0.0
 40
0.1999999999999998
100
AcDbArc
 50
135.0
 51
181.7984982473
  0
SPLINE
  5
107
330
1F
100
AcDbEntity
  8
0
  6
Continuous
 62
     7
370
    25
100
AcDbSpline
210
0.0
220
0.0
230
1.0
 70
     8
 71
     3
 72
     8
 73
     4
 74
     0
 42
0.00000001
 43
0.00000001
 40
0.2132421572407641
 40
0.2132421572407641
 40
0.2132421572407641
 40
0.2132421572407641
 40
0.4659013225608228
 40
0.4659013225608228
 40
0.4659013225608228
 40
0.4659013225608228
 10
1.00693740409269
 20
4.280312994507343
 30
0.0
 10
1.001847235313521
 20
4.43953770655728
 30
0.0
 10
0.996806111465071
 20
4.598763995515672
 30
0.0
 10
0.9918063602953351
 20
4.757991589422652
 30
0.0
  0
ARC
  5
108
330
1F
100
AcDbEntity
  8
0
  6
Continuous
 62
     7
370
    25
100
AcDbCircle
 10
1.2068352841
 20
4.2867034218
 30
0.0
 40
0.2000000000000003
100
AcDbArc
 50
181.8310342226
 51
270.0
  0
LINE
  5
109
330
1F
100
AcDbEntity
  8
0
  6
Continuous
 62
     7
370
    25
100
AcDbLine
 10
1.2068352841
 20
4.0867034218
 30
0.0
 11
8.8668191316
 21
4.0867034218
 31
0.0
  0
ARC
  5
10A
330
1F
100
AcDbEntity
  8
0
  6
Continuous
 62
     7
370
    25
100
AcDbCircle
 10
8.8668191316
 20
4.2867034218
 30
0.0
 40
0.2000000000000012
100
AcDbArc
 50
270.0
 51
358.1689657748
  0
SPLINE
  5
10B
330
1F
100
AcDbEntity
  8
0
  6
Continuous
 62
     7
370
    25
100
AcDbSpline
210
0.0
220
0.0
230
1.0
 70
     8
 71
     3
 72
     8
 73
     4
 74
     0
 42
0.00000001
 43
0.00000001
 40
0.5340986952346779
 40
0.5340986952346779
 40
0.5340986952346779
 40
0.5340986952346779
 40
0.786757848034235
 40
0.786757848034235
 40
0.786757848034235
 40
0.786757848034235
 10
9.081848055422041
 20
4.757991589425388
 30
0.0
 10
9.07684830429997
 20
4.598763997405904
 30
0.0
 10
9.07180718041153
 20
4.439537707583907
 30
0.0
 10
9.066717011592177
 20
4.280312994498463
 30
0.0
  0
ARC
  5
10C
330
1F
100
AcDbEntity
  8
0
  6
Continuous
 62
     7
370
    25
100
AcDbCircle
 10
8.8819465788
 20
4.7642685017
 30
0.0
 40
0.200000000000001
100
AcDbArc
 50
358.2015017485
 51
45.0
  0
LINE
  5
10D
330
1F
100
AcDbEntity
  8
0
  6
Continuous
 62
     7
370
    25
100
AcDbLine
 10
9.0009330149
 20
4.928124778
 30
0.0
 11
9.023367935
 21
4.905689858
 31
0.0
  0
ARC
  5
10E
330
1F
100
AcDbEntity
  8
0
  6
Continuous
 62
     7
370
    25
100
AcDbCircle
 10
9.1423543711
 20
5.0695461343
 30
0.0
 40
0.1999999999999993
100
AcDbArc
 50
180.0
 51
225.0
  0
LINE
  5
10F
330
1F
100
AcDbEntity
  8
0
  6
Continuous
 62
     7
370
    25
100
AcDbLine
 10
8.9423543711
 20
5.0695461343
 30
0.0
 11
8.9423543711
 21
5.2288607093
 31
0.0
  0
ARC
  5
110
330
1F
100
AcDbEntity
  8
0
  6
Continuous
 62
     7
370
    25
100
AcDbCircle
 10
9.1423543711
 20
5.2288607093
 30
0.0
 40
0.2000000000000002
100
AcDbArc
 50
135.0
 51
180.0
  0
LINE
  5
111
330
1F
100
AcDbEntity
  8
0
  6
Continuous
 62
     7
370
    25
100
AcDbLine
 10
9.0009330149
 20
5.3702820656
 30
0.0
 11
9.0481478166
 21
5.4174968672
 31
0.0
  0
ARC
  5
112
330
1F
100
AcDbEntity
  8
0
  6
Continuous
 62
     7
370
    25
100
AcDbCircle
 10
8.9067264603
 20
5.5589182235
 30
0.0
 40
0.2000000000000008
100
AcDbArc
 50
315.0
 51
358.2010967744
  0
SPLINE
  5
113
330
1F
100
AcDbEntity
  8
0
  6
Continuous
 62
     7
370
    25
100
AcDbSpline
210
0.0
220
0.0
230
1.0
 70
     8
 71
     3
 72
     8
 73
     4
 74
     0
 42
0.00000001
 43
0.00000001
 40
0.0099485633441906
 40
0.0099485633441906
 40
0.0099485633441906
 40
0.0099485633441906
 40
0.0174958287722468
 40
0.0174958287722468
 40
0.0174958287722468
 40
0.0174958287722468
 10
9.116028932131165
 20
5.849627562378391
 30
0.0
 10
9.112867736285637
 20
5.750632547803716
 30
0.0
 10
9.109737091215838
 20
5.651636561450245
 30
0.0
 10
9.106627892637151
 20
5.55263989824253
 30
0.0
  0
SPLINE
  5
114
330
1F
100
AcDbEntity
  8
0
  6
Continuous
 62
     7
370
    25
100
AcDbSpline
210
0.0
220
0.0
230
1.0
 70
     8
 71
     3
 72
     8
 73
     4
 74
     0
 42
0.00000001
 43
0.00000001
 40
0.0
 40
0.0
 40
0.0
 40
0.0
 40
0.0103969548911558
 40
0.0103969548911558
 40
0.0103969548911558
 40
0.0103969548911558
 10
9.130116913312184
 20
6.258713498427023
 30
0.0
 10
9.125075017253952
 20
6.12236379100765
 30
0.0
 10
9.120383677670326
 20
5.986001028714807
 30
0.0
 10
9.116028932131165
 20
5.849627562378391
 30
0.0
  0
ARC
  5
115
330
1F
100
AcDbEntity
  8
0
  6
Continuous
 62
     7
370
    25
100
AcDbCircle
 10
75.8881305467
 20
3.7908297475
 30
0.0
 40
66.80361393274475
100
AcDbArc
 50
177.7654587497
 51
177.8828764361
  0
SPLINE
  5
116
330
1F
100
AcDbEntity
  8
0
  6
Continuous
 62
     7
370
    25
100
AcDbSpline
210
0.0
220
0.0
230
1.0
 70
     8
 71
     3
 72
     8
 73
     4
 74
     0
 42
0.00000001
 43
0.00000001
 40
0.0
 40
0.0
 40
0.0
 40
0.0
 40
1.0
 40
1.0
 40
1.0
 40
1.0
 10
9.144036531785106
 20
6.900905393146598
 30
0.0
 10
9.144802953220351
 20
6.732402344727513
 30
0.0
 10
9.141883472209098
 20
6.563893767003116
 30
0.0
 10
9.135314589133875
 20
6.395517101877972
 30
0.0
  0
SPLINE
  5
117
330
1F
100
AcDbEntity
  8
0
  6
Continuous
 62
     7
370
    25
100
AcDbSpline
210
0.0
220
0.0
230
1.0
 70
     8
 71
     3
 72
     8
 73
     4
 74
     0
 42
0.00000001
 43
0.00000001
 40
0.0
 40
0.0
 40
0.0
 40
0.0
 40
0.5942913536106814
 40
0.5942913536106814
 40
0.5942913536106814
 40
0.5942913536106814
 10
9.12494051887841
 20
7.201804006194525
 30
0.0
 10
9.137175209001118
 20
7.102004162345478
 30
0.0
 10
9.143578961327925
 20
7.001503309482933
 30
0.0
 10
9.144036531785106
 20
6.900905393146598
 30
0.0
  0
ARC
  5
118
330
1F
100
AcDbEntity
  8
0
  6
Continuous
 62
     7
370
    25
100
AcDbCircle
 10
8.9264266749
 20
7.177467742
 30
0.0
 40
0.1999999999999995
100
AcDbArc
 50
6.9891463307
 51
35.0
  0
LINE
  5
119
330
1F
100
AcDbEntity
  8
0
  6
Continuous
 62
     7
370
    25
100
AcDbLine
 10
8.9234587589
 20
7.5303957245
 30
0.0
 11
9.0902570838
 21
7.2921830293
 31
0.0
  0
ARC
  5
11A
330
1F
100
AcDbEntity
  8
0
  6
Continuous
 62
     7
370
    25
100
AcDbCircle
 10
9.0872891677
 20
7.6451110118
 30
0.0
 40
0.200000000000002
100
AcDbArc
 50
170.0
 51
215.0
  0
LINE
  5
11B
330
1F
100
AcDbEntity
  8
0
  6
Continuous
 62
     7
370
    25
100
AcDbLine
 10
8.8903276171
 20
7.6798406473
 30
0.0
 11
8.930841395
 21
7.9096056989
 31
0.0
  0
MTEXT
  5
11D
330
1F
100
AcDbEntity
  8
PART_NAMES
100
AcDbMText
 10
4.8494796487
 20
3.8816305479
 30
0.0
 40
0.1666666667
 41
0.0
 71
     1
 72
     1
  1
BH6
  7
SLDTEXTSTYLE0
 73
     1
 44
1.0
  0
LINE
  5
11E
330
1F
100
AcDbEntity
  8
0
  6
Continuous
 62
     7
370
    25
100
AcDbLine
 10
11.1462973888
 20
3.5232508311
 30
0.0
 11
11.1462973888
 21
1.7732508311
 31
0.0
  0
LINE
  5
11F
330
1F
100
AcDbEntity
  8
0
  6
Continuous
 62
     7
370
    25
100
AcDbLine
 10
10.8962973888
 20
3.5232508311
 30
0.0
 11
11.1462973888
 21
3.5232508311
 31
0.0
  0
LINE
  5
120
330
1F
100
AcDbEntity
  8
0
  6
Continuous
 62
     7
370
    25
100
AcDbLine
 10
10.8962973888
 20
1.7732508311
 30
0.0
 11
10.8962973888
 21
3.5232508311
 31
0.0
  0
LINE
  5
121
330
1F
100
AcDbEntity
  8
0
  6
Continuous
 62
     7
370
    25
100
AcDbLine
 10
11.1462973888
 20
1.7732508311
 30
0.0
 11
10.8962973888
 21
1.7732508311
 31
0.0
  0
LINE
  5
122
330
1F
100
AcDbEntity
  8
0
  6
Continuous
 62
     7
370
    25
100
AcDbLine
 10
18.1462973888
 20
1.7732508311
 30
0.0
 11
18.1462973888
 21
3.5232508311
 31
0.0
  0
LINE
  5
123
330
1F
100
AcDbEntity
  8
0
  6
Continuous
 62
     7
370
    25
100
AcDbLine
 10
18.1462973888
 20
3.5232508311
 30
0.0
 11
17.8962973888
 21
3.5232508311
 31
0.0
  0
LINE
  5
124
330
1F
100
AcDbEntity
  8
0
  6
Continuous
 62
     7
370
    25
100
AcDbLine
 10
17.8962973888
 20
3.5232508311
 30
0.0
 11
17.8962973888
 21
1.7732508311
 31
0.0
  0
LINE
  5
125
330
1F
100
AcDbEntity
  8
0
  6
Continuous
 62
     7
370
    25
100
AcDbLine
 10
17.8962973888
 20
1.7732508311
 30
0.0
 11
18.1462973888
 21
1.7732508311
 31
0.0
  0
CIRCLE
  5
126
330
1F
100
AcDbEntity
  8
0
  6
Continuous
 62
     7
370
    25
100
AcDbCircle
 10
14.5212973888
 20
2.6482508311
 30
0.0
 40
0.4999999999999982
  0
ARC
  5
127
330
1F
100
AcDbEntity
  8
0
  6
Continuous
 62
     7
370
    25
100
AcDbCircle
 10
15.3212973888
 20
3.2482508311
 30
0.0
 40
0.2000000000000011
100
AcDbArc
 50
180.0
 51
216.8698976458
  0
ARC
  5
128
330
1F
100
AcDbEntity
  8
0
  6
Continuous
 62
     7
370
    25
100
AcDbCircle
 10
14.5212973888
 20
2.6482508311
 30
0.0
 40
0.8000000000000004
100
AcDbArc
 50
314.4270040008
 51
36.8698976458
  0
ARC
  5
129
330
1F
100
AcDbEntity
  8
0
  6
Continuous
 62
     7
370
    25
100
AcDbCircle
 10
15.2212973888
 20
1.9341079883
 30
0.0
 40
0.2000000000000011
100
AcDbArc
 50
134.4270040008
 51
180.0
  0
LINE
  5
12A
330
1F
100
AcDbEntity
  8
0
  6
Continuous
 62
     7
370
    25
100
AcDbLine
 10
15.0212973888
 20
1.2703994955
 30
0.0
 11
15.0212973888
 21
1.9341079883
 31
0.0
  0
ARC
  5
12B
330
1F
100
AcDbEntity
  8
0
  6
Continuous
 62
     7
370
    25
100
AcDbCircle
 10
15.2212973888
 20
1.2703994955
 30
0.0
 40
0.1999999999999999
100
AcDbArc
 50
180.0
 51
269.826405972
  0
SPLINE
  5
12C
330
1F
100
AcDbEntity
  8
0
  6
Continuous
 62
     7
370
    25
100
AcDbSpline
210
0.0
220
0.0
230
1.0
 70
     8
 71
     3
 72
     8
 73
     4
 74
     0
 42
0.00000001
 43
0.00000001
 40
0.372483585602335
 40
0.372483585602335
 40
0.372483585602335
 40
0.372483585602335
 40
1.0
 40
1.0
 40
1.0
 40
1.0
 10
16.39596000749404
 20
1.067490690686544
 30
0.0
 10
16.00420322702472
 20
1.068219629035968
 30
0.0
 10
15.61244702845808
 20
1.069213473664423
 30
0.0
 10
15.22069139010864
 20
1.070400413587467
 30
0.0
  0
LINE
  5
12D
330
1F
100
AcDbEntity
  8
0
  6
Continuous
 62
     7
370
    25
100
AcDbLine
 10
16.3959600075
 20
1.0674906907
 30
0.0
 11
16.5911142529
 21
1.0671711158
 31
0.0
  0
LINE
  5
12E
330
1F
100
AcDbEntity
  8
0
  6
Continuous
 62
     7
370
    25
100
AcDbLine
 10
16.5911142529
 20
1.0671711158
 30
0.0
 11
16.6798693094
 21
1.0670336847
 31
0.0
  0
ARC
  5
12F
330
1F
100
AcDbEntity
  8
0
  6
Continuous
 62
     7
370
    25
100
AcDbCircle
 10
16.7425586074
 20
41.5527313766
 30
0.0
 40
40.48574622831453
100
AcDbArc
 50
269.9112815257
 51
270.1643437851
  0
ARC
  5
130
330
1F
100
AcDbEntity
  8
0
  6
Continuous
 62
     7
370
    25
100
AcDbCircle
 10
16.8540424035
 20
2.6858312443
 30
0.0
 40
1.618686209212439
100
AcDbArc
 50
270.1643437851
 51
274.3881569636
  0
SPLINE
  5
131
330
1F
100
AcDbEntity
  8
0
  6
Continuous
 62
     7
370
    25
100
AcDbSpline
210
0.0
220
0.0
230
1.0
 70
     8
 71
     3
 72
    12
 73
     8
 74
     0
 42
0.00000001
 43
0.00000001
 40
0.0
 40
0.0
 40
0.0
 40
0.0
 40
0.4939100143435786
 40
0.4939100143435786
 40
0.7439100143435795
 40
0.7439100143435795
 40
0.9939100143435805
 40
0.9939100143435805
 40
0.9939100143435805
 40
0.9939100143435805
 10
17.47286273565029
 20
1.190249322459202
 30
0.0
 10
17.39458188853116
 20
1.157810107259015
 30
0.0
 10
17.31383751453727
 20
1.131630588518771
 30
0.0
 10
17.18984834950345
 20
1.101860741111956
 30
0.0
 10
17.14774551166558
 20
1.093498521700133
 30
0.0
 10
17.06318156040951
 20
1.080162516957645
 30
0.0
 10
17.02065946469137
 20
1.075172093434973
 30
0.0
 10
16.97789283744442
 20
1.071890068906826
 30
0.0
  0
ARC
  5
132
330
1F
100
AcDbEntity
  8
0
  6
Continuous
 62
     7
370
    25
100
AcDbCircle
 10
17.3962973888
 20
1.3750133549
 30
0.0
 40
0.2000000000000001
100
AcDbArc
 50
292.5088873549
 51
0.0
  0
LINE
  5
133
330
1F
100
AcDbEntity
  8
0
  6
Continuous
 62
     7
370
    25
100
AcDbLine
 10
17.5962973888
 20
3.5232508311
 30
0.0
 11
17.5962973888
 21
1.3750133549
 31
0.0
  0
ARC
  5
134
330
1F
100
AcDbEntity
  8
0
  6
Continuous
 62
     7
370
    25
100
AcDbCircle
 10
17.3962973888
 20
3.5232508311
 30
0.0
 40
0.2000000000000002
100
AcDbArc
 50
0.0
 51
90.0
  0
LINE
  5
135
330
1F
100
AcDbEntity
  8
0
  6
Continuous
 62
     7
370
    25
100
AcDbLine
 10
15.3212973888
 20
3.7232508311
 30
0.0
 11
17.3962973888
 21
3.7232508311
 31
0.0
  0
ARC
  5
136
330
1F
100
AcDbEntity
  8
0
  6
Continuous
 62
     7
370
    25
100
AcDbCircle
 10
15.3212973888
 20
3.5232508311
 30
0.0
 40
0.2000000000000011
100
AcDbArc
 50
90.0
 51
180.0
  0
LINE
  5
137
330
1F
100
AcDbEntity
  8
0
  6
Continuous
 62
     7
370
    25
100
AcDbLine
 10
15.1212973888
 20
3.5232508311
 30
0.0
 11
15.1212973888
 21
3.2482508311
 31
0.0
  0
ARC
  5
138
330
1F
100
AcDbEntity
  8
0
  6
Continuous
 62
     7
370
    25
100
AcDbCircle
 10
13.8212973888
 20
1.9341079883
 30
0.0
 40
0.2000000000000011
100
AcDbArc
 50
0.0
 51
45.5729959992
  0
ARC
  5
139
330
1F
100
AcDbEntity
  8
0
  6
Continuous
 62
     7
370
    25
100
AcDbCircle
 10
14.5212973888
 20
2.6482508311
 30
0.0
 40
0.8000000000000004
100
AcDbArc
 50
143.1301023542
 51
225.5729959992
  0
ARC
  5
13A
330
1F
100
AcDbEntity
  8
0
  6
Continuous
 62
     7
370
    25
100
AcDbCircle
 10
13.7212973888
 20
3.2482508311
 30
0.0
 40
0.2000000000000011
100
AcDbArc
 50
323.1301023542
 51
0.0
  0
LINE
  5
13B
330
1F
100
AcDbEntity
  8
0
  6
Continuous
 62
     7
370
    25
100
AcDbLine
 10
13.9212973888
 20
3.5232508311
 30
0.0
 11
13.9212973888
 21
3.2482508311
 31
0.0
  0
ARC
  5
13C
330
1F
100
AcDbEntity
  8
0
  6
Continuous
 62
     7
370
    25
100
AcDbCircle
 10
13.7212973888
 20
3.5232508311
 30
0.0
 40
0.2000000000000011
100
AcDbArc
 50
0.0
 51
90.0
  0
LINE
  5
13D
330
1F
100
AcDbEntity
  8
0
  6
Continuous
 62
     7
370
    25
100
AcDbLine
 10
13.7212973888
 20
3.7232508311
 30
0.0
 11
11.6462973888
 21
3.7232508311
 31
0.0
  0
ARC
  5
13E
330
1F
100
AcDbEntity
  8
0
  6
Continuous
 62
     7
370
    25
100
AcDbCircle
 10
11.6462973888
 20
3.5232508311
 30
0.0
 40
0.2000000000000002
100
AcDbArc
 50
90.0
 51
180.0
  0
LINE
  5
13F
330
1F
100
AcDbEntity
  8
0
  6
Continuous
 62
     7
370
    25
100
AcDbLine
 10
11.4462973888
 20
3.5232508311
 30
0.0
 11
11.4462973888
 21
1.3750133537
 31
0.0
  0
ARC
  5
140
330
1F
100
AcDbEntity
  8
0
  6
Continuous
 62
     7
370
    25
100
AcDbCircle
 10
11.6462973888
 20
1.3750133537
 30
0.0
 40
0.2000000000000009
100
AcDbArc
 50
180.0
 51
247.4910720631
  0
SPLINE
  5
141
330
1F
100
AcDbEntity
  8
0
  6
Continuous
 62
     7
370
    25
100
AcDbSpline
210
0.0
220
0.0
230
1.0
 70
     8
 71
     3
 72
    12
 73
     8
 74
     0
 42
0.00000001
 43
0.00000001
 40
0.0060899390624168
 40
0.0060899390624168
 40
0.0060899390624168
 40
0.0060899390624168
 40
0.5060899390624172
 40
0.5060899390624172
 40
0.756089939062417
 40
0.756089939062417
 40
1.0
 40
1.0
 40
1.0
 40
1.0
 10
12.0647001343084
 20
1.071890207499251
 30
0.0
 10
11.97916809901843
 20
1.078454260455295
 30
0.0
 10
11.89428861848748
 20
1.091879530230232
 30
0.0
 10
11.76928719300679
 20
1.121902801407626
 30
0.0
 10
11.72797844694133
 20
1.13357119035093
 30
0.0
 10
11.64757223484142
 20
1.159767489158055
 30
0.0
 10
11.60838649408007
 20
1.174231065930331
 30
0.0
 10
11.56973191115302
 20
1.190249375535706
 30
0.0
  0
ARC
  5
142
330
1F
100
AcDbEntity
  8
0
  6
Continuous
 62
     7
370
    25
100
AcDbCircle
 10
12.1885523742
 20
2.6858312443
 30
0.0
 40
1.618686209675855
100
AcDbArc
 50
265.6117789274
 51
269.8356562149
  0
ARC
  5
143
330
1F
100
AcDbEntity
  8
0
  6
Continuous
 62
     7
370
    25
100
AcDbCircle
 10
12.3000361702
 20
41.5527313766
 30
0.0
 40
40.48574622829634
100
AcDbArc
 50
269.8356562149
 51
270.0887184743
  0
LINE
  5
144
330
1F
100
AcDbEntity
  8
0
  6
Continuous
 62
     7
370
    25
100
AcDbLine
 10
12.3627254683
 20
1.0670336837
 30
0.0
 11
12.4514809322
 21
1.0671711164
 31
0.0
  0
SPLINE
  5
145
330
1F
100
AcDbEntity
  8
0
  6
Continuous
 62
     7
370
    25
100
AcDbSpline
210
0.0
220
0.0
230
1.0
 70
     8
 71
     3
 72
     8
 73
     4
 74
     0
 42
0.00000001
 43
0.00000001
 40
0.0
 40
0.0
 40
0.0
 40
0.0
 40
0.0049569143875415
 40
0.0049569143875415
 40
0.0049569143875415
 40
0.0049569143875415
 10
12.64663477910247
 20
1.067490690703141
 30
0.0
 10
12.58158352218273
 20
1.067369651569727
 30
0.0
 10
12.51653222423006
 20
1.067271790809269
 30
0.0
 10
12.45148093221744
 20
1.067171116394319
 30
0.0
  0
SPLINE
  5
146
330
1F
100
AcDbEntity
  8
0
  6
Continuous
 62
     7
370
    25
100
AcDbSpline
210
0.0
220
0.0
230
1.0
 70
     8
 71
     3
 72
     8
 73
     4
 74
     0
 42
0.00000001
 43
0.00000001
 40
0.0
 40
0.0
 40
0.0
 40
0.0
 40
0.0298518807886867
 40
0.0298518807886867
 40
0.0298518807886867
 40
0.0298518807886867
 10
13.82190204653065
 20
1.070392509566706
 30
0.0
 10
13.43014685665341
 20
1.069208202352905
 30
0.0
 10
13.03839107358205
 20
1.06821699653456
 30
0.0
 10
12.64663477910247
 20
1.067490690703141
 30
0.0
  0
ARC
  5
147
330
1F
100
AcDbEntity
  8
0
  6
Continuous
 62
     7
370
    25
100
AcDbCircle
 10
13.8212973888
 20
1.2703915955
 30
0.0
 40
0.2000000000000002
100
AcDbArc
 50
270.1732091857
 51
0.0
  0
LINE
  5
148
330
1F
100
AcDbEntity
  8
0
  6
Continuous
 62
     7
370
    25
100
AcDbLine
 10
14.0212973888
 20
1.2703915955
 30
0.0
 11
14.0212973888
 21
1.9341079883
 31
0.0
  0
ARC
  5
149
330
1F
100
AcDbEntity
  8
0
  6
Continuous
 62
     7
370
    25
100
AcDbCircle
 10
18.0770717122
 20
7.7559800268
 30
0.0
 40
0.2000000000000001
100
AcDbArc
 50
350.0
 51
25.2172296651
  0
SPLINE
  5
14A
330
1F
100
AcDbEntity
  8
0
  6
Continuous
 62
     7
370
    25
100
AcDbSpline
210
0.0
220
0.0
230
1.0
 70
     8
 71
     3
 72
     8
 73
     4
 74
     0
 42
0.00000001
 43
0.00000001
 40
0.1005906105622115
 40
0.1005906105622115
 40
0.1005906105622115
 40
0.1005906105622115
 40
1.0
 40
1.0
 40
1.0
 40
1.0
 10
17.88413304718287
 20
8.480470417001758
 30
0.0
 10
18.0274754786324
 20
8.278968163635374
 30
0.0
 10
18.15267619537698
 20
8.064864616646403
 30
0.0
 10
18.25801150693466
 20
7.841190300184615
 30
0.0
  0
ARC
  5
14B
330
1F
100
AcDbEntity
  8
0
  6
Continuous
 62
     7
370
    25
100
AcDbCircle
 10
13.8529495313
 20
5.6128119311
 30
0.0
 40
4.947110842700629
100
AcDbArc
 50
35.4268628325
 51
36.9473293306
  0
ARC
  5
14C
330
1F
100
AcDbEntity
  8
0
  6
Continuous
 62
     7
370
    25
100
AcDbCircle
 10
14.5488639321
 20
6.1362187315
 30
0.0
 40
4.076334442464586
100
AcDbArc
 50
36.9473293306
 51
37.8081752343
  0
SPLINE
  5
14D
330
1F
100
AcDbEntity
  8
0
  6
Continuous
 62
     7
370
    25
100
AcDbSpline
210
0.0
220
0.0
230
1.0
 70
     8
 71
     3
 72
    14
 73
    10
 74
     0
 42
0.00000001
 43
0.00000001
 40
0.0
 40
0.0
 40
0.0
 40
0.0
 40
0.25
 40
0.25
 40
0.5
 40
0.5
 40
0.75
 40
0.75
 40
1.0
 40
1.0
 40
1.0
 40
1.0
 10
16.94911769453293
 20
9.432059895875788
 30
0.0
 10
17.02637573885566
 20
9.375598461191784
 30
0.0
 10
17.10151738176599
 20
9.316516650123427
 30
0.0
 10
17.24761165722235
 20
9.193166495900606
 30
0.0
 10
17.31857763299276
 20
9.12887318022753
 30
0.0
 10
17.45569308530192
 20
8.995668697614418
 30
0.0
 10
17.521988507652
 20
8.926618973905105
 30
0.0
 10
17.64954660400682
 20
8.78410890229486
 30
0.0
 10
17.71078080849453
 20
8.710692610290415
 30
0.0
 10
17.76944350554583
 20
8.63509241740003
 30
0.0
  0
ARC
  5
14E
330
1F
100
AcDbEntity
  8
0
  6
Continuous
 62
     7
370
    25
100
AcDbCircle
 10
14.5501636082
 20
6.1494918533
 30
0.0
 40
4.065739008336863
100
AcDbArc
 50
53.840058214
 51
54.1776500346
  0
SPLINE
  5
14F
330
1F
100
AcDbEntity
  8
0
  6
Continuous
 62
     7
370
    25
100
AcDbSpline
210
0.0
220
0.0
230
1.0
 70
     8
 71
     3
 72
     8
 73
     4
 74
     0
 42
0.00000001
 43
0.00000001
 40
0.0
 40
0.0
 40
0.0
 40
0.0
 40
1.0
 40
1.0
 40
1.0
 40
1.0
 10
16.22601796665247
 20
9.854746080429106
 30
0.0
 10
16.47341362234999
 20
9.742201776025924
 30
0.0
 10
16.70935687612964
 20
9.605210985194244
 30
0.0
 10
16.9297349854177
 20
9.446137689127356
 30
0.0
  0
SPLINE
  5
150
330
1F
100
AcDbEntity
  8
0
  6
Continuous
 62
     7
370
    25
100
AcDbSpline
210
0.0
220
0.0
230
1.0
 70
     8
 71
     3
 72
    15
 73
    11
 74
     0
 42
0.00000001
 43
0.00000001
 40
0.0
 40
0.0
 40
0.0
 40
0.0
 40
0.015006376972043
 40
0.015006376972043
 40
0.1400063769720431
 40
0.2650063769720432
 40
0.2650063769720432
 40
0.3900063769720432
 40
0.3900063769720432
 40
0.6400063769720428
 40
0.6400063769720428
 40
0.6400063769720428
 40
0.6400063769720428
 10
15.15151737805911
 20
10.17569746085683
 30
0.0
 10
15.16021424525383
 20
10.17435083481982
 30
0.0
 10
15.16890633951244
 20
10.17297637566916
 30
0.0
 10
15.24995219963142
 20
10.15989382656423
 30
0.0
 10
15.39381880449112
 20
10.13270864909155
 30
0.0
 10
15.5359908263421
 20
10.0979126613642
 30
0.0
 10
15.67731258630728
 20
10.05929792775881
 30
0.0
 10
15.74759950833775
 20
10.03805968841189
 30
0.0
 10
15.95616744502816
 20
9.96890706089181
 30
0.0
 10
16.09247081557411
 20
9.915498851033739
 30
0.0
 10
16.22601796665247
 20
9.854746080429106
 30
0.0
  0
ARC
  5
151
330
1F
100
AcDbEntity
  8
0
  6
Continuous
 62
     7
370
    25
100
AcDbCircle
 10
15.1209145552
 20
9.9780526602
 30
0.0
 40
0.1999999999999992
100
AcDbArc
 50
81.1981911695
 51
135.0
  0
LINE
  5
152
330
1F
100
AcDbEntity
  8
0
  6
Continuous
 62
     7
370
    25
100
AcDbLine
 10
14.7423760326
 20
9.88235685
 30
0.0
 11
14.979493199
 21
10.1194740164
 31
0.0
  0
ARC
  5
153
330
1F
100
AcDbEntity
  8
0
  6
Continuous
 62
     7
370
    25
100
AcDbCircle
 10
14.6009546764
 20
10.0237782063
 30
0.0
 40
0.2000000000000011
100
AcDbArc
 50
270.0
 51
315.0
  0
LINE
  5
154
330
1F
100
AcDbEntity
  8
0
  6
Continuous
 62
     7
370
    25
100
AcDbLine
 10
14.4416401013
 20
9.8237782063
 30
0.0
 11
14.6009546764
 21
9.8237782063
 31
0.0
  0
ARC
  5
155
330
1F
100
AcDbEntity
  8
0
  6
Continuous
 62
     7
370
    25
100
AcDbCircle
 10
14.4416401013
 20
10.0237782063
 30
0.0
 40
0.2000000000000011
100
AcDbArc
 50
225.0
 51
270.0
  0
LINE
  5
156
330
1F
100
AcDbEntity
  8
0
  6
Continuous
 62
     7
370
    25
100
AcDbLine
 10
14.0631016307
 20
10.1194739644
 30
0.0
 11
14.3002187451
 21
9.88235685
 31
0.0
  0
ARC
  5
157
330
1F
100
AcDbEntity
  8
0
  6
Continuous
 62
     7
370
    25
100
AcDbCircle
 10
13.9216802745
 20
9.9780526081
 30
0.0
 40
0.2000000000000006
100
AcDbArc
 50
45.0
 51
98.8015812759
  0
SPLINE
  5
158
330
1F
100
AcDbEntity
  8
0
  6
Continuous
 62
     7
370
    25
100
AcDbSpline
210
0.0
220
0.0
230
1.0
 70
     8
 71
     3
 72
    15
 73
    11
 74
     0
 42
0.00000001
 43
0.00000001
 40
0.3598725928540997
 40
0.3598725928540997
 40
0.3598725928540997
 40
0.3598725928540997
 40
0.6098725928541002
 40
0.6098725928541002
 40
0.7348725928541002
 40
0.7348725928541002
 40
0.8598725928541002
 40
0.9848725928541002
 40
0.9848725928541002
 40
1.0
 40
1.0
 40
1.0
 40
1.0
 10
12.81657681440299
 20
9.854746081966141
 30
0.0
 10
12.95012432829126
 20
9.915499017618897
 30
0.0
 10
13.08638491532312
 20
9.968887730070069
 30
0.0
 10
13.29481646003508
 20
10.03800303222792
 30
0.0
 10
13.36505224996755
 20
10.05923155416965
 30
0.0
 10
13.5064639391249
 20
10.09787793963096
 30
0.0
 10
13.64868013521077
 20
10.13268782796843
 30
0.0
 10
13.79249654699117
 20
10.15986667834709
 30
0.0
 10
13.8735568590659
 20
10.17295556327416
 30
0.0
 10
13.88231450386262
 20
10.17434058646607
 30
0.0
 10
13.89107823613538
 20
10.17569753027614
 30
0.0
  0
SPLINE
  5
159
330
1F
100
AcDbEntity
  8
0
  6
Continuous
 62
     7
370
    25
100
AcDbSpline
210
0.0
220
0.0
230
1.0
 70
     8
 71
     3
 72
     8
 73
     4
 74
     0
 42
0.00000001
 43
0.00000001
 40
0.0
 40
0.0
 40
0.0
 40
0.0
 40
1.0
 40
1.0
 40
1.0
 40
1.0
 10
12.11285885214074
 20
9.44613701053129
 30
0.0
 10
12.33323722195463
 20
9.605210494650903
 30
0.0
 10
12.56918101488682
 20
9.742201712137597
 30
0.0
 10
12.81657681440299
 20
9.854746081966141
 30
0.0
  0
ARC
  5
15A
330
1F
100
AcDbEntity
  8
0
  6
Continuous
 62
     7
370
    25
100
AcDbCircle
 10
14.4924311695
 20
6.1494918533
 30
0.0
 40
4.065739008336107
100
AcDbArc
 50
125.8223663073
 51
126.159941786
  0
SPLINE
  5
15B
330
1F
100
AcDbEntity
  8
0
  6
Continuous
 62
     7
370
    25
100
AcDbSpline
210
0.0
220
0.0
230
1.0
 70
     8
 71
     3
 72
    14
 73
    10
 74
     0
 42
0.00000001
 43
0.00000001
 40
0.0
 40
0.0
 40
0.0
 40
0.0
 40
0.25
 40
0.25
 40
0.5
 40
0.5
 40
0.75
 40
0.75
 40
1.0
 40
1.0
 40
1.0
 40
1.0
 10
11.27313994129058
 20
8.635077814973359
 30
0.0
 10
11.33180332141075
 20
8.710679597301487
 30
0.0
 10
11.39302960950104
 20
8.784086211080654
 30
0.0
 10
11.52055036622959
 20
8.926558467106178
 30
0.0
 10
11.58687020527981
 20
8.995636705654
 30
0.0
 10
11.72398648097944
 20
9.128844793491487
 30
0.0
 10
11.79492563201013
 20
9.193116537700092
 30
0.0
 10
11.94106371821382
 20
9.31650652071654
 30
0.0
 10
12.0162178725357
 20
9.375597612176996
 30
0.0
 10
12.09347708155959
 20
9.432059898043542
 30
0.0
  0
ARC
  5
15C
330
1F
100
AcDbEntity
  8
0
  6
Continuous
 62
     7
370
    25
100
AcDbCircle
 10
14.4937308456
 20
6.1362187315
 30
0.0
 40
4.076334443059229
100
AcDbArc
 50
142.1920845565
 51
143.0526706694
  0
ARC
  5
15D
330
1F
100
AcDbEntity
  8
0
  6
Continuous
 62
     7
370
    25
100
AcDbCircle
 10
15.1896452464
 20
5.6128119311
 30
0.0
 40
4.94711083887417
100
AcDbArc
 50
143.0526706694
 51
144.5731371675
  0
SPLINE
  5
15E
330
1F
100
AcDbEntity
  8
0
  6
Continuous
 62
     7
370
    25
100
AcDbSpline
210
0.0
220
0.0
230
1.0
 70
     8
 71
     3
 72
     8
 73
     4
 74
     0
 42
0.00000001
 43
0.00000001
 40
0.0
 40
0.0
 40
0.0
 40
0.0
 40
0.8994094150254848
 40
0.8994094150254848
 40
0.8994094150254848
 40
0.8994094150254848
 10
10.78458327138085
 20
7.841190300896081
 30
0.0
 10
10.88991861510591
 20
8.06486468186562
 30
0.0
 10
11.01511935237189
 20
8.278968224371862
 30
0.0
 10
11.15846173721425
 20
8.480470412220662
 30
0.0
  0
ARC
  5
15F
330
1F
100
AcDbEntity
  8
0
  6
Continuous
 62
     7
370
    25
100
AcDbCircle
 10
10.9655230656
 20
7.7559800264
 30
0.0
 40
0.200000000000002
100
AcDbArc
 50
154.7827699598
 51
190.0
  0
LINE
  5
160
330
1F
100
AcDbEntity
  8
0
  6
Continuous
 62
     7
370
    25
100
AcDbLine
 10
10.8038493444
 20
7.5211231652
 30
0.0
 11
10.768561515
 21
7.7212503908
 31
0.0
  0
ARC
  5
161
330
1F
100
AcDbEntity
  8
0
  6
Continuous
 62
     7
370
    25
100
AcDbCircle
 10
10.6068877938
 20
7.4863935296
 30
0.0
 40
0.2000000000000005
100
AcDbArc
 50
325.0
 51
10.0
  0
LINE
  5
162
330
1F
100
AcDbEntity
  8
0
  6
Continuous
 62
     7
370
    25
100
AcDbLine
 10
10.5103078039
 20
6.9997736505
 30
0.0
 11
10.7707182027
 21
7.3716782424
 31
0.0
  0
ARC
  5
163
330
1F
100
AcDbEntity
  8
0
  6
Continuous
 62
     7
370
    25
100
AcDbCircle
 10
10.6741382128
 20
6.8850583632
 30
0.0
 40
0.2
100
AcDbArc
 50
145.0
 51
169.6919019444
  0
SPLINE
  5
164
330
1F
100
AcDbEntity
  8
0
  6
Continuous
 62
     7
370
    25
100
AcDbSpline
210
0.0
220
0.0
230
1.0
 70
     8
 71
     3
 72
    10
 73
     6
 74
     0
 42
0.00000001
 43
0.00000001
 40
0.1837852235974457
 40
0.1837852235974457
 40
0.1837852235974457
 40
0.1837852235974457
 40
0.6837852235974458
 40
0.6837852235974458
 40
1.0
 40
1.0
 40
1.0
 40
1.0
 10
10.44895787780184
 20
6.549217232376573
 30
0.0
 10
10.44685160347229
 20
6.625481825990558
 30
0.0
 10
10.44963731042424
 20
6.701811594052995
 30
0.0
 10
10.46202438545772
 20
6.825653011346222
 30
0.0
 10
10.46873929437542
 20
6.873413593685204
 30
0.0
 10
10.47736626148592
 20
6.920846617933289
 30
0.0
  0
SPLINE
  5
165
330
1F
100
AcDbEntity
  8
0
  6
Continuous
 62
     7
370
    25
100
AcDbSpline
210
0.0
220
0.0
230
1.0
 70
     8
 71
     3
 72
     8
 73
     4
 74
     0
 42
0.00000001
 43
0.00000001
 40
0.0
 40
0.0
 40
0.0
 40
0.0
 40
0.0128787098645445
 40
0.0128787098645445
 40
0.0128787098645445
 40
0.0128787098645445
 10
10.46368016624385
 20
6.042395382185317
 30
0.0
 10
10.45853467412358
 20
6.211328948980148
 30
0.0
 10
10.45362386466173
 20
6.380269712148253
 30
0.0
 10
10.44895787780184
 20
6.549217232376573
 30
0.0
  0
LINE
  5
166
330
1F
100
AcDbEntity
  8
0
  6
Continuous
 62
     7
370
    25
100
AcDbLine
 10
10.4636801662
 20
6.0423953822
 30
0.0
 11
10.4667149918
 21
5.9425378124
 31
0.0
  0
LINE
  5
167
330
1F
100
AcDbEntity
  8
0
  6
Continuous
 62
     7
370
    25
100
AcDbLine
 10
10.4667149917
 20
5.9425378124
 30
0.0
 11
10.4675742076
 21
5.9141840127
 31
0.0
  0
LINE
  5
168
330
1F
100
AcDbEntity
  8
0
  6
Continuous
 62
     7
370
    25
100
AcDbLine
 10
10.4675742076
 20
5.9141840127
 30
0.0
 11
10.4795313084
 21
5.5191027736
 31
0.0
  0
LINE
  5
169
330
1F
100
AcDbEntity
  8
0
  6
Continuous
 62
     7
370
    25
100
AcDbLine
 10
10.4795313084
 20
5.5191027736
 30
0.0
 11
10.4804430688
 21
5.4890104348
 31
0.0
  0
ARC
  5
16A
330
1F
100
AcDbEntity
  8
0
  6
Continuous
 62
     7
370
    25
100
AcDbCircle
 10
10.6803502283
 20
5.4950582301
 30
0.0
 40
0.2000000000000015
100
AcDbArc
 50
181.7328418415
 51
225.0
  0
LINE
  5
16B
330
1F
100
AcDbEntity
  8
0
  6
Continuous
 62
     7
370
    25
100
AcDbLine
 10
10.5389288721
 20
5.3536368738
 30
0.0
 11
10.585736271
 21
5.3068294749
 31
0.0
  0
ARC
  5
16C
330
1F
100
AcDbEntity
  8
0
  6
Continuous
 62
     7
370
    25
100
AcDbCircle
 10
10.4443149148
 20
5.1654081187
 30
0.0
 40
0.2000000000000011
100
AcDbArc
 50
0.0
 51
45.0
  0
LINE
  5
16D
330
1F
100
AcDbEntity
  8
0
  6
Continuous
 62
     7
370
    25
100
AcDbLine
 10
10.6443149148
 20
5.1654081187
 30
0.0
 11
10.6443149148
 21
5.0060935436
 31
0.0
  0
ARC
  5
16E
330
1F
100
AcDbEntity
  8
0
  6
Continuous
 62
     7
370
    25
100
AcDbCircle
 10
10.4443149148
 20
5.0060935436
 30
0.0
 40
0.2000000000000011
100
AcDbArc
 50
315.0
 51
0.0
  0
LINE
  5
16F
330
1F
100
AcDbEntity
  8
0
  6
Continuous
 62
     7
370
    25
100
AcDbLine
 10
10.585736271
 20
4.8646721874
 30
0.0
 11
10.5630218715
 21
4.8419577879
 31
0.0
  0
ARC
  5
170
330
1F
100
AcDbEntity
  8
0
  6
Continuous
 62
     7
370
    25
100
AcDbCircle
 10
10.7044432278
 20
4.7005364317
 30
0.0
 40
0.200000000000001
100
AcDbArc
 50
135.0
 51
181.7433859089
  0
LINE
  5
171
330
1F
100
AcDbEntity
  8
0
  6
Continuous
 62
     7
370
    25
100
AcDbLine
 10
10.5045360407
 20
4.6944518155
 30
0.0
 11
10.5191019621
 21
4.2171350796
 31
0.0
  0
ARC
  5
172
330
1F
100
AcDbEntity
  8
0
  6
Continuous
 62
     7
370
    25
100
AcDbCircle
 10
10.719006408
 20
4.2232508311
 30
0.0
 40
0.1999999999999998
100
AcDbArc
 50
181.7523236467
 51
270.0
  0
LINE
  5
173
330
1F
100
AcDbEntity
  8
0
  6
Continuous
 62
     7
370
    25
100
AcDbLine
 10
10.719006408
 20
4.0232508311
 30
0.0
 11
18.3235883697
 21
4.0232508311
 31
0.0
  0
ARC
  5
174
330
1F
100
AcDbEntity
  8
0
  6
Continuous
 62
     7
370
    25
100
AcDbCircle
 10
18.3235883697
 20
4.2232508311
 30
0.0
 40
0.2000000000000006
100
AcDbArc
 50
270.0
 51
358.2476763532
  0
LINE
  5
175
330
1F
100
AcDbEntity
  8
0
  6
Continuous
 62
     7
370
    25
100
AcDbLine
 10
18.5234928157
 20
4.2171350845
 30
0.0
 11
18.5380587369
 21
4.694451813
 31
0.0
  0
ARC
  5
176
330
1F
100
AcDbEntity
  8
0
  6
Continuous
 62
     7
370
    25
100
AcDbCircle
 10
18.3381515499
 20
4.7005364317
 30
0.0
 40
0.199999999999999
100
AcDbArc
 50
358.2566140912
 51
45.0
  0
LINE
  5
177
330
1F
100
AcDbEntity
  8
0
  6
Continuous
 62
     7
370
    25
100
AcDbLine
 10
18.4568585067
 20
4.8646721874
 30
0.0
 11
18.4795729061
 21
4.8419577879
 31
0.0
  0
ARC
  5
178
330
1F
100
AcDbEntity
  8
0
  6
Continuous
 62
     7
370
    25
100
AcDbCircle
 10
18.5982798629
 20
5.0060935436
 30
0.0
 40
0.2000000000000028
100
AcDbArc
 50
180.0
 51
225.0
  0
LINE
  5
179
330
1F
100
AcDbEntity
  8
0
  6
Continuous
 62
     7
370
    25
100
AcDbLine
 10
18.3982798629
 20
5.1654081187
 30
0.0
 11
18.3982798629
 21
5.0060935436
 31
0.0
  0
ARC
  5
17A
330
1F
100
AcDbEntity
  8
0
  6
Continuous
 62
     7
370
    25
100
AcDbCircle
 10
18.5982798629
 20
5.1654081187
 30
0.0
 40
0.2000000000000028
100
AcDbArc
 50
135.0
 51
180.0
  0
LINE
  5
17B
330
1F
100
AcDbEntity
  8
0
  6
Continuous
 62
     7
370
    25
100
AcDbLine
 10
18.5036659056
 20
5.3536368738
 30
0.0
 11
18.4568585067
 21
5.3068294749
 31
0.0
  0
ARC
  5
17C
330
1F
100
AcDbEntity
  8
0
  6
Continuous
 62
     7
370
    25
100
AcDbCircle
 10
18.3622445494
 20
5.4950582301
 30
0.0
 40
0.2000000000000013
100
AcDbArc
 50
315.0
 51
358.2671581585
  0
LINE
  5
17D
330
1F
100
AcDbEntity
  8
0
  6
Continuous
 62
     7
370
    25
100
AcDbLine
 10
18.5621517089
 20
5.4890104349
 30
0.0
 11
18.5630634692
 21
5.5191027688
 31
0.0
  0
LINE
  5
17E
330
1F
100
AcDbEntity
  8
0
  6
Continuous
 62
     7
370
    25
100
AcDbLine
 10
18.5630634692
 20
5.5191027688
 30
0.0
 11
18.5750205701
 21
5.9141840126
 31
0.0
  0
LINE
  5
17F
330
1F
100
AcDbEntity
  8
0
  6
Continuous
 62
     7
370
    25
100
AcDbLine
 10
18.5750205701
 20
5.9141840126
 30
0.0
 11
18.5758800704
 21
5.9425471961
 31
0.0
  0
LINE
  5
180
330
1F
100
AcDbEntity
  8
0
  6
Continuous
 62
     7
370
    25
100
AcDbLine
 10
18.5758800704
 20
5.9425471961
 30
0.0
 11
18.5789146118
 21
6.0423953926
 31
0.0
  0
SPLINE
  5
181
330
1F
100
AcDbEntity
  8
0
  6
Continuous
 62
     7
370
    25
100
AcDbSpline
210
0.0
220
0.0
230
1.0
 70
     8
 71
     3
 72
     8
 73
     4
 74
     0
 42
0.00000001
 43
0.00000001
 40
0.0
 40
0.0
 40
0.0
 40
0.0
 40
0.0128787094613044
 40
0.0128787094613044
 40
0.0128787094613044
 40
0.0128787094613044
 10
18.59363689962525
 20
6.549217223336909
 30
0.0
 10
18.58897091379855
 20
6.380269740521684
 30
0.0
 10
18.58406010459609
 20
6.211328983538481
 30
0.0
 10
18.57891461175084
 20
6.042395392623951
 30
0.0
  0
SPLINE
  5
182
330
1F
100
AcDbEntity
  8
0
  6
Continuous
 62
     7
370
    25
100
AcDbSpline
210
0.0
220
0.0
230
1.0
 70
     8
 71
     3
 72
    10
 73
     6
 74
     0
 42
0.00000001
 43
0.00000001
 40
0.0
 40
0.0
 40
0.0
 40
0.0
 40
0.3162495094011213
 40
0.3162495094011213
 40
0.8162495094011213
 40
0.8162495094011213
 40
0.8162495094011213
 40
0.8162495094011213
 10
18.56522781440709
 20
6.920846637931806
 30
0.0
 10
18.57385811956201
 20
6.873393442707401
 30
0.0
 10
18.58057641177278
 20
6.825606992229909
 30
0.0
 10
18.59296067441027
 20
6.701757119241622
 30
0.0
 10
18.59574319190021
 20
6.625482466723644
 30
0.0
 10
18.59363689962525
 20
6.549217223336909
 30
0.0
  0
ARC
  5
183
330
1F
100
AcDbEntity
  8
0
  6
Continuous
 62
     7
370
    25
100
AcDbCircle
 10
18.3684556218
 20
6.8850597101
 30
0.0
 40
0.1999999999999982
100
AcDbArc
 50
10.3077116768
 51
35.0
  0
LINE
  5
184
330
1F
100
AcDbEntity
  8
0
  6
Continuous
 62
     7
370
    25
100
AcDbLine
 10
18.5322860306
 20
6.9997749974
 30
0.0
 11
18.271876575
 21
7.3716782424
 31
0.0
  0
ARC
  5
185
330
1F
100
AcDbEntity
  8
0
  6
Continuous
 62
     7
370
    25
100
AcDbCircle
 10
18.4357069839
 20
7.4863935296
 30
0.0
 40
0.2000000000000005
100
AcDbArc
 50
170.0
 51
215.0
  0
LINE
  5
186
330
1F
100
AcDbEntity
  8
0
  6
Continuous
 62
     7
370
    25
100
AcDbLine
 10
18.2387454333
 20
7.5211231652
 30
0.0
 11
18.2740332628
 21
7.7212503913
 31
0.0
  0
LINE
  5
187
330
1F
100
AcDbEntity
  8
0
  6
Continuous
 62
     7
370
    25
100
AcDbLine
 10
18.6982798629
 20
5.1482508311
 30
0.0
 11
18.6982798629
 21
5.0232508311
 31
0.0
  0
LINE
  5
188
330
1F
100
AcDbEntity
  8
0
  6
Continuous
 62
     7
370
    25
100
AcDbLine
 10
18.6982798629
 20
5.0232508311
 30
0.0
 11
19.0482798629
 21
5.0232508311
 31
0.0
  0
LWPOLYLINE
  5
189
330
1F
100
AcDbEntity
  8
0
  6
Continuous
 62
     7
370
    25
100
AcDbPolyline
 90
        3
 70
   128
 43
0.0
 10
19.0482798629
 20
5.0232508311
 10
19.0451690618
 20
4.9207265189
 10
19.0427221608
 20
4.8401720144
  0
SPLINE
  5
18A
330
1F
100
AcDbEntity
  8
0
  6
Continuous
 62
     7
370
    25
100
AcDbSpline
210
0.0
220
0.0
230
1.0
 70
     8
 71
     3
 72
     8
 73
     4
 74
     0
 42
0.00000001
 43
0.00000001
 40
0.0
 40
0.0
 40
0.0
 40
0.0
 40
1.0
 40
1.0
 40
1.0
 40
1.0
 10
19.04272216081775
 20
4.840172014425966
 30
0.0
 10
19.0242133527928
 20
4.231171407678121
 30
0.0
 10
19.00555787881111
 20
3.622262882859195
 30
0.0
 10
18.98660991376449
 20
3.013529219531664
 30
0.0
  0
SPLINE
  5
18B
330
1F
100
AcDbEntity
  8
0
  6
Continuous
 62
     7
370
    25
100
AcDbSpline
210
0.0
220
0.0
230
1.0
 70
     8
 71
     3
 72
     8
 73
     4
 74
     0
 42
0.00000001
 43
0.00000001
 40
0.0
 40
0.0
 40
0.0
 40
0.0
 40
1.0
 40
1.0
 40
1.0
 40
1.0
 10
18.98660991376449
 20
3.013529219531664
 30
0.0
 10
18.98508260777089
 20
2.96446205041895
 30
0.0
 10
18.9835442411691
 20
2.915396992876809
 30
0.0
 10
18.98200727792008
 20
2.866333712837988
 30
0.0
  0
LWPOLYLINE
  5
18C
330
1F
100
AcDbEntity
  8
0
  6
Continuous
 62
     7
370
    25
100
AcDbPolyline
 90
        9
 70
   128
 43
0.0
 10
18.9749104396
 20
2.6388068954
 10
18.9757939643
 20
2.6672478591
 10
18.9766785118
 20
2.695688791
 10
18.9775640823
 20
2.7241296911
 10
18.9784506756
 20
2.7525705593
 10
18.9793382919
 20
2.7810113957
 10
18.980226931
 20
2.8094522
 10
18.981116593
 20
2.8378929725
 10
18.982007278
 20
2.8663337128
  0
SPLINE
  5
18D
330
1F
100
AcDbEntity
  8
0
  6
Continuous
 62
     7
370
    25
100
AcDbSpline
210
0.0
220
0.0
230
1.0
 70
     8
 71
     3
 72
     8
 73
     4
 74
     0
 42
0.00000001
 43
0.00000001
 40
0.0
 40
0.0
 40
0.0
 40
0.0
 40
1.0
 40
1.0
 40
1.0
 40
1.0
 10
18.97491043964589
 20
2.638806895371644
 30
0.0
 10
18.97043975602421
 20
2.494810611749756
 30
0.0
 10
18.95176696111447
 20
2.351243951768851
 30
0.0
 10
18.91935245390136
 20
2.210948774712884
 30
0.0
  0
ARC
  5
18E
330
1F
100
AcDbEntity
  8
0
  6
Continuous
 62
     7
370
    25
100
AcDbCircle
 10
16.8512000042
 20
2.6887851758
 30
0.0
 40
2.122635671901554
100
AcDbArc
 50
342.2169203764
 51
346.9903794857
  0
SPLINE
  5
18F
330
1F
100
AcDbEntity
  8
0
  6
Continuous
 62
     7
370
    25
100
AcDbSpline
210
0.0
220
0.0
230
1.0
 70
     8
 71
     3
 72
     8
 73
     4
 74
     0
 42
0.00000001
 43
0.00000001
 40
0.0
 40
0.0
 40
0.0
 40
0.0
 40
1.0
 40
1.0
 40
1.0
 40
1.0
 10
18.87241535727077
 20
2.040502285294698
 30
0.0
 10
18.82087745268846
 20
1.879817489308549
 30
0.0
 10
18.75005212559127
 20
1.72531113853033
 30
0.0
 10
18.66197291776764
 20
1.581302105377156
 30
0.0
  0
SPLINE
  5
190
330
1F
100
AcDbEntity
  8
0
  6
Continuous
 62
     7
370
    25
100
AcDbSpline
210
0.0
220
0.0
230
1.0
 70
     8
 71
     3
 72
    11
 73
     7
 74
     0
 42
0.00000001
 43
0.00000001
 40
0.0
 40
0.0
 40
0.0
 40
0.0
 40
0.25
 40
0.5
 40
0.75
 40
1.0
 40
1.0
 40
1.0
 40
1.0
 10
18.66197291776764
 20
1.581302105377156
 30
0.0
 10
18.60415489344178
 20
1.486769943894318
 30
0.0
 10
18.47364611908309
 20
1.306747385608327
 30
0.0
 10
18.23812589454137
 20
1.070568029542959
 30
0.0
 10
17.96854496168484
 20
0.8740091979442653
 30
0.0
 10
17.77047159774424
 20
0.7725855924439653
 30
0.0
 10
17.66807453623688
 20
0.7299176526951988
 30
0.0
  0
SPLINE
  5
191
330
1F
100
AcDbEntity
  8
0
  6
Continuous
 62
     7
370
    25
100
AcDbSpline
210
0.0
220
0.0
230
1.0
 70
     8
 71
     3
 72
     8
 73
     4
 74
     0
 42
0.00000001
 43
0.00000001
 40
0.0
 40
0.0
 40
0.0
 40
0.0
 40
1.0
 40
1.0
 40
1.0
 40
1.0
 10
17.66807453623688
 20
0.7299176526951988
 30
0.0
 10
17.46091011898405
 20
0.6435940939797828
 30
0.0
 10
17.23993240588786
 20
0.5905294838511274
 30
0.0
 10
17.01615166897415
 20
0.5733559559215861
 30
0.0
  0
ARC
  5
192
330
1F
100
AcDbEntity
  8
0
  6
Continuous
 62
     7
370
    25
100
AcDbCircle
 10
16.8540424035
 20
2.6858312443
 30
0.0
 40
2.118686209675854
100
AcDbArc
 50
270.1643437851
 51
274.3882210726
  0
ARC
  5
193
330
1F
100
AcDbEntity
  8
0
  6
Continuous
 62
     7
370
    25
100
AcDbCircle
 10
16.7425586074
 20
41.5527313766
 30
0.0
 40
40.98574622747233
100
AcDbArc
 50
269.9112815257
 51
270.1643437851
  0
LINE
  5
194
330
1F
100
AcDbEntity
  8
0
  6
Continuous
 62
     7
370
    25
100
AcDbLine
 10
16.6790950949
 20
0.5670342841
 30
0.0
 11
16.5903400384
 21
0.5671717152
 31
0.0
  0
LWPOLYLINE
  5
195
330
1F
100
AcDbEntity
  8
0
  6
Continuous
 62
     7
370
    25
100
AcDbPolyline
 90
        3
 70
   128
 43
0.0
 10
16.5903400384
 20
0.5671717152
 10
16.4809654824
 20
0.5673429103
 10
16.3950296636
 20
0.5674915562
  0
SPLINE
  5
196
330
1F
100
AcDbEntity
  8
0
  6
Continuous
 62
     7
370
    25
100
AcDbSpline
210
0.0
220
0.0
230
1.0
 70
     8
 71
     3
 72
     8
 73
     4
 74
     0
 42
0.00000001
 43
0.00000001
 40
0.0
 40
0.0
 40
0.0
 40
0.0
 40
1.0
 40
1.0
 40
1.0
 40
1.0
 10
16.39502966356138
 20
0.5674915562271263
 30
0.0
 10
15.81190634168754
 20
0.568576568594361
 30
0.0
 10
15.22895911577139
 20
0.5702478218995302
 30
0.0
 10
14.64629738883898
 20
0.5722676922130685
 30
0.0
  0
LINE
  5
197
330
1F
100
AcDbEntity
  8
0
  6
Continuous
 62
     7
370
    25
100
AcDbLine
 10
14.6462973888
 20
1.3222676922
 30
0.0
 11
14.6462973888
 21
0.5722676922
 31
0.0
  0
LINE
  5
198
330
1F
100
AcDbEntity
  8
0
  6
Continuous
 62
     7
370
    25
100
AcDbLine
 10
14.3962973888
 20
1.3222676922
 30
0.0
 11
14.6462973888
 21
1.3222676922
 31
0.0
  0
LINE
  5
199
330
1F
100
AcDbEntity
  8
0
  6
Continuous
 62
     7
370
    25
100
AcDbLine
 10
14.3962973888
 20
0.5722676922
 30
0.0
 11
14.3962973888
 21
1.3222676922
 31
0.0
  0
SPLINE
  5
19A
330
1F
100
AcDbEntity
  8
0
  6
Continuous
 62
     7
370
    25
100
AcDbSpline
210
0.0
220
0.0
230
1.0
 70
     8
 71
     3
 72
     8
 73
     4
 74
     0
 42
0.00000001
 43
0.00000001
 40
0.0
 40
0.0
 40
0.0
 40
0.0
 40
1.0
 40
1.0
 40
1.0
 40
1.0
 10
12.64756511411536
 20
0.5674915562271263
 30
0.0
 10
13.23068843598921
 20
0.568576568594361
 30
0.0
 10
13.81363566190536
 20
0.5702478218995302
 30
0.0
 10
14.39629738883777
 20
0.5722676922130685
 30
0.0
  0
LWPOLYLINE
  5
19B
330
1F
100
AcDbEntity
  8
0
  6
Continuous
 62
     7
370
    25
100
AcDbPolyline
 90
        3
 70
   128
 43
0.0
 10
12.4522547392
 20
0.5671717152
 10
12.5616292953
 20
0.5673429103
 10
12.6475651141
 20
0.5674915562
  0
LINE
  5
19C
330
1F
100
AcDbEntity
  8
0
  6
Continuous
 62
     7
370
    25
100
AcDbLine
 10
12.3634996827
 20
0.5670342841
 30
0.0
 11
12.4522547392
 21
0.5671717152
 31
0.0
  0
ARC
  5
19D
330
1F
100
AcDbEntity
  8
0
  6
Continuous
 62
     7
370
    25
100
AcDbCircle
 10
12.3000361702
 20
41.5527313766
 30
0.0
 40
40.98574622877794
100
AcDbArc
 50
269.8356562149
 51
270.0887184743
  0
ARC
  5
19E
330
1F
100
AcDbEntity
  8
0
  6
Continuous
 62
     7
370
    25
100
AcDbCircle
 10
12.1885523742
 20
2.6858312443
 30
0.0
 40
2.118686209675856
100
AcDbArc
 50
265.6117789274
 51
269.8356562149
  0
SPLINE
  5
19F
330
1F
100
AcDbEntity
  8
0
  6
Continuous
 62
     7
370
    25
100
AcDbSpline
210
0.0
220
0.0
230
1.0
 70
     8
 71
     3
 72
     8
 73
     4
 74
     0
 42
0.00000001
 43
0.00000001
 40
0.0
 40
0.0
 40
0.0
 40
0.0
 40
1.0
 40
1.0
 40
1.0
 40
1.0
 10
11.37452024143986
 20
0.7299176526951988
 30
0.0
 10
11.58168465869269
 20
0.6435940939797828
 30
0.0
 10
11.80266237178889
 20
0.5905294838511274
 30
0.0
 10
12.02644310870259
 20
0.5733559559215861
 30
0.0
  0
SPLINE
  5
1A0
330
1F
100
AcDbEntity
  8
0
  6
Continuous
 62
     7
370
    25
100
AcDbSpline
210
0.0
220
0.0
230
1.0
 70
     8
 71
     3
 72
    11
 73
     7
 74
     0
 42
0.00000001
 43
0.00000001
 40
0.0
 40
0.0
 40
0.0
 40
0.0
 40
0.25
 40
0.5
 40
0.75
 40
1.0
 40
1.0
 40
1.0
 40
1.0
 10
10.38062185990911
 20
1.581302105377156
 30
0.0
 10
10.43843988423496
 20
1.486769943894318
 30
0.0
 10
10.56894865859366
 20
1.306747385608327
 30
0.0
 10
10.80446888313538
 20
1.070568029542959
 30
0.0
 10
11.0740498159919
 20
0.8740091979442653
 30
0.0
 10
11.2721231799325
 20
0.7725855924439653
 30
0.0
 10
11.37452024143986
 20
0.7299176526951988
 30
0.0
  0
SPLINE
  5
1A1
330
1F
100
AcDbEntity
  8
0
  6
Continuous
 62
     7
370
    25
100
AcDbSpline
210
0.0
220
0.0
230
1.0
 70
     8
 71
     3
 72
     8
 73
     4
 74
     0
 42
0.00000001
 43
0.00000001
 40
0.0
 40
0.0
 40
0.0
 40
0.0
 40
1.0
 40
1.0
 40
1.0
 40
1.0
 10
10.17017942040597
 20
2.040502285294698
 30
0.0
 10
10.22171732498828
 20
1.879817489308549
 30
0.0
 10
10.29254265208547
 20
1.72531113853033
 30
0.0
 10
10.38062185990911
 20
1.581302105377156
 30
0.0
  0
ARC
  5
1A2
330
1F
100
AcDbEntity
  8
0
  6
Continuous
 62
     7
370
    25
100
AcDbCircle
 10
12.1913947735
 20
2.6887851758
 30
0.0
 40
2.122635671901556
100
AcDbArc
 50
193.0096205143
 51
197.7830796236
  0
SPLINE
  5
1A3
330
1F
100
AcDbEntity
  8
0
  6
Continuous
 62
     7
370
    25
100
AcDbSpline
210
0.0
220
0.0
230
1.0
 70
     8
 71
     3
 72
     8
 73
     4
 74
     0
 42
0.00000001
 43
0.00000001
 40
0.0
 40
0.0
 40
0.0
 40
0.0
 40
1.0
 40
1.0
 40
1.0
 40
1.0
 10
10.06768433803086
 20
2.638806895371644
 30
0.0
 10
10.07215502165254
 20
2.494810611749756
 30
0.0
 10
10.09082781656227
 20
2.351243951768851
 30
0.0
 10
10.12324232377538
 20
2.210948774712884
 30
0.0
  0
LWPOLYLINE
  5
1A4
330
1F
100
AcDbEntity
  8
0
  6
Continuous
 62
     7
370
    25
100
AcDbPolyline
 90
        9
 70
   128
 43
0.0
 10
10.0676843381
 20
2.6388068954
 10
10.0668008134
 20
2.6672478591
 10
10.0659162658
 20
2.695688791
 10
10.0650306954
 20
2.7241296911
 10
10.064144102
 20
2.7525705593
 10
10.0632564858
 20
2.7810113957
 10
10.0623678467
 20
2.8094522
 10
10.0614781846
 20
2.8378929725
 10
10.0605874997
 20
2.8663337128
  0
SPLINE
  5
1A5
330
1F
100
AcDbEntity
  8
0
  6
Continuous
 62
     7
370
    25
100
AcDbSpline
210
0.0
220
0.0
230
1.0
 70
     8
 71
     3
 72
     8
 73
     4
 74
     0
 42
0.00000001
 43
0.00000001
 40
0.0
 40
0.0
 40
0.0
 40
0.0
 40
1.0
 40
1.0
 40
1.0
 40
1.0
 10
10.05598486391225
 20
3.013529219531664
 30
0.0
 10
10.05751216990585
 20
2.96446205041895
 30
0.0
 10
10.05905053650765
 20
2.915396992876809
 30
0.0
 10
10.06058749975667
 20
2.866333712837988
 30
0.0
  0
SPLINE
  5
1A6
330
1F
100
AcDbEntity
  8
0
  6
Continuous
 62
     7
370
    25
100
AcDbSpline
210
0.0
220
0.0
230
1.0
 70
     8
 71
     3
 72
     8
 73
     4
 74
     0
 42
0.00000001
 43
0.00000001
 40
0.0
 40
0.0
 40
0.0
 40
0.0
 40
1.0
 40
1.0
 40
1.0
 40
1.0
 10
9.999872616858992
 20
4.840172014425966
 30
0.0
 10
10.01838142488395
 20
4.231171407678121
 30
0.0
 10
10.03703689886564
 20
3.622262882859195
 30
0.0
 10
10.05598486391225
 20
3.013529219531664
 30
0.0
  0
LWPOLYLINE
  5
1A7
330
1F
100
AcDbEntity
  8
0
  6
Continuous
 62
     7
370
    25
100
AcDbPolyline
 90
        3
 70
   128
 43
0.0
 10
9.9943149148
 20
5.0232508311
 10
9.9974257158
 20
4.9207265189
 10
9.9998726169
 20
4.8401720144
  0
LINE
  5
1A8
330
1F
100
AcDbEntity
  8
0
  6
Continuous
 62
     7
370
    25
100
AcDbLine
 10
10.3443149148
 20
5.0232508311
 30
0.0
 11
9.9943149148
 21
5.0232508311
 31
0.0
  0
LINE
  5
1A9
330
1F
100
AcDbEntity
  8
0
  6
Continuous
 62
     7
370
    25
100
AcDbLine
 10
10.3443149148
 20
5.1482508311
 30
0.0
 11
10.3443149148
 21
5.0232508311
 31
0.0
  0
LINE
  5
1AA
330
1F
100
AcDbEntity
  8
0
  6
Continuous
 62
     7
370
    25
100
AcDbLine
 10
9.9905264362
 20
5.1482508311
 30
0.0
 11
10.3443149148
 21
5.1482508311
 31
0.0
  0
LWPOLYLINE
  5
1AB
330
1F
100
AcDbEntity
  8
0
  6
Continuous
 62
     7
370
    25
100
AcDbPolyline
 90
        3
 70
   128
 43
0.0
 10
9.9797599606
 20
5.5039832507
 10
9.9857874088
 20
5.3047727106
 10
9.9905264362
 20
5.1482508311
  0
LWPOLYLINE
  5
1AC
330
1F
100
AcDbEntity
  8
0
  6
Continuous
 62
     7
370
    25
100
AcDbPolyline
 90
        3
 70
   128
 43
0.0
 10
9.9678035007
 20
5.8990433193
 10
9.9745007244
 20
5.6778098024
 10
9.9797599606
 20
5.5039832507
  0
LINE
  5
1AD
330
1F
100
AcDbEntity
  8
0
  6
Continuous
 62
     7
370
    25
100
AcDbLine
 10
9.9669444074
 20
5.9273930763
 30
0.0
 11
9.9678035007
 21
5.8990433193
 31
0.0
  0
LWPOLYLINE
  5
1AE
330
1F
100
AcDbEntity
  8
0
  6
Continuous
 62
     7
370
    25
100
AcDbPolyline
 90
        3
 70
   128
 43
0.0
 10
9.9639119377
 20
6.0271731056
 10
9.9656118082
 20
5.9712960948
 10
9.9669444074
 20
5.9273930763
  0
SPLINE
  5
1AF
330
1F
100
AcDbEntity
  8
0
  6
Continuous
 62
     7
370
    25
100
AcDbSpline
210
0.0
220
0.0
230
1.0
 70
     8
 71
     3
 72
     8
 73
     4
 74
     0
 42
0.00000001
 43
0.00000001
 40
0.0
 40
0.0
 40
0.0
 40
0.0
 40
1.0
 40
1.0
 40
1.0
 40
1.0
 10
9.949148457045753
 20
6.535413503769123
 30
0.0
 10
9.95382732521628
 20
6.365999572995698
 30
0.0
 10
9.958752055541327
 20
6.196579115994113
 30
0.0
 10
9.963911937666975
 20
6.027173105577439
 30
0.0
  0
SPLINE
  5
1B0
330
1F
100
AcDbEntity
  8
0
  6
Continuous
 62
     7
370
    25
100
AcDbSpline
210
0.0
220
0.0
230
1.0
 70
     8
 71
     3
 72
     8
 73
     4
 74
     0
 42
0.00000001
 43
0.00000001
 40
0.0
 40
0.0
 40
0.0
 40
0.0
 40
1.0
 40
1.0
 40
1.0
 40
1.0
 10
10.00714646179692
 20
7.115613805558759
 30
0.0
 10
9.963334902752662
 20
6.925739191174613
 30
0.0
 10
9.943768244551729
 20
6.730221802791434
 30
0.0
 10
9.949148457045753
 20
6.535413503769123
 30
0.0
  0
ARC
  5
1B1
330
1F
100
AcDbEntity
  8
0
  6
Continuous
 62
     7
370
    25
100
AcDbCircle
 10
14.5541180787
 20
6.0664481964
 30
0.0
 40
4.666443973791292
100
AcDbArc
 50
164.406599089
 51
167.007004703
  0
SPLINE
  5
1B2
330
1F
100
AcDbEntity
  8
0
  6
Continuous
 62
     7
370
    25
100
AcDbSpline
210
0.0
220
0.0
230
1.0
 70
     8
 71
     3
 72
     8
 73
     4
 74
     0
 42
0.00000001
 43
0.00000001
 40
0.0
 40
0.0
 40
0.0
 40
0.0
 40
1.0
 40
1.0
 40
1.0
 40
1.0
 10
10.15673130349821
 20
7.62805449329958
 30
0.0
 10
10.12077472659453
 20
7.526808647560257
 30
0.0
 10
10.08831187636179
 20
7.424319877118097
 30
0.0
 10
10.05942941884883
 20
7.320829801546738
 30
0.0
  0
LINE
  5
1B3
330
1F
100
AcDbEntity
  8
0
  6
Continuous
 62
     7
370
    25
100
AcDbLine
 10
10.1567313035
 20
7.6280544933
 30
0.0
 11
10.443434519
 21
7.4273027406
 31
0.0
  0
LINE
  5
1B4
330
1F
100
AcDbEntity
  8
0
  6
Continuous
 62
     7
370
    25
100
AcDbLine
 10
10.443434519
 20
7.4273027406
 30
0.0
 11
10.5151315735
 21
7.5296967461
 31
0.0
  0
LINE
  5
1B5
330
1F
100
AcDbEntity
  8
0
  6
Continuous
 62
     7
370
    25
100
AcDbLine
 10
10.5151315735
 20
7.5296967461
 30
0.0
 11
10.2016513519
 21
7.7491979604
 31
0.0
  0
SPLINE
  5
1B6
330
1F
100
AcDbEntity
  8
0
  6
Continuous
 62
     7
370
    25
100
AcDbSpline
210
0.0
220
0.0
230
1.0
 70
     8
 71
     3
 72
     8
 73
     4
 74
     0
 42
0.00000001
 43
0.00000001
 40
0.0
 40
0.0
 40
0.0
 40
0.0
 40
1.0
 40
1.0
 40
1.0
 40
1.0
 10
10.29347769709
 20
7.969742632930343
 30
0.0
 10
10.26099175920142
 20
7.897029556025504
 30
0.0
 10
10.23037121030544
 20
7.82348185905597
 30
0.0
 10
10.20165135189327
 20
7.749197960391733
 30
0.0
  0
SPLINE
  5
1B7
330
1F
100
AcDbEntity
  8
0
  6
Continuous
 62
     7
370
    25
100
AcDbSpline
210
0.0
220
0.0
230
1.0
 70
     8
 71
     3
 72
     8
 73
     4
 74
     0
 42
0.00000001
 43
0.00000001
 40
0.0
 40
0.0
 40
0.0
 40
0.0
 40
1.0
 40
1.0
 40
1.0
 40
1.0
 10
10.75103367392289
 20
8.77030205557628
 30
0.0
 10
10.57258328375846
 20
8.51944712470464
 30
0.0
 10
10.41906571589489
 20
8.250845526983005
 30
0.0
 10
10.29347769709
 20
7.969742632930342
 30
0.0
  0
ARC
  5
1B8
330
1F
100
AcDbEntity
  8
0
  6
Continuous
 62
     7
370
    25
100
AcDbCircle
 10
15.1896452464
 20
5.6128119311
 30
0.0
 40
5.447110839171488
100
AcDbArc
 50
143.0526706694
 51
144.5731371675
  0
ARC
  5
1B9
330
1F
100
AcDbEntity
  8
0
  6
Continuous
 62
     7
370
    25
100
AcDbCircle
 10
14.4937308456
 20
6.1362187315
 30
0.0
 40
4.576334443059229
100
AcDbArc
 50
142.1963778659
 51
143.0526706694
  0
SPLINE
  5
1BA
330
1F
100
AcDbEntity
  8
0
  6
Continuous
 62
     7
370
    25
100
AcDbSpline
210
0.0
220
0.0
230
1.0
 70
     8
 71
     3
 72
     8
 73
     4
 74
     0
 42
0.00000001
 43
0.00000001
 40
0.0
 40
0.0
 40
0.0
 40
0.0
 40
1.0
 40
1.0
 40
1.0
 40
1.0
 10
11.7984564137178
 20
9.835746413623685
 30
0.0
 10
11.45179425580115
 20
9.582400073340139
 30
0.0
 10
11.14094018540962
 20
9.280367132797304
 30
0.0
 10
10.87789456496544
 20
8.94131498983704
 30
0.0
  0
ARC
  5
1BB
330
1F
100
AcDbEntity
  8
0
  6
Continuous
 62
     7
370
    25
100
AcDbCircle
 10
14.4924311695
 20
6.1494918533
 30
0.0
 40
4.565739008336108
100
AcDbArc
 50
125.8223663073
 51
126.159941786
  0
SPLINE
  5
1BC
330
1F
100
AcDbEntity
  8
0
  6
Continuous
 62
     7
370
    25
100
AcDbSpline
210
0.0
220
0.0
230
1.0
 70
     8
 71
     3
 72
     8
 73
     4
 74
     0
 42
0.00000001
 43
0.00000001
 40
0.0
 40
0.0
 40
0.0
 40
0.0
 40
1.0
 40
1.0
 40
1.0
 40
1.0
 10
12.60953548828949
 20
10.30986572478675
 30
0.0
 10
12.33211152356195
 20
10.18366105459154
 30
0.0
 10
12.0672809138017
 20
10.02988694011404
 30
0.0
 10
11.82022173103779
 20
9.851554715317253
 30
0.0
  0
SPLINE
  5
1BD
330
1F
100
AcDbEntity
  8
0
  6
Continuous
 62
     7
370
    25
100
AcDbSpline
210
0.0
220
0.0
230
1.0
 70
     8
 71
     3
 72
     9
 73
     5
 74
     0
 42
0.00000001
 43
0.00000001
 40
0.0
 40
0.0
 40
0.0
 40
0.0
 40
0.4999999999999999
 40
1.0
 40
1.0
 40
1.0
 40
1.0
 10
14.45879738883837
 20
10.72377820625082
 30
0.0
 10
14.14069483548284
 20
10.71947353738506
 30
0.0
 10
13.5054102112692
 20
10.64489984239582
 30
0.0
 10
12.8990312874411
 20
10.44156207124451
 30
0.0
 10
12.60953548828949
 20
10.30986572478675
 30
0.0
  0
LINE
  5
1BE
330
1F
100
AcDbEntity
  8
0
  6
Continuous
 62
     7
370
    25
100
AcDbLine
 10
14.4587973888
 20
10.7237782063
 30
0.0
 11
14.4587973888
 21
10.1237782063
 31
0.0
  0
LINE
  5
1BF
330
1F
100
AcDbEntity
  8
0
  6
Continuous
 62
     7
370
    25
100
AcDbLine
 10
14.4587973888
 20
10.1237782063
 30
0.0
 11
14.5837973888
 21
10.1237782063
 31
0.0
  0
LINE
  5
1C0
330
1F
100
AcDbEntity
  8
0
  6
Continuous
 62
     7
370
    25
100
AcDbLine
 10
14.5837973888
 20
10.1237782063
 30
0.0
 11
14.5837973888
 21
10.7237782063
 31
0.0
  0
SPLINE
  5
1C1
330
1F
100
AcDbEntity
  8
0
  6
Continuous
 62
     7
370
    25
100
AcDbSpline
210
0.0
220
0.0
230
1.0
 70
     8
 71
     3
 72
     9
 73
     5
 74
     0
 42
0.00000001
 43
0.00000001
 40
0.0
 40
0.0
 40
0.0
 40
0.0
 40
0.5
 40
1.0
 40
1.0
 40
1.0
 40
1.0
 10
14.58379738883825
 20
10.72377820625082
 30
0.0
 10
14.9018999421938
 20
10.71947353738507
 30
0.0
 10
15.53718456640748
 20
10.64489984239584
 30
0.0
 10
16.14356349023563
 20
10.44156207124452
 30
0.0
 10
16.43305928938726
 20
10.30986572478675
 30
0.0
  0
SPLINE
  5
1C2
330
1F
100
AcDbEntity
  8
0
  6
Continuous
 62
     7
370
    25
100
AcDbSpline
210
0.0
220
0.0
230
1.0
 70
     8
 71
     3
 72
     8
 73
     4
 74
     0
 42
0.00000001
 43
0.00000001
 40
0.0
 40
0.0
 40
0.0
 40
0.0
 40
1.0
 40
1.0
 40
1.0
 40
1.0
 10
16.43305928938726
 20
10.30986572478675
 30
0.0
 10
16.71048325411479
 20
10.18366105459154
 30
0.0
 10
16.97531386387505
 20
10.02988694011404
 30
0.0
 10
17.22237304663896
 20
9.851554715317253
 30
0.0
  0
ARC
  5
1C3
330
1F
100
AcDbEntity
  8
0
  6
Continuous
 62
     7
370
    25
100
AcDbCircle
 10
14.5501636082
 20
6.1494918533
 30
0.0
 40
4.565739008336108
100
AcDbArc
 50
53.840058214
 51
54.1776336927
  0
SPLINE
  5
1C4
330
1F
100
AcDbEntity
  8
0
  6
Continuous
 62
     7
370
    25
100
AcDbSpline
210
0.0
220
0.0
230
1.0
 70
     8
 71
     3
 72
     8
 73
     4
 74
     0
 42
0.00000001
 43
0.00000001
 40
0.0
 40
0.0
 40
0.0
 40
0.0
 40
1.0
 40
1.0
 40
1.0
 40
1.0
 10
17.24413836395895
 20
9.835746413623685
 30
0.0
 10
17.59080052187559
 20
9.582400073340139
 30
0.0
 10
17.90165459226713
 20
9.280367132797304
 30
0.0
 10
18.16470021271131
 20
8.94131498983704
 30
0.0
  0
ARC
  5
1C5
330
1F
100
AcDbEntity
  8
0
  6
Continuous
 62
     7
370
    25
100
AcDbCircle
 10
14.5488639321
 20
6.1362187315
 30
0.0
 40
4.576334443059226
100
AcDbArc
 50
36.9473293306
 51
37.8036221341
  0
ARC
  5
1C6
330
1F
100
AcDbEntity
  8
0
  6
Continuous
 62
     7
370
    25
100
AcDbCircle
 10
13.8529495313
 20
5.6128119311
 30
0.0
 40
5.447110837982207
100
AcDbArc
 50
35.4268628325
 51
36.9473293306
  0
SPLINE
  5
1C7
330
1F
100
AcDbEntity
  8
0
  6
Continuous
 62
     7
370
    25
100
AcDbSpline
210
0.0
220
0.0
230
1.0
 70
     8
 71
     3
 72
     8
 73
     4
 74
     0
 42
0.00000001
 43
0.00000001
 40
0.0
 40
0.0
 40
0.0
 40
0.0
 40
1.0
 40
1.0
 40
1.0
 40
1.0
 10
18.29156110375385
 20
8.77030205557628
 30
0.0
 10
18.47001149391828
 20
8.51944712470464
 30
0.0
 10
18.62352906178186
 20
8.250845526983005
 30
0.0
 10
18.74911708058675
 20
7.969742632930342
 30
0.0
  0
SPLINE
  5
1C8
330
1F
100
AcDbEntity
  8
0
  6
Continuous
 62
     7
370
    25
100
AcDbSpline
210
0.0
220
0.0
230
1.0
 70
     8
 71
     3
 72
     8
 73
     4
 74
     0
 42
0.00000001
 43
0.00000001
 40
0.0
 40
0.0
 40
0.0
 40
0.0
 40
1.0
 40
1.0
 40
1.0
 40
1.0
 10
18.74911708058675
 20
7.969742632930343
 30
0.0
 10
18.78160301847532
 20
7.897029556025504
 30
0.0
 10
18.81222356737131
 20
7.82348185905597
 30
0.0
 10
18.84094342578348
 20
7.749197960391733
 30
0.0
  0
LINE
  5
1C9
330
1F
100
AcDbEntity
  8
0
  6
Continuous
 62
     7
370
    25
100
AcDbLine
 10
18.5274632041
 20
7.5296967461
 30
0.0
 11
18.8409434258
 21
7.7491979604
 31
0.0
  0
LINE
  5
1CA
330
1F
100
AcDbEntity
  8
0
  6
Continuous
 62
     7
370
    25
100
AcDbLine
 10
18.5991602587
 20
7.4273027406
 30
0.0
 11
18.5274632041
 21
7.5296967461
 31
0.0
  0
LINE
  5
1CB
330
1F
100
AcDbEntity
  8
0
  6
Continuous
 62
     7
370
    25
100
AcDbLine
 10
18.8858634742
 20
7.6280544933
 30
0.0
 11
18.5991602587
 21
7.4273027406
 31
0.0
  0
SPLINE
  5
1CC
330
1F
100
AcDbEntity
  8
0
  6
Continuous
 62
     7
370
    25
100
AcDbSpline
210
0.0
220
0.0
230
1.0
 70
     8
 71
     3
 72
     8
 73
     4
 74
     0
 42
0.00000001
 43
0.00000001
 40
0.0
 40
0.0
 40
0.0
 40
0.0
 40
1.0
 40
1.0
 40
1.0
 40
1.0
 10
18.88586347417854
 20
7.628054493299581
 30
0.0
 10
18.92182005108222
 20
7.526808647560257
 30
0.0
 10
18.95428290131496
 20
7.424319877118097
 30
0.0
 10
18.98316535882792
 20
7.320829801546738
 30
0.0
  0
ARC
  5
1CD
330
1F
100
AcDbEntity
  8
0
  6
Continuous
 62
     7
370
    25
100
AcDbCircle
 10
14.488476699
 20
6.0664481964
 30
0.0
 40
4.666443973791292
100
AcDbArc
 50
12.992995297
 51
15.593400911
  0
SPLINE
  5
1CE
330
1F
100
AcDbEntity
  8
0
  6
Continuous
 62
     7
370
    25
100
AcDbSpline
210
0.0
220
0.0
230
1.0
 70
     8
 71
     3
 72
     8
 73
     4
 74
     0
 42
0.00000001
 43
0.00000001
 40
0.0
 40
0.0
 40
0.0
 40
0.0
 40
1.0
 40
1.0
 40
1.0
 40
1.0
 10
19.03544831587982
 20
7.115613805558759
 30
0.0
 10
19.07925987492408
 20
6.925739191174613
 30
0.0
 10
19.09882653312502
 20
6.730221802791434
 30
0.0
 10
19.09344632063099
 20
6.535413503769123
 30
0.0
  0
SPLINE
  5
1CF
330
1F
100
AcDbEntity
  8
0
  6
Continuous
 62
     7
370
    25
100
AcDbSpline
210
0.0
220
0.0
230
1.0
 70
     8
 71
     3
 72
     8
 73
     4
 74
     0
 42
0.00000001
 43
0.00000001
 40
0.0
 40
0.0
 40
0.0
 40
0.0
 40
1.0
 40
1.0
 40
1.0
 40
1.0
 10
19.09344632063099
 20
6.535413503769123
 30
0.0
 10
19.08876745246047
 20
6.365999572995698
 30
0.0
 10
19.08384272213542
 20
6.196579115994113
 30
0.0
 10
19.07868284000977
 20
6.027173105577439
 30
0.0
  0
LWPOLYLINE
  5
1D0
330
1F
100
AcDbEntity
  8
0
  6
Continuous
 62
     7
370
    25
100
AcDbPolyline
 90
        3
 70
   128
 43
0.0
 10
19.07868284
 20
6.0271731056
 10
19.0769829695
 20
5.9712960948
 10
19.0756503703
 20
5.9273930763
  0
LINE
  5
1D1
330
1F
100
AcDbEntity
  8
0
  6
Continuous
 62
     7
370
    25
100
AcDbLine
 10
19.0756503703
 20
5.9273930763
 30
0.0
 11
19.074791277
 21
5.8990433193
 31
0.0
  0
LWPOLYLINE
  5
1D2
330
1F
100
AcDbEntity
  8
0
  6
Continuous
 62
     7
370
    25
100
AcDbPolyline
 90
        3
 70
   128
 43
0.0
 10
19.074791277
 20
5.8990433193
 10
19.0680940533
 20
5.6778098024
 10
19.0628348171
 20
5.5039832507
  0
LWPOLYLINE
  5
1D3
330
1F
100
AcDbEntity
  8
0
  6
Continuous
 62
     7
370
    25
100
AcDbPolyline
 90
        3
 70
   128
 43
0.0
 10
19.0628348171
 20
5.5039832507
 10
19.0568073689
 20
5.3047727106
 10
19.0520683415
 20
5.1482508311
  0
LINE
  5
1D4
330
1F
100
AcDbEntity
  8
0
  6
Continuous
 62
     7
370
    25
100
AcDbLine
 10
19.0520683415
 20
5.1482508311
 30
0.0
 11
18.6982798629
 21
5.1482508311
 31
0.0
  0
MTEXT
  5
1D5
330
1F
100
AcDbEntity
  8
PART_NAMES
100
AcDbMText
 10
14.3573682746
 20
3.8113752133
 30
0.0
 40
0.1666666667
 41
0.0
 71
     1
 72
     1
  1
BH7
  7
SLDTEXTSTYLE0
 73
     1
 44
1.0
  0
MTEXT
  5
1D7
330
1F
100
AcDbEntity
  8
0
  6
Continuous
 62
     7
100
AcDbMText
 10
0.0
 20
0.5790104628
 30
0.0
 40
0.2076
 41
0.0
 71
     1
 72
     1
  1
SOLIDWORKS Educational Product.
  7
SLDTEXTSTYLE1
 73
     1
 44
1.0
  0
MTEXT
  5
1D8
330
1F
100
AcDbEntity
  8
0
  6
Continuous
 62
     7
100
AcDbMText
 10
0.0
 20
0.2676104628
 30
0.0
 40
0.2076
 41
0.0
 71
     1
 72
     1
  1
For Instructional Use Only.
  7
SLDTEXTSTYLE1
 73
     1
 44
1.0
  0
ENDSEC
  0
SECTION
  2
OBJECTS
  0
DICTIONARY
  5
C
330
0
100
AcDbDictionary
281
     1
  3
ACAD_GROUP
350
D
  3
ACAD_LAYOUT
350
1A
  3
ACAD_MLINESTYLE
350
17
  3
ACAD_PLOTSETTINGS
350
19
  3
ACAD_PLOTSTYLENAME
350
E
  3
ACAD_SCALELIST
350
47
  3
DWGPROPS
350
1D9
  0
DICTIONARY
  5
D
102
{ACAD_REACTORS
330
C
102
}
330
C
100
AcDbDictionary
281
     1
  0
DICTIONARY
  5
1A
102
{ACAD_REACTORS
330
C
102
}
330
C
100
AcDbDictionary
281
     1
  3
Layout1
350
1E
  3
Layout2
350
26
  3
Model
350
22
  0
DICTIONARY
  5
17
102
{ACAD_REACTORS
330
C
102
}
330
C
100
AcDbDictionary
281
     1
  3
Standard
350
18
  0
DICTIONARY
  5
19
102
{ACAD_REACTORS
330
C
102
}
330
C
100
AcDbDictionary
281
     1
  0
ACDBDICTIONARYWDFLT
  5
E
102
{ACAD_REACTORS
330
C
102
}
330
C
100
AcDbDictionary
281
     1
  3
Normal
350
F
100
AcDbDictionaryWithDefault
340
F
  0
DICTIONARY
  5
47
102
{ACAD_REACTORS
330
C
102
}
330
C
100
AcDbDictionary
281
     1
  3
A0
350
48
  3
A1
350
49
  3
A2
350
4A
  3
A3
350
4B
  3
A4
350
4C
  3
A5
350
4D
  3
A6
350
4E
  3
A7
350
4F
  3
A8
350
50
  3
A9
350
51
  3
B1
350
52
  3
B2
350
53
  3
B3
350
54
  3
B4
350
55
  3
B5
350
56
  3
B6
350
57
  3
B7
350
58
  0
XRECORD
  5
1D9
102
{ACAD_REACTORS
330
C
102
}
330
C
100
AcDbXrecord
280
     1
  1
DWGPROPS COOKIE
  2

  3

  4

  6

  7

  8
ucmai
  9

300
=
301
=
302
=
303
=
304
=
305
=
306
=
307
=
308
=
309
=
 40
0.0
 41
2460784.964816644
 42
2460784.964817188
  1

 90
        0
  0
LAYOUT
  5
1E
102
{ACAD_REACTORS
330
1A
102
}
330
1A
100
AcDbPlotSettings
  1

  2
none_device
  4

  6

 40
0.0
 41
0.0
 42
0.0
 43
0.0
 44
0.0
 45
0.0
 46
0.0
 47
0.0
 48
0.0
 49
0.0
140
0.0
141
0.0
142
1.0
143
1.0
 70
   688
 72
     0
 73
     0
 74
     5
  7

 75
    16
147
1.0
148
0.0
149
0.0
100
AcDbLayout
  1
Layout1
 70
     1
 71
     1
 10
0.0
 20
0.0
 11
12.0
 21
9.0
 12
0.0
 22
0.0
 32
0.0
 14
1.0000000000E+20
 24
1.0000000000E+20
 34
1.0000000000E+20
 15
-1.0000000000E+20
 25
-1.0000000000E+20
 35
-1.0000000000E+20
146
0.0
 13
0.0
 23
0.0
 33
0.0
 16
1.0
 26
0.0
 36
0.0
 17
0.0
 27
1.0
 37
0.0
 76
     0
330
1B
  0
LAYOUT
  5
26
102
{ACAD_REACTORS
330
1A
102
}
330
1A
100
AcDbPlotSettings
  1

  2
none_device
  4

  6

 40
0.0
 41
0.0
 42
0.0
 43
0.0
 44
0.0
 45
0.0
 46
0.0
 47
0.0
 48
0.0
 49
0.0
140
0.0
141
0.0
142
1.0
143
1.0
 70
   688
 72
     0
 73
     0
 74
     5
  7

 75
    16
147
1.0
148
0.0
149
0.0
100
AcDbLayout
  1
Layout2
 70
     1
 71
     2
 10
0.0
 20
0.0
 11
0.0
 21
0.0
 12
0.0
 22
0.0
 32
0.0
 14
0.0
 24
0.0
 34
0.0
 15
0.0
 25
0.0
 35
0.0
146
0.0
 13
0.0
 23
0.0
 33
0.0
 16
1.0
 26
0.0
 36
0.0
 17
0.0
 27
1.0
 37
0.0
 76
     0
330
23
  0
LAYOUT
  5
22
102
{ACAD_REACTORS
330
1A
102
}
330
1A
100
AcDbPlotSettings
  1

  2
none_device
  4
Letter_(8.50_x_11.00_Inches)
  6

 40
6.35
 41
6.35
 42
6.35000508
 43
6.35000508
 44
215.9
 45
279.4
 46
0.0
 47
0.0
 48
0.0
 49
0.0
140
0.0
141
0.0
142
1.0
143
1.0
 70
  1712
 72
     0
 73
     0
 74
     0
  7

 75
     0
147
1.0
148
0.0
149
0.0
100
AcDbLayout
  1
Model
 70
     1
 71
     0
 10
0.0
 20
0.0
 11
24.0
 21
12.0
 12
0.0
 22
0.0
 32
0.0
 14
0.0
 24
0.0
 34
0.0
 15
24.0
 25
12.0
 35
0.0
146
0.0
 13
0.0
 23
0.0
 33
0.0
 16
1.0
 26
0.0
 36
0.0
 17
0.0
 27
1.0
 37
0.0
 76
     0
330
1F
331
29
  0
MLINESTYLE
  5
18
102
{ACAD_REACTORS
330
17
102
}
330
17
100
AcDbMlineStyle
  2
Standard
 70
     0
  3

 62
   256
 51
90.0
 52
90.0
 71
     2
 49
0.5
 62
   256
  6
BYLAYER
 49
-0.5
 62
   256
  6
BYLAYER
  0
ACDBPLACEHOLDER
  5
F
102
{ACAD_REACTORS
330
E
102
}
330
E
  0
SCALE
  5
48
102
{ACAD_REACTORS
330
47
102
}
330
47
100
AcDbScale
 70
     0
300
1:1
140
1.0
141
1.0
290
     1
  0
SCALE
  5
49
102
{ACAD_REACTORS
330
47
102
}
330
47
100
AcDbScale
 70
     0
300
1/128" = 1'-0"
140
0.0078125
141
12.0
290
     0
  0
SCALE
  5
4A
102
{ACAD_REACTORS
330
47
102
}
330
47
100
AcDbScale
 70
     0
300
1/64" = 1'-0"
140
0.015625
141
12.0
290
     0
  0
SCALE
  5
4B
102
{ACAD_REACTORS
330
47
102
}
330
47
100
AcDbScale
 70
     0
300
1/32" = 1'-0"
140
0.03125
141
12.0
290
     0
  0
SCALE
  5
4C
102
{ACAD_REACTORS
330
47
102
}
330
47
100
AcDbScale
 70
     0
300
1/16" = 1'-0"
140
0.0625
141
12.0
290
     0
  0
SCALE
  5
4D
102
{ACAD_REACTORS
330
47
102
}
330
47
100
AcDbScale
 70
     0
300
3/32" = 1'-0"
140
0.09375
141
12.0
290
     0
  0
SCALE
  5
4E
102
{ACAD_REACTORS
330
47
102
}
330
47
100
AcDbScale
 70
     0
300
1/8" = 1'-0"
140
0.125
141
12.0
290
     0
  0
SCALE
  5
4F
102
{ACAD_REACTORS
330
47
102
}
330
47
100
AcDbScale
 70
     0
300
3/16" = 1'-0"
140
0.1875
141
12.0
290
     0
  0
SCALE
  5
50
102
{ACAD_REACTORS
330
47
102
}
330
47
100
AcDbScale
 70
     0
300
1/4" = 1'-0"
140
0.25
141
12.0
290
     0
  0
SCALE
  5
51
102
{ACAD_REACTORS
330
47
102
}
330
47
100
AcDbScale
 70
     0
300
3/8" = 1'-0"
140
0.375
141
12.0
290
     0
  0
SCALE
  5
52
102
{ACAD_REACTORS
330
47
102
}
330
47
100
AcDbScale
 70
     0
300
1/2" = 1'-0"
140
0.5
141
12.0
290
     0
  0
SCALE
  5
53
102
{ACAD_REACTORS
330
47
102
}
330
47
100
AcDbScale
 70
     0
300
3/4" = 1'-0"
140
0.75
141
12.0
290
     0
  0
SCALE
  5
54
102
{ACAD_REACTORS
330
47
102
}
330
47
100
AcDbScale
 70
     0
300
1" = 1'-0"
140
1.0
141
12.0
290
     0
  0
SCALE
  5
55
102
{ACAD_REACTORS
330
47
102
}
330
47
100
AcDbScale
 70
     0
300
1-1/2" = 1'-0"
140
1.5
141
12.0
290
     0
  0
SCALE
  5
56
102
{ACAD_REACTORS
330
47
102
}
330
47
100
AcDbScale
 70
     0
300
3" = 1'-0"
140
3.0
141
12.0
290
     0
  0
SCALE
  5
57
102
{ACAD_REACTORS
330
47
102
}
330
47
100
AcDbScale
 70
     0
300
6" = 1'-0"
140
6.0
141
12.0
290
     0
  0
SCALE
  5
58
102
{ACAD_REACTORS
330
47
102
}
330
47
100
AcDbScale
 70
     0
300
1'-0" = 1'-0"
140
12.0
141
12.0
290
     0
  0
ENDSEC
  0
EOF
