  0
SECTION
  2
HEADER
  9
$ACADVER
  1
AC1015
  9
$ACADMAINTVER
 70
     6
  9
$DWGCODEPAGE
  3
ANSI_1252
  9
$INSBASE
 10
0.0
 20
0.0
 30
0.0
  9
$EXTMIN
 10
0.0
 20
0.0
 30
0.0
  9
$EXTMAX
 10
24.0
 20
12.0
 30
0.0
  9
$LIMMIN
 10
0.0
 20
0.0
  9
$LIMMAX
 10
24.0
 20
12.0
  9
$ORTHOMODE
 70
     0
  9
$REGENMODE
 70
     1
  9
$FILLMODE
 70
     1
  9
$QTEXTMODE
 70
     0
  9
$MIRRTEXT
 70
     1
  9
$LTSCALE
 40
1.0
  9
$ATTMODE
 70
     1
  9
$TEXTSIZE
 40
0.125
  9
$TRACEWID
 40
0.05
  9
$TEXTSTYLE
  7
Standard
  9
$CLAYER
  8
0
  9
$CELTYPE
  6
ByLayer
  9
$CECOLOR
 62
   256
  9
$CELTSCALE
 40
1.0
  9
$DISPSILH
 70
     0
  9
$DIMSCALE
 40
1.0
  9
$DIMASZ
 40
0.13
  9
$DIMEXO
 40
0.05
  9
$DIMDLI
 40
0.38
  9
$DIMRND
 40
0.0
  9
$DIMDLE
 40
0.0
  9
$DIMEXE
 40
0.125
  9
$DIMTP
 40
0.0
  9
$DIMTM
 40
0.0
  9
$DIMTXT
 40
0.125
  9
$DIMCEN
 40
0.09
  9
$DIMTSZ
 40
0.0
  9
$DIMTOL
 70
     0
  9
$DIMLIM
 70
     0
  9
$DIMTIH
 70
     1
  9
$DIMTOH
 70
     1
  9
$DIMSE1
 70
     0
  9
$DIMSE2
 70
     0
  9
$DIMTAD
 70
     0
  9
$DIMZIN
 70
     1
  9
$DIMBLK
  1

  9
$DIMASO
 70
     1
  9
$DIMSHO
 70
     1
  9
$DIMPOST
  1

  9
$DIMAPOST
  1

  9
$DIMALT
 70
     0
  9
$DIMALTD
 70
     2
  9
$DIMALTF
 40
25.4
  9
$DIMLFAC
 40
1.0
  9
$DIMTOFL
 70
     0
  9
$DIMTVP
 40
0.0
  9
$DIMTIX
 70
     0
  9
$DIMSOXD
 70
     0
  9
$DIMSAH
 70
     0
  9
$DIMBLK1
  1

  9
$DIMBLK2
  1

  9
$DIMSTYLE
  2
Standard
  9
$DIMCLRD
 70
     0
  9
$DIMCLRE
 70
     0
  9
$DIMCLRT
 70
     0
  9
$DIMTFAC
 40
1.0
  9
$DIMGAP
 40
0.06
  9
$DIMJUST
 70
     0
  9
$DIMSD1
 70
     0
  9
$DIMSD2
 70
     0
  9
$DIMTOLJ
 70
     1
  9
$DIMTZIN
 70
     1
  9
$DIMALTZ
 70
     0
  9
$DIMALTTZ
 70
     0
  9
$DIMUPT
 70
     0
  9
$DIMDEC
 70
     2
  9
$DIMTDEC
 70
     2
  9
$DIMALTU
 70
     2
  9
$DIMALTTD
 70
     2
  9
$DIMTXSTY
  7
Standard
  9
$DIMAUNIT
 70
     0
  9
$DIMADEC
 70
     2
  9
$DIMALTRND
 40
0.0
  9
$DIMAZIN
 70
     0
  9
$DIMDSEP
 70
    46
  9
$DIMATFIT
 70
     3
  9
$DIMFRAC
 70
     0
  9
$DIMLDRBLK
  1

  9
$DIMLUNIT
 70
     2
  9
$DIMLWD
 70
    -2
  9
$DIMLWE
 70
    -2
  9
$DIMTMOVE
 70
     0
  9
$LUNITS
 70
     2
  9
$LUPREC
 70
     6
  9
$SKETCHINC
 40
0.1
  9
$FILLETRAD
 40
0.0
  9
$AUNITS
 70
     0
  9
$AUPREC
 70
     2
  9
$MENU
  1
.
  9
$ELEVATION
 40
0.0
  9
$PELEVATION
 40
0.0
  9
$THICKNESS
 40
0.0
  9
$LIMCHECK
 70
     0
  9
$CHAMFERA
 40
0.0
  9
$CHAMFERB
 40
0.0
  9
$CHAMFERC
 40
0.0
  9
$CHAMFERD
 40
0.0
  9
$SKPOLY
 70
     0
  9
$TDCREATE
 40
2460784.666698357
  9
$TDUCREATE
 40
2460784.958365023
  9
$TDUPDATE
 40
2460784.666699259
  9
$TDUUPDATE
 40
2460784.958365926
  9
$TDINDWG
 40
0.0000000116
  9
$TDUSRTIMER
 40
0.0000000116
  9
$USRTIMER
 70
     1
  9
$ANGBASE
 50
0.0
  9
$ANGDIR
 70
     0
  9
$PDMODE
 70
     0
  9
$PDSIZE
 40
-1.0
  9
$PLINEWID
 40
0.0
  9
$SPLFRAME
 70
     0
  9
$SPLINETYPE
 70
     6
  9
$SPLINESEGS
 70
     8
  9
$HANDSEED
  5
149
  9
$SURFTAB1
 70
     6
  9
$SURFTAB2
 70
     6
  9
$SURFTYPE
 70
     6
  9
$SURFU
 70
     6
  9
$SURFV
 70
     6
  9
$UCSBASE
  2

  9
$UCSNAME
  2

  9
$UCSORG
 10
0.0
 20
0.0
 30
0.0
  9
$UCSXDIR
 10
1.0
 20
0.0
 30
0.0
  9
$UCSYDIR
 10
0.0
 20
1.0
 30
0.0
  9
$UCSORTHOREF
  2

  9
$UCSORTHOVIEW
 70
     0
  9
$UCSORGTOP
 10
0.0
 20
0.0
 30
0.0
  9
$UCSORGBOTTOM
 10
0.0
 20
0.0
 30
0.0
  9
$UCSORGLEFT
 10
0.0
 20
0.0
 30
0.0
  9
$UCSORGRIGHT
 10
0.0
 20
0.0
 30
0.0
  9
$UCSORGFRONT
 10
0.0
 20
0.0
 30
0.0
  9
$UCSORGBACK
 10
0.0
 20
0.0
 30
0.0
  9
$PUCSBASE
  2

  9
$PUCSNAME
  2

  9
$PUCSORG
 10
0.0
 20
0.0
 30
0.0
  9
$PUCSXDIR
 10
1.0
 20
0.0
 30
0.0
  9
$PUCSYDIR
 10
0.0
 20
1.0
 30
0.0
  9
$PUCSORTHOREF
  2

  9
$PUCSORTHOVIEW
 70
     0
  9
$PUCSORGTOP
 10
0.0
 20
0.0
 30
0.0
  9
$PUCSORGBOTTOM
 10
0.0
 20
0.0
 30
0.0
  9
$PUCSORGLEFT
 10
0.0
 20
0.0
 30
0.0
  9
$PUCSORGRIGHT
 10
0.0
 20
0.0
 30
0.0
  9
$PUCSORGFRONT
 10
0.0
 20
0.0
 30
0.0
  9
$PUCSORGBACK
 10
0.0
 20
0.0
 30
0.0
  9
$USERI1
 70
     0
  9
$USERI2
 70
     0
  9
$USERI3
 70
     0
  9
$USERI4
 70
     0
  9
$USERI5
 70
     0
  9
$USERR1
 40
0.0
  9
$USERR2
 40
0.0
  9
$USERR3
 40
0.0
  9
$USERR4
 40
0.0
  9
$USERR5
 40
0.0
  9
$WORLDVIEW
 70
     1
  9
$SHADEDGE
 70
     3
  9
$SHADEDIF
 70
    70
  9
$TILEMODE
 70
     1
  9
$MAXACTVP
 70
    64
  9
$PINSBASE
 10
0.0
 20
0.0
 30
0.0
  9
$PLIMCHECK
 70
     0
  9
$PEXTMIN
 10
1.0000000000E+20
 20
1.0000000000E+20
 30
1.0000000000E+20
  9
$PEXTMAX
 10
-1.0000000000E+20
 20
-1.0000000000E+20
 30
-1.0000000000E+20
  9
$PLIMMIN
 10
0.0
 20
0.0
  9
$PLIMMAX
 10
12.0
 20
9.0
  9
$UNITMODE
 70
     0
  9
$VISRETAIN
 70
     1
  9
$PLINEGEN
 70
     0
  9
$PSLTSCALE
 70
     1
  9
$TREEDEPTH
 70
  3020
  9
$CMLSTYLE
  2
Standard
  9
$CMLJUST
 70
     0
  9
$CMLSCALE
 40
1.0
  9
$PROXYGRAPHICS
 70
     1
  9
$MEASUREMENT
 70
     0
  9
$CELWEIGHT
370
    -1
  9
$ENDCAPS
280
     0
  9
$JOINSTYLE
280
     0
  9
$LWDISPLAY
290
     1
  9
$INSUNITS
 70
     1
  9
$HYPERLINKBASE
  1

  9
$STYLESHEET
  1

  9
$XEDIT
290
     1
  9
$CEPSNTYPE
380
     0
  9
$PSTYLEMODE
290
     1
  9
$FINGERPRINTGUID
  2
{b2cfb1a8-70e3-4303-b5ce-3d3af1326ae7}
  9
$VERSIONGUID
  2
{FAEB1C32-E019-11D5-929B-00C0DF256EC4}
  9
$EXTNAMES
290
     1
  9
$PSVPSCALE
 40
0.0
  9
$OLESTARTUP
290
     0
  0
ENDSEC
  0
SECTION
  2
CLASSES
  0
CLASS
  1
ACDBDICTIONARYWDFLT
  2
AcDbDictionaryWithDefault
  3
ObjectDBX Classes
 90
        0
280
     0
281
     0
  0
CLASS
  1
VISUALSTYLE
  2
AcDbVisualStyle
  3
ObjectDBX Classes
 90
     4095
280
     0
281
     0
  0
CLASS
  1
MATERIAL
  2
AcDbMaterial
  3
ObjectDBX Classes
 90
     1153
280
     0
281
     0
  0
CLASS
  1
SCALE
  2
AcDbScale
  3
ObjectDBX Classes
 90
     1153
280
     0
281
     0
  0
CLASS
  1
TABLESTYLE
  2
AcDbTableStyle
  3
ObjectDBX Classes
 90
     4095
280
     0
281
     0
  0
CLASS
  1
MLEADERSTYLE
  2
AcDbMLeaderStyle
  3
ACDB_MLEADERSTYLE_CLASS
 90
     4095
280
     0
281
     0
  0
CLASS
  1
SUN
  2
AcDbSun
  3
SCENEOE
 90
     1153
280
     0
281
     0
  0
CLASS
  1
ACDBPLACEHOLDER
  2
AcDbPlaceHolder
  3
ObjectDBX Classes
 90
        0
280
     0
281
     0
  0
CLASS
  1
LAYOUT
  2
AcDbLayout
  3
ObjectDBX Classes
 90
        0
280
     0
281
     0
  0
ENDSEC
  0
SECTION
  2
TABLES
  0
TABLE
  2
VPORT
  5
8
330
0
100
AcDbSymbolTable
 70
     1
  0
VPORT
  5
29
330
8
100
AcDbSymbolTableRecord
100
AcDbViewportTableRecord
  2
*Active
 70
     0
 10
0.0
 20
0.0
 11
1.0
 21
1.0
 12
12.0
 22
6.0
 13
0.0
 23
0.0
 14
0.5
 24
0.5
 15
0.5
 25
0.5
 16
0.0
 26
0.0
 36
1.0
 17
0.0
 27
0.0
 37
0.0
 40
12.0
 41
2.0
 42
50.0
 43
0.0
 44
0.0
 50
0.0
 51
0.0
 71
     0
 72
  2000
 73
     1
 74
     3
 75
     0
 76
     0
 77
     0
 78
     0
281
     0
 65
     1
110
0.0
120
0.0
130
0.0
111
1.0
121
0.0
131
0.0
112
0.0
122
1.0
132
0.0
 79
     0
146
0.0
  0
ENDTAB
  0
TABLE
  2
LTYPE
  5
5
330
0
100
AcDbSymbolTable
 70
     6
  0
LTYPE
  5
14
330
5
100
AcDbSymbolTableRecord
100
AcDbLinetypeTableRecord
  2
ByBlock
 70
     0
  3

 72
    65
 73
     0
 40
0.0
  0
LTYPE
  5
15
330
5
100
AcDbSymbolTableRecord
100
AcDbLinetypeTableRecord
  2
ByLayer
 70
     0
  3

 72
    65
 73
     0
 40
0.0
  0
LTYPE
  5
16
330
5
100
AcDbSymbolTableRecord
100
AcDbLinetypeTableRecord
  2
Continuous
 70
     0
  3
Solid line
 72
    65
 73
     0
 40
0.0
  0
LTYPE
  5
5E
330
5
100
AcDbSymbolTableRecord
100
AcDbLinetypeTableRecord
  2
HIDDEN
 70
     0
  3
Hidden __ __ __ __ __ __ __ __ __ __ __ __ __ __
 72
    65
 73
     2
 40
0.075
 49
0.05
 74
     0
 49
-0.025
 74
     0
  0
LTYPE
  5
5F
330
5
100
AcDbSymbolTableRecord
100
AcDbLinetypeTableRecord
  2
PHANTOM
 70
     0
  3
Phantom ______  __  __  ______  __  __  ______
 72
    65
 73
     6
 40
0.5
 49
0.25
 74
     0
 49
-0.05
 74
     0
 49
0.05
 74
     0
 49
-0.05
 74
     0
 49
0.05
 74
     0
 49
-0.05
 74
     0
  0
LTYPE
  5
60
330
5
100
AcDbSymbolTableRecord
100
AcDbLinetypeTableRecord
  2
CENTER
 70
     0
  3
Center ____ _ ____ _ ____ _ ____ _ ____ _ ____
 72
    65
 73
     4
 40
0.4
 49
0.25
 74
     0
 49
-0.05
 74
     0
 49
0.05
 74
     0
 49
-0.05
 74
     0
  0
LTYPE
  5
61
330
5
100
AcDbSymbolTableRecord
100
AcDbLinetypeTableRecord
  2
CENTERX2
 70
     0
  3
Center (2x) ________  __  ________  __  _____
 72
    65
 73
     4
 40
0.8
 49
0.5
 74
     0
 49
-0.1
 74
     0
 49
0.1
 74
     0
 49
-0.1
 74
     0
  0
LTYPE
  5
62
330
5
100
AcDbSymbolTableRecord
100
AcDbLinetypeTableRecord
  2
DOT2
 70
     0
  3
Dot (.5x) ........................................
 72
    65
 73
     2
 40
0.025
 49
0.0
 74
     0
 49
-0.025
 74
     0
  0
ENDTAB
  0
TABLE
  2
LAYER
  5
2
330
0
100
AcDbSymbolTable
 70
     3
  0
LAYER
  5
10
330
2
100
AcDbSymbolTableRecord
100
AcDbLayerTableRecord
  2
0
 70
     0
 62
     7
  6
Continuous
370
    -3
390
F
  0
LAYER
  5
63
330
2
100
AcDbSymbolTableRecord
100
AcDbLayerTableRecord
  2
FORMAT
 70
     0
 62
     7
  6
Continuous
370
    -3
390
F
  0
LAYER
  5
64
330
2
100
AcDbSymbolTableRecord
100
AcDbLayerTableRecord
  2
PART_NAMES
 70
     0
 62
     1
  6
Continuous
370
    -3
390
F
  0
ENDTAB
  0
TABLE
  2
STYLE
  5
3
330
0
100
AcDbSymbolTable
 70
     4
  0
STYLE
  5
11
330
3
100
AcDbSymbolTableRecord
100
AcDbTextStyleTableRecord
  2
Standard
 70
     0
 40
0.0
 41
1.0
 50
0.0
 71
     0
 42
0.125
  3
txt
  4

  0
STYLE
  5
87
330
3
100
AcDbSymbolTableRecord
100
AcDbTextStyleTableRecord
  2
SLDTEXTSTYLE0
 70
     0
 40
0.0
 41
0.75
 50
0.0
 71
     0
 42
0.125
  3
TXT
  4

  0
STYLE
  5
A4
330
3
100
AcDbSymbolTableRecord
100
AcDbTextStyleTableRecord
  2
SLDTEXTSTYLE1
 70
     0
 40
0.0
 41
0.6875
 50
0.0
 71
     0
 42
0.125
  3
TXT
  4

  0
STYLE
  5
145
330
3
100
AcDbSymbolTableRecord
100
AcDbTextStyleTableRecord
  2
SLDTEXTSTYLE2
 70
     0
 40
0.0
 41
0.7
 50
0.0
 71
     0
 42
0.125
  3
TXT
  4

  0
ENDTAB
  0
TABLE
  2
VIEW
  5
6
330
0
100
AcDbSymbolTable
 70
     0
  0
ENDTAB
  0
TABLE
  2
UCS
  5
7
330
0
100
AcDbSymbolTable
 70
     0
  0
ENDTAB
  0
TABLE
  2
APPID
  5
9
330
0
100
AcDbSymbolTable
 70
     1
  0
APPID
  5
12
330
9
100
AcDbSymbolTableRecord
100
AcDbRegAppTableRecord
  2
ACAD
 70
     0
  0
ENDTAB
  0
TABLE
  2
DIMSTYLE
  5
A
330
0
100
AcDbSymbolTable
 70
     1
100
AcDbDimStyleTable
  0
DIMSTYLE
105
27
330
A
100
AcDbSymbolTableRecord
100
AcDbDimStyleTableRecord
  2
Standard
 70
     0
178
     0
340
11
  0
ENDTAB
  0
TABLE
  2
BLOCK_RECORD
  5
1
330
0
100
AcDbSymbolTable
 70
     1
  0
BLOCK_RECORD
  5
1F
330
1
100
AcDbSymbolTableRecord
100
AcDbBlockTableRecord
  2
*Model_Space
340
22
  0
BLOCK_RECORD
  5
1B
330
1
100
AcDbSymbolTableRecord
100
AcDbBlockTableRecord
  2
*Paper_Space
340
1E
  0
BLOCK_RECORD
  5
23
330
1
100
AcDbSymbolTableRecord
100
AcDbBlockTableRecord
  2
*Paper_Space0
340
26
  0
ENDTAB
  0
ENDSEC
  0
SECTION
  2
BLOCKS
  0
BLOCK
  5
20
330
1F
100
AcDbEntity
  8
0
100
AcDbBlockBegin
  2
*Model_Space
 70
     0
 10
0.0
 20
0.0
 30
0.0
  3
*Model_Space
  1

  0
ENDBLK
  5
21
330
1F
100
AcDbEntity
  8
0
100
AcDbBlockEnd
  0
BLOCK
  5
1C
330
1B
100
AcDbEntity
 67
     1
  8
0
100
AcDbBlockBegin
  2
*Paper_Space
 70
     0
 10
0.0
 20
0.0
 30
0.0
  3
*Paper_Space
  1

  0
ENDBLK
  5
1D
330
1B
100
AcDbEntity
 67
     1
  8
0
100
AcDbBlockEnd
  0
BLOCK
  5
24
330
23
100
AcDbEntity
  8
0
100
AcDbBlockBegin
  2
*Paper_Space0
 70
     0
 10
0.0
 20
0.0
 30
0.0
  3
*Paper_Space0
  1

  0
ENDBLK
  5
25
330
23
100
AcDbEntity
  8
0
100
AcDbBlockEnd
  0
ENDSEC
  0
SECTION
  2
ENTITIES
  0
LINE
  5
65
330
1F
100
AcDbEntity
  8
0
  6
CENTERX2
 62
     7
370
    18
100
AcDbLine
 10
0.25
 20
0.25
 30
0.0
 11
0.25
 21
11.75
 31
0.0
  0
LINE
  5
66
330
1F
100
AcDbEntity
  8
0
  6
CENTERX2
 62
     7
370
    18
100
AcDbLine
 10
0.25
 20
0.25
 30
0.0
 11
23.75
 21
0.25
 31
0.0
  0
LINE
  5
67
330
1F
100
AcDbEntity
  8
0
  6
CENTERX2
 62
     7
370
    18
100
AcDbLine
 10
23.75
 20
0.25
 30
0.0
 11
23.75
 21
11.75
 31
0.0
  0
LINE
  5
68
330
1F
100
AcDbEntity
  8
0
  6
CENTERX2
 62
     7
370
    18
100
AcDbLine
 10
23.75
 20
11.75
 30
0.0
 11
0.25
 21
11.75
 31
0.0
  0
ARC
  5
69
330
1F
100
AcDbEntity
  8
0
  6
Continuous
 62
     7
370
    25
100
AcDbCircle
 10
22.8404468857
 20
11.2866940901
 30
0.0
 40
0.1000000000000129
100
AcDbArc
 50
300.3441191336
 51
14.0
  0
SPLINE
  5
6A
330
1F
100
AcDbEntity
  8
0
  6
Continuous
 62
     7
370
    25
100
AcDbSpline
210
0.0
220
0.0
230
1.0
 70
     8
 71
     3
 72
     8
 73
     4
 74
     0
 42
0.00000001
 43
0.00000001
 40
0.5896150075870807
 40
0.5896150075870807
 40
0.5896150075870807
 40
0.5896150075870807
 40
1.0
 40
1.0
 40
1.0
 40
1.0
 10
22.89096611671433
 20
11.20039341045403
 30
0.0
 10
22.75281949346778
 20
11.1195242771332
 30
0.0
 10
22.61337756760255
 20
11.04082960850646
 30
0.0
 10
22.47284698800822
 20
10.96396249667138
 30
0.0
  0
SPLINE
  5
6B
330
1F
100
AcDbEntity
  8
0
  6
Continuous
 62
     7
370
    25
100
AcDbSpline
210
0.0
220
0.0
230
1.0
 70
     8
 71
     3
 72
    19
 73
    15
 74
     0
 42
0.00000001
 43
0.00000001
 40
0.0
 40
0.0
 40
0.0
 40
0.0
 40
0.0679259745988894
 40
0.1353466291563022
 40
0.2022631564395488
 40
0.2686767763778372
 40
0.3345887368245188
 40
0.4000003143433244
 40
0.5030703143981531
 40
0.6049047616804737
 40
0.7055091492740185
 40
0.8048891742318939
 40
0.9030507467843081
 40
1.0
 40
1.0
 40
1.0
 40
1.0
 10
21.08660861978258
 20
10.27247698952127
 30
0.0
 10
21.11849596064358
 20
10.28710590003821
 30
0.0
 10
21.18203342365064
 20
10.31625489257587
 30
0.0
 10
21.27675364711393
 20
10.36031553434235
 30
0.0
 10
21.3705922301718
 20
10.40441709372277
 30
0.0
 10
21.46353305020246
 20
10.44859481149968
 30
0.0
 10
21.55558052377862
 20
10.49283909495865
 30
0.0
 10
21.66445726202861
 20
10.54577021974062
 30
0.0
 10
21.78966629783782
 20
10.60753793509011
 30
0.0
 10
21.93066593344843
 20
10.678372525126
 30
0.0
 10
22.06944179610178
 20
10.74937934424839
 30
0.0
 10
22.20597888436141
 20
10.82058573282999
 30
0.0
 10
22.3403327118642
 20
10.8918902289837
 30
0.0
 10
22.42885891487861
 20
10.94003812962267
 30
0.0
 10
22.47284698800822
 20
10.96396249667138
 30
0.0
  0
LINE
  5
6C
330
1F
100
AcDbEntity
  8
0
  6
Continuous
 62
     7
370
    25
100
AcDbLine
 10
21.0219058431
 20
10.2429934433
 30
0.0
 11
21.0866086198
 21
10.2724769895
 31
0.0
  0
SPLINE
  5
6D
330
1F
100
AcDbEntity
  8
0
  6
Continuous
 62
     7
370
    25
100
AcDbSpline
210
0.0
220
0.0
230
1.0
 70
     8
 71
     3
 72
    24
 73
    20
 74
     0
 42
0.00000001
 43
0.00000001
 40
0.0
 40
0.0
 40
0.0
 40
0.0
 40
0.0267205437899573
 40
0.0537045314084796
 40
0.0809523489507496
 40
0.1084643714044346
 40
0.1362409630567957
 40
0.1642824778840467
 40
0.1925892599238085
 40
0.2211616436315274
 40
0.2499999542216197
 40
0.3704400458767622
 40
0.50000002232699
 40
0.6197014026976225
 40
0.750000017027005
 40
0.8119928238772798
 40
0.8760204393537246
 40
0.9387984430230532
 40
1.0
 40
1.0
 40
1.0
 40
1.0
 10
17.26469756968914
 20
8.681230864309757
 30
0.0
 10
17.29880730498819
 20
8.693502760170247
 30
0.0
 10
17.36736307110965
 20
8.718167543262314
 30
0.0
 10
17.47051969476497
 20
8.755849096752119
 30
0.0
 10
17.57455229827562
 20
8.794259477536123
 30
0.0
 10
17.67944754052042
 20
8.83343589912913
 30
0.0
 10
17.78520904950879
 20
8.873368244897295
 30
0.0
 10
17.89183584094583
 20
8.914059268140772
 30
0.0
 10
17.99932818008841
 20
8.955508214322016
 30
0.0
 10
18.1076860083107
 20
8.99771531756026
 30
0.0
 10
18.33221807453389
 20
9.086039348342005
 30
0.0
 10
18.68307018574273
 20
9.227492201158364
 30
0.0
 10
19.14610775979904
 20
9.420257627889223
 30
0.0
 10
19.61964380450434
 20
9.622537740126305
 30
0.0
 10
20.007670652073
 20
9.791617850263119
 30
0.0
 10
20.32585134326569
 20
9.931899348755115
 30
0.0
 10
20.55994134165801
 20
10.03584716108793
 30
0.0
 10
20.792830222046
 20
10.13985375426428
 30
0.0
 10
20.94619734293538
 20
10.20890622301151
 30
0.0
 10
21.02190584309921
 20
10.24299344334366
 30
0.0
  0
SPLINE
  5
6E
330
1F
100
AcDbEntity
  8
0
  6
Continuous
 62
     7
370
    25
100
AcDbSpline
210
0.0
220
0.0
230
1.0
 70
     8
 71
     3
 72
     9
 73
     5
 74
     0
 42
0.00000001
 43
0.00000001
 40
0.0
 40
0.0
 40
0.0
 40
0.0
 40
0.4721303334867179
 40
1.0
 40
1.0
 40
1.0
 40
1.0
 10
17.05758069326733
 20
8.60734408034137
 30
0.0
 10
17.09018985843571
 20
8.618933515569974
 30
0.0
 10
17.15925800097076
 20
8.643480625566095
 30
0.0
 10
17.22826884072321
 20
8.66818838668672
 30
0.0
 10
17.26469756968914
 20
8.681230864309756
 30
0.0
  0
SPLINE
  5
6F
330
1F
100
AcDbEntity
  8
0
  6
Continuous
 62
     7
370
    25
100
AcDbSpline
210
0.0
220
0.0
230
1.0
 70
     8
 71
     3
 72
    11
 73
     7
 74
     0
 42
0.00000001
 43
0.00000001
 40
0.0
 40
0.0
 40
0.0
 40
0.0
 40
0.2567292302578925
 40
0.5089705934246306
 40
0.7567266248204848
 40
0.9999999999999999
 40
0.9999999999999999
 40
0.9999999999999999
 40
0.9999999999999999
 10
16.61846934522744
 20
8.455045320679082
 30
0.0
 10
16.65611679681521
 20
8.467876169473003
 30
0.0
 10
16.73075358732133
 20
8.493313571821863
 30
0.0
 10
16.84157089362884
 20
8.531574191500056
 30
0.0
 10
16.95031351062757
 20
8.569455013232627
 30
0.0
 10
17.02204324166676
 20
8.594791491045822
 30
0.0
 10
17.05758069326733
 20
8.60734408034137
 30
0.0
  0
SPLINE
  5
70
330
1F
100
AcDbEntity
  8
0
  6
Continuous
 62
     7
370
    25
100
AcDbSpline
210
0.0
220
0.0
230
1.0
 70
     8
 71
     3
 72
    18
 73
    14
 74
     0
 42
0.00000001
 43
0.00000001
 40
0.0
 40
0.0
 40
0.0
 40
0.0
 40
0.0587055788700043
 40
0.1224876098632506
 40
0.2499382970997986
 40
0.3749999889280896
 40
0.4999999826941692
 40
0.6326560752118126
 40
0.7499982936985922
 40
0.8128416937346283
 40
0.8717356316989048
 40
0.9363070357308071
 40
1.0
 40
1.0
 40
1.0
 40
1.0
 10
13.53209566048536
 20
7.450741749853671
 30
0.0
 10
13.59254264189269
 20
7.470238975661898
 30
0.0
 10
13.71866364126871
 20
7.510919412413949
 30
0.0
 10
13.97609136647236
 20
7.593694469054681
 30
0.0
 10
14.30193774256668
 20
7.698214453926733
 30
0.0
 10
14.69087996612769
 20
7.822873073612675
 30
0.0
 10
15.08508935495322
 20
7.949549613335978
 30
0.0
 10
15.4711030457311
 20
8.074430175008219
 30
0.0
 10
15.79283560112827
 20
8.179531384023168
 30
0.0
 10
16.03848160937321
 20
8.260545731340487
 30
0.0
 10
16.2297725543915
 20
8.324085539126777
 30
0.0
 10
16.42178027410349
 20
8.388382374698034
 30
0.0
 10
16.55320635260562
 20
8.432926026877709
 30
0.0
 10
16.61846934522744
 20
8.455045320679082
 30
0.0
  0
SPLINE
  5
71
330
1F
100
AcDbEntity
  8
0
  6
Continuous
 62
     7
370
    25
100
AcDbSpline
210
0.0
220
0.0
230
1.0
 70
     8
 71
     3
 72
    14
 73
    10
 74
     0
 42
0.00000001
 43
0.00000001
 40
0.0
 40
0.0
 40
0.0
 40
0.0
 40
0.1199137643528088
 40
0.2499151947117055
 40
0.3750000311095336
 40
0.5000000355400936
 40
0.7468585540903904
 40
0.870863826343455
 40
1.0
 40
1.0
 40
1.0
 40
1.0
 10
10.4567855881039
 20
6.42968739707327
 30
0.0
 10
10.57946413738285
 20
6.471237122648282
 30
0.0
 10
10.8351414876476
 20
6.557831916943501
 30
0.0
 10
11.21881501124778
 20
6.687687509236612
 30
0.0
 10
11.60785542765713
 20
6.818822543660074
 30
0.0
 10
12.11692236743952
 20
6.98903495384236
 30
0.0
 10
12.62560397961975
 20
7.156715386760448
 30
0.0
 10
13.13917336490419
 20
7.323817034251688
 30
0.0
 10
13.39936363747736
 20
7.407865653330189
 30
0.0
 10
13.53209566048536
 20
7.450741749853671
 30
0.0
  0
SPLINE
  5
72
330
1F
100
AcDbEntity
  8
0
  6
Continuous
 62
     7
370
    25
100
AcDbSpline
210
0.0
220
0.0
230
1.0
 70
     8
 71
     3
 72
    21
 73
    17
 74
     0
 42
0.00000001
 43
0.00000001
 40
0.0
 40
0.0
 40
0.0
 40
0.0
 40
0.0410722146931684
 40
0.0827387961195449
 40
0.1249999736934164
 40
0.1878307173345128
 40
0.2499999044667723
 40
0.3749998868416111
 40
0.4999998538988085
 40
0.6249998226258071
 40
0.6882196100560463
 40
0.7500000368621351
 40
0.8123001571878178
 40
0.8747328476453137
 40
0.9372991251205794
 40
1.0
 40
1.0
 40
1.0
 40
1.0
 10
6.708945522654809
 20
5.289283893977323
 30
0.0
 10
6.760684956470445
 20
5.303441435886714
 30
0.0
 10
6.86491255894557
 20
5.331961397187698
 30
0.0
 10
7.022245728380395
 20
5.375527508139043
 30
0.0
 10
7.20685606588108
 20
5.427070425130234
 30
0.0
 10
7.417088877323461
 20
5.48641433847673
 30
0.0
 10
7.731009299030339
 20
5.576197037656702
 30
0.0
 10
8.12238647475667
 20
5.690421243567407
 30
0.0
 10
8.591584044726629
 20
5.830859028773705
 30
0.0
 10
8.98254067412803
 20
5.951265095416558
 30
0.0
 10
9.294057164636028
 20
6.049064227002427
 30
0.0
 10
9.527157535048902
 20
6.123247454503212
 30
0.0
 10
9.758975622103641
 20
6.198063657256049
 30
0.0
 10
9.99145955357512
 20
6.274150968503534
 30
0.0
 10
10.22415424290087
 20
6.351273053839543
 30
0.0
 10
10.37918627994901
 20
6.403530566062183
 30
0.0
 10
10.4567855881039
 20
6.42968739707327
 30
0.0
  0
SPLINE
  5
73
330
1F
100
AcDbEntity
  8
0
  6
Continuous
 62
     7
370
    25
100
AcDbSpline
210
0.0
220
0.0
230
1.0
 70
     8
 71
     3
 72
    22
 73
    18
 74
     0
 42
0.00000001
 43
0.00000001
 40
0.0
 40
0.0
 40
0.0
 40
0.0
 40
0.0332062455742836
 40
0.0672477337391428
 40
0.1021249583567545
 40
0.1378383786184279
 40
0.1743884221992063
 40
0.2117754880634475
 40
0.2499999489664857
 40
0.3659888646125131
 40
0.4999999523629955
 40
0.5594211525799323
 40
0.6259188739267805
 40
0.7564828094671961
 40
0.8430899593339432
 40
0.9357000712391765
 40
1.0
 40
1.0
 40
1.0
 40
1.0
 10
3.836761849435197
 20
4.539777789647077
 30
0.0
 10
3.868793179758896
 20
4.547104012610112
 30
0.0
 10
3.933661530144961
 20
4.561940736323113
 30
0.0
 10
4.032059131158278
 20
4.584965940049069
 30
0.0
 10
4.132791110376207
 20
4.608900130717414
 30
0.0
 10
4.23584877148495
 20
4.633781553292761
 30
0.0
 10
4.34123455031494
 20
4.659599537922251
 30
0.0
 10
4.44894771119594
 20
4.686357314046146
 30
0.0
 10
4.63280762940182
 20
4.732632183492266
 30
0.0
 10
4.908971347219661
 20
4.803888583276922
 30
0.0
 10
5.204972072176976
 20
4.882187470618696
 30
0.0
 10
5.453417891298126
 20
4.948748579859233
 30
0.0
 10
5.698470178083923
 20
5.014794262210217
 30
0.0
 10
5.969388851843623
 20
5.088239892481986
 30
0.0
 10
6.265209827714338
 20
5.168580141575251
 30
0.0
 10
6.497747316927158
 20
5.231756061657386
 30
0.0
 10
6.647555750675339
 20
5.272562063901039
 30
0.0
 10
6.708945522654809
 20
5.289283893977323
 30
0.0
  0
SPLINE
  5
74
330
1F
100
AcDbEntity
  8
0
  6
Continuous
 62
     7
370
    25
100
AcDbSpline
210
0.0
220
0.0
230
1.0
 70
     8
 71
     3
 72
    26
 73
    22
 74
     0
 42
0.00000001
 43
0.00000001
 40
0.0
 40
0.0
 40
0.0
 40
0.0
 40
0.0366066904765114
 40
0.0729148077470832
 40
0.1089249945857327
 40
0.1446379098532643
 40
0.1800542290011869
 40
0.2151746445938275
 40
0.2499998668492875
 40
0.3750604630532736
 40
0.499997171247665
 40
0.5626147393227066
 40
0.6249980248444631
 40
0.6869591246217721
 40
0.7499991414506482
 40
0.8122373262107306
 40
0.8401366681793395
 40
0.8629876812719539
 40
0.9166326836005354
 40
0.9583805034123729
 40
1.0
 40
1.0
 40
1.0
 40
1.0
 10
1.35536552167853
 20
4.135257038663548
 30
0.0
 10
1.385913539836956
 20
4.138303312795075
 30
0.0
 10
1.446760418975213
 20
4.144371014894169
 30
0.0
 10
1.537608795849149
 20
4.153914115727614
 30
0.0
 10
1.627673457281259
 20
4.163734680989984
 30
0.0
 10
1.716951105369402
 20
4.173866249927095
 30
0.0
 10
1.805442594020035
 20
4.184299985513645
 30
0.0
 10
1.893147772586712
 20
4.195038082106075
 30
0.0
 10
2.055382275219327
 20
4.215648847397782
 30
0.0
 10
2.292018594195925
 20
4.248260813043628
 30
0.0
 10
2.551115075058867
 20
4.288359668319792
 30
0.0
 10
2.757840816818877
 20
4.32299610312699
 30
0.0
 10
2.912257509599138
 20
4.350195966899074
 30
0.0
 10
3.066787127164916
 20
4.37876298176677
 30
0.0
 10
3.220967582364359
 20
4.408522952902052
 30
0.0
 10
3.346898114983104
 20
4.433892595610389
 30
0.0
 10
3.439707503723131
 20
4.452998656356529
 30
0.0
 10
3.525421175005571
 20
4.470833099583059
 30
0.0
 10
3.622330756046158
 20
4.491858853352965
 30
0.0
 10
3.734528190794874
 20
4.516645942515172
 30
0.0
 10
3.80271895078667
 20
4.532075090380146
 30
0.0
 10
3.836761849435197
 20
4.539777789647077
 30
0.0
  0
LINE
  5
75
330
1F
100
AcDbEntity
  8
0
  6
Continuous
 62
     7
370
    25
100
AcDbLine
 10
0.3508949848
 20
4.1398718273
 30
0.0
 11
0.2770458166
 21
4.436064663
 31
0.0
  0
ARC
  5
76
330
1F
100
AcDbEntity
  8
0
  6
Continuous
 62
     7
370
    25
100
AcDbCircle
 10
0.3740753892
 20
4.4602568526
 30
0.0
 40
0.1000000000000046
100
AcDbArc
 50
93.2805840808
 51
194.0000000002
  0
SPLINE
  5
77
330
1F
100
AcDbEntity
  8
0
  6
Continuous
 62
     7
370
    25
100
AcDbSpline
210
0.0
220
0.0
230
1.0
 70
     8
 71
     3
 72
    10
 73
     6
 74
     0
 42
0.00000001
 43
0.00000001
 40
0.4904032736363285
 40
0.4904032736363285
 40
0.4904032736363285
 40
0.4904032736363285
 40
0.5111593145822313
 40
0.75
 40
1.0
 40
1.0
 40
1.0
 40
1.0
 10
0.3683528178309504
 20
4.560092979168198
 30
0.0
 10
0.3811107577448742
 20
4.560824259761372
 30
0.0
 10
0.540672516623178
 20
4.57009999114607
 30
0.0
 10
0.8537803269137707
 20
4.591438774563368
 30
0.0
 10
1.153279312667214
 20
4.617766697116959
 30
0.0
 10
1.306338041838626
 20
4.632847539196414
 30
0.0
  0
SPLINE
  5
78
330
1F
100
AcDbEntity
  8
0
  6
Continuous
 62
     7
370
    25
100
AcDbSpline
210
0.0
220
0.0
230
1.0
 70
     8
 71
     3
 72
    27
 73
    23
 74
     0
 42
0.00000001
 43
0.00000001
 40
0.0
 40
0.0
 40
0.0
 40
0.0
 40
0.03125
 40
0.0625
 40
0.09375
 40
0.125
 40
0.1875
 40
0.25
 40
0.375
 40
0.5
 40
0.625
 40
0.6875
 40
0.75
 40
0.78125
 40
0.8125
 40
0.84375
 40
0.875
 40
0.90625
 40
0.9375
 40
0.96875
 40
0.984375
 40
1.0
 40
1.0
 40
1.0
 40
1.0
 10
1.306338041613146
 20
4.632847539174197
 30
0.0
 10
1.330633613354792
 20
4.635241376391785
 30
0.0
 10
1.377857023132557
 20
4.639970106315573
 30
0.0
 10
1.456824280723645
 20
4.648164000707588
 30
0.0
 10
1.535931532320991
 20
4.656654227180868
 30
0.0
 10
1.637081659815266
 20
4.667912769957415
 30
0.0
 10
1.764230117140184
 20
4.682808547252852
 30
0.0
 10
1.966818224276555
 20
4.70818092628509
 30
0.0
 10
2.219597111400687
 20
4.742997217869506
 30
0.0
 10
2.522201080477504
 20
4.789846759560537
 30
0.0
 10
2.773614018486303
 20
4.833036474056912
 30
0.0
 10
2.974295046814646
 20
4.870134733648647
 30
0.0
 10
3.099900785791042
 20
4.894400167665439
 30
0.0
 10
3.199986981068737
 20
4.914321647710129
 30
0.0
 10
3.275762565225919
 20
4.929727188430893
 30
0.0
 10
3.345760115195312
 20
4.944166414099349
 30
0.0
 10
3.397205510772408
 20
4.954869760967843
 30
0.0
 10
3.448073164961416
 20
4.965707387471911
 30
0.0
 10
3.521521260974395
 20
4.981659059062305
 30
0.0
 10
3.600181443364816
 20
4.999026290258309
 30
0.0
 10
3.669838986685345
 20
5.014627423783696
 30
0.0
 10
3.707424761113372
 20
5.02313024014686
 30
0.0
 10
3.725865999882483
 20
5.02732482384171
 30
0.0
  0
SPLINE
  5
79
330
1F
100
AcDbEntity
  8
0
  6
Continuous
 62
     7
370
    25
100
AcDbSpline
210
0.0
220
0.0
230
1.0
 70
     8
 71
     3
 72
    25
 73
    21
 74
     0
 42
0.00000001
 43
0.00000001
 40
0.0
 40
0.0
 40
0.0
 40
0.0
 40
0.0156248287382393
 40
0.0312496574764786
 40
0.0624993149529573
 40
0.0937489724294359
 40
0.1249986299059145
 40
0.1874979448588718
 40
0.249997259811829
 40
0.3124965747647863
 40
0.3749958897177436
 40
0.499994519623658
 40
0.6249931495295726
 40
0.6874924644825299
 40
0.7499917794354871
 40
0.8124910943884444
 40
0.8749904093414016
 40
0.9374897242943588
 40
0.9687393817708374
 40
0.9999890392473161
 40
0.9999890392473161
 40
0.9999890392473161
 40
0.9999890392473161
 10
3.725865963092434
 20
5.027324815473565
 30
0.0
 10
3.743911377055178
 20
5.031429367588159
 30
0.0
 10
3.780940766915565
 20
5.039898480232839
 30
0.0
 10
3.84738183583643
 20
5.055235571933475
 30
0.0
 10
3.904498350019869
 20
5.068605188560898
 30
0.0
 10
3.991370035484002
 20
5.089196141359725
 30
0.0
 10
4.110174989326437
 20
5.117744200359759
 30
0.0
 10
4.257835893734391
 20
5.153935751259128
 30
0.0
 10
4.435404376742056
 20
5.198447958776439
 30
0.0
 10
4.613037245893148
 20
5.243881762788829
 30
0.0
 10
4.850263552850557
 20
5.305536561350408
 30
0.0
 10
5.147239163887543
 20
5.384160410168882
 30
0.0
 10
5.444591598316888
 20
5.464144082358199
 30
0.0
 10
5.690859993457083
 20
5.53078888285826
 30
0.0
 10
5.880658263346434
 20
5.582257932673664
 30
0.0
 10
6.068858098423709
 20
5.63336251410459
 30
0.0
 10
6.248647096944792
 20
5.682205214697041
 30
0.0
 10
6.389155094840547
 20
5.720397271706528
 30
0.0
 10
6.497952807156699
 20
5.750011952244851
 30
0.0
 10
6.550754076133805
 20
5.764401936700311
 30
0.0
 10
6.577352412726179
 20
5.771656420399757
 30
0.0
  0
SPLINE
  5
7A
330
1F
100
AcDbEntity
  8
0
  6
Continuous
 62
     7
370
    25
100
AcDbSpline
210
0.0
220
0.0
230
1.0
 70
     8
 71
     3
 72
    21
 73
    17
 74
     0
 42
0.00000001
 43
0.00000001
 40
0.0000072031465783
 40
0.0000072031465783
 40
0.0000072031465783
 40
0.0000072031465783
 40
0.0312566746310749
 40
0.0625061461155714
 40
0.0937556176000679
 40
0.1250050890845644
 40
0.1875040320535575
 40
0.2500029750225505
 40
0.4999987468985228
 40
0.6249966328365089
 40
0.749994518774495
 40
0.812493461743488
 40
0.8749924047124811
 40
0.9374913476814741
 40
0.9687408191659707
 40
0.9999902906504672
 40
0.9999902906504672
 40
0.9999902906504672
 40
0.9999902906504672
 10
6.577352412726177
 20
5.771656420399757
 30
0.0
 10
6.617102067273664
 20
5.782502748673374
 30
0.0
 10
6.69724186585532
 20
5.804453657357798
 30
0.0
 10
6.81342409198886
 20
5.836505537104925
 30
0.0
 10
6.928809693976141
 20
5.868554661780875
 30
0.0
 10
7.085049527808234
 20
5.91222650552271
 30
0.0
 10
7.280037959101196
 20
5.967268268360971
 30
0.0
 10
7.747514277215428
 20
6.100972263117353
 30
0.0
 10
8.29151391390673
 20
6.261651895160242
 30
0.0
 10
8.91075716190533
 20
6.452328159145863
 30
0.0
 10
9.296863069256826
 20
6.574309659023395
 30
0.0
 10
9.605003512986656
 20
6.673777956115225
 30
0.0
 10
9.835566663267569
 20
6.74923842864284
 30
0.0
 10
10.01953399280228
 20
6.810223677314679
 30
0.0
 10
10.17569207375246
 20
6.862519147074822
 30
0.0
 10
10.25646512979911
 20
6.889753517069939
 30
0.0
 10
10.29649375208996
 20
6.903297499269238
 30
0.0
  0
SPLINE
  5
7B
330
1F
100
AcDbEntity
  8
0
  6
Continuous
 62
     7
370
    25
100
AcDbSpline
210
0.0
220
0.0
230
1.0
 70
     8
 71
     3
 72
    21
 73
    17
 74
     0
 42
0.00000001
 43
0.00000001
 40
0.0000138232213417
 40
0.0000138232213417
 40
0.0000138232213417
 40
0.0000138232213417
 40
0.0312632584650816
 40
0.0625126937088216
 40
0.1250115641963014
 40
0.1875104346837812
 40
0.2500093051712611
 40
0.3125081756587409
 40
0.3750070461462208
 40
0.4375059166337006
 40
0.5000047871211805
 40
0.6250025280961402
 40
0.7500002690710998
 40
0.8749980100460595
 40
0.9374968805335393
 40
0.9999957510210192
 40
0.9999957510210192
 40
0.9999957510210192
 40
0.9999957510210192
 10
10.29649375208996
 20
6.903297499269238
 30
0.0
 10
10.3253033725021
 20
6.913050589648362
 30
0.0
 10
10.38233964677602
 20
6.932364395550496
 30
0.0
 10
10.50106062495257
 20
6.972576204152041
 30
0.0
 10
10.66226731719567
 20
7.027174280517956
 30
0.0
 10
10.86922823339989
 20
7.097223374793834
 30
0.0
 10
11.06446312372209
 20
7.163236944438458
 30
0.0
 10
11.25630793890195
 20
7.227967150705347
 30
0.0
 10
11.44887303917669
 20
7.292743033926315
 30
0.0
 10
11.64150356361931
 20
7.357284131897897
 30
0.0
 10
11.89848301177403
 20
7.443002726566466
 30
0.0
 10
12.2206114314153
 20
7.549673424069082
 30
0.0
 10
12.5955504473279
 20
7.672734023850571
 30
0.0
 10
12.91290555451303
 20
7.775991512772203
 30
0.0
 10
13.17678507844396
 20
7.861426261613375
 30
0.0
 10
13.31148956256068
 20
7.904937605504153
 30
0.0
 10
13.37850487432122
 20
7.926567212196961
 30
0.0
  0
SPLINE
  5
7C
330
1F
100
AcDbEntity
  8
0
  6
Continuous
 62
     7
370
    25
100
AcDbSpline
210
0.0
220
0.0
230
1.0
 70
     8
 71
     3
 72
    20
 73
    16
 74
     0
 42
0.00000001
 43
0.00000001
 40
0.0000046788574863
 40
0.0000046788574863
 40
0.0000046788574863
 40
0.0000046788574863
 40
0.0625044191622303
 40
0.1250041594669743
 40
0.1875038997717183
 40
0.2500036400764623
 40
0.3750031206859503
 40
0.5000026012954383
 40
0.6250020819049262
 40
0.7500015625144143
 40
0.8125013028191583
 40
0.8750010431239023
 40
0.9375007834286462
 40
0.9687506535810182
 40
1.00000052373339
 40
1.00000052373339
 40
1.00000052373339
 40
1.00000052373339
 10
13.37850487432122
 20
7.926567212196961
 30
0.0
 10
13.44046718816312
 20
7.946569883215109
 30
0.0
 10
13.56265550035499
 20
7.985960606958872
 30
0.0
 10
13.75649640495241
 20
8.048298749893135
 30
0.0
 10
13.95686386128266
 20
8.112621033476817
 30
0.0
 10
14.21711002716832
 20
8.196079569068543
 30
0.0
 10
14.53800476034099
 20
8.298928565212101
 30
0.0
 10
14.92394283393208
 20
8.422950192106295
 30
0.0
 10
15.30876429708025
 20
8.547408521481842
 30
0.0
 10
15.62880933205276
 20
8.651919900789443
 30
0.0
 10
15.88435204013953
 20
8.736218742320165
 30
0.0
 10
16.0644597219532
 20
8.796023470554355
 30
0.0
 10
16.22089693015584
 20
8.848420586846556
 30
0.0
 10
16.35483794604585
 20
8.893595838037719
 30
0.0
 10
16.42347524278931
 20
8.916861340744623
 30
0.0
 10
16.45757175591455
 20
8.928449973969133
 30
0.0
  0
SPLINE
  5
7D
330
1F
100
AcDbEntity
  8
0
  6
Continuous
 62
     7
370
    25
100
AcDbSpline
210
0.0
220
0.0
230
1.0
 70
     8
 71
     3
 72
    11
 73
     7
 74
     0
 42
0.00000001
 43
0.00000001
 40
-0.0000039960852723
 40
-0.0000039960852723
 40
-0.0000039960852723
 40
-0.0000039960852723
 40
0.2499457540082713
 40
0.4998955041018149
 40
0.7498452541953585
 40
0.9997950042889021
 40
0.9997950042889021
 40
0.9997950042889021
 40
0.9997950042889021
 10
16.45757175591455
 20
8.928449973969133
 30
0.0
 10
16.4935284964527
 20
8.940670561770354
 30
0.0
 10
16.56499847808175
 20
8.965074572421747
 30
0.0
 10
16.67453835460884
 20
9.002860719092348
 30
0.0
 10
16.78151193583377
 20
9.040130304703895
 30
0.0
 10
16.85431062629858
 20
9.065778405417674
 30
0.0
 10
16.89049052850882
 20
9.078598667568128
 30
0.0
  0
SPLINE
  5
7E
330
1F
100
AcDbEntity
  8
0
  6
Continuous
 62
     7
370
    25
100
AcDbSpline
210
0.0
220
0.0
230
1.0
 70
     8
 71
     3
 72
    11
 73
     7
 74
     0
 42
0.00000001
 43
0.00000001
 40
0.0004368238384588
 40
0.0004368238384588
 40
0.0004368238384588
 40
0.0004368238384588
 40
0.2502790086801175
 40
0.5001211935217763
 40
0.7499633783634351
 40
0.9998055632050938
 40
0.9998055632050938
 40
0.9998055632050938
 40
0.9998055632050938
 10
16.89049052850882
 20
9.07859866756813
 30
0.0
 10
16.9075975862034
 20
9.084667923896625
 30
0.0
 10
16.94179059259856
 20
9.096819042689203
 30
0.0
 10
16.9931520629659
 20
9.115124122269444
 30
0.0
 10
17.04454353013321
 20
9.133485228844808
 30
0.0
 10
17.07885563245949
 20
9.14576945612288
 30
0.0
 10
17.09600269393527
 20
9.151913390768438
 30
0.0
  0
SPLINE
  5
7F
330
1F
100
AcDbEntity
  8
0
  6
Continuous
 62
     7
370
    25
100
AcDbSpline
210
0.0
220
0.0
230
1.0
 70
     8
 71
     3
 72
    24
 73
    20
 74
     0
 42
0.00000001
 43
0.00000001
 40
0.0000119955306396
 40
0.0000119955306396
 40
0.0000119955306396
 40
0.0000119955306396
 40
0.0156368081004733
 40
0.0312616206703071
 40
0.0468864332401408
 40
0.0625112458099746
 40
0.0937608709496421
 40
0.1250104960893096
 40
0.1875097463686446
 40
0.2500089966479797
 40
0.3750074972066497
 40
0.5000059977653197
 40
0.6250044983239897
 40
0.7500029988826599
 40
0.8125022491619949
 40
0.87500149944133
 40
0.937500749720665
 40
0.9687503748603326
 40
1.0
 40
1.0
 40
1.0
 40
1.0
 10
17.09600269393527
 20
9.151913390768438
 30
0.0
 10
17.11364261702065
 20
9.158237337391796
 30
0.0
 10
17.14770954201981
 20
9.170488841646817
 30
0.0
 10
17.20596322142961
 20
9.191590378099148
 30
0.0
 10
17.27027437436222
 20
9.21503707001655
 30
0.0
 10
17.35120797397096
 20
9.244744985206545
 30
0.0
 10
17.4479491419596
 20
9.280638065357856
 30
0.0
 10
17.60454669690779
 20
9.339462751499447
 30
0.0
 10
17.79932505792866
 20
9.413978143427839
 30
0.0
 10
18.11069862568202
 20
9.535767677192528
 30
0.0
 10
18.49894587049468
 20
9.692437410813511
 30
0.0
 10
18.96396722337287
 20
9.886091210276891
 30
0.0
 10
19.42791481798732
 20
10.08436330350452
 30
0.0
 10
19.81431543605957
 20
10.25280948605455
 30
0.0
 10
20.12270349161928
 20
10.38877091350678
 30
0.0
 10
20.35830025992621
 20
10.49337925590516
 30
0.0
 10
20.55322129794417
 20
10.58047371444478
 30
0.0
 10
20.70464091839992
 20
10.6484470935018
 30
0.0
 10
20.77897378141646
 20
10.68192453138072
 30
0.0
 10
20.81629658445562
 20
10.69876184150224
 30
0.0
  0
LINE
  5
80
330
1F
100
AcDbEntity
  8
0
  6
Continuous
 62
     7
370
    25
100
AcDbLine
 10
20.8162965845
 20
10.6987618415
 30
0.0
 11
20.8786551857
 21
10.7271805955
 31
0.0
  0
SPLINE
  5
81
330
1F
100
AcDbEntity
  8
0
  6
Continuous
 62
     7
370
    25
100
AcDbSpline
210
0.0
220
0.0
230
1.0
 70
     8
 71
     3
 72
    22
 73
    18
 74
     0
 42
0.00000001
 43
0.00000001
 40
0.0
 40
0.0
 40
0.0
 40
0.0
 40
0.03125
 40
0.0625
 40
0.125
 40
0.1875
 40
0.25
 40
0.375
 40
0.5
 40
0.625
 40
0.75
 40
0.8125
 40
0.875
 40
0.90625
 40
0.9375
 40
0.96875
 40
1.0
 40
1.0
 40
1.0
 40
1.0
 10
20.87865518568634
 20
10.72718059545329
 30
0.0
 10
20.89536417892067
 20
10.73482226021697
 30
0.0
 10
20.9294552737765
 20
10.75045853160583
 30
0.0
 10
20.9920627314007
 20
10.77932212467264
 30
0.0
 10
21.05131395812983
 20
10.80687562381757
 30
0.0
 10
21.13684138694964
 20
10.84699360976987
 30
0.0
 10
21.25115786514824
 20
10.90117703767633
 30
0.0
 10
21.39339787756134
 20
10.96967347402259
 30
0.0
 10
21.56327701159248
 20
11.05327326661642
 30
0.0
 10
21.73228946910745
 20
11.13831850394816
 30
0.0
 10
21.87220273077039
 20
11.21034040425654
 30
0.0
 10
21.98392483060528
 20
11.26888025072863
 30
0.0
 10
22.05284152890326
 20
11.30541495081651
 30
0.0
 10
22.10946870673252
 20
11.3357325498851
 30
0.0
 10
22.15715952018164
 20
11.36143842633582
 30
0.0
 10
22.19909605099431
 20
11.38416718904664
 30
0.0
 10
22.22115251494509
 20
11.39620012832799
 30
0.0
 10
22.23290609427121
 20
11.40262907564986
 30
0.0
  0
SPLINE
  5
82
330
1F
100
AcDbEntity
  8
0
  6
Continuous
 62
     7
370
    25
100
AcDbSpline
210
0.0
220
0.0
230
1.0
 70
     8
 71
     3
 72
    10
 73
     6
 74
     0
 42
0.00000001
 43
0.00000001
 40
0.0
 40
0.0
 40
0.0
 40
0.0
 40
0.25
 40
0.4622044175979789
 40
0.4877021242348187
 40
0.4877021242348187
 40
0.4877021242348187
 40
0.4877021242348187
 10
22.2329060936172
 20
11.40262907529213
 30
0.0
 10
22.31598936539098
 20
11.44807378320905
 30
0.0
 10
22.46912647653211
 20
11.53345283848111
 30
0.0
 10
22.62835876391156
 20
11.62575100933978
 30
0.0
 10
22.70544451871726
 20
11.67139882727244
 30
0.0
 10
22.71370690176889
 20
11.67630284266988
 30
0.0
  0
ARC
  5
83
330
1F
100
AcDbEntity
  8
0
  6
Continuous
 62
     7
370
    25
100
AcDbCircle
 10
22.7647471214
 20
11.5903092616
 30
0.0
 40
0.0999999999999987
100
AcDbArc
 50
14.0
 51
120.6906235419
  0
LINE
  5
84
330
1F
100
AcDbEntity
  8
0
  6
Continuous
 62
     7
370
    25
100
AcDbLine
 10
22.9374764584
 20
11.3108862796
 30
0.0
 11
22.861776694
 21
11.6145014512
 31
0.0
  0
ARC
  5
85
330
1F
100
AcDbEntity
  8
0
  6
Continuous
 62
     7
370
    25
100
AcDbCircle
 10
0.4479245574
 20
4.1640640169
 30
0.0
 40
0.1000000000000003
100
AcDbArc
 50
194.0000000002
 51
273.4142778282
  0
SPLINE
  5
86
330
1F
100
AcDbEntity
  8
0
  6
Continuous
 62
     7
370
    25
100
AcDbSpline
210
0.0
220
0.0
230
1.0
 70
     8
 71
     3
 72
     8
 73
     4
 74
     0
 42
0.00000001
 43
0.00000001
 40
0.0
 40
0.0
 40
0.0
 40
0.0
 40
0.4793700687162312
 40
0.4793700687162312
 40
0.4793700687162312
 40
0.4793700687162312
 10
1.35536552167853
 20
4.135257038663548
 30
0.0
 10
1.055239307649113
 20
4.105685670456164
 30
0.0
 10
0.7547330953051125
 20
4.082190715033078
 30
0.0
 10
0.4538800701635566
 20
4.064241515040932
 30
0.0
  0
MTEXT
  5
88
330
1F
100
AcDbEntity
  8
PART_NAMES
100
AcDbMText
 10
10.1430673541
 20
6.6644967144
 30
0.0
 40
0.1666666667
 41
0.0
 71
     1
 72
     1
  1
CES1
  7
SLDTEXTSTYLE0
 11
0.9205048534524399
 21
0.3907311284892745
 31
0.0
 73
     1
 44
1.0
  0
LINE
  5
89
330
1F
100
AcDbEntity
  8
0
  6
Continuous
 62
     7
370
    25
100
AcDbLine
 10
13.6017636496
 20
8.6802004471
 30
0.0
 11
13.7424893802
 21
8.7385090039
 31
0.0
  0
SPLINE
  5
8A
330
1F
100
AcDbEntity
  8
0
  6
Continuous
 62
     7
370
    25
100
AcDbSpline
210
0.0
220
0.0
230
1.0
 70
     8
 71
     3
 72
     9
 73
     5
 74
     0
 42
0.00000001
 43
0.00000001
 40
0.0
 40
0.0
 40
0.0
 40
0.0
 40
0.4661081979406326
 40
1.0
 40
1.0
 40
1.0
 40
1.0
 10
13.16705014648732
 20
8.500519054346379
 30
0.0
 10
13.23461052597421
 20
8.528389579952997
 30
0.0
 10
13.37955622696248
 20
8.588183691555745
 30
0.0
 10
13.52442134869602
 20
8.648172769962091
 30
0.0
 10
13.60176364959389
 20
8.68020044713633
 30
0.0
  0
SPLINE
  5
8B
330
1F
100
AcDbEntity
  8
0
  6
Continuous
 62
     7
370
    25
100
AcDbSpline
210
0.0
220
0.0
230
1.0
 70
     8
 71
     3
 72
    15
 73
    11
 74
     0
 42
0.00000001
 43
0.00000001
 40
0.0
 40
0.0
 40
0.0
 40
0.0
 40
0.0772092773432324
 40
0.1568675542778391
 40
0.2389752919285686
 40
0.3235329113466781
 40
0.4105407980167927
 40
0.4999993057482915
 40
0.7339245512205658
 40
1.0
 40
1.0
 40
1.0
 40
1.0
 10
11.56347529650117
 20
7.854738234547259
 30
0.0
 10
11.60493412804849
 20
7.870884376473739
 30
0.0
 10
11.68916682302802
 20
7.903688799493651
 30
0.0
 10
11.81732839977606
 20
7.954073690943922
 30
0.0
 10
11.94931961965637
 20
8.006289608541417
 30
0.0
 10
12.08512778148441
 20
8.060369229513972
 30
0.0
 10
12.22475688811921
 20
8.116302341911382
 30
0.0
 10
12.44411166472881
 20
8.204678606707411
 30
0.0
 10
12.75878018006438
 20
8.332602961743191
 30
0.0
 10
13.02524881834606
 20
8.442198024376822
 30
0.0
 10
13.16705014648732
 20
8.500519054346379
 30
0.0
  0
SPLINE
  5
8C
330
1F
100
AcDbEntity
  8
0
  6
Continuous
 62
     7
370
    25
100
AcDbSpline
210
0.0
220
0.0
230
1.0
 70
     8
 71
     3
 72
    17
 73
    13
 74
     0
 42
0.00000001
 43
0.00000001
 40
0.0
 40
0.0
 40
0.0
 40
0.0
 40
0.0691364048508769
 40
0.1390352430199063
 40
0.2096973648635374
 40
0.281123593476675
 40
0.353314725818091
 40
0.4262715337798165
 40
0.499994765203703
 40
0.6613017271961746
 40
0.8279681111398561
 40
1.0
 40
1.0
 40
1.0
 40
1.0
 10
10.08661354913342
 20
7.313011844653208
 30
0.0
 10
10.12091140972127
 20
7.324762790736453
 30
0.0
 10
10.18988536623779
 20
7.348394271834171
 30
0.0
 10
10.29375297279574
 20
7.384503516493075
 30
0.0
 10
10.39863770456331
 20
7.421341532316714
 30
0.0
 10
10.50452768892219
 20
7.458943087484232
 30
0.0
 10
10.61142621937062
 20
7.497298554100044
 30
0.0
 10
10.71933217600451
 20
7.536411166450265
 30
0.0
 10
10.87099921297117
 20
7.591926651228994
 30
0.0
 10
11.06844752337428
 20
7.66532767264215
 30
0.0
 10
11.31368094334818
 20
7.758126036371796
 30
0.0
 10
11.47933576916348
 20
7.822195846831394
 30
0.0
 10
11.56347529650117
 20
7.854738234547259
 30
0.0
  0
SPLINE
  5
8D
330
1F
100
AcDbEntity
  8
0
  6
Continuous
 62
     7
370
    25
100
AcDbSpline
210
0.0
220
0.0
230
1.0
 70
     8
 71
     3
 72
    13
 73
     9
 74
     0
 42
0.00000001
 43
0.00000001
 40
0.0
 40
0.0
 40
0.0
 40
0.0
 40
0.1640442548364111
 40
0.3291350960592825
 40
0.4952743327150474
 40
0.6624637398181583
 40
0.8307050591438812
 40
1.0
 40
1.0
 40
1.0
 40
1.0
 10
9.557208139778524
 20
7.137883692994803
 30
0.0
 10
9.586241841876326
 20
7.147200498497257
 30
0.0
 10
9.64449447826671
 20
7.165893549814864
 30
0.0
 10
9.73203164893766
 20
7.194394029899706
 30
0.0
 10
9.820037302113748
 20
7.223342209548956
 30
0.0
 10
9.908500474359762
 20
7.252771918805212
 30
0.0
 10
9.997432065941137
 20
7.282650771385947
 30
0.0
 10
10.05682459002518
 20
7.302870448281826
 30
0.0
 10
10.08661354913342
 20
7.313011844653208
 30
0.0
  0
SPLINE
  5
8E
330
1F
100
AcDbEntity
  8
0
  6
Continuous
 62
     7
370
    25
100
AcDbSpline
210
0.0
220
0.0
230
1.0
 70
     8
 71
     3
 72
    20
 73
    16
 74
     0
 42
0.00000001
 43
0.00000001
 40
0.0
 40
0.0
 40
0.0
 40
0.0
 40
0.041683674945437
 40
0.0833582702611791
 40
0.1250246278363957
 40
0.1666835900596925
 40
0.2083359997683686
 40
0.2499827001975478
 40
0.3737183659177992
 40
0.4999800262638452
 40
0.6215421414038395
 40
0.7499874833764212
 40
0.8749932111379202
 40
0.9348514236905852
 40
0.9999999999999999
 40
0.9999999999999999
 40
0.9999999999999999
 40
0.9999999999999999
 10
7.548342838141555
 20
6.574549101308565
 30
0.0
 10
7.576607656122325
 20
6.581031600295646
 30
0.0
 10
7.633131135379082
 20
6.593995186237627
 30
0.0
 10
7.717795834755292
 20
6.613921305210775
 30
0.0
 10
7.802359711739044
 20
6.634196518420794
 30
0.0
 10
7.886814863169909
 20
6.654855450533734
 30
0.0
 10
7.971163407124922
 20
6.675888961373904
 30
0.0
 10
8.110756492892243
 20
6.71136669676922
 30
0.0
 10
8.306946890828634
 20
6.763106462545724
 30
0.0
 10
8.55603399020329
 20
6.832207031019029
 30
0.0
 10
8.807421499770278
 20
6.905196190655649
 30
0.0
 10
9.057209268376868
 20
6.980508711003869
 30
0.0
 10
9.265334466085866
 20
7.045262367127873
 30
0.0
 10
9.431183219092038
 20
7.097661694326924
 30
0.0
 10
9.514031108434562
 20
7.124103351077191
 30
0.0
 10
9.557208139778524
 20
7.137883692994803
 30
0.0
  0
SPLINE
  5
8F
330
1F
100
AcDbEntity
  8
0
  6
Continuous
 62
     7
370
    25
100
AcDbSpline
210
0.0
220
0.0
230
1.0
 70
     8
 71
     3
 72
    27
 73
    23
 74
     0
 42
0.00000001
 43
0.00000001
 40
0.0
 40
0.0
 40
0.0
 40
0.0
 40
0.0212498059447327
 40
0.0423328237487566
 40
0.0632492484408509
 40
0.0839992797472051
 40
0.1045831222375808
 40
0.1250009854769562
 40
0.1881325559411371
 40
0.2499655105175292
 40
0.3128628228121855
 40
0.3749492765912469
 40
0.4377459153973158
 40
0.4999767669454468
 40
0.6260627076232077
 40
0.7499981254918984
 40
0.8131382047600407
 40
0.8749877416926254
 40
0.9066616643741012
 40
0.938053541937035
 40
0.9691655690158661
 40
1.0
 40
1.0
 40
1.0
 40
1.0
 10
2.05969664435146
 20
5.965551729958398
 30
0.0
 10
2.098875119643389
 20
5.966274774416304
 30
0.0
 10
2.176924561299083
 20
5.967715188210135
 30
0.0
 10
2.293528955319472
 20
5.970311586159529
 30
0.0
 10
2.409204038233026
 20
5.97321758334463
 30
0.0
 10
2.523949251936895
 20
5.976464340198518
 30
0.0
 10
2.637764782730387
 20
5.980043584920854
 30
0.0
 10
2.829673738308621
 20
5.986697500374363
 30
0.0
 10
3.097538224082888
 20
5.997784563115962
 30
0.0
 10
3.443496991358387
 20
6.015810623574117
 30
0.0
 10
3.787307667625901
 20
6.037626099199696
 30
0.0
 10
4.132610885309663
 20
6.063606709095829
 30
0.0
 10
4.476348799369656
 20
6.093689264020007
 30
0.0
 10
4.937111126834499
 20
6.139848278195048
 30
0.0
 10
5.508896648320095
 20
6.208328968820309
 30
0.0
 10
6.08028550612049
 20
6.292497034700475
 30
0.0
 10
6.532899203782256
 20
6.369021530355172
 30
0.0
 10
6.817005103430382
 20
6.421454407931615
 30
0.0
 10
7.043014394690605
 20
6.465957162929939
 30
0.0
 10
7.213120461344924
 20
6.500948199431729
 30
0.0
 10
7.381436024229216
 20
6.536942174841302
 30
0.0
 10
7.492873692639523
 20
6.562050965209745
 30
0.0
 10
7.548342838141558
 20
6.574549101308565
 30
0.0
  0
SPLINE
  5
90
330
1F
100
AcDbEntity
  8
0
  6
Continuous
 62
     7
370
    25
100
AcDbSpline
210
0.0
220
0.0
230
1.0
 70
     8
 71
     3
 72
    14
 73
    10
 74
     0
 42
0.00000001
 43
0.00000001
 40
0.0
 40
0.0
 40
0.0
 40
0.0
 40
0.1281562778109721
 40
0.2542079821571882
 40
0.3781560909133074
 40
0.5000016326013861
 40
0.6697800275475927
 40
0.8364450037972844
 40
1.0
 40
1.0
 40
1.0
 40
1.0
 10
0.8627517069965646
 20
5.96034823857285
 30
0.0
 10
0.9138844048120739
 20
5.960009835562559
 30
0.0
 10
1.015310102842301
 20
5.959338586772632
 30
0.0
 10
1.166192234845321
 20
5.958859190392802
 30
0.0
 10
1.31455701983616
 20
5.958780901353675
 30
0.0
 10
1.480368216276062
 20
5.959183702327954
 30
0.0
 10
1.663220422568549
 20
5.960311592199224
 30
0.0
 10
1.86270810271719
 20
5.962360780116978
 30
0.0
 10
1.994447366392467
 20
5.964494779277772
 30
0.0
 10
2.05969664435146
 20
5.965551729958398
 30
0.0
  0
SPLINE
  5
91
330
1F
100
AcDbEntity
  8
0
  6
Continuous
 62
     7
370
    25
100
AcDbSpline
210
0.0
220
0.0
230
1.0
 70
     8
 71
     3
 72
     9
 73
     5
 74
     0
 42
0.00000001
 43
0.00000001
 40
0.0
 40
0.0
 40
0.0
 40
0.0
 40
0.5036101108734811
 40
1.0
 40
1.0
 40
1.0
 40
1.0
 10
0.5533150093449227
 20
5.963405399095341
 30
0.0
 10
0.6052592126051585
 20
5.962796293854928
 30
0.0
 10
0.7084028988392204
 20
5.961586816071893
 30
0.0
 10
0.8115503534424063
 20
5.960759105654948
 30
0.0
 10
0.8627517069965646
 20
5.96034823857285
 30
0.0
  0
ARC
  5
92
330
1F
100
AcDbEntity
  8
0
  6
Continuous
 62
     7
370
    25
100
AcDbCircle
 10
0.5539306135
 20
6.0134015959
 30
0.0
 40
0.0500000000000004
100
AcDbArc
 50
202.6552382891
 51
269.2945516021
  0
LINE
  5
93
330
1F
100
AcDbEntity
  8
0
  6
Continuous
 62
     7
370
    25
100
AcDbLine
 10
0.4028566803
 20
6.245541775
 30
0.0
 11
0.5077886488
 21
5.9941423358
 31
0.0
  0
ARC
  5
94
330
1F
100
AcDbEntity
  8
0
  6
Continuous
 62
     7
370
    25
100
AcDbCircle
 10
0.4489986449
 20
6.2648010351
 30
0.0
 40
0.0500000000000008
100
AcDbArc
 50
89.2012502738
 51
202.6552382891
  0
SPLINE
  5
95
330
1F
100
AcDbEntity
  8
0
  6
Continuous
 62
     7
370
    25
100
AcDbSpline
210
0.0
220
0.0
230
1.0
 70
     8
 71
     3
 72
    10
 73
     6
 74
     0
 42
0.00000001
 43
0.00000001
 40
0.370176134438441
 40
0.370176134438441
 40
0.370176134438441
 40
0.370176134438441
 40
0.5
 40
0.75
 40
1.0
 40
1.0
 40
1.0
 40
1.0
 10
0.4496956629621423
 20
6.314796176529017
 30
0.0
 10
0.4782620175858397
 20
6.314397912530895
 30
0.0
 10
0.5618333449638161
 20
6.313285903882263
 30
0.0
 10
0.7003908561572424
 20
6.31170701381772
 30
0.0
 10
0.8103485783330139
 20
6.31074428794642
 30
0.0
 10
0.8653332564102002
 20
6.31033871787568
 30
0.0
  0
SPLINE
  5
96
330
1F
100
AcDbEntity
  8
0
  6
Continuous
 62
     7
370
    25
100
AcDbSpline
210
0.0
220
0.0
230
1.0
 70
     8
 71
     3
 72
    11
 73
     7
 74
     0
 42
0.00000001
 43
0.00000001
 40
0.0
 40
0.0
 40
0.0
 40
0.0
 40
0.25
 40
0.5
 40
0.75
 40
1.0
 40
1.0
 40
1.0
 40
1.0
 10
0.8653332625888623
 20
6.310338717830106
 30
0.0
 10
0.9644518394555925
 20
6.309607611895585
 30
0.0
 10
1.162743664160869
 20
6.308650482454483
 30
0.0
 10
1.459881933063552
 20
6.308901400663623
 30
0.0
 10
1.756859613289531
 20
6.311006546446476
 30
0.0
 10
1.954632572256642
 20
6.313756674380778
 30
0.0
 10
2.05353713231209
 20
6.315497526348978
 30
0.0
  0
SPLINE
  5
97
330
1F
100
AcDbEntity
  8
0
  6
Continuous
 62
     7
370
    25
100
AcDbSpline
210
0.0
220
0.0
230
1.0
 70
     8
 71
     3
 72
    12
 73
     8
 74
     0
 42
0.00000001
 43
0.00000001
 40
0.0
 40
0.0
 40
0.0
 40
0.0
 40
0.125
 40
0.25
 40
0.5
 40
0.75
 40
1.0
 40
1.0
 40
1.0
 40
1.0
 10
2.053537137932719
 20
6.315497526447908
 30
0.0
 10
2.281821572314243
 20
6.319515632831747
 30
0.0
 10
2.73864062983711
 20
6.331524742199861
 30
0.0
 10
3.649169447879773
 20
6.37373951158876
 30
0.0
 10
4.784142108521809
 20
6.465191522956609
 30
0.0
 10
6.137753823592674
 20
6.644984751321401
 30
0.0
 10
7.02839914634488
 20
6.81499078161927
 30
0.0
 10
7.47054454011483
 20
6.915793038725987
 30
0.0
  0
SPLINE
  5
98
330
1F
100
AcDbEntity
  8
0
  6
Continuous
 62
     7
370
    25
100
AcDbSpline
210
0.0
220
0.0
230
1.0
 70
     8
 71
     3
 72
    11
 73
     7
 74
     0
 42
0.00000001
 43
0.00000001
 40
0.0
 40
0.0
 40
0.0
 40
0.0
 40
0.2499992001327898
 40
0.4999984002655796
 40
0.7499976003983694
 40
0.9999968005311591
 40
0.9999968005311591
 40
0.9999968005311591
 40
0.9999968005311591
 10
7.470544529683061
 20
6.915793036347706
 30
0.0
 10
7.637027804462598
 20
6.953748633017852
 30
0.0
 10
7.968904422362259
 20
7.034122984599586
 30
0.0
 10
8.463774901929252
 20
7.168248126663222
 30
0.0
 10
8.956536377618717
 20
7.314580489722929
 30
0.0
 10
9.286288812987134
 20
7.418709443084016
 30
0.0
 10
9.45059765206615
 20
7.471251663792999
 30
0.0
  0
SPLINE
  5
99
330
1F
100
AcDbEntity
  8
0
  6
Continuous
 62
     7
370
    25
100
AcDbSpline
210
0.0
220
0.0
230
1.0
 70
     8
 71
     3
 72
    11
 73
     7
 74
     0
 42
0.00000001
 43
0.00000001
 40
0.0000120243677918
 40
0.0000120243677918
 40
0.0000120243677918
 40
0.0000120243677918
 40
0.2500090182758438
 40
0.5000060121838958
 40
0.7500030060919479
 40
1.0
 40
1.0
 40
1.0
 40
1.0
 10
9.45059765206615
 20
7.471251663793
 30
0.0
 10
9.494293119218705
 20
7.485226319659078
 30
0.0
 10
9.58160088973749
 20
7.513397032999931
 30
0.0
 10
9.71241700729349
 20
7.556331131097381
 30
0.0
 10
9.843056966385722
 20
7.599913804219147
 30
0.0
 10
9.930058078569687
 20
7.629396759787409
 30
0.0
 10
9.973518659968065
 20
7.644236158441728
 30
0.0
  0
SPLINE
  5
9A
330
1F
100
AcDbEntity
  8
0
  6
Continuous
 62
     7
370
    25
100
AcDbSpline
210
0.0
220
0.0
230
1.0
 70
     8
 71
     3
 72
    11
 73
     7
 74
     0
 42
0.00000001
 43
0.00000001
 40
0.0
 40
0.0
 40
0.0
 40
0.0
 40
0.25
 40
0.5
 40
0.75
 40
1.0
 40
1.0
 40
1.0
 40
1.0
 10
9.973518666650667
 20
7.64423616072347
 30
0.0
 10
10.09621903606131
 20
7.686131586831447
 30
0.0
 10
10.34096982374796
 20
7.771483435812532
 30
0.0
 10
10.7072065313452
 20
7.904028442034749
 30
0.0
 10
11.0723818860783
 20
8.04049795287977
 30
0.0
 10
11.31542805165788
 20
8.133850319568774
 30
0.0
 10
11.43671331690259
 20
8.180976491850489
 30
0.0
  0
SPLINE
  5
9B
330
1F
100
AcDbEntity
  8
0
  6
Continuous
 62
     7
370
    25
100
AcDbSpline
210
0.0
220
0.0
230
1.0
 70
     8
 71
     3
 72
    11
 73
     7
 74
     0
 42
0.00000001
 43
0.00000001
 40
0.0
 40
0.0
 40
0.0
 40
0.0
 40
0.25
 40
0.5
 40
0.75
 40
1.0
 40
1.0
 40
1.0
 40
1.0
 10
11.43671332741783
 20
8.180976495936253
 30
0.0
 10
11.57017708802162
 20
8.232834696207963
 30
0.0
 10
11.83652501473523
 20
8.337615341555043
 30
0.0
 10
12.23585750320169
 20
8.4977838947623
 30
0.0
 10
12.63479440373268
 20
8.66005754998919
 30
0.0
 10
12.90079884618743
 20
8.769348491262544
 30
0.0
 10
13.03368828696567
 20
8.824115430137157
 30
0.0
  0
SPLINE
  5
9C
330
1F
100
AcDbEntity
  8
0
  6
Continuous
 62
     7
370
    25
100
AcDbSpline
210
0.0
220
0.0
230
1.0
 70
     8
 71
     3
 72
    11
 73
     7
 74
     0
 42
0.00000001
 43
0.00000001
 40
0.0
 40
0.0
 40
0.0
 40
0.0
 40
0.25
 40
0.5
 40
0.75
 40
1.0
 40
1.0
 40
1.0
 40
1.0
 10
13.03368829000962
 20
8.824115431391645
 30
0.0
 10
13.06986518562973
 20
8.839024800914105
 30
0.0
 10
13.14220076096755
 20
8.868863602812093
 30
0.0
 10
13.25073059319099
 20
8.91370231451152
 30
0.0
 10
13.35926418197439
 20
8.958598793957744
 30
0.0
 10
13.43163376300939
 20
8.988566155088867
 30
0.0
 10
13.46781334463898
 20
9.003553684018982
 30
0.0
  0
LWPOLYLINE
  5
9D
330
1F
100
AcDbEntity
  8
0
  6
Continuous
 62
     7
370
    25
100
AcDbPolyline
 90
        3
 70
   128
 43
0.0
 10
13.4678133446
 20
9.003553684
 10
13.5465950463
 20
9.0361927024
 10
13.6084835899
 20
9.0618392502
  0
SPLINE
  5
9E
330
1F
100
AcDbEntity
  8
0
  6
Continuous
 62
     7
370
    25
100
AcDbSpline
210
0.0
220
0.0
230
1.0
 70
     8
 71
     3
 72
    11
 73
     7
 74
     0
 42
0.00000001
 43
0.00000001
 40
0.0
 40
0.0
 40
0.0
 40
0.0
 40
0.2499999728095259
 40
0.4999999456190518
 40
0.7499999184285777
 40
0.9287820497203285
 40
0.9287820497203285
 40
0.9287820497203285
 40
0.9287820497203285
 10
13.60848359634641
 20
9.061839252847227
 30
0.0
 10
14.09486428338556
 20
9.26342207846477
 30
0.0
 10
15.06735513168786
 20
9.667371103716226
 30
0.0
 10
16.52752138012965
 20
10.26906046548654
 30
0.0
 10
17.84544898169477
 20
10.81796026623209
 30
0.0
 10
18.67688960401976
 20
11.16795025456292
 30
0.0
 10
19.02335902532423
 20
11.31435026381054
 30
0.0
  0
LINE
  5
9F
330
1F
100
AcDbEntity
  8
0
  6
Continuous
 62
     7
370
    25
100
AcDbLine
 10
18.9958200097
 20
11.2473523419
 30
0.0
 11
19.0233590253
 21
11.3143502638
 31
0.0
  0
LINE
  5
A0
330
1F
100
AcDbEntity
  8
0
  6
Continuous
 62
     7
370
    25
100
AcDbLine
 10
19.1259986262
 20
11.1938433548
 30
0.0
 11
18.9958200097
 21
11.2473523419
 31
0.0
  0
LINE
  5
A1
330
1F
100
AcDbEntity
  8
0
  6
Continuous
 62
     7
370
    25
100
AcDbLine
 10
19.0724896392
 20
11.0636647383
 30
0.0
 11
19.1259986262
 21
11.1938433548
 31
0.0
  0
LINE
  5
A2
330
1F
100
AcDbEntity
  8
0
  6
Continuous
 62
     7
370
    25
100
AcDbLine
 10
19.2026682558
 20
11.0101557512
 30
0.0
 11
19.0724896392
 21
11.0636647383
 31
0.0
  0
SPLINE
  5
A3
330
1F
100
AcDbEntity
  8
0
  6
Continuous
 62
     7
370
    25
100
AcDbSpline
210
0.0
220
0.0
230
1.0
 70
     8
 71
     3
 72
    17
 73
    13
 74
     0
 42
0.00000001
 43
0.00000001
 40
0.0
 40
0.0
 40
0.0
 40
0.0
 40
0.0667600617778252
 40
0.133520122976843
 40
0.2670401949261775
 40
0.3338002330096078
 40
0.4005602806920192
 40
0.5340802963273052
 40
0.6705190234063155
 40
0.8011200585901589
 40
0.8991042429437455
 40
1.0
 40
1.0
 40
1.0
 40
1.0
 10
13.74248938015691
 20
8.738509003867435
 30
0.0
 10
13.86405882529712
 20
8.788912082056346
 30
0.0
 10
14.10719771452352
 20
8.889718237997172
 30
0.0
 10
14.59342500476501
 20
9.091451970348961
 30
0.0
 10
15.07971882535262
 20
9.293025491909363
 30
0.0
 10
15.56623599417901
 20
9.494059065722945
 30
0.0
 10
16.05279859194507
 20
9.694982207486111
 30
0.0
 10
16.66625312885765
 20
9.948494103137435
 30
0.0
 10
17.3954548730915
 20
10.251428873829
 30
0.0
 10
18.05941067219907
 20
10.52881949666559
 30
0.0
 10
18.65825266375497
 20
10.78030629095361
 30
0.0
 10
19.01943338382096
 20
10.93279552404159
 30
0.0
 10
19.20266755981102
 20
11.01015635040886
 30
0.0
  0
MTEXT
  5
A5
330
1F
100
AcDbEntity
  8
PART_NAMES
100
AcDbMText
 10
10.9848562624
 20
7.9008530251
 30
0.0
 40
0.1666666667
 41
0.0
 71
     1
 72
     1
  1
TS L 1.1
  7
SLDTEXTSTYLE1
 11
0.9063077870366496
 21
0.4226182617407003
 31
0.0
 73
     1
 44
1.0
  0
LINE
  5
A6
330
1F
100
AcDbEntity
  8
0
  6
Continuous
 62
     7
370
    25
100
AcDbLine
 10
23.3056740406
 20
9.6433619297
 30
0.0
 11
23.2283005562
 21
9.5037764688
 31
0.0
  0
LINE
  5
A7
330
1F
100
AcDbEntity
  8
0
  6
Continuous
 62
     7
370
    25
100
AcDbLine
 10
23.2283005562
 20
9.5037764688
 30
0.0
 11
23.3668356749
 21
9.4269851985
 31
0.0
  0
LWPOLYLINE
  5
A8
330
1F
100
AcDbEntity
  8
0
  6
Continuous
 62
     7
370
    25
100
AcDbPolyline
 90
        3
 70
   128
 43
0.0
 10
22.903917084
 20
9.2950165376
 10
23.1631490957
 20
9.3689257908
 10
23.3668356749
 20
9.4269851985
  0
SPLINE
  5
A9
330
1F
100
AcDbEntity
  8
0
  6
Continuous
 62
     7
370
    25
100
AcDbSpline
210
0.0
220
0.0
230
1.0
 70
     8
 71
     3
 72
    11
 73
     7
 74
     0
 42
0.00000001
 43
0.00000001
 40
0.0
 40
0.0
 40
0.0
 40
0.0
 40
0.25
 40
0.5
 40
0.75
 40
1.0
 40
1.0
 40
1.0
 40
1.0
 10
9.982184496261896
 20
5.556752690819453
 30
0.0
 10
11.06046371173413
 20
5.865278155283914
 30
0.0
 10
13.21514727367736
 20
6.489798800990862
 30
0.0
 10
16.44274941997012
 20
7.436246277169935
 30
0.0
 10
19.66998040568036
 20
8.373449866494045
 30
0.0
 10
21.82611317247357
 20
8.98769050947387
 30
0.0
 10
22.90391708399308
 20
9.295016537644216
 30
0.0
  0
SPLINE
  5
AA
330
1F
100
AcDbEntity
  8
0
  6
Continuous
 62
     7
370
    25
100
AcDbSpline
210
0.0
220
0.0
230
1.0
 70
     8
 71
     3
 72
    11
 73
     7
 74
     0
 42
0.00000001
 43
0.00000001
 40
0.0
 40
0.0
 40
0.0
 40
0.0
 40
0.25
 40
0.5
 40
0.75
 40
1.0
 40
1.0
 40
1.0
 40
1.0
 10
4.750146329989341
 20
4.08857078394731
 30
0.0
 10
5.186159341148304
 20
4.209989104788289
 30
0.0
 10
6.058177758684692
 20
4.45226036916259
 30
0.0
 10
7.36690857344254
 20
4.816696857420432
 30
0.0
 10
8.675165309022645
 20
5.184277874276065
 30
0.0
 10
9.546652138073108
 20
5.432134854158088
 30
0.0
 10
9.982184496294721
 20
5.556752690828846
 30
0.0
  0
SPLINE
  5
AB
330
1F
100
AcDbEntity
  8
0
  6
Continuous
 62
     7
370
    25
100
AcDbSpline
210
0.0
220
0.0
230
1.0
 70
     8
 71
     3
 72
    11
 73
     7
 74
     0
 42
0.00000001
 43
0.00000001
 40
-0.0000007089534061
 40
-0.0000007089534061
 40
-0.0000007089534061
 40
-0.0000007089534061
 40
0.2499994682849454
 40
0.499999645523297
 40
0.7499998227616484
 40
1.0
 40
1.0
 40
1.0
 40
1.0
 10
3.754761494343214
 20
3.810609101769664
 30
0.0
 10
3.837681642483085
 20
3.833841403765502
 30
0.0
 10
4.003529218335818
 20
3.880263572068688
 30
0.0
 10
4.252357316861963
 20
3.949792884238686
 30
0.0
 10
4.501225460532482
 20
4.019227026784527
 30
0.0
 10
4.667172001687739
 20
4.065464596427672
 30
0.0
 10
4.75014628485454
 20
4.088570771378443
 30
0.0
  0
ARC
  5
AC
330
1F
100
AcDbEntity
  8
0
  6
Continuous
 62
     7
370
    25
100
AcDbCircle
 10
134.0268577632
 20
-461.1608324727
 30
0.0
 40
482.8760302046103
100
AcDbArc
 50
105.6513979005
 51
105.6884223114
  0
SPLINE
  5
AD
330
1F
100
AcDbEntity
  8
0
  6
Continuous
 62
     7
370
    25
100
AcDbSpline
210
0.0
220
0.0
230
1.0
 70
     8
 71
     3
 72
     8
 73
     4
 74
     0
 42
0.00000001
 43
0.00000001
 40
0.9287820497203285
 40
0.9287820497203285
 40
0.9287820497203285
 40
0.9287820497203285
 40
0.9999998912381036
 40
0.9999998912381036
 40
0.9999998912381036
 40
0.9999998912381036
 10
3.02164424962893
 20
3.604559254542256
 30
0.0
 10
3.165851158223061
 20
3.645226657594685
 30
0.0
 10
3.310079606874336
 20
3.68581568146207
 30
0.0
 10
3.454325157113328
 20
3.7263304764991
 30
0.0
  0
LINE
  5
AE
330
1F
100
AcDbEntity
  8
0
  6
Continuous
 62
     7
370
    25
100
AcDbLine
 10
2.9582894221
 20
3.6396774087
 30
0.0
 11
3.0216442496
 21
3.6045592545
 31
0.0
  0
LINE
  5
AF
330
1F
100
AcDbEntity
  8
0
  6
Continuous
 62
     7
370
    25
100
AcDbLine
 10
3.026524863
 20
3.7627774027
 30
0.0
 11
2.9582894221
 21
3.6396774087
 31
0.0
  0
LINE
  5
B0
330
1F
100
AcDbEntity
  8
0
  6
Continuous
 62
     7
370
    25
100
AcDbLine
 10
2.9034248691
 20
3.8310128436
 30
0.0
 11
3.026524863
 21
3.7627774027
 31
0.0
  0
LINE
  5
B1
330
1F
100
AcDbEntity
  8
0
  6
Continuous
 62
     7
370
    25
100
AcDbLine
 10
2.97166031
 20
3.9541128375
 30
0.0
 11
2.9034248691
 21
3.8310128436
 31
0.0
  0
SPLINE
  5
B2
330
1F
100
AcDbEntity
  8
0
  6
Continuous
 62
     7
370
    25
100
AcDbSpline
210
0.0
220
0.0
230
1.0
 70
     8
 71
     3
 72
     8
 73
     4
 74
     0
 42
0.00000001
 43
0.00000001
 40
0.9361894949121183
 40
0.9361894949121183
 40
0.9361894949121183
 40
0.9361894949121183
 40
1.0
 40
1.0
 40
1.0
 40
1.0
 10
2.971659913620005
 20
3.95411272581819
 30
0.0
 10
3.10098344541759
 20
3.990566688601597
 30
0.0
 10
3.230324624530935
 20
4.026958316443872
 30
0.0
 10
3.359682346536569
 20
4.063291510457928
 30
0.0
  0
ARC
  5
B3
330
1F
100
AcDbEntity
  8
0
  6
Continuous
 62
     7
370
    25
100
AcDbCircle
 10
134.0268577632
 20
-461.1608324727
 30
0.0
 40
483.2260302046103
100
AcDbArc
 50
105.6513979886
 51
105.6884224028
  0
SPLINE
  5
B4
330
1F
100
AcDbEntity
  8
0
  6
Continuous
 62
     7
370
    25
100
AcDbSpline
210
0.0
220
0.0
230
1.0
 70
     8
 71
     3
 72
     9
 73
     5
 74
     0
 42
0.00000001
 43
0.00000001
 40
0.0
 40
0.0
 40
0.0
 40
0.0
 40
0.6197656860676942
 40
1.0
 40
1.0
 40
1.0
 40
1.0
 10
3.660336473089019
 20
4.147631230659863
 30
0.0
 10
3.866032033681299
 20
4.205262355182482
 30
0.0
 10
4.197981799969599
 20
4.298046335905431
 30
0.0
 10
4.530000447693346
 20
4.390583382308769
 30
0.0
 10
4.656253043019453
 20
4.425741439049427
 30
0.0
  0
SPLINE
  5
B5
330
1F
100
AcDbEntity
  8
0
  6
Continuous
 62
     7
370
    25
100
AcDbSpline
210
0.0
220
0.0
230
1.0
 70
     8
 71
     3
 72
    12
 73
     8
 74
     0
 42
0.00000001
 43
0.00000001
 40
0.0
 40
0.0
 40
0.0
 40
0.0
 40
0.5
 40
0.5
 40
0.75
 40
0.75
 40
1.0
 40
1.0
 40
1.0
 40
1.0
 10
4.656253043019453
 20
4.425741439049427
 30
0.0
 10
5.528347859780006
 20
4.668597238200297
 30
0.0
 10
6.400732793025323
 20
4.910411832241872
 30
0.0
 10
7.708449610465157
 20
5.276217260907348
 30
0.0
 10
8.14421638487332
 20
5.398651860930313
 30
0.0
 10
9.015355325753342
 20
5.644908715037537
 30
0.0
 10
9.450727404276678
 20
5.768733402497905
 30
0.0
 10
9.885903520286305
 20
5.893249308432748
 30
0.0
  0
SPLINE
  5
B6
330
1F
100
AcDbEntity
  8
0
  6
Continuous
 62
     7
370
    25
100
AcDbSpline
210
0.0
220
0.0
230
1.0
 70
     8
 71
     3
 72
    22
 73
    18
 74
     0
 42
0.00000001
 43
0.00000001
 40
0.0
 40
0.0
 40
0.0
 40
0.0
 40
0.1250000000000005
 40
0.1250000000000005
 40
0.250000000000001
 40
0.250000000000001
 40
0.3750000000000015
 40
0.3750000000000015
 40
0.500000000000002
 40
0.500000000000002
 40
0.6250000000000024
 40
0.6250000000000024
 40
0.750000000000003
 40
0.750000000000003
 40
0.8750000000000014
 40
0.8750000000000014
 40
1.0
 40
1.0
 40
1.0
 40
1.0
 10
9.885903520286305
 20
5.893249308432748
 30
0.0
 10
10.42477784139072
 20
6.047436134832715
 30
0.0
 10
10.96335485111615
 20
6.202657791828846
 30
0.0
 10
12.0401615096446
 20
6.514301890105772
 30
0.0
 10
12.57839690405897
 20
6.67070149045949
 30
0.0
 10
13.6546674218495
 20
6.984189451014062
 30
0.0
 10
14.19268071284566
 20
7.141353068646481
 30
0.0
 10
15.26860992169189
 20
7.45601376288183
 30
0.0
 10
15.8065316271957
 20
7.613491190002208
 30
0.0
 10
16.88255316777825
 20
7.927835322602489
 30
0.0
 10
17.42065934714955
 20
8.084680276518814
 30
0.0
 10
18.497275058876
 20
8.396987278699045
 30
0.0
 10
19.03578976751577
 20
8.552430259490635
 30
0.0
 10
20.11320182160858
 20
8.861972534508539
 30
0.0
 10
20.65208644800377
 20
9.01612029654558
 30
0.0
 10
21.72994780038886
 20
9.324094360162235
 30
0.0
 10
22.26892878692268
 20
9.477905790922986
 30
0.0
 10
22.80794311522238
 20
9.631600847020636
 30
0.0
  0
LINE
  5
B7
330
1F
100
AcDbEntity
  8
0
  6
Continuous
 62
     7
370
    25
100
AcDbLine
 10
22.8079431152
 20
9.631600847
 30
0.0
 11
23.1506369567
 21
9.7292993992
 31
0.0
  0
LINE
  5
B8
330
1F
100
AcDbEntity
  8
0
  6
Continuous
 62
     7
370
    25
100
AcDbLine
 10
23.1506366218
 20
9.7293005743
 30
0.0
 11
23.3056740406
 21
9.6433619297
 31
0.0
  0
MTEXT
  5
B9
330
1F
100
AcDbEntity
  8
PART_NAMES
100
AcDbMText
 10
12.4277740705
 20
6.4978871983
 30
0.0
 40
0.1666666667
 41
0.0
 71
     1
 72
     1
  1
TS L 1.2
  7
SLDTEXTSTYLE1
 11
0.9063077870366496
 21
0.4226182617407003
 31
0.0
 73
     1
 44
1.0
  0
MTEXT
  5
BA
330
1F
100
AcDbEntity
  8
PART_NAMES
100
AcDbMText
 10
11.6677727697
 20
1.0715468138
 30
0.0
 40
0.1666666667
 41
0.0
 71
     1
 72
     1
  1
SS 1.1
  7
SLDTEXTSTYLE0
 73
     1
 44
1.0
  0
MTEXT
  5
BB
330
1F
100
AcDbEntity
  8
PART_NAMES
100
AcDbMText
 10
11.8210245017
 20
2.2150354327
 30
0.0
 40
0.1666666667
 41
0.0
 71
     1
 72
     1
  1
SS 1.2
  7
SLDTEXTSTYLE0
 73
     1
 44
1.0
  0
MTEXT
  5
BC
330
1F
100
AcDbEntity
  8
PART_NAMES
100
AcDbMText
 10
11.1415620343
 20
3.1596539849
 30
0.0
 40
0.1666666667
 41
0.0
 71
     1
 72
     1
  1
SS 1.3
  7
SLDTEXTSTYLE0
 73
     1
 44
1.0
  0
MTEXT
  5
BD
330
1F
100
AcDbEntity
  8
PART_NAMES
100
AcDbMText
 10
13.6294338732
 20
5.2314716935
 30
0.0
 40
0.1666666667
 41
0.0
 71
     1
 72
     1
  1
SS 1.4
  7
SLDTEXTSTYLE0
 11
0.9612616959383187
 21
0.2756373558169998
 31
0.0
 73
     1
 44
1.0
  0
MTEXT
  5
BE
330
1F
100
AcDbEntity
  8
PART_NAMES
100
AcDbMText
 10
7.0647872302
 20
8.8107930426
 30
0.0
 40
0.1666666667
 41
0.0
 71
     1
 72
     1
  1
SS 1.5
  7
SLDTEXTSTYLE0
 73
     1
 44
1.0
  0
LINE
  5
BF
330
1F
100
AcDbEntity
  8
0
  6
Continuous
 62
     7
370
    25
100
AcDbLine
 10
15.9823082254
 20
10.8425827002
 30
0.0
 11
15.8764481055
 21
10.7452067059
 31
0.0
  0
LINE
  5
C0
330
1F
100
AcDbEntity
  8
0
  6
Continuous
 62
     7
370
    25
100
AcDbLine
 10
15.8764481055
 20
10.7452067059
 30
0.0
 11
15.9883471589
 21
10.6235581693
 31
0.0
  0
SPLINE
  5
C1
330
1F
100
AcDbEntity
  8
0
  6
Continuous
 62
     7
370
    25
100
AcDbSpline
210
0.0
220
0.0
230
1.0
 70
     8
 71
     3
 72
    11
 73
     7
 74
     0
 42
0.00000001
 43
0.00000001
 40
0.0
 40
0.0
 40
0.0
 40
0.0
 40
0.25
 40
0.375
 40
0.5
 40
0.5396921953857966
 40
0.5396921953857966
 40
0.5396921953857966
 40
0.5396921953857966
 10
5.197472706176744
 20
10.83074656566643
 30
0.0
 10
6.864193136756758
 20
10.82240462585657
 30
0.0
 10
9.364844354370158
 20
10.79957699089323
 30
0.0
 10
12.69612236463467
 20
10.72775326024099
 30
0.0
 10
14.62642555696353
 20
10.66991822345988
 30
0.0
 10
15.72385595750044
 20
10.63275142745001
 30
0.0
 10
15.98834715891015
 20
10.62355816932739
 30
0.0
  0
SPLINE
  5
C2
330
1F
100
AcDbEntity
  8
0
  6
Continuous
 62
     7
370
    25
100
AcDbSpline
210
0.0
220
0.0
230
1.0
 70
     8
 71
     3
 72
    11
 73
     7
 74
     0
 42
0.00000001
 43
0.00000001
 40
0.1043302909412578
 40
0.1043302909412578
 40
0.1043302909412578
 40
0.1043302909412578
 40
0.25
 40
0.5
 40
0.75
 40
1.0
 40
1.0
 40
1.0
 40
1.0
 10
1.065781514219732
 20
10.8425827002497
 30
0.0
 10
1.289813262348379
 20
10.84222341448677
 30
0.0
 10
1.898328445771178
 20
10.84118720367848
 30
0.0
 10
2.891246884833619
 20
10.83911634985949
 30
0.0
 10
4.044484657291608
 20
10.83583736705592
 30
0.0
 10
4.81312977285808
 20
10.83267020012665
 30
0.0
 10
5.197472708777506
 20
10.83074656565341
 30
0.0
  0
LINE
  5
C3
330
1F
100
AcDbEntity
  8
0
  6
Continuous
 62
     7
370
    25
100
AcDbLine
 10
0.9537795537
 20
10.9545846607
 30
0.0
 11
1.0657815142
 21
10.8425827002
 31
0.0
  0
LINE
  5
C4
330
1F
100
AcDbEntity
  8
0
  6
Continuous
 62
     7
370
    25
100
AcDbLine
 10
1.0666306879
 20
11.067435795
 30
0.0
 11
0.9537795537
 21
10.9545846607
 31
0.0
  0
LINE
  5
C5
330
1F
100
AcDbEntity
  8
0
  6
Continuous
 62
     7
370
    25
100
AcDbLine
 10
0.9412858328
 20
11.1927806502
 30
0.0
 11
1.0666306879
 21
11.067435795
 31
0.0
  0
SPLINE
  5
C6
330
1F
100
AcDbEntity
  8
0
  6
Continuous
 62
     7
370
    25
100
AcDbSpline
210
0.0
220
0.0
230
1.0
 70
     8
 71
     3
 72
    10
 73
     6
 74
     0
 42
0.00000001
 43
0.00000001
 40
0.0772268465229485
 40
0.0772268465229485
 40
0.0772268465229485
 40
0.0772268465229485
 40
0.5
 40
0.5
 40
1.0
 40
1.0
 40
1.0
 40
1.0
 10
0.9412870584613917
 20
11.19278064823313
 30
0.0
 10
1.59155440606425
 20
11.19176109217727
 30
0.0
 10
2.241821496194351
 20
11.19056922630857
 30
0.0
 10
3.661136172946873
 20
11.18707800528488
 30
0.0
 10
4.430182942274645
 20
11.18459123081783
 30
0.0
 10
5.199224435087917
 20
11.18074218199014
 30
0.0
  0
SPLINE
  5
C7
330
1F
100
AcDbEntity
  8
0
  6
Continuous
 62
     7
370
    25
100
AcDbSpline
210
0.0
220
0.0
230
1.0
 70
     8
 71
     3
 72
    16
 73
    12
 74
     0
 42
0.00000001
 43
0.00000001
 40
0.0
 40
0.0
 40
0.0
 40
0.0
 40
0.1250000000000002
 40
0.1250000000000002
 40
0.2500000000000003
 40
0.2500000000000003
 40
0.3750000000000005
 40
0.3750000000000005
 40
0.5000000000000007
 40
0.5000000000000007
 40
0.5334763219569337
 40
0.5334763219569337
 40
0.5334763219569337
 40
0.5334763219569337
 10
5.199224435087917
 20
11.18074218199014
 30
0.0
 10
6.033330849573508
 20
11.17656747735643
 30
0.0
 10
6.86743634077721
 20
11.17075009840971
 30
0.0
 10
8.535556387721325
 20
11.1538010577067
 30
0.0
 10
9.369567673555485
 20
11.1426492157194
 30
0.0
 10
11.03746724760365
 20
11.11358886064039
 30
0.0
 10
11.87135422364739
 20
11.09560826564467
 30
0.0
 10
13.53900110862099
 20
11.05266685362993
 30
0.0
 10
14.37276811858702
 20
11.02775956027381
 30
0.0
 10
15.42969514729569
 20
10.9928531114108
 30
0.0
 10
15.65295334024027
 20
10.98529944522215
 30
0.0
 10
15.87620591656086
 20
10.97757744649732
 30
0.0
  0
LINE
  5
C8
330
1F
100
AcDbEntity
  8
0
  6
Continuous
 62
     7
370
    25
100
AcDbLine
 10
15.8762058682
 20
10.9775760475
 30
0.0
 11
15.9823082254
 21
10.8425827002
 31
0.0
  0
MTEXT
  5
C9
330
1F
100
AcDbEntity
  8
PART_NAMES
100
AcDbMText
 10
8.5106769779
 20
11.0666337471
 30
0.0
 40
0.1666666667
 41
0.0
 71
     1
 72
     1
  1
TS L 1.3
  7
SLDTEXTSTYLE1
 73
     1
 44
1.0
  0
MTEXT
  5
CA
330
1F
100
AcDbEntity
  8
PART_NAMES
100
AcDbMText
 10
8.3416609114
 20
10.0751734143
 30
0.0
 40
0.1666666667
 41
0.0
 71
     1
 72
     1
  1
TS L 1.4
  7
SLDTEXTSTYLE1
 73
     1
 44
1.0
  0
SPLINE
  5
CB
330
1F
100
AcDbEntity
  8
0
  6
Continuous
 62
     7
370
    25
100
AcDbSpline
210
0.0
220
0.0
230
1.0
 70
     8
 71
     3
 72
     8
 73
     4
 74
     0
 42
0.00000001
 43
0.00000001
 40
0.0
 40
0.0
 40
0.0
 40
0.0
 40
0.0932042702861887
 40
0.0932042702861887
 40
0.0932042702861887
 40
0.0932042702861887
 10
10.61799031153424
 20
10.04853956187456
 30
0.0
 10
11.8018254745866
 20
9.9896682971011
 30
0.0
 10
12.98553686400982
 20
9.92834062038187
 30
0.0
 10
14.16913593993519
 20
9.864937856638683
 30
0.0
  0
ARC
  5
CC
330
1F
100
AcDbEntity
  8
0
  6
Continuous
 62
     7
370
    25
100
AcDbCircle
 10
14.166461386
 20
9.8150094403
 30
0.0
 40
0.0499999999999989
100
AcDbArc
 50
0.0
 51
86.9337234873
  0
LINE
  5
CD
330
1F
100
AcDbEntity
  8
0
  6
Continuous
 62
     7
370
    25
100
AcDbLine
 10
14.216461386
 20
9.8150094403
 30
0.0
 11
14.216461386
 21
9.5649345309
 31
0.0
  0
ARC
  5
CE
330
1F
100
AcDbEntity
  8
0
  6
Continuous
 62
     7
370
    25
100
AcDbCircle
 10
14.166461386
 20
9.5649345309
 30
0.0
 40
0.0500000000000007
100
AcDbArc
 50
266.9379873783
 51
0.0
  0
SPLINE
  5
CF
330
1F
100
AcDbEntity
  8
0
  6
Continuous
 62
     7
370
    25
100
AcDbSpline
210
0.0
220
0.0
230
1.0
 70
     8
 71
     3
 72
     8
 73
     4
 74
     0
 42
0.00000001
 43
0.00000001
 40
0.0
 40
0.0
 40
0.0
 40
0.0
 40
0.0935522664122511
 40
0.0935522664122511
 40
0.0935522664122511
 40
0.0935522664122511
 10
10.60060654692656
 20
9.69897153597965
 30
0.0
 10
11.78844267364405
 20
9.639901306182486
 30
0.0
 10
12.9761739755672
 20
9.578535253308669
 30
0.0
 10
14.16379054764862
 20
9.515005915672239
 30
0.0
  0
SPLINE
  5
D0
330
1F
100
AcDbEntity
  8
0
  6
Continuous
 62
     7
370
    25
100
AcDbSpline
210
0.0
220
0.0
230
1.0
 70
     8
 71
     3
 72
     9
 73
     5
 74
     0
 42
0.00000001
 43
0.00000001
 40
0.5396921953857966
 40
0.5396921953857966
 40
0.5396921953857966
 40
0.5396921953857966
 40
0.75
 40
1.0
 40
1.0
 40
1.0
 40
1.0
 10
1.399619572432847
 20
10.09494724631314
 30
0.0
 10
2.801017589539049
 20
10.04623706754302
 30
0.0
 10
5.868384943760843
 20
9.925137580787208
 30
0.0
 10
8.935263485616698
 20
9.781787718415572
 30
0.0
 10
10.60060657230154
 20
9.698971534717773
 30
0.0
  0
LINE
  5
D1
330
1F
100
AcDbEntity
  8
0
  6
Continuous
 62
     7
370
    25
100
AcDbLine
 10
1.287720519
 20
10.2165957829
 30
0.0
 11
1.3996195724
 21
10.0949472463
 31
0.0
  0
LINE
  5
D2
330
1F
100
AcDbEntity
  8
0
  6
Continuous
 62
     7
370
    25
100
AcDbLine
 10
1.3935806389
 20
10.3139717772
 30
0.0
 11
1.287720519
 21
10.2165957829
 31
0.0
  0
LINE
  5
D3
330
1F
100
AcDbEntity
  8
0
  6
Continuous
 62
     7
370
    25
100
AcDbLine
 10
1.2874771501
 20
10.4489665643
 30
0.0
 11
1.3935806389
 21
10.3139717772
 31
0.0
  0
SPLINE
  5
D4
330
1F
100
AcDbEntity
  8
0
  6
Continuous
 62
     7
370
    25
100
AcDbSpline
210
0.0
220
0.0
230
1.0
 70
     8
 71
     3
 72
    12
 73
     8
 74
     0
 42
0.00000001
 43
0.00000001
 40
0.5334763219569337
 40
0.5334763219569337
 40
0.5334763219569337
 40
0.5334763219569337
 40
0.6250000000000009
 40
0.6250000000000009
 40
0.750000000000001
 40
0.750000000000001
 40
1.0
 40
1.0
 40
1.0
 40
1.0
 10
1.287478330083557
 20
10.44896652348308
 30
0.0
 10
1.897846964479484
 20
10.42785471418547
 30
0.0
 10
2.508173616519428
 20
10.40548467637037
 30
0.0
 10
3.951965470960074
 20
10.35015343551636
 30
0.0
 10
4.785385245190581
 20
10.31623339322695
 30
0.0
 10
7.285420157999022
 20
10.20938144824749
 30
0.0
 10
8.951812628529822
 20
10.1313972493818
 30
0.0
 10
10.61799031153424
 20
10.04853956187456
 30
0.0
  0
LINE
  5
D5
330
1F
100
AcDbEntity
  8
0
  6
Continuous
 62
     7
370
    25
100
AcDbLine
 10
21.2348475496
 20
0.9478626743
 30
0.0
 11
21.0281131038
 21
0.7555040576
 31
0.0
  0
LINE
  5
D6
330
1F
100
AcDbEntity
  8
0
  6
Continuous
 62
     7
370
    25
100
AcDbLine
 10
21.0281131038
 20
0.7555040576
 30
0.0
 11
21.2101794776
 21
0.5798903748
 31
0.0
  0
SPLINE
  5
D7
330
1F
100
AcDbEntity
  8
0
  6
Continuous
 62
     7
370
    25
100
AcDbSpline
210
0.0
220
0.0
230
1.0
 70
     8
 71
     3
 72
     9
 73
     5
 74
     0
 42
0.00000001
 43
0.00000001
 40
0.0
 40
0.0
 40
0.0
 40
0.0
 40
0.4961264296376425
 40
1.0
 40
1.0
 40
1.0
 40
1.0
 10
20.83572025008238
 20
0.5800593493847586
 30
0.0
 10
20.89764655399976
 20
0.5800180817551432
 30
0.0
 10
21.02246615686312
 20
0.5799349020913505
 30
0.0
 10
21.14728578413303
 20
0.5799060292735524
 30
0.0
 10
21.21017909537682
 20
0.5798914810237603
 30
0.0
  0
SPLINE
  5
D8
330
1F
100
AcDbEntity
  8
0
  6
Continuous
 62
     7
370
    25
100
AcDbSpline
210
0.0
220
0.0
230
1.0
 70
     8
 71
     3
 72
    11
 73
     7
 74
     0
 42
0.00000001
 43
0.00000001
 40
0.0
 40
0.0
 40
0.0
 40
0.0
 40
0.2875513822255312
 40
0.5000000161979001
 40
0.7552001693606808
 40
1.0
 40
1.0
 40
1.0
 40
1.0
 10
18.18503721012861
 20
0.5863718065210974
 30
0.0
 10
18.43910579246441
 20
0.5855254802490781
 30
0.0
 10
18.8808852556688
 20
0.5840538714310525
 30
0.0
 10
19.54814996702257
 20
0.5821111283318489
 30
0.0
 10
20.17764241280364
 20
0.5807395301659606
 30
0.0
 10
20.61942408567726
 20
0.580282910315916
 30
0.0
 10
20.83572025008238
 20
0.5800593493847586
 30
0.0
  0
SPLINE
  5
D9
330
1F
100
AcDbEntity
  8
0
  6
Continuous
 62
     7
370
    25
100
AcDbSpline
210
0.0
220
0.0
230
1.0
 70
     8
 71
     3
 72
    17
 73
    13
 74
     0
 42
0.00000001
 43
0.00000001
 40
0.0
 40
0.0
 40
0.0
 40
0.0
 40
0.0476953611917593
 40
0.0965429349283452
 40
0.1465428924223826
 40
0.1976953933150581
 40
0.2500005866944932
 40
0.3104822002283158
 40
0.3750001935527022
 40
0.5000000457252358
 40
0.7500000097866623
 40
1.0
 40
1.0
 40
1.0
 40
1.0
 10
14.825842635064
 20
0.5832146400111915
 30
0.0
 10
14.87924529807476
 20
0.5838631327716471
 30
0.0
 10
14.98734071220359
 20
0.5851757844176332
 30
0.0
 10
15.15142366272739
 20
0.58676459784121
 30
0.0
 10
15.31937994962455
 20
0.5881087063528365
 30
0.0
 10
15.49120996723107
 20
0.5891777084227822
 30
0.0
 10
15.67477816235016
 20
0.5900131324479134
 30
0.0
 10
15.873313359479
 20
0.5905886191469422
 30
0.0
 10
16.15324848901693
 20
0.5909940393126061
 30
0.0
 10
16.64539608598596
 20
0.5908173855393956
 30
0.0
 10
17.34523435443683
 20
0.5892428963266295
 30
0.0
 10
17.90510291513693
 20
0.5873288364896452
 30
0.0
 10
18.18503721012861
 20
0.5863718065210974
 30
0.0
  0
SPLINE
  5
DA
330
1F
100
AcDbEntity
  8
0
  6
Continuous
 62
     7
370
    25
100
AcDbSpline
210
0.0
220
0.0
230
1.0
 70
     8
 71
     3
 72
    13
 73
     9
 74
     0
 42
0.00000001
 43
0.00000001
 40
0.0
 40
0.0
 40
0.0
 40
0.0
 40
0.1294308401886257
 40
0.2559076683088082
 40
0.3794309718312838
 40
0.5000012740504648
 40
0.7493016709524554
 40
1.0
 40
1.0
 40
1.0
 40
1.0
 10
13.4111201590149
 20
0.5527286445831986
 30
0.0
 10
13.47214523410659
 20
0.5545124874374591
 30
0.0
 10
13.59280260334199
 20
0.5580394603350929
 30
0.0
 10
13.77171188022621
 20
0.5628384818493867
 30
0.0
 10
13.94645164282024
 20
0.5671999464826901
 30
0.0
 10
14.17912006093757
 20
0.5724946287258822
 30
0.0
 10
14.47178064573731
 20
0.5782568035839947
 30
0.0
 10
14.70760187365539
 20
0.5815589468109383
 30
0.0
 10
14.82584215052956
 20
0.5832146346083392
 30
0.0
  0
SPLINE
  5
DB
330
1F
100
AcDbEntity
  8
0
  6
Continuous
 62
     7
370
    25
100
AcDbSpline
210
0.0
220
0.0
230
1.0
 70
     8
 71
     3
 72
    34
 73
    30
 74
     0
 42
0.00000001
 43
0.00000001
 40
0.0
 40
0.0
 40
0.0
 40
0.0
 40
0.0126978160642183
 40
0.0253505843118685
 40
0.0379585117213109
 40
0.0505218074871448
 40
0.0630406830413982
 40
0.0755153520747218
 40
0.0879460305575746
 40
0.1003329367613921
 40
0.1126762912797268
 40
0.1249763170493521
 40
0.187500091530563
 40
0.2499182410060794
 40
0.2810403143738147
 40
0.3124412369945931
 40
0.3749392427657943
 40
0.4999040559776832
 40
0.5624083108583642
 40
0.6249225249745248
 40
0.6874351457564687
 40
0.7499480486216463
 40
0.7812046667278324
 40
0.8124612931460965
 40
0.8464632815272425
 40
0.8749742891591236
 40
0.919154727931606
 40
0.9608298450984011
 40
1.0
 40
1.0
 40
1.0
 40
1.0
 10
5.449092050797225
 20
0.6798912026360636
 30
0.0
 10
5.482484211283156
 20
0.6748800298203091
 30
0.0
 10
5.549150067480227
 20
0.664875462237613
 30
0.0
 10
5.64904708299067
 20
0.6504044845552526
 30
0.0
 10
5.748643572033634
 20
0.6363604563288151
 30
0.0
 10
5.84794500417811
 20
0.6227795369636108
 30
0.0
 10
5.946949922572643
 20
0.6096520919505513
 30
0.0
 10
6.045658712808539
 20
0.5969806792215295
 30
0.0
 10
6.144071282891439
 20
0.5847646548039723
 30
0.0
 10
6.24218761808123
 20
0.5730040509867165
 30
0.0
 10
6.340007868796306
 20
0.5616993774565633
 30
0.0
 10
6.570381406588363
 20
0.536067241976469
 30
0.0
 10
6.933634673577911
 20
0.5005268191637307
 30
0.0
 10
7.347506340716403
 20
0.4693810615994504
 30
0.0
 10
7.679190249887706
 20
0.4500066790935046
 30
0.0
 10
8.01127707493386
 20
0.4342170378318179
 30
0.0
 10
8.593027748616398
 20
0.415786620166805
 30
0.0
 10
9.257884347987497
 20
0.4139942685972794
 30
0.0
 10
9.92253669341603
 20
0.4259983025811244
 30
0.0
 10
10.42102509943108
 20
0.440218284346729
 30
0.0
 10
10.91941519964444
 20
0.4580126253336704
 30
0.0
 10
11.33467001460806
 20
0.4746033228549996
 30
0.0
 10
11.66686120380538
 20
0.4882043239339039
 30
0.0
 10
11.92329904679907
 20
0.4987196791112046
 30
0.0
 10
12.17244782392006
 20
0.5087902949638342
 30
0.0
 10
12.45594695390555
 20
0.5199655318710622
 30
0.0
 10
12.7598588792163
 20
0.5313164287005969
 30
0.0
 10
13.09212604358017
 20
0.5429052665138041
 30
0.0
 10
13.30700813583807
 20
0.549522529749884
 30
0.0
 10
13.4111201590149
 20
0.5527286445831986
 30
0.0
  0
SPLINE
  5
DC
330
1F
100
AcDbEntity
  8
0
  6
Continuous
 62
     7
370
    25
100
AcDbSpline
210
0.0
220
0.0
230
1.0
 70
     8
 71
     3
 72
    41
 73
    37
 74
     0
 42
0.00000001
 43
0.00000001
 40
0.0
 40
0.0
 40
0.0
 40
0.0
 40
0.0216522451254789
 40
0.0432965694198238
 40
0.064933278410346
 40
0.0865626779470682
 40
0.1081850741901914
 40
0.1298007735974957
 40
0.1514100829116798
 40
0.17301330914764
 40
0.1946107595796911
 40
0.2162027417287337
 40
0.2377895633493683
 40
0.2593715324169596
 40
0.2809489571146538
 40
0.302522145820353
 40
0.3240914070936463
 40
0.3456570496627032
 40
0.3672193824111303
 40
0.3887787143647949
 40
0.4103353546786182
 40
0.4318896126233412
 40
0.4534417975722646
 40
0.4749922189879674
 40
0.4965411864090062
 40
0.5598047157125737
 40
0.6228454738544226
 40
0.6856714386903522
 40
0.7482906701719217
 40
0.7846502338924987
 40
0.8208732723358494
 40
0.8569614641521002
 40
0.8929165068783269
 40
0.928740116979814
 40
0.9644340298830282
 40
1.0
 40
1.0
 40
1.0
 40
1.0
 10
0.5046750261182117
 20
1.901545302473763
 30
0.0
 10
0.53950420466605
 20
1.889638793018881
 30
0.0
 10
0.6091498205406608
 20
1.865830129752155
 30
0.0
 10
0.7137686958449089
 20
1.830621122798194
 30
0.0
 10
0.8184727482443656
 20
1.795789677452148
 30
0.0
 10
0.9232742087175618
 20
1.761371445873414
 30
0.0
 10
1.028169801619761
 20
1.727356880117338
 30
0.0
 10
1.133160404146891
 20
1.693748537315049
 30
0.0
 10
1.238245781295032
 20
1.660545732658177
 30
0.0
 10
1.343425995931228
 20
1.627748649600349
 30
0.0
 10
1.448701031143658
 20
1.595357239049475
 30
0.0
 10
1.554070891387249
 20
1.563371514195897
 30
0.0
 10
1.659535575393353
 20
1.531791471547217
 30
0.0
 10
1.765095083425742
 20
1.500617112078213
 30
0.0
 10
1.870749415336833
 20
1.469848435566447
 30
0.0
 10
1.976498571089489
 20
1.439485442107337
 30
0.0
 10
2.082342550613012
 20
1.409528131716362
 30
0.0
 10
2.188281353857635
 20
1.379976504405572
 30
0.0
 10
2.294314980720665
 20
1.350830560275111
 30
0.0
 10
2.400443431287429
 20
1.322090299070717
 30
0.0
 10
2.506666704941642
 20
1.293755721861832
 30
0.0
 10
2.61298480368257
 20
1.265826824772583
 30
0.0
 10
2.719397719747879
 20
1.238303622376365
 30
0.0
 10
2.825905481799352
 20
1.211186060397498
 30
0.0
 10
3.001296697238395
 20
1.167237740103406
 30
0.0
 10
3.245558706346593
 20
1.107962892999309
 30
0.0
 10
3.558842061353467
 20
1.035647026956624
 30
0.0
 10
3.871852231858825
 20
0.9671076012990097
 30
0.0
 10
4.141205418542659
 20
0.9113245720803352
 30
0.0
 10
4.366683784297897
 20
0.8667611453724144
 30
0.0
 10
4.548155203053223
 20
0.8321739550637064
 30
0.0
 10
4.729182463647012
 20
0.7989529509707833
 30
0.0
 10
4.909764495123457
 20
0.7670903313273747
 30
0.0
 10
5.089905999833871
 20
0.7366173748606956
 30
0.0
 10
5.269589330781702
 20
0.7074173749825454
 30
0.0
 10
5.389329472839714
 20
0.6890556042706807
 30
0.0
 10
5.449092050797225
 20
0.6798912026360636
 30
0.0
  0
ARC
  5
DD
330
1F
100
AcDbEntity
  8
0
  6
Continuous
 62
     7
370
    25
100
AcDbCircle
 10
0.520900205
 20
1.9488394413
 30
0.0
 40
0.0499999999999998
100
AcDbArc
 50
180.0
 51
251.06446647
  0
LINE
  5
DE
330
1F
100
AcDbEntity
  8
0
  6
Continuous
 62
     7
370
    25
100
AcDbLine
 10
0.470900205
 20
2.477982408
 30
0.0
 11
0.470900205
 21
1.9488394413
 31
0.0
  0
ARC
  5
DF
330
1F
100
AcDbEntity
  8
0
  6
Continuous
 62
     7
370
    25
100
AcDbCircle
 10
0.520900205
 20
2.477982408
 30
0.0
 40
0.0499999999999998
100
AcDbArc
 50
70.7256290769
 51
180.0
  0
SPLINE
  5
E0
330
1F
100
AcDbEntity
  8
0
  6
Continuous
 62
     7
370
    25
100
AcDbSpline
210
0.0
220
0.0
230
1.0
 70
     8
 71
     3
 72
    11
 73
     7
 74
     0
 42
0.00000001
 43
0.00000001
 40
0.1451243446792448
 40
0.1451243446792448
 40
0.1451243446792448
 40
0.1451243446792448
 40
0.2501119119085299
 40
0.5000746079390199
 40
0.7141065614154087
 40
0.7353277282286236
 40
0.7353277282286236
 40
0.7353277282286236
 40
0.7353277282286236
 10
4.53696062841169
 20
1.445178480676723
 30
0.0
 10
4.295917140287234
 20
1.491433772997128
 30
0.0
 10
3.482895809033542
 20
1.659149152887216
 30
0.0
 10
2.18960207865935
 20
1.986550810698647
 30
0.0
 10
1.105259581626107
 20
2.328106418262458
 30
0.0
 10
0.584353715450355
 20
2.508762144245995
 30
0.0
 10
0.5374048142810829
 20
2.525179843039298
 30
0.0
  0
LINE
  5
E1
330
1F
100
AcDbEntity
  8
0
  6
Continuous
 62
     7
370
    25
100
AcDbLine
 10
5.5084002053
 20
1.6824655397
 30
0.0
 11
4.5369606284
 21
1.4451784807
 31
0.0
  0
SPLINE
  5
E2
330
1F
100
AcDbEntity
  8
0
  6
Continuous
 62
     7
370
    25
100
AcDbSpline
210
0.0
220
0.0
230
1.0
 70
     8
 71
     3
 72
     9
 73
     5
 74
     0
 42
0.00000001
 43
0.00000001
 40
0.0001492200587535
 40
0.0001492200587535
 40
0.0001492200587535
 40
0.0001492200587535
 40
0.010071653226794
 40
0.0133791309494742
 40
0.0133791309494742
 40
0.0133791309494742
 40
0.0133791309494742
 10
5.598640475270294
 20
1.668645605274874
 30
0.0
 10
5.576062743125221
 20
1.672060472452201
 30
0.0
 10
5.545991194939455
 20
1.676651652003548
 30
0.0
 10
5.515918222824357
 20
1.681299944334376
 30
0.0
 10
5.50840020534551
 20
1.682465539672033
 30
0.0
  0
SPLINE
  5
E3
330
1F
100
AcDbEntity
  8
0
  6
Continuous
 62
     7
370
    25
100
AcDbSpline
210
0.0
220
0.0
230
1.0
 70
     8
 71
     3
 72
    12
 73
     8
 74
     0
 42
0.00000001
 43
0.00000001
 40
0.9462082920841469
 40
0.9462082920841469
 40
0.9462082920841469
 40
0.9462082920841469
 40
0.9479242461706143
 40
0.9545852835458539
 40
0.9698260913534106
 40
0.9850668991609672
 40
1.000307706968524
 40
1.000307706968524
 40
1.000307706968524
 40
1.000307706968524
 10
6.008400205345591
 20
1.610276051682262
 30
0.0
 10
6.004063980054065
 20
1.610855021778965
 30
0.0
 10
5.982895497177882
 20
1.613687513556572
 30
0.0
 10
5.923222675684182
 20
1.621755850439847
 30
0.0
 10
5.829399106291953
 20
1.634783718386927
 30
0.0
 10
5.713971151359202
 20
1.651389614207537
 30
0.0
 10
5.637074826946281
 20
1.662832436761599
 30
0.0
 10
5.598640455480681
 20
1.668645608268045
 30
0.0
  0
LINE
  5
E4
330
1F
100
AcDbEntity
  8
0
  6
Continuous
 62
     7
370
    25
100
AcDbLine
 10
6.0084002053
 20
1.6102760517
 30
0.0
 11
6.008400205
 21
0.940729118
 31
0.0
  0
LINE
  5
E5
330
1F
100
AcDbEntity
  8
0
  6
Continuous
 62
     7
370
    25
100
AcDbLine
 10
6.008400205
 20
0.940729118
 30
0.0
 11
6.133400205
 21
0.940729118
 31
0.0
  0
LINE
  5
E6
330
1F
100
AcDbEntity
  8
0
  6
Continuous
 62
     7
370
    25
100
AcDbLine
 10
6.133400205
 20
0.940729118
 30
0.0
 11
6.1334002053
 21
1.5940148293
 31
0.0
  0
LINE
  5
E7
330
1F
100
AcDbEntity
  8
0
  6
Continuous
 62
     7
370
    25
100
AcDbLine
 10
6.1334002053
 20
1.5940148293
 30
0.0
 11
6.1832907724
 21
1.5876055865
 31
0.0
  0
SPLINE
  5
E8
330
1F
100
AcDbEntity
  8
0
  6
Continuous
 62
     7
370
    25
100
AcDbSpline
210
0.0
220
0.0
230
1.0
 70
     8
 71
     3
 72
    12
 73
     8
 74
     0
 42
0.00000001
 43
0.00000001
 40
0.613785592241217
 40
0.613785592241217
 40
0.613785592241217
 40
0.613785592241217
 40
0.6140229496757766
 40
0.6904129792267226
 40
0.7679897959504639
 40
0.8455666126742052
 40
0.9231434293979466
 40
0.9231434293979466
 40
0.9231434293979466
 40
0.9231434293979466
 10
8.537447244961802
 20
1.420618150671703
 30
0.0
 10
8.536840017534967
 20
1.420629388781429
 30
0.0
 10
8.340841371519518
 20
1.424263847714553
 30
0.0
 10
7.947102690127489
 20
1.43616887533254
 30
0.0
 10
7.359713832548588
 20
1.469244957152506
 30
0.0
 10
6.771661578344824
 20
1.518887158792621
 30
0.0
 10
6.379055061042911
 20
1.562996439465501
 30
0.0
 10
6.183290772448783
 20
1.587605586544153
 30
0.0
  0
LINE
  5
E9
330
1F
100
AcDbEntity
  8
0
  6
Continuous
 62
     7
370
    25
100
AcDbLine
 10
8.537447245
 20
0.7092150553
 30
0.0
 11
8.537447245
 21
1.4206181507
 31
0.0
  0
LINE
  5
EA
330
1F
100
AcDbEntity
  8
0
  6
Continuous
 62
     7
370
    25
100
AcDbLine
 10
8.5917365668
 20
0.6549257335
 30
0.0
 11
8.537447245
 21
0.7092150553
 31
0.0
  0
LINE
  5
EB
330
1F
100
AcDbEntity
  8
0
  6
Continuous
 62
     7
370
    25
100
AcDbLine
 10
10.5831579231
 20
0.6549257335
 30
0.0
 11
8.5917365668
 21
0.6549257335
 31
0.0
  0
LINE
  5
EC
330
1F
100
AcDbEntity
  8
0
  6
Continuous
 62
     7
370
    25
100
AcDbLine
 10
10.637447245
 20
0.7092150553
 30
0.0
 11
10.5831579231
 21
0.6549257335
 31
0.0
  0
LINE
  5
ED
330
1F
100
AcDbEntity
  8
0
  6
Continuous
 62
     7
370
    25
100
AcDbLine
 10
10.637447245
 20
1.448633783
 30
0.0
 11
10.637447245
 21
0.7092150553
 31
0.0
  0
SPLINE
  5
EE
330
1F
100
AcDbEntity
  8
0
  6
Continuous
 62
     7
370
    25
100
AcDbSpline
210
0.0
220
0.0
230
1.0
 70
     8
 71
     3
 72
    13
 73
     9
 74
     0
 42
0.00000001
 43
0.00000001
 40
-0.0002044644181725
 40
-0.0002044644181725
 40
-0.0002044644181725
 40
-0.0002044644181725
 40
0.0862257471219251
 40
0.1726559586620227
 40
0.2590861702021203
 40
0.3023012759721692
 40
0.3432800704794477
 40
0.3437273327320019
 40
0.3437273327320019
 40
0.3437273327320019
 40
0.3437273327320019
 10
13.38548809969325
 20
1.552408478495834
 30
0.0
 10
13.15354099790238
 20
1.545510638010556
 30
0.0
 10
12.68926602166666
 20
1.529937554743733
 30
0.0
 10
11.99559512635439
 20
1.502726825641289
 30
0.0
 10
11.42143051123068
 20
1.478864607945432
 30
0.0
 10
10.97022967192568
 20
1.460861188873403
 30
0.0
 10
10.74749742653253
 20
1.452536686647887
 30
0.0
 10
10.63862251970297
 20
1.448675439756666
 30
0.0
 10
10.63744724496181
 20
1.448633782984157
 30
0.0
  0
LINE
  5
EF
330
1F
100
AcDbEntity
  8
0
  6
Continuous
 62
     7
370
    25
100
AcDbLine
 10
13.3854880997
 20
1.5524084785
 30
0.0
 11
14.508400205
 21
1.5765878191
 31
0.0
  0
LINE
  5
F0
330
1F
100
AcDbEntity
  8
0
  6
Continuous
 62
     7
370
    25
100
AcDbLine
 10
14.508400205
 20
1.5765878191
 30
0.0
 11
14.508400205
 21
0.9278408927
 31
0.0
  0
LINE
  5
F1
330
1F
100
AcDbEntity
  8
0
  6
Continuous
 62
     7
370
    25
100
AcDbLine
 10
14.508400205
 20
0.9278408927
 30
0.0
 11
14.633400205
 21
0.9278408927
 31
0.0
  0
LINE
  5
F2
330
1F
100
AcDbEntity
  8
0
  6
Continuous
 62
     7
370
    25
100
AcDbLine
 10
14.633400205
 20
0.9278408927
 30
0.0
 11
14.633400205
 21
1.5792794079
 31
0.0
  0
LINE
  5
F3
330
1F
100
AcDbEntity
  8
0
  6
Continuous
 62
     7
370
    25
100
AcDbLine
 10
14.8113521852
 20
1.5831111962
 30
0.0
 11
14.633400205
 21
1.5792794079
 31
0.0
  0
SPLINE
  5
F4
330
1F
100
AcDbEntity
  8
0
  6
Continuous
 62
     7
370
    25
100
AcDbSpline
210
0.0
220
0.0
230
1.0
 70
     8
 71
     3
 72
     9
 73
     5
 74
     0
 42
0.00000001
 43
0.00000001
 40
0.9057262269464454
 40
0.9057262269464454
 40
0.9057262269464454
 40
0.9057262269464454
 40
0.9294247916914627
 40
1.000520485926514
 40
1.000520485926514
 40
1.000520485926514
 40
1.000520485926514
 10
15.13340020496176
 20
1.586595759399724
 30
0.0
 10
15.10656698550795
 20
1.586355072095647
 30
0.0
 10
14.99922089776892
 20
1.585344638646406
 30
0.0
 10
14.89180142675841
 20
1.584135475853816
 30
0.0
 10
14.81135218521027
 20
1.583111196233915
 30
0.0
  0
LINE
  5
F5
330
1F
100
AcDbEntity
  8
0
  6
Continuous
 62
     7
370
    25
100
AcDbLine
 10
15.133400205
 20
1.5865957594
 30
0.0
 11
16.0517516254
 21
1.1908298328
 31
0.0
  0
SPLINE
  5
F6
330
1F
100
AcDbEntity
  8
0
  6
Continuous
 62
     7
370
    25
100
AcDbSpline
210
0.0
220
0.0
230
1.0
 70
     8
 71
     3
 72
    10
 73
     6
 74
     0
 42
0.00000001
 43
0.00000001
 40
0.3651294318598068
 40
0.3651294318598068
 40
0.3651294318598068
 40
0.3651294318598068
 40
0.5
 40
0.75
 40
1.0
 40
1.0
 40
1.0
 40
1.0
 10
16.05175162536761
 20
1.190829832823735
 30
0.0
 10
16.20328380251844
 20
1.190983184117653
 30
0.0
 10
16.63531969248424
 20
1.190834517233667
 30
0.0
 10
17.3471068850562
 20
1.189247758822273
 30
0.0
 10
17.90702356274942
 20
1.187314444602485
 30
0.0
 10
18.18706418008934
 20
1.186368382671977
 30
0.0
  0
SPLINE
  5
F7
330
1F
100
AcDbEntity
  8
0
  6
Continuous
 62
     7
370
    25
100
AcDbSpline
210
0.0
220
0.0
230
1.0
 70
     8
 71
     3
 72
    11
 73
     7
 74
     0
 42
0.00000001
 43
0.00000001
 40
0.0
 40
0.0
 40
0.0
 40
0.0
 40
0.25
 40
0.5
 40
0.75
 40
0.8762390732547677
 40
0.8762390732547677
 40
0.8762390732547677
 40
0.8762390732547677
 10
18.18706418131229
 20
1.186368382667846
 30
0.0
 10
18.40790776845277
 20
1.185622305765027
 30
0.0
 10
18.8496551977461
 20
1.184138918563833
 30
0.0
 10
19.51191592251272
 20
1.182194199651844
 30
0.0
 10
20.06481366802601
 20
1.1810084836947
 30
0.0
 10
20.39695729657231
 20
1.180520160812391
 30
0.0
 10
20.5084002049614
 20
1.1803831629769
 30
0.0
  0
LINE
  5
F8
330
1F
100
AcDbEntity
  8
0
  6
Continuous
 62
     7
370
    25
100
AcDbLine
 10
20.508400205
 20
1.180383163
 30
0.0
 11
20.508400205
 21
0.9303091565
 31
0.0
  0
LINE
  5
F9
330
1F
100
AcDbEntity
  8
0
  6
Continuous
 62
     7
370
    25
100
AcDbLine
 10
20.508400205
 20
0.9303091565
 30
0.0
 11
20.633400205
 21
0.9303091565
 31
0.0
  0
LINE
  5
FA
330
1F
100
AcDbEntity
  8
0
  6
Continuous
 62
     7
370
    25
100
AcDbLine
 10
20.633400205
 20
0.9303091565
 30
0.0
 11
20.633400205
 21
1.1802408434
 31
0.0
  0
SPLINE
  5
FB
330
1F
100
AcDbEntity
  8
0
  6
Continuous
 62
     7
370
    25
100
AcDbSpline
210
0.0
220
0.0
230
1.0
 70
     8
 71
     3
 72
     8
 73
     4
 74
     0
 42
0.00000001
 43
0.00000001
 40
0.9234378645736061
 40
0.9234378645736061
 40
0.9234378645736061
 40
0.9234378645736061
 40
1.0
 40
1.0
 40
1.0
 40
1.0
 10
20.63340020496182
 20
1.180240843419965
 30
0.0
 10
20.700988527629
 20
1.180170070196801
 30
0.0
 10
20.76857691547613
 20
1.180109396108856
 30
0.0
 10
20.83616599325031
 20
1.180059183812259
 30
0.0
  0
SPLINE
  5
FC
330
1F
100
AcDbEntity
  8
0
  6
Continuous
 62
     7
370
    25
100
AcDbSpline
210
0.0
220
0.0
230
1.0
 70
     8
 71
     3
 72
     8
 73
     4
 74
     0
 42
0.00000001
 43
0.00000001
 40
0.0
 40
0.0
 40
0.0
 40
0.0
 40
0.0030773051778964
 40
0.0030773051778964
 40
0.0030773051778964
 40
0.0030773051778964
 10
20.8361659889482
 20
1.180059183815455
 30
0.0
 10
20.89707772312593
 20
1.180013932590789
 30
0.0
 10
20.95798793435342
 20
1.179978482822076
 30
0.0
 10
21.01889684725633
 20
1.179952349045556
 30
0.0
  0
LINE
  5
FD
330
1F
100
AcDbEntity
  8
0
  6
Continuous
 62
     7
370
    25
100
AcDbLine
 10
21.0188968473
 20
1.179952349
 30
0.0
 11
21.2348475496
 21
0.9478626743
 31
0.0
  0
LINE
  5
FE
330
1F
100
AcDbEntity
  8
0
  6
Continuous
 62
     7
370
    25
100
AcDbLine
 10
11.1161444937
 20
2.4511451481
 30
0.0
 11
11.1161444941
 21
2.201146918
 31
0.0
  0
LINE
  5
FF
330
1F
100
AcDbEntity
  8
0
  6
Continuous
 62
     7
370
    25
100
AcDbLine
 10
11.1161444941
 20
2.201146918
 30
0.0
 11
11.2411444941
 21
2.201146918
 31
0.0
  0
LINE
  5
100
330
1F
100
AcDbEntity
  8
0
  6
Continuous
 62
     7
370
    25
100
AcDbLine
 10
11.2411444941
 20
2.201146918
 30
0.0
 11
11.2411444941
 21
2.4511476263
 31
0.0
  0
SPLINE
  5
101
330
1F
100
AcDbEntity
  8
0
  6
Continuous
 62
     7
370
    25
100
AcDbSpline
210
0.0
220
0.0
230
1.0
 70
     8
 71
     3
 72
    11
 73
     7
 74
     0
 42
0.00000001
 43
0.00000001
 40
0.1396588114454231
 40
0.1396588114454231
 40
0.1396588114454231
 40
0.1396588114454231
 40
0.1875
 40
0.25
 40
0.3125
 40
0.3310878685702711
 40
0.3310878685702711
 40
0.3310878685702711
 40
0.3310878685702711
 10
11.24114449406361
 20
2.451147626281792
 30
0.0
 10
12.18879222690345
 20
2.45115045786148
 30
0.0
 10
14.37397942291858
 20
2.450334860789833
 30
0.0
 10
17.79623396458951
 20
2.44974989197012
 30
0.0
 10
20.64071019501648
 20
2.452178673335365
 30
0.0
 10
22.24775118353986
 20
2.448329292378378
 30
0.0
 10
22.616144494065
 20
2.447202681851994
 30
0.0
  0
LINE
  5
102
330
1F
100
AcDbEntity
  8
0
  6
Continuous
 62
     7
370
    25
100
AcDbLine
 10
22.6161444941
 20
2.4472026819
 30
0.0
 11
22.6161444941
 21
2.1970092087
 31
0.0
  0
LINE
  5
103
330
1F
100
AcDbEntity
  8
0
  6
Continuous
 62
     7
370
    25
100
AcDbLine
 10
22.6161444941
 20
2.1970092087
 30
0.0
 11
22.7411444941
 21
2.1970092087
 31
0.0
  0
LINE
  5
104
330
1F
100
AcDbEntity
  8
0
  6
Continuous
 62
     7
370
    25
100
AcDbLine
 10
22.7411444941
 20
2.1970092087
 30
0.0
 11
22.7411444944
 21
2.4468110826
 31
0.0
  0
SPLINE
  5
105
330
1F
100
AcDbEntity
  8
0
  6
Continuous
 62
     7
370
    25
100
AcDbSpline
210
0.0
220
0.0
230
1.0
 70
     8
 71
     3
 72
     8
 73
     4
 74
     0
 42
0.00000001
 43
0.00000001
 40
0.3331902208965618
 40
0.3331902208965618
 40
0.3331902208965618
 40
0.3331902208965618
 40
0.3458949273835289
 40
0.3458949273835289
 40
0.3458949273835289
 40
0.3458949273835289
 10
22.74114449443575
 20
2.446811082610536
 30
0.0
 10
22.99294052435151
 20
2.446003555992618
 30
0.0
 10
23.24473952292704
 20
2.445083534189711
 30
0.0
 10
23.4965329122767
 20
2.444060639145104
 30
0.0
  0
LINE
  5
106
330
1F
100
AcDbEntity
  8
0
  6
Continuous
 62
     7
370
    25
100
AcDbLine
 10
23.5817829878
 20
2.3618319475
 30
0.0
 11
23.4965329123
 21
2.4440606391
 31
0.0
  0
LINE
  5
107
330
1F
100
AcDbEntity
  8
0
  6
Continuous
 62
     7
370
    25
100
AcDbLine
 10
23.4333635878
 20
2.2079590742
 30
0.0
 11
23.5817829878
 21
2.3618319475
 31
0.0
  0
LINE
  5
108
330
1F
100
AcDbEntity
  8
0
  6
Continuous
 62
     7
370
    25
100
AcDbLine
 10
23.6101731449
 20
2.0374158991
 30
0.0
 11
23.4333635878
 21
2.2079590742
 31
0.0
  0
LINE
  5
109
330
1F
100
AcDbEntity
  8
0
  6
Continuous
 62
     7
370
    25
100
AcDbLine
 10
23.4240694374
 20
1.8444740586
 30
0.0
 11
23.6101731449
 21
2.0374158991
 31
0.0
  0
SPLINE
  5
10A
330
1F
100
AcDbEntity
  8
0
  6
Continuous
 62
     7
370
    25
100
AcDbSpline
210
0.0
220
0.0
230
1.0
 70
     8
 71
     3
 72
    26
 73
    22
 74
     0
 42
0.00000001
 43
0.00000001
 40
0.0
 40
0.0
 40
0.0
 40
0.0
 40
0.0236997806917005
 40
0.0482727685097417
 40
0.0737189729152623
 40
0.0953826843455204
 40
0.1198904702787039
 40
0.1660619803221747
 40
0.2122334870485591
 40
0.258404958625337
 40
0.3507477898069161
 40
0.3969192005217894
 40
0.4430906138816634
 40
0.5354334447206932
 40
0.6277762749807086
 40
0.7201191136591537
 40
0.7662905555883868
 40
0.812461985068985
 40
0.9048047037250659
 40
0.9971473881668641
 40
1.0
 40
1.0
 40
1.0
 40
1.0
 10
3.317923384480046
 20
1.839987880798841
 30
0.0
 10
3.476760622842969
 20
1.8399944093079
 30
0.0
 10
3.800287381928331
 20
1.840007706865824
 30
0.0
 10
4.294355853779359
 20
1.840437978075828
 30
0.0
 10
4.77477814977039
 20
1.841119746307526
 30
0.0
 10
5.254763039952623
 20
1.842047614466363
 30
0.0
 10
5.87364938570205
 20
1.843443239658128
 30
0.0
 10
6.656787249817167
 20
1.845479045353668
 30
0.0
 10
7.585116081204365
 20
1.847792665305459
 30
0.0
 10
8.82288815751456
 20
1.850276126474711
 30
0.0
 10
10.06066218048572
 20
1.851108559721757
 30
0.0
 10
11.29843555737173
 20
1.851086968174376
 30
0.0
 10
12.53620896675418
 20
1.850912437251209
 30
0.0
 10
14.0834257170761
 20
1.850544961711258
 30
0.0
 10
15.94008588810651
 20
1.849992360188573
 30
0.0
 10
17.48730297276791
 20
1.850216921697527
 30
0.0
 10
18.72507664307068
 20
1.8507639111106
 30
0.0
 10
19.96284950426004
 20
1.851173853519033
 30
0.0
 10
21.51006531539402
 20
1.850547323200362
 30
0.0
 10
22.76695216328935
 20
1.847086169952113
 30
0.0
 10
23.40495122701274
 20
1.844550000788813
 30
0.0
 10
23.42406943715467
 20
1.84447400222114
 30
0.0
  0
LINE
  5
10B
330
1F
100
AcDbEntity
  8
0
  6
Continuous
 62
     7
370
    25
100
AcDbLine
 10
3.1358573929
 20
2.0156004573
 30
0.0
 11
3.317924149
 21
1.8399864058
 31
0.0
  0
LINE
  5
10C
330
1F
100
AcDbEntity
  8
0
  6
Continuous
 62
     7
370
    25
100
AcDbLine
 10
3.3425918387
 20
2.2079590741
 30
0.0
 11
3.1358573929
 21
2.0156004573
 31
0.0
  0
LINE
  5
10D
330
1F
100
AcDbEntity
  8
0
  6
Continuous
 62
     7
370
    25
100
AcDbLine
 10
3.1266411364
 20
2.4400487488
 30
0.0
 11
3.3425918387
 21
2.2079590741
 31
0.0
  0
SPLINE
  5
10E
330
1F
100
AcDbEntity
  8
0
  6
Continuous
 62
     7
370
    25
100
AcDbSpline
210
0.0
220
0.0
230
1.0
 70
     8
 71
     3
 72
    11
 73
     7
 74
     0
 42
0.00000001
 43
0.00000001
 40
0.0030773051778964
 40
0.0030773051778964
 40
0.0030773051778964
 40
0.0030773051778964
 40
0.0625
 40
0.09375
 40
0.125
 40
0.1375553254535592
 40
0.1375553254535592
 40
0.1375553254535592
 40
0.1375553254535592
 10
3.126641136359555
 20
2.440048748820636
 30
0.0
 10
4.302790895367295
 20
2.439544106174896
 30
0.0
 10
6.096731285381749
 20
2.444074575420065
 30
0.0
 10
8.512494374326725
 20
2.450098391553435
 30
0.0
 10
9.999669462036216
 20
2.451013584416919
 30
0.0
 10
10.86744132713606
 20
2.451135955845769
 30
0.0
 10
11.11614449368168
 20
2.451145148136565
 30
0.0
  0
LINE
  5
10F
330
1F
100
AcDbEntity
  8
0
  6
Continuous
 62
     7
370
    25
100
AcDbLine
 10
2.2154653578
 20
2.9807909583
 30
0.0
 11
2.0386558007
 21
3.1513341334
 31
0.0
  0
LINE
  5
110
330
1F
100
AcDbEntity
  8
0
  6
Continuous
 62
     7
370
    25
100
AcDbLine
 10
2.0386558007
 20
3.1513341334
 30
0.0
 11
2.1870752007
 21
3.3052070067
 31
0.0
  0
LINE
  5
111
330
1F
100
AcDbEntity
  8
0
  6
Continuous
 62
     7
370
    25
100
AcDbLine
 10
2.1870752007
 20
3.3052070067
 30
0.0
 11
2.1018251252
 21
3.3874356983
 31
0.0
  0
SPLINE
  5
112
330
1F
100
AcDbEntity
  8
0
  6
Continuous
 62
     7
370
    25
100
AcDbSpline
210
0.0
220
0.0
230
1.0
 70
     8
 71
     3
 72
    10
 73
     6
 74
     0
 42
0.00000001
 43
0.00000001
 40
0.3458949273835297
 40
0.3458949273835297
 40
0.3458949273835297
 40
0.3458949273835297
 40
0.375
 40
0.4375
 40
0.4488919033544798
 40
0.4488919033544798
 40
0.4488919033544798
 40
0.4488919033544798
 10
2.10182512519127
 20
3.387435698332871
 30
0.0
 10
2.678655836619898
 20
3.385092359304703
 30
0.0
 10
4.494075547713571
 20
3.376017686818511
 30
0.0
 10
6.533782241425009
 20
3.361089630594376
 30
0.0
 10
7.996026330759826
 20
3.353802911439836
 30
0.0
 10
8.221436706601722
 20
3.352787293622051
 30
0.0
  0
LINE
  5
113
330
1F
100
AcDbEntity
  8
0
  6
Continuous
 62
     7
370
    25
100
AcDbLine
 10
8.2214367066
 20
3.3527872936
 30
0.0
 11
8.221436707
 21
3.1027872936
 31
0.0
  0
LINE
  5
114
330
1F
100
AcDbEntity
  8
0
  6
Continuous
 62
     7
370
    25
100
AcDbLine
 10
8.221436707
 20
3.1027872936
 30
0.0
 11
8.346436707
 21
3.1027872936
 31
0.0
  0
LINE
  5
115
330
1F
100
AcDbEntity
  8
0
  6
Continuous
 62
     7
370
    25
100
AcDbLine
 10
8.346436707
 20
3.1027872936
 30
0.0
 11
8.346436707
 21
3.3522352928
 31
0.0
  0
SPLINE
  5
116
330
1F
100
AcDbEntity
  8
0
  6
Continuous
 62
     7
370
    25
100
AcDbSpline
210
0.0
220
0.0
230
1.0
 70
     8
 71
     3
 72
    10
 73
     6
 74
     0
 42
0.00000001
 43
0.00000001
 40
0.4509977148764093
 40
0.4509977148764093
 40
0.4509977148764093
 40
0.4509977148764093
 40
0.5
 40
0.5625
 40
0.5668963721849133
 40
0.5668963721849133
 40
0.5668963721849133
 40
0.5668963721849133
 10
8.346436706979448
 20
3.352235292762717
 30
0.0
 10
9.31600251344663
 20
3.348041885984804
 30
0.0
 10
11.52122544855123
 20
3.343243165110946
 30
0.0
 10
13.81197297570503
 20
3.360789094741762
 30
0.0
 10
15.13451876694377
 20
3.378236424144323
 30
0.0
 10
15.22143670697955
 20
3.379413848154997
 30
0.0
  0
LINE
  5
117
330
1F
100
AcDbEntity
  8
0
  6
Continuous
 62
     7
370
    25
100
AcDbLine
 10
15.221436707
 20
3.3794138482
 30
0.0
 11
15.221436707
 21
3.1302657915
 31
0.0
  0
LINE
  5
118
330
1F
100
AcDbEntity
  8
0
  6
Continuous
 62
     7
370
    25
100
AcDbLine
 10
15.221436707
 20
3.1302657915
 30
0.0
 11
15.346436707
 21
3.1302657915
 31
0.0
  0
LINE
  5
119
330
1F
100
AcDbEntity
  8
0
  6
Continuous
 62
     7
370
    25
100
AcDbLine
 10
15.346436707
 20
3.1302657915
 30
0.0
 11
15.3464367074
 21
3.3811282781
 31
0.0
  0
SPLINE
  5
11A
330
1F
100
AcDbEntity
  8
0
  6
Continuous
 62
     7
370
    25
100
AcDbSpline
210
0.0
220
0.0
230
1.0
 70
     8
 71
     3
 72
     9
 73
     5
 74
     0
 42
0.00000001
 43
0.00000001
 40
0.5690038865503042
 40
0.5690038865503042
 40
0.5690038865503042
 40
0.5690038865503042
 40
0.625
 40
0.684888720890611
 40
0.684888720890611
 40
0.684888720890611
 40
0.684888720890611
 10
15.34643670736215
 20
3.381128278117914
 30
0.0
 10
16.45351749904711
 20
3.396498737353218
 30
0.0
 10
18.74508527961675
 20
3.438517904212016
 30
0.0
 10
21.03693648754607
 20
3.494462115891595
 30
0.0
 10
22.22143670697955
 20
3.52612162671525
 30
0.0
  0
LINE
  5
11B
330
1F
100
AcDbEntity
  8
0
  6
Continuous
 62
     7
370
    25
100
AcDbLine
 10
22.221436707
 20
3.5261216267
 30
0.0
 11
22.221436707
 21
3.2777946794
 31
0.0
  0
LINE
  5
11C
330
1F
100
AcDbEntity
  8
0
  6
Continuous
 62
     7
370
    25
100
AcDbLine
 10
22.221436707
 20
3.2777946794
 30
0.0
 11
22.346436707
 21
3.2777946794
 31
0.0
  0
LINE
  5
11D
330
1F
100
AcDbEntity
  8
0
  6
Continuous
 62
     7
370
    25
100
AcDbLine
 10
22.346436707
 20
3.2777946794
 30
0.0
 11
22.3464367074
 21
3.5294727965
 31
0.0
  0
SPLINE
  5
11E
330
1F
100
AcDbEntity
  8
0
  6
Continuous
 62
     7
370
    25
100
AcDbSpline
210
0.0
220
0.0
230
1.0
 70
     8
 71
     3
 72
     8
 73
     4
 74
     0
 42
0.00000001
 43
0.00000001
 40
0.6869953961014456
 40
0.6869953961014456
 40
0.6869953961014456
 40
0.6869953961014456
 40
0.6976959794023484
 40
0.6976959794023484
 40
0.6976959794023484
 40
0.6976959794023484
 10
22.34643670736351
 20
3.529472796499968
 30
0.0
 10
22.5580776535866
 20
3.535163867723599
 30
0.0
 10
22.76972124518667
 20
3.540941570952453
 30
0.0
 10
22.98136752165254
 20
3.546800366082913
 30
0.0
  0
LINE
  5
11F
330
1F
100
AcDbEntity
  8
0
  6
Continuous
 62
     7
370
    25
100
AcDbLine
 10
22.9813675217
 20
3.5468003661
 30
0.0
 11
23.1370100252
 21
3.3052070067
 31
0.0
  0
LINE
  5
120
330
1F
100
AcDbEntity
  8
0
  6
Continuous
 62
     7
370
    25
100
AcDbLine
 10
23.1370100252
 20
3.3052070067
 30
0.0
 11
22.9641320781
 21
3.1259768895
 31
0.0
  0
LINE
  5
121
330
1F
100
AcDbEntity
  8
0
  6
Continuous
 62
     7
370
    25
100
AcDbLine
 10
22.9641320781
 20
3.1259768895
 30
0.0
 11
23.1687716715
 21
2.9516559443
 31
0.0
  0
SPLINE
  5
122
330
1F
100
AcDbEntity
  8
0
  6
Continuous
 62
     7
370
    25
100
AcDbSpline
210
0.0
220
0.0
230
1.0
 70
     8
 71
     3
 72
    24
 73
    20
 74
     0
 42
0.00000001
 43
0.00000001
 40
0.0
 40
0.0
 40
0.0
 40
0.0
 40
0.0268824807316166
 40
0.0552516877519362
 40
0.0851076311099372
 40
0.1290180761150875
 40
0.1729285798006157
 40
0.2168390624645288
 40
0.260749450669017
 40
0.3485697909847713
 40
0.4363900725202349
 40
0.5242122439916118
 40
0.6120330122669151
 40
0.6998466737192447
 40
0.7876561791668243
 40
0.8729591672818087
 40
0.9632691484734021
 40
0.981481232868823
 40
1.0
 40
1.0
 40
1.0
 40
1.0
 10
2.029361650069193
 20
2.787849061408907
 30
0.0
 10
2.218806082340792
 20
2.787051978311002
 30
0.0
 10
2.608172105614959
 20
2.785413729710456
 30
0.0
 10
3.207934726313517
 20
2.782400495764076
 30
0.0
 10
3.92769325689334
 20
2.778417215994494
 30
0.0
 10
4.756969644412776
 20
2.773305903215152
 30
0.0
 10
5.685287372113763
 20
2.767299036781631
 30
0.0
 10
6.613605433616284
 20
2.761399266535681
 30
0.0
 10
7.851362350313683
 20
2.754177060123983
 30
0.0
 10
9.398568872989191
 20
2.747504656103635
 30
0.0
 10
11.25524885845279
 20
2.746373870546408
 30
0.0
 10
13.11191547893968
 20
2.755074037641624
 30
0.0
 10
14.96845436935121
 20
2.774439374378978
 30
0.0
 10
16.82477692914563
 20
2.803316018813714
 30
0.0
 10
18.66323031446086
 20
2.83909763848149
 30
0.0
 10
20.51914002198171
 20
2.881435446646448
 30
0.0
 10
21.88461399219196
 20
2.91653178329767
 30
0.0
 10
22.7795653070389
 20
2.940848951855501
 30
0.0
 10
23.03831501107497
 20
2.948036261279718
 30
0.0
 10
23.16877007310464
 20
2.951659921064202
 30
0.0
  0
LINE
  5
123
330
1F
100
AcDbEntity
  8
0
  6
Continuous
 62
     7
370
    25
100
AcDbLine
 10
2.0293616362
 20
2.7878491031
 30
0.0
 11
2.2154653578
 21
2.9807909583
 31
0.0
  0
LINE
  5
124
330
1F
100
AcDbEntity
  8
0
  6
Continuous
 62
     7
370
    25
100
AcDbLine
 10
15.7629165788
 20
6.1354030705
 30
0.0
 11
15.8352961403
 21
5.8982700318
 31
0.0
  0
LINE
  5
125
330
1F
100
AcDbEntity
  8
0
  6
Continuous
 62
     7
370
    25
100
AcDbLine
 10
15.8352961403
 20
5.8982700318
 30
0.0
 11
15.9548510368
 21
5.9347614927
 31
0.0
  0
LINE
  5
126
330
1F
100
AcDbEntity
  8
0
  6
Continuous
 62
     7
370
    25
100
AcDbLine
 10
15.9548510368
 20
5.9347614927
 30
0.0
 11
15.8812640372
 21
6.175850392
 31
0.0
  0
SPLINE
  5
127
330
1F
100
AcDbEntity
  8
0
  6
Continuous
 62
     7
370
    25
100
AcDbSpline
210
0.0
220
0.0
230
1.0
 70
     8
 71
     3
 72
     9
 73
     5
 74
     0
 42
0.00000001
 43
0.00000001
 40
0.804952584148469
 40
0.804952584148469
 40
0.804952584148469
 40
0.804952584148469
 40
0.875
 40
0.920790647429963
 40
0.920790647429963
 40
0.920790647429963
 40
0.920790647429963
 10
15.88126403719404
 20
6.175850392030608
 30
0.0
 10
17.19327755300178
 20
6.624311527751594
 30
0.0
 10
19.36218006249181
 20
7.368817398790225
 30
0.0
 10
21.53006843685188
 20
8.116320250204502
 30
0.0
 10
22.38670169472785
 20
8.412485265140779
 30
0.0
  0
LINE
  5
128
330
1F
100
AcDbEntity
  8
0
  6
Continuous
 62
     7
370
    25
100
AcDbLine
 10
22.3867016947
 20
8.4124852651
 30
0.0
 11
22.4590157907
 21
8.1755667091
 31
0.0
  0
LINE
  5
129
330
1F
100
AcDbEntity
  8
0
  6
Continuous
 62
     7
370
    25
100
AcDbLine
 10
22.4590157907
 20
8.1755667091
 30
0.0
 11
22.5785706872
 21
8.2120581699
 31
0.0
  0
LINE
  5
12A
330
1F
100
AcDbEntity
  8
0
  6
Continuous
 62
     7
370
    25
100
AcDbLine
 10
22.5785706872
 20
8.2120581699
 30
0.0
 11
22.5049182397
 21
8.4533614925
 31
0.0
  0
SPLINE
  5
12B
330
1F
100
AcDbEntity
  8
0
  6
Continuous
 62
     7
370
    25
100
AcDbSpline
210
0.0
220
0.0
230
1.0
 70
     8
 71
     3
 72
     9
 73
     5
 74
     0
 42
0.00000001
 43
0.00000001
 40
0.9228970754712675
 40
0.9228970754712675
 40
0.9228970754712675
 40
0.9228970754712675
 40
0.9375
 40
0.9401381345203041
 40
0.9401381345203041
 40
0.9401381345203041
 40
0.9401381345203041
 10
22.504918239672
 20
8.45336149245321
 30
0.0
 10
22.77809414538823
 20
8.547830407580399
 30
0.0
 10
23.1005808281279
 20
8.659448456954463
 30
0.0
 10
23.42301177391257
 20
8.771173478421098
 30
0.0
 10
23.47234711750149
 20
8.788271648107353
 30
0.0
  0
LINE
  5
12C
330
1F
100
AcDbEntity
  8
0
  6
Continuous
 62
     7
370
    25
100
AcDbLine
 10
23.3016931689
 20
8.5865826951
 30
0.0
 11
23.4723471175
 21
8.7882716481
 31
0.0
  0
LINE
  5
12D
330
1F
100
AcDbEntity
  8
0
  6
Continuous
 62
     7
370
    25
100
AcDbLine
 10
23.578687976
 20
8.4664167823
 30
0.0
 11
23.3016931689
 21
8.5865826951
 31
0.0
  0
LINE
  5
12E
330
1F
100
AcDbEntity
  8
0
  6
Continuous
 62
     7
370
    25
100
AcDbLine
 10
23.437622291
 20
8.1412458475
 30
0.0
 11
23.578687976
 21
8.4664167823
 31
0.0
  0
SPLINE
  5
12F
330
1F
100
AcDbEntity
  8
0
  6
Continuous
 62
     7
370
    25
100
AcDbSpline
210
0.0
220
0.0
230
1.0
 70
     8
 71
     3
 72
    19
 73
    15
 74
     0
 42
0.00000001
 43
0.00000001
 40
0.0
 40
0.0
 40
0.0
 40
0.0
 40
0.0401518991417592
 40
0.0812206983439993
 40
0.1232064132499502
 40
0.1661090584998567
 40
0.2099286478149181
 40
0.3377911997406355
 40
0.4753802119958648
 40
0.6064597060456616
 40
0.7408340567238224
 40
0.8499700438194255
 40
0.9531992169808947
 40
1.0
 40
1.0
 40
1.0
 40
1.0
 10
10.20350747651386
 20
3.616217839063009
 30
0.0
 10
10.38094047526846
 20
3.675873906083304
 30
0.0
 10
10.73985829425479
 20
3.796548333131899
 30
0.0
 10
11.2841644979209
 20
3.980044126928134
 30
0.0
 10
11.84051886894458
 20
4.167945370949012
 30
0.0
 10
12.40891015684225
 20
4.360285559342168
 30
0.0
 10
13.35636781375279
 20
4.681482179455202
 30
0.0
 10
14.72142445574203
 20
5.14579463247839
 30
0.0
 10
16.4708838141776
 20
5.743292896261562
 30
0.0
 10
18.24846080504267
 20
6.352391329542725
 30
0.0
 10
19.90003997485059
 20
6.919972912451013
 30
0.0
 10
21.42841336449706
 20
7.446554704449105
 30
0.0
 10
22.5704805783161
 20
7.840998764519258
 30
0.0
 10
23.23144035058879
 20
8.069853879548614
 30
0.0
 10
23.43762207371924
 20
8.141243612998995
 30
0.0
  0
LINE
  5
130
330
1F
100
AcDbEntity
  8
0
  6
Continuous
 62
     7
370
    25
100
AcDbLine
 10
9.9568950354
 20
3.7232011011
 30
0.0
 11
10.2035120025
 21
3.6162137056
 31
0.0
  0
LINE
  5
131
330
1F
100
AcDbEntity
  8
0
  6
Continuous
 62
     7
370
    25
100
AcDbLine
 10
10.0699193256
 20
3.9450923567
 30
0.0
 11
9.9568950354
 21
3.7232011011
 31
0.0
  0
LINE
  5
132
330
1F
100
AcDbEntity
  8
0
  6
Continuous
 62
     7
370
    25
100
AcDbLine
 10
9.8505279814
 20
4.1307247308
 30
0.0
 11
10.0699193256
 21
3.9450923567
 31
0.0
  0
SPLINE
  5
133
330
1F
100
AcDbEntity
  8
0
  6
Continuous
 62
     7
370
    25
100
AcDbSpline
210
0.0
220
0.0
230
1.0
 70
     8
 71
     3
 72
     9
 73
     5
 74
     0
 42
0.00000001
 43
0.00000001
 40
0.6976959794023448
 40
0.6976959794023448
 40
0.6976959794023448
 40
0.6976959794023448
 40
0.75
 40
0.8028464465236564
 40
0.8028464465236564
 40
0.8028464465236564
 40
0.8028464465236564
 10
9.850527981402099
 20
4.130724730774428
 30
0.0
 10
10.83162177333369
 20
4.460123535650749
 30
0.0
 10
12.80297018768752
 20
5.126100210293912
 30
0.0
 10
14.77306181303685
 20
5.797146349782212
 30
0.0
 10
15.76291657875755
 20
6.135403070456189
 30
0.0
  0
LINE
  5
134
330
1F
100
AcDbEntity
  8
0
  6
Continuous
 62
     7
370
    25
100
AcDbLine
 10
0.9976880805
 20
8.4358941149
 30
0.0
 11
0.767839634
 21
8.6316890624
 31
0.0
  0
LINE
  5
135
330
1F
100
AcDbEntity
  8
0
  6
Continuous
 62
     7
370
    25
100
AcDbLine
 10
0.767839634
 20
8.6316890624
 30
0.0
 11
0.9899391516
 21
8.7747729826
 31
0.0
  0
SPLINE
  5
136
330
1F
100
AcDbEntity
  8
0
  6
Continuous
 62
     7
370
    25
100
AcDbSpline
210
0.0
220
0.0
230
1.0
 70
     8
 71
     3
 72
     8
 73
     4
 74
     0
 42
0.00000001
 43
0.00000001
 40
0.9401381345203041
 40
0.9401381345203041
 40
0.9401381345203041
 40
0.9401381345203041
 40
1.0
 40
1.0
 40
1.0
 40
1.0
 10
0.989939151614348
 20
8.774772982568184
 30
0.0
 10
2.173903649747535
 20
8.81903876083955
 30
0.0
 10
3.357613183285897
 20
8.864784848081781
 30
0.0
 10
4.541322315672775
 20
8.913163149725035
 30
0.0
  0
SPLINE
  5
137
330
1F
100
AcDbEntity
  8
0
  6
Continuous
 62
     7
370
    25
100
AcDbSpline
210
0.0
220
0.0
230
1.0
 70
     8
 71
     3
 72
     8
 73
     4
 74
     0
 42
0.00000001
 43
0.00000001
 40
0.0
 40
0.0
 40
0.0
 40
0.0
 40
0.0132430845230105
 40
0.0132430845230105
 40
0.0132430845230105
 40
0.0132430845230105
 10
4.541322456296981
 20
8.913163155472343
 30
0.0
 10
4.641507783191187
 20
8.917257715502334
 30
0.0
 10
4.741694324493443
 20
8.921371616120332
 30
0.0
 10
4.841881389817452
 20
8.92550596709683
 30
0.0
  0
LINE
  5
138
330
1F
100
AcDbEntity
  8
0
  6
Continuous
 62
     7
370
    25
100
AcDbLine
 10
4.8418813898
 20
8.9255059671
 30
0.0
 11
4.8418813898
 21
8.678087772
 31
0.0
  0
LINE
  5
139
330
1F
100
AcDbEntity
  8
0
  6
Continuous
 62
     7
370
    25
100
AcDbLine
 10
4.8418813898
 20
8.678087772
 30
0.0
 11
4.9668813898
 21
8.678087772
 31
0.0
  0
LINE
  5
13A
330
1F
100
AcDbEntity
  8
0
  6
Continuous
 62
     7
370
    25
100
AcDbLine
 10
4.9668813898
 20
8.678087772
 30
0.0
 11
4.9668813902
 21
8.9306749386
 31
0.0
  0
SPLINE
  5
13B
330
1F
100
AcDbEntity
  8
0
  6
Continuous
 62
     7
370
    25
100
AcDbSpline
210
0.0
220
0.0
230
1.0
 70
     8
 71
     3
 72
    11
 73
     7
 74
     0
 42
0.00000001
 43
0.00000001
 40
0.0187507237137097
 40
0.0187507237137097
 40
0.0187507237137097
 40
0.0187507237137097
 40
0.125
 40
0.25
 40
0.3125
 40
0.3168269925755187
 40
0.3168269925755187
 40
0.3168269925755187
 40
0.3168269925755187
 10
4.966881389817475
 20
8.930674938557399
 30
0.0
 10
5.770684823134813
 20
8.963982851472922
 30
0.0
 10
7.520178984445447
 20
9.03940650024407
 30
0.0
 10
9.740457244736307
 20
9.14676339464131
 30
0.0
 10
11.18929482907184
 20
9.226286989133829
 30
0.0
 10
11.69383902129923
 20
9.255254545590237
 30
0.0
 10
11.7265068462465
 20
9.257135758780082
 30
0.0
  0
ARC
  5
13C
330
1F
100
AcDbEntity
  8
0
  6
Continuous
 62
     7
370
    25
100
AcDbCircle
 10
11.7293813898
 20
9.2072184572
 30
0.0
 40
0.0500000000000647
100
AcDbArc
 50
0.0
 51
93.2958015432
  0
LINE
  5
13D
330
1F
100
AcDbEntity
  8
0
  6
Continuous
 62
     7
370
    25
100
AcDbLine
 10
11.7793813898
 20
9.2072184572
 30
0.0
 11
11.7793813898
 21
9.0674364563
 31
0.0
  0
LINE
  5
13E
330
1F
100
AcDbEntity
  8
0
  6
Continuous
 62
     7
370
    25
100
AcDbLine
 10
11.7793813898
 20
9.0674364563
 30
0.0
 11
11.8543813898
 21
9.0674364563
 31
0.0
  0
ARC
  5
13F
330
1F
100
AcDbEntity
  8
0
  6
Continuous
 62
     7
370
    25
100
AcDbCircle
 10
11.8543813898
 20
9.0174364563
 30
0.0
 40
0.0500000000000007
100
AcDbArc
 50
0.0
 51
90.0
  0
LINE
  5
140
330
1F
100
AcDbEntity
  8
0
  6
Continuous
 62
     7
370
    25
100
AcDbLine
 10
11.9043813898
 20
8.7136153347
 30
0.0
 11
11.9043813898
 21
9.0174364563
 31
0.0
  0
ARC
  5
141
330
1F
100
AcDbEntity
  8
0
  6
Continuous
 62
     7
370
    25
100
AcDbCircle
 10
11.8543813898
 20
8.7136153347
 30
0.0
 40
0.0500000000000114
100
AcDbArc
 50
273.3181140373
 51
0.0
  0
SPLINE
  5
142
330
1F
100
AcDbEntity
  8
0
  6
Continuous
 62
     7
370
    25
100
AcDbSpline
210
0.0
220
0.0
230
1.0
 70
     8
 71
     3
 72
    18
 73
    14
 74
     0
 42
0.00000001
 43
0.00000001
 40
0.0
 40
0.0
 40
0.0
 40
0.0
 40
0.078159642371178
 40
0.1541928223108502
 40
0.2280995910403883
 40
0.2998800043332895
 40
0.3695341230708972
 40
0.5603169577043964
 40
0.7390674119523023
 40
0.8324934555147174
 40
0.9238329673825029
 40
0.9625014606538888
 40
1.0
 40
1.0
 40
1.0
 40
1.0
 10
4.565823916363636
 20
8.313663632157601
 30
0.0
 10
4.755850410798296
 20
8.32147083173699
 30
0.0
 10
5.130733414376646
 20
8.336872823109635
 30
0.0
 10
5.685280142581274
 20
8.360209979636572
 30
0.0
 10
6.224299805352191
 20
8.38332054642833
 30
0.0
 10
6.74779094887511
 20
8.406240640198435
 30
0.0
 10
7.555372000634024
 20
8.442364440479704
 30
0.0
 10
8.622893601968853
 20
8.492146389886607
 30
0.0
 10
9.748021440942242
 20
8.548274546569386
 30
0.0
 10
10.63133905089107
 20
8.594922281074007
 30
0.0
 10
11.17420413063606
 20
8.624773561173555
 30
0.0
 10
11.58115126077423
 20
8.64775913895457
 30
0.0
 10
11.76618186447456
 20
8.658432133078998
 30
0.0
 10
11.85727609690889
 20
8.663686659563254
 30
0.0
  0
SPLINE
  5
143
330
1F
100
AcDbEntity
  8
0
  6
Continuous
 62
     7
370
    25
100
AcDbSpline
210
0.0
220
0.0
230
1.0
 70
     8
 71
     3
 72
    11
 73
     7
 74
     0
 42
0.00000001
 43
0.00000001
 40
0.0
 40
0.0
 40
0.0
 40
0.0
 40
0.2119135785426629
 40
0.4138856462516719
 40
0.7149396527127758
 40
1.0
 40
1.0
 40
1.0
 40
1.0
 10
0.7678387738771738
 20
8.166067364809598
 30
0.0
 10
1.036135543978192
 20
8.176097669238482
 30
0.0
 10
1.560142466253523
 20
8.195687725992748
 30
0.0
 10
2.465277482842302
 20
8.230226740419514
 30
0.0
 10
3.462990770815477
 20
8.269027668553123
 30
0.0
 10
4.204961739011462
 20
8.29905813079092
 30
0.0
 10
4.565823916363653
 20
8.313663632157601
 30
0.0
  0
LINE
  5
144
330
1F
100
AcDbEntity
  8
0
  6
Continuous
 62
     7
370
    25
100
AcDbLine
 10
0.767839185
 20
8.1660689114
 30
0.0
 11
0.9976880805
 21
8.4358941149
 31
0.0
  0
MTEXT
  5
146
330
1F
100
AcDbEntity
  8
0
  6
Continuous
 62
     7
100
AcDbMText
 10
0.0
 20
0.5790104628
 30
0.0
 40
0.2076
 41
0.0
 71
     1
 72
     1
  1
SOLIDWORKS Educational Product.
  7
SLDTEXTSTYLE2
 73
     1
 44
1.0
  0
MTEXT
  5
147
330
1F
100
AcDbEntity
  8
0
  6
Continuous
 62
     7
100
AcDbMText
 10
0.0
 20
0.2676104628
 30
0.0
 40
0.2076
 41
0.0
 71
     1
 72
     1
  1
For Instructional Use Only.
  7
SLDTEXTSTYLE2
 73
     1
 44
1.0
  0
ENDSEC
  0
SECTION
  2
OBJECTS
  0
DICTIONARY
  5
C
330
0
100
AcDbDictionary
281
     1
  3
ACAD_GROUP
350
D
  3
ACAD_LAYOUT
350
1A
  3
ACAD_MLINESTYLE
350
17
  3
ACAD_PLOTSETTINGS
350
19
  3
ACAD_PLOTSTYLENAME
350
E
  3
ACAD_SCALELIST
350
47
  3
DWGPROPS
350
148
  0
DICTIONARY
  5
D
102
{ACAD_REACTORS
330
C
102
}
330
C
100
AcDbDictionary
281
     1
  0
DICTIONARY
  5
1A
102
{ACAD_REACTORS
330
C
102
}
330
C
100
AcDbDictionary
281
     1
  3
Layout1
350
1E
  3
Layout2
350
26
  3
Model
350
22
  0
DICTIONARY
  5
17
102
{ACAD_REACTORS
330
C
102
}
330
C
100
AcDbDictionary
281
     1
  3
Standard
350
18
  0
DICTIONARY
  5
19
102
{ACAD_REACTORS
330
C
102
}
330
C
100
AcDbDictionary
281
     1
  0
ACDBDICTIONARYWDFLT
  5
E
102
{ACAD_REACTORS
330
C
102
}
330
C
100
AcDbDictionary
281
     1
  3
Normal
350
F
100
AcDbDictionaryWithDefault
340
F
  0
DICTIONARY
  5
47
102
{ACAD_REACTORS
330
C
102
}
330
C
100
AcDbDictionary
281
     1
  3
A0
350
48
  3
A1
350
49
  3
A2
350
4A
  3
A3
350
4B
  3
A4
350
4C
  3
A5
350
4D
  3
A6
350
4E
  3
A7
350
4F
  3
A8
350
50
  3
A9
350
51
  3
B1
350
52
  3
B2
350
53
  3
B3
350
54
  3
B4
350
55
  3
B5
350
56
  3
B6
350
57
  3
B7
350
58
  0
XRECORD
  5
148
102
{ACAD_REACTORS
330
C
102
}
330
C
100
AcDbXrecord
280
     1
  1
DWGPROPS COOKIE
  2

  3

  4

  6

  7

  8
ucmai
  9

300
=
301
=
302
=
303
=
304
=
305
=
306
=
307
=
308
=
309
=
 40
0.0
 41
2460784.958365023
 42
2460784.958365926
  1

 90
        0
  0
LAYOUT
  5
1E
102
{ACAD_REACTORS
330
1A
102
}
330
1A
100
AcDbPlotSettings
  1

  2
none_device
  4

  6

 40
0.0
 41
0.0
 42
0.0
 43
0.0
 44
0.0
 45
0.0
 46
0.0
 47
0.0
 48
0.0
 49
0.0
140
0.0
141
0.0
142
1.0
143
1.0
 70
   688
 72
     0
 73
     0
 74
     5
  7

 75
    16
147
1.0
148
0.0
149
0.0
100
AcDbLayout
  1
Layout1
 70
     1
 71
     1
 10
0.0
 20
0.0
 11
12.0
 21
9.0
 12
0.0
 22
0.0
 32
0.0
 14
1.0000000000E+20
 24
1.0000000000E+20
 34
1.0000000000E+20
 15
-1.0000000000E+20
 25
-1.0000000000E+20
 35
-1.0000000000E+20
146
0.0
 13
0.0
 23
0.0
 33
0.0
 16
1.0
 26
0.0
 36
0.0
 17
0.0
 27
1.0
 37
0.0
 76
     0
330
1B
  0
LAYOUT
  5
26
102
{ACAD_REACTORS
330
1A
102
}
330
1A
100
AcDbPlotSettings
  1

  2
none_device
  4

  6

 40
0.0
 41
0.0
 42
0.0
 43
0.0
 44
0.0
 45
0.0
 46
0.0
 47
0.0
 48
0.0
 49
0.0
140
0.0
141
0.0
142
1.0
143
1.0
 70
   688
 72
     0
 73
     0
 74
     5
  7

 75
    16
147
1.0
148
0.0
149
0.0
100
AcDbLayout
  1
Layout2
 70
     1
 71
     2
 10
0.0
 20
0.0
 11
0.0
 21
0.0
 12
0.0
 22
0.0
 32
0.0
 14
0.0
 24
0.0
 34
0.0
 15
0.0
 25
0.0
 35
0.0
146
0.0
 13
0.0
 23
0.0
 33
0.0
 16
1.0
 26
0.0
 36
0.0
 17
0.0
 27
1.0
 37
0.0
 76
     0
330
23
  0
LAYOUT
  5
22
102
{ACAD_REACTORS
330
1A
102
}
330
1A
100
AcDbPlotSettings
  1

  2
none_device
  4
Letter_(8.50_x_11.00_Inches)
  6

 40
6.35
 41
6.35
 42
6.35000508
 43
6.35000508
 44
215.9
 45
279.4
 46
0.0
 47
0.0
 48
0.0
 49
0.0
140
0.0
141
0.0
142
1.0
143
1.0
 70
  1712
 72
     0
 73
     0
 74
     0
  7

 75
     0
147
1.0
148
0.0
149
0.0
100
AcDbLayout
  1
Model
 70
     1
 71
     0
 10
0.0
 20
0.0
 11
24.0
 21
12.0
 12
0.0
 22
0.0
 32
0.0
 14
0.0
 24
0.0
 34
0.0
 15
24.0
 25
12.0
 35
0.0
146
0.0
 13
0.0
 23
0.0
 33
0.0
 16
1.0
 26
0.0
 36
0.0
 17
0.0
 27
1.0
 37
0.0
 76
     0
330
1F
331
29
  0
MLINESTYLE
  5
18
102
{ACAD_REACTORS
330
17
102
}
330
17
100
AcDbMlineStyle
  2
Standard
 70
     0
  3

 62
   256
 51
90.0
 52
90.0
 71
     2
 49
0.5
 62
   256
  6
BYLAYER
 49
-0.5
 62
   256
  6
BYLAYER
  0
ACDBPLACEHOLDER
  5
F
102
{ACAD_REACTORS
330
E
102
}
330
E
  0
SCALE
  5
48
102
{ACAD_REACTORS
330
47
102
}
330
47
100
AcDbScale
 70
     0
300
1:1
140
1.0
141
1.0
290
     1
  0
SCALE
  5
49
102
{ACAD_REACTORS
330
47
102
}
330
47
100
AcDbScale
 70
     0
300
1/128" = 1'-0"
140
0.0078125
141
12.0
290
     0
  0
SCALE
  5
4A
102
{ACAD_REACTORS
330
47
102
}
330
47
100
AcDbScale
 70
     0
300
1/64" = 1'-0"
140
0.015625
141
12.0
290
     0
  0
SCALE
  5
4B
102
{ACAD_REACTORS
330
47
102
}
330
47
100
AcDbScale
 70
     0
300
1/32" = 1'-0"
140
0.03125
141
12.0
290
     0
  0
SCALE
  5
4C
102
{ACAD_REACTORS
330
47
102
}
330
47
100
AcDbScale
 70
     0
300
1/16" = 1'-0"
140
0.0625
141
12.0
290
     0
  0
SCALE
  5
4D
102
{ACAD_REACTORS
330
47
102
}
330
47
100
AcDbScale
 70
     0
300
3/32" = 1'-0"
140
0.09375
141
12.0
290
     0
  0
SCALE
  5
4E
102
{ACAD_REACTORS
330
47
102
}
330
47
100
AcDbScale
 70
     0
300
1/8" = 1'-0"
140
0.125
141
12.0
290
     0
  0
SCALE
  5
4F
102
{ACAD_REACTORS
330
47
102
}
330
47
100
AcDbScale
 70
     0
300
3/16" = 1'-0"
140
0.1875
141
12.0
290
     0
  0
SCALE
  5
50
102
{ACAD_REACTORS
330
47
102
}
330
47
100
AcDbScale
 70
     0
300
1/4" = 1'-0"
140
0.25
141
12.0
290
     0
  0
SCALE
  5
51
102
{ACAD_REACTORS
330
47
102
}
330
47
100
AcDbScale
 70
     0
300
3/8" = 1'-0"
140
0.375
141
12.0
290
     0
  0
SCALE
  5
52
102
{ACAD_REACTORS
330
47
102
}
330
47
100
AcDbScale
 70
     0
300
1/2" = 1'-0"
140
0.5
141
12.0
290
     0
  0
SCALE
  5
53
102
{ACAD_REACTORS
330
47
102
}
330
47
100
AcDbScale
 70
     0
300
3/4" = 1'-0"
140
0.75
141
12.0
290
     0
  0
SCALE
  5
54
102
{ACAD_REACTORS
330
47
102
}
330
47
100
AcDbScale
 70
     0
300
1" = 1'-0"
140
1.0
141
12.0
290
     0
  0
SCALE
  5
55
102
{ACAD_REACTORS
330
47
102
}
330
47
100
AcDbScale
 70
     0
300
1-1/2" = 1'-0"
140
1.5
141
12.0
290
     0
  0
SCALE
  5
56
102
{ACAD_REACTORS
330
47
102
}
330
47
100
AcDbScale
 70
     0
300
3" = 1'-0"
140
3.0
141
12.0
290
     0
  0
SCALE
  5
57
102
{ACAD_REACTORS
330
47
102
}
330
47
100
AcDbScale
 70
     0
300
6" = 1'-0"
140
6.0
141
12.0
290
     0
  0
SCALE
  5
58
102
{ACAD_REACTORS
330
47
102
}
330
47
100
AcDbScale
 70
     0
300
1'-0" = 1'-0"
140
12.0
141
12.0
290
     0
  0
ENDSEC
  0
EOF
