  0
SECTION
  2
HEADER
  9
$ACADVER
  1
AC1015
  9
$ACADMAINTVER
 70
     6
  9
$DWGCODEPAGE
  3
ANSI_1252
  9
$INSBASE
 10
0.0
 20
0.0
 30
0.0
  9
$EXTMIN
 10
0.0
 20
0.0
 30
0.0
  9
$EXTMAX
 10
24.0
 20
12.0
 30
0.0
  9
$LIMMIN
 10
0.0
 20
0.0
  9
$LIMMAX
 10
24.0
 20
12.0
  9
$ORTHOMODE
 70
     0
  9
$REGENMODE
 70
     1
  9
$FILLMODE
 70
     1
  9
$QTEXTMODE
 70
     0
  9
$MIRRTEXT
 70
     1
  9
$LTSCALE
 40
1.0
  9
$ATTMODE
 70
     1
  9
$TEXTSIZE
 40
0.125
  9
$TRACEWID
 40
0.05
  9
$TEXTSTYLE
  7
Standard
  9
$CLAYER
  8
0
  9
$CELTYPE
  6
ByLayer
  9
$CECOLOR
 62
   256
  9
$CELTSCALE
 40
1.0
  9
$DISPSILH
 70
     0
  9
$DIMSCALE
 40
1.0
  9
$DIMASZ
 40
0.13
  9
$DIMEXO
 40
0.05
  9
$DIMDLI
 40
0.38
  9
$DIMRND
 40
0.0
  9
$DIMDLE
 40
0.0
  9
$DIMEXE
 40
0.125
  9
$DIMTP
 40
0.0
  9
$DIMTM
 40
0.0
  9
$DIMTXT
 40
0.125
  9
$DIMCEN
 40
0.09
  9
$DIMTSZ
 40
0.0
  9
$DIMTOL
 70
     0
  9
$DIMLIM
 70
     0
  9
$DIMTIH
 70
     1
  9
$DIMTOH
 70
     1
  9
$DIMSE1
 70
     0
  9
$DIMSE2
 70
     0
  9
$DIMTAD
 70
     0
  9
$DIMZIN
 70
     1
  9
$DIMBLK
  1

  9
$DIMASO
 70
     1
  9
$DIMSHO
 70
     1
  9
$DIMPOST
  1

  9
$DIMAPOST
  1

  9
$DIMALT
 70
     0
  9
$DIMALTD
 70
     2
  9
$DIMALTF
 40
25.4
  9
$DIMLFAC
 40
1.0
  9
$DIMTOFL
 70
     0
  9
$DIMTVP
 40
0.0
  9
$DIMTIX
 70
     0
  9
$DIMSOXD
 70
     0
  9
$DIMSAH
 70
     0
  9
$DIMBLK1
  1

  9
$DIMBLK2
  1

  9
$DIMSTYLE
  2
Standard
  9
$DIMCLRD
 70
     0
  9
$DIMCLRE
 70
     0
  9
$DIMCLRT
 70
     0
  9
$DIMTFAC
 40
1.0
  9
$DIMGAP
 40
0.06
  9
$DIMJUST
 70
     0
  9
$DIMSD1
 70
     0
  9
$DIMSD2
 70
     0
  9
$DIMTOLJ
 70
     1
  9
$DIMTZIN
 70
     1
  9
$DIMALTZ
 70
     0
  9
$DIMALTTZ
 70
     0
  9
$DIMUPT
 70
     0
  9
$DIMDEC
 70
     2
  9
$DIMTDEC
 70
     2
  9
$DIMALTU
 70
     2
  9
$DIMALTTD
 70
     2
  9
$DIMTXSTY
  7
Standard
  9
$DIMAUNIT
 70
     0
  9
$DIMADEC
 70
     2
  9
$DIMALTRND
 40
0.0
  9
$DIMAZIN
 70
     0
  9
$DIMDSEP
 70
    46
  9
$DIMATFIT
 70
     3
  9
$DIMFRAC
 70
     0
  9
$DIMLDRBLK
  1

  9
$DIMLUNIT
 70
     2
  9
$DIMLWD
 70
    -2
  9
$DIMLWE
 70
    -2
  9
$DIMTMOVE
 70
     0
  9
$LUNITS
 70
     2
  9
$LUPREC
 70
     6
  9
$SKETCHINC
 40
0.1
  9
$FILLETRAD
 40
0.0
  9
$AUNITS
 70
     0
  9
$AUPREC
 70
     2
  9
$MENU
  1
.
  9
$ELEVATION
 40
0.0
  9
$PELEVATION
 40
0.0
  9
$THICKNESS
 40
0.0
  9
$LIMCHECK
 70
     0
  9
$CHAMFERA
 40
0.0
  9
$CHAMFERB
 40
0.0
  9
$CHAMFERC
 40
0.0
  9
$CHAMFERD
 40
0.0
  9
$SKPOLY
 70
     0
  9
$TDCREATE
 40
2460784.675978982
  9
$TDUCREATE
 40
2460784.967645648
  9
$TDUPDATE
 40
2460784.675979885
  9
$TDUUPDATE
 40
2460784.967646551
  9
$TDINDWG
 40
0.0000000116
  9
$TDUSRTIMER
 40
0.0000000116
  9
$USRTIMER
 70
     1
  9
$ANGBASE
 50
0.0
  9
$ANGDIR
 70
     0
  9
$PDMODE
 70
     0
  9
$PDSIZE
 40
-1.0
  9
$PLINEWID
 40
0.0
  9
$SPLFRAME
 70
     0
  9
$SPLINETYPE
 70
     6
  9
$SPLINESEGS
 70
     8
  9
$HANDSEED
  5
1C0
  9
$SURFTAB1
 70
     6
  9
$SURFTAB2
 70
     6
  9
$SURFTYPE
 70
     6
  9
$SURFU
 70
     6
  9
$SURFV
 70
     6
  9
$UCSBASE
  2

  9
$UCSNAME
  2

  9
$UCSORG
 10
0.0
 20
0.0
 30
0.0
  9
$UCSXDIR
 10
1.0
 20
0.0
 30
0.0
  9
$UCSYDIR
 10
0.0
 20
1.0
 30
0.0
  9
$UCSORTHOREF
  2

  9
$UCSORTHOVIEW
 70
     0
  9
$UCSORGTOP
 10
0.0
 20
0.0
 30
0.0
  9
$UCSORGBOTTOM
 10
0.0
 20
0.0
 30
0.0
  9
$UCSORGLEFT
 10
0.0
 20
0.0
 30
0.0
  9
$UCSORGRIGHT
 10
0.0
 20
0.0
 30
0.0
  9
$UCSORGFRONT
 10
0.0
 20
0.0
 30
0.0
  9
$UCSORGBACK
 10
0.0
 20
0.0
 30
0.0
  9
$PUCSBASE
  2

  9
$PUCSNAME
  2

  9
$PUCSORG
 10
0.0
 20
0.0
 30
0.0
  9
$PUCSXDIR
 10
1.0
 20
0.0
 30
0.0
  9
$PUCSYDIR
 10
0.0
 20
1.0
 30
0.0
  9
$PUCSORTHOREF
  2

  9
$PUCSORTHOVIEW
 70
     0
  9
$PUCSORGTOP
 10
0.0
 20
0.0
 30
0.0
  9
$PUCSORGBOTTOM
 10
0.0
 20
0.0
 30
0.0
  9
$PUCSORGLEFT
 10
0.0
 20
0.0
 30
0.0
  9
$PUCSORGRIGHT
 10
0.0
 20
0.0
 30
0.0
  9
$PUCSORGFRONT
 10
0.0
 20
0.0
 30
0.0
  9
$PUCSORGBACK
 10
0.0
 20
0.0
 30
0.0
  9
$USERI1
 70
     0
  9
$USERI2
 70
     0
  9
$USERI3
 70
     0
  9
$USERI4
 70
     0
  9
$USERI5
 70
     0
  9
$USERR1
 40
0.0
  9
$USERR2
 40
0.0
  9
$USERR3
 40
0.0
  9
$USERR4
 40
0.0
  9
$USERR5
 40
0.0
  9
$WORLDVIEW
 70
     1
  9
$SHADEDGE
 70
     3
  9
$SHADEDIF
 70
    70
  9
$TILEMODE
 70
     1
  9
$MAXACTVP
 70
    64
  9
$PINSBASE
 10
0.0
 20
0.0
 30
0.0
  9
$PLIMCHECK
 70
     0
  9
$PEXTMIN
 10
1.0000000000E+20
 20
1.0000000000E+20
 30
1.0000000000E+20
  9
$PEXTMAX
 10
-1.0000000000E+20
 20
-1.0000000000E+20
 30
-1.0000000000E+20
  9
$PLIMMIN
 10
0.0
 20
0.0
  9
$PLIMMAX
 10
12.0
 20
9.0
  9
$UNITMODE
 70
     0
  9
$VISRETAIN
 70
     1
  9
$PLINEGEN
 70
     0
  9
$PSLTSCALE
 70
     1
  9
$TREEDEPTH
 70
  3020
  9
$CMLSTYLE
  2
Standard
  9
$CMLJUST
 70
     0
  9
$CMLSCALE
 40
1.0
  9
$PROXYGRAPHICS
 70
     1
  9
$MEASUREMENT
 70
     0
  9
$CELWEIGHT
370
    -1
  9
$ENDCAPS
280
     0
  9
$JOINSTYLE
280
     0
  9
$LWDISPLAY
290
     1
  9
$INSUNITS
 70
     1
  9
$HYPERLINKBASE
  1

  9
$STYLESHEET
  1

  9
$XEDIT
290
     1
  9
$CEPSNTYPE
380
     0
  9
$PSTYLEMODE
290
     1
  9
$FINGERPRINTGUID
  2
{0b13eab9-1cd0-46e0-81ee-bb1f7e5f9e91}
  9
$VERSIONGUID
  2
{FAEB1C32-E019-11D5-929B-00C0DF256EC4}
  9
$EXTNAMES
290
     1
  9
$PSVPSCALE
 40
0.0
  9
$OLESTARTUP
290
     0
  0
ENDSEC
  0
SECTION
  2
CLASSES
  0
CLASS
  1
ACDBDICTIONARYWDFLT
  2
AcDbDictionaryWithDefault
  3
ObjectDBX Classes
 90
        0
280
     0
281
     0
  0
CLASS
  1
VISUALSTYLE
  2
AcDbVisualStyle
  3
ObjectDBX Classes
 90
     4095
280
     0
281
     0
  0
CLASS
  1
MATERIAL
  2
AcDbMaterial
  3
ObjectDBX Classes
 90
     1153
280
     0
281
     0
  0
CLASS
  1
SCALE
  2
AcDbScale
  3
ObjectDBX Classes
 90
     1153
280
     0
281
     0
  0
CLASS
  1
TABLESTYLE
  2
AcDbTableStyle
  3
ObjectDBX Classes
 90
     4095
280
     0
281
     0
  0
CLASS
  1
MLEADERSTYLE
  2
AcDbMLeaderStyle
  3
ACDB_MLEADERSTYLE_CLASS
 90
     4095
280
     0
281
     0
  0
CLASS
  1
SUN
  2
AcDbSun
  3
SCENEOE
 90
     1153
280
     0
281
     0
  0
CLASS
  1
ACDBPLACEHOLDER
  2
AcDbPlaceHolder
  3
ObjectDBX Classes
 90
        0
280
     0
281
     0
  0
CLASS
  1
LAYOUT
  2
AcDbLayout
  3
ObjectDBX Classes
 90
        0
280
     0
281
     0
  0
ENDSEC
  0
SECTION
  2
TABLES
  0
TABLE
  2
VPORT
  5
8
330
0
100
AcDbSymbolTable
 70
     1
  0
VPORT
  5
29
330
8
100
AcDbSymbolTableRecord
100
AcDbViewportTableRecord
  2
*Active
 70
     0
 10
0.0
 20
0.0
 11
1.0
 21
1.0
 12
12.0
 22
6.0
 13
0.0
 23
0.0
 14
0.5
 24
0.5
 15
0.5
 25
0.5
 16
0.0
 26
0.0
 36
1.0
 17
0.0
 27
0.0
 37
0.0
 40
12.0
 41
2.0
 42
50.0
 43
0.0
 44
0.0
 50
0.0
 51
0.0
 71
     0
 72
  2000
 73
     1
 74
     3
 75
     0
 76
     0
 77
     0
 78
     0
281
     0
 65
     1
110
0.0
120
0.0
130
0.0
111
1.0
121
0.0
131
0.0
112
0.0
122
1.0
132
0.0
 79
     0
146
0.0
  0
ENDTAB
  0
TABLE
  2
LTYPE
  5
5
330
0
100
AcDbSymbolTable
 70
     6
  0
LTYPE
  5
14
330
5
100
AcDbSymbolTableRecord
100
AcDbLinetypeTableRecord
  2
ByBlock
 70
     0
  3

 72
    65
 73
     0
 40
0.0
  0
LTYPE
  5
15
330
5
100
AcDbSymbolTableRecord
100
AcDbLinetypeTableRecord
  2
ByLayer
 70
     0
  3

 72
    65
 73
     0
 40
0.0
  0
LTYPE
  5
16
330
5
100
AcDbSymbolTableRecord
100
AcDbLinetypeTableRecord
  2
Continuous
 70
     0
  3
Solid line
 72
    65
 73
     0
 40
0.0
  0
LTYPE
  5
5E
330
5
100
AcDbSymbolTableRecord
100
AcDbLinetypeTableRecord
  2
HIDDEN
 70
     0
  3
Hidden __ __ __ __ __ __ __ __ __ __ __ __ __ __
 72
    65
 73
     2
 40
0.075
 49
0.05
 74
     0
 49
-0.025
 74
     0
  0
LTYPE
  5
5F
330
5
100
AcDbSymbolTableRecord
100
AcDbLinetypeTableRecord
  2
PHANTOM
 70
     0
  3
Phantom ______  __  __  ______  __  __  ______
 72
    65
 73
     6
 40
0.5
 49
0.25
 74
     0
 49
-0.05
 74
     0
 49
0.05
 74
     0
 49
-0.05
 74
     0
 49
0.05
 74
     0
 49
-0.05
 74
     0
  0
LTYPE
  5
60
330
5
100
AcDbSymbolTableRecord
100
AcDbLinetypeTableRecord
  2
CENTER
 70
     0
  3
Center ____ _ ____ _ ____ _ ____ _ ____ _ ____
 72
    65
 73
     4
 40
0.4
 49
0.25
 74
     0
 49
-0.05
 74
     0
 49
0.05
 74
     0
 49
-0.05
 74
     0
  0
LTYPE
  5
61
330
5
100
AcDbSymbolTableRecord
100
AcDbLinetypeTableRecord
  2
CENTERX2
 70
     0
  3
Center (2x) ________  __  ________  __  _____
 72
    65
 73
     4
 40
0.8
 49
0.5
 74
     0
 49
-0.1
 74
     0
 49
0.1
 74
     0
 49
-0.1
 74
     0
  0
LTYPE
  5
62
330
5
100
AcDbSymbolTableRecord
100
AcDbLinetypeTableRecord
  2
DOT2
 70
     0
  3
Dot (.5x) ........................................
 72
    65
 73
     2
 40
0.025
 49
0.0
 74
     0
 49
-0.025
 74
     0
  0
ENDTAB
  0
TABLE
  2
LAYER
  5
2
330
0
100
AcDbSymbolTable
 70
     3
  0
LAYER
  5
10
330
2
100
AcDbSymbolTableRecord
100
AcDbLayerTableRecord
  2
0
 70
     0
 62
     7
  6
Continuous
370
    -3
390
F
  0
LAYER
  5
63
330
2
100
AcDbSymbolTableRecord
100
AcDbLayerTableRecord
  2
FORMAT
 70
     0
 62
     7
  6
Continuous
370
    -3
390
F
  0
LAYER
  5
64
330
2
100
AcDbSymbolTableRecord
100
AcDbLayerTableRecord
  2
PART_NAMES
 70
     0
 62
     1
  6
Continuous
370
    -3
390
F
  0
ENDTAB
  0
TABLE
  2
STYLE
  5
3
330
0
100
AcDbSymbolTable
 70
     3
  0
STYLE
  5
11
330
3
100
AcDbSymbolTableRecord
100
AcDbTextStyleTableRecord
  2
Standard
 70
     0
 40
0.0
 41
1.0
 50
0.0
 71
     0
 42
0.125
  3
txt
  4

  0
STYLE
  5
FA
330
3
100
AcDbSymbolTableRecord
100
AcDbTextStyleTableRecord
  2
SLDTEXTSTYLE0
 70
     0
 40
0.0
 41
0.75
 50
0.0
 71
     0
 42
0.125
  3
TXT
  4

  0
STYLE
  5
1BC
330
3
100
AcDbSymbolTableRecord
100
AcDbTextStyleTableRecord
  2
SLDTEXTSTYLE1
 70
     0
 40
0.0
 41
0.7
 50
0.0
 71
     0
 42
0.125
  3
TXT
  4

  0
ENDTAB
  0
TABLE
  2
VIEW
  5
6
330
0
100
AcDbSymbolTable
 70
     0
  0
ENDTAB
  0
TABLE
  2
UCS
  5
7
330
0
100
AcDbSymbolTable
 70
     0
  0
ENDTAB
  0
TABLE
  2
APPID
  5
9
330
0
100
AcDbSymbolTable
 70
     1
  0
APPID
  5
12
330
9
100
AcDbSymbolTableRecord
100
AcDbRegAppTableRecord
  2
ACAD
 70
     0
  0
ENDTAB
  0
TABLE
  2
DIMSTYLE
  5
A
330
0
100
AcDbSymbolTable
 70
     1
100
AcDbDimStyleTable
  0
DIMSTYLE
105
27
330
A
100
AcDbSymbolTableRecord
100
AcDbDimStyleTableRecord
  2
Standard
 70
     0
178
     0
340
11
  0
ENDTAB
  0
TABLE
  2
BLOCK_RECORD
  5
1
330
0
100
AcDbSymbolTable
 70
     1
  0
BLOCK_RECORD
  5
1F
330
1
100
AcDbSymbolTableRecord
100
AcDbBlockTableRecord
  2
*Model_Space
340
22
  0
BLOCK_RECORD
  5
1B
330
1
100
AcDbSymbolTableRecord
100
AcDbBlockTableRecord
  2
*Paper_Space
340
1E
  0
BLOCK_RECORD
  5
23
330
1
100
AcDbSymbolTableRecord
100
AcDbBlockTableRecord
  2
*Paper_Space0
340
26
  0
ENDTAB
  0
ENDSEC
  0
SECTION
  2
BLOCKS
  0
BLOCK
  5
20
330
1F
100
AcDbEntity
  8
0
100
AcDbBlockBegin
  2
*Model_Space
 70
     0
 10
0.0
 20
0.0
 30
0.0
  3
*Model_Space
  1

  0
ENDBLK
  5
21
330
1F
100
AcDbEntity
  8
0
100
AcDbBlockEnd
  0
BLOCK
  5
1C
330
1B
100
AcDbEntity
 67
     1
  8
0
100
AcDbBlockBegin
  2
*Paper_Space
 70
     0
 10
0.0
 20
0.0
 30
0.0
  3
*Paper_Space
  1

  0
ENDBLK
  5
1D
330
1B
100
AcDbEntity
 67
     1
  8
0
100
AcDbBlockEnd
  0
BLOCK
  5
24
330
23
100
AcDbEntity
  8
0
100
AcDbBlockBegin
  2
*Paper_Space0
 70
     0
 10
0.0
 20
0.0
 30
0.0
  3
*Paper_Space0
  1

  0
ENDBLK
  5
25
330
23
100
AcDbEntity
  8
0
100
AcDbBlockEnd
  0
ENDSEC
  0
SECTION
  2
ENTITIES
  0
LINE
  5
65
330
1F
100
AcDbEntity
  8
0
  6
CENTERX2
 62
     7
370
    18
100
AcDbLine
 10
0.25
 20
0.25
 30
0.0
 11
0.25
 21
11.75
 31
0.0
  0
LINE
  5
66
330
1F
100
AcDbEntity
  8
0
  6
CENTERX2
 62
     7
370
    18
100
AcDbLine
 10
0.25
 20
0.25
 30
0.0
 11
23.75
 21
0.25
 31
0.0
  0
LINE
  5
67
330
1F
100
AcDbEntity
  8
0
  6
CENTERX2
 62
     7
370
    18
100
AcDbLine
 10
23.75
 20
0.25
 30
0.0
 11
23.75
 21
11.75
 31
0.0
  0
LINE
  5
68
330
1F
100
AcDbEntity
  8
0
  6
CENTERX2
 62
     7
370
    18
100
AcDbLine
 10
23.75
 20
11.75
 30
0.0
 11
0.25
 21
11.75
 31
0.0
  0
LINE
  5
69
330
1F
100
AcDbEntity
  8
0
  6
Continuous
 62
     7
370
    25
100
AcDbLine
 10
3.4332722608
 20
2.533912529
 30
0.0
 11
3.4275166925
 21
2.2839752247
 31
0.0
  0
LINE
  5
6A
330
1F
100
AcDbEntity
  8
0
  6
Continuous
 62
     7
370
    25
100
AcDbLine
 10
3.4275166925
 20
2.2839752247
 30
0.0
 11
4.1773179124
 21
2.2667087659
 31
0.0
  0
LINE
  5
6B
330
1F
100
AcDbEntity
  8
0
  6
Continuous
 62
     7
370
    25
100
AcDbLine
 10
4.1773179124
 20
2.2667087659
 30
0.0
 11
4.1830734807
 21
2.5166460703
 31
0.0
  0
LINE
  5
6C
330
1F
100
AcDbEntity
  8
0
  6
Continuous
 62
     7
370
    25
100
AcDbLine
 10
4.183073485
 20
2.5349579028
 30
0.0
 11
4.1830734807
 21
2.5166460703
 31
0.0
  0
LINE
  5
6D
330
1F
100
AcDbEntity
  8
0
  6
Continuous
 62
     7
370
    25
100
AcDbLine
 10
4.183073485
 20
2.5349579028
 30
0.0
 11
6.0020454449
 21
2.4727942106
 31
0.0
  0
LINE
  5
6E
330
1F
100
AcDbEntity
  8
0
  6
Continuous
 62
     7
370
    25
100
AcDbLine
 10
6.0020454409
 20
2.4557197708
 30
0.0
 11
6.0020454449
 21
2.4727942106
 31
0.0
  0
LINE
  5
6F
330
1F
100
AcDbEntity
  8
0
  6
Continuous
 62
     7
370
    25
100
AcDbLine
 10
6.0020454409
 20
2.4557197708
 30
0.0
 11
5.996289859
 21
2.2057818753
 31
0.0
  0
LINE
  5
70
330
1F
100
AcDbEntity
  8
0
  6
Continuous
 62
     7
370
    25
100
AcDbLine
 10
5.996289859
 20
2.2057818753
 30
0.0
 11
6.7460910789
 21
2.1885154165
 31
0.0
  0
LINE
  5
71
330
1F
100
AcDbEntity
  8
0
  6
Continuous
 62
     7
370
    25
100
AcDbLine
 10
6.7460910789
 20
2.1885154165
 30
0.0
 11
6.7518466609
 21
2.4384533121
 31
0.0
  0
LINE
  5
72
330
1F
100
AcDbEntity
  8
0
  6
Continuous
 62
     7
370
    25
100
AcDbLine
 10
6.7518466629
 20
2.4471696197
 30
0.0
 11
6.7518466609
 21
2.4384533121
 31
0.0
  0
LINE
  5
73
330
1F
100
AcDbEntity
  8
0
  6
Continuous
 62
     7
370
    25
100
AcDbLine
 10
6.7518466629
 20
2.4471696197
 30
0.0
 11
8.185942928
 21
2.3981591232
 31
0.0
  0
ARC
  5
74
330
1F
100
AcDbEntity
  8
0
  6
Continuous
 62
     7
370
    25
100
AcDbCircle
 10
8.1927739759
 20
2.5980424311
 30
0.0
 40
0.200000000000001
100
AcDbArc
 50
268.0426682607
 51
285.9845984045
  0
SPLINE
  5
75
330
1F
100
AcDbEntity
  8
0
  6
Continuous
 62
     7
370
    25
100
AcDbSpline
210
0.0
220
0.0
230
1.0
 70
     8
 71
     3
 72
     9
 73
     5
 74
     0
 42
0.00000001
 43
0.00000001
 40
0.0
 40
0.0
 40
0.0
 40
0.0
 40
0.24999378591275
 40
0.4496100335857385
 40
0.4496100335857385
 40
0.4496100335857385
 40
0.4496100335857385
 10
8.492761085578591
 20
2.482492016285854
 30
0.0
 10
8.447728888509856
 20
2.467160183630466
 30
0.0
 10
8.366357118247189
 20
2.440692941978025
 30
0.0
 10
8.284365491718386
 20
2.416235374034656
 30
0.0
 10
8.247849765956703
 20
2.405775280164424
 30
0.0
  0
SPLINE
  5
76
330
1F
100
AcDbEntity
  8
0
  6
Continuous
 62
     7
370
    25
100
AcDbSpline
210
0.0
220
0.0
230
1.0
 70
     8
 71
     3
 72
    11
 73
     7
 74
     0
 42
0.00000001
 43
0.00000001
 40
0.0037955652017914
 40
0.0037955652017914
 40
0.0037955652017914
 40
0.0037955652017914
 40
0.2528466739013435
 40
0.5018977826008957
 40
0.7509488913004478
 40
1.0
 40
1.0
 40
1.0
 40
1.0
 10
9.096973898283533
 20
2.731419931002687
 30
0.0
 10
9.047981555328636
 20
2.707547065641911
 30
0.0
 10
8.949239562381551
 20
2.661332821310748
 30
0.0
 10
8.799047395898892
 20
2.596689196888004
 30
0.0
 10
8.646921209981935
 20
2.536782715590483
 30
0.0
 10
8.544331621909636
 20
2.500049916736959
 30
0.0
 10
8.492761085532695
 20
2.482492016270228
 30
0.0
  0
LINE
  5
77
330
1F
100
AcDbEntity
  8
0
  6
Continuous
 62
     7
370
    25
100
AcDbLine
 10
9.244092175
 20
2.803107354
 30
0.0
 11
9.0969738983
 21
2.731419931
 31
0.0
  0
ARC
  5
78
330
1F
100
AcDbEntity
  8
0
  6
Continuous
 62
     7
370
    25
100
AcDbCircle
 10
9.2659942057
 20
2.7581595949
 30
0.0
 40
0.0500000000000005
100
AcDbArc
 50
0.0
 51
115.9789313396
  0
LINE
  5
79
330
1F
100
AcDbEntity
  8
0
  6
Continuous
 62
     7
370
    25
100
AcDbLine
 10
9.3159942057
 20
2.3132942256
 30
0.0
 11
9.3159942057
 21
2.7581595949
 31
0.0
  0
ARC
  5
7A
330
1F
100
AcDbEntity
  8
0
  6
Continuous
 62
     7
370
    25
100
AcDbCircle
 10
9.2659942057
 20
2.3132942256
 30
0.0
 40
0.05
100
AcDbArc
 50
295.6633366535
 51
0.0
  0
SPLINE
  5
7B
330
1F
100
AcDbEntity
  8
0
  6
Continuous
 62
     7
370
    25
100
AcDbSpline
210
0.0
220
0.0
230
1.0
 70
     8
 71
     3
 72
    21
 73
    17
 74
     0
 42
0.00000001
 43
0.00000001
 40
0.0
 40
0.0
 40
0.0
 40
0.0
 40
0.0714971817862731
 40
0.1429628883518907
 40
0.2144023401088575
 40
0.2858207632265561
 40
0.357223388491812
 40
0.4286154501639053
 40
0.5000021848257651
 40
0.5713888302326133
 40
0.6427806241593136
 40
0.7141828032477132
 40
0.7856006018552032
 40
0.8570392509058278
 40
0.928503976745121
 40
1.0
 40
1.0
 40
1.0
 40
1.0
 10
8.653909213657943
 20
2.00917258839754
 30
0.0
 10
8.669351477941609
 20
2.014472603345855
 30
0.0
 10
8.70022920835741
 20
2.025070300015695
 30
0.0
 10
8.746362469480509
 20
2.041464500961842
 30
0.0
 10
8.792346827308467
 20
2.058218078720299
 30
0.0
 10
8.838170028544136
 20
2.075367021247283
 30
0.0
 10
8.883835354197023
 20
2.092901689466041
 30
0.0
 10
8.929341923009174
 20
2.110824667971233
 30
0.0
 10
8.974689975744255
 20
2.129135252349547
 30
0.0
 10
9.01987942588669
 20
2.147833674825121
 30
0.0
 10
9.064910374367683
 20
2.166919709061286
 30
0.0
 10
9.10978249956205
 20
2.18639402644609
 30
0.0
 10
9.154496983081225
 20
2.206254165066079
 30
0.0
 10
9.19904941421188
 20
2.226509302524107
 30
0.0
 10
9.243456258009996
 20
2.247125171484286
 30
0.0
 10
9.272915603747547
 20
2.261191459731851
 30
0.0
 10
9.287648501282506
 20
2.268226143573604
 30
0.0
  0
SPLINE
  5
7C
330
1F
100
AcDbEntity
  8
0
  6
Continuous
 62
     7
370
    25
100
AcDbSpline
210
0.0
220
0.0
230
1.0
 70
     8
 71
     3
 72
    20
 73
    16
 74
     0
 42
0.00000001
 43
0.00000001
 40
0.0
 40
0.0
 40
0.0
 40
0.0
 40
0.0769918868712836
 40
0.1539523567063304
 40
0.2308868414799559
 40
0.3078007786724812
 40
0.3846996101229593
 40
0.4615887808777762
 40
0.5384737380358476
 40
0.6153599295916425
 40
0.6922528032772527
 40
0.7691578054047423
 40
0.8460803797099962
 40
0.9230259661993281
 40
1.0
 40
1.0
 40
1.0
 40
1.0
 10
8.051958389807735
 20
1.840316641509319
 30
0.0
 10
8.067619866861373
 20
1.843839457199174
 30
0.0
 10
8.09893643020188
 20
1.850883651071208
 30
0.0
 10
8.145788227331973
 20
1.861947564386206
 30
0.0
 10
8.192536076459522
 20
1.87337273915318
 30
0.0
 10
8.239171999469969
 20
1.885195047219938
 30
0.0
 10
8.285698131088758
 20
1.897404884345969
 30
0.0
 10
8.332113902693338
 20
1.910004810918224
 30
0.0
 10
8.378419450535919
 20
1.922994185428051
 30
0.0
 10
8.424614793860524
 20
1.936373013161277
 30
0.0
 10
8.470699715248053
 20
1.950141913299344
 30
0.0
 10
8.516675061143827
 20
1.96429840206822
 30
0.0
 10
8.56253765814999
 20
1.978851796697232
 30
0.0
 10
8.608299354005538
 20
1.99376729684313
 30
0.0
 10
8.638704053982359
 20
2.004036858541782
 30
0.0
 10
8.653909213657943
 20
2.00917258839754
 30
0.0
  0
ARC
  5
7D
330
1F
100
AcDbEntity
  8
0
  6
Continuous
 62
     7
370
    25
100
AcDbCircle
 10
6.8139946147
 20
7.4076372632
 30
0.0
 40
5.703298385758212
100
AcDbArc
 50
281.3510913865
 51
282.5364709269
  0
ARC
  5
7E
330
1F
100
AcDbEntity
  8
0
  6
Continuous
 62
     7
370
    25
100
AcDbCircle
 10
6.7377196272
 20
7.7875926868
 30
0.0
 40
6.090834123039694
100
AcDbArc
 50
280.9776296061
 51
281.3510913865
  0
SPLINE
  5
7F
330
1F
100
AcDbEntity
  8
0
  6
Continuous
 62
     7
370
    25
100
AcDbSpline
210
0.0
220
0.0
230
1.0
 70
     8
 71
     3
 72
     9
 73
     5
 74
     0
 42
0.00000001
 43
0.00000001
 40
0.0
 40
0.0
 40
0.0
 40
0.0
 40
0.4999559900005091
 40
1.0
 40
1.0
 40
1.0
 40
1.0
 10
7.846521105874324
 20
1.798536151610672
 30
0.0
 10
7.855033855690386
 20
1.800121215618816
 30
0.0
 10
7.872060854038885
 20
1.803291622694334
 30
0.0
 10
7.889067174818253
 20
1.806571136026434
 30
0.0
 10
7.897571083656104
 20
1.808211037023865
 30
0.0
  0
LINE
  5
80
330
1F
100
AcDbEntity
  8
0
  6
Continuous
 62
     7
370
    25
100
AcDbLine
 10
7.6120826922
 20
2.1333491946
 30
0.0
 11
7.846521033
 21
1.7985365456
 31
0.0
  0
LINE
  5
81
330
1F
100
AcDbEntity
  8
0
  6
Continuous
 62
     7
370
    25
100
AcDbLine
 10
7.5096886867
 20
2.0616521401
 30
0.0
 11
7.6120826922
 21
2.1333491946
 31
0.0
  0
LINE
  5
82
330
1F
100
AcDbEntity
  8
0
  6
Continuous
 62
     7
370
    25
100
AcDbLine
 10
7.7104404394
 20
1.7749489246
 30
0.0
 11
7.5096886867
 21
2.0616521401
 31
0.0
  0
SPLINE
  5
83
330
1F
100
AcDbEntity
  8
0
  6
Continuous
 62
     7
370
    25
100
AcDbSpline
210
0.0
220
0.0
230
1.0
 70
     8
 71
     3
 72
    13
 73
     9
 74
     0
 42
0.00000001
 43
0.00000001
 40
0.0
 40
0.0
 40
0.0
 40
0.0
 40
0.1667200472397177
 40
0.3334040100887102
 40
0.5000629345928731
 40
0.6667078717770977
 40
0.8333498754490152
 40
0.9999999999999999
 40
0.9999999999999999
 40
0.9999999999999999
 40
0.9999999999999999
 10
7.416895572446749
 20
1.734827185048043
 30
0.0
 10
7.433255810858064
 20
1.736696322259567
 30
0.0
 10
7.465972746719397
 20
1.740434192132122
 30
0.0
 10
7.514983929993447
 20
1.746547136094744
 30
0.0
 10
7.563940084908865
 20
1.753027285616941
 30
0.0
 10
7.612835582923823
 20
1.759920645339841
 30
0.0
 10
7.661677351411188
 20
1.767181363328455
 30
0.0
 10
7.694186475514478
 20
1.772358117202711
 30
0.0
 10
7.71044143361908
 20
1.774946557207325
 30
0.0
  0
SPLINE
  5
84
330
1F
100
AcDbEntity
  8
0
  6
Continuous
 62
     7
370
    25
100
AcDbSpline
210
0.0
220
0.0
230
1.0
 70
     8
 71
     3
 72
    21
 73
    17
 74
     0
 42
0.00000001
 43
0.00000001
 40
0.0
 40
0.0
 40
0.0
 40
0.0
 40
0.0555032801695806
 40
0.1110091613987381
 40
0.1665211405552484
 40
0.2220427133547034
 40
0.2775773737010319
 40
0.3331286130287374
 40
0.3886999196474485
 40
0.4442947780894156
 40
0.4999166684605525
 40
0.5999129000780439
 40
0.6998991566638343
 40
0.7998956349121676
 40
0.899922525325639
 40
1.0
 40
1.0
 40
1.0
 40
1.0
 10
6.601016574922355
 20
1.701890303685211
 30
0.0
 10
6.61613007211463
 20
1.701457172782026
 30
0.0
 10
6.646357774765548
 20
1.700590890677768
 30
0.0
 10
6.691712611083521
 20
1.699747842089904
 30
0.0
 10
6.73707705441281
 20
1.699238885285344
 30
0.0
 10
6.782452118577122
 20
1.699096788609069
 30
0.0
 10
6.827837530776774
 20
1.699312768824114
 30
0.0
 10
6.873233364982238
 20
1.699889184568261
 30
0.0
 10
6.918639594963996
 20
1.700825386481708
 30
0.0
 10
6.964056248457832
 20
1.702121612138409
 30
0.0
 10
7.021555013052419
 20
1.704217612068728
 30
0.0
 10
7.091107977944997
 20
1.707524434362927
 30
0.0
 10
7.172672800421946
 20
1.712559101689405
 30
0.0
 10
7.254163683315435
 20
1.718775312138338
 30
0.0
 10
7.335592248737263
 20
1.726068249226222
 30
0.0
 10
7.389789897680001
 20
1.731907047778657
 30
0.0
 10
7.416895572446749
 20
1.734827185048043
 30
0.0
  0
LINE
  5
85
330
1F
100
AcDbEntity
  8
0
  6
Continuous
 62
     7
370
    25
100
AcDbLine
 10
5.1338861241
 20
1.7475387432
 30
0.0
 11
6.6010165749
 21
1.7018903037
 31
0.0
  0
LINE
  5
86
330
1F
100
AcDbEntity
  8
0
  6
Continuous
 62
     7
370
    25
100
AcDbLine
 10
5.1338859351
 20
2.1014501205
 30
0.0
 11
5.1338859351
 21
1.7475327069
 31
0.0
  0
LINE
  5
87
330
1F
100
AcDbEntity
  8
0
  6
Continuous
 62
     7
370
    25
100
AcDbLine
 10
5.0088859351
 20
2.1014501205
 30
0.0
 11
5.1338859351
 21
2.1014501205
 31
0.0
  0
LINE
  5
88
330
1F
100
AcDbEntity
  8
0
  6
Continuous
 62
     7
370
    25
100
AcDbLine
 10
5.0088859351
 20
1.7514501205
 30
0.0
 11
5.0088859351
 21
2.1014501205
 31
0.0
  0
LINE
  5
89
330
1F
100
AcDbEntity
  8
0
  6
Continuous
 62
     7
370
    25
100
AcDbLine
 10
4.3553662711
 20
1.7720304761
 30
0.0
 11
5.0088860968
 21
1.7514552778
 31
0.0
  0
SPLINE
  5
8A
330
1F
100
AcDbEntity
  8
0
  6
Continuous
 62
     7
370
    25
100
AcDbSpline
210
0.0
220
0.0
230
1.0
 70
     8
 71
     3
 72
     9
 73
     5
 74
     0
 42
0.00000001
 43
0.00000001
 40
0.0
 40
0.0
 40
0.0
 40
0.0
 40
0.507364319507673
 40
1.0
 40
1.0
 40
1.0
 40
1.0
 10
4.182154455883452
 20
1.777828396485276
 30
0.0
 10
4.211446985369611
 20
1.776808928781177
 30
0.0
 10
4.269181690708338
 20
1.774799588224694
 30
0.0
 10
4.326921554146165
 20
1.772944405376931
 30
0.0
 10
4.355366271062392
 20
1.772030476112286
 30
0.0
  0
ARC
  5
8B
330
1F
100
AcDbEntity
  8
0
  6
Continuous
 62
     7
370
    25
100
AcDbCircle
 10
5.9772307434
 20
52.7689164339
 30
0.0
 40
51.02267495434644
100
AcDbArc
 50
267.6609332271
 51
267.9838076973
  0
SPLINE
  5
8C
330
1F
100
AcDbEntity
  8
0
  6
Continuous
 62
     7
370
    25
100
AcDbSpline
210
0.0
220
0.0
230
1.0
 70
     8
 71
     3
 72
    11
 73
     7
 74
     0
 42
0.00000001
 43
0.00000001
 40
0.0
 40
0.0
 40
0.0
 40
0.0
 40
0.2513770292897968
 40
0.5018349737849923
 40
0.7513754269773822
 40
1.0
 40
1.0
 40
1.0
 40
1.0
 10
3.363281479080614
 20
1.813178755478631
 30
0.0
 10
3.407812832890014
 20
1.810939918158422
 30
0.0
 10
3.496712724955281
 20
1.806470429155909
 30
0.0
 10
3.62983962100047
 20
1.800207919564491
 30
0.0
 10
3.762492077653161
 20
1.794256173198425
 30
0.0
 10
3.850777028087996
 20
1.790585540190816
 30
0.0
 10
3.894838347030748
 20
1.788753597930291
 30
0.0
  0
SPLINE
  5
8D
330
1F
100
AcDbEntity
  8
0
  6
Continuous
 62
     7
370
    25
100
AcDbSpline
210
0.0
220
0.0
230
1.0
 70
     8
 71
     3
 72
     9
 73
     5
 74
     0
 42
0.00000001
 43
0.00000001
 40
0.0
 40
0.0
 40
0.0
 40
0.0
 40
0.5030236019946487
 40
1.0
 40
1.0
 40
1.0
 40
1.0
 10
3.148530071872518
 20
1.824502986256124
 30
0.0
 10
3.184535972819279
 20
1.822557902264428
 30
0.0
 10
3.256114922204529
 20
1.818691117517187
 30
0.0
 10
3.327703597228984
 20
1.815008786889996
 30
0.0
 10
3.363281479080614
 20
1.813178755478631
 30
0.0
  0
SPLINE
  5
8E
330
1F
100
AcDbEntity
  8
0
  6
Continuous
 62
     7
370
    25
100
AcDbSpline
210
0.0
220
0.0
230
1.0
 70
     8
 71
     3
 72
    11
 73
     7
 74
     0
 42
0.00000001
 43
0.00000001
 40
0.0
 40
0.0
 40
0.0
 40
0.0
 40
0.244774150715109
 40
0.493031429219716
 40
0.7447730050895394
 40
1.0
 40
1.0
 40
1.0
 40
1.0
 10
2.529344066380726
 20
1.855622218855934
 30
0.0
 10
2.579873643081929
 20
1.853272612352039
 30
0.0
 10
2.681651830631877
 20
1.848539964524093
 30
0.0
 10
2.835377024176136
 20
1.84095317877854
 30
0.0
 10
2.991245354467819
 20
1.83297420396663
 30
0.0
 10
3.095862085366768
 20
1.827339638077268
 30
0.0
 10
3.148530071872518
 20
1.824502986256124
 30
0.0
  0
SPLINE
  5
8F
330
1F
100
AcDbEntity
  8
0
  6
Continuous
 62
     7
370
    25
100
AcDbSpline
210
0.0
220
0.0
230
1.0
 70
     8
 71
     3
 72
    28
 73
    24
 74
     0
 42
0.00000001
 43
0.00000001
 40
0.0
 40
0.0
 40
0.0
 40
0.0
 40
0.0179018951165729
 40
0.0357962655403299
 40
0.0536865570167916
 40
0.0715762176484239
 40
0.0894686959024145
 40
0.1073674386173721
 40
0.1252758890147445
 40
0.1878695414471711
 40
0.2504679541049648
 40
0.3130189347711665
 40
0.3755708043950487
 40
0.500552479303585
 40
0.6254659433198364
 40
0.6879084804205613
 40
0.750363559382289
 40
0.8127833796932723
 40
0.8752117029635581
 40
0.906422990629643
 40
0.9376125222015473
 40
0.9687987169361754
 40
1.0
 40
1.0
 40
1.0
 40
1.0
 10
1.091070241872006
 20
2.523297758325673
 30
0.0
 10
1.097698548358926
 20
2.51621119361
 30
0.0
 10
1.110952375260683
 20
2.502041042870142
 30
0.0
 10
1.131201498539541
 20
2.481141054230772
 30
0.0
 10
1.151713118548929
 20
2.460508955864457
 30
0.0
 10
1.172514140959999
 20
2.44016969891429
 30
0.0
 10
1.19359731058404
 20
2.420116622201745
 30
0.0
 10
1.214964735238391
 20
2.400351438925728
 30
0.0
 10
1.254616222261783
 20
2.364679699160792
 30
0.0
 10
1.313893258046331
 20
2.314603669799668
 30
0.0
 10
1.394758149163245
 20
2.252767460539027
 30
0.0
 10
1.478508488878825
 20
2.194932144851563
 30
0.0
 10
1.593696584663943
 20
2.123394944186745
 30
0.0
 10
1.743929185027362
 20
2.044614127210006
 30
0.0
 10
1.901045679065674
 20
1.980813370402825
 30
0.0
 10
2.02991394147221
 20
1.939116038768234
 30
0.0
 10
2.127957865598755
 20
1.912581458289457
 30
0.0
 10
2.227161325978333
 20
1.890829653757023
 30
0.0
 10
2.31060472320085
 20
1.876749720088987
 30
0.0
 10
2.377690851948577
 20
1.867914345950415
 30
0.0
 10
2.428134954097375
 20
1.862537082627174
 30
0.0
 10
2.478685576661906
 20
1.858300243104149
 30
0.0
 10
2.512455180763053
 20
1.856515037521876
 30
0.0
 10
2.529344066380726
 20
1.855622218855933
 30
0.0
  0
SPLINE
  5
90
330
1F
100
AcDbEntity
  8
0
  6
Continuous
 62
     7
370
    25
100
AcDbSpline
210
0.0
220
0.0
230
1.0
 70
     8
 71
     3
 72
    22
 73
    18
 74
     0
 42
0.00000001
 43
0.00000001
 40
0.0
 40
0.0
 40
0.0
 40
0.0
 40
0.0356812597000888
 40
0.0713693478576504
 40
0.1070714001204654
 40
0.1427945437683882
 40
0.1785458934671262
 40
0.2143325470596497
 40
0.2501615814074964
 40
0.375119258299302
 40
0.5002013541365354
 40
0.6252115658503233
 40
0.7501426706588951
 40
0.812733108949342
 40
0.8752141412009992
 40
0.9376237379029637
 40
1.0
 40
1.0
 40
1.0
 40
1.0
 10
0.6612096671521903
 20
3.221999467025206
 30
0.0
 10
0.66466151073876
 20
3.212806918136887
 30
0.0
 10
0.6715658585042485
 20
3.19442006114744
 30
0.0
 10
0.6824174901306849
 20
3.167024575709137
 30
0.0
 10
0.6936317474706377
 20
3.139763855060696
 30
0.0
 10
0.7052442304751048
 20
3.112651091165013
 30
0.0
 10
0.7172453582828686
 20
3.085682787220877
 30
0.0
 10
0.7296378216524031
 20
3.058859748165684
 30
0.0
 10
0.7530132428309191
 20
3.010074945001647
 30
0.0
 10
0.7892376271962455
 20
2.940203241123048
 30
0.0
 10
0.8411896366636503
 20
2.850976150652443
 30
0.0
 10
0.8974176823201062
 20
2.764387824945325
 30
0.0
 10
0.9477569883925492
 20
2.694607703791505
 30
0.0
 10
0.9900228941960623
 20
2.64031565709613
 30
0.0
 10
1.02272984971872
 20
2.600409265635427
 30
0.0
 10
1.05630672731561
 20
2.561304896142984
 30
0.0
 10
1.079484467544367
 20
2.535964547837893
 30
0.0
 10
1.091070241872006
 20
2.523297758325673
 30
0.0
  0
ARC
  5
91
330
1F
100
AcDbEntity
  8
0
  6
Continuous
 62
     7
370
    25
100
AcDbCircle
 10
2.7167163641
 20
3.9842873175
 30
0.0
 40
2.192302567652725
100
AcDbArc
 50
195.3316332839
 51
200.3473770946
  0
SPLINE
  5
92
330
1F
100
AcDbEntity
  8
0
  6
Continuous
 62
     7
370
    25
100
AcDbSpline
210
0.0
220
0.0
230
1.0
 70
     8
 71
     3
 72
    15
 73
    11
 74
     0
 42
0.00000001
 43
0.00000001
 40
0.0
 40
0.0
 40
0.0
 40
0.0
 40
0.1250951157636896
 40
0.2501230580385472
 40
0.3751038068965316
 40
0.5000573650482919
 40
0.6250037482633891
 40
0.7499629757591921
 40
0.8749550605815084
 40
0.9999999999999999
 40
0.9999999999999999
 40
0.9999999999999999
 40
0.9999999999999999
 10
0.5546606116571725
 20
3.621351240782283
 30
0.0
 10
0.5562271910140723
 20
3.612226863974132
 30
0.0
 10
0.5593595085071702
 20
3.593983009959384
 30
0.0
 10
0.564494732169905
 20
3.566701132356925
 30
0.0
 10
0.5699476597762271
 20
3.539492210294392
 30
0.0
 10
0.5757503097923252
 20
3.512361685757592
 30
0.0
 10
0.5818920576116777
 20
3.485307542206372
 30
0.0
 10
0.5883833964193759
 20
3.458332419099982
 30
0.0
 10
0.5951929635462921
 20
3.431427784651831
 30
0.0
 10
0.6000202265269544
 20
3.413564092724556
 30
0.0
 10
0.6024343682277968
 20
3.40463035868409
 30
0.0
  0
ARC
  5
93
330
1F
100
AcDbEntity
  8
0
  6
Continuous
 62
     7
370
    25
100
AcDbCircle
 10
2.7106544865
 20
3.9834411895
 30
0.0
 40
2.186188171109217
100
AcDbArc
 50
187.1760554314
 51
189.5336112159
  0
SPLINE
  5
94
330
1F
100
AcDbEntity
  8
0
  6
Continuous
 62
     7
370
    25
100
AcDbSpline
210
0.0
220
0.0
230
1.0
 70
     8
 71
     3
 72
    16
 73
    12
 74
     0
 42
0.00000001
 43
0.00000001
 40
0.0
 40
0.0
 40
0.0
 40
0.0
 40
0.1111266476029006
 40
0.2221981973092808
 40
0.3332365879149132
 40
0.444263777872112
 40
0.5553017322782118
 40
0.6663724098442725
 40
0.7774977498827534
 40
0.8886996593526356
 40
1.0
 40
1.0
 40
1.0
 40
1.0
 10
0.5254432807908879
 20
3.970037101330744
 30
0.0
 10
0.5254711923714248
 20
3.960392506973284
 30
0.0
 10
0.5255270016936081
 20
3.941108100161474
 30
0.0
 10
0.5261256972825107
 20
3.9121918637434
 30
0.0
 10
0.5271015279027709
 20
3.883295245328641
 30
0.0
 10
0.5284912241831503
 20
3.854418181698582
 30
0.0
 10
0.5302855984097232
 20
3.825560776047525
 30
0.0
 10
0.5324846817598928
 20
3.796722699017854
 30
0.0
 10
0.5350975404449475
 20
3.767905185839429
 30
0.0
 10
0.5380878421449966
 20
3.739103640916365
 30
0.0
 10
0.5404227650266021
 20
3.719934446866729
 30
0.0
 10
0.5415907429323127
 20
3.710345609780651
 30
0.0
  0
SPLINE
  5
95
330
1F
100
AcDbEntity
  8
0
  6
Continuous
 62
     7
370
    25
100
AcDbSpline
210
0.0
220
0.0
230
1.0
 70
     8
 71
     3
 72
     9
 73
     5
 74
     0
 42
0.00000001
 43
0.00000001
 40
0.0
 40
0.0
 40
0.0
 40
0.0
 40
0.5122936629456428
 40
1.0
 40
1.0
 40
1.0
 40
1.0
 10
0.5285322914935545
 20
6.152689532257123
 30
0.0
 10
0.5279362628375792
 20
5.779969959451386
 30
0.0
 10
0.5267728116784359
 20
5.052419338070218
 30
0.0
 10
0.5258791333667734
 20
4.324868335711392
 30
0.0
 10
0.5254432807908879
 20
3.970037101330744
 30
0.0
  0
LINE
  5
96
330
1F
100
AcDbEntity
  8
0
  6
Continuous
 62
     7
370
    25
100
AcDbLine
 10
1.2785322717
 20
6.1526895323
 30
0.0
 11
0.5285322717
 21
6.1526895323
 31
0.0
  0
LINE
  5
97
330
1F
100
AcDbEntity
  8
0
  6
Continuous
 62
     7
370
    25
100
AcDbLine
 10
1.2785322717
 20
6.4026895323
 30
0.0
 11
1.2785322717
 21
6.1526895323
 31
0.0
  0
LINE
  5
98
330
1F
100
AcDbEntity
  8
0
  6
Continuous
 62
     7
370
    25
100
AcDbLine
 10
0.5285322717
 20
6.4026895323
 30
0.0
 11
1.2785322717
 21
6.4026895323
 31
0.0
  0
SPLINE
  5
99
330
1F
100
AcDbEntity
  8
0
  6
Continuous
 62
     7
370
    25
100
AcDbSpline
210
0.0
220
0.0
230
1.0
 70
     8
 71
     3
 72
     9
 73
     5
 74
     0
 42
0.00000001
 43
0.00000001
 40
0.0
 40
0.0
 40
0.0
 40
0.0
 40
0.4877063370543525
 40
0.9999999999999999
 40
0.9999999999999999
 40
0.9999999999999999
 40
0.9999999999999999
 10
0.5254432807908879
 20
8.585341963185597
 30
0.0
 10
0.5258791333667738
 20
8.23051072880478
 30
0.0
 10
0.5267728116784381
 20
7.502959726445606
 30
0.0
 10
0.5279362628375824
 20
6.775409105064088
 30
0.0
 10
0.528532291493559
 20
6.402689532258168
 30
0.0
  0
SPLINE
  5
9A
330
1F
100
AcDbEntity
  8
0
  6
Continuous
 62
     7
370
    25
100
AcDbSpline
210
0.0
220
0.0
230
1.0
 70
     8
 71
     3
 72
    16
 73
    12
 74
     0
 42
0.00000001
 43
0.00000001
 40
0.0
 40
0.0
 40
0.0
 40
0.0
 40
0.1113003406473641
 40
0.2225022501172467
 40
0.3336275901557303
 40
0.4446982677217867
 40
0.5557362221278865
 40
0.6667634120850902
 40
0.77780180269072
 40
0.8888733523971003
 40
1.0
 40
1.0
 40
1.0
 40
1.0
 10
0.5415907429323127
 20
8.84503345473569
 30
0.0
 10
0.5404227650266032
 20
8.835444617649612
 30
0.0
 10
0.5380878421449999
 20
8.816275423599976
 30
0.0
 10
0.5350975404449464
 20
8.787473878676913
 30
0.0
 10
0.5324846817598912
 20
8.758656365498487
 30
0.0
 10
0.5302855984097238
 20
8.729818288468815
 30
0.0
 10
0.5284912241831492
 20
8.700960882817759
 30
0.0
 10
0.5271015279027753
 20
8.672083819187698
 30
0.0
 10
0.5261256972825091
 20
8.643187200772939
 30
0.0
 10
0.5255270016936059
 20
8.614270964354867
 30
0.0
 10
0.5254711923714243
 20
8.594986557543056
 30
0.0
 10
0.5254432807908879
 20
8.585341963185597
 30
0.0
  0
ARC
  5
9B
330
1F
100
AcDbEntity
  8
0
  6
Continuous
 62
     7
370
    25
100
AcDbCircle
 10
2.7106544865
 20
8.571937875
 30
0.0
 40
2.186188171109217
100
AcDbArc
 50
170.4663887841
 51
172.8239445687
  0
SPLINE
  5
9C
330
1F
100
AcDbEntity
  8
0
  6
Continuous
 62
     7
370
    25
100
AcDbSpline
210
0.0
220
0.0
230
1.0
 70
     8
 71
     3
 72
    15
 73
    11
 74
     0
 42
0.00000001
 43
0.00000001
 40
0.0
 40
0.0
 40
0.0
 40
0.0
 40
0.1250449394184912
 40
0.2500370242408049
 40
0.37499625173661
 40
0.499942634951707
 40
0.624896193103467
 40
0.749876941961451
 40
0.874904884236306
 40
1.0
 40
1.0
 40
1.0
 40
1.0
 10
0.6024343682277968
 20
9.150748705832251
 30
0.0
 10
0.600020226526955
 20
9.141814971791785
 30
0.0
 10
0.5951929635462927
 20
9.123951279864508
 30
0.0
 10
0.5883833964193764
 20
9.09704664541636
 30
0.0
 10
0.5818920576116777
 20
9.07007152230997
 30
0.0
 10
0.5757503097923252
 20
9.043017378758748
 30
0.0
 10
0.5699476597762265
 20
9.01588685422195
 30
0.0
 10
0.5644947321699061
 20
8.988677932159415
 30
0.0
 10
0.5593595085071696
 20
8.961396054556957
 30
0.0
 10
0.5562271910140717
 20
8.94315220054221
 30
0.0
 10
0.5546606116571725
 20
8.93402782373406
 30
0.0
  0
ARC
  5
9D
330
1F
100
AcDbEntity
  8
0
  6
Continuous
 62
     7
370
    25
100
AcDbCircle
 10
2.7167163641
 20
8.571091747
 30
0.0
 40
2.192302567652725
100
AcDbArc
 50
159.6526229054
 51
164.6683667161
  0
SPLINE
  5
9E
330
1F
100
AcDbEntity
  8
0
  6
Continuous
 62
     7
370
    25
100
AcDbSpline
210
0.0
220
0.0
230
1.0
 70
     8
 71
     3
 72
    22
 73
    18
 74
     0
 42
0.00000001
 43
0.00000001
 40
0.0
 40
0.0
 40
0.0
 40
0.0
 40
0.035636044252519
 40
0.0712797315083174
 40
0.1069381801154967
 40
0.1426184995873447
 40
0.1783277863740539
 40
0.2140731196733534
 40
0.2498615572922386
 40
0.3747668904838889
 40
0.4998028765825561
 40
0.6248591906872585
 40
0.7498426519573078
 40
0.8125045978619615
 40
0.8750594033420827
 40
0.9375451385634579
 40
1.0
 40
1.0
 40
1.0
 40
1.0
 10
1.091070241872006
 20
10.03208130619067
 30
0.0
 10
1.084429304787283
 20
10.02486521860986
 30
0.0
 10
1.07114600630981
 20
10.01043149578543
 30
0.0
 10
1.051608283395437
 20
9.988422667857511
 30
0.0
 10
1.03235335017299
 20
9.966150877430778
 30
0.0
 10
1.013408982656719
 20
9.943590338961222
 30
0.0
 10
0.9947677529374087
 20
9.920748016337628
 30
0.0
 10
0.9764315895539467
 20
9.897621873911751
 30
0.0
 10
0.9434429703926155
 20
9.854795223751376
 30
0.0
 10
0.8974221437021597
 20
9.790996178454273
 30
0.0
 10
0.8411972162031469
 20
9.704415232473611
 30
0.0
 10
0.7892400264238796
 20
9.61518203372035
 30
0.0
 10
0.7496192336213559
 20
9.538751934502656
 30
0.0
 10
0.7201839892737973
 20
9.476501723302293
 30
0.0
 10
0.6992807861402397
 20
9.429261763267963
 30
0.0
 10
0.679486930656639
 20
9.381604131184707
 30
0.0
 10
0.667301084581497
 20
9.349451793692152
 30
0.0
 10
0.6612096671521903
 20
9.333379597491135
 30
0.0
  0
SPLINE
  5
9F
330
1F
100
AcDbEntity
  8
0
  6
Continuous
 62
     7
370
    25
100
AcDbSpline
210
0.0
220
0.0
230
1.0
 70
     8
 71
     3
 72
    28
 73
    24
 74
     0
 42
0.00000001
 43
0.00000001
 40
0.0
 40
0.0
 40
0.0
 40
0.0
 40
0.0178293681695712
 40
0.0356522841029416
 40
0.0534721833647111
 40
0.0712925032642246
 40
0.0891166808674647
 40
0.1069481510096732
 40
0.1247903443143861
 40
0.1872058030398029
 40
0.2496384887425159
 40
0.3120806988216532
 40
0.3745361056503695
 40
0.4994495705176235
 40
0.6244312462776272
 40
0.6869702258722553
 40
0.7495340974162489
 40
0.8121196100954198
 40
0.8747261633536624
 40
0.9060540471837427
 40
0.9373633257234653
 40
0.9686724821858507
 40
1.0
 40
1.0
 40
1.0
 40
1.0
 10
2.529344066380726
 20
10.69975684566041
 30
0.0
 10
2.519692075657769
 20
10.69927563072905
 30
0.0
 10
2.500391587152454
 20
10.6983133750123
 30
0.0
 10
2.471473160635546
 20
10.69636099879141
 30
0.0
 10
2.442587891713293
 20
10.69403638844921
 30
0.0
 10
2.413737445557007
 20
10.69130300539864
 30
0.0
 10
2.384921424007664
 20
10.68817066017914
 30
0.0
 10
2.356139773976048
 20
10.68463664533966
 30
0.0
 10
2.303464016935534
 20
10.67742671515462
 30
0.0
 10
2.227167917416944
 20
10.66454974107902
 30
0.0
 10
2.127971484070786
 20
10.64280118992788
 30
0.0
 10
2.029920625059104
 20
10.61626494559057
 30
0.0
 10
1.901052159970806
 20
10.57456836141069
 30
0.0
 10
1.743929171366101
 20
10.5107649307908
 30
0.0
 10
1.59370281652767
 20
10.43198735155289
 30
0.0
 10
1.478514281042382
 20
10.36045078833742
 30
0.0
 10
1.394769705475635
 20
10.30261970492394
 30
0.0
 10
1.313897781050307
 20
10.24078022579631
 30
0.0
 10
1.249065383899142
 20
10.18600682926182
 30
0.0
 10
1.198825153402428
 20
10.14034509009861
 30
0.0
 10
1.161998894634308
 20
10.10517197865642
 30
0.0
 10
1.125973666991733
 20
10.0691743408329
 30
0.0
 10
1.102706990381032
 20
10.04444806716291
 30
0.0
 10
1.091070241872006
 20
10.03208130619067
 30
0.0
  0
SPLINE
  5
A0
330
1F
100
AcDbEntity
  8
0
  6
Continuous
 62
     7
370
    25
100
AcDbSpline
210
0.0
220
0.0
230
1.0
 70
     8
 71
     3
 72
    11
 73
     7
 74
     0
 42
0.00000001
 43
0.00000001
 40
0.0
 40
0.0
 40
0.0
 40
0.0
 40
0.2552269949104218
 40
0.5069685707802312
 40
0.7552258492848523
 40
1.0
 40
1.0
 40
1.0
 40
1.0
 10
3.148530071872518
 20
10.73087607826022
 30
0.0
 10
3.095862085366776
 20
10.72803942643907
 30
0.0
 10
2.991245354467838
 20
10.72240486054971
 30
0.0
 10
2.835377024176164
 20
10.7144258857378
 30
0.0
 10
2.681651830631896
 20
10.70683909999225
 30
0.0
 10
2.579873643081937
 20
10.7021064521643
 30
0.0
 10
2.529344066380726
 20
10.69975684566041
 30
0.0
  0
SPLINE
  5
A1
330
1F
100
AcDbEntity
  8
0
  6
Continuous
 62
     7
370
    25
100
AcDbSpline
210
0.0
220
0.0
230
1.0
 70
     8
 71
     3
 72
     9
 73
     5
 74
     0
 42
0.00000001
 43
0.00000001
 40
0.0
 40
0.0
 40
0.0
 40
0.0
 40
0.4969763980053562
 40
1.0
 40
1.0
 40
1.0
 40
1.0
 10
3.363281479080614
 20
10.74220030903771
 30
0.0
 10
3.327703597228984
 20
10.74037027762634
 30
0.0
 10
3.256114922204529
 20
10.73668794699916
 30
0.0
 10
3.184535972819279
 20
10.73282116225191
 30
0.0
 10
3.148530071872518
 20
10.73087607826022
 30
0.0
  0
SPLINE
  5
A2
330
1F
100
AcDbEntity
  8
0
  6
Continuous
 62
     7
370
    25
100
AcDbSpline
210
0.0
220
0.0
230
1.0
 70
     8
 71
     3
 72
    11
 73
     7
 74
     0
 42
0.00000001
 43
0.00000001
 40
0.0
 40
0.0
 40
0.0
 40
0.0
 40
0.2486245730225808
 40
0.4981650262149583
 40
0.748622970710164
 40
1.0
 40
1.0
 40
1.0
 40
1.0
 10
3.894838347030748
 20
10.76662546658605
 30
0.0
 10
3.850777028088003
 20
10.76479352432553
 30
0.0
 10
3.762492077653177
 20
10.76112289131792
 30
0.0
 10
3.629839621000492
 20
10.75517114495185
 30
0.0
 10
3.496712724955296
 20
10.74890863536043
 30
0.0
 10
3.40781283289002
 20
10.74443914635792
 30
0.0
 10
3.363281479080614
 20
10.74220030903771
 30
0.0
  0
ARC
  5
A3
330
1F
100
AcDbEntity
  8
0
  6
Continuous
 62
     7
370
    25
100
AcDbCircle
 10
5.9772307434
 20
-40.2135373694
 30
0.0
 40
51.02267495434644
100
AcDbArc
 50
92.0161923027
 51
92.3390667729
  0
SPLINE
  5
A4
330
1F
100
AcDbEntity
  8
0
  6
Continuous
 62
     7
370
    25
100
AcDbSpline
210
0.0
220
0.0
230
1.0
 70
     8
 71
     3
 72
     9
 73
     5
 74
     0
 42
0.00000001
 43
0.00000001
 40
0.0
 40
0.0
 40
0.0
 40
0.0
 40
0.4926356804923285
 40
0.9999999999999999
 40
0.9999999999999999
 40
0.9999999999999999
 40
0.9999999999999999
 10
4.355366271062393
 20
10.78334858840406
 30
0.0
 10
4.326921554146165
 20
10.78243465913941
 30
0.0
 10
4.269181690708338
 20
10.78057947629165
 30
0.0
 10
4.211446985369611
 20
10.77857013573516
 30
0.0
 10
4.182154455883452
 20
10.77755066803106
 30
0.0
  0
LINE
  5
A5
330
1F
100
AcDbEntity
  8
0
  6
Continuous
 62
     7
370
    25
100
AcDbLine
 10
5.0088859351
 20
10.8039237816
 30
0.0
 11
4.3553662711
 21
10.7833485884
 31
0.0
  0
LINE
  5
A6
330
1F
100
AcDbEntity
  8
0
  6
Continuous
 62
     7
370
    25
100
AcDbLine
 10
5.0088859351
 20
10.803928944
 30
0.0
 11
5.0088859351
 21
10.453928944
 31
0.0
  0
LINE
  5
A7
330
1F
100
AcDbEntity
  8
0
  6
Continuous
 62
     7
370
    25
100
AcDbLine
 10
5.0088859351
 20
10.453928944
 30
0.0
 11
5.1338859351
 21
10.453928944
 31
0.0
  0
LINE
  5
A8
330
1F
100
AcDbEntity
  8
0
  6
Continuous
 62
     7
370
    25
100
AcDbLine
 10
5.1338859351
 20
10.453928944
 30
0.0
 11
5.1338859351
 21
10.8078463577
 31
0.0
  0
LINE
  5
A9
330
1F
100
AcDbEntity
  8
0
  6
Continuous
 62
     7
370
    25
100
AcDbLine
 10
6.6010165749
 20
10.8534887608
 30
0.0
 11
5.1338859351
 21
10.8078403154
 31
0.0
  0
SPLINE
  5
AA
330
1F
100
AcDbEntity
  8
0
  6
Continuous
 62
     7
370
    25
100
AcDbSpline
210
0.0
220
0.0
230
1.0
 70
     8
 71
     3
 72
    21
 73
    17
 74
     0
 42
0.00000001
 43
0.00000001
 40
0.0
 40
0.0
 40
0.0
 40
0.0
 40
0.0556011293607644
 40
0.1111851905257853
 40
0.1667556392158806
 40
0.2223159336918619
 40
0.2778695341108676
 40
0.3334199018809269
 40
0.3889704990143574
 40
0.4445247874805967
 40
0.500086228559074
 40
0.6001769844819662
 40
0.7001933916742994
 40
0.8001557828027145
 40
0.9000845235060723
 40
1.0
 40
1.0
 40
1.0
 40
1.0
 10
7.416895572446749
 20
10.8205518794683
 30
0.0
 10
7.40183932788432
 20
10.82220160703534
 30
0.0
 10
7.371731460660717
 20
10.82550055574313
 30
0.0
 10
7.326527991307577
 20
10.82999688032567
 30
0.0
 10
7.281304238259868
 20
10.83416106208345
 30
0.0
 10
7.23605658171204
 20
10.83796074148285
 30
0.0
 10
7.190785992436218
 20
10.84140458741479
 30
0.0
 10
7.145492209132623
 20
10.84449027306708
 30
0.0
 10
7.100175309607288
 20
10.84721843846741
 30
0.0
 10
7.054835247059352
 20
10.84958884972491
 30
0.0
 10
6.997356627569699
 20
10.85213941840772
 30
0.0
 10
6.927746140389123
 20
10.85445629511145
 30
0.0
 10
6.846016287702997
 20
10.8560171813412
 30
0.0
 10
6.764317302197191
 20
10.85638914159875
 30
0.0
 10
6.682646000631174
 20
10.85567839850495
 30
0.0
 10
6.628225179472185
 20
10.85421860775896
 30
0.0
 10
6.601016574922355
 20
10.85348876083113
 30
0.0
  0
SPLINE
  5
AB
330
1F
100
AcDbEntity
  8
0
  6
Continuous
 62
     7
370
    25
100
AcDbSpline
210
0.0
220
0.0
230
1.0
 70
     8
 71
     3
 72
    13
 73
     9
 74
     0
 42
0.00000001
 43
0.00000001
 40
0.0
 40
0.0
 40
0.0
 40
0.0
 40
0.1666501245509888
 40
0.3332921282229051
 40
0.4999370654071278
 40
0.6665959899112902
 40
0.8332799527602821
 40
1.0
 40
1.0
 40
1.0
 40
1.0
 10
7.710441433618734
 20
10.78043250730907
 30
0.0
 10
7.694186475514153
 20
10.78302094731368
 30
0.0
 10
7.661677351410901
 20
10.78819770118793
 30
0.0
 10
7.612835582923588
 20
10.79545841917653
 30
0.0
 10
7.563940084908694
 20
10.80235177889942
 30
0.0
 10
7.514983929993329
 20
10.80883192842161
 30
0.0
 10
7.46597274671934
 20
10.81494487238422
 30
0.0
 10
7.433255810858045
 20
10.81868274225677
 30
0.0
 10
7.416895572446749
 20
10.8205518794683
 30
0.0
  0
LINE
  5
AC
330
1F
100
AcDbEntity
  8
0
  6
Continuous
 62
     7
370
    25
100
AcDbLine
 10
7.7104404394
 20
10.78043014
 30
0.0
 11
7.5096886867
 21
10.4937269245
 31
0.0
  0
LINE
  5
AD
330
1F
100
AcDbEntity
  8
0
  6
Continuous
 62
     7
370
    25
100
AcDbLine
 10
7.5096886867
 20
10.4937269245
 30
0.0
 11
7.6120826922
 21
10.4220298699
 31
0.0
  0
LINE
  5
AE
330
1F
100
AcDbEntity
  8
0
  6
Continuous
 62
     7
370
    25
100
AcDbLine
 10
7.6120826922
 20
10.4220298699
 30
0.0
 11
7.846521033
 21
10.756842519
 31
0.0
  0
SPLINE
  5
AF
330
1F
100
AcDbEntity
  8
0
  6
Continuous
 62
     7
370
    25
100
AcDbSpline
210
0.0
220
0.0
230
1.0
 70
     8
 71
     3
 72
     9
 73
     5
 74
     0
 42
0.00000001
 43
0.00000001
 40
0.0
 40
0.0
 40
0.0
 40
0.0
 40
0.5000440098607607
 40
1.0
 40
1.0
 40
1.0
 40
1.0
 10
7.897571083656104
 20
10.74716802749247
 30
0.0
 10
7.889067204729249
 20
10.74880792275496
 30
0.0
 10
7.872060943761895
 20
10.7520874246191
 30
0.0
 10
7.855034005369221
 20
10.75525782099446
 30
0.0
 10
7.846521285526072
 20
10.75684287965344
 30
0.0
  0
ARC
  5
B0
330
1F
100
AcDbEntity
  8
0
  6
Continuous
 62
     7
370
    25
100
AcDbCircle
 10
6.7377196272
 20
4.7677863777
 30
0.0
 40
6.090834123039696
100
AcDbArc
 50
78.6489086135
 51
79.022370394
  0
ARC
  5
B1
330
1F
100
AcDbEntity
  8
0
  6
Continuous
 62
     7
370
    25
100
AcDbCircle
 10
6.8139946147
 20
5.1477418014
 30
0.0
 40
5.703298385758212
100
AcDbArc
 50
77.4635290731
 51
78.6489086135
  0
SPLINE
  5
B2
330
1F
100
AcDbEntity
  8
0
  6
Continuous
 62
     7
370
    25
100
AcDbSpline
210
0.0
220
0.0
230
1.0
 70
     8
 71
     3
 72
    20
 73
    16
 74
     0
 42
0.00000001
 43
0.00000001
 40
0.0
 40
0.0
 40
0.0
 40
0.0
 40
0.0769740338006739
 40
0.1539196202900036
 40
0.2308421945952583
 40
0.3077471967227469
 40
0.3846400704083586
 40
0.4615262619641529
 40
0.5384112191222254
 40
0.6153003898770409
 40
0.692199221327519
 40
0.7691131585200446
 40
0.8460476432936691
 40
0.9230081131287163
 40
1.0
 40
1.0
 40
1.0
 40
1.0
 10
8.653909213657943
 20
10.5462064761188
 30
0.0
 10
8.638704053982357
 20
10.55134220597456
 30
0.0
 10
8.608299354005537
 20
10.56161176767321
 30
0.0
 10
8.56253765814999
 20
10.57652726781911
 30
0.0
 10
8.516675061143827
 20
10.59108066244812
 30
0.0
 10
8.470699715248053
 20
10.60523715121699
 30
0.0
 10
8.424614793860522
 20
10.61900605135506
 30
0.0
 10
8.37841945053592
 20
10.63238487908829
 30
0.0
 10
8.332113902693338
 20
10.64537425359812
 30
0.0
 10
8.28569813108876
 20
10.65797418017037
 30
0.0
 10
8.239171999469967
 20
10.6701840172964
 30
0.0
 10
8.192536076459524
 20
10.68200632536316
 30
0.0
 10
8.145788227331971
 20
10.69343150013013
 30
0.0
 10
8.098936430201878
 20
10.70449541344513
 30
0.0
 10
8.067619866861373
 20
10.71153960731717
 30
0.0
 10
8.051958389807735
 20
10.71506242300702
 30
0.0
  0
SPLINE
  5
B3
330
1F
100
AcDbEntity
  8
0
  6
Continuous
 62
     7
370
    25
100
AcDbSpline
210
0.0
220
0.0
230
1.0
 70
     8
 71
     3
 72
    21
 73
    17
 74
     0
 42
0.00000001
 43
0.00000001
 40
0.0
 40
0.0
 40
0.0
 40
0.0
 40
0.0714947385703922
 40
0.1429585209379312
 40
0.2143965320419673
 40
0.2858139624348704
 40
0.3572160071573363
 40
0.4286078646088126
 40
0.4999947354142629
 40
0.5713818212884977
 40
0.6427743238993142
 40
0.7141774437307001
 40
0.7855963789473063
 40
0.8570363242614756
 40
0.9285024698040225
 40
1.0
 40
1.0
 40
1.0
 40
1.0
 10
9.285514493753613
 20
10.28817779096272
 30
0.0
 10
9.270829941561093
 20
10.29518210537559
 30
0.0
 10
9.241467195377869
 20
10.30918770143303
 30
0.0
 10
9.197206865502546
 20
10.32971580147584
 30
0.0
 10
9.152801941137607
 20
10.34988566245851
 30
0.0
 10
9.108236084094543
 20
10.36966324513795
 30
0.0
 10
9.063513671120653
 20
10.38905766609057
 30
0.0
 10
9.018633529688794
 20
10.40806647976684
 30
0.0
 10
8.973595978948191
 20
10.42669035309765
 30
0.0
 10
8.928400918723339
 20
10.44492906126485
 30
0.0
 10
8.88304843490848
 20
10.46278283490844
 30
0.0
 10
8.837538288395512
 20
10.48025097446659
 30
0.0
 10
8.791871354364496
 20
10.497336046738
 30
0.0
 10
8.746044374394442
 20
10.51402847903208
 30
0.0
 10
8.700069517376763
 20
10.53036401142735
 30
0.0
 10
8.669298233292569
 20
10.54092488174969
 30
0.0
 10
8.653909213657943
 20
10.5462064761188
 30
0.0
  0
ARC
  5
B4
330
1F
100
AcDbEntity
  8
0
  6
Continuous
 62
     7
370
    25
100
AcDbCircle
 10
9.2638788339
 20
10.243100693
 30
0.0
 40
0.0500000000000008
100
AcDbArc
 50
356.2164712887
 51
64.3603858991
  0
LINE
  5
B5
330
1F
100
AcDbEntity
  8
0
  6
Continuous
 62
     7
370
    25
100
AcDbLine
 10
9.2852697639
 20
9.8088383441
 30
0.0
 11
9.3137698579
 21
10.2398013404
 31
0.0
  0
ARC
  5
B6
330
1F
100
AcDbEntity
  8
0
  6
Continuous
 62
     7
370
    25
100
AcDbCircle
 10
9.2353787399
 20
9.8121376966
 30
0.0
 40
0.0499999999999993
100
AcDbArc
 50
244.0210686604
 51
356.2164712887
  0
LINE
  5
B7
330
1F
100
AcDbEntity
  8
0
  6
Continuous
 62
     7
370
    25
100
AcDbLine
 10
9.0969738983
 20
9.8239591335
 30
0.0
 11
9.2134767092
 21
9.7671899375
 31
0.0
  0
SPLINE
  5
B8
330
1F
100
AcDbEntity
  8
0
  6
Continuous
 62
     7
370
    25
100
AcDbSpline
210
0.0
220
0.0
230
1.0
 70
     8
 71
     3
 72
    11
 73
     7
 74
     0
 42
0.00000001
 43
0.00000001
 40
0.0037955652017913
 40
0.0037955652017913
 40
0.0037955652017913
 40
0.0037955652017913
 40
0.2528466739013435
 40
0.5018977826008956
 40
0.7509488913004477
 40
1.0
 40
1.0
 40
1.0
 40
1.0
 10
8.492761085532695
 20
10.07288704824611
 30
0.0
 10
8.544331621909635
 20
10.05532914777938
 30
0.0
 10
8.646921209981937
 20
10.01859634892586
 30
0.0
 10
8.799047395898892
 20
9.958689867628337
 30
0.0
 10
8.949239562381551
 20
9.894046243205594
 30
0.0
 10
9.047981555328636
 20
9.84783199887443
 30
0.0
 10
9.096973898283533
 20
9.823959133513654
 30
0.0
  0
SPLINE
  5
B9
330
1F
100
AcDbEntity
  8
0
  6
Continuous
 62
     7
370
    25
100
AcDbSpline
210
0.0
220
0.0
230
1.0
 70
     8
 71
     3
 72
     9
 73
     5
 74
     0
 42
0.00000001
 43
0.00000001
 40
0.5503651100652425
 40
0.5503651100652425
 40
0.5503651100652425
 40
0.5503651100652425
 40
0.7499813577382528
 40
0.9999751436510038
 40
0.9999751436510038
 40
0.9999751436510038
 40
0.9999751436510038
 10
8.247849765956692
 20
10.14960378435192
 30
0.0
 10
8.28436549171838
 20
10.13914369048168
 30
0.0
 10
8.366357118247185
 20
10.11468612253831
 30
0.0
 10
8.447728888509856
 20
10.08821888088587
 30
0.0
 10
8.492761085578591
 20
10.07288704823049
 30
0.0
  0
ARC
  5
BA
330
1F
100
AcDbEntity
  8
0
  6
Continuous
 62
     7
370
    25
100
AcDbCircle
 10
8.1927739759
 20
9.9573366334
 30
0.0
 40
0.1999999999999956
100
AcDbArc
 50
74.0154015955
 51
91.9573317393
  0
LINE
  5
BB
330
1F
100
AcDbEntity
  8
0
  6
Continuous
 62
     7
370
    25
100
AcDbLine
 10
6.7518466629
 20
10.1082094448
 30
0.0
 11
8.185942928
 21
10.1572199413
 31
0.0
  0
LINE
  5
BC
330
1F
100
AcDbEntity
  8
0
  6
Continuous
 62
     7
370
    25
100
AcDbLine
 10
6.7518466629
 20
10.1082094448
 30
0.0
 11
6.7518466609
 21
10.1169257524
 31
0.0
  0
LINE
  5
BD
330
1F
100
AcDbEntity
  8
0
  6
Continuous
 62
     7
370
    25
100
AcDbLine
 10
6.7460910789
 20
10.366863648
 30
0.0
 11
6.7518466609
 21
10.1169257524
 31
0.0
  0
LINE
  5
BE
330
1F
100
AcDbEntity
  8
0
  6
Continuous
 62
     7
370
    25
100
AcDbLine
 10
5.996289859
 20
10.3495971893
 30
0.0
 11
6.7460910789
 21
10.366863648
 31
0.0
  0
LINE
  5
BF
330
1F
100
AcDbEntity
  8
0
  6
Continuous
 62
     7
370
    25
100
AcDbLine
 10
6.0020454409
 20
10.0996592937
 30
0.0
 11
5.996289859
 21
10.3495971893
 31
0.0
  0
LINE
  5
C0
330
1F
100
AcDbEntity
  8
0
  6
Continuous
 62
     7
370
    25
100
AcDbLine
 10
6.0020454409
 20
10.0996592937
 30
0.0
 11
6.0020454449
 21
10.082584854
 31
0.0
  0
LINE
  5
C1
330
1F
100
AcDbEntity
  8
0
  6
Continuous
 62
     7
370
    25
100
AcDbLine
 10
4.183073485
 20
10.0204211617
 30
0.0
 11
6.0020454449
 21
10.082584854
 31
0.0
  0
LINE
  5
C2
330
1F
100
AcDbEntity
  8
0
  6
Continuous
 62
     7
370
    25
100
AcDbLine
 10
4.183073485
 20
10.0204211617
 30
0.0
 11
4.1830734807
 21
10.0387329942
 31
0.0
  0
LINE
  5
C3
330
1F
100
AcDbEntity
  8
0
  6
Continuous
 62
     7
370
    25
100
AcDbLine
 10
4.1773179124
 20
10.2886702986
 30
0.0
 11
4.1830734807
 21
10.0387329942
 31
0.0
  0
LINE
  5
C4
330
1F
100
AcDbEntity
  8
0
  6
Continuous
 62
     7
370
    25
100
AcDbLine
 10
3.4275166925
 20
10.2714038398
 30
0.0
 11
4.1773179124
 21
10.2886702986
 31
0.0
  0
LINE
  5
C5
330
1F
100
AcDbEntity
  8
0
  6
Continuous
 62
     7
370
    25
100
AcDbLine
 10
3.4332722608
 20
10.0214665355
 30
0.0
 11
3.4275166925
 21
10.2714038398
 31
0.0
  0
LINE
  5
C6
330
1F
100
AcDbEntity
  8
0
  6
Continuous
 62
     7
370
    25
100
AcDbLine
 10
3.4332722608
 20
10.0214665355
 30
0.0
 11
3.433272293
 21
9.8840943942
 31
0.0
  0
LINE
  5
C7
330
1F
100
AcDbEntity
  8
0
  6
Continuous
 62
     7
370
    25
100
AcDbLine
 10
3.433272293
 20
9.8840943942
 30
0.0
 11
3.4338859351
 21
9.8840943939
 31
0.0
  0
LINE
  5
C8
330
1F
100
AcDbEntity
  8
0
  6
Continuous
 62
     7
370
    25
100
AcDbLine
 10
3.4338859351
 20
2.6712846707
 30
0.0
 11
3.4338859351
 21
9.8840943939
 31
0.0
  0
LINE
  5
C9
330
1F
100
AcDbEntity
  8
0
  6
Continuous
 62
     7
370
    25
100
AcDbLine
 10
3.433272293
 20
2.6712846703
 30
0.0
 11
3.4338859351
 21
2.6712846707
 31
0.0
  0
LINE
  5
CA
330
1F
100
AcDbEntity
  8
0
  6
Continuous
 62
     7
370
    25
100
AcDbLine
 10
3.4332722608
 20
2.533912529
 30
0.0
 11
3.433272293
 21
2.6712846703
 31
0.0
  0
ARC
  5
CB
330
1F
100
AcDbEntity
  8
0
  6
Continuous
 62
     7
370
    25
100
AcDbCircle
 10
1.4775403751
 20
5.5776895323
 30
0.0
 40
0.2000000000000002
100
AcDbArc
 50
90.0
 51
180.0
  0
LINE
  5
CC
330
1F
100
AcDbEntity
  8
0
  6
Continuous
 62
     7
370
    25
100
AcDbLine
 10
1.2775403751
 20
5.5276895323
 30
0.0
 11
1.2775403751
 21
5.5776895323
 31
0.0
  0
SPLINE
  5
CD
330
1F
100
AcDbEntity
  8
0
  6
Continuous
 62
     7
370
    25
100
AcDbSpline
210
0.0
220
0.0
230
1.0
 70
     8
 71
     3
 72
    11
 73
     7
 74
     0
 42
0.00000001
 43
0.00000001
 40
0.3249220781181522
 40
0.3249220781181522
 40
0.3249220781181522
 40
0.3249220781181522
 40
0.4937823121626125
 40
0.6626425462070727
 40
0.8315027802515331
 40
1.000363014295993
 40
1.000363014295993
 40
1.000363014295993
 40
1.000363014295993
 10
1.277540375118275
 20
5.527689532258188
 30
0.0
 10
1.277342448045049
 20
5.397824454977197
 30
0.0
 10
1.276957382570206
 20
5.13809946902956
 30
0.0
 10
1.276413842445021
 20
4.748480829943769
 30
0.0
 10
1.275906176215517
 20
4.358834024143797
 30
0.0
 10
1.275592855349788
 20
4.099057357666071
 30
0.0
 10
1.275442780159108
 20
3.969170529106866
 30
0.0
  0
SPLINE
  5
CE
330
1F
100
AcDbEntity
  8
0
  6
Continuous
 62
     7
370
    25
100
AcDbSpline
210
0.0
220
0.0
230
1.0
 70
     8
 71
     3
 72
    11
 73
     7
 74
     0
 42
0.00000001
 43
0.00000001
 40
0.0000034429594947
 40
0.0000034429594947
 40
0.0000034429594947
 40
0.0000034429594947
 40
0.250002582219621
 40
0.5000017214797473
 40
0.7500008607398736
 40
0.9999949608692886
 40
0.9999949608692886
 40
0.9999949608692886
 40
0.9999949608692886
 10
1.275442780158571
 20
3.96917052864146
 30
0.0
 10
1.275426861447021
 20
3.955393235818027
 30
0.0
 10
1.275831724800402
 20
3.927850364424511
 30
0.0
 10
1.277748903471955
 20
3.886492373701683
 30
0.0
 10
1.280972944227653
 20
3.845196889526808
 30
0.0
 10
1.283991073498356
 20
3.817735108570672
 30
0.0
 10
1.285716051082944
 20
3.804034060364662
 30
0.0
  0
ARC
  5
CF
330
1F
100
AcDbEntity
  8
0
  6
Continuous
 62
     7
370
    25
100
AcDbCircle
 10
2.7106544865
 20
3.9834411895
 30
0.0
 40
1.436188171109317
100
AcDbArc
 50
187.1760757064
 51
189.5336239742
  0
SPLINE
  5
D0
330
1F
100
AcDbEntity
  8
0
  6
Continuous
 62
     7
370
    25
100
AcDbSpline
210
0.0
220
0.0
230
1.0
 70
     8
 71
     3
 72
    11
 73
     7
 74
     0
 42
0.00000001
 43
0.00000001
 40
0.0000208023232799
 40
0.0000208023232799
 40
0.0000208023232799
 40
0.0000208023232799
 40
0.2500116360364731
 40
0.5000024697496663
 40
0.7499933034628595
 40
0.9999841371760527
 40
0.9999841371760527
 40
0.9999841371760527
 40
0.9999841371760527
 10
1.294302162856156
 20
3.745570304294941
 30
0.0
 10
1.296319903673296
 20
3.733556005477149
 30
0.0
 10
1.300659686775734
 20
3.709577707911053
 30
0.0
 10
1.308076774247884
 20
3.673785289842181
 30
0.0
 10
1.316394653311087
 20
3.638200137058411
 30
0.0
 10
1.322528685157337
 20
3.614659859372109
 30
0.0
 10
1.325745259900727
 20
3.602926485804247
 30
0.0
  0
ARC
  5
D1
330
1F
100
AcDbEntity
  8
0
  6
Continuous
 62
     7
370
    25
100
AcDbCircle
 10
2.7167163641
 20
3.9842873175
 30
0.0
 40
1.442302567673363
100
AcDbArc
 50
195.3319641668
 51
200.3473770946
  0
SPLINE
  5
D2
330
1F
100
AcDbEntity
  8
0
  6
Continuous
 62
     7
370
    25
100
AcDbSpline
210
0.0
220
0.0
230
1.0
 70
     8
 71
     3
 72
    11
 73
     7
 74
     0
 42
0.00000001
 43
0.00000001
 40
0.0
 40
0.0
 40
0.0
 40
0.0
 40
0.2499815935750019
 40
0.4999631871500039
 40
0.7499447807250058
 40
0.9999263743000077
 40
0.9999263743000077
 40
0.9999263743000077
 40
0.9999263743000077
 10
1.364410970407566
 20
3.482782762310662
 30
0.0
 10
1.379759481159381
 20
3.44139555324157
 30
0.0
 10
1.41452190685142
 20
3.360265346299472
 30
0.0
 10
1.47882079910402
 20
3.243297966463492
 30
0.0
 10
1.554241040764755
 20
3.133203425761454
 30
0.0
 10
1.610880958835534
 20
3.065736128448023
 30
0.0
 10
1.640859256880967
 20
3.033427191877077
 30
0.0
  0
SPLINE
  5
D3
330
1F
100
AcDbEntity
  8
0
  6
Continuous
 62
     7
370
    25
100
AcDbSpline
210
0.0
220
0.0
230
1.0
 70
     8
 71
     3
 72
    11
 73
     7
 74
     0
 42
0.00000001
 43
0.00000001
 40
0.0
 40
0.0
 40
0.0
 40
0.0
 40
0.2499999884579125
 40
0.4999999769158249
 40
0.7499999653737374
 40
0.9999999538316499
 40
0.9999999538316499
 40
0.9999999538316499
 40
0.9999999538316499
 10
1.640859252578892
 20
3.033427196513613
 30
0.0
 10
1.700092898597929
 20
2.969588481851216
 30
0.0
 10
1.831480920611406
 20
2.853029429268931
 30
0.0
 10
2.057424724873682
 20
2.720266652523902
 30
0.0
 10
2.304507130975329
 20
2.633637116939825
 30
0.0
 10
2.477165113088963
 20
2.608802124872962
 30
0.0
 10
2.563691824294151
 20
2.60483529370602
 30
0.0
  0
SPLINE
  5
D4
330
1F
100
AcDbEntity
  8
0
  6
Continuous
 62
     7
370
    25
100
AcDbSpline
210
0.0
220
0.0
230
1.0
 70
     8
 71
     3
 72
     9
 73
     5
 74
     0
 42
0.00000001
 43
0.00000001
 40
0.0
 40
0.0
 40
0.0
 40
0.0
 40
0.1280482512471772
 40
0.1771788976588882
 40
0.1771788976588882
 40
0.1771788976588882
 40
0.1771788976588882
 10
2.56369180557354
 20
2.604835294564268
 30
0.0
 10
2.590363074680078
 20
2.603612547891905
 30
0.0
 10
2.627266411225297
 20
2.601898784053846
 30
0.0
 10
2.664169436994648
 20
2.600155250334523
 30
0.0
 10
2.674402922464584
 20
2.599669482619487
 30
0.0
  0
ARC
  5
D5
330
1F
100
AcDbEntity
  8
0
  6
Continuous
 62
     7
370
    25
100
AcDbCircle
 10
2.6838859351
 20
2.7994445373
 30
0.0
 40
0.2000000000000008
100
AcDbArc
 50
267.2822980328
 51
0.0
  0
LINE
  5
D6
330
1F
100
AcDbEntity
  8
0
  6
Continuous
 62
     7
370
    25
100
AcDbLine
 10
2.8838859351
 20
2.7994445373
 30
0.0
 11
2.8838859351
 21
5.2789403145
 31
0.0
  0
ARC
  5
D7
330
1F
100
AcDbEntity
  8
0
  6
Continuous
 62
     7
370
    25
100
AcDbCircle
 10
2.6838859351
 20
5.2789403145
 30
0.0
 40
0.2000000000000002
100
AcDbArc
 50
0.0
 51
92.8659839826
  0
ARC
  5
D8
330
1F
100
AcDbEntity
  8
0
  6
Continuous
 62
     7
370
    25
100
AcDbCircle
 10
2.6338859351
 20
6.2776895323
 30
0.0
 40
0.8000000000000003
100
AcDbArc
 50
224.4270040008
 51
272.8659839826
  0
ARC
  5
D9
330
1F
100
AcDbEntity
  8
0
  6
Continuous
 62
     7
370
    25
100
AcDbCircle
 10
1.9197430922
 20
5.5776895323
 30
0.0
 40
0.1999999999999997
100
AcDbArc
 50
44.4270040008
 51
90.0
  0
LINE
  5
DA
330
1F
100
AcDbEntity
  8
0
  6
Continuous
 62
     7
370
    25
100
AcDbLine
 10
1.4775403751
 20
5.7776895323
 30
0.0
 11
1.9197430922
 21
5.7776895323
 31
0.0
  0
SPLINE
  5
DB
330
1F
100
AcDbEntity
  8
0
  6
Continuous
 62
     7
370
    25
100
AcDbSpline
210
0.0
220
0.0
230
1.0
 70
     8
 71
     3
 72
    11
 73
     7
 74
     0
 42
0.00000001
 43
0.00000001
 40
0.0
 40
0.0
 40
0.0
 40
0.0
 40
0.2499999884579125
 40
0.4999999769158249
 40
0.7499999653737374
 40
0.9999999538316499
 40
0.9999999538316499
 40
0.9999999538316499
 40
0.9999999538316499
 10
1.640859252578892
 20
9.521951868002727
 30
0.0
 10
1.700092898597929
 20
9.585790582665124
 30
0.0
 10
1.831480920611406
 20
9.70234963524741
 30
0.0
 10
2.057424724873682
 20
9.835112411992437
 30
0.0
 10
2.304507130975329
 20
9.921741947576516
 30
0.0
 10
2.477165113088963
 20
9.946576939643377
 30
0.0
 10
2.563691824294151
 20
9.95054377081032
 30
0.0
  0
SPLINE
  5
DC
330
1F
100
AcDbEntity
  8
0
  6
Continuous
 62
     7
370
    25
100
AcDbSpline
210
0.0
220
0.0
230
1.0
 70
     8
 71
     3
 72
    11
 73
     7
 74
     0
 42
0.00000001
 43
0.00000001
 40
0.0
 40
0.0
 40
0.0
 40
0.0
 40
0.2499815935750019
 40
0.4999631871500039
 40
0.7499447807250058
 40
0.9999263743000077
 40
0.9999263743000077
 40
0.9999263743000077
 40
0.9999263743000077
 10
1.364410970407566
 20
9.072596302205678
 30
0.0
 10
1.379759481159381
 20
9.113983511274771
 30
0.0
 10
1.41452190685142
 20
9.195113718216868
 30
0.0
 10
1.47882079910402
 20
9.312081098052849
 30
0.0
 10
1.554241040764755
 20
9.422175638754888
 30
0.0
 10
1.610880958835534
 20
9.489642936068318
 30
0.0
 10
1.640859256880967
 20
9.521951872639264
 30
0.0
  0
ARC
  5
DD
330
1F
100
AcDbEntity
  8
0
  6
Continuous
 62
     7
370
    25
100
AcDbCircle
 10
2.7167163641
 20
8.571091747
 30
0.0
 40
1.442302567673362
100
AcDbArc
 50
159.6526229054
 51
164.6680358332
  0
SPLINE
  5
DE
330
1F
100
AcDbEntity
  8
0
  6
Continuous
 62
     7
370
    25
100
AcDbSpline
210
0.0
220
0.0
230
1.0
 70
     8
 71
     3
 72
    11
 73
     7
 74
     0
 42
0.00000001
 43
0.00000001
 40
0.0000208023232799
 40
0.0000208023232799
 40
0.0000208023232799
 40
0.0000208023232799
 40
0.2500116360364731
 40
0.5000024697496663
 40
0.7499933034628595
 40
0.9999841371760527
 40
0.9999841371760527
 40
0.9999841371760527
 40
0.9999841371760527
 10
1.294302162856156
 20
8.809808760221399
 30
0.0
 10
1.296319903673296
 20
8.821823059039192
 30
0.0
 10
1.300659686775734
 20
8.845801356605289
 30
0.0
 10
1.308076774247884
 20
8.88159377467416
 30
0.0
 10
1.316394653311087
 20
8.91717892745793
 30
0.0
 10
1.322528685157337
 20
8.940719205144232
 30
0.0
 10
1.325745259900727
 20
8.952452578712094
 30
0.0
  0
ARC
  5
DF
330
1F
100
AcDbEntity
  8
0
  6
Continuous
 62
     7
370
    25
100
AcDbCircle
 10
2.7106544865
 20
8.571937875
 30
0.0
 40
1.436188171109317
100
AcDbArc
 50
170.4663760258
 51
172.8239242936
  0
SPLINE
  5
E0
330
1F
100
AcDbEntity
  8
0
  6
Continuous
 62
     7
370
    25
100
AcDbSpline
210
0.0
220
0.0
230
1.0
 70
     8
 71
     3
 72
    11
 73
     7
 74
     0
 42
0.00000001
 43
0.00000001
 40
0.0000034429594947
 40
0.0000034429594947
 40
0.0000034429594947
 40
0.0000034429594947
 40
0.250002582219621
 40
0.5000017214797473
 40
0.7500008607398736
 40
0.9999949608692886
 40
0.9999949608692886
 40
0.9999949608692886
 40
0.9999949608692886
 10
1.275442780158571
 20
8.58620853587488
 30
0.0
 10
1.275426861447021
 20
8.599985828698314
 30
0.0
 10
1.275831724800402
 20
8.627528700091828
 30
0.0
 10
1.277748903471955
 20
8.668886690814658
 30
0.0
 10
1.280972944227653
 20
8.710182174989532
 30
0.0
 10
1.283991073498356
 20
8.737643955945668
 30
0.0
 10
1.285716051082944
 20
8.751345004151679
 30
0.0
  0
SPLINE
  5
E1
330
1F
100
AcDbEntity
  8
0
  6
Continuous
 62
     7
370
    25
100
AcDbSpline
210
0.0
220
0.0
230
1.0
 70
     8
 71
     3
 72
    11
 73
     7
 74
     0
 42
0.00000001
 43
0.00000001
 40
0.3249220781181522
 40
0.3249220781181522
 40
0.3249220781181522
 40
0.3249220781181522
 40
0.4937823121626125
 40
0.6626425462070727
 40
0.8315027802515331
 40
1.000363014295993
 40
1.000363014295993
 40
1.000363014295993
 40
1.000363014295993
 10
1.277540375118275
 20
7.027689532258152
 30
0.0
 10
1.277342448045049
 20
7.157554609539143
 30
0.0
 10
1.276957382570206
 20
7.417279595486781
 30
0.0
 10
1.276413842445021
 20
7.806898234572571
 30
0.0
 10
1.275906176215517
 20
8.196545040372543
 30
0.0
 10
1.275592855349788
 20
8.456321706850268
 30
0.0
 10
1.275442780159108
 20
8.586208535409474
 30
0.0
  0
LINE
  5
E2
330
1F
100
AcDbEntity
  8
0
  6
Continuous
 62
     7
370
    25
100
AcDbLine
 10
1.2775403751
 20
7.0276895323
 30
0.0
 11
1.2775403751
 21
6.9776895323
 31
0.0
  0
ARC
  5
E3
330
1F
100
AcDbEntity
  8
0
  6
Continuous
 62
     7
370
    25
100
AcDbCircle
 10
1.4775403751
 20
6.9776895323
 30
0.0
 40
0.2000000000000002
100
AcDbArc
 50
180.0
 51
270.0
  0
LINE
  5
E4
330
1F
100
AcDbEntity
  8
0
  6
Continuous
 62
     7
370
    25
100
AcDbLine
 10
1.4775403751
 20
6.7776895323
 30
0.0
 11
1.9197430922
 21
6.7776895323
 31
0.0
  0
ARC
  5
E5
330
1F
100
AcDbEntity
  8
0
  6
Continuous
 62
     7
370
    25
100
AcDbCircle
 10
1.9197430922
 20
6.9776895323
 30
0.0
 40
0.2000000000000004
100
AcDbArc
 50
270.0
 51
315.5729959992
  0
ARC
  5
E6
330
1F
100
AcDbEntity
  8
0
  6
Continuous
 62
     7
370
    25
100
AcDbCircle
 10
2.6338859351
 20
6.2776895323
 30
0.0
 40
0.8000000000000003
100
AcDbArc
 50
87.1340160174
 51
135.5729959992
  0
ARC
  5
E7
330
1F
100
AcDbEntity
  8
0
  6
Continuous
 62
     7
370
    25
100
AcDbCircle
 10
2.6838859351
 20
7.27643875
 30
0.0
 40
0.2000000000000002
100
AcDbArc
 50
267.1340160174
 51
0.0
  0
LINE
  5
E8
330
1F
100
AcDbEntity
  8
0
  6
Continuous
 62
     7
370
    25
100
AcDbLine
 10
2.8838859351
 20
9.7559345272
 30
0.0
 11
2.8838859351
 21
7.27643875
 31
0.0
  0
ARC
  5
E9
330
1F
100
AcDbEntity
  8
0
  6
Continuous
 62
     7
370
    25
100
AcDbCircle
 10
2.6838859351
 20
9.7559345272
 30
0.0
 40
0.1999999999999981
100
AcDbArc
 50
0.0
 51
92.7177019672
  0
SPLINE
  5
EA
330
1F
100
AcDbEntity
  8
0
  6
Continuous
 62
     7
370
    25
100
AcDbSpline
210
0.0
220
0.0
230
1.0
 70
     8
 71
     3
 72
     9
 73
     5
 74
     0
 42
0.00000001
 43
0.00000001
 40
0.0
 40
0.0
 40
0.0
 40
0.0
 40
0.1280482512471772
 40
0.1771788976588758
 40
0.1771788976588758
 40
0.1771788976588758
 40
0.1771788976588758
 10
2.56369180557354
 20
9.950543769952072
 30
0.0
 10
2.590363074680078
 20
9.951766516624435
 30
0.0
 10
2.627266411225294
 20
9.953480280462495
 30
0.0
 10
2.664169436994643
 20
9.955223814181815
 30
0.0
 10
2.674402922464576
 20
9.955709581896855
 30
0.0
  0
CIRCLE
  5
EB
330
1F
100
AcDbEntity
  8
0
  6
Continuous
 62
     7
370
    25
100
AcDbCircle
 10
2.6338859351
 20
6.2776895323
 30
0.0
 40
0.4999999999999991
  0
LINE
  5
EC
330
1F
100
AcDbEntity
  8
0
  6
Continuous
 62
     7
370
    25
100
AcDbLine
 10
6.0020620358
 20
10.098938656
 30
0.0
 11
6.0020454409
 21
10.0996592937
 31
0.0
  0
LINE
  5
ED
330
1F
100
AcDbEntity
  8
0
  6
Continuous
 62
     7
370
    25
100
AcDbLine
 10
6.0020620358
 20
10.098938656
 30
0.0
 11
6.0020620396
 21
10.0825854211
 31
0.0
  0
LINE
  5
EE
330
1F
100
AcDbEntity
  8
0
  6
Continuous
 62
     7
370
    25
100
AcDbLine
 10
6.0020620396
 20
10.0825854211
 30
0.0
 11
6.0020454449
 21
10.082584854
 31
0.0
  0
LINE
  5
EF
330
1F
100
AcDbEntity
  8
0
  6
Continuous
 62
     7
370
    25
100
AcDbLine
 10
5.9963064539
 20
10.3488765516
 30
0.0
 11
6.7461076738
 21
10.3661430103
 31
0.0
  0
LINE
  5
F0
330
1F
100
AcDbEntity
  8
0
  6
Continuous
 62
     7
370
    25
100
AcDbLine
 10
3.4332888557
 20
2.5346331667
 30
0.0
 11
3.4332888877
 21
2.6712846703
 31
0.0
  0
LINE
  5
F1
330
1F
100
AcDbEntity
  8
0
  6
Continuous
 62
     7
370
    25
100
AcDbLine
 10
3.4332888557
 20
2.5346331667
 30
0.0
 11
3.4332722608
 21
2.533912529
 31
0.0
  0
LINE
  5
F2
330
1F
100
AcDbEntity
  8
0
  6
Continuous
 62
     7
370
    25
100
AcDbLine
 10
5.9963064539
 20
2.2065025129
 30
0.0
 11
6.7461076738
 21
2.1892360542
 31
0.0
  0
LINE
  5
F3
330
1F
100
AcDbEntity
  8
0
  6
Continuous
 62
     7
370
    25
100
AcDbLine
 10
3.4332888557
 20
10.0207458979
 30
0.0
 11
3.4332722608
 21
10.0214665355
 31
0.0
  0
LINE
  5
F4
330
1F
100
AcDbEntity
  8
0
  6
Continuous
 62
     7
370
    25
100
AcDbLine
 10
3.4332888557
 20
10.0207458979
 30
0.0
 11
3.4332888877
 21
9.8840943942
 31
0.0
  0
LINE
  5
F5
330
1F
100
AcDbEntity
  8
0
  6
Continuous
 62
     7
370
    25
100
AcDbLine
 10
3.4275332874
 20
2.2846958623
 30
0.0
 11
4.1773345073
 21
2.2674294036
 31
0.0
  0
LINE
  5
F6
330
1F
100
AcDbEntity
  8
0
  6
Continuous
 62
     7
370
    25
100
AcDbLine
 10
6.0020620358
 20
2.4564404085
 30
0.0
 11
6.0020620396
 21
2.4727936434
 31
0.0
  0
LINE
  5
F7
330
1F
100
AcDbEntity
  8
0
  6
Continuous
 62
     7
370
    25
100
AcDbLine
 10
6.0020620358
 20
2.4564404085
 30
0.0
 11
6.0020454409
 21
2.4557197708
 31
0.0
  0
LINE
  5
F8
330
1F
100
AcDbEntity
  8
0
  6
Continuous
 62
     7
370
    25
100
AcDbLine
 10
6.0020454449
 20
2.4727942106
 30
0.0
 11
6.0020620396
 21
2.4727936434
 31
0.0
  0
LINE
  5
F9
330
1F
100
AcDbEntity
  8
0
  6
Continuous
 62
     7
370
    25
100
AcDbLine
 10
3.4275332874
 20
10.2706832022
 30
0.0
 11
4.1773345073
 21
10.2879496609
 31
0.0
  0
MTEXT
  5
FB
330
1F
100
AcDbEntity
  8
PART_NAMES
100
AcDbMText
 10
1.7392950166
 20
6.6332671168
 30
0.0
 40
0.1666666667
 41
0.0
 71
     1
 72
     1
  1
BHc1.1
  7
SLDTEXTSTYLE0
 11
-3.491481338843133E-15
 21
-1.0
 31
0.0
 73
     1
 44
1.0
  0
SPLINE
  5
FC
330
1F
100
AcDbEntity
  8
0
  6
Continuous
 62
     7
370
    25
100
AcDbSpline
210
0.0
220
0.0
230
1.0
 70
     8
 71
     3
 72
    14
 73
    10
 74
     0
 42
0.00000001
 43
0.00000001
 40
0.0
 40
0.0
 40
0.0
 40
0.0
 40
0.25
 40
0.25
 40
0.5
 40
0.5
 40
0.75
 40
0.75
 40
1.0
 40
1.0
 40
1.0
 40
1.0
 10
21.64434750998821
 20
2.623347737491964
 30
0.0
 10
21.74560299191146
 20
2.633953553317129
 30
0.0
 10
21.84597306555068
 20
2.65421340526251
 30
0.0
 10
22.04107455792941
 20
2.713292043066393
 30
0.0
 10
22.13581304167569
 20
2.752107652863178
 30
0.0
 10
22.31631658755245
 20
2.846946808986484
 30
0.0
 10
22.4020880747779
 20
2.902973746452904
 30
0.0
 10
22.56162829655686
 20
3.030297528336107
 30
0.0
 10
22.63539835504223
 20
3.101601932723683
 30
0.0
 10
22.70173918600456
 20
3.179190500845856
 30
0.0
  0
SPLINE
  5
FD
330
1F
100
AcDbEntity
  8
0
  6
Continuous
 62
     7
370
    25
100
AcDbSpline
210
0.0
220
0.0
230
1.0
 70
     8
 71
     3
 72
    22
 73
    18
 74
     0
 42
0.00000001
 43
0.00000001
 40
0.0
 40
0.0
 40
0.0
 40
0.0
 40
0.4999999999999952
 40
0.4999999999999952
 40
0.7499999999999925
 40
0.7499999999999925
 40
0.8749999999999921
 40
0.8749999999999921
 40
0.9374999999999931
 40
0.9687499999999929
 40
0.9843749999999939
 40
0.9921874999999958
 40
0.9960937499999967
 40
0.9980468749999971
 40
0.9990234374999986
 40
0.9990234374999986
 40
1.0
 40
1.0
 40
1.0
 40
1.0
 10
22.70173918601932
 20
3.179190500833232
 30
0.0
 10
22.76861570184289
 20
3.257407174223067
 30
0.0
 10
22.82825866924574
 20
3.342594331139273
 30
0.0
 10
22.90481360155542
 20
3.477747898465521
 30
0.0
 10
22.9281833048729
 20
3.524022835090417
 30
0.0
 10
22.95979590488924
 20
3.594856983393518
 30
0.0
 10
22.96976010557439
 20
3.618705218423218
 30
0.0
 10
22.98382213834488
 20
3.654780806247008
 30
0.0
 10
22.99063212142418
 20
3.672894410952513
 30
0.0
 10
22.99818534484425
 20
3.69414829330459
 30
0.0
 10
23.00186342587298
 20
3.70480416254119
 30
0.0
 10
23.00367776053652
 20
3.710139153584103
 30
0.0
 10
23.00457874234965
 20
3.712808391296312
 30
0.0
 10
23.00502768575029
 20
3.714143442962985
 30
0.0
 10
23.00521975833608
 20
3.714715700414978
 30
0.0
 10
23.00534773299574
 20
3.715097225895295
 30
0.0
 10
23.005391775875
 20
3.71522857544881
 30
0.0
 10
23.00547580072942
 20
3.715479390100645
 30
0.0
  0
ARC
  5
FE
330
1F
100
AcDbEntity
  8
0
  6
Continuous
 62
     7
370
    25
100
AcDbCircle
 10
21.5056818772
 20
4.2179309287
 30
0.0
 40
1.581720380336936
100
AcDbArc
 50
341.4784438458
 51
346.1406561978
  0
ARC
  5
FF
330
1F
100
AcDbEntity
  8
0
  6
Continuous
 62
     7
370
    25
100
AcDbCircle
 10
21.512752414
 20
4.2161864713
 30
0.0
 40
1.574437872508555
100
AcDbArc
 50
346.1406561978
 51
352.6611756276
  0
ARC
  5
100
330
1F
100
AcDbEntity
  8
0
  6
Continuous
 62
     7
370
    25
100
AcDbCircle
 10
21.6072755682
 20
4.2040126691
 30
0.0
 40
1.47913399980094
100
AcDbArc
 50
352.6611756276
 51
355.2380473966
  0
SPLINE
  5
101
330
1F
100
AcDbEntity
  8
0
  6
Continuous
 62
     7
370
    25
100
AcDbSpline
210
0.0
220
0.0
230
1.0
 70
     8
 71
     3
 72
     8
 73
     4
 74
     0
 42
0.00000001
 43
0.00000001
 40
0.0
 40
0.0
 40
0.0
 40
0.0
 40
1.0
 40
1.0
 40
1.0
 40
1.0
 10
23.08130390217501
 20
4.081220730781162
 30
0.0
 10
23.08719806661834
 20
4.151974836018103
 30
0.0
 10
23.09013085815394
 20
4.223130893182306
 30
0.0
 10
23.09005346404243
 20
4.294163797843317
 30
0.0
  0
SPLINE
  5
102
330
1F
100
AcDbEntity
  8
0
  6
Continuous
 62
     7
370
    25
100
AcDbSpline
210
0.0
220
0.0
230
1.0
 70
     8
 71
     3
 72
     9
 73
     5
 74
     0
 42
0.00000001
 43
0.00000001
 40
0.0
 40
0.0
 40
0.0
 40
0.0
 40
0.5000000000000001
 40
0.6906581272593654
 40
0.6906581272593654
 40
0.6906581272593654
 40
0.6906581272593654
 10
23.09005346404243
 20
4.294163797843316
 30
0.0
 10
23.08964216532685
 20
4.671862859051838
 30
0.0
 10
23.08897133441975
 20
5.193528970476597
 30
0.0
 10
23.08812457045393
 20
5.715087122479347
 30
0.0
 10
23.08787642180271
 20
5.859055596817163
 30
0.0
  0
ARC
  5
103
330
1F
100
AcDbEntity
  8
0
  6
Continuous
 62
     7
370
    25
100
AcDbCircle
 10
22.8878767189
 20
5.858710871
 30
0.0
 40
0.2000000000000037
100
AcDbArc
 50
0.098756734
 51
90.0
  0
LINE
  5
104
330
1F
100
AcDbEntity
  8
0
  6
Continuous
 62
     7
370
    25
100
AcDbLine
 10
22.8878767189
 20
6.058710871
 30
0.0
 11
22.2250360055
 21
6.058710871
 31
0.0
  0
ARC
  5
105
330
1F
100
AcDbEntity
  8
0
  6
Continuous
 62
     7
370
    25
100
AcDbCircle
 10
22.2250360055
 20
5.858710871
 30
0.0
 40
0.2000000000000002
100
AcDbArc
 50
90.0
 51
135.5729959992
  0
ARC
  5
106
330
1F
100
AcDbEntity
  8
0
  6
Continuous
 62
     7
370
    25
100
AcDbCircle
 10
21.5108931626
 20
6.558710871
 30
0.0
 40
0.8000000000000015
100
AcDbArc
 50
252.5423968763
 51
315.5729959992
  0
ARC
  5
107
330
1F
100
AcDbEntity
  8
0
  6
Continuous
 62
     7
370
    25
100
AcDbCircle
 10
21.2108931626
 20
5.6047716695
 30
0.0
 40
0.2000000000000028
100
AcDbArc
 50
72.5423968763
 51
180.0
  0
LINE
  5
108
330
1F
100
AcDbEntity
  8
0
  6
Continuous
 62
     7
370
    25
100
AcDbLine
 10
21.0108931626
 20
2.792809034
 30
0.0
 11
21.0108931626
 21
5.6047716695
 31
0.0
  0
ARC
  5
109
330
1F
100
AcDbEntity
  8
0
  6
Continuous
 62
     7
370
    25
100
AcDbCircle
 10
21.2108931626
 20
2.792809034
 30
0.0
 40
0.2000000000000028
100
AcDbArc
 50
180.0
 51
272.1912465894
  0
SPLINE
  5
10A
330
1F
100
AcDbEntity
  8
0
  6
Continuous
 62
     7
370
    25
100
AcDbSpline
210
0.0
220
0.0
230
1.0
 70
     8
 71
     3
 72
     8
 73
     4
 74
     0
 42
0.00000001
 43
0.00000001
 40
0.2491235417990575
 40
0.2491235417990575
 40
0.2491235417990575
 40
0.2491235417990575
 40
1.0
 40
1.0
 40
1.0
 40
1.0
 10
21.21854019172929
 20
2.592955280058308
 30
0.0
 10
21.36098323050525
 20
2.598405595796193
 30
0.0
 10
21.50327179246441
 20
2.608572376791995
 30
0.0
 10
21.64434750998822
 20
2.62334773749196
 30
0.0
  0
ARC
  5
10B
330
1F
100
AcDbEntity
  8
0
  6
Continuous
 62
     7
370
    25
100
AcDbCircle
 10
22.8878737659
 20
7.258710871
 30
0.0
 40
0.1999999999999999
100
AcDbArc
 50
270.0
 51
359.9011351918
  0
SPLINE
  5
10C
330
1F
100
AcDbEntity
  8
0
  6
Continuous
 62
     7
370
    25
100
AcDbSpline
210
0.0
220
0.0
230
1.0
 70
     8
 71
     3
 72
     8
 73
     4
 74
     0
 42
0.00000001
 43
0.00000001
 40
0.308710810679956
 40
0.308710810679956
 40
0.308710810679956
 40
0.308710810679956
 40
1.0
 40
1.0
 40
1.0
 40
1.0
 10
23.08787346814789
 20
7.258365767842208
 30
0.0
 10
23.08877336935043
 20
7.779890976366723
 30
0.0
 10
23.08948434592302
 20
8.301535954865107
 30
0.0
 10
23.09005346402477
 20
8.823257927881217
 30
0.0
  0
SPLINE
  5
10D
330
1F
100
AcDbEntity
  8
0
  6
Continuous
 62
     7
370
    25
100
AcDbSpline
210
0.0
220
0.0
230
1.0
 70
     8
 71
     3
 72
     8
 73
     4
 74
     0
 42
0.00000001
 43
0.00000001
 40
0.0
 40
0.0
 40
0.0
 40
0.0
 40
1.0
 40
1.0
 40
1.0
 40
1.0
 10
23.09005346402477
 20
8.823257927881217
 30
0.0
 10
23.09013085859893
 20
8.894290837918224
 30
0.0
 10
23.08719806706599
 20
8.965446900517032
 30
0.0
 10
23.08130390217503
 20
9.036201011127508
 30
0.0
  0
ARC
  5
10E
330
1F
100
AcDbEntity
  8
0
  6
Continuous
 62
     7
370
    25
100
AcDbCircle
 10
21.6072755682
 20
8.9134090728
 30
0.0
 40
1.479133999800941
100
AcDbArc
 50
4.7619526034
 51
7.3388243724
  0
ARC
  5
10F
330
1F
100
AcDbEntity
  8
0
  6
Continuous
 62
     7
370
    25
100
AcDbCircle
 10
21.512752414
 20
8.9012352706
 30
0.0
 40
1.574437750129786
100
AcDbArc
 50
7.3388243724
 51
13.8593438022
  0
ARC
  5
110
330
1F
100
AcDbEntity
  8
0
  6
Continuous
 62
     7
370
    25
100
AcDbCircle
 10
21.5056818772
 20
8.8994908132
 30
0.0
 40
1.581720306087291
100
AcDbArc
 50
13.8593438022
 51
18.5215561542
  0
SPLINE
  5
111
330
1F
100
AcDbEntity
  8
0
  6
Continuous
 62
     7
370
    25
100
AcDbSpline
210
0.0
220
0.0
230
1.0
 70
     8
 71
     3
 72
    21
 73
    17
 74
     0
 42
0.00000001
 43
0.00000001
 40
0.0
 40
0.0
 40
0.0
 40
0.0
 40
0.0009765624999997
 40
0.0009765624999997
 40
0.0019531249999994
 40
0.0039062499999996
 40
0.0078124999999983
 40
0.0156249999999983
 40
0.0312499999999975
 40
0.0624999999999983
 40
0.1249999999999974
 40
0.2499999999999982
 40
0.2499999999999982
 40
0.4999999999999984
 40
0.4999999999999984
 40
1.0
 40
1.0
 40
1.0
 40
1.0
 10
23.0054758007295
 20
9.40194235180803
 30
0.0
 10
23.00539177639907
 20
9.402193164895746
 30
0.0
 10
23.00534773379342
 20
9.402324513633994
 30
0.0
 10
23.00521975993275
 20
9.40270603673531
 30
0.0
 10
23.00502768854683
 20
9.403278290619186
 30
0.0
 10
23.00457874795553
 20
9.404613333962951
 30
0.0
 10
23.00367777179966
 20
9.407282555040165
 30
0.0
 10
23.00186344860484
 20
9.412617512856809
 30
0.0
 10
22.99818539112892
 20
9.4232733158191
 30
0.0
 10
22.9906322172649
 20
9.444527066361687
 30
0.0
 10
22.97474241058113
 20
9.486791880924729
 30
0.0
 10
22.95979621915968
 20
9.522564016383955
 30
0.0
 10
22.9281838591804
 20
9.59339774067842
 30
0.0
 10
22.90481434368393
 20
9.639672408196649
 30
0.0
 10
22.8282600494426
 20
9.77482522421858
 30
0.0
 10
22.76861760703842
 20
9.860011955604119
 30
0.0
 10
22.70174168833526
 20
9.938228314438314
 30
0.0
  0
SPLINE
  5
112
330
1F
100
AcDbEntity
  8
0
  6
Continuous
 62
     7
370
    25
100
AcDbSpline
210
0.0
220
0.0
230
1.0
 70
     8
 71
     3
 72
    14
 73
    10
 74
     0
 42
0.00000001
 43
0.00000001
 40
0.0
 40
0.0
 40
0.0
 40
0.0
 40
0.25
 40
0.25
 40
0.5
 40
0.5
 40
0.75
 40
0.75
 40
1.0
 40
1.0
 40
1.0
 40
1.0
 10
22.70174168835008
 20
9.93822831445098
 30
0.0
 10
22.63540106827745
 20
10.01581701125771
 30
0.0
 10
22.56163120872841
 20
10.08712156885307
 30
0.0
 10
22.40209135547191
 20
10.21444569784179
 30
0.0
 10
22.31632003791998
 20
10.27047282921926
 30
0.0
 10
22.13581679599293
 20
10.36531240729237
 30
0.0
 10
22.04107844657637
 20
10.40412824520024
 30
0.0
 10
21.84597717836284
 20
10.46320736735732
 30
0.0
 10
21.74560719454582
 20
10.48346747564144
 30
0.0
 10
21.64435177377455
 20
10.49407355780887
 30
0.0
  0
SPLINE
  5
113
330
1F
100
AcDbEntity
  8
0
  6
Continuous
 62
     7
370
    25
100
AcDbSpline
210
0.0
220
0.0
230
1.0
 70
     8
 71
     3
 72
     8
 73
     4
 74
     0
 42
0.00000001
 43
0.00000001
 40
0.0
 40
0.0
 40
0.0
 40
0.0
 40
0.750878342622312
 40
0.750878342622312
 40
0.750878342622312
 40
0.750878342622312
 10
21.64435177377706
 20
10.49407355783283
 30
0.0
 10
21.50327465944997
 20
10.50884916013201
 30
0.0
 10
21.36098466558436
 20
10.51901609113219
 30
0.0
 10
21.21854019178948
 20
10.52446646182135
 30
0.0
  0
ARC
  5
114
330
1F
100
AcDbEntity
  8
0
  6
Continuous
 62
     7
370
    25
100
AcDbCircle
 10
21.2108931626
 20
10.3246127079
 30
0.0
 40
0.2000000000000004
100
AcDbArc
 50
87.8087533933
 51
180.0
  0
LINE
  5
115
330
1F
100
AcDbEntity
  8
0
  6
Continuous
 62
     7
370
    25
100
AcDbLine
 10
21.0108931626
 20
10.3246127079
 30
0.0
 11
21.0108931626
 21
7.5126500724
 31
0.0
  0
ARC
  5
116
330
1F
100
AcDbEntity
  8
0
  6
Continuous
 62
     7
370
    25
100
AcDbCircle
 10
21.2108931626
 20
7.5126500724
 30
0.0
 40
0.2000000000000028
100
AcDbArc
 50
180.0
 51
287.4576031237
  0
ARC
  5
117
330
1F
100
AcDbEntity
  8
0
  6
Continuous
 62
     7
370
    25
100
AcDbCircle
 10
21.5108931626
 20
6.558710871
 30
0.0
 40
0.8000000000000006
100
AcDbArc
 50
44.4270040008
 51
107.4576031237
  0
ARC
  5
118
330
1F
100
AcDbEntity
  8
0
  6
Continuous
 62
     7
370
    25
100
AcDbCircle
 10
22.2250360055
 20
7.258710871
 30
0.0
 40
0.2000000000000002
100
AcDbArc
 50
224.4270040008
 51
270.0
  0
LINE
  5
119
330
1F
100
AcDbEntity
  8
0
  6
Continuous
 62
     7
370
    25
100
AcDbLine
 10
22.8878737659
 20
7.058710871
 30
0.0
 11
22.2250360055
 21
7.058710871
 31
0.0
  0
CIRCLE
  5
11A
330
1F
100
AcDbEntity
  8
0
  6
Continuous
 62
     7
370
    25
100
AcDbCircle
 10
21.5108931626
 20
6.558710871
 30
0.0
 40
0.4999999999999991
  0
SPLINE
  5
11B
330
1F
100
AcDbEntity
  8
0
  6
Continuous
 62
     7
370
    25
100
AcDbSpline
210
0.0
220
0.0
230
1.0
 70
     8
 71
     3
 72
    16
 73
    12
 74
     0
 42
0.00000001
 43
0.00000001
 40
0.0
 40
0.0
 40
0.0
 40
0.0
 40
0.1084714680576644
 40
0.2175980425931588
 40
0.3273818380565379
 40
0.4378249311500706
 40
0.5489293616063601
 40
0.6606971329503102
 40
0.7731302132452057
 40
0.8862305358231333
 40
1.0
 40
1.0
 40
1.0
 40
1.0
 10
14.76930847023455
 20
10.57076602467801
 30
0.0
 10
14.74190593767864
 20
10.55821468078068
 30
0.0
 10
14.68693537672809
 20
10.53303618994916
 30
0.0
 10
14.60401842319875
 20
10.49562082124437
 30
0.0
 10
14.52045049403296
 20
10.45831852085624
 30
0.0
 10
14.43621601166369
 20
10.42116316751042
 30
0.0
 10
14.35131895959294
 20
10.38414615107985
 30
0.0
 10
14.26575911796874
 20
10.34726772777755
 30
0.0
 10
14.1795333165484
 20
10.31053562726184
 30
0.0
 10
14.09265457123177
 20
10.2739183922367
 30
0.0
 10
14.03443926614332
 20
10.24973432791456
 30
0.0
 10
14.00524576196833
 20
10.23760663088224
 30
0.0
  0
SPLINE
  5
11C
330
1F
100
AcDbEntity
  8
0
  6
Continuous
 62
     7
370
    25
100
AcDbSpline
210
0.0
220
0.0
230
1.0
 70
     8
 71
     3
 72
    12
 73
     8
 74
     0
 42
0.00000001
 43
0.00000001
 40
0.0
 40
0.0
 40
0.0
 40
0.0
 40
0.2004557314483043
 40
0.4006697598004492
 40
0.6006558990589348
 40
0.8004280105010465
 40
1.0
 40
1.0
 40
1.0
 40
1.0
 10
15.00329031798121
 20
10.67237009325817
 30
0.0
 10
14.98753280691884
 20
10.66586872785352
 30
0.0
 10
14.95603678469589
 20
10.65287383618224
 30
0.0
 10
14.90902616393274
 20
10.63289913841399
 30
0.0
 10
14.86222836085041
 20
10.6125778590265
 30
0.0
 10
14.81564171516106
 20
10.59190979018754
 30
0.0
 10
14.78474772461012
 20
10.5778115915205
 30
0.0
 10
14.76930847023455
 20
10.57076602467801
 30
0.0
  0
SPLINE
  5
11D
330
1F
100
AcDbEntity
  8
0
  6
Continuous
 62
     7
370
    25
100
AcDbSpline
210
0.0
220
0.0
230
1.0
 70
     8
 71
     3
 72
    21
 73
    17
 74
     0
 42
0.00000001
 43
0.00000001
 40
0.0
 40
0.0
 40
0.0
 40
0.0
 40
0.0715124445871591
 40
0.14299296832116
 40
0.2144463158320402
 40
0.2858772371651866
 40
0.3572904868410136
 40
0.4286908229101793
 40
0.5000830060052877
 40
0.5714717983900149
 40
0.6428619630065914
 40
0.7142582625226186
 40
0.7856654583781534
 40
0.8570883098340224
 40
0.9285315730223156
 40
1.0
 40
1.0
 40
1.0
 40
1.0
 10
15.66907701729814
 20
10.90174246705762
 30
0.0
 10
15.6529220940851
 20
10.89714891587824
 30
0.0
 10
15.62061945869668
 20
10.88796386393286
 30
0.0
 10
15.57231948816405
 20
10.8736895282541
 30
0.0
 10
15.52414762773521
 20
10.8590558091822
 30
0.0
 10
15.47611398949512
 20
10.84402682581052
 30
0.0
 10
15.4282158658605
 20
10.8286121882431
 30
0.0
 10
15.38045398413826
 20
10.81280931960305
 30
0.0
 10
15.33282814547943
 20
10.79661892219681
 30
0.0
 10
15.28533842209
 20
10.7800407639086
 30
0.0
 10
15.2379847278012
 20
10.7630750722362
 30
0.0
 10
15.19076733892636
 20
10.74572117052333
 30
0.0
 10
15.143685239954
 20
10.72798153980036
 30
0.0
 10
15.0967422214014
 20
10.70984693154763
 30
0.0
 10
15.0499241350702
 20
10.69135187342368
 30
0.0
 10
15.01883674829257
 20
10.67869809600274
 30
0.0
 10
15.00329031798121
 20
10.67237009325817
 30
0.0
  0
SPLINE
  5
11E
330
1F
100
AcDbEntity
  8
0
  6
Continuous
 62
     7
370
    25
100
AcDbSpline
210
0.0
220
0.0
230
1.0
 70
     8
 71
     3
 72
    19
 73
    15
 74
     0
 42
0.00000001
 43
0.00000001
 40
0.0
 40
0.0
 40
0.0
 40
0.0
 40
0.083389747623477
 40
0.1667499145956724
 40
0.2500862911568839
 40
0.3334046725073816
 40
0.4167108576029498
 40
0.5000106479465108
 40
0.5833098463771165
 40
0.6666142558574997
 40
0.7499296782615484
 40
0.83326191316287
 40
0.9166167566257921
 40
0.9999999999999999
 40
0.9999999999999999
 40
0.9999999999999999
 40
0.9999999999999999
 10
16.26647512034012
 20
11.03824646988193
 30
0.0
 10
16.24970060628506
 20
11.03524584832632
 30
0.0
 10
16.2161575285593
 20
11.02924566961861
 30
0.0
 10
16.16594793125425
 20
11.01971584660668
 30
0.0
 10
16.11582833302353
 20
11.00980062171869
 30
0.0
 10
16.06580546043486
 20
10.99946186849416
 30
0.0
 10
16.01587750914829
 20
10.98870981177825
 30
0.0
 10
15.96604497687712
 20
10.97754166504386
 30
0.0
 10
15.91630768100459
 20
10.96595835313435
 30
0.0
 10
15.86666585874991
 20
10.95395896357645
 30
0.0
 10
15.81711874805526
 20
10.9415462229629
 30
0.0
 10
15.76766916494914
 20
10.92871013603453
 30
0.0
 10
15.71830660791387
 20
10.91548797174421
 30
0.0
 10
15.68548874408712
 20
10.90632482219548
 30
0.0
 10
15.66907701729814
 20
10.90174246705762
 30
0.0
  0
ARC
  5
11F
330
1F
100
AcDbEntity
  8
0
  6
Continuous
 62
     7
370
    25
100
AcDbCircle
 10
17.2757269633
 20
5.317285881
 30
0.0
 40
5.809301106176202
100
AcDbArc
 50
99.7235334431
 51
100.0047800781
  0
LINE
  5
120
330
1F
100
AcDbEntity
  8
0
  6
Continuous
 62
     7
370
    25
100
AcDbLine
 10
16.2945695279
 20
11.0431316343
 30
0.0
 11
16.5302347814
 21
10.7065667722
 31
0.0
  0
LINE
  5
121
330
1F
100
AcDbEntity
  8
0
  6
Continuous
 62
     7
370
    25
100
AcDbLine
 10
16.5302347814
 20
10.7065667722
 30
0.0
 11
16.6326287869
 21
10.7782638267
 31
0.0
  0
LINE
  5
122
330
1F
100
AcDbEntity
  8
0
  6
Continuous
 62
     7
370
    25
100
AcDbLine
 10
16.6326287869
 20
10.7782638267
 30
0.0
 11
16.4318770342
 21
11.0649670422
 31
0.0
  0
SPLINE
  5
123
330
1F
100
AcDbEntity
  8
0
  6
Continuous
 62
     7
370
    25
100
AcDbSpline
210
0.0
220
0.0
230
1.0
 70
     8
 71
     3
 72
    17
 73
    13
 74
     0
 42
0.00000001
 43
0.00000001
 40
0.0
 40
0.0
 40
0.0
 40
0.0
 40
0.1000300108072081
 40
0.2000356349397662
 40
0.300023513091938
 40
0.4000002894941894
 40
0.4999726105904714
 40
0.599947123713318
 40
0.6999304757580604
 40
0.7999293118574662
 40
0.8999502740581387
 40
1.0
 40
1.0
 40
1.0
 40
1.0
 10
16.89255419281668
 20
11.11344571132554
 30
0.0
 10
16.87713863218712
 20
11.11241992223677
 30
0.0
 10
16.84631126914275
 20
11.11036859414001
 30
0.0
 10
16.80010856171495
 20
11.1068144764881
 30
0.0
 10
16.75394263990318
 20
11.10291161515136
 30
0.0
 10
16.70781571039574
 20
11.09862569699333
 30
0.0
 10
16.66172715901486
 20
11.09396607648696
 30
0.0
 10
16.615677239954
 20
11.08892964143128
 30
0.0
 10
16.56966555417218
 20
11.08351948796389
 30
0.0
 10
16.52369344755731
 20
11.07772634236276
 30
0.0
 10
16.47775593781761
 20
11.07158421361475
 30
0.0
 10
16.44717146478284
 20
11.06717299780676
 30
0.0
 10
16.43187702973283
 20
11.06496707280716
 30
0.0
  0
SPLINE
  5
124
330
1F
100
AcDbEntity
  8
0
  6
Continuous
 62
     7
370
    25
100
AcDbSpline
210
0.0
220
0.0
230
1.0
 70
     8
 71
     3
 72
    21
 73
    17
 74
     0
 42
0.00000001
 43
0.00000001
 40
0.0
 40
0.0
 40
0.0
 40
0.0
 40
0.0714138982567904
 40
0.1428169500174553
 40
0.2142124308729319
 40
0.2856036174562644
 40
0.3569937869917937
 40
0.4283862168439185
 40
0.4997841840657732
 40
0.571190964948117
 40
0.6426098345687478
 40
0.7140440663427476
 40
0.7854969315738789
 40
0.8569716990074184
 40
0.9284716343847452
 40
1.0
 40
1.0
 40
1.0
 40
1.0
 10
17.6933597550763
 20
11.12686150078934
 30
0.0
 10
17.67429488227033
 20
11.12740906727974
 30
0.0
 10
17.63616803227218
 20
11.12850411709496
 30
0.0
 10
17.57896878620656
 20
11.12965553561837
 30
0.0
 10
17.52176982177987
 20
11.13044717008605
 30
0.0
 10
17.46457005845182
 20
11.13084378626544
 30
0.0
 10
17.40736978611558
 20
11.13085482470158
 30
0.0
 10
17.35016892776515
 20
11.13047775275516
 30
0.0
 10
17.29296750372047
 20
11.12971326108776
 30
0.0
 10
17.23576551187622
 20
11.12856111974165
 30
0.0
 10
17.17856294249486
 20
11.12702155801067
 30
0.0
 10
17.12135983880451
 20
11.12509388869243
 30
0.0
 10
17.06415603972639
 20
11.12278063240967
 30
0.0
 10
17.00695214873863
 20
11.12007239031647
 30
0.0
 10
16.94974591407147
 20
11.11700425417326
 30
0.0
 10
16.91162062600076
 20
11.11463204945194
 30
0.0
 10
16.89255419281668
 20
11.11344571132554
 30
0.0
  0
LINE
  5
125
330
1F
100
AcDbEntity
  8
0
  6
Continuous
 62
     7
370
    25
100
AcDbLine
 10
19.0108929906
 20
11.086369517
 30
0.0
 11
17.6933597551
 21
11.1268615008
 31
0.0
  0
LINE
  5
126
330
1F
100
AcDbEntity
  8
0
  6
Continuous
 62
     7
370
    25
100
AcDbLine
 10
19.0108931626
 20
10.7344494125
 30
0.0
 11
19.0108931626
 21
11.0863751018
 31
0.0
  0
LINE
  5
127
330
1F
100
AcDbEntity
  8
0
  6
Continuous
 62
     7
370
    25
100
AcDbLine
 10
19.1358931626
 20
10.7344494125
 30
0.0
 11
19.0108931626
 21
10.7344494125
 31
0.0
  0
LINE
  5
128
330
1F
100
AcDbEntity
  8
0
  6
Continuous
 62
     7
370
    25
100
AcDbLine
 10
19.1358931626
 20
11.0825230936
 30
0.0
 11
19.1358931626
 21
10.7344494125
 31
0.0
  0
LINE
  5
129
330
1F
100
AcDbEntity
  8
0
  6
Continuous
 62
     7
370
    25
100
AcDbLine
 10
19.8978397346
 20
11.058980294
 30
0.0
 11
19.1358930041
 21
11.0825179503
 31
0.0
  0
SPLINE
  5
12A
330
1F
100
AcDbEntity
  8
0
  6
Continuous
 62
     7
370
    25
100
AcDbSpline
210
0.0
220
0.0
230
1.0
 70
     8
 71
     3
 72
     9
 73
     5
 74
     0
 42
0.00000001
 43
0.00000001
 40
0.0
 40
0.0
 40
0.0
 40
0.0
 40
0.4894361294311873
 40
1.0
 40
1.0
 40
1.0
 40
1.0
 10
20.07183925402248
 20
11.0536903312989
 30
0.0
 10
20.0434516454479
 20
11.05454048523646
 30
0.0
 10
19.98545100579841
 20
11.0562774921439
 30
0.0
 10
19.92745195463213
 20
11.05806675897916
 30
0.0
 10
19.89783973457935
 20
11.05898029398006
 30
0.0
  0
ARC
  5
12B
330
1F
100
AcDbEntity
  8
0
  6
Continuous
 62
     7
370
    25
100
AcDbCircle
 10
24.1062936105
 20
146.5531568887
 30
0.0
 40
135.5595155201838
100
AcDbArc
 50
268.2945398973
 51
268.4130209226
  0
ARC
  5
12C
330
1F
100
AcDbEntity
  8
0
  6
Continuous
 62
     7
370
    25
100
AcDbCircle
 10
23.4488835188
 20
122.8243054497
 30
0.0
 40
111.8215591585375
100
AcDbArc
 50
268.4130209226
 51
268.6796348067
  0
ARC
  5
12D
330
1F
100
AcDbEntity
  8
0
  6
Continuous
 62
     7
370
    25
100
AcDbCircle
 10
21.5878553714
 20
42.0813543099
 30
0.0
 40
31.05716367840864
100
AcDbArc
 50
268.6796348067
 51
269.0719866471
  0
SPLINE
  5
12E
330
1F
100
AcDbEntity
  8
0
  6
Continuous
 62
     7
370
    25
100
AcDbSpline
210
0.0
220
0.0
230
1.0
 70
     8
 71
     3
 72
    19
 73
    15
 74
     0
 42
0.00000001
 43
0.00000001
 40
0.0
 40
0.0
 40
0.0
 40
0.0
 40
0.0833718488715834
 40
0.166721703574731
 40
0.2500540577600218
 40
0.3333734079095513
 40
0.4166842526110254
 40
0.4999910918299995
 40
0.5832984261811531
 40
0.6666107561988887
 40
0.7499325816081371
 40
0.8332684005956883
 40
0.9166227090828699
 40
1.0
 40
1.0
 40
1.0
 40
1.0
 10
21.69643412866722
 20
10.99135358790551
 30
0.0
 10
21.67949022841485
 20
10.99309193317812
 30
0.0
 10
21.64560689784813
 20
10.99656816513377
 30
0.0
 10
21.59474090786462
 20
11.00130879765369
 30
0.0
 10
21.54385480549914
 20
11.0057015741697
 30
0.0
 10
21.49294503841058
 20
11.00971257065211
 30
0.0
 10
21.44201255892198
 20
11.01335088602317
 30
0.0
 10
21.39105711176746
 20
11.01661403899492
 30
0.0
 10
21.34007876854394
 20
11.01950285732632
 30
0.0
 10
21.28907750077235
 20
11.0220165107322
 30
0.0
 10
21.2380533534602
 20
11.0241574928525
 30
0.0
 10
21.18700617770621
 20
11.02591665741601
 30
0.0
 10
21.13593652694751
 20
11.02732810579783
 30
0.0
 10
21.10187904033
 20
11.02795229296487
 30
0.0
 10
21.08484794976433
 20
11.02826442956764
 30
0.0
  0
SPLINE
  5
12F
330
1F
100
AcDbEntity
  8
0
  6
Continuous
 62
     7
370
    25
100
AcDbSpline
210
0.0
220
0.0
230
1.0
 70
     8
 71
     3
 72
    28
 73
    24
 74
     0
 42
0.00000001
 43
0.00000001
 40
0.0
 40
0.0
 40
0.0
 40
0.0
 40
0.0178827238447854
 40
0.0357587104610814
 40
0.0536312498909016
 40
0.0715036340799878
 40
0.0893791550598522
 40
0.107261103129573
 40
0.1251527650423817
 40
0.1877008455562386
 40
0.2502595654059895
 40
0.3127837690052918
 40
0.3753146912898292
 40
0.5002861411959483
 40
0.6252224973632002
 40
0.6876890089353959
 40
0.7501718723007984
 40
0.8126302201754974
 40
0.8751010147883516
 40
0.9063376654784691
 40
0.9375546634482321
 40
0.9687695825135945
 40
1.0
 40
1.0
 40
1.0
 40
1.0
 10
23.08176655809821
 20
10.26316076646665
 30
0.0
 10
23.07552828071629
 20
10.2703992449139
 30
0.0
 10
23.06305407619286
 20
10.28487347474716
 30
0.0
 10
23.04397409996082
 20
10.30625787593446
 30
0.0
 10
23.02463039911209
 20
10.32739563989658
 30
0.0
 10
23.0049961096774
 20
10.34826380968622
 30
0.0
 10
22.98507847220043
 20
10.36886851227831
 30
0.0
 10
22.96487539512351
 20
10.38920817954479
 30
0.0
 10
22.92734896678268
 20
10.42597883083994
 30
0.0
 10
22.87114439038261
 20
10.47779211721254
 30
0.0
 10
22.79425655748658
 20
10.54219327044643
 30
0.0
 10
22.71440999201566
 20
10.60287837661361
 30
0.0
 10
22.60429017541862
 20
10.6786012757273
 30
0.0
 10
22.46012099963721
 20
10.76331845840465
 30
0.0
 10
22.30859863985641
 20
10.83396663890781
 30
0.0
 10
22.18383950252941
 20
10.88166749856802
 30
0.0
 10
22.08867310206475
 20
10.91296270448721
 30
0.0
 10
21.99213346194203
 20
10.93972042709573
 30
0.0
 10
21.91071712489741
 20
10.95816981773712
 30
0.0
 10
21.84512846247823
 20
10.97061252408442
 30
0.0
 10
21.79573916338403
 20
10.97875093955789
 30
0.0
 10
21.74618261902911
 20
10.98579872676112
 30
0.0
 10
21.71301970237595
 20
10.98950166117805
 30
0.0
 10
21.69643412866722
 20
10.99135358790551
 30
0.0
  0
SPLINE
  5
130
330
1F
100
AcDbEntity
  8
0
  6
Continuous
 62
     7
370
    25
100
AcDbSpline
210
0.0
220
0.0
230
1.0
 70
     8
 71
     3
 72
    22
 73
    18
 74
     0
 42
0.00000001
 43
0.00000001
 40
0.0
 40
0.0
 40
0.0
 40
0.0
 40
0.0356730371737456
 40
0.0713532113801319
 40
0.1070473399381018
 40
0.1427622321757073
 40
0.1785046855538812
 40
0.2142814818240095
 40
0.2500993832300628
 40
0.37504925550381
 40
0.5001233583646326
 40
0.6251415873419062
 40
0.7500874778530441
 40
0.8126859783560785
 40
0.8751800117515958
 40
0.9376058789902043
 40
1.0
 40
1.0
 40
1.0
 40
1.0
 10
23.4795779056735
 20
9.560773060724275
 30
0.0
 10
23.47647368229241
 20
9.569917802508357
 30
0.0
 10
23.47026461447449
 20
9.588209115646576
 30
0.0
 10
23.46046948951886
 20
9.615483929967446
 30
0.0
 10
23.45032161310075
 20
9.642640830609015
 30
0.0
 10
23.43978637045795
 20
9.669668231113492
 30
0.0
 10
23.42887307489757
 20
9.696569199341022
 30
0.0
 10
23.41757911833233
 20
9.723343041094266
 30
0.0
 10
23.39622835778092
 20
9.77207917146329
 30
0.0
 10
23.36299774770997
 20
9.841998132494515
 30
0.0
 10
23.31505884109727
 20
9.931538255855074
 30
0.0
 10
23.26291339183662
 20
10.01869530992331
 30
0.0
 10
23.21602286454299
 20
10.08917043964214
 30
0.0
 10
23.17653463676624
 20
10.14415378572108
 30
0.0
 10
23.14591793791321
 20
10.18465005342177
 30
0.0
 10
23.11443387867724
 20
10.22440949838789
 30
0.0
 10
23.09265381847271
 20
10.25024586748084
 30
0.0
 10
23.08176655809821
 20
10.26316076646665
 30
0.0
  0
ARC
  5
131
330
1F
100
AcDbEntity
  8
0
  6
Continuous
 62
     7
370
    25
100
AcDbCircle
 10
21.5056818772
 20
8.8994908132
 30
0.0
 40
2.08172030608729
100
AcDbArc
 50
13.8593438022
 51
18.5215561542
  0
ARC
  5
132
330
1F
100
AcDbEntity
  8
0
  6
Continuous
 62
     7
370
    25
100
AcDbCircle
 10
21.512752414
 20
8.9012352706
 30
0.0
 40
2.074437750129786
100
AcDbArc
 50
7.3388243724
 51
13.8593438022
  0
ARC
  5
133
330
1F
100
AcDbEntity
  8
0
  6
Continuous
 62
     7
370
    25
100
AcDbCircle
 10
21.6072755682
 20
8.9134090728
 30
0.0
 40
1.979133999800942
100
AcDbArc
 50
4.7619526034
 51
7.3388243724
  0
SPLINE
  5
134
330
1F
100
AcDbEntity
  8
0
  6
Continuous
 62
     7
370
    25
100
AcDbSpline
210
0.0
220
0.0
230
1.0
 70
     8
 71
     3
 72
    15
 73
    11
 74
     0
 42
0.00000001
 43
0.00000001
 40
0.0
 40
0.0
 40
0.0
 40
0.0
 40
0.1249315068928125
 40
0.2498548509469704
 40
0.3747839053002179
 40
0.4997325411882387
 40
0.6247146233269063
 40
0.7497440053053583
 40
0.8748345249975755
 40
1.0
 40
1.0
 40
1.0
 40
1.0
 10
23.59005316655668
 20
8.822712521609125
 30
0.0
 10
23.59003243355571
 20
8.83334368412154
 30
0.0
 10
23.58999096890844
 20
8.854605314522036
 30
0.0
 10
23.58950262904684
 20
8.886494819987567
 30
0.0
 10
23.5887024581016
 20
8.918379049937954
 30
0.0
 10
23.58755928747816
 20
8.950257988084322
 30
0.0
 10
23.58608349117957
 20
8.982131805698263
 30
0.0
 10
23.5842647416212
 20
9.013999826609657
 30
0.0
 10
23.58213399350771
 20
9.04586457885809
 30
0.0
 10
23.58043034906046
 20
9.067092129691028
 30
0.0
 10
23.57957827170369
 20
9.077709084087605
 30
0.0
  0
SPLINE
  5
135
330
1F
100
AcDbEntity
  8
0
  6
Continuous
 62
     7
370
    25
100
AcDbSpline
210
0.0
220
0.0
230
1.0
 70
     8
 71
     3
 72
    10
 73
     6
 74
     0
 42
0.00000001
 43
0.00000001
 40
0.0
 40
0.0
 40
0.0
 40
0.0
 40
0.3198266682432558
 40
0.6531599913713454
 40
0.9999999999999999
 40
0.9999999999999999
 40
0.9999999999999999
 40
0.9999999999999999
 10
23.58680393377353
 20
6.683710870954409
 30
0.0
 10
23.58723684826021
 20
6.911747322003619
 30
0.0
 10
23.58812095971953
 20
7.37745047058024
 30
0.0
 10
23.58919585506649
 20
8.090451076995945
 30
0.0
 10
23.58976363777165
 20
8.575415280394363
 30
0.0
 10
23.59005316655668
 20
8.822712521609125
 30
0.0
  0
LINE
  5
136
330
1F
100
AcDbEntity
  8
0
  6
Continuous
 62
     7
370
    25
100
AcDbLine
 10
22.8365495641
 20
6.683710871
 30
0.0
 11
23.5868040018
 21
6.683710871
 31
0.0
  0
LINE
  5
137
330
1F
100
AcDbEntity
  8
0
  6
Continuous
 62
     7
370
    25
100
AcDbLine
 10
22.8365495641
 20
6.433710871
 30
0.0
 11
22.8365495641
 21
6.683710871
 31
0.0
  0
LINE
  5
138
330
1F
100
AcDbEntity
  8
0
  6
Continuous
 62
     7
370
    25
100
AcDbLine
 10
23.5868040018
 20
6.433710871
 30
0.0
 11
22.8365495641
 21
6.433710871
 31
0.0
  0
SPLINE
  5
139
330
1F
100
AcDbEntity
  8
0
  6
Continuous
 62
     7
370
    25
100
AcDbSpline
210
0.0
220
0.0
230
1.0
 70
     8
 71
     3
 72
     9
 73
     5
 74
     0
 42
0.00000001
 43
0.00000001
 40
0.0
 40
0.0
 40
0.0
 40
0.0
 40
0.5151950043453316
 40
0.9999999999999999
 40
0.9999999999999999
 40
0.9999999999999999
 40
0.9999999999999999
 10
23.59005316655668
 20
4.294709220299763
 30
0.0
 10
23.58961915552098
 20
4.662043731062784
 30
0.0
 10
23.58877673462784
 20
5.375044648511122
 30
0.0
 10
23.58744807472968
 20
6.088044823983038
 30
0.0
 10
23.58680393377353
 20
6.433710870954478
 30
0.0
  0
SPLINE
  5
13A
330
1F
100
AcDbEntity
  8
0
  6
Continuous
 62
     7
370
    25
100
AcDbSpline
210
0.0
220
0.0
230
1.0
 70
     8
 71
     3
 72
    15
 73
    11
 74
     0
 42
0.00000001
 43
0.00000001
 40
0.0
 40
0.0
 40
0.0
 40
0.0
 40
0.1251654750024224
 40
0.2502559946946429
 40
0.3752853766730928
 40
0.5002674588117604
 40
0.6252160946997811
 40
0.7501451490530276
 40
0.8750684931071886
 40
1.0
 40
1.0
 40
1.0
 40
1.0
 10
23.57957827170369
 20
4.039712657821282
 30
0.0
 10
23.58043034906046
 20
4.050329612217858
 30
0.0
 10
23.58213399350771
 20
4.071557163050798
 30
0.0
 10
23.5842647416212
 20
4.10342191529923
 30
0.0
 10
23.58608349117957
 20
4.135289936210625
 30
0.0
 10
23.58755928747816
 20
4.167163753824565
 30
0.0
 10
23.58870245810159
 20
4.199042691970934
 30
0.0
 10
23.58950262904684
 20
4.230926921921321
 30
0.0
 10
23.58999096890844
 20
4.262816427386851
 30
0.0
 10
23.59003243355571
 20
4.284078057787348
 30
0.0
 10
23.59005316655668
 20
4.294709220299762
 30
0.0
  0
ARC
  5
13B
330
1F
100
AcDbEntity
  8
0
  6
Continuous
 62
     7
370
    25
100
AcDbCircle
 10
21.6072755682
 20
4.2040126691
 30
0.0
 40
1.979133999800942
100
AcDbArc
 50
352.6611756276
 51
355.2380473966
  0
ARC
  5
13C
330
1F
100
AcDbEntity
  8
0
  6
Continuous
 62
     7
370
    25
100
AcDbCircle
 10
21.512752414
 20
4.2161864713
 30
0.0
 40
2.074437872508558
100
AcDbArc
 50
346.1406561978
 51
352.6611756276
  0
ARC
  5
13D
330
1F
100
AcDbEntity
  8
0
  6
Continuous
 62
     7
370
    25
100
AcDbCircle
 10
21.5056818772
 20
4.2179309287
 30
0.0
 40
2.08172030608729
100
AcDbArc
 50
341.4784438458
 51
346.1406561978
  0
SPLINE
  5
13E
330
1F
100
AcDbEntity
  8
0
  6
Continuous
 62
     7
370
    25
100
AcDbSpline
210
0.0
220
0.0
230
1.0
 70
     8
 71
     3
 72
    22
 73
    18
 74
     0
 42
0.00000001
 43
0.00000001
 40
0.0
 40
0.0
 40
0.0
 40
0.0
 40
0.0356462079850777
 40
0.071299812985201
 40
0.1069676188494173
 40
0.1426564213048594
 40
0.1783730040937075
 40
0.2141241351442754
 40
0.2499165627868689
 40
0.3748362345728791
 40
0.4998806843715493
 40
0.6249285622657813
 40
0.7499046614875275
 40
0.8125478598740791
 40
0.875087212773477
 40
0.9375590951792498
 40
1.0
 40
1.0
 40
1.0
 40
1.0
 10
23.08176655809821
 20
2.854260975442235
 30
0.0
 10
23.08800837354658
 20
2.861620459786913
 30
0.0
 10
23.10049329969477
 20
2.876340955657405
 30
0.0
 10
23.1188345860355
 20
2.8987509222817
 30
0.0
 10
23.13689386670871
 20
2.92140262561993
 30
0.0
 10
23.15464344067733
 20
2.944319762661413
 30
0.0
 10
23.17209071875605
 20
2.967495932061823
 30
0.0
 10
23.18923376675175
 20
2.990933011240441
 30
0.0
 10
23.22004160936055
 20
3.034287355974461
 30
0.0
 10
23.26290912518243
 20
3.098721283782304
 30
0.0
 10
23.31505171584039
 20
3.185870906540009
 30
0.0
 10
23.36299552552929
 20
3.27541730179139
 30
0.0
 10
23.39934110480262
 20
3.351897764183697
 30
0.0
 10
23.42620600508591
 20
3.414068292746644
 30
0.0
 10
23.4452077809677
 20
3.46118520774457
 30
0.0
 10
23.46313034027138
 20
3.508668222638109
 30
0.0
 10
23.47409629036833
 20
3.540657839410316
 30
0.0
 10
23.4795779056735
 20
3.556648681184611
 30
0.0
  0
SPLINE
  5
13F
330
1F
100
AcDbEntity
  8
0
  6
Continuous
 62
     7
370
    25
100
AcDbSpline
210
0.0
220
0.0
230
1.0
 70
     8
 71
     3
 72
    28
 73
    24
 74
     0
 42
0.00000001
 43
0.00000001
 40
0.0
 40
0.0
 40
0.0
 40
0.0
 40
0.0178459499468336
 40
0.035685450290652
 40
0.0535217783773718
 40
0.0713582133015635
 40
0.0891980340988786
 40
0.1070445179386552
 40
0.1249009383216524
 40
0.1873586520605156
 40
0.2498300817750797
 40
0.3122998628296688
 40
0.3747794576770998
 40
0.499715814812658
 40
0.6246872656873548
 40
0.687205094568665
 40
0.7497423925378552
 40
0.8122880128682727
 40
0.8748491938666695
 40
0.9061476522525109
 40
0.9374271762896418
 40
0.9687054101030415
 40
1.0
 40
1.0
 40
1.0
 40
1.0
 10
21.69643412866722
 20
2.126068154003371
 30
0.0
 10
21.70591435435358
 20
2.127098605545573
 30
0.0
 10
21.724871379532
 20
2.129159136220363
 30
0.0
 10
21.75324712661476
 20
2.132737591855134
 30
0.0
 10
21.78156990065029
 20
2.136672133948465
 30
0.0
 10
21.80983604053148
 20
2.140997806820787
 30
0.0
 10
21.83804648338578
 20
2.145705199138857
 30
0.0
 10
21.86620112408585
 20
2.15079691539659
 30
0.0
 10
21.91768547578094
 20
2.160828779551748
 30
0.0
 10
21.99212686437513
 20
2.177700580953235
 30
0.0
 10
22.08865967101302
 20
2.204454724873227
 30
0.0
 10
22.1838329144036
 20
2.23575196569459
 30
0.0
 10
22.30859228933626
 20
2.283452106797765
 30
0.0
 10
22.46012101218935
 20
2.354103290199357
 30
0.0
 10
22.60428410030608
 20
2.438816933061221
 30
0.0
 10
22.71440437397435
 20
2.514539228791932
 30
0.0
 10
22.7942453740968
 20
2.575219847075811
 30
0.0
 10
22.87114003791541
 20
2.639624600811556
 30
0.0
 10
22.93261074037306
 20
2.696296889367965
 30
0.0
 10
22.98014276298617
 20
2.743336611706106
 30
0.0
 10
23.01492844535187
 20
2.77946890451731
 30
0.0
 10
23.04890922300134
 20
2.816360728285244
 30
0.0
 10
23.07081220463892
 20
2.841625358392711
 30
0.0
 10
23.08176655809821
 20
2.854260975442235
 30
0.0
  0
SPLINE
  5
140
330
1F
100
AcDbEntity
  8
0
  6
Continuous
 62
     7
370
    25
100
AcDbSpline
210
0.0
220
0.0
230
1.0
 70
     8
 71
     3
 72
    19
 73
    15
 74
     0
 42
0.00000001
 43
0.00000001
 40
0.0
 40
0.0
 40
0.0
 40
0.0
 40
0.0833772909171337
 40
0.1667315994043188
 40
0.2500674183918701
 40
0.3333892438011221
 40
0.4167015738188612
 40
0.5000089081700113
 40
0.5833157473889888
 40
0.6666265920904524
 40
0.7499459422399855
 40
0.8332782964252693
 40
0.9166281511284236
 40
1.0
 40
1.0
 40
1.0
 40
1.0
 10
21.08484794976433
 20
2.089157312341247
 30
0.0
 10
21.10187904033
 20
2.08946944894402
 30
0.0
 10
21.13593652694751
 20
2.090093636111061
 30
0.0
 10
21.18700617770621
 20
2.091505084492869
 30
0.0
 10
21.23805335346021
 20
2.093264249056388
 30
0.0
 10
21.28907750077236
 20
2.095405231176679
 30
0.0
 10
21.34007876854394
 20
2.097918884582564
 30
0.0
 10
21.39105711176747
 20
2.100807702913971
 30
0.0
 10
21.44201255892198
 20
2.104070855885719
 30
0.0
 10
21.49294503841058
 20
2.107709171256782
 30
0.0
 10
21.54385480549914
 20
2.111720167739193
 30
0.0
 10
21.59474090786462
 20
2.116112944255195
 30
0.0
 10
21.64560689784813
 20
2.120853576775116
 30
0.0
 10
21.67949022841485
 20
2.124329808730768
 30
0.0
 10
21.69643412866722
 20
2.126068154003371
 30
0.0
  0
ARC
  5
141
330
1F
100
AcDbEntity
  8
0
  6
Continuous
 62
     7
370
    25
100
AcDbCircle
 10
21.5878553714
 20
-28.963932568
 30
0.0
 40
31.05716367840862
100
AcDbArc
 50
90.9280133529
 51
91.3203651933
  0
ARC
  5
142
330
1F
100
AcDbEntity
  8
0
  6
Continuous
 62
     7
370
    25
100
AcDbCircle
 10
23.4488835188
 20
-109.7068837078
 30
0.0
 40
111.8215592035442
100
AcDbArc
 50
91.3203651933
 51
91.5869790774
  0
ARC
  5
143
330
1F
100
AcDbEntity
  8
0
  6
Continuous
 62
     7
370
    25
100
AcDbCircle
 10
24.1062936105
 20
-133.4357351468
 30
0.0
 40
135.5595155201839
100
AcDbArc
 50
91.5869790774
 51
91.7054601027
  0
SPLINE
  5
144
330
1F
100
AcDbEntity
  8
0
  6
Continuous
 62
     7
370
    25
100
AcDbSpline
210
0.0
220
0.0
230
1.0
 70
     8
 71
     3
 72
     9
 73
     5
 74
     0
 42
0.00000001
 43
0.00000001
 40
0.0
 40
0.0
 40
0.0
 40
0.0
 40
0.5105638705683362
 40
0.9999999999999999
 40
0.9999999999999999
 40
0.9999999999999999
 40
0.9999999999999999
 10
19.89783973457941
 20
2.058441447928832
 30
0.0
 10
19.92745195463215
 20
2.059354982929725
 30
0.0
 10
19.98545100579842
 20
2.061144249764991
 30
0.0
 10
20.04345164544788
 20
2.062881256672421
 30
0.0
 10
20.07183925402248
 20
2.063731410609989
 30
0.0
  0
LINE
  5
145
330
1F
100
AcDbEntity
  8
0
  6
Continuous
 62
     7
370
    25
100
AcDbLine
 10
19.1358931627
 20
2.0349037965
 30
0.0
 11
19.8978397346
 21
2.0584414479
 31
0.0
  0
LINE
  5
146
330
1F
100
AcDbEntity
  8
0
  6
Continuous
 62
     7
370
    25
100
AcDbLine
 10
19.1358931626
 20
2.0348986483
 30
0.0
 11
19.1358931626
 21
2.3829723295
 31
0.0
  0
LINE
  5
147
330
1F
100
AcDbEntity
  8
0
  6
Continuous
 62
     7
370
    25
100
AcDbLine
 10
19.1358931626
 20
2.3829723295
 30
0.0
 11
19.0108931626
 21
2.3829723295
 31
0.0
  0
LINE
  5
148
330
1F
100
AcDbEntity
  8
0
  6
Continuous
 62
     7
370
    25
100
AcDbLine
 10
19.0108931626
 20
2.3829723295
 30
0.0
 11
19.0108931626
 21
2.0310466401
 31
0.0
  0
SPLINE
  5
149
330
1F
100
AcDbEntity
  8
0
  6
Continuous
 62
     7
370
    25
100
AcDbSpline
210
0.0
220
0.0
230
1.0
 70
     8
 71
     3
 72
    21
 73
    17
 74
     0
 42
0.00000001
 43
0.00000001
 40
0.0
 40
0.0
 40
0.0
 40
0.0
 40
0.0715283656152462
 40
0.1430283009925685
 40
0.2145030684261009
 40
0.2859559336572276
 40
0.3573901654312258
 40
0.4288090350518533
 40
0.5002158159341982
 40
0.5716137831560539
 40
0.6430062130081783
 40
0.7143963825437126
 40
0.7857875691270503
 40
0.8571830499825306
 40
0.9285861017432006
 40
1.0
 40
1.0
 40
1.0
 40
1.0
 10
16.89255419281668
 20
2.003976030583345
 30
0.0
 10
16.91162062600076
 20
2.002789692456949
 30
0.0
 10
16.94974591407147
 20
2.000417487735629
 30
0.0
 10
17.00695214873863
 20
1.997349351592417
 30
0.0
 10
17.06415603972639
 20
1.994641109499216
 30
0.0
 10
17.12135983880451
 20
1.99232785321646
 30
0.0
 10
17.17856294249486
 20
1.990400183898216
 30
0.0
 10
17.23576551187622
 20
1.988860622167242
 30
0.0
 10
17.29296750372048
 20
1.987708480821125
 30
0.0
 10
17.35016892776517
 20
1.986943989153733
 30
0.0
 10
17.4073697861156
 20
1.986566917207311
 30
0.0
 10
17.46457005845184
 20
1.986577955643449
 30
0.0
 10
17.52176982177991
 20
1.986974571822832
 30
0.0
 10
17.57896878620661
 20
1.987766206290521
 30
0.0
 10
17.63616803227224
 20
1.988917624813927
 30
0.0
 10
17.67429488227039
 20
1.990012674629148
 30
0.0
 10
17.69335975507636
 20
1.990560241119545
 30
0.0
  0
SPLINE
  5
14A
330
1F
100
AcDbEntity
  8
0
  6
Continuous
 62
     7
370
    25
100
AcDbSpline
210
0.0
220
0.0
230
1.0
 70
     8
 71
     3
 72
    17
 73
    13
 74
     0
 42
0.00000001
 43
0.00000001
 40
0.0
 40
0.0
 40
0.0
 40
0.0
 40
0.1000497259418654
 40
0.2000706881425348
 40
0.3000695242419426
 40
0.4000528762866841
 40
0.5000273894095295
 40
0.5999997105058087
 40
0.6999764869080616
 40
0.7999643650602375
 40
0.8999699891927903
 40
1.0
 40
1.0
 40
1.0
 40
1.0
 10
16.43187702973283
 20
2.052454669101724
 30
0.0
 10
16.44717146478283
 20
2.05024874410213
 30
0.0
 10
16.47775593781761
 20
2.045837528294142
 30
0.0
 10
16.52369344755731
 20
2.039695399546133
 30
0.0
 10
16.56966555417218
 20
2.033902253944995
 30
0.0
 10
16.615677239954
 20
2.028492100477607
 30
0.0
 10
16.66172715901486
 20
2.02345566542193
 30
0.0
 10
16.70781571039574
 20
2.018796044915558
 30
0.0
 10
16.75394263990318
 20
2.014510126757532
 30
0.0
 10
16.80010856171495
 20
2.010607265420787
 30
0.0
 10
16.84631126914275
 20
2.007053147768872
 30
0.0
 10
16.87713863218712
 20
2.00500181967212
 30
0.0
 10
16.89255419281668
 20
2.003976030583345
 30
0.0
  0
LINE
  5
14B
330
1F
100
AcDbEntity
  8
0
  6
Continuous
 62
     7
370
    25
100
AcDbLine
 10
16.6326287869
 20
2.3391579152
 30
0.0
 11
16.4318770342
 21
2.0524546997
 31
0.0
  0
LINE
  5
14C
330
1F
100
AcDbEntity
  8
0
  6
Continuous
 62
     7
370
    25
100
AcDbLine
 10
16.5302347814
 20
2.4108549697
 30
0.0
 11
16.6326287869
 21
2.3391579152
 31
0.0
  0
LINE
  5
14D
330
1F
100
AcDbEntity
  8
0
  6
Continuous
 62
     7
370
    25
100
AcDbLine
 10
16.2945695367
 20
2.0742901202
 30
0.0
 11
16.5302347814
 21
2.4108549697
 31
0.0
  0
ARC
  5
14E
330
1F
100
AcDbEntity
  8
0
  6
Continuous
 62
     7
370
    25
100
AcDbCircle
 10
17.2757269633
 20
7.8001358609
 30
0.0
 40
5.809301106176203
100
AcDbArc
 50
259.9952199219
 51
260.2764666217
  0
SPLINE
  5
14F
330
1F
100
AcDbEntity
  8
0
  6
Continuous
 62
     7
370
    25
100
AcDbSpline
210
0.0
220
0.0
230
1.0
 70
     8
 71
     3
 72
    19
 73
    15
 74
     0
 42
0.00000001
 43
0.00000001
 40
0.0
 40
0.0
 40
0.0
 40
0.0
 40
0.0833832433742075
 40
0.1667380868371321
 40
0.2500703217384513
 40
0.3333857441425004
 40
0.4166901536228836
 40
0.4999893520534888
 40
0.5832891423970499
 40
0.6665953274926181
 40
0.7499137088431158
 40
0.8332500854043272
 40
0.9166102523765248
 40
0.9999999999999999
 40
0.9999999999999999
 40
0.9999999999999999
 40
0.9999999999999999
 10
15.66907701729814
 20
2.21567927485127
 30
0.0
 10
15.68548874408712
 20
2.211096919713408
 30
0.0
 10
15.71830660791387
 20
2.201933770164684
 30
0.0
 10
15.76766916494914
 20
2.188711605874357
 30
0.0
 10
15.81711874805526
 20
2.175875518945991
 30
0.0
 10
15.86666585874991
 20
2.163462778332435
 30
0.0
 10
15.91630768100459
 20
2.151463388774536
 30
0.0
 10
15.96604497687712
 20
2.139880076865034
 30
0.0
 10
16.01587750914829
 20
2.128711930130636
 30
0.0
 10
16.06580546043486
 20
2.11795987341473
 30
0.0
 10
16.11582833302353
 20
2.107621120190196
 30
0.0
 10
16.16594793125426
 20
2.09770589530221
 30
0.0
 10
16.2161575285593
 20
2.08817607229028
 30
0.0
 10
16.24970060628506
 20
2.08217589358257
 30
0.0
 10
16.26647512034012
 20
2.079175272026962
 30
0.0
  0
SPLINE
  5
150
330
1F
100
AcDbEntity
  8
0
  6
Continuous
 62
     7
370
    25
100
AcDbSpline
210
0.0
220
0.0
230
1.0
 70
     8
 71
     3
 72
    21
 73
    17
 74
     0
 42
0.00000001
 43
0.00000001
 40
0.0
 40
0.0
 40
0.0
 40
0.0
 40
0.0714684269776847
 40
0.142911690165977
 40
0.2143345416218443
 40
0.2857417374773781
 40
0.3571380369934054
 40
0.428528201609981
 40
0.4999169939947088
 40
0.5713091770898191
 40
0.642709513158985
 40
0.7141227628348107
 40
0.7855536841679583
 40
0.8570070316788388
 40
0.9284875554128396
 40
1.0
 40
1.0
 40
1.0
 40
1.0
 10
15.00329031798121
 20
2.445051648650718
 30
0.0
 10
15.01883674829257
 20
2.438723645906152
 30
0.0
 10
15.0499241350702
 20
2.426069868485205
 30
0.0
 10
15.0967422214014
 20
2.407574810361252
 30
0.0
 10
15.143685239954
 20
2.389440202108526
 30
0.0
 10
15.19076733892636
 20
2.371700571385559
 30
0.0
 10
15.23798472780119
 20
2.354346669672685
 30
0.0
 10
15.28533842209
 20
2.337380978000287
 30
0.0
 10
15.33282814547943
 20
2.320802819712077
 30
0.0
 10
15.38045398413826
 20
2.30461242230584
 30
0.0
 10
15.4282158658605
 20
2.288809553665784
 30
0.0
 10
15.47611398949512
 20
2.273394916098366
 30
0.0
 10
15.52414762773521
 20
2.258365932726685
 30
0.0
 10
15.57231948816405
 20
2.243732213654789
 30
0.0
 10
15.62061945869668
 20
2.229457877976027
 30
0.0
 10
15.6529220940851
 20
2.220272826030648
 30
0.0
 10
15.66907701729814
 20
2.21567927485127
 30
0.0
  0
SPLINE
  5
151
330
1F
100
AcDbEntity
  8
0
  6
Continuous
 62
     7
370
    25
100
AcDbSpline
210
0.0
220
0.0
230
1.0
 70
     8
 71
     3
 72
    12
 73
     8
 74
     0
 42
0.00000001
 43
0.00000001
 40
0.0
 40
0.0
 40
0.0
 40
0.0
 40
0.1995719894989743
 40
0.3993441009410925
 40
0.5993302401995764
 40
0.7995442685517078
 40
1.0
 40
1.0
 40
1.0
 40
1.0
 10
14.76930847023455
 20
2.546655717230875
 30
0.0
 10
14.78474772461012
 20
2.539610150388388
 30
0.0
 10
14.81564171516107
 20
2.525511951721346
 30
0.0
 10
14.86222836085042
 20
2.504843882882378
 30
0.0
 10
14.90902616393275
 20
2.484522603494898
 30
0.0
 10
14.9560367846959
 20
2.464547905726647
 30
0.0
 10
14.98753280691884
 20
2.45155301405537
 30
0.0
 10
15.00329031798121
 20
2.445051648650718
 30
0.0
  0
SPLINE
  5
152
330
1F
100
AcDbEntity
  8
0
  6
Continuous
 62
     7
370
    25
100
AcDbSpline
210
0.0
220
0.0
230
1.0
 70
     8
 71
     3
 72
    16
 73
    12
 74
     0
 42
0.00000001
 43
0.00000001
 40
0.0
 40
0.0
 40
0.0
 40
0.0
 40
0.1137694641768692
 40
0.2268697867547985
 40
0.3393028670496967
 40
0.4510706383936476
 40
0.5621750688499372
 40
0.6726181619434676
 40
0.7824019574068456
 40
0.8915285319423386
 40
1.0
 40
1.0
 40
1.0
 40
1.0
 10
14.00524576196833
 20
2.879815111026647
 30
0.0
 10
14.03443926614332
 20
2.867687413994329
 30
0.0
 10
14.09265457123177
 20
2.843503349672188
 30
0.0
 10
14.1795333165484
 20
2.806886114647045
 30
0.0
 10
14.26575911796874
 20
2.770154014131334
 30
0.0
 10
14.35131895959295
 20
2.733275590829037
 30
0.0
 10
14.43621601166369
 20
2.69625857439846
 30
0.0
 10
14.52045049403296
 20
2.659103221052646
 30
0.0
 10
14.60401842319875
 20
2.621800920664513
 30
0.0
 10
14.68693537672809
 20
2.584385551959729
 30
0.0
 10
14.74190593767864
 20
2.559207061128203
 30
0.0
 10
14.76930847023454
 20
2.546655717230874
 30
0.0
  0
LINE
  5
153
330
1F
100
AcDbEntity
  8
0
  6
Continuous
 62
     7
370
    25
100
AcDbLine
 10
13.7722949003
 20
2.9720554071
 30
0.0
 11
14.005245762
 21
2.879815111
 31
0.0
  0
ARC
  5
154
330
1F
100
AcDbEntity
  8
0
  6
Continuous
 62
     7
370
    25
100
AcDbCircle
 10
13.7907025987
 20
3.0185436491
 30
0.0
 40
0.0499999999999999
100
AcDbArc
 50
180.0
 51
248.398187329
  0
LINE
  5
155
330
1F
100
AcDbEntity
  8
0
  6
Continuous
 62
     7
370
    25
100
AcDbLine
 10
13.7407025987
 20
3.0185436491
 30
0.0
 11
13.7407025987
 21
3.448759961
 31
0.0
  0
ARC
  5
156
330
1F
100
AcDbEntity
  8
0
  6
Continuous
 62
     7
370
    25
100
AcDbCircle
 10
13.7907025987
 20
3.448759961
 30
0.0
 40
0.0500000000000003
100
AcDbArc
 50
68.398187329
 51
180.0
  0
LINE
  5
157
330
1F
100
AcDbEntity
  8
0
  6
Continuous
 62
     7
370
    25
100
AcDbLine
 10
13.8091102971
 20
3.4952482029
 30
0.0
 11
14.1929375661
 21
3.3432661897
 31
0.0
  0
SPLINE
  5
158
330
1F
100
AcDbEntity
  8
0
  6
Continuous
 62
     7
370
    25
100
AcDbSpline
210
0.0
220
0.0
230
1.0
 70
     8
 71
     3
 72
    15
 73
    11
 74
     0
 42
0.00000001
 43
0.00000001
 40
0.0
 40
0.0
 40
0.0
 40
0.0
 40
0.0312500000000004
 40
0.0312500000000004
 40
0.0625000000000008
 40
0.1250000000000016
 40
0.2500000000000003
 40
0.5000000000000013
 40
0.5000000000000013
 40
1.0
 40
1.0
 40
1.0
 40
1.0
 10
14.19293756614576
 20
3.343266189681704
 30
0.0
 10
14.20099645993785
 20
3.339929267593305
 30
0.0
 10
14.20932030636097
 20
3.336480117878764
 30
0.0
 10
14.22577623548928
 20
3.32964801583885
 30
0.0
 10
14.25045708094488
 20
3.319385018022812
 30
0.0
 10
14.30802308966734
 20
3.295334058965583
 30
0.0
 10
14.42305424426685
 20
3.246815868717556
 30
0.0
 10
14.52144402979594
 20
3.20451378959629
 30
0.0
 10
14.71785146436105
 20
3.118951984298766
 30
0.0
 10
14.84829350790928
 20
3.060634086299744
 30
0.0
 10
14.97798848821094
 20
3.001026346506827
 30
0.0
  0
SPLINE
  5
159
330
1F
100
AcDbEntity
  8
0
  6
Continuous
 62
     7
370
    25
100
AcDbSpline
210
0.0
220
0.0
230
1.0
 70
     8
 71
     3
 72
     8
 73
     4
 74
     0
 42
0.00000001
 43
0.00000001
 40
0.0
 40
0.0
 40
0.0
 40
0.0
 40
1.0
 40
1.0
 40
1.0
 40
1.0
 10
14.97798848042208
 20
3.001026329559767
 30
0.0
 10
15.04888870928236
 20
2.968463791227837
 30
0.0
 10
15.12054535249213
 20
2.937355264772134
 30
0.0
 10
15.19288077514905
 20
2.907712927083164
 30
0.0
  0
SPLINE
  5
15A
330
1F
100
AcDbEntity
  8
0
  6
Continuous
 62
     7
370
    25
100
AcDbSpline
210
0.0
220
0.0
230
1.0
 70
     8
 71
     3
 72
     8
 73
     4
 74
     0
 42
0.00000001
 43
0.00000001
 40
0.0
 40
0.0
 40
0.0
 40
0.0
 40
1.0
 40
1.0
 40
1.0
 40
1.0
 10
15.19288077742501
 20
2.907712926139864
 30
0.0
 10
15.39240617628313
 20
2.825950924691393
 30
0.0
 10
15.59683501353305
 20
2.755512285006624
 30
0.0
 10
15.8046970903392
 20
2.696935127585013
 30
0.0
  0
SPLINE
  5
15B
330
1F
100
AcDbEntity
  8
0
  6
Continuous
 62
     7
370
    25
100
AcDbSpline
210
0.0
220
0.0
230
1.0
 70
     8
 71
     3
 72
     8
 73
     4
 74
     0
 42
0.00000001
 43
0.00000001
 40
0.0
 40
0.0
 40
0.0
 40
0.0
 40
0.4684982142704144
 40
0.4684982142704144
 40
0.4684982142704144
 40
0.4684982142704144
 10
15.80469708973838
 20
2.696935127752099
 30
0.0
 10
15.88928226967112
 20
2.67309864210584
 30
0.0
 10
15.97445467899984
 20
2.651238537355804
 30
0.0
 10
16.06010950953547
 20
2.631381633731153
 30
0.0
  0
ARC
  5
15C
330
1F
100
AcDbEntity
  8
0
  6
Continuous
 62
     7
370
    25
100
AcDbCircle
 10
16.1052766244
 20
2.8262147206
 30
0.0
 40
0.200000000000001
100
AcDbArc
 50
256.9479821997
 51
280.0
  0
LINE
  5
15D
330
1F
100
AcDbEntity
  8
0
  6
Continuous
 62
     7
370
    25
100
AcDbLine
 10
16.5388083624
 20
2.6995727406
 30
0.0
 11
16.14000626
 21
2.62925317
 31
0.0
  0
ARC
  5
15E
330
1F
100
AcDbEntity
  8
0
  6
Continuous
 62
     7
370
    25
100
AcDbCircle
 10
16.5735379979
 20
2.50261119
 30
0.0
 40
0.2000000000000005
100
AcDbArc
 50
55.0
 51
100.0
  0
LINE
  5
15F
330
1F
100
AcDbEntity
  8
0
  6
Continuous
 62
     7
370
    25
100
AcDbLine
 10
16.8752370622
 20
2.5355141486
 30
0.0
 11
16.6882532852
 21
2.6664415989
 31
0.0
  0
ARC
  5
160
330
1F
100
AcDbEntity
  8
0
  6
Continuous
 62
     7
370
    25
100
AcDbCircle
 10
16.9899523495
 20
2.6993445575
 30
0.0
 40
0.2000000000000008
100
AcDbArc
 50
235.0
 51
266.7169646222
  0
SPLINE
  5
161
330
1F
100
AcDbEntity
  8
0
  6
Continuous
 62
     7
370
    25
100
AcDbSpline
210
0.0
220
0.0
230
1.0
 70
     8
 71
     3
 72
     8
 73
     4
 74
     0
 42
0.00000001
 43
0.00000001
 40
0.0717493172483266
 40
0.0717493172483266
 40
0.0717493172483266
 40
0.0717493172483266
 40
1.0
 40
1.0
 40
1.0
 40
1.0
 10
16.97849866410084
 20
2.49967279411643
 30
0.0
 10
17.21112225717171
 20
2.486328907120737
 30
0.0
 10
17.44481069455401
 20
2.483170705348745
 30
0.0
 10
17.67802840866879
 20
2.490325135662301
 30
0.0
  0
LWPOLYLINE
  5
162
330
1F
100
AcDbEntity
  8
0
  6
Continuous
 62
     7
370
    25
100
AcDbPolyline
 90
        3
 70
   128
 43
0.0
 10
17.6780284087
 20
2.4903251357
 10
18.234693043
 20
2.5074107476
 10
18.6719837365
 20
2.5208510094
  0
ARC
  5
163
330
1F
100
AcDbEntity
  8
0
  6
Continuous
 62
     7
370
    25
100
AcDbCircle
 10
18.6658345774
 20
2.7207564567
 30
0.0
 40
0.2000000000000007
100
AcDbArc
 50
271.7618819932
 51
315.0000000001
  0
LINE
  5
164
330
1F
100
AcDbEntity
  8
0
  6
Continuous
 62
     7
370
    25
100
AcDbLine
 10
18.8072559336
 20
2.5793351005
 30
0.0
 11
18.8523145189
 21
2.6243936857
 31
0.0
  0
ARC
  5
165
330
1F
100
AcDbEntity
  8
0
  6
Continuous
 62
     7
370
    25
100
AcDbCircle
 10
18.9937358751
 20
2.4829723295
 30
0.0
 40
0.2000000000000021
100
AcDbArc
 50
89.9999999999
 51
135.0000000001
  0
LINE
  5
166
330
1F
100
AcDbEntity
  8
0
  6
Continuous
 62
     7
370
    25
100
AcDbLine
 10
18.9937358751
 20
2.6829723295
 30
0.0
 11
19.1530504502
 21
2.6829723295
 31
0.0
  0
ARC
  5
167
330
1F
100
AcDbEntity
  8
0
  6
Continuous
 62
     7
370
    25
100
AcDbCircle
 10
19.1530504502
 20
2.4829723295
 30
0.0
 40
0.1999999999999999
100
AcDbArc
 50
44.9999999999
 51
89.9999999999
  0
LINE
  5
168
330
1F
100
AcDbEntity
  8
0
  6
Continuous
 62
     7
370
    25
100
AcDbLine
 10
19.2944718064
 20
2.6243936857
 30
0.0
 11
19.3151597345
 21
2.6037057576
 31
0.0
  0
ARC
  5
169
330
1F
100
AcDbEntity
  8
0
  6
Continuous
 62
     7
370
    25
100
AcDbCircle
 10
19.4565810907
 20
2.7451271139
 30
0.0
 40
0.2000000000000008
100
AcDbArc
 50
224.9999999999
 51
271.7692142161
  0
LWPOLYLINE
  5
16A
330
1F
100
AcDbEntity
  8
0
  6
Continuous
 62
     7
370
    25
100
AcDbPolyline
 90
        3
 70
   128
 43
0.0
 10
19.462755832
 20
2.5452224552
 10
19.6977409388
 20
2.5524863973
 10
19.8823577664
 20
2.5582016991
  0
SPLINE
  5
16B
330
1F
100
AcDbEntity
  8
0
  6
Continuous
 62
     7
370
    25
100
AcDbSpline
210
0.0
220
0.0
230
1.0
 70
     8
 71
     3
 72
     8
 73
     4
 74
     0
 42
0.00000001
 43
0.00000001
 40
0.0
 40
0.0
 40
0.0
 40
0.0
 40
1.0
 40
1.0
 40
1.0
 40
1.0
 10
19.88235776640361
 20
2.55820169911074
 30
0.0
 10
19.94053041056709
 20
2.560003817273421
 30
0.0
 10
19.99873104858387
 20
2.56177622050807
 30
0.0
 10
20.05695850463441
 20
2.563509924851698
 30
0.0
  0
ARC
  5
16C
330
1F
100
AcDbEntity
  8
0
  6
Continuous
 62
     7
370
    25
100
AcDbCircle
 10
24.1062936105
 20
-133.4357351468
 30
0.0
 40
136.0595156552687
100
AcDbArc
 50
91.5869790774
 51
91.7054601027
  0
ARC
  5
16D
330
1F
100
AcDbEntity
  8
0
  6
Continuous
 62
     7
370
    25
100
AcDbCircle
 10
23.4488835188
 20
-109.7068837078
 30
0.0
 40
112.3215591585375
100
AcDbArc
 50
91.3968006957
 51
91.5869790774
  0
LINE
  5
16E
330
1F
100
AcDbEntity
  8
0
  6
Continuous
 62
     7
370
    25
100
AcDbLine
 10
20.7108931626
 20
10.5361223419
 30
0.0
 11
20.7108931626
 21
2.5812993775
 31
0.0
  0
ARC
  5
16F
330
1F
100
AcDbEntity
  8
0
  6
Continuous
 62
     7
370
    25
100
AcDbCircle
 10
23.4488835188
 20
122.8243054497
 30
0.0
 40
112.3215591810408
100
AcDbArc
 50
268.4130209226
 51
268.6031993046
  0
ARC
  5
170
330
1F
100
AcDbEntity
  8
0
  6
Continuous
 62
     7
370
    25
100
AcDbCircle
 10
24.1062936105
 20
146.5531568887
 30
0.0
 40
136.0595155201839
100
AcDbArc
 50
268.2945398973
 51
268.4130209226
  0
SPLINE
  5
171
330
1F
100
AcDbEntity
  8
0
  6
Continuous
 62
     7
370
    25
100
AcDbSpline
210
0.0
220
0.0
230
1.0
 70
     8
 71
     3
 72
     8
 73
     4
 74
     0
 42
0.00000001
 43
0.00000001
 40
0.0
 40
0.0
 40
0.0
 40
0.0
 40
1.0
 40
1.0
 40
1.0
 40
1.0
 10
20.05695850463441
 20
10.55391181705719
 30
0.0
 10
19.99873106279531
 20
10.55564552097767
 30
0.0
 10
19.94053043897688
 20
10.55741792377029
 30
0.0
 10
19.88235780899775
 20
10.55922004147863
 30
0.0
  0
LWPOLYLINE
  5
172
330
1F
100
AcDbEntity
  8
0
  6
Continuous
 62
     7
370
    25
100
AcDbPolyline
 90
        3
 70
   128
 43
0.0
 10
19.882357809
 20
10.5592200415
 10
19.6473887348
 20
10.5664928211
 10
19.462755832
 20
10.5721992867
  0
ARC
  5
173
330
1F
100
AcDbEntity
  8
0
  6
Continuous
 62
     7
370
    25
100
AcDbCircle
 10
19.4565810907
 20
10.372294628
 30
0.0
 40
0.2000000000000003
100
AcDbArc
 50
88.2307857839
 51
135.0000000001
  0
LINE
  5
174
330
1F
100
AcDbEntity
  8
0
  6
Continuous
 62
     7
370
    25
100
AcDbLine
 10
19.2944718064
 20
10.4930280562
 30
0.0
 11
19.3151597345
 21
10.5137159843
 31
0.0
  0
ARC
  5
175
330
1F
100
AcDbEntity
  8
0
  6
Continuous
 62
     7
370
    25
100
AcDbCircle
 10
19.1530504502
 20
10.6344494125
 30
0.0
 40
0.2000000000000028
100
AcDbArc
 50
270.0000000001
 51
315.0000000001
  0
LINE
  5
176
330
1F
100
AcDbEntity
  8
0
  6
Continuous
 62
     7
370
    25
100
AcDbLine
 10
18.9937358751
 20
10.4344494125
 30
0.0
 11
19.1530504502
 21
10.4344494125
 31
0.0
  0
ARC
  5
177
330
1F
100
AcDbEntity
  8
0
  6
Continuous
 62
     7
370
    25
100
AcDbCircle
 10
18.9937358751
 20
10.6344494125
 30
0.0
 40
0.2000000000000021
100
AcDbArc
 50
224.9999999999
 51
270.0000000001
  0
LINE
  5
178
330
1F
100
AcDbEntity
  8
0
  6
Continuous
 62
     7
370
    25
100
AcDbLine
 10
18.8072559336
 20
10.5380866415
 30
0.0
 11
18.8523145189
 21
10.4930280562
 31
0.0
  0
ARC
  5
179
330
1F
100
AcDbEntity
  8
0
  6
Continuous
 62
     7
370
    25
100
AcDbCircle
 10
18.6658345774
 20
10.3966652852
 30
0.0
 40
0.2000000000000021
100
AcDbArc
 50
44.9999999999
 51
88.2381180068
  0
LWPOLYLINE
  5
17A
330
1F
100
AcDbEntity
  8
0
  6
Continuous
 62
     7
370
    25
100
AcDbPolyline
 90
        3
 70
   128
 43
0.0
 10
18.6719837365
 20
10.5965707325
 10
18.1154185479
 20
10.6136736712
 10
17.6780284427
 20
10.6270966052
  0
SPLINE
  5
17B
330
1F
100
AcDbEntity
  8
0
  6
Continuous
 62
     7
370
    25
100
AcDbSpline
210
0.0
220
0.0
230
1.0
 70
     8
 71
     3
 72
     8
 73
     4
 74
     0
 42
0.00000001
 43
0.00000001
 40
0.0
 40
0.0
 40
0.0
 40
0.0
 40
0.9282543918304828
 40
0.9282543918304828
 40
0.9282543918304828
 40
0.9282543918304828
 10
17.67802844272531
 20
10.62709660520183
 30
0.0
 10
17.44481071729993
 20
10.6342510368673
 30
0.0
 10
17.21112226848917
 20
10.63109283547287
 30
0.0
 10
16.9784986640887
 20
10.61774894779933
 30
0.0
  0
ARC
  5
17C
330
1F
100
AcDbEntity
  8
0
  6
Continuous
 62
     7
370
    25
100
AcDbCircle
 10
16.9899523495
 20
10.4180771844
 30
0.0
 40
0.2000000000000006
100
AcDbArc
 50
93.2830353846
 51
125.0
  0
LINE
  5
17D
330
1F
100
AcDbEntity
  8
0
  6
Continuous
 62
     7
370
    25
100
AcDbLine
 10
16.8752370622
 20
10.5819075933
 30
0.0
 11
16.6882532852
 21
10.4509801431
 31
0.0
  0
ARC
  5
17E
330
1F
100
AcDbEntity
  8
0
  6
Continuous
 62
     7
370
    25
100
AcDbCircle
 10
16.5735379979
 20
10.6148105519
 30
0.0
 40
0.1999999999999992
100
AcDbArc
 50
260.0
 51
305.0
  0
LINE
  5
17F
330
1F
100
AcDbEntity
  8
0
  6
Continuous
 62
     7
370
    25
100
AcDbLine
 10
16.5388083624
 20
10.4178490013
 30
0.0
 11
16.14000626
 21
10.4881685719
 31
0.0
  0
ARC
  5
180
330
1F
100
AcDbEntity
  8
0
  6
Continuous
 62
     7
370
    25
100
AcDbCircle
 10
16.1052766244
 20
10.2912070213
 30
0.0
 40
0.2000000125768188
100
AcDbArc
 50
80.0
 51
103.0520271539
  0
SPLINE
  5
181
330
1F
100
AcDbEntity
  8
0
  6
Continuous
 62
     7
370
    25
100
AcDbSpline
210
0.0
220
0.0
230
1.0
 70
     8
 71
     3
 72
     8
 73
     4
 74
     0
 42
0.00000001
 43
0.00000001
 40
0.5315031647843701
 40
0.5315031647843701
 40
0.5315031647843701
 40
0.5315031647843701
 40
1.0
 40
1.0
 40
1.0
 40
1.0
 10
16.06010947488829
 20
10.48604011305601
 30
0.0
 10
15.97445511377902
 20
10.46618330483993
 30
0.0
 10
15.88928316469061
 20
10.44432332926342
 30
0.0
 10
15.80469843806152
 20
10.42048699412016
 30
0.0
  0
SPLINE
  5
182
330
1F
100
AcDbEntity
  8
0
  6
Continuous
 62
     7
370
    25
100
AcDbSpline
210
0.0
220
0.0
230
1.0
 70
     8
 71
     3
 72
     8
 73
     4
 74
     0
 42
0.00000001
 43
0.00000001
 40
0.0
 40
0.0
 40
0.0
 40
0.0
 40
1.0
 40
1.0
 40
1.0
 40
1.0
 10
15.80469844109186
 20
10.42048699497635
 30
0.0
 10
15.59683686550689
 20
10.36191003436346
 30
0.0
 10
15.39240850922443
 20
10.29147164928712
 30
0.0
 10
15.19288356017906
 20
10.20970995609186
 30
0.0
  0
SPLINE
  5
183
330
1F
100
AcDbEntity
  8
0
  6
Continuous
 62
     7
370
    25
100
AcDbSpline
210
0.0
220
0.0
230
1.0
 70
     8
 71
     3
 72
     8
 73
     4
 74
     0
 42
0.00000001
 43
0.00000001
 40
0.0
 40
0.0
 40
0.0
 40
0.0
 40
1.0
 40
1.0
 40
1.0
 40
1.0
 10
15.19288356017533
 20
10.20970995610097
 30
0.0
 10
15.12058991990444
 20
10.18008478516406
 30
0.0
 10
15.04897427368748
 20
10.14899511936282
 30
0.0
 10
14.97811412234344
 20
10.11645311436589
 30
0.0
  0
SPLINE
  5
184
330
1F
100
AcDbEntity
  8
0
  6
Continuous
 62
     7
370
    25
100
AcDbSpline
210
0.0
220
0.0
230
1.0
 70
     8
 71
     3
 72
    15
 73
    11
 74
     0
 42
0.00000001
 43
0.00000001
 40
0.0
 40
0.0
 40
0.0
 40
0.0
 40
0.5000000000000021
 40
0.5000000000000021
 40
0.7500000000000031
 40
0.8750000000000016
 40
0.9375000000000012
 40
0.9687500000000007
 40
0.9687500000000007
 40
1.0
 40
1.0
 40
1.0
 40
1.0
 10
14.97811411365077
 20
10.11645313329418
 30
0.0
 10
14.84839867820137
 20
10.05683493739064
 30
0.0
 10
14.71793585740707
 20
9.998507004378789
 30
0.0
 10
14.52149695569434
 20
9.912930767688009
 30
0.0
 10
14.42309136128755
 20
9.87062162819578
 30
0.0
 10
14.30804167116217
 20
9.822095470783843
 30
0.0
 10
14.25046637672302
 20
9.798040595419964
 30
0.0
 10
14.22578154836384
 20
9.787775933581063
 30
0.0
 10
14.2093229632904
 20
9.780942725388947
 30
0.0
 10
14.20099776094448
 20
9.777493013019521
 30
0.0
 10
14.19293756614604
 20
9.774155552227302
 30
0.0
  0
LINE
  5
185
330
1F
100
AcDbEntity
  8
0
  6
Continuous
 62
     7
370
    25
100
AcDbLine
 10
14.1929375661
 20
9.7741555522
 30
0.0
 11
13.8091102971
 21
9.622173539
 31
0.0
  0
ARC
  5
186
330
1F
100
AcDbEntity
  8
0
  6
Continuous
 62
     7
370
    25
100
AcDbCircle
 10
13.7907025987
 20
9.6686617809
 30
0.0
 40
0.0499999999999995
100
AcDbArc
 50
180.0
 51
291.601812671
  0
LINE
  5
187
330
1F
100
AcDbEntity
  8
0
  6
Continuous
 62
     7
370
    25
100
AcDbLine
 10
13.7407025987
 20
9.6686617809
 30
0.0
 11
13.7407025987
 21
10.0988780928
 31
0.0
  0
ARC
  5
188
330
1F
100
AcDbEntity
  8
0
  6
Continuous
 62
     7
370
    25
100
AcDbCircle
 10
13.7907025987
 20
10.0988780928
 30
0.0
 40
0.0499999999999989
100
AcDbArc
 50
111.601812671
 51
180.0
  0
LINE
  5
189
330
1F
100
AcDbEntity
  8
0
  6
Continuous
 62
     7
370
    25
100
AcDbLine
 10
14.005245762
 20
10.2376066309
 30
0.0
 11
13.7722949003
 21
10.1453663348
 31
0.0
  0
LINE
  5
18A
330
1F
100
AcDbEntity
  8
0
  6
Continuous
 62
     7
370
    25
100
AcDbLine
 10
17.6933597551
 20
1.9905602411
 30
0.0
 11
19.0108931627
 21
2.0310522302
 31
0.0
  0
MTEXT
  5
18B
330
1F
100
AcDbEntity
  8
PART_NAMES
100
AcDbMText
 10
22.357994179
 20
6.3844746572
 30
0.0
 40
0.1666666667
 41
0.0
 71
     1
 72
     1
  1
BH3
  7
SLDTEXTSTYLE0
 11
-3.491481338843133E-15
 21
1.0
 31
0.0
 73
     1
 44
1.0
  0
ARC
  5
18C
330
1F
100
AcDbEntity
  8
0
  6
Continuous
 62
     7
370
    25
100
AcDbCircle
 10
4.4282905948
 20
9.4290570589
 30
0.0
 40
0.05000000000003
100
AcDbArc
 50
180.0
 51
266.150035783
  0
LINE
  5
18D
330
1F
100
AcDbEntity
  8
0
  6
Continuous
 62
     7
370
    25
100
AcDbLine
 10
4.3782905948
 20
9.6795779298
 30
0.0
 11
4.3782905948
 21
9.4290570589
 31
0.0
  0
ARC
  5
18E
330
1F
100
AcDbEntity
  8
0
  6
Continuous
 62
     7
370
    25
100
AcDbCircle
 10
4.4282905948
 20
9.6795779298
 30
0.0
 40
0.0499999999999991
100
AcDbArc
 50
86.150474047
 51
180.0
  0
SPLINE
  5
18F
330
1F
100
AcDbEntity
  8
0
  6
Continuous
 62
     7
370
    25
100
AcDbSpline
210
0.0
220
0.0
230
1.0
 70
     8
 71
     3
 72
    14
 73
    10
 74
     0
 42
0.00000001
 43
0.00000001
 40
0.4142279856671174
 40
0.4142279856671174
 40
0.4142279856671174
 40
0.4142279856671174
 40
0.5
 40
0.5
 40
0.5625
 40
0.5625
 40
0.59375
 40
0.59375
 40
0.593977088680723
 40
0.593977088680723
 40
0.593977088680723
 40
0.593977088680723
 10
4.43164741312622
 20
9.729465120276679
 30
0.0
 10
5.519964114207581
 20
9.656234269023598
 30
0.0
 10
6.608072334600515
 20
9.579926451991783
 30
0.0
 10
8.488507079643771
 20
9.440606509802752
 30
0.0
 10
9.280998507319307
 20
9.379569853666235
 30
0.0
 10
10.46935132719787
 20
9.283546460297732
 30
0.0
 10
10.86540394660179
 20
9.250790618128374
 30
0.0
 10
11.26426229052447
 20
9.21696423054887
 30
0.0
 10
11.26713981510016
 20
9.216720149590932
 30
0.0
 10
11.27001733588973
 20
9.216476025052126
 30
0.0
  0
ARC
  5
190
330
1F
100
AcDbEntity
  8
0
  6
Continuous
 62
     7
370
    25
100
AcDbCircle
 10
11.2657905948
 20
9.1666549988
 30
0.0
 40
0.0500000000000309
100
AcDbArc
 50
360.0
 51
85.1507242712
  0
LINE
  5
191
330
1F
100
AcDbEntity
  8
0
  6
Continuous
 62
     7
370
    25
100
AcDbLine
 10
11.3157905948
 20
8.9159042752
 30
0.0
 11
11.3157905948
 21
9.1666549988
 31
0.0
  0
ARC
  5
192
330
1F
100
AcDbEntity
  8
0
  6
Continuous
 62
     7
370
    25
100
AcDbCircle
 10
11.2657905948
 20
8.9159042752
 30
0.0
 40
0.0499999999999995
100
AcDbArc
 50
265.1468549676
 51
360.0
  0
SPLINE
  5
193
330
1F
100
AcDbEntity
  8
0
  6
Continuous
 62
     7
370
    25
100
AcDbSpline
210
0.0
220
0.0
230
1.0
 70
     8
 71
     3
 72
    10
 73
     6
 74
     0
 42
0.00000001
 43
0.00000001
 40
0.4146690257943668
 40
0.4146690257943668
 40
0.4146690257943668
 40
0.4146690257943668
 40
0.5
 40
0.5625
 40
0.5945324365236899
 40
0.5945324365236899
 40
0.5945324365236899
 40
0.5945324365236899
 10
4.424933394923051
 20
9.3791698941137
 30
0.0
 10
5.507006210581017
 20
9.306350868137892
 30
0.0
 10
7.381064473220047
 20
9.17488379878569
 30
0.0
 10
9.65940072730181
 20
8.999262910492277
 30
0.0
 10
10.85618266503129
 20
8.900502753022996
 30
0.0
 10
11.26156048932536
 20
8.86608353449305
 30
0.0
  0
MTEXT
  5
194
330
1F
100
AcDbEntity
  8
PART_NAMES
100
AcDbMText
 10
6.9577676025
 20
9.4613052755
 30
0.0
 40
0.1666666667
 41
0.0
 71
     1
 72
     1
  1
TSmR
  7
SLDTEXTSTYLE0
 11
0.9975640502598242
 21
-0.06975647374412546
 31
0.0
 73
     1
 44
1.0
  0
ARC
  5
195
330
1F
100
AcDbEntity
  8
0
  6
Continuous
 62
     7
370
    25
100
AcDbCircle
 10
13.2804627637
 20
8.9159042752
 30
0.0
 40
0.0499999999999995
100
AcDbArc
 50
180.0
 51
274.8531450324
  0
LINE
  5
196
330
1F
100
AcDbEntity
  8
0
  6
Continuous
 62
     7
370
    25
100
AcDbLine
 10
13.2304627637
 20
8.9159042752
 30
0.0
 11
13.2304627637
 21
9.1666549988
 31
0.0
  0
ARC
  5
197
330
1F
100
AcDbEntity
  8
0
  6
Continuous
 62
     7
370
    25
100
AcDbCircle
 10
13.2804627637
 20
9.1666549988
 30
0.0
 40
0.0500000000000309
100
AcDbArc
 50
94.8492757288
 51
180.0
  0
SPLINE
  5
198
330
1F
100
AcDbEntity
  8
0
  6
Continuous
 62
     7
370
    25
100
AcDbSpline
210
0.0
220
0.0
230
1.0
 70
     8
 71
     3
 72
    18
 73
    14
 74
     0
 42
0.00000001
 43
0.00000001
 40
0.0
 40
0.0
 40
0.0
 40
0.0
 40
0.044500340014828
 40
0.0895068051878546
 40
0.1350194453117761
 40
0.1810383085362255
 40
0.2275634414391471
 40
0.2745948890943214
 40
0.4391814246524342
 40
0.6112495846218525
 40
0.7992444879729775
 40
0.995997254720107
 40
1.0
 40
1.0
 40
1.0
 40
1.0
 10
13.27623532945966
 20
9.216484193986332
 30
0.0
 10
13.37759663801208
 20
9.225053249287939
 30
0.0
 10
13.58147208919205
 20
9.242288820145811
 30
0.0
 10
13.88904967949785
 20
9.26787111342397
 30
0.0
 10
14.20011117044132
 20
9.29344222808179
 30
0.0
 10
14.51465918484805
 20
9.318971240924299
 30
0.0
 10
14.83269303376217
 20
9.344466332783302
 30
0.0
 10
15.42093838493386
 20
9.391047124659742
 30
0.0
 10
16.29541423370861
 20
9.458400378362223
 30
0.0
 10
17.49143554591966
 20
9.546920990481276
 30
0.0
 10
18.76104515147729
 20
9.63728187565522
 30
0.0
 10
19.64760768562243
 20
9.698034212914509
 30
0.0
 10
20.10547676457432
 20
9.728850694704231
 30
0.0
 10
20.11460594501915
 20
9.72946512628711
 30
0.0
  0
ARC
  5
199
330
1F
100
AcDbEntity
  8
0
  6
Continuous
 62
     7
370
    25
100
AcDbCircle
 10
20.1179627637
 20
9.6795779298
 30
0.0
 40
0.0500000000000009
100
AcDbArc
 50
0.0
 51
93.849525953
  0
LINE
  5
19A
330
1F
100
AcDbEntity
  8
0
  6
Continuous
 62
     7
370
    25
100
AcDbLine
 10
20.1679627637
 20
9.6795779298
 30
0.0
 11
20.1679627637
 21
9.4290570589
 31
0.0
  0
ARC
  5
19B
330
1F
100
AcDbEntity
  8
0
  6
Continuous
 62
     7
370
    25
100
AcDbCircle
 10
20.1179627637
 20
9.4290570589
 30
0.0
 40
0.0500000000000327
100
AcDbArc
 50
273.849964217
 51
0.0
  0
SPLINE
  5
19C
330
1F
100
AcDbEntity
  8
0
  6
Continuous
 62
     7
370
    25
100
AcDbSpline
210
0.0
220
0.0
230
1.0
 70
     8
 71
     3
 72
    10
 73
     6
 74
     0
 42
0.00000001
 43
0.00000001
 40
0.4146690257943668
 40
0.4146690257943668
 40
0.4146690257943668
 40
0.4146690257943668
 40
0.5
 40
0.5625
 40
0.5945324365236899
 40
0.5945324365236899
 40
0.5945324365236899
 40
0.5945324365236899
 10
20.12131996362679
 20
9.379169894113703
 30
0.0
 10
19.03924714796882
 20
9.306350868137896
 30
0.0
 10
17.16518888532979
 20
9.174883798785691
 30
0.0
 10
14.88685263124803
 20
8.99926291049228
 30
0.0
 10
13.69007069351855
 20
8.900502753022998
 30
0.0
 10
13.28469286922448
 20
8.866083534493052
 30
0.0
  0
MTEXT
  5
19D
330
1F
100
AcDbEntity
  8
PART_NAMES
100
AcDbMText
 10
15.620578156
 20
9.3139602719
 30
0.0
 40
0.1666666667
 41
0.0
 71
     1
 72
     1
  1
TSmL
  7
SLDTEXTSTYLE0
 11
0.9975640502598242
 21
0.06975647374412546
 31
0.0
 73
     1
 44
1.0
  0
LINE
  5
19E
330
1F
100
AcDbEntity
  8
0
  6
Continuous
 62
     7
370
    25
100
AcDbLine
 10
12.5829587896
 20
7.9043848812
 30
0.0
 11
12.5829587896
 21
7.6543848812
 31
0.0
  0
LINE
  5
19F
330
1F
100
AcDbEntity
  8
0
  6
Continuous
 62
     7
370
    25
100
AcDbLine
 10
12.5829587896
 20
7.6543848812
 30
0.0
 11
14.5829587896
 21
7.6543848812
 31
0.0
  0
LINE
  5
1A0
330
1F
100
AcDbEntity
  8
0
  6
Continuous
 62
     7
370
    25
100
AcDbLine
 10
14.5829587896
 20
7.9043848812
 30
0.0
 11
14.5829587896
 21
7.6543848812
 31
0.0
  0
LINE
  5
1A1
330
1F
100
AcDbEntity
  8
0
  6
Continuous
 62
     7
370
    25
100
AcDbLine
 10
12.5829587896
 20
7.9043848812
 30
0.0
 11
14.5829587896
 21
7.9043848812
 31
0.0
  0
CIRCLE
  5
1A2
330
1F
100
AcDbEntity
  8
0
  6
Continuous
 62
     7
370
    25
100
AcDbCircle
 10
16.1767087896
 20
7.5293848812
 30
0.0
 40
0.375
  0
ARC
  5
1A3
330
1F
100
AcDbEntity
  8
0
  6
Continuous
 62
     7
370
    25
100
AcDbCircle
 10
4.8767087896
 20
6.8543848812
 30
0.0
 40
0.2000000000000002
100
AcDbArc
 50
180.0
 51
270.0
  0
LINE
  5
1A4
330
1F
100
AcDbEntity
  8
0
  6
Continuous
 62
     7
370
    25
100
AcDbLine
 10
4.6767087896
 20
8.2043848812
 30
0.0
 11
4.6767087896
 21
6.8543848812
 31
0.0
  0
ARC
  5
1A5
330
1F
100
AcDbEntity
  8
0
  6
Continuous
 62
     7
370
    25
100
AcDbCircle
 10
4.8767087896
 20
8.2043848812
 30
0.0
 40
0.1999999999999993
100
AcDbArc
 50
90.0
 51
180.0
  0
LINE
  5
1A6
330
1F
100
AcDbEntity
  8
0
  6
Continuous
 62
     7
370
    25
100
AcDbLine
 10
19.4767087896
 20
8.4043848812
 30
0.0
 11
4.8767087896
 21
8.4043848812
 31
0.0
  0
ARC
  5
1A7
330
1F
100
AcDbEntity
  8
0
  6
Continuous
 62
     7
370
    25
100
AcDbCircle
 10
19.4767087896
 20
8.2043848812
 30
0.0
 40
0.1999999999999993
100
AcDbArc
 50
0.0
 51
90.0
  0
LINE
  5
1A8
330
1F
100
AcDbEntity
  8
0
  6
Continuous
 62
     7
370
    25
100
AcDbLine
 10
19.6767087896
 20
6.8543848812
 30
0.0
 11
19.6767087896
 21
8.2043848812
 31
0.0
  0
ARC
  5
1A9
330
1F
100
AcDbEntity
  8
0
  6
Continuous
 62
     7
370
    25
100
AcDbCircle
 10
19.4767087896
 20
6.8543848812
 30
0.0
 40
0.2000000000000002
100
AcDbArc
 50
270.0
 51
0.0
  0
LINE
  5
1AA
330
1F
100
AcDbEntity
  8
0
  6
Continuous
 62
     7
370
    25
100
AcDbLine
 10
4.8767087896
 20
6.6543848812
 30
0.0
 11
19.4767087896
 21
6.6543848812
 31
0.0
  0
CIRCLE
  5
1AB
330
1F
100
AcDbEntity
  8
0
  6
Continuous
 62
     7
370
    25
100
AcDbCircle
 10
9.1767087896
 20
7.5293848812
 30
0.0
 40
0.375
  0
MTEXT
  5
1AC
330
1F
100
AcDbEntity
  8
PART_NAMES
100
AcDbMText
 10
10.5849126776
 20
7.6104403931
 30
0.0
 40
0.1666666667
 41
0.0
 71
     1
 72
     1
  1
WSOS1
  7
SLDTEXTSTYLE0
 73
     1
 44
1.0
  0
LINE
  5
1AD
330
1F
100
AcDbEntity
  8
0
  6
Continuous
 62
     7
370
    25
100
AcDbLine
 10
12.7775116478
 20
5.4813174662
 30
0.0
 11
12.7775116478
 21
5.2313174662
 31
0.0
  0
LINE
  5
1AE
330
1F
100
AcDbEntity
  8
0
  6
Continuous
 62
     7
370
    25
100
AcDbLine
 10
12.7775116478
 20
5.2313174662
 30
0.0
 11
14.7775116478
 21
5.2313174662
 31
0.0
  0
LINE
  5
1AF
330
1F
100
AcDbEntity
  8
0
  6
Continuous
 62
     7
370
    25
100
AcDbLine
 10
14.7775116478
 20
5.4813174662
 30
0.0
 11
14.7775116478
 21
5.2313174662
 31
0.0
  0
LINE
  5
1B0
330
1F
100
AcDbEntity
  8
0
  6
Continuous
 62
     7
370
    25
100
AcDbLine
 10
12.7775116478
 20
5.4813174662
 30
0.0
 11
14.7775116478
 21
5.4813174662
 31
0.0
  0
CIRCLE
  5
1B1
330
1F
100
AcDbEntity
  8
0
  6
Continuous
 62
     7
370
    25
100
AcDbCircle
 10
16.3712616478
 20
5.1063174662
 30
0.0
 40
0.375
  0
ARC
  5
1B2
330
1F
100
AcDbEntity
  8
0
  6
Continuous
 62
     7
370
    25
100
AcDbCircle
 10
5.0712616478
 20
4.4313174662
 30
0.0
 40
0.1999999999999993
100
AcDbArc
 50
180.0
 51
270.0
  0
LINE
  5
1B3
330
1F
100
AcDbEntity
  8
0
  6
Continuous
 62
     7
370
    25
100
AcDbLine
 10
4.8712616478
 20
5.7813174662
 30
0.0
 11
4.8712616478
 21
4.4313174662
 31
0.0
  0
ARC
  5
1B4
330
1F
100
AcDbEntity
  8
0
  6
Continuous
 62
     7
370
    25
100
AcDbCircle
 10
5.0712616478
 20
5.7813174662
 30
0.0
 40
0.2000000000000002
100
AcDbArc
 50
90.0
 51
180.0
  0
LINE
  5
1B5
330
1F
100
AcDbEntity
  8
0
  6
Continuous
 62
     7
370
    25
100
AcDbLine
 10
19.6712616478
 20
5.9813174662
 30
0.0
 11
5.0712616478
 21
5.9813174662
 31
0.0
  0
ARC
  5
1B6
330
1F
100
AcDbEntity
  8
0
  6
Continuous
 62
     7
370
    25
100
AcDbCircle
 10
19.6712616478
 20
5.7813174662
 30
0.0
 40
0.2000000000000028
100
AcDbArc
 50
0.0
 51
90.0
  0
LINE
  5
1B7
330
1F
100
AcDbEntity
  8
0
  6
Continuous
 62
     7
370
    25
100
AcDbLine
 10
19.8712616478
 20
4.4313174662
 30
0.0
 11
19.8712616478
 21
5.7813174662
 31
0.0
  0
ARC
  5
1B8
330
1F
100
AcDbEntity
  8
0
  6
Continuous
 62
     7
370
    25
100
AcDbCircle
 10
19.6712616478
 20
4.4313174662
 30
0.0
 40
0.2000000000000028
100
AcDbArc
 50
270.0
 51
0.0
  0
LINE
  5
1B9
330
1F
100
AcDbEntity
  8
0
  6
Continuous
 62
     7
370
    25
100
AcDbLine
 10
5.0712616478
 20
4.2313174662
 30
0.0
 11
19.6712616478
 21
4.2313174662
 31
0.0
  0
CIRCLE
  5
1BA
330
1F
100
AcDbEntity
  8
0
  6
Continuous
 62
     7
370
    25
100
AcDbCircle
 10
9.3712616478
 20
5.1063174662
 30
0.0
 40
0.375
  0
MTEXT
  5
1BB
330
1F
100
AcDbEntity
  8
PART_NAMES
100
AcDbMText
 10
11.0801381347
 20
5.2758060955
 30
0.0
 40
0.1666666667
 41
0.0
 71
     1
 72
     1
  1
WSOS2
  7
SLDTEXTSTYLE0
 73
     1
 44
1.0
  0
MTEXT
  5
1BD
330
1F
100
AcDbEntity
  8
0
  6
Continuous
 62
     7
100
AcDbMText
 10
0.0
 20
0.5790104628
 30
0.0
 40
0.2076
 41
0.0
 71
     1
 72
     1
  1
SOLIDWORKS Educational Product.
  7
SLDTEXTSTYLE1
 73
     1
 44
1.0
  0
MTEXT
  5
1BE
330
1F
100
AcDbEntity
  8
0
  6
Continuous
 62
     7
100
AcDbMText
 10
0.0
 20
0.2676104628
 30
0.0
 40
0.2076
 41
0.0
 71
     1
 72
     1
  1
For Instructional Use Only.
  7
SLDTEXTSTYLE1
 73
     1
 44
1.0
  0
ENDSEC
  0
SECTION
  2
OBJECTS
  0
DICTIONARY
  5
C
330
0
100
AcDbDictionary
281
     1
  3
ACAD_GROUP
350
D
  3
ACAD_LAYOUT
350
1A
  3
ACAD_MLINESTYLE
350
17
  3
ACAD_PLOTSETTINGS
350
19
  3
ACAD_PLOTSTYLENAME
350
E
  3
ACAD_SCALELIST
350
47
  3
DWGPROPS
350
1BF
  0
DICTIONARY
  5
D
102
{ACAD_REACTORS
330
C
102
}
330
C
100
AcDbDictionary
281
     1
  0
DICTIONARY
  5
1A
102
{ACAD_REACTORS
330
C
102
}
330
C
100
AcDbDictionary
281
     1
  3
Layout1
350
1E
  3
Layout2
350
26
  3
Model
350
22
  0
DICTIONARY
  5
17
102
{ACAD_REACTORS
330
C
102
}
330
C
100
AcDbDictionary
281
     1
  3
Standard
350
18
  0
DICTIONARY
  5
19
102
{ACAD_REACTORS
330
C
102
}
330
C
100
AcDbDictionary
281
     1
  0
ACDBDICTIONARYWDFLT
  5
E
102
{ACAD_REACTORS
330
C
102
}
330
C
100
AcDbDictionary
281
     1
  3
Normal
350
F
100
AcDbDictionaryWithDefault
340
F
  0
DICTIONARY
  5
47
102
{ACAD_REACTORS
330
C
102
}
330
C
100
AcDbDictionary
281
     1
  3
A0
350
48
  3
A1
350
49
  3
A2
350
4A
  3
A3
350
4B
  3
A4
350
4C
  3
A5
350
4D
  3
A6
350
4E
  3
A7
350
4F
  3
A8
350
50
  3
A9
350
51
  3
B1
350
52
  3
B2
350
53
  3
B3
350
54
  3
B4
350
55
  3
B5
350
56
  3
B6
350
57
  3
B7
350
58
  0
XRECORD
  5
1BF
102
{ACAD_REACTORS
330
C
102
}
330
C
100
AcDbXrecord
280
     1
  1
DWGPROPS COOKIE
  2

  3

  4

  6

  7

  8
ucmai
  9

300
=
301
=
302
=
303
=
304
=
305
=
306
=
307
=
308
=
309
=
 40
0.0
 41
2460784.967645648
 42
2460784.967646551
  1

 90
        0
  0
LAYOUT
  5
1E
102
{ACAD_REACTORS
330
1A
102
}
330
1A
100
AcDbPlotSettings
  1

  2
none_device
  4

  6

 40
0.0
 41
0.0
 42
0.0
 43
0.0
 44
0.0
 45
0.0
 46
0.0
 47
0.0
 48
0.0
 49
0.0
140
0.0
141
0.0
142
1.0
143
1.0
 70
   688
 72
     0
 73
     0
 74
     5
  7

 75
    16
147
1.0
148
0.0
149
0.0
100
AcDbLayout
  1
Layout1
 70
     1
 71
     1
 10
0.0
 20
0.0
 11
12.0
 21
9.0
 12
0.0
 22
0.0
 32
0.0
 14
1.0000000000E+20
 24
1.0000000000E+20
 34
1.0000000000E+20
 15
-1.0000000000E+20
 25
-1.0000000000E+20
 35
-1.0000000000E+20
146
0.0
 13
0.0
 23
0.0
 33
0.0
 16
1.0
 26
0.0
 36
0.0
 17
0.0
 27
1.0
 37
0.0
 76
     0
330
1B
  0
LAYOUT
  5
26
102
{ACAD_REACTORS
330
1A
102
}
330
1A
100
AcDbPlotSettings
  1

  2
none_device
  4

  6

 40
0.0
 41
0.0
 42
0.0
 43
0.0
 44
0.0
 45
0.0
 46
0.0
 47
0.0
 48
0.0
 49
0.0
140
0.0
141
0.0
142
1.0
143
1.0
 70
   688
 72
     0
 73
     0
 74
     5
  7

 75
    16
147
1.0
148
0.0
149
0.0
100
AcDbLayout
  1
Layout2
 70
     1
 71
     2
 10
0.0
 20
0.0
 11
0.0
 21
0.0
 12
0.0
 22
0.0
 32
0.0
 14
0.0
 24
0.0
 34
0.0
 15
0.0
 25
0.0
 35
0.0
146
0.0
 13
0.0
 23
0.0
 33
0.0
 16
1.0
 26
0.0
 36
0.0
 17
0.0
 27
1.0
 37
0.0
 76
     0
330
23
  0
LAYOUT
  5
22
102
{ACAD_REACTORS
330
1A
102
}
330
1A
100
AcDbPlotSettings
  1

  2
none_device
  4
Letter_(8.50_x_11.00_Inches)
  6

 40
6.35
 41
6.35
 42
6.35000508
 43
6.35000508
 44
215.9
 45
279.4
 46
0.0
 47
0.0
 48
0.0
 49
0.0
140
0.0
141
0.0
142
1.0
143
1.0
 70
  1712
 72
     0
 73
     0
 74
     0
  7

 75
     0
147
1.0
148
0.0
149
0.0
100
AcDbLayout
  1
Model
 70
     1
 71
     0
 10
0.0
 20
0.0
 11
24.0
 21
12.0
 12
0.0
 22
0.0
 32
0.0
 14
0.0
 24
0.0
 34
0.0
 15
24.0
 25
12.0
 35
0.0
146
0.0
 13
0.0
 23
0.0
 33
0.0
 16
1.0
 26
0.0
 36
0.0
 17
0.0
 27
1.0
 37
0.0
 76
     0
330
1F
331
29
  0
MLINESTYLE
  5
18
102
{ACAD_REACTORS
330
17
102
}
330
17
100
AcDbMlineStyle
  2
Standard
 70
     0
  3

 62
   256
 51
90.0
 52
90.0
 71
     2
 49
0.5
 62
   256
  6
BYLAYER
 49
-0.5
 62
   256
  6
BYLAYER
  0
ACDBPLACEHOLDER
  5
F
102
{ACAD_REACTORS
330
E
102
}
330
E
  0
SCALE
  5
48
102
{ACAD_REACTORS
330
47
102
}
330
47
100
AcDbScale
 70
     0
300
1:1
140
1.0
141
1.0
290
     1
  0
SCALE
  5
49
102
{ACAD_REACTORS
330
47
102
}
330
47
100
AcDbScale
 70
     0
300
1/128" = 1'-0"
140
0.0078125
141
12.0
290
     0
  0
SCALE
  5
4A
102
{ACAD_REACTORS
330
47
102
}
330
47
100
AcDbScale
 70
     0
300
1/64" = 1'-0"
140
0.015625
141
12.0
290
     0
  0
SCALE
  5
4B
102
{ACAD_REACTORS
330
47
102
}
330
47
100
AcDbScale
 70
     0
300
1/32" = 1'-0"
140
0.03125
141
12.0
290
     0
  0
SCALE
  5
4C
102
{ACAD_REACTORS
330
47
102
}
330
47
100
AcDbScale
 70
     0
300
1/16" = 1'-0"
140
0.0625
141
12.0
290
     0
  0
SCALE
  5
4D
102
{ACAD_REACTORS
330
47
102
}
330
47
100
AcDbScale
 70
     0
300
3/32" = 1'-0"
140
0.09375
141
12.0
290
     0
  0
SCALE
  5
4E
102
{ACAD_REACTORS
330
47
102
}
330
47
100
AcDbScale
 70
     0
300
1/8" = 1'-0"
140
0.125
141
12.0
290
     0
  0
SCALE
  5
4F
102
{ACAD_REACTORS
330
47
102
}
330
47
100
AcDbScale
 70
     0
300
3/16" = 1'-0"
140
0.1875
141
12.0
290
     0
  0
SCALE
  5
50
102
{ACAD_REACTORS
330
47
102
}
330
47
100
AcDbScale
 70
     0
300
1/4" = 1'-0"
140
0.25
141
12.0
290
     0
  0
SCALE
  5
51
102
{ACAD_REACTORS
330
47
102
}
330
47
100
AcDbScale
 70
     0
300
3/8" = 1'-0"
140
0.375
141
12.0
290
     0
  0
SCALE
  5
52
102
{ACAD_REACTORS
330
47
102
}
330
47
100
AcDbScale
 70
     0
300
1/2" = 1'-0"
140
0.5
141
12.0
290
     0
  0
SCALE
  5
53
102
{ACAD_REACTORS
330
47
102
}
330
47
100
AcDbScale
 70
     0
300
3/4" = 1'-0"
140
0.75
141
12.0
290
     0
  0
SCALE
  5
54
102
{ACAD_REACTORS
330
47
102
}
330
47
100
AcDbScale
 70
     0
300
1" = 1'-0"
140
1.0
141
12.0
290
     0
  0
SCALE
  5
55
102
{ACAD_REACTORS
330
47
102
}
330
47
100
AcDbScale
 70
     0
300
1-1/2" = 1'-0"
140
1.5
141
12.0
290
     0
  0
SCALE
  5
56
102
{ACAD_REACTORS
330
47
102
}
330
47
100
AcDbScale
 70
     0
300
3" = 1'-0"
140
3.0
141
12.0
290
     0
  0
SCALE
  5
57
102
{ACAD_REACTORS
330
47
102
}
330
47
100
AcDbScale
 70
     0
300
6" = 1'-0"
140
6.0
141
12.0
290
     0
  0
SCALE
  5
58
102
{ACAD_REACTORS
330
47
102
}
330
47
100
AcDbScale
 70
     0
300
1'-0" = 1'-0"
140
12.0
141
12.0
290
     0
  0
ENDSEC
  0
EOF
